<?xml version="1.0" encoding="UTF-8" standalone="no"?>
<!DOCTYPE svg PUBLIC "-//W3C//DTD SVG 1.1//EN"
 "http://www.w3.org/Graphics/SVG/1.1/DTD/svg11.dtd">
<!-- Generated by graphviz version 2.49.3 (20211027.1501)
 -->
<!-- Title: /github/workspace/src/voxel/AllocationHandler.cpp Pages: 1 -->
<svg width="404pt" height="285pt"
 viewBox="0.00 0.00 404.00 285.00" xmlns="http://www.w3.org/2000/svg" xmlns:xlink="http://www.w3.org/1999/xlink">
<g id="graph0" class="graph" transform="scale(1 1) rotate(0) translate(4 281)">
<title>/github/workspace/src/voxel/AllocationHandler.cpp</title>
<!-- Node1 -->
<g id="node1" class="node">
<title>Node1</title>
<g id="a_node1"><a xlink:title=" ">
<polygon fill="#bfbfbf" stroke="black" points="0,-246.5 0,-276.5 140,-276.5 140,-246.5 0,-246.5"/>
<text text-anchor="start" x="8" y="-264.5" font-family="Helvetica,sans-Serif" font-size="10.00">/github/workspace/src</text>
<text text-anchor="middle" x="70" y="-253.5" font-family="Helvetica,sans-Serif" font-size="10.00">/voxel/AllocationHandler.cpp</text>
</a>
</g>
</g>
<!-- Node2 -->
<g id="node2" class="node">
<title>Node2</title>
<g id="a_node2"><a xlink:href="_allocation_handler_8h.html" target="_top" xlink:title=" ">
<polygon fill="none" stroke="black" points="19.5,-190.5 19.5,-209.5 120.5,-209.5 120.5,-190.5 19.5,-190.5"/>
<text text-anchor="middle" x="70" y="-197.5" font-family="Helvetica,sans-Serif" font-size="10.00">AllocationHandler.h</text>
</a>
</g>
</g>
<!-- Node1&#45;&gt;Node2 -->
<g id="edge1" class="edge">
<title>Node1&#45;&gt;Node2</title>
<path fill="none" stroke="midnightblue" d="M70,-246.4C70,-238.47 70,-228.46 70,-219.86"/>
<polygon fill="midnightblue" stroke="midnightblue" points="73.5,-219.66 70,-209.66 66.5,-219.66 73.5,-219.66"/>
</g>
<!-- Node3 -->
<g id="node3" class="node">
<title>Node3</title>
<g id="a_node3"><a xlink:title=" ">
<polygon fill="none" stroke="#bfbfbf" points="8.5,-73 8.5,-92 59.5,-92 59.5,-73 8.5,-73"/>
<text text-anchor="middle" x="34" y="-80" font-family="Helvetica,sans-Serif" font-size="10.00">memory</text>
</a>
</g>
</g>
<!-- Node2&#45;&gt;Node3 -->
<g id="edge2" class="edge">
<title>Node2&#45;&gt;Node3</title>
<path fill="none" stroke="midnightblue" d="M62.03,-190.48C54.6,-181.97 43.96,-168.15 39,-154 33.11,-137.19 32.29,-116.77 32.69,-102.24"/>
<polygon fill="midnightblue" stroke="midnightblue" points="36.19,-102.2 33.19,-92.04 29.2,-101.85 36.19,-102.2"/>
</g>
<!-- Node4 -->
<g id="node4" class="node">
<title>Node4</title>
<g id="a_node4"><a xlink:title=" ">
<polygon fill="none" stroke="#bfbfbf" points="48,-134.5 48,-153.5 92,-153.5 92,-134.5 48,-134.5"/>
<text text-anchor="middle" x="70" y="-141.5" font-family="Helvetica,sans-Serif" font-size="10.00">vector</text>
</a>
</g>
</g>
<!-- Node2&#45;&gt;Node4 -->
<g id="edge3" class="edge">
<title>Node2&#45;&gt;Node4</title>
<path fill="none" stroke="midnightblue" d="M70,-190.08C70,-183.01 70,-172.86 70,-163.99"/>
<polygon fill="midnightblue" stroke="midnightblue" points="73.5,-163.75 70,-153.75 66.5,-163.75 73.5,-163.75"/>
</g>
<!-- Node5 -->
<g id="node5" class="node">
<title>Node5</title>
<g id="a_node5"><a xlink:href="_voxel_utils_8h.html" target="_top" xlink:title=" ">
<polygon fill="none" stroke="black" points="110,-134.5 110,-153.5 178,-153.5 178,-134.5 110,-134.5"/>
<text text-anchor="middle" x="144" y="-141.5" font-family="Helvetica,sans-Serif" font-size="10.00">VoxelUtils.h</text>
</a>
</g>
</g>
<!-- Node2&#45;&gt;Node5 -->
<g id="edge4" class="edge">
<title>Node2&#45;&gt;Node5</title>
<path fill="none" stroke="midnightblue" d="M81.89,-190.32C93.15,-182.11 110.29,-169.6 123.71,-159.81"/>
<polygon fill="midnightblue" stroke="midnightblue" points="125.88,-162.56 131.89,-153.83 121.75,-156.9 125.88,-162.56"/>
</g>
<!-- Node5&#45;&gt;Node3 -->
<g id="edge5" class="edge">
<title>Node5&#45;&gt;Node3</title>
<path fill="none" stroke="midnightblue" d="M128.24,-134.48C110.02,-124.62 79.83,-108.29 58.53,-96.77"/>
<polygon fill="midnightblue" stroke="midnightblue" points="60.19,-93.69 49.73,-92.01 56.86,-99.85 60.19,-93.69"/>
</g>
<!-- Node6 -->
<g id="node6" class="node">
<title>Node6</title>
<g id="a_node6"><a xlink:title=" ">
<polygon fill="none" stroke="#bfbfbf" points="85,-67.5 85,-97.5 189,-97.5 189,-67.5 85,-67.5"/>
<text text-anchor="start" x="93" y="-85.5" font-family="Helvetica,sans-Serif" font-size="10.00">boost/multiprecision</text>
<text text-anchor="middle" x="137" y="-74.5" font-family="Helvetica,sans-Serif" font-size="10.00">/cpp_int.hpp</text>
</a>
</g>
</g>
<!-- Node5&#45;&gt;Node6 -->
<g id="edge6" class="edge">
<title>Node5&#45;&gt;Node6</title>
<path fill="none" stroke="midnightblue" d="M143,-134.48C142.17,-127.47 140.96,-117.19 139.85,-107.7"/>
<polygon fill="midnightblue" stroke="midnightblue" points="143.29,-107.05 138.65,-97.52 136.34,-107.86 143.29,-107.05"/>
</g>
<!-- Node7 -->
<g id="node7" class="node">
<title>Node7</title>
<g id="a_node7"><a xlink:href="_lib_morton_8h.html" target="_top" xlink:title=" ">
<polygon fill="none" stroke="black" points="207,-73 207,-92 275,-92 275,-73 207,-73"/>
<text text-anchor="middle" x="241" y="-80" font-family="Helvetica,sans-Serif" font-size="10.00">LibMorton.h</text>
</a>
</g>
</g>
<!-- Node5&#45;&gt;Node7 -->
<g id="edge7" class="edge">
<title>Node5&#45;&gt;Node7</title>
<path fill="none" stroke="midnightblue" d="M157.9,-134.48C173.67,-124.8 199.64,-108.87 218.35,-97.39"/>
<polygon fill="midnightblue" stroke="midnightblue" points="220.43,-100.22 227.13,-92.01 216.77,-94.25 220.43,-100.22"/>
</g>
<!-- Node8 -->
<g id="node8" class="node">
<title>Node8</title>
<g id="a_node8"><a xlink:title=" ">
<polygon fill="none" stroke="#bfbfbf" points="86,-0.5 86,-30.5 232,-30.5 232,-0.5 86,-0.5"/>
<text text-anchor="start" x="94" y="-18.5" font-family="Helvetica,sans-Serif" font-size="10.00">../../lib/libmorton</text>
<text text-anchor="middle" x="159" y="-7.5" font-family="Helvetica,sans-Serif" font-size="10.00">/include/libmorton/morton2D.h</text>
</a>
</g>
</g>
<!-- Node7&#45;&gt;Node8 -->
<g id="edge8" class="edge">
<title>Node7&#45;&gt;Node8</title>
<path fill="none" stroke="midnightblue" d="M229.94,-72.73C218.43,-63.61 200,-49 184.81,-36.96"/>
<polygon fill="midnightblue" stroke="midnightblue" points="186.78,-34.06 176.77,-30.59 182.44,-39.54 186.78,-34.06"/>
</g>
<!-- Node9 -->
<g id="node9" class="node">
<title>Node9</title>
<g id="a_node9"><a xlink:title=" ">
<polygon fill="none" stroke="#bfbfbf" points="250,-0.5 250,-30.5 396,-30.5 396,-0.5 250,-0.5"/>
<text text-anchor="start" x="258" y="-18.5" font-family="Helvetica,sans-Serif" font-size="10.00">../../lib/libmorton</text>
<text text-anchor="middle" x="323" y="-7.5" font-family="Helvetica,sans-Serif" font-size="10.00">/include/libmorton/morton3D.h</text>
</a>
</g>
</g>
<!-- Node7&#45;&gt;Node9 -->
<g id="edge9" class="edge">
<title>Node7&#45;&gt;Node9</title>
<path fill="none" stroke="midnightblue" d="M252.06,-72.73C263.57,-63.61 282,-49 297.19,-36.96"/>
<polygon fill="midnightblue" stroke="midnightblue" points="299.56,-39.54 305.23,-30.59 295.22,-34.06 299.56,-39.54"/>
</g>
</g>
</svg>
