<?xml version="1.0" encoding="UTF-8" standalone="no"?>
<!DOCTYPE svg PUBLIC "-//W3C//DTD SVG 1.1//EN"
 "http://www.w3.org/Graphics/SVG/1.1/DTD/svg11.dtd">
<!-- Generated by graphviz version 2.49.3 (20211027.1501)
 -->
<!-- Title: /github/workspace/src/voxel/AllocationHandler.h Pages: 1 -->
<svg width="660pt" height="240pt"
 viewBox="0.00 0.00 659.50 240.00" xmlns="http://www.w3.org/2000/svg" xmlns:xlink="http://www.w3.org/1999/xlink">
<g id="graph0" class="graph" transform="scale(1 1) rotate(0) translate(4 236)">
<title>/github/workspace/src/voxel/AllocationHandler.h</title>
<!-- Node1 -->
<g id="node1" class="node">
<title>Node1</title>
<g id="a_node1"><a xlink:title=" ">
<polygon fill="#bfbfbf" stroke="black" points="265,-201.5 265,-231.5 394,-231.5 394,-201.5 265,-201.5"/>
<text text-anchor="start" x="273" y="-219.5" font-family="Helvetica,sans-Serif" font-size="10.00">/github/workspace/src</text>
<text text-anchor="middle" x="329.5" y="-208.5" font-family="Helvetica,sans-Serif" font-size="10.00">/voxel/AllocationHandler.h</text>
</a>
</g>
</g>
<!-- Node2 -->
<g id="node2" class="node">
<title>Node2</title>
<g id="a_node2"><a xlink:href="memory__allocation_8cpp.html" target="_top" xlink:title=" ">
<polygon fill="none" stroke="black" points="0,-134.5 0,-164.5 143,-164.5 143,-134.5 0,-134.5"/>
<text text-anchor="start" x="8" y="-152.5" font-family="Helvetica,sans-Serif" font-size="10.00">/github/workspace/src</text>
<text text-anchor="middle" x="71.5" y="-141.5" font-family="Helvetica,sans-Serif" font-size="10.00">/tests/memory_allocation.cpp</text>
</a>
</g>
</g>
<!-- Node1&#45;&gt;Node2 -->
<g id="edge1" class="edge">
<title>Node1&#45;&gt;Node2</title>
<path fill="none" stroke="midnightblue" d="M263.95,-198.98C221.8,-188.37 167.64,-174.72 127.51,-164.61"/>
<polygon fill="midnightblue" stroke="midnightblue" points="263.28,-202.43 273.84,-201.48 264.99,-195.64 263.28,-202.43"/>
</g>
<!-- Node3 -->
<g id="node3" class="node">
<title>Node3</title>
<g id="a_node3"><a xlink:href="_allocation_handler_8cpp.html" target="_top" xlink:title=" ">
<polygon fill="none" stroke="black" points="161.5,-134.5 161.5,-164.5 301.5,-164.5 301.5,-134.5 161.5,-134.5"/>
<text text-anchor="start" x="169.5" y="-152.5" font-family="Helvetica,sans-Serif" font-size="10.00">/github/workspace/src</text>
<text text-anchor="middle" x="231.5" y="-141.5" font-family="Helvetica,sans-Serif" font-size="10.00">/voxel/AllocationHandler.cpp</text>
</a>
</g>
</g>
<!-- Node1&#45;&gt;Node3 -->
<g id="edge2" class="edge">
<title>Node1&#45;&gt;Node3</title>
<path fill="none" stroke="midnightblue" d="M299.7,-195.73C284.53,-185.68 266.46,-173.68 252.72,-164.58"/>
<polygon fill="midnightblue" stroke="midnightblue" points="297.97,-198.79 308.24,-201.4 301.84,-192.95 297.97,-198.79"/>
</g>
<!-- Node4 -->
<g id="node4" class="node">
<title>Node4</title>
<g id="a_node4"><a xlink:href="_voxel_codec_base_8h.html" target="_top" xlink:title=" ">
<polygon fill="none" stroke="black" points="358,-134.5 358,-164.5 485,-164.5 485,-134.5 358,-134.5"/>
<text text-anchor="start" x="366" y="-152.5" font-family="Helvetica,sans-Serif" font-size="10.00">/github/workspace/src</text>
<text text-anchor="middle" x="421.5" y="-141.5" font-family="Helvetica,sans-Serif" font-size="10.00">/voxel/VoxelCodecBase.h</text>
</a>
</g>
</g>
<!-- Node1&#45;&gt;Node4 -->
<g id="edge3" class="edge">
<title>Node1&#45;&gt;Node4</title>
<path fill="none" stroke="midnightblue" d="M357.88,-195.45C372.03,-185.45 388.81,-173.6 401.58,-164.58"/>
<polygon fill="midnightblue" stroke="midnightblue" points="355.61,-192.77 349.46,-201.4 359.65,-198.48 355.61,-192.77"/>
</g>
<!-- Node5 -->
<g id="node5" class="node">
<title>Node5</title>
<g id="a_node5"><a xlink:href="_voxel_codec_linear_8h.html" target="_top" xlink:title=" ">
<polygon fill="none" stroke="black" points="194,-67.5 194,-97.5 325,-97.5 325,-67.5 194,-67.5"/>
<text text-anchor="start" x="202" y="-85.5" font-family="Helvetica,sans-Serif" font-size="10.00">/github/workspace/src</text>
<text text-anchor="middle" x="259.5" y="-74.5" font-family="Helvetica,sans-Serif" font-size="10.00">/voxel/VoxelCodecLinear.h</text>
</a>
</g>
</g>
<!-- Node1&#45;&gt;Node5 -->
<g id="edge9" class="edge">
<title>Node1&#45;&gt;Node5</title>
<path fill="none" stroke="midnightblue" d="M327.42,-191.2C325.14,-174.29 320.39,-151.69 310.5,-134 302.54,-119.75 289.37,-106.86 278.41,-97.67"/>
<polygon fill="midnightblue" stroke="midnightblue" points="323.97,-191.85 328.59,-201.39 330.92,-191.05 323.97,-191.85"/>
</g>
<!-- Node9 -->
<g id="node9" class="node">
<title>Node9</title>
<g id="a_node9"><a xlink:href="_voxel_codec_shuffle_8h.html" target="_top" xlink:title=" ">
<polygon fill="none" stroke="black" points="517.5,-67.5 517.5,-97.5 651.5,-97.5 651.5,-67.5 517.5,-67.5"/>
<text text-anchor="start" x="525.5" y="-85.5" font-family="Helvetica,sans-Serif" font-size="10.00">/github/workspace/src</text>
<text text-anchor="middle" x="584.5" y="-74.5" font-family="Helvetica,sans-Serif" font-size="10.00">/voxel/VoxelCodecShuffle.h</text>
</a>
</g>
</g>
<!-- Node1&#45;&gt;Node9 -->
<g id="edge10" class="edge">
<title>Node1&#45;&gt;Node9</title>
<path fill="none" stroke="midnightblue" d="M403.86,-200.16C433.28,-192.23 466.65,-180.82 494.5,-165 526.39,-146.89 556.51,-115.75 572.53,-97.65"/>
<polygon fill="midnightblue" stroke="midnightblue" points="402.85,-196.81 394.05,-202.72 404.61,-203.58 402.85,-196.81"/>
</g>
<!-- Node4&#45;&gt;Node5 -->
<g id="edge4" class="edge">
<title>Node4&#45;&gt;Node5</title>
<path fill="none" stroke="midnightblue" d="M376.75,-130.54C350.83,-120.14 318.66,-107.24 294.58,-97.58"/>
<polygon fill="midnightblue" stroke="midnightblue" points="375.76,-133.92 386.35,-134.4 378.37,-127.42 375.76,-133.92"/>
</g>
<!-- Node7 -->
<g id="node7" class="node">
<title>Node7</title>
<g id="a_node7"><a xlink:href="_voxel_codec_octree_base_8h.html" target="_top" xlink:title=" ">
<polygon fill="none" stroke="black" points="343.5,-67.5 343.5,-97.5 499.5,-97.5 499.5,-67.5 343.5,-67.5"/>
<text text-anchor="start" x="351.5" y="-85.5" font-family="Helvetica,sans-Serif" font-size="10.00">/github/workspace/src</text>
<text text-anchor="middle" x="421.5" y="-74.5" font-family="Helvetica,sans-Serif" font-size="10.00">/voxel/VoxelCodecOctreeBase.h</text>
</a>
</g>
</g>
<!-- Node4&#45;&gt;Node7 -->
<g id="edge6" class="edge">
<title>Node4&#45;&gt;Node7</title>
<path fill="none" stroke="midnightblue" d="M421.5,-124.11C421.5,-115.15 421.5,-105.32 421.5,-97.58"/>
<polygon fill="midnightblue" stroke="midnightblue" points="418,-124.4 421.5,-134.4 425,-124.4 418,-124.4"/>
</g>
<!-- Node4&#45;&gt;Node9 -->
<g id="edge8" class="edge">
<title>Node4&#45;&gt;Node9</title>
<path fill="none" stroke="midnightblue" d="M466.18,-130.68C492.33,-120.26 524.87,-107.28 549.2,-97.58"/>
<polygon fill="midnightblue" stroke="midnightblue" points="464.86,-127.44 456.87,-134.4 467.45,-133.94 464.86,-127.44"/>
</g>
<!-- Node6 -->
<g id="node6" class="node">
<title>Node6</title>
<g id="a_node6"><a xlink:href="voxels_8cpp.html" target="_top" xlink:title=" ">
<polygon fill="none" stroke="black" points="203,-0.5 203,-30.5 316,-30.5 316,-0.5 203,-0.5"/>
<text text-anchor="start" x="211" y="-18.5" font-family="Helvetica,sans-Serif" font-size="10.00">/github/workspace/src</text>
<text text-anchor="middle" x="259.5" y="-7.5" font-family="Helvetica,sans-Serif" font-size="10.00">/tests/voxels.cpp</text>
</a>
</g>
</g>
<!-- Node5&#45;&gt;Node6 -->
<g id="edge5" class="edge">
<title>Node5&#45;&gt;Node6</title>
<path fill="none" stroke="midnightblue" d="M259.5,-57.11C259.5,-48.15 259.5,-38.32 259.5,-30.58"/>
<polygon fill="midnightblue" stroke="midnightblue" points="256,-57.4 259.5,-67.4 263,-57.4 256,-57.4"/>
</g>
<!-- Node8 -->
<g id="node8" class="node">
<title>Node8</title>
<g id="a_node8"><a xlink:href="_voxel_codec_sparse_octree_8h.html" target="_top" xlink:title=" ">
<polygon fill="none" stroke="black" points="339.5,-0.5 339.5,-30.5 503.5,-30.5 503.5,-0.5 339.5,-0.5"/>
<text text-anchor="start" x="347.5" y="-18.5" font-family="Helvetica,sans-Serif" font-size="10.00">/github/workspace/src</text>
<text text-anchor="middle" x="421.5" y="-7.5" font-family="Helvetica,sans-Serif" font-size="10.00">/voxel/VoxelCodecSparseOctree.h</text>
</a>
</g>
</g>
<!-- Node7&#45;&gt;Node8 -->
<g id="edge7" class="edge">
<title>Node7&#45;&gt;Node8</title>
<path fill="none" stroke="midnightblue" d="M421.5,-57.11C421.5,-48.15 421.5,-38.32 421.5,-30.58"/>
<polygon fill="midnightblue" stroke="midnightblue" points="418,-57.4 421.5,-67.4 425,-57.4 418,-57.4"/>
</g>
</g>
</svg>
