<?xml version="1.0" encoding="UTF-8" standalone="no"?>
<!DOCTYPE svg PUBLIC "-//W3C//DTD SVG 1.1//EN"
 "http://www.w3.org/Graphics/SVG/1.1/DTD/svg11.dtd">
<!-- Generated by graphviz version 3.0.0 (20220413.0106)
 -->
<!-- Title: /github/workspace/src/voxel/AllocationHandler.h Pages: 1 -->
<svg width="695pt" height="307pt"
 viewBox="0.00 0.00 694.50 307.00" xmlns="http://www.w3.org/2000/svg" xmlns:xlink="http://www.w3.org/1999/xlink">
<g id="graph0" class="graph" transform="scale(1 1) rotate(0) translate(4 303)">
<title>/github/workspace/src/voxel/AllocationHandler.h</title>
<!-- Node1 -->
<g id="node1" class="node">
<title>Node1</title>
<g id="a_node1"><a xlink:title=" ">
<polygon fill="#bfbfbf" stroke="black" points="311,-268.5 311,-298.5 440,-298.5 440,-268.5 311,-268.5"/>
<text text-anchor="start" x="319" y="-286.5" font-family="Helvetica,sans-Serif" font-size="10.00">/github/workspace/src</text>
<text text-anchor="middle" x="375.5" y="-275.5" font-family="Helvetica,sans-Serif" font-size="10.00">/voxel/AllocationHandler.h</text>
</a>
</g>
</g>
<!-- Node2 -->
<g id="node2" class="node">
<title>Node2</title>
<g id="a_node2"><a xlink:href="memory__allocation_8cpp.html" target="_top" xlink:title=" ">
<polygon fill="none" stroke="black" points="0,-201.5 0,-231.5 143,-231.5 143,-201.5 0,-201.5"/>
<text text-anchor="start" x="8" y="-219.5" font-family="Helvetica,sans-Serif" font-size="10.00">/github/workspace/src</text>
<text text-anchor="middle" x="71.5" y="-208.5" font-family="Helvetica,sans-Serif" font-size="10.00">/tests/memory_allocation.cpp</text>
</a>
</g>
</g>
<!-- Node1&#45;&gt;Node2 -->
<g id="edge1" class="edge">
<title>Node1&#45;&gt;Node2</title>
<path fill="none" stroke="midnightblue" d="M300.84,-266.54C250.67,-255.81 185.18,-241.81 137.03,-231.51"/>
<polygon fill="midnightblue" stroke="midnightblue" points="300.15,-269.97 310.66,-268.64 301.61,-263.12 300.15,-269.97"/>
</g>
<!-- Node3 -->
<g id="node3" class="node">
<title>Node3</title>
<g id="a_node3"><a xlink:href="_allocation_handler_8cpp.html" target="_top" xlink:title=" ">
<polygon fill="none" stroke="black" points="161.5,-201.5 161.5,-231.5 301.5,-231.5 301.5,-201.5 161.5,-201.5"/>
<text text-anchor="start" x="169.5" y="-219.5" font-family="Helvetica,sans-Serif" font-size="10.00">/github/workspace/src</text>
<text text-anchor="middle" x="231.5" y="-208.5" font-family="Helvetica,sans-Serif" font-size="10.00">/voxel/AllocationHandler.cpp</text>
</a>
</g>
</g>
<!-- Node1&#45;&gt;Node3 -->
<g id="edge2" class="edge">
<title>Node1&#45;&gt;Node3</title>
<path fill="none" stroke="midnightblue" d="M335.11,-264.27C312.18,-253.92 283.9,-241.15 262.68,-231.58"/>
<polygon fill="midnightblue" stroke="midnightblue" points="333.7,-267.47 344.25,-268.4 336.58,-261.09 333.7,-267.47"/>
</g>
<!-- Node4 -->
<g id="node4" class="node">
<title>Node4</title>
<g id="a_node4"><a xlink:href="_voxel_codec_base_8h.html" target="_top" xlink:title=" ">
<polygon fill="none" stroke="black" points="358,-201.5 358,-231.5 485,-231.5 485,-201.5 358,-201.5"/>
<text text-anchor="start" x="366" y="-219.5" font-family="Helvetica,sans-Serif" font-size="10.00">/github/workspace/src</text>
<text text-anchor="middle" x="421.5" y="-208.5" font-family="Helvetica,sans-Serif" font-size="10.00">/voxel/VoxelCodecBase.h</text>
</a>
</g>
</g>
<!-- Node1&#45;&gt;Node4 -->
<g id="edge3" class="edge">
<title>Node1&#45;&gt;Node4</title>
<path fill="none" stroke="midnightblue" d="M391.31,-260.16C398.02,-250.68 405.63,-239.92 411.54,-231.58"/>
<polygon fill="midnightblue" stroke="midnightblue" points="388.4,-258.21 385.48,-268.4 394.12,-262.26 388.4,-258.21"/>
</g>
<!-- Node5 -->
<g id="node5" class="node">
<title>Node5</title>
<g id="a_node5"><a xlink:href="_voxel_codec_linear_8h.html" target="_top" xlink:title=" ">
<polygon fill="none" stroke="black" points="229,-134.5 229,-164.5 360,-164.5 360,-134.5 229,-134.5"/>
<text text-anchor="start" x="237" y="-152.5" font-family="Helvetica,sans-Serif" font-size="10.00">/github/workspace/src</text>
<text text-anchor="middle" x="294.5" y="-141.5" font-family="Helvetica,sans-Serif" font-size="10.00">/voxel/VoxelCodecLinear.h</text>
</a>
</g>
</g>
<!-- Node1&#45;&gt;Node5 -->
<g id="edge10" class="edge">
<title>Node1&#45;&gt;Node5</title>
<path fill="none" stroke="midnightblue" d="M361.59,-259.83C344.8,-232.47 317.07,-187.28 303.11,-164.52"/>
<polygon fill="midnightblue" stroke="midnightblue" points="358.62,-261.68 366.83,-268.37 364.58,-258.02 358.62,-261.68"/>
</g>
<!-- Node7 -->
<g id="node7" class="node">
<title>Node7</title>
<g id="a_node7"><a xlink:href="_voxel_codec_octree_base_8h.html" target="_top" xlink:title=" ">
<polygon fill="none" stroke="black" points="378.5,-134.5 378.5,-164.5 534.5,-164.5 534.5,-134.5 378.5,-134.5"/>
<text text-anchor="start" x="386.5" y="-152.5" font-family="Helvetica,sans-Serif" font-size="10.00">/github/workspace/src</text>
<text text-anchor="middle" x="456.5" y="-141.5" font-family="Helvetica,sans-Serif" font-size="10.00">/voxel/VoxelCodecOctreeBase.h</text>
</a>
</g>
</g>
<!-- Node1&#45;&gt;Node7 -->
<g id="edge11" class="edge">
<title>Node1&#45;&gt;Node7</title>
<path fill="none" stroke="midnightblue" d="M449.89,-266.24C467.39,-258.77 484,-247.87 494.5,-232 509.06,-210 487.84,-181.53 471.73,-164.72"/>
<polygon fill="midnightblue" stroke="midnightblue" points="448.15,-263.17 440.1,-270.06 450.69,-269.69 448.15,-263.17"/>
</g>
<!-- Node10 -->
<g id="node10" class="node">
<title>Node10</title>
<g id="a_node10"><a xlink:href="_voxel_codec_shuffle_8h.html" target="_top" xlink:title=" ">
<polygon fill="none" stroke="black" points="552.5,-134.5 552.5,-164.5 686.5,-164.5 686.5,-134.5 552.5,-134.5"/>
<text text-anchor="start" x="560.5" y="-152.5" font-family="Helvetica,sans-Serif" font-size="10.00">/github/workspace/src</text>
<text text-anchor="middle" x="619.5" y="-141.5" font-family="Helvetica,sans-Serif" font-size="10.00">/voxel/VoxelCodecShuffle.h</text>
</a>
</g>
</g>
<!-- Node1&#45;&gt;Node10 -->
<g id="edge12" class="edge">
<title>Node1&#45;&gt;Node10</title>
<path fill="none" stroke="midnightblue" d="M432.46,-265.22C457.16,-256.72 485.98,-245.4 510.5,-232 546.17,-212.52 583.11,-182.42 603.51,-164.77"/>
<polygon fill="midnightblue" stroke="midnightblue" points="431.22,-261.95 422.86,-268.46 433.45,-268.58 431.22,-261.95"/>
</g>
<!-- Node4&#45;&gt;Node5 -->
<g id="edge4" class="edge">
<title>Node4&#45;&gt;Node5</title>
<path fill="none" stroke="midnightblue" d="M384.8,-196.71C364.77,-186.46 340.38,-173.98 322,-164.58"/>
<polygon fill="midnightblue" stroke="midnightblue" points="383.45,-199.96 393.94,-201.4 386.64,-193.72 383.45,-199.96"/>
</g>
<!-- Node4&#45;&gt;Node7 -->
<g id="edge6" class="edge">
<title>Node4&#45;&gt;Node7</title>
<path fill="none" stroke="midnightblue" d="M433.84,-192.58C438.87,-183.24 444.52,-172.75 448.92,-164.58"/>
<polygon fill="midnightblue" stroke="midnightblue" points="430.75,-190.93 429.09,-201.4 436.92,-194.25 430.75,-190.93"/>
</g>
<!-- Node4&#45;&gt;Node10 -->
<g id="edge9" class="edge">
<title>Node4&#45;&gt;Node10</title>
<path fill="none" stroke="midnightblue" d="M474.11,-198.23C506.14,-187.71 546.54,-174.45 576.62,-164.58"/>
<polygon fill="midnightblue" stroke="midnightblue" points="472.87,-194.95 464.46,-201.4 475.06,-201.6 472.87,-194.95"/>
</g>
<!-- Node6 -->
<g id="node6" class="node">
<title>Node6</title>
<g id="a_node6"><a xlink:href="voxels_8cpp.html" target="_top" xlink:title=" ">
<polygon fill="none" stroke="black" points="238,-67.5 238,-97.5 351,-97.5 351,-67.5 238,-67.5"/>
<text text-anchor="start" x="246" y="-85.5" font-family="Helvetica,sans-Serif" font-size="10.00">/github/workspace/src</text>
<text text-anchor="middle" x="294.5" y="-74.5" font-family="Helvetica,sans-Serif" font-size="10.00">/tests/voxels.cpp</text>
</a>
</g>
</g>
<!-- Node5&#45;&gt;Node6 -->
<g id="edge5" class="edge">
<title>Node5&#45;&gt;Node6</title>
<path fill="none" stroke="midnightblue" d="M294.5,-124.11C294.5,-115.15 294.5,-105.32 294.5,-97.58"/>
<polygon fill="midnightblue" stroke="midnightblue" points="291,-124.4 294.5,-134.4 298,-124.4 291,-124.4"/>
</g>
<!-- Node8 -->
<g id="node8" class="node">
<title>Node8</title>
<g id="a_node8"><a xlink:href="_voxel_codec_sparse_octree_8h.html" target="_top" xlink:title=" ">
<polygon fill="none" stroke="black" points="374.5,-67.5 374.5,-97.5 538.5,-97.5 538.5,-67.5 374.5,-67.5"/>
<text text-anchor="start" x="382.5" y="-85.5" font-family="Helvetica,sans-Serif" font-size="10.00">/github/workspace/src</text>
<text text-anchor="middle" x="456.5" y="-74.5" font-family="Helvetica,sans-Serif" font-size="10.00">/voxel/VoxelCodecSparseOctree.h</text>
</a>
</g>
</g>
<!-- Node7&#45;&gt;Node8 -->
<g id="edge7" class="edge">
<title>Node7&#45;&gt;Node8</title>
<path fill="none" stroke="midnightblue" d="M456.5,-124.11C456.5,-115.15 456.5,-105.32 456.5,-97.58"/>
<polygon fill="midnightblue" stroke="midnightblue" points="453,-124.4 456.5,-134.4 460,-124.4 453,-124.4"/>
</g>
<!-- Node9 -->
<g id="node9" class="node">
<title>Node9</title>
<g id="a_node9"><a xlink:href="octrees_8cpp.html" target="_top" xlink:title=" ">
<polygon fill="none" stroke="black" points="400,-0.5 400,-30.5 513,-30.5 513,-0.5 400,-0.5"/>
<text text-anchor="start" x="408" y="-18.5" font-family="Helvetica,sans-Serif" font-size="10.00">/github/workspace/src</text>
<text text-anchor="middle" x="456.5" y="-7.5" font-family="Helvetica,sans-Serif" font-size="10.00">/tests/octrees.cpp</text>
</a>
</g>
</g>
<!-- Node8&#45;&gt;Node9 -->
<g id="edge8" class="edge">
<title>Node8&#45;&gt;Node9</title>
<path fill="none" stroke="midnightblue" d="M456.5,-57.11C456.5,-48.15 456.5,-38.32 456.5,-30.58"/>
<polygon fill="midnightblue" stroke="midnightblue" points="453,-57.4 456.5,-67.4 460,-57.4 453,-57.4"/>
</g>
</g>
</svg>
