<?xml version="1.0" encoding="UTF-8" standalone="no"?>
<!DOCTYPE svg PUBLIC "-//W3C//DTD SVG 1.1//EN"
 "http://www.w3.org/Graphics/SVG/1.1/DTD/svg11.dtd">
<!-- Generated by graphviz version 3.0.0 (20220413.0106)
 -->
<!-- Title: /github/workspace/src/voxel/LibMorton.h Pages: 1 -->
<svg width="1002pt" height="441pt"
 viewBox="0.00 0.00 1001.63 441.00" xmlns="http://www.w3.org/2000/svg" xmlns:xlink="http://www.w3.org/1999/xlink">
<g id="graph0" class="graph" transform="scale(1 1) rotate(0) translate(4 437)">
<title>/github/workspace/src/voxel/LibMorton.h</title>
<!-- Node1 -->
<g id="node1" class="node">
<title>Node1</title>
<g id="a_node1"><a xlink:title=" ">
<polygon fill="#bfbfbf" stroke="black" points="586.13,-402.5 586.13,-432.5 699.13,-432.5 699.13,-402.5 586.13,-402.5"/>
<text text-anchor="start" x="594.13" y="-420.5" font-family="Helvetica,sans-Serif" font-size="10.00">/github/workspace/src</text>
<text text-anchor="middle" x="642.63" y="-409.5" font-family="Helvetica,sans-Serif" font-size="10.00">/voxel/LibMorton.h</text>
</a>
</g>
</g>
<!-- Node2 -->
<g id="node2" class="node">
<title>Node2</title>
<g id="a_node2"><a xlink:href="_voxel_utils_8h.html" target="_top" xlink:title=" ">
<polygon fill="none" stroke="black" points="586.13,-335.5 586.13,-365.5 699.13,-365.5 699.13,-335.5 586.13,-335.5"/>
<text text-anchor="start" x="594.13" y="-353.5" font-family="Helvetica,sans-Serif" font-size="10.00">/github/workspace/src</text>
<text text-anchor="middle" x="642.63" y="-342.5" font-family="Helvetica,sans-Serif" font-size="10.00">/voxel/VoxelUtils.h</text>
</a>
</g>
</g>
<!-- Node1&#45;&gt;Node2 -->
<g id="edge1" class="edge">
<title>Node1&#45;&gt;Node2</title>
<path fill="none" stroke="midnightblue" d="M642.63,-392.11C642.63,-383.15 642.63,-373.32 642.63,-365.58"/>
<polygon fill="midnightblue" stroke="midnightblue" points="639.13,-392.4 642.63,-402.4 646.13,-392.4 639.13,-392.4"/>
</g>
<!-- Node3 -->
<g id="node3" class="node">
<title>Node3</title>
<g id="a_node3"><a xlink:href="_allocation_handler_8h.html" target="_top" xlink:title=" ">
<polygon fill="none" stroke="black" points="485.13,-268.5 485.13,-298.5 614.13,-298.5 614.13,-268.5 485.13,-268.5"/>
<text text-anchor="start" x="493.13" y="-286.5" font-family="Helvetica,sans-Serif" font-size="10.00">/github/workspace/src</text>
<text text-anchor="middle" x="549.63" y="-275.5" font-family="Helvetica,sans-Serif" font-size="10.00">/voxel/AllocationHandler.h</text>
</a>
</g>
</g>
<!-- Node2&#45;&gt;Node3 -->
<g id="edge2" class="edge">
<title>Node2&#45;&gt;Node3</title>
<path fill="none" stroke="midnightblue" d="M613.95,-329.45C599.64,-319.45 582.68,-307.6 569.77,-298.58"/>
<polygon fill="midnightblue" stroke="midnightblue" points="612.25,-332.54 622.45,-335.4 616.26,-326.8 612.25,-332.54"/>
</g>
<!-- Node6 -->
<g id="node6" class="node">
<title>Node6</title>
<g id="a_node6"><a xlink:href="_voxel_codec_base_8h.html" target="_top" xlink:title=" ">
<polygon fill="none" stroke="black" points="579.13,-201.5 579.13,-231.5 706.13,-231.5 706.13,-201.5 579.13,-201.5"/>
<text text-anchor="start" x="587.13" y="-219.5" font-family="Helvetica,sans-Serif" font-size="10.00">/github/workspace/src</text>
<text text-anchor="middle" x="642.63" y="-208.5" font-family="Helvetica,sans-Serif" font-size="10.00">/voxel/VoxelCodecBase.h</text>
</a>
</g>
</g>
<!-- Node2&#45;&gt;Node6 -->
<g id="edge15" class="edge">
<title>Node2&#45;&gt;Node6</title>
<path fill="none" stroke="midnightblue" d="M642.63,-325.02C642.63,-297.51 642.63,-253.79 642.63,-231.52"/>
<polygon fill="midnightblue" stroke="midnightblue" points="639.13,-325.37 642.63,-335.37 646.13,-325.37 639.13,-325.37"/>
</g>
<!-- Node7 -->
<g id="node7" class="node">
<title>Node7</title>
<g id="a_node7"><a xlink:href="_voxel_codec_linear_8h.html" target="_top" xlink:title=" ">
<polygon fill="none" stroke="black" points="277.13,-134.5 277.13,-164.5 408.13,-164.5 408.13,-134.5 277.13,-134.5"/>
<text text-anchor="start" x="285.13" y="-152.5" font-family="Helvetica,sans-Serif" font-size="10.00">/github/workspace/src</text>
<text text-anchor="middle" x="342.63" y="-141.5" font-family="Helvetica,sans-Serif" font-size="10.00">/voxel/VoxelCodecLinear.h</text>
</a>
</g>
</g>
<!-- Node2&#45;&gt;Node7 -->
<g id="edge16" class="edge">
<title>Node2&#45;&gt;Node7</title>
<path fill="none" stroke="midnightblue" d="M575.74,-347.68C427.16,-342.08 77.21,-319.65 6.63,-232 -2.01,-221.27 -2.36,-211.44 6.63,-201 40.79,-161.33 189.11,-152.39 276.86,-150.64"/>
<polygon fill="midnightblue" stroke="midnightblue" points="575.96,-351.19 586.08,-348.06 576.21,-344.2 575.96,-351.19"/>
</g>
<!-- Node9 -->
<g id="node9" class="node">
<title>Node9</title>
<g id="a_node9"><a xlink:href="_voxel_codec_octree_base_8h.html" target="_top" xlink:title=" ">
<polygon fill="none" stroke="black" points="833.63,-134.5 833.63,-164.5 989.63,-164.5 989.63,-134.5 833.63,-134.5"/>
<text text-anchor="start" x="841.63" y="-152.5" font-family="Helvetica,sans-Serif" font-size="10.00">/github/workspace/src</text>
<text text-anchor="middle" x="911.63" y="-141.5" font-family="Helvetica,sans-Serif" font-size="10.00">/voxel/VoxelCodecOctreeBase.h</text>
</a>
</g>
</g>
<!-- Node2&#45;&gt;Node9 -->
<g id="edge17" class="edge">
<title>Node2&#45;&gt;Node9</title>
<path fill="none" stroke="midnightblue" d="M709.2,-343.89C778.84,-334.03 884.69,-306.87 933.63,-232 947.35,-211.02 932.92,-181.71 921.83,-164.55"/>
<polygon fill="midnightblue" stroke="midnightblue" points="708.65,-340.43 699.2,-345.22 709.58,-347.37 708.65,-340.43"/>
</g>
<!-- Node12 -->
<g id="node12" class="node">
<title>Node12</title>
<g id="a_node12"><a xlink:href="_voxel_codec_shuffle_8h.html" target="_top" xlink:title=" ">
<polygon fill="none" stroke="black" points="575.63,-134.5 575.63,-164.5 709.63,-164.5 709.63,-134.5 575.63,-134.5"/>
<text text-anchor="start" x="583.63" y="-152.5" font-family="Helvetica,sans-Serif" font-size="10.00">/github/workspace/src</text>
<text text-anchor="middle" x="642.63" y="-141.5" font-family="Helvetica,sans-Serif" font-size="10.00">/voxel/VoxelCodecShuffle.h</text>
</a>
</g>
</g>
<!-- Node2&#45;&gt;Node12 -->
<g id="edge18" class="edge">
<title>Node2&#45;&gt;Node12</title>
<path fill="none" stroke="midnightblue" d="M661.71,-327.37C679.62,-305.03 705.17,-268.66 715.63,-232 719.41,-218.75 722.03,-213.2 715.63,-201 707.19,-184.89 691.02,-172.91 676.04,-164.66"/>
<polygon fill="midnightblue" stroke="midnightblue" points="658.91,-325.27 655.27,-335.22 664.32,-329.71 658.91,-325.27"/>
</g>
<!-- Node13 -->
<g id="node13" class="node">
<title>Node13</title>
<g id="a_node13"><a xlink:href="_voxel_fragment_stream_8h.html" target="_top" xlink:title=" ">
<polygon fill="none" stroke="black" points="16.13,-201.5 16.13,-231.5 165.13,-231.5 165.13,-201.5 16.13,-201.5"/>
<text text-anchor="start" x="24.13" y="-219.5" font-family="Helvetica,sans-Serif" font-size="10.00">/github/workspace/src</text>
<text text-anchor="middle" x="90.63" y="-208.5" font-family="Helvetica,sans-Serif" font-size="10.00">/voxel/VoxelFragmentStream.h</text>
</a>
</g>
</g>
<!-- Node2&#45;&gt;Node13 -->
<g id="edge19" class="edge">
<title>Node2&#45;&gt;Node13</title>
<path fill="none" stroke="midnightblue" d="M576.02,-333.57C467.18,-307.54 253.02,-256.33 149.46,-231.57"/>
<polygon fill="midnightblue" stroke="midnightblue" points="575.36,-337.01 585.9,-335.93 576.98,-330.2 575.36,-337.01"/>
</g>
<!-- Node14 -->
<g id="node14" class="node">
<title>Node14</title>
<g id="a_node14"><a xlink:href="_voxel_fragment_types_8h.html" target="_top" xlink:title=" ">
<polygon fill="none" stroke="black" points="762.63,-201.5 762.63,-231.5 906.63,-231.5 906.63,-201.5 762.63,-201.5"/>
<text text-anchor="start" x="770.63" y="-219.5" font-family="Helvetica,sans-Serif" font-size="10.00">/github/workspace/src</text>
<text text-anchor="middle" x="834.63" y="-208.5" font-family="Helvetica,sans-Serif" font-size="10.00">/voxel/VoxelFragmentTypes.h</text>
</a>
</g>
</g>
<!-- Node2&#45;&gt;Node14 -->
<g id="edge22" class="edge">
<title>Node2&#45;&gt;Node14</title>
<path fill="none" stroke="midnightblue" d="M688.7,-331.34C707.98,-322.8 730.15,-311.69 748.63,-299 777.8,-278.98 806.6,-249.07 822.35,-231.6"/>
<polygon fill="midnightblue" stroke="midnightblue" points="687.29,-328.14 679.5,-335.32 690.07,-334.56 687.29,-328.14"/>
</g>
<!-- Node4 -->
<g id="node4" class="node">
<title>Node4</title>
<g id="a_node4"><a xlink:href="memory__allocation_8cpp.html" target="_top" xlink:title=" ">
<polygon fill="none" stroke="black" points="221.13,-201.5 221.13,-231.5 364.13,-231.5 364.13,-201.5 221.13,-201.5"/>
<text text-anchor="start" x="229.13" y="-219.5" font-family="Helvetica,sans-Serif" font-size="10.00">/github/workspace/src</text>
<text text-anchor="middle" x="292.63" y="-208.5" font-family="Helvetica,sans-Serif" font-size="10.00">/tests/memory_allocation.cpp</text>
</a>
</g>
</g>
<!-- Node3&#45;&gt;Node4 -->
<g id="edge3" class="edge">
<title>Node3&#45;&gt;Node4</title>
<path fill="none" stroke="midnightblue" d="M484.33,-265.98C442.36,-255.37 388.4,-241.72 348.43,-231.61"/>
<polygon fill="midnightblue" stroke="midnightblue" points="483.63,-269.42 494.18,-268.48 485.35,-262.63 483.63,-269.42"/>
</g>
<!-- Node5 -->
<g id="node5" class="node">
<title>Node5</title>
<g id="a_node5"><a xlink:href="_allocation_handler_8cpp.html" target="_top" xlink:title=" ">
<polygon fill="none" stroke="black" points="382.63,-201.5 382.63,-231.5 522.63,-231.5 522.63,-201.5 382.63,-201.5"/>
<text text-anchor="start" x="390.63" y="-219.5" font-family="Helvetica,sans-Serif" font-size="10.00">/github/workspace/src</text>
<text text-anchor="middle" x="452.63" y="-208.5" font-family="Helvetica,sans-Serif" font-size="10.00">/voxel/AllocationHandler.cpp</text>
</a>
</g>
</g>
<!-- Node3&#45;&gt;Node5 -->
<g id="edge4" class="edge">
<title>Node3&#45;&gt;Node5</title>
<path fill="none" stroke="midnightblue" d="M520.14,-262.73C505.13,-252.68 487.23,-240.68 473.64,-231.58"/>
<polygon fill="midnightblue" stroke="midnightblue" points="518.33,-265.74 528.59,-268.4 522.23,-259.92 518.33,-265.74"/>
</g>
<!-- Node3&#45;&gt;Node6 -->
<g id="edge5" class="edge">
<title>Node3&#45;&gt;Node6</title>
<path fill="none" stroke="midnightblue" d="M578.32,-262.45C592.63,-252.45 609.58,-240.6 622.49,-231.58"/>
<polygon fill="midnightblue" stroke="midnightblue" points="576,-259.8 569.81,-268.4 580.01,-265.54 576,-259.8"/>
</g>
<!-- Node3&#45;&gt;Node7 -->
<g id="edge12" class="edge">
<title>Node3&#45;&gt;Node7</title>
<path fill="none" stroke="midnightblue" d="M474.91,-282.24C385.87,-280.15 244.92,-270.63 211.63,-232 184.97,-201.06 236.56,-178.06 282.63,-164.52"/>
<polygon fill="midnightblue" stroke="midnightblue" points="474.89,-285.74 484.96,-282.45 475.04,-278.74 474.89,-285.74"/>
</g>
<!-- Node3&#45;&gt;Node9 -->
<g id="edge13" class="edge">
<title>Node3&#45;&gt;Node9</title>
<path fill="none" stroke="midnightblue" d="M624.7,-283.25C720.62,-282.41 878.68,-274.4 915.63,-232 931.83,-213.42 924.16,-182.44 917.59,-164.51"/>
<polygon fill="midnightblue" stroke="midnightblue" points="624.45,-279.75 614.47,-283.31 624.5,-286.75 624.45,-279.75"/>
</g>
<!-- Node3&#45;&gt;Node12 -->
<g id="edge14" class="edge">
<title>Node3&#45;&gt;Node12</title>
<path fill="none" stroke="midnightblue" d="M551.47,-257.92C553.78,-240.7 558.96,-217.85 570.63,-201 581.41,-185.44 598.64,-173.1 613.54,-164.52"/>
<polygon fill="midnightblue" stroke="midnightblue" points="547.95,-257.98 550.34,-268.31 554.91,-258.75 547.95,-257.98"/>
</g>
<!-- Node6&#45;&gt;Node7 -->
<g id="edge6" class="edge">
<title>Node6&#45;&gt;Node7</title>
<path fill="none" stroke="midnightblue" d="M569.01,-199.55C519.55,-188.83 454.98,-174.84 407.46,-164.55"/>
<polygon fill="midnightblue" stroke="midnightblue" points="568.5,-203.02 579.01,-201.72 569.98,-196.18 568.5,-203.02"/>
</g>
<!-- Node6&#45;&gt;Node9 -->
<g id="edge8" class="edge">
<title>Node6&#45;&gt;Node9</title>
<path fill="none" stroke="midnightblue" d="M710.43,-199.12C754.44,-188.48 811.22,-174.76 853.24,-164.61"/>
<polygon fill="midnightblue" stroke="midnightblue" points="709.57,-195.73 700.67,-201.48 711.21,-202.53 709.57,-195.73"/>
</g>
<!-- Node6&#45;&gt;Node12 -->
<g id="edge11" class="edge">
<title>Node6&#45;&gt;Node12</title>
<path fill="none" stroke="midnightblue" d="M642.63,-191.11C642.63,-182.15 642.63,-172.32 642.63,-164.58"/>
<polygon fill="midnightblue" stroke="midnightblue" points="639.13,-191.4 642.63,-201.4 646.13,-191.4 639.13,-191.4"/>
</g>
<!-- Node8 -->
<g id="node8" class="node">
<title>Node8</title>
<g id="a_node8"><a xlink:href="voxels_8cpp.html" target="_top" xlink:title=" ">
<polygon fill="none" stroke="black" points="601.13,-67.5 601.13,-97.5 714.13,-97.5 714.13,-67.5 601.13,-67.5"/>
<text text-anchor="start" x="609.13" y="-85.5" font-family="Helvetica,sans-Serif" font-size="10.00">/github/workspace/src</text>
<text text-anchor="middle" x="657.63" y="-74.5" font-family="Helvetica,sans-Serif" font-size="10.00">/tests/voxels.cpp</text>
</a>
</g>
</g>
<!-- Node7&#45;&gt;Node8 -->
<g id="edge7" class="edge">
<title>Node7&#45;&gt;Node8</title>
<path fill="none" stroke="midnightblue" d="M418.19,-132.91C474.42,-121.31 549.96,-105.72 601.04,-95.18"/>
<polygon fill="midnightblue" stroke="midnightblue" points="417.37,-129.5 408.28,-134.95 418.79,-136.36 417.37,-129.5"/>
</g>
<!-- Node10 -->
<g id="node10" class="node">
<title>Node10</title>
<g id="a_node10"><a xlink:href="_voxel_codec_sparse_octree_8h.html" target="_top" xlink:title=" ">
<polygon fill="none" stroke="black" points="829.63,-67.5 829.63,-97.5 993.63,-97.5 993.63,-67.5 829.63,-67.5"/>
<text text-anchor="start" x="837.63" y="-85.5" font-family="Helvetica,sans-Serif" font-size="10.00">/github/workspace/src</text>
<text text-anchor="middle" x="911.63" y="-74.5" font-family="Helvetica,sans-Serif" font-size="10.00">/voxel/VoxelCodecSparseOctree.h</text>
</a>
</g>
</g>
<!-- Node9&#45;&gt;Node10 -->
<g id="edge9" class="edge">
<title>Node9&#45;&gt;Node10</title>
<path fill="none" stroke="midnightblue" d="M911.63,-124.11C911.63,-115.15 911.63,-105.32 911.63,-97.58"/>
<polygon fill="midnightblue" stroke="midnightblue" points="908.13,-124.4 911.63,-134.4 915.13,-124.4 908.13,-124.4"/>
</g>
<!-- Node11 -->
<g id="node11" class="node">
<title>Node11</title>
<g id="a_node11"><a xlink:href="octrees_8cpp.html" target="_top" xlink:title=" ">
<polygon fill="none" stroke="black" points="855.13,-0.5 855.13,-30.5 968.13,-30.5 968.13,-0.5 855.13,-0.5"/>
<text text-anchor="start" x="863.13" y="-18.5" font-family="Helvetica,sans-Serif" font-size="10.00">/github/workspace/src</text>
<text text-anchor="middle" x="911.63" y="-7.5" font-family="Helvetica,sans-Serif" font-size="10.00">/tests/octrees.cpp</text>
</a>
</g>
</g>
<!-- Node10&#45;&gt;Node11 -->
<g id="edge10" class="edge">
<title>Node10&#45;&gt;Node11</title>
<path fill="none" stroke="midnightblue" d="M911.63,-57.11C911.63,-48.15 911.63,-38.32 911.63,-30.58"/>
<polygon fill="midnightblue" stroke="midnightblue" points="908.13,-57.4 911.63,-67.4 915.13,-57.4 908.13,-57.4"/>
</g>
<!-- Node13&#45;&gt;Node7 -->
<g id="edge20" class="edge">
<title>Node13&#45;&gt;Node7</title>
<path fill="none" stroke="midnightblue" d="M154.92,-198.92C196.05,-188.31 248.82,-174.7 287.93,-164.61"/>
<polygon fill="midnightblue" stroke="midnightblue" points="153.81,-195.59 145,-201.48 155.56,-202.37 153.81,-195.59"/>
</g>
<!-- Node13&#45;&gt;Node12 -->
<g id="edge21" class="edge">
<title>Node13&#45;&gt;Node12</title>
<path fill="none" stroke="midnightblue" d="M175.34,-205.32C187.52,-203.86 199.9,-202.39 211.63,-201 340.31,-185.75 490.64,-168.2 575.44,-158.32"/>
<polygon fill="midnightblue" stroke="midnightblue" points="174.69,-201.87 165.18,-206.54 175.53,-208.82 174.69,-201.87"/>
</g>
<!-- Node14&#45;&gt;Node7 -->
<g id="edge24" class="edge">
<title>Node14&#45;&gt;Node7</title>
<path fill="none" stroke="midnightblue" d="M752.54,-204.65C655.82,-191.88 497.1,-170.91 408.2,-159.16"/>
<polygon fill="midnightblue" stroke="midnightblue" points="752.19,-208.14 762.57,-205.98 753.11,-201.2 752.19,-208.14"/>
</g>
<!-- Node14&#45;&gt;Node8 -->
<g id="edge23" class="edge">
<title>Node14&#45;&gt;Node8</title>
<path fill="none" stroke="midnightblue" d="M807.52,-195.28C771.26,-168.24 707.89,-120.98 676.44,-97.52"/>
<polygon fill="midnightblue" stroke="midnightblue" points="805.58,-198.2 815.69,-201.37 809.77,-192.59 805.58,-198.2"/>
</g>
<!-- Node14&#45;&gt;Node9 -->
<g id="edge25" class="edge">
<title>Node14&#45;&gt;Node9</title>
<path fill="none" stroke="midnightblue" d="M859.06,-194.88C870.76,-185.01 884.47,-173.43 894.96,-164.58"/>
<polygon fill="midnightblue" stroke="midnightblue" points="856.72,-192.27 851.34,-201.4 861.24,-197.62 856.72,-192.27"/>
</g>
<!-- Node14&#45;&gt;Node12 -->
<g id="edge26" class="edge">
<title>Node14&#45;&gt;Node12</title>
<path fill="none" stroke="midnightblue" d="M783.21,-198.09C752.22,-187.6 713.25,-174.41 684.21,-164.58"/>
<polygon fill="midnightblue" stroke="midnightblue" points="782.38,-201.5 792.97,-201.4 784.62,-194.87 782.38,-201.5"/>
</g>
</g>
</svg>
