<?xml version="1.0" encoding="UTF-8" standalone="no"?>
<!DOCTYPE svg PUBLIC "-//W3C//DTD SVG 1.1//EN"
 "http://www.w3.org/Graphics/SVG/1.1/DTD/svg11.dtd">
<!-- Generated by graphviz version 2.49.3 (20211027.1501)
 -->
<!-- Title: /github/workspace/src/voxel/VoxelFragmentTypes.h Pages: 1 -->
<svg width="482pt" height="229pt"
 viewBox="0.00 0.00 481.50 229.00" xmlns="http://www.w3.org/2000/svg" xmlns:xlink="http://www.w3.org/1999/xlink">
<g id="graph0" class="graph" transform="scale(1 1) rotate(0) translate(4 225)">
<title>/github/workspace/src/voxel/VoxelFragmentTypes.h</title>
<!-- Node1 -->
<g id="node1" class="node">
<title>Node1</title>
<g id="a_node1"><a xlink:title=" ">
<polygon fill="#bfbfbf" stroke="black" points="42.5,-190.5 42.5,-220.5 186.5,-220.5 186.5,-190.5 42.5,-190.5"/>
<text text-anchor="start" x="50.5" y="-208.5" font-family="Helvetica,sans-Serif" font-size="10.00">/github/workspace/src</text>
<text text-anchor="middle" x="114.5" y="-197.5" font-family="Helvetica,sans-Serif" font-size="10.00">/voxel/VoxelFragmentTypes.h</text>
</a>
</g>
</g>
<!-- Node2 -->
<g id="node2" class="node">
<title>Node2</title>
<g id="a_node2"><a xlink:title=" ">
<polygon fill="none" stroke="#bfbfbf" points="0,-134.5 0,-153.5 49,-153.5 49,-134.5 0,-134.5"/>
<text text-anchor="middle" x="24.5" y="-141.5" font-family="Helvetica,sans-Serif" font-size="10.00">cstddef</text>
</a>
</g>
</g>
<!-- Node1&#45;&gt;Node2 -->
<g id="edge1" class="edge">
<title>Node1&#45;&gt;Node2</title>
<path fill="none" stroke="midnightblue" d="M93.17,-190.4C79.01,-181.04 60.49,-168.79 46.25,-159.38"/>
<polygon fill="midnightblue" stroke="midnightblue" points="47.87,-156.25 37.6,-153.66 44.01,-162.09 47.87,-156.25"/>
</g>
<!-- Node3 -->
<g id="node3" class="node">
<title>Node3</title>
<g id="a_node3"><a xlink:title=" ">
<polygon fill="none" stroke="#bfbfbf" points="67,-134.5 67,-153.5 106,-153.5 106,-134.5 67,-134.5"/>
<text text-anchor="middle" x="86.5" y="-141.5" font-family="Helvetica,sans-Serif" font-size="10.00">utility</text>
</a>
</g>
</g>
<!-- Node1&#45;&gt;Node3 -->
<g id="edge2" class="edge">
<title>Node1&#45;&gt;Node3</title>
<path fill="none" stroke="midnightblue" d="M107.86,-190.4C103.96,-182.11 99,-171.55 94.83,-162.71"/>
<polygon fill="midnightblue" stroke="midnightblue" points="98,-161.22 90.57,-153.66 91.67,-164.2 98,-161.22"/>
</g>
<!-- Node4 -->
<g id="node4" class="node">
<title>Node4</title>
<g id="a_node4"><a xlink:title=" ">
<polygon fill="none" stroke="#bfbfbf" points="124.5,-134.5 124.5,-153.5 162.5,-153.5 162.5,-134.5 124.5,-134.5"/>
<text text-anchor="middle" x="143.5" y="-141.5" font-family="Helvetica,sans-Serif" font-size="10.00">tuple</text>
</a>
</g>
</g>
<!-- Node1&#45;&gt;Node4 -->
<g id="edge3" class="edge">
<title>Node1&#45;&gt;Node4</title>
<path fill="none" stroke="midnightblue" d="M121.37,-190.4C125.41,-182.11 130.56,-171.55 134.87,-162.71"/>
<polygon fill="midnightblue" stroke="midnightblue" points="138.05,-164.18 139.28,-153.66 131.75,-161.11 138.05,-164.18"/>
</g>
<!-- Node5 -->
<g id="node5" class="node">
<title>Node5</title>
<g id="a_node5"><a xlink:href="_voxel_utils_8h.html" target="_top" xlink:title=" ">
<polygon fill="none" stroke="black" points="180.5,-134.5 180.5,-153.5 248.5,-153.5 248.5,-134.5 180.5,-134.5"/>
<text text-anchor="middle" x="214.5" y="-141.5" font-family="Helvetica,sans-Serif" font-size="10.00">VoxelUtils.h</text>
</a>
</g>
</g>
<!-- Node1&#45;&gt;Node5 -->
<g id="edge4" class="edge">
<title>Node1&#45;&gt;Node5</title>
<path fill="none" stroke="midnightblue" d="M138.2,-190.4C154.23,-180.86 175.3,-168.32 191.24,-158.84"/>
<polygon fill="midnightblue" stroke="midnightblue" points="193.14,-161.78 199.95,-153.66 189.57,-155.76 193.14,-161.78"/>
</g>
<!-- Node6 -->
<g id="node6" class="node">
<title>Node6</title>
<g id="a_node6"><a xlink:title=" ">
<polygon fill="none" stroke="#bfbfbf" points="93,-73 93,-92 144,-92 144,-73 93,-73"/>
<text text-anchor="middle" x="118.5" y="-80" font-family="Helvetica,sans-Serif" font-size="10.00">memory</text>
</a>
</g>
</g>
<!-- Node5&#45;&gt;Node6 -->
<g id="edge5" class="edge">
<title>Node5&#45;&gt;Node6</title>
<path fill="none" stroke="midnightblue" d="M200.75,-134.48C185.13,-124.8 159.44,-108.87 140.92,-97.39"/>
<polygon fill="midnightblue" stroke="midnightblue" points="142.57,-94.3 132.23,-92.01 138.88,-100.25 142.57,-94.3"/>
</g>
<!-- Node7 -->
<g id="node7" class="node">
<title>Node7</title>
<g id="a_node7"><a xlink:title=" ">
<polygon fill="none" stroke="#bfbfbf" points="162.5,-67.5 162.5,-97.5 266.5,-97.5 266.5,-67.5 162.5,-67.5"/>
<text text-anchor="start" x="170.5" y="-85.5" font-family="Helvetica,sans-Serif" font-size="10.00">boost/multiprecision</text>
<text text-anchor="middle" x="214.5" y="-74.5" font-family="Helvetica,sans-Serif" font-size="10.00">/cpp_int.hpp</text>
</a>
</g>
</g>
<!-- Node5&#45;&gt;Node7 -->
<g id="edge6" class="edge">
<title>Node5&#45;&gt;Node7</title>
<path fill="none" stroke="midnightblue" d="M214.5,-134.48C214.5,-127.47 214.5,-117.19 214.5,-107.7"/>
<polygon fill="midnightblue" stroke="midnightblue" points="218,-107.52 214.5,-97.52 211,-107.52 218,-107.52"/>
</g>
<!-- Node8 -->
<g id="node8" class="node">
<title>Node8</title>
<g id="a_node8"><a xlink:href="_lib_morton_8h.html" target="_top" xlink:title=" ">
<polygon fill="none" stroke="black" points="284.5,-73 284.5,-92 352.5,-92 352.5,-73 284.5,-73"/>
<text text-anchor="middle" x="318.5" y="-80" font-family="Helvetica,sans-Serif" font-size="10.00">LibMorton.h</text>
</a>
</g>
</g>
<!-- Node5&#45;&gt;Node8 -->
<g id="edge7" class="edge">
<title>Node5&#45;&gt;Node8</title>
<path fill="none" stroke="midnightblue" d="M229.4,-134.48C246.47,-124.71 274.66,-108.58 294.76,-97.08"/>
<polygon fill="midnightblue" stroke="midnightblue" points="296.69,-100.01 303.63,-92.01 293.21,-93.94 296.69,-100.01"/>
</g>
<!-- Node9 -->
<g id="node9" class="node">
<title>Node9</title>
<g id="a_node9"><a xlink:title=" ">
<polygon fill="none" stroke="#bfbfbf" points="163.5,-0.5 163.5,-30.5 309.5,-30.5 309.5,-0.5 163.5,-0.5"/>
<text text-anchor="start" x="171.5" y="-18.5" font-family="Helvetica,sans-Serif" font-size="10.00">../../lib/libmorton</text>
<text text-anchor="middle" x="236.5" y="-7.5" font-family="Helvetica,sans-Serif" font-size="10.00">/include/libmorton/morton2D.h</text>
</a>
</g>
</g>
<!-- Node8&#45;&gt;Node9 -->
<g id="edge8" class="edge">
<title>Node8&#45;&gt;Node9</title>
<path fill="none" stroke="midnightblue" d="M307.44,-72.73C295.93,-63.61 277.5,-49 262.31,-36.96"/>
<polygon fill="midnightblue" stroke="midnightblue" points="264.28,-34.06 254.27,-30.59 259.94,-39.54 264.28,-34.06"/>
</g>
<!-- Node10 -->
<g id="node10" class="node">
<title>Node10</title>
<g id="a_node10"><a xlink:title=" ">
<polygon fill="none" stroke="#bfbfbf" points="327.5,-0.5 327.5,-30.5 473.5,-30.5 473.5,-0.5 327.5,-0.5"/>
<text text-anchor="start" x="335.5" y="-18.5" font-family="Helvetica,sans-Serif" font-size="10.00">../../lib/libmorton</text>
<text text-anchor="middle" x="400.5" y="-7.5" font-family="Helvetica,sans-Serif" font-size="10.00">/include/libmorton/morton3D.h</text>
</a>
</g>
</g>
<!-- Node8&#45;&gt;Node10 -->
<g id="edge9" class="edge">
<title>Node8&#45;&gt;Node10</title>
<path fill="none" stroke="midnightblue" d="M329.56,-72.73C341.07,-63.61 359.5,-49 374.69,-36.96"/>
<polygon fill="midnightblue" stroke="midnightblue" points="377.06,-39.54 382.73,-30.59 372.72,-34.06 377.06,-39.54"/>
</g>
</g>
</svg>
