<?xml version="1.0" encoding="UTF-8" standalone="no"?>
<!DOCTYPE svg PUBLIC "-//W3C//DTD SVG 1.1//EN"
 "http://www.w3.org/Graphics/SVG/1.1/DTD/svg11.dtd">
<!-- Generated by graphviz version 2.49.3 (20211027.1501)
 -->
<!-- Title: /github/workspace/src/voxel/VoxelCodecLinear.h Pages: 1 -->
<!--zoomable 341 -->
<svg id="main" version="1.1" xmlns="http://www.w3.org/2000/svg" xmlns:xlink="http://www.w3.org/1999/xlink" xml:space="preserve" onload="init(evt)">
<style type="text/css"><![CDATA[
.edge:hover path { stroke: red; }
.edge:hover polygon { stroke: red; fill: red; }
]]></style>
<script type="text/javascript"><![CDATA[
var edges = document.getElementsByTagName('g');
if (edges && edges.length) {
  for (var i=0;i<edges.length;i++) {
    if (edges[i].id.substr(0,4)=='edge') {
      edges[i].setAttribute('class','edge');
    }
  }
}
]]></script>
        <defs>
                <circle id="rim" cx="0" cy="0" r="7"/>
                <circle id="rim2" cx="0" cy="0" r="3.5"/>
                <g id="zoomPlus">
                        <use xlink:href="#rim" fill="#404040">
                                <set attributeName="fill" to="#808080" begin="zoomplus.mouseover" end="zoomplus.mouseout"/>
                        </use>
                        <path d="M-4,0h8M0,-4v8" fill="none" stroke="white" stroke-width="1.5" pointer-events="none"/>
                </g>
                <g id="zoomMin">
                        <use xlink:href="#rim" fill="#404040">
                                <set attributeName="fill" to="#808080" begin="zoomminus.mouseover" end="zoomminus.mouseout"/>
                        </use>
                        <path d="M-4,0h8" fill="none" stroke="white" stroke-width="1.5" pointer-events="none"/>
                </g>
                <g id="dirArrow">
                        <path fill="none" stroke="white" stroke-width="1.5" d="M0,-3.0v7 M-2.5,-0.5L0,-3.0L2.5,-0.5"/>
                </g>
               <g id="resetDef">
                       <use xlink:href="#rim2" fill="#404040">
                               <set attributeName="fill" to="#808080" begin="reset.mouseover" end="reset.mouseout"/>
                       </use>
               </g>
        </defs>

<script type="text/javascript">
var viewWidth = 576;
var viewHeight = 341;
var sectionId = 'dynsection-0';
</script>
<script xlink:href="svgpan.js"/>
<svg id="graph" class="graph">
<g id="viewport">
<title>/github/workspace/src/voxel/VoxelCodecLinear.h</title>
<!-- Node1 -->
<g id="node1" class="node">
<title>Node1</title>
<g id="a_node1"><a xlink:title=" ">
<polygon fill="#bfbfbf" stroke="black" points="210.66,-302.5 210.66,-332.5 341.66,-332.5 341.66,-302.5 210.66,-302.5"/>
<text text-anchor="start" x="218.66" y="-320.5" font-family="Helvetica,sans-Serif" font-size="10.00">/github/workspace/src</text>
<text text-anchor="middle" x="276.16" y="-309.5" font-family="Helvetica,sans-Serif" font-size="10.00">/voxel/VoxelCodecLinear.h</text>
</a>
</g>
</g>
<!-- Node2 -->
<g id="node2" class="node">
<title>Node2</title>
<g id="a_node2"><a xlink:title=" ">
<polygon fill="none" stroke="#bfbfbf" points="374.66,-73 374.66,-92 425.66,-92 425.66,-73 374.66,-73"/>
<text text-anchor="middle" x="400.16" y="-80" font-family="Helvetica,sans-Serif" font-size="10.00">memory</text>
</a>
</g>
</g>
<!-- Node1&#45;&gt;Node2 -->
<g id="edge1" class="edge">
<title>Node1&#45;&gt;Node2</title>
<path fill="none" stroke="midnightblue" d="M341.79,-312.4C409.04,-304.3 510.46,-280.36 559.16,-210 596.94,-155.41 493.24,-112.72 435.66,-93.93"/>
<polygon fill="midnightblue" stroke="midnightblue" points="436.42,-90.5 425.83,-90.81 434.3,-97.17 436.42,-90.5"/>
</g>
<!-- Node3 -->
<g id="node3" class="node">
<title>Node3</title>
<g id="a_node3"><a xlink:title=" ">
<polygon fill="none" stroke="#bfbfbf" points="29.16,-246.5 29.16,-265.5 75.16,-265.5 75.16,-246.5 29.16,-246.5"/>
<text text-anchor="middle" x="52.16" y="-253.5" font-family="Helvetica,sans-Serif" font-size="10.00">cstring</text>
</a>
</g>
</g>
<!-- Node1&#45;&gt;Node3 -->
<g id="edge2" class="edge">
<title>Node1&#45;&gt;Node3</title>
<path fill="none" stroke="midnightblue" d="M221.89,-302.49C185.65,-293.07 136.7,-280.24 84.92,-266.17"/>
<polygon fill="midnightblue" stroke="midnightblue" points="85.79,-262.78 75.22,-263.54 83.95,-269.54 85.79,-262.78"/>
</g>
<!-- Node4 -->
<g id="node4" class="node">
<title>Node4</title>
<g id="a_node4"><a xlink:href="_voxel_fragment_types_8h.html" target="_top" xlink:title=" ">
<polygon fill="none" stroke="black" points="93.16,-246.5 93.16,-265.5 209.16,-265.5 209.16,-246.5 93.16,-246.5"/>
<text text-anchor="middle" x="151.16" y="-253.5" font-family="Helvetica,sans-Serif" font-size="10.00">VoxelFragmentTypes.h</text>
</a>
</g>
</g>
<!-- Node1&#45;&gt;Node4 -->
<g id="edge3" class="edge">
<title>Node1&#45;&gt;Node4</title>
<path fill="none" stroke="midnightblue" d="M246.53,-302.4C225.94,-292.59 198.68,-279.62 178.58,-270.05"/>
<polygon fill="midnightblue" stroke="midnightblue" points="179.88,-266.8 169.35,-265.66 176.87,-273.12 179.88,-266.8"/>
</g>
<!-- Node8 -->
<g id="node8" class="node">
<title>Node8</title>
<g id="a_node8"><a xlink:href="_voxel_utils_8h.html" target="_top" xlink:title=" ">
<polygon fill="none" stroke="black" points="204.16,-134.5 204.16,-153.5 272.16,-153.5 272.16,-134.5 204.16,-134.5"/>
<text text-anchor="middle" x="238.16" y="-141.5" font-family="Helvetica,sans-Serif" font-size="10.00">VoxelUtils.h</text>
</a>
</g>
</g>
<!-- Node1&#45;&gt;Node8 -->
<g id="edge24" class="edge">
<title>Node1&#45;&gt;Node8</title>
<path fill="none" stroke="midnightblue" d="M210.49,-311.19C144.13,-304.51 47.58,-290.81 20.16,-266 0.87,-248.55 6.98,-235.73 3.16,-210 1.85,-201.21 -2.51,-196.85 3.16,-190 26.86,-161.32 132.46,-150.75 193.74,-146.98"/>
<polygon fill="midnightblue" stroke="midnightblue" points="194.12,-150.46 203.9,-146.39 193.72,-143.47 194.12,-150.46"/>
</g>
<!-- Node13 -->
<g id="node13" class="node">
<title>Node13</title>
<g id="a_node13"><a xlink:href="_voxel_codec_base_8h.html" target="_top" xlink:title=" ">
<polygon fill="none" stroke="black" points="227.16,-246.5 227.16,-265.5 325.16,-265.5 325.16,-246.5 227.16,-246.5"/>
<text text-anchor="middle" x="276.16" y="-253.5" font-family="Helvetica,sans-Serif" font-size="10.00">VoxelCodecBase.h</text>
</a>
</g>
</g>
<!-- Node1&#45;&gt;Node13 -->
<g id="edge13" class="edge">
<title>Node1&#45;&gt;Node13</title>
<path fill="none" stroke="midnightblue" d="M276.16,-302.4C276.16,-294.47 276.16,-284.46 276.16,-275.86"/>
<polygon fill="midnightblue" stroke="midnightblue" points="279.66,-275.66 276.16,-265.66 272.66,-275.66 279.66,-275.66"/>
</g>
<!-- Node14 -->
<g id="node14" class="node">
<title>Node14</title>
<g id="a_node14"><a xlink:href="_allocation_handler_8h.html" target="_top" xlink:title=" ">
<polygon fill="none" stroke="black" points="270.66,-190.5 270.66,-209.5 371.66,-209.5 371.66,-190.5 270.66,-190.5"/>
<text text-anchor="middle" x="321.16" y="-197.5" font-family="Helvetica,sans-Serif" font-size="10.00">AllocationHandler.h</text>
</a>
</g>
</g>
<!-- Node1&#45;&gt;Node14 -->
<g id="edge20" class="edge">
<title>Node1&#45;&gt;Node14</title>
<path fill="none" stroke="midnightblue" d="M300.75,-302.29C313.25,-293.59 327.24,-281.19 334.16,-266 341,-250.98 336.09,-232.38 330.45,-218.94"/>
<polygon fill="midnightblue" stroke="midnightblue" points="333.59,-217.38 326.18,-209.8 327.25,-220.34 333.59,-217.38"/>
</g>
<!-- Node16 -->
<g id="node16" class="node">
<title>Node16</title>
<g id="a_node16"><a xlink:href="_voxel_fragment_stream_8h.html" target="_top" xlink:title=" ">
<polygon fill="none" stroke="black" points="428.66,-190.5 428.66,-209.5 549.66,-209.5 549.66,-190.5 428.66,-190.5"/>
<text text-anchor="middle" x="489.16" y="-197.5" font-family="Helvetica,sans-Serif" font-size="10.00">VoxelFragmentStream.h</text>
</a>
</g>
</g>
<!-- Node1&#45;&gt;Node16 -->
<g id="edge21" class="edge">
<title>Node1&#45;&gt;Node16</title>
<path fill="none" stroke="midnightblue" d="M302.28,-302.34C343.72,-279.86 424,-236.33 464.51,-214.37"/>
<polygon fill="midnightblue" stroke="midnightblue" points="466.32,-217.37 473.44,-209.52 462.98,-211.21 466.32,-217.37"/>
</g>
<!-- Node5 -->
<g id="node5" class="node">
<title>Node5</title>
<g id="a_node5"><a xlink:title=" ">
<polygon fill="none" stroke="#bfbfbf" points="126.66,-190.5 126.66,-209.5 175.66,-209.5 175.66,-190.5 126.66,-190.5"/>
<text text-anchor="middle" x="151.16" y="-197.5" font-family="Helvetica,sans-Serif" font-size="10.00">cstddef</text>
</a>
</g>
</g>
<!-- Node4&#45;&gt;Node5 -->
<g id="edge4" class="edge">
<title>Node4&#45;&gt;Node5</title>
<path fill="none" stroke="midnightblue" d="M151.16,-246.08C151.16,-239.01 151.16,-228.86 151.16,-219.99"/>
<polygon fill="midnightblue" stroke="midnightblue" points="154.66,-219.75 151.16,-209.75 147.66,-219.75 154.66,-219.75"/>
</g>
<!-- Node6 -->
<g id="node6" class="node">
<title>Node6</title>
<g id="a_node6"><a xlink:title=" ">
<polygon fill="none" stroke="#bfbfbf" points="12.66,-190.5 12.66,-209.5 51.66,-209.5 51.66,-190.5 12.66,-190.5"/>
<text text-anchor="middle" x="32.16" y="-197.5" font-family="Helvetica,sans-Serif" font-size="10.00">utility</text>
</a>
</g>
</g>
<!-- Node4&#45;&gt;Node6 -->
<g id="edge5" class="edge">
<title>Node4&#45;&gt;Node6</title>
<path fill="none" stroke="midnightblue" d="M132.3,-246.44C112.89,-237.64 82.43,-223.81 60.19,-213.72"/>
<polygon fill="midnightblue" stroke="midnightblue" points="61.48,-210.46 50.93,-209.52 58.59,-216.84 61.48,-210.46"/>
</g>
<!-- Node7 -->
<g id="node7" class="node">
<title>Node7</title>
<g id="a_node7"><a xlink:title=" ">
<polygon fill="none" stroke="#bfbfbf" points="70.16,-190.5 70.16,-209.5 108.16,-209.5 108.16,-190.5 70.16,-190.5"/>
<text text-anchor="middle" x="89.16" y="-197.5" font-family="Helvetica,sans-Serif" font-size="10.00">tuple</text>
</a>
</g>
</g>
<!-- Node4&#45;&gt;Node7 -->
<g id="edge6" class="edge">
<title>Node4&#45;&gt;Node7</title>
<path fill="none" stroke="midnightblue" d="M141.2,-246.32C132.03,-238.34 118.22,-226.31 107.13,-216.65"/>
<polygon fill="midnightblue" stroke="midnightblue" points="109.14,-213.76 99.3,-209.83 104.54,-219.04 109.14,-213.76"/>
</g>
<!-- Node4&#45;&gt;Node8 -->
<g id="edge7" class="edge">
<title>Node4&#45;&gt;Node8</title>
<path fill="none" stroke="midnightblue" d="M157.98,-246.37C172.41,-228.14 206.19,-185.43 224.97,-161.68"/>
<polygon fill="midnightblue" stroke="midnightblue" points="227.9,-163.61 231.36,-153.59 222.41,-159.26 227.9,-163.61"/>
</g>
<!-- Node8&#45;&gt;Node2 -->
<g id="edge8" class="edge">
<title>Node8&#45;&gt;Node2</title>
<path fill="none" stroke="midnightblue" d="M261.37,-134.48C289.16,-124.27 335.88,-107.11 367.35,-95.55"/>
<polygon fill="midnightblue" stroke="midnightblue" points="368.81,-98.74 376.99,-92.01 366.4,-92.17 368.81,-98.74"/>
</g>
<!-- Node9 -->
<g id="node9" class="node">
<title>Node9</title>
<g id="a_node9"><a xlink:title=" ">
<polygon fill="none" stroke="#bfbfbf" points="124.16,-67.5 124.16,-97.5 228.16,-97.5 228.16,-67.5 124.16,-67.5"/>
<text text-anchor="start" x="132.16" y="-85.5" font-family="Helvetica,sans-Serif" font-size="10.00">boost/multiprecision</text>
<text text-anchor="middle" x="176.16" y="-74.5" font-family="Helvetica,sans-Serif" font-size="10.00">/cpp_int.hpp</text>
</a>
</g>
</g>
<!-- Node8&#45;&gt;Node9 -->
<g id="edge9" class="edge">
<title>Node8&#45;&gt;Node9</title>
<path fill="none" stroke="midnightblue" d="M229.27,-134.48C221.19,-126.72 208.92,-114.94 198.21,-104.66"/>
<polygon fill="midnightblue" stroke="midnightblue" points="200.41,-101.92 190.77,-97.52 195.56,-106.97 200.41,-101.92"/>
</g>
<!-- Node10 -->
<g id="node10" class="node">
<title>Node10</title>
<g id="a_node10"><a xlink:href="_lib_morton_8h.html" target="_top" xlink:title=" ">
<polygon fill="none" stroke="black" points="246.16,-73 246.16,-92 314.16,-92 314.16,-73 246.16,-73"/>
<text text-anchor="middle" x="280.16" y="-80" font-family="Helvetica,sans-Serif" font-size="10.00">LibMorton.h</text>
</a>
</g>
</g>
<!-- Node8&#45;&gt;Node10 -->
<g id="edge10" class="edge">
<title>Node8&#45;&gt;Node10</title>
<path fill="none" stroke="midnightblue" d="M244.18,-134.48C250.41,-125.64 260.33,-111.59 268.18,-100.48"/>
<polygon fill="midnightblue" stroke="midnightblue" points="271.24,-102.2 274.15,-92.01 265.53,-98.16 271.24,-102.2"/>
</g>
<!-- Node11 -->
<g id="node11" class="node">
<title>Node11</title>
<g id="a_node11"><a xlink:title=" ">
<polygon fill="none" stroke="#bfbfbf" points="125.16,-0.5 125.16,-30.5 271.16,-30.5 271.16,-0.5 125.16,-0.5"/>
<text text-anchor="start" x="133.16" y="-18.5" font-family="Helvetica,sans-Serif" font-size="10.00">../../lib/libmorton</text>
<text text-anchor="middle" x="198.16" y="-7.5" font-family="Helvetica,sans-Serif" font-size="10.00">/include/libmorton/morton2D.h</text>
</a>
</g>
</g>
<!-- Node10&#45;&gt;Node11 -->
<g id="edge11" class="edge">
<title>Node10&#45;&gt;Node11</title>
<path fill="none" stroke="midnightblue" d="M269.1,-72.73C257.59,-63.61 239.16,-49 223.97,-36.96"/>
<polygon fill="midnightblue" stroke="midnightblue" points="225.94,-34.06 215.93,-30.59 221.59,-39.54 225.94,-34.06"/>
</g>
<!-- Node12 -->
<g id="node12" class="node">
<title>Node12</title>
<g id="a_node12"><a xlink:title=" ">
<polygon fill="none" stroke="#bfbfbf" points="289.16,-0.5 289.16,-30.5 435.16,-30.5 435.16,-0.5 289.16,-0.5"/>
<text text-anchor="start" x="297.16" y="-18.5" font-family="Helvetica,sans-Serif" font-size="10.00">../../lib/libmorton</text>
<text text-anchor="middle" x="362.16" y="-7.5" font-family="Helvetica,sans-Serif" font-size="10.00">/include/libmorton/morton3D.h</text>
</a>
</g>
</g>
<!-- Node10&#45;&gt;Node12 -->
<g id="edge12" class="edge">
<title>Node10&#45;&gt;Node12</title>
<path fill="none" stroke="midnightblue" d="M291.22,-72.73C302.73,-63.61 321.15,-49 336.34,-36.96"/>
<polygon fill="midnightblue" stroke="midnightblue" points="338.72,-39.54 344.38,-30.59 334.37,-34.06 338.72,-39.54"/>
</g>
<!-- Node13&#45;&gt;Node2 -->
<g id="edge14" class="edge">
<title>Node13&#45;&gt;Node2</title>
<path fill="none" stroke="midnightblue" d="M320.99,-246.42C342.43,-239.99 366.55,-228.92 381.16,-210 405.5,-178.47 405.06,-129.02 402.61,-102.24"/>
<polygon fill="midnightblue" stroke="midnightblue" points="406.09,-101.82 401.51,-92.27 399.13,-102.6 406.09,-101.82"/>
</g>
<!-- Node13&#45;&gt;Node8 -->
<g id="edge15" class="edge">
<title>Node13&#45;&gt;Node8</title>
<path fill="none" stroke="midnightblue" d="M273.18,-246.37C267.02,-228.54 252.77,-187.3 244.47,-163.27"/>
<polygon fill="midnightblue" stroke="midnightblue" points="247.7,-161.9 241.13,-153.59 241.08,-164.19 247.7,-161.9"/>
</g>
<!-- Node13&#45;&gt;Node14 -->
<g id="edge16" class="edge">
<title>Node13&#45;&gt;Node14</title>
<path fill="none" stroke="midnightblue" d="M283.59,-246.08C290.01,-238.38 299.46,-227.03 307.28,-217.65"/>
<polygon fill="midnightblue" stroke="midnightblue" points="310.15,-219.67 313.87,-209.75 304.77,-215.19 310.15,-219.67"/>
</g>
<!-- Node14&#45;&gt;Node2 -->
<g id="edge17" class="edge">
<title>Node14&#45;&gt;Node2</title>
<path fill="none" stroke="midnightblue" d="M318.25,-190.35C314.4,-177.24 309.19,-151.97 319.16,-134 329.06,-116.15 348.19,-103.79 365.37,-95.76"/>
<polygon fill="midnightblue" stroke="midnightblue" points="366.86,-98.93 374.65,-91.74 364.08,-92.51 366.86,-98.93"/>
</g>
<!-- Node14&#45;&gt;Node8 -->
<g id="edge19" class="edge">
<title>Node14&#45;&gt;Node8</title>
<path fill="none" stroke="midnightblue" d="M307.82,-190.32C295,-181.98 275.37,-169.21 260.22,-159.35"/>
<polygon fill="midnightblue" stroke="midnightblue" points="261.75,-156.17 251.46,-153.65 257.93,-162.04 261.75,-156.17"/>
</g>
<!-- Node15 -->
<g id="node15" class="node">
<title>Node15</title>
<g id="a_node15"><a xlink:title=" ">
<polygon fill="none" stroke="#bfbfbf" points="328.16,-134.5 328.16,-153.5 372.16,-153.5 372.16,-134.5 328.16,-134.5"/>
<text text-anchor="middle" x="350.16" y="-141.5" font-family="Helvetica,sans-Serif" font-size="10.00">vector</text>
</a>
</g>
</g>
<!-- Node14&#45;&gt;Node15 -->
<g id="edge18" class="edge">
<title>Node14&#45;&gt;Node15</title>
<path fill="none" stroke="midnightblue" d="M325.95,-190.08C329.92,-182.69 335.68,-171.95 340.59,-162.81"/>
<polygon fill="midnightblue" stroke="midnightblue" points="343.81,-164.22 345.46,-153.75 337.64,-160.91 343.81,-164.22"/>
</g>
<!-- Node16&#45;&gt;Node2 -->
<g id="edge22" class="edge">
<title>Node16&#45;&gt;Node2</title>
<path fill="none" stroke="midnightblue" d="M482.47,-190.32C467.78,-171.26 432.48,-125.45 413.23,-100.46"/>
<polygon fill="midnightblue" stroke="midnightblue" points="415.8,-98.07 406.93,-92.28 410.26,-102.34 415.8,-98.07"/>
</g>
<!-- Node16&#45;&gt;Node8 -->
<g id="edge23" class="edge">
<title>Node16&#45;&gt;Node8</title>
<path fill="none" stroke="midnightblue" d="M449.39,-190.44C403.93,-180.66 329.72,-164.7 282.45,-154.53"/>
<polygon fill="midnightblue" stroke="midnightblue" points="283.01,-151.07 272.5,-152.39 281.54,-157.91 283.01,-151.07"/>
</g>
</g>
</svg>
        <g id="navigator" transform="translate(0 0)" fill="#404254">
                <rect fill="#f2f5e9" fill-opacity="0.5" stroke="#606060" stroke-width=".5" x="0" y="0" width="60" height="60"/>
                <use id="zoomplus" xlink:href="#zoomPlus" x="17" y="9" onmousedown="handleZoom(evt,'in')"/>
                <use id="zoomminus" xlink:href="#zoomMin" x="42" y="9" onmousedown="handleZoom(evt,'out')"/>
                <use id="reset" xlink:href="#resetDef" x="30" y="36" onmousedown="handleReset()"/>
                <g id="arrowUp" xlink:href="#dirArrow" transform="translate(30 24)" onmousedown="handlePan(0,-1)">
                  <use xlink:href="#rim" fill="#404040">
                        <set attributeName="fill" to="#808080" begin="arrowUp.mouseover" end="arrowUp.mouseout"/>
                  </use>
                  <path fill="none" stroke="white" stroke-width="1.5" d="M0,-3.0v7 M-2.5,-0.5L0,-3.0L2.5,-0.5"/>
                </g>
                <g id="arrowRight" xlink:href="#dirArrow" transform="rotate(90) translate(36 -43)" onmousedown="handlePan(1,0)">
                  <use xlink:href="#rim" fill="#404040">
                        <set attributeName="fill" to="#808080" begin="arrowRight.mouseover" end="arrowRight.mouseout"/>
                  </use>
                  <path fill="none" stroke="white" stroke-width="1.5" d="M0,-3.0v7 M-2.5,-0.5L0,-3.0L2.5,-0.5"/>
                </g>
                <g id="arrowDown" xlink:href="#dirArrow" transform="rotate(180) translate(-30 -48)" onmousedown="handlePan(0,1)">
                  <use xlink:href="#rim" fill="#404040">
                        <set attributeName="fill" to="#808080" begin="arrowDown.mouseover" end="arrowDown.mouseout"/>
                  </use>
                  <path fill="none" stroke="white" stroke-width="1.5" d="M0,-3.0v7 M-2.5,-0.5L0,-3.0L2.5,-0.5"/>
                </g>
                <g id="arrowLeft" xlink:href="#dirArrow" transform="rotate(270) translate(-36 17)" onmousedown="handlePan(-1,0)">
                  <use xlink:href="#rim" fill="#404040">
                        <set attributeName="fill" to="#808080" begin="arrowLeft.mouseover" end="arrowLeft.mouseout"/>
                  </use>
                  <path fill="none" stroke="white" stroke-width="1.5" d="M0,-3.0v7 M-2.5,-0.5L0,-3.0L2.5,-0.5"/>
                </g>
        </g>
        <svg viewBox="0 0 15 15" width="100%" height="30px" preserveAspectRatio="xMaxYMin meet">
         <g id="arrow_out" transform="scale(0.3 0.3)">
          <a xlink:href="_voxel_codec_linear_8h__incl_org.svg" target="_base">
           <rect id="button" ry="5" rx="5" y="6" x="6" height="38" width="38"
                fill="#f2f5e9" fill-opacity="0.5" stroke="#606060" stroke-width="1.0"/>
           <path id="arrow"
             d="M 11.500037,31.436501 C 11.940474,20.09759 22.043105,11.32322 32.158766,21.979434 L 37.068811,17.246167 C 37.068811,17.246167 37.088388,32 37.088388,32 L 22.160133,31.978069 C 22.160133,31.978069 26.997745,27.140456 26.997745,27.140456 C 18.528582,18.264221 13.291696,25.230495 11.500037,31.436501 z"
             style="fill:#404040;"/>
          </a>
         </g>
        </svg>
</svg>
