<?xml version="1.0" encoding="UTF-8" standalone="no"?>
<!DOCTYPE svg PUBLIC "-//W3C//DTD SVG 1.1//EN"
 "http://www.w3.org/Graphics/SVG/1.1/DTD/svg11.dtd">
<!-- Generated by graphviz version 3.0.0 (20220413.0106)
 -->
<!-- Title: /github/workspace/src/voxel/VoxelCodecOctreeBase.h Pages: 1 -->
<svg width="646pt" height="341pt"
 viewBox="0.00 0.00 645.50 341.00" xmlns="http://www.w3.org/2000/svg" xmlns:xlink="http://www.w3.org/1999/xlink">
<g id="graph0" class="graph" transform="scale(1 1) rotate(0) translate(4 337)">
<title>/github/workspace/src/voxel/VoxelCodecOctreeBase.h</title>
<!-- Node1 -->
<g id="node1" class="node">
<title>Node1</title>
<g id="a_node1"><a xlink:title=" ">
<polygon fill="#bfbfbf" stroke="black" points="172,-302.5 172,-332.5 328,-332.5 328,-302.5 172,-302.5"/>
<text text-anchor="start" x="180" y="-320.5" font-family="Helvetica,sans-Serif" font-size="10.00">/github/workspace/src</text>
<text text-anchor="middle" x="250" y="-309.5" font-family="Helvetica,sans-Serif" font-size="10.00">/voxel/VoxelCodecOctreeBase.h</text>
</a>
</g>
</g>
<!-- Node2 -->
<g id="node2" class="node">
<title>Node2</title>
<g id="a_node2"><a xlink:title=" ">
<polygon fill="none" stroke="#bfbfbf" points="49.5,-246.5 49.5,-265.5 90.5,-265.5 90.5,-246.5 49.5,-246.5"/>
<text text-anchor="middle" x="70" y="-253.5" font-family="Helvetica,sans-Serif" font-size="10.00">stack</text>
</a>
</g>
</g>
<!-- Node1&#45;&gt;Node2 -->
<g id="edge1" class="edge">
<title>Node1&#45;&gt;Node2</title>
<path fill="none" stroke="midnightblue" d="M207.34,-302.4C174.42,-291.52 129.69,-276.73 100.34,-267.03"/>
<polygon fill="midnightblue" stroke="midnightblue" points="101.24,-263.64 90.65,-263.83 99.05,-270.29 101.24,-263.64"/>
</g>
<!-- Node3 -->
<g id="node3" class="node">
<title>Node3</title>
<g id="a_node3"><a xlink:title=" ">
<polygon fill="none" stroke="#bfbfbf" points="0,-190.5 0,-209.5 88,-209.5 88,-190.5 0,-190.5"/>
<text text-anchor="middle" x="44" y="-197.5" font-family="Helvetica,sans-Serif" font-size="10.00">boost/bimap.hpp</text>
</a>
</g>
</g>
<!-- Node1&#45;&gt;Node3 -->
<g id="edge2" class="edge">
<title>Node1&#45;&gt;Node3</title>
<path fill="none" stroke="midnightblue" d="M214.64,-302.5C192.18,-293.14 162.79,-280.01 138,-266 110.98,-250.73 81.89,-229.86 63.34,-215.93"/>
<polygon fill="midnightblue" stroke="midnightblue" points="65.22,-212.96 55.14,-209.7 60.99,-218.54 65.22,-212.96"/>
</g>
<!-- Node4 -->
<g id="node4" class="node">
<title>Node4</title>
<g id="a_node4"><a xlink:href="_voxel_utils_8h.html" target="_top" xlink:title=" ">
<polygon fill="none" stroke="black" points="284,-134.5 284,-153.5 352,-153.5 352,-134.5 284,-134.5"/>
<text text-anchor="middle" x="318" y="-141.5" font-family="Helvetica,sans-Serif" font-size="10.00">VoxelUtils.h</text>
</a>
</g>
</g>
<!-- Node1&#45;&gt;Node4 -->
<g id="edge3" class="edge">
<title>Node1&#45;&gt;Node4</title>
<path fill="none" stroke="midnightblue" d="M252.96,-302.48C256.18,-288.07 261.86,-265.12 269,-246 280.32,-215.7 297.55,-182.24 308.28,-162.45"/>
<polygon fill="midnightblue" stroke="midnightblue" points="311.35,-164.12 313.1,-153.67 305.22,-160.75 311.35,-164.12"/>
</g>
<!-- Node10 -->
<g id="node10" class="node">
<title>Node10</title>
<g id="a_node10"><a xlink:href="_voxel_codec_base_8h.html" target="_top" xlink:title=" ">
<polygon fill="none" stroke="black" points="278,-246.5 278,-265.5 376,-265.5 376,-246.5 278,-246.5"/>
<text text-anchor="middle" x="327" y="-253.5" font-family="Helvetica,sans-Serif" font-size="10.00">VoxelCodecBase.h</text>
</a>
</g>
</g>
<!-- Node1&#45;&gt;Node10 -->
<g id="edge9" class="edge">
<title>Node1&#45;&gt;Node10</title>
<path fill="none" stroke="midnightblue" d="M268.25,-302.4C280.13,-293.22 295.61,-281.26 307.69,-271.92"/>
<polygon fill="midnightblue" stroke="midnightblue" points="310.02,-274.54 315.8,-265.66 305.74,-269 310.02,-274.54"/>
</g>
<!-- Node11 -->
<g id="node11" class="node">
<title>Node11</title>
<g id="a_node11"><a xlink:href="_allocation_handler_8h.html" target="_top" xlink:title=" ">
<polygon fill="none" stroke="black" points="316.5,-190.5 316.5,-209.5 417.5,-209.5 417.5,-190.5 316.5,-190.5"/>
<text text-anchor="middle" x="367" y="-197.5" font-family="Helvetica,sans-Serif" font-size="10.00">AllocationHandler.h</text>
</a>
</g>
</g>
<!-- Node1&#45;&gt;Node11 -->
<g id="edge22" class="edge">
<title>Node1&#45;&gt;Node11</title>
<path fill="none" stroke="midnightblue" d="M328.01,-304.53C350.06,-297.14 371.67,-285.23 385,-266 394.87,-251.77 387.33,-232.29 379.2,-218.38"/>
<polygon fill="midnightblue" stroke="midnightblue" points="382.03,-216.3 373.69,-209.76 376.13,-220.07 382.03,-216.3"/>
</g>
<!-- Node14 -->
<g id="node14" class="node">
<title>Node14</title>
<g id="a_node14"><a xlink:href="_voxel_fragment_types_8h.html" target="_top" xlink:title=" ">
<polygon fill="none" stroke="black" points="474,-190.5 474,-209.5 590,-209.5 590,-190.5 474,-190.5"/>
<text text-anchor="middle" x="532" y="-197.5" font-family="Helvetica,sans-Serif" font-size="10.00">VoxelFragmentTypes.h</text>
</a>
</g>
</g>
<!-- Node1&#45;&gt;Node14 -->
<g id="edge17" class="edge">
<title>Node1&#45;&gt;Node14</title>
<path fill="none" stroke="midnightblue" d="M298.22,-302.41C328.43,-293.12 367.95,-280.08 402,-266 439.84,-250.35 481.94,-228.42 507.7,-214.47"/>
<polygon fill="midnightblue" stroke="midnightblue" points="509.63,-217.4 516.73,-209.54 506.27,-211.26 509.63,-217.4"/>
</g>
<!-- Node17 -->
<g id="node17" class="node">
<title>Node17</title>
<g id="a_node17"><a xlink:href="utils_8h.html" target="_top" xlink:title=" ">
<polygon fill="none" stroke="black" points="147.5,-246.5 147.5,-265.5 218.5,-265.5 218.5,-246.5 147.5,-246.5"/>
<text text-anchor="middle" x="183" y="-253.5" font-family="Helvetica,sans-Serif" font-size="10.00">../utils/utils.h</text>
</a>
</g>
</g>
<!-- Node1&#45;&gt;Node17 -->
<g id="edge23" class="edge">
<title>Node1&#45;&gt;Node17</title>
<path fill="none" stroke="midnightblue" d="M234.12,-302.4C223.98,-293.4 210.84,-281.72 200.41,-272.47"/>
<polygon fill="midnightblue" stroke="midnightblue" points="202.55,-269.68 192.75,-265.66 197.9,-274.92 202.55,-269.68"/>
</g>
<!-- Node5 -->
<g id="node5" class="node">
<title>Node5</title>
<g id="a_node5"><a xlink:title=" ">
<polygon fill="none" stroke="#bfbfbf" points="370.5,-73 370.5,-92 421.5,-92 421.5,-73 370.5,-73"/>
<text text-anchor="middle" x="396" y="-80" font-family="Helvetica,sans-Serif" font-size="10.00">memory</text>
</a>
</g>
</g>
<!-- Node4&#45;&gt;Node5 -->
<g id="edge4" class="edge">
<title>Node4&#45;&gt;Node5</title>
<path fill="none" stroke="midnightblue" d="M329.18,-134.48C341.57,-125.02 361.79,-109.6 376.75,-98.19"/>
<polygon fill="midnightblue" stroke="midnightblue" points="379.02,-100.86 384.85,-92.01 374.77,-95.29 379.02,-100.86"/>
</g>
<!-- Node6 -->
<g id="node6" class="node">
<title>Node6</title>
<g id="a_node6"><a xlink:title=" ">
<polygon fill="none" stroke="#bfbfbf" points="162,-67.5 162,-97.5 266,-97.5 266,-67.5 162,-67.5"/>
<text text-anchor="start" x="170" y="-85.5" font-family="Helvetica,sans-Serif" font-size="10.00">boost/multiprecision</text>
<text text-anchor="middle" x="214" y="-74.5" font-family="Helvetica,sans-Serif" font-size="10.00">/cpp_int.hpp</text>
</a>
</g>
</g>
<!-- Node4&#45;&gt;Node6 -->
<g id="edge5" class="edge">
<title>Node4&#45;&gt;Node6</title>
<path fill="none" stroke="midnightblue" d="M303.1,-134.48C288.62,-126.19 266.13,-113.32 247.37,-102.59"/>
<polygon fill="midnightblue" stroke="midnightblue" points="248.93,-99.45 238.51,-97.52 245.45,-105.53 248.93,-99.45"/>
</g>
<!-- Node7 -->
<g id="node7" class="node">
<title>Node7</title>
<g id="a_node7"><a xlink:href="_lib_morton_8h.html" target="_top" xlink:title=" ">
<polygon fill="none" stroke="black" points="284,-73 284,-92 352,-92 352,-73 284,-73"/>
<text text-anchor="middle" x="318" y="-80" font-family="Helvetica,sans-Serif" font-size="10.00">LibMorton.h</text>
</a>
</g>
</g>
<!-- Node4&#45;&gt;Node7 -->
<g id="edge6" class="edge">
<title>Node4&#45;&gt;Node7</title>
<path fill="none" stroke="midnightblue" d="M318,-134.48C318,-126.08 318,-112.98 318,-102.16"/>
<polygon fill="midnightblue" stroke="midnightblue" points="321.5,-102.01 318,-92.01 314.5,-102.01 321.5,-102.01"/>
</g>
<!-- Node8 -->
<g id="node8" class="node">
<title>Node8</title>
<g id="a_node8"><a xlink:title=" ">
<polygon fill="none" stroke="#bfbfbf" points="163,-0.5 163,-30.5 309,-30.5 309,-0.5 163,-0.5"/>
<text text-anchor="start" x="171" y="-18.5" font-family="Helvetica,sans-Serif" font-size="10.00">../../lib/libmorton</text>
<text text-anchor="middle" x="236" y="-7.5" font-family="Helvetica,sans-Serif" font-size="10.00">/include/libmorton/morton2D.h</text>
</a>
</g>
</g>
<!-- Node7&#45;&gt;Node8 -->
<g id="edge7" class="edge">
<title>Node7&#45;&gt;Node8</title>
<path fill="none" stroke="midnightblue" d="M306.94,-72.73C295.43,-63.61 277,-49 261.81,-36.96"/>
<polygon fill="midnightblue" stroke="midnightblue" points="263.78,-34.06 253.77,-30.59 259.44,-39.54 263.78,-34.06"/>
</g>
<!-- Node9 -->
<g id="node9" class="node">
<title>Node9</title>
<g id="a_node9"><a xlink:title=" ">
<polygon fill="none" stroke="#bfbfbf" points="327,-0.5 327,-30.5 473,-30.5 473,-0.5 327,-0.5"/>
<text text-anchor="start" x="335" y="-18.5" font-family="Helvetica,sans-Serif" font-size="10.00">../../lib/libmorton</text>
<text text-anchor="middle" x="400" y="-7.5" font-family="Helvetica,sans-Serif" font-size="10.00">/include/libmorton/morton3D.h</text>
</a>
</g>
</g>
<!-- Node7&#45;&gt;Node9 -->
<g id="edge8" class="edge">
<title>Node7&#45;&gt;Node9</title>
<path fill="none" stroke="midnightblue" d="M329.06,-72.73C340.57,-63.61 359,-49 374.19,-36.96"/>
<polygon fill="midnightblue" stroke="midnightblue" points="376.56,-39.54 382.23,-30.59 372.22,-34.06 376.56,-39.54"/>
</g>
<!-- Node10&#45;&gt;Node4 -->
<g id="edge11" class="edge">
<title>Node10&#45;&gt;Node4</title>
<path fill="none" stroke="midnightblue" d="M321.87,-246.41C316.94,-237.61 309.84,-223.38 307,-210 303.7,-194.43 307.23,-176.6 311.14,-163.55"/>
<polygon fill="midnightblue" stroke="midnightblue" points="314.53,-164.47 314.38,-153.88 307.89,-162.25 314.53,-164.47"/>
</g>
<!-- Node10&#45;&gt;Node5 -->
<g id="edge10" class="edge">
<title>Node10&#45;&gt;Node5</title>
<path fill="none" stroke="midnightblue" d="M371.7,-246.48C392.23,-240.09 414.7,-229.02 427,-210 449.31,-175.5 424.34,-126.25 407.96,-100.57"/>
<polygon fill="midnightblue" stroke="midnightblue" points="410.87,-98.63 402.42,-92.24 405.04,-102.51 410.87,-98.63"/>
</g>
<!-- Node10&#45;&gt;Node11 -->
<g id="edge12" class="edge">
<title>Node10&#45;&gt;Node11</title>
<path fill="none" stroke="midnightblue" d="M333.61,-246.08C339.26,-238.46 347.54,-227.26 354.45,-217.94"/>
<polygon fill="midnightblue" stroke="midnightblue" points="357.38,-219.87 360.52,-209.75 351.75,-215.7 357.38,-219.87"/>
</g>
<!-- Node11&#45;&gt;Node4 -->
<g id="edge16" class="edge">
<title>Node11&#45;&gt;Node4</title>
<path fill="none" stroke="midnightblue" d="M358.91,-190.08C351.84,-182.3 341.41,-170.8 332.85,-161.37"/>
<polygon fill="midnightblue" stroke="midnightblue" points="335.25,-158.8 325.94,-153.75 330.07,-163.51 335.25,-158.8"/>
</g>
<!-- Node11&#45;&gt;Node5 -->
<g id="edge13" class="edge">
<title>Node11&#45;&gt;Node5</title>
<path fill="none" stroke="midnightblue" d="M369.18,-190.32C373.86,-171.67 384.97,-127.44 391.32,-102.13"/>
<polygon fill="midnightblue" stroke="midnightblue" points="394.75,-102.83 393.79,-92.28 387.97,-101.13 394.75,-102.83"/>
</g>
<!-- Node12 -->
<g id="node12" class="node">
<title>Node12</title>
<g id="a_node12"><a xlink:title=" ">
<polygon fill="none" stroke="#bfbfbf" points="474.5,-134.5 474.5,-153.5 513.5,-153.5 513.5,-134.5 474.5,-134.5"/>
<text text-anchor="middle" x="494" y="-141.5" font-family="Helvetica,sans-Serif" font-size="10.00">utility</text>
</a>
</g>
</g>
<!-- Node11&#45;&gt;Node12 -->
<g id="edge14" class="edge">
<title>Node11&#45;&gt;Node12</title>
<path fill="none" stroke="midnightblue" d="M387.12,-190.44C408.15,-181.5 441.32,-167.4 465.13,-157.27"/>
<polygon fill="midnightblue" stroke="midnightblue" points="466.55,-160.47 474.39,-153.34 463.82,-154.03 466.55,-160.47"/>
</g>
<!-- Node13 -->
<g id="node13" class="node">
<title>Node13</title>
<g id="a_node13"><a xlink:title=" ">
<polygon fill="none" stroke="#bfbfbf" points="144,-134.5 144,-153.5 188,-153.5 188,-134.5 144,-134.5"/>
<text text-anchor="middle" x="166" y="-141.5" font-family="Helvetica,sans-Serif" font-size="10.00">vector</text>
</a>
</g>
</g>
<!-- Node11&#45;&gt;Node13 -->
<g id="edge15" class="edge">
<title>Node11&#45;&gt;Node13</title>
<path fill="none" stroke="midnightblue" d="M335.15,-190.44C297.61,-180.36 235.59,-163.7 197.99,-153.6"/>
<polygon fill="midnightblue" stroke="midnightblue" points="198.64,-150.15 188.08,-150.93 196.83,-156.91 198.64,-150.15"/>
</g>
<!-- Node14&#45;&gt;Node4 -->
<g id="edge21" class="edge">
<title>Node14&#45;&gt;Node4</title>
<path fill="none" stroke="midnightblue" d="M498.09,-190.44C461.15,-181.12 401.95,-166.18 361.58,-156"/>
<polygon fill="midnightblue" stroke="midnightblue" points="362.3,-152.57 351.75,-153.52 360.59,-159.36 362.3,-152.57"/>
</g>
<!-- Node14&#45;&gt;Node12 -->
<g id="edge19" class="edge">
<title>Node14&#45;&gt;Node12</title>
<path fill="none" stroke="midnightblue" d="M525.73,-190.08C520.36,-182.46 512.48,-171.26 505.92,-161.94"/>
<polygon fill="midnightblue" stroke="midnightblue" points="508.78,-159.91 500.16,-153.75 503.05,-163.94 508.78,-159.91"/>
</g>
<!-- Node15 -->
<g id="node15" class="node">
<title>Node15</title>
<g id="a_node15"><a xlink:title=" ">
<polygon fill="none" stroke="#bfbfbf" points="588.5,-134.5 588.5,-153.5 637.5,-153.5 637.5,-134.5 588.5,-134.5"/>
<text text-anchor="middle" x="613" y="-141.5" font-family="Helvetica,sans-Serif" font-size="10.00">cstddef</text>
</a>
</g>
</g>
<!-- Node14&#45;&gt;Node15 -->
<g id="edge18" class="edge">
<title>Node14&#45;&gt;Node15</title>
<path fill="none" stroke="midnightblue" d="M545.01,-190.32C557.53,-181.98 576.68,-169.21 591.47,-159.35"/>
<polygon fill="midnightblue" stroke="midnightblue" points="593.64,-162.11 600.02,-153.65 589.76,-156.29 593.64,-162.11"/>
</g>
<!-- Node16 -->
<g id="node16" class="node">
<title>Node16</title>
<g id="a_node16"><a xlink:title=" ">
<polygon fill="none" stroke="#bfbfbf" points="532,-134.5 532,-153.5 570,-153.5 570,-134.5 532,-134.5"/>
<text text-anchor="middle" x="551" y="-141.5" font-family="Helvetica,sans-Serif" font-size="10.00">tuple</text>
</a>
</g>
</g>
<!-- Node14&#45;&gt;Node16 -->
<g id="edge20" class="edge">
<title>Node14&#45;&gt;Node16</title>
<path fill="none" stroke="midnightblue" d="M535.14,-190.08C537.68,-182.85 541.36,-172.41 544.53,-163.4"/>
<polygon fill="midnightblue" stroke="midnightblue" points="547.9,-164.35 547.92,-153.75 541.3,-162.02 547.9,-164.35"/>
</g>
<!-- Node17&#45;&gt;Node3 -->
<g id="edge25" class="edge">
<title>Node17&#45;&gt;Node3</title>
<path fill="none" stroke="midnightblue" d="M160.98,-246.44C137.9,-237.48 101.44,-223.31 75.36,-213.18"/>
<polygon fill="midnightblue" stroke="midnightblue" points="76.51,-209.88 65.92,-209.52 73.98,-216.4 76.51,-209.88"/>
</g>
<!-- Node17&#45;&gt;Node13 -->
<g id="edge24" class="edge">
<title>Node17&#45;&gt;Node13</title>
<path fill="none" stroke="midnightblue" d="M168.63,-246.33C157.12,-238.47 141.81,-225.72 135,-210 127.74,-193.25 138.85,-174.46 149.73,-161.41"/>
<polygon fill="midnightblue" stroke="midnightblue" points="152.55,-163.51 156.66,-153.74 147.36,-158.82 152.55,-163.51"/>
</g>
<!-- Node18 -->
<g id="node18" class="node">
<title>Node18</title>
<g id="a_node18"><a xlink:title=" ">
<polygon fill="none" stroke="#bfbfbf" points="144,-190.5 144,-209.5 222,-209.5 222,-190.5 144,-190.5"/>
<text text-anchor="middle" x="183" y="-197.5" font-family="Helvetica,sans-Serif" font-size="10.00">unordered_set</text>
</a>
</g>
</g>
<!-- Node17&#45;&gt;Node18 -->
<g id="edge26" class="edge">
<title>Node17&#45;&gt;Node18</title>
<path fill="none" stroke="midnightblue" d="M183,-246.08C183,-239.01 183,-228.86 183,-219.99"/>
<polygon fill="midnightblue" stroke="midnightblue" points="186.5,-219.75 183,-209.75 179.5,-219.75 186.5,-219.75"/>
</g>
</g>
</svg>
