<?xml version="1.0" encoding="UTF-8" standalone="no"?>
<!DOCTYPE svg PUBLIC "-//W3C//DTD SVG 1.1//EN"
 "http://www.w3.org/Graphics/SVG/1.1/DTD/svg11.dtd">
<!-- Generated by graphviz version 2.49.3 (20211215.1918)
 -->
<!-- Title: /github/workspace/src/renderer/vulkan/buffer.h Pages: 1 -->
<svg width="1429pt" height="776pt"
 viewBox="0.00 0.00 1429.50 776.00" xmlns="http://www.w3.org/2000/svg" xmlns:xlink="http://www.w3.org/1999/xlink">
<g id="graph0" class="graph" transform="scale(1 1) rotate(0) translate(4 772)">
<title>/github/workspace/src/renderer/vulkan/buffer.h</title>
<!-- Node1 -->
<g id="node1" class="node">
<title>Node1</title>
<g id="a_node1"><a xlink:title=" ">
<polygon fill="#bfbfbf" stroke="black" points="445.5,-737.5 445.5,-767.5 566.5,-767.5 566.5,-737.5 445.5,-737.5"/>
<text text-anchor="start" x="453.5" y="-755.5" font-family="Helvetica,sans-Serif" font-size="10.00">/github/workspace/src</text>
<text text-anchor="middle" x="506" y="-744.5" font-family="Helvetica,sans-Serif" font-size="10.00">/renderer/vulkan/buffer.h</text>
</a>
</g>
</g>
<!-- Node2 -->
<g id="node2" class="node">
<title>Node2</title>
<g id="a_node2"><a xlink:href="dynamicbuffer_8h.html" target="_top" xlink:title=" ">
<polygon fill="none" stroke="black" points="101.5,-670.5 101.5,-700.5 226.5,-700.5 226.5,-670.5 101.5,-670.5"/>
<text text-anchor="start" x="109.5" y="-688.5" font-family="Helvetica,sans-Serif" font-size="10.00">/github/workspace/src</text>
<text text-anchor="middle" x="164" y="-677.5" font-family="Helvetica,sans-Serif" font-size="10.00">/renderer/dynamicbuffer.h</text>
</a>
</g>
</g>
<!-- Node1&#45;&gt;Node2 -->
<g id="edge1" class="edge">
<title>Node1&#45;&gt;Node2</title>
<path fill="none" stroke="midnightblue" d="M435.25,-738.05C373.83,-726.38 285.74,-709.64 226.79,-698.43"/>
<polygon fill="midnightblue" stroke="midnightblue" points="434.77,-741.53 445.25,-739.95 436.08,-734.65 434.77,-741.53"/>
</g>
<!-- Node8 -->
<g id="node8" class="node">
<title>Node8</title>
<g id="a_node8"><a xlink:href="buffer_8cpp.html" target="_top" xlink:title=" ">
<polygon fill="none" stroke="black" points="286.5,-670.5 286.5,-700.5 417.5,-700.5 417.5,-670.5 286.5,-670.5"/>
<text text-anchor="start" x="294.5" y="-688.5" font-family="Helvetica,sans-Serif" font-size="10.00">/github/workspace/src</text>
<text text-anchor="middle" x="352" y="-677.5" font-family="Helvetica,sans-Serif" font-size="10.00">/renderer/vulkan/buffer.cpp</text>
</a>
</g>
</g>
<!-- Node1&#45;&gt;Node8 -->
<g id="edge7" class="edge">
<title>Node1&#45;&gt;Node8</title>
<path fill="none" stroke="midnightblue" d="M463.13,-733.41C438.55,-723.03 408.14,-710.2 385.35,-700.58"/>
<polygon fill="midnightblue" stroke="midnightblue" points="462.01,-736.73 472.58,-737.4 464.73,-730.28 462.01,-736.73"/>
</g>
<!-- Node9 -->
<g id="node9" class="node">
<title>Node9</title>
<g id="a_node9"><a xlink:href="bufferview_8h.html" target="_top" xlink:title=" ">
<polygon fill="none" stroke="black" points="435.5,-670.5 435.5,-700.5 576.5,-700.5 576.5,-670.5 435.5,-670.5"/>
<text text-anchor="start" x="443.5" y="-688.5" font-family="Helvetica,sans-Serif" font-size="10.00">/github/workspace/src</text>
<text text-anchor="middle" x="506" y="-677.5" font-family="Helvetica,sans-Serif" font-size="10.00">/renderer/vulkan/bufferview.h</text>
</a>
</g>
</g>
<!-- Node1&#45;&gt;Node9 -->
<g id="edge8" class="edge">
<title>Node1&#45;&gt;Node9</title>
<path fill="none" stroke="midnightblue" d="M506,-727.11C506,-718.15 506,-708.32 506,-700.58"/>
<polygon fill="midnightblue" stroke="midnightblue" points="502.5,-727.4 506,-737.4 509.5,-727.4 502.5,-727.4"/>
</g>
<!-- Node11 -->
<g id="node11" class="node">
<title>Node11</title>
<g id="a_node11"><a xlink:href="uniformbuffer_8h.html" target="_top" xlink:title=" ">
<polygon fill="none" stroke="black" points="636.5,-670.5 636.5,-700.5 789.5,-700.5 789.5,-670.5 636.5,-670.5"/>
<text text-anchor="start" x="644.5" y="-688.5" font-family="Helvetica,sans-Serif" font-size="10.00">/github/workspace/src</text>
<text text-anchor="middle" x="713" y="-677.5" font-family="Helvetica,sans-Serif" font-size="10.00">/renderer/vulkan/uniformbuffer.h</text>
</a>
</g>
</g>
<!-- Node1&#45;&gt;Node11 -->
<g id="edge10" class="edge">
<title>Node1&#45;&gt;Node11</title>
<path fill="none" stroke="midnightblue" d="M560.32,-734.44C593.87,-723.91 636.41,-710.55 668.06,-700.61"/>
<polygon fill="midnightblue" stroke="midnightblue" points="559.15,-731.14 550.66,-737.48 561.25,-737.82 559.15,-731.14"/>
</g>
<!-- Node3 -->
<g id="node3" class="node">
<title>Node3</title>
<g id="a_node3"><a xlink:href="dynamicbuffer_8cpp.html" target="_top" xlink:title=" ">
<polygon fill="none" stroke="black" points="0,-603.5 0,-633.5 136,-633.5 136,-603.5 0,-603.5"/>
<text text-anchor="start" x="8" y="-621.5" font-family="Helvetica,sans-Serif" font-size="10.00">/github/workspace/src</text>
<text text-anchor="middle" x="68" y="-610.5" font-family="Helvetica,sans-Serif" font-size="10.00">/renderer/dynamicbuffer.cpp</text>
</a>
</g>
</g>
<!-- Node2&#45;&gt;Node3 -->
<g id="edge2" class="edge">
<title>Node2&#45;&gt;Node3</title>
<path fill="none" stroke="midnightblue" d="M134.81,-664.73C119.95,-654.68 102.24,-642.68 88.79,-633.58"/>
<polygon fill="midnightblue" stroke="midnightblue" points="132.93,-667.69 143.17,-670.4 136.85,-661.89 132.93,-667.69"/>
</g>
<!-- Node4 -->
<g id="node4" class="node">
<title>Node4</title>
<g id="a_node4"><a xlink:href="scene_8h.html" target="_top" xlink:title=" ">
<polygon fill="none" stroke="black" points="196.5,-67.5 196.5,-97.5 309.5,-97.5 309.5,-67.5 196.5,-67.5"/>
<text text-anchor="start" x="204.5" y="-85.5" font-family="Helvetica,sans-Serif" font-size="10.00">/github/workspace/src</text>
<text text-anchor="middle" x="253" y="-74.5" font-family="Helvetica,sans-Serif" font-size="10.00">/renderer/scene.h</text>
</a>
</g>
</g>
<!-- Node2&#45;&gt;Node4 -->
<g id="edge3" class="edge">
<title>Node2&#45;&gt;Node4</title>
<path fill="none" stroke="midnightblue" d="M164,-659.99C164,-633.49 164,-590 164,-552.5 164,-552.5 164,-552.5 164,-215.5 164,-165.2 208.98,-119.7 234.99,-97.6"/>
<polygon fill="midnightblue" stroke="midnightblue" points="160.5,-660.24 164,-670.24 167.5,-660.24 160.5,-660.24"/>
</g>
<!-- Node5 -->
<g id="node5" class="node">
<title>Node5</title>
<g id="a_node5"><a xlink:href="scene_8cpp.html" target="_top" xlink:title=" ">
<polygon fill="none" stroke="black" points="90.5,-0.5 90.5,-30.5 203.5,-30.5 203.5,-0.5 90.5,-0.5"/>
<text text-anchor="start" x="98.5" y="-18.5" font-family="Helvetica,sans-Serif" font-size="10.00">/github/workspace/src</text>
<text text-anchor="middle" x="147" y="-7.5" font-family="Helvetica,sans-Serif" font-size="10.00">/renderer/scene.cpp</text>
</a>
</g>
</g>
<!-- Node4&#45;&gt;Node5 -->
<g id="edge4" class="edge">
<title>Node4&#45;&gt;Node5</title>
<path fill="none" stroke="midnightblue" d="M221.22,-62.02C204.73,-51.9 184.95,-39.77 169.96,-30.58"/>
<polygon fill="midnightblue" stroke="midnightblue" points="219.65,-65.15 230,-67.4 223.3,-59.18 219.65,-65.15"/>
</g>
<!-- Node6 -->
<g id="node6" class="node">
<title>Node6</title>
<g id="a_node6"><a xlink:href="vulkan__voxel__rasterizer__2_8cpp.html" target="_top" xlink:title=" ">
<polygon fill="none" stroke="black" points="414,-0.5 414,-30.5 588,-30.5 588,-0.5 414,-0.5"/>
<text text-anchor="start" x="422" y="-18.5" font-family="Helvetica,sans-Serif" font-size="10.00">/github/workspace/src</text>
<text text-anchor="middle" x="501" y="-7.5" font-family="Helvetica,sans-Serif" font-size="10.00">/tests/vulkan_voxel_rasterizer_2.cpp</text>
</a>
</g>
</g>
<!-- Node4&#45;&gt;Node6 -->
<g id="edge5" class="edge">
<title>Node4&#45;&gt;Node6</title>
<path fill="none" stroke="midnightblue" d="M316.27,-64.92C356.74,-54.31 408.67,-40.7 447.16,-30.61"/>
<polygon fill="midnightblue" stroke="midnightblue" points="315.29,-61.55 306.51,-67.48 317.07,-68.33 315.29,-61.55"/>
</g>
<!-- Node7 -->
<g id="node7" class="node">
<title>Node7</title>
<g id="a_node7"><a xlink:href="vulkan__voxel__rasterizer__3_8cpp.html" target="_top" xlink:title=" ">
<polygon fill="none" stroke="black" points="222,-0.5 222,-30.5 396,-30.5 396,-0.5 222,-0.5"/>
<text text-anchor="start" x="230" y="-18.5" font-family="Helvetica,sans-Serif" font-size="10.00">/github/workspace/src</text>
<text text-anchor="middle" x="309" y="-7.5" font-family="Helvetica,sans-Serif" font-size="10.00">/tests/vulkan_voxel_rasterizer_3.cpp</text>
</a>
</g>
</g>
<!-- Node4&#45;&gt;Node7 -->
<g id="edge6" class="edge">
<title>Node4&#45;&gt;Node7</title>
<path fill="none" stroke="midnightblue" d="M271.75,-59.74C280.04,-50.12 289.54,-39.09 296.87,-30.58"/>
<polygon fill="midnightblue" stroke="midnightblue" points="269.03,-57.54 265.15,-67.4 274.33,-62.1 269.03,-57.54"/>
</g>
<!-- Node10 -->
<g id="node10" class="node">
<title>Node10</title>
<g id="a_node10"><a xlink:href="bufferview_8cpp.html" target="_top" xlink:title=" ">
<polygon fill="none" stroke="black" points="361,-603.5 361,-633.5 513,-633.5 513,-603.5 361,-603.5"/>
<text text-anchor="start" x="369" y="-621.5" font-family="Helvetica,sans-Serif" font-size="10.00">/github/workspace/src</text>
<text text-anchor="middle" x="437" y="-610.5" font-family="Helvetica,sans-Serif" font-size="10.00">/renderer/vulkan/bufferview.cpp</text>
</a>
</g>
</g>
<!-- Node9&#45;&gt;Node10 -->
<g id="edge9" class="edge">
<title>Node9&#45;&gt;Node10</title>
<path fill="none" stroke="midnightblue" d="M483.51,-663.31C473.16,-653.56 461.16,-642.26 451.94,-633.58"/>
<polygon fill="midnightblue" stroke="midnightblue" points="481.35,-666.09 491.03,-670.4 486.15,-660.99 481.35,-666.09"/>
</g>
<!-- Node12 -->
<g id="node12" class="node">
<title>Node12</title>
<g id="a_node12"><a xlink:href="materiallibrary_8h.html" target="_top" xlink:title=" ">
<polygon fill="none" stroke="black" points="519.5,-335.5 519.5,-365.5 644.5,-365.5 644.5,-335.5 519.5,-335.5"/>
<text text-anchor="start" x="527.5" y="-353.5" font-family="Helvetica,sans-Serif" font-size="10.00">/github/workspace/src</text>
<text text-anchor="middle" x="582" y="-342.5" font-family="Helvetica,sans-Serif" font-size="10.00">/renderer/materiallibrary.h</text>
</a>
</g>
</g>
<!-- Node11&#45;&gt;Node12 -->
<g id="edge11" class="edge">
<title>Node11&#45;&gt;Node12</title>
<path fill="none" stroke="midnightblue" d="M713,-659.99C713,-633.49 713,-590 713,-552.5 713,-552.5 713,-552.5 713,-483.5 713,-426.84 651.43,-385.83 612.71,-365.64"/>
<polygon fill="midnightblue" stroke="midnightblue" points="709.5,-660.24 713,-670.24 716.5,-660.24 709.5,-660.24"/>
</g>
<!-- Node24 -->
<g id="node24" class="node">
<title>Node24</title>
<g id="a_node24"><a xlink:href="descriptorset_8h.html" target="_top" xlink:title=" ">
<polygon fill="none" stroke="black" points="531.5,-603.5 531.5,-633.5 684.5,-633.5 684.5,-603.5 531.5,-603.5"/>
<text text-anchor="start" x="539.5" y="-621.5" font-family="Helvetica,sans-Serif" font-size="10.00">/github/workspace/src</text>
<text text-anchor="middle" x="608" y="-610.5" font-family="Helvetica,sans-Serif" font-size="10.00">/renderer/vulkan/descriptorset.h</text>
</a>
</g>
</g>
<!-- Node11&#45;&gt;Node24 -->
<g id="edge31" class="edge">
<title>Node11&#45;&gt;Node24</title>
<path fill="none" stroke="midnightblue" d="M681.52,-665.02C665.18,-654.9 645.59,-642.77 630.74,-633.58"/>
<polygon fill="midnightblue" stroke="midnightblue" points="679.87,-668.11 690.22,-670.4 683.56,-662.16 679.87,-668.11"/>
</g>
<!-- Node34 -->
<g id="node34" class="node">
<title>Node34</title>
<g id="a_node34"><a xlink:href="vulkan__voxel__rasterizer_8cpp.html" target="_top" xlink:title=" ">
<polygon fill="none" stroke="black" points="961,-268.5 961,-298.5 1125,-298.5 1125,-268.5 961,-268.5"/>
<text text-anchor="start" x="969" y="-286.5" font-family="Helvetica,sans-Serif" font-size="10.00">/github/workspace/src</text>
<text text-anchor="middle" x="1043" y="-275.5" font-family="Helvetica,sans-Serif" font-size="10.00">/tests/vulkan_voxel_rasterizer.cpp</text>
</a>
</g>
</g>
<!-- Node11&#45;&gt;Node34 -->
<g id="edge66" class="edge">
<title>Node11&#45;&gt;Node34</title>
<path fill="none" stroke="midnightblue" d="M732.92,-662.85C751.83,-643.78 782.05,-616.92 814,-603 1057.62,-496.83 1234.28,-705.32 1403,-500 1456.72,-434.62 1381.67,-376.63 1308,-335 1299.85,-330.39 1198.37,-311.82 1123.41,-298.53"/>
<polygon fill="midnightblue" stroke="midnightblue" points="730.21,-660.62 725.77,-670.24 735.24,-665.49 730.21,-660.62"/>
</g>
<!-- Node41 -->
<g id="node41" class="node">
<title>Node41</title>
<g id="a_node41"><a xlink:href="uniformbuffer_8cpp.html" target="_top" xlink:title=" ">
<polygon fill="none" stroke="black" points="823,-603.5 823,-633.5 987,-633.5 987,-603.5 823,-603.5"/>
<text text-anchor="start" x="831" y="-621.5" font-family="Helvetica,sans-Serif" font-size="10.00">/github/workspace/src</text>
<text text-anchor="middle" x="905" y="-610.5" font-family="Helvetica,sans-Serif" font-size="10.00">/renderer/vulkan/uniformbuffer.cpp</text>
</a>
</g>
</g>
<!-- Node11&#45;&gt;Node41 -->
<g id="edge65" class="edge">
<title>Node11&#45;&gt;Node41</title>
<path fill="none" stroke="midnightblue" d="M764.42,-667.09C795.42,-656.6 834.38,-643.41 863.42,-633.58"/>
<polygon fill="midnightblue" stroke="midnightblue" points="763.01,-663.87 754.66,-670.4 765.26,-670.5 763.01,-663.87"/>
</g>
<!-- Node13 -->
<g id="node13" class="node">
<title>Node13</title>
<g id="a_node13"><a xlink:href="material_8h.html" target="_top" xlink:title=" ">
<polygon fill="none" stroke="black" points="596.5,-268.5 596.5,-298.5 709.5,-298.5 709.5,-268.5 596.5,-268.5"/>
<text text-anchor="start" x="604.5" y="-286.5" font-family="Helvetica,sans-Serif" font-size="10.00">/github/workspace/src</text>
<text text-anchor="middle" x="653" y="-275.5" font-family="Helvetica,sans-Serif" font-size="10.00">/renderer/material.h</text>
</a>
</g>
</g>
<!-- Node12&#45;&gt;Node13 -->
<g id="edge12" class="edge">
<title>Node12&#45;&gt;Node13</title>
<path fill="none" stroke="midnightblue" d="M599.07,-328.02C608.99,-318.34 621.43,-307.17 631.95,-298.58"/>
<polygon fill="midnightblue" stroke="midnightblue" points="596.3,-325.84 591.73,-335.4 601.26,-330.78 596.3,-325.84"/>
</g>
<!-- Node23 -->
<g id="node23" class="node">
<title>Node23</title>
<g id="a_node23"><a xlink:href="materiallibrary_8cpp.html" target="_top" xlink:title=" ">
<polygon fill="none" stroke="black" points="442,-268.5 442,-298.5 578,-298.5 578,-268.5 442,-268.5"/>
<text text-anchor="start" x="450" y="-286.5" font-family="Helvetica,sans-Serif" font-size="10.00">/github/workspace/src</text>
<text text-anchor="middle" x="510" y="-275.5" font-family="Helvetica,sans-Serif" font-size="10.00">/renderer/materiallibrary.cpp</text>
</a>
</g>
</g>
<!-- Node12&#45;&gt;Node23 -->
<g id="edge30" class="edge">
<title>Node12&#45;&gt;Node23</title>
<path fill="none" stroke="midnightblue" d="M558.85,-328.6C547.98,-318.78 535.3,-307.34 525.59,-298.58"/>
<polygon fill="midnightblue" stroke="midnightblue" points="556.61,-331.29 566.38,-335.4 561.3,-326.1 556.61,-331.29"/>
</g>
<!-- Node13&#45;&gt;Node12 -->
<g id="edge18" class="edge">
<title>Node13&#45;&gt;Node12</title>
<path fill="none" stroke="midnightblue" d="M635.97,-305.94C626.04,-315.63 613.61,-326.79 603.08,-335.4"/>
<polygon fill="midnightblue" stroke="midnightblue" points="638.73,-308.13 643.3,-298.58 633.76,-303.2 638.73,-308.13"/>
</g>
<!-- Node14 -->
<g id="node14" class="node">
<title>Node14</title>
<g id="a_node14"><a xlink:href="mastermaterial_8h.html" target="_top" xlink:title=" ">
<polygon fill="none" stroke="black" points="720,-67.5 720,-97.5 850,-97.5 850,-67.5 720,-67.5"/>
<text text-anchor="start" x="728" y="-85.5" font-family="Helvetica,sans-Serif" font-size="10.00">/github/workspace/src</text>
<text text-anchor="middle" x="785" y="-74.5" font-family="Helvetica,sans-Serif" font-size="10.00">/renderer/mastermaterial.h</text>
</a>
</g>
</g>
<!-- Node13&#45;&gt;Node14 -->
<g id="edge13" class="edge">
<title>Node13&#45;&gt;Node14</title>
<path fill="none" stroke="midnightblue" d="M676.86,-262.24C687.69,-253.91 699.93,-243.52 709,-232 742.95,-188.89 763.92,-125.84 776,-97.83"/>
<polygon fill="midnightblue" stroke="midnightblue" points="674.47,-259.65 668.56,-268.45 678.67,-265.26 674.47,-259.65"/>
</g>
<!-- Node16 -->
<g id="node16" class="node">
<title>Node16</title>
<g id="a_node16"><a xlink:href="material_8cpp.html" target="_top" xlink:title=" ">
<polygon fill="none" stroke="black" points="465.5,-201.5 465.5,-231.5 578.5,-231.5 578.5,-201.5 465.5,-201.5"/>
<text text-anchor="start" x="473.5" y="-219.5" font-family="Helvetica,sans-Serif" font-size="10.00">/github/workspace/src</text>
<text text-anchor="middle" x="522" y="-208.5" font-family="Helvetica,sans-Serif" font-size="10.00">/renderer/material.cpp</text>
</a>
</g>
</g>
<!-- Node13&#45;&gt;Node16 -->
<g id="edge17" class="edge">
<title>Node13&#45;&gt;Node16</title>
<path fill="none" stroke="midnightblue" d="M615.42,-263.85C594.71,-253.58 569.41,-241.03 550.37,-231.58"/>
<polygon fill="midnightblue" stroke="midnightblue" points="614.06,-267.09 624.57,-268.4 617.17,-260.82 614.06,-267.09"/>
</g>
<!-- Node17 -->
<g id="node17" class="node">
<title>Node17</title>
<g id="a_node17"><a xlink:href="mesh_8h.html" target="_top" xlink:title=" ">
<polygon fill="none" stroke="black" points="596.5,-201.5 596.5,-231.5 709.5,-231.5 709.5,-201.5 596.5,-201.5"/>
<text text-anchor="start" x="604.5" y="-219.5" font-family="Helvetica,sans-Serif" font-size="10.00">/github/workspace/src</text>
<text text-anchor="middle" x="653" y="-208.5" font-family="Helvetica,sans-Serif" font-size="10.00">/renderer/mesh.h</text>
</a>
</g>
</g>
<!-- Node13&#45;&gt;Node17 -->
<g id="edge19" class="edge">
<title>Node13&#45;&gt;Node17</title>
<path fill="none" stroke="midnightblue" d="M653,-258.11C653,-249.15 653,-239.32 653,-231.58"/>
<polygon fill="midnightblue" stroke="midnightblue" points="649.5,-258.4 653,-268.4 656.5,-258.4 649.5,-258.4"/>
</g>
<!-- Node14&#45;&gt;Node12 -->
<g id="edge16" class="edge">
<title>Node14&#45;&gt;Node12</title>
<path fill="none" stroke="midnightblue" d="M709.5,-92.15C610.99,-103.79 450.03,-124.16 441,-134 348.89,-234.41 409.07,-265.63 433,-299 452.65,-326.41 488.02,-339.13 519.37,-344.95"/>
<polygon fill="midnightblue" stroke="midnightblue" points="710.19,-95.59 719.71,-90.95 709.37,-88.64 710.19,-95.59"/>
</g>
<!-- Node14&#45;&gt;Node13 -->
<g id="edge15" class="edge">
<title>Node14&#45;&gt;Node13</title>
<path fill="none" stroke="midnightblue" d="M784.27,-107.79C777.35,-138.92 757.37,-193.44 727,-232 715.51,-246.6 698.92,-259.39 684.21,-268.45"/>
<polygon fill="midnightblue" stroke="midnightblue" points="787.74,-108.3 786.17,-97.83 780.86,-106.99 787.74,-108.3"/>
</g>
<!-- Node15 -->
<g id="node15" class="node">
<title>Node15</title>
<g id="a_node15"><a xlink:href="mastermaterial_8cpp.html" target="_top" xlink:title=" ">
<polygon fill="none" stroke="black" points="752,-0.5 752,-30.5 892,-30.5 892,-0.5 752,-0.5"/>
<text text-anchor="start" x="760" y="-18.5" font-family="Helvetica,sans-Serif" font-size="10.00">/github/workspace/src</text>
<text text-anchor="middle" x="822" y="-7.5" font-family="Helvetica,sans-Serif" font-size="10.00">/renderer/mastermaterial.cpp</text>
</a>
</g>
</g>
<!-- Node14&#45;&gt;Node15 -->
<g id="edge14" class="edge">
<title>Node14&#45;&gt;Node15</title>
<path fill="none" stroke="midnightblue" d="M798.05,-58.58C803.36,-49.24 809.34,-38.75 813.99,-30.58"/>
<polygon fill="midnightblue" stroke="midnightblue" points="794.93,-56.97 793.03,-67.4 801.02,-60.44 794.93,-56.97"/>
</g>
<!-- Node17&#45;&gt;Node14 -->
<g id="edge20" class="edge">
<title>Node17&#45;&gt;Node14</title>
<path fill="none" stroke="midnightblue" d="M681.76,-195.32C693.48,-186.56 706.87,-175.82 718,-165 740.32,-143.29 762.54,-114.47 774.95,-97.56"/>
<polygon fill="midnightblue" stroke="midnightblue" points="679.56,-192.6 673.57,-201.34 683.7,-198.24 679.56,-192.6"/>
</g>
<!-- Node18 -->
<g id="node18" class="node">
<title>Node18</title>
<g id="a_node18"><a xlink:href="mesh_8cpp.html" target="_top" xlink:title=" ">
<polygon fill="none" stroke="black" points="596.5,-134.5 596.5,-164.5 709.5,-164.5 709.5,-134.5 596.5,-134.5"/>
<text text-anchor="start" x="604.5" y="-152.5" font-family="Helvetica,sans-Serif" font-size="10.00">/github/workspace/src</text>
<text text-anchor="middle" x="653" y="-141.5" font-family="Helvetica,sans-Serif" font-size="10.00">/renderer/mesh.cpp</text>
</a>
</g>
</g>
<!-- Node17&#45;&gt;Node18 -->
<g id="edge21" class="edge">
<title>Node17&#45;&gt;Node18</title>
<path fill="none" stroke="midnightblue" d="M653,-191.11C653,-182.15 653,-172.32 653,-164.58"/>
<polygon fill="midnightblue" stroke="midnightblue" points="649.5,-191.4 653,-201.4 656.5,-191.4 649.5,-191.4"/>
</g>
<!-- Node19 -->
<g id="node19" class="node">
<title>Node19</title>
<g id="a_node19"><a xlink:href="modelloader_8h.html" target="_top" xlink:title=" ">
<polygon fill="none" stroke="black" points="374,-67.5 374,-97.5 492,-97.5 492,-67.5 374,-67.5"/>
<text text-anchor="start" x="382" y="-85.5" font-family="Helvetica,sans-Serif" font-size="10.00">/github/workspace/src</text>
<text text-anchor="middle" x="433" y="-74.5" font-family="Helvetica,sans-Serif" font-size="10.00">/renderer/modelloader.h</text>
</a>
</g>
</g>
<!-- Node17&#45;&gt;Node19 -->
<g id="edge22" class="edge">
<title>Node17&#45;&gt;Node19</title>
<path fill="none" stroke="midnightblue" d="M586.25,-200.56C525.04,-186.72 443.48,-167.84 441,-165 424.83,-146.47 426.86,-115.76 429.88,-97.8"/>
<polygon fill="midnightblue" stroke="midnightblue" points="585.75,-204.04 596.27,-202.82 587.29,-197.21 585.75,-204.04"/>
</g>
<!-- Node21 -->
<g id="node21" class="node">
<title>Node21</title>
<g id="a_node21"><a xlink:href="objectinstance_8h.html" target="_top" xlink:title=" ">
<polygon fill="none" stroke="black" points="450,-134.5 450,-164.5 578,-164.5 578,-134.5 450,-134.5"/>
<text text-anchor="start" x="458" y="-152.5" font-family="Helvetica,sans-Serif" font-size="10.00">/github/workspace/src</text>
<text text-anchor="middle" x="514" y="-141.5" font-family="Helvetica,sans-Serif" font-size="10.00">/renderer/objectinstance.h</text>
</a>
</g>
</g>
<!-- Node17&#45;&gt;Node21 -->
<g id="edge26" class="edge">
<title>Node17&#45;&gt;Node21</title>
<path fill="none" stroke="midnightblue" d="M613.72,-197.13C591.63,-186.8 564.49,-174.11 544.1,-164.58"/>
<polygon fill="midnightblue" stroke="midnightblue" points="612.3,-200.33 622.84,-201.4 615.26,-193.99 612.3,-200.33"/>
</g>
<!-- Node19&#45;&gt;Node6 -->
<g id="edge24" class="edge">
<title>Node19&#45;&gt;Node6</title>
<path fill="none" stroke="midnightblue" d="M455.17,-60.31C465.37,-50.56 477.19,-39.26 486.27,-30.58"/>
<polygon fill="midnightblue" stroke="midnightblue" points="452.57,-57.96 447.75,-67.4 457.4,-63.02 452.57,-57.96"/>
</g>
<!-- Node19&#45;&gt;Node7 -->
<g id="edge25" class="edge">
<title>Node19&#45;&gt;Node7</title>
<path fill="none" stroke="midnightblue" d="M397.16,-62.71C377.61,-52.46 353.8,-39.98 335.85,-30.58"/>
<polygon fill="midnightblue" stroke="midnightblue" points="395.61,-65.85 406.09,-67.4 398.86,-59.65 395.61,-65.85"/>
</g>
<!-- Node20 -->
<g id="node20" class="node">
<title>Node20</title>
<g id="a_node20"><a xlink:href="modelloader_8cpp.html" target="_top" xlink:title=" ">
<polygon fill="none" stroke="black" points="606,-0.5 606,-30.5 734,-30.5 734,-0.5 606,-0.5"/>
<text text-anchor="start" x="614" y="-18.5" font-family="Helvetica,sans-Serif" font-size="10.00">/github/workspace/src</text>
<text text-anchor="middle" x="670" y="-7.5" font-family="Helvetica,sans-Serif" font-size="10.00">/renderer/modelloader.cpp</text>
</a>
</g>
</g>
<!-- Node19&#45;&gt;Node20 -->
<g id="edge23" class="edge">
<title>Node19&#45;&gt;Node20</title>
<path fill="none" stroke="midnightblue" d="M494.2,-64.71C532.77,-54.14 582,-40.63 618.55,-30.61"/>
<polygon fill="midnightblue" stroke="midnightblue" points="492.85,-61.46 484.13,-67.48 494.7,-68.21 492.85,-61.46"/>
</g>
<!-- Node21&#45;&gt;Node4 -->
<g id="edge29" class="edge">
<title>Node21&#45;&gt;Node4</title>
<path fill="none" stroke="midnightblue" d="M447.95,-132.05C405.28,-121.43 350.34,-107.74 309.66,-97.61"/>
<polygon fill="midnightblue" stroke="midnightblue" points="447.14,-135.46 457.69,-134.48 448.83,-128.66 447.14,-135.46"/>
</g>
<!-- Node21&#45;&gt;Node14 -->
<g id="edge27" class="edge">
<title>Node21&#45;&gt;Node14</title>
<path fill="none" stroke="midnightblue" d="M582.3,-132.12C626.64,-121.48 683.84,-107.76 726.17,-97.61"/>
<polygon fill="midnightblue" stroke="midnightblue" points="581.38,-128.74 572.47,-134.48 583.01,-135.55 581.38,-128.74"/>
</g>
<!-- Node22 -->
<g id="node22" class="node">
<title>Node22</title>
<g id="a_node22"><a xlink:href="objectinstance_8cpp.html" target="_top" xlink:title=" ">
<polygon fill="none" stroke="black" points="510.5,-67.5 510.5,-97.5 649.5,-97.5 649.5,-67.5 510.5,-67.5"/>
<text text-anchor="start" x="518.5" y="-85.5" font-family="Helvetica,sans-Serif" font-size="10.00">/github/workspace/src</text>
<text text-anchor="middle" x="580" y="-74.5" font-family="Helvetica,sans-Serif" font-size="10.00">/renderer/objectinstance.cpp</text>
</a>
</g>
</g>
<!-- Node21&#45;&gt;Node22 -->
<g id="edge28" class="edge">
<title>Node21&#45;&gt;Node22</title>
<path fill="none" stroke="midnightblue" d="M535.51,-127.31C545.41,-117.56 556.89,-106.26 565.71,-97.58"/>
<polygon fill="midnightblue" stroke="midnightblue" points="532.99,-124.89 528.32,-134.4 537.9,-129.87 532.99,-124.89"/>
</g>
<!-- Node25 -->
<g id="node25" class="node">
<title>Node25</title>
<g id="a_node25"><a xlink:href="descriptorpoolmanager_8h.html" target="_top" xlink:title=" ">
<polygon fill="none" stroke="black" points="374,-536.5 374,-566.5 538,-566.5 538,-536.5 374,-536.5"/>
<text text-anchor="start" x="382" y="-554.5" font-family="Helvetica,sans-Serif" font-size="10.00">/github/workspace/src</text>
<text text-anchor="middle" x="456" y="-543.5" font-family="Helvetica,sans-Serif" font-size="10.00">/renderer/descriptorpoolmanager.h</text>
</a>
</g>
</g>
<!-- Node24&#45;&gt;Node25 -->
<g id="edge32" class="edge">
<title>Node24&#45;&gt;Node25</title>
<path fill="none" stroke="midnightblue" d="M565.69,-599.41C541.42,-589.03 511.41,-576.2 488.92,-566.58"/>
<polygon fill="midnightblue" stroke="midnightblue" points="564.45,-602.68 575.02,-603.4 567.2,-596.25 564.45,-602.68"/>
</g>
<!-- Node27 -->
<g id="node27" class="node">
<title>Node27</title>
<g id="a_node27"><a xlink:href="uirenderer_8h.html" target="_top" xlink:title=" ">
<polygon fill="none" stroke="black" points="556.5,-536.5 556.5,-566.5 675.5,-566.5 675.5,-536.5 556.5,-536.5"/>
<text text-anchor="start" x="564.5" y="-554.5" font-family="Helvetica,sans-Serif" font-size="10.00">/github/workspace/src</text>
<text text-anchor="middle" x="616" y="-543.5" font-family="Helvetica,sans-Serif" font-size="10.00">/renderer/ui/uirenderer.h</text>
</a>
</g>
</g>
<!-- Node24&#45;&gt;Node27 -->
<g id="edge35" class="edge">
<title>Node24&#45;&gt;Node27</title>
<path fill="none" stroke="midnightblue" d="M610.97,-593.4C612.08,-584.37 613.3,-574.41 614.27,-566.58"/>
<polygon fill="midnightblue" stroke="midnightblue" points="607.48,-593.04 609.74,-603.4 614.43,-593.9 607.48,-593.04"/>
</g>
<!-- Node29 -->
<g id="node29" class="node">
<title>Node29</title>
<g id="a_node29"><a xlink:href="commandbuffer_8h.html" target="_top" xlink:title=" ">
<polygon fill="none" stroke="black" points="891,-536.5 891,-566.5 1055,-566.5 1055,-536.5 891,-536.5"/>
<text text-anchor="start" x="899" y="-554.5" font-family="Helvetica,sans-Serif" font-size="10.00">/github/workspace/src</text>
<text text-anchor="middle" x="973" y="-543.5" font-family="Helvetica,sans-Serif" font-size="10.00">/renderer/vulkan/commandbuffer.h</text>
</a>
</g>
</g>
<!-- Node24&#45;&gt;Node29 -->
<g id="edge38" class="edge">
<title>Node24&#45;&gt;Node29</title>
<path fill="none" stroke="midnightblue" d="M694.45,-602.1C755.1,-591.3 835.54,-576.98 894.38,-566.5"/>
<polygon fill="midnightblue" stroke="midnightblue" points="693.75,-598.67 684.52,-603.87 694.97,-605.57 693.75,-598.67"/>
</g>
<!-- Node40 -->
<g id="node40" class="node">
<title>Node40</title>
<g id="a_node40"><a xlink:href="descriptorset_8cpp.html" target="_top" xlink:title=" ">
<polygon fill="none" stroke="black" points="192,-536.5 192,-566.5 356,-566.5 356,-536.5 192,-536.5"/>
<text text-anchor="start" x="200" y="-554.5" font-family="Helvetica,sans-Serif" font-size="10.00">/github/workspace/src</text>
<text text-anchor="middle" x="274" y="-543.5" font-family="Helvetica,sans-Serif" font-size="10.00">/renderer/vulkan/descriptorset.cpp</text>
</a>
</g>
</g>
<!-- Node24&#45;&gt;Node40 -->
<g id="edge64" class="edge">
<title>Node24&#45;&gt;Node40</title>
<path fill="none" stroke="midnightblue" d="M525.87,-601.52C470.84,-590.81 399.06,-576.84 346.22,-566.55"/>
<polygon fill="midnightblue" stroke="midnightblue" points="525.45,-605 535.94,-603.48 526.79,-598.13 525.45,-605"/>
</g>
<!-- Node25&#45;&gt;Node4 -->
<g id="edge34" class="edge">
<title>Node25&#45;&gt;Node4</title>
<path fill="none" stroke="midnightblue" d="M376.33,-534.38C324.81,-523.27 265.76,-508.94 257,-500 230.96,-473.45 238,-455.69 238,-418.5 238,-418.5 238,-418.5 238,-215.5 238,-172.37 246,-121.82 250.32,-97.7"/>
<polygon fill="midnightblue" stroke="midnightblue" points="375.67,-537.82 386.18,-536.49 377.13,-530.98 375.67,-537.82"/>
</g>
<!-- Node26 -->
<g id="node26" class="node">
<title>Node26</title>
<g id="a_node26"><a xlink:href="descriptorpoolmanager_8cpp.html" target="_top" xlink:title=" ">
<polygon fill="none" stroke="black" points="266,-469.5 266,-499.5 440,-499.5 440,-469.5 266,-469.5"/>
<text text-anchor="start" x="274" y="-487.5" font-family="Helvetica,sans-Serif" font-size="10.00">/github/workspace/src</text>
<text text-anchor="middle" x="353" y="-476.5" font-family="Helvetica,sans-Serif" font-size="10.00">/renderer/descriptorpoolmanager.cpp</text>
</a>
</g>
</g>
<!-- Node25&#45;&gt;Node26 -->
<g id="edge33" class="edge">
<title>Node25&#45;&gt;Node26</title>
<path fill="none" stroke="midnightblue" d="M425.12,-531.02C409.1,-520.9 389.87,-508.77 375.31,-499.58"/>
<polygon fill="midnightblue" stroke="midnightblue" points="423.33,-534.02 433.65,-536.4 427.06,-528.1 423.33,-534.02"/>
</g>
<!-- Node27&#45;&gt;Node7 -->
<g id="edge37" class="edge">
<title>Node27&#45;&gt;Node7</title>
<path fill="none" stroke="midnightblue" d="M613.87,-526.02C611.5,-509.02 606.5,-486.39 596,-469 514.51,-334.09 346,-375.11 346,-217.5 346,-217.5 346,-217.5 346,-148.5 346,-104.23 326.47,-54.61 315.79,-30.78"/>
<polygon fill="midnightblue" stroke="midnightblue" points="610.43,-526.74 615.08,-536.26 617.38,-525.92 610.43,-526.74"/>
</g>
<!-- Node28 -->
<g id="node28" class="node">
<title>Node28</title>
<g id="a_node28"><a xlink:href="uirenderer_8cpp.html" target="_top" xlink:title=" ">
<polygon fill="none" stroke="black" points="458.5,-469.5 458.5,-499.5 587.5,-499.5 587.5,-469.5 458.5,-469.5"/>
<text text-anchor="start" x="466.5" y="-487.5" font-family="Helvetica,sans-Serif" font-size="10.00">/github/workspace/src</text>
<text text-anchor="middle" x="523" y="-476.5" font-family="Helvetica,sans-Serif" font-size="10.00">/renderer/ui/uirenderer.cpp</text>
</a>
</g>
</g>
<!-- Node27&#45;&gt;Node28 -->
<g id="edge36" class="edge">
<title>Node27&#45;&gt;Node28</title>
<path fill="none" stroke="midnightblue" d="M587.31,-530.45C573.01,-520.45 556.05,-508.6 543.14,-499.58"/>
<polygon fill="midnightblue" stroke="midnightblue" points="585.62,-533.54 595.82,-536.4 589.63,-527.8 585.62,-533.54"/>
</g>
<!-- Node29&#45;&gt;Node1 -->
<g id="edge39" class="edge">
<title>Node29&#45;&gt;Node1</title>
<path fill="none" stroke="midnightblue" d="M989.38,-575.67C999.49,-593.07 1008.36,-616.76 996,-634 946.16,-703.48 686.68,-735.37 566.81,-746.56"/>
<polygon fill="midnightblue" stroke="midnightblue" points="992.05,-573.34 983.77,-566.73 986.12,-577.06 992.05,-573.34"/>
</g>
<!-- Node30 -->
<g id="node30" class="node">
<title>Node30</title>
<g id="a_node30"><a xlink:href="commandbuffer_8cpp.html" target="_top" xlink:title=" ">
<polygon fill="none" stroke="black" points="1201,-469.5 1201,-499.5 1375,-499.5 1375,-469.5 1201,-469.5"/>
<text text-anchor="start" x="1209" y="-487.5" font-family="Helvetica,sans-Serif" font-size="10.00">/github/workspace/src</text>
<text text-anchor="middle" x="1288" y="-476.5" font-family="Helvetica,sans-Serif" font-size="10.00">/renderer/vulkan/commandbuffer.cpp</text>
</a>
</g>
</g>
<!-- Node29&#45;&gt;Node30 -->
<g id="edge40" class="edge">
<title>Node29&#45;&gt;Node30</title>
<path fill="none" stroke="midnightblue" d="M1050.78,-534.45C1102.64,-523.75 1170.15,-509.82 1219.89,-499.55"/>
<polygon fill="midnightblue" stroke="midnightblue" points="1050.05,-531.03 1040.96,-536.48 1051.46,-537.88 1050.05,-531.03"/>
</g>
<!-- Node31 -->
<g id="node31" class="node">
<title>Node31</title>
<g id="a_node31"><a xlink:href="swapchain_8h.html" target="_top" xlink:title=" ">
<polygon fill="none" stroke="black" points="1039.5,-469.5 1039.5,-499.5 1182.5,-499.5 1182.5,-469.5 1039.5,-469.5"/>
<text text-anchor="start" x="1047.5" y="-487.5" font-family="Helvetica,sans-Serif" font-size="10.00">/github/workspace/src</text>
<text text-anchor="middle" x="1111" y="-476.5" font-family="Helvetica,sans-Serif" font-size="10.00">/renderer/vulkan/swapchain.h</text>
</a>
</g>
</g>
<!-- Node29&#45;&gt;Node31 -->
<g id="edge41" class="edge">
<title>Node29&#45;&gt;Node31</title>
<path fill="none" stroke="midnightblue" d="M1012,-532.13C1033.93,-521.8 1060.87,-509.11 1081.11,-499.58"/>
<polygon fill="midnightblue" stroke="midnightblue" points="1010.5,-528.97 1002.94,-536.4 1013.48,-535.3 1010.5,-528.97"/>
</g>
<!-- Node29&#45;&gt;Node34 -->
<g id="edge63" class="edge">
<title>Node29&#45;&gt;Node34</title>
<path fill="none" stroke="midnightblue" d="M923.19,-532.59C864.97,-508.52 780.02,-461.74 809,-402 819.5,-380.36 872.86,-346.47 894,-335 923.17,-319.17 958.21,-306.99 986.98,-298.57"/>
<polygon fill="midnightblue" stroke="midnightblue" points="922.06,-535.91 932.64,-536.4 924.67,-529.42 922.06,-535.91"/>
</g>
<!-- Node31&#45;&gt;Node6 -->
<g id="edge61" class="edge">
<title>Node31&#45;&gt;Node6</title>
<path fill="none" stroke="midnightblue" d="M1192.88,-467.56C1256.67,-454.82 1335.37,-438.25 1341,-433 1368.62,-407.25 1365,-389.26 1365,-351.5 1365,-351.5 1365,-351.5 1365,-148.5 1365,-110.74 1370.68,-90.34 1341,-67 1275.94,-15.84 679.36,-39.19 597,-31 594.06,-30.71 591.08,-30.39 588.07,-30.05"/>
<polygon fill="midnightblue" stroke="midnightblue" points="1191.91,-464.18 1182.79,-469.57 1193.28,-471.05 1191.91,-464.18"/>
</g>
<!-- Node31&#45;&gt;Node7 -->
<g id="edge62" class="edge">
<title>Node31&#45;&gt;Node7</title>
<path fill="none" stroke="midnightblue" d="M1192.33,-468.01C1253.57,-451.08 1327,-417.1 1327,-351.5 1327,-351.5 1327,-351.5 1327,-148.5 1327,-45.23 507.6,-42.8 405,-31 402.07,-30.66 399.09,-30.3 396.09,-29.93"/>
<polygon fill="midnightblue" stroke="midnightblue" points="1191.39,-464.63 1182.62,-470.58 1193.19,-471.4 1191.39,-464.63"/>
</g>
<!-- Node32 -->
<g id="node32" class="node">
<title>Node32</title>
<g id="a_node32"><a xlink:href="framebuffer_8h.html" target="_top" xlink:title=" ">
<polygon fill="none" stroke="black" points="1153,-335.5 1153,-365.5 1299,-365.5 1299,-335.5 1153,-335.5"/>
<text text-anchor="start" x="1161" y="-353.5" font-family="Helvetica,sans-Serif" font-size="10.00">/github/workspace/src</text>
<text text-anchor="middle" x="1226" y="-342.5" font-family="Helvetica,sans-Serif" font-size="10.00">/renderer/vulkan/framebuffer.h</text>
</a>
</g>
</g>
<!-- Node31&#45;&gt;Node32 -->
<g id="edge42" class="edge">
<title>Node31&#45;&gt;Node32</title>
<path fill="none" stroke="midnightblue" d="M1164.47,-465.34C1180.05,-457.79 1195.62,-447.34 1206,-433 1220.4,-413.11 1220.41,-383.15 1221.6,-365.64"/>
<polygon fill="midnightblue" stroke="midnightblue" points="1163.01,-462.15 1155.33,-469.45 1165.88,-468.54 1163.01,-462.15"/>
</g>
<!-- Node31&#45;&gt;Node34 -->
<g id="edge60" class="edge">
<title>Node31&#45;&gt;Node34</title>
<path fill="none" stroke="midnightblue" d="M1138.9,-462.75C1147.69,-454.57 1156.32,-444.38 1161,-433 1166.24,-420.26 1166.29,-414.72 1161,-402 1141.7,-355.55 1094.12,-317.96 1065.62,-298.64"/>
<polygon fill="midnightblue" stroke="midnightblue" points="1136.49,-460.21 1131.24,-469.41 1141.08,-465.5 1136.49,-460.21"/>
</g>
<!-- Node35 -->
<g id="node35" class="node">
<title>Node35</title>
<g id="a_node35"><a xlink:href="graphicspipeline_8h.html" target="_top" xlink:title=" ">
<polygon fill="none" stroke="black" points="662.5,-335.5 662.5,-365.5 829.5,-365.5 829.5,-335.5 662.5,-335.5"/>
<text text-anchor="start" x="670.5" y="-353.5" font-family="Helvetica,sans-Serif" font-size="10.00">/github/workspace/src</text>
<text text-anchor="middle" x="746" y="-342.5" font-family="Helvetica,sans-Serif" font-size="10.00">/renderer/vulkan/graphicspipeline.h</text>
</a>
</g>
</g>
<!-- Node31&#45;&gt;Node35 -->
<g id="edge47" class="edge">
<title>Node31&#45;&gt;Node35</title>
<path fill="none" stroke="midnightblue" d="M1131.69,-461.21C1145.61,-443.48 1158.92,-418.93 1144,-402 1133.7,-390.31 943.22,-370.28 829.56,-359.28"/>
<polygon fill="midnightblue" stroke="midnightblue" points="1128.66,-459.38 1124.93,-469.3 1134.03,-463.87 1128.66,-459.38"/>
</g>
<!-- Node37 -->
<g id="node37" class="node">
<title>Node37</title>
<g id="a_node37"><a xlink:href="renderpass_8h.html" target="_top" xlink:title=" ">
<polygon fill="none" stroke="black" points="817.5,-402.5 817.5,-432.5 962.5,-432.5 962.5,-402.5 817.5,-402.5"/>
<text text-anchor="start" x="825.5" y="-420.5" font-family="Helvetica,sans-Serif" font-size="10.00">/github/workspace/src</text>
<text text-anchor="middle" x="890" y="-409.5" font-family="Helvetica,sans-Serif" font-size="10.00">/renderer/vulkan/renderpass.h</text>
</a>
</g>
</g>
<!-- Node31&#45;&gt;Node37 -->
<g id="edge53" class="edge">
<title>Node31&#45;&gt;Node37</title>
<path fill="none" stroke="midnightblue" d="M1053.47,-466.58C1017.58,-456.02 971.91,-442.59 937.98,-432.61"/>
<polygon fill="midnightblue" stroke="midnightblue" points="1052.74,-470.01 1063.32,-469.48 1054.71,-463.3 1052.74,-470.01"/>
</g>
<!-- Node39 -->
<g id="node39" class="node">
<title>Node39</title>
<g id="a_node39"><a xlink:href="swapchain_8cpp.html" target="_top" xlink:title=" ">
<polygon fill="none" stroke="black" points="981,-402.5 981,-432.5 1135,-432.5 1135,-402.5 981,-402.5"/>
<text text-anchor="start" x="989" y="-420.5" font-family="Helvetica,sans-Serif" font-size="10.00">/github/workspace/src</text>
<text text-anchor="middle" x="1058" y="-409.5" font-family="Helvetica,sans-Serif" font-size="10.00">/renderer/vulkan/swapchain.cpp</text>
</a>
</g>
</g>
<!-- Node31&#45;&gt;Node39 -->
<g id="edge59" class="edge">
<title>Node31&#45;&gt;Node39</title>
<path fill="none" stroke="midnightblue" d="M1093.02,-461.45C1085.23,-451.9 1076.35,-441 1069.48,-432.58"/>
<polygon fill="midnightblue" stroke="midnightblue" points="1090.47,-463.86 1099.5,-469.4 1095.89,-459.43 1090.47,-463.86"/>
</g>
<!-- Node32&#45;&gt;Node29 -->
<g id="edge43" class="edge">
<title>Node32&#45;&gt;Node29</title>
<path fill="none" stroke="midnightblue" d="M1271.5,-369.63C1332.68,-396.52 1428.87,-449.28 1384,-500 1362.62,-524.16 1169.16,-539.27 1055.44,-546.14"/>
<polygon fill="midnightblue" stroke="midnightblue" points="1272.58,-366.28 1262.01,-365.54 1269.81,-372.71 1272.58,-366.28"/>
</g>
<!-- Node32&#45;&gt;Node31 -->
<g id="edge45" class="edge">
<title>Node32&#45;&gt;Node31</title>
<path fill="none" stroke="midnightblue" d="M1235.92,-375.66C1237.98,-393.15 1235.92,-416.53 1224,-433 1211.59,-450.15 1191.74,-461.75 1172.07,-469.45"/>
<polygon fill="midnightblue" stroke="midnightblue" points="1239.33,-374.88 1234.14,-365.64 1232.44,-376.1 1239.33,-374.88"/>
</g>
<!-- Node33 -->
<g id="node33" class="node">
<title>Node33</title>
<g id="a_node33"><a xlink:href="framebuffer_8cpp.html" target="_top" xlink:title=" ">
<polygon fill="none" stroke="black" points="1143,-268.5 1143,-298.5 1299,-298.5 1299,-268.5 1143,-268.5"/>
<text text-anchor="start" x="1151" y="-286.5" font-family="Helvetica,sans-Serif" font-size="10.00">/github/workspace/src</text>
<text text-anchor="middle" x="1221" y="-275.5" font-family="Helvetica,sans-Serif" font-size="10.00">/renderer/vulkan/framebuffer.cpp</text>
</a>
</g>
</g>
<!-- Node32&#45;&gt;Node33 -->
<g id="edge44" class="edge">
<title>Node32&#45;&gt;Node33</title>
<path fill="none" stroke="midnightblue" d="M1224.15,-325.4C1223.45,-316.37 1222.69,-306.41 1222.08,-298.58"/>
<polygon fill="midnightblue" stroke="midnightblue" points="1220.66,-325.69 1224.92,-335.4 1227.64,-325.16 1220.66,-325.69"/>
</g>
<!-- Node32&#45;&gt;Node34 -->
<g id="edge46" class="edge">
<title>Node32&#45;&gt;Node34</title>
<path fill="none" stroke="midnightblue" d="M1176.6,-331.96C1147.13,-321.48 1110.19,-308.37 1082.63,-298.58"/>
<polygon fill="midnightblue" stroke="midnightblue" points="1175.7,-335.35 1186.29,-335.4 1178.04,-328.75 1175.7,-335.35"/>
</g>
<!-- Node35&#45;&gt;Node13 -->
<g id="edge49" class="edge">
<title>Node35&#45;&gt;Node13</title>
<path fill="none" stroke="midnightblue" d="M717.31,-329.45C703.01,-319.45 686.05,-307.6 673.14,-298.58"/>
<polygon fill="midnightblue" stroke="midnightblue" points="715.62,-332.54 725.82,-335.4 719.63,-326.8 715.62,-332.54"/>
</g>
<!-- Node35&#45;&gt;Node14 -->
<g id="edge48" class="edge">
<title>Node35&#45;&gt;Node14</title>
<path fill="none" stroke="midnightblue" d="M748.4,-324.99C750.22,-308.73 753.07,-286.97 757,-268 766.65,-221.43 779.49,-212.11 786,-165 787.88,-151.35 786.14,-147.78 786,-134 785.88,-121.72 785.59,-107.77 785.36,-97.65"/>
<polygon fill="midnightblue" stroke="midnightblue" points="744.89,-324.95 747.31,-335.26 751.85,-325.69 744.89,-324.95"/>
</g>
<!-- Node35&#45;&gt;Node29 -->
<g id="edge50" class="edge">
<title>Node35&#45;&gt;Node29</title>
<path fill="none" stroke="midnightblue" d="M743.46,-375.55C741.43,-408.16 743.07,-466.2 775,-500 791.17,-517.12 843.81,-530.06 890.75,-538.56"/>
<polygon fill="midnightblue" stroke="midnightblue" points="746.95,-375.78 744.25,-365.53 739.97,-375.23 746.95,-375.78"/>
</g>
<!-- Node35&#45;&gt;Node34 -->
<g id="edge52" class="edge">
<title>Node35&#45;&gt;Node34</title>
<path fill="none" stroke="midnightblue" d="M819.95,-333.32C868.76,-322.63 932.08,-308.77 978.78,-298.55"/>
<polygon fill="midnightblue" stroke="midnightblue" points="819.1,-329.92 810.08,-335.48 820.6,-336.76 819.1,-329.92"/>
</g>
<!-- Node36 -->
<g id="node36" class="node">
<title>Node36</title>
<g id="a_node36"><a xlink:href="graphicspipeline_8cpp.html" target="_top" xlink:title=" ">
<polygon fill="none" stroke="black" points="765.5,-268.5 765.5,-298.5 942.5,-298.5 942.5,-268.5 765.5,-268.5"/>
<text text-anchor="start" x="773.5" y="-286.5" font-family="Helvetica,sans-Serif" font-size="10.00">/github/workspace/src</text>
<text text-anchor="middle" x="854" y="-275.5" font-family="Helvetica,sans-Serif" font-size="10.00">/renderer/vulkan/graphicspipeline.cpp</text>
</a>
</g>
</g>
<!-- Node35&#45;&gt;Node36 -->
<g id="edge51" class="edge">
<title>Node35&#45;&gt;Node36</title>
<path fill="none" stroke="midnightblue" d="M778.37,-330.02C795.18,-319.9 815.34,-307.77 830.61,-298.58"/>
<polygon fill="midnightblue" stroke="midnightblue" points="776.2,-327.24 769.43,-335.4 779.81,-333.24 776.2,-327.24"/>
</g>
<!-- Node37&#45;&gt;Node29 -->
<g id="edge54" class="edge">
<title>Node37&#45;&gt;Node29</title>
<path fill="none" stroke="midnightblue" d="M904.18,-441.04C921.35,-468.36 949.76,-513.55 964.12,-536.37"/>
<polygon fill="midnightblue" stroke="midnightblue" points="907.1,-439.13 898.82,-432.52 901.18,-442.85 907.1,-439.13"/>
</g>
<!-- Node37&#45;&gt;Node32 -->
<g id="edge55" class="edge">
<title>Node37&#45;&gt;Node32</title>
<path fill="none" stroke="midnightblue" d="M972.63,-400.52C1027.98,-389.81 1100.19,-375.84 1153.35,-365.55"/>
<polygon fill="midnightblue" stroke="midnightblue" points="971.65,-397.14 962.49,-402.48 972.98,-404.01 971.65,-397.14"/>
</g>
<!-- Node37&#45;&gt;Node34 -->
<g id="edge58" class="edge">
<title>Node37&#45;&gt;Node34</title>
<path fill="none" stroke="midnightblue" d="M891.86,-392.31C894.43,-374.46 900.54,-350.64 915,-335 931.06,-317.64 953.84,-306.15 975.74,-298.59"/>
<polygon fill="midnightblue" stroke="midnightblue" points="888.38,-391.94 890.7,-402.28 895.34,-392.76 888.38,-391.94"/>
</g>
<!-- Node37&#45;&gt;Node35 -->
<g id="edge56" class="edge">
<title>Node37&#45;&gt;Node35</title>
<path fill="none" stroke="midnightblue" d="M849.61,-398.27C826.68,-387.92 798.4,-375.15 777.18,-365.58"/>
<polygon fill="midnightblue" stroke="midnightblue" points="848.2,-401.47 858.75,-402.4 851.08,-395.09 848.2,-401.47"/>
</g>
<!-- Node38 -->
<g id="node38" class="node">
<title>Node38</title>
<g id="a_node38"><a xlink:href="renderpass_8cpp.html" target="_top" xlink:title=" ">
<polygon fill="none" stroke="black" points="923.5,-335.5 923.5,-365.5 1078.5,-365.5 1078.5,-335.5 923.5,-335.5"/>
<text text-anchor="start" x="931.5" y="-353.5" font-family="Helvetica,sans-Serif" font-size="10.00">/github/workspace/src</text>
<text text-anchor="middle" x="1001" y="-342.5" font-family="Helvetica,sans-Serif" font-size="10.00">/renderer/vulkan/renderpass.cpp</text>
</a>
</g>
</g>
<!-- Node37&#45;&gt;Node38 -->
<g id="edge57" class="edge">
<title>Node37&#45;&gt;Node38</title>
<path fill="none" stroke="midnightblue" d="M922.8,-397.3C940.16,-387.12 961.12,-374.85 976.96,-365.58"/>
<polygon fill="midnightblue" stroke="midnightblue" points="920.95,-394.32 914.09,-402.4 924.48,-400.36 920.95,-394.32"/>
</g>
</g>
</svg>
