<?xml version="1.0" encoding="UTF-8" standalone="no"?>
<!DOCTYPE svg PUBLIC "-//W3C//DTD SVG 1.1//EN"
 "http://www.w3.org/Graphics/SVG/1.1/DTD/svg11.dtd">
<!-- Generated by graphviz version 2.49.3 (20211027.1501)
 -->
<!-- Title: /github/workspace/src/renderer/vulkan/buffer.h Pages: 1 -->
<svg width="695pt" height="307pt"
 viewBox="0.00 0.00 694.50 307.00" xmlns="http://www.w3.org/2000/svg" xmlns:xlink="http://www.w3.org/1999/xlink">
<g id="graph0" class="graph" transform="scale(1 1) rotate(0) translate(4 303)">
<title>/github/workspace/src/renderer/vulkan/buffer.h</title>
<!-- Node1 -->
<g id="node1" class="node">
<title>Node1</title>
<g id="a_node1"><a xlink:title=" ">
<polygon fill="#bfbfbf" stroke="black" points="159,-268.5 159,-298.5 280,-298.5 280,-268.5 159,-268.5"/>
<text text-anchor="start" x="167" y="-286.5" font-family="Helvetica,sans-Serif" font-size="10.00">/github/workspace/src</text>
<text text-anchor="middle" x="219.5" y="-275.5" font-family="Helvetica,sans-Serif" font-size="10.00">/renderer/vulkan/buffer.h</text>
</a>
</g>
</g>
<!-- Node2 -->
<g id="node2" class="node">
<title>Node2</title>
<g id="a_node2"><a xlink:href="buffer_8cpp.html" target="_top" xlink:title=" ">
<polygon fill="none" stroke="black" points="0,-201.5 0,-231.5 131,-231.5 131,-201.5 0,-201.5"/>
<text text-anchor="start" x="8" y="-219.5" font-family="Helvetica,sans-Serif" font-size="10.00">/github/workspace/src</text>
<text text-anchor="middle" x="65.5" y="-208.5" font-family="Helvetica,sans-Serif" font-size="10.00">/renderer/vulkan/buffer.cpp</text>
</a>
</g>
</g>
<!-- Node1&#45;&gt;Node2 -->
<g id="edge1" class="edge">
<title>Node1&#45;&gt;Node2</title>
<path fill="none" stroke="midnightblue" d="M176.63,-264.41C152.05,-254.03 121.64,-241.2 98.85,-231.58"/>
<polygon fill="midnightblue" stroke="midnightblue" points="175.51,-267.73 186.08,-268.4 178.23,-261.28 175.51,-267.73"/>
</g>
<!-- Node3 -->
<g id="node3" class="node">
<title>Node3</title>
<g id="a_node3"><a xlink:href="bufferview_8h.html" target="_top" xlink:title=" ">
<polygon fill="none" stroke="black" points="149,-201.5 149,-231.5 290,-231.5 290,-201.5 149,-201.5"/>
<text text-anchor="start" x="157" y="-219.5" font-family="Helvetica,sans-Serif" font-size="10.00">/github/workspace/src</text>
<text text-anchor="middle" x="219.5" y="-208.5" font-family="Helvetica,sans-Serif" font-size="10.00">/renderer/vulkan/bufferview.h</text>
</a>
</g>
</g>
<!-- Node1&#45;&gt;Node3 -->
<g id="edge2" class="edge">
<title>Node1&#45;&gt;Node3</title>
<path fill="none" stroke="midnightblue" d="M219.5,-258.11C219.5,-249.15 219.5,-239.32 219.5,-231.58"/>
<polygon fill="midnightblue" stroke="midnightblue" points="216,-258.4 219.5,-268.4 223,-258.4 216,-258.4"/>
</g>
<!-- Node5 -->
<g id="node5" class="node">
<title>Node5</title>
<g id="a_node5"><a xlink:href="uniformbuffer_8h.html" target="_top" xlink:title=" ">
<polygon fill="none" stroke="black" points="364,-201.5 364,-231.5 517,-231.5 517,-201.5 364,-201.5"/>
<text text-anchor="start" x="372" y="-219.5" font-family="Helvetica,sans-Serif" font-size="10.00">/github/workspace/src</text>
<text text-anchor="middle" x="440.5" y="-208.5" font-family="Helvetica,sans-Serif" font-size="10.00">/renderer/vulkan/uniformbuffer.h</text>
</a>
</g>
</g>
<!-- Node1&#45;&gt;Node5 -->
<g id="edge4" class="edge">
<title>Node1&#45;&gt;Node5</title>
<path fill="none" stroke="midnightblue" d="M277.03,-265.58C312.92,-255.02 358.59,-241.59 392.52,-231.61"/>
<polygon fill="midnightblue" stroke="midnightblue" points="275.79,-262.3 267.18,-268.48 277.76,-269.01 275.79,-262.3"/>
</g>
<!-- Node4 -->
<g id="node4" class="node">
<title>Node4</title>
<g id="a_node4"><a xlink:href="bufferview_8cpp.html" target="_top" xlink:title=" ">
<polygon fill="none" stroke="black" points="140.5,-134.5 140.5,-164.5 292.5,-164.5 292.5,-134.5 140.5,-134.5"/>
<text text-anchor="start" x="148.5" y="-152.5" font-family="Helvetica,sans-Serif" font-size="10.00">/github/workspace/src</text>
<text text-anchor="middle" x="216.5" y="-141.5" font-family="Helvetica,sans-Serif" font-size="10.00">/renderer/vulkan/bufferview.cpp</text>
</a>
</g>
</g>
<!-- Node3&#45;&gt;Node4 -->
<g id="edge3" class="edge">
<title>Node3&#45;&gt;Node4</title>
<path fill="none" stroke="midnightblue" d="M218.39,-191.4C217.97,-182.37 217.51,-172.41 217.15,-164.58"/>
<polygon fill="midnightblue" stroke="midnightblue" points="214.89,-191.57 218.85,-201.4 221.88,-191.25 214.89,-191.57"/>
</g>
<!-- Node6 -->
<g id="node6" class="node">
<title>Node6</title>
<g id="a_node6"><a xlink:href="descriptorset_8h.html" target="_top" xlink:title=" ">
<polygon fill="none" stroke="black" points="311,-134.5 311,-164.5 464,-164.5 464,-134.5 311,-134.5"/>
<text text-anchor="start" x="319" y="-152.5" font-family="Helvetica,sans-Serif" font-size="10.00">/github/workspace/src</text>
<text text-anchor="middle" x="387.5" y="-141.5" font-family="Helvetica,sans-Serif" font-size="10.00">/renderer/vulkan/descriptorset.h</text>
</a>
</g>
</g>
<!-- Node5&#45;&gt;Node6 -->
<g id="edge5" class="edge">
<title>Node5&#45;&gt;Node6</title>
<path fill="none" stroke="midnightblue" d="M422.52,-193.45C414.73,-183.9 405.85,-173 398.98,-164.58"/>
<polygon fill="midnightblue" stroke="midnightblue" points="419.97,-195.86 429,-201.4 425.39,-191.43 419.97,-195.86"/>
</g>
<!-- Node9 -->
<g id="node9" class="node">
<title>Node9</title>
<g id="a_node9"><a xlink:href="vulkan__voxel__rasterizer_8cpp.html" target="_top" xlink:title=" ">
<polygon fill="none" stroke="black" points="359.5,-0.5 359.5,-30.5 523.5,-30.5 523.5,-0.5 359.5,-0.5"/>
<text text-anchor="start" x="367.5" y="-18.5" font-family="Helvetica,sans-Serif" font-size="10.00">/github/workspace/src</text>
<text text-anchor="middle" x="441.5" y="-7.5" font-family="Helvetica,sans-Serif" font-size="10.00">/tests/vulkan_voxel_rasterizer.cpp</text>
</a>
</g>
</g>
<!-- Node5&#45;&gt;Node9 -->
<g id="edge11" class="edge">
<title>Node5&#45;&gt;Node9</title>
<path fill="none" stroke="midnightblue" d="M458.93,-193.09C464.7,-184.78 470.38,-174.94 473.5,-165 486.55,-123.44 488.22,-108.67 475.5,-67 471.36,-53.45 462.24,-40.25 454.49,-30.75"/>
<polygon fill="midnightblue" stroke="midnightblue" points="456.1,-191.02 452.98,-201.15 461.73,-195.18 456.1,-191.02"/>
</g>
<!-- Node11 -->
<g id="node11" class="node">
<title>Node11</title>
<g id="a_node11"><a xlink:href="uniformbuffer_8cpp.html" target="_top" xlink:title=" ">
<polygon fill="none" stroke="black" points="522.5,-134.5 522.5,-164.5 686.5,-164.5 686.5,-134.5 522.5,-134.5"/>
<text text-anchor="start" x="530.5" y="-152.5" font-family="Helvetica,sans-Serif" font-size="10.00">/github/workspace/src</text>
<text text-anchor="middle" x="604.5" y="-141.5" font-family="Helvetica,sans-Serif" font-size="10.00">/renderer/vulkan/uniformbuffer.cpp</text>
</a>
</g>
</g>
<!-- Node5&#45;&gt;Node11 -->
<g id="edge10" class="edge">
<title>Node5&#45;&gt;Node11</title>
<path fill="none" stroke="midnightblue" d="M485.46,-197.68C511.76,-187.26 544.5,-174.28 568.98,-164.58"/>
<polygon fill="midnightblue" stroke="midnightblue" points="484.09,-194.46 476.09,-201.4 486.67,-200.97 484.09,-194.46"/>
</g>
<!-- Node7 -->
<g id="node7" class="node">
<title>Node7</title>
<g id="a_node7"><a xlink:href="commandbuffer_8h.html" target="_top" xlink:title=" ">
<polygon fill="none" stroke="black" points="120.5,-67.5 120.5,-97.5 284.5,-97.5 284.5,-67.5 120.5,-67.5"/>
<text text-anchor="start" x="128.5" y="-85.5" font-family="Helvetica,sans-Serif" font-size="10.00">/github/workspace/src</text>
<text text-anchor="middle" x="202.5" y="-74.5" font-family="Helvetica,sans-Serif" font-size="10.00">/renderer/vulkan/commandbuffer.h</text>
</a>
</g>
</g>
<!-- Node6&#45;&gt;Node7 -->
<g id="edge6" class="edge">
<title>Node6&#45;&gt;Node7</title>
<path fill="none" stroke="midnightblue" d="M337.56,-130.96C307.76,-120.48 270.43,-107.37 242.56,-97.58"/>
<polygon fill="midnightblue" stroke="midnightblue" points="336.76,-134.38 347.36,-134.4 339.08,-127.78 336.76,-134.38"/>
</g>
<!-- Node10 -->
<g id="node10" class="node">
<title>Node10</title>
<g id="a_node10"><a xlink:href="descriptorset_8cpp.html" target="_top" xlink:title=" ">
<polygon fill="none" stroke="black" points="302.5,-67.5 302.5,-97.5 466.5,-97.5 466.5,-67.5 302.5,-67.5"/>
<text text-anchor="start" x="310.5" y="-85.5" font-family="Helvetica,sans-Serif" font-size="10.00">/github/workspace/src</text>
<text text-anchor="middle" x="384.5" y="-74.5" font-family="Helvetica,sans-Serif" font-size="10.00">/renderer/vulkan/descriptorset.cpp</text>
</a>
</g>
</g>
<!-- Node6&#45;&gt;Node10 -->
<g id="edge9" class="edge">
<title>Node6&#45;&gt;Node10</title>
<path fill="none" stroke="midnightblue" d="M386.39,-124.4C385.97,-115.37 385.51,-105.41 385.15,-97.58"/>
<polygon fill="midnightblue" stroke="midnightblue" points="382.89,-124.57 386.85,-134.4 389.88,-124.25 382.89,-124.57"/>
</g>
<!-- Node8 -->
<g id="node8" class="node">
<title>Node8</title>
<g id="a_node8"><a xlink:href="commandbuffer_8cpp.html" target="_top" xlink:title=" ">
<polygon fill="none" stroke="black" points="115.5,-0.5 115.5,-30.5 289.5,-30.5 289.5,-0.5 115.5,-0.5"/>
<text text-anchor="start" x="123.5" y="-18.5" font-family="Helvetica,sans-Serif" font-size="10.00">/github/workspace/src</text>
<text text-anchor="middle" x="202.5" y="-7.5" font-family="Helvetica,sans-Serif" font-size="10.00">/renderer/vulkan/commandbuffer.cpp</text>
</a>
</g>
</g>
<!-- Node7&#45;&gt;Node8 -->
<g id="edge7" class="edge">
<title>Node7&#45;&gt;Node8</title>
<path fill="none" stroke="midnightblue" d="M202.5,-57.11C202.5,-48.15 202.5,-38.32 202.5,-30.58"/>
<polygon fill="midnightblue" stroke="midnightblue" points="199,-57.4 202.5,-67.4 206,-57.4 199,-57.4"/>
</g>
<!-- Node7&#45;&gt;Node9 -->
<g id="edge8" class="edge">
<title>Node7&#45;&gt;Node9</title>
<path fill="none" stroke="midnightblue" d="M263.72,-64.85C302.69,-54.25 352.6,-40.68 389.62,-30.61"/>
<polygon fill="midnightblue" stroke="midnightblue" points="262.8,-61.47 254.07,-67.48 264.63,-68.23 262.8,-61.47"/>
</g>
</g>
</svg>
