<?xml version="1.0" encoding="UTF-8" standalone="no"?>
<!DOCTYPE svg PUBLIC "-//W3C//DTD SVG 1.1//EN"
 "http://www.w3.org/Graphics/SVG/1.1/DTD/svg11.dtd">
<!-- Generated by graphviz version 2.49.3 (20211215.1918)
 -->
<!-- Title: /github/workspace/src/renderer/vulkan/buffer.h Pages: 1 -->
<svg width="1741pt" height="776pt"
 viewBox="0.00 0.00 1741.00 776.00" xmlns="http://www.w3.org/2000/svg" xmlns:xlink="http://www.w3.org/1999/xlink">
<g id="graph0" class="graph" transform="scale(1 1) rotate(0) translate(4 772)">
<title>/github/workspace/src/renderer/vulkan/buffer.h</title>
<!-- Node1 -->
<g id="node1" class="node">
<title>Node1</title>
<g id="a_node1"><a xlink:title=" ">
<polygon fill="#bfbfbf" stroke="black" points="771.5,-737.5 771.5,-767.5 892.5,-767.5 892.5,-737.5 771.5,-737.5"/>
<text text-anchor="start" x="779.5" y="-755.5" font-family="Helvetica,sans-Serif" font-size="10.00">/github/workspace/src</text>
<text text-anchor="middle" x="832" y="-744.5" font-family="Helvetica,sans-Serif" font-size="10.00">/renderer/vulkan/buffer.h</text>
</a>
</g>
</g>
<!-- Node2 -->
<g id="node2" class="node">
<title>Node2</title>
<g id="a_node2"><a xlink:href="dynamicbuffer_8h.html" target="_top" xlink:title=" ">
<polygon fill="none" stroke="black" points="167.5,-670.5 167.5,-700.5 292.5,-700.5 292.5,-670.5 167.5,-670.5"/>
<text text-anchor="start" x="175.5" y="-688.5" font-family="Helvetica,sans-Serif" font-size="10.00">/github/workspace/src</text>
<text text-anchor="middle" x="230" y="-677.5" font-family="Helvetica,sans-Serif" font-size="10.00">/renderer/dynamicbuffer.h</text>
</a>
</g>
</g>
<!-- Node1&#45;&gt;Node2 -->
<g id="edge1" class="edge">
<title>Node1&#45;&gt;Node2</title>
<path fill="none" stroke="midnightblue" d="M761.06,-746.72C659.95,-739.44 468.71,-723.96 307,-701 302.29,-700.33 297.42,-699.57 292.54,-698.76"/>
<polygon fill="midnightblue" stroke="midnightblue" points="760.93,-750.22 771.16,-747.44 761.43,-743.24 760.93,-750.22"/>
</g>
<!-- Node8 -->
<g id="node8" class="node">
<title>Node8</title>
<g id="a_node8"><a xlink:href="buffer_8cpp.html" target="_top" xlink:title=" ">
<polygon fill="none" stroke="black" points="926.5,-670.5 926.5,-700.5 1057.5,-700.5 1057.5,-670.5 926.5,-670.5"/>
<text text-anchor="start" x="934.5" y="-688.5" font-family="Helvetica,sans-Serif" font-size="10.00">/github/workspace/src</text>
<text text-anchor="middle" x="992" y="-677.5" font-family="Helvetica,sans-Serif" font-size="10.00">/renderer/vulkan/buffer.cpp</text>
</a>
</g>
</g>
<!-- Node1&#45;&gt;Node8 -->
<g id="edge7" class="edge">
<title>Node1&#45;&gt;Node8</title>
<path fill="none" stroke="midnightblue" d="M876.2,-733.54C901.8,-723.14 933.57,-710.24 957.35,-700.58"/>
<polygon fill="midnightblue" stroke="midnightblue" points="874.66,-730.39 866.72,-737.4 877.3,-736.87 874.66,-730.39"/>
</g>
<!-- Node9 -->
<g id="node9" class="node">
<title>Node9</title>
<g id="a_node9"><a xlink:href="bufferview_8h.html" target="_top" xlink:title=" ">
<polygon fill="none" stroke="black" points="1355.5,-670.5 1355.5,-700.5 1496.5,-700.5 1496.5,-670.5 1355.5,-670.5"/>
<text text-anchor="start" x="1363.5" y="-688.5" font-family="Helvetica,sans-Serif" font-size="10.00">/github/workspace/src</text>
<text text-anchor="middle" x="1426" y="-677.5" font-family="Helvetica,sans-Serif" font-size="10.00">/renderer/vulkan/bufferview.h</text>
</a>
</g>
</g>
<!-- Node1&#45;&gt;Node9 -->
<g id="edge8" class="edge">
<title>Node1&#45;&gt;Node9</title>
<path fill="none" stroke="midnightblue" d="M902.53,-743.78C1016.72,-731.29 1240.78,-706.77 1355.16,-694.25"/>
<polygon fill="midnightblue" stroke="midnightblue" points="902.06,-740.31 892.5,-744.88 902.82,-747.27 902.06,-740.31"/>
</g>
<!-- Node11 -->
<g id="node11" class="node">
<title>Node11</title>
<g id="a_node11"><a xlink:href="uniformbuffer_8h.html" target="_top" xlink:title=" ">
<polygon fill="none" stroke="black" points="755.5,-670.5 755.5,-700.5 908.5,-700.5 908.5,-670.5 755.5,-670.5"/>
<text text-anchor="start" x="763.5" y="-688.5" font-family="Helvetica,sans-Serif" font-size="10.00">/github/workspace/src</text>
<text text-anchor="middle" x="832" y="-677.5" font-family="Helvetica,sans-Serif" font-size="10.00">/renderer/vulkan/uniformbuffer.h</text>
</a>
</g>
</g>
<!-- Node1&#45;&gt;Node11 -->
<g id="edge10" class="edge">
<title>Node1&#45;&gt;Node11</title>
<path fill="none" stroke="midnightblue" d="M832,-727.11C832,-718.15 832,-708.32 832,-700.58"/>
<polygon fill="midnightblue" stroke="midnightblue" points="828.5,-727.4 832,-737.4 835.5,-727.4 828.5,-727.4"/>
</g>
<!-- Node3 -->
<g id="node3" class="node">
<title>Node3</title>
<g id="a_node3"><a xlink:href="dynamicbuffer_8cpp.html" target="_top" xlink:title=" ">
<polygon fill="none" stroke="black" points="82,-603.5 82,-633.5 218,-633.5 218,-603.5 82,-603.5"/>
<text text-anchor="start" x="90" y="-621.5" font-family="Helvetica,sans-Serif" font-size="10.00">/github/workspace/src</text>
<text text-anchor="middle" x="150" y="-610.5" font-family="Helvetica,sans-Serif" font-size="10.00">/renderer/dynamicbuffer.cpp</text>
</a>
</g>
</g>
<!-- Node2&#45;&gt;Node3 -->
<g id="edge2" class="edge">
<title>Node2&#45;&gt;Node3</title>
<path fill="none" stroke="midnightblue" d="M204.63,-663.88C192.47,-654.01 178.22,-642.43 167.32,-633.58"/>
<polygon fill="midnightblue" stroke="midnightblue" points="202.67,-666.81 212.64,-670.4 207.09,-661.37 202.67,-666.81"/>
</g>
<!-- Node4 -->
<g id="node4" class="node">
<title>Node4</title>
<g id="a_node4"><a xlink:href="scene_8h.html" target="_top" xlink:title=" ">
<polygon fill="none" stroke="black" points="338.5,-67.5 338.5,-97.5 451.5,-97.5 451.5,-67.5 338.5,-67.5"/>
<text text-anchor="start" x="346.5" y="-85.5" font-family="Helvetica,sans-Serif" font-size="10.00">/github/workspace/src</text>
<text text-anchor="middle" x="395" y="-74.5" font-family="Helvetica,sans-Serif" font-size="10.00">/renderer/scene.h</text>
</a>
</g>
</g>
<!-- Node2&#45;&gt;Node4 -->
<g id="edge3" class="edge">
<title>Node2&#45;&gt;Node4</title>
<path fill="none" stroke="midnightblue" d="M234.68,-660.45C239.41,-634.07 246,-590.44 246,-552.5 246,-552.5 246,-552.5 246,-349.5 246,-246.04 272.76,-217.38 334,-134 344.58,-119.59 360.15,-106.8 372.9,-97.69"/>
<polygon fill="midnightblue" stroke="midnightblue" points="231.24,-659.84 232.86,-670.31 238.12,-661.11 231.24,-659.84"/>
</g>
<!-- Node5 -->
<g id="node5" class="node">
<title>Node5</title>
<g id="a_node5"><a xlink:href="scene_8cpp.html" target="_top" xlink:title=" ">
<polygon fill="none" stroke="black" points="338.5,-0.5 338.5,-30.5 451.5,-30.5 451.5,-0.5 338.5,-0.5"/>
<text text-anchor="start" x="346.5" y="-18.5" font-family="Helvetica,sans-Serif" font-size="10.00">/github/workspace/src</text>
<text text-anchor="middle" x="395" y="-7.5" font-family="Helvetica,sans-Serif" font-size="10.00">/renderer/scene.cpp</text>
</a>
</g>
</g>
<!-- Node4&#45;&gt;Node5 -->
<g id="edge4" class="edge">
<title>Node4&#45;&gt;Node5</title>
<path fill="none" stroke="midnightblue" d="M395,-57.11C395,-48.15 395,-38.32 395,-30.58"/>
<polygon fill="midnightblue" stroke="midnightblue" points="391.5,-57.4 395,-67.4 398.5,-57.4 391.5,-57.4"/>
</g>
<!-- Node6 -->
<g id="node6" class="node">
<title>Node6</title>
<g id="a_node6"><a xlink:href="vulkan__voxel__rasterizer__2_8cpp.html" target="_top" xlink:title=" ">
<polygon fill="none" stroke="black" points="470,-0.5 470,-30.5 644,-30.5 644,-0.5 470,-0.5"/>
<text text-anchor="start" x="478" y="-18.5" font-family="Helvetica,sans-Serif" font-size="10.00">/github/workspace/src</text>
<text text-anchor="middle" x="557" y="-7.5" font-family="Helvetica,sans-Serif" font-size="10.00">/tests/vulkan_voxel_rasterizer_2.cpp</text>
</a>
</g>
</g>
<!-- Node4&#45;&gt;Node6 -->
<g id="edge5" class="edge">
<title>Node4&#45;&gt;Node6</title>
<path fill="none" stroke="midnightblue" d="M439.75,-63.54C465.67,-53.14 497.84,-40.24 521.92,-30.58"/>
<polygon fill="midnightblue" stroke="midnightblue" points="438.13,-60.42 430.15,-67.4 440.74,-66.92 438.13,-60.42"/>
</g>
<!-- Node7 -->
<g id="node7" class="node">
<title>Node7</title>
<g id="a_node7"><a xlink:href="vulkan__voxel__rasterizer__3_8cpp.html" target="_top" xlink:title=" ">
<polygon fill="none" stroke="black" points="146,-0.5 146,-30.5 320,-30.5 320,-0.5 146,-0.5"/>
<text text-anchor="start" x="154" y="-18.5" font-family="Helvetica,sans-Serif" font-size="10.00">/github/workspace/src</text>
<text text-anchor="middle" x="233" y="-7.5" font-family="Helvetica,sans-Serif" font-size="10.00">/tests/vulkan_voxel_rasterizer_3.cpp</text>
</a>
</g>
</g>
<!-- Node4&#45;&gt;Node7 -->
<g id="edge6" class="edge">
<title>Node4&#45;&gt;Node7</title>
<path fill="none" stroke="midnightblue" d="M350.25,-63.54C324.33,-53.14 292.16,-40.24 268.08,-30.58"/>
<polygon fill="midnightblue" stroke="midnightblue" points="349.26,-66.92 359.85,-67.4 351.87,-60.42 349.26,-66.92"/>
</g>
<!-- Node10 -->
<g id="node10" class="node">
<title>Node10</title>
<g id="a_node10"><a xlink:href="bufferview_8cpp.html" target="_top" xlink:title=" ">
<polygon fill="none" stroke="black" points="1581,-603.5 1581,-633.5 1733,-633.5 1733,-603.5 1581,-603.5"/>
<text text-anchor="start" x="1589" y="-621.5" font-family="Helvetica,sans-Serif" font-size="10.00">/github/workspace/src</text>
<text text-anchor="middle" x="1657" y="-610.5" font-family="Helvetica,sans-Serif" font-size="10.00">/renderer/vulkan/bufferview.cpp</text>
</a>
</g>
</g>
<!-- Node9&#45;&gt;Node10 -->
<g id="edge9" class="edge">
<title>Node9&#45;&gt;Node10</title>
<path fill="none" stroke="midnightblue" d="M1485.65,-667.71C1523.24,-657.14 1571.23,-643.63 1606.85,-633.61"/>
<polygon fill="midnightblue" stroke="midnightblue" points="1484.52,-664.4 1475.84,-670.48 1486.41,-671.14 1484.52,-664.4"/>
</g>
<!-- Node12 -->
<g id="node12" class="node">
<title>Node12</title>
<g id="a_node12"><a xlink:href="materiallibrary_8h.html" target="_top" xlink:title=" ">
<polygon fill="none" stroke="black" points="506.5,-335.5 506.5,-365.5 631.5,-365.5 631.5,-335.5 506.5,-335.5"/>
<text text-anchor="start" x="514.5" y="-353.5" font-family="Helvetica,sans-Serif" font-size="10.00">/github/workspace/src</text>
<text text-anchor="middle" x="569" y="-342.5" font-family="Helvetica,sans-Serif" font-size="10.00">/renderer/materiallibrary.h</text>
</a>
</g>
</g>
<!-- Node11&#45;&gt;Node12 -->
<g id="edge11" class="edge">
<title>Node11&#45;&gt;Node12</title>
<path fill="none" stroke="midnightblue" d="M745.45,-673.76C628.63,-657.34 429.81,-622.01 384,-567 356.09,-533.49 357.77,-507.09 379,-469 409.4,-414.46 476.71,-382.04 522.48,-365.5"/>
<polygon fill="midnightblue" stroke="midnightblue" points="745.06,-677.23 755.45,-675.14 746.02,-670.3 745.06,-677.23"/>
</g>
<!-- Node24 -->
<g id="node24" class="node">
<title>Node24</title>
<g id="a_node24"><a xlink:href="descriptorset_8h.html" target="_top" xlink:title=" ">
<polygon fill="none" stroke="black" points="755.5,-603.5 755.5,-633.5 908.5,-633.5 908.5,-603.5 755.5,-603.5"/>
<text text-anchor="start" x="763.5" y="-621.5" font-family="Helvetica,sans-Serif" font-size="10.00">/github/workspace/src</text>
<text text-anchor="middle" x="832" y="-610.5" font-family="Helvetica,sans-Serif" font-size="10.00">/renderer/vulkan/descriptorset.h</text>
</a>
</g>
</g>
<!-- Node11&#45;&gt;Node24 -->
<g id="edge31" class="edge">
<title>Node11&#45;&gt;Node24</title>
<path fill="none" stroke="midnightblue" d="M832,-660.11C832,-651.15 832,-641.32 832,-633.58"/>
<polygon fill="midnightblue" stroke="midnightblue" points="828.5,-660.4 832,-670.4 835.5,-660.4 828.5,-660.4"/>
</g>
<!-- Node32 -->
<g id="node32" class="node">
<title>Node32</title>
<g id="a_node32"><a xlink:href="vulkan__voxel__rasterizer_8cpp.html" target="_top" xlink:title=" ">
<polygon fill="none" stroke="black" points="1049,-268.5 1049,-298.5 1213,-298.5 1213,-268.5 1049,-268.5"/>
<text text-anchor="start" x="1057" y="-286.5" font-family="Helvetica,sans-Serif" font-size="10.00">/github/workspace/src</text>
<text text-anchor="middle" x="1131" y="-275.5" font-family="Helvetica,sans-Serif" font-size="10.00">/tests/vulkan_voxel_rasterizer.cpp</text>
</a>
</g>
</g>
<!-- Node11&#45;&gt;Node32 -->
<g id="edge63" class="edge">
<title>Node11&#45;&gt;Node32</title>
<path fill="none" stroke="midnightblue" d="M914.86,-668.48C1065.99,-638.69 1371,-575.69 1371,-552.5 1371,-552.5 1371,-552.5 1371,-416.5 1371,-376.15 1362.35,-360.4 1331,-335 1312.6,-320.09 1259.84,-307.11 1213.12,-298.04"/>
<polygon fill="midnightblue" stroke="midnightblue" points="913.83,-665.11 904.69,-670.48 915.18,-671.98 913.83,-665.11"/>
</g>
<!-- Node39 -->
<g id="node39" class="node">
<title>Node39</title>
<g id="a_node39"><a xlink:href="uniformbuffer_8cpp.html" target="_top" xlink:title=" ">
<polygon fill="none" stroke="black" points="1399,-603.5 1399,-633.5 1563,-633.5 1563,-603.5 1399,-603.5"/>
<text text-anchor="start" x="1407" y="-621.5" font-family="Helvetica,sans-Serif" font-size="10.00">/github/workspace/src</text>
<text text-anchor="middle" x="1481" y="-610.5" font-family="Helvetica,sans-Serif" font-size="10.00">/renderer/vulkan/uniformbuffer.cpp</text>
</a>
</g>
</g>
<!-- Node11&#45;&gt;Node39 -->
<g id="edge62" class="edge">
<title>Node11&#45;&gt;Node39</title>
<path fill="none" stroke="midnightblue" d="M918.83,-669.84C1125.76,-644.83 1180.96,-657.23 1385,-634 1389.52,-633.49 1394.16,-632.92 1398.83,-632.31"/>
<polygon fill="midnightblue" stroke="midnightblue" points="918.37,-666.37 908.86,-671.06 919.22,-673.32 918.37,-666.37"/>
</g>
<!-- Node13 -->
<g id="node13" class="node">
<title>Node13</title>
<g id="a_node13"><a xlink:href="material_8h.html" target="_top" xlink:title=" ">
<polygon fill="none" stroke="black" points="512.5,-268.5 512.5,-298.5 625.5,-298.5 625.5,-268.5 512.5,-268.5"/>
<text text-anchor="start" x="520.5" y="-286.5" font-family="Helvetica,sans-Serif" font-size="10.00">/github/workspace/src</text>
<text text-anchor="middle" x="569" y="-275.5" font-family="Helvetica,sans-Serif" font-size="10.00">/renderer/material.h</text>
</a>
</g>
</g>
<!-- Node12&#45;&gt;Node13 -->
<g id="edge12" class="edge">
<title>Node12&#45;&gt;Node13</title>
<path fill="none" stroke="midnightblue" d="M562.45,-325.4C562.01,-316.37 562.3,-306.41 563.33,-298.58"/>
<polygon fill="midnightblue" stroke="midnightblue" points="558.97,-325.74 563.32,-335.4 565.94,-325.13 558.97,-325.74"/>
</g>
<!-- Node23 -->
<g id="node23" class="node">
<title>Node23</title>
<g id="a_node23"><a xlink:href="materiallibrary_8cpp.html" target="_top" xlink:title=" ">
<polygon fill="none" stroke="black" points="358,-268.5 358,-298.5 494,-298.5 494,-268.5 358,-268.5"/>
<text text-anchor="start" x="366" y="-286.5" font-family="Helvetica,sans-Serif" font-size="10.00">/github/workspace/src</text>
<text text-anchor="middle" x="426" y="-275.5" font-family="Helvetica,sans-Serif" font-size="10.00">/renderer/materiallibrary.cpp</text>
</a>
</g>
</g>
<!-- Node12&#45;&gt;Node23 -->
<g id="edge30" class="edge">
<title>Node12&#45;&gt;Node23</title>
<path fill="none" stroke="midnightblue" d="M528.59,-331.13C505.87,-320.8 477.94,-308.11 456.97,-298.58"/>
<polygon fill="midnightblue" stroke="midnightblue" points="527.42,-334.44 537.97,-335.4 530.32,-328.07 527.42,-334.44"/>
</g>
<!-- Node13&#45;&gt;Node12 -->
<g id="edge18" class="edge">
<title>Node13&#45;&gt;Node12</title>
<path fill="none" stroke="midnightblue" d="M575.54,-308.57C575.99,-317.6 575.71,-327.56 574.68,-335.4"/>
<polygon fill="midnightblue" stroke="midnightblue" points="579.03,-308.24 574.67,-298.58 572.05,-308.84 579.03,-308.24"/>
</g>
<!-- Node14 -->
<g id="node14" class="node">
<title>Node14</title>
<g id="a_node14"><a xlink:href="mastermaterial_8h.html" target="_top" xlink:title=" ">
<polygon fill="none" stroke="black" points="628,-67.5 628,-97.5 758,-97.5 758,-67.5 628,-67.5"/>
<text text-anchor="start" x="636" y="-85.5" font-family="Helvetica,sans-Serif" font-size="10.00">/github/workspace/src</text>
<text text-anchor="middle" x="693" y="-74.5" font-family="Helvetica,sans-Serif" font-size="10.00">/renderer/mastermaterial.h</text>
</a>
</g>
</g>
<!-- Node13&#45;&gt;Node14 -->
<g id="edge13" class="edge">
<title>Node13&#45;&gt;Node14</title>
<path fill="none" stroke="midnightblue" d="M603.08,-263.28C616.2,-255.31 630.25,-244.88 640,-232 671.64,-190.19 680.61,-125.91 687.06,-97.65"/>
<polygon fill="midnightblue" stroke="midnightblue" points="601.13,-260.37 594.22,-268.4 604.63,-266.43 601.13,-260.37"/>
</g>
<!-- Node16 -->
<g id="node16" class="node">
<title>Node16</title>
<g id="a_node16"><a xlink:href="material_8cpp.html" target="_top" xlink:title=" ">
<polygon fill="none" stroke="black" points="527.5,-201.5 527.5,-231.5 640.5,-231.5 640.5,-201.5 527.5,-201.5"/>
<text text-anchor="start" x="535.5" y="-219.5" font-family="Helvetica,sans-Serif" font-size="10.00">/github/workspace/src</text>
<text text-anchor="middle" x="584" y="-208.5" font-family="Helvetica,sans-Serif" font-size="10.00">/renderer/material.cpp</text>
</a>
</g>
</g>
<!-- Node13&#45;&gt;Node16 -->
<g id="edge17" class="edge">
<title>Node13&#45;&gt;Node16</title>
<path fill="none" stroke="midnightblue" d="M574.56,-258.4C576.65,-249.37 578.94,-239.41 580.75,-231.58"/>
<polygon fill="midnightblue" stroke="midnightblue" points="571.09,-257.87 572.25,-268.4 577.91,-259.44 571.09,-257.87"/>
</g>
<!-- Node17 -->
<g id="node17" class="node">
<title>Node17</title>
<g id="a_node17"><a xlink:href="mesh_8h.html" target="_top" xlink:title=" ">
<polygon fill="none" stroke="black" points="396.5,-201.5 396.5,-231.5 509.5,-231.5 509.5,-201.5 396.5,-201.5"/>
<text text-anchor="start" x="404.5" y="-219.5" font-family="Helvetica,sans-Serif" font-size="10.00">/github/workspace/src</text>
<text text-anchor="middle" x="453" y="-208.5" font-family="Helvetica,sans-Serif" font-size="10.00">/renderer/mesh.h</text>
</a>
</g>
</g>
<!-- Node13&#45;&gt;Node17 -->
<g id="edge19" class="edge">
<title>Node13&#45;&gt;Node17</title>
<path fill="none" stroke="midnightblue" d="M534.73,-263.3C516.58,-253.12 494.68,-240.85 478.12,-231.58"/>
<polygon fill="midnightblue" stroke="midnightblue" points="533.4,-266.56 543.83,-268.4 536.82,-260.45 533.4,-266.56"/>
</g>
<!-- Node14&#45;&gt;Node12 -->
<g id="edge16" class="edge">
<title>Node14&#45;&gt;Node12</title>
<path fill="none" stroke="midnightblue" d="M701.11,-107.62C703.51,-115.88 705.81,-125.25 707,-134 713.06,-178.54 703.13,-192.33 682,-232 664.78,-264.33 659.39,-272.6 634,-299 620.73,-312.8 603.54,-325.99 590.17,-335.43"/>
<polygon fill="midnightblue" stroke="midnightblue" points="704.4,-106.39 698.1,-97.87 697.71,-108.46 704.4,-106.39"/>
</g>
<!-- Node14&#45;&gt;Node13 -->
<g id="edge15" class="edge">
<title>Node14&#45;&gt;Node13</title>
<path fill="none" stroke="midnightblue" d="M697.22,-107.73C696.47,-139.22 686.31,-194.6 658,-232 646.01,-247.85 627.48,-260 610.32,-268.4"/>
<polygon fill="midnightblue" stroke="midnightblue" points="700.72,-107.62 697.11,-97.65 693.72,-107.69 700.72,-107.62"/>
</g>
<!-- Node15 -->
<g id="node15" class="node">
<title>Node15</title>
<g id="a_node15"><a xlink:href="mastermaterial_8cpp.html" target="_top" xlink:title=" ">
<polygon fill="none" stroke="black" points="662,-0.5 662,-30.5 802,-30.5 802,-0.5 662,-0.5"/>
<text text-anchor="start" x="670" y="-18.5" font-family="Helvetica,sans-Serif" font-size="10.00">/github/workspace/src</text>
<text text-anchor="middle" x="732" y="-7.5" font-family="Helvetica,sans-Serif" font-size="10.00">/renderer/mastermaterial.cpp</text>
</a>
</g>
</g>
<!-- Node14&#45;&gt;Node15 -->
<g id="edge14" class="edge">
<title>Node14&#45;&gt;Node15</title>
<path fill="none" stroke="midnightblue" d="M706.75,-58.58C712.36,-49.24 718.65,-38.75 723.55,-30.58"/>
<polygon fill="midnightblue" stroke="midnightblue" points="703.61,-57.02 701.46,-67.4 709.61,-60.62 703.61,-57.02"/>
</g>
<!-- Node17&#45;&gt;Node14 -->
<g id="edge20" class="edge">
<title>Node17&#45;&gt;Node14</title>
<path fill="none" stroke="midnightblue" d="M519.46,-200.4C560.34,-190.29 608.21,-176.74 626,-165 652.75,-147.34 674.24,-115.74 685.16,-97.51"/>
<polygon fill="midnightblue" stroke="midnightblue" points="518.39,-197.06 509.51,-202.83 520.05,-203.86 518.39,-197.06"/>
</g>
<!-- Node18 -->
<g id="node18" class="node">
<title>Node18</title>
<g id="a_node18"><a xlink:href="mesh_8cpp.html" target="_top" xlink:title=" ">
<polygon fill="none" stroke="black" points="504.5,-134.5 504.5,-164.5 617.5,-164.5 617.5,-134.5 504.5,-134.5"/>
<text text-anchor="start" x="512.5" y="-152.5" font-family="Helvetica,sans-Serif" font-size="10.00">/github/workspace/src</text>
<text text-anchor="middle" x="561" y="-141.5" font-family="Helvetica,sans-Serif" font-size="10.00">/renderer/mesh.cpp</text>
</a>
</g>
</g>
<!-- Node17&#45;&gt;Node18 -->
<g id="edge21" class="edge">
<title>Node17&#45;&gt;Node18</title>
<path fill="none" stroke="midnightblue" d="M485.37,-196.02C502.18,-185.9 522.34,-173.77 537.61,-164.58"/>
<polygon fill="midnightblue" stroke="midnightblue" points="483.2,-193.24 476.43,-201.4 486.81,-199.24 483.2,-193.24"/>
</g>
<!-- Node19 -->
<g id="node19" class="node">
<title>Node19</title>
<g id="a_node19"><a xlink:href="modelloader_8h.html" target="_top" xlink:title=" ">
<polygon fill="none" stroke="black" points="202,-67.5 202,-97.5 320,-97.5 320,-67.5 202,-67.5"/>
<text text-anchor="start" x="210" y="-85.5" font-family="Helvetica,sans-Serif" font-size="10.00">/github/workspace/src</text>
<text text-anchor="middle" x="261" y="-74.5" font-family="Helvetica,sans-Serif" font-size="10.00">/renderer/modelloader.h</text>
</a>
</g>
</g>
<!-- Node17&#45;&gt;Node19 -->
<g id="edge22" class="edge">
<title>Node17&#45;&gt;Node19</title>
<path fill="none" stroke="midnightblue" d="M408.07,-197.2C389.13,-188.61 367.29,-177.5 349,-165 319.43,-144.79 289.87,-114.95 273.66,-97.54"/>
<polygon fill="midnightblue" stroke="midnightblue" points="406.83,-200.48 417.39,-201.33 409.67,-194.08 406.83,-200.48"/>
</g>
<!-- Node21 -->
<g id="node21" class="node">
<title>Node21</title>
<g id="a_node21"><a xlink:href="objectinstance_8h.html" target="_top" xlink:title=" ">
<polygon fill="none" stroke="black" points="358,-134.5 358,-164.5 486,-164.5 486,-134.5 358,-134.5"/>
<text text-anchor="start" x="366" y="-152.5" font-family="Helvetica,sans-Serif" font-size="10.00">/github/workspace/src</text>
<text text-anchor="middle" x="422" y="-141.5" font-family="Helvetica,sans-Serif" font-size="10.00">/renderer/objectinstance.h</text>
</a>
</g>
</g>
<!-- Node17&#45;&gt;Node21 -->
<g id="edge26" class="edge">
<title>Node17&#45;&gt;Node21</title>
<path fill="none" stroke="midnightblue" d="M441.93,-192.28C437.51,-183.02 432.57,-172.66 428.71,-164.58"/>
<polygon fill="midnightblue" stroke="midnightblue" points="438.81,-193.88 446.27,-201.4 445.13,-190.86 438.81,-193.88"/>
</g>
<!-- Node19&#45;&gt;Node6 -->
<g id="edge24" class="edge">
<title>Node19&#45;&gt;Node6</title>
<path fill="none" stroke="midnightblue" d="M330.12,-66.32C379.34,-55.51 445.02,-41.09 493.04,-30.54"/>
<polygon fill="midnightblue" stroke="midnightblue" points="329.21,-62.94 320.19,-68.5 330.71,-69.78 329.21,-62.94"/>
</g>
<!-- Node19&#45;&gt;Node7 -->
<g id="edge25" class="edge">
<title>Node19&#45;&gt;Node7</title>
<path fill="none" stroke="midnightblue" d="M250.87,-57.99C246.92,-48.8 242.51,-38.58 239.06,-30.58"/>
<polygon fill="midnightblue" stroke="midnightblue" points="247.75,-59.6 254.92,-67.4 254.18,-56.83 247.75,-59.6"/>
</g>
<!-- Node20 -->
<g id="node20" class="node">
<title>Node20</title>
<g id="a_node20"><a xlink:href="modelloader_8cpp.html" target="_top" xlink:title=" ">
<polygon fill="none" stroke="black" points="0,-0.5 0,-30.5 128,-30.5 128,-0.5 0,-0.5"/>
<text text-anchor="start" x="8" y="-18.5" font-family="Helvetica,sans-Serif" font-size="10.00">/github/workspace/src</text>
<text text-anchor="middle" x="64" y="-7.5" font-family="Helvetica,sans-Serif" font-size="10.00">/renderer/modelloader.cpp</text>
</a>
</g>
</g>
<!-- Node19&#45;&gt;Node20 -->
<g id="edge23" class="edge">
<title>Node19&#45;&gt;Node20</title>
<path fill="none" stroke="midnightblue" d="M208.65,-64.23C176.78,-53.71 136.59,-40.45 106.66,-30.58"/>
<polygon fill="midnightblue" stroke="midnightblue" points="207.66,-67.59 218.25,-67.4 209.85,-60.94 207.66,-67.59"/>
</g>
<!-- Node21&#45;&gt;Node4 -->
<g id="edge29" class="edge">
<title>Node21&#45;&gt;Node4</title>
<path fill="none" stroke="midnightblue" d="M412.23,-124.99C408.42,-115.8 404.17,-105.58 400.85,-97.58"/>
<polygon fill="midnightblue" stroke="midnightblue" points="409.07,-126.5 416.14,-134.4 415.54,-123.82 409.07,-126.5"/>
</g>
<!-- Node21&#45;&gt;Node14 -->
<g id="edge27" class="edge">
<title>Node21&#45;&gt;Node14</title>
<path fill="none" stroke="midnightblue" d="M490.3,-132.12C534.64,-121.48 591.84,-107.76 634.17,-97.61"/>
<polygon fill="midnightblue" stroke="midnightblue" points="489.38,-128.74 480.47,-134.48 491.01,-135.55 489.38,-128.74"/>
</g>
<!-- Node22 -->
<g id="node22" class="node">
<title>Node22</title>
<g id="a_node22"><a xlink:href="objectinstance_8cpp.html" target="_top" xlink:title=" ">
<polygon fill="none" stroke="black" points="469.5,-67.5 469.5,-97.5 608.5,-97.5 608.5,-67.5 469.5,-67.5"/>
<text text-anchor="start" x="477.5" y="-85.5" font-family="Helvetica,sans-Serif" font-size="10.00">/github/workspace/src</text>
<text text-anchor="middle" x="539" y="-74.5" font-family="Helvetica,sans-Serif" font-size="10.00">/renderer/objectinstance.cpp</text>
</a>
</g>
</g>
<!-- Node21&#45;&gt;Node22 -->
<g id="edge28" class="edge">
<title>Node21&#45;&gt;Node22</title>
<path fill="none" stroke="midnightblue" d="M456.32,-129.44C474.67,-119.24 496.88,-106.9 513.66,-97.58"/>
<polygon fill="midnightblue" stroke="midnightblue" points="454.43,-126.48 447.39,-134.4 457.83,-132.6 454.43,-126.48"/>
</g>
<!-- Node25 -->
<g id="node25" class="node">
<title>Node25</title>
<g id="a_node25"><a xlink:href="descriptorpoolmanager_8h.html" target="_top" xlink:title=" ">
<polygon fill="none" stroke="black" points="393,-536.5 393,-566.5 557,-566.5 557,-536.5 393,-536.5"/>
<text text-anchor="start" x="401" y="-554.5" font-family="Helvetica,sans-Serif" font-size="10.00">/github/workspace/src</text>
<text text-anchor="middle" x="475" y="-543.5" font-family="Helvetica,sans-Serif" font-size="10.00">/renderer/descriptorpoolmanager.h</text>
</a>
</g>
</g>
<!-- Node24&#45;&gt;Node25 -->
<g id="edge32" class="edge">
<title>Node24&#45;&gt;Node25</title>
<path fill="none" stroke="midnightblue" d="M745.37,-601.73C686.36,-590.98 608.94,-576.89 552.07,-566.53"/>
<polygon fill="midnightblue" stroke="midnightblue" points="744.95,-605.21 755.41,-603.56 746.2,-598.32 744.95,-605.21"/>
</g>
<!-- Node27 -->
<g id="node27" class="node">
<title>Node27</title>
<g id="a_node27"><a xlink:href="commandbuffer_8h.html" target="_top" xlink:title=" ">
<polygon fill="none" stroke="black" points="750,-536.5 750,-566.5 914,-566.5 914,-536.5 750,-536.5"/>
<text text-anchor="start" x="758" y="-554.5" font-family="Helvetica,sans-Serif" font-size="10.00">/github/workspace/src</text>
<text text-anchor="middle" x="832" y="-543.5" font-family="Helvetica,sans-Serif" font-size="10.00">/renderer/vulkan/commandbuffer.h</text>
</a>
</g>
</g>
<!-- Node24&#45;&gt;Node27 -->
<g id="edge35" class="edge">
<title>Node24&#45;&gt;Node27</title>
<path fill="none" stroke="midnightblue" d="M832,-593.11C832,-584.15 832,-574.32 832,-566.58"/>
<polygon fill="midnightblue" stroke="midnightblue" points="828.5,-593.4 832,-603.4 835.5,-593.4 828.5,-593.4"/>
</g>
<!-- Node38 -->
<g id="node38" class="node">
<title>Node38</title>
<g id="a_node38"><a xlink:href="descriptorset_8cpp.html" target="_top" xlink:title=" ">
<polygon fill="none" stroke="black" points="932,-536.5 932,-566.5 1096,-566.5 1096,-536.5 932,-536.5"/>
<text text-anchor="start" x="940" y="-554.5" font-family="Helvetica,sans-Serif" font-size="10.00">/github/workspace/src</text>
<text text-anchor="middle" x="1014" y="-543.5" font-family="Helvetica,sans-Serif" font-size="10.00">/renderer/vulkan/descriptorset.cpp</text>
</a>
</g>
</g>
<!-- Node24&#45;&gt;Node38 -->
<g id="edge61" class="edge">
<title>Node24&#45;&gt;Node38</title>
<path fill="none" stroke="midnightblue" d="M881.13,-599.96C910.44,-589.48 947.18,-576.37 974.59,-566.58"/>
<polygon fill="midnightblue" stroke="midnightblue" points="879.73,-596.74 871.49,-603.4 882.09,-603.33 879.73,-596.74"/>
</g>
<!-- Node25&#45;&gt;Node4 -->
<g id="edge34" class="edge">
<title>Node25&#45;&gt;Node4</title>
<path fill="none" stroke="midnightblue" d="M419.18,-532.05C403.95,-524.42 388.93,-513.99 379,-500 284.52,-366.91 290.07,-286.2 349,-134 354.57,-119.62 366.34,-106.82 376.58,-97.71"/>
<polygon fill="midnightblue" stroke="midnightblue" points="418.1,-535.4 428.64,-536.44 421.05,-529.05 418.1,-535.4"/>
</g>
<!-- Node26 -->
<g id="node26" class="node">
<title>Node26</title>
<g id="a_node26"><a xlink:href="descriptorpoolmanager_8cpp.html" target="_top" xlink:title=" ">
<polygon fill="none" stroke="black" points="388,-469.5 388,-499.5 562,-499.5 562,-469.5 388,-469.5"/>
<text text-anchor="start" x="396" y="-487.5" font-family="Helvetica,sans-Serif" font-size="10.00">/github/workspace/src</text>
<text text-anchor="middle" x="475" y="-476.5" font-family="Helvetica,sans-Serif" font-size="10.00">/renderer/descriptorpoolmanager.cpp</text>
</a>
</g>
</g>
<!-- Node25&#45;&gt;Node26 -->
<g id="edge33" class="edge">
<title>Node25&#45;&gt;Node26</title>
<path fill="none" stroke="midnightblue" d="M475,-526.11C475,-517.15 475,-507.32 475,-499.58"/>
<polygon fill="midnightblue" stroke="midnightblue" points="471.5,-526.4 475,-536.4 478.5,-526.4 471.5,-526.4"/>
</g>
<!-- Node27&#45;&gt;Node1 -->
<g id="edge36" class="edge">
<title>Node27&#45;&gt;Node1</title>
<path fill="none" stroke="midnightblue" d="M780.65,-571.34C766.97,-578.98 753.83,-589.32 746,-603 724.36,-640.8 724.36,-663.2 746,-701 755.55,-717.68 772.98,-729.39 789.67,-737.3"/>
<polygon fill="midnightblue" stroke="midnightblue" points="782.38,-574.39 789.67,-566.7 779.18,-568.16 782.38,-574.39"/>
</g>
<!-- Node28 -->
<g id="node28" class="node">
<title>Node28</title>
<g id="a_node28"><a xlink:href="commandbuffer_8cpp.html" target="_top" xlink:title=" ">
<polygon fill="none" stroke="black" points="580,-469.5 580,-499.5 754,-499.5 754,-469.5 580,-469.5"/>
<text text-anchor="start" x="588" y="-487.5" font-family="Helvetica,sans-Serif" font-size="10.00">/github/workspace/src</text>
<text text-anchor="middle" x="667" y="-476.5" font-family="Helvetica,sans-Serif" font-size="10.00">/renderer/vulkan/commandbuffer.cpp</text>
</a>
</g>
</g>
<!-- Node27&#45;&gt;Node28 -->
<g id="edge37" class="edge">
<title>Node27&#45;&gt;Node28</title>
<path fill="none" stroke="midnightblue" d="M786.77,-532.68C760.31,-522.26 727.37,-509.28 702.73,-499.58"/>
<polygon fill="midnightblue" stroke="midnightblue" points="785.61,-535.99 796.2,-536.4 788.18,-529.47 785.61,-535.99"/>
</g>
<!-- Node29 -->
<g id="node29" class="node">
<title>Node29</title>
<g id="a_node29"><a xlink:href="swapchain_8h.html" target="_top" xlink:title=" ">
<polygon fill="none" stroke="black" points="810.5,-469.5 810.5,-499.5 953.5,-499.5 953.5,-469.5 810.5,-469.5"/>
<text text-anchor="start" x="818.5" y="-487.5" font-family="Helvetica,sans-Serif" font-size="10.00">/github/workspace/src</text>
<text text-anchor="middle" x="882" y="-476.5" font-family="Helvetica,sans-Serif" font-size="10.00">/renderer/vulkan/swapchain.h</text>
</a>
</g>
</g>
<!-- Node27&#45;&gt;Node29 -->
<g id="edge38" class="edge">
<title>Node27&#45;&gt;Node29</title>
<path fill="none" stroke="midnightblue" d="M848.96,-528.45C856.31,-518.9 864.69,-508 871.17,-499.58"/>
<polygon fill="midnightblue" stroke="midnightblue" points="846.17,-526.34 842.85,-536.4 851.72,-530.6 846.17,-526.34"/>
</g>
<!-- Node27&#45;&gt;Node32 -->
<g id="edge60" class="edge">
<title>Node27&#45;&gt;Node32</title>
<path fill="none" stroke="midnightblue" d="M921.04,-534.62C977.37,-524.03 1044.57,-510.22 1072,-500 1187.21,-457.09 1251.58,-471.92 1314,-366 1321,-354.13 1322.35,-345.96 1314,-335 1301.27,-318.28 1255.83,-305.69 1213.42,-297.26"/>
<polygon fill="midnightblue" stroke="midnightblue" points="920.21,-531.22 911.02,-536.49 921.49,-538.1 920.21,-531.22"/>
</g>
<!-- Node29&#45;&gt;Node6 -->
<g id="edge58" class="edge">
<title>Node29&#45;&gt;Node6</title>
<path fill="none" stroke="midnightblue" d="M885.88,-459.08C896.28,-393.62 924,-219.02 924,-217.5 924,-217.5 924,-217.5 924,-148.5 924,-89.34 752.99,-49.44 644.44,-30.07"/>
<polygon fill="midnightblue" stroke="midnightblue" points="882.37,-458.87 884.26,-469.29 889.28,-459.97 882.37,-458.87"/>
</g>
<!-- Node29&#45;&gt;Node7 -->
<g id="edge59" class="edge">
<title>Node29&#45;&gt;Node7</title>
<path fill="none" stroke="midnightblue" d="M800.46,-468.71C756.14,-459.89 700.6,-447.58 652,-433 492.85,-385.27 428.1,-408.35 303,-299 226.33,-231.98 218.23,-196.66 193,-98 189.59,-84.65 188.47,-80.01 193,-67 197.85,-53.06 208.34,-40.07 217.35,-30.75"/>
<polygon fill="midnightblue" stroke="midnightblue" points="799.83,-472.15 810.32,-470.65 801.18,-465.28 799.83,-472.15"/>
</g>
<!-- Node30 -->
<g id="node30" class="node">
<title>Node30</title>
<g id="a_node30"><a xlink:href="framebuffer_8h.html" target="_top" xlink:title=" ">
<polygon fill="none" stroke="black" points="1159,-335.5 1159,-365.5 1305,-365.5 1305,-335.5 1159,-335.5"/>
<text text-anchor="start" x="1167" y="-353.5" font-family="Helvetica,sans-Serif" font-size="10.00">/github/workspace/src</text>
<text text-anchor="middle" x="1232" y="-342.5" font-family="Helvetica,sans-Serif" font-size="10.00">/renderer/vulkan/framebuffer.h</text>
</a>
</g>
</g>
<!-- Node29&#45;&gt;Node30 -->
<g id="edge39" class="edge">
<title>Node29&#45;&gt;Node30</title>
<path fill="none" stroke="midnightblue" d="M963.47,-470.35C1003.98,-462.48 1053.04,-450.51 1095,-433 1137.3,-415.35 1181.23,-384.04 1207.86,-365.8"/>
<polygon fill="midnightblue" stroke="midnightblue" points="962.81,-466.91 953.64,-472.22 964.11,-473.79 962.81,-466.91"/>
</g>
<!-- Node29&#45;&gt;Node32 -->
<g id="edge57" class="edge">
<title>Node29&#45;&gt;Node32</title>
<path fill="none" stroke="midnightblue" d="M888.2,-459.36C898.3,-421.83 919.08,-352.03 938,-335 968.11,-307.88 1011.02,-295.01 1048.73,-289.01"/>
<polygon fill="midnightblue" stroke="midnightblue" points="884.71,-458.88 885.53,-469.45 891.47,-460.67 884.71,-458.88"/>
</g>
<!-- Node33 -->
<g id="node33" class="node">
<title>Node33</title>
<g id="a_node33"><a xlink:href="graphicspipeline_8h.html" target="_top" xlink:title=" ">
<polygon fill="none" stroke="black" points="686.5,-335.5 686.5,-365.5 853.5,-365.5 853.5,-335.5 686.5,-335.5"/>
<text text-anchor="start" x="694.5" y="-353.5" font-family="Helvetica,sans-Serif" font-size="10.00">/github/workspace/src</text>
<text text-anchor="middle" x="770" y="-342.5" font-family="Helvetica,sans-Serif" font-size="10.00">/renderer/vulkan/graphicspipeline.h</text>
</a>
</g>
</g>
<!-- Node29&#45;&gt;Node33 -->
<g id="edge44" class="edge">
<title>Node29&#45;&gt;Node33</title>
<path fill="none" stroke="midnightblue" d="M867.54,-460.66C856.44,-443.8 840.3,-420.64 824,-402 812.51,-388.86 797.98,-375.43 786.9,-365.72"/>
<polygon fill="midnightblue" stroke="midnightblue" points="864.77,-462.83 873.15,-469.31 870.64,-459.02 864.77,-462.83"/>
</g>
<!-- Node35 -->
<g id="node35" class="node">
<title>Node35</title>
<g id="a_node35"><a xlink:href="renderpass_8h.html" target="_top" xlink:title=" ">
<polygon fill="none" stroke="black" points="950.5,-402.5 950.5,-432.5 1095.5,-432.5 1095.5,-402.5 950.5,-402.5"/>
<text text-anchor="start" x="958.5" y="-420.5" font-family="Helvetica,sans-Serif" font-size="10.00">/github/workspace/src</text>
<text text-anchor="middle" x="1023" y="-409.5" font-family="Helvetica,sans-Serif" font-size="10.00">/renderer/vulkan/renderpass.h</text>
</a>
</g>
</g>
<!-- Node29&#45;&gt;Node35 -->
<g id="edge50" class="edge">
<title>Node29&#45;&gt;Node35</title>
<path fill="none" stroke="midnightblue" d="M921.85,-465.13C944.25,-454.8 971.78,-442.11 992.46,-432.58"/>
<polygon fill="midnightblue" stroke="midnightblue" points="920.21,-462.03 912.59,-469.4 923.14,-468.39 920.21,-462.03"/>
</g>
<!-- Node37 -->
<g id="node37" class="node">
<title>Node37</title>
<g id="a_node37"><a xlink:href="swapchain_8cpp.html" target="_top" xlink:title=" ">
<polygon fill="none" stroke="black" points="661,-402.5 661,-432.5 815,-432.5 815,-402.5 661,-402.5"/>
<text text-anchor="start" x="669" y="-420.5" font-family="Helvetica,sans-Serif" font-size="10.00">/github/workspace/src</text>
<text text-anchor="middle" x="738" y="-409.5" font-family="Helvetica,sans-Serif" font-size="10.00">/renderer/vulkan/swapchain.cpp</text>
</a>
</g>
</g>
<!-- Node29&#45;&gt;Node37 -->
<g id="edge56" class="edge">
<title>Node29&#45;&gt;Node37</title>
<path fill="none" stroke="midnightblue" d="M841.61,-465.27C818.68,-454.92 790.4,-442.15 769.18,-432.58"/>
<polygon fill="midnightblue" stroke="midnightblue" points="840.2,-468.47 850.75,-469.4 843.08,-462.09 840.2,-468.47"/>
</g>
<!-- Node30&#45;&gt;Node27 -->
<g id="edge40" class="edge">
<title>Node30&#45;&gt;Node27</title>
<path fill="none" stroke="midnightblue" d="M1215.33,-373.84C1200.99,-391.79 1178.87,-416.64 1155,-433 1075.63,-487.39 968.1,-519.88 899.37,-536.48"/>
<polygon fill="midnightblue" stroke="midnightblue" points="1218.33,-375.68 1221.73,-365.64 1212.82,-371.37 1218.33,-375.68"/>
</g>
<!-- Node30&#45;&gt;Node29 -->
<g id="edge42" class="edge">
<title>Node30&#45;&gt;Node29</title>
<path fill="none" stroke="midnightblue" d="M1212.54,-372.22C1189.64,-390.73 1150.68,-417.28 1113,-433 1061.93,-454.31 1000.32,-467.42 953.51,-474.92"/>
<polygon fill="midnightblue" stroke="midnightblue" points="1214.79,-374.9 1220.21,-365.8 1210.29,-369.53 1214.79,-374.9"/>
</g>
<!-- Node31 -->
<g id="node31" class="node">
<title>Node31</title>
<g id="a_node31"><a xlink:href="framebuffer_8cpp.html" target="_top" xlink:title=" ">
<polygon fill="none" stroke="black" points="1231,-268.5 1231,-298.5 1387,-298.5 1387,-268.5 1231,-268.5"/>
<text text-anchor="start" x="1239" y="-286.5" font-family="Helvetica,sans-Serif" font-size="10.00">/github/workspace/src</text>
<text text-anchor="middle" x="1309" y="-275.5" font-family="Helvetica,sans-Serif" font-size="10.00">/renderer/vulkan/framebuffer.cpp</text>
</a>
</g>
</g>
<!-- Node30&#45;&gt;Node31 -->
<g id="edge41" class="edge">
<title>Node30&#45;&gt;Node31</title>
<path fill="none" stroke="midnightblue" d="M1256.42,-328.88C1268.12,-319.01 1281.84,-307.43 1292.32,-298.58"/>
<polygon fill="midnightblue" stroke="midnightblue" points="1254.09,-326.27 1248.71,-335.4 1258.61,-331.62 1254.09,-326.27"/>
</g>
<!-- Node30&#45;&gt;Node32 -->
<g id="edge43" class="edge">
<title>Node30&#45;&gt;Node32</title>
<path fill="none" stroke="midnightblue" d="M1201.29,-329.73C1185.66,-319.68 1167.03,-307.68 1152.87,-298.58"/>
<polygon fill="midnightblue" stroke="midnightblue" points="1199.78,-332.93 1210.08,-335.4 1203.57,-327.04 1199.78,-332.93"/>
</g>
<!-- Node33&#45;&gt;Node13 -->
<g id="edge46" class="edge">
<title>Node33&#45;&gt;Node13</title>
<path fill="none" stroke="midnightblue" d="M716.59,-332.23C684.07,-321.71 643.06,-308.45 612.53,-298.58"/>
<polygon fill="midnightblue" stroke="midnightblue" points="715.79,-335.65 726.39,-335.4 717.95,-328.99 715.79,-335.65"/>
</g>
<!-- Node33&#45;&gt;Node14 -->
<g id="edge45" class="edge">
<title>Node33&#45;&gt;Node14</title>
<path fill="none" stroke="midnightblue" d="M829.62,-331.09C844.37,-323.56 858.4,-313.18 867,-299 874.15,-287.22 871.73,-280.94 867,-268 838.07,-188.8 755.05,-124.85 715.06,-97.65"/>
<polygon fill="midnightblue" stroke="midnightblue" points="827.95,-328 820.38,-335.42 830.92,-334.34 827.95,-328"/>
</g>
<!-- Node33&#45;&gt;Node27 -->
<g id="edge47" class="edge">
<title>Node33&#45;&gt;Node27</title>
<path fill="none" stroke="midnightblue" d="M707.12,-369C669.03,-382.89 631.42,-404.69 652,-433 682.5,-474.95 719.93,-440.1 763,-469 789.79,-486.97 812.04,-518.16 823.54,-536.3"/>
<polygon fill="midnightblue" stroke="midnightblue" points="708.49,-372.23 716.78,-365.63 706.19,-365.61 708.49,-372.23"/>
</g>
<!-- Node33&#45;&gt;Node32 -->
<g id="edge49" class="edge">
<title>Node33&#45;&gt;Node32</title>
<path fill="none" stroke="midnightblue" d="M858.03,-333.65C917.61,-322.92 995.59,-308.88 1052.94,-298.55"/>
<polygon fill="midnightblue" stroke="midnightblue" points="857.11,-330.26 847.89,-335.48 858.35,-337.15 857.11,-330.26"/>
</g>
<!-- Node34 -->
<g id="node34" class="node">
<title>Node34</title>
<g id="a_node34"><a xlink:href="graphicspipeline_8cpp.html" target="_top" xlink:title=" ">
<polygon fill="none" stroke="black" points="681.5,-268.5 681.5,-298.5 858.5,-298.5 858.5,-268.5 681.5,-268.5"/>
<text text-anchor="start" x="689.5" y="-286.5" font-family="Helvetica,sans-Serif" font-size="10.00">/github/workspace/src</text>
<text text-anchor="middle" x="770" y="-275.5" font-family="Helvetica,sans-Serif" font-size="10.00">/renderer/vulkan/graphicspipeline.cpp</text>
</a>
</g>
</g>
<!-- Node33&#45;&gt;Node34 -->
<g id="edge48" class="edge">
<title>Node33&#45;&gt;Node34</title>
<path fill="none" stroke="midnightblue" d="M770,-325.11C770,-316.15 770,-306.32 770,-298.58"/>
<polygon fill="midnightblue" stroke="midnightblue" points="766.5,-325.4 770,-335.4 773.5,-325.4 766.5,-325.4"/>
</g>
<!-- Node35&#45;&gt;Node27 -->
<g id="edge51" class="edge">
<title>Node35&#45;&gt;Node27</title>
<path fill="none" stroke="midnightblue" d="M1010.75,-441.27C1000.01,-459.36 982.86,-484.16 962,-500 940.11,-516.62 912.08,-528.43 887.65,-536.43"/>
<polygon fill="midnightblue" stroke="midnightblue" points="1013.84,-442.92 1015.77,-432.51 1007.76,-439.44 1013.84,-442.92"/>
</g>
<!-- Node35&#45;&gt;Node30 -->
<g id="edge52" class="edge">
<title>Node35&#45;&gt;Node30</title>
<path fill="none" stroke="midnightblue" d="M1077.84,-399.44C1111.72,-388.91 1154.67,-375.55 1186.63,-365.61"/>
<polygon fill="midnightblue" stroke="midnightblue" points="1076.6,-396.16 1068.09,-402.48 1078.68,-402.85 1076.6,-396.16"/>
</g>
<!-- Node35&#45;&gt;Node32 -->
<g id="edge55" class="edge">
<title>Node35&#45;&gt;Node32</title>
<path fill="none" stroke="midnightblue" d="M1071.21,-397.83C1085.89,-390 1100.82,-379.52 1111,-366 1126.07,-345.98 1129.92,-316.07 1130.82,-298.6"/>
<polygon fill="midnightblue" stroke="midnightblue" points="1069.53,-394.76 1062.14,-402.36 1072.65,-401.02 1069.53,-394.76"/>
</g>
<!-- Node35&#45;&gt;Node33 -->
<g id="edge53" class="edge">
<title>Node35&#45;&gt;Node33</title>
<path fill="none" stroke="midnightblue" d="M958.72,-399.98C917.39,-389.37 864.27,-375.72 824.92,-365.61"/>
<polygon fill="midnightblue" stroke="midnightblue" points="957.86,-403.38 968.41,-402.48 959.6,-396.6 957.86,-403.38"/>
</g>
<!-- Node36 -->
<g id="node36" class="node">
<title>Node36</title>
<g id="a_node36"><a xlink:href="renderpass_8cpp.html" target="_top" xlink:title=" ">
<polygon fill="none" stroke="black" points="947.5,-335.5 947.5,-365.5 1102.5,-365.5 1102.5,-335.5 947.5,-335.5"/>
<text text-anchor="start" x="955.5" y="-353.5" font-family="Helvetica,sans-Serif" font-size="10.00">/github/workspace/src</text>
<text text-anchor="middle" x="1025" y="-342.5" font-family="Helvetica,sans-Serif" font-size="10.00">/renderer/vulkan/renderpass.cpp</text>
</a>
</g>
</g>
<!-- Node35&#45;&gt;Node36 -->
<g id="edge54" class="edge">
<title>Node35&#45;&gt;Node36</title>
<path fill="none" stroke="midnightblue" d="M1023.75,-392.11C1024.03,-383.15 1024.33,-373.32 1024.57,-365.58"/>
<polygon fill="midnightblue" stroke="midnightblue" points="1020.24,-392.29 1023.43,-402.4 1027.24,-392.51 1020.24,-392.29"/>
</g>
</g>
</svg>
