<?xml version="1.0" encoding="UTF-8" standalone="no"?>
<!DOCTYPE svg PUBLIC "-//W3C//DTD SVG 1.1//EN"
 "http://www.w3.org/Graphics/SVG/1.1/DTD/svg11.dtd">
<!-- Generated by graphviz version 2.49.3 (20211215.1918)
 -->
<!-- Title: /github/workspace/src/renderer/camera.h Pages: 1 -->
<svg width="515pt" height="240pt"
 viewBox="0.00 0.00 514.50 240.00" xmlns="http://www.w3.org/2000/svg" xmlns:xlink="http://www.w3.org/1999/xlink">
<g id="graph0" class="graph" transform="scale(1 1) rotate(0) translate(4 236)">
<title>/github/workspace/src/renderer/camera.h</title>
<!-- Node1 -->
<g id="node1" class="node">
<title>Node1</title>
<g id="a_node1"><a xlink:title=" ">
<polygon fill="#bfbfbf" stroke="black" points="131,-201.5 131,-231.5 244,-231.5 244,-201.5 131,-201.5"/>
<text text-anchor="start" x="139" y="-219.5" font-family="Helvetica,sans-Serif" font-size="10.00">/github/workspace/src</text>
<text text-anchor="middle" x="187.5" y="-208.5" font-family="Helvetica,sans-Serif" font-size="10.00">/renderer/camera.h</text>
</a>
</g>
</g>
<!-- Node2 -->
<g id="node2" class="node">
<title>Node2</title>
<g id="a_node2"><a xlink:href="camera_8cpp.html" target="_top" xlink:title=" ">
<polygon fill="none" stroke="black" points="66,-134.5 66,-164.5 179,-164.5 179,-134.5 66,-134.5"/>
<text text-anchor="start" x="74" y="-152.5" font-family="Helvetica,sans-Serif" font-size="10.00">/github/workspace/src</text>
<text text-anchor="middle" x="122.5" y="-141.5" font-family="Helvetica,sans-Serif" font-size="10.00">/renderer/camera.cpp</text>
</a>
</g>
</g>
<!-- Node1&#45;&gt;Node2 -->
<g id="edge1" class="edge">
<title>Node1&#45;&gt;Node2</title>
<path fill="none" stroke="midnightblue" d="M166.31,-194.31C156.56,-184.56 145.26,-173.26 136.58,-164.58"/>
<polygon fill="midnightblue" stroke="midnightblue" points="163.85,-196.8 173.4,-201.4 168.8,-191.85 163.85,-196.8"/>
</g>
<!-- Node3 -->
<g id="node3" class="node">
<title>Node3</title>
<g id="a_node3"><a xlink:href="scene_8h.html" target="_top" xlink:title=" ">
<polygon fill="none" stroke="black" points="197,-134.5 197,-164.5 310,-164.5 310,-134.5 197,-134.5"/>
<text text-anchor="start" x="205" y="-152.5" font-family="Helvetica,sans-Serif" font-size="10.00">/github/workspace/src</text>
<text text-anchor="middle" x="253.5" y="-141.5" font-family="Helvetica,sans-Serif" font-size="10.00">/renderer/scene.h</text>
</a>
</g>
</g>
<!-- Node1&#45;&gt;Node3 -->
<g id="edge2" class="edge">
<title>Node1&#45;&gt;Node3</title>
<path fill="none" stroke="midnightblue" d="M209.01,-194.31C218.91,-184.56 230.39,-173.26 239.21,-164.58"/>
<polygon fill="midnightblue" stroke="midnightblue" points="206.49,-191.89 201.82,-201.4 211.4,-196.87 206.49,-191.89"/>
</g>
<!-- Node4 -->
<g id="node4" class="node">
<title>Node4</title>
<g id="a_node4"><a xlink:href="scene_8cpp.html" target="_top" xlink:title=" ">
<polygon fill="none" stroke="black" points="0,-67.5 0,-97.5 113,-97.5 113,-67.5 0,-67.5"/>
<text text-anchor="start" x="8" y="-85.5" font-family="Helvetica,sans-Serif" font-size="10.00">/github/workspace/src</text>
<text text-anchor="middle" x="56.5" y="-74.5" font-family="Helvetica,sans-Serif" font-size="10.00">/renderer/scene.cpp</text>
</a>
</g>
</g>
<!-- Node3&#45;&gt;Node4 -->
<g id="edge3" class="edge">
<title>Node3&#45;&gt;Node4</title>
<path fill="none" stroke="midnightblue" d="M201.15,-131.23C169.28,-120.71 129.09,-107.45 99.16,-97.58"/>
<polygon fill="midnightblue" stroke="midnightblue" points="200.16,-134.59 210.75,-134.4 202.35,-127.94 200.16,-134.59"/>
</g>
<!-- Node5 -->
<g id="node5" class="node">
<title>Node5</title>
<g id="a_node5"><a xlink:href="objectproperties_8h.html" target="_top" xlink:title=" ">
<polygon fill="none" stroke="black" points="131,-67.5 131,-97.5 276,-97.5 276,-67.5 131,-67.5"/>
<text text-anchor="start" x="139" y="-85.5" font-family="Helvetica,sans-Serif" font-size="10.00">/github/workspace/src</text>
<text text-anchor="middle" x="203.5" y="-74.5" font-family="Helvetica,sans-Serif" font-size="10.00">/renderer/ui/objectproperties.h</text>
</a>
</g>
</g>
<!-- Node3&#45;&gt;Node5 -->
<g id="edge4" class="edge">
<title>Node3&#45;&gt;Node5</title>
<path fill="none" stroke="midnightblue" d="M236.54,-126.45C229.19,-116.9 220.81,-106 214.33,-97.58"/>
<polygon fill="midnightblue" stroke="midnightblue" points="233.78,-128.6 242.65,-134.4 239.33,-124.34 233.78,-128.6"/>
</g>
<!-- Node7 -->
<g id="node7" class="node">
<title>Node7</title>
<g id="a_node7"><a xlink:href="vulkan__voxel__rasterizer__3_8cpp.html" target="_top" xlink:title=" ">
<polygon fill="none" stroke="black" points="217.5,-0.5 217.5,-30.5 391.5,-30.5 391.5,-0.5 217.5,-0.5"/>
<text text-anchor="start" x="225.5" y="-18.5" font-family="Helvetica,sans-Serif" font-size="10.00">/github/workspace/src</text>
<text text-anchor="middle" x="304.5" y="-7.5" font-family="Helvetica,sans-Serif" font-size="10.00">/tests/vulkan_voxel_rasterizer_3.cpp</text>
</a>
</g>
</g>
<!-- Node3&#45;&gt;Node7 -->
<g id="edge8" class="edge">
<title>Node3&#45;&gt;Node7</title>
<path fill="none" stroke="midnightblue" d="M270.22,-125.73C275.74,-117.35 281.49,-107.56 285.5,-98 294.94,-75.49 300.17,-47.42 302.65,-30.79"/>
<polygon fill="midnightblue" stroke="midnightblue" points="267.18,-123.97 264.4,-134.2 272.95,-127.93 267.18,-123.97"/>
</g>
<!-- Node8 -->
<g id="node8" class="node">
<title>Node8</title>
<g id="a_node8"><a xlink:href="vulkan__voxel__rasterizer__2_8cpp.html" target="_top" xlink:title=" ">
<polygon fill="none" stroke="black" points="332.5,-67.5 332.5,-97.5 506.5,-97.5 506.5,-67.5 332.5,-67.5"/>
<text text-anchor="start" x="340.5" y="-85.5" font-family="Helvetica,sans-Serif" font-size="10.00">/github/workspace/src</text>
<text text-anchor="middle" x="419.5" y="-74.5" font-family="Helvetica,sans-Serif" font-size="10.00">/tests/vulkan_voxel_rasterizer_2.cpp</text>
</a>
</g>
</g>
<!-- Node3&#45;&gt;Node8 -->
<g id="edge7" class="edge">
<title>Node3&#45;&gt;Node8</title>
<path fill="none" stroke="midnightblue" d="M299.01,-130.68C325.63,-120.26 358.77,-107.28 383.55,-97.58"/>
<polygon fill="midnightblue" stroke="midnightblue" points="297.55,-127.49 289.52,-134.4 300.11,-134.01 297.55,-127.49"/>
</g>
<!-- Node6 -->
<g id="node6" class="node">
<title>Node6</title>
<g id="a_node6"><a xlink:href="objectproperties_8cpp.html" target="_top" xlink:title=" ">
<polygon fill="none" stroke="black" points="44,-0.5 44,-30.5 199,-30.5 199,-0.5 44,-0.5"/>
<text text-anchor="start" x="52" y="-18.5" font-family="Helvetica,sans-Serif" font-size="10.00">/github/workspace/src</text>
<text text-anchor="middle" x="121.5" y="-7.5" font-family="Helvetica,sans-Serif" font-size="10.00">/renderer/ui/objectproperties.cpp</text>
</a>
</g>
</g>
<!-- Node5&#45;&gt;Node6 -->
<g id="edge5" class="edge">
<title>Node5&#45;&gt;Node6</title>
<path fill="none" stroke="midnightblue" d="M177.85,-61.17C165.31,-51.23 150.53,-39.51 139.26,-30.58"/>
<polygon fill="midnightblue" stroke="midnightblue" points="175.7,-63.93 185.71,-67.4 180.04,-58.44 175.7,-63.93"/>
</g>
<!-- Node5&#45;&gt;Node7 -->
<g id="edge6" class="edge">
<title>Node5&#45;&gt;Node7</title>
<path fill="none" stroke="midnightblue" d="M234.21,-61.73C249.84,-51.68 268.47,-39.68 282.63,-30.58"/>
<polygon fill="midnightblue" stroke="midnightblue" points="231.93,-59.04 225.42,-67.4 235.72,-64.93 231.93,-59.04"/>
</g>
</g>
</svg>
