<?xml version="1.0" encoding="UTF-8" standalone="no"?>
<!DOCTYPE svg PUBLIC "-//W3C//DTD SVG 1.1//EN"
 "http://www.w3.org/Graphics/SVG/1.1/DTD/svg11.dtd">
<!-- Generated by graphviz version 2.49.3 (20211215.1918)
 -->
<!-- Title: CommandPool::create Pages: 1 -->
<svg width="708pt" height="66pt"
 viewBox="0.00 0.00 708.00 66.00" xmlns="http://www.w3.org/2000/svg" xmlns:xlink="http://www.w3.org/1999/xlink">
<g id="graph0" class="graph" transform="scale(1 1) rotate(0) translate(4 62)">
<title>CommandPool::create</title>
<!-- Node1 -->
<g id="node1" class="node">
<title>Node1</title>
<g id="a_node1"><a xlink:title=" ">
<polygon fill="#bfbfbf" stroke="black" points="588,-19.5 588,-38.5 700,-38.5 700,-19.5 588,-19.5"/>
<text text-anchor="middle" x="644" y="-26.5" font-family="Helvetica,sans-Serif" font-size="10.00">CommandPool::create</text>
</a>
</g>
</g>
<!-- Node2 -->
<g id="node2" class="node">
<title>Node2</title>
<g id="a_node2"><a xlink:href="class_mandelbrot_app.html#aef0e6061890a496c1571ffceb502fcd6" target="_top" xlink:title=" ">
<polygon fill="none" stroke="black" points="375,-38.5 375,-57.5 552,-57.5 552,-38.5 375,-38.5"/>
<text text-anchor="middle" x="463.5" y="-45.5" font-family="Helvetica,sans-Serif" font-size="10.00">MandelbrotApp::createCommandPool</text>
</a>
</g>
</g>
<!-- Node1&#45;&gt;Node2 -->
<g id="edge1" class="edge">
<title>Node1&#45;&gt;Node2</title>
<path fill="none" stroke="midnightblue" d="M577.93,-35.93C569.54,-36.82 560.84,-37.74 552.17,-38.67"/>
<polygon fill="midnightblue" stroke="midnightblue" points="578.41,-39.39 587.99,-34.86 577.67,-32.43 578.41,-39.39"/>
</g>
<!-- Node6 -->
<g id="node6" class="node">
<title>Node6</title>
<g id="a_node6"><a xlink:href="vulkan__voxel__rasterizer_8cpp.html#ae66f6b31b5ad750f1fe042a706a4e3d4" target="_top" xlink:title=" ">
<polygon fill="none" stroke="black" points="444.5,-0.5 444.5,-19.5 482.5,-19.5 482.5,-0.5 444.5,-0.5"/>
<text text-anchor="middle" x="463.5" y="-7.5" font-family="Helvetica,sans-Serif" font-size="10.00">main</text>
</a>
</g>
</g>
<!-- Node1&#45;&gt;Node6 -->
<g id="edge5" class="edge">
<title>Node1&#45;&gt;Node6</title>
<path fill="none" stroke="midnightblue" d="M577.64,-22.04C543.7,-18.43 504.79,-14.29 482.58,-11.92"/>
<polygon fill="midnightblue" stroke="midnightblue" points="577.67,-25.57 587.99,-23.14 578.41,-18.61 577.67,-25.57"/>
</g>
<!-- Node3 -->
<g id="node3" class="node">
<title>Node3</title>
<g id="a_node3"><a xlink:href="class_mandelbrot_app.html#ad5c4a7e7fd79bc75fea87df0165005b6" target="_top" xlink:title=" ">
<polygon fill="none" stroke="black" points="210,-38.5 210,-57.5 339,-57.5 339,-38.5 210,-38.5"/>
<text text-anchor="middle" x="274.5" y="-45.5" font-family="Helvetica,sans-Serif" font-size="10.00">MandelbrotApp::initVulkan</text>
</a>
</g>
</g>
<!-- Node2&#45;&gt;Node3 -->
<g id="edge2" class="edge">
<title>Node2&#45;&gt;Node3</title>
<path fill="none" stroke="midnightblue" d="M364.57,-48C355.9,-48 347.28,-48 339.02,-48"/>
<polygon fill="midnightblue" stroke="midnightblue" points="364.75,-51.5 374.75,-48 364.75,-44.5 364.75,-51.5"/>
</g>
<!-- Node4 -->
<g id="node4" class="node">
<title>Node4</title>
<g id="a_node4"><a xlink:href="class_mandelbrot_app.html#a2cd742dc1400d3cf3e4ed782976fda5f" target="_top" xlink:title=" ">
<polygon fill="none" stroke="black" points="74,-38.5 74,-57.5 174,-57.5 174,-38.5 74,-38.5"/>
<text text-anchor="middle" x="124" y="-45.5" font-family="Helvetica,sans-Serif" font-size="10.00">MandelbrotApp::run</text>
</a>
</g>
</g>
<!-- Node3&#45;&gt;Node4 -->
<g id="edge3" class="edge">
<title>Node3&#45;&gt;Node4</title>
<path fill="none" stroke="midnightblue" d="M199.65,-48C191.1,-48 182.55,-48 174.44,-48"/>
<polygon fill="midnightblue" stroke="midnightblue" points="199.66,-51.5 209.66,-48 199.66,-44.5 199.66,-51.5"/>
</g>
<!-- Node5 -->
<g id="node5" class="node">
<title>Node5</title>
<g id="a_node5"><a xlink:href="vulkan__voxel__rasterizer__2_8cpp.html#ae66f6b31b5ad750f1fe042a706a4e3d4" target="_top" xlink:title=" ">
<polygon fill="none" stroke="black" points="0,-38.5 0,-57.5 38,-57.5 38,-38.5 0,-38.5"/>
<text text-anchor="middle" x="19" y="-45.5" font-family="Helvetica,sans-Serif" font-size="10.00">main</text>
</a>
</g>
</g>
<!-- Node4&#45;&gt;Node5 -->
<g id="edge4" class="edge">
<title>Node4&#45;&gt;Node5</title>
<path fill="none" stroke="midnightblue" d="M63.85,-48C54.65,-48 45.78,-48 38.46,-48"/>
<polygon fill="midnightblue" stroke="midnightblue" points="63.91,-51.5 73.91,-48 63.91,-44.5 63.91,-51.5"/>
</g>
</g>
</svg>
