<?xml version="1.0" encoding="UTF-8" standalone="no"?>
<!DOCTYPE svg PUBLIC "-//W3C//DTD SVG 1.1//EN"
 "http://www.w3.org/Graphics/SVG/1.1/DTD/svg11.dtd">
<!-- Generated by graphviz version 2.50.0 (20220203.2022)
 -->
<!-- Title: RenderManager::createRenderObjects Pages: 1 -->
<!--zoomable 937 -->
<svg id="main" version="1.1" xmlns="http://www.w3.org/2000/svg" xmlns:xlink="http://www.w3.org/1999/xlink" xml:space="preserve" onload="init(evt)">
<style type="text/css"><![CDATA[
.edge:hover path { stroke: red; }
.edge:hover polygon { stroke: red; fill: red; }
]]></style>
<script type="text/javascript"><![CDATA[
var edges = document.getElementsByTagName('g');
if (edges && edges.length) {
  for (var i=0;i<edges.length;i++) {
    if (edges[i].id.substr(0,4)=='edge') {
      edges[i].setAttribute('class','edge');
    }
  }
}
]]></script>
        <defs>
                <circle id="rim" cx="0" cy="0" r="7"/>
                <circle id="rim2" cx="0" cy="0" r="3.5"/>
                <g id="zoomPlus">
                        <use xlink:href="#rim" fill="#404040">
                                <set attributeName="fill" to="#808080" begin="zoomplus.mouseover" end="zoomplus.mouseout"/>
                        </use>
                        <path d="M-4,0h8M0,-4v8" fill="none" stroke="white" stroke-width="1.5" pointer-events="none"/>
                </g>
                <g id="zoomMin">
                        <use xlink:href="#rim" fill="#404040">
                                <set attributeName="fill" to="#808080" begin="zoomminus.mouseover" end="zoomminus.mouseout"/>
                        </use>
                        <path d="M-4,0h8" fill="none" stroke="white" stroke-width="1.5" pointer-events="none"/>
                </g>
                <g id="dirArrow">
                        <path fill="none" stroke="white" stroke-width="1.5" d="M0,-3.0v7 M-2.5,-0.5L0,-3.0L2.5,-0.5"/>
                </g>
               <g id="resetDef">
                       <use xlink:href="#rim2" fill="#404040">
                               <set attributeName="fill" to="#808080" begin="reset.mouseover" end="reset.mouseout"/>
                       </use>
               </g>
        </defs>

<script type="text/javascript">
var viewWidth = 781;
var viewHeight = 937;
var sectionId = 'dynsection-12';
</script>
<script xlink:href="svgpan.js"/>
<svg id="graph" class="graph">
<g id="viewport">
<title>RenderManager::createRenderObjects</title>
<!-- Node1 -->
<g id="node1" class="node">
<title>Node1</title>
<g id="a_node1"><a xlink:title=" ">
<polygon fill="#bfbfbf" stroke="black" points="0,-273 0,-303 147,-303 147,-273 0,-273"/>
<text text-anchor="start" x="8" y="-291" font-family="Helvetica,sans-Serif" font-size="10.00">RenderManager::createRender</text>
<text text-anchor="middle" x="73.5" y="-280" font-family="Helvetica,sans-Serif" font-size="10.00">Objects</text>
</a>
</g>
</g>
<!-- Node2 -->
<g id="node2" class="node">
<title>Node2</title>
<g id="a_node2"><a xlink:href="class_render_manager.html#a65e7a5c0a757d951516b3a207dbb19db" target="_top" xlink:title=" ">
<polygon fill="none" stroke="black" points="187.5,-841 187.5,-871 348.5,-871 348.5,-841 187.5,-841"/>
<text text-anchor="start" x="195.5" y="-859" font-family="Helvetica,sans-Serif" font-size="10.00">RenderManager::createCommand</text>
<text text-anchor="middle" x="268" y="-848" font-family="Helvetica,sans-Serif" font-size="10.00">Pools</text>
</a>
</g>
</g>
<!-- Node1&#45;&gt;Node2 -->
<g id="edge1" class="edge">
<title>Node1&#45;&gt;Node2</title>
<path fill="none" stroke="midnightblue" d="M75.65,-303.16C80.68,-362.91 104.09,-586.82 183,-750 198.52,-782.1 225.18,-813.41 244.31,-833.58"/>
<polygon fill="midnightblue" stroke="midnightblue" points="242.01,-836.24 251.48,-841 247.05,-831.37 242.01,-836.24"/>
</g>
<!-- Node4 -->
<g id="node4" class="node">
<title>Node4</title>
<g id="a_node4"><a xlink:href="class_render_manager.html#aa04e5bcc41eaf66bd29d811e39d71c3c" target="_top" xlink:title=" ">
<polygon fill="none" stroke="black" points="194.5,-501 194.5,-531 341.5,-531 341.5,-501 194.5,-501"/>
<text text-anchor="start" x="202.5" y="-519" font-family="Helvetica,sans-Serif" font-size="10.00">RenderManager::createDefault</text>
<text text-anchor="middle" x="268" y="-508" font-family="Helvetica,sans-Serif" font-size="10.00">Material</text>
</a>
</g>
</g>
<!-- Node1&#45;&gt;Node4 -->
<g id="edge3" class="edge">
<title>Node1&#45;&gt;Node4</title>
<path fill="none" stroke="midnightblue" d="M83.22,-303.11C100.32,-332.08 140.31,-396.76 183,-444 199.82,-462.61 221.35,-480.98 238.4,-494.5"/>
<polygon fill="midnightblue" stroke="midnightblue" points="236.33,-497.33 246.37,-500.73 240.64,-491.81 236.33,-497.33"/>
</g>
<!-- Node11 -->
<g id="node11" class="node">
<title>Node11</title>
<g id="a_node11"><a xlink:href="class_render_manager.html#aa6e12fa2f425700718eec18fb52a1ef8" target="_top" xlink:title=" ">
<polygon fill="none" stroke="black" points="196,-404 196,-434 340,-434 340,-404 196,-404"/>
<text text-anchor="start" x="204" y="-422" font-family="Helvetica,sans-Serif" font-size="10.00">RenderManager::createFrame</text>
<text text-anchor="middle" x="268" y="-411" font-family="Helvetica,sans-Serif" font-size="10.00">Buffer</text>
</a>
</g>
</g>
<!-- Node1&#45;&gt;Node11 -->
<g id="edge11" class="edge">
<title>Node1&#45;&gt;Node11</title>
<path fill="none" stroke="midnightblue" d="M91.88,-303.07C112.77,-320.83 149.24,-350.74 183,-373 197.12,-382.31 213.28,-391.48 227.63,-399.16"/>
<polygon fill="midnightblue" stroke="midnightblue" points="226.28,-402.4 236.76,-403.97 229.55,-396.21 226.28,-402.4"/>
</g>
<!-- Node13 -->
<g id="node13" class="node">
<title>Node13</title>
<g id="a_node13"><a xlink:href="class_render_manager.html#aa98c2ffaac4f73709b8008b6e218c0f3" target="_top" xlink:title=" ">
<polygon fill="none" stroke="black" points="194,-333 194,-363 342,-363 342,-333 194,-333"/>
<text text-anchor="start" x="202" y="-351" font-family="Helvetica,sans-Serif" font-size="10.00">RenderManager::createLogical</text>
<text text-anchor="middle" x="268" y="-340" font-family="Helvetica,sans-Serif" font-size="10.00">Device</text>
</a>
</g>
</g>
<!-- Node1&#45;&gt;Node13 -->
<g id="edge13" class="edge">
<title>Node1&#45;&gt;Node13</title>
<path fill="none" stroke="midnightblue" d="M123.08,-303.14C149.16,-311.27 181.51,-321.35 208.92,-329.9"/>
<polygon fill="midnightblue" stroke="midnightblue" points="208.18,-333.33 218.77,-332.97 210.27,-326.65 208.18,-333.33"/>
</g>
<!-- Node17 -->
<g id="node17" class="node">
<title>Node17</title>
<g id="a_node17"><a xlink:href="class_render_manager.html#a47b4c7259640bcfc476a5cd8c129c2b8" target="_top" xlink:title=" ">
<polygon fill="none" stroke="black" points="183,-278.5 183,-297.5 353,-297.5 353,-278.5 183,-278.5"/>
<text text-anchor="middle" x="268" y="-285.5" font-family="Helvetica,sans-Serif" font-size="10.00">RenderManager::createRenderPass</text>
</a>
</g>
</g>
<!-- Node1&#45;&gt;Node17 -->
<g id="edge17" class="edge">
<title>Node1&#45;&gt;Node17</title>
<path fill="none" stroke="midnightblue" d="M147,-288C155.43,-288 164.11,-288 172.78,-288"/>
<polygon fill="midnightblue" stroke="midnightblue" points="172.92,-291.5 182.92,-288 172.92,-284.5 172.92,-291.5"/>
</g>
<!-- Node19 -->
<g id="node19" class="node">
<title>Node19</title>
<g id="a_node19"><a xlink:href="class_render_manager.html#a34e5f071f12097fbc5e950651dcce086" target="_top" xlink:title=" ">
<polygon fill="none" stroke="black" points="196,-710 196,-740 340,-740 340,-710 196,-710"/>
<text text-anchor="start" x="204" y="-728" font-family="Helvetica,sans-Serif" font-size="10.00">RenderManager::createScene</text>
<text text-anchor="middle" x="268" y="-717" font-family="Helvetica,sans-Serif" font-size="10.00">Objects</text>
</a>
</g>
</g>
<!-- Node1&#45;&gt;Node19 -->
<g id="edge19" class="edge">
<title>Node1&#45;&gt;Node19</title>
<path fill="none" stroke="midnightblue" d="M80.86,-303.17C97.4,-342.54 143.25,-451.19 183,-541 208.35,-598.28 239.16,-665.08 255.51,-700.31"/>
<polygon fill="midnightblue" stroke="midnightblue" points="252.52,-702.19 259.91,-709.79 258.87,-699.24 252.52,-702.19"/>
</g>
<!-- Node33 -->
<g id="node33" class="node">
<title>Node33</title>
<g id="a_node33"><a xlink:href="class_render_manager.html#ab9be550fe988ee994b0cba1b46ef2ded" target="_top" xlink:title=" ">
<polygon fill="none" stroke="black" points="197.5,-197 197.5,-227 338.5,-227 338.5,-197 197.5,-197"/>
<text text-anchor="start" x="205.5" y="-215" font-family="Helvetica,sans-Serif" font-size="10.00">RenderManager::createSwap</text>
<text text-anchor="middle" x="268" y="-204" font-family="Helvetica,sans-Serif" font-size="10.00">Chain</text>
</a>
</g>
</g>
<!-- Node1&#45;&gt;Node33 -->
<g id="edge37" class="edge">
<title>Node1&#45;&gt;Node33</title>
<path fill="none" stroke="midnightblue" d="M112.53,-272.98C143.15,-260.9 186.35,-243.84 219.29,-230.84"/>
<polygon fill="midnightblue" stroke="midnightblue" points="220.7,-234.04 228.72,-227.11 218.13,-227.53 220.7,-234.04"/>
</g>
<!-- Node39 -->
<g id="node39" class="node">
<title>Node39</title>
<g id="a_node39"><a xlink:href="class_render_manager.html#ad684dc770c22b8ee45875407c8591a00" target="_top" xlink:title=" ">
<polygon fill="none" stroke="black" points="187.5,-158.5 187.5,-177.5 348.5,-177.5 348.5,-158.5 187.5,-158.5"/>
<text text-anchor="middle" x="268" y="-165.5" font-family="Helvetica,sans-Serif" font-size="10.00">RenderManager::createUIObjects</text>
</a>
</g>
</g>
<!-- Node1&#45;&gt;Node39 -->
<g id="edge44" class="edge">
<title>Node1&#45;&gt;Node39</title>
<path fill="none" stroke="midnightblue" d="M86.44,-272.89C104.78,-250.76 142.07,-209.79 183,-188 188.26,-185.2 193.9,-182.79 199.69,-180.71"/>
<polygon fill="midnightblue" stroke="midnightblue" points="201.1,-183.94 209.53,-177.52 198.94,-177.28 201.1,-183.94"/>
</g>
<!-- Node43 -->
<g id="node43" class="node">
<title>Node43</title>
<g id="a_node43"><a xlink:href="class_render_manager.html#a0f7540f079654ada7762f7368deca060" target="_top" xlink:title=" ">
<polygon fill="none" stroke="black" points="197,-120.5 197,-139.5 339,-139.5 339,-120.5 197,-120.5"/>
<text text-anchor="middle" x="268" y="-127.5" font-family="Helvetica,sans-Serif" font-size="10.00">RenderManager::keyCallback</text>
</a>
</g>
</g>
<!-- Node1&#45;&gt;Node43 -->
<g id="edge48" class="edge">
<title>Node1&#45;&gt;Node43</title>
<path fill="none" stroke="midnightblue" d="M81.91,-272.64C96.77,-243.58 133.11,-180.65 183,-149 186.22,-146.96 189.63,-145.13 193.16,-143.51"/>
<polygon fill="midnightblue" stroke="midnightblue" points="194.79,-146.62 202.75,-139.63 192.17,-140.13 194.79,-146.62"/>
</g>
<!-- Node45 -->
<g id="node45" class="node">
<title>Node45</title>
<g id="a_node45"><a xlink:href="class_render_manager.html#a778e5e362971c47f175cbf13ac66b10e" target="_top" xlink:title=" ">
<polygon fill="none" stroke="black" points="194.5,-71 194.5,-101 341.5,-101 341.5,-71 194.5,-71"/>
<text text-anchor="start" x="202.5" y="-89" font-family="Helvetica,sans-Serif" font-size="10.00">RenderManager::mouseButton</text>
<text text-anchor="middle" x="268" y="-78" font-family="Helvetica,sans-Serif" font-size="10.00">Callback</text>
</a>
</g>
</g>
<!-- Node1&#45;&gt;Node45 -->
<g id="edge50" class="edge">
<title>Node1&#45;&gt;Node45</title>
<path fill="none" stroke="midnightblue" d="M79.51,-272.86C91.6,-238.66 125.69,-155.03 183,-111 185.45,-109.11 188.05,-107.37 190.75,-105.76"/>
<polygon fill="midnightblue" stroke="midnightblue" points="192.46,-108.81 199.66,-101.04 189.19,-102.62 192.46,-108.81"/>
</g>
<!-- Node46 -->
<g id="node46" class="node">
<title>Node46</title>
<g id="a_node46"><a xlink:href="class_render_manager.html#a20215629ec089cb4aa07a2d6096c1c54" target="_top" xlink:title=" ">
<polygon fill="none" stroke="black" points="196,-22 196,-52 340,-52 340,-22 196,-22"/>
<text text-anchor="start" x="204" y="-40" font-family="Helvetica,sans-Serif" font-size="10.00">RenderManager::pickPhysical</text>
<text text-anchor="middle" x="268" y="-29" font-family="Helvetica,sans-Serif" font-size="10.00">Device</text>
</a>
</g>
</g>
<!-- Node1&#45;&gt;Node46 -->
<g id="edge52" class="edge">
<title>Node1&#45;&gt;Node46</title>
<path fill="none" stroke="midnightblue" d="M77.37,-272.76C85.82,-232.15 114.46,-120.47 183,-62 184.98,-60.32 187.06,-58.74 189.23,-57.28"/>
<polygon fill="midnightblue" stroke="midnightblue" points="191.14,-60.22 197.99,-52.13 187.59,-54.18 191.14,-60.22"/>
</g>
<!-- Node3 -->
<g id="node3" class="node">
<title>Node3</title>
<g id="a_node3"><a xlink:href="class_command_pool.html#a0c7b1a49862653552ece1efda2a73ae3" target="_top" xlink:title=" ">
<polygon fill="none" stroke="black" points="548,-909.5 548,-928.5 660,-928.5 660,-909.5 548,-909.5"/>
<text text-anchor="middle" x="604" y="-916.5" font-family="Helvetica,sans-Serif" font-size="10.00">CommandPool::create</text>
</a>
</g>
</g>
<!-- Node2&#45;&gt;Node3 -->
<g id="edge2" class="edge">
<title>Node2&#45;&gt;Node3</title>
<path fill="none" stroke="midnightblue" d="M348.58,-871.01C408.16,-882.25 488.41,-897.39 542.73,-907.63"/>
<polygon fill="midnightblue" stroke="midnightblue" points="542.09,-911.07 552.56,-909.49 543.38,-904.19 542.09,-911.07"/>
</g>
<!-- Node5 -->
<g id="node5" class="node">
<title>Node5</title>
<g id="a_node5"><a xlink:href="materialparameters_8cpp.html#a59fb9231365864f141c11f1aa4d67f6f" target="_top" xlink:title=" ">
<polygon fill="none" stroke="black" points="416,-582.5 416,-601.5 482,-601.5 482,-582.5 416,-582.5"/>
<text text-anchor="middle" x="449" y="-589.5" font-family="Helvetica,sans-Serif" font-size="10.00">buildLayout</text>
</a>
</g>
</g>
<!-- Node4&#45;&gt;Node5 -->
<g id="edge4" class="edge">
<title>Node4&#45;&gt;Node5</title>
<path fill="none" stroke="midnightblue" d="M298.11,-531.16C322.12,-543.33 357.27,-560.42 389,-573 394.51,-575.19 400.38,-577.31 406.2,-579.3"/>
<polygon fill="midnightblue" stroke="midnightblue" points="405.29,-582.68 415.88,-582.5 407.49,-576.04 405.29,-582.68"/>
</g>
<!-- Node7 -->
<g id="node7" class="node">
<title>Node7</title>
<g id="a_node7"><a xlink:href="class_master_material.html#a7daa9481348380046f68f55f9738ea61" target="_top" xlink:title=" ">
<polygon fill="none" stroke="black" points="392.5,-544.5 392.5,-563.5 505.5,-563.5 505.5,-544.5 392.5,-544.5"/>
<text text-anchor="middle" x="449" y="-551.5" font-family="Helvetica,sans-Serif" font-size="10.00">MasterMaterial::create</text>
</a>
</g>
</g>
<!-- Node4&#45;&gt;Node7 -->
<g id="edge6" class="edge">
<title>Node4&#45;&gt;Node7</title>
<path fill="none" stroke="midnightblue" d="M339.75,-531.02C357.47,-534.78 376.22,-538.76 393.04,-542.33"/>
<polygon fill="midnightblue" stroke="midnightblue" points="392.74,-545.85 403.25,-544.5 394.19,-539 392.74,-545.85"/>
</g>
<!-- Node8 -->
<g id="node8" class="node">
<title>Node8</title>
<g id="a_node8"><a xlink:href="class_vertex_shader.html#a5210d098175734531886d9e5b1741f8e" target="_top" xlink:title=" ">
<polygon fill="none" stroke="black" points="395.5,-506.5 395.5,-525.5 502.5,-525.5 502.5,-506.5 395.5,-506.5"/>
<text text-anchor="middle" x="449" y="-513.5" font-family="Helvetica,sans-Serif" font-size="10.00">VertexShader::create</text>
</a>
</g>
</g>
<!-- Node4&#45;&gt;Node8 -->
<g id="edge7" class="edge">
<title>Node4&#45;&gt;Node8</title>
<path fill="none" stroke="midnightblue" d="M341.55,-516C356.05,-516 371.17,-516 385.31,-516"/>
<polygon fill="midnightblue" stroke="midnightblue" points="385.41,-519.5 395.41,-516 385.41,-512.5 385.41,-519.5"/>
</g>
<!-- Node10 -->
<g id="node10" class="node">
<title>Node10</title>
<g id="a_node10"><a xlink:href="class_fragment_shader.html#a1221d3fb805310bb64a01e032e794d0b" target="_top" xlink:title=" ">
<polygon fill="none" stroke="black" points="389,-468.5 389,-487.5 509,-487.5 509,-468.5 389,-468.5"/>
<text text-anchor="middle" x="449" y="-475.5" font-family="Helvetica,sans-Serif" font-size="10.00">FragmentShader::create</text>
</a>
</g>
</g>
<!-- Node4&#45;&gt;Node10 -->
<g id="edge9" class="edge">
<title>Node4&#45;&gt;Node10</title>
<path fill="none" stroke="midnightblue" d="M339.75,-500.98C357.47,-497.22 376.22,-493.24 393.04,-489.67"/>
<polygon fill="midnightblue" stroke="midnightblue" points="394.19,-493 403.25,-487.5 392.74,-486.15 394.19,-493"/>
</g>
<!-- Node6 -->
<g id="node6" class="node">
<title>Node6</title>
<g id="a_node6"><a xlink:href="materialparameters_8cpp.html#a6d0d74203f8507f343dd66edcc0d472f" target="_top" xlink:title=" ">
<polygon fill="none" stroke="black" points="567.5,-582.5 567.5,-601.5 640.5,-601.5 640.5,-582.5 567.5,-582.5"/>
<text text-anchor="middle" x="604" y="-589.5" font-family="Helvetica,sans-Serif" font-size="10.00">buildProperty</text>
</a>
</g>
</g>
<!-- Node5&#45;&gt;Node6 -->
<g id="edge5" class="edge">
<title>Node5&#45;&gt;Node6</title>
<path fill="none" stroke="midnightblue" d="M482.07,-592C503.93,-592 533.18,-592 557.44,-592"/>
<polygon fill="midnightblue" stroke="midnightblue" points="557.49,-595.5 567.49,-592 557.49,-588.5 557.49,-595.5"/>
</g>
<!-- Node9 -->
<g id="node9" class="node">
<title>Node9</title>
<g id="a_node9"><a xlink:href="class_utils.html#a7e7d47e8b017fe7d4ae8802c7b0690cb" target="_top" xlink:title=" ">
<polygon fill="none" stroke="black" points="566,-487.5 566,-506.5 642,-506.5 642,-487.5 566,-487.5"/>
<text text-anchor="middle" x="604" y="-494.5" font-family="Helvetica,sans-Serif" font-size="10.00">Utils::readFile</text>
</a>
</g>
</g>
<!-- Node8&#45;&gt;Node9 -->
<g id="edge8" class="edge">
<title>Node8&#45;&gt;Node9</title>
<path fill="none" stroke="midnightblue" d="M502.65,-509.46C519.83,-507.33 538.8,-504.97 555.57,-502.89"/>
<polygon fill="midnightblue" stroke="midnightblue" points="556.2,-506.34 565.69,-501.63 555.34,-499.39 556.2,-506.34"/>
</g>
<!-- Node10&#45;&gt;Node9 -->
<g id="edge10" class="edge">
<title>Node10&#45;&gt;Node9</title>
<path fill="none" stroke="midnightblue" d="M509.15,-485.35C524.45,-487.24 540.72,-489.27 555.34,-491.08"/>
<polygon fill="midnightblue" stroke="midnightblue" points="555.3,-494.6 565.66,-492.36 556.16,-487.66 555.3,-494.6"/>
</g>
<!-- Node12 -->
<g id="node12" class="node">
<title>Node12</title>
<g id="a_node12"><a xlink:href="class_frame_buffer.html#a3b861048fc9c1861448d4dee7a6b9b69" target="_top" xlink:title=" ">
<polygon fill="none" stroke="black" points="398.5,-430.5 398.5,-449.5 499.5,-449.5 499.5,-430.5 398.5,-430.5"/>
<text text-anchor="middle" x="449" y="-437.5" font-family="Helvetica,sans-Serif" font-size="10.00">FrameBuffer::create</text>
</a>
</g>
</g>
<!-- Node11&#45;&gt;Node12 -->
<g id="edge12" class="edge">
<title>Node11&#45;&gt;Node12</title>
<path fill="none" stroke="midnightblue" d="M340,-427.33C356.02,-429.21 372.86,-431.18 388.35,-433"/>
<polygon fill="midnightblue" stroke="midnightblue" points="387.97,-436.48 398.31,-434.17 388.79,-429.53 387.97,-436.48"/>
</g>
<!-- Node14 -->
<g id="node14" class="node">
<title>Node14</title>
<g id="a_node14"><a xlink:href="class_device.html#a2a9f19d3d5e271b7d3c300e657b44219" target="_top" xlink:title=" ">
<polygon fill="none" stroke="black" points="410,-392.5 410,-411.5 488,-411.5 488,-392.5 410,-392.5"/>
<text text-anchor="middle" x="449" y="-399.5" font-family="Helvetica,sans-Serif" font-size="10.00">Device::create</text>
</a>
</g>
</g>
<!-- Node13&#45;&gt;Node14 -->
<g id="edge14" class="edge">
<title>Node13&#45;&gt;Node14</title>
<path fill="none" stroke="midnightblue" d="M318.86,-363.04C346.56,-371.4 380.61,-381.67 406.79,-389.57"/>
<polygon fill="midnightblue" stroke="midnightblue" points="405.83,-392.93 416.41,-392.47 407.85,-386.23 405.83,-392.93"/>
</g>
<!-- Node15 -->
<g id="node15" class="node">
<title>Node15</title>
<g id="a_node15"><a xlink:href="structoptional.html#a7c9c93a03748f3024d4043b20fa8e958" target="_top" xlink:title=" ">
<polygon fill="none" stroke="black" points="399.5,-354.5 399.5,-373.5 498.5,-373.5 498.5,-354.5 399.5,-354.5"/>
<text text-anchor="middle" x="449" y="-361.5" font-family="Helvetica,sans-Serif" font-size="10.00">optional::has_value</text>
</a>
</g>
</g>
<!-- Node13&#45;&gt;Node15 -->
<g id="edge15" class="edge">
<title>Node13&#45;&gt;Node15</title>
<path fill="none" stroke="midnightblue" d="M342.06,-354.53C357.77,-355.94 374.18,-357.4 389.26,-358.75"/>
<polygon fill="midnightblue" stroke="midnightblue" points="389.2,-362.26 399.47,-359.66 389.82,-355.29 389.2,-362.26"/>
</g>
<!-- Node16 -->
<g id="node16" class="node">
<title>Node16</title>
<g id="a_node16"><a xlink:href="structoptional.html#a5fcd27e1ee81ffc29606ac241349f0c4" target="_top" xlink:title=" ">
<polygon fill="none" stroke="black" points="410,-316.5 410,-335.5 488,-335.5 488,-316.5 410,-316.5"/>
<text text-anchor="middle" x="449" y="-323.5" font-family="Helvetica,sans-Serif" font-size="10.00">optional::value</text>
</a>
</g>
</g>
<!-- Node13&#45;&gt;Node16 -->
<g id="edge16" class="edge">
<title>Node13&#45;&gt;Node16</title>
<path fill="none" stroke="midnightblue" d="M342.06,-339.02C361.46,-336.64 381.92,-334.12 399.63,-331.94"/>
<polygon fill="midnightblue" stroke="midnightblue" points="400.22,-335.4 409.72,-330.71 399.36,-328.45 400.22,-335.4"/>
</g>
<!-- Node18 -->
<g id="node18" class="node">
<title>Node18</title>
<g id="a_node18"><a xlink:href="class_render_pass.html#a7192ec68626bea374e5003f022dfb0a6" target="_top" xlink:title=" ">
<polygon fill="none" stroke="black" points="398.5,-278.5 398.5,-297.5 499.5,-297.5 499.5,-278.5 398.5,-278.5"/>
<text text-anchor="middle" x="449" y="-285.5" font-family="Helvetica,sans-Serif" font-size="10.00">RenderPass::create</text>
</a>
</g>
</g>
<!-- Node17&#45;&gt;Node18 -->
<g id="edge18" class="edge">
<title>Node17&#45;&gt;Node18</title>
<path fill="none" stroke="midnightblue" d="M353.26,-288C365.06,-288 376.99,-288 388.21,-288"/>
<polygon fill="midnightblue" stroke="midnightblue" points="388.29,-291.5 398.29,-288 388.29,-284.5 388.29,-291.5"/>
</g>
<!-- Node20 -->
<g id="node20" class="node">
<title>Node20</title>
<g id="a_node20"><a xlink:href="class_camera.html#ace532766362279c142ff206baa386c65" target="_top" xlink:title=" ">
<polygon fill="none" stroke="black" points="408,-810.5 408,-829.5 490,-829.5 490,-810.5 408,-810.5"/>
<text text-anchor="middle" x="449" y="-817.5" font-family="Helvetica,sans-Serif" font-size="10.00">Camera::create</text>
</a>
</g>
</g>
<!-- Node19&#45;&gt;Node20 -->
<g id="edge20" class="edge">
<title>Node19&#45;&gt;Node20</title>
<path fill="none" stroke="midnightblue" d="M292.33,-740.21C316.1,-755.36 354.3,-778.79 389,-796 396.54,-799.74 404.8,-803.37 412.7,-806.64"/>
<polygon fill="midnightblue" stroke="midnightblue" points="411.5,-809.92 422.08,-810.42 414.11,-803.43 411.5,-809.92"/>
</g>
<!-- Node21 -->
<g id="node21" class="node">
<title>Node21</title>
<g id="a_node21"><a xlink:href="class_material_library.html#afa7d877455a7fa8add2c07027f86aa47" target="_top" xlink:title=" ">
<polygon fill="none" stroke="black" points="393,-734.5 393,-753.5 505,-753.5 505,-734.5 393,-734.5"/>
<text text-anchor="middle" x="449" y="-741.5" font-family="Helvetica,sans-Serif" font-size="10.00">MaterialLibrary::create</text>
</a>
</g>
</g>
<!-- Node19&#45;&gt;Node21 -->
<g id="edge21" class="edge">
<title>Node19&#45;&gt;Node21</title>
<path fill="none" stroke="midnightblue" d="M340,-732.54C354.14,-734.04 368.92,-735.61 382.85,-737.08"/>
<polygon fill="midnightblue" stroke="midnightblue" points="382.51,-740.57 392.82,-738.14 383.25,-733.61 382.51,-740.57"/>
</g>
<!-- Node23 -->
<g id="node23" class="node">
<title>Node23</title>
<g id="a_node23"><a xlink:href="class_scene.html#a26c330284ae1b40d737ac9360cfc61e3" target="_top" xlink:title=" ">
<polygon fill="none" stroke="black" points="411,-848.5 411,-867.5 487,-867.5 487,-848.5 411,-848.5"/>
<text text-anchor="middle" x="449" y="-855.5" font-family="Helvetica,sans-Serif" font-size="10.00">Scene::create</text>
</a>
</g>
</g>
<!-- Node19&#45;&gt;Node23 -->
<g id="edge23" class="edge">
<title>Node19&#45;&gt;Node23</title>
<path fill="none" stroke="midnightblue" d="M281.02,-740.18C300.97,-764.41 343.29,-811.87 389,-839 392.85,-841.29 397.01,-843.33 401.28,-845.15"/>
<polygon fill="midnightblue" stroke="midnightblue" points="400.11,-848.46 410.7,-848.79 402.63,-841.93 400.11,-848.46"/>
</g>
<!-- Node26 -->
<g id="node26" class="node">
<title>Node26</title>
<g id="a_node26"><a xlink:href="class_descriptor_pool_manager.html#ad93c0c73be9346ef8730618a976c54ea" target="_top" xlink:title=" ">
<polygon fill="none" stroke="black" points="545,-773 545,-803 663,-803 663,-773 545,-773"/>
<text text-anchor="start" x="553" y="-791" font-family="Helvetica,sans-Serif" font-size="10.00">DescriptorPoolManager</text>
<text text-anchor="middle" x="604" y="-780" font-family="Helvetica,sans-Serif" font-size="10.00">::create</text>
</a>
</g>
</g>
<!-- Node19&#45;&gt;Node26 -->
<g id="edge36" class="edge">
<title>Node19&#45;&gt;Node26</title>
<path fill="none" stroke="midnightblue" d="M309.85,-740.07C332.82,-748 362.19,-757.24 389,-763 437.15,-773.34 492.37,-779.65 534.65,-783.35"/>
<polygon fill="midnightblue" stroke="midnightblue" points="534.58,-786.86 544.84,-784.21 535.17,-779.88 534.58,-786.86"/>
</g>
<!-- Node28 -->
<g id="node28" class="node">
<title>Node28</title>
<g id="a_node28"><a xlink:href="class_texture_library.html#aa8905251fa5e575eff741fa978eae401" target="_top" xlink:title=" ">
<polygon fill="none" stroke="black" points="394,-696.5 394,-715.5 504,-715.5 504,-696.5 394,-696.5"/>
<text text-anchor="middle" x="449" y="-703.5" font-family="Helvetica,sans-Serif" font-size="10.00">TextureLibrary::create</text>
</a>
</g>
</g>
<!-- Node19&#45;&gt;Node28 -->
<g id="edge31" class="edge">
<title>Node19&#45;&gt;Node28</title>
<path fill="none" stroke="midnightblue" d="M340,-717.46C354.45,-715.93 369.58,-714.32 383.78,-712.82"/>
<polygon fill="midnightblue" stroke="midnightblue" points="384.36,-716.27 393.93,-711.74 383.62,-709.31 384.36,-716.27"/>
</g>
<!-- Node30 -->
<g id="node30" class="node">
<title>Node30</title>
<g id="a_node30"><a xlink:href="class_scene_writer.html#acb5a78e22746b41d03198f028bf76c76" target="_top" xlink:title=" ">
<polygon fill="none" stroke="black" points="398.5,-658.5 398.5,-677.5 499.5,-677.5 499.5,-658.5 398.5,-658.5"/>
<text text-anchor="middle" x="449" y="-665.5" font-family="Helvetica,sans-Serif" font-size="10.00">SceneWriter::create</text>
</a>
</g>
</g>
<!-- Node19&#45;&gt;Node30 -->
<g id="edge33" class="edge">
<title>Node19&#45;&gt;Node30</title>
<path fill="none" stroke="midnightblue" d="M316.5,-709.87C345.19,-700.74 381.32,-689.23 408.45,-680.59"/>
<polygon fill="midnightblue" stroke="midnightblue" points="409.54,-683.92 418.01,-677.55 407.41,-677.25 409.54,-683.92"/>
</g>
<!-- Node31 -->
<g id="node31" class="node">
<title>Node31</title>
<g id="a_node31"><a xlink:href="class_mesh_library.html#ae3c816d442454c82fa75b37698ee7f5d" target="_top" xlink:title=" ">
<polygon fill="none" stroke="black" points="398.5,-620.5 398.5,-639.5 499.5,-639.5 499.5,-620.5 398.5,-620.5"/>
<text text-anchor="middle" x="449" y="-627.5" font-family="Helvetica,sans-Serif" font-size="10.00">MeshLibrary::create</text>
</a>
</g>
</g>
<!-- Node19&#45;&gt;Node31 -->
<g id="edge34" class="edge">
<title>Node19&#45;&gt;Node31</title>
<path fill="none" stroke="midnightblue" d="M289.32,-709.86C312.48,-693.17 351.93,-666.36 389,-649 393.69,-646.8 398.7,-644.76 403.75,-642.89"/>
<polygon fill="midnightblue" stroke="midnightblue" points="405.14,-646.11 413.43,-639.52 402.83,-639.5 405.14,-646.11"/>
</g>
<!-- Node22 -->
<g id="node22" class="node">
<title>Node22</title>
<g id="a_node22"><a xlink:href="class_dynamic_buffer.html#a81621a760b2a80c68fd5c9e94ac37da6" target="_top" xlink:title=" ">
<polygon fill="none" stroke="black" points="548.5,-734.5 548.5,-753.5 659.5,-753.5 659.5,-734.5 548.5,-734.5"/>
<text text-anchor="middle" x="604" y="-741.5" font-family="Helvetica,sans-Serif" font-size="10.00">DynamicBuffer::create</text>
</a>
</g>
</g>
<!-- Node21&#45;&gt;Node22 -->
<g id="edge22" class="edge">
<title>Node21&#45;&gt;Node22</title>
<path fill="none" stroke="midnightblue" d="M505.24,-744C515.87,-744 527.11,-744 538.02,-744"/>
<polygon fill="midnightblue" stroke="midnightblue" points="538.36,-747.5 548.36,-744 538.36,-740.5 538.36,-747.5"/>
</g>
<!-- Node23&#45;&gt;Node3 -->
<g id="edge24" class="edge">
<title>Node23&#45;&gt;Node3</title>
<path fill="none" stroke="midnightblue" d="M470.14,-867.61C489.2,-876.53 518.74,-889.92 545,-900 550.51,-902.12 556.38,-904.21 562.17,-906.19"/>
<polygon fill="midnightblue" stroke="midnightblue" points="561.2,-909.56 571.8,-909.41 563.42,-902.92 561.2,-909.56"/>
</g>
<!-- Node23&#45;&gt;Node22 -->
<g id="edge28" class="edge">
<title>Node23&#45;&gt;Node22</title>
<path fill="none" stroke="midnightblue" d="M487.04,-851.11C494.93,-848.34 502.76,-844.45 509,-839 536.86,-814.69 517.39,-788.59 545,-764 547.35,-761.91 549.93,-760.03 552.66,-758.35"/>
<polygon fill="midnightblue" stroke="midnightblue" points="554.5,-761.33 561.76,-753.61 551.27,-755.12 554.5,-761.33"/>
</g>
<!-- Node24 -->
<g id="node24" class="node">
<title>Node24</title>
<g id="a_node24"><a xlink:href="class_uniform_buffer.html#a1e1a7c734eb7243682f2dfa7e964ee58" target="_top" xlink:title=" ">
<polygon fill="none" stroke="black" points="550,-871.5 550,-890.5 658,-890.5 658,-871.5 550,-871.5"/>
<text text-anchor="middle" x="604" y="-878.5" font-family="Helvetica,sans-Serif" font-size="10.00">UniformBuffer::create</text>
</a>
</g>
</g>
<!-- Node23&#45;&gt;Node24 -->
<g id="edge25" class="edge">
<title>Node23&#45;&gt;Node24</title>
<path fill="none" stroke="midnightblue" d="M487.04,-863.57C502.86,-865.95 521.78,-868.79 539.7,-871.48"/>
<polygon fill="midnightblue" stroke="midnightblue" points="539.41,-874.98 549.82,-873.01 540.45,-868.06 539.41,-874.98"/>
</g>
<!-- Node23&#45;&gt;Node26 -->
<g id="edge29" class="edge">
<title>Node23&#45;&gt;Node26</title>
<path fill="none" stroke="midnightblue" d="M485.98,-848.4C493.75,-845.78 501.8,-842.64 509,-839 526.61,-830.09 527.84,-822.74 545,-813 548.39,-811.08 551.96,-809.2 555.59,-807.41"/>
<polygon fill="midnightblue" stroke="midnightblue" points="557.13,-810.55 564.67,-803.11 554.13,-804.22 557.13,-810.55"/>
</g>
<!-- Node27 -->
<g id="node27" class="node">
<title>Node27</title>
<g id="a_node27"><a xlink:href="class_descriptor_set_layout.html#a1a2b657df46e6453f7a7a3d7863103c2" target="_top" xlink:title=" ">
<polygon fill="none" stroke="black" points="551.5,-822 551.5,-852 656.5,-852 656.5,-822 551.5,-822"/>
<text text-anchor="start" x="559.5" y="-840" font-family="Helvetica,sans-Serif" font-size="10.00">DescriptorSetLayout</text>
<text text-anchor="middle" x="604" y="-829" font-family="Helvetica,sans-Serif" font-size="10.00">::create</text>
</a>
</g>
</g>
<!-- Node23&#45;&gt;Node27 -->
<g id="edge30" class="edge">
<title>Node23&#45;&gt;Node27</title>
<path fill="none" stroke="midnightblue" d="M487.04,-852.92C503.3,-850.68 522.85,-848 541.22,-845.48"/>
<polygon fill="midnightblue" stroke="midnightblue" points="541.84,-848.93 551.27,-844.1 540.89,-841.99 541.84,-848.93"/>
</g>
<!-- Node25 -->
<g id="node25" class="node">
<title>Node25</title>
<g id="a_node25"><a xlink:href="class_buffer.html#a04bbfbb11daccc5656c698c63214aefc" target="_top" xlink:title=" ">
<polygon fill="none" stroke="black" points="699,-871.5 699,-890.5 773,-890.5 773,-871.5 699,-871.5"/>
<text text-anchor="middle" x="736" y="-878.5" font-family="Helvetica,sans-Serif" font-size="10.00">Buffer::create</text>
</a>
</g>
</g>
<!-- Node24&#45;&gt;Node25 -->
<g id="edge26" class="edge">
<title>Node24&#45;&gt;Node25</title>
<path fill="none" stroke="midnightblue" d="M658.25,-881C668.35,-881 678.83,-881 688.69,-881"/>
<polygon fill="midnightblue" stroke="midnightblue" points="688.7,-884.5 698.7,-881 688.7,-877.5 688.7,-884.5"/>
</g>
<!-- Node25&#45;&gt;Node25 -->
<g id="edge27" class="edge">
<title>Node25&#45;&gt;Node25</title>
<path fill="none" stroke="midnightblue" d="M715.65,-890.76C705.76,-899.57 712.54,-909 736,-909 751.03,-909 759.21,-905.13 760.55,-900.03"/>
<polygon fill="midnightblue" stroke="midnightblue" points="763.67,-898.42 756.35,-890.76 757.29,-901.31 763.67,-898.42"/>
</g>
<!-- Node29 -->
<g id="node29" class="node">
<title>Node29</title>
<g id="a_node29"><a xlink:href="class_sampler.html#aa8d6d891475eb30a5b5d8b0d34222656" target="_top" xlink:title=" ">
<polygon fill="none" stroke="black" points="562,-696.5 562,-715.5 646,-715.5 646,-696.5 562,-696.5"/>
<text text-anchor="middle" x="604" y="-703.5" font-family="Helvetica,sans-Serif" font-size="10.00">Sampler::create</text>
</a>
</g>
</g>
<!-- Node28&#45;&gt;Node29 -->
<g id="edge32" class="edge">
<title>Node28&#45;&gt;Node29</title>
<path fill="none" stroke="midnightblue" d="M504.37,-706C519.73,-706 536.38,-706 551.56,-706"/>
<polygon fill="midnightblue" stroke="midnightblue" points="551.79,-709.5 561.79,-706 551.79,-702.5 551.79,-709.5"/>
</g>
<!-- Node32 -->
<g id="node32" class="node">
<title>Node32</title>
<g id="a_node32"><a xlink:href="class_model_loader.html#a31c9aa31bf2d9778696ab75f4431a523" target="_top" xlink:title=" ">
<polygon fill="none" stroke="black" points="552,-620.5 552,-639.5 656,-639.5 656,-620.5 552,-620.5"/>
<text text-anchor="middle" x="604" y="-627.5" font-family="Helvetica,sans-Serif" font-size="10.00">ModelLoader::create</text>
</a>
</g>
</g>
<!-- Node31&#45;&gt;Node32 -->
<g id="edge35" class="edge">
<title>Node31&#45;&gt;Node32</title>
<path fill="none" stroke="midnightblue" d="M499.67,-630C513.09,-630 527.76,-630 541.72,-630"/>
<polygon fill="midnightblue" stroke="midnightblue" points="541.74,-633.5 551.74,-630 541.74,-626.5 541.74,-633.5"/>
</g>
<!-- Node34 -->
<g id="node34" class="node">
<title>Node34</title>
<g id="a_node34"><a xlink:href="class_framebuffer_selector.html#aaeb567a08ff24b698ee8cc569980c937" target="_top" xlink:title=" ">
<polygon fill="none" stroke="black" points="397,-77 397,-107 501,-107 501,-77 397,-77"/>
<text text-anchor="start" x="405" y="-95" font-family="Helvetica,sans-Serif" font-size="10.00">FramebufferSelector</text>
<text text-anchor="middle" x="449" y="-84" font-family="Helvetica,sans-Serif" font-size="10.00">::create</text>
</a>
</g>
</g>
<!-- Node33&#45;&gt;Node34 -->
<g id="edge38" class="edge">
<title>Node33&#45;&gt;Node34</title>
<path fill="none" stroke="midnightblue" d="M336.94,-196.99C342.68,-194.21 348.14,-190.91 353,-187 378.74,-166.31 365.24,-144.93 389,-122 392.68,-118.45 396.86,-115.23 401.26,-112.33"/>
<polygon fill="midnightblue" stroke="midnightblue" points="403.13,-115.28 409.91,-107.14 399.53,-109.28 403.13,-115.28"/>
</g>
<!-- Node35 -->
<g id="node35" class="node">
<title>Node35</title>
<g id="a_node35"><a xlink:href="class_image.html#a729f597dc28bd5261b1860643ed9513f" target="_top" xlink:title=" ">
<polygon fill="none" stroke="black" points="566.5,-104.5 566.5,-123.5 641.5,-123.5 641.5,-104.5 566.5,-104.5"/>
<text text-anchor="middle" x="604" y="-111.5" font-family="Helvetica,sans-Serif" font-size="10.00">Image::create</text>
</a>
</g>
</g>
<!-- Node33&#45;&gt;Node35 -->
<g id="edge41" class="edge">
<title>Node33&#45;&gt;Node35</title>
<path fill="none" stroke="midnightblue" d="M331.28,-196.84C338.81,-194.04 346.22,-190.77 353,-187 371.7,-176.59 369.8,-164.46 389,-155 442.51,-128.62 511.31,-119.18 556.25,-115.83"/>
<polygon fill="midnightblue" stroke="midnightblue" points="556.56,-119.31 566.3,-115.15 556.09,-112.33 556.56,-119.31"/>
</g>
<!-- Node36 -->
<g id="node36" class="node">
<title>Node36</title>
<g id="a_node36"><a xlink:href="class_swap_chain.html#ad6e69feb47cd7d9016c468d2fe01f8af" target="_top" xlink:title=" ">
<polygon fill="none" stroke="black" points="400,-240.5 400,-259.5 498,-259.5 498,-240.5 400,-240.5"/>
<text text-anchor="middle" x="449" y="-247.5" font-family="Helvetica,sans-Serif" font-size="10.00">SwapChain::create</text>
</a>
</g>
</g>
<!-- Node33&#45;&gt;Node36 -->
<g id="edge40" class="edge">
<title>Node33&#45;&gt;Node36</title>
<path fill="none" stroke="midnightblue" d="M338.72,-226.8C356.85,-230.65 376.13,-234.74 393.36,-238.4"/>
<polygon fill="midnightblue" stroke="midnightblue" points="392.74,-241.85 403.25,-240.5 394.19,-235 392.74,-241.85"/>
</g>
<!-- Node37 -->
<g id="node37" class="node">
<title>Node37</title>
<g id="a_node37"><a xlink:href="class_image_view.html#a49f8e14c3fd61c0e19735f7f3c397f94" target="_top" xlink:title=" ">
<polygon fill="none" stroke="black" points="400.5,-202.5 400.5,-221.5 497.5,-221.5 497.5,-202.5 400.5,-202.5"/>
<text text-anchor="middle" x="449" y="-209.5" font-family="Helvetica,sans-Serif" font-size="10.00">ImageView::create</text>
</a>
</g>
</g>
<!-- Node33&#45;&gt;Node37 -->
<g id="edge42" class="edge">
<title>Node33&#45;&gt;Node37</title>
<path fill="none" stroke="midnightblue" d="M338.72,-212C355.63,-212 373.53,-212 389.84,-212"/>
<polygon fill="midnightblue" stroke="midnightblue" points="390.31,-215.5 400.31,-212 390.31,-208.5 390.31,-215.5"/>
</g>
<!-- Node38 -->
<g id="node38" class="node">
<title>Node38</title>
<g id="a_node38"><a xlink:href="class_utils.html#ac44035a9bc80c570cfcd56ded0dad0a5" target="_top" xlink:title=" ">
<polygon fill="none" stroke="black" points="412,-164.5 412,-183.5 486,-183.5 486,-164.5 412,-164.5"/>
<text text-anchor="middle" x="449" y="-171.5" font-family="Helvetica,sans-Serif" font-size="10.00">Utils::remove</text>
</a>
</g>
</g>
<!-- Node33&#45;&gt;Node38 -->
<g id="edge43" class="edge">
<title>Node33&#45;&gt;Node38</title>
<path fill="none" stroke="midnightblue" d="M338.72,-197.2C359.85,-192.71 382.54,-187.9 401.73,-183.82"/>
<polygon fill="midnightblue" stroke="midnightblue" points="402.66,-187.2 411.71,-181.7 401.2,-180.36 402.66,-187.2"/>
</g>
<!-- Node34&#45;&gt;Node35 -->
<g id="edge39" class="edge">
<title>Node34&#45;&gt;Node35</title>
<path fill="none" stroke="midnightblue" d="M501.37,-99.39C518.91,-101.91 538.44,-104.72 555.65,-107.19"/>
<polygon fill="midnightblue" stroke="midnightblue" points="555.63,-110.72 566.03,-108.68 556.63,-103.8 555.63,-110.72"/>
</g>
<!-- Node40 -->
<g id="node40" class="node">
<title>Node40</title>
<g id="a_node40"><a xlink:href="class_u_i_renderer.html#a429d9bebea63cfce81d4179458bac829" target="_top" xlink:title=" ">
<polygon fill="none" stroke="black" points="400,-38.5 400,-57.5 498,-57.5 498,-38.5 400,-38.5"/>
<text text-anchor="middle" x="449" y="-45.5" font-family="Helvetica,sans-Serif" font-size="10.00">UIRenderer::create</text>
</a>
</g>
</g>
<!-- Node39&#45;&gt;Node40 -->
<g id="edge45" class="edge">
<title>Node39&#45;&gt;Node40</title>
<path fill="none" stroke="midnightblue" d="M337.62,-158.35C343.15,-155.87 348.38,-152.8 353,-149 383.45,-124 359.9,-94.56 389,-68 391.32,-65.88 393.88,-63.99 396.58,-62.29"/>
<polygon fill="midnightblue" stroke="midnightblue" points="398.41,-65.28 405.63,-57.53 395.15,-59.09 398.41,-65.28"/>
</g>
<!-- Node41 -->
<g id="node41" class="node">
<title>Node41</title>
<g id="a_node41"><a xlink:href="class_command_buffer.html#aa00b25bc626efb68b5dc810ea91cf41b" target="_top" xlink:title=" ">
<polygon fill="none" stroke="black" points="545,-52.5 545,-71.5 663,-71.5 663,-52.5 545,-52.5"/>
<text text-anchor="middle" x="604" y="-59.5" font-family="Helvetica,sans-Serif" font-size="10.00">CommandBuffer::create</text>
</a>
</g>
</g>
<!-- Node40&#45;&gt;Node41 -->
<g id="edge46" class="edge">
<title>Node40&#45;&gt;Node41</title>
<path fill="none" stroke="midnightblue" d="M498.41,-52.43C509.97,-53.49 522.52,-54.64 534.79,-55.76"/>
<polygon fill="midnightblue" stroke="midnightblue" points="534.72,-59.27 544.99,-56.69 535.35,-52.3 534.72,-59.27"/>
</g>
<!-- Node42 -->
<g id="node42" class="node">
<title>Node42</title>
<g id="a_node42"><a xlink:href="class_descriptor_pool.html#a190f2272d8740c7f7fe13b5b8fb8326c" target="_top" xlink:title=" ">
<polygon fill="none" stroke="black" points="548,-14.5 548,-33.5 660,-33.5 660,-14.5 548,-14.5"/>
<text text-anchor="middle" x="604" y="-21.5" font-family="Helvetica,sans-Serif" font-size="10.00">DescriptorPool::create</text>
</a>
</g>
</g>
<!-- Node40&#45;&gt;Node42 -->
<g id="edge47" class="edge">
<title>Node40&#45;&gt;Node42</title>
<path fill="none" stroke="midnightblue" d="M498.41,-40.41C510.97,-38.44 524.7,-36.28 537.96,-34.2"/>
<polygon fill="midnightblue" stroke="midnightblue" points="538.64,-37.64 547.98,-32.63 537.56,-30.72 538.64,-37.64"/>
</g>
<!-- Node44 -->
<g id="node44" class="node">
<title>Node44</title>
<g id="a_node44"><a xlink:href="class_u_i_renderer.html#aac8d680ed9737849462c758bb0fd3ee7" target="_top" xlink:title=" ">
<polygon fill="none" stroke="black" points="401.5,-0.5 401.5,-19.5 496.5,-19.5 496.5,-0.5 401.5,-0.5"/>
<text text-anchor="middle" x="449" y="-7.5" font-family="Helvetica,sans-Serif" font-size="10.00">UIRenderer::getIO</text>
</a>
</g>
</g>
<!-- Node43&#45;&gt;Node44 -->
<g id="edge49" class="edge">
<title>Node43&#45;&gt;Node44</title>
<path fill="none" stroke="midnightblue" d="M337.64,-120.38C343.16,-117.89 348.39,-114.81 353,-111 383.7,-85.67 359.46,-55.67 389,-29 390.75,-27.42 392.64,-25.97 394.62,-24.64"/>
<polygon fill="midnightblue" stroke="midnightblue" points="396.77,-27.45 403.82,-19.55 393.38,-21.32 396.77,-27.45"/>
</g>
<!-- Node45&#45;&gt;Node44 -->
<g id="edge51" class="edge">
<title>Node45&#45;&gt;Node44</title>
<path fill="none" stroke="midnightblue" d="M333.55,-70.92C340.3,-68.36 346.91,-65.41 353,-62 371.94,-51.4 370.24,-39.91 389,-29 392.66,-26.87 396.59,-24.95 400.63,-23.21"/>
<polygon fill="midnightblue" stroke="midnightblue" points="402.08,-26.4 410.13,-19.52 399.55,-19.88 402.08,-26.4"/>
</g>
</g>
</svg>
        <g id="navigator" transform="translate(0 0)" fill="#404254">
                <rect fill="#f2f5e9" fill-opacity="0.5" stroke="#606060" stroke-width=".5" x="0" y="0" width="60" height="60"/>
                <use id="zoomplus" xlink:href="#zoomPlus" x="17" y="9" onmousedown="handleZoom(evt,'in')"/>
                <use id="zoomminus" xlink:href="#zoomMin" x="42" y="9" onmousedown="handleZoom(evt,'out')"/>
                <use id="reset" xlink:href="#resetDef" x="30" y="36" onmousedown="handleReset()"/>
                <g id="arrowUp" xlink:href="#dirArrow" transform="translate(30 24)" onmousedown="handlePan(0,-1)">
                  <use xlink:href="#rim" fill="#404040">
                        <set attributeName="fill" to="#808080" begin="arrowUp.mouseover" end="arrowUp.mouseout"/>
                  </use>
                  <path fill="none" stroke="white" stroke-width="1.5" d="M0,-3.0v7 M-2.5,-0.5L0,-3.0L2.5,-0.5"/>
                </g>
                <g id="arrowRight" xlink:href="#dirArrow" transform="rotate(90) translate(36 -43)" onmousedown="handlePan(1,0)">
                  <use xlink:href="#rim" fill="#404040">
                        <set attributeName="fill" to="#808080" begin="arrowRight.mouseover" end="arrowRight.mouseout"/>
                  </use>
                  <path fill="none" stroke="white" stroke-width="1.5" d="M0,-3.0v7 M-2.5,-0.5L0,-3.0L2.5,-0.5"/>
                </g>
                <g id="arrowDown" xlink:href="#dirArrow" transform="rotate(180) translate(-30 -48)" onmousedown="handlePan(0,1)">
                  <use xlink:href="#rim" fill="#404040">
                        <set attributeName="fill" to="#808080" begin="arrowDown.mouseover" end="arrowDown.mouseout"/>
                  </use>
                  <path fill="none" stroke="white" stroke-width="1.5" d="M0,-3.0v7 M-2.5,-0.5L0,-3.0L2.5,-0.5"/>
                </g>
                <g id="arrowLeft" xlink:href="#dirArrow" transform="rotate(270) translate(-36 17)" onmousedown="handlePan(-1,0)">
                  <use xlink:href="#rim" fill="#404040">
                        <set attributeName="fill" to="#808080" begin="arrowLeft.mouseover" end="arrowLeft.mouseout"/>
                  </use>
                  <path fill="none" stroke="white" stroke-width="1.5" d="M0,-3.0v7 M-2.5,-0.5L0,-3.0L2.5,-0.5"/>
                </g>
        </g>
        <svg viewBox="0 0 15 15" width="100%" height="30px" preserveAspectRatio="xMaxYMin meet">
         <g id="arrow_out" transform="scale(0.3 0.3)">
          <a xlink:href="class_render_manager_a2f5991e4b82925a2571e6fabf1e8b7b9_cgraph_org.svg" target="_base">
           <rect id="button" ry="5" rx="5" y="6" x="6" height="38" width="38"
                fill="#f2f5e9" fill-opacity="0.5" stroke="#606060" stroke-width="1.0"/>
           <path id="arrow"
             d="M 11.500037,31.436501 C 11.940474,20.09759 22.043105,11.32322 32.158766,21.979434 L 37.068811,17.246167 C 37.068811,17.246167 37.088388,32 37.088388,32 L 22.160133,31.978069 C 22.160133,31.978069 26.997745,27.140456 26.997745,27.140456 C 18.528582,18.264221 13.291696,25.230495 11.500037,31.436501 z"
             style="fill:#404040;"/>
          </a>
         </g>
        </svg>
</svg>
