<?xml version="1.0" encoding="UTF-8" standalone="no"?>
<!DOCTYPE svg PUBLIC "-//W3C//DTD SVG 1.1//EN"
 "http://www.w3.org/Graphics/SVG/1.1/DTD/svg11.dtd">
<!-- Generated by graphviz version 2.49.3 (20211215.1918)
 -->
<!-- Title: MandelbrotApp::mainLoop Pages: 1 -->
<svg width="527pt" height="127pt"
 viewBox="0.00 0.00 527.00 126.50" xmlns="http://www.w3.org/2000/svg" xmlns:xlink="http://www.w3.org/1999/xlink">
<g id="graph0" class="graph" transform="scale(1 1) rotate(0) translate(4 122.5)">
<title>MandelbrotApp::mainLoop</title>
<!-- Node1 -->
<g id="node1" class="node">
<title>Node1</title>
<g id="a_node1"><a xlink:title=" ">
<polygon fill="#bfbfbf" stroke="black" points="0,-25.5 0,-44.5 129,-44.5 129,-25.5 0,-25.5"/>
<text text-anchor="middle" x="64.5" y="-32.5" font-family="Helvetica,sans-Serif" font-size="10.00">MandelbrotApp::mainLoop</text>
</a>
</g>
</g>
<!-- Node2 -->
<g id="node2" class="node">
<title>Node2</title>
<g id="a_node2"><a xlink:href="class_mandelbrot_app.html#ab3ce0f5ab6d2fb792b5217ceb4ffdc2d" target="_top" xlink:title=" ">
<polygon fill="none" stroke="black" points="172,-44.5 172,-63.5 307,-63.5 307,-44.5 172,-44.5"/>
<text text-anchor="middle" x="239.5" y="-51.5" font-family="Helvetica,sans-Serif" font-size="10.00">MandelbrotApp::drawFrame</text>
</a>
</g>
</g>
<!-- Node1&#45;&gt;Node2 -->
<g id="edge1" class="edge">
<title>Node1&#45;&gt;Node2</title>
<path fill="none" stroke="midnightblue" d="M129.43,-42.02C139.93,-43.17 150.91,-44.38 161.69,-45.56"/>
<polygon fill="midnightblue" stroke="midnightblue" points="161.62,-49.08 171.94,-46.69 162.38,-42.12 161.62,-49.08"/>
</g>
<!-- Node6 -->
<g id="node6" class="node">
<title>Node6</title>
<g id="a_node6"><a xlink:href="class_mandelbrot_app.html#af6bdb42f4466ab66b21086106d6468ba" target="_top" xlink:title=" ">
<polygon fill="none" stroke="black" points="165,-6.5 165,-25.5 314,-25.5 314,-6.5 165,-6.5"/>
<text text-anchor="middle" x="239.5" y="-13.5" font-family="Helvetica,sans-Serif" font-size="10.00">MandelbrotApp::updateObjects</text>
</a>
</g>
</g>
<!-- Node1&#45;&gt;Node6 -->
<g id="edge5" class="edge">
<title>Node1&#45;&gt;Node6</title>
<path fill="none" stroke="midnightblue" d="M129.43,-27.98C137.73,-27.07 146.33,-26.12 154.89,-25.18"/>
<polygon fill="midnightblue" stroke="midnightblue" points="155.35,-28.65 164.91,-24.08 154.58,-21.7 155.35,-28.65"/>
</g>
<!-- Node3 -->
<g id="node3" class="node">
<title>Node3</title>
<g id="a_node3"><a xlink:href="class_mandelbrot_app.html#ad980d3f644d7157d7a092bac9f8986f5" target="_top" xlink:title=" ">
<polygon fill="none" stroke="black" points="366.5,-88 366.5,-118 502.5,-118 502.5,-88 366.5,-88"/>
<text text-anchor="start" x="374.5" y="-106" font-family="Helvetica,sans-Serif" font-size="10.00">MandelbrotApp::getAverage</text>
<text text-anchor="middle" x="434.5" y="-95" font-family="Helvetica,sans-Serif" font-size="10.00">Framerate</text>
</a>
</g>
</g>
<!-- Node2&#45;&gt;Node3 -->
<g id="edge2" class="edge">
<title>Node2&#45;&gt;Node3</title>
<path fill="none" stroke="midnightblue" d="M278.17,-63.56C302.71,-69.79 335.46,-78.11 364.56,-85.5"/>
<polygon fill="midnightblue" stroke="midnightblue" points="363.72,-88.89 374.27,-87.96 365.44,-82.11 363.72,-88.89"/>
</g>
<!-- Node4 -->
<g id="node4" class="node">
<title>Node4</title>
<g id="a_node4"><a xlink:href="class_mandelbrot_app.html#a1ef118b77009ffff5b744dfdcd2a81a7" target="_top" xlink:title=" ">
<polygon fill="none" stroke="black" points="359.5,-39 359.5,-69 509.5,-69 509.5,-39 359.5,-39"/>
<text text-anchor="start" x="367.5" y="-57" font-family="Helvetica,sans-Serif" font-size="10.00">MandelbrotApp::updateUniform</text>
<text text-anchor="middle" x="434.5" y="-46" font-family="Helvetica,sans-Serif" font-size="10.00">Buffer</text>
</a>
</g>
</g>
<!-- Node2&#45;&gt;Node4 -->
<g id="edge3" class="edge">
<title>Node2&#45;&gt;Node4</title>
<path fill="none" stroke="midnightblue" d="M307.19,-54C320.69,-54 335.06,-54 349.08,-54"/>
<polygon fill="midnightblue" stroke="midnightblue" points="349.21,-57.5 359.21,-54 349.21,-50.5 349.21,-57.5"/>
</g>
<!-- Node5 -->
<g id="node5" class="node">
<title>Node5</title>
<g id="a_node5"><a xlink:href="class_mandelbrot_app.html#a6f6996cd05102ca8f631a075ea2cda23" target="_top" xlink:title=" ">
<polygon fill="none" stroke="black" points="350,-0.5 350,-19.5 519,-19.5 519,-0.5 350,-0.5"/>
<text text-anchor="middle" x="434.5" y="-7.5" font-family="Helvetica,sans-Serif" font-size="10.00">MandelbrotApp::updateWindowSize</text>
</a>
</g>
</g>
<!-- Node2&#45;&gt;Node5 -->
<g id="edge4" class="edge">
<title>Node2&#45;&gt;Node5</title>
<path fill="none" stroke="midnightblue" d="M282.38,-44.45C311.59,-37.79 350.76,-28.86 381.9,-21.76"/>
<polygon fill="midnightblue" stroke="midnightblue" points="382.73,-25.16 391.7,-19.53 381.18,-18.34 382.73,-25.16"/>
</g>
</g>
</svg>
