<?xml version="1.0" encoding="UTF-8" standalone="no"?>
<!DOCTYPE svg PUBLIC "-//W3C//DTD SVG 1.1//EN"
 "http://www.w3.org/Graphics/SVG/1.1/DTD/svg11.dtd">
<!-- Generated by graphviz version 2.50.0 (20220203.2022)
 -->
<!-- Title: ModelLoader::loadMaterialTextures Pages: 1 -->
<svg width="430pt" height="84pt"
 viewBox="0.00 0.00 430.00 84.00" xmlns="http://www.w3.org/2000/svg" xmlns:xlink="http://www.w3.org/1999/xlink">
<g id="graph0" class="graph" transform="scale(1 1) rotate(0) translate(4 80)">
<title>ModelLoader::loadMaterialTextures</title>
<!-- Node1 -->
<g id="node1" class="node">
<title>Node1</title>
<g id="a_node1"><a xlink:title=" ">
<polygon fill="#bfbfbf" stroke="black" points="0,-14 0,-44 130,-44 130,-14 0,-14"/>
<text text-anchor="start" x="8" y="-32" font-family="Helvetica,sans-Serif" font-size="10.00">ModelLoader::loadMaterial</text>
<text text-anchor="middle" x="65" y="-21" font-family="Helvetica,sans-Serif" font-size="10.00">Textures</text>
</a>
</g>
</g>
<!-- Node2 -->
<g id="node2" class="node">
<title>Node2</title>
<g id="a_node2"><a xlink:href="utils_8h.html#a6a2854f5473fd18643d94cf402923b91" target="_top" xlink:title=" ">
<polygon fill="none" stroke="black" points="215,-38.5 215,-57.5 253,-57.5 253,-38.5 215,-38.5"/>
<text text-anchor="middle" x="234" y="-45.5" font-family="Helvetica,sans-Serif" font-size="10.00">hash</text>
</a>
</g>
</g>
<!-- Node1&#45;&gt;Node2 -->
<g id="edge1" class="edge">
<title>Node1&#45;&gt;Node2</title>
<path fill="none" stroke="midnightblue" d="M130.09,-36.29C155.82,-39.22 184.15,-42.44 204.56,-44.76"/>
<polygon fill="midnightblue" stroke="midnightblue" points="204.41,-48.27 214.74,-45.92 205.2,-41.31 204.41,-48.27"/>
</g>
<!-- Node3 -->
<g id="node3" class="node">
<title>Node3</title>
<g id="a_node3"><a xlink:href="class_model_loader.html#abee32c37f14a536778540124bd265e55" target="_top" xlink:title=" ">
<polygon fill="none" stroke="black" points="166,-0.5 166,-19.5 302,-19.5 302,-0.5 166,-0.5"/>
<text text-anchor="middle" x="234" y="-7.5" font-family="Helvetica,sans-Serif" font-size="10.00">ModelLoader::locateTexture</text>
</a>
</g>
</g>
<!-- Node1&#45;&gt;Node3 -->
<g id="edge3" class="edge">
<title>Node1&#45;&gt;Node3</title>
<path fill="none" stroke="midnightblue" d="M130.09,-21.71C138.49,-20.75 147.16,-19.77 155.74,-18.79"/>
<polygon fill="midnightblue" stroke="midnightblue" points="156.22,-22.26 165.76,-17.65 155.43,-15.3 156.22,-22.26"/>
</g>
<!-- Node2&#45;&gt;Node2 -->
<g id="edge2" class="edge">
<title>Node2&#45;&gt;Node2</title>
<path fill="none" stroke="midnightblue" d="M214.81,-55.46C199.37,-64.83 205.77,-76 234,-76 255.17,-76 264.06,-69.72 260.67,-62.62"/>
<polygon fill="midnightblue" stroke="midnightblue" points="262.83,-59.84 253.19,-55.46 257.99,-64.9 262.83,-59.84"/>
</g>
<!-- Node4 -->
<g id="node4" class="node">
<title>Node4</title>
<g id="a_node4"><a xlink:href="class_utils.html#a781b3b509ea8ae61b33eee133a0b262c" target="_top" xlink:title=" ">
<polygon fill="none" stroke="black" points="338,-0.5 338,-19.5 422,-19.5 422,-0.5 338,-0.5"/>
<text text-anchor="middle" x="380" y="-7.5" font-family="Helvetica,sans-Serif" font-size="10.00">Utils::replaceAll</text>
</a>
</g>
</g>
<!-- Node3&#45;&gt;Node4 -->
<g id="edge4" class="edge">
<title>Node3&#45;&gt;Node4</title>
<path fill="none" stroke="midnightblue" d="M302.36,-10C310.91,-10 319.54,-10 327.77,-10"/>
<polygon fill="midnightblue" stroke="midnightblue" points="327.95,-13.5 337.95,-10 327.95,-6.5 327.95,-13.5"/>
</g>
</g>
</svg>
