<?xml version="1.0" encoding="UTF-8" standalone="no"?>
<!DOCTYPE svg PUBLIC "-//W3C//DTD SVG 1.1//EN"
 "http://www.w3.org/Graphics/SVG/1.1/DTD/svg11.dtd">
<!-- Generated by graphviz version 2.50.0 (20220203.2022)
 -->
<!-- Title: DescriptorPoolManager::create Pages: 1 -->
<svg width="598pt" height="78pt"
 viewBox="0.00 0.00 598.00 77.50" xmlns="http://www.w3.org/2000/svg" xmlns:xlink="http://www.w3.org/1999/xlink">
<g id="graph0" class="graph" transform="scale(1 1) rotate(0) translate(4 73.5)">
<title>DescriptorPoolManager::create</title>
<!-- Node1 -->
<g id="node1" class="node">
<title>Node1</title>
<g id="a_node1"><a xlink:title=" ">
<polygon fill="#bfbfbf" stroke="black" points="472,-20 472,-50 590,-50 590,-20 472,-20"/>
<text text-anchor="start" x="480" y="-38" font-family="Helvetica,sans-Serif" font-size="10.00">DescriptorPoolManager</text>
<text text-anchor="middle" x="531" y="-27" font-family="Helvetica,sans-Serif" font-size="10.00">::create</text>
</a>
</g>
</g>
<!-- Node2 -->
<g id="node2" class="node">
<title>Node2</title>
<g id="a_node2"><a xlink:href="class_render_manager.html#af9f33ffbf6fa771b2a2132b4bd33de06" target="_top" xlink:title=" ">
<polygon fill="none" stroke="black" points="184,-39 184,-69 323,-69 323,-39 184,-39"/>
<text text-anchor="start" x="192" y="-57" font-family="Helvetica,sans-Serif" font-size="10.00">RenderManager::crateScene</text>
<text text-anchor="middle" x="253.5" y="-46" font-family="Helvetica,sans-Serif" font-size="10.00">Objects</text>
</a>
</g>
</g>
<!-- Node1&#45;&gt;Node2 -->
<g id="edge1" class="edge">
<title>Node1&#45;&gt;Node2</title>
<path fill="none" stroke="midnightblue" d="M461.72,-39.71C419.51,-42.62 365.51,-46.34 323.22,-49.26"/>
<polygon fill="midnightblue" stroke="midnightblue" points="462.17,-43.19 471.91,-39.01 461.69,-36.2 462.17,-43.19"/>
</g>
<!-- Node4 -->
<g id="node4" class="node">
<title>Node4</title>
<g id="a_node4"><a xlink:href="class_scene.html#a26c330284ae1b40d737ac9360cfc61e3" target="_top" xlink:title=" ">
<polygon fill="none" stroke="black" points="360,-6.5 360,-25.5 436,-25.5 436,-6.5 360,-6.5"/>
<text text-anchor="middle" x="398" y="-13.5" font-family="Helvetica,sans-Serif" font-size="10.00">Scene::create</text>
</a>
</g>
</g>
<!-- Node1&#45;&gt;Node4 -->
<g id="edge3" class="edge">
<title>Node1&#45;&gt;Node4</title>
<path fill="none" stroke="midnightblue" d="M461.87,-25.12C453.09,-23.85 444.37,-22.58 436.35,-21.42"/>
<polygon fill="midnightblue" stroke="midnightblue" points="461.38,-28.58 471.78,-26.56 462.38,-21.66 461.38,-28.58"/>
</g>
<!-- Node3 -->
<g id="node3" class="node">
<title>Node3</title>
<g id="a_node3"><a xlink:href="class_render_manager.html#a2f5991e4b82925a2571e6fabf1e8b7b9" target="_top" xlink:title=" ">
<polygon fill="none" stroke="black" points="0,-39 0,-69 147,-69 147,-39 0,-39"/>
<text text-anchor="start" x="8" y="-57" font-family="Helvetica,sans-Serif" font-size="10.00">RenderManager::createRender</text>
<text text-anchor="middle" x="73.5" y="-46" font-family="Helvetica,sans-Serif" font-size="10.00">Objects</text>
</a>
</g>
</g>
<!-- Node2&#45;&gt;Node3 -->
<g id="edge2" class="edge">
<title>Node2&#45;&gt;Node3</title>
<path fill="none" stroke="midnightblue" d="M173.67,-54C164.85,-54 155.9,-54 147.16,-54"/>
<polygon fill="midnightblue" stroke="midnightblue" points="173.94,-57.5 183.94,-54 173.94,-50.5 173.94,-57.5"/>
</g>
<!-- Node4&#45;&gt;Node2 -->
<g id="edge4" class="edge">
<title>Node4&#45;&gt;Node2</title>
<path fill="none" stroke="midnightblue" d="M351.1,-28.24C338.32,-31.65 324.29,-35.39 310.97,-38.94"/>
<polygon fill="midnightblue" stroke="midnightblue" points="352.28,-31.55 361.04,-25.59 350.48,-24.78 352.28,-31.55"/>
</g>
<!-- Node5 -->
<g id="node5" class="node">
<title>Node5</title>
<g id="a_node5"><a xlink:href="class_mandelbrot_app.html#a9adbc757b127cc20ef8fe983bd29ebbb" target="_top" xlink:title=" ">
<polygon fill="none" stroke="black" points="183,-0.5 183,-19.5 324,-19.5 324,-0.5 183,-0.5"/>
<text text-anchor="middle" x="253.5" y="-7.5" font-family="Helvetica,sans-Serif" font-size="10.00">MandelbrotApp::createScene</text>
</a>
</g>
</g>
<!-- Node4&#45;&gt;Node5 -->
<g id="edge5" class="edge">
<title>Node4&#45;&gt;Node5</title>
<path fill="none" stroke="midnightblue" d="M349.83,-14.01C341.62,-13.67 332.92,-13.3 324.26,-12.94"/>
<polygon fill="midnightblue" stroke="midnightblue" points="349.79,-17.52 359.93,-14.44 350.09,-10.52 349.79,-17.52"/>
</g>
<!-- Node6 -->
<g id="node6" class="node">
<title>Node6</title>
<g id="a_node6"><a xlink:href="class_mandelbrot_app.html#ad5c4a7e7fd79bc75fea87df0165005b6" target="_top" xlink:title=" ">
<polygon fill="none" stroke="black" points="9,-0.5 9,-19.5 138,-19.5 138,-0.5 9,-0.5"/>
<text text-anchor="middle" x="73.5" y="-7.5" font-family="Helvetica,sans-Serif" font-size="10.00">MandelbrotApp::initVulkan</text>
</a>
</g>
</g>
<!-- Node5&#45;&gt;Node6 -->
<g id="edge6" class="edge">
<title>Node5&#45;&gt;Node6</title>
<path fill="none" stroke="midnightblue" d="M172.81,-10C161.23,-10 149.44,-10 138.23,-10"/>
<polygon fill="midnightblue" stroke="midnightblue" points="172.92,-13.5 182.92,-10 172.92,-6.5 172.92,-13.5"/>
</g>
</g>
</svg>
