<?xml version="1.0" encoding="UTF-8" standalone="no"?>
<!DOCTYPE svg PUBLIC "-//W3C//DTD SVG 1.1//EN"
 "http://www.w3.org/Graphics/SVG/1.1/DTD/svg11.dtd">
<!-- Generated by graphviz version 2.50.0 (20220203.2022)
 -->
<!-- Title: VoxelFragmentStreamBuffered&lt; FragmentType &gt; Pages: 1 -->
<svg width="199pt" height="559pt"
 viewBox="0.00 0.00 198.50 559.00" xmlns="http://www.w3.org/2000/svg" xmlns:xlink="http://www.w3.org/1999/xlink">
<g id="graph0" class="graph" transform="scale(1 1) rotate(0) translate(4 555)">
<title>VoxelFragmentStreamBuffered&lt; FragmentType &gt;</title>
<!-- Node1 -->
<g id="node1" class="node">
<title>Node1</title>
<g id="a_node1"><a xlink:title=" ">
<polygon fill="#bfbfbf" stroke="black" points="17.5,-255.5 17.5,-356.5 169.5,-356.5 169.5,-255.5 17.5,-255.5"/>
<text text-anchor="start" x="25.5" y="-344.5" font-family="Helvetica,sans-Serif" font-size="10.00">VoxelFragmentStreamBuffered</text>
<text text-anchor="middle" x="93.5" y="-333.5" font-family="Helvetica,sans-Serif" font-size="10.00">&lt; FragmentType &gt;</text>
<polyline fill="none" stroke="black" points="17.5,-326.5 169.5,-326.5 "/>
<text text-anchor="start" x="25.5" y="-314.5" font-family="Helvetica,sans-Serif" font-size="10.00">&#45; data</text>
<polyline fill="none" stroke="black" points="17.5,-307.5 169.5,-307.5 "/>
<text text-anchor="start" x="25.5" y="-295.5" font-family="Helvetica,sans-Serif" font-size="10.00">+ getCurrentVoxelFragment()</text>
<text text-anchor="start" x="25.5" y="-284.5" font-family="Helvetica,sans-Serif" font-size="10.00">+ getNextVoxelFragment()</text>
<text text-anchor="start" x="25.5" y="-273.5" font-family="Helvetica,sans-Serif" font-size="10.00">+ refreshCurrentVoxelFragment</text>
<text text-anchor="start" x="25.5" y="-262.5" font-family="Helvetica,sans-Serif" font-size="10.00">Data()</text>
</a>
</g>
</g>
<!-- Node3 -->
<g id="node3" class="node">
<title>Node3</title>
<g id="a_node3"><a xlink:href="class_voxel_fragment_stream_buffered.html" target="_top" xlink:title=" ">
<polygon fill="none" stroke="black" points="17.5,-106.5 17.5,-207.5 169.5,-207.5 169.5,-106.5 17.5,-106.5"/>
<text text-anchor="start" x="25.5" y="-195.5" font-family="Helvetica,sans-Serif" font-size="10.00">VoxelFragmentStreamBuffered</text>
<text text-anchor="middle" x="93.5" y="-184.5" font-family="Helvetica,sans-Serif" font-size="10.00">&lt; FragmentTypeOut &gt;</text>
<polyline fill="none" stroke="black" points="17.5,-177.5 169.5,-177.5 "/>
<text text-anchor="start" x="25.5" y="-165.5" font-family="Helvetica,sans-Serif" font-size="10.00">&#45; data</text>
<polyline fill="none" stroke="black" points="17.5,-158.5 169.5,-158.5 "/>
<text text-anchor="start" x="25.5" y="-146.5" font-family="Helvetica,sans-Serif" font-size="10.00">+ getCurrentVoxelFragment()</text>
<text text-anchor="start" x="25.5" y="-135.5" font-family="Helvetica,sans-Serif" font-size="10.00">+ getNextVoxelFragment()</text>
<text text-anchor="start" x="25.5" y="-124.5" font-family="Helvetica,sans-Serif" font-size="10.00">+ refreshCurrentVoxelFragment</text>
<text text-anchor="start" x="25.5" y="-113.5" font-family="Helvetica,sans-Serif" font-size="10.00">Data()</text>
</a>
</g>
</g>
<!-- Node1&#45;&gt;Node3 -->
<g id="edge2" class="edge">
<title>Node1&#45;&gt;Node3</title>
<path fill="none" stroke="orange" d="M93.5,-244.99C93.5,-232.6 93.5,-219.69 93.5,-207.72"/>
<polygon fill="orange" stroke="orange" points="90,-245.23 93.5,-255.23 97,-245.23 90,-245.23"/>
<text text-anchor="middle" x="142" y="-229" font-family="Helvetica,sans-Serif" font-size="10.00"> &lt; FragmentTypeOut &gt;</text>
</g>
<!-- Node2 -->
<g id="node2" class="node">
<title>Node2</title>
<g id="a_node2"><a xlink:href="class_voxel_fragment_stream_base.html" target="_top" xlink:title=" ">
<polygon fill="none" stroke="black" points="16,-394.5 16,-550.5 171,-550.5 171,-394.5 16,-394.5"/>
<text text-anchor="middle" x="93.5" y="-538.5" font-family="Helvetica,sans-Serif" font-size="10.00">VoxelFragmentStreamBase</text>
<polyline fill="none" stroke="black" points="16,-531.5 171,-531.5 "/>
<text text-anchor="start" x="24" y="-519.5" font-family="Helvetica,sans-Serif" font-size="10.00"># voxelIndex</text>
<text text-anchor="start" x="24" y="-508.5" font-family="Helvetica,sans-Serif" font-size="10.00"># codec</text>
<polyline fill="none" stroke="black" points="16,-501.5 171,-501.5 "/>
<text text-anchor="start" x="24" y="-489.5" font-family="Helvetica,sans-Serif" font-size="10.00">+ getVoxelIndex()</text>
<text text-anchor="start" x="24" y="-478.5" font-family="Helvetica,sans-Serif" font-size="10.00">+ setVoxelIndex()</text>
<text text-anchor="start" x="24" y="-467.5" font-family="Helvetica,sans-Serif" font-size="10.00">+ skipVoxel()</text>
<text text-anchor="start" x="24" y="-456.5" font-family="Helvetica,sans-Serif" font-size="10.00">+ skipVoxels()</text>
<text text-anchor="start" x="24" y="-445.5" font-family="Helvetica,sans-Serif" font-size="10.00">+ getCurrentVoxelFragment()</text>
<text text-anchor="start" x="24" y="-434.5" font-family="Helvetica,sans-Serif" font-size="10.00">+ getNextVoxelFragment()</text>
<text text-anchor="start" x="24" y="-423.5" font-family="Helvetica,sans-Serif" font-size="10.00">+ refreshCurrentVoxelFragment</text>
<text text-anchor="start" x="24" y="-412.5" font-family="Helvetica,sans-Serif" font-size="10.00">Data()</text>
<text text-anchor="start" x="24" y="-401.5" font-family="Helvetica,sans-Serif" font-size="10.00">+ ~VoxelFragmentStreamBase()</text>
</a>
</g>
</g>
<!-- Node2&#45;&gt;Node1 -->
<g id="edge1" class="edge">
<title>Node2&#45;&gt;Node1</title>
<path fill="none" stroke="midnightblue" d="M93.5,-383.96C93.5,-374.66 93.5,-365.46 93.5,-356.82"/>
<polygon fill="none" stroke="midnightblue" points="90,-384.07 93.5,-394.07 97,-384.07 90,-384.07"/>
</g>
<!-- Node4 -->
<g id="node4" class="node">
<title>Node4</title>
<g id="a_node4"><a xlink:href="class_voxel_fragment_stream_type_converting.html" target="_top" xlink:title=" ">
<polygon fill="none" stroke="black" points="0,-0.5 0,-68.5 187,-68.5 187,-0.5 0,-0.5"/>
<text text-anchor="start" x="8" y="-56.5" font-family="Helvetica,sans-Serif" font-size="10.00">VoxelFragmentStreamTypeConverting</text>
<text text-anchor="middle" x="93.5" y="-45.5" font-family="Helvetica,sans-Serif" font-size="10.00">&lt; FragmentTypeIn, FragmentTypeOut &gt;</text>
<polyline fill="none" stroke="black" points="0,-38.5 187,-38.5 "/>
<text text-anchor="middle" x="93.5" y="-26.5" font-family="Helvetica,sans-Serif" font-size="10.00"> </text>
<polyline fill="none" stroke="black" points="0,-19.5 187,-19.5 "/>
<text text-anchor="middle" x="93.5" y="-7.5" font-family="Helvetica,sans-Serif" font-size="10.00"> </text>
</a>
</g>
</g>
<!-- Node3&#45;&gt;Node4 -->
<g id="edge3" class="edge">
<title>Node3&#45;&gt;Node4</title>
<path fill="none" stroke="midnightblue" d="M93.5,-96.07C93.5,-86.61 93.5,-77.14 93.5,-68.59"/>
<polygon fill="none" stroke="midnightblue" points="90,-96.29 93.5,-106.29 97,-96.29 90,-96.29"/>
</g>
</g>
</svg>
