<?xml version="1.0" encoding="UTF-8" standalone="no"?>
<!DOCTYPE svg PUBLIC "-//W3C//DTD SVG 1.1//EN"
 "http://www.w3.org/Graphics/SVG/1.1/DTD/svg11.dtd">
<!-- Generated by graphviz version 3.0.0 (20220413.0106)
 -->
<!-- Title: RenderManager::resizeSwapChain Pages: 1 -->
<!--zoomable 748 -->
<svg id="main" version="1.1" xmlns="http://www.w3.org/2000/svg" xmlns:xlink="http://www.w3.org/1999/xlink" xml:space="preserve" onload="init(evt)">
<style type="text/css"><![CDATA[
.edge:hover path { stroke: red; }
.edge:hover polygon { stroke: red; fill: red; }
]]></style>
<script type="text/javascript"><![CDATA[
var edges = document.getElementsByTagName('g');
if (edges && edges.length) {
  for (var i=0;i<edges.length;i++) {
    if (edges[i].id.substr(0,4)=='edge') {
      edges[i].setAttribute('class','edge');
    }
  }
}
]]></script>
        <defs>
                <circle id="rim" cx="0" cy="0" r="7"/>
                <circle id="rim2" cx="0" cy="0" r="3.5"/>
                <g id="zoomPlus">
                        <use xlink:href="#rim" fill="#404040">
                                <set attributeName="fill" to="#808080" begin="zoomplus.mouseover" end="zoomplus.mouseout"/>
                        </use>
                        <path d="M-4,0h8M0,-4v8" fill="none" stroke="white" stroke-width="1.5" pointer-events="none"/>
                </g>
                <g id="zoomMin">
                        <use xlink:href="#rim" fill="#404040">
                                <set attributeName="fill" to="#808080" begin="zoomminus.mouseover" end="zoomminus.mouseout"/>
                        </use>
                        <path d="M-4,0h8" fill="none" stroke="white" stroke-width="1.5" pointer-events="none"/>
                </g>
                <g id="dirArrow">
                        <path fill="none" stroke="white" stroke-width="1.5" d="M0,-3.0v7 M-2.5,-0.5L0,-3.0L2.5,-0.5"/>
                </g>
               <g id="resetDef">
                       <use xlink:href="#rim2" fill="#404040">
                               <set attributeName="fill" to="#808080" begin="reset.mouseover" end="reset.mouseout"/>
                       </use>
               </g>
        </defs>

<script type="text/javascript">
var viewWidth = 1046;
var viewHeight = 748;
var sectionId = 'dynsection-36';
</script>
<script xlink:href="svgpan.js"/>
<svg id="graph" class="graph">
<g id="viewport">
<title>RenderManager::resizeSwapChain</title>
<!-- Node1 -->
<g id="node1" class="node">
<title>Node1</title>
<g id="a_node1"><a xlink:title=" ">
<polygon fill="#bfbfbf" stroke="black" points="0,-157 0,-187 140,-187 140,-157 0,-157"/>
<text text-anchor="start" x="8" y="-175" font-family="Helvetica,sans-Serif" font-size="10.00">RenderManager::resizeSwap</text>
<text text-anchor="middle" x="70" y="-164" font-family="Helvetica,sans-Serif" font-size="10.00">Chain</text>
</a>
</g>
</g>
<!-- Node2 -->
<g id="node2" class="node">
<title>Node2</title>
<g id="a_node2"><a xlink:href="class_render_manager.html#a3e54c122912e1b713b2f6357cdc370fb" target="_top" xlink:title=" ">
<polygon fill="none" stroke="black" points="176,-157 176,-187 325,-187 325,-157 176,-157"/>
<text text-anchor="start" x="184" y="-175" font-family="Helvetica,sans-Serif" font-size="10.00">RenderManager::recreateSwap</text>
<text text-anchor="middle" x="250.5" y="-164" font-family="Helvetica,sans-Serif" font-size="10.00">Chain</text>
</a>
</g>
</g>
<!-- Node1&#45;&gt;Node2 -->
<g id="edge1" class="edge">
<title>Node1&#45;&gt;Node2</title>
<path fill="none" stroke="midnightblue" d="M140.01,-172C148.47,-172 157.19,-172 165.84,-172"/>
<polygon fill="midnightblue" stroke="midnightblue" points="165.94,-175.5 175.94,-172 165.94,-168.5 165.94,-175.5"/>
</g>
<!-- Node3 -->
<g id="node3" class="node">
<title>Node3</title>
<g id="a_node3"><a xlink:href="class_render_manager.html#a387a4eac54081b4e58978e5a97b7c3f3" target="_top" xlink:title=" ">
<polygon fill="none" stroke="black" points="372.5,-627 372.5,-657 519.5,-657 519.5,-627 372.5,-627"/>
<text text-anchor="start" x="380.5" y="-645" font-family="Helvetica,sans-Serif" font-size="10.00">RenderManager::createDefault</text>
<text text-anchor="middle" x="446" y="-634" font-family="Helvetica,sans-Serif" font-size="10.00">MaterialLayout</text>
</a>
</g>
</g>
<!-- Node2&#45;&gt;Node3 -->
<g id="edge2" class="edge">
<title>Node2&#45;&gt;Node3</title>
<path fill="none" stroke="midnightblue" d="M256.6,-187.24C271.42,-231.16 316.28,-361.65 361,-467 384.25,-521.77 415.39,-584.24 432.47,-617.73"/>
<polygon fill="midnightblue" stroke="midnightblue" points="429.43,-619.46 437.1,-626.77 435.66,-616.27 429.43,-619.46"/>
</g>
<!-- Node10 -->
<g id="node10" class="node">
<title>Node10</title>
<g id="a_node10"><a xlink:href="class_render_manager.html#aa6e12fa2f425700718eec18fb52a1ef8" target="_top" xlink:title=" ">
<polygon fill="none" stroke="black" points="374,-133 374,-163 518,-163 518,-133 374,-133"/>
<text text-anchor="start" x="382" y="-151" font-family="Helvetica,sans-Serif" font-size="10.00">RenderManager::createFrame</text>
<text text-anchor="middle" x="446" y="-140" font-family="Helvetica,sans-Serif" font-size="10.00">Buffer</text>
</a>
</g>
</g>
<!-- Node2&#45;&gt;Node10 -->
<g id="edge10" class="edge">
<title>Node2&#45;&gt;Node10</title>
<path fill="none" stroke="midnightblue" d="M325.21,-162.86C337.76,-161.3 350.87,-159.68 363.61,-158.09"/>
<polygon fill="midnightblue" stroke="midnightblue" points="364.24,-161.54 373.73,-156.84 363.38,-154.6 364.24,-161.54"/>
</g>
<!-- Node12 -->
<g id="node12" class="node">
<title>Node12</title>
<g id="a_node12"><a xlink:href="class_render_manager.html#a45a6fffe5f74da37695476732b53d33b" target="_top" xlink:title=" ">
<polygon fill="none" stroke="black" points="377.5,-427 377.5,-457 514.5,-457 514.5,-427 377.5,-427"/>
<text text-anchor="start" x="385.5" y="-445" font-family="Helvetica,sans-Serif" font-size="10.00">RenderManager::createPost</text>
<text text-anchor="middle" x="446" y="-434" font-family="Helvetica,sans-Serif" font-size="10.00">ProcessingPipelines</text>
</a>
</g>
</g>
<!-- Node2&#45;&gt;Node12 -->
<g id="edge12" class="edge">
<title>Node2&#45;&gt;Node12</title>
<path fill="none" stroke="midnightblue" d="M262.46,-187.29C294.72,-232.31 389.52,-364.59 428.24,-418.61"/>
<polygon fill="midnightblue" stroke="midnightblue" points="425.49,-420.79 434.16,-426.88 431.18,-416.71 425.49,-420.79"/>
</g>
<!-- Node27 -->
<g id="node27" class="node">
<title>Node27</title>
<g id="a_node27"><a xlink:href="class_render_manager.html#a47b4c7259640bcfc476a5cd8c129c2b8" target="_top" xlink:title=" ">
<polygon fill="none" stroke="black" points="361,-89.5 361,-108.5 531,-108.5 531,-89.5 361,-89.5"/>
<text text-anchor="middle" x="446" y="-96.5" font-family="Helvetica,sans-Serif" font-size="10.00">RenderManager::createRenderPass</text>
</a>
</g>
</g>
<!-- Node2&#45;&gt;Node27 -->
<g id="edge34" class="edge">
<title>Node2&#45;&gt;Node27</title>
<path fill="none" stroke="midnightblue" d="M283.18,-156.87C304.82,-146.84 334.3,-133.78 361,-124 373.4,-119.46 387.05,-115.12 399.67,-111.37"/>
<polygon fill="midnightblue" stroke="midnightblue" points="400.91,-114.66 409.53,-108.5 398.95,-107.94 400.91,-114.66"/>
</g>
<!-- Node29 -->
<g id="node29" class="node">
<title>Node29</title>
<g id="a_node29"><a xlink:href="class_render_manager.html#ab9be550fe988ee994b0cba1b46ef2ded" target="_top" xlink:title=" ">
<polygon fill="none" stroke="black" points="375.5,-185 375.5,-215 516.5,-215 516.5,-185 375.5,-185"/>
<text text-anchor="start" x="383.5" y="-203" font-family="Helvetica,sans-Serif" font-size="10.00">RenderManager::createSwap</text>
<text text-anchor="middle" x="446" y="-192" font-family="Helvetica,sans-Serif" font-size="10.00">Chain</text>
</a>
</g>
</g>
<!-- Node2&#45;&gt;Node29 -->
<g id="edge36" class="edge">
<title>Node2&#45;&gt;Node29</title>
<path fill="none" stroke="midnightblue" d="M325.21,-182.67C338.31,-184.56 352.02,-186.55 365.28,-188.46"/>
<polygon fill="midnightblue" stroke="midnightblue" points="364.93,-191.95 375.32,-189.92 365.93,-185.02 364.93,-191.95"/>
</g>
<!-- Node34 -->
<g id="node34" class="node">
<title>Node34</title>
<g id="a_node34"><a xlink:href="class_render_manager.html#ad684dc770c22b8ee45875407c8591a00" target="_top" xlink:title=" ">
<polygon fill="none" stroke="black" points="365.5,-41.5 365.5,-60.5 526.5,-60.5 526.5,-41.5 365.5,-41.5"/>
<text text-anchor="middle" x="446" y="-48.5" font-family="Helvetica,sans-Serif" font-size="10.00">RenderManager::createUIObjects</text>
</a>
</g>
</g>
<!-- Node2&#45;&gt;Node34 -->
<g id="edge43" class="edge">
<title>Node2&#45;&gt;Node34</title>
<path fill="none" stroke="midnightblue" d="M265.76,-156.97C285.48,-136.95 322.98,-101.55 361,-80 372.54,-73.46 385.81,-68.04 398.34,-63.72"/>
<polygon fill="midnightblue" stroke="midnightblue" points="399.77,-66.94 408.19,-60.5 397.6,-60.29 399.77,-66.94"/>
</g>
<!-- Node4 -->
<g id="node4" class="node">
<title>Node4</title>
<g id="a_node4"><a xlink:href="materialparameters_8cpp.html#ad19af1f50a41ceac79efdeeafc07a8ab" target="_top" xlink:title=" ">
<polygon fill="none" stroke="black" points="595,-670.5 595,-689.5 661,-689.5 661,-670.5 595,-670.5"/>
<text text-anchor="middle" x="628" y="-677.5" font-family="Helvetica,sans-Serif" font-size="10.00">buildLayout</text>
</a>
</g>
</g>
<!-- Node3&#45;&gt;Node4 -->
<g id="edge3" class="edge">
<title>Node3&#45;&gt;Node4</title>
<path fill="none" stroke="midnightblue" d="M518.14,-657.02C540.73,-661.79 564.99,-666.91 584.86,-671.1"/>
<polygon fill="midnightblue" stroke="midnightblue" points="584.31,-674.56 594.81,-673.2 585.75,-667.71 584.31,-674.56"/>
</g>
<!-- Node6 -->
<g id="node6" class="node">
<title>Node6</title>
<g id="a_node6"><a xlink:href="class_master_material_template.html#a1da04385b3e407ba5a540895944992ae" target="_top" xlink:title=" ">
<polygon fill="none" stroke="black" points="567,-709 567,-739 689,-739 689,-709 567,-709"/>
<text text-anchor="start" x="575" y="-727" font-family="Helvetica,sans-Serif" font-size="10.00">MasterMaterialTemplate</text>
<text text-anchor="middle" x="628" y="-716" font-family="Helvetica,sans-Serif" font-size="10.00">::create</text>
</a>
</g>
</g>
<!-- Node3&#45;&gt;Node6 -->
<g id="edge5" class="edge">
<title>Node3&#45;&gt;Node6</title>
<path fill="none" stroke="midnightblue" d="M477.89,-657.18C502.01,-668.91 536.45,-685.39 567,-699 571.41,-700.96 576.01,-702.97 580.63,-704.95"/>
<polygon fill="midnightblue" stroke="midnightblue" points="579.5,-708.27 590.07,-708.94 582.23,-701.82 579.5,-708.27"/>
</g>
<!-- Node7 -->
<g id="node7" class="node">
<title>Node7</title>
<g id="a_node7"><a xlink:href="class_vertex_shader.html#a5210d098175734531886d9e5b1741f8e" target="_top" xlink:title=" ">
<polygon fill="none" stroke="black" points="732.5,-594.5 732.5,-613.5 839.5,-613.5 839.5,-594.5 732.5,-594.5"/>
<text text-anchor="middle" x="786" y="-601.5" font-family="Helvetica,sans-Serif" font-size="10.00">VertexShader::create</text>
</a>
</g>
</g>
<!-- Node3&#45;&gt;Node7 -->
<g id="edge6" class="edge">
<title>Node3&#45;&gt;Node7</title>
<path fill="none" stroke="midnightblue" d="M519.54,-629.68C535.17,-627.26 551.61,-624.89 567,-623 619.19,-616.6 678.67,-611.57 722.3,-608.29"/>
<polygon fill="midnightblue" stroke="midnightblue" points="722.76,-611.77 732.47,-607.54 722.24,-604.79 722.76,-611.77"/>
</g>
<!-- Node9 -->
<g id="node9" class="node">
<title>Node9</title>
<g id="a_node9"><a xlink:href="class_fragment_shader.html#a1221d3fb805310bb64a01e032e794d0b" target="_top" xlink:title=" ">
<polygon fill="none" stroke="black" points="568,-632.5 568,-651.5 688,-651.5 688,-632.5 568,-632.5"/>
<text text-anchor="middle" x="628" y="-639.5" font-family="Helvetica,sans-Serif" font-size="10.00">FragmentShader::create</text>
</a>
</g>
</g>
<!-- Node3&#45;&gt;Node9 -->
<g id="edge8" class="edge">
<title>Node3&#45;&gt;Node9</title>
<path fill="none" stroke="midnightblue" d="M519.69,-642C532.2,-642 545.16,-642 557.57,-642"/>
<polygon fill="midnightblue" stroke="midnightblue" points="557.85,-645.5 567.85,-642 557.85,-638.5 557.85,-645.5"/>
</g>
<!-- Node5 -->
<g id="node5" class="node">
<title>Node5</title>
<g id="a_node5"><a xlink:href="materialparameters_8cpp.html#a6d0d74203f8507f343dd66edcc0d472f" target="_top" xlink:title=" ">
<polygon fill="none" stroke="black" points="749.5,-670.5 749.5,-689.5 822.5,-689.5 822.5,-670.5 749.5,-670.5"/>
<text text-anchor="middle" x="786" y="-677.5" font-family="Helvetica,sans-Serif" font-size="10.00">buildProperty</text>
</a>
</g>
</g>
<!-- Node4&#45;&gt;Node5 -->
<g id="edge4" class="edge">
<title>Node4&#45;&gt;Node5</title>
<path fill="none" stroke="midnightblue" d="M661.32,-680C683.91,-680 714.4,-680 739.45,-680"/>
<polygon fill="midnightblue" stroke="midnightblue" points="739.45,-683.5 749.45,-680 739.45,-676.5 739.45,-683.5"/>
</g>
<!-- Node8 -->
<g id="node8" class="node">
<title>Node8</title>
<g id="a_node8"><a xlink:href="class_utils.html#a7e7d47e8b017fe7d4ae8802c7b0690cb" target="_top" xlink:title=" ">
<polygon fill="none" stroke="black" points="922.5,-594.5 922.5,-613.5 998.5,-613.5 998.5,-594.5 922.5,-594.5"/>
<text text-anchor="middle" x="960.5" y="-601.5" font-family="Helvetica,sans-Serif" font-size="10.00">Utils::readFile</text>
</a>
</g>
</g>
<!-- Node7&#45;&gt;Node8 -->
<g id="edge7" class="edge">
<title>Node7&#45;&gt;Node8</title>
<path fill="none" stroke="midnightblue" d="M839.69,-604C862.79,-604 889.68,-604 912.14,-604"/>
<polygon fill="midnightblue" stroke="midnightblue" points="912.43,-607.5 922.43,-604 912.43,-600.5 912.43,-607.5"/>
</g>
<!-- Node9&#45;&gt;Node8 -->
<g id="edge9" class="edge">
<title>Node9&#45;&gt;Node8</title>
<path fill="none" stroke="midnightblue" d="M688.35,-638.12C732.27,-634.94 793.49,-629.84 847,-623 868.6,-620.24 892.39,-616.35 912.51,-612.8"/>
<polygon fill="midnightblue" stroke="midnightblue" points="913.14,-616.25 922.37,-611.04 911.91,-609.35 913.14,-616.25"/>
</g>
<!-- Node11 -->
<g id="node11" class="node">
<title>Node11</title>
<g id="a_node11"><a xlink:href="class_frame_buffer.html#a3b861048fc9c1861448d4dee7a6b9b69" target="_top" xlink:title=" ">
<polygon fill="none" stroke="black" points="577.5,-95.5 577.5,-114.5 678.5,-114.5 678.5,-95.5 577.5,-95.5"/>
<text text-anchor="middle" x="628" y="-102.5" font-family="Helvetica,sans-Serif" font-size="10.00">FrameBuffer::create</text>
</a>
</g>
</g>
<!-- Node10&#45;&gt;Node11 -->
<g id="edge11" class="edge">
<title>Node10&#45;&gt;Node11</title>
<path fill="none" stroke="midnightblue" d="M509.96,-132.96C532,-127.7 556.43,-121.86 577.24,-116.89"/>
<polygon fill="midnightblue" stroke="midnightblue" points="578.23,-120.25 587.14,-114.52 576.6,-113.44 578.23,-120.25"/>
</g>
<!-- Node12&#45;&gt;Node9 -->
<g id="edge32" class="edge">
<title>Node12&#45;&gt;Node9</title>
<path fill="none" stroke="midnightblue" d="M460.53,-457.03C493.21,-493.35 576.35,-585.72 611.22,-624.47"/>
<polygon fill="midnightblue" stroke="midnightblue" points="608.97,-627.2 618.26,-632.29 614.17,-622.52 608.97,-627.2"/>
</g>
<!-- Node13 -->
<g id="node13" class="node">
<title>Node13</title>
<g id="a_node13"><a xlink:href="class_s_s_a_o_pipeline.html#a472f8897be629d354a9382a3eecd2038" target="_top" xlink:title=" ">
<polygon fill="none" stroke="black" points="573,-392.5 573,-411.5 683,-411.5 683,-392.5 573,-392.5"/>
<text text-anchor="middle" x="628" y="-399.5" font-family="Helvetica,sans-Serif" font-size="10.00">SSAOPipeline::create</text>
</a>
</g>
</g>
<!-- Node12&#45;&gt;Node13 -->
<g id="edge13" class="edge">
<title>Node12&#45;&gt;Node13</title>
<path fill="none" stroke="midnightblue" d="M514.54,-426.99C534.32,-422.59 555.66,-417.85 574.37,-413.7"/>
<polygon fill="midnightblue" stroke="midnightblue" points="575.18,-417.1 584.18,-411.51 573.66,-410.27 575.18,-417.1"/>
</g>
<!-- Node15 -->
<g id="node15" class="node">
<title>Node15</title>
<g id="a_node15"><a xlink:href="class_uniform_buffer.html#a1e1a7c734eb7243682f2dfa7e964ee58" target="_top" xlink:title=" ">
<polygon fill="none" stroke="black" points="732,-278.5 732,-297.5 840,-297.5 840,-278.5 732,-278.5"/>
<text text-anchor="middle" x="786" y="-285.5" font-family="Helvetica,sans-Serif" font-size="10.00">UniformBuffer::create</text>
</a>
</g>
</g>
<!-- Node12&#45;&gt;Node15 -->
<g id="edge26" class="edge">
<title>Node12&#45;&gt;Node15</title>
<path fill="none" stroke="midnightblue" d="M477.5,-426.8C501.7,-414.78 536.44,-397.65 567,-383 620.97,-357.13 635.41,-352.64 689,-326 705.2,-317.95 708.31,-313.98 725,-307 730.36,-304.76 736.08,-302.63 741.78,-300.66"/>
<polygon fill="midnightblue" stroke="midnightblue" points="742.9,-303.98 751.29,-297.51 740.7,-297.33 742.9,-303.98"/>
</g>
<!-- Node22 -->
<g id="node22" class="node">
<title>Node22</title>
<g id="a_node22"><a xlink:href="class_descriptor_set_layout.html#a1a2b657df46e6453f7a7a3d7863103c2" target="_top" xlink:title=" ">
<polygon fill="none" stroke="black" points="733.5,-469 733.5,-499 838.5,-499 838.5,-469 733.5,-469"/>
<text text-anchor="start" x="741.5" y="-487" font-family="Helvetica,sans-Serif" font-size="10.00">DescriptorSetLayout</text>
<text text-anchor="middle" x="786" y="-476" font-family="Helvetica,sans-Serif" font-size="10.00">::create</text>
</a>
</g>
</g>
<!-- Node12&#45;&gt;Node22 -->
<g id="edge33" class="edge">
<title>Node12&#45;&gt;Node22</title>
<path fill="none" stroke="midnightblue" d="M514.5,-453.32C531.6,-456.01 549.96,-458.75 567,-461 619.57,-467.93 679.49,-474.13 723.19,-478.34"/>
<polygon fill="midnightblue" stroke="midnightblue" points="723.09,-481.85 733.38,-479.32 723.75,-474.88 723.09,-481.85"/>
</g>
<!-- Node24 -->
<g id="node24" class="node">
<title>Node24</title>
<g id="a_node24"><a xlink:href="class_shading_pipeline.html#a6cc9ad0f6a6b61568281b0f80e630ff1" target="_top" xlink:title=" ">
<polygon fill="none" stroke="black" points="569,-537.5 569,-556.5 687,-556.5 687,-537.5 569,-537.5"/>
<text text-anchor="middle" x="628" y="-544.5" font-family="Helvetica,sans-Serif" font-size="10.00">ShadingPipeline::create</text>
</a>
</g>
</g>
<!-- Node12&#45;&gt;Node24 -->
<g id="edge27" class="edge">
<title>Node12&#45;&gt;Node24</title>
<path fill="none" stroke="midnightblue" d="M472.79,-457.04C507.09,-477.05 567.35,-512.2 601.5,-532.12"/>
<polygon fill="midnightblue" stroke="midnightblue" points="599.99,-535.3 610.4,-537.31 603.52,-529.25 599.99,-535.3"/>
</g>
<!-- Node26 -->
<g id="node26" class="node">
<title>Node26</title>
<g id="a_node26"><a xlink:href="class_semaphore.html#a7bf99350ca438feb4b743891587a4e1c" target="_top" xlink:title=" ">
<polygon fill="none" stroke="black" points="579,-432.5 579,-451.5 677,-451.5 677,-432.5 579,-432.5"/>
<text text-anchor="middle" x="628" y="-439.5" font-family="Helvetica,sans-Serif" font-size="10.00">Semaphore::create</text>
</a>
</g>
</g>
<!-- Node12&#45;&gt;Node26 -->
<g id="edge31" class="edge">
<title>Node12&#45;&gt;Node26</title>
<path fill="none" stroke="midnightblue" d="M514.54,-442C532.22,-442 551.13,-442 568.31,-442"/>
<polygon fill="midnightblue" stroke="midnightblue" points="568.75,-445.5 578.75,-442 568.75,-438.5 568.75,-445.5"/>
</g>
<!-- Node14 -->
<g id="node14" class="node">
<title>Node14</title>
<g id="a_node14"><a xlink:href="class_compute_pipeline.html#a7a32fb56e2c09711f8f53e6e8e16d869" target="_top" xlink:title=" ">
<polygon fill="none" stroke="black" points="725,-316.5 725,-335.5 847,-335.5 847,-316.5 725,-316.5"/>
<text text-anchor="middle" x="786" y="-323.5" font-family="Helvetica,sans-Serif" font-size="10.00">ComputePipeline::create</text>
</a>
</g>
</g>
<!-- Node13&#45;&gt;Node14 -->
<g id="edge14" class="edge">
<title>Node13&#45;&gt;Node14</title>
<path fill="none" stroke="midnightblue" d="M650.33,-392.49C662.02,-386.99 676.62,-379.65 689,-372 706.01,-361.49 707.21,-354.15 725,-345 729.27,-342.8 733.84,-340.8 738.48,-338.99"/>
<polygon fill="midnightblue" stroke="midnightblue" points="739.82,-342.23 748.04,-335.55 737.45,-335.64 739.82,-342.23"/>
</g>
<!-- Node13&#45;&gt;Node15 -->
<g id="edge15" class="edge">
<title>Node13&#45;&gt;Node15</title>
<path fill="none" stroke="midnightblue" d="M656.57,-392.37C667.6,-387.53 679.84,-380.79 689,-372 712.84,-349.15 699.44,-327.91 725,-307 727.15,-305.24 729.46,-303.65 731.88,-302.2"/>
<polygon fill="midnightblue" stroke="midnightblue" points="733.68,-305.21 741.03,-297.57 730.52,-298.96 733.68,-305.21"/>
</g>
<!-- Node17 -->
<g id="node17" class="node">
<title>Node17</title>
<g id="a_node17"><a xlink:href="class_pipeline_layout.html#a8dabc26f7798c86ce3bd4ff0419304f2" target="_top" xlink:title=" ">
<polygon fill="none" stroke="black" points="730,-518.5 730,-537.5 842,-537.5 842,-518.5 730,-518.5"/>
<text text-anchor="middle" x="786" y="-525.5" font-family="Helvetica,sans-Serif" font-size="10.00">PipelineLayout::create</text>
</a>
</g>
</g>
<!-- Node13&#45;&gt;Node17 -->
<g id="edge18" class="edge">
<title>Node13&#45;&gt;Node17</title>
<path fill="none" stroke="midnightblue" d="M670.95,-411.55C677.54,-414.42 683.86,-418.16 689,-423 719.16,-451.41 694.42,-481.04 725,-509 726.74,-510.59 728.61,-512.04 730.57,-513.37"/>
<polygon fill="midnightblue" stroke="midnightblue" points="729.28,-516.66 739.71,-518.48 732.69,-510.55 729.28,-516.66"/>
</g>
<!-- Node19 -->
<g id="node19" class="node">
<title>Node19</title>
<g id="a_node19"><a xlink:href="class_sampler.html#a1a0fd4a0d509bac7b07e7a4cff8b4c5e" target="_top" xlink:title=" ">
<polygon fill="none" stroke="black" points="744,-392.5 744,-411.5 828,-411.5 828,-392.5 744,-392.5"/>
<text text-anchor="middle" x="786" y="-399.5" font-family="Helvetica,sans-Serif" font-size="10.00">Sampler::create</text>
</a>
</g>
</g>
<!-- Node13&#45;&gt;Node19 -->
<g id="edge20" class="edge">
<title>Node13&#45;&gt;Node19</title>
<path fill="none" stroke="midnightblue" d="M683.12,-402C699.44,-402 717.29,-402 733.44,-402"/>
<polygon fill="midnightblue" stroke="midnightblue" points="733.77,-405.5 743.77,-402 733.77,-398.5 733.77,-405.5"/>
</g>
<!-- Node20 -->
<g id="node20" class="node">
<title>Node20</title>
<g id="a_node20"><a xlink:href="class_image.html#a729f597dc28bd5261b1860643ed9513f" target="_top" xlink:title=" ">
<polygon fill="none" stroke="black" points="748.5,-240.5 748.5,-259.5 823.5,-259.5 823.5,-240.5 748.5,-240.5"/>
<text text-anchor="middle" x="786" y="-247.5" font-family="Helvetica,sans-Serif" font-size="10.00">Image::create</text>
</a>
</g>
</g>
<!-- Node13&#45;&gt;Node20 -->
<g id="edge21" class="edge">
<title>Node13&#45;&gt;Node20</title>
<path fill="none" stroke="midnightblue" d="M637.1,-392.41C648.96,-378.24 671.52,-350.7 689,-326 706.31,-301.54 701.28,-287.3 725,-269 729.16,-265.79 733.89,-263.11 738.8,-260.88"/>
<polygon fill="midnightblue" stroke="midnightblue" points="740.38,-264.03 748.42,-257.13 737.83,-257.51 740.38,-264.03"/>
</g>
<!-- Node21 -->
<g id="node21" class="node">
<title>Node21</title>
<g id="a_node21"><a xlink:href="class_compute_shader.html#a93b13c3307b937cf77af96bca8e89329" target="_top" xlink:title=" ">
<polygon fill="none" stroke="black" points="727,-430.5 727,-449.5 845,-449.5 845,-430.5 727,-430.5"/>
<text text-anchor="middle" x="786" y="-437.5" font-family="Helvetica,sans-Serif" font-size="10.00">ComputeShader::create</text>
</a>
</g>
</g>
<!-- Node13&#45;&gt;Node21 -->
<g id="edge22" class="edge">
<title>Node13&#45;&gt;Node21</title>
<path fill="none" stroke="midnightblue" d="M668.37,-411.59C688.95,-416.6 714.34,-422.79 736.17,-428.11"/>
<polygon fill="midnightblue" stroke="midnightblue" points="735.37,-431.51 745.92,-430.48 737.03,-424.71 735.37,-431.51"/>
</g>
<!-- Node13&#45;&gt;Node22 -->
<g id="edge24" class="edge">
<title>Node13&#45;&gt;Node22</title>
<path fill="none" stroke="midnightblue" d="M664.8,-411.58C673.08,-414.59 681.62,-418.36 689,-423 708.16,-435.04 706.2,-446.41 725,-459 727.85,-460.91 730.87,-462.72 733.98,-464.42"/>
<polygon fill="midnightblue" stroke="midnightblue" points="732.42,-467.55 742.92,-468.95 735.58,-461.31 732.42,-467.55"/>
</g>
<!-- Node23 -->
<g id="node23" class="node">
<title>Node23</title>
<g id="a_node23"><a xlink:href="class_utils.html#acf81112700638d857521b24ad9b03e0f" target="_top" xlink:title=" ">
<polygon fill="none" stroke="black" points="757.5,-354.5 757.5,-373.5 814.5,-373.5 814.5,-354.5 757.5,-354.5"/>
<text text-anchor="middle" x="786" y="-361.5" font-family="Helvetica,sans-Serif" font-size="10.00">Utils::lerp</text>
</a>
</g>
</g>
<!-- Node13&#45;&gt;Node23 -->
<g id="edge25" class="edge">
<title>Node13&#45;&gt;Node23</title>
<path fill="none" stroke="midnightblue" d="M668.37,-392.41C692.69,-386.49 723.72,-378.93 747.66,-373.1"/>
<polygon fill="midnightblue" stroke="midnightblue" points="748.56,-376.48 757.45,-370.71 746.9,-369.68 748.56,-376.48"/>
</g>
<!-- Node16 -->
<g id="node16" class="node">
<title>Node16</title>
<g id="a_node16"><a xlink:href="class_buffer.html#a04bbfbb11daccc5656c698c63214aefc" target="_top" xlink:title=" ">
<polygon fill="none" stroke="black" points="923.5,-278.5 923.5,-297.5 997.5,-297.5 997.5,-278.5 923.5,-278.5"/>
<text text-anchor="middle" x="960.5" y="-285.5" font-family="Helvetica,sans-Serif" font-size="10.00">Buffer::create</text>
</a>
</g>
</g>
<!-- Node15&#45;&gt;Node16 -->
<g id="edge16" class="edge">
<title>Node15&#45;&gt;Node16</title>
<path fill="none" stroke="midnightblue" d="M840.16,-288C863.6,-288 890.88,-288 913.43,-288"/>
<polygon fill="midnightblue" stroke="midnightblue" points="913.43,-291.5 923.43,-288 913.43,-284.5 913.43,-291.5"/>
</g>
<!-- Node16&#45;&gt;Node16 -->
<g id="edge17" class="edge">
<title>Node16&#45;&gt;Node16</title>
<path fill="none" stroke="midnightblue" d="M933.68,-297.76C920.63,-306.57 929.57,-316 960.5,-316 981.28,-316 992.13,-311.74 993.06,-306.27"/>
<polygon fill="midnightblue" stroke="midnightblue" points="995.81,-304.09 987.32,-297.76 990.01,-308.01 995.81,-304.09"/>
</g>
<!-- Node18 -->
<g id="node18" class="node">
<title>Node18</title>
<g id="a_node18"><a xlink:href="class_vulkan_class.html#a914c142e905262efbd473aeb5bdfb0e8" target="_top" xlink:title=" ">
<polygon fill="none" stroke="black" points="883,-513 883,-543 1038,-543 1038,-513 883,-513"/>
<text text-anchor="start" x="891" y="-531" font-family="Helvetica,sans-Serif" font-size="10.00">VulkanClass&lt; VkPipelineLayout</text>
<text text-anchor="middle" x="960.5" y="-520" font-family="Helvetica,sans-Serif" font-size="10.00"> &gt;::getHandle</text>
</a>
</g>
</g>
<!-- Node17&#45;&gt;Node18 -->
<g id="edge19" class="edge">
<title>Node17&#45;&gt;Node18</title>
<path fill="none" stroke="midnightblue" d="M842.05,-528C851.92,-528 862.41,-528 872.91,-528"/>
<polygon fill="midnightblue" stroke="midnightblue" points="872.96,-531.5 882.96,-528 872.96,-524.5 872.96,-531.5"/>
</g>
<!-- Node21&#45;&gt;Node8 -->
<g id="edge23" class="edge">
<title>Node21&#45;&gt;Node8</title>
<path fill="none" stroke="midnightblue" d="M831.19,-449.64C836.98,-452.29 842.47,-455.68 847,-460 879.08,-490.59 855.27,-518.43 883,-553 895.44,-568.51 913.88,-581 929.55,-589.74"/>
<polygon fill="midnightblue" stroke="midnightblue" points="927.91,-592.83 938.38,-594.44 931.2,-586.65 927.91,-592.83"/>
</g>
<!-- Node24&#45;&gt;Node7 -->
<g id="edge30" class="edge">
<title>Node24&#45;&gt;Node7</title>
<path fill="none" stroke="midnightblue" d="M651.72,-556.51C671.06,-564.49 699.67,-575.99 725,-585 731.01,-587.14 737.4,-589.29 743.69,-591.34"/>
<polygon fill="midnightblue" stroke="midnightblue" points="742.82,-594.73 753.41,-594.45 744.96,-588.07 742.82,-594.73"/>
</g>
<!-- Node24&#45;&gt;Node17 -->
<g id="edge29" class="edge">
<title>Node24&#45;&gt;Node17</title>
<path fill="none" stroke="midnightblue" d="M687.09,-539.93C697.72,-538.63 708.89,-537.27 719.72,-535.95"/>
<polygon fill="midnightblue" stroke="midnightblue" points="720.46,-539.39 729.97,-534.7 719.62,-532.44 720.46,-539.39"/>
</g>
<!-- Node25 -->
<g id="node25" class="node">
<title>Node25</title>
<g id="a_node25"><a xlink:href="class_graphics_pipeline.html#a87f0117ca1a2040cf373963612f80965" target="_top" xlink:title=" ">
<polygon fill="none" stroke="black" points="725,-556.5 725,-575.5 847,-575.5 847,-556.5 725,-556.5"/>
<text text-anchor="middle" x="786" y="-563.5" font-family="Helvetica,sans-Serif" font-size="10.00">GraphicsPipeline::create</text>
</a>
</g>
</g>
<!-- Node24&#45;&gt;Node25 -->
<g id="edge28" class="edge">
<title>Node24&#45;&gt;Node25</title>
<path fill="none" stroke="midnightblue" d="M687.09,-554.07C696.12,-555.18 705.54,-556.32 714.8,-557.45"/>
<polygon fill="midnightblue" stroke="midnightblue" points="714.43,-560.93 724.78,-558.67 715.27,-553.98 714.43,-560.93"/>
</g>
<!-- Node28 -->
<g id="node28" class="node">
<title>Node28</title>
<g id="a_node28"><a xlink:href="class_render_pass.html#a7192ec68626bea374e5003f022dfb0a6" target="_top" xlink:title=" ">
<polygon fill="none" stroke="black" points="577.5,-57.5 577.5,-76.5 678.5,-76.5 678.5,-57.5 577.5,-57.5"/>
<text text-anchor="middle" x="628" y="-64.5" font-family="Helvetica,sans-Serif" font-size="10.00">RenderPass::create</text>
</a>
</g>
</g>
<!-- Node27&#45;&gt;Node28 -->
<g id="edge35" class="edge">
<title>Node27&#45;&gt;Node28</title>
<path fill="none" stroke="midnightblue" d="M500.52,-89.49C521.54,-85.75 545.76,-81.44 567.35,-77.61"/>
<polygon fill="midnightblue" stroke="midnightblue" points="568.15,-81.02 577.38,-75.82 566.92,-74.13 568.15,-81.02"/>
</g>
<!-- Node29&#45;&gt;Node20 -->
<g id="edge40" class="edge">
<title>Node29&#45;&gt;Node20</title>
<path fill="none" stroke="midnightblue" d="M485.82,-215.03C509.02,-223.32 539.27,-232.93 567,-238 625.34,-248.67 693.79,-250.78 738.21,-250.81"/>
<polygon fill="midnightblue" stroke="midnightblue" points="738.42,-254.31 748.41,-250.78 738.4,-247.31 738.42,-254.31"/>
</g>
<!-- Node30 -->
<g id="node30" class="node">
<title>Node30</title>
<g id="a_node30"><a xlink:href="class_framebuffer_selector.html#aaeb567a08ff24b698ee8cc569980c937" target="_top" xlink:title=" ">
<polygon fill="none" stroke="black" points="576,-286 576,-316 680,-316 680,-286 576,-286"/>
<text text-anchor="start" x="584" y="-304" font-family="Helvetica,sans-Serif" font-size="10.00">FramebufferSelector</text>
<text text-anchor="middle" x="628" y="-293" font-family="Helvetica,sans-Serif" font-size="10.00">::create</text>
</a>
</g>
</g>
<!-- Node29&#45;&gt;Node30 -->
<g id="edge37" class="edge">
<title>Node29&#45;&gt;Node30</title>
<path fill="none" stroke="midnightblue" d="M471.53,-215.2C495.58,-229.94 533.42,-252.7 567,-271 573.4,-274.49 580.25,-278.06 586.96,-281.47"/>
<polygon fill="midnightblue" stroke="midnightblue" points="585.45,-284.63 595.95,-286 588.59,-278.38 585.45,-284.63"/>
</g>
<!-- Node31 -->
<g id="node31" class="node">
<title>Node31</title>
<g id="a_node31"><a xlink:href="class_swap_chain.html#ad6e69feb47cd7d9016c468d2fe01f8af" target="_top" xlink:title=" ">
<polygon fill="none" stroke="black" points="579,-133.5 579,-152.5 677,-152.5 677,-133.5 579,-133.5"/>
<text text-anchor="middle" x="628" y="-140.5" font-family="Helvetica,sans-Serif" font-size="10.00">SwapChain::create</text>
</a>
</g>
</g>
<!-- Node29&#45;&gt;Node31 -->
<g id="edge39" class="edge">
<title>Node29&#45;&gt;Node31</title>
<path fill="none" stroke="midnightblue" d="M494.76,-184.87C523.61,-175.74 559.95,-164.23 587.23,-155.59"/>
<polygon fill="midnightblue" stroke="midnightblue" points="588.36,-158.91 596.84,-152.55 586.25,-152.23 588.36,-158.91"/>
</g>
<!-- Node32 -->
<g id="node32" class="node">
<title>Node32</title>
<g id="a_node32"><a xlink:href="class_image_view.html#a49f8e14c3fd61c0e19735f7f3c397f94" target="_top" xlink:title=" ">
<polygon fill="none" stroke="black" points="579.5,-209.5 579.5,-228.5 676.5,-228.5 676.5,-209.5 579.5,-209.5"/>
<text text-anchor="middle" x="628" y="-216.5" font-family="Helvetica,sans-Serif" font-size="10.00">ImageView::create</text>
</a>
</g>
</g>
<!-- Node29&#45;&gt;Node32 -->
<g id="edge41" class="edge">
<title>Node29&#45;&gt;Node32</title>
<path fill="none" stroke="midnightblue" d="M516.59,-207.35C533.96,-209.18 552.4,-211.13 569.13,-212.89"/>
<polygon fill="midnightblue" stroke="midnightblue" points="568.99,-216.4 579.31,-213.97 569.73,-209.44 568.99,-216.4"/>
</g>
<!-- Node33 -->
<g id="node33" class="node">
<title>Node33</title>
<g id="a_node33"><a xlink:href="class_utils.html#ac44035a9bc80c570cfcd56ded0dad0a5" target="_top" xlink:title=" ">
<polygon fill="none" stroke="black" points="591,-171.5 591,-190.5 665,-190.5 665,-171.5 591,-171.5"/>
<text text-anchor="middle" x="628" y="-178.5" font-family="Helvetica,sans-Serif" font-size="10.00">Utils::remove</text>
</a>
</g>
</g>
<!-- Node29&#45;&gt;Node33 -->
<g id="edge42" class="edge">
<title>Node29&#45;&gt;Node33</title>
<path fill="none" stroke="midnightblue" d="M516.59,-192.65C538.06,-190.39 561.16,-187.95 580.66,-185.89"/>
<polygon fill="midnightblue" stroke="midnightblue" points="581.21,-189.35 590.79,-184.82 580.48,-182.39 581.21,-189.35"/>
</g>
<!-- Node30&#45;&gt;Node20 -->
<g id="edge38" class="edge">
<title>Node30&#45;&gt;Node20</title>
<path fill="none" stroke="midnightblue" d="M673.89,-285.88C689.99,-280.5 708.29,-274.43 725,-269 731.42,-266.91 738.24,-264.73 744.89,-262.61"/>
<polygon fill="midnightblue" stroke="midnightblue" points="745.97,-265.94 754.45,-259.58 743.86,-259.26 745.97,-265.94"/>
</g>
<!-- Node35 -->
<g id="node35" class="node">
<title>Node35</title>
<g id="a_node35"><a xlink:href="class_u_i_renderer.html#a429d9bebea63cfce81d4179458bac829" target="_top" xlink:title=" ">
<polygon fill="none" stroke="black" points="579,-19.5 579,-38.5 677,-38.5 677,-19.5 579,-19.5"/>
<text text-anchor="middle" x="628" y="-26.5" font-family="Helvetica,sans-Serif" font-size="10.00">UIRenderer::create</text>
</a>
</g>
</g>
<!-- Node34&#45;&gt;Node35 -->
<g id="edge44" class="edge">
<title>Node34&#45;&gt;Node35</title>
<path fill="none" stroke="midnightblue" d="M524.9,-41.48C539.66,-39.67 554.86,-37.82 568.87,-36.1"/>
<polygon fill="midnightblue" stroke="midnightblue" points="569.34,-39.57 578.84,-34.89 568.49,-32.62 569.34,-39.57"/>
</g>
<!-- Node36 -->
<g id="node36" class="node">
<title>Node36</title>
<g id="a_node36"><a xlink:href="class_command_buffer.html#aa00b25bc626efb68b5dc810ea91cf41b" target="_top" xlink:title=" ">
<polygon fill="none" stroke="black" points="727,-38.5 727,-57.5 845,-57.5 845,-38.5 727,-38.5"/>
<text text-anchor="middle" x="786" y="-45.5" font-family="Helvetica,sans-Serif" font-size="10.00">CommandBuffer::create</text>
</a>
</g>
</g>
<!-- Node35&#45;&gt;Node36 -->
<g id="edge45" class="edge">
<title>Node35&#45;&gt;Node36</title>
<path fill="none" stroke="midnightblue" d="M677.08,-34.86C689.63,-36.38 703.41,-38.06 716.79,-39.69"/>
<polygon fill="midnightblue" stroke="midnightblue" points="716.58,-43.19 726.93,-40.93 717.42,-36.24 716.58,-43.19"/>
</g>
<!-- Node37 -->
<g id="node37" class="node">
<title>Node37</title>
<g id="a_node37"><a xlink:href="class_descriptor_pool.html#a190f2272d8740c7f7fe13b5b8fb8326c" target="_top" xlink:title=" ">
<polygon fill="none" stroke="black" points="730,-0.5 730,-19.5 842,-19.5 842,-0.5 730,-0.5"/>
<text text-anchor="middle" x="786" y="-7.5" font-family="Helvetica,sans-Serif" font-size="10.00">DescriptorPool::create</text>
</a>
</g>
</g>
<!-- Node35&#45;&gt;Node37 -->
<g id="edge46" class="edge">
<title>Node35&#45;&gt;Node37</title>
<path fill="none" stroke="midnightblue" d="M677.08,-23.14C690.55,-21.5 705.42,-19.69 719.71,-17.95"/>
<polygon fill="midnightblue" stroke="midnightblue" points="720.48,-21.38 729.99,-16.7 719.64,-14.44 720.48,-21.38"/>
</g>
</g>
</svg>
        <g id="navigator" transform="translate(0 0)" fill="#404254">
                <rect fill="#f2f5e9" fill-opacity="0.5" stroke="#606060" stroke-width=".5" x="0" y="0" width="60" height="60"/>
                <use id="zoomplus" xlink:href="#zoomPlus" x="17" y="9" onmousedown="handleZoom(evt,'in')"/>
                <use id="zoomminus" xlink:href="#zoomMin" x="42" y="9" onmousedown="handleZoom(evt,'out')"/>
                <use id="reset" xlink:href="#resetDef" x="30" y="36" onmousedown="handleReset()"/>
                <g id="arrowUp" xlink:href="#dirArrow" transform="translate(30 24)" onmousedown="handlePan(0,-1)">
                  <use xlink:href="#rim" fill="#404040">
                        <set attributeName="fill" to="#808080" begin="arrowUp.mouseover" end="arrowUp.mouseout"/>
                  </use>
                  <path fill="none" stroke="white" stroke-width="1.5" d="M0,-3.0v7 M-2.5,-0.5L0,-3.0L2.5,-0.5"/>
                </g>
                <g id="arrowRight" xlink:href="#dirArrow" transform="rotate(90) translate(36 -43)" onmousedown="handlePan(1,0)">
                  <use xlink:href="#rim" fill="#404040">
                        <set attributeName="fill" to="#808080" begin="arrowRight.mouseover" end="arrowRight.mouseout"/>
                  </use>
                  <path fill="none" stroke="white" stroke-width="1.5" d="M0,-3.0v7 M-2.5,-0.5L0,-3.0L2.5,-0.5"/>
                </g>
                <g id="arrowDown" xlink:href="#dirArrow" transform="rotate(180) translate(-30 -48)" onmousedown="handlePan(0,1)">
                  <use xlink:href="#rim" fill="#404040">
                        <set attributeName="fill" to="#808080" begin="arrowDown.mouseover" end="arrowDown.mouseout"/>
                  </use>
                  <path fill="none" stroke="white" stroke-width="1.5" d="M0,-3.0v7 M-2.5,-0.5L0,-3.0L2.5,-0.5"/>
                </g>
                <g id="arrowLeft" xlink:href="#dirArrow" transform="rotate(270) translate(-36 17)" onmousedown="handlePan(-1,0)">
                  <use xlink:href="#rim" fill="#404040">
                        <set attributeName="fill" to="#808080" begin="arrowLeft.mouseover" end="arrowLeft.mouseout"/>
                  </use>
                  <path fill="none" stroke="white" stroke-width="1.5" d="M0,-3.0v7 M-2.5,-0.5L0,-3.0L2.5,-0.5"/>
                </g>
        </g>
        <svg viewBox="0 0 15 15" width="100%" height="30px" preserveAspectRatio="xMaxYMin meet">
         <g id="arrow_out" transform="scale(0.3 0.3)">
          <a xlink:href="class_render_manager_ab087dc4ee1c6e377ca52ee44d1591c29_cgraph_org.svg" target="_base">
           <rect id="button" ry="5" rx="5" y="6" x="6" height="38" width="38"
                fill="#f2f5e9" fill-opacity="0.5" stroke="#606060" stroke-width="1.0"/>
           <path id="arrow"
             d="M 11.500037,31.436501 C 11.940474,20.09759 22.043105,11.32322 32.158766,21.979434 L 37.068811,17.246167 C 37.068811,17.246167 37.088388,32 37.088388,32 L 22.160133,31.978069 C 22.160133,31.978069 26.997745,27.140456 26.997745,27.140456 C 18.528582,18.264221 13.291696,25.230495 11.500037,31.436501 z"
             style="fill:#404040;"/>
          </a>
         </g>
        </svg>
</svg>
