<?xml version="1.0" encoding="UTF-8" standalone="no"?>
<!DOCTYPE svg PUBLIC "-//W3C//DTD SVG 1.1//EN"
 "http://www.w3.org/Graphics/SVG/1.1/DTD/svg11.dtd">
<!-- Generated by graphviz version 2.49.3 (20211027.1501)
 -->
<!-- Title: GraphicsPipeline Pages: 1 -->
<svg width="411pt" height="655pt"
 viewBox="0.00 0.00 411.00 655.00" xmlns="http://www.w3.org/2000/svg" xmlns:xlink="http://www.w3.org/1999/xlink">
<g id="graph0" class="graph" transform="scale(1 1) rotate(0) translate(4 651)">
<title>GraphicsPipeline</title>
<!-- Node1 -->
<g id="node1" class="node">
<title>Node1</title>
<g id="a_node1"><a xlink:title=" ">
<polygon fill="#bfbfbf" stroke="black" points="104,-0.5 104,-68.5 208,-68.5 208,-0.5 104,-0.5"/>
<text text-anchor="middle" x="156" y="-56.5" font-family="Helvetica,sans-Serif" font-size="10.00">GraphicsPipeline</text>
<polyline fill="none" stroke="black" points="104,-49.5 208,-49.5 "/>
<text text-anchor="middle" x="156" y="-37.5" font-family="Helvetica,sans-Serif" font-size="10.00"> </text>
<polyline fill="none" stroke="black" points="104,-30.5 208,-30.5 "/>
<text text-anchor="start" x="112" y="-18.5" font-family="Helvetica,sans-Serif" font-size="10.00">+ GraphicsPipeline()</text>
<text text-anchor="start" x="112" y="-7.5" font-family="Helvetica,sans-Serif" font-size="10.00">+ getBindPoint()</text>
</a>
</g>
</g>
<!-- Node2 -->
<g id="node2" class="node">
<title>Node2</title>
<g id="a_node2"><a xlink:href="class_pipeline_base.html" target="_top" xlink:title=" ">
<polygon fill="none" stroke="black" points="112.5,-106.5 112.5,-196.5 199.5,-196.5 199.5,-106.5 112.5,-106.5"/>
<text text-anchor="middle" x="156" y="-184.5" font-family="Helvetica,sans-Serif" font-size="10.00">PipelineBase</text>
<polyline fill="none" stroke="black" points="112.5,-177.5 199.5,-177.5 "/>
<text text-anchor="middle" x="156" y="-165.5" font-family="Helvetica,sans-Serif" font-size="10.00"> </text>
<polyline fill="none" stroke="black" points="112.5,-158.5 199.5,-158.5 "/>
<text text-anchor="start" x="120.5" y="-146.5" font-family="Helvetica,sans-Serif" font-size="10.00">+ getDevice()</text>
<text text-anchor="start" x="120.5" y="-135.5" font-family="Helvetica,sans-Serif" font-size="10.00">+ getLayout()</text>
<text text-anchor="start" x="120.5" y="-124.5" font-family="Helvetica,sans-Serif" font-size="10.00">+ getBindPoint()</text>
<text text-anchor="start" x="120.5" y="-113.5" font-family="Helvetica,sans-Serif" font-size="10.00"># PipelineBase()</text>
</a>
</g>
</g>
<!-- Node2&#45;&gt;Node1 -->
<g id="edge1" class="edge">
<title>Node2&#45;&gt;Node1</title>
<path fill="none" stroke="midnightblue" d="M156,-96.23C156,-86.8 156,-77.26 156,-68.62"/>
<polygon fill="none" stroke="midnightblue" points="152.5,-96.37 156,-106.37 159.5,-96.37 152.5,-96.37"/>
</g>
<!-- Node3 -->
<g id="node3" class="node">
<title>Node3</title>
<g id="a_node3"><a xlink:href="class_vulkan_class.html" target="_top" xlink:title=" ">
<polygon fill="none" stroke="black" points="0,-375.5 0,-443.5 134,-443.5 134,-375.5 0,-375.5"/>
<text text-anchor="middle" x="67" y="-431.5" font-family="Helvetica,sans-Serif" font-size="10.00">VulkanClass&lt; VkPipeline &gt;</text>
<polyline fill="none" stroke="black" points="0,-424.5 134,-424.5 "/>
<text text-anchor="start" x="8" y="-412.5" font-family="Helvetica,sans-Serif" font-size="10.00"># handle</text>
<polyline fill="none" stroke="black" points="0,-405.5 134,-405.5 "/>
<text text-anchor="start" x="8" y="-393.5" font-family="Helvetica,sans-Serif" font-size="10.00">+ getHandle()</text>
<text text-anchor="start" x="8" y="-382.5" font-family="Helvetica,sans-Serif" font-size="10.00">+ getHandlePtr()</text>
</a>
</g>
</g>
<!-- Node3&#45;&gt;Node2 -->
<g id="edge2" class="edge">
<title>Node3&#45;&gt;Node2</title>
<path fill="none" stroke="midnightblue" d="M67.79,-365.4C69.69,-331.35 75.28,-283.21 91,-244 97.67,-227.36 107.94,-210.86 118.36,-196.56"/>
<polygon fill="none" stroke="midnightblue" points="64.29,-365.33 67.31,-375.49 71.28,-365.67 64.29,-365.33"/>
</g>
<!-- Node4 -->
<g id="node4" class="node">
<title>Node4</title>
<g id="a_node4"><a xlink:href="class_vulkan_class.html" target="_top" xlink:title=" ">
<polygon fill="none" stroke="black" points="109,-578.5 109,-646.5 203,-646.5 203,-578.5 109,-578.5"/>
<text text-anchor="middle" x="156" y="-634.5" font-family="Helvetica,sans-Serif" font-size="10.00">VulkanClass&lt; T &gt;</text>
<polyline fill="none" stroke="black" points="109,-627.5 203,-627.5 "/>
<text text-anchor="start" x="117" y="-615.5" font-family="Helvetica,sans-Serif" font-size="10.00"># handle</text>
<polyline fill="none" stroke="black" points="109,-608.5 203,-608.5 "/>
<text text-anchor="start" x="117" y="-596.5" font-family="Helvetica,sans-Serif" font-size="10.00">+ getHandle()</text>
<text text-anchor="start" x="117" y="-585.5" font-family="Helvetica,sans-Serif" font-size="10.00">+ getHandlePtr()</text>
</a>
</g>
</g>
<!-- Node4&#45;&gt;Node3 -->
<g id="edge3" class="edge">
<title>Node4&#45;&gt;Node3</title>
<path fill="none" stroke="orange" d="M101.14,-578.37C95.29,-572.88 90.01,-566.75 86,-560 64.79,-524.36 62.56,-475.55 63.94,-443.53"/>
<polygon fill="orange" stroke="orange" points="98.96,-581.1 108.82,-584.97 103.52,-575.8 98.96,-581.1"/>
<text text-anchor="middle" x="119" y="-552" font-family="Helvetica,sans-Serif" font-size="10.00"> &lt; VkPipeline &gt;</text>
</g>
<!-- Node6 -->
<g id="node6" class="node">
<title>Node6</title>
<g id="a_node6"><a xlink:href="class_vulkan_class.html" target="_top" xlink:title=" ">
<polygon fill="none" stroke="black" points="91,-462.5 91,-530.5 221,-530.5 221,-462.5 91,-462.5"/>
<text text-anchor="middle" x="156" y="-518.5" font-family="Helvetica,sans-Serif" font-size="10.00">VulkanClass&lt; VkDevice &gt;</text>
<polyline fill="none" stroke="black" points="91,-511.5 221,-511.5 "/>
<text text-anchor="start" x="99" y="-499.5" font-family="Helvetica,sans-Serif" font-size="10.00"># handle</text>
<polyline fill="none" stroke="black" points="91,-492.5 221,-492.5 "/>
<text text-anchor="start" x="99" y="-480.5" font-family="Helvetica,sans-Serif" font-size="10.00">+ getHandle()</text>
<text text-anchor="start" x="99" y="-469.5" font-family="Helvetica,sans-Serif" font-size="10.00">+ getHandlePtr()</text>
</a>
</g>
</g>
<!-- Node4&#45;&gt;Node6 -->
<g id="edge6" class="edge">
<title>Node4&#45;&gt;Node6</title>
<path fill="none" stroke="orange" d="M156,-568.06C156,-555.64 156,-542.32 156,-530.62"/>
<polygon fill="orange" stroke="orange" points="152.5,-568.22 156,-578.22 159.5,-568.22 152.5,-568.22"/>
<text text-anchor="middle" x="186.5" y="-552" font-family="Helvetica,sans-Serif" font-size="10.00"> &lt; VkDevice &gt;</text>
</g>
<!-- Node8 -->
<g id="node8" class="node">
<title>Node8</title>
<g id="a_node8"><a xlink:href="class_vulkan_class.html" target="_top" xlink:title=" ">
<polygon fill="none" stroke="black" points="239,-462.5 239,-530.5 403,-530.5 403,-462.5 239,-462.5"/>
<text text-anchor="middle" x="321" y="-518.5" font-family="Helvetica,sans-Serif" font-size="10.00">VulkanClass&lt; VkPipelineLayout &gt;</text>
<polyline fill="none" stroke="black" points="239,-511.5 403,-511.5 "/>
<text text-anchor="start" x="247" y="-499.5" font-family="Helvetica,sans-Serif" font-size="10.00"># handle</text>
<polyline fill="none" stroke="black" points="239,-492.5 403,-492.5 "/>
<text text-anchor="start" x="247" y="-480.5" font-family="Helvetica,sans-Serif" font-size="10.00">+ getHandle()</text>
<text text-anchor="start" x="247" y="-469.5" font-family="Helvetica,sans-Serif" font-size="10.00">+ getHandlePtr()</text>
</a>
</g>
</g>
<!-- Node4&#45;&gt;Node8 -->
<g id="edge9" class="edge">
<title>Node4&#45;&gt;Node8</title>
<path fill="none" stroke="orange" d="M211.67,-573.04C231.62,-559.26 253.91,-543.85 273.14,-530.57"/>
<polygon fill="orange" stroke="orange" points="209.52,-570.27 203.28,-578.83 213.5,-576.03 209.52,-570.27"/>
<text text-anchor="middle" x="291.5" y="-552" font-family="Helvetica,sans-Serif" font-size="10.00"> &lt; VkPipelineLayout &gt;</text>
</g>
<!-- Node5 -->
<g id="node5" class="node">
<title>Node5</title>
<g id="a_node5"><a xlink:href="class_device.html" target="_top" xlink:title=" ">
<polygon fill="none" stroke="black" points="100.5,-255.5 100.5,-345.5 211.5,-345.5 211.5,-255.5 100.5,-255.5"/>
<text text-anchor="middle" x="156" y="-333.5" font-family="Helvetica,sans-Serif" font-size="10.00">Device</text>
<polyline fill="none" stroke="black" points="100.5,-326.5 211.5,-326.5 "/>
<text text-anchor="middle" x="156" y="-314.5" font-family="Helvetica,sans-Serif" font-size="10.00"> </text>
<polyline fill="none" stroke="black" points="100.5,-307.5 211.5,-307.5 "/>
<text text-anchor="start" x="108.5" y="-295.5" font-family="Helvetica,sans-Serif" font-size="10.00">+ Device()</text>
<text text-anchor="start" x="108.5" y="-284.5" font-family="Helvetica,sans-Serif" font-size="10.00">+ getPhysicalDevice()</text>
<text text-anchor="start" x="108.5" y="-273.5" font-family="Helvetica,sans-Serif" font-size="10.00">+ getAllocator()</text>
<text text-anchor="start" x="108.5" y="-262.5" font-family="Helvetica,sans-Serif" font-size="10.00">+ cleanup()</text>
</a>
</g>
</g>
<!-- Node5&#45;&gt;Node2 -->
<g id="edge4" class="edge">
<title>Node5&#45;&gt;Node2</title>
<path fill="none" stroke="#404040" d="M156,-255.4C156,-240.71 156,-224.16 156,-208.69"/>
<polygon fill="none" stroke="#404040" points="156,-208.57 152,-202.57 156,-196.57 160,-202.57 156,-208.57"/>
<text text-anchor="middle" x="174.5" y="-218" font-family="Helvetica,sans-Serif" font-size="10.00"> #device</text>
</g>
<!-- Node6&#45;&gt;Node5 -->
<g id="edge5" class="edge">
<title>Node6&#45;&gt;Node5</title>
<path fill="none" stroke="midnightblue" d="M156,-451.86C156,-420.18 156,-377.48 156,-345.67"/>
<polygon fill="none" stroke="midnightblue" points="152.5,-452.15 156,-462.15 159.5,-452.15 152.5,-452.15"/>
</g>
<!-- Node7 -->
<g id="node7" class="node">
<title>Node7</title>
<g id="a_node7"><a xlink:href="class_pipeline_layout.html" target="_top" xlink:title=" ">
<polygon fill="none" stroke="black" points="250,-244.5 250,-356.5 350,-356.5 350,-244.5 250,-244.5"/>
<text text-anchor="middle" x="300" y="-344.5" font-family="Helvetica,sans-Serif" font-size="10.00">PipelineLayout</text>
<polyline fill="none" stroke="black" points="250,-337.5 350,-337.5 "/>
<text text-anchor="middle" x="300" y="-325.5" font-family="Helvetica,sans-Serif" font-size="10.00"> </text>
<polyline fill="none" stroke="black" points="250,-318.5 350,-318.5 "/>
<text text-anchor="start" x="258" y="-306.5" font-family="Helvetica,sans-Serif" font-size="10.00">+ PipelineLayout()</text>
<text text-anchor="start" x="258" y="-295.5" font-family="Helvetica,sans-Serif" font-size="10.00">+ PipelineLayout()</text>
<text text-anchor="start" x="258" y="-284.5" font-family="Helvetica,sans-Serif" font-size="10.00">+ PipelineLayout()</text>
<text text-anchor="start" x="258" y="-273.5" font-family="Helvetica,sans-Serif" font-size="10.00">+ PipelineLayout()</text>
<text text-anchor="start" x="258" y="-262.5" font-family="Helvetica,sans-Serif" font-size="10.00">+ getDevice()</text>
<text text-anchor="start" x="258" y="-251.5" font-family="Helvetica,sans-Serif" font-size="10.00">+ ~PipelineLayout()</text>
</a>
</g>
</g>
<!-- Node7&#45;&gt;Node2 -->
<g id="edge7" class="edge">
<title>Node7&#45;&gt;Node2</title>
<path fill="none" stroke="#404040" d="M249.64,-248.09C236.2,-234.37 221.65,-219.52 208.12,-205.7"/>
<polygon fill="none" stroke="#404040" points="207.79,-205.37 200.74,-203.88 199.39,-196.8 206.45,-198.28 207.79,-205.37"/>
<text text-anchor="middle" x="245" y="-218" font-family="Helvetica,sans-Serif" font-size="10.00"> #layout</text>
</g>
<!-- Node8&#45;&gt;Node7 -->
<g id="edge8" class="edge">
<title>Node8&#45;&gt;Node7</title>
<path fill="none" stroke="midnightblue" d="M316.31,-452.2C313.26,-424.04 309.26,-387.06 305.98,-356.78"/>
<polygon fill="none" stroke="midnightblue" points="312.83,-452.58 317.39,-462.15 319.79,-451.83 312.83,-452.58"/>
</g>
</g>
</svg>
