<?xml version="1.0" encoding="UTF-8" standalone="no"?>
<!DOCTYPE svg PUBLIC "-//W3C//DTD SVG 1.1//EN"
 "http://www.w3.org/Graphics/SVG/1.1/DTD/svg11.dtd">
<!-- Generated by graphviz version 2.50.0 (20220203.2022)
 -->
<!-- Title: MandelbrotApp::loadModels Pages: 1 -->
<svg width="412pt" height="218pt"
 viewBox="0.00 0.00 412.00 218.00" xmlns="http://www.w3.org/2000/svg" xmlns:xlink="http://www.w3.org/1999/xlink">
<g id="graph0" class="graph" transform="scale(1 1) rotate(0) translate(4 214)">
<title>MandelbrotApp::loadModels</title>
<!-- Node1 -->
<g id="node1" class="node">
<title>Node1</title>
<g id="a_node1"><a xlink:title=" ">
<polygon fill="#bfbfbf" stroke="black" points="0,-95.5 0,-114.5 136,-114.5 136,-95.5 0,-95.5"/>
<text text-anchor="middle" x="68" y="-102.5" font-family="Helvetica,sans-Serif" font-size="10.00">MandelbrotApp::loadModels</text>
</a>
</g>
</g>
<!-- Node2 -->
<g id="node2" class="node">
<title>Node2</title>
<g id="a_node2"><a xlink:href="class_master_material.html#a7daa9481348380046f68f55f9738ea61" target="_top" xlink:title=" ">
<polygon fill="none" stroke="black" points="175.5,-190.5 175.5,-209.5 288.5,-209.5 288.5,-190.5 175.5,-190.5"/>
<text text-anchor="middle" x="232" y="-197.5" font-family="Helvetica,sans-Serif" font-size="10.00">MasterMaterial::create</text>
</a>
</g>
</g>
<!-- Node1&#45;&gt;Node2 -->
<g id="edge1" class="edge">
<title>Node1&#45;&gt;Node2</title>
<path fill="none" stroke="midnightblue" d="M79.64,-114.71C97.51,-130.57 135.22,-162.15 172,-181 176.26,-183.19 180.83,-185.19 185.46,-187"/>
<polygon fill="midnightblue" stroke="midnightblue" points="184.4,-190.34 195,-190.46 186.79,-183.76 184.4,-190.34"/>
</g>
<!-- Node3 -->
<g id="node3" class="node">
<title>Node3</title>
<g id="a_node3"><a xlink:href="class_material.html#addd449c7dc0cd6629526b2acdbe76762" target="_top" xlink:title=" ">
<polygon fill="none" stroke="black" points="190.5,-152.5 190.5,-171.5 273.5,-171.5 273.5,-152.5 190.5,-152.5"/>
<text text-anchor="middle" x="232" y="-159.5" font-family="Helvetica,sans-Serif" font-size="10.00">Material::create</text>
</a>
</g>
</g>
<!-- Node1&#45;&gt;Node3 -->
<g id="edge2" class="edge">
<title>Node1&#45;&gt;Node3</title>
<path fill="none" stroke="midnightblue" d="M93.87,-114.51C114.67,-122.38 145.16,-133.73 172,-143 178.07,-145.1 184.53,-147.25 190.85,-149.32"/>
<polygon fill="midnightblue" stroke="midnightblue" points="190.01,-152.73 200.6,-152.48 192.17,-146.07 190.01,-152.73"/>
</g>
<!-- Node4 -->
<g id="node4" class="node">
<title>Node4</title>
<g id="a_node4"><a xlink:href="class_mesh_instance.html#a511dc5709b2a32317ad2f0f02c6740c4" target="_top" xlink:title=" ">
<polygon fill="none" stroke="black" points="177,-114.5 177,-133.5 287,-133.5 287,-114.5 177,-114.5"/>
<text text-anchor="middle" x="232" y="-121.5" font-family="Helvetica,sans-Serif" font-size="10.00">MeshInstance::create</text>
</a>
</g>
</g>
<!-- Node1&#45;&gt;Node4 -->
<g id="edge3" class="edge">
<title>Node1&#45;&gt;Node4</title>
<path fill="none" stroke="midnightblue" d="M136.3,-112.89C146.47,-114.09 156.93,-115.31 167.03,-116.5"/>
<polygon fill="midnightblue" stroke="midnightblue" points="166.64,-119.98 176.98,-117.66 167.46,-113.02 166.64,-119.98"/>
</g>
<!-- Node5 -->
<g id="node5" class="node">
<title>Node5</title>
<g id="a_node5"><a xlink:href="class_model_loader.html#a31c9aa31bf2d9778696ab75f4431a523" target="_top" xlink:title=" ">
<polygon fill="none" stroke="black" points="180,-76.5 180,-95.5 284,-95.5 284,-76.5 180,-76.5"/>
<text text-anchor="middle" x="232" y="-83.5" font-family="Helvetica,sans-Serif" font-size="10.00">ModelLoader::create</text>
</a>
</g>
</g>
<!-- Node1&#45;&gt;Node5 -->
<g id="edge4" class="edge">
<title>Node1&#45;&gt;Node5</title>
<path fill="none" stroke="midnightblue" d="M136.3,-97.11C147.48,-95.8 159.02,-94.44 170.03,-93.15"/>
<polygon fill="midnightblue" stroke="midnightblue" points="170.45,-96.63 179.97,-91.98 169.63,-89.67 170.45,-96.63"/>
</g>
<!-- Node6 -->
<g id="node6" class="node">
<title>Node6</title>
<g id="a_node6"><a xlink:href="class_vertex_shader.html#a5210d098175734531886d9e5b1741f8e" target="_top" xlink:title=" ">
<polygon fill="none" stroke="black" points="178.5,-38.5 178.5,-57.5 285.5,-57.5 285.5,-38.5 178.5,-38.5"/>
<text text-anchor="middle" x="232" y="-45.5" font-family="Helvetica,sans-Serif" font-size="10.00">VertexShader::create</text>
</a>
</g>
</g>
<!-- Node1&#45;&gt;Node6 -->
<g id="edge5" class="edge">
<title>Node1&#45;&gt;Node6</title>
<path fill="none" stroke="midnightblue" d="M93.87,-95.49C114.67,-87.62 145.16,-76.27 172,-67 178.07,-64.9 184.53,-62.75 190.85,-60.68"/>
<polygon fill="midnightblue" stroke="midnightblue" points="192.17,-63.93 200.6,-57.52 190.01,-57.27 192.17,-63.93"/>
</g>
<!-- Node8 -->
<g id="node8" class="node">
<title>Node8</title>
<g id="a_node8"><a xlink:href="class_fragment_shader.html#a1221d3fb805310bb64a01e032e794d0b" target="_top" xlink:title=" ">
<polygon fill="none" stroke="black" points="172,-0.5 172,-19.5 292,-19.5 292,-0.5 172,-0.5"/>
<text text-anchor="middle" x="232" y="-7.5" font-family="Helvetica,sans-Serif" font-size="10.00">FragmentShader::create</text>
</a>
</g>
</g>
<!-- Node1&#45;&gt;Node8 -->
<g id="edge7" class="edge">
<title>Node1&#45;&gt;Node8</title>
<path fill="none" stroke="midnightblue" d="M79.64,-95.29C97.51,-79.43 135.22,-47.85 172,-29 176.26,-26.81 180.83,-24.81 185.46,-23"/>
<polygon fill="midnightblue" stroke="midnightblue" points="186.79,-26.24 195,-19.54 184.4,-19.66 186.79,-26.24"/>
</g>
<!-- Node7 -->
<g id="node7" class="node">
<title>Node7</title>
<g id="a_node7"><a xlink:href="class_utils.html#a7e7d47e8b017fe7d4ae8802c7b0690cb" target="_top" xlink:title=" ">
<polygon fill="none" stroke="black" points="328,-19.5 328,-38.5 404,-38.5 404,-19.5 328,-19.5"/>
<text text-anchor="middle" x="366" y="-26.5" font-family="Helvetica,sans-Serif" font-size="10.00">Utils::readFile</text>
</a>
</g>
</g>
<!-- Node6&#45;&gt;Node7 -->
<g id="edge6" class="edge">
<title>Node6&#45;&gt;Node7</title>
<path fill="none" stroke="midnightblue" d="M285.55,-40.44C296.12,-38.91 307.17,-37.32 317.55,-35.83"/>
<polygon fill="midnightblue" stroke="midnightblue" points="318.27,-39.26 327.67,-34.37 317.27,-32.33 318.27,-39.26"/>
</g>
<!-- Node8&#45;&gt;Node7 -->
<g id="edge8" class="edge">
<title>Node8&#45;&gt;Node7</title>
<path fill="none" stroke="midnightblue" d="M292.05,-18.5C300.74,-19.75 309.59,-21.02 317.99,-22.23"/>
<polygon fill="midnightblue" stroke="midnightblue" points="317.57,-25.71 327.97,-23.67 318.57,-18.78 317.57,-25.71"/>
</g>
</g>
</svg>
