<?xml version="1.0" encoding="UTF-8" standalone="no"?>
<!DOCTYPE svg PUBLIC "-//W3C//DTD SVG 1.1//EN"
 "http://www.w3.org/Graphics/SVG/1.1/DTD/svg11.dtd">
<!-- Generated by graphviz version 2.49.3 (20211027.1501)
 -->
<!-- Title: Queue::getQueueFamilyIndex Pages: 1 -->
<svg width="336pt" height="66pt"
 viewBox="0.00 0.00 336.00 66.00" xmlns="http://www.w3.org/2000/svg" xmlns:xlink="http://www.w3.org/1999/xlink">
<g id="graph0" class="graph" transform="scale(1 1) rotate(0) translate(4 62)">
<title>Queue::getQueueFamilyIndex</title>
<!-- Node1 -->
<g id="node1" class="node">
<title>Node1</title>
<g id="a_node1"><a xlink:title=" ">
<polygon fill="#bfbfbf" stroke="black" points="185,-19.5 185,-38.5 328,-38.5 328,-19.5 185,-19.5"/>
<text text-anchor="middle" x="256.5" y="-26.5" font-family="Helvetica,sans-Serif" font-size="10.00">Queue::getQueueFamilyIndex</text>
</a>
</g>
</g>
<!-- Node2 -->
<g id="node2" class="node">
<title>Node2</title>
<g id="a_node2"><a xlink:href="class_command_pool.html#a3c66b2158f52538ae93d9d988452f466" target="_top" xlink:title=" ">
<polygon fill="none" stroke="black" points="0,-38.5 0,-57.5 149,-57.5 149,-38.5 0,-38.5"/>
<text text-anchor="middle" x="74.5" y="-45.5" font-family="Helvetica,sans-Serif" font-size="10.00">CommandPool::CommandPool</text>
</a>
</g>
</g>
<!-- Node1&#45;&gt;Node2 -->
<g id="edge1" class="edge">
<title>Node1&#45;&gt;Node2</title>
<path fill="none" stroke="midnightblue" d="M174.9,-37.51C166.33,-38.41 157.66,-39.33 149.18,-40.22"/>
<polygon fill="midnightblue" stroke="midnightblue" points="175.3,-40.99 184.88,-36.45 174.56,-34.02 175.3,-40.99"/>
</g>
<!-- Node3 -->
<g id="node3" class="node">
<title>Node3</title>
<g id="a_node3"><a xlink:href="class_uniform_buffer.html#a64bf7e31b91170e6d8413dabd9f51f31" target="_top" xlink:title=" ">
<polygon fill="none" stroke="black" points="4,-0.5 4,-19.5 145,-19.5 145,-0.5 4,-0.5"/>
<text text-anchor="middle" x="74.5" y="-7.5" font-family="Helvetica,sans-Serif" font-size="10.00">UniformBuffer::UniformBuffer</text>
</a>
</g>
</g>
<!-- Node1&#45;&gt;Node3 -->
<g id="edge2" class="edge">
<title>Node1&#45;&gt;Node3</title>
<path fill="none" stroke="midnightblue" d="M174.65,-20.47C164.77,-19.42 154.73,-18.36 145.04,-17.34"/>
<polygon fill="midnightblue" stroke="midnightblue" points="174.56,-23.98 184.88,-21.55 175.3,-17.01 174.56,-23.98"/>
</g>
</g>
</svg>
