<?xml version="1.0" encoding="UTF-8" standalone="no"?>
<!DOCTYPE svg PUBLIC "-//W3C//DTD SVG 1.1//EN"
 "http://www.w3.org/Graphics/SVG/1.1/DTD/svg11.dtd">
<!-- Generated by graphviz version 2.49.3 (20211027.1501)
 -->
<!-- Title: GeometryShader Pages: 1 -->
<svg width="114pt" height="287pt"
 viewBox="0.00 0.00 114.00 287.00" xmlns="http://www.w3.org/2000/svg" xmlns:xlink="http://www.w3.org/1999/xlink">
<g id="graph0" class="graph" transform="scale(1 1) rotate(0) translate(4 283)">
<title>GeometryShader</title>
<!-- Node1 -->
<g id="node1" class="node">
<title>Node1</title>
<g id="a_node1"><a xlink:title=" ">
<polygon fill="#bfbfbf" stroke="black" points="1,-0.5 1,-57.5 105,-57.5 105,-0.5 1,-0.5"/>
<text text-anchor="middle" x="53" y="-45.5" font-family="Helvetica,sans-Serif" font-size="10.00">GeometryShader</text>
<polyline fill="none" stroke="black" points="1,-38.5 105,-38.5 "/>
<text text-anchor="middle" x="53" y="-26.5" font-family="Helvetica,sans-Serif" font-size="10.00"> </text>
<polyline fill="none" stroke="black" points="1,-19.5 105,-19.5 "/>
<text text-anchor="start" x="9" y="-7.5" font-family="Helvetica,sans-Serif" font-size="10.00">+ GeometryShader()</text>
</a>
</g>
</g>
<!-- Node2 -->
<g id="node2" class="node">
<title>Node2</title>
<g id="a_node2"><a xlink:href="class_graphics_shader.html" target="_top" xlink:title=" ">
<polygon fill="none" stroke="black" points="3,-94.5 3,-151.5 103,-151.5 103,-94.5 3,-94.5"/>
<text text-anchor="middle" x="53" y="-139.5" font-family="Helvetica,sans-Serif" font-size="10.00">GraphicsShader</text>
<polyline fill="none" stroke="black" points="3,-132.5 103,-132.5 "/>
<text text-anchor="middle" x="53" y="-120.5" font-family="Helvetica,sans-Serif" font-size="10.00"> </text>
<polyline fill="none" stroke="black" points="3,-113.5 103,-113.5 "/>
<text text-anchor="start" x="11" y="-101.5" font-family="Helvetica,sans-Serif" font-size="10.00"># GraphicsShader()</text>
</a>
</g>
</g>
<!-- Node2&#45;&gt;Node1 -->
<g id="edge1" class="edge">
<title>Node2&#45;&gt;Node1</title>
<path fill="none" stroke="midnightblue" d="M53,-84.21C53,-75.29 53,-65.95 53,-57.58"/>
<polygon fill="none" stroke="midnightblue" points="49.5,-84.4 53,-94.4 56.5,-84.4 49.5,-84.4"/>
</g>
<!-- Node3 -->
<g id="node3" class="node">
<title>Node3</title>
<g id="a_node3"><a xlink:href="class_shader.html" target="_top" xlink:title=" ">
<polygon fill="none" stroke="black" points="0,-188.5 0,-278.5 106,-278.5 106,-188.5 0,-188.5"/>
<text text-anchor="middle" x="53" y="-266.5" font-family="Helvetica,sans-Serif" font-size="10.00">Shader</text>
<polyline fill="none" stroke="black" points="0,-259.5 106,-259.5 "/>
<text text-anchor="start" x="8" y="-247.5" font-family="Helvetica,sans-Serif" font-size="10.00"># shaderStage</text>
<polyline fill="none" stroke="black" points="0,-240.5 106,-240.5 "/>
<text text-anchor="start" x="8" y="-228.5" font-family="Helvetica,sans-Serif" font-size="10.00">+ loadModule()</text>
<text text-anchor="start" x="8" y="-217.5" font-family="Helvetica,sans-Serif" font-size="10.00">+ pipelineStageInfo()</text>
<text text-anchor="start" x="8" y="-206.5" font-family="Helvetica,sans-Serif" font-size="10.00">+ ~Shader()</text>
<text text-anchor="start" x="8" y="-195.5" font-family="Helvetica,sans-Serif" font-size="10.00"># Shader()</text>
</a>
</g>
</g>
<!-- Node3&#45;&gt;Node2 -->
<g id="edge2" class="edge">
<title>Node3&#45;&gt;Node2</title>
<path fill="none" stroke="midnightblue" d="M53,-178.35C53,-169.07 53,-159.79 53,-151.59"/>
<polygon fill="none" stroke="midnightblue" points="49.5,-178.37 53,-188.37 56.5,-178.37 49.5,-178.37"/>
</g>
</g>
</svg>
