<?xml version="1.0" encoding="UTF-8" standalone="no"?>
<!DOCTYPE svg PUBLIC "-//W3C//DTD SVG 1.1//EN"
 "http://www.w3.org/Graphics/SVG/1.1/DTD/svg11.dtd">
<!-- Generated by graphviz version 2.50.0 (20220203.2022)
 -->
<!-- Title: GraphicsShader Pages: 1 -->
<svg width="1149pt" height="425pt"
 viewBox="0.00 0.00 1149.00 425.00" xmlns="http://www.w3.org/2000/svg" xmlns:xlink="http://www.w3.org/1999/xlink">
<g id="graph0" class="graph" transform="scale(1 1) rotate(0) translate(4 421)">
<title>GraphicsShader</title>
<!-- Node1 -->
<g id="node1" class="node">
<title>Node1</title>
<g id="a_node1"><a xlink:title=" ">
<polygon fill="#bfbfbf" stroke="black" points="542,-188.5 542,-245.5 628,-245.5 628,-188.5 542,-188.5"/>
<text text-anchor="middle" x="585" y="-233.5" font-family="Helvetica,sans-Serif" font-size="10.00">GraphicsShader</text>
<polyline fill="none" stroke="black" points="542,-226.5 628,-226.5 "/>
<text text-anchor="middle" x="585" y="-214.5" font-family="Helvetica,sans-Serif" font-size="10.00"> </text>
<polyline fill="none" stroke="black" points="542,-207.5 628,-207.5 "/>
<text text-anchor="start" x="550" y="-195.5" font-family="Helvetica,sans-Serif" font-size="10.00"># create()</text>
</a>
</g>
</g>
<!-- Node3 -->
<g id="node3" class="node">
<title>Node3</title>
<g id="a_node3"><a xlink:href="class_fragment_shader.html" target="_top" xlink:title=" ">
<polygon fill="none" stroke="black" points="219.5,-94.5 219.5,-151.5 308.5,-151.5 308.5,-94.5 219.5,-94.5"/>
<text text-anchor="middle" x="264" y="-139.5" font-family="Helvetica,sans-Serif" font-size="10.00">FragmentShader</text>
<polyline fill="none" stroke="black" points="219.5,-132.5 308.5,-132.5 "/>
<text text-anchor="middle" x="264" y="-120.5" font-family="Helvetica,sans-Serif" font-size="10.00"> </text>
<polyline fill="none" stroke="black" points="219.5,-113.5 308.5,-113.5 "/>
<text text-anchor="start" x="227.5" y="-101.5" font-family="Helvetica,sans-Serif" font-size="10.00">+ create()</text>
</a>
</g>
</g>
<!-- Node1&#45;&gt;Node3 -->
<g id="edge2" class="edge">
<title>Node1&#45;&gt;Node3</title>
<path fill="none" stroke="midnightblue" d="M531.91,-207.4C476.98,-197.56 389.28,-179.22 317,-152 314.27,-150.97 311.51,-149.84 308.75,-148.62"/>
<polygon fill="none" stroke="midnightblue" points="531.32,-210.85 541.77,-209.14 532.53,-203.95 531.32,-210.85"/>
</g>
<!-- Node4 -->
<g id="node4" class="node">
<title>Node4</title>
<g id="a_node4"><a xlink:href="class_geometry_shader.html" target="_top" xlink:title=" ">
<polygon fill="none" stroke="black" points="326.5,-94.5 326.5,-151.5 415.5,-151.5 415.5,-94.5 326.5,-94.5"/>
<text text-anchor="middle" x="371" y="-139.5" font-family="Helvetica,sans-Serif" font-size="10.00">GeometryShader</text>
<polyline fill="none" stroke="black" points="326.5,-132.5 415.5,-132.5 "/>
<text text-anchor="middle" x="371" y="-120.5" font-family="Helvetica,sans-Serif" font-size="10.00"> </text>
<polyline fill="none" stroke="black" points="326.5,-113.5 415.5,-113.5 "/>
<text text-anchor="start" x="334.5" y="-101.5" font-family="Helvetica,sans-Serif" font-size="10.00">+ create()</text>
</a>
</g>
</g>
<!-- Node1&#45;&gt;Node4 -->
<g id="edge3" class="edge">
<title>Node1&#45;&gt;Node4</title>
<path fill="none" stroke="midnightblue" d="M532.28,-196.4C500.81,-184.34 460.25,-168.14 425,-152 421.93,-150.59 418.78,-149.1 415.62,-147.57"/>
<polygon fill="none" stroke="midnightblue" points="531.14,-199.72 541.73,-200.01 533.64,-193.18 531.14,-199.72"/>
</g>
<!-- Node5 -->
<g id="node5" class="node">
<title>Node5</title>
<g id="a_node5"><a xlink:href="class_n_v_mesh_shader.html" target="_top" xlink:title=" ">
<polygon fill="none" stroke="black" points="434,-94.5 434,-151.5 520,-151.5 520,-94.5 434,-94.5"/>
<text text-anchor="middle" x="477" y="-139.5" font-family="Helvetica,sans-Serif" font-size="10.00">NVMeshShader</text>
<polyline fill="none" stroke="black" points="434,-132.5 520,-132.5 "/>
<text text-anchor="middle" x="477" y="-120.5" font-family="Helvetica,sans-Serif" font-size="10.00"> </text>
<polyline fill="none" stroke="black" points="434,-113.5 520,-113.5 "/>
<text text-anchor="start" x="442" y="-101.5" font-family="Helvetica,sans-Serif" font-size="10.00">+ create()</text>
</a>
</g>
</g>
<!-- Node1&#45;&gt;Node5 -->
<g id="edge4" class="edge">
<title>Node1&#45;&gt;Node5</title>
<path fill="none" stroke="midnightblue" d="M544.7,-181.67C533.05,-171.75 520.48,-161.04 509.38,-151.58"/>
<polygon fill="none" stroke="midnightblue" points="542.71,-184.58 552.6,-188.4 547.25,-179.25 542.71,-184.58"/>
</g>
<!-- Node6 -->
<g id="node6" class="node">
<title>Node6</title>
<g id="a_node6"><a xlink:href="class_raytracing_shader.html" target="_top" xlink:title=" ">
<polygon fill="none" stroke="black" points="538.5,-94.5 538.5,-151.5 631.5,-151.5 631.5,-94.5 538.5,-94.5"/>
<text text-anchor="middle" x="585" y="-139.5" font-family="Helvetica,sans-Serif" font-size="10.00">RaytracingShader</text>
<polyline fill="none" stroke="black" points="538.5,-132.5 631.5,-132.5 "/>
<text text-anchor="middle" x="585" y="-120.5" font-family="Helvetica,sans-Serif" font-size="10.00"> </text>
<polyline fill="none" stroke="black" points="538.5,-113.5 631.5,-113.5 "/>
<text text-anchor="start" x="546.5" y="-101.5" font-family="Helvetica,sans-Serif" font-size="10.00"># create()</text>
</a>
</g>
</g>
<!-- Node1&#45;&gt;Node6 -->
<g id="edge5" class="edge">
<title>Node1&#45;&gt;Node6</title>
<path fill="none" stroke="midnightblue" d="M585,-178.21C585,-169.29 585,-159.95 585,-151.58"/>
<polygon fill="none" stroke="midnightblue" points="581.5,-178.4 585,-188.4 588.5,-178.4 581.5,-178.4"/>
</g>
<!-- Node17 -->
<g id="node17" class="node">
<title>Node17</title>
<g id="a_node17"><a xlink:href="class_tesselation_control_shader.html" target="_top" xlink:title=" ">
<polygon fill="none" stroke="black" points="650,-94.5 650,-151.5 778,-151.5 778,-94.5 650,-94.5"/>
<text text-anchor="middle" x="714" y="-139.5" font-family="Helvetica,sans-Serif" font-size="10.00">TesselationControlShader</text>
<polyline fill="none" stroke="black" points="650,-132.5 778,-132.5 "/>
<text text-anchor="middle" x="714" y="-120.5" font-family="Helvetica,sans-Serif" font-size="10.00"> </text>
<polyline fill="none" stroke="black" points="650,-113.5 778,-113.5 "/>
<text text-anchor="start" x="658" y="-101.5" font-family="Helvetica,sans-Serif" font-size="10.00">+ create()</text>
</a>
</g>
</g>
<!-- Node1&#45;&gt;Node17 -->
<g id="edge16" class="edge">
<title>Node1&#45;&gt;Node17</title>
<path fill="none" stroke="midnightblue" d="M631.93,-182.53C646.18,-172.36 661.68,-161.32 675.32,-151.58"/>
<polygon fill="none" stroke="midnightblue" points="629.81,-179.74 623.7,-188.4 633.88,-185.44 629.81,-179.74"/>
</g>
<!-- Node18 -->
<g id="node18" class="node">
<title>Node18</title>
<g id="a_node18"><a xlink:href="class_tesselation_evaluation_shader.html" target="_top" xlink:title=" ">
<polygon fill="none" stroke="black" points="796.5,-94.5 796.5,-151.5 939.5,-151.5 939.5,-94.5 796.5,-94.5"/>
<text text-anchor="middle" x="868" y="-139.5" font-family="Helvetica,sans-Serif" font-size="10.00">TesselationEvaluationShader</text>
<polyline fill="none" stroke="black" points="796.5,-132.5 939.5,-132.5 "/>
<text text-anchor="middle" x="868" y="-120.5" font-family="Helvetica,sans-Serif" font-size="10.00"> </text>
<polyline fill="none" stroke="black" points="796.5,-113.5 939.5,-113.5 "/>
<text text-anchor="start" x="804.5" y="-101.5" font-family="Helvetica,sans-Serif" font-size="10.00">+ create()</text>
</a>
</g>
</g>
<!-- Node1&#45;&gt;Node18 -->
<g id="edge17" class="edge">
<title>Node1&#45;&gt;Node18</title>
<path fill="none" stroke="midnightblue" d="M637.79,-199.69C678.62,-186.97 736.51,-168.72 787,-152 790.11,-150.97 793.28,-149.91 796.48,-148.84"/>
<polygon fill="none" stroke="midnightblue" points="636.57,-196.4 628.06,-202.71 638.64,-203.09 636.57,-196.4"/>
</g>
<!-- Node19 -->
<g id="node19" class="node">
<title>Node19</title>
<g id="a_node19"><a xlink:href="class_vertex_shader.html" target="_top" xlink:title=" ">
<polygon fill="none" stroke="black" points="957.5,-94.5 957.5,-151.5 1032.5,-151.5 1032.5,-94.5 957.5,-94.5"/>
<text text-anchor="middle" x="995" y="-139.5" font-family="Helvetica,sans-Serif" font-size="10.00">VertexShader</text>
<polyline fill="none" stroke="black" points="957.5,-132.5 1032.5,-132.5 "/>
<text text-anchor="middle" x="995" y="-120.5" font-family="Helvetica,sans-Serif" font-size="10.00"> </text>
<polyline fill="none" stroke="black" points="957.5,-113.5 1032.5,-113.5 "/>
<text text-anchor="start" x="965.5" y="-101.5" font-family="Helvetica,sans-Serif" font-size="10.00">+ create()</text>
</a>
</g>
</g>
<!-- Node1&#45;&gt;Node19 -->
<g id="edge18" class="edge">
<title>Node1&#45;&gt;Node19</title>
<path fill="none" stroke="midnightblue" d="M638.35,-212.83C710.77,-207.16 843.27,-191.85 949,-152 951.8,-150.94 954.62,-149.72 957.41,-148.37"/>
<polygon fill="none" stroke="midnightblue" points="637.83,-209.36 628.12,-213.6 638.35,-216.34 637.83,-209.36"/>
</g>
<!-- Node2 -->
<g id="node2" class="node">
<title>Node2</title>
<g id="a_node2"><a xlink:href="class_shader.html" target="_top" xlink:title=" ">
<polygon fill="none" stroke="black" points="532,-282.5 532,-416.5 638,-416.5 638,-282.5 532,-282.5"/>
<text text-anchor="middle" x="585" y="-404.5" font-family="Helvetica,sans-Serif" font-size="10.00">Shader</text>
<polyline fill="none" stroke="black" points="532,-397.5 638,-397.5 "/>
<text text-anchor="start" x="540" y="-385.5" font-family="Helvetica,sans-Serif" font-size="10.00"># name</text>
<text text-anchor="start" x="540" y="-374.5" font-family="Helvetica,sans-Serif" font-size="10.00"># shaderModule</text>
<text text-anchor="start" x="540" y="-363.5" font-family="Helvetica,sans-Serif" font-size="10.00"># shaderCode</text>
<text text-anchor="start" x="540" y="-352.5" font-family="Helvetica,sans-Serif" font-size="10.00"># device</text>
<text text-anchor="start" x="540" y="-341.5" font-family="Helvetica,sans-Serif" font-size="10.00"># shaderStage</text>
<polyline fill="none" stroke="black" points="532,-334.5 638,-334.5 "/>
<text text-anchor="start" x="540" y="-322.5" font-family="Helvetica,sans-Serif" font-size="10.00">+ loadModule()</text>
<text text-anchor="start" x="540" y="-311.5" font-family="Helvetica,sans-Serif" font-size="10.00">+ pipelineStageInfo()</text>
<text text-anchor="start" x="540" y="-300.5" font-family="Helvetica,sans-Serif" font-size="10.00">+ ~Shader()</text>
<text text-anchor="start" x="540" y="-289.5" font-family="Helvetica,sans-Serif" font-size="10.00"># create()</text>
</a>
</g>
</g>
<!-- Node2&#45;&gt;Node1 -->
<g id="edge1" class="edge">
<title>Node2&#45;&gt;Node1</title>
<path fill="none" stroke="midnightblue" d="M585,-272.46C585,-262.91 585,-253.68 585,-245.61"/>
<polygon fill="none" stroke="midnightblue" points="581.5,-272.49 585,-282.49 588.5,-272.49 581.5,-272.49"/>
</g>
<!-- Node7 -->
<g id="node7" class="node">
<title>Node7</title>
<g id="a_node7"><a xlink:href="class_k_h_r_any_hit_shader.html" target="_top" xlink:title=" ">
<polygon fill="none" stroke="black" points="0,-0.5 0,-57.5 98,-57.5 98,-0.5 0,-0.5"/>
<text text-anchor="middle" x="49" y="-45.5" font-family="Helvetica,sans-Serif" font-size="10.00">KHRAnyHitShader</text>
<polyline fill="none" stroke="black" points="0,-38.5 98,-38.5 "/>
<text text-anchor="middle" x="49" y="-26.5" font-family="Helvetica,sans-Serif" font-size="10.00"> </text>
<polyline fill="none" stroke="black" points="0,-19.5 98,-19.5 "/>
<text text-anchor="start" x="8" y="-7.5" font-family="Helvetica,sans-Serif" font-size="10.00">+ create()</text>
</a>
</g>
</g>
<!-- Node6&#45;&gt;Node7 -->
<g id="edge6" class="edge">
<title>Node6&#45;&gt;Node7</title>
<path fill="none" stroke="midnightblue" d="M528.8,-94.46C345.74,-45.18 285.44,-106.89 107,-58 104.09,-57.2 101.15,-56.26 98.21,-55.22"/>
<polygon fill="none" stroke="midnightblue" points="527.89,-97.84 538.47,-97.13 529.76,-91.09 527.89,-97.84"/>
</g>
<!-- Node8 -->
<g id="node8" class="node">
<title>Node8</title>
<g id="a_node8"><a xlink:href="class_k_h_r_callable_shader.html" target="_top" xlink:title=" ">
<polygon fill="none" stroke="black" points="116.5,-0.5 116.5,-57.5 219.5,-57.5 219.5,-0.5 116.5,-0.5"/>
<text text-anchor="middle" x="168" y="-45.5" font-family="Helvetica,sans-Serif" font-size="10.00">KHRCallableShader</text>
<polyline fill="none" stroke="black" points="116.5,-38.5 219.5,-38.5 "/>
<text text-anchor="middle" x="168" y="-26.5" font-family="Helvetica,sans-Serif" font-size="10.00"> </text>
<polyline fill="none" stroke="black" points="116.5,-19.5 219.5,-19.5 "/>
<text text-anchor="start" x="124.5" y="-7.5" font-family="Helvetica,sans-Serif" font-size="10.00">+ create()</text>
</a>
</g>
</g>
<!-- Node6&#45;&gt;Node8 -->
<g id="edge7" class="edge">
<title>Node6&#45;&gt;Node8</title>
<path fill="none" stroke="midnightblue" d="M528.49,-94.33C398.27,-57.26 355.09,-93.56 229,-58 225.97,-57.15 222.9,-56.16 219.84,-55.08"/>
<polygon fill="none" stroke="midnightblue" points="527.85,-97.79 538.43,-97.25 529.82,-91.08 527.85,-97.79"/>
</g>
<!-- Node9 -->
<g id="node9" class="node">
<title>Node9</title>
<g id="a_node9"><a xlink:href="class_k_h_r_closest_hit_shader.html" target="_top" xlink:title=" ">
<polygon fill="none" stroke="black" points="238,-0.5 238,-57.5 352,-57.5 352,-0.5 238,-0.5"/>
<text text-anchor="middle" x="295" y="-45.5" font-family="Helvetica,sans-Serif" font-size="10.00">KHRClosestHitShader</text>
<polyline fill="none" stroke="black" points="238,-38.5 352,-38.5 "/>
<text text-anchor="middle" x="295" y="-26.5" font-family="Helvetica,sans-Serif" font-size="10.00"> </text>
<polyline fill="none" stroke="black" points="238,-19.5 352,-19.5 "/>
<text text-anchor="start" x="246" y="-7.5" font-family="Helvetica,sans-Serif" font-size="10.00">+ create()</text>
</a>
</g>
</g>
<!-- Node6&#45;&gt;Node9 -->
<g id="edge8" class="edge">
<title>Node6&#45;&gt;Node9</title>
<path fill="none" stroke="midnightblue" d="M528.59,-94.24C454.96,-69.67 430.82,-80.07 361,-58 358.15,-57.1 355.26,-56.12 352.35,-55.09"/>
<polygon fill="none" stroke="midnightblue" points="527.73,-97.64 538.32,-97.59 530.01,-91.02 527.73,-97.64"/>
</g>
<!-- Node10 -->
<g id="node10" class="node">
<title>Node10</title>
<g id="a_node10"><a xlink:href="class_k_h_r_miss_shader.html" target="_top" xlink:title=" ">
<polygon fill="none" stroke="black" points="370.5,-0.5 370.5,-57.5 459.5,-57.5 459.5,-0.5 370.5,-0.5"/>
<text text-anchor="middle" x="415" y="-45.5" font-family="Helvetica,sans-Serif" font-size="10.00">KHRMissShader</text>
<polyline fill="none" stroke="black" points="370.5,-38.5 459.5,-38.5 "/>
<text text-anchor="middle" x="415" y="-26.5" font-family="Helvetica,sans-Serif" font-size="10.00"> </text>
<polyline fill="none" stroke="black" points="370.5,-19.5 459.5,-19.5 "/>
<text text-anchor="start" x="378.5" y="-7.5" font-family="Helvetica,sans-Serif" font-size="10.00">+ create()</text>
</a>
</g>
</g>
<!-- Node6&#45;&gt;Node10 -->
<g id="edge9" class="edge">
<title>Node6&#45;&gt;Node10</title>
<path fill="none" stroke="midnightblue" d="M529.29,-91.85C506.72,-79.64 481.01,-65.72 459.7,-54.19"/>
<polygon fill="none" stroke="midnightblue" points="527.64,-94.94 538.1,-96.62 530.97,-88.78 527.64,-94.94"/>
</g>
<!-- Node11 -->
<g id="node11" class="node">
<title>Node11</title>
<g id="a_node11"><a xlink:href="class_k_h_r_raygen_shader.html" target="_top" xlink:title=" ">
<polygon fill="none" stroke="black" points="477.5,-0.5 477.5,-57.5 578.5,-57.5 578.5,-0.5 477.5,-0.5"/>
<text text-anchor="middle" x="528" y="-45.5" font-family="Helvetica,sans-Serif" font-size="10.00">KHRRaygenShader</text>
<polyline fill="none" stroke="black" points="477.5,-38.5 578.5,-38.5 "/>
<text text-anchor="middle" x="528" y="-26.5" font-family="Helvetica,sans-Serif" font-size="10.00"> </text>
<polyline fill="none" stroke="black" points="477.5,-19.5 578.5,-19.5 "/>
<text text-anchor="start" x="485.5" y="-7.5" font-family="Helvetica,sans-Serif" font-size="10.00">+ create()</text>
</a>
</g>
</g>
<!-- Node6&#45;&gt;Node11 -->
<g id="edge10" class="edge">
<title>Node6&#45;&gt;Node11</title>
<path fill="none" stroke="midnightblue" d="M562.48,-85.66C556.69,-76.31 550.56,-66.41 545.09,-57.58"/>
<polygon fill="none" stroke="midnightblue" points="559.66,-87.74 567.9,-94.4 565.61,-84.05 559.66,-87.74"/>
</g>
<!-- Node12 -->
<g id="node12" class="node">
<title>Node12</title>
<g id="a_node12"><a xlink:href="class_n_v_any_hit_shader.html" target="_top" xlink:title=" ">
<polygon fill="none" stroke="black" points="596.5,-0.5 596.5,-57.5 687.5,-57.5 687.5,-0.5 596.5,-0.5"/>
<text text-anchor="middle" x="642" y="-45.5" font-family="Helvetica,sans-Serif" font-size="10.00">NVAnyHitShader</text>
<polyline fill="none" stroke="black" points="596.5,-38.5 687.5,-38.5 "/>
<text text-anchor="middle" x="642" y="-26.5" font-family="Helvetica,sans-Serif" font-size="10.00"> </text>
<polyline fill="none" stroke="black" points="596.5,-19.5 687.5,-19.5 "/>
<text text-anchor="start" x="604.5" y="-7.5" font-family="Helvetica,sans-Serif" font-size="10.00">+ create()</text>
</a>
</g>
</g>
<!-- Node6&#45;&gt;Node12 -->
<g id="edge11" class="edge">
<title>Node6&#45;&gt;Node12</title>
<path fill="none" stroke="midnightblue" d="M607.52,-85.66C613.31,-76.31 619.44,-66.41 624.91,-57.58"/>
<polygon fill="none" stroke="midnightblue" points="604.39,-84.05 602.1,-94.4 610.34,-87.74 604.39,-84.05"/>
</g>
<!-- Node13 -->
<g id="node13" class="node">
<title>Node13</title>
<g id="a_node13"><a xlink:href="class_n_v_callable_shader.html" target="_top" xlink:title=" ">
<polygon fill="none" stroke="black" points="706,-0.5 706,-57.5 802,-57.5 802,-0.5 706,-0.5"/>
<text text-anchor="middle" x="754" y="-45.5" font-family="Helvetica,sans-Serif" font-size="10.00">NVCallableShader</text>
<polyline fill="none" stroke="black" points="706,-38.5 802,-38.5 "/>
<text text-anchor="middle" x="754" y="-26.5" font-family="Helvetica,sans-Serif" font-size="10.00"> </text>
<polyline fill="none" stroke="black" points="706,-19.5 802,-19.5 "/>
<text text-anchor="start" x="714" y="-7.5" font-family="Helvetica,sans-Serif" font-size="10.00">+ create()</text>
</a>
</g>
</g>
<!-- Node6&#45;&gt;Node13 -->
<g id="edge12" class="edge">
<title>Node6&#45;&gt;Node13</title>
<path fill="none" stroke="midnightblue" d="M640.48,-91.8C661.56,-80.32 685.4,-67.35 705.76,-56.26"/>
<polygon fill="none" stroke="midnightblue" points="638.74,-88.76 631.63,-96.62 642.08,-94.91 638.74,-88.76"/>
</g>
<!-- Node14 -->
<g id="node14" class="node">
<title>Node14</title>
<g id="a_node14"><a xlink:href="class_n_v_closest_hit_shader.html" target="_top" xlink:title=" ">
<polygon fill="none" stroke="black" points="820.5,-0.5 820.5,-57.5 927.5,-57.5 927.5,-0.5 820.5,-0.5"/>
<text text-anchor="middle" x="874" y="-45.5" font-family="Helvetica,sans-Serif" font-size="10.00">NVClosestHitShader</text>
<polyline fill="none" stroke="black" points="820.5,-38.5 927.5,-38.5 "/>
<text text-anchor="middle" x="874" y="-26.5" font-family="Helvetica,sans-Serif" font-size="10.00"> </text>
<polyline fill="none" stroke="black" points="820.5,-19.5 927.5,-19.5 "/>
<text text-anchor="start" x="828.5" y="-7.5" font-family="Helvetica,sans-Serif" font-size="10.00">+ create()</text>
</a>
</g>
</g>
<!-- Node6&#45;&gt;Node14 -->
<g id="edge13" class="edge">
<title>Node6&#45;&gt;Node14</title>
<path fill="none" stroke="midnightblue" d="M641.51,-94.21C715.93,-69.55 740.55,-80.84 811,-58 814.07,-57 817.2,-55.91 820.33,-54.74"/>
<polygon fill="none" stroke="midnightblue" points="640,-91.03 631.68,-97.58 642.27,-97.65 640,-91.03"/>
</g>
<!-- Node15 -->
<g id="node15" class="node">
<title>Node15</title>
<g id="a_node15"><a xlink:href="class_n_v_miss_shader.html" target="_top" xlink:title=" ">
<polygon fill="none" stroke="black" points="945.5,-0.5 945.5,-57.5 1028.5,-57.5 1028.5,-0.5 945.5,-0.5"/>
<text text-anchor="middle" x="987" y="-45.5" font-family="Helvetica,sans-Serif" font-size="10.00">NVMissShader</text>
<polyline fill="none" stroke="black" points="945.5,-38.5 1028.5,-38.5 "/>
<text text-anchor="middle" x="987" y="-26.5" font-family="Helvetica,sans-Serif" font-size="10.00"> </text>
<polyline fill="none" stroke="black" points="945.5,-19.5 1028.5,-19.5 "/>
<text text-anchor="start" x="953.5" y="-7.5" font-family="Helvetica,sans-Serif" font-size="10.00">+ create()</text>
</a>
</g>
</g>
<!-- Node6&#45;&gt;Node15 -->
<g id="edge14" class="edge">
<title>Node6&#45;&gt;Node15</title>
<path fill="none" stroke="midnightblue" d="M641.36,-94.38C769.61,-57.94 813.35,-97.53 936,-58 939.08,-57.01 942.18,-55.83 945.26,-54.52"/>
<polygon fill="none" stroke="midnightblue" points="640.18,-91.08 631.57,-97.26 642.15,-97.8 640.18,-91.08"/>
</g>
<!-- Node16 -->
<g id="node16" class="node">
<title>Node16</title>
<g id="a_node16"><a xlink:href="class_n_v_raygen_shader.html" target="_top" xlink:title=" ">
<polygon fill="none" stroke="black" points="1047,-0.5 1047,-57.5 1141,-57.5 1141,-0.5 1047,-0.5"/>
<text text-anchor="middle" x="1094" y="-45.5" font-family="Helvetica,sans-Serif" font-size="10.00">NVRaygenShader</text>
<polyline fill="none" stroke="black" points="1047,-38.5 1141,-38.5 "/>
<text text-anchor="middle" x="1094" y="-26.5" font-family="Helvetica,sans-Serif" font-size="10.00"> </text>
<polyline fill="none" stroke="black" points="1047,-19.5 1141,-19.5 "/>
<text text-anchor="start" x="1055" y="-7.5" font-family="Helvetica,sans-Serif" font-size="10.00">+ create()</text>
</a>
</g>
</g>
<!-- Node6&#45;&gt;Node16 -->
<g id="edge15" class="edge">
<title>Node6&#45;&gt;Node16</title>
<path fill="none" stroke="midnightblue" d="M641.43,-94.39C813.54,-47.77 870.75,-105.56 1038,-58 1040.93,-57.17 1043.88,-56.18 1046.83,-55.09"/>
<polygon fill="none" stroke="midnightblue" points="640.23,-91.09 631.54,-97.15 642.11,-97.83 640.23,-91.09"/>
</g>
</g>
</svg>
