<?xml version="1.0" encoding="UTF-8" standalone="no"?>
<!DOCTYPE svg PUBLIC "-//W3C//DTD SVG 1.1//EN"
 "http://www.w3.org/Graphics/SVG/1.1/DTD/svg11.dtd">
<!-- Generated by graphviz version 3.0.0 (20220413.0106)
 -->
<!-- Title: Instance::createPhysicalDevices Pages: 1 -->
<svg width="424pt" height="39pt"
 viewBox="0.00 0.00 424.00 39.00" xmlns="http://www.w3.org/2000/svg" xmlns:xlink="http://www.w3.org/1999/xlink">
<g id="graph0" class="graph" transform="scale(1 1) rotate(0) translate(4 35)">
<title>Instance::createPhysicalDevices</title>
<!-- Node1 -->
<g id="node1" class="node">
<title>Node1</title>
<g id="a_node1"><a xlink:title=" ">
<polygon fill="#bfbfbf" stroke="black" points="0,-0.5 0,-30.5 122,-30.5 122,-0.5 0,-0.5"/>
<text text-anchor="start" x="8" y="-18.5" font-family="Helvetica,sans-Serif" font-size="10.00">Instance::createPhysical</text>
<text text-anchor="middle" x="61" y="-7.5" font-family="Helvetica,sans-Serif" font-size="10.00">Devices</text>
</a>
</g>
</g>
<!-- Node2 -->
<g id="node2" class="node">
<title>Node2</title>
<g id="a_node2"><a xlink:href="class_physical_device.html#add33c9f9e2280a6639af4538bdb2dc1c" target="_top" xlink:title=" ">
<polygon fill="none" stroke="black" points="158,-6 158,-25 273,-25 273,-6 158,-6"/>
<text text-anchor="middle" x="215.5" y="-13" font-family="Helvetica,sans-Serif" font-size="10.00">PhysicalDevice::create</text>
</a>
</g>
</g>
<!-- Node1&#45;&gt;Node2 -->
<g id="edge1" class="edge">
<title>Node1&#45;&gt;Node2</title>
<path fill="none" stroke="midnightblue" d="M122.27,-15.5C130.56,-15.5 139.11,-15.5 147.51,-15.5"/>
<polygon fill="midnightblue" stroke="midnightblue" points="147.65,-19 157.65,-15.5 147.65,-12 147.65,-19"/>
</g>
<!-- Node3 -->
<g id="node3" class="node">
<title>Node3</title>
<g id="a_node3"><a xlink:href="class_queue_family_handler.html#a38af9b43bb9df16c7970afef803f09b0" target="_top" xlink:title=" ">
<polygon fill="none" stroke="black" points="309,-0.5 309,-30.5 416,-30.5 416,-0.5 309,-0.5"/>
<text text-anchor="start" x="317" y="-18.5" font-family="Helvetica,sans-Serif" font-size="10.00">QueueFamilyHandler</text>
<text text-anchor="middle" x="362.5" y="-7.5" font-family="Helvetica,sans-Serif" font-size="10.00">::create</text>
</a>
</g>
</g>
<!-- Node2&#45;&gt;Node3 -->
<g id="edge2" class="edge">
<title>Node2&#45;&gt;Node3</title>
<path fill="none" stroke="midnightblue" d="M273.39,-15.5C281.63,-15.5 290.14,-15.5 298.49,-15.5"/>
<polygon fill="midnightblue" stroke="midnightblue" points="298.56,-19 308.56,-15.5 298.56,-12 298.56,-19"/>
</g>
</g>
</svg>
