<?xml version="1.0" encoding="UTF-8" standalone="no"?>
<!DOCTYPE svg PUBLIC "-//W3C//DTD SVG 1.1//EN"
 "http://www.w3.org/Graphics/SVG/1.1/DTD/svg11.dtd">
<!-- Generated by graphviz version 3.0.0 (20220413.0106)
 -->
<!-- Title: TextureLibrary Pages: 1 -->
<svg width="123pt" height="303pt"
 viewBox="0.00 0.00 123.00 303.00" xmlns="http://www.w3.org/2000/svg" xmlns:xlink="http://www.w3.org/1999/xlink">
<g id="graph0" class="graph" transform="scale(1 1) rotate(0) translate(4 299)">
<title>TextureLibrary</title>
<!-- Node1 -->
<g id="node1" class="node">
<title>Node1</title>
<g id="a_node1"><a xlink:title="Library that manages texture objects.">
<polygon fill="#bfbfbf" stroke="black" points="1,-0.5 1,-178.5 114,-178.5 114,-0.5 1,-0.5"/>
<text text-anchor="middle" x="57.5" y="-166.5" font-family="Helvetica,sans-Serif" font-size="10.00">TextureLibrary</text>
<polyline fill="none" stroke="black" points="1,-159.5 114,-159.5 "/>
<text text-anchor="start" x="9" y="-147.5" font-family="Helvetica,sans-Serif" font-size="10.00">&#45; device</text>
<text text-anchor="start" x="9" y="-136.5" font-family="Helvetica,sans-Serif" font-size="10.00">&#45; renderQueue</text>
<text text-anchor="start" x="9" y="-125.5" font-family="Helvetica,sans-Serif" font-size="10.00">&#45; transferPool</text>
<text text-anchor="start" x="9" y="-114.5" font-family="Helvetica,sans-Serif" font-size="10.00">&#45; imageSampler</text>
<text text-anchor="start" x="9" y="-103.5" font-family="Helvetica,sans-Serif" font-size="10.00">&#45; defaultTexture</text>
<text text-anchor="start" x="9" y="-92.5" font-family="Helvetica,sans-Serif" font-size="10.00">&#45; textures</text>
<polyline fill="none" stroke="black" points="1,-85.5 114,-85.5 "/>
<text text-anchor="start" x="9" y="-73.5" font-family="Helvetica,sans-Serif" font-size="10.00">+ createTexture()</text>
<text text-anchor="start" x="9" y="-62.5" font-family="Helvetica,sans-Serif" font-size="10.00">+ updateSettings()</text>
<text text-anchor="start" x="9" y="-51.5" font-family="Helvetica,sans-Serif" font-size="10.00">+ getDevice()</text>
<text text-anchor="start" x="9" y="-40.5" font-family="Helvetica,sans-Serif" font-size="10.00">+ getSampler()</text>
<text text-anchor="start" x="9" y="-29.5" font-family="Helvetica,sans-Serif" font-size="10.00">+ getDefaultTexture()</text>
<text text-anchor="start" x="9" y="-18.5" font-family="Helvetica,sans-Serif" font-size="10.00">+ getTextureSettings()</text>
<text text-anchor="start" x="9" y="-7.5" font-family="Helvetica,sans-Serif" font-size="10.00">+ create()</text>
</a>
</g>
</g>
<!-- Node2 -->
<g id="node2" class="node">
<title>Node2</title>
<g id="a_node2"><a xlink:href="struct_texture_quality_settings.html" target="_top" xlink:title="Struct for storing texture settings.">
<polygon fill="none" stroke="black" points="0,-226.5 0,-294.5 115,-294.5 115,-226.5 0,-226.5"/>
<text text-anchor="middle" x="57.5" y="-282.5" font-family="Helvetica,sans-Serif" font-size="10.00">TextureQualitySettings</text>
<polyline fill="none" stroke="black" points="0,-275.5 115,-275.5 "/>
<text text-anchor="start" x="8" y="-263.5" font-family="Helvetica,sans-Serif" font-size="10.00">+ anisotropy</text>
<text text-anchor="start" x="8" y="-252.5" font-family="Helvetica,sans-Serif" font-size="10.00">+ mipLevels</text>
<polyline fill="none" stroke="black" points="0,-245.5 115,-245.5 "/>
<text text-anchor="middle" x="57.5" y="-233.5" font-family="Helvetica,sans-Serif" font-size="10.00"> </text>
</a>
</g>
</g>
<!-- Node2&#45;&gt;Node1 -->
<g id="edge1" class="edge">
<title>Node2&#45;&gt;Node1</title>
<path fill="none" stroke="#404040" d="M57.5,-226.11C57.5,-215.69 57.5,-203.6 57.5,-191.02"/>
<polygon fill="none" stroke="#404040" points="57.5,-190.85 53.5,-184.85 57.5,-178.85 61.5,-184.85 57.5,-190.85"/>
<text text-anchor="middle" x="77.5" y="-200" font-family="Helvetica,sans-Serif" font-size="10.00"> &#45;settings</text>
</g>
</g>
</svg>
