<?xml version="1.0" encoding="UTF-8" standalone="no"?>
<!DOCTYPE svg PUBLIC "-//W3C//DTD SVG 1.1//EN"
 "http://www.w3.org/Graphics/SVG/1.1/DTD/svg11.dtd">
<!-- Generated by graphviz version 2.49.3 (20211215.1918)
 -->
<!-- Title: CommandPool::create Pages: 1 -->
<svg width="695pt" height="154pt"
 viewBox="0.00 0.00 695.00 154.00" xmlns="http://www.w3.org/2000/svg" xmlns:xlink="http://www.w3.org/1999/xlink">
<g id="graph0" class="graph" transform="scale(1 1) rotate(0) translate(4 150)">
<title>CommandPool::create</title>
<!-- Node1 -->
<g id="node1" class="node">
<title>Node1</title>
<g id="a_node1"><a xlink:title=" ">
<polygon fill="#bfbfbf" stroke="black" points="575,-66.5 575,-85.5 687,-85.5 687,-66.5 575,-66.5"/>
<text text-anchor="middle" x="631" y="-73.5" font-family="Helvetica,sans-Serif" font-size="10.00">CommandPool::create</text>
</a>
</g>
</g>
<!-- Node2 -->
<g id="node2" class="node">
<title>Node2</title>
<g id="a_node2"><a xlink:href="class_scene.html#a26c330284ae1b40d737ac9360cfc61e3" target="_top" xlink:title=" ">
<polygon fill="none" stroke="black" points="420.5,-126.5 420.5,-145.5 496.5,-145.5 496.5,-126.5 420.5,-126.5"/>
<text text-anchor="middle" x="458.5" y="-133.5" font-family="Helvetica,sans-Serif" font-size="10.00">Scene::create</text>
</a>
</g>
</g>
<!-- Node1&#45;&gt;Node2 -->
<g id="edge1" class="edge">
<title>Node1&#45;&gt;Node2</title>
<path fill="none" stroke="midnightblue" d="M597.77,-89.51C580.47,-96.57 558.72,-105.14 539,-112 524.16,-117.17 507.54,-122.28 493.35,-126.46"/>
<polygon fill="midnightblue" stroke="midnightblue" points="599.47,-92.6 607.38,-85.56 596.81,-86.12 599.47,-92.6"/>
</g>
<!-- Node5 -->
<g id="node5" class="node">
<title>Node5</title>
<g id="a_node5"><a xlink:href="class_mandelbrot_app.html#aef0e6061890a496c1571ffceb502fcd6" target="_top" xlink:title=" ">
<polygon fill="none" stroke="black" points="165,-88.5 165,-107.5 342,-107.5 342,-88.5 165,-88.5"/>
<text text-anchor="middle" x="253.5" y="-95.5" font-family="Helvetica,sans-Serif" font-size="10.00">MandelbrotApp::createCommandPool</text>
</a>
</g>
</g>
<!-- Node1&#45;&gt;Node5 -->
<g id="edge4" class="edge">
<title>Node1&#45;&gt;Node5</title>
<path fill="none" stroke="midnightblue" d="M565,-79.81C503.34,-83.42 410.23,-88.88 342.05,-92.87"/>
<polygon fill="midnightblue" stroke="midnightblue" points="565.22,-83.3 575,-79.22 564.81,-76.31 565.22,-83.3"/>
</g>
<!-- Node6 -->
<g id="node6" class="node">
<title>Node6</title>
<g id="a_node6"><a xlink:href="class_render_manager.html#a65e7a5c0a757d951516b3a207dbb19db" target="_top" xlink:title=" ">
<polygon fill="none" stroke="black" points="378,-39 378,-69 539,-69 539,-39 378,-39"/>
<text text-anchor="start" x="386" y="-57" font-family="Helvetica,sans-Serif" font-size="10.00">RenderManager::createCommand</text>
<text text-anchor="middle" x="458.5" y="-46" font-family="Helvetica,sans-Serif" font-size="10.00">Pools</text>
</a>
</g>
</g>
<!-- Node1&#45;&gt;Node6 -->
<g id="edge6" class="edge">
<title>Node1&#45;&gt;Node6</title>
<path fill="none" stroke="midnightblue" d="M564.6,-67.56C556.23,-66.48 547.6,-65.37 539.04,-64.26"/>
<polygon fill="midnightblue" stroke="midnightblue" points="564.28,-71.05 574.64,-68.86 565.17,-64.11 564.28,-71.05"/>
</g>
<!-- Node8 -->
<g id="node8" class="node">
<title>Node8</title>
<g id="a_node8"><a xlink:href="vulkan__voxel__rasterizer_8cpp.html#ae66f6b31b5ad750f1fe042a706a4e3d4" target="_top" xlink:title=" ">
<polygon fill="none" stroke="black" points="439.5,-0.5 439.5,-19.5 477.5,-19.5 477.5,-0.5 439.5,-0.5"/>
<text text-anchor="middle" x="458.5" y="-7.5" font-family="Helvetica,sans-Serif" font-size="10.00">main</text>
</a>
</g>
</g>
<!-- Node1&#45;&gt;Node8 -->
<g id="edge8" class="edge">
<title>Node1&#45;&gt;Node8</title>
<path fill="none" stroke="midnightblue" d="M605.77,-61.43C587.85,-51.17 562.56,-37.75 539,-29 518.51,-21.39 493.91,-16.06 477.55,-13.02"/>
<polygon fill="midnightblue" stroke="midnightblue" points="604.02,-64.46 614.43,-66.47 607.54,-58.41 604.02,-64.46"/>
</g>
<!-- Node3 -->
<g id="node3" class="node">
<title>Node3</title>
<g id="a_node3"><a xlink:href="class_mandelbrot_app.html#a9adbc757b127cc20ef8fe983bd29ebbb" target="_top" xlink:title=" ">
<polygon fill="none" stroke="black" points="183,-126.5 183,-145.5 324,-145.5 324,-126.5 183,-126.5"/>
<text text-anchor="middle" x="253.5" y="-133.5" font-family="Helvetica,sans-Serif" font-size="10.00">MandelbrotApp::createScene</text>
</a>
</g>
</g>
<!-- Node2&#45;&gt;Node3 -->
<g id="edge2" class="edge">
<title>Node2&#45;&gt;Node3</title>
<path fill="none" stroke="midnightblue" d="M410.12,-136C384.61,-136 352.66,-136 324.35,-136"/>
<polygon fill="midnightblue" stroke="midnightblue" points="410.27,-139.5 420.27,-136 410.27,-132.5 410.27,-139.5"/>
</g>
<!-- Node4 -->
<g id="node4" class="node">
<title>Node4</title>
<g id="a_node4"><a xlink:href="class_mandelbrot_app.html#ad5c4a7e7fd79bc75fea87df0165005b6" target="_top" xlink:title=" ">
<polygon fill="none" stroke="black" points="0,-107.5 0,-126.5 129,-126.5 129,-107.5 0,-107.5"/>
<text text-anchor="middle" x="64.5" y="-114.5" font-family="Helvetica,sans-Serif" font-size="10.00">MandelbrotApp::initVulkan</text>
</a>
</g>
</g>
<!-- Node3&#45;&gt;Node4 -->
<g id="edge3" class="edge">
<title>Node3&#45;&gt;Node4</title>
<path fill="none" stroke="midnightblue" d="M172.83,-127.9C158.19,-126.42 143.1,-124.88 129.01,-123.45"/>
<polygon fill="midnightblue" stroke="midnightblue" points="172.57,-131.4 182.87,-128.93 173.27,-124.43 172.57,-131.4"/>
</g>
<!-- Node5&#45;&gt;Node4 -->
<g id="edge5" class="edge">
<title>Node5&#45;&gt;Node4</title>
<path fill="none" stroke="midnightblue" d="M154.57,-107.95C145.9,-108.83 137.28,-109.71 129.02,-110.55"/>
<polygon fill="midnightblue" stroke="midnightblue" points="155.15,-111.41 164.75,-106.92 154.45,-104.44 155.15,-111.41"/>
</g>
<!-- Node7 -->
<g id="node7" class="node">
<title>Node7</title>
<g id="a_node7"><a xlink:href="class_render_manager.html#a2f5991e4b82925a2571e6fabf1e8b7b9" target="_top" xlink:title=" ">
<polygon fill="none" stroke="black" points="180,-39 180,-69 327,-69 327,-39 180,-39"/>
<text text-anchor="start" x="188" y="-57" font-family="Helvetica,sans-Serif" font-size="10.00">RenderManager::createRender</text>
<text text-anchor="middle" x="253.5" y="-46" font-family="Helvetica,sans-Serif" font-size="10.00">Objects</text>
</a>
</g>
</g>
<!-- Node6&#45;&gt;Node7 -->
<g id="edge7" class="edge">
<title>Node6&#45;&gt;Node7</title>
<path fill="none" stroke="midnightblue" d="M367.61,-54C354.13,-54 340.37,-54 327.31,-54"/>
<polygon fill="midnightblue" stroke="midnightblue" points="367.85,-57.5 377.85,-54 367.85,-50.5 367.85,-57.5"/>
</g>
</g>
</svg>
