<?xml version="1.0" encoding="UTF-8" standalone="no"?>
<!DOCTYPE svg PUBLIC "-//W3C//DTD SVG 1.1//EN"
 "http://www.w3.org/Graphics/SVG/1.1/DTD/svg11.dtd">
<!-- Generated by graphviz version 2.49.3 (20211215.1918)
 -->
<!-- Title: VoxelCodecOctreeConstructable Pages: 1 -->
<svg width="281pt" height="668pt"
 viewBox="0.00 0.00 281.00 668.00" xmlns="http://www.w3.org/2000/svg" xmlns:xlink="http://www.w3.org/1999/xlink">
<g id="graph0" class="graph" transform="scale(1 1) rotate(0) translate(4 664)">
<title>VoxelCodecOctreeConstructable</title>
<!-- Node1 -->
<g id="node1" class="node">
<title>Node1</title>
<g id="a_node1"><a xlink:title=" ">
<polygon fill="#bfbfbf" stroke="black" points="73.5,-0.5 73.5,-57.5 231.5,-57.5 231.5,-0.5 73.5,-0.5"/>
<text text-anchor="middle" x="152.5" y="-45.5" font-family="Helvetica,sans-Serif" font-size="10.00">VoxelCodecOctreeConstructable</text>
<polyline fill="none" stroke="black" points="73.5,-38.5 231.5,-38.5 "/>
<text text-anchor="middle" x="152.5" y="-26.5" font-family="Helvetica,sans-Serif" font-size="10.00"> </text>
<polyline fill="none" stroke="black" points="73.5,-19.5 231.5,-19.5 "/>
<text text-anchor="middle" x="152.5" y="-7.5" font-family="Helvetica,sans-Serif" font-size="10.00"> </text>
</a>
</g>
</g>
<!-- Node2 -->
<g id="node2" class="node">
<title>Node2</title>
<g id="a_node2"><a xlink:href="class_voxel_codec_octree_base.html" target="_top" xlink:title=" ">
<polygon fill="none" stroke="black" points="82.5,-95.5 82.5,-284.5 222.5,-284.5 222.5,-95.5 82.5,-95.5"/>
<text text-anchor="middle" x="152.5" y="-272.5" font-family="Helvetica,sans-Serif" font-size="10.00">VoxelCodecOctreeBase</text>
<polyline fill="none" stroke="black" points="82.5,-265.5 222.5,-265.5 "/>
<text text-anchor="start" x="90.5" y="-253.5" font-family="Helvetica,sans-Serif" font-size="10.00"># actualSize</text>
<text text-anchor="start" x="90.5" y="-242.5" font-family="Helvetica,sans-Serif" font-size="10.00"># nodeStack</text>
<polyline fill="none" stroke="black" points="82.5,-235.5 222.5,-235.5 "/>
<text text-anchor="start" x="90.5" y="-223.5" font-family="Helvetica,sans-Serif" font-size="10.00">+ getDepth()</text>
<text text-anchor="start" x="90.5" y="-212.5" font-family="Helvetica,sans-Serif" font-size="10.00">+ getPos()</text>
<text text-anchor="start" x="90.5" y="-201.5" font-family="Helvetica,sans-Serif" font-size="10.00">+ isLeaf()</text>
<text text-anchor="start" x="90.5" y="-190.5" font-family="Helvetica,sans-Serif" font-size="10.00">+ holdsData()</text>
<text text-anchor="start" x="90.5" y="-179.5" font-family="Helvetica,sans-Serif" font-size="10.00">+ getChild()</text>
<text text-anchor="start" x="90.5" y="-168.5" font-family="Helvetica,sans-Serif" font-size="10.00">+ getLeaf()</text>
<text text-anchor="start" x="90.5" y="-157.5" font-family="Helvetica,sans-Serif" font-size="10.00">+ enterNode()</text>
<text text-anchor="start" x="90.5" y="-146.5" font-family="Helvetica,sans-Serif" font-size="10.00">+ enterNode()</text>
<text text-anchor="start" x="90.5" y="-135.5" font-family="Helvetica,sans-Serif" font-size="10.00">+ nextNode()</text>
<text text-anchor="start" x="90.5" y="-124.5" font-family="Helvetica,sans-Serif" font-size="10.00">+ nextNode()</text>
<text text-anchor="start" x="90.5" y="-113.5" font-family="Helvetica,sans-Serif" font-size="10.00">+ leaveNode()</text>
<text text-anchor="start" x="90.5" y="-102.5" font-family="Helvetica,sans-Serif" font-size="10.00">+ ~VoxelCodecOctreeBase()</text>
</a>
</g>
</g>
<!-- Node2&#45;&gt;Node1 -->
<g id="edge1" class="edge">
<title>Node2&#45;&gt;Node1</title>
<path fill="none" stroke="midnightblue" d="M152.5,-85.08C152.5,-75.19 152.5,-65.85 152.5,-57.78"/>
<polygon fill="none" stroke="midnightblue" points="149,-85.13 152.5,-95.13 156,-85.13 149,-85.13"/>
</g>
<!-- Node3 -->
<g id="node3" class="node">
<title>Node3</title>
<g id="a_node3"><a xlink:href="class_voxel_codec_base.html" target="_top" xlink:title=" ">
<polygon fill="none" stroke="black" points="25,-332.5 25,-532.5 148,-532.5 148,-332.5 25,-332.5"/>
<text text-anchor="middle" x="86.5" y="-520.5" font-family="Helvetica,sans-Serif" font-size="10.00">VoxelCodecBase</text>
<polyline fill="none" stroke="black" points="25,-513.5 148,-513.5 "/>
<text text-anchor="start" x="33" y="-501.5" font-family="Helvetica,sans-Serif" font-size="10.00"># allocationPtr</text>
<text text-anchor="start" x="33" y="-490.5" font-family="Helvetica,sans-Serif" font-size="10.00"># size</text>
<text text-anchor="start" x="33" y="-479.5" font-family="Helvetica,sans-Serif" font-size="10.00"># readWritePtr</text>
<text text-anchor="start" x="33" y="-468.5" font-family="Helvetica,sans-Serif" font-size="10.00"># voxelIndex</text>
<polyline fill="none" stroke="black" points="25,-461.5 148,-461.5 "/>
<text text-anchor="start" x="33" y="-449.5" font-family="Helvetica,sans-Serif" font-size="10.00">+ getDataPtr()</text>
<text text-anchor="start" x="33" y="-438.5" font-family="Helvetica,sans-Serif" font-size="10.00">+ getReadWritePtr()</text>
<text text-anchor="start" x="33" y="-427.5" font-family="Helvetica,sans-Serif" font-size="10.00">+ getCurrentVoxelIndex()</text>
<text text-anchor="start" x="33" y="-416.5" font-family="Helvetica,sans-Serif" font-size="10.00">+ skipVoxel()</text>
<text text-anchor="start" x="33" y="-405.5" font-family="Helvetica,sans-Serif" font-size="10.00">+ skipVoxels()</text>
<text text-anchor="start" x="33" y="-394.5" font-family="Helvetica,sans-Serif" font-size="10.00">+ jumpToVoxel()</text>
<text text-anchor="start" x="33" y="-383.5" font-family="Helvetica,sans-Serif" font-size="10.00">+ jumpToVoxel()</text>
<text text-anchor="start" x="33" y="-372.5" font-family="Helvetica,sans-Serif" font-size="10.00">+ getElementPtr()</text>
<text text-anchor="start" x="33" y="-361.5" font-family="Helvetica,sans-Serif" font-size="10.00">+ copyElementToPtr()</text>
<text text-anchor="start" x="33" y="-350.5" font-family="Helvetica,sans-Serif" font-size="10.00">+ copyElementFromPtr()</text>
<text text-anchor="start" x="33" y="-339.5" font-family="Helvetica,sans-Serif" font-size="10.00">+ ~VoxelCodecBase()</text>
</a>
</g>
</g>
<!-- Node3&#45;&gt;Node2 -->
<g id="edge2" class="edge">
<title>Node3&#45;&gt;Node2</title>
<path fill="none" stroke="midnightblue" d="M116.38,-322.62C119.87,-309.92 123.4,-297.04 126.82,-284.57"/>
<polygon fill="none" stroke="midnightblue" points="113,-321.72 113.73,-332.29 119.75,-323.57 113,-321.72"/>
</g>
<!-- Node4 -->
<g id="node4" class="node">
<title>Node4</title>
<g id="a_node4"><a xlink:href="struct_voxel_region.html" target="_top" xlink:title=" ">
<polygon fill="none" stroke="black" points="0,-580.5 0,-659.5 71,-659.5 71,-580.5 0,-580.5"/>
<text text-anchor="middle" x="35.5" y="-647.5" font-family="Helvetica,sans-Serif" font-size="10.00">VoxelRegion</text>
<polyline fill="none" stroke="black" points="0,-640.5 71,-640.5 "/>
<text text-anchor="start" x="8" y="-628.5" font-family="Helvetica,sans-Serif" font-size="10.00">+ x</text>
<text text-anchor="start" x="8" y="-617.5" font-family="Helvetica,sans-Serif" font-size="10.00">+ y</text>
<text text-anchor="start" x="8" y="-606.5" font-family="Helvetica,sans-Serif" font-size="10.00">+ z</text>
<polyline fill="none" stroke="black" points="0,-599.5 71,-599.5 "/>
<text text-anchor="middle" x="35.5" y="-587.5" font-family="Helvetica,sans-Serif" font-size="10.00"> </text>
</a>
</g>
</g>
<!-- Node4&#45;&gt;Node3 -->
<g id="edge3" class="edge">
<title>Node4&#45;&gt;Node3</title>
<path fill="none" stroke="#404040" d="M42.03,-580.34C43.89,-570.7 46.08,-560.43 48.5,-551 49.05,-548.84 49.63,-546.65 50.21,-544.46"/>
<polygon fill="none" stroke="#404040" points="50.29,-544.18 48.04,-537.33 53.49,-532.61 55.75,-539.46 50.29,-544.18"/>
<text text-anchor="middle" x="82.5" y="-554" font-family="Helvetica,sans-Serif" font-size="10.00"> #allocationSize</text>
</g>
<!-- Node5 -->
<g id="node5" class="node">
<title>Node5</title>
<g id="a_node5"><a xlink:href="class_allocator.html" target="_top" xlink:title=" ">
<polygon fill="none" stroke="black" points="89.5,-586 89.5,-654 187.5,-654 187.5,-586 89.5,-586"/>
<text text-anchor="middle" x="138.5" y="-642" font-family="Helvetica,sans-Serif" font-size="10.00">Allocator</text>
<polyline fill="none" stroke="black" points="89.5,-635 187.5,-635 "/>
<text text-anchor="middle" x="138.5" y="-623" font-family="Helvetica,sans-Serif" font-size="10.00"> </text>
<polyline fill="none" stroke="black" points="89.5,-616 187.5,-616 "/>
<text text-anchor="start" x="97.5" y="-604" font-family="Helvetica,sans-Serif" font-size="10.00">+ makeAllocation()</text>
<text text-anchor="start" x="97.5" y="-593" font-family="Helvetica,sans-Serif" font-size="10.00">+ ~Allocator()</text>
</a>
</g>
</g>
<!-- Node5&#45;&gt;Node3 -->
<g id="edge4" class="edge">
<title>Node5&#45;&gt;Node3</title>
<path fill="none" stroke="#404040" d="M129.2,-585.84C125.83,-573.79 121.8,-559.43 117.59,-544.4"/>
<polygon fill="none" stroke="#404040" points="117.58,-544.37 112.11,-539.67 114.34,-532.81 119.81,-537.51 117.58,-544.37"/>
<text text-anchor="middle" x="164" y="-554" font-family="Helvetica,sans-Serif" font-size="10.00"> #allocationHandler</text>
</g>
<!-- Node6 -->
<g id="node6" class="node">
<title>Node6</title>
<g id="a_node6"><a xlink:href="class_virtual_allocation.html" target="_top" xlink:title=" ">
<polygon fill="none" stroke="black" points="166,-376.5 166,-488.5 273,-488.5 273,-376.5 166,-376.5"/>
<text text-anchor="middle" x="219.5" y="-476.5" font-family="Helvetica,sans-Serif" font-size="10.00">VirtualAllocation</text>
<polyline fill="none" stroke="black" points="166,-469.5 273,-469.5 "/>
<text text-anchor="start" x="174" y="-457.5" font-family="Helvetica,sans-Serif" font-size="10.00"># size</text>
<polyline fill="none" stroke="black" points="166,-450.5 273,-450.5 "/>
<text text-anchor="start" x="174" y="-438.5" font-family="Helvetica,sans-Serif" font-size="10.00">+ getSize()</text>
<text text-anchor="start" x="174" y="-427.5" font-family="Helvetica,sans-Serif" font-size="10.00">+ getData()</text>
<text text-anchor="start" x="174" y="-416.5" font-family="Helvetica,sans-Serif" font-size="10.00">+ resize()</text>
<text text-anchor="start" x="174" y="-405.5" font-family="Helvetica,sans-Serif" font-size="10.00">+ operator+()</text>
<text text-anchor="start" x="174" y="-394.5" font-family="Helvetica,sans-Serif" font-size="10.00">+ operator size_t()</text>
<text text-anchor="start" x="174" y="-383.5" font-family="Helvetica,sans-Serif" font-size="10.00">+ ~VirtualAllocation()</text>
</a>
</g>
</g>
<!-- Node6&#45;&gt;Node2 -->
<g id="edge5" class="edge">
<title>Node6&#45;&gt;Node2</title>
<path fill="none" stroke="#404040" d="M204.13,-376.32C197.5,-352.54 189.52,-323.9 181.84,-296.32"/>
<polygon fill="none" stroke="#404040" points="181.79,-296.14 176.33,-291.43 178.57,-284.58 184.03,-289.29 181.79,-296.14"/>
<text text-anchor="middle" x="210" y="-306" font-family="Helvetica,sans-Serif" font-size="10.00"> #allocation</text>
</g>
</g>
</svg>
