<?xml version="1.0" encoding="UTF-8" standalone="no"?>
<!DOCTYPE svg PUBLIC "-//W3C//DTD SVG 1.1//EN"
 "http://www.w3.org/Graphics/SVG/1.1/DTD/svg11.dtd">
<!-- Generated by graphviz version 2.49.3 (20211215.1918)
 -->
<!-- Title: MandelbrotApp::recreateSwapChain Pages: 1 -->
<!--zoomable 455 -->
<svg id="main" version="1.1" xmlns="http://www.w3.org/2000/svg" xmlns:xlink="http://www.w3.org/1999/xlink" xml:space="preserve" onload="init(evt)">
<style type="text/css"><![CDATA[
.edge:hover path { stroke: red; }
.edge:hover polygon { stroke: red; fill: red; }
]]></style>
<script type="text/javascript"><![CDATA[
var edges = document.getElementsByTagName('g');
if (edges && edges.length) {
  for (var i=0;i<edges.length;i++) {
    if (edges[i].id.substr(0,4)=='edge') {
      edges[i].setAttribute('class','edge');
    }
  }
}
]]></script>
        <defs>
                <circle id="rim" cx="0" cy="0" r="7"/>
                <circle id="rim2" cx="0" cy="0" r="3.5"/>
                <g id="zoomPlus">
                        <use xlink:href="#rim" fill="#404040">
                                <set attributeName="fill" to="#808080" begin="zoomplus.mouseover" end="zoomplus.mouseout"/>
                        </use>
                        <path d="M-4,0h8M0,-4v8" fill="none" stroke="white" stroke-width="1.5" pointer-events="none"/>
                </g>
                <g id="zoomMin">
                        <use xlink:href="#rim" fill="#404040">
                                <set attributeName="fill" to="#808080" begin="zoomminus.mouseover" end="zoomminus.mouseout"/>
                        </use>
                        <path d="M-4,0h8" fill="none" stroke="white" stroke-width="1.5" pointer-events="none"/>
                </g>
                <g id="dirArrow">
                        <path fill="none" stroke="white" stroke-width="1.5" d="M0,-3.0v7 M-2.5,-0.5L0,-3.0L2.5,-0.5"/>
                </g>
               <g id="resetDef">
                       <use xlink:href="#rim2" fill="#404040">
                               <set attributeName="fill" to="#808080" begin="reset.mouseover" end="reset.mouseout"/>
                       </use>
               </g>
        </defs>

<script type="text/javascript">
var viewWidth = 706;
var viewHeight = 455;
var sectionId = 'dynsection-60';
</script>
<script xlink:href="svgpan.js"/>
<svg id="graph" class="graph">
<g id="viewport">
<title>MandelbrotApp::recreateSwapChain</title>
<!-- Node1 -->
<g id="node1" class="node">
<title>Node1</title>
<g id="a_node1"><a xlink:title=" ">
<polygon fill="#bfbfbf" stroke="black" points="0,-220 0,-250 146,-250 146,-220 0,-220"/>
<text text-anchor="start" x="8" y="-238" font-family="Helvetica,sans-Serif" font-size="10.00">MandelbrotApp::recreateSwap</text>
<text text-anchor="middle" x="73" y="-227" font-family="Helvetica,sans-Serif" font-size="10.00">Chain</text>
</a>
</g>
</g>
<!-- Node2 -->
<g id="node2" class="node">
<title>Node2</title>
<g id="a_node2"><a xlink:href="class_mandelbrot_app.html#ae087b5c0aacb2ec5a2b632d48cf80a7a" target="_top" xlink:title=" ">
<polygon fill="none" stroke="black" points="195,-416 195,-446 336,-446 336,-416 195,-416"/>
<text text-anchor="start" x="203" y="-434" font-family="Helvetica,sans-Serif" font-size="10.00">MandelbrotApp::createFrame</text>
<text text-anchor="middle" x="265.5" y="-423" font-family="Helvetica,sans-Serif" font-size="10.00">Buffers</text>
</a>
</g>
</g>
<!-- Node1&#45;&gt;Node2 -->
<g id="edge1" class="edge">
<title>Node1&#45;&gt;Node2</title>
<path fill="none" stroke="midnightblue" d="M79.26,-250.24C91.63,-283.84 125.86,-364.62 182,-407 183.84,-408.39 185.75,-409.69 187.73,-410.93"/>
<polygon fill="midnightblue" stroke="midnightblue" points="186.3,-414.13 196.76,-415.86 189.66,-407.99 186.3,-414.13"/>
</g>
<!-- Node4 -->
<g id="node4" class="node">
<title>Node4</title>
<g id="a_node4"><a xlink:href="class_mandelbrot_app.html#acb9529b763c37eea10983014fdb7c9dc" target="_top" xlink:title=" ">
<polygon fill="none" stroke="black" points="189.5,-367 189.5,-397 341.5,-397 341.5,-367 189.5,-367"/>
<text text-anchor="start" x="197.5" y="-385" font-family="Helvetica,sans-Serif" font-size="10.00">MandelbrotApp::createGraphics</text>
<text text-anchor="middle" x="265.5" y="-374" font-family="Helvetica,sans-Serif" font-size="10.00">CommandBuffers</text>
</a>
</g>
</g>
<!-- Node1&#45;&gt;Node4 -->
<g id="edge3" class="edge">
<title>Node1&#45;&gt;Node4</title>
<path fill="none" stroke="midnightblue" d="M83.27,-250.35C99.81,-276.43 136.93,-329.32 182,-358 184.62,-359.67 187.36,-361.22 190.19,-362.67"/>
<polygon fill="midnightblue" stroke="midnightblue" points="188.89,-365.93 199.44,-366.96 191.83,-359.58 188.89,-365.93"/>
</g>
<!-- Node6 -->
<g id="node6" class="node">
<title>Node6</title>
<g id="a_node6"><a xlink:href="class_mandelbrot_app.html#adcb7c7f8a3b74b649427ab4bd8047f4c" target="_top" xlink:title=" ">
<polygon fill="none" stroke="black" points="189.5,-318 189.5,-348 341.5,-348 341.5,-318 189.5,-318"/>
<text text-anchor="start" x="197.5" y="-336" font-family="Helvetica,sans-Serif" font-size="10.00">MandelbrotApp::createGraphics</text>
<text text-anchor="middle" x="265.5" y="-325" font-family="Helvetica,sans-Serif" font-size="10.00">DescriptorPools</text>
</a>
</g>
</g>
<!-- Node1&#45;&gt;Node6 -->
<g id="edge5" class="edge">
<title>Node1&#45;&gt;Node6</title>
<path fill="none" stroke="midnightblue" d="M92.01,-250.02C112.61,-266.54 147.89,-292.86 182,-309 186.05,-310.92 190.29,-312.72 194.62,-314.4"/>
<polygon fill="midnightblue" stroke="midnightblue" points="193.59,-317.75 204.19,-317.89 195.99,-311.17 193.59,-317.75"/>
</g>
<!-- Node8 -->
<g id="node8" class="node">
<title>Node8</title>
<g id="a_node8"><a xlink:href="class_mandelbrot_app.html#a32af9647fadd4b7047e4d98307b9d103" target="_top" xlink:title=" ">
<polygon fill="none" stroke="black" points="189.5,-269 189.5,-299 341.5,-299 341.5,-269 189.5,-269"/>
<text text-anchor="start" x="197.5" y="-287" font-family="Helvetica,sans-Serif" font-size="10.00">MandelbrotApp::createGraphics</text>
<text text-anchor="middle" x="265.5" y="-276" font-family="Helvetica,sans-Serif" font-size="10.00">DescriptorSets</text>
</a>
</g>
</g>
<!-- Node1&#45;&gt;Node8 -->
<g id="edge7" class="edge">
<title>Node1&#45;&gt;Node8</title>
<path fill="none" stroke="midnightblue" d="M132.45,-250.03C152.66,-255.23 175.47,-261.1 196.39,-266.48"/>
<polygon fill="midnightblue" stroke="midnightblue" points="195.6,-269.89 206.16,-268.99 197.35,-263.11 195.6,-269.89"/>
</g>
<!-- Node10 -->
<g id="node10" class="node">
<title>Node10</title>
<g id="a_node10"><a xlink:href="class_mandelbrot_app.html#a5e76d0eb44ecf689ac5dc6a2a9336795" target="_top" xlink:title=" ">
<polygon fill="none" stroke="black" points="189.5,-220 189.5,-250 341.5,-250 341.5,-220 189.5,-220"/>
<text text-anchor="start" x="197.5" y="-238" font-family="Helvetica,sans-Serif" font-size="10.00">MandelbrotApp::createGraphics</text>
<text text-anchor="middle" x="265.5" y="-227" font-family="Helvetica,sans-Serif" font-size="10.00">Pipeline</text>
</a>
</g>
</g>
<!-- Node1&#45;&gt;Node10 -->
<g id="edge9" class="edge">
<title>Node1&#45;&gt;Node10</title>
<path fill="none" stroke="midnightblue" d="M146.02,-235C156.83,-235 168.06,-235 179.12,-235"/>
<polygon fill="midnightblue" stroke="midnightblue" points="179.21,-238.5 189.21,-235 179.21,-231.5 179.21,-238.5"/>
</g>
<!-- Node17 -->
<g id="node17" class="node">
<title>Node17</title>
<g id="a_node17"><a xlink:href="class_mandelbrot_app.html#a7059177eab65e623ee37a7c9abec96a1" target="_top" xlink:title=" ">
<polygon fill="none" stroke="black" points="195.5,-171 195.5,-201 335.5,-201 335.5,-171 195.5,-171"/>
<text text-anchor="start" x="203.5" y="-189" font-family="Helvetica,sans-Serif" font-size="10.00">MandelbrotApp::createImage</text>
<text text-anchor="middle" x="265.5" y="-178" font-family="Helvetica,sans-Serif" font-size="10.00">Views</text>
</a>
</g>
</g>
<!-- Node1&#45;&gt;Node17 -->
<g id="edge17" class="edge">
<title>Node1&#45;&gt;Node17</title>
<path fill="none" stroke="midnightblue" d="M132.45,-219.97C152.66,-214.77 175.47,-208.9 196.39,-203.52"/>
<polygon fill="midnightblue" stroke="midnightblue" points="197.35,-206.89 206.16,-201.01 195.6,-200.11 197.35,-206.89"/>
</g>
<!-- Node18 -->
<g id="node18" class="node">
<title>Node18</title>
<g id="a_node18"><a xlink:href="class_mandelbrot_app.html#a42888cf7f601ffe792280926a9499f9a" target="_top" xlink:title=" ">
<polygon fill="none" stroke="black" points="182,-128.5 182,-147.5 349,-147.5 349,-128.5 182,-128.5"/>
<text text-anchor="middle" x="265.5" y="-135.5" font-family="Helvetica,sans-Serif" font-size="10.00">MandelbrotApp::createRenderPass</text>
</a>
</g>
</g>
<!-- Node1&#45;&gt;Node18 -->
<g id="edge18" class="edge">
<title>Node1&#45;&gt;Node18</title>
<path fill="none" stroke="midnightblue" d="M92.42,-219.9C113.1,-203.6 148.19,-177.86 182,-162 191.62,-157.49 202.27,-153.63 212.64,-150.41"/>
<polygon fill="midnightblue" stroke="midnightblue" points="213.85,-153.7 222.45,-147.51 211.87,-146.98 213.85,-153.7"/>
</g>
<!-- Node20 -->
<g id="node20" class="node">
<title>Node20</title>
<g id="a_node20"><a xlink:href="class_mandelbrot_app.html#ab4ca51db62e7b50d59a46e83a7fb4a9e" target="_top" xlink:title=" ">
<polygon fill="none" stroke="black" points="196.5,-71 196.5,-101 334.5,-101 334.5,-71 196.5,-71"/>
<text text-anchor="start" x="204.5" y="-89" font-family="Helvetica,sans-Serif" font-size="10.00">MandelbrotApp::createSwap</text>
<text text-anchor="middle" x="265.5" y="-78" font-family="Helvetica,sans-Serif" font-size="10.00">Chain</text>
</a>
</g>
</g>
<!-- Node1&#45;&gt;Node20 -->
<g id="edge20" class="edge">
<title>Node1&#45;&gt;Node20</title>
<path fill="none" stroke="midnightblue" d="M84.62,-219.82C102.31,-195.54 140.01,-147.78 182,-119 189.66,-113.75 198.29,-109.14 206.99,-105.17"/>
<polygon fill="midnightblue" stroke="midnightblue" points="208.63,-108.27 216.43,-101.1 205.86,-101.84 208.63,-108.27"/>
</g>
<!-- Node23 -->
<g id="node23" class="node">
<title>Node23</title>
<g id="a_node23"><a xlink:href="class_mandelbrot_app.html#a2c5c1ee9048f4abe7dc58673336cf1f0" target="_top" xlink:title=" ">
<polygon fill="none" stroke="black" points="191.5,-9 191.5,-39 339.5,-39 339.5,-9 191.5,-9"/>
<text text-anchor="start" x="199.5" y="-27" font-family="Helvetica,sans-Serif" font-size="10.00">MandelbrotApp::createUniform</text>
<text text-anchor="middle" x="265.5" y="-16" font-family="Helvetica,sans-Serif" font-size="10.00">Buffers</text>
</a>
</g>
</g>
<!-- Node1&#45;&gt;Node23 -->
<g id="edge23" class="edge">
<title>Node1&#45;&gt;Node23</title>
<path fill="none" stroke="midnightblue" d="M80.02,-219.52C93.56,-186.49 129.39,-108.34 182,-62 190.24,-54.74 200.11,-48.61 210.11,-43.55"/>
<polygon fill="midnightblue" stroke="midnightblue" points="211.75,-46.64 219.28,-39.19 208.75,-40.32 211.75,-46.64"/>
</g>
<!-- Node3 -->
<g id="node3" class="node">
<title>Node3</title>
<g id="a_node3"><a xlink:href="class_frame_buffer.html#a3b861048fc9c1861448d4dee7a6b9b69" target="_top" xlink:title=" ">
<polygon fill="none" stroke="black" points="395.5,-421.5 395.5,-440.5 496.5,-440.5 496.5,-421.5 395.5,-421.5"/>
<text text-anchor="middle" x="446" y="-428.5" font-family="Helvetica,sans-Serif" font-size="10.00">FrameBuffer::create</text>
</a>
</g>
</g>
<!-- Node2&#45;&gt;Node3 -->
<g id="edge2" class="edge">
<title>Node2&#45;&gt;Node3</title>
<path fill="none" stroke="midnightblue" d="M336.02,-431C352.24,-431 369.38,-431 385.14,-431"/>
<polygon fill="midnightblue" stroke="midnightblue" points="385.27,-434.5 395.27,-431 385.27,-427.5 385.27,-434.5"/>
</g>
<!-- Node5 -->
<g id="node5" class="node">
<title>Node5</title>
<g id="a_node5"><a xlink:href="class_command_buffer.html#a9958c7132a13830e7eff9bae57e5b570" target="_top" xlink:title=" ">
<polygon fill="none" stroke="black" points="387,-380.5 387,-399.5 505,-399.5 505,-380.5 387,-380.5"/>
<text text-anchor="middle" x="446" y="-387.5" font-family="Helvetica,sans-Serif" font-size="10.00">CommandBuffer::create</text>
</a>
</g>
</g>
<!-- Node4&#45;&gt;Node5 -->
<g id="edge4" class="edge">
<title>Node4&#45;&gt;Node5</title>
<path fill="none" stroke="midnightblue" d="M341.68,-385.37C353.4,-385.89 365.45,-386.43 376.99,-386.95"/>
<polygon fill="midnightblue" stroke="midnightblue" points="376.84,-390.45 386.99,-387.4 377.16,-383.46 376.84,-390.45"/>
</g>
<!-- Node7 -->
<g id="node7" class="node">
<title>Node7</title>
<g id="a_node7"><a xlink:href="class_descriptor_pool.html#a190f2272d8740c7f7fe13b5b8fb8326c" target="_top" xlink:title=" ">
<polygon fill="none" stroke="black" points="390,-342.5 390,-361.5 502,-361.5 502,-342.5 390,-342.5"/>
<text text-anchor="middle" x="446" y="-349.5" font-family="Helvetica,sans-Serif" font-size="10.00">DescriptorPool::create</text>
</a>
</g>
</g>
<!-- Node6&#45;&gt;Node7 -->
<g id="edge6" class="edge">
<title>Node6&#45;&gt;Node7</title>
<path fill="none" stroke="midnightblue" d="M341.68,-341C354.34,-342.35 367.38,-343.74 379.75,-345.06"/>
<polygon fill="midnightblue" stroke="midnightblue" points="379.66,-348.56 389.97,-346.14 380.4,-341.6 379.66,-348.56"/>
</g>
<!-- Node9 -->
<g id="node9" class="node">
<title>Node9</title>
<g id="a_node9"><a xlink:href="class_descriptor_set.html#a67313affadff97f5121a39a3e196ddb1" target="_top" xlink:title=" ">
<polygon fill="none" stroke="black" points="392.5,-304.5 392.5,-323.5 499.5,-323.5 499.5,-304.5 392.5,-304.5"/>
<text text-anchor="middle" x="446" y="-311.5" font-family="Helvetica,sans-Serif" font-size="10.00">DescriptorSet::create</text>
</a>
</g>
</g>
<!-- Node8&#45;&gt;Node9 -->
<g id="edge8" class="edge">
<title>Node8&#45;&gt;Node9</title>
<path fill="none" stroke="midnightblue" d="M341.68,-296.64C355.27,-298.92 369.31,-301.28 382.49,-303.49"/>
<polygon fill="midnightblue" stroke="midnightblue" points="381.94,-306.95 392.38,-305.16 383.1,-300.05 381.94,-306.95"/>
</g>
<!-- Node11 -->
<g id="node11" class="node">
<title>Node11</title>
<g id="a_node11"><a xlink:href="class_graphics_pipeline.html#aaaeeb17f9d18aa44304664ea47d2005b" target="_top" xlink:title=" ">
<polygon fill="none" stroke="black" points="385,-266.5 385,-285.5 507,-285.5 507,-266.5 385,-266.5"/>
<text text-anchor="middle" x="446" y="-273.5" font-family="Helvetica,sans-Serif" font-size="10.00">GraphicsPipeline::create</text>
</a>
</g>
</g>
<!-- Node10&#45;&gt;Node11 -->
<g id="edge10" class="edge">
<title>Node10&#45;&gt;Node11</title>
<path fill="none" stroke="midnightblue" d="M331.95,-250.03C352.29,-254.7 374.4,-259.78 393.63,-264.2"/>
<polygon fill="midnightblue" stroke="midnightblue" points="392.87,-267.62 403.4,-266.45 394.44,-260.8 392.87,-267.62"/>
</g>
<!-- Node12 -->
<g id="node12" class="node">
<title>Node12</title>
<g id="a_node12"><a xlink:href="class_vertex_shader.html#a5210d098175734531886d9e5b1741f8e" target="_top" xlink:title=" ">
<polygon fill="none" stroke="black" points="392.5,-228.5 392.5,-247.5 499.5,-247.5 499.5,-228.5 392.5,-228.5"/>
<text text-anchor="middle" x="446" y="-235.5" font-family="Helvetica,sans-Serif" font-size="10.00">VertexShader::create</text>
</a>
</g>
</g>
<!-- Node10&#45;&gt;Node12 -->
<g id="edge11" class="edge">
<title>Node10&#45;&gt;Node12</title>
<path fill="none" stroke="midnightblue" d="M341.68,-236.26C355.14,-236.49 369.04,-236.72 382.1,-236.94"/>
<polygon fill="midnightblue" stroke="midnightblue" points="382.32,-240.45 392.38,-237.12 382.44,-233.45 382.32,-240.45"/>
</g>
<!-- Node14 -->
<g id="node14" class="node">
<title>Node14</title>
<g id="a_node14"><a xlink:href="class_fragment_shader.html#a1221d3fb805310bb64a01e032e794d0b" target="_top" xlink:title=" ">
<polygon fill="none" stroke="black" points="386,-190.5 386,-209.5 506,-209.5 506,-190.5 386,-190.5"/>
<text text-anchor="middle" x="446" y="-197.5" font-family="Helvetica,sans-Serif" font-size="10.00">FragmentShader::create</text>
</a>
</g>
</g>
<!-- Node10&#45;&gt;Node14 -->
<g id="edge13" class="edge">
<title>Node10&#45;&gt;Node14</title>
<path fill="none" stroke="midnightblue" d="M341.68,-220.26C356.56,-217.34 371.97,-214.32 386.2,-211.53"/>
<polygon fill="midnightblue" stroke="midnightblue" points="387.19,-214.9 396.33,-209.54 385.85,-208.03 387.19,-214.9"/>
</g>
<!-- Node15 -->
<g id="node15" class="node">
<title>Node15</title>
<g id="a_node15"><a xlink:href="class_pipeline_layout.html#ab31235616dfb75c9dba21610bd65773d" target="_top" xlink:title=" ">
<polygon fill="none" stroke="black" points="390,-152.5 390,-171.5 502,-171.5 502,-152.5 390,-152.5"/>
<text text-anchor="middle" x="446" y="-159.5" font-family="Helvetica,sans-Serif" font-size="10.00">PipelineLayout::create</text>
</a>
</g>
</g>
<!-- Node10&#45;&gt;Node15 -->
<g id="edge15" class="edge">
<title>Node10&#45;&gt;Node15</title>
<path fill="none" stroke="midnightblue" d="M328.87,-219.87C335.83,-217.31 342.68,-214.36 349,-211 367.39,-201.22 366.73,-191 385,-181 388.93,-178.85 393.15,-176.9 397.45,-175.14"/>
<polygon fill="midnightblue" stroke="midnightblue" points="398.8,-178.37 406.95,-171.59 396.36,-171.81 398.8,-178.37"/>
</g>
<!-- Node13 -->
<g id="node13" class="node">
<title>Node13</title>
<g id="a_node13"><a xlink:href="class_utils.html#a7e7d47e8b017fe7d4ae8802c7b0690cb" target="_top" xlink:title=" ">
<polygon fill="none" stroke="black" points="582.5,-212.5 582.5,-231.5 658.5,-231.5 658.5,-212.5 582.5,-212.5"/>
<text text-anchor="middle" x="620.5" y="-219.5" font-family="Helvetica,sans-Serif" font-size="10.00">Utils::readFile</text>
</a>
</g>
</g>
<!-- Node12&#45;&gt;Node13 -->
<g id="edge12" class="edge">
<title>Node12&#45;&gt;Node13</title>
<path fill="none" stroke="midnightblue" d="M499.69,-233.11C522.89,-230.96 549.93,-228.45 572.44,-226.37"/>
<polygon fill="midnightblue" stroke="midnightblue" points="572.8,-229.85 582.43,-225.44 572.15,-222.88 572.8,-229.85"/>
</g>
<!-- Node14&#45;&gt;Node13 -->
<g id="edge14" class="edge">
<title>Node14&#45;&gt;Node13</title>
<path fill="none" stroke="midnightblue" d="M506.36,-207.57C527.96,-210.33 552.05,-213.4 572.43,-216"/>
<polygon fill="midnightblue" stroke="midnightblue" points="572.05,-219.48 582.42,-217.27 572.94,-212.53 572.05,-219.48"/>
</g>
<!-- Node16 -->
<g id="node16" class="node">
<title>Node16</title>
<g id="a_node16"><a xlink:href="class_vulkan_class.html#a914c142e905262efbd473aeb5bdfb0e8" target="_top" xlink:title=" ">
<polygon fill="none" stroke="black" points="543,-147 543,-177 698,-177 698,-147 543,-147"/>
<text text-anchor="start" x="551" y="-165" font-family="Helvetica,sans-Serif" font-size="10.00">VulkanClass&lt; VkPipelineLayout</text>
<text text-anchor="middle" x="620.5" y="-154" font-family="Helvetica,sans-Serif" font-size="10.00"> &gt;::getHandle</text>
</a>
</g>
</g>
<!-- Node15&#45;&gt;Node16 -->
<g id="edge16" class="edge">
<title>Node15&#45;&gt;Node16</title>
<path fill="none" stroke="midnightblue" d="M502.05,-162C511.92,-162 522.41,-162 532.91,-162"/>
<polygon fill="midnightblue" stroke="midnightblue" points="532.96,-165.5 542.96,-162 532.96,-158.5 532.96,-165.5"/>
</g>
<!-- Node19 -->
<g id="node19" class="node">
<title>Node19</title>
<g id="a_node19"><a xlink:href="class_render_pass.html#a7192ec68626bea374e5003f022dfb0a6" target="_top" xlink:title=" ">
<polygon fill="none" stroke="black" points="395.5,-114.5 395.5,-133.5 496.5,-133.5 496.5,-114.5 395.5,-114.5"/>
<text text-anchor="middle" x="446" y="-121.5" font-family="Helvetica,sans-Serif" font-size="10.00">RenderPass::create</text>
</a>
</g>
</g>
<!-- Node18&#45;&gt;Node19 -->
<g id="edge19" class="edge">
<title>Node18&#45;&gt;Node19</title>
<path fill="none" stroke="midnightblue" d="M349.22,-131.51C361.23,-130.57 373.4,-129.62 384.85,-128.72"/>
<polygon fill="midnightblue" stroke="midnightblue" points="385.44,-132.18 395.14,-127.91 384.89,-125.2 385.44,-132.18"/>
</g>
<!-- Node21 -->
<g id="node21" class="node">
<title>Node21</title>
<g id="a_node21"><a xlink:href="class_swap_chain.html#ae424e0b05d7eac9234bcf2c07cb74e40" target="_top" xlink:title=" ">
<polygon fill="none" stroke="black" points="397,-76.5 397,-95.5 495,-95.5 495,-76.5 397,-76.5"/>
<text text-anchor="middle" x="446" y="-83.5" font-family="Helvetica,sans-Serif" font-size="10.00">SwapChain::create</text>
</a>
</g>
</g>
<!-- Node20&#45;&gt;Node21 -->
<g id="edge21" class="edge">
<title>Node20&#45;&gt;Node21</title>
<path fill="none" stroke="midnightblue" d="M334.75,-86C351.86,-86 370.07,-86 386.66,-86"/>
<polygon fill="midnightblue" stroke="midnightblue" points="386.75,-89.5 396.75,-86 386.75,-82.5 386.75,-89.5"/>
</g>
<!-- Node22 -->
<g id="node22" class="node">
<title>Node22</title>
<g id="a_node22"><a xlink:href="class_mandelbrot_app.html#a69b06411ed6947c7c03adc0245e698d5" target="_top" xlink:title=" ">
<polygon fill="none" stroke="black" points="386.5,-38.5 386.5,-57.5 505.5,-57.5 505.5,-38.5 386.5,-38.5"/>
<text text-anchor="middle" x="446" y="-45.5" font-family="Helvetica,sans-Serif" font-size="10.00">MandelbrotApp::remove</text>
</a>
</g>
</g>
<!-- Node20&#45;&gt;Node22 -->
<g id="edge22" class="edge">
<title>Node20&#45;&gt;Node22</title>
<path fill="none" stroke="midnightblue" d="M334.75,-71.47C353.09,-67.57 372.7,-63.39 390.21,-59.66"/>
<polygon fill="midnightblue" stroke="midnightblue" points="391.2,-63.03 400.25,-57.53 389.74,-56.19 391.2,-63.03"/>
</g>
<!-- Node24 -->
<g id="node24" class="node">
<title>Node24</title>
<g id="a_node24"><a xlink:href="class_uniform_buffer.html#a1e1a7c734eb7243682f2dfa7e964ee58" target="_top" xlink:title=" ">
<polygon fill="none" stroke="black" points="392,-0.5 392,-19.5 500,-19.5 500,-0.5 392,-0.5"/>
<text text-anchor="middle" x="446" y="-7.5" font-family="Helvetica,sans-Serif" font-size="10.00">UniformBuffer::create</text>
</a>
</g>
</g>
<!-- Node23&#45;&gt;Node24 -->
<g id="edge24" class="edge">
<title>Node23&#45;&gt;Node24</title>
<path fill="none" stroke="midnightblue" d="M339.62,-18.27C353.58,-17.17 368.09,-16.03 381.71,-14.96"/>
<polygon fill="midnightblue" stroke="midnightblue" points="382.24,-18.43 391.94,-14.16 381.69,-11.45 382.24,-18.43"/>
</g>
<!-- Node25 -->
<g id="node25" class="node">
<title>Node25</title>
<g id="a_node25"><a xlink:href="class_buffer.html#ada56adf4fb8b9548d654071c9746fc1f" target="_top" xlink:title=" ">
<polygon fill="none" stroke="black" points="583.5,-0.5 583.5,-19.5 657.5,-19.5 657.5,-0.5 583.5,-0.5"/>
<text text-anchor="middle" x="620.5" y="-7.5" font-family="Helvetica,sans-Serif" font-size="10.00">Buffer::create</text>
</a>
</g>
</g>
<!-- Node24&#45;&gt;Node25 -->
<g id="edge25" class="edge">
<title>Node24&#45;&gt;Node25</title>
<path fill="none" stroke="midnightblue" d="M500.16,-10C523.6,-10 550.88,-10 573.43,-10"/>
<polygon fill="midnightblue" stroke="midnightblue" points="573.43,-13.5 583.43,-10 573.43,-6.5 573.43,-13.5"/>
</g>
<!-- Node25&#45;&gt;Node25 -->
<g id="edge26" class="edge">
<title>Node25&#45;&gt;Node25</title>
<path fill="none" stroke="midnightblue" d="M593.68,-19.76C580.63,-28.57 589.57,-38 620.5,-38 641.28,-38 652.13,-33.74 653.06,-28.27"/>
<polygon fill="midnightblue" stroke="midnightblue" points="655.81,-26.09 647.32,-19.76 650.01,-30.01 655.81,-26.09"/>
</g>
</g>
</svg>
        <g id="navigator" transform="translate(0 0)" fill="#404254">
                <rect fill="#f2f5e9" fill-opacity="0.5" stroke="#606060" stroke-width=".5" x="0" y="0" width="60" height="60"/>
                <use id="zoomplus" xlink:href="#zoomPlus" x="17" y="9" onmousedown="handleZoom(evt,'in')"/>
                <use id="zoomminus" xlink:href="#zoomMin" x="42" y="9" onmousedown="handleZoom(evt,'out')"/>
                <use id="reset" xlink:href="#resetDef" x="30" y="36" onmousedown="handleReset()"/>
                <g id="arrowUp" xlink:href="#dirArrow" transform="translate(30 24)" onmousedown="handlePan(0,-1)">
                  <use xlink:href="#rim" fill="#404040">
                        <set attributeName="fill" to="#808080" begin="arrowUp.mouseover" end="arrowUp.mouseout"/>
                  </use>
                  <path fill="none" stroke="white" stroke-width="1.5" d="M0,-3.0v7 M-2.5,-0.5L0,-3.0L2.5,-0.5"/>
                </g>
                <g id="arrowRight" xlink:href="#dirArrow" transform="rotate(90) translate(36 -43)" onmousedown="handlePan(1,0)">
                  <use xlink:href="#rim" fill="#404040">
                        <set attributeName="fill" to="#808080" begin="arrowRight.mouseover" end="arrowRight.mouseout"/>
                  </use>
                  <path fill="none" stroke="white" stroke-width="1.5" d="M0,-3.0v7 M-2.5,-0.5L0,-3.0L2.5,-0.5"/>
                </g>
                <g id="arrowDown" xlink:href="#dirArrow" transform="rotate(180) translate(-30 -48)" onmousedown="handlePan(0,1)">
                  <use xlink:href="#rim" fill="#404040">
                        <set attributeName="fill" to="#808080" begin="arrowDown.mouseover" end="arrowDown.mouseout"/>
                  </use>
                  <path fill="none" stroke="white" stroke-width="1.5" d="M0,-3.0v7 M-2.5,-0.5L0,-3.0L2.5,-0.5"/>
                </g>
                <g id="arrowLeft" xlink:href="#dirArrow" transform="rotate(270) translate(-36 17)" onmousedown="handlePan(-1,0)">
                  <use xlink:href="#rim" fill="#404040">
                        <set attributeName="fill" to="#808080" begin="arrowLeft.mouseover" end="arrowLeft.mouseout"/>
                  </use>
                  <path fill="none" stroke="white" stroke-width="1.5" d="M0,-3.0v7 M-2.5,-0.5L0,-3.0L2.5,-0.5"/>
                </g>
        </g>
        <svg viewBox="0 0 15 15" width="100%" height="30px" preserveAspectRatio="xMaxYMin meet">
         <g id="arrow_out" transform="scale(0.3 0.3)">
          <a xlink:href="class_mandelbrot_app_a733620a6533fb25a6ffa309886b74904_cgraph_org.svg" target="_base">
           <rect id="button" ry="5" rx="5" y="6" x="6" height="38" width="38"
                fill="#f2f5e9" fill-opacity="0.5" stroke="#606060" stroke-width="1.0"/>
           <path id="arrow"
             d="M 11.500037,31.436501 C 11.940474,20.09759 22.043105,11.32322 32.158766,21.979434 L 37.068811,17.246167 C 37.068811,17.246167 37.088388,32 37.088388,32 L 22.160133,31.978069 C 22.160133,31.978069 26.997745,27.140456 26.997745,27.140456 C 18.528582,18.264221 13.291696,25.230495 11.500037,31.436501 z"
             style="fill:#404040;"/>
          </a>
         </g>
        </svg>
</svg>
