<?xml version="1.0" encoding="UTF-8" standalone="no"?>
<!DOCTYPE svg PUBLIC "-//W3C//DTD SVG 1.1//EN"
 "http://www.w3.org/Graphics/SVG/1.1/DTD/svg11.dtd">
<!-- Generated by graphviz version 2.49.3 (20211215.1918)
 -->
<!-- Title: VulkanRasterizer::init Pages: 1 -->
<!--zoomable 583 -->
<svg id="main" version="1.1" xmlns="http://www.w3.org/2000/svg" xmlns:xlink="http://www.w3.org/1999/xlink" xml:space="preserve" onload="init(evt)">
<style type="text/css"><![CDATA[
.edge:hover path { stroke: red; }
.edge:hover polygon { stroke: red; fill: red; }
]]></style>
<script type="text/javascript"><![CDATA[
var edges = document.getElementsByTagName('g');
if (edges && edges.length) {
  for (var i=0;i<edges.length;i++) {
    if (edges[i].id.substr(0,4)=='edge') {
      edges[i].setAttribute('class','edge');
    }
  }
}
]]></script>
        <defs>
                <circle id="rim" cx="0" cy="0" r="7"/>
                <circle id="rim2" cx="0" cy="0" r="3.5"/>
                <g id="zoomPlus">
                        <use xlink:href="#rim" fill="#404040">
                                <set attributeName="fill" to="#808080" begin="zoomplus.mouseover" end="zoomplus.mouseout"/>
                        </use>
                        <path d="M-4,0h8M0,-4v8" fill="none" stroke="white" stroke-width="1.5" pointer-events="none"/>
                </g>
                <g id="zoomMin">
                        <use xlink:href="#rim" fill="#404040">
                                <set attributeName="fill" to="#808080" begin="zoomminus.mouseover" end="zoomminus.mouseout"/>
                        </use>
                        <path d="M-4,0h8" fill="none" stroke="white" stroke-width="1.5" pointer-events="none"/>
                </g>
                <g id="dirArrow">
                        <path fill="none" stroke="white" stroke-width="1.5" d="M0,-3.0v7 M-2.5,-0.5L0,-3.0L2.5,-0.5"/>
                </g>
               <g id="resetDef">
                       <use xlink:href="#rim2" fill="#404040">
                               <set attributeName="fill" to="#808080" begin="reset.mouseover" end="reset.mouseout"/>
                       </use>
               </g>
        </defs>

<script type="text/javascript">
var viewWidth = 853;
var viewHeight = 583;
var sectionId = 'dynsection-9';
</script>
<script xlink:href="svgpan.js"/>
<svg id="graph" class="graph">
<g id="viewport">
<title>VulkanRasterizer::init</title>
<!-- Node1 -->
<g id="node1" class="node">
<title>Node1</title>
<g id="a_node1"><a xlink:title=" ">
<polygon fill="#bfbfbf" stroke="black" points="0,-341.5 0,-360.5 107,-360.5 107,-341.5 0,-341.5"/>
<text text-anchor="middle" x="53.5" y="-348.5" font-family="Helvetica,sans-Serif" font-size="10.00">VulkanRasterizer::init</text>
</a>
</g>
</g>
<!-- Node2 -->
<g id="node2" class="node">
<title>Node2</title>
<g id="a_node2"><a xlink:href="class_vulkan_rasterizer.html#a29b1525f64ee3cc77220ec6ac8413a5c" target="_top" xlink:title=" ">
<polygon fill="none" stroke="black" points="154,-456 154,-486 276,-486 276,-456 154,-456"/>
<text text-anchor="start" x="162" y="-474" font-family="Helvetica,sans-Serif" font-size="10.00">VulkanRasterizer::create</text>
<text text-anchor="middle" x="215" y="-463" font-family="Helvetica,sans-Serif" font-size="10.00">Instance</text>
</a>
</g>
</g>
<!-- Node1&#45;&gt;Node2 -->
<g id="edge1" class="edge">
<title>Node1&#45;&gt;Node2</title>
<path fill="none" stroke="midnightblue" d="M60.87,-360.65C73.98,-379.83 105.93,-422.92 143,-447 145.46,-448.59 148.03,-450.09 150.68,-451.5"/>
<polygon fill="midnightblue" stroke="midnightblue" points="149.4,-454.77 159.93,-455.95 152.43,-448.46 149.4,-454.77"/>
</g>
<!-- Node10 -->
<g id="node10" class="node">
<title>Node10</title>
<g id="a_node10"><a xlink:href="class_vulkan_rasterizer.html#a498dd6be7070d25039d287f492fa9ec4" target="_top" xlink:title=" ">
<polygon fill="none" stroke="black" points="154,-407 154,-437 276,-437 276,-407 154,-407"/>
<text text-anchor="start" x="162" y="-425" font-family="Helvetica,sans-Serif" font-size="10.00">VulkanRasterizer::create</text>
<text text-anchor="middle" x="215" y="-414" font-family="Helvetica,sans-Serif" font-size="10.00">RenderManager</text>
</a>
</g>
</g>
<!-- Node1&#45;&gt;Node10 -->
<g id="edge10" class="edge">
<title>Node1&#45;&gt;Node10</title>
<path fill="none" stroke="midnightblue" d="M70.74,-360.66C88.2,-370.79 116.96,-386.77 143,-398 147.33,-399.87 151.85,-401.68 156.43,-403.43"/>
<polygon fill="midnightblue" stroke="midnightblue" points="155.27,-406.73 165.86,-406.91 157.69,-400.16 155.27,-406.73"/>
</g>
<!-- Node12 -->
<g id="node12" class="node">
<title>Node12</title>
<g id="a_node12"><a xlink:href="class_vulkan_rasterizer.html#a05cc5233ba0a972187309807adced9f1" target="_top" xlink:title=" ">
<polygon fill="none" stroke="black" points="154,-358 154,-388 276,-388 276,-358 154,-358"/>
<text text-anchor="start" x="162" y="-376" font-family="Helvetica,sans-Serif" font-size="10.00">VulkanRasterizer::create</text>
<text text-anchor="middle" x="215" y="-365" font-family="Helvetica,sans-Serif" font-size="10.00">Scene</text>
</a>
</g>
</g>
<!-- Node1&#45;&gt;Node12 -->
<g id="edge12" class="edge">
<title>Node1&#45;&gt;Node12</title>
<path fill="none" stroke="midnightblue" d="M107.17,-358.26C118.87,-359.88 131.44,-361.61 143.72,-363.31"/>
<polygon fill="midnightblue" stroke="midnightblue" points="143.55,-366.82 153.93,-364.71 144.51,-359.88 143.55,-366.82"/>
</g>
<!-- Node13 -->
<g id="node13" class="node">
<title>Node13</title>
<g id="a_node13"><a xlink:href="class_vulkan_rasterizer.html#afdbc57016d139bcab3ee3b983ca77227" target="_top" xlink:title=" ">
<polygon fill="none" stroke="black" points="149,-319.5 149,-338.5 281,-338.5 281,-319.5 149,-319.5"/>
<text text-anchor="middle" x="215" y="-326.5" font-family="Helvetica,sans-Serif" font-size="10.00">VulkanRasterizer::createUI</text>
</a>
</g>
</g>
<!-- Node1&#45;&gt;Node13 -->
<g id="edge13" class="edge">
<title>Node1&#45;&gt;Node13</title>
<path fill="none" stroke="midnightblue" d="M107.17,-343.74C117.28,-342.34 128.04,-340.86 138.7,-339.39"/>
<polygon fill="midnightblue" stroke="midnightblue" points="139.44,-342.82 148.87,-337.98 138.48,-335.88 139.44,-342.82"/>
</g>
<!-- Node17 -->
<g id="node17" class="node">
<title>Node17</title>
<g id="a_node17"><a xlink:href="class_vulkan_rasterizer.html#ad74237aa45e8869add80eac8f5eed13f" target="_top" xlink:title=" ">
<polygon fill="none" stroke="black" points="144,-266.5 144,-285.5 286,-285.5 286,-266.5 144,-266.5"/>
<text text-anchor="middle" x="215" y="-273.5" font-family="Helvetica,sans-Serif" font-size="10.00">VulkanRasterizer::initWindow</text>
</a>
</g>
</g>
<!-- Node1&#45;&gt;Node17 -->
<g id="edge17" class="edge">
<title>Node1&#45;&gt;Node17</title>
<path fill="none" stroke="midnightblue" d="M75.03,-341.35C102.78,-328.3 152.46,-304.94 184.29,-289.97"/>
<polygon fill="midnightblue" stroke="midnightblue" points="185.99,-293.04 193.55,-285.61 183.01,-286.7 185.99,-293.04"/>
</g>
<!-- Node22 -->
<g id="node22" class="node">
<title>Node22</title>
<g id="a_node22"><a xlink:href="class_vulkan_rasterizer.html#a0649950f85953da05358416d7616fc09" target="_top" xlink:title=" ">
<polygon fill="none" stroke="black" points="143,-114.5 143,-133.5 287,-133.5 287,-114.5 143,-114.5"/>
<text text-anchor="middle" x="215" y="-121.5" font-family="Helvetica,sans-Serif" font-size="10.00">VulkanRasterizer::loadModels</text>
</a>
</g>
</g>
<!-- Node1&#45;&gt;Node22 -->
<g id="edge22" class="edge">
<title>Node1&#45;&gt;Node22</title>
<path fill="none" stroke="midnightblue" d="M61.35,-341.25C85.84,-306.39 169.27,-187.67 201.32,-142.05"/>
<polygon fill="midnightblue" stroke="midnightblue" points="204.29,-143.91 207.17,-133.72 198.56,-139.89 204.29,-143.91"/>
</g>
<!-- Node3 -->
<g id="node3" class="node">
<title>Node3</title>
<g id="a_node3"><a xlink:href="class_instance.html#a5157cfdc2e0f384b6fc4d2f901f50e51" target="_top" xlink:title=" ">
<polygon fill="none" stroke="black" points="340.5,-461.5 340.5,-480.5 426.5,-480.5 426.5,-461.5 340.5,-461.5"/>
<text text-anchor="middle" x="383.5" y="-468.5" font-family="Helvetica,sans-Serif" font-size="10.00">Instance::create</text>
</a>
</g>
</g>
<!-- Node2&#45;&gt;Node3 -->
<g id="edge2" class="edge">
<title>Node2&#45;&gt;Node3</title>
<path fill="none" stroke="midnightblue" d="M276.11,-471C293.78,-471 312.95,-471 330.09,-471"/>
<polygon fill="midnightblue" stroke="midnightblue" points="330.47,-474.5 340.47,-471 330.47,-467.5 330.47,-474.5"/>
</g>
<!-- Node4 -->
<g id="node4" class="node">
<title>Node4</title>
<g id="a_node4"><a xlink:href="class_instance.html#a2596ee041184991f5bde771922d7a830" target="_top" xlink:title=" ">
<polygon fill="none" stroke="black" points="502,-544 502,-574 629,-574 629,-544 502,-544"/>
<text text-anchor="start" x="510" y="-562" font-family="Helvetica,sans-Serif" font-size="10.00">Instance::checkExtension</text>
<text text-anchor="middle" x="565.5" y="-551" font-family="Helvetica,sans-Serif" font-size="10.00">Support</text>
</a>
</g>
</g>
<!-- Node3&#45;&gt;Node4 -->
<g id="edge3" class="edge">
<title>Node3&#45;&gt;Node4</title>
<path fill="none" stroke="midnightblue" d="M398.23,-480.58C416.35,-492.93 449.51,-514.52 480,-529 488.56,-533.07 497.82,-536.89 506.97,-540.37"/>
<polygon fill="midnightblue" stroke="midnightblue" points="505.84,-543.68 516.44,-543.85 508.26,-537.11 505.84,-543.68"/>
</g>
<!-- Node5 -->
<g id="node5" class="node">
<title>Node5</title>
<g id="a_node5"><a xlink:href="class_instance.html#a3ce4bb24b3870839a2cde17344de7bae" target="_top" xlink:title=" ">
<polygon fill="none" stroke="black" points="687,-527.5 687,-546.5 845,-546.5 845,-527.5 687,-527.5"/>
<text text-anchor="middle" x="766" y="-534.5" font-family="Helvetica,sans-Serif" font-size="10.00">Instance::getRequiredExtensions</text>
</a>
</g>
</g>
<!-- Node3&#45;&gt;Node5 -->
<g id="edge8" class="edge">
<title>Node3&#45;&gt;Node5</title>
<path fill="none" stroke="midnightblue" d="M417.43,-480.6C435.74,-485.7 459,-491.76 480,-496 545.52,-509.24 620.35,-519.84 676.89,-526.94"/>
<polygon fill="midnightblue" stroke="midnightblue" points="676.52,-530.42 686.87,-528.18 677.38,-523.47 676.52,-530.42"/>
</g>
<!-- Node6 -->
<g id="node6" class="node">
<title>Node6</title>
<g id="a_node6"><a xlink:href="class_instance.html#a7dfd2e7ef11a8ea5389ff3b38e2bfe68" target="_top" xlink:title=" ">
<polygon fill="none" stroke="black" points="501.5,-456 501.5,-486 629.5,-486 629.5,-456 501.5,-456"/>
<text text-anchor="start" x="509.5" y="-474" font-family="Helvetica,sans-Serif" font-size="10.00">Instance::checkValidation</text>
<text text-anchor="middle" x="565.5" y="-463" font-family="Helvetica,sans-Serif" font-size="10.00">LayerSupport</text>
</a>
</g>
</g>
<!-- Node3&#45;&gt;Node6 -->
<g id="edge5" class="edge">
<title>Node3&#45;&gt;Node6</title>
<path fill="none" stroke="midnightblue" d="M426.7,-471C445.9,-471 469.18,-471 491.11,-471"/>
<polygon fill="midnightblue" stroke="midnightblue" points="491.4,-474.5 501.4,-471 491.4,-467.5 491.4,-474.5"/>
</g>
<!-- Node8 -->
<g id="node8" class="node">
<title>Node8</title>
<g id="a_node8"><a xlink:href="class_instance.html#ad5276a918a2877e7eee8d4a41d11cb73" target="_top" xlink:title=" ">
<polygon fill="none" stroke="black" points="498,-407 498,-437 633,-437 633,-407 498,-407"/>
<text text-anchor="start" x="506" y="-425" font-family="Helvetica,sans-Serif" font-size="10.00">Instance::CreateDebugUtils</text>
<text text-anchor="middle" x="565.5" y="-414" font-family="Helvetica,sans-Serif" font-size="10.00">MessengerEXT</text>
</a>
</g>
</g>
<!-- Node3&#45;&gt;Node8 -->
<g id="edge7" class="edge">
<title>Node3&#45;&gt;Node8</title>
<path fill="none" stroke="midnightblue" d="M419.63,-461.44C442.32,-455.26 472.53,-447.04 499.5,-439.7"/>
<polygon fill="midnightblue" stroke="midnightblue" points="500.53,-443.04 509.26,-437.04 498.69,-436.29 500.53,-443.04"/>
</g>
<!-- Node9 -->
<g id="node9" class="node">
<title>Node9</title>
<g id="a_node9"><a xlink:href="class_instance.html#afc03642c387a726d74cc7b766e5af16b" target="_top" xlink:title=" ">
<polygon fill="none" stroke="black" points="480,-358 480,-388 651,-388 651,-358 480,-358"/>
<text text-anchor="start" x="488" y="-376" font-family="Helvetica,sans-Serif" font-size="10.00">Instance::populateDebugMessenger</text>
<text text-anchor="middle" x="565.5" y="-365" font-family="Helvetica,sans-Serif" font-size="10.00">CreateInfo</text>
</a>
</g>
</g>
<!-- Node3&#45;&gt;Node9 -->
<g id="edge9" class="edge">
<title>Node3&#45;&gt;Node9</title>
<path fill="none" stroke="midnightblue" d="M417.43,-461.45C426.59,-457.83 436.17,-453.08 444,-447 465.34,-430.43 457.89,-413.53 480,-398 482.84,-396 485.84,-394.17 488.95,-392.47"/>
<polygon fill="midnightblue" stroke="midnightblue" points="490.51,-395.61 497.96,-388.08 487.44,-389.32 490.51,-395.61"/>
</g>
<!-- Node4&#45;&gt;Node5 -->
<g id="edge4" class="edge">
<title>Node4&#45;&gt;Node5</title>
<path fill="none" stroke="midnightblue" d="M629.03,-552.07C644.19,-550.39 660.67,-548.56 676.76,-546.78"/>
<polygon fill="midnightblue" stroke="midnightblue" points="677.15,-550.26 686.71,-545.68 676.38,-543.3 677.15,-550.26"/>
</g>
<!-- Node7 -->
<g id="node7" class="node">
<title>Node7</title>
<g id="a_node7"><a xlink:href="class_instance.html#a8d8b9c56aab51b5a7e0d001081642a2d" target="_top" xlink:title=" ">
<polygon fill="none" stroke="black" points="693,-461.5 693,-480.5 839,-480.5 839,-461.5 693,-461.5"/>
<text text-anchor="middle" x="766" y="-468.5" font-family="Helvetica,sans-Serif" font-size="10.00">Instance::getSupportedLayers</text>
</a>
</g>
</g>
<!-- Node6&#45;&gt;Node7 -->
<g id="edge6" class="edge">
<title>Node6&#45;&gt;Node7</title>
<path fill="none" stroke="midnightblue" d="M629.58,-471C646.38,-471 664.77,-471 682.45,-471"/>
<polygon fill="midnightblue" stroke="midnightblue" points="682.75,-474.5 692.75,-471 682.75,-467.5 682.75,-474.5"/>
</g>
<!-- Node11 -->
<g id="node11" class="node">
<title>Node11</title>
<g id="a_node11"><a xlink:href="class_render_manager.html#ae1e851c6d2e49c8855dd4c4587b4a0e2" target="_top" xlink:title=" ">
<polygon fill="none" stroke="black" points="325.5,-418.5 325.5,-437.5 441.5,-437.5 441.5,-418.5 325.5,-418.5"/>
<text text-anchor="middle" x="383.5" y="-425.5" font-family="Helvetica,sans-Serif" font-size="10.00">RenderManager::create</text>
</a>
</g>
</g>
<!-- Node10&#45;&gt;Node11 -->
<g id="edge11" class="edge">
<title>Node10&#45;&gt;Node11</title>
<path fill="none" stroke="midnightblue" d="M276.11,-424.17C288.75,-424.62 302.17,-425.11 315.06,-425.57"/>
<polygon fill="midnightblue" stroke="midnightblue" points="315.14,-429.07 325.26,-425.94 315.39,-422.08 315.14,-429.07"/>
</g>
<!-- Node14 -->
<g id="node14" class="node">
<title>Node14</title>
<g id="a_node14"><a xlink:href="class_object_list.html#a5cac24a16df4546044c057d760b1f38d" target="_top" xlink:title=" ">
<polygon fill="none" stroke="black" points="337,-380.5 337,-399.5 430,-399.5 430,-380.5 337,-380.5"/>
<text text-anchor="middle" x="383.5" y="-387.5" font-family="Helvetica,sans-Serif" font-size="10.00">ObjectList::create</text>
</a>
</g>
</g>
<!-- Node13&#45;&gt;Node14 -->
<g id="edge14" class="edge">
<title>Node13&#45;&gt;Node14</title>
<path fill="none" stroke="midnightblue" d="M257.22,-338.55C267.16,-341.41 277.61,-344.9 287,-349 304.19,-356.5 305.95,-363.2 323,-371 327.75,-373.17 332.81,-375.2 337.91,-377.06"/>
<polygon fill="midnightblue" stroke="midnightblue" points="337.08,-380.47 347.67,-380.42 339.36,-373.85 337.08,-380.47"/>
</g>
<!-- Node15 -->
<g id="node15" class="node">
<title>Node15</title>
<g id="a_node15"><a xlink:href="class_object_properties.html#aefb35bac46fc7fe3d5cdf25fb48ed0d7" target="_top" xlink:title=" ">
<polygon fill="none" stroke="black" points="323,-342.5 323,-361.5 444,-361.5 444,-342.5 323,-342.5"/>
<text text-anchor="middle" x="383.5" y="-349.5" font-family="Helvetica,sans-Serif" font-size="10.00">ObjectProperties::create</text>
</a>
</g>
</g>
<!-- Node13&#45;&gt;Node15 -->
<g id="edge15" class="edge">
<title>Node13&#45;&gt;Node15</title>
<path fill="none" stroke="midnightblue" d="M281.33,-338.02C291.68,-339.45 302.43,-340.94 312.88,-342.38"/>
<polygon fill="midnightblue" stroke="midnightblue" points="312.4,-345.85 322.78,-343.75 313.36,-338.92 312.4,-345.85"/>
</g>
<!-- Node16 -->
<g id="node16" class="node">
<title>Node16</title>
<g id="a_node16"><a xlink:href="class_main_menu.html#afb553498a92fde4dadac0c87275e7f79" target="_top" xlink:title=" ">
<polygon fill="none" stroke="black" points="337,-304.5 337,-323.5 430,-323.5 430,-304.5 337,-304.5"/>
<text text-anchor="middle" x="383.5" y="-311.5" font-family="Helvetica,sans-Serif" font-size="10.00">MainMenu::create</text>
</a>
</g>
</g>
<!-- Node13&#45;&gt;Node16 -->
<g id="edge16" class="edge">
<title>Node13&#45;&gt;Node16</title>
<path fill="none" stroke="midnightblue" d="M281.33,-323.11C296.28,-321.77 312.05,-320.35 326.57,-319.04"/>
<polygon fill="midnightblue" stroke="midnightblue" points="327.24,-322.49 336.89,-318.11 326.62,-315.52 327.24,-322.49"/>
</g>
<!-- Node18 -->
<g id="node18" class="node">
<title>Node18</title>
<g id="a_node18"><a xlink:href="class_window.html#aca04f60c37e2fc5663dd24c80cf70b1b" target="_top" xlink:title=" ">
<polygon fill="none" stroke="black" points="342,-266.5 342,-285.5 425,-285.5 425,-266.5 342,-266.5"/>
<text text-anchor="middle" x="383.5" y="-273.5" font-family="Helvetica,sans-Serif" font-size="10.00">Window::create</text>
</a>
</g>
</g>
<!-- Node17&#45;&gt;Node18 -->
<g id="edge18" class="edge">
<title>Node17&#45;&gt;Node18</title>
<path fill="none" stroke="midnightblue" d="M286.13,-276C301.43,-276 317.34,-276 331.72,-276"/>
<polygon fill="midnightblue" stroke="midnightblue" points="331.89,-279.5 341.89,-276 331.89,-272.5 331.89,-279.5"/>
</g>
<!-- Node21 -->
<g id="node21" class="node">
<title>Node21</title>
<g id="a_node21"><a xlink:href="class_window.html#ab50d41994a7da97e3829c1e3134fc281" target="_top" xlink:title=" ">
<polygon fill="none" stroke="black" points="329.5,-228.5 329.5,-247.5 437.5,-247.5 437.5,-228.5 329.5,-228.5"/>
<text text-anchor="middle" x="383.5" y="-235.5" font-family="Helvetica,sans-Serif" font-size="10.00">Window::initWindows</text>
</a>
</g>
</g>
<!-- Node17&#45;&gt;Node21 -->
<g id="edge21" class="edge">
<title>Node17&#45;&gt;Node21</title>
<path fill="none" stroke="midnightblue" d="M258.01,-266.41C280.18,-261.35 307.57,-255.1 331.01,-249.75"/>
<polygon fill="midnightblue" stroke="midnightblue" points="331.82,-253.16 340.79,-247.52 330.26,-246.33 331.82,-253.16"/>
</g>
<!-- Node19 -->
<g id="node19" class="node">
<title>Node19</title>
<g id="a_node19"><a xlink:href="class_window.html#afbdfb8ba03018225dfc29866afd26d2a" target="_top" xlink:title=" ">
<polygon fill="none" stroke="black" points="492.5,-266.5 492.5,-285.5 638.5,-285.5 638.5,-266.5 492.5,-266.5"/>
<text text-anchor="middle" x="565.5" y="-273.5" font-family="Helvetica,sans-Serif" font-size="10.00">Window::staticResizeCallback</text>
</a>
</g>
</g>
<!-- Node18&#45;&gt;Node19 -->
<g id="edge19" class="edge">
<title>Node18&#45;&gt;Node19</title>
<path fill="none" stroke="midnightblue" d="M425.34,-276C442.22,-276 462.41,-276 482.12,-276"/>
<polygon fill="midnightblue" stroke="midnightblue" points="482.35,-279.5 492.35,-276 482.35,-272.5 482.35,-279.5"/>
</g>
<!-- Node20 -->
<g id="node20" class="node">
<title>Node20</title>
<g id="a_node20"><a xlink:href="class_window.html#ae53e48ceff3fe92ae028cc92257a1f56" target="_top" xlink:title=" ">
<polygon fill="none" stroke="black" points="687,-266.5 687,-285.5 845,-285.5 845,-266.5 687,-266.5"/>
<text text-anchor="middle" x="766" y="-273.5" font-family="Helvetica,sans-Serif" font-size="10.00">Window::dynamicResizeCallback</text>
</a>
</g>
</g>
<!-- Node19&#45;&gt;Node20 -->
<g id="edge20" class="edge">
<title>Node19&#45;&gt;Node20</title>
<path fill="none" stroke="midnightblue" d="M638.72,-276C651.06,-276 663.99,-276 676.69,-276"/>
<polygon fill="midnightblue" stroke="midnightblue" points="676.8,-279.5 686.8,-276 676.8,-272.5 676.8,-279.5"/>
</g>
<!-- Node23 -->
<g id="node23" class="node">
<title>Node23</title>
<g id="a_node23"><a xlink:href="class_model_loader.html#affd2b8840989f0bdf63c952775bb082e" target="_top" xlink:title=" ">
<polygon fill="none" stroke="black" points="331.5,-190.5 331.5,-209.5 435.5,-209.5 435.5,-190.5 331.5,-190.5"/>
<text text-anchor="middle" x="383.5" y="-197.5" font-family="Helvetica,sans-Serif" font-size="10.00">ModelLoader::create</text>
</a>
</g>
</g>
<!-- Node22&#45;&gt;Node23 -->
<g id="edge23" class="edge">
<title>Node22&#45;&gt;Node23</title>
<path fill="none" stroke="midnightblue" d="M231.87,-133.63C252.38,-145.79 289.45,-166.84 323,-181 328.18,-183.19 333.71,-185.27 339.22,-187.2"/>
<polygon fill="midnightblue" stroke="midnightblue" points="338.47,-190.64 349.07,-190.49 340.7,-184 338.47,-190.64"/>
</g>
<!-- Node24 -->
<g id="node24" class="node">
<title>Node24</title>
<g id="a_node24"><a xlink:href="class_master_material.html#a8f7c18252e823b182521e19ce1e53ecf" target="_top" xlink:title=" ">
<polygon fill="none" stroke="black" points="327,-152.5 327,-171.5 440,-171.5 440,-152.5 327,-152.5"/>
<text text-anchor="middle" x="383.5" y="-159.5" font-family="Helvetica,sans-Serif" font-size="10.00">MasterMaterial::create</text>
</a>
</g>
</g>
<!-- Node22&#45;&gt;Node24 -->
<g id="edge24" class="edge">
<title>Node22&#45;&gt;Node24</title>
<path fill="none" stroke="midnightblue" d="M258.01,-133.59C280.18,-138.65 307.57,-144.9 331.01,-150.25"/>
<polygon fill="midnightblue" stroke="midnightblue" points="330.26,-153.67 340.79,-152.48 331.82,-146.84 330.26,-153.67"/>
</g>
<!-- Node27 -->
<g id="node27" class="node">
<title>Node27</title>
<g id="a_node27"><a xlink:href="class_material.html#a96ab8870a32cbc222c747977254fe1f9" target="_top" xlink:title=" ">
<polygon fill="none" stroke="black" points="342,-114.5 342,-133.5 425,-133.5 425,-114.5 342,-114.5"/>
<text text-anchor="middle" x="383.5" y="-121.5" font-family="Helvetica,sans-Serif" font-size="10.00">Material::create</text>
</a>
</g>
</g>
<!-- Node22&#45;&gt;Node27 -->
<g id="edge27" class="edge">
<title>Node22&#45;&gt;Node27</title>
<path fill="none" stroke="midnightblue" d="M287.09,-124C302.03,-124 317.49,-124 331.51,-124"/>
<polygon fill="midnightblue" stroke="midnightblue" points="331.92,-127.5 341.92,-124 331.92,-120.5 331.92,-127.5"/>
</g>
<!-- Node28 -->
<g id="node28" class="node">
<title>Node28</title>
<g id="a_node28"><a xlink:href="class_mesh_instance.html#a511dc5709b2a32317ad2f0f02c6740c4" target="_top" xlink:title=" ">
<polygon fill="none" stroke="black" points="328.5,-76.5 328.5,-95.5 438.5,-95.5 438.5,-76.5 328.5,-76.5"/>
<text text-anchor="middle" x="383.5" y="-83.5" font-family="Helvetica,sans-Serif" font-size="10.00">MeshInstance::create</text>
</a>
</g>
</g>
<!-- Node22&#45;&gt;Node28 -->
<g id="edge28" class="edge">
<title>Node22&#45;&gt;Node28</title>
<path fill="none" stroke="midnightblue" d="M258.01,-114.41C280.18,-109.35 307.57,-103.1 331.01,-97.75"/>
<polygon fill="midnightblue" stroke="midnightblue" points="331.82,-101.16 340.79,-95.52 330.26,-94.33 331.82,-101.16"/>
</g>
<!-- Node29 -->
<g id="node29" class="node">
<title>Node29</title>
<g id="a_node29"><a xlink:href="class_vertex_shader.html#a5210d098175734531886d9e5b1741f8e" target="_top" xlink:title=" ">
<polygon fill="none" stroke="black" points="330,-38.5 330,-57.5 437,-57.5 437,-38.5 330,-38.5"/>
<text text-anchor="middle" x="383.5" y="-45.5" font-family="Helvetica,sans-Serif" font-size="10.00">VertexShader::create</text>
</a>
</g>
</g>
<!-- Node22&#45;&gt;Node29 -->
<g id="edge29" class="edge">
<title>Node22&#45;&gt;Node29</title>
<path fill="none" stroke="midnightblue" d="M231.87,-114.37C252.38,-102.21 289.45,-81.16 323,-67 328.18,-64.81 333.71,-62.73 339.22,-60.8"/>
<polygon fill="midnightblue" stroke="midnightblue" points="340.7,-64 349.07,-57.51 338.47,-57.36 340.7,-64"/>
</g>
<!-- Node31 -->
<g id="node31" class="node">
<title>Node31</title>
<g id="a_node31"><a xlink:href="class_fragment_shader.html#a1221d3fb805310bb64a01e032e794d0b" target="_top" xlink:title=" ">
<polygon fill="none" stroke="black" points="323.5,-0.5 323.5,-19.5 443.5,-19.5 443.5,-0.5 323.5,-0.5"/>
<text text-anchor="middle" x="383.5" y="-7.5" font-family="Helvetica,sans-Serif" font-size="10.00">FragmentShader::create</text>
</a>
</g>
</g>
<!-- Node22&#45;&gt;Node31 -->
<g id="edge31" class="edge">
<title>Node22&#45;&gt;Node31</title>
<path fill="none" stroke="midnightblue" d="M224.16,-114.47C240.86,-95.54 280.9,-52.97 323,-29 326.71,-26.89 330.69,-24.98 334.76,-23.25"/>
<polygon fill="midnightblue" stroke="midnightblue" points="336.28,-26.42 344.36,-19.57 333.77,-19.88 336.28,-26.42"/>
</g>
<!-- Node25 -->
<g id="node25" class="node">
<title>Node25</title>
<g id="a_node25"><a xlink:href="materialparameters_8cpp.html#a59fb9231365864f141c11f1aa4d67f6f" target="_top" xlink:title=" ">
<polygon fill="none" stroke="black" points="532.5,-152.5 532.5,-171.5 598.5,-171.5 598.5,-152.5 532.5,-152.5"/>
<text text-anchor="middle" x="565.5" y="-159.5" font-family="Helvetica,sans-Serif" font-size="10.00">buildLayout</text>
</a>
</g>
</g>
<!-- Node24&#45;&gt;Node25 -->
<g id="edge25" class="edge">
<title>Node24&#45;&gt;Node25</title>
<path fill="none" stroke="midnightblue" d="M440.47,-162C466.92,-162 497.99,-162 522.41,-162"/>
<polygon fill="midnightblue" stroke="midnightblue" points="522.43,-165.5 532.43,-162 522.43,-158.5 522.43,-165.5"/>
</g>
<!-- Node26 -->
<g id="node26" class="node">
<title>Node26</title>
<g id="a_node26"><a xlink:href="materialparameters_8cpp.html#a013179f8095bbe7c618aa07f0011bf78" target="_top" xlink:title=" ">
<polygon fill="none" stroke="black" points="729.5,-152.5 729.5,-171.5 802.5,-171.5 802.5,-152.5 729.5,-152.5"/>
<text text-anchor="middle" x="766" y="-159.5" font-family="Helvetica,sans-Serif" font-size="10.00">buildProperty</text>
</a>
</g>
</g>
<!-- Node25&#45;&gt;Node26 -->
<g id="edge26" class="edge">
<title>Node25&#45;&gt;Node26</title>
<path fill="none" stroke="midnightblue" d="M598.83,-162C631.43,-162 682.05,-162 718.86,-162"/>
<polygon fill="midnightblue" stroke="midnightblue" points="719.32,-165.5 729.32,-162 719.32,-158.5 719.32,-165.5"/>
</g>
<!-- Node30 -->
<g id="node30" class="node">
<title>Node30</title>
<g id="a_node30"><a xlink:href="class_utils.html#a7e7d47e8b017fe7d4ae8802c7b0690cb" target="_top" xlink:title=" ">
<polygon fill="none" stroke="black" points="527.5,-19.5 527.5,-38.5 603.5,-38.5 603.5,-19.5 527.5,-19.5"/>
<text text-anchor="middle" x="565.5" y="-26.5" font-family="Helvetica,sans-Serif" font-size="10.00">Utils::readFile</text>
</a>
</g>
</g>
<!-- Node29&#45;&gt;Node30 -->
<g id="edge30" class="edge">
<title>Node29&#45;&gt;Node30</title>
<path fill="none" stroke="midnightblue" d="M437.05,-42.45C462.38,-39.78 492.53,-36.6 517.15,-34"/>
<polygon fill="midnightblue" stroke="midnightblue" points="517.75,-37.45 527.33,-32.92 517.01,-30.49 517.75,-37.45"/>
</g>
<!-- Node31&#45;&gt;Node30 -->
<g id="edge32" class="edge">
<title>Node31&#45;&gt;Node30</title>
<path fill="none" stroke="midnightblue" d="M443.94,-16.27C467.83,-18.8 494.97,-21.66 517.45,-24.03"/>
<polygon fill="midnightblue" stroke="midnightblue" points="517.11,-27.52 527.42,-25.09 517.84,-20.56 517.11,-27.52"/>
</g>
</g>
</svg>
        <g id="navigator" transform="translate(0 0)" fill="#404254">
                <rect fill="#f2f5e9" fill-opacity="0.5" stroke="#606060" stroke-width=".5" x="0" y="0" width="60" height="60"/>
                <use id="zoomplus" xlink:href="#zoomPlus" x="17" y="9" onmousedown="handleZoom(evt,'in')"/>
                <use id="zoomminus" xlink:href="#zoomMin" x="42" y="9" onmousedown="handleZoom(evt,'out')"/>
                <use id="reset" xlink:href="#resetDef" x="30" y="36" onmousedown="handleReset()"/>
                <g id="arrowUp" xlink:href="#dirArrow" transform="translate(30 24)" onmousedown="handlePan(0,-1)">
                  <use xlink:href="#rim" fill="#404040">
                        <set attributeName="fill" to="#808080" begin="arrowUp.mouseover" end="arrowUp.mouseout"/>
                  </use>
                  <path fill="none" stroke="white" stroke-width="1.5" d="M0,-3.0v7 M-2.5,-0.5L0,-3.0L2.5,-0.5"/>
                </g>
                <g id="arrowRight" xlink:href="#dirArrow" transform="rotate(90) translate(36 -43)" onmousedown="handlePan(1,0)">
                  <use xlink:href="#rim" fill="#404040">
                        <set attributeName="fill" to="#808080" begin="arrowRight.mouseover" end="arrowRight.mouseout"/>
                  </use>
                  <path fill="none" stroke="white" stroke-width="1.5" d="M0,-3.0v7 M-2.5,-0.5L0,-3.0L2.5,-0.5"/>
                </g>
                <g id="arrowDown" xlink:href="#dirArrow" transform="rotate(180) translate(-30 -48)" onmousedown="handlePan(0,1)">
                  <use xlink:href="#rim" fill="#404040">
                        <set attributeName="fill" to="#808080" begin="arrowDown.mouseover" end="arrowDown.mouseout"/>
                  </use>
                  <path fill="none" stroke="white" stroke-width="1.5" d="M0,-3.0v7 M-2.5,-0.5L0,-3.0L2.5,-0.5"/>
                </g>
                <g id="arrowLeft" xlink:href="#dirArrow" transform="rotate(270) translate(-36 17)" onmousedown="handlePan(-1,0)">
                  <use xlink:href="#rim" fill="#404040">
                        <set attributeName="fill" to="#808080" begin="arrowLeft.mouseover" end="arrowLeft.mouseout"/>
                  </use>
                  <path fill="none" stroke="white" stroke-width="1.5" d="M0,-3.0v7 M-2.5,-0.5L0,-3.0L2.5,-0.5"/>
                </g>
        </g>
        <svg viewBox="0 0 15 15" width="100%" height="30px" preserveAspectRatio="xMaxYMin meet">
         <g id="arrow_out" transform="scale(0.3 0.3)">
          <a xlink:href="class_vulkan_rasterizer_a91d83d21a2d62b9042827d03a8b4d7a0_cgraph_org.svg" target="_base">
           <rect id="button" ry="5" rx="5" y="6" x="6" height="38" width="38"
                fill="#f2f5e9" fill-opacity="0.5" stroke="#606060" stroke-width="1.0"/>
           <path id="arrow"
             d="M 11.500037,31.436501 C 11.940474,20.09759 22.043105,11.32322 32.158766,21.979434 L 37.068811,17.246167 C 37.068811,17.246167 37.088388,32 37.088388,32 L 22.160133,31.978069 C 22.160133,31.978069 26.997745,27.140456 26.997745,27.140456 C 18.528582,18.264221 13.291696,25.230495 11.500037,31.436501 z"
             style="fill:#404040;"/>
          </a>
         </g>
        </svg>
</svg>
