<?xml version="1.0" encoding="UTF-8" standalone="no"?>
<!DOCTYPE svg PUBLIC "-//W3C//DTD SVG 1.1//EN"
 "http://www.w3.org/Graphics/SVG/1.1/DTD/svg11.dtd">
<!-- Generated by graphviz version 2.49.3 (20211215.1918)
 -->
<!-- Title: Buffer Pages: 1 -->
<svg width="260pt" height="464pt"
 viewBox="0.00 0.00 260.00 464.00" xmlns="http://www.w3.org/2000/svg" xmlns:xlink="http://www.w3.org/1999/xlink">
<g id="graph0" class="graph" transform="scale(1 1) rotate(0) translate(4 460)">
<title>Buffer</title>
<!-- Node1 -->
<g id="node1" class="node">
<title>Node1</title>
<g id="a_node1"><a xlink:title=" ">
<polygon fill="#bfbfbf" stroke="black" points="0,-0.5 0,-233.5 137,-233.5 137,-0.5 0,-0.5"/>
<text text-anchor="middle" x="68.5" y="-221.5" font-family="Helvetica,sans-Serif" font-size="10.00">Buffer</text>
<polyline fill="none" stroke="black" points="0,-214.5 137,-214.5 "/>
<text text-anchor="start" x="8" y="-202.5" font-family="Helvetica,sans-Serif" font-size="10.00">&#45; device</text>
<text text-anchor="start" x="8" y="-191.5" font-family="Helvetica,sans-Serif" font-size="10.00">&#45; allocation</text>
<text text-anchor="start" x="8" y="-180.5" font-family="Helvetica,sans-Serif" font-size="10.00">&#45; allocationInfo</text>
<text text-anchor="start" x="8" y="-169.5" font-family="Helvetica,sans-Serif" font-size="10.00">&#45; deviceSize</text>
<polyline fill="none" stroke="black" points="0,-162.5 137,-162.5 "/>
<text text-anchor="start" x="8" y="-150.5" font-family="Helvetica,sans-Serif" font-size="10.00">+ transferDataMapped()</text>
<text text-anchor="start" x="8" y="-139.5" font-family="Helvetica,sans-Serif" font-size="10.00">+ transferDataMapped()</text>
<text text-anchor="start" x="8" y="-128.5" font-family="Helvetica,sans-Serif" font-size="10.00">+ transferDataStaged()</text>
<text text-anchor="start" x="8" y="-117.5" font-family="Helvetica,sans-Serif" font-size="10.00">+ transferDataStaged()</text>
<text text-anchor="start" x="8" y="-106.5" font-family="Helvetica,sans-Serif" font-size="10.00">+ getDevice()</text>
<text text-anchor="start" x="8" y="-95.5" font-family="Helvetica,sans-Serif" font-size="10.00">+ getAllocation()</text>
<text text-anchor="start" x="8" y="-84.5" font-family="Helvetica,sans-Serif" font-size="10.00">+ getSize()</text>
<text text-anchor="start" x="8" y="-73.5" font-family="Helvetica,sans-Serif" font-size="10.00">+ map()</text>
<text text-anchor="start" x="8" y="-62.5" font-family="Helvetica,sans-Serif" font-size="10.00">+ unmap()</text>
<text text-anchor="start" x="8" y="-51.5" font-family="Helvetica,sans-Serif" font-size="10.00">+ ~Buffer()</text>
<text text-anchor="start" x="8" y="-40.5" font-family="Helvetica,sans-Serif" font-size="10.00">+ create()</text>
<text text-anchor="start" x="8" y="-29.5" font-family="Helvetica,sans-Serif" font-size="10.00">+ create()</text>
<text text-anchor="start" x="8" y="-18.5" font-family="Helvetica,sans-Serif" font-size="10.00">+ create()</text>
<text text-anchor="start" x="8" y="-7.5" font-family="Helvetica,sans-Serif" font-size="10.00">+ createHostStagingBuffer()</text>
</a>
</g>
</g>
<!-- Node2 -->
<g id="node2" class="node">
<title>Node2</title>
<g id="a_node2"><a xlink:title=" ">
<polygon fill="none" stroke="black" points="4.5,-271.5 4.5,-339.5 108.5,-339.5 108.5,-271.5 4.5,-271.5"/>
<text text-anchor="start" x="12.5" y="-327.5" font-family="Helvetica,sans-Serif" font-size="10.00">std::enable_shared</text>
<text text-anchor="middle" x="56.5" y="-316.5" font-family="Helvetica,sans-Serif" font-size="10.00">_from_this&lt; Buffer &gt;</text>
<polyline fill="none" stroke="black" points="4.5,-309.5 108.5,-309.5 "/>
<text text-anchor="middle" x="56.5" y="-297.5" font-family="Helvetica,sans-Serif" font-size="10.00"> </text>
<polyline fill="none" stroke="black" points="4.5,-290.5 108.5,-290.5 "/>
<text text-anchor="middle" x="56.5" y="-278.5" font-family="Helvetica,sans-Serif" font-size="10.00"> </text>
</a>
</g>
</g>
<!-- Node2&#45;&gt;Node1 -->
<g id="edge1" class="edge">
<title>Node2&#45;&gt;Node1</title>
<path fill="none" stroke="midnightblue" d="M59.29,-261.16C59.84,-252.62 60.44,-243.29 61.06,-233.62"/>
<polygon fill="none" stroke="midnightblue" points="55.79,-260.95 58.65,-271.16 62.78,-261.4 55.79,-260.95"/>
</g>
<!-- Node3 -->
<g id="node3" class="node">
<title>Node3</title>
<g id="a_node3"><a xlink:href="class_vulkan_class.html" target="_top" xlink:title=" ">
<polygon fill="none" stroke="black" points="127,-271.5 127,-339.5 252,-339.5 252,-271.5 127,-271.5"/>
<text text-anchor="middle" x="189.5" y="-327.5" font-family="Helvetica,sans-Serif" font-size="10.00">VulkanClass&lt; VkBuffer &gt;</text>
<polyline fill="none" stroke="black" points="127,-320.5 252,-320.5 "/>
<text text-anchor="start" x="135" y="-308.5" font-family="Helvetica,sans-Serif" font-size="10.00"># handle</text>
<polyline fill="none" stroke="black" points="127,-301.5 252,-301.5 "/>
<text text-anchor="start" x="135" y="-289.5" font-family="Helvetica,sans-Serif" font-size="10.00">+ getHandle()</text>
<text text-anchor="start" x="135" y="-278.5" font-family="Helvetica,sans-Serif" font-size="10.00">+ getHandlePtr()</text>
</a>
</g>
</g>
<!-- Node3&#45;&gt;Node1 -->
<g id="edge2" class="edge">
<title>Node3&#45;&gt;Node1</title>
<path fill="none" stroke="midnightblue" d="M162.26,-262.51C154.65,-250.78 146.01,-237.47 137.15,-223.8"/>
<polygon fill="none" stroke="midnightblue" points="159.49,-264.67 167.87,-271.16 165.36,-260.86 159.49,-264.67"/>
</g>
<!-- Node4 -->
<g id="node4" class="node">
<title>Node4</title>
<g id="a_node4"><a xlink:href="class_vulkan_class.html" target="_top" xlink:title=" ">
<polygon fill="none" stroke="black" points="142.5,-387.5 142.5,-455.5 236.5,-455.5 236.5,-387.5 142.5,-387.5"/>
<text text-anchor="middle" x="189.5" y="-443.5" font-family="Helvetica,sans-Serif" font-size="10.00">VulkanClass&lt; T &gt;</text>
<polyline fill="none" stroke="black" points="142.5,-436.5 236.5,-436.5 "/>
<text text-anchor="start" x="150.5" y="-424.5" font-family="Helvetica,sans-Serif" font-size="10.00"># handle</text>
<polyline fill="none" stroke="black" points="142.5,-417.5 236.5,-417.5 "/>
<text text-anchor="start" x="150.5" y="-405.5" font-family="Helvetica,sans-Serif" font-size="10.00">+ getHandle()</text>
<text text-anchor="start" x="150.5" y="-394.5" font-family="Helvetica,sans-Serif" font-size="10.00">+ getHandlePtr()</text>
</a>
</g>
</g>
<!-- Node4&#45;&gt;Node3 -->
<g id="edge3" class="edge">
<title>Node4&#45;&gt;Node3</title>
<path fill="none" stroke="orange" d="M189.5,-377.06C189.5,-364.64 189.5,-351.32 189.5,-339.62"/>
<polygon fill="orange" stroke="orange" points="186,-377.22 189.5,-387.22 193,-377.22 186,-377.22"/>
<text text-anchor="middle" x="218" y="-361" font-family="Helvetica,sans-Serif" font-size="10.00"> &lt; VkBuffer &gt;</text>
</g>
</g>
</svg>
