<?xml version="1.0" encoding="UTF-8" standalone="no"?>
<!DOCTYPE svg PUBLIC "-//W3C//DTD SVG 1.1//EN"
 "http://www.w3.org/Graphics/SVG/1.1/DTD/svg11.dtd">
<!-- Generated by graphviz version 3.0.0 (20220413.0106)
 -->
<!-- Title: MandelbrotApp::createScene Pages: 1 -->
<!--zoomable 356 -->
<svg id="main" version="1.1" xmlns="http://www.w3.org/2000/svg" xmlns:xlink="http://www.w3.org/1999/xlink" xml:space="preserve" onload="init(evt)">
<style type="text/css"><![CDATA[
.edge:hover path { stroke: red; }
.edge:hover polygon { stroke: red; fill: red; }
]]></style>
<script type="text/javascript"><![CDATA[
var edges = document.getElementsByTagName('g');
if (edges && edges.length) {
  for (var i=0;i<edges.length;i++) {
    if (edges[i].id.substr(0,4)=='edge') {
      edges[i].setAttribute('class','edge');
    }
  }
}
]]></script>
        <defs>
                <circle id="rim" cx="0" cy="0" r="7"/>
                <circle id="rim2" cx="0" cy="0" r="3.5"/>
                <g id="zoomPlus">
                        <use xlink:href="#rim" fill="#404040">
                                <set attributeName="fill" to="#808080" begin="zoomplus.mouseover" end="zoomplus.mouseout"/>
                        </use>
                        <path d="M-4,0h8M0,-4v8" fill="none" stroke="white" stroke-width="1.5" pointer-events="none"/>
                </g>
                <g id="zoomMin">
                        <use xlink:href="#rim" fill="#404040">
                                <set attributeName="fill" to="#808080" begin="zoomminus.mouseover" end="zoomminus.mouseout"/>
                        </use>
                        <path d="M-4,0h8" fill="none" stroke="white" stroke-width="1.5" pointer-events="none"/>
                </g>
                <g id="dirArrow">
                        <path fill="none" stroke="white" stroke-width="1.5" d="M0,-3.0v7 M-2.5,-0.5L0,-3.0L2.5,-0.5"/>
                </g>
               <g id="resetDef">
                       <use xlink:href="#rim2" fill="#404040">
                               <set attributeName="fill" to="#808080" begin="reset.mouseover" end="reset.mouseout"/>
                       </use>
               </g>
        </defs>

<script type="text/javascript">
var viewWidth = 616;
var viewHeight = 356;
var sectionId = 'dynsection-29';
</script>
<script xlink:href="svgpan.js"/>
<svg id="graph" class="graph">
<g id="viewport">
<title>MandelbrotApp::createScene</title>
<!-- Node1 -->
<g id="node1" class="node">
<title>Node1</title>
<g id="a_node1"><a xlink:title=" ">
<polygon fill="#bfbfbf" stroke="black" points="0,-189.5 0,-208.5 141,-208.5 141,-189.5 0,-189.5"/>
<text text-anchor="middle" x="70.5" y="-196.5" font-family="Helvetica,sans-Serif" font-size="10.00">MandelbrotApp::createScene</text>
</a>
</g>
</g>
<!-- Node2 -->
<g id="node2" class="node">
<title>Node2</title>
<g id="a_node2"><a xlink:href="class_camera.html#ace532766362279c142ff206baa386c65" target="_top" xlink:title=" ">
<polygon fill="none" stroke="black" points="177,-208.5 177,-227.5 259,-227.5 259,-208.5 177,-208.5"/>
<text text-anchor="middle" x="218" y="-215.5" font-family="Helvetica,sans-Serif" font-size="10.00">Camera::create</text>
</a>
</g>
</g>
<!-- Node1&#45;&gt;Node2 -->
<g id="edge1" class="edge">
<title>Node1&#45;&gt;Node2</title>
<path fill="none" stroke="midnightblue" d="M141.27,-208.11C149.88,-209.24 158.55,-210.37 166.8,-211.44"/>
<polygon fill="midnightblue" stroke="midnightblue" points="166.6,-214.95 176.97,-212.77 167.51,-208.01 166.6,-214.95"/>
</g>
<!-- Node3 -->
<g id="node3" class="node">
<title>Node3</title>
<g id="a_node3"><a xlink:href="class_scene.html#ab589832ffb9eb66dea1848b5756f606d" target="_top" xlink:title=" ">
<polygon fill="none" stroke="black" points="180,-170.5 180,-189.5 256,-189.5 256,-170.5 180,-170.5"/>
<text text-anchor="middle" x="218" y="-177.5" font-family="Helvetica,sans-Serif" font-size="10.00">Scene::create</text>
</a>
</g>
</g>
<!-- Node1&#45;&gt;Node3 -->
<g id="edge2" class="edge">
<title>Node1&#45;&gt;Node3</title>
<path fill="none" stroke="midnightblue" d="M141.27,-189.89C150.91,-188.63 160.63,-187.36 169.73,-186.17"/>
<polygon fill="midnightblue" stroke="midnightblue" points="170.25,-189.63 179.71,-184.87 169.35,-182.69 170.25,-189.63"/>
</g>
<!-- Node4 -->
<g id="node4" class="node">
<title>Node4</title>
<g id="a_node4"><a xlink:href="class_compute_pipeline.html#a7a32fb56e2c09711f8f53e6e8e16d869" target="_top" xlink:title=" ">
<polygon fill="none" stroke="black" points="295,-328.5 295,-347.5 417,-347.5 417,-328.5 295,-328.5"/>
<text text-anchor="middle" x="356" y="-335.5" font-family="Helvetica,sans-Serif" font-size="10.00">ComputePipeline::create</text>
</a>
</g>
</g>
<!-- Node3&#45;&gt;Node4 -->
<g id="edge3" class="edge">
<title>Node3&#45;&gt;Node4</title>
<path fill="none" stroke="midnightblue" d="M246.93,-189.5C251.44,-192.02 255.69,-195.15 259,-199 295.27,-241.25 255.93,-279.33 295,-319 296.44,-320.46 297.99,-321.81 299.62,-323.05"/>
<polygon fill="midnightblue" stroke="midnightblue" points="298.07,-326.2 308.42,-328.45 301.73,-320.24 298.07,-326.2"/>
</g>
<!-- Node5 -->
<g id="node5" class="node">
<title>Node5</title>
<g id="a_node5"><a xlink:href="class_uniform_buffer.html#a1e1a7c734eb7243682f2dfa7e964ee58" target="_top" xlink:title=" ">
<polygon fill="none" stroke="black" points="302,-290.5 302,-309.5 410,-309.5 410,-290.5 302,-290.5"/>
<text text-anchor="middle" x="356" y="-297.5" font-family="Helvetica,sans-Serif" font-size="10.00">UniformBuffer::create</text>
</a>
</g>
</g>
<!-- Node3&#45;&gt;Node5 -->
<g id="edge4" class="edge">
<title>Node3&#45;&gt;Node5</title>
<path fill="none" stroke="midnightblue" d="M246.14,-189.62C250.83,-192.15 255.36,-195.25 259,-199 286.72,-227.56 265.39,-254.4 295,-281 296.75,-282.57 298.63,-284.01 300.61,-285.34"/>
<polygon fill="midnightblue" stroke="midnightblue" points="299.33,-288.63 309.78,-290.41 302.72,-282.51 299.33,-288.63"/>
</g>
<!-- Node7 -->
<g id="node7" class="node">
<title>Node7</title>
<g id="a_node7"><a xlink:href="class_pipeline_layout.html#a8dabc26f7798c86ce3bd4ff0419304f2" target="_top" xlink:title=" ">
<polygon fill="none" stroke="black" points="300,-252.5 300,-271.5 412,-271.5 412,-252.5 300,-252.5"/>
<text text-anchor="middle" x="356" y="-259.5" font-family="Helvetica,sans-Serif" font-size="10.00">PipelineLayout::create</text>
</a>
</g>
</g>
<!-- Node3&#45;&gt;Node7 -->
<g id="edge7" class="edge">
<title>Node3&#45;&gt;Node7</title>
<path fill="none" stroke="midnightblue" d="M243.69,-189.63C249.01,-192.26 254.4,-195.4 259,-199 278.89,-214.58 274.09,-228.82 295,-243 297.94,-244.99 301.1,-246.78 304.37,-248.4"/>
<polygon fill="midnightblue" stroke="midnightblue" points="303.26,-251.73 313.83,-252.47 306.03,-245.3 303.26,-251.73"/>
</g>
<!-- Node9 -->
<g id="node9" class="node">
<title>Node9</title>
<g id="a_node9"><a xlink:href="class_dynamic_buffer.html#a81621a760b2a80c68fd5c9e94ac37da6" target="_top" xlink:title=" ">
<polygon fill="none" stroke="black" points="300.5,-214.5 300.5,-233.5 411.5,-233.5 411.5,-214.5 300.5,-214.5"/>
<text text-anchor="middle" x="356" y="-221.5" font-family="Helvetica,sans-Serif" font-size="10.00">DynamicBuffer::create</text>
</a>
</g>
</g>
<!-- Node3&#45;&gt;Node9 -->
<g id="edge9" class="edge">
<title>Node3&#45;&gt;Node9</title>
<path fill="none" stroke="midnightblue" d="M247.85,-189.57C262.04,-194.26 279.4,-199.97 295,-205 301.5,-207.1 308.4,-209.3 315.12,-211.44"/>
<polygon fill="midnightblue" stroke="midnightblue" points="314.17,-214.81 324.76,-214.5 316.29,-208.14 314.17,-214.81"/>
</g>
<!-- Node10 -->
<g id="node10" class="node">
<title>Node10</title>
<g id="a_node10"><a xlink:href="class_descriptor_pool_manager.html#ad93c0c73be9346ef8730618a976c54ea" target="_top" xlink:title=" ">
<polygon fill="none" stroke="black" points="297,-165 297,-195 415,-195 415,-165 297,-165"/>
<text text-anchor="start" x="305" y="-183" font-family="Helvetica,sans-Serif" font-size="10.00">DescriptorPoolManager</text>
<text text-anchor="middle" x="356" y="-172" font-family="Helvetica,sans-Serif" font-size="10.00">::create</text>
</a>
</g>
</g>
<!-- Node3&#45;&gt;Node10 -->
<g id="edge10" class="edge">
<title>Node3&#45;&gt;Node10</title>
<path fill="none" stroke="midnightblue" d="M256.16,-180C265.7,-180 276.26,-180 286.83,-180"/>
<polygon fill="midnightblue" stroke="midnightblue" points="286.93,-183.5 296.93,-180 286.93,-176.5 286.93,-183.5"/>
</g>
<!-- Node11 -->
<g id="node11" class="node">
<title>Node11</title>
<g id="a_node11"><a xlink:href="class_semaphore.html#a7bf99350ca438feb4b743891587a4e1c" target="_top" xlink:title=" ">
<polygon fill="none" stroke="black" points="307,-126.5 307,-145.5 405,-145.5 405,-126.5 307,-126.5"/>
<text text-anchor="middle" x="356" y="-133.5" font-family="Helvetica,sans-Serif" font-size="10.00">Semaphore::create</text>
</a>
</g>
</g>
<!-- Node3&#45;&gt;Node11 -->
<g id="edge11" class="edge">
<title>Node3&#45;&gt;Node11</title>
<path fill="none" stroke="midnightblue" d="M248.51,-170.45C268.2,-164.08 294.32,-155.63 315.76,-148.7"/>
<polygon fill="midnightblue" stroke="midnightblue" points="317.11,-151.94 325.55,-145.53 314.96,-145.28 317.11,-151.94"/>
</g>
<!-- Node12 -->
<g id="node12" class="node">
<title>Node12</title>
<g id="a_node12"><a xlink:href="class_compute_shader.html#a93b13c3307b937cf77af96bca8e89329" target="_top" xlink:title=" ">
<polygon fill="none" stroke="black" points="297,-88.5 297,-107.5 415,-107.5 415,-88.5 297,-88.5"/>
<text text-anchor="middle" x="356" y="-95.5" font-family="Helvetica,sans-Serif" font-size="10.00">ComputeShader::create</text>
</a>
</g>
</g>
<!-- Node3&#45;&gt;Node12 -->
<g id="edge12" class="edge">
<title>Node3&#45;&gt;Node12</title>
<path fill="none" stroke="midnightblue" d="M228.41,-170.09C241.94,-156.36 268.22,-131.61 295,-117 298.94,-114.85 303.15,-112.9 307.46,-111.15"/>
<polygon fill="midnightblue" stroke="midnightblue" points="308.81,-114.38 316.96,-107.61 306.36,-107.82 308.81,-114.38"/>
</g>
<!-- Node14 -->
<g id="node14" class="node">
<title>Node14</title>
<g id="a_node14"><a xlink:href="class_descriptor_set_layout.html#a1a2b657df46e6453f7a7a3d7863103c2" target="_top" xlink:title=" ">
<polygon fill="none" stroke="black" points="303.5,-39 303.5,-69 408.5,-69 408.5,-39 303.5,-39"/>
<text text-anchor="start" x="311.5" y="-57" font-family="Helvetica,sans-Serif" font-size="10.00">DescriptorSetLayout</text>
<text text-anchor="middle" x="356" y="-46" font-family="Helvetica,sans-Serif" font-size="10.00">::create</text>
</a>
</g>
</g>
<!-- Node3&#45;&gt;Node14 -->
<g id="edge14" class="edge">
<title>Node3&#45;&gt;Node14</title>
<path fill="none" stroke="midnightblue" d="M223.97,-170.3C234.53,-150.57 261.03,-105.38 295,-79 297.26,-77.25 299.65,-75.6 302.14,-74.05"/>
<polygon fill="midnightblue" stroke="midnightblue" points="303.86,-77.09 310.87,-69.15 300.44,-70.99 303.86,-77.09"/>
</g>
<!-- Node15 -->
<g id="node15" class="node">
<title>Node15</title>
<g id="a_node15"><a xlink:href="class_utils.html#ac44035a9bc80c570cfcd56ded0dad0a5" target="_top" xlink:title=" ">
<polygon fill="none" stroke="black" points="319,-0.5 319,-19.5 393,-19.5 393,-0.5 319,-0.5"/>
<text text-anchor="middle" x="356" y="-7.5" font-family="Helvetica,sans-Serif" font-size="10.00">Utils::remove</text>
</a>
</g>
</g>
<!-- Node3&#45;&gt;Node15 -->
<g id="edge15" class="edge">
<title>Node3&#45;&gt;Node15</title>
<path fill="none" stroke="midnightblue" d="M221.11,-170.24C227.4,-143.53 248.53,-68.59 295,-29 299.26,-25.37 304.22,-22.43 309.43,-20.05"/>
<polygon fill="midnightblue" stroke="midnightblue" points="310.92,-23.23 318.98,-16.35 308.39,-16.7 310.92,-23.23"/>
</g>
<!-- Node6 -->
<g id="node6" class="node">
<title>Node6</title>
<g id="a_node6"><a xlink:href="class_buffer.html#a04bbfbb11daccc5656c698c63214aefc" target="_top" xlink:title=" ">
<polygon fill="none" stroke="black" points="493.5,-293.5 493.5,-312.5 567.5,-312.5 567.5,-293.5 493.5,-293.5"/>
<text text-anchor="middle" x="530.5" y="-300.5" font-family="Helvetica,sans-Serif" font-size="10.00">Buffer::create</text>
</a>
</g>
</g>
<!-- Node5&#45;&gt;Node6 -->
<g id="edge5" class="edge">
<title>Node5&#45;&gt;Node6</title>
<path fill="none" stroke="midnightblue" d="M410.16,-300.92C433.6,-301.33 460.88,-301.81 483.43,-302.2"/>
<polygon fill="midnightblue" stroke="midnightblue" points="483.37,-305.7 493.43,-302.37 483.5,-298.7 483.37,-305.7"/>
</g>
<!-- Node6&#45;&gt;Node6 -->
<g id="edge6" class="edge">
<title>Node6&#45;&gt;Node6</title>
<path fill="none" stroke="midnightblue" d="M503.68,-312.76C490.63,-321.57 499.57,-331 530.5,-331 551.28,-331 562.13,-326.74 563.06,-321.27"/>
<polygon fill="midnightblue" stroke="midnightblue" points="565.81,-319.09 557.32,-312.76 560.01,-323.01 565.81,-319.09"/>
</g>
<!-- Node8 -->
<g id="node8" class="node">
<title>Node8</title>
<g id="a_node8"><a xlink:href="class_vulkan_class.html#a914c142e905262efbd473aeb5bdfb0e8" target="_top" xlink:title=" ">
<polygon fill="none" stroke="black" points="453,-244 453,-274 608,-274 608,-244 453,-244"/>
<text text-anchor="start" x="461" y="-262" font-family="Helvetica,sans-Serif" font-size="10.00">VulkanClass&lt; VkPipelineLayout</text>
<text text-anchor="middle" x="530.5" y="-251" font-family="Helvetica,sans-Serif" font-size="10.00"> &gt;::getHandle</text>
</a>
</g>
</g>
<!-- Node7&#45;&gt;Node8 -->
<g id="edge8" class="edge">
<title>Node7&#45;&gt;Node8</title>
<path fill="none" stroke="midnightblue" d="M412.05,-261.04C421.92,-260.87 432.41,-260.69 442.91,-260.51"/>
<polygon fill="midnightblue" stroke="midnightblue" points="443.02,-264 452.96,-260.33 442.9,-257.01 443.02,-264"/>
</g>
<!-- Node13 -->
<g id="node13" class="node">
<title>Node13</title>
<g id="a_node13"><a xlink:href="class_utils.html#a7e7d47e8b017fe7d4ae8802c7b0690cb" target="_top" xlink:title=" ">
<polygon fill="none" stroke="black" points="492.5,-88.5 492.5,-107.5 568.5,-107.5 568.5,-88.5 492.5,-88.5"/>
<text text-anchor="middle" x="530.5" y="-95.5" font-family="Helvetica,sans-Serif" font-size="10.00">Utils::readFile</text>
</a>
</g>
</g>
<!-- Node12&#45;&gt;Node13 -->
<g id="edge13" class="edge">
<title>Node12&#45;&gt;Node13</title>
<path fill="none" stroke="midnightblue" d="M415.4,-98C437.14,-98 461.52,-98 482.15,-98"/>
<polygon fill="midnightblue" stroke="midnightblue" points="482.26,-101.5 492.26,-98 482.26,-94.5 482.26,-101.5"/>
</g>
</g>
</svg>
        <g id="navigator" transform="translate(0 0)" fill="#404254">
                <rect fill="#f2f5e9" fill-opacity="0.5" stroke="#606060" stroke-width=".5" x="0" y="0" width="60" height="60"/>
                <use id="zoomplus" xlink:href="#zoomPlus" x="17" y="9" onmousedown="handleZoom(evt,'in')"/>
                <use id="zoomminus" xlink:href="#zoomMin" x="42" y="9" onmousedown="handleZoom(evt,'out')"/>
                <use id="reset" xlink:href="#resetDef" x="30" y="36" onmousedown="handleReset()"/>
                <g id="arrowUp" xlink:href="#dirArrow" transform="translate(30 24)" onmousedown="handlePan(0,-1)">
                  <use xlink:href="#rim" fill="#404040">
                        <set attributeName="fill" to="#808080" begin="arrowUp.mouseover" end="arrowUp.mouseout"/>
                  </use>
                  <path fill="none" stroke="white" stroke-width="1.5" d="M0,-3.0v7 M-2.5,-0.5L0,-3.0L2.5,-0.5"/>
                </g>
                <g id="arrowRight" xlink:href="#dirArrow" transform="rotate(90) translate(36 -43)" onmousedown="handlePan(1,0)">
                  <use xlink:href="#rim" fill="#404040">
                        <set attributeName="fill" to="#808080" begin="arrowRight.mouseover" end="arrowRight.mouseout"/>
                  </use>
                  <path fill="none" stroke="white" stroke-width="1.5" d="M0,-3.0v7 M-2.5,-0.5L0,-3.0L2.5,-0.5"/>
                </g>
                <g id="arrowDown" xlink:href="#dirArrow" transform="rotate(180) translate(-30 -48)" onmousedown="handlePan(0,1)">
                  <use xlink:href="#rim" fill="#404040">
                        <set attributeName="fill" to="#808080" begin="arrowDown.mouseover" end="arrowDown.mouseout"/>
                  </use>
                  <path fill="none" stroke="white" stroke-width="1.5" d="M0,-3.0v7 M-2.5,-0.5L0,-3.0L2.5,-0.5"/>
                </g>
                <g id="arrowLeft" xlink:href="#dirArrow" transform="rotate(270) translate(-36 17)" onmousedown="handlePan(-1,0)">
                  <use xlink:href="#rim" fill="#404040">
                        <set attributeName="fill" to="#808080" begin="arrowLeft.mouseover" end="arrowLeft.mouseout"/>
                  </use>
                  <path fill="none" stroke="white" stroke-width="1.5" d="M0,-3.0v7 M-2.5,-0.5L0,-3.0L2.5,-0.5"/>
                </g>
        </g>
        <svg viewBox="0 0 15 15" width="100%" height="30px" preserveAspectRatio="xMaxYMin meet">
         <g id="arrow_out" transform="scale(0.3 0.3)">
          <a xlink:href="class_mandelbrot_app_a9adbc757b127cc20ef8fe983bd29ebbb_cgraph_org.svg" target="_base">
           <rect id="button" ry="5" rx="5" y="6" x="6" height="38" width="38"
                fill="#f2f5e9" fill-opacity="0.5" stroke="#606060" stroke-width="1.0"/>
           <path id="arrow"
             d="M 11.500037,31.436501 C 11.940474,20.09759 22.043105,11.32322 32.158766,21.979434 L 37.068811,17.246167 C 37.068811,17.246167 37.088388,32 37.088388,32 L 22.160133,31.978069 C 22.160133,31.978069 26.997745,27.140456 26.997745,27.140456 C 18.528582,18.264221 13.291696,25.230495 11.500037,31.436501 z"
             style="fill:#404040;"/>
          </a>
         </g>
        </svg>
</svg>
