<?xml version="1.0" encoding="UTF-8" standalone="no"?>
<!DOCTYPE svg PUBLIC "-//W3C//DTD SVG 1.1//EN"
 "http://www.w3.org/Graphics/SVG/1.1/DTD/svg11.dtd">
<!-- Generated by graphviz version 2.49.3 (20211215.1918)
 -->
<!-- Title: CommandBuffer::create Pages: 1 -->
<svg width="661pt" height="241pt"
 viewBox="0.00 0.00 661.00 241.00" xmlns="http://www.w3.org/2000/svg" xmlns:xlink="http://www.w3.org/1999/xlink">
<g id="graph0" class="graph" transform="scale(1 1) rotate(0) translate(4 237)">
<title>CommandBuffer::create</title>
<!-- Node1 -->
<g id="node1" class="node">
<title>Node1</title>
<g id="a_node1"><a xlink:title=" ">
<polygon fill="#bfbfbf" stroke="black" points="535,-98.5 535,-117.5 653,-117.5 653,-98.5 535,-98.5"/>
<text text-anchor="middle" x="594" y="-105.5" font-family="Helvetica,sans-Serif" font-size="10.00">CommandBuffer::create</text>
</a>
</g>
</g>
<!-- Node2 -->
<g id="node2" class="node">
<title>Node2</title>
<g id="a_node2"><a xlink:href="class_u_i_renderer.html#a429d9bebea63cfce81d4179458bac829" target="_top" xlink:title=" ">
<polygon fill="none" stroke="black" points="374,-213.5 374,-232.5 472,-232.5 472,-213.5 374,-213.5"/>
<text text-anchor="middle" x="423" y="-220.5" font-family="Helvetica,sans-Serif" font-size="10.00">UIRenderer::create</text>
</a>
</g>
</g>
<!-- Node1&#45;&gt;Node2 -->
<g id="edge1" class="edge">
<title>Node1&#45;&gt;Node2</title>
<path fill="none" stroke="midnightblue" d="M580.37,-125.95C564.08,-147.75 533.68,-184.05 499,-204 490.85,-208.69 481.55,-212.23 472.34,-214.91"/>
<polygon fill="midnightblue" stroke="midnightblue" points="583.4,-127.74 586.46,-117.59 577.74,-123.61 583.4,-127.74"/>
</g>
<!-- Node5 -->
<g id="node5" class="node">
<title>Node5</title>
<g id="a_node5"><a xlink:href="class_mandelbrot_app.html#acb9529b763c37eea10983014fdb7c9dc" target="_top" xlink:title=" ">
<polygon fill="none" stroke="black" points="347,-164 347,-194 499,-194 499,-164 347,-164"/>
<text text-anchor="start" x="355" y="-182" font-family="Helvetica,sans-Serif" font-size="10.00">MandelbrotApp::createGraphics</text>
<text text-anchor="middle" x="423" y="-171" font-family="Helvetica,sans-Serif" font-size="10.00">CommandBuffers</text>
</a>
</g>
</g>
<!-- Node1&#45;&gt;Node5 -->
<g id="edge4" class="edge">
<title>Node1&#45;&gt;Node5</title>
<path fill="none" stroke="midnightblue" d="M566.27,-122.27C547.69,-131.89 522.2,-144.51 499,-154 490.49,-157.48 481.3,-160.85 472.36,-163.94"/>
<polygon fill="midnightblue" stroke="midnightblue" points="568.06,-125.28 575.3,-117.54 564.82,-119.07 568.06,-125.28"/>
</g>
<!-- Node7 -->
<g id="node7" class="node">
<title>Node7</title>
<g id="a_node7"><a xlink:href="class_dynamic_buffer.html#ad12ff4367acfe377f988606a1588f363" target="_top" xlink:title=" ">
<polygon fill="none" stroke="black" points="361.5,-115 361.5,-145 484.5,-145 484.5,-115 361.5,-115"/>
<text text-anchor="start" x="369.5" y="-133" font-family="Helvetica,sans-Serif" font-size="10.00">DynamicBuffer::getBuffer</text>
<text text-anchor="middle" x="423" y="-122" font-family="Helvetica,sans-Serif" font-size="10.00">PreserveContents</text>
</a>
</g>
</g>
<!-- Node1&#45;&gt;Node7 -->
<g id="edge7" class="edge">
<title>Node1&#45;&gt;Node7</title>
<path fill="none" stroke="midnightblue" d="M524.79,-116.88C511.48,-118.61 497.61,-120.42 484.57,-122.12"/>
<polygon fill="midnightblue" stroke="midnightblue" points="525.38,-120.33 534.84,-115.57 524.47,-113.39 525.38,-120.33"/>
</g>
<!-- Node8 -->
<g id="node8" class="node">
<title>Node8</title>
<g id="a_node8"><a xlink:href="vulkan__voxel__rasterizer_8cpp.html#ae66f6b31b5ad750f1fe042a706a4e3d4" target="_top" xlink:title=" ">
<polygon fill="none" stroke="black" points="404,-76.5 404,-95.5 442,-95.5 442,-76.5 404,-76.5"/>
<text text-anchor="middle" x="423" y="-83.5" font-family="Helvetica,sans-Serif" font-size="10.00">main</text>
</a>
</g>
</g>
<!-- Node1&#45;&gt;Node8 -->
<g id="edge8" class="edge">
<title>Node1&#45;&gt;Node8</title>
<path fill="none" stroke="midnightblue" d="M524.79,-99.12C494.78,-95.21 461.91,-90.94 442.13,-88.36"/>
<polygon fill="midnightblue" stroke="midnightblue" points="524.47,-102.61 534.84,-100.43 525.38,-95.67 524.47,-102.61"/>
</g>
<!-- Node9 -->
<g id="node9" class="node">
<title>Node9</title>
<g id="a_node9"><a xlink:href="class_buffer.html#a92893c08b8a8d6738a472153ad179bf8" target="_top" xlink:title=" ">
<polygon fill="none" stroke="black" points="357.5,-38.5 357.5,-57.5 488.5,-57.5 488.5,-38.5 357.5,-38.5"/>
<text text-anchor="middle" x="423" y="-45.5" font-family="Helvetica,sans-Serif" font-size="10.00">Buffer::transferDataStaged</text>
</a>
</g>
</g>
<!-- Node1&#45;&gt;Node9 -->
<g id="edge9" class="edge">
<title>Node1&#45;&gt;Node9</title>
<path fill="none" stroke="midnightblue" d="M564.3,-94.03C545.93,-85.45 521.42,-74.67 499,-67 488.71,-63.48 477.42,-60.28 466.79,-57.56"/>
<polygon fill="midnightblue" stroke="midnightblue" points="563.03,-97.3 573.56,-98.41 566.02,-90.97 563.03,-97.3"/>
</g>
<!-- Node10 -->
<g id="node10" class="node">
<title>Node10</title>
<g id="a_node10"><a xlink:href="class_image.html#a47982512223ea89e7ab54f535dd55995" target="_top" xlink:title=" ">
<polygon fill="none" stroke="black" points="351,-0.5 351,-19.5 495,-19.5 495,-0.5 351,-0.5"/>
<text text-anchor="middle" x="423" y="-7.5" font-family="Helvetica,sans-Serif" font-size="10.00">Image::transitionImageLayout</text>
</a>
</g>
</g>
<!-- Node1&#45;&gt;Node10 -->
<g id="edge10" class="edge">
<title>Node1&#45;&gt;Node10</title>
<path fill="none" stroke="midnightblue" d="M577.33,-90.87C559.9,-72.85 530.09,-44.93 499,-29 491.47,-25.14 483.1,-22.03 474.77,-19.53"/>
<polygon fill="midnightblue" stroke="midnightblue" points="575.01,-93.51 584.42,-98.37 580.1,-88.7 575.01,-93.51"/>
</g>
<!-- Node3 -->
<g id="node3" class="node">
<title>Node3</title>
<g id="a_node3"><a xlink:href="class_mandelbrot_app.html#a82a763408b810cdfa31c88080d97f8a1" target="_top" xlink:title=" ">
<polygon fill="none" stroke="black" points="176,-213.5 176,-232.5 300,-232.5 300,-213.5 176,-213.5"/>
<text text-anchor="middle" x="238" y="-220.5" font-family="Helvetica,sans-Serif" font-size="10.00">MandelbrotApp::createUI</text>
</a>
</g>
</g>
<!-- Node2&#45;&gt;Node3 -->
<g id="edge2" class="edge">
<title>Node2&#45;&gt;Node3</title>
<path fill="none" stroke="midnightblue" d="M363.87,-223C343.58,-223 320.75,-223 300.22,-223"/>
<polygon fill="midnightblue" stroke="midnightblue" points="363.92,-226.5 373.92,-223 363.92,-219.5 363.92,-226.5"/>
</g>
<!-- Node4 -->
<g id="node4" class="node">
<title>Node4</title>
<g id="a_node4"><a xlink:href="class_mandelbrot_app.html#ad5c4a7e7fd79bc75fea87df0165005b6" target="_top" xlink:title=" ">
<polygon fill="none" stroke="black" points="0,-194.5 0,-213.5 129,-213.5 129,-194.5 0,-194.5"/>
<text text-anchor="middle" x="64.5" y="-201.5" font-family="Helvetica,sans-Serif" font-size="10.00">MandelbrotApp::initVulkan</text>
</a>
</g>
</g>
<!-- Node3&#45;&gt;Node4 -->
<g id="edge3" class="edge">
<title>Node3&#45;&gt;Node4</title>
<path fill="none" stroke="midnightblue" d="M165.53,-215.08C153.45,-213.74 140.97,-212.36 129.1,-211.05"/>
<polygon fill="midnightblue" stroke="midnightblue" points="165.24,-218.57 175.57,-216.19 166.02,-211.61 165.24,-218.57"/>
</g>
<!-- Node5&#45;&gt;Node4 -->
<g id="edge5" class="edge">
<title>Node5&#45;&gt;Node4</title>
<path fill="none" stroke="midnightblue" d="M336.79,-184.98C273.01,-189.45 187.14,-195.47 129.24,-199.53"/>
<polygon fill="midnightblue" stroke="midnightblue" points="337.1,-188.46 346.83,-184.27 336.61,-181.48 337.1,-188.46"/>
</g>
<!-- Node6 -->
<g id="node6" class="node">
<title>Node6</title>
<g id="a_node6"><a xlink:href="class_mandelbrot_app.html#a733620a6533fb25a6ffa309886b74904" target="_top" xlink:title=" ">
<polygon fill="none" stroke="black" points="165,-126 165,-156 311,-156 311,-126 165,-126"/>
<text text-anchor="start" x="173" y="-144" font-family="Helvetica,sans-Serif" font-size="10.00">MandelbrotApp::recreateSwap</text>
<text text-anchor="middle" x="238" y="-133" font-family="Helvetica,sans-Serif" font-size="10.00">Chain</text>
</a>
</g>
</g>
<!-- Node5&#45;&gt;Node6 -->
<g id="edge6" class="edge">
<title>Node5&#45;&gt;Node6</title>
<path fill="none" stroke="midnightblue" d="M339.78,-161.93C330.21,-159.94 320.51,-157.93 311.1,-155.97"/>
<polygon fill="midnightblue" stroke="midnightblue" points="339.17,-165.38 349.67,-163.98 340.59,-158.52 339.17,-165.38"/>
</g>
</g>
</svg>
