<?xml version="1.0" encoding="UTF-8" standalone="no"?>
<!DOCTYPE svg PUBLIC "-//W3C//DTD SVG 1.1//EN"
 "http://www.w3.org/Graphics/SVG/1.1/DTD/svg11.dtd">
<!-- Generated by graphviz version 2.49.3 (20211215.1918)
 -->
<!-- Title: MandelbrotApp::initVulkan Pages: 1 -->
<svg width="908pt" height="922pt"
 viewBox="0.00 0.00 908.00 922.00" xmlns="http://www.w3.org/2000/svg" xmlns:xlink="http://www.w3.org/1999/xlink">
<g id="graph0" class="graph" transform="scale(1 1) rotate(0) translate(4 918)">
<title>MandelbrotApp::initVulkan</title>
<!-- Node1 -->
<g id="node1" class="node">
<title>Node1</title>
<g id="a_node1"><a xlink:title=" ">
<polygon fill="#bfbfbf" stroke="black" points="0,-416.5 0,-435.5 129,-435.5 129,-416.5 0,-416.5"/>
<text text-anchor="middle" x="64.5" y="-423.5" font-family="Helvetica,sans-Serif" font-size="10.00">MandelbrotApp::initVulkan</text>
</a>
</g>
</g>
<!-- Node2 -->
<g id="node2" class="node">
<title>Node2</title>
<g id="a_node2"><a xlink:href="class_mandelbrot_app.html#aef0e6061890a496c1571ffceb502fcd6" target="_top" xlink:title=" ">
<polygon fill="none" stroke="black" points="165,-840.5 165,-859.5 342,-859.5 342,-840.5 165,-840.5"/>
<text text-anchor="middle" x="253.5" y="-847.5" font-family="Helvetica,sans-Serif" font-size="10.00">MandelbrotApp::createCommandPool</text>
</a>
</g>
</g>
<!-- Node1&#45;&gt;Node2 -->
<g id="edge1" class="edge">
<title>Node1&#45;&gt;Node2</title>
<path fill="none" stroke="midnightblue" d="M65.47,-435.55C65.78,-481.2 72.61,-679.92 165,-800 177.6,-816.38 197.21,-828.29 214.66,-836.37"/>
<polygon fill="midnightblue" stroke="midnightblue" points="213.52,-839.68 224.09,-840.46 216.31,-833.27 213.52,-839.68"/>
</g>
<!-- Node4 -->
<g id="node4" class="node">
<title>Node4</title>
<g id="a_node4"><a xlink:href="class_mandelbrot_app.html#ae087b5c0aacb2ec5a2b632d48cf80a7a" target="_top" xlink:title=" ">
<polygon fill="none" stroke="black" points="183,-713 183,-743 324,-743 324,-713 183,-713"/>
<text text-anchor="start" x="191" y="-731" font-family="Helvetica,sans-Serif" font-size="10.00">MandelbrotApp::createFrame</text>
<text text-anchor="middle" x="253.5" y="-720" font-family="Helvetica,sans-Serif" font-size="10.00">Buffers</text>
</a>
</g>
</g>
<!-- Node1&#45;&gt;Node4 -->
<g id="edge3" class="edge">
<title>Node1&#45;&gt;Node4</title>
<path fill="none" stroke="midnightblue" d="M66.21,-435.65C69.55,-474.11 87.01,-618.21 165,-696 169.77,-700.76 175.3,-704.82 181.23,-708.27"/>
<polygon fill="midnightblue" stroke="midnightblue" points="179.66,-711.4 190.14,-712.92 182.9,-705.2 179.66,-711.4"/>
</g>
<!-- Node6 -->
<g id="node6" class="node">
<title>Node6</title>
<g id="a_node6"><a xlink:href="class_mandelbrot_app.html#acb9529b763c37eea10983014fdb7c9dc" target="_top" xlink:title=" ">
<polygon fill="none" stroke="black" points="177.5,-656 177.5,-686 329.5,-686 329.5,-656 177.5,-656"/>
<text text-anchor="start" x="185.5" y="-674" font-family="Helvetica,sans-Serif" font-size="10.00">MandelbrotApp::createGraphics</text>
<text text-anchor="middle" x="253.5" y="-663" font-family="Helvetica,sans-Serif" font-size="10.00">CommandBuffers</text>
</a>
</g>
</g>
<!-- Node1&#45;&gt;Node6 -->
<g id="edge5" class="edge">
<title>Node1&#45;&gt;Node6</title>
<path fill="none" stroke="midnightblue" d="M67.66,-435.52C75.33,-467.36 104.17,-571.55 165,-631 173.49,-639.3 184.02,-646.07 194.79,-651.53"/>
<polygon fill="midnightblue" stroke="midnightblue" points="193.32,-654.71 203.86,-655.81 196.31,-648.38 193.32,-654.71"/>
</g>
<!-- Node8 -->
<g id="node8" class="node">
<title>Node8</title>
<g id="a_node8"><a xlink:href="class_mandelbrot_app.html#a7059177eab65e623ee37a7c9abec96a1" target="_top" xlink:title=" ">
<polygon fill="none" stroke="black" points="183.5,-543 183.5,-573 323.5,-573 323.5,-543 183.5,-543"/>
<text text-anchor="start" x="191.5" y="-561" font-family="Helvetica,sans-Serif" font-size="10.00">MandelbrotApp::createImage</text>
<text text-anchor="middle" x="253.5" y="-550" font-family="Helvetica,sans-Serif" font-size="10.00">Views</text>
</a>
</g>
</g>
<!-- Node1&#45;&gt;Node8 -->
<g id="edge7" class="edge">
<title>Node1&#45;&gt;Node8</title>
<path fill="none" stroke="midnightblue" d="M71.7,-435.63C85.71,-456.59 121.96,-506.61 165,-533 168.56,-535.18 172.32,-537.18 176.2,-539.01"/>
<polygon fill="midnightblue" stroke="midnightblue" points="174.85,-542.24 185.42,-542.98 177.62,-535.81 174.85,-542.24"/>
</g>
<!-- Node9 -->
<g id="node9" class="node">
<title>Node9</title>
<g id="a_node9"><a xlink:href="class_mandelbrot_app.html#a7c4bdbc240a35e9cfcc4d7c6d3f15982" target="_top" xlink:title=" ">
<polygon fill="none" stroke="black" points="178,-504.5 178,-523.5 329,-523.5 329,-504.5 178,-504.5"/>
<text text-anchor="middle" x="253.5" y="-511.5" font-family="Helvetica,sans-Serif" font-size="10.00">MandelbrotApp::createInstance</text>
</a>
</g>
</g>
<!-- Node1&#45;&gt;Node9 -->
<g id="edge8" class="edge">
<title>Node1&#45;&gt;Node9</title>
<path fill="none" stroke="midnightblue" d="M76.27,-435.64C93.64,-450.68 129.53,-479.58 165,-495 170.8,-497.52 176.97,-499.72 183.24,-501.64"/>
<polygon fill="midnightblue" stroke="midnightblue" points="182.56,-505.08 193.14,-504.42 184.46,-498.35 182.56,-505.08"/>
</g>
<!-- Node17 -->
<g id="node17" class="node">
<title>Node17</title>
<g id="a_node17"><a xlink:href="class_mandelbrot_app.html#a1212a0da7a75d0c18579049b490463e4" target="_top" xlink:title=" ">
<polygon fill="none" stroke="black" points="181,-455 181,-485 326,-485 326,-455 181,-455"/>
<text text-anchor="start" x="189" y="-473" font-family="Helvetica,sans-Serif" font-size="10.00">MandelbrotApp::createLogical</text>
<text text-anchor="middle" x="253.5" y="-462" font-family="Helvetica,sans-Serif" font-size="10.00">Device</text>
</a>
</g>
</g>
<!-- Node1&#45;&gt;Node17 -->
<g id="edge17" class="edge">
<title>Node1&#45;&gt;Node17</title>
<path fill="none" stroke="midnightblue" d="M106.08,-435.55C127.32,-440.55 153.99,-446.82 178.74,-452.64"/>
<polygon fill="midnightblue" stroke="midnightblue" points="177.94,-456.05 188.47,-454.93 179.54,-449.24 177.94,-456.05"/>
</g>
<!-- Node21 -->
<g id="node21" class="node">
<title>Node21</title>
<g id="a_node21"><a xlink:href="class_mandelbrot_app.html#a42888cf7f601ffe792280926a9499f9a" target="_top" xlink:title=" ">
<polygon fill="none" stroke="black" points="170,-416.5 170,-435.5 337,-435.5 337,-416.5 170,-416.5"/>
<text text-anchor="middle" x="253.5" y="-423.5" font-family="Helvetica,sans-Serif" font-size="10.00">MandelbrotApp::createRenderPass</text>
</a>
</g>
</g>
<!-- Node1&#45;&gt;Node21 -->
<g id="edge21" class="edge">
<title>Node1&#45;&gt;Node21</title>
<path fill="none" stroke="midnightblue" d="M129.07,-426C138.92,-426 149.26,-426 159.59,-426"/>
<polygon fill="midnightblue" stroke="midnightblue" points="159.9,-429.5 169.9,-426 159.9,-422.5 159.9,-429.5"/>
</g>
<!-- Node23 -->
<g id="node23" class="node">
<title>Node23</title>
<g id="a_node23"><a xlink:href="class_mandelbrot_app.html#a9adbc757b127cc20ef8fe983bd29ebbb" target="_top" xlink:title=" ">
<polygon fill="none" stroke="black" points="183,-771.5 183,-790.5 324,-790.5 324,-771.5 183,-771.5"/>
<text text-anchor="middle" x="253.5" y="-778.5" font-family="Helvetica,sans-Serif" font-size="10.00">MandelbrotApp::createScene</text>
</a>
</g>
</g>
<!-- Node1&#45;&gt;Node23 -->
<g id="edge23" class="edge">
<title>Node1&#45;&gt;Node23</title>
<path fill="none" stroke="midnightblue" d="M65.4,-435.61C65.49,-478.98 71.68,-658.34 165,-753 170.96,-759.04 178.21,-763.78 185.98,-767.5"/>
<polygon fill="midnightblue" stroke="midnightblue" points="184.7,-770.76 195.27,-771.41 187.41,-764.31 184.7,-770.76"/>
</g>
<!-- Node31 -->
<g id="node31" class="node">
<title>Node31</title>
<g id="a_node31"><a xlink:href="class_mandelbrot_app.html#afa9e3750896d931014e2f602518bb12e" target="_top" xlink:title=" ">
<polygon fill="none" stroke="black" points="180,-378.5 180,-397.5 327,-397.5 327,-378.5 180,-378.5"/>
<text text-anchor="middle" x="253.5" y="-385.5" font-family="Helvetica,sans-Serif" font-size="10.00">MandelbrotApp::createSurface</text>
</a>
</g>
</g>
<!-- Node1&#45;&gt;Node31 -->
<g id="edge33" class="edge">
<title>Node1&#45;&gt;Node31</title>
<path fill="none" stroke="midnightblue" d="M112.69,-416.41C137.92,-411.28 169.17,-404.93 195.73,-399.54"/>
<polygon fill="midnightblue" stroke="midnightblue" points="196.55,-402.94 205.65,-397.52 195.15,-396.08 196.55,-402.94"/>
</g>
<!-- Node32 -->
<g id="node32" class="node">
<title>Node32</title>
<g id="a_node32"><a xlink:href="class_mandelbrot_app.html#ab4ca51db62e7b50d59a46e83a7fb4a9e" target="_top" xlink:title=" ">
<polygon fill="none" stroke="black" points="184.5,-329 184.5,-359 322.5,-359 322.5,-329 184.5,-329"/>
<text text-anchor="start" x="192.5" y="-347" font-family="Helvetica,sans-Serif" font-size="10.00">MandelbrotApp::createSwap</text>
<text text-anchor="middle" x="253.5" y="-336" font-family="Helvetica,sans-Serif" font-size="10.00">Chain</text>
</a>
</g>
</g>
<!-- Node1&#45;&gt;Node32 -->
<g id="edge34" class="edge">
<title>Node1&#45;&gt;Node32</title>
<path fill="none" stroke="midnightblue" d="M79.76,-416.35C98.59,-403.96 133.08,-382.47 165,-369 170.73,-366.58 176.77,-364.32 182.89,-362.21"/>
<polygon fill="midnightblue" stroke="midnightblue" points="184.12,-365.49 192.53,-359.04 181.93,-358.84 184.12,-365.49"/>
</g>
<!-- Node35 -->
<g id="node35" class="node">
<title>Node35</title>
<g id="a_node35"><a xlink:href="class_mandelbrot_app.html#ab56858e15be8f834d7117e394e29f0a3" target="_top" xlink:title=" ">
<polygon fill="none" stroke="black" points="186,-280 186,-310 321,-310 321,-280 186,-280"/>
<text text-anchor="start" x="194" y="-298" font-family="Helvetica,sans-Serif" font-size="10.00">MandelbrotApp::createSync</text>
<text text-anchor="middle" x="253.5" y="-287" font-family="Helvetica,sans-Serif" font-size="10.00">Objects</text>
</a>
</g>
</g>
<!-- Node1&#45;&gt;Node35 -->
<g id="edge37" class="edge">
<title>Node1&#45;&gt;Node35</title>
<path fill="none" stroke="midnightblue" d="M71.72,-416.46C85.78,-395.7 122.12,-346.15 165,-320 168.64,-317.78 172.49,-315.75 176.46,-313.89"/>
<polygon fill="midnightblue" stroke="midnightblue" points="178.07,-317.01 185.9,-309.87 175.33,-310.57 178.07,-317.01"/>
</g>
<!-- Node36 -->
<g id="node36" class="node">
<title>Node36</title>
<g id="a_node36"><a xlink:href="class_mandelbrot_app.html#a82a763408b810cdfa31c88080d97f8a1" target="_top" xlink:title=" ">
<polygon fill="none" stroke="black" points="191.5,-602.5 191.5,-621.5 315.5,-621.5 315.5,-602.5 191.5,-602.5"/>
<text text-anchor="middle" x="253.5" y="-609.5" font-family="Helvetica,sans-Serif" font-size="10.00">MandelbrotApp::createUI</text>
</a>
</g>
</g>
<!-- Node1&#45;&gt;Node36 -->
<g id="edge38" class="edge">
<title>Node1&#45;&gt;Node36</title>
<path fill="none" stroke="midnightblue" d="M68.95,-435.74C79.16,-463.11 111.84,-541.49 165,-583 173.69,-589.79 184.04,-595.02 194.53,-599.05"/>
<polygon fill="midnightblue" stroke="midnightblue" points="193.56,-602.42 204.16,-602.41 195.88,-595.81 193.56,-602.42"/>
</g>
<!-- Node41 -->
<g id="node41" class="node">
<title>Node41</title>
<g id="a_node41"><a xlink:href="class_mandelbrot_app.html#acd4eee89723e79860dd30ee39fbcd3d6" target="_top" xlink:title=" ">
<polygon fill="none" stroke="black" points="186.5,-241.5 186.5,-260.5 320.5,-260.5 320.5,-241.5 186.5,-241.5"/>
<text text-anchor="middle" x="253.5" y="-248.5" font-family="Helvetica,sans-Serif" font-size="10.00">MandelbrotApp::initWindow</text>
</a>
</g>
</g>
<!-- Node1&#45;&gt;Node41 -->
<g id="edge44" class="edge">
<title>Node1&#45;&gt;Node41</title>
<path fill="none" stroke="midnightblue" d="M68.8,-416.13C78.6,-388.42 110.31,-309.42 165,-271 168.69,-268.41 172.65,-266.15 176.8,-264.18"/>
<polygon fill="midnightblue" stroke="midnightblue" points="178.21,-267.38 186.09,-260.31 175.52,-260.92 178.21,-267.38"/>
</g>
<!-- Node46 -->
<g id="node46" class="node">
<title>Node46</title>
<g id="a_node46"><a xlink:href="class_mandelbrot_app.html#ae15547e49fb9d4a3b4ee4b9603dd1968" target="_top" xlink:title=" ">
<polygon fill="none" stroke="black" points="185.5,-171.5 185.5,-190.5 321.5,-190.5 321.5,-171.5 185.5,-171.5"/>
<text text-anchor="middle" x="253.5" y="-178.5" font-family="Helvetica,sans-Serif" font-size="10.00">MandelbrotApp::loadModels</text>
</a>
</g>
</g>
<!-- Node1&#45;&gt;Node46 -->
<g id="edge49" class="edge">
<title>Node1&#45;&gt;Node46</title>
<path fill="none" stroke="midnightblue" d="M68.28,-416.37C77.49,-385.96 109.54,-290.52 165,-232 180,-216.17 201.01,-203.71 218.67,-195.07"/>
<polygon fill="midnightblue" stroke="midnightblue" points="220.51,-198.07 228.09,-190.66 217.55,-191.73 220.51,-198.07"/>
</g>
<!-- Node56 -->
<g id="node56" class="node">
<title>Node56</title>
<g id="a_node56"><a xlink:href="class_mandelbrot_app.html#a0590556c463f4640369b5c777d1a86f3" target="_top" xlink:title=" ">
<polygon fill="none" stroke="black" points="183,-122 183,-152 324,-152 324,-122 183,-122"/>
<text text-anchor="start" x="191" y="-140" font-family="Helvetica,sans-Serif" font-size="10.00">MandelbrotApp::pickPhysical</text>
<text text-anchor="middle" x="253.5" y="-129" font-family="Helvetica,sans-Serif" font-size="10.00">Device</text>
</a>
</g>
</g>
<!-- Node1&#45;&gt;Node56 -->
<g id="edge60" class="edge">
<title>Node1&#45;&gt;Node56</title>
<path fill="none" stroke="midnightblue" d="M66.13,-416.4C69.15,-378.15 85.56,-235.17 165,-162 167.78,-159.44 170.8,-157.14 174,-155.08"/>
<polygon fill="midnightblue" stroke="midnightblue" points="175.8,-158.08 182.82,-150.14 172.38,-151.97 175.8,-158.08"/>
</g>
<!-- Node57 -->
<g id="node57" class="node">
<title>Node57</title>
<g id="a_node57"><a xlink:href="class_mandelbrot_app.html#a254df8aa1e31dd7cdd999a8b8b53e8a7" target="_top" xlink:title=" ">
<polygon fill="none" stroke="black" points="183.5,-73 183.5,-103 323.5,-103 323.5,-73 183.5,-73"/>
<text text-anchor="start" x="191.5" y="-91" font-family="Helvetica,sans-Serif" font-size="10.00">MandelbrotApp::queryDevice</text>
<text text-anchor="middle" x="253.5" y="-80" font-family="Helvetica,sans-Serif" font-size="10.00">Properties</text>
</a>
</g>
</g>
<!-- Node1&#45;&gt;Node57 -->
<g id="edge61" class="edge">
<title>Node1&#45;&gt;Node57</title>
<path fill="none" stroke="midnightblue" d="M65.48,-416.44C65.94,-374.11 73.57,-201.77 165,-113 167.91,-110.17 171.12,-107.66 174.54,-105.43"/>
<polygon fill="midnightblue" stroke="midnightblue" points="176.42,-108.39 183.42,-100.44 172.99,-102.29 176.42,-108.39"/>
</g>
<!-- Node58 -->
<g id="node58" class="node">
<title>Node58</title>
<g id="a_node58"><a xlink:href="class_mandelbrot_app.html#a8baf5771ba0a8c6bc786a0dd60819f7d" target="_top" xlink:title=" ">
<polygon fill="none" stroke="black" points="184.5,-24 184.5,-54 322.5,-54 322.5,-24 184.5,-24"/>
<text text-anchor="start" x="192.5" y="-42" font-family="Helvetica,sans-Serif" font-size="10.00">MandelbrotApp::setupDebug</text>
<text text-anchor="middle" x="253.5" y="-31" font-family="Helvetica,sans-Serif" font-size="10.00">Messenger</text>
</a>
</g>
</g>
<!-- Node1&#45;&gt;Node58 -->
<g id="edge62" class="edge">
<title>Node1&#45;&gt;Node58</title>
<path fill="none" stroke="midnightblue" d="M65,-416.26C63.16,-369.77 61.6,-168.45 165,-64 168.06,-60.91 171.48,-58.19 175.14,-55.8"/>
<polygon fill="midnightblue" stroke="midnightblue" points="177.05,-58.74 184.07,-50.81 173.64,-52.63 177.05,-58.74"/>
</g>
<!-- Node3 -->
<g id="node3" class="node">
<title>Node3</title>
<g id="a_node3"><a xlink:href="class_command_pool.html#a0c7b1a49862653552ece1efda2a73ae3" target="_top" xlink:title=" ">
<polygon fill="none" stroke="black" points="564.5,-894.5 564.5,-913.5 676.5,-913.5 676.5,-894.5 564.5,-894.5"/>
<text text-anchor="middle" x="620.5" y="-901.5" font-family="Helvetica,sans-Serif" font-size="10.00">CommandPool::create</text>
</a>
</g>
</g>
<!-- Node2&#45;&gt;Node3 -->
<g id="edge2" class="edge">
<title>Node2&#45;&gt;Node3</title>
<path fill="none" stroke="midnightblue" d="M318.91,-859.53C385.2,-869.34 487.9,-884.53 554.42,-894.37"/>
<polygon fill="midnightblue" stroke="midnightblue" points="553.97,-897.84 564.37,-895.84 554.99,-890.92 553.97,-897.84"/>
</g>
<!-- Node5 -->
<g id="node5" class="node">
<title>Node5</title>
<g id="a_node5"><a xlink:href="class_frame_buffer.html#a3b861048fc9c1861448d4dee7a6b9b69" target="_top" xlink:title=" ">
<polygon fill="none" stroke="black" points="388,-722.5 388,-741.5 489,-741.5 489,-722.5 388,-722.5"/>
<text text-anchor="middle" x="438.5" y="-729.5" font-family="Helvetica,sans-Serif" font-size="10.00">FrameBuffer::create</text>
</a>
</g>
</g>
<!-- Node4&#45;&gt;Node5 -->
<g id="edge4" class="edge">
<title>Node4&#45;&gt;Node5</title>
<path fill="none" stroke="midnightblue" d="M324.21,-729.52C341.77,-729.91 360.48,-730.32 377.52,-730.69"/>
<polygon fill="midnightblue" stroke="midnightblue" points="377.81,-734.2 387.89,-730.92 377.97,-727.2 377.81,-734.2"/>
</g>
<!-- Node7 -->
<g id="node7" class="node">
<title>Node7</title>
<g id="a_node7"><a xlink:href="class_command_buffer.html#aa00b25bc626efb68b5dc810ea91cf41b" target="_top" xlink:title=" ">
<polygon fill="none" stroke="black" points="561.5,-681.5 561.5,-700.5 679.5,-700.5 679.5,-681.5 561.5,-681.5"/>
<text text-anchor="middle" x="620.5" y="-688.5" font-family="Helvetica,sans-Serif" font-size="10.00">CommandBuffer::create</text>
</a>
</g>
</g>
<!-- Node6&#45;&gt;Node7 -->
<g id="edge6" class="edge">
<title>Node6&#45;&gt;Node7</title>
<path fill="none" stroke="midnightblue" d="M329.69,-675.12C394.82,-678.69 488.25,-683.81 551.26,-687.26"/>
<polygon fill="midnightblue" stroke="midnightblue" points="551.32,-690.77 561.49,-687.82 551.7,-683.78 551.32,-690.77"/>
</g>
<!-- Node10 -->
<g id="node10" class="node">
<title>Node10</title>
<g id="a_node10"><a xlink:href="class_instance.html#a5157cfdc2e0f384b6fc4d2f901f50e51" target="_top" xlink:title=" ">
<polygon fill="none" stroke="black" points="395.5,-532.5 395.5,-551.5 481.5,-551.5 481.5,-532.5 395.5,-532.5"/>
<text text-anchor="middle" x="438.5" y="-539.5" font-family="Helvetica,sans-Serif" font-size="10.00">Instance::create</text>
</a>
</g>
</g>
<!-- Node9&#45;&gt;Node10 -->
<g id="edge9" class="edge">
<title>Node9&#45;&gt;Node10</title>
<path fill="none" stroke="midnightblue" d="M316.71,-523.52C338.97,-526.92 363.82,-530.73 385.16,-533.99"/>
<polygon fill="midnightblue" stroke="midnightblue" points="384.92,-537.5 395.33,-535.55 385.98,-530.58 384.92,-537.5"/>
</g>
<!-- Node11 -->
<g id="node11" class="node">
<title>Node11</title>
<g id="a_node11"><a xlink:href="class_instance.html#a2596ee041184991f5bde771922d7a830" target="_top" xlink:title=" ">
<polygon fill="none" stroke="black" points="557,-556 557,-586 684,-586 684,-556 557,-556"/>
<text text-anchor="start" x="565" y="-574" font-family="Helvetica,sans-Serif" font-size="10.00">Instance::checkExtension</text>
<text text-anchor="middle" x="620.5" y="-563" font-family="Helvetica,sans-Serif" font-size="10.00">Support</text>
</a>
</g>
</g>
<!-- Node10&#45;&gt;Node11 -->
<g id="edge10" class="edge">
<title>Node10&#45;&gt;Node11</title>
<path fill="none" stroke="midnightblue" d="M481.7,-548.8C501.08,-551.92 524.61,-555.71 546.71,-559.27"/>
<polygon fill="midnightblue" stroke="midnightblue" points="546.31,-562.75 556.74,-560.89 547.43,-555.84 546.31,-562.75"/>
</g>
<!-- Node12 -->
<g id="node12" class="node">
<title>Node12</title>
<g id="a_node12"><a xlink:href="class_instance.html#a3ce4bb24b3870839a2cde17344de7bae" target="_top" xlink:title=" ">
<polygon fill="none" stroke="black" points="742,-583.5 742,-602.5 900,-602.5 900,-583.5 742,-583.5"/>
<text text-anchor="middle" x="821" y="-590.5" font-family="Helvetica,sans-Serif" font-size="10.00">Instance::getRequiredExtensions</text>
</a>
</g>
</g>
<!-- Node10&#45;&gt;Node12 -->
<g id="edge15" class="edge">
<title>Node10&#45;&gt;Node12</title>
<path fill="none" stroke="midnightblue" d="M478.4,-551.55C485.51,-554.09 492.68,-557.21 499,-561 518.14,-572.48 514.32,-587.61 535,-596 612.64,-627.52 712.26,-616.03 770.82,-604.64"/>
<polygon fill="midnightblue" stroke="midnightblue" points="771.8,-608.01 780.91,-602.59 770.41,-601.15 771.8,-608.01"/>
</g>
<!-- Node13 -->
<g id="node13" class="node">
<title>Node13</title>
<g id="a_node13"><a xlink:href="class_instance.html#a7dfd2e7ef11a8ea5389ff3b38e2bfe68" target="_top" xlink:title=" ">
<polygon fill="none" stroke="black" points="556.5,-507 556.5,-537 684.5,-537 684.5,-507 556.5,-507"/>
<text text-anchor="start" x="564.5" y="-525" font-family="Helvetica,sans-Serif" font-size="10.00">Instance::checkValidation</text>
<text text-anchor="middle" x="620.5" y="-514" font-family="Helvetica,sans-Serif" font-size="10.00">LayerSupport</text>
</a>
</g>
</g>
<!-- Node10&#45;&gt;Node13 -->
<g id="edge12" class="edge">
<title>Node10&#45;&gt;Node13</title>
<path fill="none" stroke="midnightblue" d="M481.7,-537.31C500.99,-535.17 524.39,-532.57 546.4,-530.12"/>
<polygon fill="midnightblue" stroke="midnightblue" points="546.84,-533.59 556.4,-529.01 546.07,-526.64 546.84,-533.59"/>
</g>
<!-- Node15 -->
<g id="node15" class="node">
<title>Node15</title>
<g id="a_node15"><a xlink:href="class_instance.html#ad5276a918a2877e7eee8d4a41d11cb73" target="_top" xlink:title=" ">
<polygon fill="none" stroke="black" points="553,-458 553,-488 688,-488 688,-458 553,-458"/>
<text text-anchor="start" x="561" y="-476" font-family="Helvetica,sans-Serif" font-size="10.00">Instance::CreateDebugUtils</text>
<text text-anchor="middle" x="620.5" y="-465" font-family="Helvetica,sans-Serif" font-size="10.00">MessengerEXT</text>
</a>
</g>
</g>
<!-- Node10&#45;&gt;Node15 -->
<g id="edge14" class="edge">
<title>Node10&#45;&gt;Node15</title>
<path fill="none" stroke="midnightblue" d="M475.42,-532.43C483.36,-529.8 491.61,-526.64 499,-523 516.47,-514.39 517.44,-506.43 535,-498 539.83,-495.68 544.91,-493.53 550.1,-491.55"/>
<polygon fill="midnightblue" stroke="midnightblue" points="551.29,-494.84 559.51,-488.15 548.91,-488.26 551.29,-494.84"/>
</g>
<!-- Node16 -->
<g id="node16" class="node">
<title>Node16</title>
<g id="a_node16"><a xlink:href="class_instance.html#afc03642c387a726d74cc7b766e5af16b" target="_top" xlink:title=" ">
<polygon fill="none" stroke="black" points="535,-409 535,-439 706,-439 706,-409 535,-409"/>
<text text-anchor="start" x="543" y="-427" font-family="Helvetica,sans-Serif" font-size="10.00">Instance::populateDebugMessenger</text>
<text text-anchor="middle" x="620.5" y="-416" font-family="Helvetica,sans-Serif" font-size="10.00">CreateInfo</text>
</a>
</g>
</g>
<!-- Node10&#45;&gt;Node16 -->
<g id="edge16" class="edge">
<title>Node10&#45;&gt;Node16</title>
<path fill="none" stroke="midnightblue" d="M481.77,-533.26C488,-530.67 494,-527.33 499,-523 526.65,-499.06 507.09,-472.64 535,-449 536.99,-447.31 539.09,-445.74 541.28,-444.27"/>
<polygon fill="midnightblue" stroke="midnightblue" points="543.23,-447.19 550.1,-439.12 539.7,-441.14 543.23,-447.19"/>
</g>
<!-- Node11&#45;&gt;Node12 -->
<g id="edge11" class="edge">
<title>Node11&#45;&gt;Node12</title>
<path fill="none" stroke="midnightblue" d="M684.03,-577.93C699.19,-579.61 715.67,-581.44 731.76,-583.22"/>
<polygon fill="midnightblue" stroke="midnightblue" points="731.38,-586.7 741.71,-584.32 732.15,-579.74 731.38,-586.7"/>
</g>
<!-- Node14 -->
<g id="node14" class="node">
<title>Node14</title>
<g id="a_node14"><a xlink:href="class_instance.html#a8d8b9c56aab51b5a7e0d001081642a2d" target="_top" xlink:title=" ">
<polygon fill="none" stroke="black" points="748,-512.5 748,-531.5 894,-531.5 894,-512.5 748,-512.5"/>
<text text-anchor="middle" x="821" y="-519.5" font-family="Helvetica,sans-Serif" font-size="10.00">Instance::getSupportedLayers</text>
</a>
</g>
</g>
<!-- Node13&#45;&gt;Node14 -->
<g id="edge13" class="edge">
<title>Node13&#45;&gt;Node14</title>
<path fill="none" stroke="midnightblue" d="M684.58,-522C701.38,-522 719.77,-522 737.45,-522"/>
<polygon fill="midnightblue" stroke="midnightblue" points="737.75,-525.5 747.75,-522 737.75,-518.5 737.75,-525.5"/>
</g>
<!-- Node18 -->
<g id="node18" class="node">
<title>Node18</title>
<g id="a_node18"><a xlink:href="class_device.html#a2a9f19d3d5e271b7d3c300e657b44219" target="_top" xlink:title=" ">
<polygon fill="none" stroke="black" points="399.5,-494.5 399.5,-513.5 477.5,-513.5 477.5,-494.5 399.5,-494.5"/>
<text text-anchor="middle" x="438.5" y="-501.5" font-family="Helvetica,sans-Serif" font-size="10.00">Device::create</text>
</a>
</g>
</g>
<!-- Node17&#45;&gt;Node18 -->
<g id="edge18" class="edge">
<title>Node17&#45;&gt;Node18</title>
<path fill="none" stroke="midnightblue" d="M326.04,-483.29C347.28,-487.24 370.04,-491.47 389.41,-495.06"/>
<polygon fill="midnightblue" stroke="midnightblue" points="389.03,-498.55 399.5,-496.94 390.31,-491.67 389.03,-498.55"/>
</g>
<!-- Node19 -->
<g id="node19" class="node">
<title>Node19</title>
<g id="a_node19"><a xlink:href="structoptional.html#a7c9c93a03748f3024d4043b20fa8e958" target="_top" xlink:title=" ">
<polygon fill="none" stroke="black" points="389,-456.5 389,-475.5 488,-475.5 488,-456.5 389,-456.5"/>
<text text-anchor="middle" x="438.5" y="-463.5" font-family="Helvetica,sans-Serif" font-size="10.00">optional::has_value</text>
</a>
</g>
</g>
<!-- Node17&#45;&gt;Node19 -->
<g id="edge19" class="edge">
<title>Node17&#45;&gt;Node19</title>
<path fill="none" stroke="midnightblue" d="M326.04,-468.44C343.47,-468.06 361.92,-467.65 378.69,-467.29"/>
<polygon fill="midnightblue" stroke="midnightblue" points="378.96,-470.78 388.88,-467.06 378.81,-463.78 378.96,-470.78"/>
</g>
<!-- Node20 -->
<g id="node20" class="node">
<title>Node20</title>
<g id="a_node20"><a xlink:href="structoptional.html#a5fcd27e1ee81ffc29606ac241349f0c4" target="_top" xlink:title=" ">
<polygon fill="none" stroke="black" points="399.5,-418.5 399.5,-437.5 477.5,-437.5 477.5,-418.5 399.5,-418.5"/>
<text text-anchor="middle" x="438.5" y="-425.5" font-family="Helvetica,sans-Serif" font-size="10.00">optional::value</text>
</a>
</g>
</g>
<!-- Node17&#45;&gt;Node20 -->
<g id="edge20" class="edge">
<title>Node17&#45;&gt;Node20</title>
<path fill="none" stroke="midnightblue" d="M320.05,-454.96C342.98,-449.69 368.28,-443.89 389.51,-439.01"/>
<polygon fill="midnightblue" stroke="midnightblue" points="390.3,-442.42 399.27,-436.78 388.74,-435.6 390.3,-442.42"/>
</g>
<!-- Node22 -->
<g id="node22" class="node">
<title>Node22</title>
<g id="a_node22"><a xlink:href="class_render_pass.html#a7192ec68626bea374e5003f022dfb0a6" target="_top" xlink:title=" ">
<polygon fill="none" stroke="black" points="388,-380.5 388,-399.5 489,-399.5 489,-380.5 388,-380.5"/>
<text text-anchor="middle" x="438.5" y="-387.5" font-family="Helvetica,sans-Serif" font-size="10.00">RenderPass::create</text>
</a>
</g>
</g>
<!-- Node21&#45;&gt;Node22 -->
<g id="edge22" class="edge">
<title>Node21&#45;&gt;Node22</title>
<path fill="none" stroke="midnightblue" d="M303.06,-416.45C326.42,-411.85 354.61,-406.31 379.13,-401.48"/>
<polygon fill="midnightblue" stroke="midnightblue" points="379.89,-404.9 389.03,-399.53 378.54,-398.03 379.89,-404.9"/>
</g>
<!-- Node24 -->
<g id="node24" class="node">
<title>Node24</title>
<g id="a_node24"><a xlink:href="class_camera.html#ace532766362279c142ff206baa386c65" target="_top" xlink:title=" ">
<polygon fill="none" stroke="black" points="397.5,-771.5 397.5,-790.5 479.5,-790.5 479.5,-771.5 397.5,-771.5"/>
<text text-anchor="middle" x="438.5" y="-778.5" font-family="Helvetica,sans-Serif" font-size="10.00">Camera::create</text>
</a>
</g>
</g>
<!-- Node23&#45;&gt;Node24 -->
<g id="edge24" class="edge">
<title>Node23&#45;&gt;Node24</title>
<path fill="none" stroke="midnightblue" d="M324.21,-781C345.18,-781 367.78,-781 387.24,-781"/>
<polygon fill="midnightblue" stroke="midnightblue" points="387.39,-784.5 397.39,-781 387.39,-777.5 387.39,-784.5"/>
</g>
<!-- Node25 -->
<g id="node25" class="node">
<title>Node25</title>
<g id="a_node25"><a xlink:href="class_scene.html#a26c330284ae1b40d737ac9360cfc61e3" target="_top" xlink:title=" ">
<polygon fill="none" stroke="black" points="400.5,-815.5 400.5,-834.5 476.5,-834.5 476.5,-815.5 400.5,-815.5"/>
<text text-anchor="middle" x="438.5" y="-822.5" font-family="Helvetica,sans-Serif" font-size="10.00">Scene::create</text>
</a>
</g>
</g>
<!-- Node23&#45;&gt;Node25 -->
<g id="edge25" class="edge">
<title>Node23&#45;&gt;Node25</title>
<path fill="none" stroke="midnightblue" d="M294.21,-790.55C322.54,-797.36 360.75,-806.55 390.59,-813.72"/>
<polygon fill="midnightblue" stroke="midnightblue" points="389.82,-817.14 400.36,-816.07 391.46,-810.33 389.82,-817.14"/>
</g>
<!-- Node25&#45;&gt;Node3 -->
<g id="edge26" class="edge">
<title>Node25&#45;&gt;Node3</title>
<path fill="none" stroke="midnightblue" d="M451.72,-834.62C469.19,-847.9 502.78,-871.71 535,-885 541.16,-887.54 547.73,-889.77 554.37,-891.72"/>
<polygon fill="midnightblue" stroke="midnightblue" points="553.55,-895.13 564.12,-894.39 555.39,-888.38 553.55,-895.13"/>
</g>
<!-- Node26 -->
<g id="node26" class="node">
<title>Node26</title>
<g id="a_node26"><a xlink:href="class_uniform_buffer.html#a1e1a7c734eb7243682f2dfa7e964ee58" target="_top" xlink:title=" ">
<polygon fill="none" stroke="black" points="566.5,-856.5 566.5,-875.5 674.5,-875.5 674.5,-856.5 566.5,-856.5"/>
<text text-anchor="middle" x="620.5" y="-863.5" font-family="Helvetica,sans-Serif" font-size="10.00">UniformBuffer::create</text>
</a>
</g>
</g>
<!-- Node25&#45;&gt;Node26 -->
<g id="edge27" class="edge">
<title>Node25&#45;&gt;Node26</title>
<path fill="none" stroke="midnightblue" d="M476.68,-833.61C494.34,-837.69 515.76,-842.62 535,-847 545.33,-849.35 556.38,-851.85 566.97,-854.23"/>
<polygon fill="midnightblue" stroke="midnightblue" points="566.41,-857.7 576.94,-856.48 567.95,-850.87 566.41,-857.7"/>
</g>
<!-- Node28 -->
<g id="node28" class="node">
<title>Node28</title>
<g id="a_node28"><a xlink:href="class_dynamic_buffer.html#a81621a760b2a80c68fd5c9e94ac37da6" target="_top" xlink:title=" ">
<polygon fill="none" stroke="black" points="565,-818.5 565,-837.5 676,-837.5 676,-818.5 565,-818.5"/>
<text text-anchor="middle" x="620.5" y="-825.5" font-family="Helvetica,sans-Serif" font-size="10.00">DynamicBuffer::create</text>
</a>
</g>
</g>
<!-- Node25&#45;&gt;Node28 -->
<g id="edge30" class="edge">
<title>Node25&#45;&gt;Node28</title>
<path fill="none" stroke="midnightblue" d="M476.8,-825.62C499.25,-826 528.46,-826.48 554.6,-826.92"/>
<polygon fill="midnightblue" stroke="midnightblue" points="554.77,-830.42 564.83,-827.09 554.89,-823.42 554.77,-830.42"/>
</g>
<!-- Node29 -->
<g id="node29" class="node">
<title>Node29</title>
<g id="a_node29"><a xlink:href="class_descriptor_pool_manager.html#ad93c0c73be9346ef8730618a976c54ea" target="_top" xlink:title=" ">
<polygon fill="none" stroke="black" points="561.5,-769 561.5,-799 679.5,-799 679.5,-769 561.5,-769"/>
<text text-anchor="start" x="569.5" y="-787" font-family="Helvetica,sans-Serif" font-size="10.00">DescriptorPoolManager</text>
<text text-anchor="middle" x="620.5" y="-776" font-family="Helvetica,sans-Serif" font-size="10.00">::create</text>
</a>
</g>
</g>
<!-- Node25&#45;&gt;Node29 -->
<g id="edge31" class="edge">
<title>Node25&#45;&gt;Node29</title>
<path fill="none" stroke="midnightblue" d="M476.8,-816.5C498.34,-811.6 526.11,-805.27 551.41,-799.51"/>
<polygon fill="midnightblue" stroke="midnightblue" points="552.37,-802.88 561.34,-797.25 550.81,-796.06 552.37,-802.88"/>
</g>
<!-- Node30 -->
<g id="node30" class="node">
<title>Node30</title>
<g id="a_node30"><a xlink:href="class_descriptor_set_layout.html#a1a2b657df46e6453f7a7a3d7863103c2" target="_top" xlink:title=" ">
<polygon fill="none" stroke="black" points="568,-720 568,-750 673,-750 673,-720 568,-720"/>
<text text-anchor="start" x="576" y="-738" font-family="Helvetica,sans-Serif" font-size="10.00">DescriptorSetLayout</text>
<text text-anchor="middle" x="620.5" y="-727" font-family="Helvetica,sans-Serif" font-size="10.00">::create</text>
</a>
</g>
</g>
<!-- Node25&#45;&gt;Node30 -->
<g id="edge32" class="edge">
<title>Node25&#45;&gt;Node30</title>
<path fill="none" stroke="midnightblue" d="M469.29,-815.46C479.23,-811.52 490.05,-806.36 499,-800 518.5,-786.14 514.77,-772.76 535,-760 542.16,-755.48 550.17,-751.75 558.34,-748.67"/>
<polygon fill="midnightblue" stroke="midnightblue" points="559.64,-751.93 567.95,-745.36 557.35,-745.31 559.64,-751.93"/>
</g>
<!-- Node27 -->
<g id="node27" class="node">
<title>Node27</title>
<g id="a_node27"><a xlink:href="class_buffer.html#a04bbfbb11daccc5656c698c63214aefc" target="_top" xlink:title=" ">
<polygon fill="none" stroke="black" points="784,-856.5 784,-875.5 858,-875.5 858,-856.5 784,-856.5"/>
<text text-anchor="middle" x="821" y="-863.5" font-family="Helvetica,sans-Serif" font-size="10.00">Buffer::create</text>
</a>
</g>
</g>
<!-- Node26&#45;&gt;Node27 -->
<g id="edge28" class="edge">
<title>Node26&#45;&gt;Node27</title>
<path fill="none" stroke="midnightblue" d="M674.69,-866C705.62,-866 744.2,-866 773.84,-866"/>
<polygon fill="midnightblue" stroke="midnightblue" points="773.92,-869.5 783.92,-866 773.92,-862.5 773.92,-869.5"/>
</g>
<!-- Node27&#45;&gt;Node27 -->
<g id="edge29" class="edge">
<title>Node27&#45;&gt;Node27</title>
<path fill="none" stroke="midnightblue" d="M790.17,-875.76C775.18,-884.57 785.45,-894 821,-894 845.99,-894 858.49,-889.34 858.5,-883.5"/>
<polygon fill="midnightblue" stroke="midnightblue" points="861,-881.05 851.83,-875.76 855.7,-885.62 861,-881.05"/>
</g>
<!-- Node33 -->
<g id="node33" class="node">
<title>Node33</title>
<g id="a_node33"><a xlink:href="class_swap_chain.html#ae424e0b05d7eac9234bcf2c07cb74e40" target="_top" xlink:title=" ">
<polygon fill="none" stroke="black" points="389.5,-342.5 389.5,-361.5 487.5,-361.5 487.5,-342.5 389.5,-342.5"/>
<text text-anchor="middle" x="438.5" y="-349.5" font-family="Helvetica,sans-Serif" font-size="10.00">SwapChain::create</text>
</a>
</g>
</g>
<!-- Node32&#45;&gt;Node33 -->
<g id="edge35" class="edge">
<title>Node32&#45;&gt;Node33</title>
<path fill="none" stroke="midnightblue" d="M322.64,-346.98C341.25,-347.79 361.23,-348.67 379.23,-349.45"/>
<polygon fill="midnightblue" stroke="midnightblue" points="379.15,-352.95 389.29,-349.89 379.45,-345.96 379.15,-352.95"/>
</g>
<!-- Node34 -->
<g id="node34" class="node">
<title>Node34</title>
<g id="a_node34"><a xlink:href="class_mandelbrot_app.html#a69b06411ed6947c7c03adc0245e698d5" target="_top" xlink:title=" ">
<polygon fill="none" stroke="black" points="379,-304.5 379,-323.5 498,-323.5 498,-304.5 379,-304.5"/>
<text text-anchor="middle" x="438.5" y="-311.5" font-family="Helvetica,sans-Serif" font-size="10.00">MandelbrotApp::remove</text>
</a>
</g>
</g>
<!-- Node32&#45;&gt;Node34 -->
<g id="edge36" class="edge">
<title>Node32&#45;&gt;Node34</title>
<path fill="none" stroke="midnightblue" d="M322.64,-332.83C337.98,-330.31 354.26,-327.65 369.59,-325.13"/>
<polygon fill="midnightblue" stroke="midnightblue" points="370.2,-328.58 379.5,-323.51 369.07,-321.67 370.2,-328.58"/>
</g>
<!-- Node37 -->
<g id="node37" class="node">
<title>Node37</title>
<g id="a_node37"><a xlink:href="class_u_i_renderer.html#a429d9bebea63cfce81d4179458bac829" target="_top" xlink:title=" ">
<polygon fill="none" stroke="black" points="389.5,-646.5 389.5,-665.5 487.5,-665.5 487.5,-646.5 389.5,-646.5"/>
<text text-anchor="middle" x="438.5" y="-653.5" font-family="Helvetica,sans-Serif" font-size="10.00">UIRenderer::create</text>
</a>
</g>
</g>
<!-- Node36&#45;&gt;Node37 -->
<g id="edge39" class="edge">
<title>Node36&#45;&gt;Node37</title>
<path fill="none" stroke="midnightblue" d="M294.21,-621.55C321.67,-628.15 358.4,-636.98 387.8,-644.05"/>
<polygon fill="midnightblue" stroke="midnightblue" points="387.33,-647.54 397.87,-646.47 388.96,-640.73 387.33,-647.54"/>
</g>
<!-- Node39 -->
<g id="node39" class="node">
<title>Node39</title>
<g id="a_node39"><a xlink:href="class_object_list.html#a5cac24a16df4546044c057d760b1f38d" target="_top" xlink:title=" ">
<polygon fill="none" stroke="black" points="392,-608.5 392,-627.5 485,-627.5 485,-608.5 392,-608.5"/>
<text text-anchor="middle" x="438.5" y="-615.5" font-family="Helvetica,sans-Serif" font-size="10.00">ObjectList::create</text>
</a>
</g>
</g>
<!-- Node36&#45;&gt;Node39 -->
<g id="edge42" class="edge">
<title>Node36&#45;&gt;Node39</title>
<path fill="none" stroke="midnightblue" d="M315.69,-614.01C336.93,-614.7 360.64,-615.48 381.45,-616.16"/>
<polygon fill="midnightblue" stroke="midnightblue" points="381.61,-619.67 391.72,-616.5 381.84,-612.67 381.61,-619.67"/>
</g>
<!-- Node40 -->
<g id="node40" class="node">
<title>Node40</title>
<g id="a_node40"><a xlink:href="class_object_properties.html#aefb35bac46fc7fe3d5cdf25fb48ed0d7" target="_top" xlink:title=" ">
<polygon fill="none" stroke="black" points="378,-570.5 378,-589.5 499,-589.5 499,-570.5 378,-570.5"/>
<text text-anchor="middle" x="438.5" y="-577.5" font-family="Helvetica,sans-Serif" font-size="10.00">ObjectProperties::create</text>
</a>
</g>
</g>
<!-- Node36&#45;&gt;Node40 -->
<g id="edge43" class="edge">
<title>Node36&#45;&gt;Node40</title>
<path fill="none" stroke="midnightblue" d="M308.91,-602.49C329.01,-598.97 351.99,-594.95 372.9,-591.3"/>
<polygon fill="midnightblue" stroke="midnightblue" points="373.74,-594.7 382.98,-589.53 372.53,-587.81 373.74,-594.7"/>
</g>
<!-- Node37&#45;&gt;Node7 -->
<g id="edge40" class="edge">
<title>Node37&#45;&gt;Node7</title>
<path fill="none" stroke="midnightblue" d="M487.74,-665.38C510.15,-669.74 537.01,-674.96 560.61,-679.55"/>
<polygon fill="midnightblue" stroke="midnightblue" points="560.02,-683 570.5,-681.47 561.36,-676.13 560.02,-683"/>
</g>
<!-- Node38 -->
<g id="node38" class="node">
<title>Node38</title>
<g id="a_node38"><a xlink:href="class_descriptor_pool.html#a190f2272d8740c7f7fe13b5b8fb8326c" target="_top" xlink:title=" ">
<polygon fill="none" stroke="black" points="564.5,-643.5 564.5,-662.5 676.5,-662.5 676.5,-643.5 564.5,-643.5"/>
<text text-anchor="middle" x="620.5" y="-650.5" font-family="Helvetica,sans-Serif" font-size="10.00">DescriptorPool::create</text>
</a>
</g>
</g>
<!-- Node37&#45;&gt;Node38 -->
<g id="edge41" class="edge">
<title>Node37&#45;&gt;Node38</title>
<path fill="none" stroke="midnightblue" d="M487.74,-655.2C508.14,-654.86 532.23,-654.45 554.19,-654.09"/>
<polygon fill="midnightblue" stroke="midnightblue" points="554.5,-657.58 564.45,-653.92 554.39,-650.58 554.5,-657.58"/>
</g>
<!-- Node42 -->
<g id="node42" class="node">
<title>Node42</title>
<g id="a_node42"><a xlink:href="class_window.html#aca04f60c37e2fc5663dd24c80cf70b1b" target="_top" xlink:title=" ">
<polygon fill="none" stroke="black" points="397,-266.5 397,-285.5 480,-285.5 480,-266.5 397,-266.5"/>
<text text-anchor="middle" x="438.5" y="-273.5" font-family="Helvetica,sans-Serif" font-size="10.00">Window::create</text>
</a>
</g>
</g>
<!-- Node41&#45;&gt;Node42 -->
<g id="edge45" class="edge">
<title>Node41&#45;&gt;Node42</title>
<path fill="none" stroke="midnightblue" d="M320.57,-260.03C342.38,-263 366.28,-266.27 386.76,-269.07"/>
<polygon fill="midnightblue" stroke="midnightblue" points="386.43,-272.56 396.82,-270.44 387.38,-265.62 386.43,-272.56"/>
</g>
<!-- Node45 -->
<g id="node45" class="node">
<title>Node45</title>
<g id="a_node45"><a xlink:href="class_window.html#ab50d41994a7da97e3829c1e3134fc281" target="_top" xlink:title=" ">
<polygon fill="none" stroke="black" points="384.5,-228.5 384.5,-247.5 492.5,-247.5 492.5,-228.5 384.5,-228.5"/>
<text text-anchor="middle" x="438.5" y="-235.5" font-family="Helvetica,sans-Serif" font-size="10.00">Window::initWindows</text>
</a>
</g>
</g>
<!-- Node41&#45;&gt;Node45 -->
<g id="edge48" class="edge">
<title>Node41&#45;&gt;Node45</title>
<path fill="none" stroke="midnightblue" d="M320.57,-246.31C338.11,-245.06 357.01,-243.72 374.39,-242.48"/>
<polygon fill="midnightblue" stroke="midnightblue" points="374.7,-245.97 384.43,-241.77 374.21,-238.99 374.7,-245.97"/>
</g>
<!-- Node43 -->
<g id="node43" class="node">
<title>Node43</title>
<g id="a_node43"><a xlink:href="class_window.html#afbdfb8ba03018225dfc29866afd26d2a" target="_top" xlink:title=" ">
<polygon fill="none" stroke="black" points="547.5,-266.5 547.5,-285.5 693.5,-285.5 693.5,-266.5 547.5,-266.5"/>
<text text-anchor="middle" x="620.5" y="-273.5" font-family="Helvetica,sans-Serif" font-size="10.00">Window::staticResizeCallback</text>
</a>
</g>
</g>
<!-- Node42&#45;&gt;Node43 -->
<g id="edge46" class="edge">
<title>Node42&#45;&gt;Node43</title>
<path fill="none" stroke="midnightblue" d="M480.34,-276C497.22,-276 517.41,-276 537.12,-276"/>
<polygon fill="midnightblue" stroke="midnightblue" points="537.35,-279.5 547.35,-276 537.35,-272.5 537.35,-279.5"/>
</g>
<!-- Node44 -->
<g id="node44" class="node">
<title>Node44</title>
<g id="a_node44"><a xlink:href="class_window.html#ae53e48ceff3fe92ae028cc92257a1f56" target="_top" xlink:title=" ">
<polygon fill="none" stroke="black" points="742,-266.5 742,-285.5 900,-285.5 900,-266.5 742,-266.5"/>
<text text-anchor="middle" x="821" y="-273.5" font-family="Helvetica,sans-Serif" font-size="10.00">Window::dynamicResizeCallback</text>
</a>
</g>
</g>
<!-- Node43&#45;&gt;Node44 -->
<g id="edge47" class="edge">
<title>Node43&#45;&gt;Node44</title>
<path fill="none" stroke="midnightblue" d="M693.72,-276C706.06,-276 718.99,-276 731.69,-276"/>
<polygon fill="midnightblue" stroke="midnightblue" points="731.8,-279.5 741.8,-276 731.8,-272.5 731.8,-279.5"/>
</g>
<!-- Node47 -->
<g id="node47" class="node">
<title>Node47</title>
<g id="a_node47"><a xlink:href="class_model_loader.html#affd2b8840989f0bdf63c952775bb082e" target="_top" xlink:title=" ">
<polygon fill="none" stroke="black" points="386.5,-190.5 386.5,-209.5 490.5,-209.5 490.5,-190.5 386.5,-190.5"/>
<text text-anchor="middle" x="438.5" y="-197.5" font-family="Helvetica,sans-Serif" font-size="10.00">ModelLoader::create</text>
</a>
</g>
</g>
<!-- Node46&#45;&gt;Node47 -->
<g id="edge50" class="edge">
<title>Node46&#45;&gt;Node47</title>
<path fill="none" stroke="midnightblue" d="M321.6,-187.97C339.51,-189.83 358.76,-191.83 376.33,-193.65"/>
<polygon fill="midnightblue" stroke="midnightblue" points="376.15,-197.15 386.46,-194.7 376.87,-190.19 376.15,-197.15"/>
</g>
<!-- Node48 -->
<g id="node48" class="node">
<title>Node48</title>
<g id="a_node48"><a xlink:href="class_master_material.html#a3707c4bf9da04bf2cfd649494824c189" target="_top" xlink:title=" ">
<polygon fill="none" stroke="black" points="382,-152.5 382,-171.5 495,-171.5 495,-152.5 382,-152.5"/>
<text text-anchor="middle" x="438.5" y="-159.5" font-family="Helvetica,sans-Serif" font-size="10.00">MasterMaterial::create</text>
</a>
</g>
</g>
<!-- Node46&#45;&gt;Node48 -->
<g id="edge51" class="edge">
<title>Node46&#45;&gt;Node48</title>
<path fill="none" stroke="midnightblue" d="M321.6,-174.03C337.99,-172.33 355.51,-170.51 371.83,-168.82"/>
<polygon fill="midnightblue" stroke="midnightblue" points="372.23,-172.3 381.81,-167.78 371.51,-165.33 372.23,-172.3"/>
</g>
<!-- Node51 -->
<g id="node51" class="node">
<title>Node51</title>
<g id="a_node51"><a xlink:href="class_material.html#a96ab8870a32cbc222c747977254fe1f9" target="_top" xlink:title=" ">
<polygon fill="none" stroke="black" points="397,-114.5 397,-133.5 480,-133.5 480,-114.5 397,-114.5"/>
<text text-anchor="middle" x="438.5" y="-121.5" font-family="Helvetica,sans-Serif" font-size="10.00">Material::create</text>
</a>
</g>
</g>
<!-- Node46&#45;&gt;Node51 -->
<g id="edge54" class="edge">
<title>Node46&#45;&gt;Node51</title>
<path fill="none" stroke="midnightblue" d="M309.3,-171.5C320.28,-168.93 331.63,-165.78 342,-162 359,-155.8 361.32,-150 378,-143 383.19,-140.82 388.71,-138.75 394.23,-136.82"/>
<polygon fill="midnightblue" stroke="midnightblue" points="395.7,-140.02 404.08,-133.53 393.48,-133.38 395.7,-140.02"/>
</g>
<!-- Node52 -->
<g id="node52" class="node">
<title>Node52</title>
<g id="a_node52"><a xlink:href="class_mesh_instance.html#a511dc5709b2a32317ad2f0f02c6740c4" target="_top" xlink:title=" ">
<polygon fill="none" stroke="black" points="383.5,-76.5 383.5,-95.5 493.5,-95.5 493.5,-76.5 383.5,-76.5"/>
<text text-anchor="middle" x="438.5" y="-83.5" font-family="Helvetica,sans-Serif" font-size="10.00">MeshInstance::create</text>
</a>
</g>
</g>
<!-- Node46&#45;&gt;Node52 -->
<g id="edge55" class="edge">
<title>Node46&#45;&gt;Node52</title>
<path fill="none" stroke="midnightblue" d="M321.82,-172.23C328.99,-169.62 335.89,-166.28 342,-162 366.55,-144.82 354.3,-123.33 378,-105 380.33,-103.2 382.84,-101.56 385.46,-100.08"/>
<polygon fill="midnightblue" stroke="midnightblue" points="387.23,-103.11 394.71,-95.61 384.18,-96.81 387.23,-103.11"/>
</g>
<!-- Node53 -->
<g id="node53" class="node">
<title>Node53</title>
<g id="a_node53"><a xlink:href="class_vertex_shader.html#a5210d098175734531886d9e5b1741f8e" target="_top" xlink:title=" ">
<polygon fill="none" stroke="black" points="385,-38.5 385,-57.5 492,-57.5 492,-38.5 385,-38.5"/>
<text text-anchor="middle" x="438.5" y="-45.5" font-family="Helvetica,sans-Serif" font-size="10.00">VertexShader::create</text>
</a>
</g>
</g>
<!-- Node46&#45;&gt;Node53 -->
<g id="edge56" class="edge">
<title>Node46&#45;&gt;Node53</title>
<path fill="none" stroke="midnightblue" d="M321.85,-173.75C329.19,-170.89 336.11,-167.07 342,-162 376.21,-132.53 345.24,-98.07 378,-67 379.66,-65.42 381.46,-63.98 383.35,-62.65"/>
<polygon fill="midnightblue" stroke="midnightblue" points="385.24,-65.6 392.16,-57.58 381.75,-59.53 385.24,-65.6"/>
</g>
<!-- Node55 -->
<g id="node55" class="node">
<title>Node55</title>
<g id="a_node55"><a xlink:href="class_fragment_shader.html#a1221d3fb805310bb64a01e032e794d0b" target="_top" xlink:title=" ">
<polygon fill="none" stroke="black" points="378.5,-0.5 378.5,-19.5 498.5,-19.5 498.5,-0.5 378.5,-0.5"/>
<text text-anchor="middle" x="438.5" y="-7.5" font-family="Helvetica,sans-Serif" font-size="10.00">FragmentShader::create</text>
</a>
</g>
</g>
<!-- Node46&#45;&gt;Node55 -->
<g id="edge58" class="edge">
<title>Node46&#45;&gt;Node55</title>
<path fill="none" stroke="midnightblue" d="M321.91,-174.47C329.33,-171.5 336.25,-167.46 342,-162 386.38,-119.81 335.68,-73.26 378,-29 379.38,-27.56 380.86,-26.23 382.44,-25"/>
<polygon fill="midnightblue" stroke="midnightblue" points="384.32,-27.95 390.91,-19.65 380.58,-22.03 384.32,-27.95"/>
</g>
<!-- Node49 -->
<g id="node49" class="node">
<title>Node49</title>
<g id="a_node49"><a xlink:href="materialparameters_8cpp.html#a59fb9231365864f141c11f1aa4d67f6f" target="_top" xlink:title=" ">
<polygon fill="none" stroke="black" points="587.5,-152.5 587.5,-171.5 653.5,-171.5 653.5,-152.5 587.5,-152.5"/>
<text text-anchor="middle" x="620.5" y="-159.5" font-family="Helvetica,sans-Serif" font-size="10.00">buildLayout</text>
</a>
</g>
</g>
<!-- Node48&#45;&gt;Node49 -->
<g id="edge52" class="edge">
<title>Node48&#45;&gt;Node49</title>
<path fill="none" stroke="midnightblue" d="M495.47,-162C521.92,-162 552.99,-162 577.41,-162"/>
<polygon fill="midnightblue" stroke="midnightblue" points="577.43,-165.5 587.43,-162 577.43,-158.5 577.43,-165.5"/>
</g>
<!-- Node50 -->
<g id="node50" class="node">
<title>Node50</title>
<g id="a_node50"><a xlink:href="materialparameters_8cpp.html#a013179f8095bbe7c618aa07f0011bf78" target="_top" xlink:title=" ">
<polygon fill="none" stroke="black" points="784.5,-152.5 784.5,-171.5 857.5,-171.5 857.5,-152.5 784.5,-152.5"/>
<text text-anchor="middle" x="821" y="-159.5" font-family="Helvetica,sans-Serif" font-size="10.00">buildProperty</text>
</a>
</g>
</g>
<!-- Node49&#45;&gt;Node50 -->
<g id="edge53" class="edge">
<title>Node49&#45;&gt;Node50</title>
<path fill="none" stroke="midnightblue" d="M653.83,-162C686.43,-162 737.05,-162 773.86,-162"/>
<polygon fill="midnightblue" stroke="midnightblue" points="774.32,-165.5 784.32,-162 774.32,-158.5 774.32,-165.5"/>
</g>
<!-- Node54 -->
<g id="node54" class="node">
<title>Node54</title>
<g id="a_node54"><a xlink:href="class_utils.html#a7e7d47e8b017fe7d4ae8802c7b0690cb" target="_top" xlink:title=" ">
<polygon fill="none" stroke="black" points="582.5,-19.5 582.5,-38.5 658.5,-38.5 658.5,-19.5 582.5,-19.5"/>
<text text-anchor="middle" x="620.5" y="-26.5" font-family="Helvetica,sans-Serif" font-size="10.00">Utils::readFile</text>
</a>
</g>
</g>
<!-- Node53&#45;&gt;Node54 -->
<g id="edge57" class="edge">
<title>Node53&#45;&gt;Node54</title>
<path fill="none" stroke="midnightblue" d="M492.05,-42.45C517.38,-39.78 547.53,-36.6 572.15,-34"/>
<polygon fill="midnightblue" stroke="midnightblue" points="572.75,-37.45 582.33,-32.92 572.01,-30.49 572.75,-37.45"/>
</g>
<!-- Node55&#45;&gt;Node54 -->
<g id="edge59" class="edge">
<title>Node55&#45;&gt;Node54</title>
<path fill="none" stroke="midnightblue" d="M498.94,-16.27C522.83,-18.8 549.97,-21.66 572.45,-24.03"/>
<polygon fill="midnightblue" stroke="midnightblue" points="572.11,-27.52 582.42,-25.09 572.84,-20.56 572.11,-27.52"/>
</g>
</g>
</svg>
