<?xml version="1.0" encoding="UTF-8" standalone="no"?>
<!DOCTYPE svg PUBLIC "-//W3C//DTD SVG 1.1//EN"
 "http://www.w3.org/Graphics/SVG/1.1/DTD/svg11.dtd">
<!-- Generated by graphviz version 2.49.3 (20211027.1501)
 -->
<!-- Title: PipelineBase Pages: 1 -->
<svg width="411pt" height="549pt"
 viewBox="0.00 0.00 411.00 549.00" xmlns="http://www.w3.org/2000/svg" xmlns:xlink="http://www.w3.org/1999/xlink">
<g id="graph0" class="graph" transform="scale(1 1) rotate(0) translate(4 545)">
<title>PipelineBase</title>
<!-- Node1 -->
<g id="node1" class="node">
<title>Node1</title>
<g id="a_node1"><a xlink:title=" ">
<polygon fill="#bfbfbf" stroke="black" points="112.5,-0.5 112.5,-90.5 199.5,-90.5 199.5,-0.5 112.5,-0.5"/>
<text text-anchor="middle" x="156" y="-78.5" font-family="Helvetica,sans-Serif" font-size="10.00">PipelineBase</text>
<polyline fill="none" stroke="black" points="112.5,-71.5 199.5,-71.5 "/>
<text text-anchor="middle" x="156" y="-59.5" font-family="Helvetica,sans-Serif" font-size="10.00"> </text>
<polyline fill="none" stroke="black" points="112.5,-52.5 199.5,-52.5 "/>
<text text-anchor="start" x="120.5" y="-40.5" font-family="Helvetica,sans-Serif" font-size="10.00">+ getDevice()</text>
<text text-anchor="start" x="120.5" y="-29.5" font-family="Helvetica,sans-Serif" font-size="10.00">+ getLayout()</text>
<text text-anchor="start" x="120.5" y="-18.5" font-family="Helvetica,sans-Serif" font-size="10.00">+ getBindPoint()</text>
<text text-anchor="start" x="120.5" y="-7.5" font-family="Helvetica,sans-Serif" font-size="10.00"># PipelineBase()</text>
</a>
</g>
</g>
<!-- Node2 -->
<g id="node2" class="node">
<title>Node2</title>
<g id="a_node2"><a xlink:href="class_vulkan_class.html" target="_top" xlink:title=" ">
<polygon fill="none" stroke="black" points="0,-269.5 0,-337.5 134,-337.5 134,-269.5 0,-269.5"/>
<text text-anchor="middle" x="67" y="-325.5" font-family="Helvetica,sans-Serif" font-size="10.00">VulkanClass&lt; VkPipeline &gt;</text>
<polyline fill="none" stroke="black" points="0,-318.5 134,-318.5 "/>
<text text-anchor="start" x="8" y="-306.5" font-family="Helvetica,sans-Serif" font-size="10.00"># handle</text>
<polyline fill="none" stroke="black" points="0,-299.5 134,-299.5 "/>
<text text-anchor="start" x="8" y="-287.5" font-family="Helvetica,sans-Serif" font-size="10.00">+ getHandle()</text>
<text text-anchor="start" x="8" y="-276.5" font-family="Helvetica,sans-Serif" font-size="10.00">+ getHandlePtr()</text>
</a>
</g>
</g>
<!-- Node2&#45;&gt;Node1 -->
<g id="edge1" class="edge">
<title>Node2&#45;&gt;Node1</title>
<path fill="none" stroke="midnightblue" d="M67.79,-259.4C69.69,-225.35 75.28,-177.21 91,-138 97.67,-121.36 107.94,-104.86 118.36,-90.56"/>
<polygon fill="none" stroke="midnightblue" points="64.29,-259.33 67.31,-269.49 71.28,-259.67 64.29,-259.33"/>
</g>
<!-- Node3 -->
<g id="node3" class="node">
<title>Node3</title>
<g id="a_node3"><a xlink:href="class_vulkan_class.html" target="_top" xlink:title=" ">
<polygon fill="none" stroke="black" points="109,-472.5 109,-540.5 203,-540.5 203,-472.5 109,-472.5"/>
<text text-anchor="middle" x="156" y="-528.5" font-family="Helvetica,sans-Serif" font-size="10.00">VulkanClass&lt; T &gt;</text>
<polyline fill="none" stroke="black" points="109,-521.5 203,-521.5 "/>
<text text-anchor="start" x="117" y="-509.5" font-family="Helvetica,sans-Serif" font-size="10.00"># handle</text>
<polyline fill="none" stroke="black" points="109,-502.5 203,-502.5 "/>
<text text-anchor="start" x="117" y="-490.5" font-family="Helvetica,sans-Serif" font-size="10.00">+ getHandle()</text>
<text text-anchor="start" x="117" y="-479.5" font-family="Helvetica,sans-Serif" font-size="10.00">+ getHandlePtr()</text>
</a>
</g>
</g>
<!-- Node3&#45;&gt;Node2 -->
<g id="edge2" class="edge">
<title>Node3&#45;&gt;Node2</title>
<path fill="none" stroke="orange" d="M101.14,-472.37C95.29,-466.88 90.01,-460.75 86,-454 64.79,-418.36 62.56,-369.55 63.94,-337.53"/>
<polygon fill="orange" stroke="orange" points="98.96,-475.1 108.82,-478.97 103.52,-469.8 98.96,-475.1"/>
<text text-anchor="middle" x="119" y="-446" font-family="Helvetica,sans-Serif" font-size="10.00"> &lt; VkPipeline &gt;</text>
</g>
<!-- Node5 -->
<g id="node5" class="node">
<title>Node5</title>
<g id="a_node5"><a xlink:href="class_vulkan_class.html" target="_top" xlink:title=" ">
<polygon fill="none" stroke="black" points="91,-356.5 91,-424.5 221,-424.5 221,-356.5 91,-356.5"/>
<text text-anchor="middle" x="156" y="-412.5" font-family="Helvetica,sans-Serif" font-size="10.00">VulkanClass&lt; VkDevice &gt;</text>
<polyline fill="none" stroke="black" points="91,-405.5 221,-405.5 "/>
<text text-anchor="start" x="99" y="-393.5" font-family="Helvetica,sans-Serif" font-size="10.00"># handle</text>
<polyline fill="none" stroke="black" points="91,-386.5 221,-386.5 "/>
<text text-anchor="start" x="99" y="-374.5" font-family="Helvetica,sans-Serif" font-size="10.00">+ getHandle()</text>
<text text-anchor="start" x="99" y="-363.5" font-family="Helvetica,sans-Serif" font-size="10.00">+ getHandlePtr()</text>
</a>
</g>
</g>
<!-- Node3&#45;&gt;Node5 -->
<g id="edge5" class="edge">
<title>Node3&#45;&gt;Node5</title>
<path fill="none" stroke="orange" d="M156,-462.06C156,-449.64 156,-436.32 156,-424.62"/>
<polygon fill="orange" stroke="orange" points="152.5,-462.22 156,-472.22 159.5,-462.22 152.5,-462.22"/>
<text text-anchor="middle" x="186.5" y="-446" font-family="Helvetica,sans-Serif" font-size="10.00"> &lt; VkDevice &gt;</text>
</g>
<!-- Node7 -->
<g id="node7" class="node">
<title>Node7</title>
<g id="a_node7"><a xlink:href="class_vulkan_class.html" target="_top" xlink:title=" ">
<polygon fill="none" stroke="black" points="239,-356.5 239,-424.5 403,-424.5 403,-356.5 239,-356.5"/>
<text text-anchor="middle" x="321" y="-412.5" font-family="Helvetica,sans-Serif" font-size="10.00">VulkanClass&lt; VkPipelineLayout &gt;</text>
<polyline fill="none" stroke="black" points="239,-405.5 403,-405.5 "/>
<text text-anchor="start" x="247" y="-393.5" font-family="Helvetica,sans-Serif" font-size="10.00"># handle</text>
<polyline fill="none" stroke="black" points="239,-386.5 403,-386.5 "/>
<text text-anchor="start" x="247" y="-374.5" font-family="Helvetica,sans-Serif" font-size="10.00">+ getHandle()</text>
<text text-anchor="start" x="247" y="-363.5" font-family="Helvetica,sans-Serif" font-size="10.00">+ getHandlePtr()</text>
</a>
</g>
</g>
<!-- Node3&#45;&gt;Node7 -->
<g id="edge8" class="edge">
<title>Node3&#45;&gt;Node7</title>
<path fill="none" stroke="orange" d="M211.67,-467.04C231.62,-453.26 253.91,-437.85 273.14,-424.57"/>
<polygon fill="orange" stroke="orange" points="209.52,-464.27 203.28,-472.83 213.5,-470.03 209.52,-464.27"/>
<text text-anchor="middle" x="291.5" y="-446" font-family="Helvetica,sans-Serif" font-size="10.00"> &lt; VkPipelineLayout &gt;</text>
</g>
<!-- Node4 -->
<g id="node4" class="node">
<title>Node4</title>
<g id="a_node4"><a xlink:href="class_device.html" target="_top" xlink:title=" ">
<polygon fill="none" stroke="black" points="100.5,-149.5 100.5,-239.5 211.5,-239.5 211.5,-149.5 100.5,-149.5"/>
<text text-anchor="middle" x="156" y="-227.5" font-family="Helvetica,sans-Serif" font-size="10.00">Device</text>
<polyline fill="none" stroke="black" points="100.5,-220.5 211.5,-220.5 "/>
<text text-anchor="middle" x="156" y="-208.5" font-family="Helvetica,sans-Serif" font-size="10.00"> </text>
<polyline fill="none" stroke="black" points="100.5,-201.5 211.5,-201.5 "/>
<text text-anchor="start" x="108.5" y="-189.5" font-family="Helvetica,sans-Serif" font-size="10.00">+ Device()</text>
<text text-anchor="start" x="108.5" y="-178.5" font-family="Helvetica,sans-Serif" font-size="10.00">+ getPhysicalDevice()</text>
<text text-anchor="start" x="108.5" y="-167.5" font-family="Helvetica,sans-Serif" font-size="10.00">+ getAllocator()</text>
<text text-anchor="start" x="108.5" y="-156.5" font-family="Helvetica,sans-Serif" font-size="10.00">+ cleanup()</text>
</a>
</g>
</g>
<!-- Node4&#45;&gt;Node1 -->
<g id="edge3" class="edge">
<title>Node4&#45;&gt;Node1</title>
<path fill="none" stroke="#404040" d="M156,-149.4C156,-134.71 156,-118.16 156,-102.69"/>
<polygon fill="none" stroke="#404040" points="156,-102.57 152,-96.57 156,-90.57 160,-96.57 156,-102.57"/>
<text text-anchor="middle" x="174.5" y="-112" font-family="Helvetica,sans-Serif" font-size="10.00"> #device</text>
</g>
<!-- Node5&#45;&gt;Node4 -->
<g id="edge4" class="edge">
<title>Node5&#45;&gt;Node4</title>
<path fill="none" stroke="midnightblue" d="M156,-345.86C156,-314.18 156,-271.48 156,-239.67"/>
<polygon fill="none" stroke="midnightblue" points="152.5,-346.15 156,-356.15 159.5,-346.15 152.5,-346.15"/>
</g>
<!-- Node6 -->
<g id="node6" class="node">
<title>Node6</title>
<g id="a_node6"><a xlink:href="class_pipeline_layout.html" target="_top" xlink:title=" ">
<polygon fill="none" stroke="black" points="250,-138.5 250,-250.5 350,-250.5 350,-138.5 250,-138.5"/>
<text text-anchor="middle" x="300" y="-238.5" font-family="Helvetica,sans-Serif" font-size="10.00">PipelineLayout</text>
<polyline fill="none" stroke="black" points="250,-231.5 350,-231.5 "/>
<text text-anchor="middle" x="300" y="-219.5" font-family="Helvetica,sans-Serif" font-size="10.00"> </text>
<polyline fill="none" stroke="black" points="250,-212.5 350,-212.5 "/>
<text text-anchor="start" x="258" y="-200.5" font-family="Helvetica,sans-Serif" font-size="10.00">+ PipelineLayout()</text>
<text text-anchor="start" x="258" y="-189.5" font-family="Helvetica,sans-Serif" font-size="10.00">+ PipelineLayout()</text>
<text text-anchor="start" x="258" y="-178.5" font-family="Helvetica,sans-Serif" font-size="10.00">+ PipelineLayout()</text>
<text text-anchor="start" x="258" y="-167.5" font-family="Helvetica,sans-Serif" font-size="10.00">+ PipelineLayout()</text>
<text text-anchor="start" x="258" y="-156.5" font-family="Helvetica,sans-Serif" font-size="10.00">+ getDevice()</text>
<text text-anchor="start" x="258" y="-145.5" font-family="Helvetica,sans-Serif" font-size="10.00">+ ~PipelineLayout()</text>
</a>
</g>
</g>
<!-- Node6&#45;&gt;Node1 -->
<g id="edge6" class="edge">
<title>Node6&#45;&gt;Node1</title>
<path fill="none" stroke="#404040" d="M249.64,-142.09C236.2,-128.37 221.65,-113.52 208.12,-99.7"/>
<polygon fill="none" stroke="#404040" points="207.79,-99.37 200.74,-97.88 199.39,-90.8 206.45,-92.28 207.79,-99.37"/>
<text text-anchor="middle" x="245" y="-112" font-family="Helvetica,sans-Serif" font-size="10.00"> #layout</text>
</g>
<!-- Node7&#45;&gt;Node6 -->
<g id="edge7" class="edge">
<title>Node7&#45;&gt;Node6</title>
<path fill="none" stroke="midnightblue" d="M316.31,-346.2C313.26,-318.04 309.26,-281.06 305.98,-250.78"/>
<polygon fill="none" stroke="midnightblue" points="312.83,-346.58 317.39,-356.15 319.79,-345.83 312.83,-346.58"/>
</g>
</g>
</svg>
