<?xml version="1.0" encoding="UTF-8" standalone="no"?>
<!DOCTYPE svg PUBLIC "-//W3C//DTD SVG 1.1//EN"
 "http://www.w3.org/Graphics/SVG/1.1/DTD/svg11.dtd">
<!-- Generated by graphviz version 2.49.3 (20211215.1918)
 -->
<!-- Title: UniformBuffer::create Pages: 1 -->
<svg width="665pt" height="165pt"
 viewBox="0.00 0.00 665.00 165.00" xmlns="http://www.w3.org/2000/svg" xmlns:xlink="http://www.w3.org/1999/xlink">
<g id="graph0" class="graph" transform="scale(1 1) rotate(0) translate(4 161)">
<title>UniformBuffer::create</title>
<!-- Node1 -->
<g id="node1" class="node">
<title>Node1</title>
<g id="a_node1"><a xlink:title=" ">
<polygon fill="#bfbfbf" stroke="black" points="549,-69 549,-88 657,-88 657,-69 549,-69"/>
<text text-anchor="middle" x="603" y="-76" font-family="Helvetica,sans-Serif" font-size="10.00">UniformBuffer::create</text>
</a>
</g>
</g>
<!-- Node2 -->
<g id="node2" class="node">
<title>Node2</title>
<g id="a_node2"><a xlink:href="class_scene.html#a26c330284ae1b40d737ac9360cfc61e3" target="_top" xlink:title=" ">
<polygon fill="none" stroke="black" points="401,-91 401,-110 477,-110 477,-91 401,-91"/>
<text text-anchor="middle" x="439" y="-98" font-family="Helvetica,sans-Serif" font-size="10.00">Scene::create</text>
</a>
</g>
</g>
<!-- Node1&#45;&gt;Node2 -->
<g id="edge1" class="edge">
<title>Node1&#45;&gt;Node2</title>
<path fill="none" stroke="midnightblue" d="M538.84,-87.08C517.91,-89.92 495.31,-92.99 477.01,-95.47"/>
<polygon fill="midnightblue" stroke="midnightblue" points="539.52,-90.52 548.96,-85.7 538.58,-83.58 539.52,-90.52"/>
</g>
<!-- Node7 -->
<g id="node7" class="node">
<title>Node7</title>
<g id="a_node7"><a xlink:href="class_mandelbrot_app.html#a2c5c1ee9048f4abe7dc58673336cf1f0" target="_top" xlink:title=" ">
<polygon fill="none" stroke="black" points="365,-41.5 365,-71.5 513,-71.5 513,-41.5 365,-41.5"/>
<text text-anchor="start" x="373" y="-59.5" font-family="Helvetica,sans-Serif" font-size="10.00">MandelbrotApp::createUniform</text>
<text text-anchor="middle" x="439" y="-48.5" font-family="Helvetica,sans-Serif" font-size="10.00">Buffers</text>
</a>
</g>
</g>
<!-- Node1&#45;&gt;Node7 -->
<g id="edge6" class="edge">
<title>Node1&#45;&gt;Node7</title>
<path fill="none" stroke="midnightblue" d="M538.85,-69.92C530.43,-68.78 521.74,-67.6 513.17,-66.44"/>
<polygon fill="midnightblue" stroke="midnightblue" points="538.58,-73.42 548.96,-71.3 539.52,-66.48 538.58,-73.42"/>
</g>
<!-- Node3 -->
<g id="node3" class="node">
<title>Node3</title>
<g id="a_node3"><a xlink:href="class_render_manager.html#af9f33ffbf6fa771b2a2132b4bd33de06" target="_top" xlink:title=" ">
<polygon fill="none" stroke="black" points="186.5,-126.5 186.5,-156.5 325.5,-156.5 325.5,-126.5 186.5,-126.5"/>
<text text-anchor="start" x="194.5" y="-144.5" font-family="Helvetica,sans-Serif" font-size="10.00">RenderManager::crateScene</text>
<text text-anchor="middle" x="256" y="-133.5" font-family="Helvetica,sans-Serif" font-size="10.00">Objects</text>
</a>
</g>
</g>
<!-- Node2&#45;&gt;Node3 -->
<g id="edge2" class="edge">
<title>Node2&#45;&gt;Node3</title>
<path fill="none" stroke="midnightblue" d="M391.14,-111.12C370.47,-115.8 345.8,-121.38 323.3,-126.48"/>
<polygon fill="midnightblue" stroke="midnightblue" points="391.96,-114.52 400.94,-108.9 390.41,-107.69 391.96,-114.52"/>
</g>
<!-- Node5 -->
<g id="node5" class="node">
<title>Node5</title>
<g id="a_node5"><a xlink:href="class_mandelbrot_app.html#a9adbc757b127cc20ef8fe983bd29ebbb" target="_top" xlink:title=" ">
<polygon fill="none" stroke="black" points="185.5,-88 185.5,-107 326.5,-107 326.5,-88 185.5,-88"/>
<text text-anchor="middle" x="256" y="-95" font-family="Helvetica,sans-Serif" font-size="10.00">MandelbrotApp::createScene</text>
</a>
</g>
</g>
<!-- Node2&#45;&gt;Node5 -->
<g id="edge4" class="edge">
<title>Node2&#45;&gt;Node5</title>
<path fill="none" stroke="midnightblue" d="M390.75,-99.72C371.16,-99.39 348.04,-99.01 326.59,-98.65"/>
<polygon fill="midnightblue" stroke="midnightblue" points="390.88,-103.22 400.94,-99.89 390.99,-96.22 390.88,-103.22"/>
</g>
<!-- Node4 -->
<g id="node4" class="node">
<title>Node4</title>
<g id="a_node4"><a xlink:href="class_render_manager.html#a2f5991e4b82925a2571e6fabf1e8b7b9" target="_top" xlink:title=" ">
<polygon fill="none" stroke="black" points="0,-126.5 0,-156.5 147,-156.5 147,-126.5 0,-126.5"/>
<text text-anchor="start" x="8" y="-144.5" font-family="Helvetica,sans-Serif" font-size="10.00">RenderManager::createRender</text>
<text text-anchor="middle" x="73.5" y="-133.5" font-family="Helvetica,sans-Serif" font-size="10.00">Objects</text>
</a>
</g>
</g>
<!-- Node3&#45;&gt;Node4 -->
<g id="edge3" class="edge">
<title>Node3&#45;&gt;Node4</title>
<path fill="none" stroke="midnightblue" d="M175.98,-141.5C166.43,-141.5 156.72,-141.5 147.27,-141.5"/>
<polygon fill="midnightblue" stroke="midnightblue" points="176.25,-145 186.25,-141.5 176.25,-138 176.25,-145"/>
</g>
<!-- Node6 -->
<g id="node6" class="node">
<title>Node6</title>
<g id="a_node6"><a xlink:href="class_mandelbrot_app.html#ad5c4a7e7fd79bc75fea87df0165005b6" target="_top" xlink:title=" ">
<polygon fill="none" stroke="black" points="9,-69 9,-88 138,-88 138,-69 9,-69"/>
<text text-anchor="middle" x="73.5" y="-76" font-family="Helvetica,sans-Serif" font-size="10.00">MandelbrotApp::initVulkan</text>
</a>
</g>
</g>
<!-- Node5&#45;&gt;Node6 -->
<g id="edge5" class="edge">
<title>Node5&#45;&gt;Node6</title>
<path fill="none" stroke="midnightblue" d="M175.51,-89.13C162.98,-87.81 150.18,-86.47 138.08,-85.19"/>
<polygon fill="midnightblue" stroke="midnightblue" points="175.16,-92.62 185.47,-90.18 175.89,-85.65 175.16,-92.62"/>
</g>
<!-- Node7&#45;&gt;Node6 -->
<g id="edge7" class="edge">
<title>Node7&#45;&gt;Node6</title>
<path fill="none" stroke="midnightblue" d="M354.53,-61.55C288.66,-65.54 198.18,-71.01 138.09,-74.65"/>
<polygon fill="midnightblue" stroke="midnightblue" points="355.11,-65.02 364.88,-60.93 354.68,-58.04 355.11,-65.02"/>
</g>
<!-- Node8 -->
<g id="node8" class="node">
<title>Node8</title>
<g id="a_node8"><a xlink:href="class_mandelbrot_app.html#a733620a6533fb25a6ffa309886b74904" target="_top" xlink:title=" ">
<polygon fill="none" stroke="black" points="183,-0.5 183,-30.5 329,-30.5 329,-0.5 183,-0.5"/>
<text text-anchor="start" x="191" y="-18.5" font-family="Helvetica,sans-Serif" font-size="10.00">MandelbrotApp::recreateSwap</text>
<text text-anchor="middle" x="256" y="-7.5" font-family="Helvetica,sans-Serif" font-size="10.00">Chain</text>
</a>
</g>
</g>
<!-- Node7&#45;&gt;Node8 -->
<g id="edge8" class="edge">
<title>Node7&#45;&gt;Node8</title>
<path fill="none" stroke="midnightblue" d="M361.55,-39.18C348.85,-36.31 335.78,-33.35 323.36,-30.53"/>
<polygon fill="midnightblue" stroke="midnightblue" points="361.1,-42.67 371.63,-41.47 362.65,-35.84 361.1,-42.67"/>
</g>
</g>
</svg>
