<?xml version="1.0" encoding="UTF-8" standalone="no"?>
<!DOCTYPE svg PUBLIC "-//W3C//DTD SVG 1.1//EN"
 "http://www.w3.org/Graphics/SVG/1.1/DTD/svg11.dtd">
<!-- Generated by graphviz version 2.50.0 (20220203.2022)
 -->
<!-- Title: CommandBuffer::create Pages: 1 -->
<!--zoomable 497 -->
<svg id="main" version="1.1" xmlns="http://www.w3.org/2000/svg" xmlns:xlink="http://www.w3.org/1999/xlink" xml:space="preserve" onload="init(evt)">
<style type="text/css"><![CDATA[
.edge:hover path { stroke: red; }
.edge:hover polygon { stroke: red; fill: red; }
]]></style>
<script type="text/javascript"><![CDATA[
var edges = document.getElementsByTagName('g');
if (edges && edges.length) {
  for (var i=0;i<edges.length;i++) {
    if (edges[i].id.substr(0,4)=='edge') {
      edges[i].setAttribute('class','edge');
    }
  }
}
]]></script>
        <defs>
                <circle id="rim" cx="0" cy="0" r="7"/>
                <circle id="rim2" cx="0" cy="0" r="3.5"/>
                <g id="zoomPlus">
                        <use xlink:href="#rim" fill="#404040">
                                <set attributeName="fill" to="#808080" begin="zoomplus.mouseover" end="zoomplus.mouseout"/>
                        </use>
                        <path d="M-4,0h8M0,-4v8" fill="none" stroke="white" stroke-width="1.5" pointer-events="none"/>
                </g>
                <g id="zoomMin">
                        <use xlink:href="#rim" fill="#404040">
                                <set attributeName="fill" to="#808080" begin="zoomminus.mouseover" end="zoomminus.mouseout"/>
                        </use>
                        <path d="M-4,0h8" fill="none" stroke="white" stroke-width="1.5" pointer-events="none"/>
                </g>
                <g id="dirArrow">
                        <path fill="none" stroke="white" stroke-width="1.5" d="M0,-3.0v7 M-2.5,-0.5L0,-3.0L2.5,-0.5"/>
                </g>
               <g id="resetDef">
                       <use xlink:href="#rim2" fill="#404040">
                               <set attributeName="fill" to="#808080" begin="reset.mouseover" end="reset.mouseout"/>
                       </use>
               </g>
        </defs>

<script type="text/javascript">
var viewWidth = 872;
var viewHeight = 497;
var sectionId = 'dynsection-5';
</script>
<script xlink:href="svgpan.js"/>
<svg id="graph" class="graph">
<g id="viewport">
<title>CommandBuffer::create</title>
<!-- Node1 -->
<g id="node1" class="node">
<title>Node1</title>
<g id="a_node1"><a xlink:title=" ">
<polygon fill="#bfbfbf" stroke="black" points="746,-177.96 746,-196.96 864,-196.96 864,-177.96 746,-177.96"/>
<text text-anchor="middle" x="805" y="-184.96" font-family="Helvetica,sans-Serif" font-size="10.00">CommandBuffer::create</text>
</a>
</g>
</g>
<!-- Node2 -->
<g id="node2" class="node">
<title>Node2</title>
<g id="a_node2"><a xlink:href="class_u_i_renderer.html#a429d9bebea63cfce81d4179458bac829" target="_top" xlink:title=" ">
<polygon fill="none" stroke="black" points="585,-401.96 585,-420.96 683,-420.96 683,-401.96 585,-401.96"/>
<text text-anchor="middle" x="634" y="-408.96" font-family="Helvetica,sans-Serif" font-size="10.00">UIRenderer::create</text>
</a>
</g>
</g>
<!-- Node1&#45;&gt;Node2 -->
<g id="edge1" class="edge">
<title>Node1&#45;&gt;Node2</title>
<path fill="none" stroke="midnightblue" d="M796.45,-206.26C782.72,-238.92 751.22,-307.16 710,-354.46 692.7,-374.31 667.5,-391.74 651.17,-401.94"/>
<polygon fill="midnightblue" stroke="midnightblue" points="799.7,-207.56 800.28,-196.98 793.23,-204.89 799.7,-207.56"/>
</g>
<!-- Node9 -->
<g id="node9" class="node">
<title>Node9</title>
<g id="a_node9"><a xlink:href="class_mandelbrot_app.html#acb9529b763c37eea10983014fdb7c9dc" target="_top" xlink:title=" ">
<polygon fill="none" stroke="black" points="558,-314.46 558,-344.46 710,-344.46 710,-314.46 558,-314.46"/>
<text text-anchor="start" x="566" y="-332.46" font-family="Helvetica,sans-Serif" font-size="10.00">MandelbrotApp::createGraphics</text>
<text text-anchor="middle" x="634" y="-321.46" font-family="Helvetica,sans-Serif" font-size="10.00">CommandBuffers</text>
</a>
</g>
</g>
<!-- Node1&#45;&gt;Node9 -->
<g id="edge8" class="edge">
<title>Node1&#45;&gt;Node9</title>
<path fill="none" stroke="midnightblue" d="M793.8,-205.95C778.72,-231.64 748.12,-277.94 710,-304.46 704.48,-308.3 698.32,-311.59 691.98,-314.39"/>
<polygon fill="midnightblue" stroke="midnightblue" points="796.88,-207.62 798.8,-197.2 790.8,-204.15 796.88,-207.62"/>
</g>
<!-- Node11 -->
<g id="node11" class="node">
<title>Node11</title>
<g id="a_node11"><a xlink:href="class_scene.html#a499ff2241001c5469a7dcc4fc399d573" target="_top" xlink:title=" ">
<polygon fill="none" stroke="black" points="585,-275.96 585,-294.96 683,-294.96 683,-275.96 585,-275.96"/>
<text text-anchor="middle" x="634" y="-282.96" font-family="Helvetica,sans-Serif" font-size="10.00">Scene::cullObjects</text>
</a>
</g>
</g>
<!-- Node1&#45;&gt;Node11 -->
<g id="edge11" class="edge">
<title>Node1&#45;&gt;Node11</title>
<path fill="none" stroke="midnightblue" d="M788.33,-204.59C770.9,-222.62 741.09,-250.53 710,-266.46 701.75,-270.69 692.5,-274.02 683.39,-276.62"/>
<polygon fill="midnightblue" stroke="midnightblue" points="791.1,-206.76 795.42,-197.09 786.01,-201.95 791.1,-206.76"/>
</g>
<!-- Node14 -->
<g id="node14" class="node">
<title>Node14</title>
<g id="a_node14"><a xlink:href="class_render_manager.html#a54014aa87ae2e8154d89cb55d01a6e42" target="_top" xlink:title=" ">
<polygon fill="none" stroke="black" points="562.5,-237.96 562.5,-256.96 705.5,-256.96 705.5,-237.96 562.5,-237.96"/>
<text text-anchor="middle" x="634" y="-244.96" font-family="Helvetica,sans-Serif" font-size="10.00">RenderManager::drawFrame_</text>
</a>
</g>
</g>
<!-- Node1&#45;&gt;Node14 -->
<g id="edge14" class="edge">
<title>Node1&#45;&gt;Node14</title>
<path fill="none" stroke="midnightblue" d="M770.75,-200.72C752.84,-207.72 730.31,-216.33 710,-223.46 695.68,-228.49 679.68,-233.67 666.15,-237.92"/>
<polygon fill="midnightblue" stroke="midnightblue" points="772.16,-203.92 780.18,-197.01 769.6,-197.41 772.16,-203.92"/>
</g>
<!-- Node16 -->
<g id="node16" class="node">
<title>Node16</title>
<g id="a_node16"><a xlink:href="class_image.html#aa679d14f43f9fadf43acc9682684a008" target="_top" xlink:title=" ">
<polygon fill="none" stroke="black" points="379,-136.96 379,-155.96 504,-155.96 504,-136.96 379,-136.96"/>
<text text-anchor="middle" x="441.5" y="-143.96" font-family="Helvetica,sans-Serif" font-size="10.00">Image::generateMipmaps</text>
</a>
</g>
</g>
<!-- Node1&#45;&gt;Node16 -->
<g id="edge16" class="edge">
<title>Node1&#45;&gt;Node16</title>
<path fill="none" stroke="midnightblue" d="M735.81,-195.31C686.1,-199.34 617.34,-201.38 558,-190.46 522.34,-183.9 483.42,-166.83 461.09,-155.98"/>
<polygon fill="midnightblue" stroke="midnightblue" points="736.14,-198.79 745.81,-194.45 735.54,-191.82 736.14,-198.79"/>
</g>
<!-- Node17 -->
<g id="node17" class="node">
<title>Node17</title>
<g id="a_node17"><a xlink:href="class_dynamic_buffer.html#ad12ff4367acfe377f988606a1588f363" target="_top" xlink:title=" ">
<polygon fill="none" stroke="black" points="572.5,-150.46 572.5,-180.46 695.5,-180.46 695.5,-150.46 572.5,-150.46"/>
<text text-anchor="start" x="580.5" y="-168.46" font-family="Helvetica,sans-Serif" font-size="10.00">DynamicBuffer::getBuffer</text>
<text text-anchor="middle" x="634" y="-157.46" font-family="Helvetica,sans-Serif" font-size="10.00">PreserveContents</text>
</a>
</g>
</g>
<!-- Node1&#45;&gt;Node17 -->
<g id="edge17" class="edge">
<title>Node1&#45;&gt;Node17</title>
<path fill="none" stroke="midnightblue" d="M735.79,-178.58C722.48,-176.85 708.61,-175.04 695.57,-173.35"/>
<polygon fill="midnightblue" stroke="midnightblue" points="735.47,-182.07 745.84,-179.89 736.38,-175.13 735.47,-182.07"/>
</g>
<!-- Node18 -->
<g id="node18" class="node">
<title>Node18</title>
<g id="a_node18"><a xlink:href="vulkan__voxel__rasterizer_8cpp.html#ae66f6b31b5ad750f1fe042a706a4e3d4" target="_top" xlink:title=" ">
<polygon fill="none" stroke="black" points="615,-111.96 615,-130.96 653,-130.96 653,-111.96 615,-111.96"/>
<text text-anchor="middle" x="634" y="-118.96" font-family="Helvetica,sans-Serif" font-size="10.00">main</text>
</a>
</g>
</g>
<!-- Node1&#45;&gt;Node18 -->
<g id="edge18" class="edge">
<title>Node1&#45;&gt;Node18</title>
<path fill="none" stroke="midnightblue" d="M778.13,-173.1C759.58,-163.23 733.77,-150.35 710,-141.46 691.07,-134.38 668.57,-128.73 653.19,-125.27"/>
<polygon fill="midnightblue" stroke="midnightblue" points="776.66,-176.28 787.12,-177.95 779.98,-170.12 776.66,-176.28"/>
</g>
<!-- Node19 -->
<g id="node19" class="node">
<title>Node19</title>
<g id="a_node19"><a xlink:href="class_buffer.html#a76a99d870d0eda4e49303fa62b240442" target="_top" xlink:title=" ">
<polygon fill="none" stroke="black" points="568.5,-73.96 568.5,-92.96 699.5,-92.96 699.5,-73.96 568.5,-73.96"/>
<text text-anchor="middle" x="634" y="-80.96" font-family="Helvetica,sans-Serif" font-size="10.00">Buffer::transferDataStaged</text>
</a>
</g>
</g>
<!-- Node1&#45;&gt;Node19 -->
<g id="edge19" class="edge">
<title>Node1&#45;&gt;Node19</title>
<path fill="none" stroke="midnightblue" d="M789.64,-170.16C772.61,-150.79 742.44,-119.83 710,-102.46 702.78,-98.59 694.74,-95.49 686.68,-93.01"/>
<polygon fill="midnightblue" stroke="midnightblue" points="787.13,-172.61 796.3,-177.92 792.44,-168.05 787.13,-172.61"/>
</g>
<!-- Node20 -->
<g id="node20" class="node">
<title>Node20</title>
<g id="a_node20"><a xlink:href="class_image.html#ac367d6ea10ca4996f3bda1338488396d" target="_top" xlink:title=" ">
<polygon fill="none" stroke="black" points="375.5,-16.96 375.5,-35.96 507.5,-35.96 507.5,-16.96 375.5,-16.96"/>
<text text-anchor="middle" x="441.5" y="-23.96" font-family="Helvetica,sans-Serif" font-size="10.00">Image::transferDataStaged</text>
</a>
</g>
</g>
<!-- Node1&#45;&gt;Node20 -->
<g id="edge20" class="edge">
<title>Node1&#45;&gt;Node20</title>
<path fill="none" stroke="midnightblue" d="M799.31,-167.71C789.63,-131.95 763.7,-57.29 710,-26.46 634.89,16.66 527.24,-3.05 474.33,-16.93"/>
<polygon fill="midnightblue" stroke="midnightblue" points="796.04,-169.03 801.9,-177.86 802.82,-167.3 796.04,-169.03"/>
</g>
<!-- Node21 -->
<g id="node21" class="node">
<title>Node21</title>
<g id="a_node21"><a xlink:href="class_image.html#a3badd6d3802afabfcec0b13d1a9c8984" target="_top" xlink:title=" ">
<polygon fill="none" stroke="black" points="562,-35.96 562,-54.96 706,-54.96 706,-35.96 562,-35.96"/>
<text text-anchor="middle" x="634" y="-42.96" font-family="Helvetica,sans-Serif" font-size="10.00">Image::transitionImageLayout</text>
</a>
</g>
</g>
<!-- Node1&#45;&gt;Node21 -->
<g id="edge21" class="edge">
<title>Node1&#45;&gt;Node21</title>
<path fill="none" stroke="midnightblue" d="M794.74,-168.42C780.45,-141.09 750.38,-91.1 710,-64.46 704.17,-60.62 697.61,-57.55 690.87,-55.1"/>
<polygon fill="midnightblue" stroke="midnightblue" points="791.8,-170.35 799.44,-177.69 798.04,-167.19 791.8,-170.35"/>
</g>
<!-- Node3 -->
<g id="node3" class="node">
<title>Node3</title>
<g id="a_node3"><a xlink:href="class_mandelbrot_app.html#a82a763408b810cdfa31c88080d97f8a1" target="_top" xlink:title=" ">
<polygon fill="none" stroke="black" points="379.5,-401.96 379.5,-420.96 503.5,-420.96 503.5,-401.96 379.5,-401.96"/>
<text text-anchor="middle" x="441.5" y="-408.96" font-family="Helvetica,sans-Serif" font-size="10.00">MandelbrotApp::createUI</text>
</a>
</g>
</g>
<!-- Node2&#45;&gt;Node3 -->
<g id="edge2" class="edge">
<title>Node2&#45;&gt;Node3</title>
<path fill="none" stroke="midnightblue" d="M574.81,-411.46C552.25,-411.46 526.39,-411.46 503.56,-411.46"/>
<polygon fill="midnightblue" stroke="midnightblue" points="574.93,-414.96 584.93,-411.46 574.93,-407.96 574.93,-414.96"/>
</g>
<!-- Node5 -->
<g id="node5" class="node">
<title>Node5</title>
<g id="a_node5"><a xlink:href="class_render_manager.html#ad684dc770c22b8ee45875407c8591a00" target="_top" xlink:title=" ">
<polygon fill="none" stroke="black" points="361,-439.96 361,-458.96 522,-458.96 522,-439.96 361,-439.96"/>
<text text-anchor="middle" x="441.5" y="-446.96" font-family="Helvetica,sans-Serif" font-size="10.00">RenderManager::createUIObjects</text>
</a>
</g>
</g>
<!-- Node2&#45;&gt;Node5 -->
<g id="edge4" class="edge">
<title>Node2&#45;&gt;Node5</title>
<path fill="none" stroke="midnightblue" d="M574.8,-423.07C547.71,-428.48 515.87,-434.83 490.23,-439.94"/>
<polygon fill="midnightblue" stroke="midnightblue" points="575.81,-426.44 584.93,-421.05 574.44,-419.57 575.81,-426.44"/>
</g>
<!-- Node4 -->
<g id="node4" class="node">
<title>Node4</title>
<g id="a_node4"><a xlink:href="class_mandelbrot_app.html#ad5c4a7e7fd79bc75fea87df0165005b6" target="_top" xlink:title=" ">
<polygon fill="none" stroke="black" points="186,-329.96 186,-348.96 315,-348.96 315,-329.96 186,-329.96"/>
<text text-anchor="middle" x="250.5" y="-336.96" font-family="Helvetica,sans-Serif" font-size="10.00">MandelbrotApp::initVulkan</text>
</a>
</g>
</g>
<!-- Node3&#45;&gt;Node4 -->
<g id="edge3" class="edge">
<title>Node3&#45;&gt;Node4</title>
<path fill="none" stroke="midnightblue" d="M383.11,-399.32C375.6,-397.27 368.06,-394.98 361,-392.46 326.98,-380.33 289.55,-360.76 268.45,-349.1"/>
<polygon fill="midnightblue" stroke="midnightblue" points="382.37,-402.74 392.93,-401.87 384.13,-395.97 382.37,-402.74"/>
</g>
<!-- Node6 -->
<g id="node6" class="node">
<title>Node6</title>
<g id="a_node6"><a xlink:href="class_render_manager.html#a2f5991e4b82925a2571e6fabf1e8b7b9" target="_top" xlink:title=" ">
<polygon fill="none" stroke="black" points="177,-458.46 177,-488.46 324,-488.46 324,-458.46 177,-458.46"/>
<text text-anchor="start" x="185" y="-476.46" font-family="Helvetica,sans-Serif" font-size="10.00">RenderManager::createRender</text>
<text text-anchor="middle" x="250.5" y="-465.46" font-family="Helvetica,sans-Serif" font-size="10.00">Objects</text>
</a>
</g>
</g>
<!-- Node5&#45;&gt;Node6 -->
<g id="edge5" class="edge">
<title>Node5&#45;&gt;Node6</title>
<path fill="none" stroke="midnightblue" d="M355.56,-460.25C345.1,-461.58 334.48,-462.92 324.22,-464.23"/>
<polygon fill="midnightblue" stroke="midnightblue" points="356.05,-463.71 365.53,-458.98 355.17,-456.77 356.05,-463.71"/>
</g>
<!-- Node7 -->
<g id="node7" class="node">
<title>Node7</title>
<g id="a_node7"><a xlink:href="class_render_manager.html#a3e54c122912e1b713b2f6357cdc370fb" target="_top" xlink:title=" ">
<polygon fill="none" stroke="black" points="176,-409.46 176,-439.46 325,-439.46 325,-409.46 176,-409.46"/>
<text text-anchor="start" x="184" y="-427.46" font-family="Helvetica,sans-Serif" font-size="10.00">RenderManager::recreateSwap</text>
<text text-anchor="middle" x="250.5" y="-416.46" font-family="Helvetica,sans-Serif" font-size="10.00">Chain</text>
</a>
</g>
</g>
<!-- Node5&#45;&gt;Node7 -->
<g id="edge6" class="edge">
<title>Node5&#45;&gt;Node7</title>
<path fill="none" stroke="midnightblue" d="M358.43,-438.61C347.37,-437.14 336.08,-435.65 325.17,-434.21"/>
<polygon fill="midnightblue" stroke="midnightblue" points="358.14,-442.1 368.51,-439.94 359.05,-435.16 358.14,-442.1"/>
</g>
<!-- Node8 -->
<g id="node8" class="node">
<title>Node8</title>
<g id="a_node8"><a xlink:href="class_render_manager.html#ab087dc4ee1c6e377ca52ee44d1591c29" target="_top" xlink:title=" ">
<polygon fill="none" stroke="black" points="0,-409.46 0,-439.46 140,-439.46 140,-409.46 0,-409.46"/>
<text text-anchor="start" x="8" y="-427.46" font-family="Helvetica,sans-Serif" font-size="10.00">RenderManager::resizeSwap</text>
<text text-anchor="middle" x="70" y="-416.46" font-family="Helvetica,sans-Serif" font-size="10.00">Chain</text>
</a>
</g>
</g>
<!-- Node7&#45;&gt;Node8 -->
<g id="edge7" class="edge">
<title>Node7&#45;&gt;Node8</title>
<path fill="none" stroke="midnightblue" d="M165.83,-424.46C157.24,-424.46 148.57,-424.46 140.16,-424.46"/>
<polygon fill="midnightblue" stroke="midnightblue" points="165.87,-427.96 175.87,-424.46 165.87,-420.96 165.87,-427.96"/>
</g>
<!-- Node9&#45;&gt;Node4 -->
<g id="edge9" class="edge">
<title>Node9&#45;&gt;Node4</title>
<path fill="none" stroke="midnightblue" d="M547.44,-331.7C476.97,-333.55 378.64,-336.13 315.01,-337.8"/>
<polygon fill="midnightblue" stroke="midnightblue" points="547.72,-335.2 557.63,-331.44 547.54,-328.2 547.72,-335.2"/>
</g>
<!-- Node10 -->
<g id="node10" class="node">
<title>Node10</title>
<g id="a_node10"><a xlink:href="class_mandelbrot_app.html#a733620a6533fb25a6ffa309886b74904" target="_top" xlink:title=" ">
<polygon fill="none" stroke="black" points="368.5,-352.46 368.5,-382.46 514.5,-382.46 514.5,-352.46 368.5,-352.46"/>
<text text-anchor="start" x="376.5" y="-370.46" font-family="Helvetica,sans-Serif" font-size="10.00">MandelbrotApp::recreateSwap</text>
<text text-anchor="middle" x="441.5" y="-359.46" font-family="Helvetica,sans-Serif" font-size="10.00">Chain</text>
</a>
</g>
</g>
<!-- Node9&#45;&gt;Node10 -->
<g id="edge10" class="edge">
<title>Node9&#45;&gt;Node10</title>
<path fill="none" stroke="midnightblue" d="M547.87,-346.44C536.77,-348.66 525.5,-350.91 514.65,-353.07"/>
<polygon fill="midnightblue" stroke="midnightblue" points="548.86,-349.81 557.98,-344.43 547.49,-342.95 548.86,-349.81"/>
</g>
<!-- Node12 -->
<g id="node12" class="node">
<title>Node12</title>
<g id="a_node12"><a xlink:href="class_scene.html#ae74c7fe2b71459224585f31c5f61ffb2" target="_top" xlink:title=" ">
<polygon fill="none" stroke="black" points="375,-275.96 375,-294.96 508,-294.96 508,-275.96 375,-275.96"/>
<text text-anchor="middle" x="441.5" y="-282.96" font-family="Helvetica,sans-Serif" font-size="10.00">Scene::transferRenderData</text>
</a>
</g>
</g>
<!-- Node11&#45;&gt;Node12 -->
<g id="edge12" class="edge">
<title>Node11&#45;&gt;Node12</title>
<path fill="none" stroke="midnightblue" d="M574.84,-285.46C553.78,-285.46 529.85,-285.46 508.18,-285.46"/>
<polygon fill="midnightblue" stroke="midnightblue" points="574.93,-288.96 584.93,-285.46 574.93,-281.96 574.93,-288.96"/>
</g>
<!-- Node13 -->
<g id="node13" class="node">
<title>Node13</title>
<g id="a_node13"><a xlink:href="class_scene.html#a18d9b02ed3e1d23471ddfb3c62b759b2" target="_top" xlink:title=" ">
<polygon fill="none" stroke="black" points="183.5,-275.96 183.5,-294.96 317.5,-294.96 317.5,-275.96 183.5,-275.96"/>
<text text-anchor="middle" x="250.5" y="-282.96" font-family="Helvetica,sans-Serif" font-size="10.00">Scene::bakeGraphicsBuffer</text>
</a>
</g>
</g>
<!-- Node12&#45;&gt;Node13 -->
<g id="edge13" class="edge">
<title>Node12&#45;&gt;Node13</title>
<path fill="none" stroke="midnightblue" d="M364.79,-285.46C349.17,-285.46 332.84,-285.46 317.6,-285.46"/>
<polygon fill="midnightblue" stroke="midnightblue" points="364.93,-288.96 374.93,-285.46 364.93,-281.96 364.93,-288.96"/>
</g>
<!-- Node15 -->
<g id="node15" class="node">
<title>Node15</title>
<g id="a_node15"><a xlink:href="class_render_manager.html#a3c50623b736ac72b1d019df1267c08c4" target="_top" xlink:title="Draw the frame.">
<polygon fill="none" stroke="black" points="372.5,-237.96 372.5,-256.96 510.5,-256.96 510.5,-237.96 372.5,-237.96"/>
<text text-anchor="middle" x="441.5" y="-244.96" font-family="Helvetica,sans-Serif" font-size="10.00">RenderManager::drawFrame</text>
</a>
</g>
</g>
<!-- Node14&#45;&gt;Node15 -->
<g id="edge15" class="edge">
<title>Node14&#45;&gt;Node15</title>
<path fill="none" stroke="midnightblue" d="M552.3,-247.46C538.39,-247.46 524.05,-247.46 510.52,-247.46"/>
<polygon fill="midnightblue" stroke="midnightblue" points="552.34,-250.96 562.34,-247.46 552.34,-243.96 552.34,-250.96"/>
</g>
<!-- Node21&#45;&gt;Node16 -->
<g id="edge22" class="edge">
<title>Node21&#45;&gt;Node16</title>
<path fill="none" stroke="midnightblue" d="M574.5,-58.01C568.82,-59.9 563.23,-62.04 558,-64.46 515.58,-84.06 472.51,-119.73 453.11,-136.83"/>
<polygon fill="midnightblue" stroke="midnightblue" points="575.55,-61.35 584.08,-55.07 573.5,-54.66 575.55,-61.35"/>
</g>
<!-- Node21&#45;&gt;Node20 -->
<g id="edge23" class="edge">
<title>Node21&#45;&gt;Node20</title>
<path fill="none" stroke="midnightblue" d="M551.7,-37.35C536.99,-35.89 521.82,-34.37 507.65,-32.96"/>
<polygon fill="midnightblue" stroke="midnightblue" points="551.5,-40.85 561.79,-38.36 552.19,-33.88 551.5,-40.85"/>
</g>
</g>
</svg>
        <g id="navigator" transform="translate(0 0)" fill="#404254">
                <rect fill="#f2f5e9" fill-opacity="0.5" stroke="#606060" stroke-width=".5" x="0" y="0" width="60" height="60"/>
                <use id="zoomplus" xlink:href="#zoomPlus" x="17" y="9" onmousedown="handleZoom(evt,'in')"/>
                <use id="zoomminus" xlink:href="#zoomMin" x="42" y="9" onmousedown="handleZoom(evt,'out')"/>
                <use id="reset" xlink:href="#resetDef" x="30" y="36" onmousedown="handleReset()"/>
                <g id="arrowUp" xlink:href="#dirArrow" transform="translate(30 24)" onmousedown="handlePan(0,-1)">
                  <use xlink:href="#rim" fill="#404040">
                        <set attributeName="fill" to="#808080" begin="arrowUp.mouseover" end="arrowUp.mouseout"/>
                  </use>
                  <path fill="none" stroke="white" stroke-width="1.5" d="M0,-3.0v7 M-2.5,-0.5L0,-3.0L2.5,-0.5"/>
                </g>
                <g id="arrowRight" xlink:href="#dirArrow" transform="rotate(90) translate(36 -43)" onmousedown="handlePan(1,0)">
                  <use xlink:href="#rim" fill="#404040">
                        <set attributeName="fill" to="#808080" begin="arrowRight.mouseover" end="arrowRight.mouseout"/>
                  </use>
                  <path fill="none" stroke="white" stroke-width="1.5" d="M0,-3.0v7 M-2.5,-0.5L0,-3.0L2.5,-0.5"/>
                </g>
                <g id="arrowDown" xlink:href="#dirArrow" transform="rotate(180) translate(-30 -48)" onmousedown="handlePan(0,1)">
                  <use xlink:href="#rim" fill="#404040">
                        <set attributeName="fill" to="#808080" begin="arrowDown.mouseover" end="arrowDown.mouseout"/>
                  </use>
                  <path fill="none" stroke="white" stroke-width="1.5" d="M0,-3.0v7 M-2.5,-0.5L0,-3.0L2.5,-0.5"/>
                </g>
                <g id="arrowLeft" xlink:href="#dirArrow" transform="rotate(270) translate(-36 17)" onmousedown="handlePan(-1,0)">
                  <use xlink:href="#rim" fill="#404040">
                        <set attributeName="fill" to="#808080" begin="arrowLeft.mouseover" end="arrowLeft.mouseout"/>
                  </use>
                  <path fill="none" stroke="white" stroke-width="1.5" d="M0,-3.0v7 M-2.5,-0.5L0,-3.0L2.5,-0.5"/>
                </g>
        </g>
        <svg viewBox="0 0 15 15" width="100%" height="30px" preserveAspectRatio="xMaxYMin meet">
         <g id="arrow_out" transform="scale(0.3 0.3)">
          <a xlink:href="class_command_buffer_aa00b25bc626efb68b5dc810ea91cf41b_icgraph_org.svg" target="_base">
           <rect id="button" ry="5" rx="5" y="6" x="6" height="38" width="38"
                fill="#f2f5e9" fill-opacity="0.5" stroke="#606060" stroke-width="1.0"/>
           <path id="arrow"
             d="M 11.500037,31.436501 C 11.940474,20.09759 22.043105,11.32322 32.158766,21.979434 L 37.068811,17.246167 C 37.068811,17.246167 37.088388,32 37.088388,32 L 22.160133,31.978069 C 22.160133,31.978069 26.997745,27.140456 26.997745,27.140456 C 18.528582,18.264221 13.291696,25.230495 11.500037,31.436501 z"
             style="fill:#404040;"/>
          </a>
         </g>
        </svg>
</svg>
