<?xml version="1.0" encoding="UTF-8" standalone="no"?>
<!DOCTYPE svg PUBLIC "-//W3C//DTD SVG 1.1//EN"
 "http://www.w3.org/Graphics/SVG/1.1/DTD/svg11.dtd">
<!-- Generated by graphviz version 3.0.0 (20220413.0106)
 -->
<!-- Title: Sampler::create Pages: 1 -->
<svg width="817pt" height="127pt"
 viewBox="0.00 0.00 817.00 126.50" xmlns="http://www.w3.org/2000/svg" xmlns:xlink="http://www.w3.org/1999/xlink">
<g id="graph0" class="graph" transform="scale(1 1) rotate(0) translate(4 122.5)">
<title>Sampler::create</title>
<!-- Node1 -->
<g id="node1" class="node">
<title>Node1</title>
<g id="a_node1"><a xlink:title=" ">
<polygon fill="#bfbfbf" stroke="black" points="725,-44.5 725,-63.5 809,-63.5 809,-44.5 725,-44.5"/>
<text text-anchor="middle" x="767" y="-51.5" font-family="Helvetica,sans-Serif" font-size="10.00">Sampler::create</text>
</a>
</g>
</g>
<!-- Node2 -->
<g id="node2" class="node">
<title>Node2</title>
<g id="a_node2"><a xlink:href="class_s_s_a_o_pipeline.html#a472f8897be629d354a9382a3eecd2038" target="_top" xlink:title=" ">
<polygon fill="none" stroke="black" points="560,-87.5 560,-106.5 670,-106.5 670,-87.5 560,-87.5"/>
<text text-anchor="middle" x="615" y="-94.5" font-family="Helvetica,sans-Serif" font-size="10.00">SSAOPipeline::create</text>
</a>
</g>
</g>
<!-- Node1&#45;&gt;Node2 -->
<g id="edge1" class="edge">
<title>Node1&#45;&gt;Node2</title>
<path fill="none" stroke="midnightblue" d="M723,-66.33C699.54,-73.05 670.93,-81.25 649.2,-87.48"/>
<polygon fill="midnightblue" stroke="midnightblue" points="724.06,-69.66 732.71,-63.54 722.13,-62.93 724.06,-69.66"/>
</g>
<!-- Node7 -->
<g id="node7" class="node">
<title>Node7</title>
<g id="a_node7"><a xlink:href="class_texture_library.html#aa8905251fa5e575eff741fa978eae401" target="_top" xlink:title=" ">
<polygon fill="none" stroke="black" points="560,-44.5 560,-63.5 670,-63.5 670,-44.5 560,-44.5"/>
<text text-anchor="middle" x="615" y="-51.5" font-family="Helvetica,sans-Serif" font-size="10.00">TextureLibrary::create</text>
</a>
</g>
</g>
<!-- Node1&#45;&gt;Node7 -->
<g id="edge6" class="edge">
<title>Node1&#45;&gt;Node7</title>
<path fill="none" stroke="midnightblue" d="M714.47,-54C700.17,-54 684.62,-54 670.18,-54"/>
<polygon fill="midnightblue" stroke="midnightblue" points="714.61,-57.5 724.61,-54 714.61,-50.5 714.61,-57.5"/>
</g>
<!-- Node11 -->
<g id="node11" class="node">
<title>Node11</title>
<g id="a_node11"><a xlink:href="class_texture_library.html#aaa53f50e5ec8237597ad544b58133957" target="_top" xlink:title=" ">
<polygon fill="none" stroke="black" points="541,-6.5 541,-25.5 689,-25.5 689,-6.5 541,-6.5"/>
<text text-anchor="middle" x="615" y="-13.5" font-family="Helvetica,sans-Serif" font-size="10.00">TextureLibrary::updateSettings</text>
</a>
</g>
</g>
<!-- Node1&#45;&gt;Node11 -->
<g id="edge11" class="edge">
<title>Node1&#45;&gt;Node11</title>
<path fill="none" stroke="midnightblue" d="M718.19,-41.89C697.3,-36.6 673.15,-30.48 653.58,-25.52"/>
<polygon fill="midnightblue" stroke="midnightblue" points="717.6,-45.35 728.15,-44.41 719.31,-38.56 717.6,-45.35"/>
</g>
<!-- Node3 -->
<g id="node3" class="node">
<title>Node3</title>
<g id="a_node3"><a xlink:href="class_render_manager.html#a45a6fffe5f74da37695476732b53d33b" target="_top" xlink:title=" ">
<polygon fill="none" stroke="black" points="364.5,-88 364.5,-118 501.5,-118 501.5,-88 364.5,-88"/>
<text text-anchor="start" x="372.5" y="-106" font-family="Helvetica,sans-Serif" font-size="10.00">RenderManager::createPost</text>
<text text-anchor="middle" x="433" y="-95" font-family="Helvetica,sans-Serif" font-size="10.00">ProcessingPipelines</text>
</a>
</g>
</g>
<!-- Node2&#45;&gt;Node3 -->
<g id="edge2" class="edge">
<title>Node2&#45;&gt;Node3</title>
<path fill="none" stroke="midnightblue" d="M549.9,-99.14C534.27,-99.66 517.49,-100.22 501.69,-100.74"/>
<polygon fill="midnightblue" stroke="midnightblue" points="550.12,-102.63 559.99,-98.8 549.88,-95.64 550.12,-102.63"/>
</g>
<!-- Node4 -->
<g id="node4" class="node">
<title>Node4</title>
<g id="a_node4"><a xlink:href="class_render_manager.html#a2f5991e4b82925a2571e6fabf1e8b7b9" target="_top" xlink:title=" ">
<polygon fill="none" stroke="black" points="177,-39 177,-69 324,-69 324,-39 177,-39"/>
<text text-anchor="start" x="185" y="-57" font-family="Helvetica,sans-Serif" font-size="10.00">RenderManager::createRender</text>
<text text-anchor="middle" x="250.5" y="-46" font-family="Helvetica,sans-Serif" font-size="10.00">Objects</text>
</a>
</g>
</g>
<!-- Node3&#45;&gt;Node4 -->
<g id="edge3" class="edge">
<title>Node3&#45;&gt;Node4</title>
<path fill="none" stroke="midnightblue" d="M366.62,-85.25C347.06,-79.94 325.8,-74.17 306.95,-69.05"/>
<polygon fill="midnightblue" stroke="midnightblue" points="365.8,-88.66 376.37,-87.9 367.64,-81.9 365.8,-88.66"/>
</g>
<!-- Node5 -->
<g id="node5" class="node">
<title>Node5</title>
<g id="a_node5"><a xlink:href="class_render_manager.html#a3e54c122912e1b713b2f6357cdc370fb" target="_top" xlink:title=" ">
<polygon fill="none" stroke="black" points="176,-88 176,-118 325,-118 325,-88 176,-88"/>
<text text-anchor="start" x="184" y="-106" font-family="Helvetica,sans-Serif" font-size="10.00">RenderManager::recreateSwap</text>
<text text-anchor="middle" x="250.5" y="-95" font-family="Helvetica,sans-Serif" font-size="10.00">Chain</text>
</a>
</g>
</g>
<!-- Node3&#45;&gt;Node5 -->
<g id="edge4" class="edge">
<title>Node3&#45;&gt;Node5</title>
<path fill="none" stroke="midnightblue" d="M354.26,-103C344.57,-103 334.68,-103 325.05,-103"/>
<polygon fill="midnightblue" stroke="midnightblue" points="354.27,-106.5 364.27,-103 354.27,-99.5 354.27,-106.5"/>
</g>
<!-- Node6 -->
<g id="node6" class="node">
<title>Node6</title>
<g id="a_node6"><a xlink:href="class_render_manager.html#ab087dc4ee1c6e377ca52ee44d1591c29" target="_top" xlink:title=" ">
<polygon fill="none" stroke="black" points="0,-88 0,-118 140,-118 140,-88 0,-88"/>
<text text-anchor="start" x="8" y="-106" font-family="Helvetica,sans-Serif" font-size="10.00">RenderManager::resizeSwap</text>
<text text-anchor="middle" x="70" y="-95" font-family="Helvetica,sans-Serif" font-size="10.00">Chain</text>
</a>
</g>
</g>
<!-- Node5&#45;&gt;Node6 -->
<g id="edge5" class="edge">
<title>Node5&#45;&gt;Node6</title>
<path fill="none" stroke="midnightblue" d="M165.83,-103C157.24,-103 148.57,-103 140.16,-103"/>
<polygon fill="midnightblue" stroke="midnightblue" points="165.87,-106.5 175.87,-103 165.87,-99.5 165.87,-106.5"/>
</g>
<!-- Node8 -->
<g id="node8" class="node">
<title>Node8</title>
<g id="a_node8"><a xlink:href="class_render_manager.html#a34e5f071f12097fbc5e950651dcce086" target="_top" xlink:title=" ">
<polygon fill="none" stroke="black" points="361,-39 361,-69 505,-69 505,-39 361,-39"/>
<text text-anchor="start" x="369" y="-57" font-family="Helvetica,sans-Serif" font-size="10.00">RenderManager::createScene</text>
<text text-anchor="middle" x="433" y="-46" font-family="Helvetica,sans-Serif" font-size="10.00">Objects</text>
</a>
</g>
</g>
<!-- Node7&#45;&gt;Node8 -->
<g id="edge7" class="edge">
<title>Node7&#45;&gt;Node8</title>
<path fill="none" stroke="midnightblue" d="M549.71,-54C535.31,-54 519.96,-54 505.3,-54"/>
<polygon fill="midnightblue" stroke="midnightblue" points="549.99,-57.5 559.99,-54 549.99,-50.5 549.99,-57.5"/>
</g>
<!-- Node9 -->
<g id="node9" class="node">
<title>Node9</title>
<g id="a_node9"><a xlink:href="class_mandelbrot_app.html#a82a763408b810cdfa31c88080d97f8a1" target="_top" xlink:title=" ">
<polygon fill="none" stroke="black" points="371,-0.5 371,-19.5 495,-19.5 495,-0.5 371,-0.5"/>
<text text-anchor="middle" x="433" y="-7.5" font-family="Helvetica,sans-Serif" font-size="10.00">MandelbrotApp::createUI</text>
</a>
</g>
</g>
<!-- Node7&#45;&gt;Node9 -->
<g id="edge9" class="edge">
<title>Node7&#45;&gt;Node9</title>
<path fill="none" stroke="midnightblue" d="M565.04,-42.03C536.1,-34.96 499.97,-26.13 472.98,-19.53"/>
<polygon fill="midnightblue" stroke="midnightblue" points="564.4,-45.48 574.94,-44.45 566.06,-38.68 564.4,-45.48"/>
</g>
<!-- Node8&#45;&gt;Node4 -->
<g id="edge8" class="edge">
<title>Node8&#45;&gt;Node4</title>
<path fill="none" stroke="midnightblue" d="M350.67,-54C341.88,-54 332.98,-54 324.29,-54"/>
<polygon fill="midnightblue" stroke="midnightblue" points="350.92,-57.5 360.92,-54 350.92,-50.5 350.92,-57.5"/>
</g>
<!-- Node10 -->
<g id="node10" class="node">
<title>Node10</title>
<g id="a_node10"><a xlink:href="class_mandelbrot_app.html#ad5c4a7e7fd79bc75fea87df0165005b6" target="_top" xlink:title=" ">
<polygon fill="none" stroke="black" points="186,-0.5 186,-19.5 315,-19.5 315,-0.5 186,-0.5"/>
<text text-anchor="middle" x="250.5" y="-7.5" font-family="Helvetica,sans-Serif" font-size="10.00">MandelbrotApp::initVulkan</text>
</a>
</g>
</g>
<!-- Node9&#45;&gt;Node10 -->
<g id="edge10" class="edge">
<title>Node9&#45;&gt;Node10</title>
<path fill="none" stroke="midnightblue" d="M360.6,-10C345.55,-10 329.76,-10 315.01,-10"/>
<polygon fill="midnightblue" stroke="midnightblue" points="360.89,-13.5 370.89,-10 360.89,-6.5 360.89,-13.5"/>
</g>
</g>
</svg>
