<?xml version="1.0" encoding="UTF-8" standalone="no"?>
<!DOCTYPE svg PUBLIC "-//W3C//DTD SVG 1.1//EN"
 "http://www.w3.org/Graphics/SVG/1.1/DTD/svg11.dtd">
<!-- Generated by graphviz version 2.49.3 (20211215.1918)
 -->
<!-- Title: Instance::checkExtensionSupport Pages: 1 -->
<svg width="819pt" height="66pt"
 viewBox="0.00 0.00 819.00 66.00" xmlns="http://www.w3.org/2000/svg" xmlns:xlink="http://www.w3.org/1999/xlink">
<g id="graph0" class="graph" transform="scale(1 1) rotate(0) translate(4 62)">
<title>Instance::checkExtensionSupport</title>
<!-- Node1 -->
<g id="node1" class="node">
<title>Node1</title>
<g id="a_node1"><a xlink:title=" ">
<polygon fill="#bfbfbf" stroke="black" points="684,-14 684,-44 811,-44 811,-14 684,-14"/>
<text text-anchor="start" x="692" y="-32" font-family="Helvetica,sans-Serif" font-size="10.00">Instance::checkExtension</text>
<text text-anchor="middle" x="747.5" y="-21" font-family="Helvetica,sans-Serif" font-size="10.00">Support</text>
</a>
</g>
</g>
<!-- Node2 -->
<g id="node2" class="node">
<title>Node2</title>
<g id="a_node2"><a xlink:href="class_instance.html#a5157cfdc2e0f384b6fc4d2f901f50e51" target="_top" xlink:title=" ">
<polygon fill="none" stroke="black" points="562,-19.5 562,-38.5 648,-38.5 648,-19.5 562,-19.5"/>
<text text-anchor="middle" x="605" y="-26.5" font-family="Helvetica,sans-Serif" font-size="10.00">Instance::create</text>
</a>
</g>
</g>
<!-- Node1&#45;&gt;Node2 -->
<g id="edge1" class="edge">
<title>Node1&#45;&gt;Node2</title>
<path fill="none" stroke="midnightblue" d="M673.5,-29C664.85,-29 656.26,-29 648.24,-29"/>
<polygon fill="midnightblue" stroke="midnightblue" points="673.65,-32.5 683.65,-29 673.65,-25.5 673.65,-32.5"/>
</g>
<!-- Node3 -->
<g id="node3" class="node">
<title>Node3</title>
<g id="a_node3"><a xlink:href="class_mandelbrot_app.html#a7c4bdbc240a35e9cfcc4d7c6d3f15982" target="_top" xlink:title=" ">
<polygon fill="none" stroke="black" points="375,-38.5 375,-57.5 526,-57.5 526,-38.5 375,-38.5"/>
<text text-anchor="middle" x="450.5" y="-45.5" font-family="Helvetica,sans-Serif" font-size="10.00">MandelbrotApp::createInstance</text>
</a>
</g>
</g>
<!-- Node2&#45;&gt;Node3 -->
<g id="edge2" class="edge">
<title>Node2&#45;&gt;Node3</title>
<path fill="none" stroke="midnightblue" d="M551.74,-35.51C543.5,-36.54 534.84,-37.62 526.21,-38.69"/>
<polygon fill="midnightblue" stroke="midnightblue" points="552.43,-38.95 561.93,-34.24 551.57,-32.01 552.43,-38.95"/>
</g>
<!-- Node7 -->
<g id="node7" class="node">
<title>Node7</title>
<g id="a_node7"><a xlink:href="vulkan__voxel__rasterizer_8cpp.html#ae66f6b31b5ad750f1fe042a706a4e3d4" target="_top" xlink:title=" ">
<polygon fill="none" stroke="black" points="431.5,-0.5 431.5,-19.5 469.5,-19.5 469.5,-0.5 431.5,-0.5"/>
<text text-anchor="middle" x="450.5" y="-7.5" font-family="Helvetica,sans-Serif" font-size="10.00">main</text>
</a>
</g>
</g>
<!-- Node2&#45;&gt;Node7 -->
<g id="edge6" class="edge">
<title>Node2&#45;&gt;Node7</title>
<path fill="none" stroke="midnightblue" d="M551.68,-22.48C523.17,-18.93 489.7,-14.76 469.57,-12.25"/>
<polygon fill="midnightblue" stroke="midnightblue" points="551.57,-25.99 561.93,-23.76 552.43,-19.05 551.57,-25.99"/>
</g>
<!-- Node4 -->
<g id="node4" class="node">
<title>Node4</title>
<g id="a_node4"><a xlink:href="class_mandelbrot_app.html#ad5c4a7e7fd79bc75fea87df0165005b6" target="_top" xlink:title=" ">
<polygon fill="none" stroke="black" points="210,-38.5 210,-57.5 339,-57.5 339,-38.5 210,-38.5"/>
<text text-anchor="middle" x="274.5" y="-45.5" font-family="Helvetica,sans-Serif" font-size="10.00">MandelbrotApp::initVulkan</text>
</a>
</g>
</g>
<!-- Node3&#45;&gt;Node4 -->
<g id="edge3" class="edge">
<title>Node3&#45;&gt;Node4</title>
<path fill="none" stroke="midnightblue" d="M364.86,-48C356.23,-48 347.57,-48 339.22,-48"/>
<polygon fill="midnightblue" stroke="midnightblue" points="364.95,-51.5 374.95,-48 364.95,-44.5 364.95,-51.5"/>
</g>
<!-- Node5 -->
<g id="node5" class="node">
<title>Node5</title>
<g id="a_node5"><a xlink:href="class_mandelbrot_app.html#a2cd742dc1400d3cf3e4ed782976fda5f" target="_top" xlink:title=" ">
<polygon fill="none" stroke="black" points="74,-38.5 74,-57.5 174,-57.5 174,-38.5 74,-38.5"/>
<text text-anchor="middle" x="124" y="-45.5" font-family="Helvetica,sans-Serif" font-size="10.00">MandelbrotApp::run</text>
</a>
</g>
</g>
<!-- Node4&#45;&gt;Node5 -->
<g id="edge4" class="edge">
<title>Node4&#45;&gt;Node5</title>
<path fill="none" stroke="midnightblue" d="M199.65,-48C191.1,-48 182.55,-48 174.44,-48"/>
<polygon fill="midnightblue" stroke="midnightblue" points="199.66,-51.5 209.66,-48 199.66,-44.5 199.66,-51.5"/>
</g>
<!-- Node6 -->
<g id="node6" class="node">
<title>Node6</title>
<g id="a_node6"><a xlink:href="vulkan__voxel__rasterizer__2_8cpp.html#ae66f6b31b5ad750f1fe042a706a4e3d4" target="_top" xlink:title=" ">
<polygon fill="none" stroke="black" points="0,-38.5 0,-57.5 38,-57.5 38,-38.5 0,-38.5"/>
<text text-anchor="middle" x="19" y="-45.5" font-family="Helvetica,sans-Serif" font-size="10.00">main</text>
</a>
</g>
</g>
<!-- Node5&#45;&gt;Node6 -->
<g id="edge5" class="edge">
<title>Node5&#45;&gt;Node6</title>
<path fill="none" stroke="midnightblue" d="M63.85,-48C54.65,-48 45.78,-48 38.46,-48"/>
<polygon fill="midnightblue" stroke="midnightblue" points="63.91,-51.5 73.91,-48 63.91,-44.5 63.91,-51.5"/>
</g>
</g>
</svg>
