<?xml version="1.0" encoding="UTF-8" standalone="no"?>
<!DOCTYPE svg PUBLIC "-//W3C//DTD SVG 1.1//EN"
 "http://www.w3.org/Graphics/SVG/1.1/DTD/svg11.dtd">
<!-- Generated by graphviz version 2.49.3 (20211215.1918)
 -->
<!-- Title: MeshInstance::create Pages: 1 -->
<svg width="715pt" height="192pt"
 viewBox="0.00 0.00 715.00 191.50" xmlns="http://www.w3.org/2000/svg" xmlns:xlink="http://www.w3.org/1999/xlink">
<g id="graph0" class="graph" transform="scale(1 1) rotate(0) translate(4 187.5)">
<title>MeshInstance::create</title>
<!-- Node1 -->
<g id="node1" class="node">
<title>Node1</title>
<g id="a_node1"><a xlink:title=" ">
<polygon fill="#bfbfbf" stroke="black" points="597,-88 597,-107 707,-107 707,-88 597,-88"/>
<text text-anchor="middle" x="652" y="-95" font-family="Helvetica,sans-Serif" font-size="10.00">MeshInstance::create</text>
</a>
</g>
</g>
<!-- Node2 -->
<g id="node2" class="node">
<title>Node2</title>
<g id="a_node2"><a xlink:href="class_mandelbrot_app.html#a7c4bdbc240a35e9cfcc4d7c6d3f15982" target="_top" xlink:title=" ">
<polygon fill="none" stroke="black" points="410,-164 410,-183 561,-183 561,-164 410,-164"/>
<text text-anchor="middle" x="485.5" y="-171" font-family="Helvetica,sans-Serif" font-size="10.00">MandelbrotApp::createInstance</text>
</a>
</g>
</g>
<!-- Node1&#45;&gt;Node2 -->
<g id="edge1" class="edge">
<title>Node1&#45;&gt;Node2</title>
<path fill="none" stroke="midnightblue" d="M630.25,-113.32C612.65,-126.06 586.31,-143.59 561,-154.5 552.3,-158.25 542.69,-161.39 533.35,-163.95"/>
<polygon fill="midnightblue" stroke="midnightblue" points="632.63,-115.91 638.6,-107.16 628.47,-110.28 632.63,-115.91"/>
</g>
<!-- Node6 -->
<g id="node6" class="node">
<title>Node6</title>
<g id="a_node6"><a xlink:href="class_mandelbrot_app.html#ae15547e49fb9d4a3b4ee4b9603dd1968" target="_top" xlink:title=" ">
<polygon fill="none" stroke="black" points="417.5,-126 417.5,-145 553.5,-145 553.5,-126 417.5,-126"/>
<text text-anchor="middle" x="485.5" y="-133" font-family="Helvetica,sans-Serif" font-size="10.00">MandelbrotApp::loadModels</text>
</a>
</g>
</g>
<!-- Node1&#45;&gt;Node6 -->
<g id="edge5" class="edge">
<title>Node1&#45;&gt;Node6</title>
<path fill="none" stroke="midnightblue" d="M599.5,-109.4C576.38,-114.74 549.47,-120.95 527.71,-125.98"/>
<polygon fill="midnightblue" stroke="midnightblue" points="600.53,-112.75 609.49,-107.09 598.96,-105.93 600.53,-112.75"/>
</g>
<!-- Node7 -->
<g id="node7" class="node">
<title>Node7</title>
<g id="a_node7"><a xlink:href="class_vulkan_rasterizer.html#a0649950f85953da05358416d7616fc09" target="_top" xlink:title=" ">
<polygon fill="none" stroke="black" points="413.5,-88 413.5,-107 557.5,-107 557.5,-88 413.5,-88"/>
<text text-anchor="middle" x="485.5" y="-95" font-family="Helvetica,sans-Serif" font-size="10.00">VulkanRasterizer::loadModels</text>
</a>
</g>
</g>
<!-- Node1&#45;&gt;Node7 -->
<g id="edge7" class="edge">
<title>Node1&#45;&gt;Node7</title>
<path fill="none" stroke="midnightblue" d="M586.58,-97.5C577.13,-97.5 567.36,-97.5 557.78,-97.5"/>
<polygon fill="midnightblue" stroke="midnightblue" points="586.68,-101 596.68,-97.5 586.68,-94 586.68,-101"/>
</g>
<!-- Node11 -->
<g id="node11" class="node">
<title>Node11</title>
<g id="a_node11"><a xlink:href="vulkan__voxel__rasterizer_8cpp.html#ae66f6b31b5ad750f1fe042a706a4e3d4" target="_top" xlink:title=" ">
<polygon fill="none" stroke="black" points="466.5,-50 466.5,-69 504.5,-69 504.5,-50 466.5,-50"/>
<text text-anchor="middle" x="485.5" y="-57" font-family="Helvetica,sans-Serif" font-size="10.00">main</text>
</a>
</g>
</g>
<!-- Node1&#45;&gt;Node11 -->
<g id="edge11" class="edge">
<title>Node1&#45;&gt;Node11</title>
<path fill="none" stroke="midnightblue" d="M599.72,-85.65C567.37,-78.18 527.55,-68.98 504.78,-63.72"/>
<polygon fill="midnightblue" stroke="midnightblue" points="598.96,-89.07 609.49,-87.91 600.53,-82.25 598.96,-89.07"/>
</g>
<!-- Node12 -->
<g id="node12" class="node">
<title>Node12</title>
<g id="a_node12"><a xlink:href="class_scene_writer.html#af3de32453b125e419ef6250e8419e0f4" target="_top" xlink:title=" ">
<polygon fill="none" stroke="black" points="420,-0.5 420,-30.5 551,-30.5 551,-0.5 420,-0.5"/>
<text text-anchor="start" x="428" y="-18.5" font-family="Helvetica,sans-Serif" font-size="10.00">SceneWriter::readInstance</text>
<text text-anchor="middle" x="485.5" y="-7.5" font-family="Helvetica,sans-Serif" font-size="10.00">FromNode</text>
</a>
</g>
</g>
<!-- Node1&#45;&gt;Node12 -->
<g id="edge12" class="edge">
<title>Node1&#45;&gt;Node12</title>
<path fill="none" stroke="midnightblue" d="M629.72,-81.95C612,-69.52 585.75,-52.28 561,-40.5 553.36,-36.87 545.05,-33.52 536.85,-30.55"/>
<polygon fill="midnightblue" stroke="midnightblue" points="627.98,-85.01 638.16,-87.96 632.04,-79.31 627.98,-85.01"/>
</g>
<!-- Node3 -->
<g id="node3" class="node">
<title>Node3</title>
<g id="a_node3"><a xlink:href="class_mandelbrot_app.html#ad5c4a7e7fd79bc75fea87df0165005b6" target="_top" xlink:title=" ">
<polygon fill="none" stroke="black" points="238,-145 238,-164 367,-164 367,-145 238,-145"/>
<text text-anchor="middle" x="302.5" y="-152" font-family="Helvetica,sans-Serif" font-size="10.00">MandelbrotApp::initVulkan</text>
</a>
</g>
</g>
<!-- Node2&#45;&gt;Node3 -->
<g id="edge2" class="edge">
<title>Node2&#45;&gt;Node3</title>
<path fill="none" stroke="midnightblue" d="M399.77,-164.61C388.75,-163.45 377.62,-162.28 367.03,-161.17"/>
<polygon fill="midnightblue" stroke="midnightblue" points="399.52,-168.1 409.84,-165.66 400.26,-161.14 399.52,-168.1"/>
</g>
<!-- Node4 -->
<g id="node4" class="node">
<title>Node4</title>
<g id="a_node4"><a xlink:href="class_mandelbrot_app.html#a2cd742dc1400d3cf3e4ed782976fda5f" target="_top" xlink:title=" ">
<polygon fill="none" stroke="black" points="84.5,-145 84.5,-164 184.5,-164 184.5,-145 84.5,-145"/>
<text text-anchor="middle" x="134.5" y="-152" font-family="Helvetica,sans-Serif" font-size="10.00">MandelbrotApp::run</text>
</a>
</g>
</g>
<!-- Node3&#45;&gt;Node4 -->
<g id="edge3" class="edge">
<title>Node3&#45;&gt;Node4</title>
<path fill="none" stroke="midnightblue" d="M227.76,-154.5C213.15,-154.5 198.14,-154.5 184.6,-154.5"/>
<polygon fill="midnightblue" stroke="midnightblue" points="227.79,-158 237.79,-154.5 227.79,-151 227.79,-158"/>
</g>
<!-- Node5 -->
<g id="node5" class="node">
<title>Node5</title>
<g id="a_node5"><a xlink:href="vulkan__voxel__rasterizer__2_8cpp.html#ae66f6b31b5ad750f1fe042a706a4e3d4" target="_top" xlink:title=" ">
<polygon fill="none" stroke="black" points="0,-145 0,-164 38,-164 38,-145 0,-145"/>
<text text-anchor="middle" x="19" y="-152" font-family="Helvetica,sans-Serif" font-size="10.00">main</text>
</a>
</g>
</g>
<!-- Node4&#45;&gt;Node5 -->
<g id="edge4" class="edge">
<title>Node4&#45;&gt;Node5</title>
<path fill="none" stroke="midnightblue" d="M74.31,-154.5C61.14,-154.5 48.14,-154.5 38.16,-154.5"/>
<polygon fill="midnightblue" stroke="midnightblue" points="74.38,-158 84.38,-154.5 74.38,-151 74.38,-158"/>
</g>
<!-- Node6&#45;&gt;Node3 -->
<g id="edge6" class="edge">
<title>Node6&#45;&gt;Node3</title>
<path fill="none" stroke="midnightblue" d="M407.25,-143.61C393.9,-145.01 380.17,-146.45 367.23,-147.81"/>
<polygon fill="midnightblue" stroke="midnightblue" points="407.78,-147.07 417.36,-142.55 407.05,-140.11 407.78,-147.07"/>
</g>
<!-- Node8 -->
<g id="node8" class="node">
<title>Node8</title>
<g id="a_node8"><a xlink:href="class_vulkan_rasterizer.html#a91d83d21a2d62b9042827d03a8b4d7a0" target="_top" xlink:title=" ">
<polygon fill="none" stroke="black" points="249,-88 249,-107 356,-107 356,-88 249,-88"/>
<text text-anchor="middle" x="302.5" y="-95" font-family="Helvetica,sans-Serif" font-size="10.00">VulkanRasterizer::init</text>
</a>
</g>
</g>
<!-- Node7&#45;&gt;Node8 -->
<g id="edge8" class="edge">
<title>Node7&#45;&gt;Node8</title>
<path fill="none" stroke="midnightblue" d="M403.08,-97.5C387.14,-97.5 370.82,-97.5 356.12,-97.5"/>
<polygon fill="midnightblue" stroke="midnightblue" points="403.48,-101 413.48,-97.5 403.48,-94 403.48,-101"/>
</g>
<!-- Node9 -->
<g id="node9" class="node">
<title>Node9</title>
<g id="a_node9"><a xlink:href="class_vulkan_rasterizer.html#add1cfb13a3ae242ca9eef6c1e9e42751" target="_top" xlink:title=" ">
<polygon fill="none" stroke="black" points="80.5,-88 80.5,-107 188.5,-107 188.5,-88 80.5,-88"/>
<text text-anchor="middle" x="134.5" y="-95" font-family="Helvetica,sans-Serif" font-size="10.00">VulkanRasterizer::run</text>
</a>
</g>
</g>
<!-- Node8&#45;&gt;Node9 -->
<g id="edge9" class="edge">
<title>Node8&#45;&gt;Node9</title>
<path fill="none" stroke="midnightblue" d="M238.83,-97.5C222.26,-97.5 204.54,-97.5 188.54,-97.5"/>
<polygon fill="midnightblue" stroke="midnightblue" points="238.98,-101 248.98,-97.5 238.98,-94 238.98,-101"/>
</g>
<!-- Node10 -->
<g id="node10" class="node">
<title>Node10</title>
<g id="a_node10"><a xlink:href="vulkan__voxel__rasterizer__4_8cpp.html#ae66f6b31b5ad750f1fe042a706a4e3d4" target="_top" xlink:title=" ">
<polygon fill="none" stroke="black" points="0,-88 0,-107 38,-107 38,-88 0,-88"/>
<text text-anchor="middle" x="19" y="-95" font-family="Helvetica,sans-Serif" font-size="10.00">main</text>
</a>
</g>
</g>
<!-- Node9&#45;&gt;Node10 -->
<g id="edge10" class="edge">
<title>Node9&#45;&gt;Node10</title>
<path fill="none" stroke="midnightblue" d="M70.41,-97.5C58.55,-97.5 47.07,-97.5 38.07,-97.5"/>
<polygon fill="midnightblue" stroke="midnightblue" points="70.41,-101 80.41,-97.5 70.41,-94 70.41,-101"/>
</g>
<!-- Node13 -->
<g id="node13" class="node">
<title>Node13</title>
<g id="a_node13"><a xlink:href="class_scene_writer.html#a72747249f8b4e4a6e4af9f65212717dc" target="_top" xlink:title=" ">
<polygon fill="none" stroke="black" points="231,-0.5 231,-30.5 374,-30.5 374,-0.5 231,-0.5"/>
<text text-anchor="start" x="239" y="-18.5" font-family="Helvetica,sans-Serif" font-size="10.00">SceneWriter::readSceneFrom</text>
<text text-anchor="middle" x="302.5" y="-7.5" font-family="Helvetica,sans-Serif" font-size="10.00">Document</text>
</a>
</g>
</g>
<!-- Node12&#45;&gt;Node13 -->
<g id="edge13" class="edge">
<title>Node12&#45;&gt;Node13</title>
<path fill="none" stroke="midnightblue" d="M409.71,-15.5C397.96,-15.5 385.85,-15.5 374.2,-15.5"/>
<polygon fill="midnightblue" stroke="midnightblue" points="409.92,-19 419.92,-15.5 409.92,-12 409.92,-19"/>
</g>
<!-- Node14 -->
<g id="node14" class="node">
<title>Node14</title>
<g id="a_node14"><a xlink:href="class_scene_writer.html#a4bd866f075b2e5f88b8b6673afc21674" target="_top" xlink:title=" ">
<polygon fill="none" stroke="black" points="74,-6 74,-25 195,-25 195,-6 74,-6"/>
<text text-anchor="middle" x="134.5" y="-13" font-family="Helvetica,sans-Serif" font-size="10.00">SceneWriter::readScene</text>
</a>
</g>
</g>
<!-- Node13&#45;&gt;Node14 -->
<g id="edge14" class="edge">
<title>Node13&#45;&gt;Node14</title>
<path fill="none" stroke="midnightblue" d="M220.6,-15.5C212.03,-15.5 203.44,-15.5 195.18,-15.5"/>
<polygon fill="midnightblue" stroke="midnightblue" points="220.62,-19 230.62,-15.5 220.62,-12 220.62,-19"/>
</g>
</g>
</svg>
