<?xml version="1.0" encoding="UTF-8" standalone="no"?>
<!DOCTYPE svg PUBLIC "-//W3C//DTD SVG 1.1//EN"
 "http://www.w3.org/Graphics/SVG/1.1/DTD/svg11.dtd">
<!-- Generated by graphviz version 2.50.0 (20220203.2022)
 -->
<!-- Title: RenderPass Pages: 1 -->
<svg width="173pt" height="409pt"
 viewBox="0.00 0.00 173.00 409.00" xmlns="http://www.w3.org/2000/svg" xmlns:xlink="http://www.w3.org/1999/xlink">
<g id="graph0" class="graph" transform="scale(1 1) rotate(0) translate(4 405)">
<title>RenderPass</title>
<!-- Node1 -->
<g id="node1" class="node">
<title>Node1</title>
<g id="a_node1"><a xlink:title=" ">
<polygon fill="#bfbfbf" stroke="black" points="0,-0.5 0,-178.5 160,-178.5 160,-0.5 0,-0.5"/>
<text text-anchor="middle" x="80" y="-166.5" font-family="Helvetica,sans-Serif" font-size="10.00">RenderPass</text>
<polyline fill="none" stroke="black" points="0,-159.5 160,-159.5 "/>
<text text-anchor="start" x="8" y="-147.5" font-family="Helvetica,sans-Serif" font-size="10.00">&#45; device</text>
<text text-anchor="start" x="8" y="-136.5" font-family="Helvetica,sans-Serif" font-size="10.00">&#45; attachments</text>
<text text-anchor="start" x="8" y="-125.5" font-family="Helvetica,sans-Serif" font-size="10.00">&#45; subpasses</text>
<text text-anchor="start" x="8" y="-114.5" font-family="Helvetica,sans-Serif" font-size="10.00">&#45; subpass_stages</text>
<text text-anchor="start" x="8" y="-103.5" font-family="Helvetica,sans-Serif" font-size="10.00">&#45; dependencies</text>
<polyline fill="none" stroke="black" points="0,-96.5 160,-96.5 "/>
<text text-anchor="start" x="8" y="-84.5" font-family="Helvetica,sans-Serif" font-size="10.00">+ getDevice()</text>
<text text-anchor="start" x="8" y="-73.5" font-family="Helvetica,sans-Serif" font-size="10.00">+ submitImageAttachment()</text>
<text text-anchor="start" x="8" y="-62.5" font-family="Helvetica,sans-Serif" font-size="10.00">+ submitSwapChainAttachment()</text>
<text text-anchor="start" x="8" y="-51.5" font-family="Helvetica,sans-Serif" font-size="10.00">+ submitSubpass()</text>
<text text-anchor="start" x="8" y="-40.5" font-family="Helvetica,sans-Serif" font-size="10.00">+ submitDependency()</text>
<text text-anchor="start" x="8" y="-29.5" font-family="Helvetica,sans-Serif" font-size="10.00">+ build()</text>
<text text-anchor="start" x="8" y="-18.5" font-family="Helvetica,sans-Serif" font-size="10.00">+ ~RenderPass()</text>
<text text-anchor="start" x="8" y="-7.5" font-family="Helvetica,sans-Serif" font-size="10.00">+ create()</text>
</a>
</g>
</g>
<!-- Node2 -->
<g id="node2" class="node">
<title>Node2</title>
<g id="a_node2"><a xlink:href="class_vulkan_class.html" target="_top" xlink:title=" ">
<polygon fill="none" stroke="black" points="3.5,-216.5 3.5,-284.5 156.5,-284.5 156.5,-216.5 3.5,-216.5"/>
<text text-anchor="middle" x="80" y="-272.5" font-family="Helvetica,sans-Serif" font-size="10.00">VulkanClass&lt; VkRenderPass &gt;</text>
<polyline fill="none" stroke="black" points="3.5,-265.5 156.5,-265.5 "/>
<text text-anchor="start" x="11.5" y="-253.5" font-family="Helvetica,sans-Serif" font-size="10.00"># handle</text>
<polyline fill="none" stroke="black" points="3.5,-246.5 156.5,-246.5 "/>
<text text-anchor="start" x="11.5" y="-234.5" font-family="Helvetica,sans-Serif" font-size="10.00">+ getHandle()</text>
<text text-anchor="start" x="11.5" y="-223.5" font-family="Helvetica,sans-Serif" font-size="10.00">+ getHandlePtr()</text>
</a>
</g>
</g>
<!-- Node2&#45;&gt;Node1 -->
<g id="edge1" class="edge">
<title>Node2&#45;&gt;Node1</title>
<path fill="none" stroke="midnightblue" d="M80,-206.11C80,-197.54 80,-188.27 80,-178.83"/>
<polygon fill="none" stroke="midnightblue" points="76.5,-206.17 80,-216.17 83.5,-206.17 76.5,-206.17"/>
</g>
<!-- Node3 -->
<g id="node3" class="node">
<title>Node3</title>
<g id="a_node3"><a xlink:href="class_vulkan_class.html" target="_top" xlink:title=" ">
<polygon fill="none" stroke="black" points="33,-332.5 33,-400.5 127,-400.5 127,-332.5 33,-332.5"/>
<text text-anchor="middle" x="80" y="-388.5" font-family="Helvetica,sans-Serif" font-size="10.00">VulkanClass&lt; T &gt;</text>
<polyline fill="none" stroke="black" points="33,-381.5 127,-381.5 "/>
<text text-anchor="start" x="41" y="-369.5" font-family="Helvetica,sans-Serif" font-size="10.00"># handle</text>
<polyline fill="none" stroke="black" points="33,-362.5 127,-362.5 "/>
<text text-anchor="start" x="41" y="-350.5" font-family="Helvetica,sans-Serif" font-size="10.00">+ getHandle()</text>
<text text-anchor="start" x="41" y="-339.5" font-family="Helvetica,sans-Serif" font-size="10.00">+ getHandlePtr()</text>
</a>
</g>
</g>
<!-- Node3&#45;&gt;Node2 -->
<g id="edge2" class="edge">
<title>Node3&#45;&gt;Node2</title>
<path fill="none" stroke="orange" d="M80,-322.06C80,-309.64 80,-296.32 80,-284.62"/>
<polygon fill="orange" stroke="orange" points="76.5,-322.22 80,-332.22 83.5,-322.22 76.5,-322.22"/>
<text text-anchor="middle" x="122.5" y="-306" font-family="Helvetica,sans-Serif" font-size="10.00"> &lt; VkRenderPass &gt;</text>
</g>
</g>
</svg>
