<?xml version="1.0" encoding="UTF-8" standalone="no"?>
<!DOCTYPE svg PUBLIC "-//W3C//DTD SVG 1.1//EN"
 "http://www.w3.org/Graphics/SVG/1.1/DTD/svg11.dtd">
<!-- Generated by graphviz version 2.50.0 (20220203.2022)
 -->
<!-- Title: Scene::bakeGraphicsBuffer Pages: 1 -->
<svg width="599pt" height="28pt"
 viewBox="0.00 0.00 599.00 28.00" xmlns="http://www.w3.org/2000/svg" xmlns:xlink="http://www.w3.org/1999/xlink">
<g id="graph0" class="graph" transform="scale(1 1) rotate(0) translate(4 24)">
<title>Scene::bakeGraphicsBuffer</title>
<!-- Node1 -->
<g id="node1" class="node">
<title>Node1</title>
<g id="a_node1"><a xlink:title=" ">
<polygon fill="#bfbfbf" stroke="black" points="0,-0.5 0,-19.5 134,-19.5 134,-0.5 0,-0.5"/>
<text text-anchor="middle" x="67" y="-7.5" font-family="Helvetica,sans-Serif" font-size="10.00">Scene::bakeGraphicsBuffer</text>
</a>
</g>
</g>
<!-- Node2 -->
<g id="node2" class="node">
<title>Node2</title>
<g id="a_node2"><a xlink:href="class_scene.html#ae74c7fe2b71459224585f31c5f61ffb2" target="_top" xlink:title=" ">
<polygon fill="none" stroke="black" points="170,-0.5 170,-19.5 303,-19.5 303,-0.5 170,-0.5"/>
<text text-anchor="middle" x="236.5" y="-7.5" font-family="Helvetica,sans-Serif" font-size="10.00">Scene::transferRenderData</text>
</a>
</g>
</g>
<!-- Node1&#45;&gt;Node2 -->
<g id="edge1" class="edge">
<title>Node1&#45;&gt;Node2</title>
<path fill="none" stroke="midnightblue" d="M134.2,-10C142.52,-10 151.09,-10 159.54,-10"/>
<polygon fill="midnightblue" stroke="midnightblue" points="159.78,-13.5 169.78,-10 159.78,-6.5 159.78,-13.5"/>
</g>
<!-- Node3 -->
<g id="node3" class="node">
<title>Node3</title>
<g id="a_node3"><a xlink:href="class_scene.html#aed545a16d30724c286be1db89f5ecc5a" target="_top" xlink:title=" ">
<polygon fill="none" stroke="black" points="339,-0.5 339,-19.5 437,-19.5 437,-0.5 339,-0.5"/>
<text text-anchor="middle" x="388" y="-7.5" font-family="Helvetica,sans-Serif" font-size="10.00">Scene::cullObjects</text>
</a>
</g>
</g>
<!-- Node2&#45;&gt;Node3 -->
<g id="edge2" class="edge">
<title>Node2&#45;&gt;Node3</title>
<path fill="none" stroke="midnightblue" d="M303.07,-10C311.55,-10 320.19,-10 328.54,-10"/>
<polygon fill="midnightblue" stroke="midnightblue" points="328.56,-13.5 338.56,-10 328.56,-6.5 328.56,-13.5"/>
</g>
<!-- Node4 -->
<g id="node4" class="node">
<title>Node4</title>
<g id="a_node4"><a xlink:href="class_command_buffer.html#aa00b25bc626efb68b5dc810ea91cf41b" target="_top" xlink:title=" ">
<polygon fill="none" stroke="black" points="473,-0.5 473,-19.5 591,-19.5 591,-0.5 473,-0.5"/>
<text text-anchor="middle" x="532" y="-7.5" font-family="Helvetica,sans-Serif" font-size="10.00">CommandBuffer::create</text>
</a>
</g>
</g>
<!-- Node3&#45;&gt;Node4 -->
<g id="edge3" class="edge">
<title>Node3&#45;&gt;Node4</title>
<path fill="none" stroke="midnightblue" d="M437.07,-10C445.34,-10 454.08,-10 462.76,-10"/>
<polygon fill="midnightblue" stroke="midnightblue" points="462.89,-13.5 472.89,-10 462.89,-6.5 462.89,-13.5"/>
</g>
</g>
</svg>
