<?xml version="1.0" encoding="UTF-8" standalone="no"?>
<!DOCTYPE svg PUBLIC "-//W3C//DTD SVG 1.1//EN"
 "http://www.w3.org/Graphics/SVG/1.1/DTD/svg11.dtd">
<!-- Generated by graphviz version 2.49.3 (20211215.1918)
 -->
<!-- Title: Buffer::create Pages: 1 -->
<!--zoomable 259 -->
<svg id="main" version="1.1" xmlns="http://www.w3.org/2000/svg" xmlns:xlink="http://www.w3.org/1999/xlink" xml:space="preserve" onload="init(evt)">
<style type="text/css"><![CDATA[
.edge:hover path { stroke: red; }
.edge:hover polygon { stroke: red; fill: red; }
]]></style>
<script type="text/javascript"><![CDATA[
var edges = document.getElementsByTagName('g');
if (edges && edges.length) {
  for (var i=0;i<edges.length;i++) {
    if (edges[i].id.substr(0,4)=='edge') {
      edges[i].setAttribute('class','edge');
    }
  }
}
]]></script>
        <defs>
                <circle id="rim" cx="0" cy="0" r="7"/>
                <circle id="rim2" cx="0" cy="0" r="3.5"/>
                <g id="zoomPlus">
                        <use xlink:href="#rim" fill="#404040">
                                <set attributeName="fill" to="#808080" begin="zoomplus.mouseover" end="zoomplus.mouseout"/>
                        </use>
                        <path d="M-4,0h8M0,-4v8" fill="none" stroke="white" stroke-width="1.5" pointer-events="none"/>
                </g>
                <g id="zoomMin">
                        <use xlink:href="#rim" fill="#404040">
                                <set attributeName="fill" to="#808080" begin="zoomminus.mouseover" end="zoomminus.mouseout"/>
                        </use>
                        <path d="M-4,0h8" fill="none" stroke="white" stroke-width="1.5" pointer-events="none"/>
                </g>
                <g id="dirArrow">
                        <path fill="none" stroke="white" stroke-width="1.5" d="M0,-3.0v7 M-2.5,-0.5L0,-3.0L2.5,-0.5"/>
                </g>
               <g id="resetDef">
                       <use xlink:href="#rim2" fill="#404040">
                               <set attributeName="fill" to="#808080" begin="reset.mouseover" end="reset.mouseout"/>
                       </use>
               </g>
        </defs>

<script type="text/javascript">
var viewWidth = 778;
var viewHeight = 259;
var sectionId = 'dynsection-3';
</script>
<script xlink:href="svgpan.js"/>
<svg id="graph" class="graph">
<g id="viewport">
<title>Buffer::create</title>
<!-- Node1 -->
<g id="node1" class="node">
<title>Node1</title>
<g id="a_node1"><a xlink:title=" ">
<polygon fill="#bfbfbf" stroke="black" points="696,-94 696,-113 770,-113 770,-94 696,-94"/>
<text text-anchor="middle" x="733" y="-101" font-family="Helvetica,sans-Serif" font-size="10.00">Buffer::create</text>
</a>
</g>
</g>
<!-- Node1&#45;&gt;Node1 -->
<g id="edge8" class="edge">
<title>Node1&#45;&gt;Node1</title>
<path fill="none" stroke="midnightblue" d="M758.3,-122.53C756.92,-127.63 748.49,-131.5 733,-131.5 708.83,-131.5 701.84,-122.07 712.04,-113.26"/>
<polygon fill="midnightblue" stroke="midnightblue" points="761.37,-120.83 753.96,-113.26 755.03,-123.8 761.37,-120.83"/>
</g>
<!-- Node2 -->
<g id="node2" class="node">
<title>Node2</title>
<g id="a_node2"><a xlink:href="class_uniform_buffer.html#a1e1a7c734eb7243682f2dfa7e964ee58" target="_top" xlink:title=" ">
<polygon fill="none" stroke="black" points="541.5,-187 541.5,-206 649.5,-206 649.5,-187 541.5,-187"/>
<text text-anchor="middle" x="595.5" y="-194" font-family="Helvetica,sans-Serif" font-size="10.00">UniformBuffer::create</text>
</a>
</g>
</g>
<!-- Node1&#45;&gt;Node2 -->
<g id="edge1" class="edge">
<title>Node1&#45;&gt;Node2</title>
<path fill="none" stroke="midnightblue" d="M718.81,-121.62C705.68,-138.4 684.06,-162.92 660,-177.5 653.7,-181.32 646.58,-184.41 639.45,-186.91"/>
<polygon fill="midnightblue" stroke="midnightblue" points="721.94,-123.28 725.19,-113.2 716.36,-119.05 721.94,-123.28"/>
</g>
<!-- Node8 -->
<g id="node8" class="node">
<title>Node8</title>
<g id="a_node8"><a xlink:href="class_buffer.html#a8c31c295d9d6b224fabfb8806f0302d6" target="_top" xlink:title=" ">
<polygon fill="none" stroke="black" points="531.5,-137.5 531.5,-167.5 659.5,-167.5 659.5,-137.5 531.5,-137.5"/>
<text text-anchor="start" x="539.5" y="-155.5" font-family="Helvetica,sans-Serif" font-size="10.00">Buffer::createHostStaging</text>
<text text-anchor="middle" x="595.5" y="-144.5" font-family="Helvetica,sans-Serif" font-size="10.00">Buffer</text>
</a>
</g>
</g>
<!-- Node1&#45;&gt;Node8 -->
<g id="edge9" class="edge">
<title>Node1&#45;&gt;Node8</title>
<path fill="none" stroke="midnightblue" d="M696.08,-116.49C678.26,-122.93 656.62,-130.76 638.08,-137.46"/>
<polygon fill="midnightblue" stroke="midnightblue" points="697.34,-119.76 705.55,-113.06 694.96,-113.17 697.34,-119.76"/>
</g>
<!-- Node10 -->
<g id="node10" class="node">
<title>Node10</title>
<g id="a_node10"><a xlink:href="class_image.html#acbd65e77bf295e13da984c629669fa77" target="_top" xlink:title=" ">
<polygon fill="none" stroke="black" points="531,-88.5 531,-118.5 660,-118.5 660,-88.5 531,-88.5"/>
<text text-anchor="start" x="539" y="-106.5" font-family="Helvetica,sans-Serif" font-size="10.00">Image::createHostStaging</text>
<text text-anchor="middle" x="595.5" y="-95.5" font-family="Helvetica,sans-Serif" font-size="10.00">Buffer</text>
</a>
</g>
</g>
<!-- Node1&#45;&gt;Node10 -->
<g id="edge11" class="edge">
<title>Node1&#45;&gt;Node10</title>
<path fill="none" stroke="midnightblue" d="M685.58,-103.5C677.37,-103.5 668.7,-103.5 660.12,-103.5"/>
<polygon fill="midnightblue" stroke="midnightblue" points="685.69,-107 695.69,-103.5 685.69,-100 685.69,-107"/>
</g>
<!-- Node12 -->
<g id="node12" class="node">
<title>Node12</title>
<g id="a_node12"><a xlink:href="class_dynamic_buffer.html#a89a831a4a8ccc4f565614c72cfd98fec" target="_top" xlink:title=" ">
<polygon fill="none" stroke="black" points="534,-50 534,-69 657,-69 657,-50 534,-50"/>
<text text-anchor="middle" x="595.5" y="-57" font-family="Helvetica,sans-Serif" font-size="10.00">DynamicBuffer::getBuffer</text>
</a>
</g>
</g>
<!-- Node1&#45;&gt;Node12 -->
<g id="edge13" class="edge">
<title>Node1&#45;&gt;Node12</title>
<path fill="none" stroke="midnightblue" d="M695.78,-90.58C684.36,-86.6 671.69,-82.28 660,-78.5 650.14,-75.32 639.37,-72.02 629.54,-69.09"/>
<polygon fill="midnightblue" stroke="midnightblue" points="694.83,-93.95 705.42,-93.96 697.15,-87.35 694.83,-93.95"/>
</g>
<!-- Node13 -->
<g id="node13" class="node">
<title>Node13</title>
<g id="a_node13"><a xlink:href="class_dynamic_buffer.html#ad12ff4367acfe377f988606a1588f363" target="_top" xlink:title=" ">
<polygon fill="none" stroke="black" points="534,-0.5 534,-30.5 657,-30.5 657,-0.5 534,-0.5"/>
<text text-anchor="start" x="542" y="-18.5" font-family="Helvetica,sans-Serif" font-size="10.00">DynamicBuffer::getBuffer</text>
<text text-anchor="middle" x="595.5" y="-7.5" font-family="Helvetica,sans-Serif" font-size="10.00">PreserveContents</text>
</a>
</g>
</g>
<!-- Node1&#45;&gt;Node13 -->
<g id="edge14" class="edge">
<title>Node1&#45;&gt;Node13</title>
<path fill="none" stroke="midnightblue" d="M715.8,-86.37C702,-72.55 681.11,-53.35 660,-40.5 653.93,-36.8 647.21,-33.47 640.49,-30.52"/>
<polygon fill="midnightblue" stroke="midnightblue" points="713.56,-89.09 723.05,-93.8 718.57,-84.2 713.56,-89.09"/>
</g>
<!-- Node3 -->
<g id="node3" class="node">
<title>Node3</title>
<g id="a_node3"><a xlink:href="class_scene.html#a26c330284ae1b40d737ac9360cfc61e3" target="_top" xlink:title=" ">
<polygon fill="none" stroke="black" points="383,-231 383,-250 459,-250 459,-231 383,-231"/>
<text text-anchor="middle" x="421" y="-238" font-family="Helvetica,sans-Serif" font-size="10.00">Scene::create</text>
</a>
</g>
</g>
<!-- Node2&#45;&gt;Node3 -->
<g id="edge2" class="edge">
<title>Node2&#45;&gt;Node3</title>
<path fill="none" stroke="midnightblue" d="M547.18,-208.57C519.41,-215.65 484.83,-224.47 459.06,-231.05"/>
<polygon fill="midnightblue" stroke="midnightblue" points="548.25,-211.91 557.07,-206.05 546.52,-205.13 548.25,-211.91"/>
</g>
<!-- Node6 -->
<g id="node6" class="node">
<title>Node6</title>
<g id="a_node6"><a xlink:href="class_mandelbrot_app.html#a2c5c1ee9048f4abe7dc58673336cf1f0" target="_top" xlink:title=" ">
<polygon fill="none" stroke="black" points="347,-181.5 347,-211.5 495,-211.5 495,-181.5 347,-181.5"/>
<text text-anchor="start" x="355" y="-199.5" font-family="Helvetica,sans-Serif" font-size="10.00">MandelbrotApp::createUniform</text>
<text text-anchor="middle" x="421" y="-188.5" font-family="Helvetica,sans-Serif" font-size="10.00">Buffers</text>
</a>
</g>
</g>
<!-- Node2&#45;&gt;Node6 -->
<g id="edge5" class="edge">
<title>Node2&#45;&gt;Node6</title>
<path fill="none" stroke="midnightblue" d="M531.24,-196.5C519.55,-196.5 507.25,-196.5 495.29,-196.5"/>
<polygon fill="midnightblue" stroke="midnightblue" points="531.34,-200 541.34,-196.5 531.34,-193 531.34,-200"/>
</g>
<!-- Node4 -->
<g id="node4" class="node">
<title>Node4</title>
<g id="a_node4"><a xlink:href="class_mandelbrot_app.html#a9adbc757b127cc20ef8fe983bd29ebbb" target="_top" xlink:title=" ">
<polygon fill="none" stroke="black" points="167.5,-231 167.5,-250 308.5,-250 308.5,-231 167.5,-231"/>
<text text-anchor="middle" x="238" y="-238" font-family="Helvetica,sans-Serif" font-size="10.00">MandelbrotApp::createScene</text>
</a>
</g>
</g>
<!-- Node3&#45;&gt;Node4 -->
<g id="edge3" class="edge">
<title>Node3&#45;&gt;Node4</title>
<path fill="none" stroke="midnightblue" d="M372.75,-240.5C353.16,-240.5 330.04,-240.5 308.59,-240.5"/>
<polygon fill="midnightblue" stroke="midnightblue" points="372.94,-244 382.94,-240.5 372.94,-237 372.94,-244"/>
</g>
<!-- Node5 -->
<g id="node5" class="node">
<title>Node5</title>
<g id="a_node5"><a xlink:href="class_mandelbrot_app.html#ad5c4a7e7fd79bc75fea87df0165005b6" target="_top" xlink:title=" ">
<polygon fill="none" stroke="black" points="0,-212 0,-231 129,-231 129,-212 0,-212"/>
<text text-anchor="middle" x="64.5" y="-219" font-family="Helvetica,sans-Serif" font-size="10.00">MandelbrotApp::initVulkan</text>
</a>
</g>
</g>
<!-- Node4&#45;&gt;Node5 -->
<g id="edge4" class="edge">
<title>Node4&#45;&gt;Node5</title>
<path fill="none" stroke="midnightblue" d="M157.11,-231.65C147.72,-230.61 138.24,-229.56 129.12,-228.55"/>
<polygon fill="midnightblue" stroke="midnightblue" points="156.92,-235.15 167.24,-232.77 157.69,-228.19 156.92,-235.15"/>
</g>
<!-- Node6&#45;&gt;Node5 -->
<g id="edge6" class="edge">
<title>Node6&#45;&gt;Node5</title>
<path fill="none" stroke="midnightblue" d="M336.99,-202.35C273.52,-206.83 187.32,-212.91 129.22,-217.01"/>
<polygon fill="midnightblue" stroke="midnightblue" points="337.25,-205.84 346.98,-201.65 336.76,-198.86 337.25,-205.84"/>
</g>
<!-- Node7 -->
<g id="node7" class="node">
<title>Node7</title>
<g id="a_node7"><a xlink:href="class_mandelbrot_app.html#a733620a6533fb25a6ffa309886b74904" target="_top" xlink:title=" ">
<polygon fill="none" stroke="black" points="165,-143.5 165,-173.5 311,-173.5 311,-143.5 165,-143.5"/>
<text text-anchor="start" x="173" y="-161.5" font-family="Helvetica,sans-Serif" font-size="10.00">MandelbrotApp::recreateSwap</text>
<text text-anchor="middle" x="238" y="-150.5" font-family="Helvetica,sans-Serif" font-size="10.00">Chain</text>
</a>
</g>
</g>
<!-- Node6&#45;&gt;Node7 -->
<g id="edge7" class="edge">
<title>Node6&#45;&gt;Node7</title>
<path fill="none" stroke="midnightblue" d="M338.46,-179.38C329.17,-177.43 319.75,-175.45 310.61,-173.53"/>
<polygon fill="midnightblue" stroke="midnightblue" points="337.96,-182.85 348.46,-181.48 339.4,-176 337.96,-182.85"/>
</g>
<!-- Node9 -->
<g id="node9" class="node">
<title>Node9</title>
<g id="a_node9"><a xlink:href="class_buffer.html#a76a99d870d0eda4e49303fa62b240442" target="_top" xlink:title=" ">
<polygon fill="none" stroke="black" points="355.5,-143 355.5,-162 486.5,-162 486.5,-143 355.5,-143"/>
<text text-anchor="middle" x="421" y="-150" font-family="Helvetica,sans-Serif" font-size="10.00">Buffer::transferDataStaged</text>
</a>
</g>
</g>
<!-- Node8&#45;&gt;Node9 -->
<g id="edge10" class="edge">
<title>Node8&#45;&gt;Node9</title>
<path fill="none" stroke="midnightblue" d="M520.91,-152.5C509.53,-152.5 497.85,-152.5 486.69,-152.5"/>
<polygon fill="midnightblue" stroke="midnightblue" points="521.25,-156 531.25,-152.5 521.25,-149 521.25,-156"/>
</g>
<!-- Node11 -->
<g id="node11" class="node">
<title>Node11</title>
<g id="a_node11"><a xlink:href="class_image.html#a71829125e31fdab275345e1fd8104b5b" target="_top" xlink:title=" ">
<polygon fill="none" stroke="black" points="355,-94 355,-113 487,-113 487,-94 355,-94"/>
<text text-anchor="middle" x="421" y="-101" font-family="Helvetica,sans-Serif" font-size="10.00">Image::transferDataStaged</text>
</a>
</g>
</g>
<!-- Node10&#45;&gt;Node11 -->
<g id="edge12" class="edge">
<title>Node10&#45;&gt;Node11</title>
<path fill="none" stroke="midnightblue" d="M520.65,-103.5C509.53,-103.5 498.13,-103.5 487.21,-103.5"/>
<polygon fill="midnightblue" stroke="midnightblue" points="520.76,-107 530.76,-103.5 520.76,-100 520.76,-107"/>
</g>
</g>
</svg>
        <g id="navigator" transform="translate(0 0)" fill="#404254">
                <rect fill="#f2f5e9" fill-opacity="0.5" stroke="#606060" stroke-width=".5" x="0" y="0" width="60" height="60"/>
                <use id="zoomplus" xlink:href="#zoomPlus" x="17" y="9" onmousedown="handleZoom(evt,'in')"/>
                <use id="zoomminus" xlink:href="#zoomMin" x="42" y="9" onmousedown="handleZoom(evt,'out')"/>
                <use id="reset" xlink:href="#resetDef" x="30" y="36" onmousedown="handleReset()"/>
                <g id="arrowUp" xlink:href="#dirArrow" transform="translate(30 24)" onmousedown="handlePan(0,-1)">
                  <use xlink:href="#rim" fill="#404040">
                        <set attributeName="fill" to="#808080" begin="arrowUp.mouseover" end="arrowUp.mouseout"/>
                  </use>
                  <path fill="none" stroke="white" stroke-width="1.5" d="M0,-3.0v7 M-2.5,-0.5L0,-3.0L2.5,-0.5"/>
                </g>
                <g id="arrowRight" xlink:href="#dirArrow" transform="rotate(90) translate(36 -43)" onmousedown="handlePan(1,0)">
                  <use xlink:href="#rim" fill="#404040">
                        <set attributeName="fill" to="#808080" begin="arrowRight.mouseover" end="arrowRight.mouseout"/>
                  </use>
                  <path fill="none" stroke="white" stroke-width="1.5" d="M0,-3.0v7 M-2.5,-0.5L0,-3.0L2.5,-0.5"/>
                </g>
                <g id="arrowDown" xlink:href="#dirArrow" transform="rotate(180) translate(-30 -48)" onmousedown="handlePan(0,1)">
                  <use xlink:href="#rim" fill="#404040">
                        <set attributeName="fill" to="#808080" begin="arrowDown.mouseover" end="arrowDown.mouseout"/>
                  </use>
                  <path fill="none" stroke="white" stroke-width="1.5" d="M0,-3.0v7 M-2.5,-0.5L0,-3.0L2.5,-0.5"/>
                </g>
                <g id="arrowLeft" xlink:href="#dirArrow" transform="rotate(270) translate(-36 17)" onmousedown="handlePan(-1,0)">
                  <use xlink:href="#rim" fill="#404040">
                        <set attributeName="fill" to="#808080" begin="arrowLeft.mouseover" end="arrowLeft.mouseout"/>
                  </use>
                  <path fill="none" stroke="white" stroke-width="1.5" d="M0,-3.0v7 M-2.5,-0.5L0,-3.0L2.5,-0.5"/>
                </g>
        </g>
        <svg viewBox="0 0 15 15" width="100%" height="30px" preserveAspectRatio="xMaxYMin meet">
         <g id="arrow_out" transform="scale(0.3 0.3)">
          <a xlink:href="class_buffer_a04bbfbb11daccc5656c698c63214aefc_icgraph_org.svg" target="_base">
           <rect id="button" ry="5" rx="5" y="6" x="6" height="38" width="38"
                fill="#f2f5e9" fill-opacity="0.5" stroke="#606060" stroke-width="1.0"/>
           <path id="arrow"
             d="M 11.500037,31.436501 C 11.940474,20.09759 22.043105,11.32322 32.158766,21.979434 L 37.068811,17.246167 C 37.068811,17.246167 37.088388,32 37.088388,32 L 22.160133,31.978069 C 22.160133,31.978069 26.997745,27.140456 26.997745,27.140456 C 18.528582,18.264221 13.291696,25.230495 11.500037,31.436501 z"
             style="fill:#404040;"/>
          </a>
         </g>
        </svg>
</svg>
