<?xml version="1.0" encoding="UTF-8" standalone="no"?>
<!DOCTYPE svg PUBLIC "-//W3C//DTD SVG 1.1//EN"
 "http://www.w3.org/Graphics/SVG/1.1/DTD/svg11.dtd">
<!-- Generated by graphviz version 2.49.3 (20211215.1918)
 -->
<!-- Title: NVCallableShader Pages: 1 -->
<svg width="181pt" height="425pt"
 viewBox="0.00 0.00 180.50 425.00" xmlns="http://www.w3.org/2000/svg" xmlns:xlink="http://www.w3.org/1999/xlink">
<g id="graph0" class="graph" transform="scale(1 1) rotate(0) translate(4 421)">
<title>NVCallableShader</title>
<!-- Node1 -->
<g id="node1" class="node">
<title>Node1</title>
<g id="a_node1"><a xlink:title=" ">
<polygon fill="#bfbfbf" stroke="black" points="30,-0.5 30,-57.5 126,-57.5 126,-0.5 30,-0.5"/>
<text text-anchor="middle" x="78" y="-45.5" font-family="Helvetica,sans-Serif" font-size="10.00">NVCallableShader</text>
<polyline fill="none" stroke="black" points="30,-38.5 126,-38.5 "/>
<text text-anchor="middle" x="78" y="-26.5" font-family="Helvetica,sans-Serif" font-size="10.00"> </text>
<polyline fill="none" stroke="black" points="30,-19.5 126,-19.5 "/>
<text text-anchor="start" x="38" y="-7.5" font-family="Helvetica,sans-Serif" font-size="10.00">+ create()</text>
</a>
</g>
</g>
<!-- Node2 -->
<g id="node2" class="node">
<title>Node2</title>
<g id="a_node2"><a xlink:href="class_n_v_shader.html" target="_top" xlink:title=" ">
<polygon fill="none" stroke="black" points="0,-94.5 0,-151.5 62,-151.5 62,-94.5 0,-94.5"/>
<text text-anchor="middle" x="31" y="-139.5" font-family="Helvetica,sans-Serif" font-size="10.00">NVShader</text>
<polyline fill="none" stroke="black" points="0,-132.5 62,-132.5 "/>
<text text-anchor="middle" x="31" y="-120.5" font-family="Helvetica,sans-Serif" font-size="10.00"> </text>
<polyline fill="none" stroke="black" points="0,-113.5 62,-113.5 "/>
<text text-anchor="start" x="8" y="-101.5" font-family="Helvetica,sans-Serif" font-size="10.00"># create()</text>
</a>
</g>
</g>
<!-- Node2&#45;&gt;Node1 -->
<g id="edge1" class="edge">
<title>Node2&#45;&gt;Node1</title>
<path fill="none" stroke="midnightblue" d="M49.71,-85.37C54.45,-76.11 59.45,-66.32 63.91,-57.58"/>
<polygon fill="none" stroke="midnightblue" points="46.53,-83.9 45.1,-94.4 52.77,-87.08 46.53,-83.9"/>
</g>
<!-- Node3 -->
<g id="node3" class="node">
<title>Node3</title>
<g id="a_node3"><a xlink:href="class_shader.html" target="_top" xlink:title=" ">
<polygon fill="none" stroke="black" points="25,-282.5 25,-416.5 131,-416.5 131,-282.5 25,-282.5"/>
<text text-anchor="middle" x="78" y="-404.5" font-family="Helvetica,sans-Serif" font-size="10.00">Shader</text>
<polyline fill="none" stroke="black" points="25,-397.5 131,-397.5 "/>
<text text-anchor="start" x="33" y="-385.5" font-family="Helvetica,sans-Serif" font-size="10.00"># name</text>
<text text-anchor="start" x="33" y="-374.5" font-family="Helvetica,sans-Serif" font-size="10.00"># shaderModule</text>
<text text-anchor="start" x="33" y="-363.5" font-family="Helvetica,sans-Serif" font-size="10.00"># shaderCode</text>
<text text-anchor="start" x="33" y="-352.5" font-family="Helvetica,sans-Serif" font-size="10.00"># device</text>
<text text-anchor="start" x="33" y="-341.5" font-family="Helvetica,sans-Serif" font-size="10.00"># shaderStage</text>
<polyline fill="none" stroke="black" points="25,-334.5 131,-334.5 "/>
<text text-anchor="start" x="33" y="-322.5" font-family="Helvetica,sans-Serif" font-size="10.00">+ loadModule()</text>
<text text-anchor="start" x="33" y="-311.5" font-family="Helvetica,sans-Serif" font-size="10.00">+ pipelineStageInfo()</text>
<text text-anchor="start" x="33" y="-300.5" font-family="Helvetica,sans-Serif" font-size="10.00">+ ~Shader()</text>
<text text-anchor="start" x="33" y="-289.5" font-family="Helvetica,sans-Serif" font-size="10.00"># create()</text>
</a>
</g>
</g>
<!-- Node3&#45;&gt;Node2 -->
<g id="edge2" class="edge">
<title>Node3&#45;&gt;Node2</title>
<path fill="none" stroke="midnightblue" d="M62.08,-272.48C53.35,-230.76 43.05,-181.55 36.77,-151.58"/>
<polygon fill="none" stroke="midnightblue" points="58.68,-273.29 64.15,-282.36 65.53,-271.85 58.68,-273.29"/>
</g>
<!-- Node5 -->
<g id="node5" class="node">
<title>Node5</title>
<g id="a_node5"><a xlink:href="class_graphics_shader.html" target="_top" xlink:title=" ">
<polygon fill="none" stroke="black" points="77,-188.5 77,-245.5 163,-245.5 163,-188.5 77,-188.5"/>
<text text-anchor="middle" x="120" y="-233.5" font-family="Helvetica,sans-Serif" font-size="10.00">GraphicsShader</text>
<polyline fill="none" stroke="black" points="77,-226.5 163,-226.5 "/>
<text text-anchor="middle" x="120" y="-214.5" font-family="Helvetica,sans-Serif" font-size="10.00"> </text>
<polyline fill="none" stroke="black" points="77,-207.5 163,-207.5 "/>
<text text-anchor="start" x="85" y="-195.5" font-family="Helvetica,sans-Serif" font-size="10.00"># create()</text>
</a>
</g>
</g>
<!-- Node3&#45;&gt;Node5 -->
<g id="edge5" class="edge">
<title>Node3&#45;&gt;Node5</title>
<path fill="none" stroke="midnightblue" d="M102.38,-272.76C105.48,-263.1 108.49,-253.76 111.11,-245.61"/>
<polygon fill="none" stroke="midnightblue" points="98.98,-271.89 99.25,-282.49 105.64,-274.04 98.98,-271.89"/>
</g>
<!-- Node4 -->
<g id="node4" class="node">
<title>Node4</title>
<g id="a_node4"><a xlink:href="class_raytracing_shader.html" target="_top" xlink:title=" ">
<polygon fill="none" stroke="black" points="79.5,-94.5 79.5,-151.5 172.5,-151.5 172.5,-94.5 79.5,-94.5"/>
<text text-anchor="middle" x="126" y="-139.5" font-family="Helvetica,sans-Serif" font-size="10.00">RaytracingShader</text>
<polyline fill="none" stroke="black" points="79.5,-132.5 172.5,-132.5 "/>
<text text-anchor="middle" x="126" y="-120.5" font-family="Helvetica,sans-Serif" font-size="10.00"> </text>
<polyline fill="none" stroke="black" points="79.5,-113.5 172.5,-113.5 "/>
<text text-anchor="start" x="87.5" y="-101.5" font-family="Helvetica,sans-Serif" font-size="10.00"># create()</text>
</a>
</g>
</g>
<!-- Node4&#45;&gt;Node1 -->
<g id="edge3" class="edge">
<title>Node4&#45;&gt;Node1</title>
<path fill="none" stroke="midnightblue" d="M106.89,-85.37C102.06,-76.11 96.95,-66.32 92.39,-57.58"/>
<polygon fill="none" stroke="midnightblue" points="103.87,-87.15 111.6,-94.4 110.08,-83.91 103.87,-87.15"/>
</g>
<!-- Node5&#45;&gt;Node4 -->
<g id="edge4" class="edge">
<title>Node5&#45;&gt;Node4</title>
<path fill="none" stroke="midnightblue" d="M122.46,-178.21C123.05,-169.29 123.66,-159.95 124.2,-151.58"/>
<polygon fill="none" stroke="midnightblue" points="118.96,-178.19 121.8,-188.4 125.94,-178.65 118.96,-178.19"/>
</g>
</g>
</svg>
