<?xml version="1.0" encoding="UTF-8" standalone="no"?>
<!DOCTYPE svg PUBLIC "-//W3C//DTD SVG 1.1//EN"
 "http://www.w3.org/Graphics/SVG/1.1/DTD/svg11.dtd">
<!-- Generated by graphviz version 2.50.0 (20220203.2022)
 -->
<!-- Title: CommandPool::create Pages: 1 -->
<svg width="713pt" height="187pt"
 viewBox="0.00 0.00 713.00 187.00" xmlns="http://www.w3.org/2000/svg" xmlns:xlink="http://www.w3.org/1999/xlink">
<g id="graph0" class="graph" transform="scale(1 1) rotate(0) translate(4 183)">
<title>CommandPool::create</title>
<!-- Node1 -->
<g id="node1" class="node">
<title>Node1</title>
<g id="a_node1"><a xlink:title=" ">
<polygon fill="#bfbfbf" stroke="black" points="593,-66.5 593,-85.5 705,-85.5 705,-66.5 593,-66.5"/>
<text text-anchor="middle" x="649" y="-73.5" font-family="Helvetica,sans-Serif" font-size="10.00">CommandPool::create</text>
</a>
</g>
</g>
<!-- Node2 -->
<g id="node2" class="node">
<title>Node2</title>
<g id="a_node2"><a xlink:href="class_scene.html#a26c330284ae1b40d737ac9360cfc61e3" target="_top" xlink:title=" ">
<polygon fill="none" stroke="black" points="438.5,-88.5 438.5,-107.5 514.5,-107.5 514.5,-88.5 438.5,-88.5"/>
<text text-anchor="middle" x="476.5" y="-95.5" font-family="Helvetica,sans-Serif" font-size="10.00">Scene::create</text>
</a>
</g>
</g>
<!-- Node1&#45;&gt;Node2 -->
<g id="edge1" class="edge">
<title>Node1&#45;&gt;Node2</title>
<path fill="none" stroke="midnightblue" d="M582.57,-84.44C559.53,-87.42 534.45,-90.65 514.57,-93.22"/>
<polygon fill="midnightblue" stroke="midnightblue" points="583.17,-87.89 592.64,-83.14 582.28,-80.95 583.17,-87.89"/>
</g>
<!-- Node7 -->
<g id="node7" class="node">
<title>Node7</title>
<g id="a_node7"><a xlink:href="class_mandelbrot_app.html#aef0e6061890a496c1571ffceb502fcd6" target="_top" xlink:title=" ">
<polygon fill="none" stroke="black" points="183,-159.5 183,-178.5 360,-178.5 360,-159.5 183,-159.5"/>
<text text-anchor="middle" x="271.5" y="-166.5" font-family="Helvetica,sans-Serif" font-size="10.00">MandelbrotApp::createCommandPool</text>
</a>
</g>
</g>
<!-- Node1&#45;&gt;Node7 -->
<g id="edge6" class="edge">
<title>Node1&#45;&gt;Node7</title>
<path fill="none" stroke="midnightblue" d="M620.86,-90.32C603.12,-99.16 579.19,-110.08 557,-117 490.01,-137.87 411.37,-151.45 353.77,-159.48"/>
<polygon fill="midnightblue" stroke="midnightblue" points="622.7,-93.31 630.04,-85.67 619.53,-87.07 622.7,-93.31"/>
</g>
<!-- Node8 -->
<g id="node8" class="node">
<title>Node8</title>
<g id="a_node8"><a xlink:href="class_render_manager.html#a65e7a5c0a757d951516b3a207dbb19db" target="_top" xlink:title=" ">
<polygon fill="none" stroke="black" points="396,-39 396,-69 557,-69 557,-39 396,-39"/>
<text text-anchor="start" x="404" y="-57" font-family="Helvetica,sans-Serif" font-size="10.00">RenderManager::createCommand</text>
<text text-anchor="middle" x="476.5" y="-46" font-family="Helvetica,sans-Serif" font-size="10.00">Pools</text>
</a>
</g>
</g>
<!-- Node1&#45;&gt;Node8 -->
<g id="edge8" class="edge">
<title>Node1&#45;&gt;Node8</title>
<path fill="none" stroke="midnightblue" d="M582.6,-67.56C574.23,-66.48 565.6,-65.37 557.04,-64.26"/>
<polygon fill="midnightblue" stroke="midnightblue" points="582.28,-71.05 592.64,-68.86 583.17,-64.11 582.28,-71.05"/>
</g>
<!-- Node9 -->
<g id="node9" class="node">
<title>Node9</title>
<g id="a_node9"><a xlink:href="vulkan__voxel__rasterizer_8cpp.html#ae66f6b31b5ad750f1fe042a706a4e3d4" target="_top" xlink:title=" ">
<polygon fill="none" stroke="black" points="457.5,-0.5 457.5,-19.5 495.5,-19.5 495.5,-0.5 457.5,-0.5"/>
<text text-anchor="middle" x="476.5" y="-7.5" font-family="Helvetica,sans-Serif" font-size="10.00">main</text>
</a>
</g>
</g>
<!-- Node1&#45;&gt;Node9 -->
<g id="edge10" class="edge">
<title>Node1&#45;&gt;Node9</title>
<path fill="none" stroke="midnightblue" d="M623.77,-61.43C605.85,-51.17 580.56,-37.75 557,-29 536.51,-21.39 511.91,-16.06 495.55,-13.02"/>
<polygon fill="midnightblue" stroke="midnightblue" points="622.02,-64.46 632.43,-66.47 625.54,-58.41 622.02,-64.46"/>
</g>
<!-- Node3 -->
<g id="node3" class="node">
<title>Node3</title>
<g id="a_node3"><a xlink:href="class_mandelbrot_app.html#a9adbc757b127cc20ef8fe983bd29ebbb" target="_top" xlink:title=" ">
<polygon fill="none" stroke="black" points="201,-121.5 201,-140.5 342,-140.5 342,-121.5 201,-121.5"/>
<text text-anchor="middle" x="271.5" y="-128.5" font-family="Helvetica,sans-Serif" font-size="10.00">MandelbrotApp::createScene</text>
</a>
</g>
</g>
<!-- Node2&#45;&gt;Node3 -->
<g id="edge2" class="edge">
<title>Node2&#45;&gt;Node3</title>
<path fill="none" stroke="midnightblue" d="M428.38,-105.66C399.36,-110.38 361.93,-116.46 331.02,-121.49"/>
<polygon fill="midnightblue" stroke="midnightblue" points="428.96,-109.11 438.27,-104.05 427.83,-102.2 428.96,-109.11"/>
</g>
<!-- Node5 -->
<g id="node5" class="node">
<title>Node5</title>
<g id="a_node5"><a xlink:href="class_render_manager.html#a34e5f071f12097fbc5e950651dcce086" target="_top" xlink:title=" ">
<polygon fill="none" stroke="black" points="199.5,-72 199.5,-102 343.5,-102 343.5,-72 199.5,-72"/>
<text text-anchor="start" x="207.5" y="-90" font-family="Helvetica,sans-Serif" font-size="10.00">RenderManager::createScene</text>
<text text-anchor="middle" x="271.5" y="-79" font-family="Helvetica,sans-Serif" font-size="10.00">Objects</text>
</a>
</g>
</g>
<!-- Node2&#45;&gt;Node5 -->
<g id="edge4" class="edge">
<title>Node2&#45;&gt;Node5</title>
<path fill="none" stroke="midnightblue" d="M428.25,-95.44C403.09,-94.08 371.64,-92.37 343.59,-90.85"/>
<polygon fill="midnightblue" stroke="midnightblue" points="428.09,-98.94 438.27,-95.98 428.47,-91.95 428.09,-98.94"/>
</g>
<!-- Node4 -->
<g id="node4" class="node">
<title>Node4</title>
<g id="a_node4"><a xlink:href="class_mandelbrot_app.html#ad5c4a7e7fd79bc75fea87df0165005b6" target="_top" xlink:title=" ">
<polygon fill="none" stroke="black" points="9,-132.5 9,-151.5 138,-151.5 138,-132.5 9,-132.5"/>
<text text-anchor="middle" x="73.5" y="-139.5" font-family="Helvetica,sans-Serif" font-size="10.00">MandelbrotApp::initVulkan</text>
</a>
</g>
</g>
<!-- Node3&#45;&gt;Node4 -->
<g id="edge3" class="edge">
<title>Node3&#45;&gt;Node4</title>
<path fill="none" stroke="midnightblue" d="M190.64,-135.48C173.13,-136.46 154.82,-137.49 138.05,-138.43"/>
<polygon fill="midnightblue" stroke="midnightblue" points="191.06,-138.96 200.85,-134.91 190.67,-131.98 191.06,-138.96"/>
</g>
<!-- Node6 -->
<g id="node6" class="node">
<title>Node6</title>
<g id="a_node6"><a xlink:href="class_render_manager.html#a2f5991e4b82925a2571e6fabf1e8b7b9" target="_top" xlink:title=" ">
<polygon fill="none" stroke="black" points="0,-61 0,-91 147,-91 147,-61 0,-61"/>
<text text-anchor="start" x="8" y="-79" font-family="Helvetica,sans-Serif" font-size="10.00">RenderManager::createRender</text>
<text text-anchor="middle" x="73.5" y="-68" font-family="Helvetica,sans-Serif" font-size="10.00">Objects</text>
</a>
</g>
</g>
<!-- Node5&#45;&gt;Node6 -->
<g id="edge5" class="edge">
<title>Node5&#45;&gt;Node6</title>
<path fill="none" stroke="midnightblue" d="M189.4,-82.45C175.43,-81.66 161,-80.85 147.27,-80.08"/>
<polygon fill="midnightblue" stroke="midnightblue" points="189.28,-85.95 199.46,-83.01 189.67,-78.96 189.28,-85.95"/>
</g>
<!-- Node7&#45;&gt;Node4 -->
<g id="edge7" class="edge">
<title>Node7&#45;&gt;Node4</title>
<path fill="none" stroke="midnightblue" d="M191.12,-158.07C173.47,-155.63 154.98,-153.09 138.07,-150.76"/>
<polygon fill="midnightblue" stroke="midnightblue" points="191.01,-161.58 201.4,-159.48 191.97,-154.65 191.01,-161.58"/>
</g>
<!-- Node8&#45;&gt;Node6 -->
<g id="edge9" class="edge">
<title>Node8&#45;&gt;Node6</title>
<path fill="none" stroke="midnightblue" d="M385.71,-54.11C327.78,-54.76 250.84,-56.71 183,-62 171.35,-62.91 159.04,-64.19 147.06,-65.61"/>
<polygon fill="midnightblue" stroke="midnightblue" points="385.97,-57.61 395.93,-54.01 385.9,-50.61 385.97,-57.61"/>
</g>
</g>
</svg>
