<?xml version="1.0" encoding="UTF-8" standalone="no"?>
<!DOCTYPE svg PUBLIC "-//W3C//DTD SVG 1.1//EN"
 "http://www.w3.org/Graphics/SVG/1.1/DTD/svg11.dtd">
<!-- Generated by graphviz version 2.49.3 (20211215.1918)
 -->
<!-- Title: Material Pages: 1 -->
<svg width="130pt" height="336pt"
 viewBox="0.00 0.00 130.00 336.00" xmlns="http://www.w3.org/2000/svg" xmlns:xlink="http://www.w3.org/1999/xlink">
<g id="graph0" class="graph" transform="scale(1 1) rotate(0) translate(4 332)">
<title>Material</title>
<!-- Node1 -->
<g id="node1" class="node">
<title>Node1</title>
<g id="a_node1"><a xlink:title=" ">
<polygon fill="#bfbfbf" stroke="black" points="6.5,-0.5 6.5,-90.5 115.5,-90.5 115.5,-0.5 6.5,-0.5"/>
<text text-anchor="middle" x="61" y="-78.5" font-family="Helvetica,sans-Serif" font-size="10.00">Material</text>
<polyline fill="none" stroke="black" points="6.5,-71.5 115.5,-71.5 "/>
<text text-anchor="start" x="14.5" y="-59.5" font-family="Helvetica,sans-Serif" font-size="10.00">&#45; masterMaterial</text>
<text text-anchor="start" x="14.5" y="-48.5" font-family="Helvetica,sans-Serif" font-size="10.00">&#45; materialSet</text>
<polyline fill="none" stroke="black" points="6.5,-41.5 115.5,-41.5 "/>
<text text-anchor="start" x="14.5" y="-29.5" font-family="Helvetica,sans-Serif" font-size="10.00">+ getParameters()</text>
<text text-anchor="start" x="14.5" y="-18.5" font-family="Helvetica,sans-Serif" font-size="10.00">+ getMasterMaterial()</text>
<text text-anchor="start" x="14.5" y="-7.5" font-family="Helvetica,sans-Serif" font-size="10.00">+ getDescriptorSet()</text>
</a>
</g>
</g>
<!-- Node2 -->
<g id="node2" class="node">
<title>Node2</title>
<g id="a_node2"><a xlink:href="struct_p_b_r_material_parameters.html" target="_top" xlink:title=" ">
<polygon fill="none" stroke="black" points="0,-138.5 0,-327.5 122,-327.5 122,-138.5 0,-138.5"/>
<text text-anchor="middle" x="61" y="-315.5" font-family="Helvetica,sans-Serif" font-size="10.00">PBRMaterialParameters</text>
<polyline fill="none" stroke="black" points="0,-308.5 122,-308.5 "/>
<text text-anchor="start" x="8" y="-296.5" font-family="Helvetica,sans-Serif" font-size="10.00">+ materialIndex</text>
<text text-anchor="start" x="8" y="-285.5" font-family="Helvetica,sans-Serif" font-size="10.00">+ diffuse</text>
<text text-anchor="start" x="8" y="-274.5" font-family="Helvetica,sans-Serif" font-size="10.00">+ emission</text>
<text text-anchor="start" x="8" y="-263.5" font-family="Helvetica,sans-Serif" font-size="10.00">+ normal</text>
<text text-anchor="start" x="8" y="-252.5" font-family="Helvetica,sans-Serif" font-size="10.00">+ transparency</text>
<text text-anchor="start" x="8" y="-241.5" font-family="Helvetica,sans-Serif" font-size="10.00">+ roughness</text>
<text text-anchor="start" x="8" y="-230.5" font-family="Helvetica,sans-Serif" font-size="10.00">+ metallic</text>
<text text-anchor="start" x="8" y="-219.5" font-family="Helvetica,sans-Serif" font-size="10.00">+ specular</text>
<text text-anchor="start" x="8" y="-208.5" font-family="Helvetica,sans-Serif" font-size="10.00">+ sheen</text>
<text text-anchor="start" x="8" y="-197.5" font-family="Helvetica,sans-Serif" font-size="10.00">+ clearCoatThickness</text>
<text text-anchor="start" x="8" y="-186.5" font-family="Helvetica,sans-Serif" font-size="10.00">+ clearCoatRoughness</text>
<text text-anchor="start" x="8" y="-175.5" font-family="Helvetica,sans-Serif" font-size="10.00">+ anisotropy</text>
<text text-anchor="start" x="8" y="-164.5" font-family="Helvetica,sans-Serif" font-size="10.00">+ anisotropyRotation</text>
<polyline fill="none" stroke="black" points="0,-157.5 122,-157.5 "/>
<text text-anchor="middle" x="61" y="-145.5" font-family="Helvetica,sans-Serif" font-size="10.00"> </text>
</a>
</g>
</g>
<!-- Node2&#45;&gt;Node1 -->
<g id="edge1" class="edge">
<title>Node2&#45;&gt;Node1</title>
<path fill="none" stroke="#404040" d="M61,-138.43C61,-126.4 61,-114.38 61,-103.19"/>
<polygon fill="none" stroke="#404040" points="61,-102.95 57,-96.95 61,-90.95 65,-96.95 61,-102.95"/>
<text text-anchor="middle" x="88.5" y="-112" font-family="Helvetica,sans-Serif" font-size="10.00"> &#45;parameters</text>
</g>
</g>
</svg>
