<?xml version="1.0" encoding="UTF-8" standalone="no"?>
<!DOCTYPE svg PUBLIC "-//W3C//DTD SVG 1.1//EN"
 "http://www.w3.org/Graphics/SVG/1.1/DTD/svg11.dtd">
<!-- Generated by graphviz version 2.49.3 (20211215.1918)
 -->
<!-- Title: MandelbrotApp::createGraphicsPipeline Pages: 1 -->
<svg width="509pt" height="148pt"
 viewBox="0.00 0.00 509.00 147.50" xmlns="http://www.w3.org/2000/svg" xmlns:xlink="http://www.w3.org/1999/xlink">
<g id="graph0" class="graph" transform="scale(1 1) rotate(0) translate(4 143.5)">
<title>MandelbrotApp::createGraphicsPipeline</title>
<!-- Node1 -->
<g id="node1" class="node">
<title>Node1</title>
<g id="a_node1"><a xlink:title=" ">
<polygon fill="#bfbfbf" stroke="black" points="0,-57.5 0,-87.5 152,-87.5 152,-57.5 0,-57.5"/>
<text text-anchor="start" x="8" y="-75.5" font-family="Helvetica,sans-Serif" font-size="10.00">MandelbrotApp::createGraphics</text>
<text text-anchor="middle" x="76" y="-64.5" font-family="Helvetica,sans-Serif" font-size="10.00">Pipeline</text>
</a>
</g>
</g>
<!-- Node2 -->
<g id="node2" class="node">
<title>Node2</title>
<g id="a_node2"><a xlink:href="class_graphics_pipeline.html#a7799f144680f1c6370cd093b7e19814d" target="_top" xlink:title=" ">
<polygon fill="none" stroke="black" points="188,-120 188,-139 310,-139 310,-120 188,-120"/>
<text text-anchor="middle" x="249" y="-127" font-family="Helvetica,sans-Serif" font-size="10.00">GraphicsPipeline::create</text>
</a>
</g>
</g>
<!-- Node1&#45;&gt;Node2 -->
<g id="edge1" class="edge">
<title>Node1&#45;&gt;Node2</title>
<path fill="none" stroke="midnightblue" d="M120.15,-87.53C140.66,-94.61 165.56,-103.11 188,-110.5 194.41,-112.61 201.23,-114.81 207.88,-116.94"/>
<polygon fill="midnightblue" stroke="midnightblue" points="206.84,-120.28 217.43,-119.97 208.96,-113.61 206.84,-120.28"/>
</g>
<!-- Node3 -->
<g id="node3" class="node">
<title>Node3</title>
<g id="a_node3"><a xlink:href="class_vertex_shader.html#a5210d098175734531886d9e5b1741f8e" target="_top" xlink:title=" ">
<polygon fill="none" stroke="black" points="195.5,-82 195.5,-101 302.5,-101 302.5,-82 195.5,-82"/>
<text text-anchor="middle" x="249" y="-89" font-family="Helvetica,sans-Serif" font-size="10.00">VertexShader::create</text>
</a>
</g>
</g>
<!-- Node1&#45;&gt;Node3 -->
<g id="edge2" class="edge">
<title>Node1&#45;&gt;Node3</title>
<path fill="none" stroke="midnightblue" d="M152,-80.83C163.09,-82.07 174.41,-83.32 185.21,-84.52"/>
<polygon fill="midnightblue" stroke="midnightblue" points="185.06,-88.03 195.39,-85.65 185.83,-81.07 185.06,-88.03"/>
</g>
<!-- Node4 -->
<g id="node4" class="node">
<title>Node4</title>
<g id="a_node4"><a xlink:href="class_fragment_shader.html#a1221d3fb805310bb64a01e032e794d0b" target="_top" xlink:title=" ">
<polygon fill="none" stroke="black" points="189,-44 189,-63 309,-63 309,-44 189,-44"/>
<text text-anchor="middle" x="249" y="-51" font-family="Helvetica,sans-Serif" font-size="10.00">FragmentShader::create</text>
</a>
</g>
</g>
<!-- Node1&#45;&gt;Node4 -->
<g id="edge3" class="edge">
<title>Node1&#45;&gt;Node4</title>
<path fill="none" stroke="midnightblue" d="M152,-64.17C160.9,-63.18 169.96,-62.17 178.77,-61.19"/>
<polygon fill="midnightblue" stroke="midnightblue" points="179.44,-64.64 188.99,-60.06 178.66,-57.68 179.44,-64.64"/>
</g>
<!-- Node5 -->
<g id="node5" class="node">
<title>Node5</title>
<g id="a_node5"><a xlink:href="class_pipeline_layout.html#ab31235616dfb75c9dba21610bd65773d" target="_top" xlink:title=" ">
<polygon fill="none" stroke="black" points="193,-6 193,-25 305,-25 305,-6 193,-6"/>
<text text-anchor="middle" x="249" y="-13" font-family="Helvetica,sans-Serif" font-size="10.00">PipelineLayout::create</text>
</a>
</g>
</g>
<!-- Node1&#45;&gt;Node5 -->
<g id="edge4" class="edge">
<title>Node1&#45;&gt;Node5</title>
<path fill="none" stroke="midnightblue" d="M120.15,-57.47C140.66,-50.39 165.56,-41.89 188,-34.5 194.41,-32.39 201.23,-30.19 207.88,-28.06"/>
<polygon fill="midnightblue" stroke="midnightblue" points="208.96,-31.39 217.43,-25.03 206.84,-24.72 208.96,-31.39"/>
</g>
<!-- Node6 -->
<g id="node6" class="node">
<title>Node6</title>
<g id="a_node6"><a xlink:href="class_vulkan_class.html#a914c142e905262efbd473aeb5bdfb0e8" target="_top" xlink:title=" ">
<polygon fill="none" stroke="black" points="346,-0.5 346,-30.5 501,-30.5 501,-0.5 346,-0.5"/>
<text text-anchor="start" x="354" y="-18.5" font-family="Helvetica,sans-Serif" font-size="10.00">VulkanClass&lt; VkPipelineLayout</text>
<text text-anchor="middle" x="423.5" y="-7.5" font-family="Helvetica,sans-Serif" font-size="10.00"> &gt;::getHandle</text>
</a>
</g>
</g>
<!-- Node5&#45;&gt;Node6 -->
<g id="edge5" class="edge">
<title>Node5&#45;&gt;Node6</title>
<path fill="none" stroke="midnightblue" d="M305.05,-15.5C314.92,-15.5 325.41,-15.5 335.91,-15.5"/>
<polygon fill="midnightblue" stroke="midnightblue" points="335.96,-19 345.96,-15.5 335.96,-12 335.96,-19"/>
</g>
</g>
</svg>
