<?xml version="1.0" encoding="UTF-8" standalone="no"?>
<!DOCTYPE svg PUBLIC "-//W3C//DTD SVG 1.1//EN"
 "http://www.w3.org/Graphics/SVG/1.1/DTD/svg11.dtd">
<!-- Generated by graphviz version 2.49.3 (20211215.1918)
 -->
<!-- Title: DescriptorPoolManager::create Pages: 1 -->
<svg width="580pt" height="39pt"
 viewBox="0.00 0.00 580.00 39.00" xmlns="http://www.w3.org/2000/svg" xmlns:xlink="http://www.w3.org/1999/xlink">
<g id="graph0" class="graph" transform="scale(1 1) rotate(0) translate(4 35)">
<title>DescriptorPoolManager::create</title>
<!-- Node1 -->
<g id="node1" class="node">
<title>Node1</title>
<g id="a_node1"><a xlink:title=" ">
<polygon fill="#bfbfbf" stroke="black" points="454,-0.5 454,-30.5 572,-30.5 572,-0.5 454,-0.5"/>
<text text-anchor="start" x="462" y="-18.5" font-family="Helvetica,sans-Serif" font-size="10.00">DescriptorPoolManager</text>
<text text-anchor="middle" x="513" y="-7.5" font-family="Helvetica,sans-Serif" font-size="10.00">::create</text>
</a>
</g>
</g>
<!-- Node2 -->
<g id="node2" class="node">
<title>Node2</title>
<g id="a_node2"><a xlink:href="class_scene.html#a26c330284ae1b40d737ac9360cfc61e3" target="_top" xlink:title=" ">
<polygon fill="none" stroke="black" points="342,-6 342,-25 418,-25 418,-6 342,-6"/>
<text text-anchor="middle" x="380" y="-13" font-family="Helvetica,sans-Serif" font-size="10.00">Scene::create</text>
</a>
</g>
</g>
<!-- Node1&#45;&gt;Node2 -->
<g id="edge1" class="edge">
<title>Node1&#45;&gt;Node2</title>
<path fill="none" stroke="midnightblue" d="M443.59,-15.5C434.9,-15.5 426.29,-15.5 418.35,-15.5"/>
<polygon fill="midnightblue" stroke="midnightblue" points="443.78,-19 453.78,-15.5 443.78,-12 443.78,-19"/>
</g>
<!-- Node3 -->
<g id="node3" class="node">
<title>Node3</title>
<g id="a_node3"><a xlink:href="class_mandelbrot_app.html#a9adbc757b127cc20ef8fe983bd29ebbb" target="_top" xlink:title=" ">
<polygon fill="none" stroke="black" points="165,-6 165,-25 306,-25 306,-6 165,-6"/>
<text text-anchor="middle" x="235.5" y="-13" font-family="Helvetica,sans-Serif" font-size="10.00">MandelbrotApp::createScene</text>
</a>
</g>
</g>
<!-- Node2&#45;&gt;Node3 -->
<g id="edge2" class="edge">
<title>Node2&#45;&gt;Node3</title>
<path fill="none" stroke="midnightblue" d="M331.83,-15.5C323.62,-15.5 314.92,-15.5 306.26,-15.5"/>
<polygon fill="midnightblue" stroke="midnightblue" points="331.93,-19 341.93,-15.5 331.93,-12 331.93,-19"/>
</g>
<!-- Node4 -->
<g id="node4" class="node">
<title>Node4</title>
<g id="a_node4"><a xlink:href="class_mandelbrot_app.html#ad5c4a7e7fd79bc75fea87df0165005b6" target="_top" xlink:title=" ">
<polygon fill="none" stroke="black" points="0,-6 0,-25 129,-25 129,-6 0,-6"/>
<text text-anchor="middle" x="64.5" y="-13" font-family="Helvetica,sans-Serif" font-size="10.00">MandelbrotApp::initVulkan</text>
</a>
</g>
</g>
<!-- Node3&#45;&gt;Node4 -->
<g id="edge3" class="edge">
<title>Node3&#45;&gt;Node4</title>
<path fill="none" stroke="midnightblue" d="M154.74,-15.5C146.14,-15.5 137.47,-15.5 129.09,-15.5"/>
<polygon fill="midnightblue" stroke="midnightblue" points="154.79,-19 164.79,-15.5 154.79,-12 154.79,-19"/>
</g>
</g>
</svg>
