<?xml version="1.0" encoding="UTF-8" standalone="no"?>
<!DOCTYPE svg PUBLIC "-//W3C//DTD SVG 1.1//EN"
 "http://www.w3.org/Graphics/SVG/1.1/DTD/svg11.dtd">
<!-- Generated by graphviz version 2.49.3 (20211215.1918)
 -->
<!-- Title: Image::transferDataStaged Pages: 1 -->
<svg width="474pt" height="97pt"
 viewBox="0.00 0.00 474.00 96.50" xmlns="http://www.w3.org/2000/svg" xmlns:xlink="http://www.w3.org/1999/xlink">
<g id="graph0" class="graph" transform="scale(1 1) rotate(0) translate(4 92.5)">
<title>Image::transferDataStaged</title>
<!-- Node1 -->
<g id="node1" class="node">
<title>Node1</title>
<g id="a_node1"><a xlink:title=" ">
<polygon fill="#bfbfbf" stroke="black" points="0,-50 0,-69 132,-69 132,-50 0,-50"/>
<text text-anchor="middle" x="66" y="-57" font-family="Helvetica,sans-Serif" font-size="10.00">Image::transferDataStaged</text>
</a>
</g>
</g>
<!-- Node2 -->
<g id="node2" class="node">
<title>Node2</title>
<g id="a_node2"><a xlink:href="class_command_buffer.html#aa00b25bc626efb68b5dc810ea91cf41b" target="_top" xlink:title=" ">
<polygon fill="none" stroke="black" points="348,-69 348,-88 466,-88 466,-69 348,-69"/>
<text text-anchor="middle" x="407" y="-76" font-family="Helvetica,sans-Serif" font-size="10.00">CommandBuffer::create</text>
</a>
</g>
</g>
<!-- Node1&#45;&gt;Node2 -->
<g id="edge1" class="edge">
<title>Node1&#45;&gt;Node2</title>
<path fill="none" stroke="midnightblue" d="M108.03,-69.01C126.28,-72.78 148.1,-76.64 168,-78.5 224.92,-83.81 289.83,-83.38 337.46,-81.86"/>
<polygon fill="midnightblue" stroke="midnightblue" points="337.79,-85.35 347.66,-81.51 337.55,-78.36 337.79,-85.35"/>
</g>
<!-- Node3 -->
<g id="node3" class="node">
<title>Node3</title>
<g id="a_node3"><a xlink:href="class_image.html#af095751a373294bb12ccda1727e671a7" target="_top" xlink:title=" ">
<polygon fill="none" stroke="black" points="175.5,-0.5 175.5,-30.5 304.5,-30.5 304.5,-0.5 175.5,-0.5"/>
<text text-anchor="start" x="183.5" y="-18.5" font-family="Helvetica,sans-Serif" font-size="10.00">Image::createHostStaging</text>
<text text-anchor="middle" x="240" y="-7.5" font-family="Helvetica,sans-Serif" font-size="10.00">Image</text>
</a>
</g>
</g>
<!-- Node1&#45;&gt;Node3 -->
<g id="edge2" class="edge">
<title>Node1&#45;&gt;Node3</title>
<path fill="none" stroke="midnightblue" d="M104.32,-49.95C123.6,-45.02 147.75,-38.84 170.25,-33.09"/>
<polygon fill="midnightblue" stroke="midnightblue" points="171.29,-36.43 180.11,-30.57 169.55,-29.65 171.29,-36.43"/>
</g>
<!-- Node5 -->
<g id="node5" class="node">
<title>Node5</title>
<g id="a_node5"><a xlink:href="class_image.html#a47982512223ea89e7ab54f535dd55995" target="_top" xlink:title=" ">
<polygon fill="none" stroke="black" points="168,-50 168,-69 312,-69 312,-50 168,-50"/>
<text text-anchor="middle" x="240" y="-57" font-family="Helvetica,sans-Serif" font-size="10.00">Image::transitionImageLayout</text>
</a>
</g>
</g>
<!-- Node1&#45;&gt;Node5 -->
<g id="edge4" class="edge">
<title>Node1&#45;&gt;Node5</title>
<path fill="none" stroke="midnightblue" d="M132.03,-59.5C140.44,-59.5 149.13,-59.5 157.76,-59.5"/>
<polygon fill="midnightblue" stroke="midnightblue" points="157.84,-63 167.84,-59.5 157.84,-56 157.84,-63"/>
</g>
<!-- Node4 -->
<g id="node4" class="node">
<title>Node4</title>
<g id="a_node4"><a xlink:href="class_image.html#a729f597dc28bd5261b1860643ed9513f" target="_top" xlink:title=" ">
<polygon fill="none" stroke="black" points="369.5,-6 369.5,-25 444.5,-25 444.5,-6 369.5,-6"/>
<text text-anchor="middle" x="407" y="-13" font-family="Helvetica,sans-Serif" font-size="10.00">Image::create</text>
</a>
</g>
</g>
<!-- Node3&#45;&gt;Node4 -->
<g id="edge3" class="edge">
<title>Node3&#45;&gt;Node4</title>
<path fill="none" stroke="midnightblue" d="M304.79,-15.5C322.82,-15.5 342.1,-15.5 358.94,-15.5"/>
<polygon fill="midnightblue" stroke="midnightblue" points="359.09,-19 369.09,-15.5 359.09,-12 359.09,-19"/>
</g>
<!-- Node5&#45;&gt;Node2 -->
<g id="edge5" class="edge">
<title>Node5&#45;&gt;Node2</title>
<path fill="none" stroke="midnightblue" d="M312.41,-67.72C320.83,-68.69 329.41,-69.68 337.79,-70.65"/>
<polygon fill="midnightblue" stroke="midnightblue" points="337.54,-74.14 347.88,-71.81 338.34,-67.19 337.54,-74.14"/>
</g>
</g>
</svg>
