<?xml version="1.0" encoding="UTF-8" standalone="no"?>
<!DOCTYPE svg PUBLIC "-//W3C//DTD SVG 1.1//EN"
 "http://www.w3.org/Graphics/SVG/1.1/DTD/svg11.dtd">
<!-- Generated by graphviz version 2.50.0 (20220203.2022)
 -->
<!-- Title: Semaphore::create Pages: 1 -->
<svg width="656pt" height="140pt"
 viewBox="0.00 0.00 656.00 139.50" xmlns="http://www.w3.org/2000/svg" xmlns:xlink="http://www.w3.org/1999/xlink">
<g id="graph0" class="graph" transform="scale(1 1) rotate(0) translate(4 135.5)">
<title>Semaphore::create</title>
<!-- Node1 -->
<g id="node1" class="node">
<title>Node1</title>
<g id="a_node1"><a xlink:title=" ">
<polygon fill="#bfbfbf" stroke="black" points="550,-38.5 550,-57.5 648,-57.5 648,-38.5 550,-38.5"/>
<text text-anchor="middle" x="599" y="-45.5" font-family="Helvetica,sans-Serif" font-size="10.00">Semaphore::create</text>
</a>
</g>
</g>
<!-- Node2 -->
<g id="node2" class="node">
<title>Node2</title>
<g id="a_node2"><a xlink:href="class_render_manager.html#a45a6fffe5f74da37695476732b53d33b" target="_top" xlink:title=" ">
<polygon fill="none" stroke="black" points="369,-77 369,-107 506,-107 506,-77 369,-77"/>
<text text-anchor="start" x="377" y="-95" font-family="Helvetica,sans-Serif" font-size="10.00">RenderManager::createPost</text>
<text text-anchor="middle" x="437.5" y="-84" font-family="Helvetica,sans-Serif" font-size="10.00">ProcessingPipelines</text>
</a>
</g>
</g>
<!-- Node1&#45;&gt;Node2 -->
<g id="edge1" class="edge">
<title>Node1&#45;&gt;Node2</title>
<path fill="none" stroke="midnightblue" d="M553.63,-60.24C534.88,-65.41 512.85,-71.49 493.11,-76.93"/>
<polygon fill="midnightblue" stroke="midnightblue" points="554.68,-63.58 563.39,-57.55 552.82,-56.83 554.68,-63.58"/>
</g>
<!-- Node6 -->
<g id="node6" class="node">
<title>Node6</title>
<g id="a_node6"><a xlink:href="class_swap_chain.html#a6d91946c6d165cb548a331a249e30157" target="_top" xlink:title=" ">
<polygon fill="none" stroke="black" points="361,-38.5 361,-57.5 514,-57.5 514,-38.5 361,-38.5"/>
<text text-anchor="middle" x="437.5" y="-45.5" font-family="Helvetica,sans-Serif" font-size="10.00">SwapChain::createSyncObjects</text>
</a>
</g>
</g>
<!-- Node1&#45;&gt;Node6 -->
<g id="edge5" class="edge">
<title>Node1&#45;&gt;Node6</title>
<path fill="none" stroke="midnightblue" d="M539.71,-48C531.35,-48 522.65,-48 514.01,-48"/>
<polygon fill="midnightblue" stroke="midnightblue" points="539.71,-51.5 549.71,-48 539.71,-44.5 539.71,-51.5"/>
</g>
<!-- Node7 -->
<g id="node7" class="node">
<title>Node7</title>
<g id="a_node7"><a xlink:href="vulkan__voxel__rasterizer_8cpp.html#ae66f6b31b5ad750f1fe042a706a4e3d4" target="_top" xlink:title=" ">
<polygon fill="none" stroke="black" points="418.5,-0.5 418.5,-19.5 456.5,-19.5 456.5,-0.5 418.5,-0.5"/>
<text text-anchor="middle" x="437.5" y="-7.5" font-family="Helvetica,sans-Serif" font-size="10.00">main</text>
</a>
</g>
</g>
<!-- Node1&#45;&gt;Node7 -->
<g id="edge6" class="edge">
<title>Node1&#45;&gt;Node7</title>
<path fill="none" stroke="midnightblue" d="M547.93,-36.07C516.83,-28.66 478.7,-19.58 456.64,-14.32"/>
<polygon fill="midnightblue" stroke="midnightblue" points="547.21,-39.5 557.75,-38.41 548.83,-32.69 547.21,-39.5"/>
</g>
<!-- Node3 -->
<g id="node3" class="node">
<title>Node3</title>
<g id="a_node3"><a xlink:href="class_render_manager.html#a2f5991e4b82925a2571e6fabf1e8b7b9" target="_top" xlink:title=" ">
<polygon fill="none" stroke="black" points="177,-101 177,-131 324,-131 324,-101 177,-101"/>
<text text-anchor="start" x="185" y="-119" font-family="Helvetica,sans-Serif" font-size="10.00">RenderManager::createRender</text>
<text text-anchor="middle" x="250.5" y="-108" font-family="Helvetica,sans-Serif" font-size="10.00">Objects</text>
</a>
</g>
</g>
<!-- Node2&#45;&gt;Node3 -->
<g id="edge2" class="edge">
<title>Node2&#45;&gt;Node3</title>
<path fill="none" stroke="midnightblue" d="M358.91,-102.07C347.41,-103.56 335.59,-105.09 324.19,-106.57"/>
<polygon fill="midnightblue" stroke="midnightblue" points="359.46,-105.52 368.93,-100.77 358.56,-98.58 359.46,-105.52"/>
</g>
<!-- Node4 -->
<g id="node4" class="node">
<title>Node4</title>
<g id="a_node4"><a xlink:href="class_render_manager.html#a3e54c122912e1b713b2f6357cdc370fb" target="_top" xlink:title=" ">
<polygon fill="none" stroke="black" points="176,-52 176,-82 325,-82 325,-52 176,-52"/>
<text text-anchor="start" x="184" y="-70" font-family="Helvetica,sans-Serif" font-size="10.00">RenderManager::recreateSwap</text>
<text text-anchor="middle" x="250.5" y="-59" font-family="Helvetica,sans-Serif" font-size="10.00">Chain</text>
</a>
</g>
</g>
<!-- Node2&#45;&gt;Node4 -->
<g id="edge3" class="edge">
<title>Node2&#45;&gt;Node4</title>
<path fill="none" stroke="midnightblue" d="M358.79,-81.5C347.64,-79.99 336.2,-78.45 325.13,-76.95"/>
<polygon fill="midnightblue" stroke="midnightblue" points="358.55,-85 368.93,-82.87 359.48,-78.06 358.55,-85"/>
</g>
<!-- Node5 -->
<g id="node5" class="node">
<title>Node5</title>
<g id="a_node5"><a xlink:href="class_render_manager.html#ab087dc4ee1c6e377ca52ee44d1591c29" target="_top" xlink:title=" ">
<polygon fill="none" stroke="black" points="0,-52 0,-82 140,-82 140,-52 0,-52"/>
<text text-anchor="start" x="8" y="-70" font-family="Helvetica,sans-Serif" font-size="10.00">RenderManager::resizeSwap</text>
<text text-anchor="middle" x="70" y="-59" font-family="Helvetica,sans-Serif" font-size="10.00">Chain</text>
</a>
</g>
</g>
<!-- Node4&#45;&gt;Node5 -->
<g id="edge4" class="edge">
<title>Node4&#45;&gt;Node5</title>
<path fill="none" stroke="midnightblue" d="M165.83,-67C157.24,-67 148.57,-67 140.16,-67"/>
<polygon fill="midnightblue" stroke="midnightblue" points="165.87,-70.5 175.87,-67 165.87,-63.5 165.87,-70.5"/>
</g>
</g>
</svg>
