<?xml version="1.0" encoding="UTF-8" standalone="no"?>
<!DOCTYPE svg PUBLIC "-//W3C//DTD SVG 1.1//EN"
 "http://www.w3.org/Graphics/SVG/1.1/DTD/svg11.dtd">
<!-- Generated by graphviz version 2.49.3 (20211215.1918)
 -->
<!-- Title: Scene::create Pages: 1 -->
<svg width="348pt" height="241pt"
 viewBox="0.00 0.00 348.00 240.50" xmlns="http://www.w3.org/2000/svg" xmlns:xlink="http://www.w3.org/1999/xlink">
<g id="graph0" class="graph" transform="scale(1 1) rotate(0) translate(4 236.5)">
<title>Scene::create</title>
<!-- Node1 -->
<g id="node1" class="node">
<title>Node1</title>
<g id="a_node1"><a xlink:title=" ">
<polygon fill="#bfbfbf" stroke="black" points="0,-118 0,-137 76,-137 76,-118 0,-118"/>
<text text-anchor="middle" x="38" y="-125" font-family="Helvetica,sans-Serif" font-size="10.00">Scene::create</text>
</a>
</g>
</g>
<!-- Node2 -->
<g id="node2" class="node">
<title>Node2</title>
<g id="a_node2"><a xlink:href="class_command_buffer.html#a9958c7132a13830e7eff9bae57e5b570" target="_top" xlink:title=" ">
<polygon fill="none" stroke="black" points="112,-213 112,-232 230,-232 230,-213 112,-213"/>
<text text-anchor="middle" x="171" y="-220" font-family="Helvetica,sans-Serif" font-size="10.00">CommandBuffer::create</text>
</a>
</g>
</g>
<!-- Node1&#45;&gt;Node2 -->
<g id="edge1" class="edge">
<title>Node1&#45;&gt;Node2</title>
<path fill="none" stroke="midnightblue" d="M45.74,-137.12C57.43,-153.13 83.03,-185.3 112,-203.5 115.19,-205.51 118.62,-207.32 122.15,-208.96"/>
<polygon fill="midnightblue" stroke="midnightblue" points="121.09,-212.31 131.67,-212.9 123.77,-205.84 121.09,-212.31"/>
</g>
<!-- Node3 -->
<g id="node3" class="node">
<title>Node3</title>
<g id="a_node3"><a xlink:href="class_command_pool.html#a0c7b1a49862653552ece1efda2a73ae3" target="_top" xlink:title=" ">
<polygon fill="none" stroke="black" points="115,-175 115,-194 227,-194 227,-175 115,-175"/>
<text text-anchor="middle" x="171" y="-182" font-family="Helvetica,sans-Serif" font-size="10.00">CommandPool::create</text>
</a>
</g>
</g>
<!-- Node1&#45;&gt;Node3 -->
<g id="edge2" class="edge">
<title>Node1&#45;&gt;Node3</title>
<path fill="none" stroke="midnightblue" d="M55.44,-137.05C70,-145.26 91.98,-157.08 112,-165.5 117.13,-167.66 122.59,-169.73 128.04,-171.66"/>
<polygon fill="midnightblue" stroke="midnightblue" points="127.15,-175.05 137.75,-174.97 129.41,-168.43 127.15,-175.05"/>
</g>
<!-- Node4 -->
<g id="node4" class="node">
<title>Node4</title>
<g id="a_node4"><a xlink:href="class_uniform_buffer.html#af6e9fccc0b01def46120dbd93696778c" target="_top" xlink:title=" ">
<polygon fill="none" stroke="black" points="117,-137 117,-156 225,-156 225,-137 117,-137"/>
<text text-anchor="middle" x="171" y="-144" font-family="Helvetica,sans-Serif" font-size="10.00">UniformBuffer::create</text>
</a>
</g>
</g>
<!-- Node1&#45;&gt;Node4 -->
<g id="edge3" class="edge">
<title>Node1&#45;&gt;Node4</title>
<path fill="none" stroke="midnightblue" d="M76.19,-132.89C85.7,-134.27 96.21,-135.8 106.64,-137.31"/>
<polygon fill="midnightblue" stroke="midnightblue" points="106.18,-140.78 116.58,-138.75 107.19,-133.85 106.18,-140.78"/>
</g>
<!-- Node5 -->
<g id="node5" class="node">
<title>Node5</title>
<g id="a_node5"><a xlink:href="class_buffer.html#ada56adf4fb8b9548d654071c9746fc1f" target="_top" xlink:title=" ">
<polygon fill="none" stroke="black" points="266,-118 266,-137 340,-137 340,-118 266,-118"/>
<text text-anchor="middle" x="303" y="-125" font-family="Helvetica,sans-Serif" font-size="10.00">Buffer::create</text>
</a>
</g>
</g>
<!-- Node1&#45;&gt;Node5 -->
<g id="edge8" class="edge">
<title>Node1&#45;&gt;Node5</title>
<path fill="none" stroke="midnightblue" d="M76.12,-127.5C123.28,-127.5 204.67,-127.5 255.79,-127.5"/>
<polygon fill="midnightblue" stroke="midnightblue" points="255.91,-131 265.91,-127.5 255.91,-124 255.91,-131"/>
</g>
<!-- Node6 -->
<g id="node6" class="node">
<title>Node6</title>
<g id="a_node6"><a xlink:href="class_descriptor_pool_manager.html#ad93c0c73be9346ef8730618a976c54ea" target="_top" xlink:title=" ">
<polygon fill="none" stroke="black" points="112,-49.5 112,-79.5 230,-79.5 230,-49.5 112,-49.5"/>
<text text-anchor="start" x="120" y="-67.5" font-family="Helvetica,sans-Serif" font-size="10.00">DescriptorPoolManager</text>
<text text-anchor="middle" x="171" y="-56.5" font-family="Helvetica,sans-Serif" font-size="10.00">::create</text>
</a>
</g>
</g>
<!-- Node1&#45;&gt;Node6 -->
<g id="edge6" class="edge">
<title>Node1&#45;&gt;Node6</title>
<path fill="none" stroke="midnightblue" d="M58.9,-117.93C77.6,-108.94 106.15,-95.21 129.63,-83.92"/>
<polygon fill="midnightblue" stroke="midnightblue" points="131.18,-87.05 138.67,-79.57 128.15,-80.74 131.18,-87.05"/>
</g>
<!-- Node7 -->
<g id="node7" class="node">
<title>Node7</title>
<g id="a_node7"><a xlink:href="class_descriptor_set_layout.html#a1a2b657df46e6453f7a7a3d7863103c2" target="_top" xlink:title=" ">
<polygon fill="none" stroke="black" points="118.5,-0.5 118.5,-30.5 223.5,-30.5 223.5,-0.5 118.5,-0.5"/>
<text text-anchor="start" x="126.5" y="-18.5" font-family="Helvetica,sans-Serif" font-size="10.00">DescriptorSetLayout</text>
<text text-anchor="middle" x="171" y="-7.5" font-family="Helvetica,sans-Serif" font-size="10.00">::create</text>
</a>
</g>
</g>
<!-- Node1&#45;&gt;Node7 -->
<g id="edge7" class="edge">
<title>Node1&#45;&gt;Node7</title>
<path fill="none" stroke="midnightblue" d="M44.89,-117.87C56.02,-100.35 81.79,-62.98 112,-40.5 114.35,-38.75 116.84,-37.09 119.42,-35.53"/>
<polygon fill="midnightblue" stroke="midnightblue" points="121.36,-38.46 128.43,-30.57 117.99,-32.32 121.36,-38.46"/>
</g>
<!-- Node4&#45;&gt;Node5 -->
<g id="edge4" class="edge">
<title>Node4&#45;&gt;Node5</title>
<path fill="none" stroke="midnightblue" d="M225.25,-138.72C235.35,-137.24 245.83,-135.71 255.69,-134.27"/>
<polygon fill="midnightblue" stroke="midnightblue" points="256.31,-137.71 265.7,-132.81 255.3,-130.79 256.31,-137.71"/>
</g>
<!-- Node5&#45;&gt;Node5 -->
<g id="edge5" class="edge">
<title>Node5&#45;&gt;Node5</title>
<path fill="none" stroke="midnightblue" d="M282.65,-137.26C272.76,-146.07 279.54,-155.5 303,-155.5 318.03,-155.5 326.21,-151.63 327.55,-146.53"/>
<polygon fill="midnightblue" stroke="midnightblue" points="330.67,-144.92 323.35,-137.26 324.29,-147.81 330.67,-144.92"/>
</g>
</g>
</svg>
