<?xml version="1.0" encoding="UTF-8" standalone="no"?>
<!DOCTYPE svg PUBLIC "-//W3C//DTD SVG 1.1//EN"
 "http://www.w3.org/Graphics/SVG/1.1/DTD/svg11.dtd">
<!-- Generated by graphviz version 2.49.3 (20211215.1918)
 -->
<!-- Title: MandelbrotApp::createLogicalDevice Pages: 1 -->
<svg width="288pt" height="104pt"
 viewBox="0.00 0.00 288.00 104.00" xmlns="http://www.w3.org/2000/svg" xmlns:xlink="http://www.w3.org/1999/xlink">
<g id="graph0" class="graph" transform="scale(1 1) rotate(0) translate(4 100)">
<title>MandelbrotApp::createLogicalDevice</title>
<!-- Node1 -->
<g id="node1" class="node">
<title>Node1</title>
<g id="a_node1"><a xlink:title=" ">
<polygon fill="#bfbfbf" stroke="black" points="0,-33 0,-63 145,-63 145,-33 0,-33"/>
<text text-anchor="start" x="8" y="-51" font-family="Helvetica,sans-Serif" font-size="10.00">MandelbrotApp::createLogical</text>
<text text-anchor="middle" x="72.5" y="-40" font-family="Helvetica,sans-Serif" font-size="10.00">Device</text>
</a>
</g>
</g>
<!-- Node2 -->
<g id="node2" class="node">
<title>Node2</title>
<g id="a_node2"><a xlink:href="class_device.html#a2a9f19d3d5e271b7d3c300e657b44219" target="_top" xlink:title=" ">
<polygon fill="none" stroke="black" points="191.5,-76.5 191.5,-95.5 269.5,-95.5 269.5,-76.5 191.5,-76.5"/>
<text text-anchor="middle" x="230.5" y="-83.5" font-family="Helvetica,sans-Serif" font-size="10.00">Device::create</text>
</a>
</g>
</g>
<!-- Node1&#45;&gt;Node2 -->
<g id="edge1" class="edge">
<title>Node1&#45;&gt;Node2</title>
<path fill="none" stroke="midnightblue" d="M135.16,-63.02C150.52,-66.76 166.76,-70.72 181.37,-74.28"/>
<polygon fill="midnightblue" stroke="midnightblue" points="180.64,-77.7 191.18,-76.67 182.29,-70.9 180.64,-77.7"/>
</g>
<!-- Node3 -->
<g id="node3" class="node">
<title>Node3</title>
<g id="a_node3"><a xlink:href="structoptional.html#a7c9c93a03748f3024d4043b20fa8e958" target="_top" xlink:title=" ">
<polygon fill="none" stroke="black" points="181,-38.5 181,-57.5 280,-57.5 280,-38.5 181,-38.5"/>
<text text-anchor="middle" x="230.5" y="-45.5" font-family="Helvetica,sans-Serif" font-size="10.00">optional::has_value</text>
</a>
</g>
</g>
<!-- Node1&#45;&gt;Node3 -->
<g id="edge2" class="edge">
<title>Node1&#45;&gt;Node3</title>
<path fill="none" stroke="midnightblue" d="M145.11,-48C153.56,-48 162.1,-48 170.35,-48"/>
<polygon fill="midnightblue" stroke="midnightblue" points="170.61,-51.5 180.61,-48 170.61,-44.5 170.61,-51.5"/>
</g>
<!-- Node4 -->
<g id="node4" class="node">
<title>Node4</title>
<g id="a_node4"><a xlink:href="structoptional.html#a5fcd27e1ee81ffc29606ac241349f0c4" target="_top" xlink:title=" ">
<polygon fill="none" stroke="black" points="191.5,-0.5 191.5,-19.5 269.5,-19.5 269.5,-0.5 191.5,-0.5"/>
<text text-anchor="middle" x="230.5" y="-7.5" font-family="Helvetica,sans-Serif" font-size="10.00">optional::value</text>
</a>
</g>
</g>
<!-- Node1&#45;&gt;Node4 -->
<g id="edge3" class="edge">
<title>Node1&#45;&gt;Node4</title>
<path fill="none" stroke="midnightblue" d="M135.16,-32.98C150.52,-29.24 166.76,-25.28 181.37,-21.72"/>
<polygon fill="midnightblue" stroke="midnightblue" points="182.29,-25.1 191.18,-19.33 180.64,-18.3 182.29,-25.1"/>
</g>
</g>
</svg>
