<?xml version="1.0" encoding="UTF-8" standalone="no"?>
<!DOCTYPE svg PUBLIC "-//W3C//DTD SVG 1.1//EN"
 "http://www.w3.org/Graphics/SVG/1.1/DTD/svg11.dtd">
<!-- Generated by graphviz version 2.49.3 (20211027.1501)
 -->
<!-- Title: PipelineBase Pages: 1 -->
<svg width="142pt" height="438pt"
 viewBox="0.00 0.00 142.00 438.00" xmlns="http://www.w3.org/2000/svg" xmlns:xlink="http://www.w3.org/1999/xlink">
<g id="graph0" class="graph" transform="scale(1 1) rotate(0) translate(4 434)">
<title>PipelineBase</title>
<!-- Node1 -->
<g id="node1" class="node">
<title>Node1</title>
<g id="a_node1"><a xlink:title=" ">
<polygon fill="#bfbfbf" stroke="black" points="23.5,-106.5 23.5,-207.5 110.5,-207.5 110.5,-106.5 23.5,-106.5"/>
<text text-anchor="middle" x="67" y="-195.5" font-family="Helvetica,sans-Serif" font-size="10.00">PipelineBase</text>
<polyline fill="none" stroke="black" points="23.5,-188.5 110.5,-188.5 "/>
<text text-anchor="start" x="31.5" y="-176.5" font-family="Helvetica,sans-Serif" font-size="10.00"># device</text>
<text text-anchor="start" x="31.5" y="-165.5" font-family="Helvetica,sans-Serif" font-size="10.00"># layout</text>
<polyline fill="none" stroke="black" points="23.5,-158.5 110.5,-158.5 "/>
<text text-anchor="start" x="31.5" y="-146.5" font-family="Helvetica,sans-Serif" font-size="10.00">+ getDevice()</text>
<text text-anchor="start" x="31.5" y="-135.5" font-family="Helvetica,sans-Serif" font-size="10.00">+ getLayout()</text>
<text text-anchor="start" x="31.5" y="-124.5" font-family="Helvetica,sans-Serif" font-size="10.00">+ getBindPoint()</text>
<text text-anchor="start" x="31.5" y="-113.5" font-family="Helvetica,sans-Serif" font-size="10.00"># PipelineBase()</text>
</a>
</g>
</g>
<!-- Node4 -->
<g id="node4" class="node">
<title>Node4</title>
<g id="a_node4"><a xlink:href="class_graphics_pipeline.html" target="_top" xlink:title=" ">
<polygon fill="none" stroke="black" points="15,-0.5 15,-68.5 119,-68.5 119,-0.5 15,-0.5"/>
<text text-anchor="middle" x="67" y="-56.5" font-family="Helvetica,sans-Serif" font-size="10.00">GraphicsPipeline</text>
<polyline fill="none" stroke="black" points="15,-49.5 119,-49.5 "/>
<text text-anchor="middle" x="67" y="-37.5" font-family="Helvetica,sans-Serif" font-size="10.00"> </text>
<polyline fill="none" stroke="black" points="15,-30.5 119,-30.5 "/>
<text text-anchor="start" x="23" y="-18.5" font-family="Helvetica,sans-Serif" font-size="10.00">+ GraphicsPipeline()</text>
<text text-anchor="start" x="23" y="-7.5" font-family="Helvetica,sans-Serif" font-size="10.00">+ getBindPoint()</text>
</a>
</g>
</g>
<!-- Node1&#45;&gt;Node4 -->
<g id="edge3" class="edge">
<title>Node1&#45;&gt;Node4</title>
<path fill="none" stroke="midnightblue" d="M67,-96.07C67,-86.61 67,-77.14 67,-68.59"/>
<polygon fill="none" stroke="midnightblue" points="63.5,-96.29 67,-106.29 70.5,-96.29 63.5,-96.29"/>
</g>
<!-- Node2 -->
<g id="node2" class="node">
<title>Node2</title>
<g id="a_node2"><a xlink:href="class_vulkan_class.html" target="_top" xlink:title=" ">
<polygon fill="none" stroke="black" points="0,-245.5 0,-313.5 134,-313.5 134,-245.5 0,-245.5"/>
<text text-anchor="middle" x="67" y="-301.5" font-family="Helvetica,sans-Serif" font-size="10.00">VulkanClass&lt; VkPipeline &gt;</text>
<polyline fill="none" stroke="black" points="0,-294.5 134,-294.5 "/>
<text text-anchor="start" x="8" y="-282.5" font-family="Helvetica,sans-Serif" font-size="10.00"># handle</text>
<polyline fill="none" stroke="black" points="0,-275.5 134,-275.5 "/>
<text text-anchor="start" x="8" y="-263.5" font-family="Helvetica,sans-Serif" font-size="10.00">+ getHandle()</text>
<text text-anchor="start" x="8" y="-252.5" font-family="Helvetica,sans-Serif" font-size="10.00">+ getHandlePtr()</text>
</a>
</g>
</g>
<!-- Node2&#45;&gt;Node1 -->
<g id="edge1" class="edge">
<title>Node2&#45;&gt;Node1</title>
<path fill="none" stroke="midnightblue" d="M67,-235.15C67,-226.29 67,-216.91 67,-207.84"/>
<polygon fill="none" stroke="midnightblue" points="63.5,-235.25 67,-245.25 70.5,-235.25 63.5,-235.25"/>
</g>
<!-- Node3 -->
<g id="node3" class="node">
<title>Node3</title>
<g id="a_node3"><a xlink:href="class_vulkan_class.html" target="_top" xlink:title=" ">
<polygon fill="none" stroke="black" points="20,-361.5 20,-429.5 114,-429.5 114,-361.5 20,-361.5"/>
<text text-anchor="middle" x="67" y="-417.5" font-family="Helvetica,sans-Serif" font-size="10.00">VulkanClass&lt; T &gt;</text>
<polyline fill="none" stroke="black" points="20,-410.5 114,-410.5 "/>
<text text-anchor="start" x="28" y="-398.5" font-family="Helvetica,sans-Serif" font-size="10.00"># handle</text>
<polyline fill="none" stroke="black" points="20,-391.5 114,-391.5 "/>
<text text-anchor="start" x="28" y="-379.5" font-family="Helvetica,sans-Serif" font-size="10.00">+ getHandle()</text>
<text text-anchor="start" x="28" y="-368.5" font-family="Helvetica,sans-Serif" font-size="10.00">+ getHandlePtr()</text>
</a>
</g>
</g>
<!-- Node3&#45;&gt;Node2 -->
<g id="edge2" class="edge">
<title>Node3&#45;&gt;Node2</title>
<path fill="none" stroke="orange" d="M67,-351.06C67,-338.64 67,-325.32 67,-313.62"/>
<polygon fill="orange" stroke="orange" points="63.5,-351.22 67,-361.22 70.5,-351.22 63.5,-351.22"/>
<text text-anchor="middle" x="100" y="-335" font-family="Helvetica,sans-Serif" font-size="10.00"> &lt; VkPipeline &gt;</text>
</g>
</g>
</svg>
