<?xml version="1.0" encoding="UTF-8" standalone="no"?>
<!DOCTYPE svg PUBLIC "-//W3C//DTD SVG 1.1//EN"
 "http://www.w3.org/Graphics/SVG/1.1/DTD/svg11.dtd">
<!-- Generated by graphviz version 3.0.0 (20220413.0106)
 -->
<!-- Title: RenderPass::create Pages: 1 -->
<svg width="750pt" height="176pt"
 viewBox="0.00 0.00 750.00 176.00" xmlns="http://www.w3.org/2000/svg" xmlns:xlink="http://www.w3.org/1999/xlink">
<g id="graph0" class="graph" transform="scale(1 1) rotate(0) translate(4 172)">
<title>RenderPass::create</title>
<!-- Node1 -->
<g id="node1" class="node">
<title>Node1</title>
<g id="a_node1"><a xlink:title=" ">
<polygon fill="#bfbfbf" stroke="black" points="641,-50 641,-69 742,-69 742,-50 641,-50"/>
<text text-anchor="middle" x="691.5" y="-57" font-family="Helvetica,sans-Serif" font-size="10.00">RenderPass::create</text>
</a>
</g>
</g>
<!-- Node2 -->
<g id="node2" class="node">
<title>Node2</title>
<g id="a_node2"><a xlink:href="class_render_manager.html#a47b4c7259640bcfc476a5cd8c129c2b8" target="_top" xlink:title=" ">
<polygon fill="none" stroke="black" points="435,-94 435,-113 605,-113 605,-94 435,-94"/>
<text text-anchor="middle" x="520" y="-101" font-family="Helvetica,sans-Serif" font-size="10.00">RenderManager::createRenderPass</text>
</a>
</g>
</g>
<!-- Node1&#45;&gt;Node2 -->
<g id="edge1" class="edge">
<title>Node1&#45;&gt;Node2</title>
<path fill="none" stroke="midnightblue" d="M644.03,-71.56C616.85,-78.62 583.01,-87.4 557.71,-93.97"/>
<polygon fill="midnightblue" stroke="midnightblue" points="644.92,-74.95 653.72,-69.05 643.16,-68.17 644.92,-74.95"/>
</g>
<!-- Node6 -->
<g id="node6" class="node">
<title>Node6</title>
<g id="a_node6"><a xlink:href="class_mandelbrot_app.html#a42888cf7f601ffe792280926a9499f9a" target="_top" xlink:title=" ">
<polygon fill="none" stroke="black" points="436.5,-50 436.5,-69 603.5,-69 603.5,-50 436.5,-50"/>
<text text-anchor="middle" x="520" y="-57" font-family="Helvetica,sans-Serif" font-size="10.00">MandelbrotApp::createRenderPass</text>
</a>
</g>
</g>
<!-- Node1&#45;&gt;Node6 -->
<g id="edge5" class="edge">
<title>Node1&#45;&gt;Node6</title>
<path fill="none" stroke="midnightblue" d="M630.53,-59.5C621.81,-59.5 612.71,-59.5 603.65,-59.5"/>
<polygon fill="midnightblue" stroke="midnightblue" points="630.56,-63 640.56,-59.5 630.56,-56 630.56,-63"/>
</g>
<!-- Node11 -->
<g id="node11" class="node">
<title>Node11</title>
<g id="a_node11"><a xlink:href="vulkan__voxel__rasterizer_8cpp.html#ae66f6b31b5ad750f1fe042a706a4e3d4" target="_top" xlink:title=" ">
<polygon fill="none" stroke="black" points="501,-12 501,-31 539,-31 539,-12 501,-12"/>
<text text-anchor="middle" x="520" y="-19" font-family="Helvetica,sans-Serif" font-size="10.00">main</text>
</a>
</g>
</g>
<!-- Node1&#45;&gt;Node11 -->
<g id="edge10" class="edge">
<title>Node1&#45;&gt;Node11</title>
<path fill="none" stroke="midnightblue" d="M637.6,-47.64C604.08,-40.12 562.77,-30.86 539.4,-25.63"/>
<polygon fill="midnightblue" stroke="midnightblue" points="637.2,-51.14 647.73,-49.91 638.74,-44.31 637.2,-51.14"/>
</g>
<!-- Node3 -->
<g id="node3" class="node">
<title>Node3</title>
<g id="a_node3"><a xlink:href="class_render_manager.html#a2f5991e4b82925a2571e6fabf1e8b7b9" target="_top" xlink:title=" ">
<polygon fill="none" stroke="black" points="251,-137.5 251,-167.5 398,-167.5 398,-137.5 251,-137.5"/>
<text text-anchor="start" x="259" y="-155.5" font-family="Helvetica,sans-Serif" font-size="10.00">RenderManager::createRender</text>
<text text-anchor="middle" x="324.5" y="-144.5" font-family="Helvetica,sans-Serif" font-size="10.00">Objects</text>
</a>
</g>
</g>
<!-- Node2&#45;&gt;Node3 -->
<g id="edge2" class="edge">
<title>Node2&#45;&gt;Node3</title>
<path fill="none" stroke="midnightblue" d="M471.21,-115.6C445.12,-122.21 412.59,-130.45 384.88,-137.46"/>
<polygon fill="midnightblue" stroke="midnightblue" points="472.4,-118.91 481.23,-113.06 470.68,-112.13 472.4,-118.91"/>
</g>
<!-- Node4 -->
<g id="node4" class="node">
<title>Node4</title>
<g id="a_node4"><a xlink:href="class_render_manager.html#a3e54c122912e1b713b2f6357cdc370fb" target="_top" xlink:title=" ">
<polygon fill="none" stroke="black" points="250,-88.5 250,-118.5 399,-118.5 399,-88.5 250,-88.5"/>
<text text-anchor="start" x="258" y="-106.5" font-family="Helvetica,sans-Serif" font-size="10.00">RenderManager::recreateSwap</text>
<text text-anchor="middle" x="324.5" y="-95.5" font-family="Helvetica,sans-Serif" font-size="10.00">Chain</text>
</a>
</g>
</g>
<!-- Node2&#45;&gt;Node4 -->
<g id="edge3" class="edge">
<title>Node2&#45;&gt;Node4</title>
<path fill="none" stroke="midnightblue" d="M424.86,-103.5C416.22,-103.5 407.55,-103.5 399.13,-103.5"/>
<polygon fill="midnightblue" stroke="midnightblue" points="424.97,-107 434.97,-103.5 424.97,-100 424.97,-107"/>
</g>
<!-- Node5 -->
<g id="node5" class="node">
<title>Node5</title>
<g id="a_node5"><a xlink:href="class_render_manager.html#ab087dc4ee1c6e377ca52ee44d1591c29" target="_top" xlink:title=" ">
<polygon fill="none" stroke="black" points="74,-88.5 74,-118.5 214,-118.5 214,-88.5 74,-88.5"/>
<text text-anchor="start" x="82" y="-106.5" font-family="Helvetica,sans-Serif" font-size="10.00">RenderManager::resizeSwap</text>
<text text-anchor="middle" x="144" y="-95.5" font-family="Helvetica,sans-Serif" font-size="10.00">Chain</text>
</a>
</g>
</g>
<!-- Node4&#45;&gt;Node5 -->
<g id="edge4" class="edge">
<title>Node4&#45;&gt;Node5</title>
<path fill="none" stroke="midnightblue" d="M239.83,-103.5C231.24,-103.5 222.57,-103.5 214.16,-103.5"/>
<polygon fill="midnightblue" stroke="midnightblue" points="239.87,-107 249.87,-103.5 239.87,-100 239.87,-107"/>
</g>
<!-- Node7 -->
<g id="node7" class="node">
<title>Node7</title>
<g id="a_node7"><a xlink:href="class_mandelbrot_app.html#ad5c4a7e7fd79bc75fea87df0165005b6" target="_top" xlink:title=" ">
<polygon fill="none" stroke="black" points="260,-50 260,-69 389,-69 389,-50 260,-50"/>
<text text-anchor="middle" x="324.5" y="-57" font-family="Helvetica,sans-Serif" font-size="10.00">MandelbrotApp::initVulkan</text>
</a>
</g>
</g>
<!-- Node6&#45;&gt;Node7 -->
<g id="edge6" class="edge">
<title>Node6&#45;&gt;Node7</title>
<path fill="none" stroke="midnightblue" d="M426.31,-59.5C413.72,-59.5 401.04,-59.5 389.12,-59.5"/>
<polygon fill="midnightblue" stroke="midnightblue" points="426.38,-63 436.38,-59.5 426.38,-56 426.38,-63"/>
</g>
<!-- Node10 -->
<g id="node10" class="node">
<title>Node10</title>
<g id="a_node10"><a xlink:href="class_mandelbrot_app.html#a733620a6533fb25a6ffa309886b74904" target="_top" xlink:title=" ">
<polygon fill="none" stroke="black" points="251.5,-0.5 251.5,-30.5 397.5,-30.5 397.5,-0.5 251.5,-0.5"/>
<text text-anchor="start" x="259.5" y="-18.5" font-family="Helvetica,sans-Serif" font-size="10.00">MandelbrotApp::recreateSwap</text>
<text text-anchor="middle" x="324.5" y="-7.5" font-family="Helvetica,sans-Serif" font-size="10.00">Chain</text>
</a>
</g>
</g>
<!-- Node6&#45;&gt;Node10 -->
<g id="edge9" class="edge">
<title>Node6&#45;&gt;Node10</title>
<path fill="none" stroke="midnightblue" d="M466.78,-47.71C456.26,-45.32 445.28,-42.84 435,-40.5 420.83,-37.28 405.64,-33.82 391.21,-30.53"/>
<polygon fill="midnightblue" stroke="midnightblue" points="466.17,-51.16 476.69,-49.95 467.71,-44.33 466.17,-51.16"/>
</g>
<!-- Node8 -->
<g id="node8" class="node">
<title>Node8</title>
<g id="a_node8"><a xlink:href="class_mandelbrot_app.html#a2cd742dc1400d3cf3e4ed782976fda5f" target="_top" xlink:title=" ">
<polygon fill="none" stroke="black" points="94,-50 94,-69 194,-69 194,-50 94,-50"/>
<text text-anchor="middle" x="144" y="-57" font-family="Helvetica,sans-Serif" font-size="10.00">MandelbrotApp::run</text>
</a>
</g>
</g>
<!-- Node7&#45;&gt;Node8 -->
<g id="edge7" class="edge">
<title>Node7&#45;&gt;Node8</title>
<path fill="none" stroke="midnightblue" d="M249.8,-59.5C231.01,-59.5 211.28,-59.5 194.07,-59.5"/>
<polygon fill="midnightblue" stroke="midnightblue" points="249.81,-63 259.81,-59.5 249.81,-56 249.81,-63"/>
</g>
<!-- Node9 -->
<g id="node9" class="node">
<title>Node9</title>
<g id="a_node9"><a xlink:href="vulkan__voxel__rasterizer__2_8cpp.html#ae66f6b31b5ad750f1fe042a706a4e3d4" target="_top" xlink:title=" ">
<polygon fill="none" stroke="black" points="0,-50 0,-69 38,-69 38,-50 0,-50"/>
<text text-anchor="middle" x="19" y="-57" font-family="Helvetica,sans-Serif" font-size="10.00">main</text>
</a>
</g>
</g>
<!-- Node8&#45;&gt;Node9 -->
<g id="edge8" class="edge">
<title>Node8&#45;&gt;Node9</title>
<path fill="none" stroke="midnightblue" d="M83.44,-59.5C66.88,-59.5 50.14,-59.5 38.01,-59.5"/>
<polygon fill="midnightblue" stroke="midnightblue" points="83.68,-63 93.68,-59.5 83.68,-56 83.68,-63"/>
</g>
</g>
</svg>
