<?xml version="1.0" encoding="UTF-8" standalone="no"?>
<!DOCTYPE svg PUBLIC "-//W3C//DTD SVG 1.1//EN"
 "http://www.w3.org/Graphics/SVG/1.1/DTD/svg11.dtd">
<!-- Generated by graphviz version 2.49.3 (20211215.1918)
 -->
<!-- Title: Image Pages: 1 -->
<!--zoomable 486 -->
<svg id="main" version="1.1" xmlns="http://www.w3.org/2000/svg" xmlns:xlink="http://www.w3.org/1999/xlink" xml:space="preserve" onload="init(evt)">
<style type="text/css"><![CDATA[
.edge:hover path { stroke: red; }
.edge:hover polygon { stroke: red; fill: red; }
]]></style>
<script type="text/javascript"><![CDATA[
var edges = document.getElementsByTagName('g');
if (edges && edges.length) {
  for (var i=0;i<edges.length;i++) {
    if (edges[i].id.substr(0,4)=='edge') {
      edges[i].setAttribute('class','edge');
    }
  }
}
]]></script>
        <defs>
                <circle id="rim" cx="0" cy="0" r="7"/>
                <circle id="rim2" cx="0" cy="0" r="3.5"/>
                <g id="zoomPlus">
                        <use xlink:href="#rim" fill="#404040">
                                <set attributeName="fill" to="#808080" begin="zoomplus.mouseover" end="zoomplus.mouseout"/>
                        </use>
                        <path d="M-4,0h8M0,-4v8" fill="none" stroke="white" stroke-width="1.5" pointer-events="none"/>
                </g>
                <g id="zoomMin">
                        <use xlink:href="#rim" fill="#404040">
                                <set attributeName="fill" to="#808080" begin="zoomminus.mouseover" end="zoomminus.mouseout"/>
                        </use>
                        <path d="M-4,0h8" fill="none" stroke="white" stroke-width="1.5" pointer-events="none"/>
                </g>
                <g id="dirArrow">
                        <path fill="none" stroke="white" stroke-width="1.5" d="M0,-3.0v7 M-2.5,-0.5L0,-3.0L2.5,-0.5"/>
                </g>
               <g id="resetDef">
                       <use xlink:href="#rim2" fill="#404040">
                               <set attributeName="fill" to="#808080" begin="reset.mouseover" end="reset.mouseout"/>
                       </use>
               </g>
        </defs>

<script type="text/javascript">
var viewWidth = 260;
var viewHeight = 486;
var sectionId = 'dynsection-0';
</script>
<script xlink:href="svgpan.js"/>
<svg id="graph" class="graph">
<g id="viewport">
<title>Image</title>
<!-- Node1 -->
<g id="node1" class="node">
<title>Node1</title>
<g id="a_node1"><a xlink:title=" ">
<polygon fill="#bfbfbf" stroke="black" points="77,-0.5 77,-255.5 184,-255.5 184,-0.5 77,-0.5"/>
<text text-anchor="middle" x="130.5" y="-243.5" font-family="Helvetica,sans-Serif" font-size="10.00">Image</text>
<polyline fill="none" stroke="black" points="77,-236.5 184,-236.5 "/>
<text text-anchor="start" x="85" y="-224.5" font-family="Helvetica,sans-Serif" font-size="10.00">&#45; device</text>
<text text-anchor="start" x="85" y="-213.5" font-family="Helvetica,sans-Serif" font-size="10.00">&#45; allocation</text>
<text text-anchor="start" x="85" y="-202.5" font-family="Helvetica,sans-Serif" font-size="10.00">&#45; allocationInfo</text>
<text text-anchor="start" x="85" y="-191.5" font-family="Helvetica,sans-Serif" font-size="10.00">&#45; extent</text>
<text text-anchor="start" x="85" y="-180.5" font-family="Helvetica,sans-Serif" font-size="10.00">&#45; type</text>
<text text-anchor="start" x="85" y="-169.5" font-family="Helvetica,sans-Serif" font-size="10.00">&#45; format</text>
<text text-anchor="start" x="85" y="-158.5" font-family="Helvetica,sans-Serif" font-size="10.00">&#45; mipLevels</text>
<text text-anchor="start" x="85" y="-147.5" font-family="Helvetica,sans-Serif" font-size="10.00">&#45; arrayLayers</text>
<polyline fill="none" stroke="black" points="77,-140.5 184,-140.5 "/>
<text text-anchor="start" x="85" y="-128.5" font-family="Helvetica,sans-Serif" font-size="10.00">+ createImageView()</text>
<text text-anchor="start" x="85" y="-117.5" font-family="Helvetica,sans-Serif" font-size="10.00">+ getDevice()</text>
<text text-anchor="start" x="85" y="-106.5" font-family="Helvetica,sans-Serif" font-size="10.00">+ getExtent()</text>
<text text-anchor="start" x="85" y="-95.5" font-family="Helvetica,sans-Serif" font-size="10.00">+ getType()</text>
<text text-anchor="start" x="85" y="-84.5" font-family="Helvetica,sans-Serif" font-size="10.00">+ getFormat()</text>
<text text-anchor="start" x="85" y="-73.5" font-family="Helvetica,sans-Serif" font-size="10.00">+ getMipLevels()</text>
<text text-anchor="start" x="85" y="-62.5" font-family="Helvetica,sans-Serif" font-size="10.00">+ getArrayLayers()</text>
<text text-anchor="start" x="85" y="-51.5" font-family="Helvetica,sans-Serif" font-size="10.00">+ map()</text>
<text text-anchor="start" x="85" y="-40.5" font-family="Helvetica,sans-Serif" font-size="10.00">+ unmap()</text>
<text text-anchor="start" x="85" y="-29.5" font-family="Helvetica,sans-Serif" font-size="10.00">+ ~Image()</text>
<text text-anchor="start" x="85" y="-18.5" font-family="Helvetica,sans-Serif" font-size="10.00">+ create()</text>
<text text-anchor="start" x="85" y="-7.5" font-family="Helvetica,sans-Serif" font-size="10.00">+ create()</text>
</a>
</g>
</g>
<!-- Node2 -->
<g id="node2" class="node">
<title>Node2</title>
<g id="a_node2"><a xlink:href="class_vulkan_class.html" target="_top" xlink:title=" ">
<polygon fill="none" stroke="black" points="0,-293.5 0,-361.5 127,-361.5 127,-293.5 0,-293.5"/>
<text text-anchor="middle" x="63.5" y="-349.5" font-family="Helvetica,sans-Serif" font-size="10.00">VulkanClass&lt; VkImage &gt;</text>
<polyline fill="none" stroke="black" points="0,-342.5 127,-342.5 "/>
<text text-anchor="start" x="8" y="-330.5" font-family="Helvetica,sans-Serif" font-size="10.00"># handle</text>
<polyline fill="none" stroke="black" points="0,-323.5 127,-323.5 "/>
<text text-anchor="start" x="8" y="-311.5" font-family="Helvetica,sans-Serif" font-size="10.00">+ getHandle()</text>
<text text-anchor="start" x="8" y="-300.5" font-family="Helvetica,sans-Serif" font-size="10.00">+ getHandlePtr()</text>
</a>
</g>
</g>
<!-- Node2&#45;&gt;Node1 -->
<g id="edge1" class="edge">
<title>Node2&#45;&gt;Node1</title>
<path fill="none" stroke="midnightblue" d="M78.01,-283.73C80.93,-275.11 84.15,-265.63 87.5,-255.74"/>
<polygon fill="none" stroke="midnightblue" points="74.61,-282.85 74.71,-293.44 81.24,-285.1 74.61,-282.85"/>
</g>
<!-- Node3 -->
<g id="node3" class="node">
<title>Node3</title>
<g id="a_node3"><a xlink:href="class_vulkan_class.html" target="_top" xlink:title=" ">
<polygon fill="none" stroke="black" points="16.5,-409.5 16.5,-477.5 110.5,-477.5 110.5,-409.5 16.5,-409.5"/>
<text text-anchor="middle" x="63.5" y="-465.5" font-family="Helvetica,sans-Serif" font-size="10.00">VulkanClass&lt; T &gt;</text>
<polyline fill="none" stroke="black" points="16.5,-458.5 110.5,-458.5 "/>
<text text-anchor="start" x="24.5" y="-446.5" font-family="Helvetica,sans-Serif" font-size="10.00"># handle</text>
<polyline fill="none" stroke="black" points="16.5,-439.5 110.5,-439.5 "/>
<text text-anchor="start" x="24.5" y="-427.5" font-family="Helvetica,sans-Serif" font-size="10.00">+ getHandle()</text>
<text text-anchor="start" x="24.5" y="-416.5" font-family="Helvetica,sans-Serif" font-size="10.00">+ getHandlePtr()</text>
</a>
</g>
</g>
<!-- Node3&#45;&gt;Node2 -->
<g id="edge2" class="edge">
<title>Node3&#45;&gt;Node2</title>
<path fill="none" stroke="orange" d="M63.5,-399.06C63.5,-386.64 63.5,-373.32 63.5,-361.62"/>
<polygon fill="orange" stroke="orange" points="60,-399.22 63.5,-409.22 67,-399.22 60,-399.22"/>
<text text-anchor="middle" x="92.5" y="-383" font-family="Helvetica,sans-Serif" font-size="10.00"> &lt; VkImage &gt;</text>
</g>
<!-- Node4 -->
<g id="node4" class="node">
<title>Node4</title>
<g id="a_node4"><a xlink:title=" ">
<polygon fill="none" stroke="#bfbfbf" points="145.5,-293.5 145.5,-361.5 251.5,-361.5 251.5,-293.5 145.5,-293.5"/>
<text text-anchor="start" x="153.5" y="-349.5" font-family="Helvetica,sans-Serif" font-size="10.00">std::enable_shared</text>
<text text-anchor="middle" x="198.5" y="-338.5" font-family="Helvetica,sans-Serif" font-size="10.00">_from_this&lt; Image &gt;</text>
<polyline fill="none" stroke="#bfbfbf" points="145.5,-331.5 251.5,-331.5 "/>
<text text-anchor="middle" x="198.5" y="-319.5" font-family="Helvetica,sans-Serif" font-size="10.00"> </text>
<polyline fill="none" stroke="#bfbfbf" points="145.5,-312.5 251.5,-312.5 "/>
<text text-anchor="middle" x="198.5" y="-300.5" font-family="Helvetica,sans-Serif" font-size="10.00"> </text>
</a>
</g>
</g>
<!-- Node4&#45;&gt;Node1 -->
<g id="edge3" class="edge">
<title>Node4&#45;&gt;Node1</title>
<path fill="none" stroke="midnightblue" d="M183.78,-283.73C180.81,-275.11 177.54,-265.63 174.14,-255.74"/>
<polygon fill="none" stroke="midnightblue" points="180.55,-285.13 187.12,-293.44 187.17,-282.85 180.55,-285.13"/>
</g>
</g>
</svg>
        <g id="navigator" transform="translate(0 0)" fill="#404254">
                <rect fill="#f2f5e9" fill-opacity="0.5" stroke="#606060" stroke-width=".5" x="0" y="0" width="60" height="60"/>
                <use id="zoomplus" xlink:href="#zoomPlus" x="17" y="9" onmousedown="handleZoom(evt,'in')"/>
                <use id="zoomminus" xlink:href="#zoomMin" x="42" y="9" onmousedown="handleZoom(evt,'out')"/>
                <use id="reset" xlink:href="#resetDef" x="30" y="36" onmousedown="handleReset()"/>
                <g id="arrowUp" xlink:href="#dirArrow" transform="translate(30 24)" onmousedown="handlePan(0,-1)">
                  <use xlink:href="#rim" fill="#404040">
                        <set attributeName="fill" to="#808080" begin="arrowUp.mouseover" end="arrowUp.mouseout"/>
                  </use>
                  <path fill="none" stroke="white" stroke-width="1.5" d="M0,-3.0v7 M-2.5,-0.5L0,-3.0L2.5,-0.5"/>
                </g>
                <g id="arrowRight" xlink:href="#dirArrow" transform="rotate(90) translate(36 -43)" onmousedown="handlePan(1,0)">
                  <use xlink:href="#rim" fill="#404040">
                        <set attributeName="fill" to="#808080" begin="arrowRight.mouseover" end="arrowRight.mouseout"/>
                  </use>
                  <path fill="none" stroke="white" stroke-width="1.5" d="M0,-3.0v7 M-2.5,-0.5L0,-3.0L2.5,-0.5"/>
                </g>
                <g id="arrowDown" xlink:href="#dirArrow" transform="rotate(180) translate(-30 -48)" onmousedown="handlePan(0,1)">
                  <use xlink:href="#rim" fill="#404040">
                        <set attributeName="fill" to="#808080" begin="arrowDown.mouseover" end="arrowDown.mouseout"/>
                  </use>
                  <path fill="none" stroke="white" stroke-width="1.5" d="M0,-3.0v7 M-2.5,-0.5L0,-3.0L2.5,-0.5"/>
                </g>
                <g id="arrowLeft" xlink:href="#dirArrow" transform="rotate(270) translate(-36 17)" onmousedown="handlePan(-1,0)">
                  <use xlink:href="#rim" fill="#404040">
                        <set attributeName="fill" to="#808080" begin="arrowLeft.mouseover" end="arrowLeft.mouseout"/>
                  </use>
                  <path fill="none" stroke="white" stroke-width="1.5" d="M0,-3.0v7 M-2.5,-0.5L0,-3.0L2.5,-0.5"/>
                </g>
        </g>
        <svg viewBox="0 0 15 15" width="100%" height="30px" preserveAspectRatio="xMaxYMin meet">
         <g id="arrow_out" transform="scale(0.3 0.3)">
          <a xlink:href="class_image__inherit__graph_org.svg" target="_base">
           <rect id="button" ry="5" rx="5" y="6" x="6" height="38" width="38"
                fill="#f2f5e9" fill-opacity="0.5" stroke="#606060" stroke-width="1.0"/>
           <path id="arrow"
             d="M 11.500037,31.436501 C 11.940474,20.09759 22.043105,11.32322 32.158766,21.979434 L 37.068811,17.246167 C 37.068811,17.246167 37.088388,32 37.088388,32 L 22.160133,31.978069 C 22.160133,31.978069 26.997745,27.140456 26.997745,27.140456 C 18.528582,18.264221 13.291696,25.230495 11.500037,31.436501 z"
             style="fill:#404040;"/>
          </a>
         </g>
        </svg>
</svg>
