<?xml version="1.0" encoding="UTF-8" standalone="no"?>
<!DOCTYPE svg PUBLIC "-//W3C//DTD SVG 1.1//EN"
 "http://www.w3.org/Graphics/SVG/1.1/DTD/svg11.dtd">
<!-- Generated by graphviz version 2.50.0 (20220203.2022)
 -->
<!-- Title: RenderManager::recreateSwapChain Pages: 1 -->
<svg width="657pt" height="334pt"
 viewBox="0.00 0.00 657.00 334.00" xmlns="http://www.w3.org/2000/svg" xmlns:xlink="http://www.w3.org/1999/xlink">
<g id="graph0" class="graph" transform="scale(1 1) rotate(0) translate(4 330)">
<title>RenderManager::recreateSwapChain</title>
<!-- Node1 -->
<g id="node1" class="node">
<title>Node1</title>
<g id="a_node1"><a xlink:title=" ">
<polygon fill="#bfbfbf" stroke="black" points="0,-216 0,-246 149,-246 149,-216 0,-216"/>
<text text-anchor="start" x="8" y="-234" font-family="Helvetica,sans-Serif" font-size="10.00">RenderManager::recreateSwap</text>
<text text-anchor="middle" x="74.5" y="-223" font-family="Helvetica,sans-Serif" font-size="10.00">Chain</text>
</a>
</g>
</g>
<!-- Node2 -->
<g id="node2" class="node">
<title>Node2</title>
<g id="a_node2"><a xlink:href="class_render_manager.html#a4542192299af39a3e8833b701c2a359e" target="_top" xlink:title=" ">
<polygon fill="none" stroke="black" points="192.5,-287.5 192.5,-306.5 347.5,-306.5 347.5,-287.5 192.5,-287.5"/>
<text text-anchor="middle" x="270" y="-294.5" font-family="Helvetica,sans-Serif" font-size="10.00">RenderManager::crateUIObjects</text>
</a>
</g>
</g>
<!-- Node1&#45;&gt;Node2 -->
<g id="edge1" class="edge">
<title>Node1&#45;&gt;Node2</title>
<path fill="none" stroke="midnightblue" d="M106.54,-246.13C128.15,-256.21 157.85,-269.18 185,-278 192.97,-280.59 201.48,-282.95 209.91,-285.07"/>
<polygon fill="midnightblue" stroke="midnightblue" points="209.19,-288.5 219.73,-287.44 210.83,-281.69 209.19,-288.5"/>
</g>
<!-- Node6 -->
<g id="node6" class="node">
<title>Node6</title>
<g id="a_node6"><a xlink:href="class_render_manager.html#aa6e12fa2f425700718eec18fb52a1ef8" target="_top" xlink:title=" ">
<polygon fill="none" stroke="black" points="198,-238 198,-268 342,-268 342,-238 198,-238"/>
<text text-anchor="start" x="206" y="-256" font-family="Helvetica,sans-Serif" font-size="10.00">RenderManager::createFrame</text>
<text text-anchor="middle" x="270" y="-245" font-family="Helvetica,sans-Serif" font-size="10.00">Buffer</text>
</a>
</g>
</g>
<!-- Node1&#45;&gt;Node6 -->
<g id="edge5" class="edge">
<title>Node1&#45;&gt;Node6</title>
<path fill="none" stroke="midnightblue" d="M149.21,-239.38C161.76,-240.81 174.87,-242.3 187.61,-243.75"/>
<polygon fill="midnightblue" stroke="midnightblue" points="187.4,-247.25 197.73,-244.9 188.19,-240.29 187.4,-247.25"/>
</g>
<!-- Node8 -->
<g id="node8" class="node">
<title>Node8</title>
<g id="a_node8"><a xlink:href="class_render_manager.html#a47b4c7259640bcfc476a5cd8c129c2b8" target="_top" xlink:title=" ">
<polygon fill="none" stroke="black" points="185,-199.5 185,-218.5 355,-218.5 355,-199.5 185,-199.5"/>
<text text-anchor="middle" x="270" y="-206.5" font-family="Helvetica,sans-Serif" font-size="10.00">RenderManager::createRenderPass</text>
</a>
</g>
</g>
<!-- Node1&#45;&gt;Node8 -->
<g id="edge7" class="edge">
<title>Node1&#45;&gt;Node8</title>
<path fill="none" stroke="midnightblue" d="M149.21,-222.62C157.65,-221.66 166.34,-220.67 175.01,-219.69"/>
<polygon fill="midnightblue" stroke="midnightblue" points="175.61,-223.14 185.15,-218.53 174.81,-216.19 175.61,-223.14"/>
</g>
<!-- Node10 -->
<g id="node10" class="node">
<title>Node10</title>
<g id="a_node10"><a xlink:href="class_render_manager.html#ab9be550fe988ee994b0cba1b46ef2ded" target="_top" xlink:title=" ">
<polygon fill="none" stroke="black" points="199.5,-90 199.5,-120 340.5,-120 340.5,-90 199.5,-90"/>
<text text-anchor="start" x="207.5" y="-108" font-family="Helvetica,sans-Serif" font-size="10.00">RenderManager::createSwap</text>
<text text-anchor="middle" x="270" y="-97" font-family="Helvetica,sans-Serif" font-size="10.00">Chain</text>
</a>
</g>
</g>
<!-- Node1&#45;&gt;Node10 -->
<g id="edge9" class="edge">
<title>Node1&#45;&gt;Node10</title>
<path fill="none" stroke="midnightblue" d="M98.84,-215.8C133.36,-193.32 198.14,-151.14 237.05,-125.81"/>
<polygon fill="midnightblue" stroke="midnightblue" points="239.41,-128.45 245.88,-120.06 235.59,-122.58 239.41,-128.45"/>
</g>
<!-- Node3 -->
<g id="node3" class="node">
<title>Node3</title>
<g id="a_node3"><a xlink:href="class_u_i_renderer.html#a429d9bebea63cfce81d4179458bac829" target="_top" xlink:title=" ">
<polygon fill="none" stroke="black" points="394,-287.5 394,-306.5 492,-306.5 492,-287.5 394,-287.5"/>
<text text-anchor="middle" x="443" y="-294.5" font-family="Helvetica,sans-Serif" font-size="10.00">UIRenderer::create</text>
</a>
</g>
</g>
<!-- Node2&#45;&gt;Node3 -->
<g id="edge2" class="edge">
<title>Node2&#45;&gt;Node3</title>
<path fill="none" stroke="midnightblue" d="M348,-297C359.94,-297 372.11,-297 383.56,-297"/>
<polygon fill="midnightblue" stroke="midnightblue" points="383.84,-300.5 393.84,-297 383.84,-293.5 383.84,-300.5"/>
</g>
<!-- Node4 -->
<g id="node4" class="node">
<title>Node4</title>
<g id="a_node4"><a xlink:href="class_command_buffer.html#aa00b25bc626efb68b5dc810ea91cf41b" target="_top" xlink:title=" ">
<polygon fill="none" stroke="black" points="531,-306.5 531,-325.5 649,-325.5 649,-306.5 531,-306.5"/>
<text text-anchor="middle" x="590" y="-313.5" font-family="Helvetica,sans-Serif" font-size="10.00">CommandBuffer::create</text>
</a>
</g>
</g>
<!-- Node3&#45;&gt;Node4 -->
<g id="edge3" class="edge">
<title>Node3&#45;&gt;Node4</title>
<path fill="none" stroke="midnightblue" d="M492.28,-303.33C501.45,-304.53 511.21,-305.81 520.86,-307.07"/>
<polygon fill="midnightblue" stroke="midnightblue" points="520.49,-310.55 530.86,-308.38 521.39,-303.61 520.49,-310.55"/>
</g>
<!-- Node5 -->
<g id="node5" class="node">
<title>Node5</title>
<g id="a_node5"><a xlink:href="class_descriptor_pool.html#a190f2272d8740c7f7fe13b5b8fb8326c" target="_top" xlink:title=" ">
<polygon fill="none" stroke="black" points="534,-268.5 534,-287.5 646,-287.5 646,-268.5 534,-268.5"/>
<text text-anchor="middle" x="590" y="-275.5" font-family="Helvetica,sans-Serif" font-size="10.00">DescriptorPool::create</text>
</a>
</g>
</g>
<!-- Node3&#45;&gt;Node5 -->
<g id="edge4" class="edge">
<title>Node3&#45;&gt;Node5</title>
<path fill="none" stroke="midnightblue" d="M492.28,-290.67C502.4,-289.35 513.22,-287.93 523.83,-286.54"/>
<polygon fill="midnightblue" stroke="midnightblue" points="524.45,-289.99 533.91,-285.22 523.54,-283.05 524.45,-289.99"/>
</g>
<!-- Node7 -->
<g id="node7" class="node">
<title>Node7</title>
<g id="a_node7"><a xlink:href="class_frame_buffer.html#a3b861048fc9c1861448d4dee7a6b9b69" target="_top" xlink:title=" ">
<polygon fill="none" stroke="black" points="392.5,-243.5 392.5,-262.5 493.5,-262.5 493.5,-243.5 392.5,-243.5"/>
<text text-anchor="middle" x="443" y="-250.5" font-family="Helvetica,sans-Serif" font-size="10.00">FrameBuffer::create</text>
</a>
</g>
</g>
<!-- Node6&#45;&gt;Node7 -->
<g id="edge6" class="edge">
<title>Node6&#45;&gt;Node7</title>
<path fill="none" stroke="midnightblue" d="M342.03,-253C355.36,-253 369.16,-253 382.1,-253"/>
<polygon fill="midnightblue" stroke="midnightblue" points="382.27,-256.5 392.27,-253 382.27,-249.5 382.27,-256.5"/>
</g>
<!-- Node9 -->
<g id="node9" class="node">
<title>Node9</title>
<g id="a_node9"><a xlink:href="class_render_pass.html#a7192ec68626bea374e5003f022dfb0a6" target="_top" xlink:title=" ">
<polygon fill="none" stroke="black" points="392.5,-202.5 392.5,-221.5 493.5,-221.5 493.5,-202.5 392.5,-202.5"/>
<text text-anchor="middle" x="443" y="-209.5" font-family="Helvetica,sans-Serif" font-size="10.00">RenderPass::create</text>
</a>
</g>
</g>
<!-- Node8&#45;&gt;Node9 -->
<g id="edge8" class="edge">
<title>Node8&#45;&gt;Node9</title>
<path fill="none" stroke="midnightblue" d="M355.25,-210.48C364.34,-210.64 373.44,-210.8 382.16,-210.95"/>
<polygon fill="midnightblue" stroke="midnightblue" points="382.13,-214.45 392.19,-211.13 382.25,-207.45 382.13,-214.45"/>
</g>
<!-- Node11 -->
<g id="node11" class="node">
<title>Node11</title>
<g id="a_node11"><a xlink:href="class_framebuffer_selector.html#aaeb567a08ff24b698ee8cc569980c937" target="_top" xlink:title=" ">
<polygon fill="none" stroke="black" points="391,-153 391,-183 495,-183 495,-153 391,-153"/>
<text text-anchor="start" x="399" y="-171" font-family="Helvetica,sans-Serif" font-size="10.00">FramebufferSelector</text>
<text text-anchor="middle" x="443" y="-160" font-family="Helvetica,sans-Serif" font-size="10.00">::create</text>
</a>
</g>
</g>
<!-- Node10&#45;&gt;Node11 -->
<g id="edge10" class="edge">
<title>Node10&#45;&gt;Node11</title>
<path fill="none" stroke="midnightblue" d="M311.96,-120.09C335.88,-128.9 366.25,-140.09 391.62,-149.44"/>
<polygon fill="midnightblue" stroke="midnightblue" points="390.49,-152.75 401.08,-152.92 392.91,-146.18 390.49,-152.75"/>
</g>
<!-- Node12 -->
<g id="node12" class="node">
<title>Node12</title>
<g id="a_node12"><a xlink:href="class_image.html#a729f597dc28bd5261b1860643ed9513f" target="_top" xlink:title=" ">
<polygon fill="none" stroke="black" points="552.5,-136.5 552.5,-155.5 627.5,-155.5 627.5,-136.5 552.5,-136.5"/>
<text text-anchor="middle" x="590" y="-143.5" font-family="Helvetica,sans-Serif" font-size="10.00">Image::create</text>
</a>
</g>
</g>
<!-- Node10&#45;&gt;Node12 -->
<g id="edge13" class="edge">
<title>Node10&#45;&gt;Node12</title>
<path fill="none" stroke="midnightblue" d="M340.79,-114C401.98,-121.89 489.23,-133.14 542.33,-139.98"/>
<polygon fill="midnightblue" stroke="midnightblue" points="542.11,-143.48 552.47,-141.29 543,-136.54 542.11,-143.48"/>
</g>
<!-- Node13 -->
<g id="node13" class="node">
<title>Node13</title>
<g id="a_node13"><a xlink:href="class_swap_chain.html#ad6e69feb47cd7d9016c468d2fe01f8af" target="_top" xlink:title=" ">
<polygon fill="none" stroke="black" points="394,-76.5 394,-95.5 492,-95.5 492,-76.5 394,-76.5"/>
<text text-anchor="middle" x="443" y="-83.5" font-family="Helvetica,sans-Serif" font-size="10.00">SwapChain::create</text>
</a>
</g>
</g>
<!-- Node10&#45;&gt;Node13 -->
<g id="edge12" class="edge">
<title>Node10&#45;&gt;Node13</title>
<path fill="none" stroke="midnightblue" d="M340.55,-97.27C354.99,-95.67 370.05,-93.99 384.02,-92.44"/>
<polygon fill="midnightblue" stroke="midnightblue" points="384.42,-95.92 393.97,-91.34 383.64,-88.96 384.42,-95.92"/>
</g>
<!-- Node14 -->
<g id="node14" class="node">
<title>Node14</title>
<g id="a_node14"><a xlink:href="class_image_view.html#a49f8e14c3fd61c0e19735f7f3c397f94" target="_top" xlink:title=" ">
<polygon fill="none" stroke="black" points="394.5,-38.5 394.5,-57.5 491.5,-57.5 491.5,-38.5 394.5,-38.5"/>
<text text-anchor="middle" x="443" y="-45.5" font-family="Helvetica,sans-Serif" font-size="10.00">ImageView::create</text>
</a>
</g>
</g>
<!-- Node10&#45;&gt;Node14 -->
<g id="edge14" class="edge">
<title>Node10&#45;&gt;Node14</title>
<path fill="none" stroke="midnightblue" d="M316.38,-89.87C343.54,-80.82 377.7,-69.43 403.53,-60.82"/>
<polygon fill="midnightblue" stroke="midnightblue" points="404.97,-64.03 413.35,-57.55 402.75,-57.39 404.97,-64.03"/>
</g>
<!-- Node15 -->
<g id="node15" class="node">
<title>Node15</title>
<g id="a_node15"><a xlink:href="class_utils.html#ac44035a9bc80c570cfcd56ded0dad0a5" target="_top" xlink:title=" ">
<polygon fill="none" stroke="black" points="406,-0.5 406,-19.5 480,-19.5 480,-0.5 406,-0.5"/>
<text text-anchor="middle" x="443" y="-7.5" font-family="Helvetica,sans-Serif" font-size="10.00">Utils::remove</text>
</a>
</g>
</g>
<!-- Node10&#45;&gt;Node15 -->
<g id="edge15" class="edge">
<title>Node10&#45;&gt;Node15</title>
<path fill="none" stroke="midnightblue" d="M291.89,-89.87C315.24,-73.43 354.55,-47.09 391,-29 395.06,-26.98 399.39,-25.06 403.75,-23.26"/>
<polygon fill="midnightblue" stroke="midnightblue" points="405.21,-26.44 413.23,-19.53 402.64,-19.93 405.21,-26.44"/>
</g>
<!-- Node11&#45;&gt;Node12 -->
<g id="edge11" class="edge">
<title>Node11&#45;&gt;Node12</title>
<path fill="none" stroke="midnightblue" d="M495.12,-160.24C510.49,-157.91 527.27,-155.37 542.33,-153.08"/>
<polygon fill="midnightblue" stroke="midnightblue" points="543.09,-156.51 552.45,-151.55 542.04,-149.59 543.09,-156.51"/>
</g>
</g>
</svg>
