<?xml version="1.0" encoding="UTF-8" standalone="no"?>
<!DOCTYPE svg PUBLIC "-//W3C//DTD SVG 1.1//EN"
 "http://www.w3.org/Graphics/SVG/1.1/DTD/svg11.dtd">
<!-- Generated by graphviz version 2.49.3 (20211027.1501)
 -->
<!-- Title: Instance Pages: 1 -->
<svg width="146pt" height="321pt"
 viewBox="0.00 0.00 145.50 321.00" xmlns="http://www.w3.org/2000/svg" xmlns:xlink="http://www.w3.org/1999/xlink">
<g id="graph0" class="graph" transform="scale(1 1) rotate(0) translate(4 317)">
<title>Instance</title>
<!-- Node1 -->
<g id="node1" class="node">
<title>Node1</title>
<g id="a_node1"><a xlink:title=" ">
<polygon fill="#bfbfbf" stroke="black" points="10.5,-0.5 10.5,-90.5 126.5,-90.5 126.5,-0.5 10.5,-0.5"/>
<text text-anchor="middle" x="68.5" y="-78.5" font-family="Helvetica,sans-Serif" font-size="10.00">Instance</text>
<polyline fill="none" stroke="black" points="10.5,-71.5 126.5,-71.5 "/>
<text text-anchor="middle" x="68.5" y="-59.5" font-family="Helvetica,sans-Serif" font-size="10.00"> </text>
<polyline fill="none" stroke="black" points="10.5,-52.5 126.5,-52.5 "/>
<text text-anchor="start" x="18.5" y="-40.5" font-family="Helvetica,sans-Serif" font-size="10.00">+ Instance()</text>
<text text-anchor="start" x="18.5" y="-29.5" font-family="Helvetica,sans-Serif" font-size="10.00">+ getPhysicalDevice()</text>
<text text-anchor="start" x="18.5" y="-18.5" font-family="Helvetica,sans-Serif" font-size="10.00">+ getValidationLayers()</text>
<text text-anchor="start" x="18.5" y="-7.5" font-family="Helvetica,sans-Serif" font-size="10.00">+ getExtensions()</text>
</a>
</g>
</g>
<!-- Node2 -->
<g id="node2" class="node">
<title>Node2</title>
<g id="a_node2"><a xlink:href="class_vulkan_class.html" target="_top" xlink:title=" ">
<polygon fill="none" stroke="black" points="0,-128.5 0,-196.5 137,-196.5 137,-128.5 0,-128.5"/>
<text text-anchor="middle" x="68.5" y="-184.5" font-family="Helvetica,sans-Serif" font-size="10.00">VulkanClass&lt; VkInstance &gt;</text>
<polyline fill="none" stroke="black" points="0,-177.5 137,-177.5 "/>
<text text-anchor="start" x="8" y="-165.5" font-family="Helvetica,sans-Serif" font-size="10.00"># handle</text>
<polyline fill="none" stroke="black" points="0,-158.5 137,-158.5 "/>
<text text-anchor="start" x="8" y="-146.5" font-family="Helvetica,sans-Serif" font-size="10.00">+ getHandle()</text>
<text text-anchor="start" x="8" y="-135.5" font-family="Helvetica,sans-Serif" font-size="10.00">+ getHandlePtr()</text>
</a>
</g>
</g>
<!-- Node2&#45;&gt;Node1 -->
<g id="edge1" class="edge">
<title>Node2&#45;&gt;Node1</title>
<path fill="none" stroke="midnightblue" d="M68.5,-118.05C68.5,-109.15 68.5,-99.76 68.5,-90.82"/>
<polygon fill="none" stroke="midnightblue" points="65,-118.24 68.5,-128.24 72,-118.24 65,-118.24"/>
</g>
<!-- Node3 -->
<g id="node3" class="node">
<title>Node3</title>
<g id="a_node3"><a xlink:href="class_vulkan_class.html" target="_top" xlink:title=" ">
<polygon fill="none" stroke="black" points="21.5,-244.5 21.5,-312.5 115.5,-312.5 115.5,-244.5 21.5,-244.5"/>
<text text-anchor="middle" x="68.5" y="-300.5" font-family="Helvetica,sans-Serif" font-size="10.00">VulkanClass&lt; T &gt;</text>
<polyline fill="none" stroke="black" points="21.5,-293.5 115.5,-293.5 "/>
<text text-anchor="start" x="29.5" y="-281.5" font-family="Helvetica,sans-Serif" font-size="10.00"># handle</text>
<polyline fill="none" stroke="black" points="21.5,-274.5 115.5,-274.5 "/>
<text text-anchor="start" x="29.5" y="-262.5" font-family="Helvetica,sans-Serif" font-size="10.00">+ getHandle()</text>
<text text-anchor="start" x="29.5" y="-251.5" font-family="Helvetica,sans-Serif" font-size="10.00">+ getHandlePtr()</text>
</a>
</g>
</g>
<!-- Node3&#45;&gt;Node2 -->
<g id="edge2" class="edge">
<title>Node3&#45;&gt;Node2</title>
<path fill="none" stroke="orange" d="M68.5,-234.06C68.5,-221.64 68.5,-208.32 68.5,-196.62"/>
<polygon fill="orange" stroke="orange" points="65,-234.22 68.5,-244.22 72,-234.22 65,-234.22"/>
<text text-anchor="middle" x="103" y="-218" font-family="Helvetica,sans-Serif" font-size="10.00"> &lt; VkInstance &gt;</text>
</g>
</g>
</svg>
