<?xml version="1.0" encoding="UTF-8" standalone="no"?>
<!DOCTYPE svg PUBLIC "-//W3C//DTD SVG 1.1//EN"
 "http://www.w3.org/Graphics/SVG/1.1/DTD/svg11.dtd">
<!-- Generated by graphviz version 3.0.0 (20220413.0106)
 -->
<!-- Title: VoxelFragmentStreamBase Pages: 1 -->
<svg width="213pt" height="529pt"
 viewBox="0.00 0.00 212.50 529.00" xmlns="http://www.w3.org/2000/svg" xmlns:xlink="http://www.w3.org/1999/xlink">
<g id="graph0" class="graph" transform="scale(1 1) rotate(0) translate(4 525)">
<title>VoxelFragmentStreamBase</title>
<!-- Node1 -->
<g id="node1" class="node">
<title>Node1</title>
<g id="a_node1"><a xlink:title=" ">
<polygon fill="#bfbfbf" stroke="black" points="9,-0.5 9,-145.5 164,-145.5 164,-0.5 9,-0.5"/>
<text text-anchor="middle" x="86.5" y="-133.5" font-family="Helvetica,sans-Serif" font-size="10.00">VoxelFragmentStreamBase</text>
<polyline fill="none" stroke="black" points="9,-126.5 164,-126.5 "/>
<text text-anchor="start" x="17" y="-114.5" font-family="Helvetica,sans-Serif" font-size="10.00"># voxelIndex</text>
<polyline fill="none" stroke="black" points="9,-107.5 164,-107.5 "/>
<text text-anchor="start" x="17" y="-95.5" font-family="Helvetica,sans-Serif" font-size="10.00">+ getVoxelIndex()</text>
<text text-anchor="start" x="17" y="-84.5" font-family="Helvetica,sans-Serif" font-size="10.00">+ setVoxelIndex()</text>
<text text-anchor="start" x="17" y="-73.5" font-family="Helvetica,sans-Serif" font-size="10.00">+ skipVoxel()</text>
<text text-anchor="start" x="17" y="-62.5" font-family="Helvetica,sans-Serif" font-size="10.00">+ skipVoxels()</text>
<text text-anchor="start" x="17" y="-51.5" font-family="Helvetica,sans-Serif" font-size="10.00">+ getCurrentVoxelFragment()</text>
<text text-anchor="start" x="17" y="-40.5" font-family="Helvetica,sans-Serif" font-size="10.00">+ getNextVoxelFragment()</text>
<text text-anchor="start" x="17" y="-29.5" font-family="Helvetica,sans-Serif" font-size="10.00">+ refreshCurrentVoxelFragment</text>
<text text-anchor="start" x="17" y="-18.5" font-family="Helvetica,sans-Serif" font-size="10.00">Data()</text>
<text text-anchor="start" x="17" y="-7.5" font-family="Helvetica,sans-Serif" font-size="10.00">+ ~VoxelFragmentStreamBase()</text>
</a>
</g>
</g>
<!-- Node2 -->
<g id="node2" class="node">
<title>Node2</title>
<g id="a_node2"><a xlink:href="class_voxel_codec_base.html" target="_top" xlink:title=" ">
<polygon fill="none" stroke="black" points="25,-193.5 25,-393.5 148,-393.5 148,-193.5 25,-193.5"/>
<text text-anchor="middle" x="86.5" y="-381.5" font-family="Helvetica,sans-Serif" font-size="10.00">VoxelCodecBase</text>
<polyline fill="none" stroke="black" points="25,-374.5 148,-374.5 "/>
<text text-anchor="start" x="33" y="-362.5" font-family="Helvetica,sans-Serif" font-size="10.00"># allocationPtr</text>
<text text-anchor="start" x="33" y="-351.5" font-family="Helvetica,sans-Serif" font-size="10.00"># size</text>
<text text-anchor="start" x="33" y="-340.5" font-family="Helvetica,sans-Serif" font-size="10.00"># readWritePtr</text>
<text text-anchor="start" x="33" y="-329.5" font-family="Helvetica,sans-Serif" font-size="10.00"># voxelIndex</text>
<polyline fill="none" stroke="black" points="25,-322.5 148,-322.5 "/>
<text text-anchor="start" x="33" y="-310.5" font-family="Helvetica,sans-Serif" font-size="10.00">+ getDataPtr()</text>
<text text-anchor="start" x="33" y="-299.5" font-family="Helvetica,sans-Serif" font-size="10.00">+ getReadWritePtr()</text>
<text text-anchor="start" x="33" y="-288.5" font-family="Helvetica,sans-Serif" font-size="10.00">+ getCurrentVoxelIndex()</text>
<text text-anchor="start" x="33" y="-277.5" font-family="Helvetica,sans-Serif" font-size="10.00">+ skipVoxel()</text>
<text text-anchor="start" x="33" y="-266.5" font-family="Helvetica,sans-Serif" font-size="10.00">+ skipVoxels()</text>
<text text-anchor="start" x="33" y="-255.5" font-family="Helvetica,sans-Serif" font-size="10.00">+ jumpToVoxel()</text>
<text text-anchor="start" x="33" y="-244.5" font-family="Helvetica,sans-Serif" font-size="10.00">+ jumpToVoxel()</text>
<text text-anchor="start" x="33" y="-233.5" font-family="Helvetica,sans-Serif" font-size="10.00">+ getElementPtr()</text>
<text text-anchor="start" x="33" y="-222.5" font-family="Helvetica,sans-Serif" font-size="10.00">+ copyElementToPtr()</text>
<text text-anchor="start" x="33" y="-211.5" font-family="Helvetica,sans-Serif" font-size="10.00">+ copyElementFromPtr()</text>
<text text-anchor="start" x="33" y="-200.5" font-family="Helvetica,sans-Serif" font-size="10.00">+ ~VoxelCodecBase()</text>
</a>
</g>
</g>
<!-- Node2&#45;&gt;Node1 -->
<g id="edge1" class="edge">
<title>Node2&#45;&gt;Node1</title>
<path fill="none" stroke="#404040" d="M86.5,-193.48C86.5,-181.49 86.5,-169.35 86.5,-157.61"/>
<polygon fill="none" stroke="#404040" points="86.5,-157.56 82.5,-151.56 86.5,-145.56 90.5,-151.56 86.5,-157.56"/>
<text text-anchor="middle" x="103.5" y="-167" font-family="Helvetica,sans-Serif" font-size="10.00"> #codec</text>
</g>
<!-- Node3 -->
<g id="node3" class="node">
<title>Node3</title>
<g id="a_node3"><a xlink:href="struct_voxel_region.html" target="_top" xlink:title=" ">
<polygon fill="none" stroke="black" points="0,-441.5 0,-520.5 71,-520.5 71,-441.5 0,-441.5"/>
<text text-anchor="middle" x="35.5" y="-508.5" font-family="Helvetica,sans-Serif" font-size="10.00">VoxelRegion</text>
<polyline fill="none" stroke="black" points="0,-501.5 71,-501.5 "/>
<text text-anchor="start" x="8" y="-489.5" font-family="Helvetica,sans-Serif" font-size="10.00">+ x</text>
<text text-anchor="start" x="8" y="-478.5" font-family="Helvetica,sans-Serif" font-size="10.00">+ y</text>
<text text-anchor="start" x="8" y="-467.5" font-family="Helvetica,sans-Serif" font-size="10.00">+ z</text>
<polyline fill="none" stroke="black" points="0,-460.5 71,-460.5 "/>
<text text-anchor="middle" x="35.5" y="-448.5" font-family="Helvetica,sans-Serif" font-size="10.00"> </text>
</a>
</g>
</g>
<!-- Node3&#45;&gt;Node2 -->
<g id="edge2" class="edge">
<title>Node3&#45;&gt;Node2</title>
<path fill="none" stroke="#404040" d="M42.03,-441.34C43.89,-431.7 46.08,-421.43 48.5,-412 49.05,-409.84 49.63,-407.65 50.21,-405.46"/>
<polygon fill="none" stroke="#404040" points="50.29,-405.18 48.04,-398.33 53.49,-393.61 55.75,-400.46 50.29,-405.18"/>
<text text-anchor="middle" x="82.5" y="-415" font-family="Helvetica,sans-Serif" font-size="10.00"> #allocationSize</text>
</g>
<!-- Node4 -->
<g id="node4" class="node">
<title>Node4</title>
<g id="a_node4"><a xlink:href="class_allocator.html" target="_top" xlink:title=" ">
<polygon fill="none" stroke="black" points="89.5,-447 89.5,-515 187.5,-515 187.5,-447 89.5,-447"/>
<text text-anchor="middle" x="138.5" y="-503" font-family="Helvetica,sans-Serif" font-size="10.00">Allocator</text>
<polyline fill="none" stroke="black" points="89.5,-496 187.5,-496 "/>
<text text-anchor="middle" x="138.5" y="-484" font-family="Helvetica,sans-Serif" font-size="10.00"> </text>
<polyline fill="none" stroke="black" points="89.5,-477 187.5,-477 "/>
<text text-anchor="start" x="97.5" y="-465" font-family="Helvetica,sans-Serif" font-size="10.00">+ makeAllocation()</text>
<text text-anchor="start" x="97.5" y="-454" font-family="Helvetica,sans-Serif" font-size="10.00">+ ~Allocator()</text>
</a>
</g>
</g>
<!-- Node4&#45;&gt;Node2 -->
<g id="edge3" class="edge">
<title>Node4&#45;&gt;Node2</title>
<path fill="none" stroke="#404040" d="M129.2,-446.84C125.83,-434.79 121.8,-420.43 117.59,-405.4"/>
<polygon fill="none" stroke="#404040" points="117.58,-405.37 112.11,-400.67 114.34,-393.81 119.81,-398.51 117.58,-405.37"/>
<text text-anchor="middle" x="163" y="-415" font-family="Helvetica,sans-Serif" font-size="10.00"> #allocationHandler</text>
</g>
</g>
</svg>
