<?xml version="1.0" encoding="UTF-8" standalone="no"?>
<!DOCTYPE svg PUBLIC "-//W3C//DTD SVG 1.1//EN"
 "http://www.w3.org/Graphics/SVG/1.1/DTD/svg11.dtd">
<!-- Generated by graphviz version 2.49.3 (20211215.1918)
 -->
<!-- Title: MaterialLibrary::registerShader Pages: 1 -->
<svg width="235pt" height="52pt"
 viewBox="0.00 0.00 235.00 51.50" xmlns="http://www.w3.org/2000/svg" xmlns:xlink="http://www.w3.org/1999/xlink">
<g id="graph0" class="graph" transform="scale(1 1) rotate(0) translate(4 47.5)">
<title>MaterialLibrary::registerShader</title>
<!-- Node1 -->
<g id="node1" class="node">
<title>Node1</title>
<g id="a_node1"><a xlink:title=" ">
<polygon fill="#bfbfbf" stroke="black" points="0,-0.5 0,-30.5 117,-30.5 117,-0.5 0,-0.5"/>
<text text-anchor="start" x="8" y="-18.5" font-family="Helvetica,sans-Serif" font-size="10.00">MaterialLibrary::register</text>
<text text-anchor="middle" x="58.5" y="-7.5" font-family="Helvetica,sans-Serif" font-size="10.00">Shader</text>
</a>
</g>
</g>
<!-- Node2 -->
<g id="node2" class="node">
<title>Node2</title>
<g id="a_node2"><a xlink:href="class_buffer.html#a04bbfbb11daccc5656c698c63214aefc" target="_top" xlink:title=" ">
<polygon fill="none" stroke="black" points="153,-6 153,-25 227,-25 227,-6 153,-6"/>
<text text-anchor="middle" x="190" y="-13" font-family="Helvetica,sans-Serif" font-size="10.00">Buffer::create</text>
</a>
</g>
</g>
<!-- Node1&#45;&gt;Node2 -->
<g id="edge1" class="edge">
<title>Node1&#45;&gt;Node2</title>
<path fill="none" stroke="midnightblue" d="M117.05,-15.5C125.6,-15.5 134.32,-15.5 142.61,-15.5"/>
<polygon fill="midnightblue" stroke="midnightblue" points="142.82,-19 152.82,-15.5 142.82,-12 142.82,-19"/>
</g>
<!-- Node2&#45;&gt;Node2 -->
<g id="edge2" class="edge">
<title>Node2&#45;&gt;Node2</title>
<path fill="none" stroke="midnightblue" d="M169.96,-25.26C160.22,-34.07 166.89,-43.5 190,-43.5 204.8,-43.5 212.86,-39.63 214.18,-34.53"/>
<polygon fill="midnightblue" stroke="midnightblue" points="217.31,-32.96 210.04,-25.26 210.92,-35.81 217.31,-32.96"/>
</g>
</g>
</svg>
