<?xml version="1.0" encoding="UTF-8" standalone="no"?>
<!DOCTYPE svg PUBLIC "-//W3C//DTD SVG 1.1//EN"
 "http://www.w3.org/Graphics/SVG/1.1/DTD/svg11.dtd">
<!-- Generated by graphviz version 2.50.0 (20220203.2022)
 -->
<!-- Title: VertexShader::create Pages: 1 -->
<svg width="703pt" height="154pt"
 viewBox="0.00 0.00 703.00 154.00" xmlns="http://www.w3.org/2000/svg" xmlns:xlink="http://www.w3.org/1999/xlink">
<g id="graph0" class="graph" transform="scale(1 1) rotate(0) translate(4 150)">
<title>VertexShader::create</title>
<!-- Node1 -->
<g id="node1" class="node">
<title>Node1</title>
<g id="a_node1"><a xlink:title=" ">
<polygon fill="#bfbfbf" stroke="black" points="588,-60.5 588,-79.5 695,-79.5 695,-60.5 588,-60.5"/>
<text text-anchor="middle" x="641.5" y="-67.5" font-family="Helvetica,sans-Serif" font-size="10.00">VertexShader::create</text>
</a>
</g>
</g>
<!-- Node2 -->
<g id="node2" class="node">
<title>Node2</title>
<g id="a_node2"><a xlink:href="class_mandelbrot_app.html#a5e76d0eb44ecf689ac5dc6a2a9336795" target="_top" xlink:title=" ">
<polygon fill="none" stroke="black" points="400,-77 400,-107 552,-107 552,-77 400,-77"/>
<text text-anchor="start" x="408" y="-95" font-family="Helvetica,sans-Serif" font-size="10.00">MandelbrotApp::createGraphics</text>
<text text-anchor="middle" x="476" y="-84" font-family="Helvetica,sans-Serif" font-size="10.00">Pipeline</text>
</a>
</g>
</g>
<!-- Node1&#45;&gt;Node2 -->
<g id="edge1" class="edge">
<title>Node1&#45;&gt;Node2</title>
<path fill="none" stroke="midnightblue" d="M577.8,-78.44C569.41,-79.57 560.74,-80.73 552.16,-81.89"/>
<polygon fill="midnightblue" stroke="midnightblue" points="578.42,-81.88 587.87,-77.08 577.49,-74.95 578.42,-81.88"/>
</g>
<!-- Node7 -->
<g id="node7" class="node">
<title>Node7</title>
<g id="a_node7"><a xlink:href="class_mandelbrot_app.html#ae15547e49fb9d4a3b4ee4b9603dd1968" target="_top" xlink:title=" ">
<polygon fill="none" stroke="black" points="408,-126.5 408,-145.5 544,-145.5 544,-126.5 408,-126.5"/>
<text text-anchor="middle" x="476" y="-133.5" font-family="Helvetica,sans-Serif" font-size="10.00">MandelbrotApp::loadModels</text>
</a>
</g>
</g>
<!-- Node1&#45;&gt;Node7 -->
<g id="edge6" class="edge">
<title>Node1&#45;&gt;Node7</title>
<path fill="none" stroke="midnightblue" d="M615.77,-84.72C598.39,-94.6 574.34,-107.34 552,-116 541.57,-120.04 530.02,-123.57 519.17,-126.48"/>
<polygon fill="midnightblue" stroke="midnightblue" points="617.77,-87.61 624.68,-79.57 614.27,-81.54 617.77,-87.61"/>
</g>
<!-- Node8 -->
<g id="node8" class="node">
<title>Node8</title>
<g id="a_node8"><a xlink:href="class_vulkan_rasterizer.html#a0649950f85953da05358416d7616fc09" target="_top" xlink:title=" ">
<polygon fill="none" stroke="black" points="404,-38.5 404,-57.5 548,-57.5 548,-38.5 404,-38.5"/>
<text text-anchor="middle" x="476" y="-45.5" font-family="Helvetica,sans-Serif" font-size="10.00">VulkanRasterizer::loadModels</text>
</a>
</g>
</g>
<!-- Node1&#45;&gt;Node8 -->
<g id="edge8" class="edge">
<title>Node1&#45;&gt;Node8</title>
<path fill="none" stroke="midnightblue" d="M577.78,-61.56C567.95,-60.24 557.72,-58.86 547.72,-57.52"/>
<polygon fill="midnightblue" stroke="midnightblue" points="577.49,-65.05 587.87,-62.92 578.42,-58.12 577.49,-65.05"/>
</g>
<!-- Node12 -->
<g id="node12" class="node">
<title>Node12</title>
<g id="a_node12"><a xlink:href="vulkan__voxel__rasterizer_8cpp.html#ae66f6b31b5ad750f1fe042a706a4e3d4" target="_top" xlink:title=" ">
<polygon fill="none" stroke="black" points="457,-0.5 457,-19.5 495,-19.5 495,-0.5 457,-0.5"/>
<text text-anchor="middle" x="476" y="-7.5" font-family="Helvetica,sans-Serif" font-size="10.00">main</text>
</a>
</g>
</g>
<!-- Node1&#45;&gt;Node12 -->
<g id="edge12" class="edge">
<title>Node1&#45;&gt;Node12</title>
<path fill="none" stroke="midnightblue" d="M613.33,-55.81C596.1,-47.22 573.14,-36.5 552,-29 533.01,-22.26 510.53,-16.9 495.16,-13.61"/>
<polygon fill="midnightblue" stroke="midnightblue" points="611.77,-58.94 622.27,-60.34 614.93,-52.7 611.77,-58.94"/>
</g>
<!-- Node3 -->
<g id="node3" class="node">
<title>Node3</title>
<g id="a_node3"><a xlink:href="class_mandelbrot_app.html#ad5c4a7e7fd79bc75fea87df0165005b6" target="_top" xlink:title=" ">
<polygon fill="none" stroke="black" points="226.5,-126.5 226.5,-145.5 355.5,-145.5 355.5,-126.5 226.5,-126.5"/>
<text text-anchor="middle" x="291" y="-133.5" font-family="Helvetica,sans-Serif" font-size="10.00">MandelbrotApp::initVulkan</text>
</a>
</g>
</g>
<!-- Node2&#45;&gt;Node3 -->
<g id="edge2" class="edge">
<title>Node2&#45;&gt;Node3</title>
<path fill="none" stroke="midnightblue" d="M402.65,-109.4C378.42,-115.22 352.33,-121.5 331.56,-126.49"/>
<polygon fill="midnightblue" stroke="midnightblue" points="403.63,-112.76 412.53,-107.02 401.99,-105.95 403.63,-112.76"/>
</g>
<!-- Node6 -->
<g id="node6" class="node">
<title>Node6</title>
<g id="a_node6"><a xlink:href="class_mandelbrot_app.html#a733620a6533fb25a6ffa309886b74904" target="_top" xlink:title=" ">
<polygon fill="none" stroke="black" points="218,-77 218,-107 364,-107 364,-77 218,-77"/>
<text text-anchor="start" x="226" y="-95" font-family="Helvetica,sans-Serif" font-size="10.00">MandelbrotApp::recreateSwap</text>
<text text-anchor="middle" x="291" y="-84" font-family="Helvetica,sans-Serif" font-size="10.00">Chain</text>
</a>
</g>
</g>
<!-- Node2&#45;&gt;Node6 -->
<g id="edge5" class="edge">
<title>Node2&#45;&gt;Node6</title>
<path fill="none" stroke="midnightblue" d="M389.53,-92C381.08,-92 372.57,-92 364.28,-92"/>
<polygon fill="midnightblue" stroke="midnightblue" points="389.77,-95.5 399.77,-92 389.77,-88.5 389.77,-95.5"/>
</g>
<!-- Node4 -->
<g id="node4" class="node">
<title>Node4</title>
<g id="a_node4"><a xlink:href="class_mandelbrot_app.html#a2cd742dc1400d3cf3e4ed782976fda5f" target="_top" xlink:title=" ">
<polygon fill="none" stroke="black" points="78,-126.5 78,-145.5 178,-145.5 178,-126.5 78,-126.5"/>
<text text-anchor="middle" x="128" y="-133.5" font-family="Helvetica,sans-Serif" font-size="10.00">MandelbrotApp::run</text>
</a>
</g>
</g>
<!-- Node3&#45;&gt;Node4 -->
<g id="edge3" class="edge">
<title>Node3&#45;&gt;Node4</title>
<path fill="none" stroke="midnightblue" d="M216.09,-136C203.18,-136 190.04,-136 178.02,-136"/>
<polygon fill="midnightblue" stroke="midnightblue" points="216.37,-139.5 226.37,-136 216.37,-132.5 216.37,-139.5"/>
</g>
<!-- Node5 -->
<g id="node5" class="node">
<title>Node5</title>
<g id="a_node5"><a xlink:href="vulkan__voxel__rasterizer__2_8cpp.html#ae66f6b31b5ad750f1fe042a706a4e3d4" target="_top" xlink:title=" ">
<polygon fill="none" stroke="black" points="0,-126.5 0,-145.5 38,-145.5 38,-126.5 0,-126.5"/>
<text text-anchor="middle" x="19" y="-133.5" font-family="Helvetica,sans-Serif" font-size="10.00">main</text>
</a>
</g>
</g>
<!-- Node4&#45;&gt;Node5 -->
<g id="edge4" class="edge">
<title>Node4&#45;&gt;Node5</title>
<path fill="none" stroke="midnightblue" d="M67.57,-136C56.86,-136 46.46,-136 38.14,-136"/>
<polygon fill="midnightblue" stroke="midnightblue" points="67.88,-139.5 77.88,-136 67.88,-132.5 67.88,-139.5"/>
</g>
<!-- Node7&#45;&gt;Node3 -->
<g id="edge7" class="edge">
<title>Node7&#45;&gt;Node3</title>
<path fill="none" stroke="midnightblue" d="M397.8,-136C383.78,-136 369.32,-136 355.75,-136"/>
<polygon fill="midnightblue" stroke="midnightblue" points="397.9,-139.5 407.9,-136 397.9,-132.5 397.9,-139.5"/>
</g>
<!-- Node9 -->
<g id="node9" class="node">
<title>Node9</title>
<g id="a_node9"><a xlink:href="class_vulkan_rasterizer.html#a91d83d21a2d62b9042827d03a8b4d7a0" target="_top" xlink:title=" ">
<polygon fill="none" stroke="black" points="237.5,-38.5 237.5,-57.5 344.5,-57.5 344.5,-38.5 237.5,-38.5"/>
<text text-anchor="middle" x="291" y="-45.5" font-family="Helvetica,sans-Serif" font-size="10.00">VulkanRasterizer::init</text>
</a>
</g>
</g>
<!-- Node8&#45;&gt;Node9 -->
<g id="edge9" class="edge">
<title>Node8&#45;&gt;Node9</title>
<path fill="none" stroke="midnightblue" d="M393.68,-48C377,-48 359.87,-48 344.53,-48"/>
<polygon fill="midnightblue" stroke="midnightblue" points="393.99,-51.5 403.99,-48 393.99,-44.5 393.99,-51.5"/>
</g>
<!-- Node10 -->
<g id="node10" class="node">
<title>Node10</title>
<g id="a_node10"><a xlink:href="class_vulkan_rasterizer.html#add1cfb13a3ae242ca9eef6c1e9e42751" target="_top" xlink:title=" ">
<polygon fill="none" stroke="black" points="74,-38.5 74,-57.5 182,-57.5 182,-38.5 74,-38.5"/>
<text text-anchor="middle" x="128" y="-45.5" font-family="Helvetica,sans-Serif" font-size="10.00">VulkanRasterizer::run</text>
</a>
</g>
</g>
<!-- Node9&#45;&gt;Node10 -->
<g id="edge10" class="edge">
<title>Node9&#45;&gt;Node10</title>
<path fill="none" stroke="midnightblue" d="M227.14,-48C212.25,-48 196.52,-48 182.11,-48"/>
<polygon fill="midnightblue" stroke="midnightblue" points="227.28,-51.5 237.28,-48 227.28,-44.5 227.28,-51.5"/>
</g>
<!-- Node11 -->
<g id="node11" class="node">
<title>Node11</title>
<g id="a_node11"><a xlink:href="vulkan__voxel__rasterizer__4_8cpp.html#ae66f6b31b5ad750f1fe042a706a4e3d4" target="_top" xlink:title=" ">
<polygon fill="none" stroke="black" points="0,-38.5 0,-57.5 38,-57.5 38,-38.5 0,-38.5"/>
<text text-anchor="middle" x="19" y="-45.5" font-family="Helvetica,sans-Serif" font-size="10.00">main</text>
</a>
</g>
</g>
<!-- Node10&#45;&gt;Node11 -->
<g id="edge11" class="edge">
<title>Node10&#45;&gt;Node11</title>
<path fill="none" stroke="midnightblue" d="M63.67,-48C54.41,-48 45.56,-48 38.28,-48"/>
<polygon fill="midnightblue" stroke="midnightblue" points="63.81,-51.5 73.81,-48 63.81,-44.5 63.81,-51.5"/>
</g>
</g>
</svg>
