<?xml version="1.0" encoding="UTF-8" standalone="no"?>
<!DOCTYPE svg PUBLIC "-//W3C//DTD SVG 1.1//EN"
 "http://www.w3.org/Graphics/SVG/1.1/DTD/svg11.dtd">
<!-- Generated by graphviz version 2.50.0 (20220203.2022)
 -->
<!-- Title: Material::create Pages: 1 -->
<svg width="428pt" height="78pt"
 viewBox="0.00 0.00 428.00 77.50" xmlns="http://www.w3.org/2000/svg" xmlns:xlink="http://www.w3.org/1999/xlink">
<g id="graph0" class="graph" transform="scale(1 1) rotate(0) translate(4 73.5)">
<title>Material::create</title>
<!-- Node1 -->
<g id="node1" class="node">
<title>Node1</title>
<g id="a_node1"><a xlink:title=" ">
<polygon fill="#bfbfbf" stroke="black" points="337,-28 337,-47 420,-47 420,-28 337,-28"/>
<text text-anchor="middle" x="378.5" y="-35" font-family="Helvetica,sans-Serif" font-size="10.00">Material::create</text>
</a>
</g>
</g>
<!-- Node2 -->
<g id="node2" class="node">
<title>Node2</title>
<g id="a_node2"><a xlink:href="class_mandelbrot_app.html#ae15547e49fb9d4a3b4ee4b9603dd1968" target="_top" xlink:title=" ">
<polygon fill="none" stroke="black" points="165,-50 165,-69 301,-69 301,-50 165,-50"/>
<text text-anchor="middle" x="233" y="-57" font-family="Helvetica,sans-Serif" font-size="10.00">MandelbrotApp::loadModels</text>
</a>
</g>
</g>
<!-- Node1&#45;&gt;Node2 -->
<g id="edge1" class="edge">
<title>Node1&#45;&gt;Node2</title>
<path fill="none" stroke="midnightblue" d="M326.67,-45.29C316.76,-46.81 306.25,-48.42 296.02,-49.99"/>
<polygon fill="midnightblue" stroke="midnightblue" points="327.41,-48.72 336.76,-43.75 326.35,-41.8 327.41,-48.72"/>
</g>
<!-- Node4 -->
<g id="node4" class="node">
<title>Node4</title>
<g id="a_node4"><a xlink:href="class_material_library.html#a6291b4eccf9ccbee1cef7a4f84b6b113" target="_top" xlink:title=" ">
<polygon fill="none" stroke="black" points="174.5,-0.5 174.5,-30.5 291.5,-30.5 291.5,-0.5 174.5,-0.5"/>
<text text-anchor="start" x="182.5" y="-18.5" font-family="Helvetica,sans-Serif" font-size="10.00">MaterialLibrary::register</text>
<text text-anchor="middle" x="233" y="-7.5" font-family="Helvetica,sans-Serif" font-size="10.00">Shader</text>
</a>
</g>
</g>
<!-- Node1&#45;&gt;Node4 -->
<g id="edge3" class="edge">
<title>Node1&#45;&gt;Node4</title>
<path fill="none" stroke="midnightblue" d="M326.63,-29.7C315.33,-27.97 303.27,-26.12 291.71,-24.35"/>
<polygon fill="midnightblue" stroke="midnightblue" points="326.35,-33.2 336.76,-31.25 327.41,-26.28 326.35,-33.2"/>
</g>
<!-- Node3 -->
<g id="node3" class="node">
<title>Node3</title>
<g id="a_node3"><a xlink:href="class_mandelbrot_app.html#ad5c4a7e7fd79bc75fea87df0165005b6" target="_top" xlink:title=" ">
<polygon fill="none" stroke="black" points="0,-50 0,-69 129,-69 129,-50 0,-50"/>
<text text-anchor="middle" x="64.5" y="-57" font-family="Helvetica,sans-Serif" font-size="10.00">MandelbrotApp::initVulkan</text>
</a>
</g>
</g>
<!-- Node2&#45;&gt;Node3 -->
<g id="edge2" class="edge">
<title>Node2&#45;&gt;Node3</title>
<path fill="none" stroke="midnightblue" d="M154.5,-59.5C146.03,-59.5 137.49,-59.5 129.22,-59.5"/>
<polygon fill="midnightblue" stroke="midnightblue" points="154.76,-63 164.76,-59.5 154.76,-56 154.76,-63"/>
</g>
</g>
</svg>
