<?xml version="1.0" encoding="UTF-8" standalone="no"?>
<!DOCTYPE svg PUBLIC "-//W3C//DTD SVG 1.1//EN"
 "http://www.w3.org/Graphics/SVG/1.1/DTD/svg11.dtd">
<!-- Generated by graphviz version 2.49.3 (20211215.1918)
 -->
<!-- Title: Buffer::create Pages: 1 -->
<svg width="822pt" height="187pt"
 viewBox="0.00 0.00 822.00 186.50" xmlns="http://www.w3.org/2000/svg" xmlns:xlink="http://www.w3.org/1999/xlink">
<g id="graph0" class="graph" transform="scale(1 1) rotate(0) translate(4 182.5)">
<title>Buffer::create</title>
<!-- Node1 -->
<g id="node1" class="node">
<title>Node1</title>
<g id="a_node1"><a xlink:title=" ">
<polygon fill="#bfbfbf" stroke="black" points="740,-77 740,-96 814,-96 814,-77 740,-77"/>
<text text-anchor="middle" x="777" y="-84" font-family="Helvetica,sans-Serif" font-size="10.00">Buffer::create</text>
</a>
</g>
</g>
<!-- Node1&#45;&gt;Node1 -->
<g id="edge8" class="edge">
<title>Node1&#45;&gt;Node1</title>
<path fill="none" stroke="midnightblue" d="M802.3,-105.53C800.92,-110.63 792.49,-114.5 777,-114.5 752.83,-114.5 745.84,-105.07 756.04,-96.26"/>
<polygon fill="midnightblue" stroke="midnightblue" points="805.37,-103.83 797.96,-96.26 799.03,-106.8 805.37,-103.83"/>
</g>
<!-- Node2 -->
<g id="node2" class="node">
<title>Node2</title>
<g id="a_node2"><a xlink:href="class_uniform_buffer.html#abc6f3719288674b9d9f236952f2c9021" target="_top" xlink:title=" ">
<polygon fill="none" stroke="black" points="586,-137 586,-156 694,-156 694,-137 586,-137"/>
<text text-anchor="middle" x="640" y="-144" font-family="Helvetica,sans-Serif" font-size="10.00">UniformBuffer::create</text>
</a>
</g>
</g>
<!-- Node1&#45;&gt;Node2 -->
<g id="edge1" class="edge">
<title>Node1&#45;&gt;Node2</title>
<path fill="none" stroke="midnightblue" d="M752.55,-101.64C738.8,-110.06 720.86,-120.27 704,-127.5 695.71,-131.06 686.53,-134.23 677.81,-136.91"/>
<polygon fill="midnightblue" stroke="midnightblue" points="754.71,-104.42 761.34,-96.16 751,-98.48 754.71,-104.42"/>
</g>
<!-- Node8 -->
<g id="node8" class="node">
<title>Node8</title>
<g id="a_node8"><a xlink:href="class_material_library.html#ad8adeb3cc0131d573145d3ce86607e5e" target="_top" xlink:title=" ">
<polygon fill="none" stroke="black" points="584,-99 584,-118 696,-118 696,-99 584,-99"/>
<text text-anchor="middle" x="640" y="-106" font-family="Helvetica,sans-Serif" font-size="10.00">MaterialLibrary::create</text>
</a>
</g>
</g>
<!-- Node1&#45;&gt;Node8 -->
<g id="edge7" class="edge">
<title>Node1&#45;&gt;Node8</title>
<path fill="none" stroke="midnightblue" d="M729.73,-94.04C718.9,-95.81 707.26,-97.7 696.09,-99.52"/>
<polygon fill="midnightblue" stroke="midnightblue" points="730.52,-97.46 739.82,-92.4 729.39,-90.55 730.52,-97.46"/>
</g>
<!-- Node9 -->
<g id="node9" class="node">
<title>Node9</title>
<g id="a_node9"><a xlink:href="class_buffer.html#acecb553ef3ce833addccf1979b064a53" target="_top" xlink:title=" ">
<polygon fill="none" stroke="black" points="576,-49.5 576,-79.5 704,-79.5 704,-49.5 576,-49.5"/>
<text text-anchor="start" x="584" y="-67.5" font-family="Helvetica,sans-Serif" font-size="10.00">Buffer::createHostStaging</text>
<text text-anchor="middle" x="640" y="-56.5" font-family="Helvetica,sans-Serif" font-size="10.00">Buffer</text>
</a>
</g>
</g>
<!-- Node1&#45;&gt;Node9 -->
<g id="edge9" class="edge">
<title>Node1&#45;&gt;Node9</title>
<path fill="none" stroke="midnightblue" d="M729.68,-78.95C721.44,-77.61 712.73,-76.19 704.12,-74.79"/>
<polygon fill="midnightblue" stroke="midnightblue" points="729.39,-82.45 739.82,-80.6 730.52,-75.54 729.39,-82.45"/>
</g>
<!-- Node11 -->
<g id="node11" class="node">
<title>Node11</title>
<g id="a_node11"><a xlink:href="class_material_library.html#a021e46149b4dcdc1a6ce9f564afcdc1b" target="_top" xlink:title=" ">
<polygon fill="none" stroke="black" points="581.5,-0.5 581.5,-30.5 698.5,-30.5 698.5,-0.5 581.5,-0.5"/>
<text text-anchor="start" x="589.5" y="-18.5" font-family="Helvetica,sans-Serif" font-size="10.00">MaterialLibrary::register</text>
<text text-anchor="middle" x="640" y="-7.5" font-family="Helvetica,sans-Serif" font-size="10.00">Shader</text>
</a>
</g>
</g>
<!-- Node1&#45;&gt;Node11 -->
<g id="edge11" class="edge">
<title>Node1&#45;&gt;Node11</title>
<path fill="none" stroke="midnightblue" d="M754.84,-70.95C740.86,-61.13 721.89,-48.62 704,-39.5 697.74,-36.31 690.96,-33.3 684.24,-30.56"/>
<polygon fill="midnightblue" stroke="midnightblue" points="753.07,-73.99 763.24,-76.96 757.14,-68.3 753.07,-73.99"/>
</g>
<!-- Node3 -->
<g id="node3" class="node">
<title>Node3</title>
<g id="a_node3"><a xlink:href="class_mandelbrot_app.html#a2c5c1ee9048f4abe7dc58673336cf1f0" target="_top" xlink:title=" ">
<polygon fill="none" stroke="black" points="392,-131.5 392,-161.5 540,-161.5 540,-131.5 392,-131.5"/>
<text text-anchor="start" x="400" y="-149.5" font-family="Helvetica,sans-Serif" font-size="10.00">MandelbrotApp::createUniform</text>
<text text-anchor="middle" x="466" y="-138.5" font-family="Helvetica,sans-Serif" font-size="10.00">Buffers</text>
</a>
</g>
</g>
<!-- Node2&#45;&gt;Node3 -->
<g id="edge2" class="edge">
<title>Node2&#45;&gt;Node3</title>
<path fill="none" stroke="midnightblue" d="M575.93,-146.5C564.27,-146.5 552,-146.5 540.07,-146.5"/>
<polygon fill="midnightblue" stroke="midnightblue" points="575.99,-150 585.99,-146.5 575.99,-143 575.99,-150"/>
</g>
<!-- Node4 -->
<g id="node4" class="node">
<title>Node4</title>
<g id="a_node4"><a xlink:href="class_mandelbrot_app.html#ad5c4a7e7fd79bc75fea87df0165005b6" target="_top" xlink:title=" ">
<polygon fill="none" stroke="black" points="218.5,-159 218.5,-178 347.5,-178 347.5,-159 218.5,-159"/>
<text text-anchor="middle" x="283" y="-166" font-family="Helvetica,sans-Serif" font-size="10.00">MandelbrotApp::initVulkan</text>
</a>
</g>
</g>
<!-- Node3&#45;&gt;Node4 -->
<g id="edge3" class="edge">
<title>Node3&#45;&gt;Node4</title>
<path fill="none" stroke="midnightblue" d="M381.89,-156.6C370.42,-158 358.8,-159.41 347.76,-160.75"/>
<polygon fill="midnightblue" stroke="midnightblue" points="382.4,-160.07 391.9,-155.38 381.55,-153.12 382.4,-160.07"/>
</g>
<!-- Node7 -->
<g id="node7" class="node">
<title>Node7</title>
<g id="a_node7"><a xlink:href="class_mandelbrot_app.html#a733620a6533fb25a6ffa309886b74904" target="_top" xlink:title=" ">
<polygon fill="none" stroke="black" points="210,-109.5 210,-139.5 356,-139.5 356,-109.5 210,-109.5"/>
<text text-anchor="start" x="218" y="-127.5" font-family="Helvetica,sans-Serif" font-size="10.00">MandelbrotApp::recreateSwap</text>
<text text-anchor="middle" x="283" y="-116.5" font-family="Helvetica,sans-Serif" font-size="10.00">Chain</text>
</a>
</g>
</g>
<!-- Node3&#45;&gt;Node7 -->
<g id="edge6" class="edge">
<title>Node3&#45;&gt;Node7</title>
<path fill="none" stroke="midnightblue" d="M381.89,-136.4C373.31,-135.36 364.64,-134.3 356.19,-133.27"/>
<polygon fill="midnightblue" stroke="midnightblue" points="381.55,-139.88 391.9,-137.62 382.4,-132.93 381.55,-139.88"/>
</g>
<!-- Node5 -->
<g id="node5" class="node">
<title>Node5</title>
<g id="a_node5"><a xlink:href="class_mandelbrot_app.html#a2cd742dc1400d3cf3e4ed782976fda5f" target="_top" xlink:title=" ">
<polygon fill="none" stroke="black" points="74,-159 74,-178 174,-178 174,-159 74,-159"/>
<text text-anchor="middle" x="124" y="-166" font-family="Helvetica,sans-Serif" font-size="10.00">MandelbrotApp::run</text>
</a>
</g>
</g>
<!-- Node4&#45;&gt;Node5 -->
<g id="edge4" class="edge">
<title>Node4&#45;&gt;Node5</title>
<path fill="none" stroke="midnightblue" d="M208.13,-168.5C196.68,-168.5 185.09,-168.5 174.35,-168.5"/>
<polygon fill="midnightblue" stroke="midnightblue" points="208.14,-172 218.14,-168.5 208.14,-165 208.14,-172"/>
</g>
<!-- Node6 -->
<g id="node6" class="node">
<title>Node6</title>
<g id="a_node6"><a xlink:href="vulkan__voxel__rasterizer__2_8cpp.html#ae66f6b31b5ad750f1fe042a706a4e3d4" target="_top" xlink:title=" ">
<polygon fill="none" stroke="black" points="0,-159 0,-178 38,-178 38,-159 0,-159"/>
<text text-anchor="middle" x="19" y="-166" font-family="Helvetica,sans-Serif" font-size="10.00">main</text>
</a>
</g>
</g>
<!-- Node5&#45;&gt;Node6 -->
<g id="edge5" class="edge">
<title>Node5&#45;&gt;Node6</title>
<path fill="none" stroke="midnightblue" d="M63.85,-168.5C54.65,-168.5 45.78,-168.5 38.46,-168.5"/>
<polygon fill="midnightblue" stroke="midnightblue" points="63.91,-172 73.91,-168.5 63.91,-165 63.91,-172"/>
</g>
<!-- Node10 -->
<g id="node10" class="node">
<title>Node10</title>
<g id="a_node10"><a xlink:href="class_buffer.html#ac0bd0ae62b73b6a5115347f8a661054a" target="_top" xlink:title=" ">
<polygon fill="none" stroke="black" points="400.5,-55 400.5,-74 531.5,-74 531.5,-55 400.5,-55"/>
<text text-anchor="middle" x="466" y="-62" font-family="Helvetica,sans-Serif" font-size="10.00">Buffer::transferDataStaged</text>
</a>
</g>
</g>
<!-- Node9&#45;&gt;Node10 -->
<g id="edge10" class="edge">
<title>Node9&#45;&gt;Node10</title>
<path fill="none" stroke="midnightblue" d="M565.62,-64.5C554.28,-64.5 542.63,-64.5 531.5,-64.5"/>
<polygon fill="midnightblue" stroke="midnightblue" points="565.93,-68 575.93,-64.5 565.93,-61 565.93,-68"/>
</g>
</g>
</svg>
