<?xml version="1.0" encoding="UTF-8" standalone="no"?>
<!DOCTYPE svg PUBLIC "-//W3C//DTD SVG 1.1//EN"
 "http://www.w3.org/Graphics/SVG/1.1/DTD/svg11.dtd">
<!-- Generated by graphviz version 2.50.0 (20220203.2022)
 -->
<!-- Title: DescriptorSet Pages: 1 -->
<svg width="167pt" height="497pt"
 viewBox="0.00 0.00 167.00 497.00" xmlns="http://www.w3.org/2000/svg" xmlns:xlink="http://www.w3.org/1999/xlink">
<g id="graph0" class="graph" transform="scale(1 1) rotate(0) translate(4 493)">
<title>DescriptorSet</title>
<!-- Node1 -->
<g id="node1" class="node">
<title>Node1</title>
<g id="a_node1"><a xlink:title=" ">
<polygon fill="#bfbfbf" stroke="black" points="6.5,-0.5 6.5,-255.5 129.5,-255.5 129.5,-0.5 6.5,-0.5"/>
<text text-anchor="middle" x="68" y="-243.5" font-family="Helvetica,sans-Serif" font-size="10.00">DescriptorSet</text>
<polyline fill="none" stroke="black" points="6.5,-236.5 129.5,-236.5 "/>
<text text-anchor="start" x="14.5" y="-224.5" font-family="Helvetica,sans-Serif" font-size="10.00">&#45; device</text>
<text text-anchor="start" x="14.5" y="-213.5" font-family="Helvetica,sans-Serif" font-size="10.00">&#45; setLayout</text>
<text text-anchor="start" x="14.5" y="-202.5" font-family="Helvetica,sans-Serif" font-size="10.00">&#45; pool</text>
<polyline fill="none" stroke="black" points="6.5,-195.5 129.5,-195.5 "/>
<text text-anchor="start" x="14.5" y="-183.5" font-family="Helvetica,sans-Serif" font-size="10.00">+ updateUniformBuffer()</text>
<text text-anchor="start" x="14.5" y="-172.5" font-family="Helvetica,sans-Serif" font-size="10.00">+ updateUniformBuffer()</text>
<text text-anchor="start" x="14.5" y="-161.5" font-family="Helvetica,sans-Serif" font-size="10.00">+ updateUniformBuffer()</text>
<text text-anchor="start" x="14.5" y="-150.5" font-family="Helvetica,sans-Serif" font-size="10.00">+ updateImageSampler()</text>
<text text-anchor="start" x="14.5" y="-139.5" font-family="Helvetica,sans-Serif" font-size="10.00">+ updateStorageBuffer()</text>
<text text-anchor="start" x="14.5" y="-128.5" font-family="Helvetica,sans-Serif" font-size="10.00">+ updateImages()</text>
<text text-anchor="start" x="14.5" y="-117.5" font-family="Helvetica,sans-Serif" font-size="10.00">+ updateImages()</text>
<text text-anchor="start" x="14.5" y="-106.5" font-family="Helvetica,sans-Serif" font-size="10.00">+ updateImage()</text>
<text text-anchor="start" x="14.5" y="-95.5" font-family="Helvetica,sans-Serif" font-size="10.00">+ updateImage()</text>
<text text-anchor="start" x="14.5" y="-84.5" font-family="Helvetica,sans-Serif" font-size="10.00">+ updateImage()</text>
<text text-anchor="start" x="14.5" y="-73.5" font-family="Helvetica,sans-Serif" font-size="10.00">+ getDevice()</text>
<text text-anchor="start" x="14.5" y="-62.5" font-family="Helvetica,sans-Serif" font-size="10.00">+ getPool()</text>
<text text-anchor="start" x="14.5" y="-51.5" font-family="Helvetica,sans-Serif" font-size="10.00">+ getLayout()</text>
<text text-anchor="start" x="14.5" y="-40.5" font-family="Helvetica,sans-Serif" font-size="10.00">+ ~DescriptorSet()</text>
<text text-anchor="start" x="14.5" y="-29.5" font-family="Helvetica,sans-Serif" font-size="10.00">+ create()</text>
<text text-anchor="start" x="14.5" y="-18.5" font-family="Helvetica,sans-Serif" font-size="10.00">+ create()</text>
<text text-anchor="start" x="14.5" y="-7.5" font-family="Helvetica,sans-Serif" font-size="10.00">+ create()</text>
</a>
</g>
</g>
<!-- Node2 -->
<g id="node2" class="node">
<title>Node2</title>
<g id="a_node2"><a xlink:href="class_vulkan_class.html" target="_top" xlink:title=" ">
<polygon fill="none" stroke="black" points="0,-293.5 0,-372.5 136,-372.5 136,-293.5 0,-293.5"/>
<text text-anchor="start" x="8" y="-360.5" font-family="Helvetica,sans-Serif" font-size="10.00">VulkanClass&lt; VkDescriptor</text>
<text text-anchor="middle" x="68" y="-349.5" font-family="Helvetica,sans-Serif" font-size="10.00">Set &gt;</text>
<polyline fill="none" stroke="black" points="0,-342.5 136,-342.5 "/>
<text text-anchor="start" x="8" y="-330.5" font-family="Helvetica,sans-Serif" font-size="10.00"># handle</text>
<polyline fill="none" stroke="black" points="0,-323.5 136,-323.5 "/>
<text text-anchor="start" x="8" y="-311.5" font-family="Helvetica,sans-Serif" font-size="10.00">+ getHandle()</text>
<text text-anchor="start" x="8" y="-300.5" font-family="Helvetica,sans-Serif" font-size="10.00">+ getHandlePtr()</text>
</a>
</g>
</g>
<!-- Node2&#45;&gt;Node1 -->
<g id="edge1" class="edge">
<title>Node2&#45;&gt;Node1</title>
<path fill="none" stroke="midnightblue" d="M68,-283.27C68,-274.71 68,-265.46 68,-255.89"/>
<polygon fill="none" stroke="midnightblue" points="64.5,-283.34 68,-293.34 71.5,-283.34 64.5,-283.34"/>
</g>
<!-- Node3 -->
<g id="node3" class="node">
<title>Node3</title>
<g id="a_node3"><a xlink:href="class_vulkan_class.html" target="_top" xlink:title=" ">
<polygon fill="none" stroke="black" points="21,-420.5 21,-488.5 115,-488.5 115,-420.5 21,-420.5"/>
<text text-anchor="middle" x="68" y="-476.5" font-family="Helvetica,sans-Serif" font-size="10.00">VulkanClass&lt; T &gt;</text>
<polyline fill="none" stroke="black" points="21,-469.5 115,-469.5 "/>
<text text-anchor="start" x="29" y="-457.5" font-family="Helvetica,sans-Serif" font-size="10.00"># handle</text>
<polyline fill="none" stroke="black" points="21,-450.5 115,-450.5 "/>
<text text-anchor="start" x="29" y="-438.5" font-family="Helvetica,sans-Serif" font-size="10.00">+ getHandle()</text>
<text text-anchor="start" x="29" y="-427.5" font-family="Helvetica,sans-Serif" font-size="10.00">+ getHandlePtr()</text>
</a>
</g>
</g>
<!-- Node3&#45;&gt;Node2 -->
<g id="edge2" class="edge">
<title>Node3&#45;&gt;Node2</title>
<path fill="none" stroke="orange" d="M68,-410.18C68,-397.89 68,-384.59 68,-372.6"/>
<polygon fill="orange" stroke="orange" points="64.5,-410.21 68,-420.21 71.5,-410.21 64.5,-410.21"/>
<text text-anchor="middle" x="113.5" y="-394" font-family="Helvetica,sans-Serif" font-size="10.00"> &lt; VkDescriptorSet &gt;</text>
</g>
</g>
</svg>
