<?xml version="1.0" encoding="UTF-8" standalone="no"?>
<!DOCTYPE svg PUBLIC "-//W3C//DTD SVG 1.1//EN"
 "http://www.w3.org/Graphics/SVG/1.1/DTD/svg11.dtd">
<!-- Generated by graphviz version 2.49.3 (20211215.1918)
 -->
<!-- Title: Buffer::create Pages: 1 -->
<svg width="246pt" height="116pt"
 viewBox="0.00 0.00 246.00 115.50" xmlns="http://www.w3.org/2000/svg" xmlns:xlink="http://www.w3.org/1999/xlink">
<g id="graph0" class="graph" transform="scale(1 1) rotate(0) translate(4 111.5)">
<title>Buffer::create</title>
<!-- Node1 -->
<g id="node1" class="node">
<title>Node1</title>
<g id="a_node1"><a xlink:title=" ">
<polygon fill="#bfbfbf" stroke="black" points="164,-50 164,-69 238,-69 238,-50 164,-50"/>
<text text-anchor="middle" x="201" y="-57" font-family="Helvetica,sans-Serif" font-size="10.00">Buffer::create</text>
</a>
</g>
</g>
<!-- Node2 -->
<g id="node2" class="node">
<title>Node2</title>
<g id="a_node2"><a xlink:href="class_uniform_buffer.html#abc6f3719288674b9d9f236952f2c9021" target="_top" xlink:title=" ">
<polygon fill="none" stroke="black" points="10,-88 10,-107 118,-107 118,-88 10,-88"/>
<text text-anchor="middle" x="64" y="-95" font-family="Helvetica,sans-Serif" font-size="10.00">UniformBuffer::create</text>
</a>
</g>
</g>
<!-- Node1&#45;&gt;Node2 -->
<g id="edge1" class="edge">
<title>Node1&#45;&gt;Node2</title>
<path fill="none" stroke="midnightblue" d="M156.24,-71.82C137.69,-77.04 116.4,-83.03 99.06,-87.91"/>
<polygon fill="midnightblue" stroke="midnightblue" points="157.26,-75.17 165.93,-69.09 155.36,-68.43 157.26,-75.17"/>
</g>
<!-- Node3 -->
<g id="node3" class="node">
<title>Node3</title>
<g id="a_node3"><a xlink:href="class_material_library.html#a520ec256f743cc30e2f97f3dfc8b8c63" target="_top" xlink:title=" ">
<polygon fill="none" stroke="black" points="8,-50 8,-69 120,-69 120,-50 8,-50"/>
<text text-anchor="middle" x="64" y="-57" font-family="Helvetica,sans-Serif" font-size="10.00">MaterialLibrary::create</text>
</a>
</g>
</g>
<!-- Node1&#45;&gt;Node3 -->
<g id="edge2" class="edge">
<title>Node1&#45;&gt;Node3</title>
<path fill="none" stroke="midnightblue" d="M153.73,-59.5C142.9,-59.5 131.26,-59.5 120.09,-59.5"/>
<polygon fill="midnightblue" stroke="midnightblue" points="153.82,-63 163.82,-59.5 153.82,-56 153.82,-63"/>
</g>
<!-- Node4 -->
<g id="node4" class="node">
<title>Node4</title>
<g id="a_node4"><a xlink:href="class_buffer.html#acecb553ef3ce833addccf1979b064a53" target="_top" xlink:title=" ">
<polygon fill="none" stroke="black" points="0,-0.5 0,-30.5 128,-30.5 128,-0.5 0,-0.5"/>
<text text-anchor="start" x="8" y="-18.5" font-family="Helvetica,sans-Serif" font-size="10.00">Buffer::createHostStaging</text>
<text text-anchor="middle" x="64" y="-7.5" font-family="Helvetica,sans-Serif" font-size="10.00">Buffer</text>
</a>
</g>
</g>
<!-- Node1&#45;&gt;Node4 -->
<g id="edge3" class="edge">
<title>Node1&#45;&gt;Node4</title>
<path fill="none" stroke="midnightblue" d="M160.9,-46.76C145.37,-41.7 127.39,-35.83 111.22,-30.57"/>
<polygon fill="midnightblue" stroke="midnightblue" points="160.11,-50.18 170.71,-49.95 162.28,-43.53 160.11,-50.18"/>
</g>
</g>
</svg>
