<?xml version="1.0" encoding="UTF-8" standalone="no"?>
<!DOCTYPE svg PUBLIC "-//W3C//DTD SVG 1.1//EN"
 "http://www.w3.org/Graphics/SVG/1.1/DTD/svg11.dtd">
<!-- Generated by graphviz version 2.50.0 (20220203.2022)
 -->
<!-- Title: Utils::readFile Pages: 1 -->
<!--zoomable 923 -->
<svg id="main" version="1.1" xmlns="http://www.w3.org/2000/svg" xmlns:xlink="http://www.w3.org/1999/xlink" xml:space="preserve" onload="init(evt)">
<style type="text/css"><![CDATA[
.edge:hover path { stroke: red; }
.edge:hover polygon { stroke: red; fill: red; }
]]></style>
<script type="text/javascript"><![CDATA[
var edges = document.getElementsByTagName('g');
if (edges && edges.length) {
  for (var i=0;i<edges.length;i++) {
    if (edges[i].id.substr(0,4)=='edge') {
      edges[i].setAttribute('class','edge');
    }
  }
}
]]></script>
        <defs>
                <circle id="rim" cx="0" cy="0" r="7"/>
                <circle id="rim2" cx="0" cy="0" r="3.5"/>
                <g id="zoomPlus">
                        <use xlink:href="#rim" fill="#404040">
                                <set attributeName="fill" to="#808080" begin="zoomplus.mouseover" end="zoomplus.mouseout"/>
                        </use>
                        <path d="M-4,0h8M0,-4v8" fill="none" stroke="white" stroke-width="1.5" pointer-events="none"/>
                </g>
                <g id="zoomMin">
                        <use xlink:href="#rim" fill="#404040">
                                <set attributeName="fill" to="#808080" begin="zoomminus.mouseover" end="zoomminus.mouseout"/>
                        </use>
                        <path d="M-4,0h8" fill="none" stroke="white" stroke-width="1.5" pointer-events="none"/>
                </g>
                <g id="dirArrow">
                        <path fill="none" stroke="white" stroke-width="1.5" d="M0,-3.0v7 M-2.5,-0.5L0,-3.0L2.5,-0.5"/>
                </g>
               <g id="resetDef">
                       <use xlink:href="#rim2" fill="#404040">
                               <set attributeName="fill" to="#808080" begin="reset.mouseover" end="reset.mouseout"/>
                       </use>
               </g>
        </defs>

<script type="text/javascript">
var viewWidth = 886;
var viewHeight = 923;
var sectionId = 'dynsection-1';
</script>
<script xlink:href="svgpan.js"/>
<svg id="graph" class="graph">
<g id="viewport">
<title>Utils::readFile</title>
<!-- Node1 -->
<g id="node1" class="node">
<title>Node1</title>
<g id="a_node1"><a xlink:title=" ">
<polygon fill="#bfbfbf" stroke="black" points="802,-454 802,-473 878,-473 878,-454 802,-454"/>
<text text-anchor="middle" x="840" y="-461" font-family="Helvetica,sans-Serif" font-size="10.00">Utils::readFile</text>
</a>
</g>
</g>
<!-- Node2 -->
<g id="node2" class="node">
<title>Node2</title>
<g id="a_node2"><a xlink:href="class_shader.html#a8cd1063584c1610c9f9dfd3f18cb45c9" target="_top" xlink:title=" ">
<polygon fill="none" stroke="black" points="655,-895 655,-914 734,-914 734,-895 655,-895"/>
<text text-anchor="middle" x="694.5" y="-902" font-family="Helvetica,sans-Serif" font-size="10.00">Shader::create</text>
</a>
</g>
</g>
<!-- Node1&#45;&gt;Node2 -->
<g id="edge1" class="edge">
<title>Node1&#45;&gt;Node2</title>
<path fill="none" stroke="midnightblue" d="M838.31,-483.37C835.31,-558.68 820.92,-825.28 766,-885.5 757.8,-894.49 745.84,-899.41 734.08,-902.05"/>
<polygon fill="midnightblue" stroke="midnightblue" points="841.81,-483.47 838.69,-473.34 834.82,-483.2 841.81,-483.47"/>
</g>
<!-- Node3 -->
<g id="node3" class="node">
<title>Node3</title>
<g id="a_node3"><a xlink:href="class_graphics_shader.html#ae92f8e13f69378f2320c5998eb672a41" target="_top" xlink:title=" ">
<polygon fill="none" stroke="black" points="635.5,-857 635.5,-876 753.5,-876 753.5,-857 635.5,-857"/>
<text text-anchor="middle" x="694.5" y="-864" font-family="Helvetica,sans-Serif" font-size="10.00">GraphicsShader::create</text>
</a>
</g>
</g>
<!-- Node1&#45;&gt;Node3 -->
<g id="edge2" class="edge">
<title>Node1&#45;&gt;Node3</title>
<path fill="none" stroke="midnightblue" d="M837.94,-483.37C833.77,-554.26 816.16,-793.41 766,-847.5 762.47,-851.31 758.26,-854.39 753.68,-856.87"/>
<polygon fill="midnightblue" stroke="midnightblue" points="841.45,-483.34 838.52,-473.16 834.46,-482.94 841.45,-483.34"/>
</g>
<!-- Node4 -->
<g id="node4" class="node">
<title>Node4</title>
<g id="a_node4"><a xlink:href="class_n_v_shader.html#a08035cf5ad299398d356074548752232" target="_top" xlink:title=" ">
<polygon fill="none" stroke="black" points="648,-819 648,-838 741,-838 741,-819 648,-819"/>
<text text-anchor="middle" x="694.5" y="-826" font-family="Helvetica,sans-Serif" font-size="10.00">NVShader::create</text>
</a>
</g>
</g>
<!-- Node1&#45;&gt;Node4 -->
<g id="edge3" class="edge">
<title>Node1&#45;&gt;Node4</title>
<path fill="none" stroke="midnightblue" d="M837.48,-483.51C832.03,-549.93 811.38,-761.54 766,-809.5 759.38,-816.5 750.48,-821.02 741.23,-823.91"/>
<polygon fill="midnightblue" stroke="midnightblue" points="841,-483.43 838.3,-473.19 834.02,-482.88 841,-483.43"/>
</g>
<!-- Node5 -->
<g id="node5" class="node">
<title>Node5</title>
<g id="a_node5"><a xlink:href="class_k_h_r_shader.html#ac97819aa525d3769d4bb6a37eef311b9" target="_top" xlink:title=" ">
<polygon fill="none" stroke="black" points="644.5,-781 644.5,-800 744.5,-800 744.5,-781 644.5,-781"/>
<text text-anchor="middle" x="694.5" y="-788" font-family="Helvetica,sans-Serif" font-size="10.00">KHRShader::create</text>
</a>
</g>
</g>
<!-- Node1&#45;&gt;Node5 -->
<g id="edge4" class="edge">
<title>Node1&#45;&gt;Node5</title>
<path fill="none" stroke="midnightblue" d="M836.94,-483.28C830.18,-544.54 806.71,-729.53 766,-771.5 760.18,-777.51 752.67,-781.68 744.73,-784.56"/>
<polygon fill="midnightblue" stroke="midnightblue" points="840.45,-483.36 838.04,-473.05 833.49,-482.62 840.45,-483.36"/>
</g>
<!-- Node6 -->
<g id="node6" class="node">
<title>Node6</title>
<g id="a_node6"><a xlink:href="class_raytracing_shader.html#a79ed90c1c1c491e9383f01eac3987eb9" target="_top" xlink:title=" ">
<polygon fill="none" stroke="black" points="632,-743 632,-762 757,-762 757,-743 632,-743"/>
<text text-anchor="middle" x="694.5" y="-750" font-family="Helvetica,sans-Serif" font-size="10.00">RaytracingShader::create</text>
</a>
</g>
</g>
<!-- Node1&#45;&gt;Node6 -->
<g id="edge5" class="edge">
<title>Node1&#45;&gt;Node6</title>
<path fill="none" stroke="midnightblue" d="M839.85,-483.29C840.85,-532.84 836.28,-663.28 766,-733.5 762.14,-737.35 757.59,-740.45 752.69,-742.93"/>
<polygon fill="midnightblue" stroke="midnightblue" points="843.34,-482.89 839.54,-473.01 836.35,-483.11 843.34,-482.89"/>
</g>
<!-- Node7 -->
<g id="node7" class="node">
<title>Node7</title>
<g id="a_node7"><a xlink:href="class_vertex_shader.html#a5210d098175734531886d9e5b1741f8e" target="_top" xlink:title=" ">
<polygon fill="none" stroke="black" points="641,-667 641,-686 748,-686 748,-667 641,-667"/>
<text text-anchor="middle" x="694.5" y="-674" font-family="Helvetica,sans-Serif" font-size="10.00">VertexShader::create</text>
</a>
</g>
</g>
<!-- Node1&#45;&gt;Node7 -->
<g id="edge6" class="edge">
<title>Node1&#45;&gt;Node7</title>
<path fill="none" stroke="midnightblue" d="M837.29,-483.24C832.84,-522.2 817.39,-609.31 766,-656.5 760.85,-661.23 754.65,-664.86 748.1,-667.63"/>
<polygon fill="midnightblue" stroke="midnightblue" points="840.78,-483.5 838.31,-473.19 833.82,-482.79 840.78,-483.5"/>
</g>
<!-- Node21 -->
<g id="node21" class="node">
<title>Node21</title>
<g id="a_node21"><a xlink:href="class_tesselation_control_shader.html#a41aa38f0bbb373f04934ed56d6decdde" target="_top" xlink:title=" ">
<polygon fill="none" stroke="black" points="630.5,-617.5 630.5,-647.5 758.5,-647.5 758.5,-617.5 630.5,-617.5"/>
<text text-anchor="start" x="638.5" y="-635.5" font-family="Helvetica,sans-Serif" font-size="10.00">TesselationControlShader</text>
<text text-anchor="middle" x="694.5" y="-624.5" font-family="Helvetica,sans-Serif" font-size="10.00">::create</text>
</a>
</g>
</g>
<!-- Node1&#45;&gt;Node21 -->
<g id="edge21" class="edge">
<title>Node1&#45;&gt;Node21</title>
<path fill="none" stroke="midnightblue" d="M834.17,-483C825.58,-513.72 804.81,-573.38 766,-607.5 761.61,-611.36 756.59,-614.63 751.29,-617.41"/>
<polygon fill="midnightblue" stroke="midnightblue" points="837.61,-483.66 836.79,-473.1 830.85,-481.87 837.61,-483.66"/>
</g>
<!-- Node22 -->
<g id="node22" class="node">
<title>Node22</title>
<g id="a_node22"><a xlink:href="class_tesselation_evaluation_shader.html#ad3f653ba2b2b7bb02afb769a64b29b3e" target="_top" xlink:title=" ">
<polygon fill="none" stroke="black" points="623,-568.5 623,-598.5 766,-598.5 766,-568.5 623,-568.5"/>
<text text-anchor="start" x="631" y="-586.5" font-family="Helvetica,sans-Serif" font-size="10.00">TesselationEvaluationShader</text>
<text text-anchor="middle" x="694.5" y="-575.5" font-family="Helvetica,sans-Serif" font-size="10.00">::create</text>
</a>
</g>
</g>
<!-- Node1&#45;&gt;Node22 -->
<g id="edge22" class="edge">
<title>Node1&#45;&gt;Node22</title>
<path fill="none" stroke="midnightblue" d="M829.15,-482.05C816.97,-503.33 794.33,-537.92 766,-558.5 760.75,-562.32 754.86,-565.59 748.78,-568.4"/>
<polygon fill="midnightblue" stroke="midnightblue" points="832.35,-483.5 834.13,-473.05 826.23,-480.1 832.35,-483.5"/>
</g>
<!-- Node23 -->
<g id="node23" class="node">
<title>Node23</title>
<g id="a_node23"><a xlink:href="class_geometry_shader.html#a3c1a476db6e0aca7591d279327a259fd" target="_top" xlink:title=" ">
<polygon fill="none" stroke="black" points="634,-530 634,-549 755,-549 755,-530 634,-530"/>
<text text-anchor="middle" x="694.5" y="-537" font-family="Helvetica,sans-Serif" font-size="10.00">GeometryShader::create</text>
</a>
</g>
</g>
<!-- Node1&#45;&gt;Node23 -->
<g id="edge23" class="edge">
<title>Node1&#45;&gt;Node23</title>
<path fill="none" stroke="midnightblue" d="M822.1,-479.93C808.11,-492.68 787.17,-509.93 766,-520.5 758.4,-524.29 749.95,-527.4 741.62,-529.93"/>
<polygon fill="midnightblue" stroke="midnightblue" points="824.58,-482.41 829.49,-473.02 819.79,-477.29 824.58,-482.41"/>
</g>
<!-- Node24 -->
<g id="node24" class="node">
<title>Node24</title>
<g id="a_node24"><a xlink:href="class_fragment_shader.html#a1221d3fb805310bb64a01e032e794d0b" target="_top" xlink:title=" ">
<polygon fill="none" stroke="black" points="634.5,-705 634.5,-724 754.5,-724 754.5,-705 634.5,-705"/>
<text text-anchor="middle" x="694.5" y="-712" font-family="Helvetica,sans-Serif" font-size="10.00">FragmentShader::create</text>
</a>
</g>
</g>
<!-- Node1&#45;&gt;Node24 -->
<g id="edge24" class="edge">
<title>Node1&#45;&gt;Node24</title>
<path fill="none" stroke="midnightblue" d="M838.81,-483.19C837.27,-527.73 827.11,-636.88 766,-695.5 761.97,-699.36 757.25,-702.46 752.19,-704.93"/>
<polygon fill="midnightblue" stroke="midnightblue" points="842.31,-483.18 839.04,-473.11 835.31,-483.02 842.31,-483.18"/>
</g>
<!-- Node25 -->
<g id="node25" class="node">
<title>Node25</title>
<g id="a_node25"><a xlink:href="class_compute_shader.html#a93b13c3307b937cf77af96bca8e89329" target="_top" xlink:title=" ">
<polygon fill="none" stroke="black" points="635.5,-492 635.5,-511 753.5,-511 753.5,-492 635.5,-492"/>
<text text-anchor="middle" x="694.5" y="-499" font-family="Helvetica,sans-Serif" font-size="10.00">ComputeShader::create</text>
</a>
</g>
</g>
<!-- Node1&#45;&gt;Node25 -->
<g id="edge30" class="edge">
<title>Node1&#45;&gt;Node25</title>
<path fill="none" stroke="midnightblue" d="M793.03,-475.67C773.18,-480.93 750.31,-486.99 731.7,-491.91"/>
<polygon fill="midnightblue" stroke="midnightblue" points="794.02,-479.03 802.79,-473.09 792.23,-472.27 794.02,-479.03"/>
</g>
<!-- Node26 -->
<g id="node26" class="node">
<title>Node26</title>
<g id="a_node26"><a xlink:href="class_n_v_task_shader.html#a102ca7f53a672d8c6bfd025d2919c56f" target="_top" xlink:title=" ">
<polygon fill="none" stroke="black" points="637,-454 637,-473 752,-473 752,-454 637,-454"/>
<text text-anchor="middle" x="694.5" y="-461" font-family="Helvetica,sans-Serif" font-size="10.00">NVTaskShader::create</text>
</a>
</g>
</g>
<!-- Node1&#45;&gt;Node26 -->
<g id="edge31" class="edge">
<title>Node1&#45;&gt;Node26</title>
<path fill="none" stroke="midnightblue" d="M791.41,-463.5C778.83,-463.5 765.13,-463.5 752.13,-463.5"/>
<polygon fill="midnightblue" stroke="midnightblue" points="791.67,-467 801.67,-463.5 791.67,-460 791.67,-467"/>
</g>
<!-- Node27 -->
<g id="node27" class="node">
<title>Node27</title>
<g id="a_node27"><a xlink:href="class_n_v_mesh_shader.html#ad288cf765db8b1c30ea1a5713bdd31b4" target="_top" xlink:title=" ">
<polygon fill="none" stroke="black" points="636,-416 636,-435 753,-435 753,-416 636,-416"/>
<text text-anchor="middle" x="694.5" y="-423" font-family="Helvetica,sans-Serif" font-size="10.00">NVMeshShader::create</text>
</a>
</g>
</g>
<!-- Node1&#45;&gt;Node27 -->
<g id="edge32" class="edge">
<title>Node1&#45;&gt;Node27</title>
<path fill="none" stroke="midnightblue" d="M793.03,-451.33C773.18,-446.07 750.31,-440.01 731.7,-435.09"/>
<polygon fill="midnightblue" stroke="midnightblue" points="792.23,-454.73 802.79,-453.91 794.02,-447.97 792.23,-454.73"/>
</g>
<!-- Node28 -->
<g id="node28" class="node">
<title>Node28</title>
<g id="a_node28"><a xlink:href="class_n_v_raygen_shader.html#a0fa3e09c1a9f5b9ce7c56a16502c3d1a" target="_top" xlink:title=" ">
<polygon fill="none" stroke="black" points="632,-378 632,-397 757,-397 757,-378 632,-378"/>
<text text-anchor="middle" x="694.5" y="-385" font-family="Helvetica,sans-Serif" font-size="10.00">NVRaygenShader::create</text>
</a>
</g>
</g>
<!-- Node1&#45;&gt;Node28 -->
<g id="edge33" class="edge">
<title>Node1&#45;&gt;Node28</title>
<path fill="none" stroke="midnightblue" d="M822.1,-447.07C808.11,-434.32 787.17,-417.07 766,-406.5 758.4,-402.71 749.95,-399.6 741.62,-397.07"/>
<polygon fill="midnightblue" stroke="midnightblue" points="819.79,-449.71 829.49,-453.98 824.58,-444.59 819.79,-449.71"/>
</g>
<!-- Node29 -->
<g id="node29" class="node">
<title>Node29</title>
<g id="a_node29"><a xlink:href="class_n_v_any_hit_shader.html#a7a469aa3e847de781083e31f54f4ee28" target="_top" xlink:title=" ">
<polygon fill="none" stroke="black" points="633.5,-340 633.5,-359 755.5,-359 755.5,-340 633.5,-340"/>
<text text-anchor="middle" x="694.5" y="-347" font-family="Helvetica,sans-Serif" font-size="10.00">NVAnyHitShader::create</text>
</a>
</g>
</g>
<!-- Node1&#45;&gt;Node29 -->
<g id="edge34" class="edge">
<title>Node1&#45;&gt;Node29</title>
<path fill="none" stroke="midnightblue" d="M829.58,-444.85C817.7,-423.23 795.24,-388.05 766,-368.5 760.2,-364.62 753.65,-361.54 746.92,-359.08"/>
<polygon fill="midnightblue" stroke="midnightblue" points="826.51,-446.53 834.28,-453.73 832.7,-443.25 826.51,-446.53"/>
</g>
<!-- Node30 -->
<g id="node30" class="node">
<title>Node30</title>
<g id="a_node30"><a xlink:href="class_n_v_closest_hit_shader.html#a96731804f13a5bf5afd07d43762b80e1" target="_top" xlink:title=" ">
<polygon fill="none" stroke="black" points="641,-290.5 641,-320.5 748,-320.5 748,-290.5 641,-290.5"/>
<text text-anchor="start" x="649" y="-308.5" font-family="Helvetica,sans-Serif" font-size="10.00">NVClosestHitShader</text>
<text text-anchor="middle" x="694.5" y="-297.5" font-family="Helvetica,sans-Serif" font-size="10.00">::create</text>
</a>
</g>
</g>
<!-- Node1&#45;&gt;Node30 -->
<g id="edge35" class="edge">
<title>Node1&#45;&gt;Node30</title>
<path fill="none" stroke="midnightblue" d="M833.35,-444.27C823.96,-415.55 802.47,-361.52 766,-330.5 760.76,-326.04 754.66,-322.36 748.3,-319.32"/>
<polygon fill="midnightblue" stroke="midnightblue" points="830.04,-445.43 836.36,-453.93 836.73,-443.34 830.04,-445.43"/>
</g>
<!-- Node31 -->
<g id="node31" class="node">
<title>Node31</title>
<g id="a_node31"><a xlink:href="class_n_v_miss_shader.html#a3f7b3ed7aa25415db303c14cf534b707" target="_top" xlink:title=" ">
<polygon fill="none" stroke="black" points="637.5,-252 637.5,-271 751.5,-271 751.5,-252 637.5,-252"/>
<text text-anchor="middle" x="694.5" y="-259" font-family="Helvetica,sans-Serif" font-size="10.00">NVMissShader::create</text>
</a>
</g>
</g>
<!-- Node1&#45;&gt;Node31 -->
<g id="edge36" class="edge">
<title>Node1&#45;&gt;Node31</title>
<path fill="none" stroke="midnightblue" d="M836.88,-443.7C831.77,-406.14 815.32,-324.4 766,-280.5 761.64,-276.62 756.58,-273.53 751.2,-271.05"/>
<polygon fill="midnightblue" stroke="midnightblue" points="833.43,-444.35 838.12,-453.84 840.38,-443.49 833.43,-444.35"/>
</g>
<!-- Node32 -->
<g id="node32" class="node">
<title>Node32</title>
<g id="a_node32"><a xlink:href="class_n_v_callable_shader.html#a3673db13dea5dbe06d4bac8c67fca56b" target="_top" xlink:title=" ">
<polygon fill="none" stroke="black" points="630.5,-214 630.5,-233 758.5,-233 758.5,-214 630.5,-214"/>
<text text-anchor="middle" x="694.5" y="-221" font-family="Helvetica,sans-Serif" font-size="10.00">NVCallableShader::create</text>
</a>
</g>
</g>
<!-- Node1&#45;&gt;Node32 -->
<g id="edge37" class="edge">
<title>Node1&#45;&gt;Node32</title>
<path fill="none" stroke="midnightblue" d="M838.45,-443.86C836.15,-400.85 824.48,-297.81 766,-242.5 761.95,-238.67 757.21,-235.59 752.13,-233.12"/>
<polygon fill="midnightblue" stroke="midnightblue" points="834.95,-444.03 838.87,-453.87 841.95,-443.73 834.95,-444.03"/>
</g>
<!-- Node33 -->
<g id="node33" class="node">
<title>Node33</title>
<g id="a_node33"><a xlink:href="class_k_h_r_raygen_shader.html#a4371a414fd38bf92c59d2e406b6162fc" target="_top" xlink:title=" ">
<polygon fill="none" stroke="black" points="628.5,-176 628.5,-195 760.5,-195 760.5,-176 628.5,-176"/>
<text text-anchor="middle" x="694.5" y="-183" font-family="Helvetica,sans-Serif" font-size="10.00">KHRRaygenShader::create</text>
</a>
</g>
</g>
<!-- Node1&#45;&gt;Node33 -->
<g id="edge38" class="edge">
<title>Node1&#45;&gt;Node33</title>
<path fill="none" stroke="midnightblue" d="M839.58,-443.84C839.87,-395.79 833.67,-271.39 766,-204.5 762.12,-200.67 757.56,-197.59 752.65,-195.11"/>
<polygon fill="midnightblue" stroke="midnightblue" points="836.08,-443.8 839.41,-453.86 843.08,-443.92 836.08,-443.8"/>
</g>
<!-- Node34 -->
<g id="node34" class="node">
<title>Node34</title>
<g id="a_node34"><a xlink:href="class_k_h_r_any_hit_shader.html#aeaf5ae664bd40926632ffd1e3d456d2b" target="_top" xlink:title=" ">
<polygon fill="none" stroke="black" points="630,-138 630,-157 759,-157 759,-138 630,-138"/>
<text text-anchor="middle" x="694.5" y="-145" font-family="Helvetica,sans-Serif" font-size="10.00">KHRAnyHitShader::create</text>
</a>
</g>
</g>
<!-- Node1&#45;&gt;Node34 -->
<g id="edge39" class="edge">
<title>Node1&#45;&gt;Node34</title>
<path fill="none" stroke="midnightblue" d="M836.79,-444.03C829.66,-384.54 805.41,-206.8 766,-166.5 762.28,-162.69 757.88,-159.62 753.13,-157.15"/>
<polygon fill="midnightblue" stroke="midnightblue" points="833.32,-444.46 837.96,-453.99 840.27,-443.65 833.32,-444.46"/>
</g>
<!-- Node35 -->
<g id="node35" class="node">
<title>Node35</title>
<g id="a_node35"><a xlink:href="class_k_h_r_closest_hit_shader.html#a16e230815d2fb036514e9f0802268668" target="_top" xlink:title=" ">
<polygon fill="none" stroke="black" points="637.5,-88.5 637.5,-118.5 751.5,-118.5 751.5,-88.5 637.5,-88.5"/>
<text text-anchor="start" x="645.5" y="-106.5" font-family="Helvetica,sans-Serif" font-size="10.00">KHRClosestHitShader</text>
<text text-anchor="middle" x="694.5" y="-95.5" font-family="Helvetica,sans-Serif" font-size="10.00">::create</text>
</a>
</g>
</g>
<!-- Node1&#45;&gt;Node35 -->
<g id="edge40" class="edge">
<title>Node1&#45;&gt;Node35</title>
<path fill="none" stroke="midnightblue" d="M837.2,-443.82C830.96,-379.44 808.23,-176.42 766,-128.5 761.96,-123.92 757.04,-120.18 751.68,-117.12"/>
<polygon fill="midnightblue" stroke="midnightblue" points="833.73,-444.23 838.15,-453.86 840.7,-443.57 833.73,-444.23"/>
</g>
<!-- Node36 -->
<g id="node36" class="node">
<title>Node36</title>
<g id="a_node36"><a xlink:href="class_k_h_r_miss_shader.html#a7ea8ba5451d9e3982220af0a27bd26b1" target="_top" xlink:title=" ">
<polygon fill="none" stroke="black" points="634,-50 634,-69 755,-69 755,-50 634,-50"/>
<text text-anchor="middle" x="694.5" y="-57" font-family="Helvetica,sans-Serif" font-size="10.00">KHRMissShader::create</text>
</a>
</g>
</g>
<!-- Node1&#45;&gt;Node36 -->
<g id="edge41" class="edge">
<title>Node1&#45;&gt;Node36</title>
<path fill="none" stroke="midnightblue" d="M837.95,-443.58C833.8,-372.5 816.27,-132.74 766,-78.5 762.47,-74.69 758.26,-71.61 753.68,-69.13"/>
<polygon fill="midnightblue" stroke="midnightblue" points="834.47,-444.03 838.52,-453.82 841.46,-443.64 834.47,-444.03"/>
</g>
<!-- Node37 -->
<g id="node37" class="node">
<title>Node37</title>
<g id="a_node37"><a xlink:href="class_k_h_r_callable_shader.html#a3b11b69e66774e05ffc7940a8f9901d7" target="_top" xlink:title=" ">
<polygon fill="none" stroke="black" points="641,-0.5 641,-30.5 748,-30.5 748,-0.5 641,-0.5"/>
<text text-anchor="start" x="649" y="-18.5" font-family="Helvetica,sans-Serif" font-size="10.00">KHRCallableShader::</text>
<text text-anchor="middle" x="694.5" y="-7.5" font-family="Helvetica,sans-Serif" font-size="10.00">create</text>
</a>
</g>
</g>
<!-- Node1&#45;&gt;Node37 -->
<g id="edge42" class="edge">
<title>Node1&#45;&gt;Node37</title>
<path fill="none" stroke="midnightblue" d="M838.17,-443.71C834.66,-368.69 818.66,-102.96 766,-40.5 761.15,-34.74 754.87,-30.31 748.07,-26.9"/>
<polygon fill="midnightblue" stroke="midnightblue" points="834.68,-443.87 838.62,-453.7 841.67,-443.55 834.68,-443.87"/>
</g>
<!-- Node8 -->
<g id="node8" class="node">
<title>Node8</title>
<g id="a_node8"><a xlink:href="class_shading_pipeline.html#a67b8808170e4dd045421d24d8482cb70" target="_top" xlink:title=" ">
<polygon fill="none" stroke="black" points="452,-730 452,-749 570,-749 570,-730 452,-730"/>
<text text-anchor="middle" x="511" y="-737" font-family="Helvetica,sans-Serif" font-size="10.00">ShadingPipeline::create</text>
</a>
</g>
</g>
<!-- Node7&#45;&gt;Node8 -->
<g id="edge7" class="edge">
<title>Node7&#45;&gt;Node8</title>
<path fill="none" stroke="midnightblue" d="M638.84,-689.2C633.4,-691.07 628.03,-693.16 623,-695.5 605.34,-703.71 604.73,-712.42 587,-720.5 578.69,-724.29 569.5,-727.4 560.49,-729.94"/>
<polygon fill="midnightblue" stroke="midnightblue" points="640.2,-692.45 648.67,-686.09 638.08,-685.77 640.2,-692.45"/>
</g>
<!-- Node10 -->
<g id="node10" class="node">
<title>Node10</title>
<g id="a_node10"><a xlink:href="class_render_manager.html#aa04e5bcc41eaf66bd29d811e39d71c3c" target="_top" xlink:title=" ">
<polygon fill="none" stroke="black" points="437.5,-592.5 437.5,-622.5 584.5,-622.5 584.5,-592.5 437.5,-592.5"/>
<text text-anchor="start" x="445.5" y="-610.5" font-family="Helvetica,sans-Serif" font-size="10.00">RenderManager::createDefault</text>
<text text-anchor="middle" x="511" y="-599.5" font-family="Helvetica,sans-Serif" font-size="10.00">Material</text>
</a>
</g>
</g>
<!-- Node7&#45;&gt;Node10 -->
<g id="edge9" class="edge">
<title>Node7&#45;&gt;Node10</title>
<path fill="none" stroke="midnightblue" d="M642.14,-663.97C635.58,-661.78 629.05,-659.29 623,-656.5 605.54,-648.45 604.27,-640.95 587,-632.5 579.48,-628.82 571.28,-625.48 563.16,-622.52"/>
<polygon fill="midnightblue" stroke="midnightblue" points="641.13,-667.32 651.72,-666.97 643.22,-660.64 641.13,-667.32"/>
</g>
<!-- Node14 -->
<g id="node14" class="node">
<title>Node14</title>
<g id="a_node14"><a xlink:href="class_mandelbrot_app.html#a5e76d0eb44ecf689ac5dc6a2a9336795" target="_top" xlink:title=" ">
<polygon fill="none" stroke="black" points="435,-680.5 435,-710.5 587,-710.5 587,-680.5 435,-680.5"/>
<text text-anchor="start" x="443" y="-698.5" font-family="Helvetica,sans-Serif" font-size="10.00">MandelbrotApp::createGraphics</text>
<text text-anchor="middle" x="511" y="-687.5" font-family="Helvetica,sans-Serif" font-size="10.00">Pipeline</text>
</a>
</g>
</g>
<!-- Node7&#45;&gt;Node14 -->
<g id="edge13" class="edge">
<title>Node7&#45;&gt;Node14</title>
<path fill="none" stroke="midnightblue" d="M630.55,-683.09C616.61,-684.55 601.69,-686.11 587.31,-687.62"/>
<polygon fill="midnightblue" stroke="midnightblue" points="630.93,-686.57 640.51,-682.05 630.2,-679.61 630.93,-686.57"/>
</g>
<!-- Node19 -->
<g id="node19" class="node">
<title>Node19</title>
<g id="a_node19"><a xlink:href="class_mandelbrot_app.html#ae15547e49fb9d4a3b4ee4b9603dd1968" target="_top" xlink:title=" ">
<polygon fill="none" stroke="black" points="443,-642 443,-661 579,-661 579,-642 443,-642"/>
<text text-anchor="middle" x="511" y="-649" font-family="Helvetica,sans-Serif" font-size="10.00">MandelbrotApp::loadModels</text>
</a>
</g>
</g>
<!-- Node7&#45;&gt;Node19 -->
<g id="edge18" class="edge">
<title>Node7&#45;&gt;Node19</title>
<path fill="none" stroke="midnightblue" d="M630.42,-667.81C613.9,-665.54 596.02,-663.07 579.28,-660.77"/>
<polygon fill="midnightblue" stroke="midnightblue" points="630.13,-671.3 640.51,-669.2 631.09,-664.37 630.13,-671.3"/>
</g>
<!-- Node20 -->
<g id="node20" class="node">
<title>Node20</title>
<g id="a_node20"><a xlink:href="vulkan__voxel__rasterizer_8cpp.html#ae66f6b31b5ad750f1fe042a706a4e3d4" target="_top" xlink:title=" ">
<polygon fill="none" stroke="black" points="492,-768 492,-787 530,-787 530,-768 492,-768"/>
<text text-anchor="middle" x="511" y="-775" font-family="Helvetica,sans-Serif" font-size="10.00">main</text>
</a>
</g>
</g>
<!-- Node7&#45;&gt;Node20 -->
<g id="edge20" class="edge">
<title>Node7&#45;&gt;Node20</title>
<path fill="none" stroke="midnightblue" d="M631.52,-689.98C628.52,-691.62 625.66,-693.45 623,-695.5 597.47,-715.21 612.68,-738.99 587,-758.5 570.42,-771.1 546.43,-775.41 530.07,-776.84"/>
<polygon fill="midnightblue" stroke="midnightblue" points="633.25,-693.04 640.85,-685.65 630.3,-686.69 633.25,-693.04"/>
</g>
<!-- Node9 -->
<g id="node9" class="node">
<title>Node9</title>
<g id="a_node9"><a xlink:href="class_render_manager.html#a45a6fffe5f74da37695476732b53d33b" target="_top" xlink:title=" ">
<polygon fill="none" stroke="black" points="256,-764.5 256,-794.5 393,-794.5 393,-764.5 256,-764.5"/>
<text text-anchor="start" x="264" y="-782.5" font-family="Helvetica,sans-Serif" font-size="10.00">RenderManager::createPost</text>
<text text-anchor="middle" x="324.5" y="-771.5" font-family="Helvetica,sans-Serif" font-size="10.00">ProcessingPipelines</text>
</a>
</g>
</g>
<!-- Node8&#45;&gt;Node9 -->
<g id="edge8" class="edge">
<title>Node8&#45;&gt;Node9</title>
<path fill="none" stroke="midnightblue" d="M455.82,-751.25C436.19,-755.5 413.77,-760.36 393.12,-764.84"/>
<polygon fill="midnightblue" stroke="midnightblue" points="456.78,-754.62 465.81,-749.08 455.29,-747.78 456.78,-754.62"/>
</g>
<!-- Node11 -->
<g id="node11" class="node">
<title>Node11</title>
<g id="a_node11"><a xlink:href="class_render_manager.html#a2f5991e4b82925a2571e6fabf1e8b7b9" target="_top" xlink:title=" ">
<polygon fill="none" stroke="black" points="251,-592.5 251,-622.5 398,-622.5 398,-592.5 251,-592.5"/>
<text text-anchor="start" x="259" y="-610.5" font-family="Helvetica,sans-Serif" font-size="10.00">RenderManager::createRender</text>
<text text-anchor="middle" x="324.5" y="-599.5" font-family="Helvetica,sans-Serif" font-size="10.00">Objects</text>
</a>
</g>
</g>
<!-- Node10&#45;&gt;Node11 -->
<g id="edge10" class="edge">
<title>Node10&#45;&gt;Node11</title>
<path fill="none" stroke="midnightblue" d="M427.27,-607.5C417.54,-607.5 407.67,-607.5 398.09,-607.5"/>
<polygon fill="midnightblue" stroke="midnightblue" points="427.35,-611 437.35,-607.5 427.35,-604 427.35,-611"/>
</g>
<!-- Node12 -->
<g id="node12" class="node">
<title>Node12</title>
<g id="a_node12"><a xlink:href="class_render_manager.html#a3e54c122912e1b713b2f6357cdc370fb" target="_top" xlink:title=" ">
<polygon fill="none" stroke="black" points="250,-543.5 250,-573.5 399,-573.5 399,-543.5 250,-543.5"/>
<text text-anchor="start" x="258" y="-561.5" font-family="Helvetica,sans-Serif" font-size="10.00">RenderManager::recreateSwap</text>
<text text-anchor="middle" x="324.5" y="-550.5" font-family="Helvetica,sans-Serif" font-size="10.00">Chain</text>
</a>
</g>
</g>
<!-- Node10&#45;&gt;Node12 -->
<g id="edge11" class="edge">
<title>Node10&#45;&gt;Node12</title>
<path fill="none" stroke="midnightblue" d="M443.64,-589.88C423.46,-584.52 401.47,-578.68 382,-573.51"/>
<polygon fill="midnightblue" stroke="midnightblue" points="442.83,-593.28 453.39,-592.47 444.62,-586.52 442.83,-593.28"/>
</g>
<!-- Node13 -->
<g id="node13" class="node">
<title>Node13</title>
<g id="a_node13"><a xlink:href="class_render_manager.html#ab087dc4ee1c6e377ca52ee44d1591c29" target="_top" xlink:title=" ">
<polygon fill="none" stroke="black" points="74,-543.5 74,-573.5 214,-573.5 214,-543.5 74,-543.5"/>
<text text-anchor="start" x="82" y="-561.5" font-family="Helvetica,sans-Serif" font-size="10.00">RenderManager::resizeSwap</text>
<text text-anchor="middle" x="144" y="-550.5" font-family="Helvetica,sans-Serif" font-size="10.00">Chain</text>
</a>
</g>
</g>
<!-- Node12&#45;&gt;Node13 -->
<g id="edge12" class="edge">
<title>Node12&#45;&gt;Node13</title>
<path fill="none" stroke="midnightblue" d="M239.83,-558.5C231.24,-558.5 222.57,-558.5 214.16,-558.5"/>
<polygon fill="midnightblue" stroke="midnightblue" points="239.87,-562 249.87,-558.5 239.87,-555 239.87,-562"/>
</g>
<!-- Node15 -->
<g id="node15" class="node">
<title>Node15</title>
<g id="a_node15"><a xlink:href="class_mandelbrot_app.html#ad5c4a7e7fd79bc75fea87df0165005b6" target="_top" xlink:title=" ">
<polygon fill="none" stroke="black" points="260,-642 260,-661 389,-661 389,-642 260,-642"/>
<text text-anchor="middle" x="324.5" y="-649" font-family="Helvetica,sans-Serif" font-size="10.00">MandelbrotApp::initVulkan</text>
</a>
</g>
</g>
<!-- Node14&#45;&gt;Node15 -->
<g id="edge14" class="edge">
<title>Node14&#45;&gt;Node15</title>
<path fill="none" stroke="midnightblue" d="M437.05,-678.1C412.63,-672.28 386.32,-666 365.39,-661.01"/>
<polygon fill="midnightblue" stroke="midnightblue" points="436.48,-681.57 447.02,-680.48 438.11,-674.76 436.48,-681.57"/>
</g>
<!-- Node18 -->
<g id="node18" class="node">
<title>Node18</title>
<g id="a_node18"><a xlink:href="class_mandelbrot_app.html#a733620a6533fb25a6ffa309886b74904" target="_top" xlink:title=" ">
<polygon fill="none" stroke="black" points="251.5,-680.5 251.5,-710.5 397.5,-710.5 397.5,-680.5 251.5,-680.5"/>
<text text-anchor="start" x="259.5" y="-698.5" font-family="Helvetica,sans-Serif" font-size="10.00">MandelbrotApp::recreateSwap</text>
<text text-anchor="middle" x="324.5" y="-687.5" font-family="Helvetica,sans-Serif" font-size="10.00">Chain</text>
</a>
</g>
</g>
<!-- Node14&#45;&gt;Node18 -->
<g id="edge17" class="edge">
<title>Node14&#45;&gt;Node18</title>
<path fill="none" stroke="midnightblue" d="M424.81,-695.5C415.78,-695.5 406.66,-695.5 397.79,-695.5"/>
<polygon fill="midnightblue" stroke="midnightblue" points="424.96,-699 434.96,-695.5 424.96,-692 424.96,-699"/>
</g>
<!-- Node16 -->
<g id="node16" class="node">
<title>Node16</title>
<g id="a_node16"><a xlink:href="class_mandelbrot_app.html#a2cd742dc1400d3cf3e4ed782976fda5f" target="_top" xlink:title=" ">
<polygon fill="none" stroke="black" points="94,-642 94,-661 194,-661 194,-642 94,-642"/>
<text text-anchor="middle" x="144" y="-649" font-family="Helvetica,sans-Serif" font-size="10.00">MandelbrotApp::run</text>
</a>
</g>
</g>
<!-- Node15&#45;&gt;Node16 -->
<g id="edge15" class="edge">
<title>Node15&#45;&gt;Node16</title>
<path fill="none" stroke="midnightblue" d="M249.8,-651.5C231.01,-651.5 211.28,-651.5 194.07,-651.5"/>
<polygon fill="midnightblue" stroke="midnightblue" points="249.81,-655 259.81,-651.5 249.81,-648 249.81,-655"/>
</g>
<!-- Node17 -->
<g id="node17" class="node">
<title>Node17</title>
<g id="a_node17"><a xlink:href="vulkan__voxel__rasterizer__2_8cpp.html#ae66f6b31b5ad750f1fe042a706a4e3d4" target="_top" xlink:title=" ">
<polygon fill="none" stroke="black" points="0,-642 0,-661 38,-661 38,-642 0,-642"/>
<text text-anchor="middle" x="19" y="-649" font-family="Helvetica,sans-Serif" font-size="10.00">main</text>
</a>
</g>
</g>
<!-- Node16&#45;&gt;Node17 -->
<g id="edge16" class="edge">
<title>Node16&#45;&gt;Node17</title>
<path fill="none" stroke="midnightblue" d="M83.44,-651.5C66.88,-651.5 50.14,-651.5 38.01,-651.5"/>
<polygon fill="midnightblue" stroke="midnightblue" points="83.68,-655 93.68,-651.5 83.68,-648 83.68,-655"/>
</g>
<!-- Node19&#45;&gt;Node15 -->
<g id="edge19" class="edge">
<title>Node19&#45;&gt;Node15</title>
<path fill="none" stroke="midnightblue" d="M432.48,-651.5C418.06,-651.5 403.15,-651.5 389.2,-651.5"/>
<polygon fill="midnightblue" stroke="midnightblue" points="432.87,-655 442.87,-651.5 432.87,-648 432.87,-655"/>
</g>
<!-- Node24&#45;&gt;Node9 -->
<g id="edge27" class="edge">
<title>Node24&#45;&gt;Node9</title>
<path fill="none" stroke="midnightblue" d="M630.49,-728.56C627.86,-730.04 625.35,-731.68 623,-733.5 597.47,-753.21 614.89,-780.31 587,-796.5 516.96,-837.15 417.89,-813.05 364.03,-794.59"/>
<polygon fill="midnightblue" stroke="midnightblue" points="632.28,-731.58 639.76,-724.08 629.24,-725.27 632.28,-731.58"/>
</g>
<!-- Node24&#45;&gt;Node10 -->
<g id="edge25" class="edge">
<title>Node24&#45;&gt;Node10</title>
<path fill="none" stroke="midnightblue" d="M630.49,-700.44C627.86,-698.96 625.35,-697.32 623,-695.5 597.47,-675.79 611.94,-652.95 587,-632.5 582.33,-628.67 577.05,-625.42 571.51,-622.66"/>
<polygon fill="midnightblue" stroke="midnightblue" points="629.24,-703.73 639.76,-704.92 632.28,-697.42 629.24,-703.73"/>
</g>
<!-- Node24&#45;&gt;Node14 -->
<g id="edge26" class="edge">
<title>Node24&#45;&gt;Node14</title>
<path fill="none" stroke="midnightblue" d="M624.24,-707.25C612.06,-705.97 599.33,-704.64 587,-703.35"/>
<polygon fill="midnightblue" stroke="midnightblue" points="624.01,-710.74 634.32,-708.3 624.74,-703.78 624.01,-710.74"/>
</g>
<!-- Node24&#45;&gt;Node19 -->
<g id="edge28" class="edge">
<title>Node24&#45;&gt;Node19</title>
<path fill="none" stroke="midnightblue" d="M639.54,-701.92C633.86,-700.02 628.25,-697.88 623,-695.5 605.49,-687.56 604.52,-679.42 587,-671.5 577.67,-667.28 567.26,-663.81 557.25,-661.01"/>
<polygon fill="midnightblue" stroke="midnightblue" points="638.51,-705.26 649.1,-704.9 640.6,-698.58 638.51,-705.26"/>
</g>
<!-- Node24&#45;&gt;Node20 -->
<g id="edge29" class="edge">
<title>Node24&#45;&gt;Node20</title>
<path fill="none" stroke="midnightblue" d="M638.84,-727.2C633.4,-729.07 628.03,-731.16 623,-733.5 605.34,-741.71 604.73,-750.42 587,-758.5 568.54,-766.91 545.77,-772.01 530.19,-774.78"/>
<polygon fill="midnightblue" stroke="midnightblue" points="640.2,-730.45 648.67,-724.09 638.08,-723.77 640.2,-730.45"/>
</g>
</g>
</svg>
        <g id="navigator" transform="translate(0 0)" fill="#404254">
                <rect fill="#f2f5e9" fill-opacity="0.5" stroke="#606060" stroke-width=".5" x="0" y="0" width="60" height="60"/>
                <use id="zoomplus" xlink:href="#zoomPlus" x="17" y="9" onmousedown="handleZoom(evt,'in')"/>
                <use id="zoomminus" xlink:href="#zoomMin" x="42" y="9" onmousedown="handleZoom(evt,'out')"/>
                <use id="reset" xlink:href="#resetDef" x="30" y="36" onmousedown="handleReset()"/>
                <g id="arrowUp" xlink:href="#dirArrow" transform="translate(30 24)" onmousedown="handlePan(0,-1)">
                  <use xlink:href="#rim" fill="#404040">
                        <set attributeName="fill" to="#808080" begin="arrowUp.mouseover" end="arrowUp.mouseout"/>
                  </use>
                  <path fill="none" stroke="white" stroke-width="1.5" d="M0,-3.0v7 M-2.5,-0.5L0,-3.0L2.5,-0.5"/>
                </g>
                <g id="arrowRight" xlink:href="#dirArrow" transform="rotate(90) translate(36 -43)" onmousedown="handlePan(1,0)">
                  <use xlink:href="#rim" fill="#404040">
                        <set attributeName="fill" to="#808080" begin="arrowRight.mouseover" end="arrowRight.mouseout"/>
                  </use>
                  <path fill="none" stroke="white" stroke-width="1.5" d="M0,-3.0v7 M-2.5,-0.5L0,-3.0L2.5,-0.5"/>
                </g>
                <g id="arrowDown" xlink:href="#dirArrow" transform="rotate(180) translate(-30 -48)" onmousedown="handlePan(0,1)">
                  <use xlink:href="#rim" fill="#404040">
                        <set attributeName="fill" to="#808080" begin="arrowDown.mouseover" end="arrowDown.mouseout"/>
                  </use>
                  <path fill="none" stroke="white" stroke-width="1.5" d="M0,-3.0v7 M-2.5,-0.5L0,-3.0L2.5,-0.5"/>
                </g>
                <g id="arrowLeft" xlink:href="#dirArrow" transform="rotate(270) translate(-36 17)" onmousedown="handlePan(-1,0)">
                  <use xlink:href="#rim" fill="#404040">
                        <set attributeName="fill" to="#808080" begin="arrowLeft.mouseover" end="arrowLeft.mouseout"/>
                  </use>
                  <path fill="none" stroke="white" stroke-width="1.5" d="M0,-3.0v7 M-2.5,-0.5L0,-3.0L2.5,-0.5"/>
                </g>
        </g>
        <svg viewBox="0 0 15 15" width="100%" height="30px" preserveAspectRatio="xMaxYMin meet">
         <g id="arrow_out" transform="scale(0.3 0.3)">
          <a xlink:href="class_utils_a7e7d47e8b017fe7d4ae8802c7b0690cb_icgraph_org.svg" target="_base">
           <rect id="button" ry="5" rx="5" y="6" x="6" height="38" width="38"
                fill="#f2f5e9" fill-opacity="0.5" stroke="#606060" stroke-width="1.0"/>
           <path id="arrow"
             d="M 11.500037,31.436501 C 11.940474,20.09759 22.043105,11.32322 32.158766,21.979434 L 37.068811,17.246167 C 37.068811,17.246167 37.088388,32 37.088388,32 L 22.160133,31.978069 C 22.160133,31.978069 26.997745,27.140456 26.997745,27.140456 C 18.528582,18.264221 13.291696,25.230495 11.500037,31.436501 z"
             style="fill:#404040;"/>
          </a>
         </g>
        </svg>
</svg>
