<?xml version="1.0" encoding="UTF-8" standalone="no"?>
<!DOCTYPE svg PUBLIC "-//W3C//DTD SVG 1.1//EN"
 "http://www.w3.org/Graphics/SVG/1.1/DTD/svg11.dtd">
<!-- Generated by graphviz version 2.50.0 (20220203.2022)
 -->
<!-- Title: Sampler Pages: 1 -->
<svg width="144pt" height="299pt"
 viewBox="0.00 0.00 144.00 299.00" xmlns="http://www.w3.org/2000/svg" xmlns:xlink="http://www.w3.org/1999/xlink">
<g id="graph0" class="graph" transform="scale(1 1) rotate(0) translate(4 295)">
<title>Sampler</title>
<!-- Node1 -->
<g id="node1" class="node">
<title>Node1</title>
<g id="a_node1"><a xlink:title=" ">
<polygon fill="#bfbfbf" stroke="black" points="32,-0.5 32,-68.5 104,-68.5 104,-0.5 32,-0.5"/>
<text text-anchor="middle" x="68" y="-56.5" font-family="Helvetica,sans-Serif" font-size="10.00">Sampler</text>
<polyline fill="none" stroke="black" points="32,-49.5 104,-49.5 "/>
<text text-anchor="start" x="40" y="-37.5" font-family="Helvetica,sans-Serif" font-size="10.00">&#45; device</text>
<polyline fill="none" stroke="black" points="32,-30.5 104,-30.5 "/>
<text text-anchor="start" x="40" y="-18.5" font-family="Helvetica,sans-Serif" font-size="10.00">+ ~Sampler()</text>
<text text-anchor="start" x="40" y="-7.5" font-family="Helvetica,sans-Serif" font-size="10.00">+ create()</text>
</a>
</g>
</g>
<!-- Node2 -->
<g id="node2" class="node">
<title>Node2</title>
<g id="a_node2"><a xlink:href="class_vulkan_class.html" target="_top" xlink:title=" ">
<polygon fill="none" stroke="black" points="0,-106.5 0,-174.5 136,-174.5 136,-106.5 0,-106.5"/>
<text text-anchor="middle" x="68" y="-162.5" font-family="Helvetica,sans-Serif" font-size="10.00">VulkanClass&lt; VkSampler &gt;</text>
<polyline fill="none" stroke="black" points="0,-155.5 136,-155.5 "/>
<text text-anchor="start" x="8" y="-143.5" font-family="Helvetica,sans-Serif" font-size="10.00"># handle</text>
<polyline fill="none" stroke="black" points="0,-136.5 136,-136.5 "/>
<text text-anchor="start" x="8" y="-124.5" font-family="Helvetica,sans-Serif" font-size="10.00">+ getHandle()</text>
<text text-anchor="start" x="8" y="-113.5" font-family="Helvetica,sans-Serif" font-size="10.00">+ getHandlePtr()</text>
</a>
</g>
</g>
<!-- Node2&#45;&gt;Node1 -->
<g id="edge1" class="edge">
<title>Node2&#45;&gt;Node1</title>
<path fill="none" stroke="midnightblue" d="M68,-96.17C68,-87 68,-77.46 68,-68.73"/>
<polygon fill="none" stroke="midnightblue" points="64.5,-96.31 68,-106.31 71.5,-96.31 64.5,-96.31"/>
</g>
<!-- Node3 -->
<g id="node3" class="node">
<title>Node3</title>
<g id="a_node3"><a xlink:href="class_vulkan_class.html" target="_top" xlink:title=" ">
<polygon fill="none" stroke="black" points="21,-222.5 21,-290.5 115,-290.5 115,-222.5 21,-222.5"/>
<text text-anchor="middle" x="68" y="-278.5" font-family="Helvetica,sans-Serif" font-size="10.00">VulkanClass&lt; T &gt;</text>
<polyline fill="none" stroke="black" points="21,-271.5 115,-271.5 "/>
<text text-anchor="start" x="29" y="-259.5" font-family="Helvetica,sans-Serif" font-size="10.00"># handle</text>
<polyline fill="none" stroke="black" points="21,-252.5 115,-252.5 "/>
<text text-anchor="start" x="29" y="-240.5" font-family="Helvetica,sans-Serif" font-size="10.00">+ getHandle()</text>
<text text-anchor="start" x="29" y="-229.5" font-family="Helvetica,sans-Serif" font-size="10.00">+ getHandlePtr()</text>
</a>
</g>
</g>
<!-- Node3&#45;&gt;Node2 -->
<g id="edge2" class="edge">
<title>Node3&#45;&gt;Node2</title>
<path fill="none" stroke="orange" d="M68,-212.06C68,-199.64 68,-186.32 68,-174.62"/>
<polygon fill="orange" stroke="orange" points="64.5,-212.22 68,-222.22 71.5,-212.22 64.5,-212.22"/>
<text text-anchor="middle" x="101.5" y="-196" font-family="Helvetica,sans-Serif" font-size="10.00"> &lt; VkSampler &gt;</text>
</g>
</g>
</svg>
