<?xml version="1.0" encoding="UTF-8" standalone="no"?>
<!DOCTYPE svg PUBLIC "-//W3C//DTD SVG 1.1//EN"
 "http://www.w3.org/Graphics/SVG/1.1/DTD/svg11.dtd">
<!-- Generated by graphviz version 2.50.0 (20220203.2022)
 -->
<!-- Title: RenderManager::createRenderObjects Pages: 1 -->
<!--zoomable 817 -->
<svg id="main" version="1.1" xmlns="http://www.w3.org/2000/svg" xmlns:xlink="http://www.w3.org/1999/xlink" xml:space="preserve" onload="init(evt)">
<style type="text/css"><![CDATA[
.edge:hover path { stroke: red; }
.edge:hover polygon { stroke: red; fill: red; }
]]></style>
<script type="text/javascript"><![CDATA[
var edges = document.getElementsByTagName('g');
if (edges && edges.length) {
  for (var i=0;i<edges.length;i++) {
    if (edges[i].id.substr(0,4)=='edge') {
      edges[i].setAttribute('class','edge');
    }
  }
}
]]></script>
        <defs>
                <circle id="rim" cx="0" cy="0" r="7"/>
                <circle id="rim2" cx="0" cy="0" r="3.5"/>
                <g id="zoomPlus">
                        <use xlink:href="#rim" fill="#404040">
                                <set attributeName="fill" to="#808080" begin="zoomplus.mouseover" end="zoomplus.mouseout"/>
                        </use>
                        <path d="M-4,0h8M0,-4v8" fill="none" stroke="white" stroke-width="1.5" pointer-events="none"/>
                </g>
                <g id="zoomMin">
                        <use xlink:href="#rim" fill="#404040">
                                <set attributeName="fill" to="#808080" begin="zoomminus.mouseover" end="zoomminus.mouseout"/>
                        </use>
                        <path d="M-4,0h8" fill="none" stroke="white" stroke-width="1.5" pointer-events="none"/>
                </g>
                <g id="dirArrow">
                        <path fill="none" stroke="white" stroke-width="1.5" d="M0,-3.0v7 M-2.5,-0.5L0,-3.0L2.5,-0.5"/>
                </g>
               <g id="resetDef">
                       <use xlink:href="#rim2" fill="#404040">
                               <set attributeName="fill" to="#808080" begin="reset.mouseover" end="reset.mouseout"/>
                       </use>
               </g>
        </defs>

<script type="text/javascript">
var viewWidth = 773;
var viewHeight = 817;
var sectionId = 'dynsection-13';
</script>
<script xlink:href="svgpan.js"/>
<svg id="graph" class="graph">
<g id="viewport">
<title>RenderManager::createRenderObjects</title>
<!-- Node1 -->
<g id="node1" class="node">
<title>Node1</title>
<g id="a_node1"><a xlink:title=" ">
<polygon fill="#bfbfbf" stroke="black" points="0,-281 0,-311 147,-311 147,-281 0,-281"/>
<text text-anchor="start" x="8" y="-299" font-family="Helvetica,sans-Serif" font-size="10.00">RenderManager::createRender</text>
<text text-anchor="middle" x="73.5" y="-288" font-family="Helvetica,sans-Serif" font-size="10.00">Objects</text>
</a>
</g>
</g>
<!-- Node2 -->
<g id="node2" class="node">
<title>Node2</title>
<g id="a_node2"><a xlink:href="class_render_manager.html#af9f33ffbf6fa771b2a2132b4bd33de06" target="_top" xlink:title=" ">
<polygon fill="none" stroke="black" points="198.5,-558 198.5,-588 337.5,-588 337.5,-558 198.5,-558"/>
<text text-anchor="start" x="206.5" y="-576" font-family="Helvetica,sans-Serif" font-size="10.00">RenderManager::crateScene</text>
<text text-anchor="middle" x="268" y="-565" font-family="Helvetica,sans-Serif" font-size="10.00">Objects</text>
</a>
</g>
</g>
<!-- Node1&#45;&gt;Node2 -->
<g id="edge1" class="edge">
<title>Node1&#45;&gt;Node2</title>
<path fill="none" stroke="midnightblue" d="M85.12,-311.29C117,-357.16 212.02,-493.89 250.53,-549.29"/>
<polygon fill="midnightblue" stroke="midnightblue" points="247.83,-551.55 256.41,-557.76 253.58,-547.55 247.83,-551.55"/>
</g>
<!-- Node17 -->
<g id="node17" class="node">
<title>Node17</title>
<g id="a_node17"><a xlink:href="class_render_manager.html#a4542192299af39a3e8833b701c2a359e" target="_top" xlink:title=" ">
<polygon fill="none" stroke="black" points="190.5,-421.5 190.5,-440.5 345.5,-440.5 345.5,-421.5 190.5,-421.5"/>
<text text-anchor="middle" x="268" y="-428.5" font-family="Helvetica,sans-Serif" font-size="10.00">RenderManager::crateUIObjects</text>
</a>
</g>
</g>
<!-- Node1&#45;&gt;Node17 -->
<g id="edge19" class="edge">
<title>Node1&#45;&gt;Node17</title>
<path fill="none" stroke="midnightblue" d="M88.35,-311.26C107.86,-332.08 145.29,-369.58 183,-394 197.48,-403.38 214.74,-411.44 229.84,-417.63"/>
<polygon fill="midnightblue" stroke="midnightblue" points="228.81,-420.99 239.39,-421.42 231.39,-414.48 228.81,-420.99"/>
</g>
<!-- Node21 -->
<g id="node21" class="node">
<title>Node21</title>
<g id="a_node21"><a xlink:href="class_render_manager.html#a65e7a5c0a757d951516b3a207dbb19db" target="_top" xlink:title=" ">
<polygon fill="none" stroke="black" points="187.5,-705 187.5,-735 348.5,-735 348.5,-705 187.5,-705"/>
<text text-anchor="start" x="195.5" y="-723" font-family="Helvetica,sans-Serif" font-size="10.00">RenderManager::createCommand</text>
<text text-anchor="middle" x="268" y="-712" font-family="Helvetica,sans-Serif" font-size="10.00">Pools</text>
</a>
</g>
</g>
<!-- Node1&#45;&gt;Node21 -->
<g id="edge23" class="edge">
<title>Node1&#45;&gt;Node21</title>
<path fill="none" stroke="midnightblue" d="M78.41,-311.02C90.43,-356.07 129.35,-493.41 183,-598 201.71,-634.48 229.69,-672.84 248.14,-696.59"/>
<polygon fill="midnightblue" stroke="midnightblue" points="245.54,-698.94 254.48,-704.64 251.05,-694.62 245.54,-698.94"/>
</g>
<!-- Node22 -->
<g id="node22" class="node">
<title>Node22</title>
<g id="a_node22"><a xlink:href="class_render_manager.html#aa6e12fa2f425700718eec18fb52a1ef8" target="_top" xlink:title=" ">
<polygon fill="none" stroke="black" points="196,-354 196,-384 340,-384 340,-354 196,-354"/>
<text text-anchor="start" x="204" y="-372" font-family="Helvetica,sans-Serif" font-size="10.00">RenderManager::createFrame</text>
<text text-anchor="middle" x="268" y="-361" font-family="Helvetica,sans-Serif" font-size="10.00">Buffer</text>
</a>
</g>
</g>
<!-- Node1&#45;&gt;Node22 -->
<g id="edge25" class="edge">
<title>Node1&#45;&gt;Node22</title>
<path fill="none" stroke="midnightblue" d="M114.39,-311.13C144.33,-322.48 185.5,-338.09 217.54,-350.24"/>
<polygon fill="midnightblue" stroke="midnightblue" points="216.57,-353.62 227.16,-353.89 219.06,-347.08 216.57,-353.62"/>
</g>
<!-- Node24 -->
<g id="node24" class="node">
<title>Node24</title>
<g id="a_node24"><a xlink:href="class_render_manager.html#aa98c2ffaac4f73709b8008b6e218c0f3" target="_top" xlink:title=" ">
<polygon fill="none" stroke="black" points="194,-295 194,-325 342,-325 342,-295 194,-295"/>
<text text-anchor="start" x="202" y="-313" font-family="Helvetica,sans-Serif" font-size="10.00">RenderManager::createLogical</text>
<text text-anchor="middle" x="268" y="-302" font-family="Helvetica,sans-Serif" font-size="10.00">Device</text>
</a>
</g>
</g>
<!-- Node1&#45;&gt;Node24 -->
<g id="edge27" class="edge">
<title>Node1&#45;&gt;Node24</title>
<path fill="none" stroke="midnightblue" d="M147,-301.27C158.99,-302.14 171.51,-303.05 183.74,-303.94"/>
<polygon fill="midnightblue" stroke="midnightblue" points="183.7,-307.45 193.92,-304.69 184.2,-300.47 183.7,-307.45"/>
</g>
<!-- Node28 -->
<g id="node28" class="node">
<title>Node28</title>
<g id="a_node28"><a xlink:href="class_render_manager.html#a47b4c7259640bcfc476a5cd8c129c2b8" target="_top" xlink:title=" ">
<polygon fill="none" stroke="black" points="183,-248.5 183,-267.5 353,-267.5 353,-248.5 183,-248.5"/>
<text text-anchor="middle" x="268" y="-255.5" font-family="Helvetica,sans-Serif" font-size="10.00">RenderManager::createRenderPass</text>
</a>
</g>
</g>
<!-- Node1&#45;&gt;Node28 -->
<g id="edge31" class="edge">
<title>Node1&#45;&gt;Node28</title>
<path fill="none" stroke="midnightblue" d="M147,-281.69C167.42,-277.66 189.36,-273.33 208.83,-269.48"/>
<polygon fill="midnightblue" stroke="midnightblue" points="209.63,-272.89 218.76,-267.52 208.27,-266.03 209.63,-272.89"/>
</g>
<!-- Node30 -->
<g id="node30" class="node">
<title>Node30</title>
<g id="a_node30"><a xlink:href="class_render_manager.html#ab9be550fe988ee994b0cba1b46ef2ded" target="_top" xlink:title=" ">
<polygon fill="none" stroke="black" points="197.5,-153 197.5,-183 338.5,-183 338.5,-153 197.5,-153"/>
<text text-anchor="start" x="205.5" y="-171" font-family="Helvetica,sans-Serif" font-size="10.00">RenderManager::createSwap</text>
<text text-anchor="middle" x="268" y="-160" font-family="Helvetica,sans-Serif" font-size="10.00">Chain</text>
</a>
</g>
</g>
<!-- Node1&#45;&gt;Node30 -->
<g id="edge33" class="edge">
<title>Node1&#45;&gt;Node30</title>
<path fill="none" stroke="midnightblue" d="M97.34,-280.81C131.64,-258.01 196.56,-214.84 235.39,-189.02"/>
<polygon fill="midnightblue" stroke="midnightblue" points="237.8,-191.62 244.19,-183.17 233.93,-185.79 237.8,-191.62"/>
</g>
<!-- Node36 -->
<g id="node36" class="node">
<title>Node36</title>
<g id="a_node36"><a xlink:href="class_render_manager.html#a0f7540f079654ada7762f7368deca060" target="_top" xlink:title=" ">
<polygon fill="none" stroke="black" points="197,-114.5 197,-133.5 339,-133.5 339,-114.5 197,-114.5"/>
<text text-anchor="middle" x="268" y="-121.5" font-family="Helvetica,sans-Serif" font-size="10.00">RenderManager::keyCallback</text>
</a>
</g>
</g>
<!-- Node1&#45;&gt;Node36 -->
<g id="edge40" class="edge">
<title>Node1&#45;&gt;Node36</title>
<path fill="none" stroke="midnightblue" d="M80.84,-280.56C94.51,-249.29 129.9,-178.41 183,-143 186.11,-140.93 189.4,-139.08 192.83,-137.43"/>
<polygon fill="midnightblue" stroke="midnightblue" points="194.28,-140.62 202.14,-133.52 191.57,-134.17 194.28,-140.62"/>
</g>
<!-- Node38 -->
<g id="node38" class="node">
<title>Node38</title>
<g id="a_node38"><a xlink:href="class_render_manager.html#a778e5e362971c47f175cbf13ac66b10e" target="_top" xlink:title=" ">
<polygon fill="none" stroke="black" points="194.5,-65 194.5,-95 341.5,-95 341.5,-65 194.5,-65"/>
<text text-anchor="start" x="202.5" y="-83" font-family="Helvetica,sans-Serif" font-size="10.00">RenderManager::mouseButton</text>
<text text-anchor="middle" x="268" y="-72" font-family="Helvetica,sans-Serif" font-size="10.00">Callback</text>
</a>
</g>
</g>
<!-- Node1&#45;&gt;Node38 -->
<g id="edge42" class="edge">
<title>Node1&#45;&gt;Node38</title>
<path fill="none" stroke="midnightblue" d="M78.82,-280.76C89.85,-244.6 122.55,-153.06 183,-105 185.29,-103.18 187.71,-101.49 190.22,-99.93"/>
<polygon fill="midnightblue" stroke="midnightblue" points="192.01,-102.94 199.11,-95.07 188.65,-96.8 192.01,-102.94"/>
</g>
<!-- Node39 -->
<g id="node39" class="node">
<title>Node39</title>
<g id="a_node39"><a xlink:href="class_render_manager.html#a20215629ec089cb4aa07a2d6096c1c54" target="_top" xlink:title=" ">
<polygon fill="none" stroke="black" points="196,-16 196,-46 340,-46 340,-16 196,-16"/>
<text text-anchor="start" x="204" y="-34" font-family="Helvetica,sans-Serif" font-size="10.00">RenderManager::pickPhysical</text>
<text text-anchor="middle" x="268" y="-23" font-family="Helvetica,sans-Serif" font-size="10.00">Device</text>
</a>
</g>
</g>
<!-- Node1&#45;&gt;Node39 -->
<g id="edge44" class="edge">
<title>Node1&#45;&gt;Node39</title>
<path fill="none" stroke="midnightblue" d="M76.79,-280.96C84.05,-238.67 110.46,-117.73 183,-55 184.51,-53.7 186.08,-52.47 187.71,-51.3"/>
<polygon fill="midnightblue" stroke="midnightblue" points="189.59,-54.25 196.26,-46.01 185.91,-48.3 189.59,-54.25"/>
</g>
<!-- Node3 -->
<g id="node3" class="node">
<title>Node3</title>
<g id="a_node3"><a xlink:href="class_mesh_library.html#a19fb3a7539fd79d9b9db9f7f996546eb" target="_top" xlink:title=" ">
<polygon fill="none" stroke="black" points="394.5,-506.5 394.5,-525.5 495.5,-525.5 495.5,-506.5 394.5,-506.5"/>
<text text-anchor="middle" x="445" y="-513.5" font-family="Helvetica,sans-Serif" font-size="10.00">MeshLibrary::create</text>
</a>
</g>
</g>
<!-- Node2&#45;&gt;Node3 -->
<g id="edge2" class="edge">
<title>Node2&#45;&gt;Node3</title>
<path fill="none" stroke="midnightblue" d="M315.44,-557.87C343.36,-548.78 378.5,-537.33 404.98,-528.71"/>
<polygon fill="midnightblue" stroke="midnightblue" points="406.25,-531.98 414.68,-525.55 404.08,-525.32 406.25,-531.98"/>
</g>
<!-- Node5 -->
<g id="node5" class="node">
<title>Node5</title>
<g id="a_node5"><a xlink:href="class_camera.html#ace532766362279c142ff206baa386c65" target="_top" xlink:title=" ">
<polygon fill="none" stroke="black" points="404,-544.5 404,-563.5 486,-563.5 486,-544.5 404,-544.5"/>
<text text-anchor="middle" x="445" y="-551.5" font-family="Helvetica,sans-Serif" font-size="10.00">Camera::create</text>
</a>
</g>
</g>
<!-- Node2&#45;&gt;Node5 -->
<g id="edge4" class="edge">
<title>Node2&#45;&gt;Node5</title>
<path fill="none" stroke="midnightblue" d="M337.66,-565.55C356.39,-563.51 376.33,-561.35 393.82,-559.45"/>
<polygon fill="midnightblue" stroke="midnightblue" points="394.25,-562.92 403.81,-558.36 393.49,-555.96 394.25,-562.92"/>
</g>
<!-- Node6 -->
<g id="node6" class="node">
<title>Node6</title>
<g id="a_node6"><a xlink:href="class_material_library.html#af3b1fc40678d30d5921d0f1f1ebfa461" target="_top" xlink:title=" ">
<polygon fill="none" stroke="black" points="389,-620.5 389,-639.5 501,-639.5 501,-620.5 389,-620.5"/>
<text text-anchor="middle" x="445" y="-627.5" font-family="Helvetica,sans-Serif" font-size="10.00">MaterialLibrary::create</text>
</a>
</g>
</g>
<!-- Node2&#45;&gt;Node6 -->
<g id="edge5" class="edge">
<title>Node2&#45;&gt;Node6</title>
<path fill="none" stroke="midnightblue" d="M315.44,-588.13C343.36,-597.22 378.5,-608.67 404.98,-617.29"/>
<polygon fill="midnightblue" stroke="midnightblue" points="404.08,-620.68 414.68,-620.45 406.25,-614.02 404.08,-620.68"/>
</g>
<!-- Node8 -->
<g id="node8" class="node">
<title>Node8</title>
<g id="a_node8"><a xlink:href="class_scene.html#a26c330284ae1b40d737ac9360cfc61e3" target="_top" xlink:title=" ">
<polygon fill="none" stroke="black" points="407,-702.5 407,-721.5 483,-721.5 483,-702.5 407,-702.5"/>
<text text-anchor="middle" x="445" y="-709.5" font-family="Helvetica,sans-Serif" font-size="10.00">Scene::create</text>
</a>
</g>
</g>
<!-- Node2&#45;&gt;Node8 -->
<g id="edge7" class="edge">
<title>Node2&#45;&gt;Node8</title>
<path fill="none" stroke="midnightblue" d="M283.53,-588.35C305.16,-610.67 347.72,-652.63 389,-682 397.01,-687.7 406.21,-693.11 414.77,-697.73"/>
<polygon fill="midnightblue" stroke="midnightblue" points="413.23,-700.87 423.72,-702.4 416.47,-694.67 413.23,-700.87"/>
</g>
<!-- Node12 -->
<g id="node12" class="node">
<title>Node12</title>
<g id="a_node12"><a xlink:href="class_descriptor_pool_manager.html#ad93c0c73be9346ef8730618a976c54ea" target="_top" xlink:title=" ">
<polygon fill="none" stroke="black" points="537,-653 537,-683 655,-683 655,-653 537,-653"/>
<text text-anchor="start" x="545" y="-671" font-family="Helvetica,sans-Serif" font-size="10.00">DescriptorPoolManager</text>
<text text-anchor="middle" x="596" y="-660" font-family="Helvetica,sans-Serif" font-size="10.00">::create</text>
</a>
</g>
</g>
<!-- Node2&#45;&gt;Node12 -->
<g id="edge18" class="edge">
<title>Node2&#45;&gt;Node12</title>
<path fill="none" stroke="midnightblue" d="M286.7,-588.08C308.95,-606.06 349.08,-635.4 389,-649 433.19,-664.05 485.62,-668.72 526.52,-669.66"/>
<polygon fill="midnightblue" stroke="midnightblue" points="526.6,-673.16 536.66,-669.83 526.72,-666.16 526.6,-673.16"/>
</g>
<!-- Node14 -->
<g id="node14" class="node">
<title>Node14</title>
<g id="a_node14"><a xlink:href="class_texture_library.html#aa8905251fa5e575eff741fa978eae401" target="_top" xlink:title=" ">
<polygon fill="none" stroke="black" points="390,-582.5 390,-601.5 500,-601.5 500,-582.5 390,-582.5"/>
<text text-anchor="middle" x="445" y="-589.5" font-family="Helvetica,sans-Serif" font-size="10.00">TextureLibrary::create</text>
</a>
</g>
</g>
<!-- Node2&#45;&gt;Node14 -->
<g id="edge15" class="edge">
<title>Node2&#45;&gt;Node14</title>
<path fill="none" stroke="midnightblue" d="M337.66,-580.45C351.47,-581.95 365.94,-583.53 379.6,-585.01"/>
<polygon fill="midnightblue" stroke="midnightblue" points="379.55,-588.52 389.87,-586.12 380.3,-581.56 379.55,-588.52"/>
</g>
<!-- Node16 -->
<g id="node16" class="node">
<title>Node16</title>
<g id="a_node16"><a xlink:href="class_scene_writer.html#acb5a78e22746b41d03198f028bf76c76" target="_top" xlink:title=" ">
<polygon fill="none" stroke="black" points="394.5,-468.5 394.5,-487.5 495.5,-487.5 495.5,-468.5 394.5,-468.5"/>
<text text-anchor="middle" x="445" y="-475.5" font-family="Helvetica,sans-Serif" font-size="10.00">SceneWriter::create</text>
</a>
</g>
</g>
<!-- Node2&#45;&gt;Node16 -->
<g id="edge17" class="edge">
<title>Node2&#45;&gt;Node16</title>
<path fill="none" stroke="midnightblue" d="M289.81,-557.71C313.08,-541.12 352.34,-514.65 389,-497 393.38,-494.89 398.05,-492.91 402.76,-491.07"/>
<polygon fill="midnightblue" stroke="midnightblue" points="404.2,-494.27 412.37,-487.52 401.78,-487.7 404.2,-494.27"/>
</g>
<!-- Node4 -->
<g id="node4" class="node">
<title>Node4</title>
<g id="a_node4"><a xlink:href="class_model_loader.html#a31c9aa31bf2d9778696ab75f4431a523" target="_top" xlink:title=" ">
<polygon fill="none" stroke="black" points="544,-506.5 544,-525.5 648,-525.5 648,-506.5 544,-506.5"/>
<text text-anchor="middle" x="596" y="-513.5" font-family="Helvetica,sans-Serif" font-size="10.00">ModelLoader::create</text>
</a>
</g>
</g>
<!-- Node3&#45;&gt;Node4 -->
<g id="edge3" class="edge">
<title>Node3&#45;&gt;Node4</title>
<path fill="none" stroke="midnightblue" d="M495.61,-516C507.84,-516 521.07,-516 533.78,-516"/>
<polygon fill="midnightblue" stroke="midnightblue" points="533.82,-519.5 543.82,-516 533.82,-512.5 533.82,-519.5"/>
</g>
<!-- Node7 -->
<g id="node7" class="node">
<title>Node7</title>
<g id="a_node7"><a xlink:href="class_dynamic_buffer.html#a81621a760b2a80c68fd5c9e94ac37da6" target="_top" xlink:title=" ">
<polygon fill="none" stroke="black" points="540.5,-614.5 540.5,-633.5 651.5,-633.5 651.5,-614.5 540.5,-614.5"/>
<text text-anchor="middle" x="596" y="-621.5" font-family="Helvetica,sans-Serif" font-size="10.00">DynamicBuffer::create</text>
</a>
</g>
</g>
<!-- Node6&#45;&gt;Node7 -->
<g id="edge6" class="edge">
<title>Node6&#45;&gt;Node7</title>
<path fill="none" stroke="midnightblue" d="M501.06,-627.78C510.53,-627.4 520.46,-627 530.16,-626.61"/>
<polygon fill="midnightblue" stroke="midnightblue" points="530.32,-630.11 540.17,-626.21 530.03,-623.11 530.32,-630.11"/>
</g>
<!-- Node8&#45;&gt;Node7 -->
<g id="edge12" class="edge">
<title>Node8&#45;&gt;Node7</title>
<path fill="none" stroke="midnightblue" d="M456.46,-702.45C472.67,-688.08 505.28,-660.79 537,-644 541.65,-641.54 546.66,-639.29 551.72,-637.25"/>
<polygon fill="midnightblue" stroke="midnightblue" points="553.3,-640.39 561.43,-633.6 550.84,-633.84 553.3,-640.39"/>
</g>
<!-- Node9 -->
<g id="node9" class="node">
<title>Node9</title>
<g id="a_node9"><a xlink:href="class_command_pool.html#a0c7b1a49862653552ece1efda2a73ae3" target="_top" xlink:title=" ">
<polygon fill="none" stroke="black" points="540,-789.5 540,-808.5 652,-808.5 652,-789.5 540,-789.5"/>
<text text-anchor="middle" x="596" y="-796.5" font-family="Helvetica,sans-Serif" font-size="10.00">CommandPool::create</text>
</a>
</g>
</g>
<!-- Node8&#45;&gt;Node9 -->
<g id="edge8" class="edge">
<title>Node8&#45;&gt;Node9</title>
<path fill="none" stroke="midnightblue" d="M456.43,-721.61C472.59,-736.06 505.15,-763.45 537,-780 541.08,-782.12 545.44,-784.06 549.87,-785.83"/>
<polygon fill="midnightblue" stroke="midnightblue" points="549,-789.25 559.59,-789.43 551.43,-782.68 549,-789.25"/>
</g>
<!-- Node10 -->
<g id="node10" class="node">
<title>Node10</title>
<g id="a_node10"><a xlink:href="class_uniform_buffer.html#a1e1a7c734eb7243682f2dfa7e964ee58" target="_top" xlink:title=" ">
<polygon fill="none" stroke="black" points="542,-751.5 542,-770.5 650,-770.5 650,-751.5 542,-751.5"/>
<text text-anchor="middle" x="596" y="-758.5" font-family="Helvetica,sans-Serif" font-size="10.00">UniformBuffer::create</text>
</a>
</g>
</g>
<!-- Node8&#45;&gt;Node10 -->
<g id="edge9" class="edge">
<title>Node8&#45;&gt;Node10</title>
<path fill="none" stroke="midnightblue" d="M475.09,-721.61C492.95,-727.5 516.3,-735.2 537,-742 543.14,-744.02 549.65,-746.16 556.01,-748.24"/>
<polygon fill="midnightblue" stroke="midnightblue" points="555.2,-751.65 565.79,-751.44 557.37,-745 555.2,-751.65"/>
</g>
<!-- Node8&#45;&gt;Node12 -->
<g id="edge13" class="edge">
<title>Node8&#45;&gt;Node12</title>
<path fill="none" stroke="midnightblue" d="M478.33,-702.45C494.73,-697.61 515.2,-691.57 534.39,-685.9"/>
<polygon fill="midnightblue" stroke="midnightblue" points="535.38,-689.25 543.98,-683.07 533.4,-682.54 535.38,-689.25"/>
</g>
<!-- Node13 -->
<g id="node13" class="node">
<title>Node13</title>
<g id="a_node13"><a xlink:href="class_descriptor_set_layout.html#a1a2b657df46e6453f7a7a3d7863103c2" target="_top" xlink:title=" ">
<polygon fill="none" stroke="black" points="543.5,-702 543.5,-732 648.5,-732 648.5,-702 543.5,-702"/>
<text text-anchor="start" x="551.5" y="-720" font-family="Helvetica,sans-Serif" font-size="10.00">DescriptorSetLayout</text>
<text text-anchor="middle" x="596" y="-709" font-family="Helvetica,sans-Serif" font-size="10.00">::create</text>
</a>
</g>
</g>
<!-- Node8&#45;&gt;Node13 -->
<g id="edge14" class="edge">
<title>Node8&#45;&gt;Node13</title>
<path fill="none" stroke="midnightblue" d="M483.21,-713.25C498.28,-713.75 516.08,-714.35 532.99,-714.92"/>
<polygon fill="midnightblue" stroke="midnightblue" points="533.27,-718.43 543.38,-715.27 533.5,-711.43 533.27,-718.43"/>
</g>
<!-- Node11 -->
<g id="node11" class="node">
<title>Node11</title>
<g id="a_node11"><a xlink:href="class_buffer.html#a04bbfbb11daccc5656c698c63214aefc" target="_top" xlink:title=" ">
<polygon fill="none" stroke="black" points="691,-751.5 691,-770.5 765,-770.5 765,-751.5 691,-751.5"/>
<text text-anchor="middle" x="728" y="-758.5" font-family="Helvetica,sans-Serif" font-size="10.00">Buffer::create</text>
</a>
</g>
</g>
<!-- Node10&#45;&gt;Node11 -->
<g id="edge10" class="edge">
<title>Node10&#45;&gt;Node11</title>
<path fill="none" stroke="midnightblue" d="M650.25,-761C660.35,-761 670.83,-761 680.69,-761"/>
<polygon fill="midnightblue" stroke="midnightblue" points="680.7,-764.5 690.7,-761 680.7,-757.5 680.7,-764.5"/>
</g>
<!-- Node11&#45;&gt;Node11 -->
<g id="edge11" class="edge">
<title>Node11&#45;&gt;Node11</title>
<path fill="none" stroke="midnightblue" d="M707.65,-770.76C697.76,-779.57 704.54,-789 728,-789 743.03,-789 751.21,-785.13 752.55,-780.03"/>
<polygon fill="midnightblue" stroke="midnightblue" points="755.67,-778.42 748.35,-770.76 749.29,-781.31 755.67,-778.42"/>
</g>
<!-- Node15 -->
<g id="node15" class="node">
<title>Node15</title>
<g id="a_node15"><a xlink:href="class_sampler.html#aa8d6d891475eb30a5b5d8b0d34222656" target="_top" xlink:title=" ">
<polygon fill="none" stroke="black" points="554,-576.5 554,-595.5 638,-595.5 638,-576.5 554,-576.5"/>
<text text-anchor="middle" x="596" y="-583.5" font-family="Helvetica,sans-Serif" font-size="10.00">Sampler::create</text>
</a>
</g>
</g>
<!-- Node14&#45;&gt;Node15 -->
<g id="edge16" class="edge">
<title>Node14&#45;&gt;Node15</title>
<path fill="none" stroke="midnightblue" d="M500.21,-589.82C514.27,-589.25 529.37,-588.64 543.3,-588.08"/>
<polygon fill="midnightblue" stroke="midnightblue" points="543.83,-591.56 553.68,-587.66 543.54,-584.57 543.83,-591.56"/>
</g>
<!-- Node18 -->
<g id="node18" class="node">
<title>Node18</title>
<g id="a_node18"><a xlink:href="class_u_i_renderer.html#a429d9bebea63cfce81d4179458bac829" target="_top" xlink:title=" ">
<polygon fill="none" stroke="black" points="396,-430.5 396,-449.5 494,-449.5 494,-430.5 396,-430.5"/>
<text text-anchor="middle" x="445" y="-437.5" font-family="Helvetica,sans-Serif" font-size="10.00">UIRenderer::create</text>
</a>
</g>
</g>
<!-- Node17&#45;&gt;Node18 -->
<g id="edge20" class="edge">
<title>Node17&#45;&gt;Node18</title>
<path fill="none" stroke="midnightblue" d="M345.5,-434.93C359,-435.63 372.85,-436.34 385.75,-437"/>
<polygon fill="midnightblue" stroke="midnightblue" points="385.69,-440.51 395.86,-437.52 386.05,-433.52 385.69,-440.51"/>
</g>
<!-- Node19 -->
<g id="node19" class="node">
<title>Node19</title>
<g id="a_node19"><a xlink:href="class_command_buffer.html#aa00b25bc626efb68b5dc810ea91cf41b" target="_top" xlink:title=" ">
<polygon fill="none" stroke="black" points="537,-449.5 537,-468.5 655,-468.5 655,-449.5 537,-449.5"/>
<text text-anchor="middle" x="596" y="-456.5" font-family="Helvetica,sans-Serif" font-size="10.00">CommandBuffer::create</text>
</a>
</g>
</g>
<!-- Node18&#45;&gt;Node19 -->
<g id="edge21" class="edge">
<title>Node18&#45;&gt;Node19</title>
<path fill="none" stroke="midnightblue" d="M494.38,-446.17C504.79,-447.5 515.97,-448.92 526.97,-450.33"/>
<polygon fill="midnightblue" stroke="midnightblue" points="526.63,-453.81 536.99,-451.6 527.52,-446.87 526.63,-453.81"/>
</g>
<!-- Node20 -->
<g id="node20" class="node">
<title>Node20</title>
<g id="a_node20"><a xlink:href="class_descriptor_pool.html#a190f2272d8740c7f7fe13b5b8fb8326c" target="_top" xlink:title=" ">
<polygon fill="none" stroke="black" points="540,-411.5 540,-430.5 652,-430.5 652,-411.5 540,-411.5"/>
<text text-anchor="middle" x="596" y="-418.5" font-family="Helvetica,sans-Serif" font-size="10.00">DescriptorPool::create</text>
</a>
</g>
</g>
<!-- Node18&#45;&gt;Node20 -->
<g id="edge22" class="edge">
<title>Node18&#45;&gt;Node20</title>
<path fill="none" stroke="midnightblue" d="M494.38,-433.83C505.73,-432.38 518.01,-430.82 529.96,-429.29"/>
<polygon fill="midnightblue" stroke="midnightblue" points="530.41,-432.76 539.89,-428.03 529.53,-425.82 530.41,-432.76"/>
</g>
<!-- Node21&#45;&gt;Node9 -->
<g id="edge24" class="edge">
<title>Node21&#45;&gt;Node9</title>
<path fill="none" stroke="midnightblue" d="M331.09,-735.05C393.48,-750.16 488.39,-773.16 545.77,-787.07"/>
<polygon fill="midnightblue" stroke="midnightblue" points="545.14,-790.52 555.68,-789.47 546.79,-783.72 545.14,-790.52"/>
</g>
<!-- Node23 -->
<g id="node23" class="node">
<title>Node23</title>
<g id="a_node23"><a xlink:href="class_frame_buffer.html#a3b861048fc9c1861448d4dee7a6b9b69" target="_top" xlink:title=" ">
<polygon fill="none" stroke="black" points="394.5,-392.5 394.5,-411.5 495.5,-411.5 495.5,-392.5 394.5,-392.5"/>
<text text-anchor="middle" x="445" y="-399.5" font-family="Helvetica,sans-Serif" font-size="10.00">FrameBuffer::create</text>
</a>
</g>
</g>
<!-- Node22&#45;&gt;Node23 -->
<g id="edge26" class="edge">
<title>Node22&#45;&gt;Node23</title>
<path fill="none" stroke="midnightblue" d="M340.18,-382.42C354.8,-385.18 370.05,-388.06 384.22,-390.73"/>
<polygon fill="midnightblue" stroke="midnightblue" points="383.84,-394.22 394.32,-392.63 385.14,-387.34 383.84,-394.22"/>
</g>
<!-- Node25 -->
<g id="node25" class="node">
<title>Node25</title>
<g id="a_node25"><a xlink:href="class_device.html#a2a9f19d3d5e271b7d3c300e657b44219" target="_top" xlink:title=" ">
<polygon fill="none" stroke="black" points="406,-354.5 406,-373.5 484,-373.5 484,-354.5 406,-354.5"/>
<text text-anchor="middle" x="445" y="-361.5" font-family="Helvetica,sans-Serif" font-size="10.00">Device::create</text>
</a>
</g>
</g>
<!-- Node24&#45;&gt;Node25 -->
<g id="edge28" class="edge">
<title>Node24&#45;&gt;Node25</title>
<path fill="none" stroke="midnightblue" d="M317.75,-325.04C344.71,-333.36 377.83,-343.58 403.38,-351.46"/>
<polygon fill="midnightblue" stroke="midnightblue" points="402.53,-354.87 413.12,-354.47 404.6,-348.18 402.53,-354.87"/>
</g>
<!-- Node26 -->
<g id="node26" class="node">
<title>Node26</title>
<g id="a_node26"><a xlink:href="structoptional.html#a7c9c93a03748f3024d4043b20fa8e958" target="_top" xlink:title=" ">
<polygon fill="none" stroke="black" points="395.5,-316.5 395.5,-335.5 494.5,-335.5 494.5,-316.5 395.5,-316.5"/>
<text text-anchor="middle" x="445" y="-323.5" font-family="Helvetica,sans-Serif" font-size="10.00">optional::has_value</text>
</a>
</g>
</g>
<!-- Node24&#45;&gt;Node26 -->
<g id="edge29" class="edge">
<title>Node24&#45;&gt;Node26</title>
<path fill="none" stroke="midnightblue" d="M342.2,-316.69C356.53,-318 371.39,-319.36 385.18,-320.62"/>
<polygon fill="midnightblue" stroke="midnightblue" points="385.21,-324.14 395.49,-321.56 385.85,-317.17 385.21,-324.14"/>
</g>
<!-- Node27 -->
<g id="node27" class="node">
<title>Node27</title>
<g id="a_node27"><a xlink:href="structoptional.html#a5fcd27e1ee81ffc29606ac241349f0c4" target="_top" xlink:title=" ">
<polygon fill="none" stroke="black" points="406,-278.5 406,-297.5 484,-297.5 484,-278.5 406,-278.5"/>
<text text-anchor="middle" x="445" y="-285.5" font-family="Helvetica,sans-Serif" font-size="10.00">optional::value</text>
</a>
</g>
</g>
<!-- Node24&#45;&gt;Node27 -->
<g id="edge30" class="edge">
<title>Node24&#45;&gt;Node27</title>
<path fill="none" stroke="midnightblue" d="M342.2,-300.8C360.35,-298.52 379.34,-296.13 395.94,-294.04"/>
<polygon fill="midnightblue" stroke="midnightblue" points="396.45,-297.5 405.94,-292.78 395.58,-290.56 396.45,-297.5"/>
</g>
<!-- Node29 -->
<g id="node29" class="node">
<title>Node29</title>
<g id="a_node29"><a xlink:href="class_render_pass.html#a7192ec68626bea374e5003f022dfb0a6" target="_top" xlink:title=" ">
<polygon fill="none" stroke="black" points="394.5,-240.5 394.5,-259.5 495.5,-259.5 495.5,-240.5 394.5,-240.5"/>
<text text-anchor="middle" x="445" y="-247.5" font-family="Helvetica,sans-Serif" font-size="10.00">RenderPass::create</text>
</a>
</g>
</g>
<!-- Node28&#45;&gt;Node29 -->
<g id="edge32" class="edge">
<title>Node28&#45;&gt;Node29</title>
<path fill="none" stroke="midnightblue" d="M353.17,-254.15C363.57,-253.68 374.03,-253.2 383.96,-252.74"/>
<polygon fill="midnightblue" stroke="midnightblue" points="384.27,-256.23 394.1,-252.28 383.95,-249.24 384.27,-256.23"/>
</g>
<!-- Node31 -->
<g id="node31" class="node">
<title>Node31</title>
<g id="a_node31"><a xlink:href="class_framebuffer_selector.html#aaeb567a08ff24b698ee8cc569980c937" target="_top" xlink:title=" ">
<polygon fill="none" stroke="black" points="393,-153 393,-183 497,-183 497,-153 393,-153"/>
<text text-anchor="start" x="401" y="-171" font-family="Helvetica,sans-Serif" font-size="10.00">FramebufferSelector</text>
<text text-anchor="middle" x="445" y="-160" font-family="Helvetica,sans-Serif" font-size="10.00">::create</text>
</a>
</g>
</g>
<!-- Node30&#45;&gt;Node31 -->
<g id="edge34" class="edge">
<title>Node30&#45;&gt;Node31</title>
<path fill="none" stroke="midnightblue" d="M338.67,-168C353.24,-168 368.5,-168 382.74,-168"/>
<polygon fill="midnightblue" stroke="midnightblue" points="382.91,-171.5 392.91,-168 382.91,-164.5 382.91,-171.5"/>
</g>
<!-- Node32 -->
<g id="node32" class="node">
<title>Node32</title>
<g id="a_node32"><a xlink:href="class_image.html#a729f597dc28bd5261b1860643ed9513f" target="_top" xlink:title=" ">
<polygon fill="none" stroke="black" points="558.5,-180.5 558.5,-199.5 633.5,-199.5 633.5,-180.5 558.5,-180.5"/>
<text text-anchor="middle" x="596" y="-187.5" font-family="Helvetica,sans-Serif" font-size="10.00">Image::create</text>
</a>
</g>
</g>
<!-- Node30&#45;&gt;Node32 -->
<g id="edge37" class="edge">
<title>Node30&#45;&gt;Node32</title>
<path fill="none" stroke="midnightblue" d="M329.05,-183.03C348.09,-187.12 369.31,-190.97 389,-193 438.52,-198.1 451.23,-193.79 501,-193 516.39,-192.75 533.19,-192.28 548.27,-191.79"/>
<polygon fill="midnightblue" stroke="midnightblue" points="548.53,-195.28 558.4,-191.44 548.29,-188.28 548.53,-195.28"/>
</g>
<!-- Node33 -->
<g id="node33" class="node">
<title>Node33</title>
<g id="a_node33"><a xlink:href="class_swap_chain.html#ad6e69feb47cd7d9016c468d2fe01f8af" target="_top" xlink:title=" ">
<polygon fill="none" stroke="black" points="396,-114.5 396,-133.5 494,-133.5 494,-114.5 396,-114.5"/>
<text text-anchor="middle" x="445" y="-121.5" font-family="Helvetica,sans-Serif" font-size="10.00">SwapChain::create</text>
</a>
</g>
</g>
<!-- Node30&#45;&gt;Node33 -->
<g id="edge36" class="edge">
<title>Node30&#45;&gt;Node33</title>
<path fill="none" stroke="midnightblue" d="M328.74,-152.98C350.77,-147.44 375.43,-141.24 396.27,-136"/>
<polygon fill="midnightblue" stroke="midnightblue" points="397.32,-139.35 406.17,-133.51 395.61,-132.56 397.32,-139.35"/>
</g>
<!-- Node34 -->
<g id="node34" class="node">
<title>Node34</title>
<g id="a_node34"><a xlink:href="class_image_view.html#a49f8e14c3fd61c0e19735f7f3c397f94" target="_top" xlink:title=" ">
<polygon fill="none" stroke="black" points="396.5,-76.5 396.5,-95.5 493.5,-95.5 493.5,-76.5 396.5,-76.5"/>
<text text-anchor="middle" x="445" y="-83.5" font-family="Helvetica,sans-Serif" font-size="10.00">ImageView::create</text>
</a>
</g>
</g>
<!-- Node30&#45;&gt;Node34 -->
<g id="edge38" class="edge">
<title>Node30&#45;&gt;Node34</title>
<path fill="none" stroke="midnightblue" d="M332.92,-152.88C339.93,-150.09 346.78,-146.82 353,-143 372.82,-130.82 369.45,-117.6 389,-105 392.11,-102.99 395.46,-101.17 398.92,-99.52"/>
<polygon fill="midnightblue" stroke="midnightblue" points="400.39,-102.7 408.21,-95.56 397.64,-96.26 400.39,-102.7"/>
</g>
<!-- Node35 -->
<g id="node35" class="node">
<title>Node35</title>
<g id="a_node35"><a xlink:href="class_utils.html#ac44035a9bc80c570cfcd56ded0dad0a5" target="_top" xlink:title=" ">
<polygon fill="none" stroke="black" points="408,-38.5 408,-57.5 482,-57.5 482,-38.5 408,-38.5"/>
<text text-anchor="middle" x="445" y="-45.5" font-family="Helvetica,sans-Serif" font-size="10.00">Utils::remove</text>
</a>
</g>
</g>
<!-- Node30&#45;&gt;Node35 -->
<g id="edge39" class="edge">
<title>Node30&#45;&gt;Node35</title>
<path fill="none" stroke="midnightblue" d="M338.04,-152.89C343.41,-150.13 348.5,-146.86 353,-143 381.37,-118.67 361.16,-91.94 389,-67 391.84,-64.46 395.03,-62.25 398.42,-60.34"/>
<polygon fill="midnightblue" stroke="midnightblue" points="400.18,-63.38 407.71,-55.93 397.18,-57.05 400.18,-63.38"/>
</g>
<!-- Node31&#45;&gt;Node32 -->
<g id="edge35" class="edge">
<title>Node31&#45;&gt;Node32</title>
<path fill="none" stroke="midnightblue" d="M497.28,-175.57C513.71,-178 531.82,-180.67 547.94,-183.05"/>
<polygon fill="midnightblue" stroke="midnightblue" points="547.8,-186.57 558.21,-184.57 548.83,-179.64 547.8,-186.57"/>
</g>
<!-- Node37 -->
<g id="node37" class="node">
<title>Node37</title>
<g id="a_node37"><a xlink:href="class_u_i_renderer.html#aac8d680ed9737849462c758bb0fd3ee7" target="_top" xlink:title=" ">
<polygon fill="none" stroke="black" points="397.5,-0.5 397.5,-19.5 492.5,-19.5 492.5,-0.5 397.5,-0.5"/>
<text text-anchor="middle" x="445" y="-7.5" font-family="Helvetica,sans-Serif" font-size="10.00">UIRenderer::getIO</text>
</a>
</g>
</g>
<!-- Node36&#45;&gt;Node37 -->
<g id="edge41" class="edge">
<title>Node36&#45;&gt;Node37</title>
<path fill="none" stroke="midnightblue" d="M335,-114.44C341.48,-111.75 347.63,-108.33 353,-104 381.78,-80.79 361.4,-53.6 389,-29 390.91,-27.29 392.99,-25.74 395.17,-24.32"/>
<polygon fill="midnightblue" stroke="midnightblue" points="396.92,-27.36 404.04,-19.52 393.58,-21.21 396.92,-27.36"/>
</g>
<!-- Node38&#45;&gt;Node37 -->
<g id="edge43" class="edge">
<title>Node38&#45;&gt;Node37</title>
<path fill="none" stroke="midnightblue" d="M328.7,-64.96C337.04,-62.08 345.36,-58.76 353,-55 370.71,-46.28 371.49,-38.1 389,-29 393.04,-26.9 397.37,-24.95 401.75,-23.16"/>
<polygon fill="midnightblue" stroke="midnightblue" points="403.24,-26.34 411.35,-19.52 400.76,-19.8 403.24,-26.34"/>
</g>
</g>
</svg>
        <g id="navigator" transform="translate(0 0)" fill="#404254">
                <rect fill="#f2f5e9" fill-opacity="0.5" stroke="#606060" stroke-width=".5" x="0" y="0" width="60" height="60"/>
                <use id="zoomplus" xlink:href="#zoomPlus" x="17" y="9" onmousedown="handleZoom(evt,'in')"/>
                <use id="zoomminus" xlink:href="#zoomMin" x="42" y="9" onmousedown="handleZoom(evt,'out')"/>
                <use id="reset" xlink:href="#resetDef" x="30" y="36" onmousedown="handleReset()"/>
                <g id="arrowUp" xlink:href="#dirArrow" transform="translate(30 24)" onmousedown="handlePan(0,-1)">
                  <use xlink:href="#rim" fill="#404040">
                        <set attributeName="fill" to="#808080" begin="arrowUp.mouseover" end="arrowUp.mouseout"/>
                  </use>
                  <path fill="none" stroke="white" stroke-width="1.5" d="M0,-3.0v7 M-2.5,-0.5L0,-3.0L2.5,-0.5"/>
                </g>
                <g id="arrowRight" xlink:href="#dirArrow" transform="rotate(90) translate(36 -43)" onmousedown="handlePan(1,0)">
                  <use xlink:href="#rim" fill="#404040">
                        <set attributeName="fill" to="#808080" begin="arrowRight.mouseover" end="arrowRight.mouseout"/>
                  </use>
                  <path fill="none" stroke="white" stroke-width="1.5" d="M0,-3.0v7 M-2.5,-0.5L0,-3.0L2.5,-0.5"/>
                </g>
                <g id="arrowDown" xlink:href="#dirArrow" transform="rotate(180) translate(-30 -48)" onmousedown="handlePan(0,1)">
                  <use xlink:href="#rim" fill="#404040">
                        <set attributeName="fill" to="#808080" begin="arrowDown.mouseover" end="arrowDown.mouseout"/>
                  </use>
                  <path fill="none" stroke="white" stroke-width="1.5" d="M0,-3.0v7 M-2.5,-0.5L0,-3.0L2.5,-0.5"/>
                </g>
                <g id="arrowLeft" xlink:href="#dirArrow" transform="rotate(270) translate(-36 17)" onmousedown="handlePan(-1,0)">
                  <use xlink:href="#rim" fill="#404040">
                        <set attributeName="fill" to="#808080" begin="arrowLeft.mouseover" end="arrowLeft.mouseout"/>
                  </use>
                  <path fill="none" stroke="white" stroke-width="1.5" d="M0,-3.0v7 M-2.5,-0.5L0,-3.0L2.5,-0.5"/>
                </g>
        </g>
        <svg viewBox="0 0 15 15" width="100%" height="30px" preserveAspectRatio="xMaxYMin meet">
         <g id="arrow_out" transform="scale(0.3 0.3)">
          <a xlink:href="class_render_manager_a2f5991e4b82925a2571e6fabf1e8b7b9_cgraph_org.svg" target="_base">
           <rect id="button" ry="5" rx="5" y="6" x="6" height="38" width="38"
                fill="#f2f5e9" fill-opacity="0.5" stroke="#606060" stroke-width="1.0"/>
           <path id="arrow"
             d="M 11.500037,31.436501 C 11.940474,20.09759 22.043105,11.32322 32.158766,21.979434 L 37.068811,17.246167 C 37.068811,17.246167 37.088388,32 37.088388,32 L 22.160133,31.978069 C 22.160133,31.978069 26.997745,27.140456 26.997745,27.140456 C 18.528582,18.264221 13.291696,25.230495 11.500037,31.436501 z"
             style="fill:#404040;"/>
          </a>
         </g>
        </svg>
</svg>
