<?xml version="1.0" encoding="UTF-8" standalone="no"?>
<!DOCTYPE svg PUBLIC "-//W3C//DTD SVG 1.1//EN"
 "http://www.w3.org/Graphics/SVG/1.1/DTD/svg11.dtd">
<!-- Generated by graphviz version 2.49.3 (20211215.1918)
 -->
<!-- Title: RenderPass::create Pages: 1 -->
<svg width="704pt" height="104pt"
 viewBox="0.00 0.00 704.00 104.00" xmlns="http://www.w3.org/2000/svg" xmlns:xlink="http://www.w3.org/1999/xlink">
<g id="graph0" class="graph" transform="scale(1 1) rotate(0) translate(4 100)">
<title>RenderPass::create</title>
<!-- Node1 -->
<g id="node1" class="node">
<title>Node1</title>
<g id="a_node1"><a xlink:title=" ">
<polygon fill="#bfbfbf" stroke="black" points="595,-38.5 595,-57.5 696,-57.5 696,-38.5 595,-38.5"/>
<text text-anchor="middle" x="645.5" y="-45.5" font-family="Helvetica,sans-Serif" font-size="10.00">RenderPass::create</text>
</a>
</g>
</g>
<!-- Node2 -->
<g id="node2" class="node">
<title>Node2</title>
<g id="a_node2"><a xlink:href="class_master_material.html#affb20ff1a7f90f6e1809f614e85a625f" target="_top" xlink:title=" ">
<polygon fill="none" stroke="black" points="419,-76.5 419,-95.5 532,-95.5 532,-76.5 419,-76.5"/>
<text text-anchor="middle" x="475.5" y="-83.5" font-family="Helvetica,sans-Serif" font-size="10.00">MasterMaterial::create</text>
</a>
</g>
</g>
<!-- Node1&#45;&gt;Node2 -->
<g id="edge1" class="edge">
<title>Node1&#45;&gt;Node2</title>
<path fill="none" stroke="midnightblue" d="M592.22,-59.82C568.54,-65.18 540.91,-71.43 518.59,-76.48"/>
<polygon fill="midnightblue" stroke="midnightblue" points="593.13,-63.21 602.11,-57.59 591.58,-56.38 593.13,-63.21"/>
</g>
<!-- Node3 -->
<g id="node3" class="node">
<title>Node3</title>
<g id="a_node3"><a xlink:href="class_mandelbrot_app.html#a42888cf7f601ffe792280926a9499f9a" target="_top" xlink:title=" ">
<polygon fill="none" stroke="black" points="392,-38.5 392,-57.5 559,-57.5 559,-38.5 392,-38.5"/>
<text text-anchor="middle" x="475.5" y="-45.5" font-family="Helvetica,sans-Serif" font-size="10.00">MandelbrotApp::createRenderPass</text>
</a>
</g>
</g>
<!-- Node1&#45;&gt;Node3 -->
<g id="edge2" class="edge">
<title>Node1&#45;&gt;Node3</title>
<path fill="none" stroke="midnightblue" d="M584.42,-48C576.26,-48 567.77,-48 559.3,-48"/>
<polygon fill="midnightblue" stroke="midnightblue" points="584.55,-51.5 594.55,-48 584.55,-44.5 584.55,-51.5"/>
</g>
<!-- Node8 -->
<g id="node8" class="node">
<title>Node8</title>
<g id="a_node8"><a xlink:href="vulkan__voxel__rasterizer_8cpp.html#ae66f6b31b5ad750f1fe042a706a4e3d4" target="_top" xlink:title=" ">
<polygon fill="none" stroke="black" points="456.5,-0.5 456.5,-19.5 494.5,-19.5 494.5,-0.5 456.5,-0.5"/>
<text text-anchor="middle" x="475.5" y="-7.5" font-family="Helvetica,sans-Serif" font-size="10.00">main</text>
</a>
</g>
</g>
<!-- Node1&#45;&gt;Node8 -->
<g id="edge7" class="edge">
<title>Node1&#45;&gt;Node8</title>
<path fill="none" stroke="midnightblue" d="M592.07,-36.14C558.84,-28.62 517.9,-19.36 494.74,-14.13"/>
<polygon fill="midnightblue" stroke="midnightblue" points="591.58,-39.62 602.11,-38.41 593.13,-32.79 591.58,-39.62"/>
</g>
<!-- Node4 -->
<g id="node4" class="node">
<title>Node4</title>
<g id="a_node4"><a xlink:href="class_mandelbrot_app.html#ad5c4a7e7fd79bc75fea87df0165005b6" target="_top" xlink:title=" ">
<polygon fill="none" stroke="black" points="218.5,-60.5 218.5,-79.5 347.5,-79.5 347.5,-60.5 218.5,-60.5"/>
<text text-anchor="middle" x="283" y="-67.5" font-family="Helvetica,sans-Serif" font-size="10.00">MandelbrotApp::initVulkan</text>
</a>
</g>
</g>
<!-- Node3&#45;&gt;Node4 -->
<g id="edge3" class="edge">
<title>Node3&#45;&gt;Node4</title>
<path fill="none" stroke="midnightblue" d="M381.89,-58.7C370.29,-60.03 358.64,-61.38 347.62,-62.65"/>
<polygon fill="midnightblue" stroke="midnightblue" points="382.52,-62.15 392.05,-57.52 381.72,-55.19 382.52,-62.15"/>
</g>
<!-- Node7 -->
<g id="node7" class="node">
<title>Node7</title>
<g id="a_node7"><a xlink:href="class_mandelbrot_app.html#a733620a6533fb25a6ffa309886b74904" target="_top" xlink:title=" ">
<polygon fill="none" stroke="black" points="210,-11 210,-41 356,-41 356,-11 210,-11"/>
<text text-anchor="start" x="218" y="-29" font-family="Helvetica,sans-Serif" font-size="10.00">MandelbrotApp::recreateSwap</text>
<text text-anchor="middle" x="283" y="-18" font-family="Helvetica,sans-Serif" font-size="10.00">Chain</text>
</a>
</g>
</g>
<!-- Node3&#45;&gt;Node7 -->
<g id="edge6" class="edge">
<title>Node3&#45;&gt;Node7</title>
<path fill="none" stroke="midnightblue" d="M381.91,-37.31C373.24,-36.31 364.54,-35.3 356.1,-34.33"/>
<polygon fill="midnightblue" stroke="midnightblue" points="381.72,-40.81 392.05,-38.48 382.52,-33.85 381.72,-40.81"/>
</g>
<!-- Node5 -->
<g id="node5" class="node">
<title>Node5</title>
<g id="a_node5"><a xlink:href="class_mandelbrot_app.html#a2cd742dc1400d3cf3e4ed782976fda5f" target="_top" xlink:title=" ">
<polygon fill="none" stroke="black" points="74,-60.5 74,-79.5 174,-79.5 174,-60.5 74,-60.5"/>
<text text-anchor="middle" x="124" y="-67.5" font-family="Helvetica,sans-Serif" font-size="10.00">MandelbrotApp::run</text>
</a>
</g>
</g>
<!-- Node4&#45;&gt;Node5 -->
<g id="edge4" class="edge">
<title>Node4&#45;&gt;Node5</title>
<path fill="none" stroke="midnightblue" d="M208.13,-70C196.68,-70 185.09,-70 174.35,-70"/>
<polygon fill="midnightblue" stroke="midnightblue" points="208.14,-73.5 218.14,-70 208.14,-66.5 208.14,-73.5"/>
</g>
<!-- Node6 -->
<g id="node6" class="node">
<title>Node6</title>
<g id="a_node6"><a xlink:href="vulkan__voxel__rasterizer__2_8cpp.html#ae66f6b31b5ad750f1fe042a706a4e3d4" target="_top" xlink:title=" ">
<polygon fill="none" stroke="black" points="0,-60.5 0,-79.5 38,-79.5 38,-60.5 0,-60.5"/>
<text text-anchor="middle" x="19" y="-67.5" font-family="Helvetica,sans-Serif" font-size="10.00">main</text>
</a>
</g>
</g>
<!-- Node5&#45;&gt;Node6 -->
<g id="edge5" class="edge">
<title>Node5&#45;&gt;Node6</title>
<path fill="none" stroke="midnightblue" d="M63.85,-70C54.65,-70 45.78,-70 38.46,-70"/>
<polygon fill="midnightblue" stroke="midnightblue" points="63.91,-73.5 73.91,-70 63.91,-66.5 63.91,-73.5"/>
</g>
</g>
</svg>
