<?xml version="1.0" encoding="UTF-8" standalone="no"?>
<!DOCTYPE svg PUBLIC "-//W3C//DTD SVG 1.1//EN"
 "http://www.w3.org/Graphics/SVG/1.1/DTD/svg11.dtd">
<!-- Generated by graphviz version 2.50.0 (20220203.2022)
 -->
<!-- Title: DescriptorSet Pages: 1 -->
<svg width="167pt" height="475pt"
 viewBox="0.00 0.00 167.00 475.00" xmlns="http://www.w3.org/2000/svg" xmlns:xlink="http://www.w3.org/1999/xlink">
<g id="graph0" class="graph" transform="scale(1 1) rotate(0) translate(4 471)">
<title>DescriptorSet</title>
<!-- Node1 -->
<g id="node1" class="node">
<title>Node1</title>
<g id="a_node1"><a xlink:title=" ">
<polygon fill="#bfbfbf" stroke="black" points="6.5,-0.5 6.5,-233.5 129.5,-233.5 129.5,-0.5 6.5,-0.5"/>
<text text-anchor="middle" x="68" y="-221.5" font-family="Helvetica,sans-Serif" font-size="10.00">DescriptorSet</text>
<polyline fill="none" stroke="black" points="6.5,-214.5 129.5,-214.5 "/>
<text text-anchor="start" x="14.5" y="-202.5" font-family="Helvetica,sans-Serif" font-size="10.00">&#45; device</text>
<text text-anchor="start" x="14.5" y="-191.5" font-family="Helvetica,sans-Serif" font-size="10.00">&#45; setLayout</text>
<text text-anchor="start" x="14.5" y="-180.5" font-family="Helvetica,sans-Serif" font-size="10.00">&#45; pool</text>
<polyline fill="none" stroke="black" points="6.5,-173.5 129.5,-173.5 "/>
<text text-anchor="start" x="14.5" y="-161.5" font-family="Helvetica,sans-Serif" font-size="10.00">+ updateUniformBuffer()</text>
<text text-anchor="start" x="14.5" y="-150.5" font-family="Helvetica,sans-Serif" font-size="10.00">+ updateUniformBuffer()</text>
<text text-anchor="start" x="14.5" y="-139.5" font-family="Helvetica,sans-Serif" font-size="10.00">+ updateUniformBuffer()</text>
<text text-anchor="start" x="14.5" y="-128.5" font-family="Helvetica,sans-Serif" font-size="10.00">+ updateImageSampler()</text>
<text text-anchor="start" x="14.5" y="-117.5" font-family="Helvetica,sans-Serif" font-size="10.00">+ updateStorageBuffer()</text>
<text text-anchor="start" x="14.5" y="-106.5" font-family="Helvetica,sans-Serif" font-size="10.00">+ updateImages()</text>
<text text-anchor="start" x="14.5" y="-95.5" font-family="Helvetica,sans-Serif" font-size="10.00">+ updateImage()</text>
<text text-anchor="start" x="14.5" y="-84.5" font-family="Helvetica,sans-Serif" font-size="10.00">+ updateImage()</text>
<text text-anchor="start" x="14.5" y="-73.5" font-family="Helvetica,sans-Serif" font-size="10.00">+ getDevice()</text>
<text text-anchor="start" x="14.5" y="-62.5" font-family="Helvetica,sans-Serif" font-size="10.00">+ getPool()</text>
<text text-anchor="start" x="14.5" y="-51.5" font-family="Helvetica,sans-Serif" font-size="10.00">+ getLayout()</text>
<text text-anchor="start" x="14.5" y="-40.5" font-family="Helvetica,sans-Serif" font-size="10.00">+ ~DescriptorSet()</text>
<text text-anchor="start" x="14.5" y="-29.5" font-family="Helvetica,sans-Serif" font-size="10.00">+ create()</text>
<text text-anchor="start" x="14.5" y="-18.5" font-family="Helvetica,sans-Serif" font-size="10.00">+ create()</text>
<text text-anchor="start" x="14.5" y="-7.5" font-family="Helvetica,sans-Serif" font-size="10.00">+ create()</text>
</a>
</g>
</g>
<!-- Node2 -->
<g id="node2" class="node">
<title>Node2</title>
<g id="a_node2"><a xlink:href="class_vulkan_class.html" target="_top" xlink:title=" ">
<polygon fill="none" stroke="black" points="0,-271.5 0,-350.5 136,-350.5 136,-271.5 0,-271.5"/>
<text text-anchor="start" x="8" y="-338.5" font-family="Helvetica,sans-Serif" font-size="10.00">VulkanClass&lt; VkDescriptor</text>
<text text-anchor="middle" x="68" y="-327.5" font-family="Helvetica,sans-Serif" font-size="10.00">Set &gt;</text>
<polyline fill="none" stroke="black" points="0,-320.5 136,-320.5 "/>
<text text-anchor="start" x="8" y="-308.5" font-family="Helvetica,sans-Serif" font-size="10.00"># handle</text>
<polyline fill="none" stroke="black" points="0,-301.5 136,-301.5 "/>
<text text-anchor="start" x="8" y="-289.5" font-family="Helvetica,sans-Serif" font-size="10.00">+ getHandle()</text>
<text text-anchor="start" x="8" y="-278.5" font-family="Helvetica,sans-Serif" font-size="10.00">+ getHandlePtr()</text>
</a>
</g>
</g>
<!-- Node2&#45;&gt;Node1 -->
<g id="edge1" class="edge">
<title>Node2&#45;&gt;Node1</title>
<path fill="none" stroke="midnightblue" d="M68,-261.07C68,-252.52 68,-243.31 68,-233.83"/>
<polygon fill="none" stroke="midnightblue" points="64.5,-261.15 68,-271.15 71.5,-261.15 64.5,-261.15"/>
</g>
<!-- Node3 -->
<g id="node3" class="node">
<title>Node3</title>
<g id="a_node3"><a xlink:href="class_vulkan_class.html" target="_top" xlink:title=" ">
<polygon fill="none" stroke="black" points="21,-398.5 21,-466.5 115,-466.5 115,-398.5 21,-398.5"/>
<text text-anchor="middle" x="68" y="-454.5" font-family="Helvetica,sans-Serif" font-size="10.00">VulkanClass&lt; T &gt;</text>
<polyline fill="none" stroke="black" points="21,-447.5 115,-447.5 "/>
<text text-anchor="start" x="29" y="-435.5" font-family="Helvetica,sans-Serif" font-size="10.00"># handle</text>
<polyline fill="none" stroke="black" points="21,-428.5 115,-428.5 "/>
<text text-anchor="start" x="29" y="-416.5" font-family="Helvetica,sans-Serif" font-size="10.00">+ getHandle()</text>
<text text-anchor="start" x="29" y="-405.5" font-family="Helvetica,sans-Serif" font-size="10.00">+ getHandlePtr()</text>
</a>
</g>
</g>
<!-- Node3&#45;&gt;Node2 -->
<g id="edge2" class="edge">
<title>Node3&#45;&gt;Node2</title>
<path fill="none" stroke="orange" d="M68,-388.18C68,-375.89 68,-362.59 68,-350.6"/>
<polygon fill="orange" stroke="orange" points="64.5,-388.21 68,-398.21 71.5,-388.21 64.5,-388.21"/>
<text text-anchor="middle" x="113.5" y="-372" font-family="Helvetica,sans-Serif" font-size="10.00"> &lt; VkDescriptorSet &gt;</text>
</g>
</g>
</svg>
