<?xml version="1.0" encoding="UTF-8" standalone="no"?>
<!DOCTYPE svg PUBLIC "-//W3C//DTD SVG 1.1//EN"
 "http://www.w3.org/Graphics/SVG/1.1/DTD/svg11.dtd">
<!-- Generated by graphviz version 2.49.3 (20211215.1918)
 -->
<!-- Title: PipelineLayout::create Pages: 1 -->
<svg width="700pt" height="94pt"
 viewBox="0.00 0.00 700.00 94.00" xmlns="http://www.w3.org/2000/svg" xmlns:xlink="http://www.w3.org/1999/xlink">
<g id="graph0" class="graph" transform="scale(1 1) rotate(0) translate(4 90)">
<title>PipelineLayout::create</title>
<!-- Node1 -->
<g id="node1" class="node">
<title>Node1</title>
<g id="a_node1"><a xlink:title=" ">
<polygon fill="#bfbfbf" stroke="black" points="580,-22.5 580,-41.5 692,-41.5 692,-22.5 580,-22.5"/>
<text text-anchor="middle" x="636" y="-29.5" font-family="Helvetica,sans-Serif" font-size="10.00">PipelineLayout::create</text>
</a>
</g>
</g>
<!-- Node2 -->
<g id="node2" class="node">
<title>Node2</title>
<g id="a_node2"><a xlink:href="class_mandelbrot_app.html#a5e76d0eb44ecf689ac5dc6a2a9336795" target="_top" xlink:title=" ">
<polygon fill="none" stroke="black" points="392,-39 392,-69 544,-69 544,-39 392,-39"/>
<text text-anchor="start" x="400" y="-57" font-family="Helvetica,sans-Serif" font-size="10.00">MandelbrotApp::createGraphics</text>
<text text-anchor="middle" x="468" y="-46" font-family="Helvetica,sans-Serif" font-size="10.00">Pipeline</text>
</a>
</g>
</g>
<!-- Node1&#45;&gt;Node2 -->
<g id="edge1" class="edge">
<title>Node1&#45;&gt;Node2</title>
<path fill="none" stroke="midnightblue" d="M569.65,-40.66C561.28,-41.77 552.65,-42.91 544.13,-44.04"/>
<polygon fill="midnightblue" stroke="midnightblue" points="570.27,-44.11 579.72,-39.33 569.35,-37.17 570.27,-44.11"/>
</g>
<!-- Node7 -->
<g id="node7" class="node">
<title>Node7</title>
<g id="a_node7"><a xlink:href="vulkan__voxel__rasterizer_8cpp.html#ae66f6b31b5ad750f1fe042a706a4e3d4" target="_top" xlink:title=" ">
<polygon fill="none" stroke="black" points="449,-0.5 449,-19.5 487,-19.5 487,-0.5 449,-0.5"/>
<text text-anchor="middle" x="468" y="-7.5" font-family="Helvetica,sans-Serif" font-size="10.00">main</text>
</a>
</g>
</g>
<!-- Node1&#45;&gt;Node7 -->
<g id="edge6" class="edge">
<title>Node1&#45;&gt;Node7</title>
<path fill="none" stroke="midnightblue" d="M569.78,-23.36C540.04,-19.42 507.11,-15.05 487.23,-12.42"/>
<polygon fill="midnightblue" stroke="midnightblue" points="569.35,-26.83 579.72,-24.67 570.27,-19.89 569.35,-26.83"/>
</g>
<!-- Node3 -->
<g id="node3" class="node">
<title>Node3</title>
<g id="a_node3"><a xlink:href="class_mandelbrot_app.html#ad5c4a7e7fd79bc75fea87df0165005b6" target="_top" xlink:title=" ">
<polygon fill="none" stroke="black" points="218.5,-66.5 218.5,-85.5 347.5,-85.5 347.5,-66.5 218.5,-66.5"/>
<text text-anchor="middle" x="283" y="-73.5" font-family="Helvetica,sans-Serif" font-size="10.00">MandelbrotApp::initVulkan</text>
</a>
</g>
</g>
<!-- Node2&#45;&gt;Node3 -->
<g id="edge2" class="edge">
<title>Node2&#45;&gt;Node3</title>
<path fill="none" stroke="midnightblue" d="M381.72,-64.25C370.22,-65.63 358.59,-67.03 347.55,-68.36"/>
<polygon fill="midnightblue" stroke="midnightblue" points="382.26,-67.71 391.77,-63.04 381.43,-60.76 382.26,-67.71"/>
</g>
<!-- Node6 -->
<g id="node6" class="node">
<title>Node6</title>
<g id="a_node6"><a xlink:href="class_mandelbrot_app.html#a733620a6533fb25a6ffa309886b74904" target="_top" xlink:title=" ">
<polygon fill="none" stroke="black" points="210,-17 210,-47 356,-47 356,-17 210,-17"/>
<text text-anchor="start" x="218" y="-35" font-family="Helvetica,sans-Serif" font-size="10.00">MandelbrotApp::recreateSwap</text>
<text text-anchor="middle" x="283" y="-24" font-family="Helvetica,sans-Serif" font-size="10.00">Chain</text>
</a>
</g>
</g>
<!-- Node2&#45;&gt;Node6 -->
<g id="edge5" class="edge">
<title>Node2&#45;&gt;Node6</title>
<path fill="none" stroke="midnightblue" d="M381.81,-43.76C373.27,-42.73 364.66,-41.7 356.28,-40.69"/>
<polygon fill="midnightblue" stroke="midnightblue" points="381.43,-47.24 391.77,-44.96 382.26,-40.29 381.43,-47.24"/>
</g>
<!-- Node4 -->
<g id="node4" class="node">
<title>Node4</title>
<g id="a_node4"><a xlink:href="class_mandelbrot_app.html#a2cd742dc1400d3cf3e4ed782976fda5f" target="_top" xlink:title=" ">
<polygon fill="none" stroke="black" points="74,-66.5 74,-85.5 174,-85.5 174,-66.5 74,-66.5"/>
<text text-anchor="middle" x="124" y="-73.5" font-family="Helvetica,sans-Serif" font-size="10.00">MandelbrotApp::run</text>
</a>
</g>
</g>
<!-- Node3&#45;&gt;Node4 -->
<g id="edge3" class="edge">
<title>Node3&#45;&gt;Node4</title>
<path fill="none" stroke="midnightblue" d="M208.13,-76C196.68,-76 185.09,-76 174.35,-76"/>
<polygon fill="midnightblue" stroke="midnightblue" points="208.14,-79.5 218.14,-76 208.14,-72.5 208.14,-79.5"/>
</g>
<!-- Node5 -->
<g id="node5" class="node">
<title>Node5</title>
<g id="a_node5"><a xlink:href="vulkan__voxel__rasterizer__2_8cpp.html#ae66f6b31b5ad750f1fe042a706a4e3d4" target="_top" xlink:title=" ">
<polygon fill="none" stroke="black" points="0,-66.5 0,-85.5 38,-85.5 38,-66.5 0,-66.5"/>
<text text-anchor="middle" x="19" y="-73.5" font-family="Helvetica,sans-Serif" font-size="10.00">main</text>
</a>
</g>
</g>
<!-- Node4&#45;&gt;Node5 -->
<g id="edge4" class="edge">
<title>Node4&#45;&gt;Node5</title>
<path fill="none" stroke="midnightblue" d="M63.85,-76C54.65,-76 45.78,-76 38.46,-76"/>
<polygon fill="midnightblue" stroke="midnightblue" points="63.91,-79.5 73.91,-76 63.91,-72.5 63.91,-79.5"/>
</g>
</g>
</svg>
