<?xml version="1.0" encoding="UTF-8" standalone="no"?>
<!DOCTYPE svg PUBLIC "-//W3C//DTD SVG 1.1//EN"
 "http://www.w3.org/Graphics/SVG/1.1/DTD/svg11.dtd">
<!-- Generated by graphviz version 3.0.0 (20220413.0106)
 -->
<!-- Title: DescriptorPool Pages: 1 -->
<svg width="171pt" height="332pt"
 viewBox="0.00 0.00 171.00 332.00" xmlns="http://www.w3.org/2000/svg" xmlns:xlink="http://www.w3.org/1999/xlink">
<g id="graph0" class="graph" transform="scale(1 1) rotate(0) translate(4 328)">
<title>DescriptorPool</title>
<!-- Node1 -->
<g id="node1" class="node">
<title>Node1</title>
<g id="a_node1"><a xlink:title=" ">
<polygon fill="#bfbfbf" stroke="black" points="18,-0.5 18,-90.5 118,-90.5 118,-0.5 18,-0.5"/>
<text text-anchor="middle" x="68" y="-78.5" font-family="Helvetica,sans-Serif" font-size="10.00">DescriptorPool</text>
<polyline fill="none" stroke="black" points="18,-71.5 118,-71.5 "/>
<text text-anchor="start" x="26" y="-59.5" font-family="Helvetica,sans-Serif" font-size="10.00">&#45; device</text>
<polyline fill="none" stroke="black" points="18,-52.5 118,-52.5 "/>
<text text-anchor="start" x="26" y="-40.5" font-family="Helvetica,sans-Serif" font-size="10.00">+ reset()</text>
<text text-anchor="start" x="26" y="-29.5" font-family="Helvetica,sans-Serif" font-size="10.00">+ getDevice()</text>
<text text-anchor="start" x="26" y="-18.5" font-family="Helvetica,sans-Serif" font-size="10.00">+ ~DescriptorPool()</text>
<text text-anchor="start" x="26" y="-7.5" font-family="Helvetica,sans-Serif" font-size="10.00">+ create()</text>
</a>
</g>
</g>
<!-- Node2 -->
<g id="node2" class="node">
<title>Node2</title>
<g id="a_node2"><a xlink:href="class_vulkan_class.html" target="_top" xlink:title=" ">
<polygon fill="none" stroke="black" points="0,-128.5 0,-207.5 136,-207.5 136,-128.5 0,-128.5"/>
<text text-anchor="start" x="8" y="-195.5" font-family="Helvetica,sans-Serif" font-size="10.00">VulkanClass&lt; VkDescriptor</text>
<text text-anchor="middle" x="68" y="-184.5" font-family="Helvetica,sans-Serif" font-size="10.00">Pool &gt;</text>
<polyline fill="none" stroke="black" points="0,-177.5 136,-177.5 "/>
<text text-anchor="start" x="8" y="-165.5" font-family="Helvetica,sans-Serif" font-size="10.00"># handle</text>
<polyline fill="none" stroke="black" points="0,-158.5 136,-158.5 "/>
<text text-anchor="start" x="8" y="-146.5" font-family="Helvetica,sans-Serif" font-size="10.00">+ getHandle()</text>
<text text-anchor="start" x="8" y="-135.5" font-family="Helvetica,sans-Serif" font-size="10.00">+ getHandlePtr()</text>
</a>
</g>
</g>
<!-- Node2&#45;&gt;Node1 -->
<g id="edge1" class="edge">
<title>Node2&#45;&gt;Node1</title>
<path fill="none" stroke="midnightblue" d="M68,-118.14C68,-109.05 68,-99.6 68,-90.66"/>
<polygon fill="none" stroke="midnightblue" points="64.5,-118.21 68,-128.21 71.5,-118.21 64.5,-118.21"/>
</g>
<!-- Node3 -->
<g id="node3" class="node">
<title>Node3</title>
<g id="a_node3"><a xlink:href="class_vulkan_class.html" target="_top" xlink:title=" ">
<polygon fill="none" stroke="black" points="21,-255.5 21,-323.5 115,-323.5 115,-255.5 21,-255.5"/>
<text text-anchor="middle" x="68" y="-311.5" font-family="Helvetica,sans-Serif" font-size="10.00">VulkanClass&lt; T &gt;</text>
<polyline fill="none" stroke="black" points="21,-304.5 115,-304.5 "/>
<text text-anchor="start" x="29" y="-292.5" font-family="Helvetica,sans-Serif" font-size="10.00"># handle</text>
<polyline fill="none" stroke="black" points="21,-285.5 115,-285.5 "/>
<text text-anchor="start" x="29" y="-273.5" font-family="Helvetica,sans-Serif" font-size="10.00">+ getHandle()</text>
<text text-anchor="start" x="29" y="-262.5" font-family="Helvetica,sans-Serif" font-size="10.00">+ getHandlePtr()</text>
</a>
</g>
</g>
<!-- Node3&#45;&gt;Node2 -->
<g id="edge2" class="edge">
<title>Node3&#45;&gt;Node2</title>
<path fill="none" stroke="orange" d="M68,-245.18C68,-232.89 68,-219.59 68,-207.6"/>
<polygon fill="orange" stroke="orange" points="64.5,-245.21 68,-255.21 71.5,-245.21 64.5,-245.21"/>
<text text-anchor="middle" x="115.5" y="-229" font-family="Helvetica,sans-Serif" font-size="10.00"> &lt; VkDescriptorPool &gt;</text>
</g>
</g>
</svg>
