<?xml version="1.0" encoding="UTF-8" standalone="no"?>
<!DOCTYPE svg PUBLIC "-//W3C//DTD SVG 1.1//EN"
 "http://www.w3.org/Graphics/SVG/1.1/DTD/svg11.dtd">
<!-- Generated by graphviz version 2.50.0 (20220203.2022)
 -->
<!-- Title: RenderManager::resizeSwapChain Pages: 1 -->
<svg width="1044pt" height="603pt"
 viewBox="0.00 0.00 1044.00 603.00" xmlns="http://www.w3.org/2000/svg" xmlns:xlink="http://www.w3.org/1999/xlink">
<g id="graph0" class="graph" transform="scale(1 1) rotate(0) translate(4 599)">
<title>RenderManager::resizeSwapChain</title>
<!-- Node1 -->
<g id="node1" class="node">
<title>Node1</title>
<g id="a_node1"><a xlink:title=" ">
<polygon fill="#bfbfbf" stroke="black" points="0,-273 0,-303 140,-303 140,-273 0,-273"/>
<text text-anchor="start" x="8" y="-291" font-family="Helvetica,sans-Serif" font-size="10.00">RenderManager::resizeSwap</text>
<text text-anchor="middle" x="70" y="-280" font-family="Helvetica,sans-Serif" font-size="10.00">Chain</text>
</a>
</g>
</g>
<!-- Node2 -->
<g id="node2" class="node">
<title>Node2</title>
<g id="a_node2"><a xlink:href="class_render_manager.html#a3e54c122912e1b713b2f6357cdc370fb" target="_top" xlink:title=" ">
<polygon fill="none" stroke="black" points="176,-273 176,-303 325,-303 325,-273 176,-273"/>
<text text-anchor="start" x="184" y="-291" font-family="Helvetica,sans-Serif" font-size="10.00">RenderManager::recreateSwap</text>
<text text-anchor="middle" x="250.5" y="-280" font-family="Helvetica,sans-Serif" font-size="10.00">Chain</text>
</a>
</g>
</g>
<!-- Node1&#45;&gt;Node2 -->
<g id="edge1" class="edge">
<title>Node1&#45;&gt;Node2</title>
<path fill="none" stroke="midnightblue" d="M140.01,-288C148.47,-288 157.19,-288 165.84,-288"/>
<polygon fill="midnightblue" stroke="midnightblue" points="165.94,-291.5 175.94,-288 165.94,-284.5 165.94,-291.5"/>
</g>
<!-- Node3 -->
<g id="node3" class="node">
<title>Node3</title>
<g id="a_node3"><a xlink:href="class_render_manager.html#aa04e5bcc41eaf66bd29d811e39d71c3c" target="_top" xlink:title=" ">
<polygon fill="none" stroke="black" points="372.5,-494 372.5,-524 519.5,-524 519.5,-494 372.5,-494"/>
<text text-anchor="start" x="380.5" y="-512" font-family="Helvetica,sans-Serif" font-size="10.00">RenderManager::createDefault</text>
<text text-anchor="middle" x="446" y="-501" font-family="Helvetica,sans-Serif" font-size="10.00">Material</text>
</a>
</g>
</g>
<!-- Node2&#45;&gt;Node3 -->
<g id="edge2" class="edge">
<title>Node2&#45;&gt;Node3</title>
<path fill="none" stroke="midnightblue" d="M263.67,-303.31C283.57,-328.19 324.49,-378.75 361,-420 381.39,-443.04 405.59,-468.5 422.77,-486.26"/>
<polygon fill="midnightblue" stroke="midnightblue" points="420.65,-489.1 430.13,-493.84 425.68,-484.23 420.65,-489.1"/>
</g>
<!-- Node10 -->
<g id="node10" class="node">
<title>Node10</title>
<g id="a_node10"><a xlink:href="class_render_manager.html#aa6e12fa2f425700718eec18fb52a1ef8" target="_top" xlink:title=" ">
<polygon fill="none" stroke="black" points="374,-295 374,-325 518,-325 518,-295 374,-295"/>
<text text-anchor="start" x="382" y="-313" font-family="Helvetica,sans-Serif" font-size="10.00">RenderManager::createFrame</text>
<text text-anchor="middle" x="446" y="-302" font-family="Helvetica,sans-Serif" font-size="10.00">Buffer</text>
</a>
</g>
</g>
<!-- Node2&#45;&gt;Node10 -->
<g id="edge10" class="edge">
<title>Node2&#45;&gt;Node10</title>
<path fill="none" stroke="midnightblue" d="M325.21,-296.38C337.76,-297.81 350.87,-299.3 363.61,-300.75"/>
<polygon fill="midnightblue" stroke="midnightblue" points="363.4,-304.25 373.73,-301.9 364.19,-297.29 363.4,-304.25"/>
</g>
<!-- Node12 -->
<g id="node12" class="node">
<title>Node12</title>
<g id="a_node12"><a xlink:href="class_render_manager.html#a45a6fffe5f74da37695476732b53d33b" target="_top" xlink:title=" ">
<polygon fill="none" stroke="black" points="377.5,-380 377.5,-410 514.5,-410 514.5,-380 377.5,-380"/>
<text text-anchor="start" x="385.5" y="-398" font-family="Helvetica,sans-Serif" font-size="10.00">RenderManager::createPost</text>
<text text-anchor="middle" x="446" y="-387" font-family="Helvetica,sans-Serif" font-size="10.00">ProcessingPipelines</text>
</a>
</g>
</g>
<!-- Node2&#45;&gt;Node12 -->
<g id="edge12" class="edge">
<title>Node2&#45;&gt;Node12</title>
<path fill="none" stroke="midnightblue" d="M278.81,-303.1C312.81,-321.9 370.98,-354.07 408.7,-374.93"/>
<polygon fill="midnightblue" stroke="midnightblue" points="407.38,-378.2 417.83,-379.97 410.77,-372.07 407.38,-378.2"/>
</g>
<!-- Node20 -->
<g id="node20" class="node">
<title>Node20</title>
<g id="a_node20"><a xlink:href="class_render_manager.html#a47b4c7259640bcfc476a5cd8c129c2b8" target="_top" xlink:title=" ">
<polygon fill="none" stroke="black" points="361,-256.5 361,-275.5 531,-275.5 531,-256.5 361,-256.5"/>
<text text-anchor="middle" x="446" y="-263.5" font-family="Helvetica,sans-Serif" font-size="10.00">RenderManager::createRenderPass</text>
</a>
</g>
</g>
<!-- Node2&#45;&gt;Node20 -->
<g id="edge23" class="edge">
<title>Node2&#45;&gt;Node20</title>
<path fill="none" stroke="midnightblue" d="M325.21,-279.62C333.65,-278.66 342.34,-277.67 351.01,-276.69"/>
<polygon fill="midnightblue" stroke="midnightblue" points="351.61,-280.14 361.15,-275.53 350.81,-273.19 351.61,-280.14"/>
</g>
<!-- Node22 -->
<g id="node22" class="node">
<title>Node22</title>
<g id="a_node22"><a xlink:href="class_render_manager.html#ab9be550fe988ee994b0cba1b46ef2ded" target="_top" xlink:title=" ">
<polygon fill="none" stroke="black" points="375.5,-147 375.5,-177 516.5,-177 516.5,-147 375.5,-147"/>
<text text-anchor="start" x="383.5" y="-165" font-family="Helvetica,sans-Serif" font-size="10.00">RenderManager::createSwap</text>
<text text-anchor="middle" x="446" y="-154" font-family="Helvetica,sans-Serif" font-size="10.00">Chain</text>
</a>
</g>
</g>
<!-- Node2&#45;&gt;Node22 -->
<g id="edge25" class="edge">
<title>Node2&#45;&gt;Node22</title>
<path fill="none" stroke="midnightblue" d="M274.84,-272.8C309.36,-250.32 374.14,-208.14 413.05,-182.81"/>
<polygon fill="midnightblue" stroke="midnightblue" points="415.41,-185.45 421.88,-177.06 411.59,-179.58 415.41,-185.45"/>
</g>
<!-- Node28 -->
<g id="node28" class="node">
<title>Node28</title>
<g id="a_node28"><a xlink:href="class_render_manager.html#ad684dc770c22b8ee45875407c8591a00" target="_top" xlink:title=" ">
<polygon fill="none" stroke="black" points="365.5,-54.5 365.5,-73.5 526.5,-73.5 526.5,-54.5 365.5,-54.5"/>
<text text-anchor="middle" x="446" y="-61.5" font-family="Helvetica,sans-Serif" font-size="10.00">RenderManager::createUIObjects</text>
</a>
</g>
</g>
<!-- Node2&#45;&gt;Node28 -->
<g id="edge32" class="edge">
<title>Node2&#45;&gt;Node28</title>
<path fill="none" stroke="midnightblue" d="M261.07,-272.7C278.97,-244.6 319.49,-183.49 361,-138 380.92,-116.16 406.83,-94.15 424.57,-79.88"/>
<polygon fill="midnightblue" stroke="midnightblue" points="426.91,-82.49 432.56,-73.53 422.56,-77.01 426.91,-82.49"/>
</g>
<!-- Node4 -->
<g id="node4" class="node">
<title>Node4</title>
<g id="a_node4"><a xlink:href="materialparameters_8cpp.html#a59fb9231365864f141c11f1aa4d67f6f" target="_top" xlink:title=" ">
<polygon fill="none" stroke="black" points="594,-575.5 594,-594.5 660,-594.5 660,-575.5 594,-575.5"/>
<text text-anchor="middle" x="627" y="-582.5" font-family="Helvetica,sans-Serif" font-size="10.00">buildLayout</text>
</a>
</g>
</g>
<!-- Node3&#45;&gt;Node4 -->
<g id="edge3" class="edge">
<title>Node3&#45;&gt;Node4</title>
<path fill="none" stroke="midnightblue" d="M476.11,-524.16C500.12,-536.33 535.27,-553.42 567,-566 572.51,-568.19 578.38,-570.31 584.2,-572.3"/>
<polygon fill="midnightblue" stroke="midnightblue" points="583.29,-575.68 593.88,-575.5 585.49,-569.04 583.29,-575.68"/>
</g>
<!-- Node6 -->
<g id="node6" class="node">
<title>Node6</title>
<g id="a_node6"><a xlink:href="class_master_material.html#a7daa9481348380046f68f55f9738ea61" target="_top" xlink:title=" ">
<polygon fill="none" stroke="black" points="570.5,-537.5 570.5,-556.5 683.5,-556.5 683.5,-537.5 570.5,-537.5"/>
<text text-anchor="middle" x="627" y="-544.5" font-family="Helvetica,sans-Serif" font-size="10.00">MasterMaterial::create</text>
</a>
</g>
</g>
<!-- Node3&#45;&gt;Node6 -->
<g id="edge5" class="edge">
<title>Node3&#45;&gt;Node6</title>
<path fill="none" stroke="midnightblue" d="M517.75,-524.02C535.47,-527.78 554.22,-531.76 571.04,-535.33"/>
<polygon fill="midnightblue" stroke="midnightblue" points="570.74,-538.85 581.25,-537.5 572.19,-532 570.74,-538.85"/>
</g>
<!-- Node7 -->
<g id="node7" class="node">
<title>Node7</title>
<g id="a_node7"><a xlink:href="class_vertex_shader.html#a5210d098175734531886d9e5b1741f8e" target="_top" xlink:title=" ">
<polygon fill="none" stroke="black" points="730.5,-499.5 730.5,-518.5 837.5,-518.5 837.5,-499.5 730.5,-499.5"/>
<text text-anchor="middle" x="784" y="-506.5" font-family="Helvetica,sans-Serif" font-size="10.00">VertexShader::create</text>
</a>
</g>
</g>
<!-- Node3&#45;&gt;Node7 -->
<g id="edge6" class="edge">
<title>Node3&#45;&gt;Node7</title>
<path fill="none" stroke="midnightblue" d="M519.91,-509C579.6,-509 663.16,-509 719.99,-509"/>
<polygon fill="midnightblue" stroke="midnightblue" points="720.27,-512.5 730.27,-509 720.27,-505.5 720.27,-512.5"/>
</g>
<!-- Node9 -->
<g id="node9" class="node">
<title>Node9</title>
<g id="a_node9"><a xlink:href="class_fragment_shader.html#a1221d3fb805310bb64a01e032e794d0b" target="_top" xlink:title=" ">
<polygon fill="none" stroke="black" points="567,-461.5 567,-480.5 687,-480.5 687,-461.5 567,-461.5"/>
<text text-anchor="middle" x="627" y="-468.5" font-family="Helvetica,sans-Serif" font-size="10.00">FragmentShader::create</text>
</a>
</g>
</g>
<!-- Node3&#45;&gt;Node9 -->
<g id="edge8" class="edge">
<title>Node3&#45;&gt;Node9</title>
<path fill="none" stroke="midnightblue" d="M517.75,-493.98C535.47,-490.22 554.22,-486.24 571.04,-482.67"/>
<polygon fill="midnightblue" stroke="midnightblue" points="572.19,-486 581.25,-480.5 570.74,-479.15 572.19,-486"/>
</g>
<!-- Node5 -->
<g id="node5" class="node">
<title>Node5</title>
<g id="a_node5"><a xlink:href="materialparameters_8cpp.html#a6d0d74203f8507f343dd66edcc0d472f" target="_top" xlink:title=" ">
<polygon fill="none" stroke="black" points="747.5,-575.5 747.5,-594.5 820.5,-594.5 820.5,-575.5 747.5,-575.5"/>
<text text-anchor="middle" x="784" y="-582.5" font-family="Helvetica,sans-Serif" font-size="10.00">buildProperty</text>
</a>
</g>
</g>
<!-- Node4&#45;&gt;Node5 -->
<g id="edge4" class="edge">
<title>Node4&#45;&gt;Node5</title>
<path fill="none" stroke="midnightblue" d="M660.12,-585C682.38,-585 712.37,-585 737.15,-585"/>
<polygon fill="midnightblue" stroke="midnightblue" points="737.41,-588.5 747.41,-585 737.41,-581.5 737.41,-588.5"/>
</g>
<!-- Node8 -->
<g id="node8" class="node">
<title>Node8</title>
<g id="a_node8"><a xlink:href="class_utils.html#a7e7d47e8b017fe7d4ae8802c7b0690cb" target="_top" xlink:title=" ">
<polygon fill="none" stroke="black" points="920.5,-483.5 920.5,-502.5 996.5,-502.5 996.5,-483.5 920.5,-483.5"/>
<text text-anchor="middle" x="958.5" y="-490.5" font-family="Helvetica,sans-Serif" font-size="10.00">Utils::readFile</text>
</a>
</g>
</g>
<!-- Node7&#45;&gt;Node8 -->
<g id="edge7" class="edge">
<title>Node7&#45;&gt;Node8</title>
<path fill="none" stroke="midnightblue" d="M837.69,-504.11C860.89,-501.96 887.93,-499.45 910.44,-497.37"/>
<polygon fill="midnightblue" stroke="midnightblue" points="910.8,-500.85 920.43,-496.44 910.15,-493.88 910.8,-500.85"/>
</g>
<!-- Node9&#45;&gt;Node8 -->
<g id="edge9" class="edge">
<title>Node9&#45;&gt;Node8</title>
<path fill="none" stroke="midnightblue" d="M687.29,-474.96C751.09,-479.22 851.28,-485.91 910.07,-489.83"/>
<polygon fill="midnightblue" stroke="midnightblue" points="909.98,-493.33 920.19,-490.51 910.45,-486.35 909.98,-493.33"/>
</g>
<!-- Node11 -->
<g id="node11" class="node">
<title>Node11</title>
<g id="a_node11"><a xlink:href="class_frame_buffer.html#a3b861048fc9c1861448d4dee7a6b9b69" target="_top" xlink:title=" ">
<polygon fill="none" stroke="black" points="576.5,-297.5 576.5,-316.5 677.5,-316.5 677.5,-297.5 576.5,-297.5"/>
<text text-anchor="middle" x="627" y="-304.5" font-family="Helvetica,sans-Serif" font-size="10.00">FrameBuffer::create</text>
</a>
</g>
</g>
<!-- Node10&#45;&gt;Node11 -->
<g id="edge11" class="edge">
<title>Node10&#45;&gt;Node11</title>
<path fill="none" stroke="midnightblue" d="M518,-308.81C533.86,-308.54 550.54,-308.26 565.91,-308.01"/>
<polygon fill="midnightblue" stroke="midnightblue" points="566.37,-311.5 576.31,-307.83 566.26,-304.5 566.37,-311.5"/>
</g>
<!-- Node12&#45;&gt;Node9 -->
<g id="edge21" class="edge">
<title>Node12&#45;&gt;Node9</title>
<path fill="none" stroke="midnightblue" d="M476.11,-410.16C500.12,-422.33 535.27,-439.42 567,-452 572.45,-454.16 578.25,-456.26 584,-458.23"/>
<polygon fill="midnightblue" stroke="midnightblue" points="582.98,-461.58 593.58,-461.41 585.19,-454.93 582.98,-461.58"/>
</g>
<!-- Node13 -->
<g id="node13" class="node">
<title>Node13</title>
<g id="a_node13"><a xlink:href="class_uniform_buffer.html#a1e1a7c734eb7243682f2dfa7e964ee58" target="_top" xlink:title=" ">
<polygon fill="none" stroke="black" points="573,-385.5 573,-404.5 681,-404.5 681,-385.5 573,-385.5"/>
<text text-anchor="middle" x="627" y="-392.5" font-family="Helvetica,sans-Serif" font-size="10.00">UniformBuffer::create</text>
</a>
</g>
</g>
<!-- Node12&#45;&gt;Node13 -->
<g id="edge13" class="edge">
<title>Node12&#45;&gt;Node13</title>
<path fill="none" stroke="midnightblue" d="M514.67,-395C530.43,-395 547.14,-395 562.7,-395"/>
<polygon fill="midnightblue" stroke="midnightblue" points="562.74,-398.5 572.74,-395 562.74,-391.5 562.74,-398.5"/>
</g>
<!-- Node15 -->
<g id="node15" class="node">
<title>Node15</title>
<g id="a_node15"><a xlink:href="class_shading_pipeline.html#a6cc9ad0f6a6b61568281b0f80e630ff1" target="_top" xlink:title=" ">
<polygon fill="none" stroke="black" points="568,-423.5 568,-442.5 686,-442.5 686,-423.5 568,-423.5"/>
<text text-anchor="middle" x="627" y="-430.5" font-family="Helvetica,sans-Serif" font-size="10.00">ShadingPipeline::create</text>
</a>
</g>
</g>
<!-- Node12&#45;&gt;Node15 -->
<g id="edge16" class="edge">
<title>Node12&#45;&gt;Node15</title>
<path fill="none" stroke="midnightblue" d="M514.67,-409.37C533.21,-413.3 553.08,-417.52 570.83,-421.29"/>
<polygon fill="midnightblue" stroke="midnightblue" points="570.5,-424.79 581,-423.45 571.95,-417.95 570.5,-424.79"/>
</g>
<!-- Node19 -->
<g id="node19" class="node">
<title>Node19</title>
<g id="a_node19"><a xlink:href="class_descriptor_set_layout.html#a1a2b657df46e6453f7a7a3d7863103c2" target="_top" xlink:title=" ">
<polygon fill="none" stroke="black" points="574.5,-336 574.5,-366 679.5,-366 679.5,-336 574.5,-336"/>
<text text-anchor="start" x="582.5" y="-354" font-family="Helvetica,sans-Serif" font-size="10.00">DescriptorSetLayout</text>
<text text-anchor="middle" x="627" y="-343" font-family="Helvetica,sans-Serif" font-size="10.00">::create</text>
</a>
</g>
</g>
<!-- Node12&#45;&gt;Node19 -->
<g id="edge22" class="edge">
<title>Node12&#45;&gt;Node19</title>
<path fill="none" stroke="midnightblue" d="M508.1,-379.98C526.3,-375.51 546.25,-370.6 564.48,-366.12"/>
<polygon fill="midnightblue" stroke="midnightblue" points="565.53,-369.47 574.41,-363.68 563.86,-362.67 565.53,-369.47"/>
</g>
<!-- Node14 -->
<g id="node14" class="node">
<title>Node14</title>
<g id="a_node14"><a xlink:href="class_buffer.html#a04bbfbb11daccc5656c698c63214aefc" target="_top" xlink:title=" ">
<polygon fill="none" stroke="black" points="747,-329.5 747,-348.5 821,-348.5 821,-329.5 747,-329.5"/>
<text text-anchor="middle" x="784" y="-336.5" font-family="Helvetica,sans-Serif" font-size="10.00">Buffer::create</text>
</a>
</g>
</g>
<!-- Node13&#45;&gt;Node14 -->
<g id="edge14" class="edge">
<title>Node13&#45;&gt;Node14</title>
<path fill="none" stroke="midnightblue" d="M658.73,-385.46C667.87,-382.53 677.87,-379.23 687,-376 707.98,-368.58 731.29,-359.62 749.68,-352.37"/>
<polygon fill="midnightblue" stroke="midnightblue" points="751.06,-355.59 759.07,-348.65 748.49,-349.08 751.06,-355.59"/>
</g>
<!-- Node14&#45;&gt;Node14 -->
<g id="edge15" class="edge">
<title>Node14&#45;&gt;Node14</title>
<path fill="none" stroke="midnightblue" d="M759.96,-348.76C748.26,-357.57 756.27,-367 784,-367 802.2,-367 811.9,-362.94 813.12,-357.65"/>
<polygon fill="midnightblue" stroke="midnightblue" points="816.04,-355.71 808.04,-348.76 809.96,-359.18 816.04,-355.71"/>
</g>
<!-- Node15&#45;&gt;Node7 -->
<g id="edge20" class="edge">
<title>Node15&#45;&gt;Node7</title>
<path fill="none" stroke="midnightblue" d="M662.19,-442.57C670.45,-445.28 679.15,-448.46 687,-452 713.42,-463.92 741.73,-481.36 760.71,-493.81"/>
<polygon fill="midnightblue" stroke="midnightblue" points="758.96,-496.85 769.22,-499.47 762.84,-491.02 758.96,-496.85"/>
</g>
<!-- Node16 -->
<g id="node16" class="node">
<title>Node16</title>
<g id="a_node16"><a xlink:href="class_graphics_pipeline.html#a87f0117ca1a2040cf373963612f80965" target="_top" xlink:title=" ">
<polygon fill="none" stroke="black" points="723,-385.5 723,-404.5 845,-404.5 845,-385.5 723,-385.5"/>
<text text-anchor="middle" x="784" y="-392.5" font-family="Helvetica,sans-Serif" font-size="10.00">GraphicsPipeline::create</text>
</a>
</g>
</g>
<!-- Node15&#45;&gt;Node16 -->
<g id="edge17" class="edge">
<title>Node15&#45;&gt;Node16</title>
<path fill="none" stroke="midnightblue" d="M667.11,-423.41C687.47,-418.42 712.57,-412.27 734.19,-406.97"/>
<polygon fill="midnightblue" stroke="midnightblue" points="735.29,-410.3 744.17,-404.52 733.62,-403.5 735.29,-410.3"/>
</g>
<!-- Node17 -->
<g id="node17" class="node">
<title>Node17</title>
<g id="a_node17"><a xlink:href="class_pipeline_layout.html#a8dabc26f7798c86ce3bd4ff0419304f2" target="_top" xlink:title=" ">
<polygon fill="none" stroke="black" points="728,-423.5 728,-442.5 840,-442.5 840,-423.5 728,-423.5"/>
<text text-anchor="middle" x="784" y="-430.5" font-family="Helvetica,sans-Serif" font-size="10.00">PipelineLayout::create</text>
</a>
</g>
</g>
<!-- Node15&#45;&gt;Node17 -->
<g id="edge18" class="edge">
<title>Node15&#45;&gt;Node17</title>
<path fill="none" stroke="midnightblue" d="M686.16,-433C696.4,-433 707.13,-433 717.55,-433"/>
<polygon fill="midnightblue" stroke="midnightblue" points="717.85,-436.5 727.85,-433 717.85,-429.5 717.85,-436.5"/>
</g>
<!-- Node18 -->
<g id="node18" class="node">
<title>Node18</title>
<g id="a_node18"><a xlink:href="class_vulkan_class.html#a914c142e905262efbd473aeb5bdfb0e8" target="_top" xlink:title=" ">
<polygon fill="none" stroke="black" points="881,-418 881,-448 1036,-448 1036,-418 881,-418"/>
<text text-anchor="start" x="889" y="-436" font-family="Helvetica,sans-Serif" font-size="10.00">VulkanClass&lt; VkPipelineLayout</text>
<text text-anchor="middle" x="958.5" y="-425" font-family="Helvetica,sans-Serif" font-size="10.00"> &gt;::getHandle</text>
</a>
</g>
</g>
<!-- Node17&#45;&gt;Node18 -->
<g id="edge19" class="edge">
<title>Node17&#45;&gt;Node18</title>
<path fill="none" stroke="midnightblue" d="M840.05,-433C849.92,-433 860.41,-433 870.91,-433"/>
<polygon fill="midnightblue" stroke="midnightblue" points="870.96,-436.5 880.96,-433 870.96,-429.5 870.96,-436.5"/>
</g>
<!-- Node21 -->
<g id="node21" class="node">
<title>Node21</title>
<g id="a_node21"><a xlink:href="class_render_pass.html#a7192ec68626bea374e5003f022dfb0a6" target="_top" xlink:title=" ">
<polygon fill="none" stroke="black" points="576.5,-259.5 576.5,-278.5 677.5,-278.5 677.5,-259.5 576.5,-259.5"/>
<text text-anchor="middle" x="627" y="-266.5" font-family="Helvetica,sans-Serif" font-size="10.00">RenderPass::create</text>
</a>
</g>
</g>
<!-- Node20&#45;&gt;Node21 -->
<g id="edge24" class="edge">
<title>Node20&#45;&gt;Node21</title>
<path fill="none" stroke="midnightblue" d="M531.26,-267.41C543.06,-267.61 554.99,-267.81 566.21,-268"/>
<polygon fill="midnightblue" stroke="midnightblue" points="566.23,-271.5 576.29,-268.17 566.35,-264.5 566.23,-271.5"/>
</g>
<!-- Node23 -->
<g id="node23" class="node">
<title>Node23</title>
<g id="a_node23"><a xlink:href="class_framebuffer_selector.html#aaeb567a08ff24b698ee8cc569980c937" target="_top" xlink:title=" ">
<polygon fill="none" stroke="black" points="575,-210 575,-240 679,-240 679,-210 575,-210"/>
<text text-anchor="start" x="583" y="-228" font-family="Helvetica,sans-Serif" font-size="10.00">FramebufferSelector</text>
<text text-anchor="middle" x="627" y="-217" font-family="Helvetica,sans-Serif" font-size="10.00">::create</text>
</a>
</g>
</g>
<!-- Node22&#45;&gt;Node23 -->
<g id="edge26" class="edge">
<title>Node22&#45;&gt;Node23</title>
<path fill="none" stroke="midnightblue" d="M489.87,-177.09C515.02,-185.94 546.98,-197.19 573.62,-206.56"/>
<polygon fill="midnightblue" stroke="midnightblue" points="572.57,-209.91 583.17,-209.92 574.89,-203.3 572.57,-209.91"/>
</g>
<!-- Node24 -->
<g id="node24" class="node">
<title>Node24</title>
<g id="a_node24"><a xlink:href="class_image.html#a729f597dc28bd5261b1860643ed9513f" target="_top" xlink:title=" ">
<polygon fill="none" stroke="black" points="746.5,-193.5 746.5,-212.5 821.5,-212.5 821.5,-193.5 746.5,-193.5"/>
<text text-anchor="middle" x="784" y="-200.5" font-family="Helvetica,sans-Serif" font-size="10.00">Image::create</text>
</a>
</g>
</g>
<!-- Node22&#45;&gt;Node24 -->
<g id="edge29" class="edge">
<title>Node22&#45;&gt;Node24</title>
<path fill="none" stroke="midnightblue" d="M516.62,-170.5C582.31,-178.51 678.98,-190.31 736.01,-197.27"/>
<polygon fill="midnightblue" stroke="midnightblue" points="735.83,-200.77 746.18,-198.51 736.68,-193.82 735.83,-200.77"/>
</g>
<!-- Node25 -->
<g id="node25" class="node">
<title>Node25</title>
<g id="a_node25"><a xlink:href="class_swap_chain.html#ad6e69feb47cd7d9016c468d2fe01f8af" target="_top" xlink:title=" ">
<polygon fill="none" stroke="black" points="578,-133.5 578,-152.5 676,-152.5 676,-133.5 578,-133.5"/>
<text text-anchor="middle" x="627" y="-140.5" font-family="Helvetica,sans-Serif" font-size="10.00">SwapChain::create</text>
</a>
</g>
</g>
<!-- Node22&#45;&gt;Node25 -->
<g id="edge28" class="edge">
<title>Node22&#45;&gt;Node25</title>
<path fill="none" stroke="midnightblue" d="M516.72,-154.6C533.47,-152.82 551.19,-150.94 567.38,-149.22"/>
<polygon fill="midnightblue" stroke="midnightblue" points="568.19,-152.66 577.77,-148.12 567.45,-145.69 568.19,-152.66"/>
</g>
<!-- Node26 -->
<g id="node26" class="node">
<title>Node26</title>
<g id="a_node26"><a xlink:href="class_image_view.html#a49f8e14c3fd61c0e19735f7f3c397f94" target="_top" xlink:title=" ">
<polygon fill="none" stroke="black" points="578.5,-95.5 578.5,-114.5 675.5,-114.5 675.5,-95.5 578.5,-95.5"/>
<text text-anchor="middle" x="627" y="-102.5" font-family="Helvetica,sans-Serif" font-size="10.00">ImageView::create</text>
</a>
</g>
</g>
<!-- Node22&#45;&gt;Node26 -->
<g id="edge30" class="edge">
<title>Node22&#45;&gt;Node26</title>
<path fill="none" stroke="midnightblue" d="M494.5,-146.87C523.19,-137.74 559.32,-126.23 586.45,-117.59"/>
<polygon fill="midnightblue" stroke="midnightblue" points="587.54,-120.92 596.01,-114.55 585.41,-114.25 587.54,-120.92"/>
</g>
<!-- Node27 -->
<g id="node27" class="node">
<title>Node27</title>
<g id="a_node27"><a xlink:href="class_utils.html#ac44035a9bc80c570cfcd56ded0dad0a5" target="_top" xlink:title=" ">
<polygon fill="none" stroke="black" points="590,-57.5 590,-76.5 664,-76.5 664,-57.5 590,-57.5"/>
<text text-anchor="middle" x="627" y="-64.5" font-family="Helvetica,sans-Serif" font-size="10.00">Utils::remove</text>
</a>
</g>
</g>
<!-- Node22&#45;&gt;Node27 -->
<g id="edge31" class="edge">
<title>Node22&#45;&gt;Node27</title>
<path fill="none" stroke="midnightblue" d="M467.32,-146.86C490.48,-130.17 529.93,-103.36 567,-86 571.69,-83.8 576.7,-81.76 581.75,-79.89"/>
<polygon fill="midnightblue" stroke="midnightblue" points="583.14,-83.11 591.43,-76.52 580.83,-76.5 583.14,-83.11"/>
</g>
<!-- Node23&#45;&gt;Node24 -->
<g id="edge27" class="edge">
<title>Node23&#45;&gt;Node24</title>
<path fill="none" stroke="midnightblue" d="M679.18,-217.74C697.55,-215.13 718.15,-212.2 736.13,-209.65"/>
<polygon fill="midnightblue" stroke="midnightblue" points="736.69,-213.11 746.1,-208.24 735.71,-206.18 736.69,-213.11"/>
</g>
<!-- Node29 -->
<g id="node29" class="node">
<title>Node29</title>
<g id="a_node29"><a xlink:href="class_u_i_renderer.html#a429d9bebea63cfce81d4179458bac829" target="_top" xlink:title=" ">
<polygon fill="none" stroke="black" points="578,-19.5 578,-38.5 676,-38.5 676,-19.5 578,-19.5"/>
<text text-anchor="middle" x="627" y="-26.5" font-family="Helvetica,sans-Serif" font-size="10.00">UIRenderer::create</text>
</a>
</g>
</g>
<!-- Node28&#45;&gt;Node29 -->
<g id="edge33" class="edge">
<title>Node28&#45;&gt;Node29</title>
<path fill="none" stroke="midnightblue" d="M495.91,-54.44C518.09,-50.1 544.5,-44.94 567.7,-40.4"/>
<polygon fill="midnightblue" stroke="midnightblue" points="568.62,-43.79 577.77,-38.43 567.28,-36.92 568.62,-43.79"/>
</g>
<!-- Node30 -->
<g id="node30" class="node">
<title>Node30</title>
<g id="a_node30"><a xlink:href="class_command_buffer.html#aa00b25bc626efb68b5dc810ea91cf41b" target="_top" xlink:title=" ">
<polygon fill="none" stroke="black" points="725,-0.5 725,-19.5 843,-19.5 843,-0.5 725,-0.5"/>
<text text-anchor="middle" x="784" y="-7.5" font-family="Helvetica,sans-Serif" font-size="10.00">CommandBuffer::create</text>
</a>
</g>
</g>
<!-- Node29&#45;&gt;Node30 -->
<g id="edge34" class="edge">
<title>Node29&#45;&gt;Node30</title>
<path fill="none" stroke="midnightblue" d="M676.19,-23.09C688.32,-21.61 701.58,-19.98 714.5,-18.4"/>
<polygon fill="midnightblue" stroke="midnightblue" points="715.25,-21.83 724.75,-17.14 714.4,-14.88 715.25,-21.83"/>
</g>
<!-- Node31 -->
<g id="node31" class="node">
<title>Node31</title>
<g id="a_node31"><a xlink:href="class_descriptor_pool.html#a190f2272d8740c7f7fe13b5b8fb8326c" target="_top" xlink:title=" ">
<polygon fill="none" stroke="black" points="728,-38.5 728,-57.5 840,-57.5 840,-38.5 728,-38.5"/>
<text text-anchor="middle" x="784" y="-45.5" font-family="Helvetica,sans-Serif" font-size="10.00">DescriptorPool::create</text>
</a>
</g>
</g>
<!-- Node29&#45;&gt;Node31 -->
<g id="edge35" class="edge">
<title>Node29&#45;&gt;Node31</title>
<path fill="none" stroke="midnightblue" d="M676.19,-34.91C689.35,-36.52 703.83,-38.3 717.77,-40"/>
<polygon fill="midnightblue" stroke="midnightblue" points="717.44,-43.49 727.79,-41.23 718.29,-36.54 717.44,-43.49"/>
</g>
</g>
</svg>
