<?xml version="1.0" encoding="UTF-8" standalone="no"?>
<!DOCTYPE svg PUBLIC "-//W3C//DTD SVG 1.1//EN"
 "http://www.w3.org/Graphics/SVG/1.1/DTD/svg11.dtd">
<!-- Generated by graphviz version 3.0.0 (20220413.0106)
 -->
<!-- Title: PhysicalDevice Pages: 1 -->
<svg width="190pt" height="354pt"
 viewBox="0.00 0.00 189.50 354.00" xmlns="http://www.w3.org/2000/svg" xmlns:xlink="http://www.w3.org/1999/xlink">
<g id="graph0" class="graph" transform="scale(1 1) rotate(0) translate(4 350)">
<title>PhysicalDevice</title>
<!-- Node1 -->
<g id="node1" class="node">
<title>Node1</title>
<g id="a_node1"><a xlink:title=" ">
<polygon fill="#bfbfbf" stroke="black" points="15.5,-0.5 15.5,-123.5 151.5,-123.5 151.5,-0.5 15.5,-0.5"/>
<text text-anchor="middle" x="83.5" y="-111.5" font-family="Helvetica,sans-Serif" font-size="10.00">PhysicalDevice</text>
<polyline fill="none" stroke="black" points="15.5,-104.5 151.5,-104.5 "/>
<text text-anchor="start" x="23.5" y="-92.5" font-family="Helvetica,sans-Serif" font-size="10.00">&#45; instance</text>
<text text-anchor="start" x="23.5" y="-81.5" font-family="Helvetica,sans-Serif" font-size="10.00">&#45; queueFamilyHandler</text>
<polyline fill="none" stroke="black" points="15.5,-74.5 151.5,-74.5 "/>
<text text-anchor="start" x="23.5" y="-62.5" font-family="Helvetica,sans-Serif" font-size="10.00">+ getQueueFamilyHandler()</text>
<text text-anchor="start" x="23.5" y="-51.5" font-family="Helvetica,sans-Serif" font-size="10.00">+ getInstance()</text>
<text text-anchor="start" x="23.5" y="-40.5" font-family="Helvetica,sans-Serif" font-size="10.00">+ hasRequiredExtensions()</text>
<text text-anchor="start" x="23.5" y="-29.5" font-family="Helvetica,sans-Serif" font-size="10.00">+ getSupportedExtensions()</text>
<text text-anchor="start" x="23.5" y="-18.5" font-family="Helvetica,sans-Serif" font-size="10.00">+ queryDeviceProperties()</text>
<text text-anchor="start" x="23.5" y="-7.5" font-family="Helvetica,sans-Serif" font-size="10.00">+ create()</text>
</a>
</g>
</g>
<!-- Node2 -->
<g id="node2" class="node">
<title>Node2</title>
<g id="a_node2"><a xlink:href="class_vulkan_class.html" target="_top" xlink:title=" ">
<polygon fill="none" stroke="black" points="0,-161.5 0,-229.5 167,-229.5 167,-161.5 0,-161.5"/>
<text text-anchor="middle" x="83.5" y="-217.5" font-family="Helvetica,sans-Serif" font-size="10.00">VulkanClass&lt; VkPhysicalDevice &gt;</text>
<polyline fill="none" stroke="black" points="0,-210.5 167,-210.5 "/>
<text text-anchor="start" x="8" y="-198.5" font-family="Helvetica,sans-Serif" font-size="10.00"># handle</text>
<polyline fill="none" stroke="black" points="0,-191.5 167,-191.5 "/>
<text text-anchor="start" x="8" y="-179.5" font-family="Helvetica,sans-Serif" font-size="10.00">+ getHandle()</text>
<text text-anchor="start" x="8" y="-168.5" font-family="Helvetica,sans-Serif" font-size="10.00">+ getHandlePtr()</text>
</a>
</g>
</g>
<!-- Node2&#45;&gt;Node1 -->
<g id="edge1" class="edge">
<title>Node2&#45;&gt;Node1</title>
<path fill="none" stroke="midnightblue" d="M83.5,-151.25C83.5,-142.39 83.5,-132.91 83.5,-123.57"/>
<polygon fill="none" stroke="midnightblue" points="80,-151.32 83.5,-161.32 87,-151.32 80,-151.32"/>
</g>
<!-- Node3 -->
<g id="node3" class="node">
<title>Node3</title>
<g id="a_node3"><a xlink:href="class_vulkan_class.html" target="_top" xlink:title=" ">
<polygon fill="none" stroke="black" points="36.5,-277.5 36.5,-345.5 130.5,-345.5 130.5,-277.5 36.5,-277.5"/>
<text text-anchor="middle" x="83.5" y="-333.5" font-family="Helvetica,sans-Serif" font-size="10.00">VulkanClass&lt; T &gt;</text>
<polyline fill="none" stroke="black" points="36.5,-326.5 130.5,-326.5 "/>
<text text-anchor="start" x="44.5" y="-314.5" font-family="Helvetica,sans-Serif" font-size="10.00"># handle</text>
<polyline fill="none" stroke="black" points="36.5,-307.5 130.5,-307.5 "/>
<text text-anchor="start" x="44.5" y="-295.5" font-family="Helvetica,sans-Serif" font-size="10.00">+ getHandle()</text>
<text text-anchor="start" x="44.5" y="-284.5" font-family="Helvetica,sans-Serif" font-size="10.00">+ getHandlePtr()</text>
</a>
</g>
</g>
<!-- Node3&#45;&gt;Node2 -->
<g id="edge2" class="edge">
<title>Node3&#45;&gt;Node2</title>
<path fill="none" stroke="orange" d="M83.5,-267.06C83.5,-254.64 83.5,-241.32 83.5,-229.62"/>
<polygon fill="orange" stroke="orange" points="80,-267.22 83.5,-277.22 87,-267.22 80,-267.22"/>
<text text-anchor="middle" x="132.5" y="-251" font-family="Helvetica,sans-Serif" font-size="10.00"> &lt; VkPhysicalDevice &gt;</text>
</g>
</g>
</svg>
