<?xml version="1.0" encoding="UTF-8" standalone="no"?>
<!DOCTYPE svg PUBLIC "-//W3C//DTD SVG 1.1//EN"
 "http://www.w3.org/Graphics/SVG/1.1/DTD/svg11.dtd">
<!-- Generated by graphviz version 2.49.3 (20211215.1918)
 -->
<!-- Title: TextureLibrary Pages: 1 -->
<svg width="123pt" height="259pt"
 viewBox="0.00 0.00 123.00 259.00" xmlns="http://www.w3.org/2000/svg" xmlns:xlink="http://www.w3.org/1999/xlink">
<g id="graph0" class="graph" transform="scale(1 1) rotate(0) translate(4 255)">
<title>TextureLibrary</title>
<!-- Node1 -->
<g id="node1" class="node">
<title>Node1</title>
<g id="a_node1"><a xlink:title=" ">
<polygon fill="#bfbfbf" stroke="black" points="12.5,-0.5 12.5,-134.5 102.5,-134.5 102.5,-0.5 12.5,-0.5"/>
<text text-anchor="middle" x="57.5" y="-122.5" font-family="Helvetica,sans-Serif" font-size="10.00">TextureLibrary</text>
<polyline fill="none" stroke="black" points="12.5,-115.5 102.5,-115.5 "/>
<text text-anchor="start" x="20.5" y="-103.5" font-family="Helvetica,sans-Serif" font-size="10.00">&#45; device</text>
<text text-anchor="start" x="20.5" y="-92.5" font-family="Helvetica,sans-Serif" font-size="10.00">&#45; renderQueue</text>
<text text-anchor="start" x="20.5" y="-81.5" font-family="Helvetica,sans-Serif" font-size="10.00">&#45; transferPool</text>
<text text-anchor="start" x="20.5" y="-70.5" font-family="Helvetica,sans-Serif" font-size="10.00">&#45; imageSampler</text>
<text text-anchor="start" x="20.5" y="-59.5" font-family="Helvetica,sans-Serif" font-size="10.00">&#45; textures</text>
<polyline fill="none" stroke="black" points="12.5,-52.5 102.5,-52.5 "/>
<text text-anchor="start" x="20.5" y="-40.5" font-family="Helvetica,sans-Serif" font-size="10.00">+ createTexture()</text>
<text text-anchor="start" x="20.5" y="-29.5" font-family="Helvetica,sans-Serif" font-size="10.00">+ getDevice()</text>
<text text-anchor="start" x="20.5" y="-18.5" font-family="Helvetica,sans-Serif" font-size="10.00">+ getSampler()</text>
<text text-anchor="start" x="20.5" y="-7.5" font-family="Helvetica,sans-Serif" font-size="10.00">+ create()</text>
</a>
</g>
</g>
<!-- Node2 -->
<g id="node2" class="node">
<title>Node2</title>
<g id="a_node2"><a xlink:href="struct_texture_quality_settings.html" target="_top" xlink:title=" ">
<polygon fill="none" stroke="black" points="0,-182.5 0,-250.5 115,-250.5 115,-182.5 0,-182.5"/>
<text text-anchor="middle" x="57.5" y="-238.5" font-family="Helvetica,sans-Serif" font-size="10.00">TextureQualitySettings</text>
<polyline fill="none" stroke="black" points="0,-231.5 115,-231.5 "/>
<text text-anchor="start" x="8" y="-219.5" font-family="Helvetica,sans-Serif" font-size="10.00">+ anisotropy</text>
<text text-anchor="start" x="8" y="-208.5" font-family="Helvetica,sans-Serif" font-size="10.00">+ mipLevels</text>
<polyline fill="none" stroke="black" points="0,-201.5 115,-201.5 "/>
<text text-anchor="middle" x="57.5" y="-189.5" font-family="Helvetica,sans-Serif" font-size="10.00"> </text>
</a>
</g>
</g>
<!-- Node2&#45;&gt;Node1 -->
<g id="edge1" class="edge">
<title>Node2&#45;&gt;Node1</title>
<path fill="none" stroke="#404040" d="M57.5,-182.14C57.5,-171.6 57.5,-159.46 57.5,-147.13"/>
<polygon fill="none" stroke="#404040" points="57.5,-146.79 53.5,-140.79 57.5,-134.79 61.5,-140.79 57.5,-146.79"/>
<text text-anchor="middle" x="77.5" y="-156" font-family="Helvetica,sans-Serif" font-size="10.00"> &#45;settings</text>
</g>
</g>
</svg>
