<?xml version="1.0" encoding="UTF-8" standalone="no"?>
<!DOCTYPE svg PUBLIC "-//W3C//DTD SVG 1.1//EN"
 "http://www.w3.org/Graphics/SVG/1.1/DTD/svg11.dtd">
<!-- Generated by graphviz version 3.0.0 (20220413.0106)
 -->
<!-- Title: ObjectList::create Pages: 1 -->
<svg width="652pt" height="66pt"
 viewBox="0.00 0.00 652.00 66.00" xmlns="http://www.w3.org/2000/svg" xmlns:xlink="http://www.w3.org/1999/xlink">
<g id="graph0" class="graph" transform="scale(1 1) rotate(0) translate(4 62)">
<title>ObjectList::create</title>
<!-- Node1 -->
<g id="node1" class="node">
<title>Node1</title>
<g id="a_node1"><a xlink:title=" ">
<polygon fill="#bfbfbf" stroke="black" points="551,-19.5 551,-38.5 644,-38.5 644,-19.5 551,-19.5"/>
<text text-anchor="middle" x="597.5" y="-26.5" font-family="Helvetica,sans-Serif" font-size="10.00">ObjectList::create</text>
</a>
</g>
</g>
<!-- Node2 -->
<g id="node2" class="node">
<title>Node2</title>
<g id="a_node2"><a xlink:href="class_vulkan_rasterizer.html#afdbc57016d139bcab3ee3b983ca77227" target="_top" xlink:title=" ">
<polygon fill="none" stroke="black" points="383,-38.5 383,-57.5 515,-57.5 515,-38.5 383,-38.5"/>
<text text-anchor="middle" x="449" y="-45.5" font-family="Helvetica,sans-Serif" font-size="10.00">VulkanRasterizer::createUI</text>
</a>
</g>
</g>
<!-- Node1&#45;&gt;Node2 -->
<g id="edge1" class="edge">
<title>Node1&#45;&gt;Node2</title>
<path fill="none" stroke="midnightblue" d="M540.89,-36.21C532.48,-37.3 523.74,-38.44 515.15,-39.55"/>
<polygon fill="midnightblue" stroke="midnightblue" points="541.48,-39.66 550.95,-34.91 540.58,-32.72 541.48,-39.66"/>
</g>
<!-- Node6 -->
<g id="node6" class="node">
<title>Node6</title>
<g id="a_node6"><a xlink:href="class_mandelbrot_app.html#a82a763408b810cdfa31c88080d97f8a1" target="_top" xlink:title=" ">
<polygon fill="none" stroke="black" points="387,-0.5 387,-19.5 511,-19.5 511,-0.5 387,-0.5"/>
<text text-anchor="middle" x="449" y="-7.5" font-family="Helvetica,sans-Serif" font-size="10.00">MandelbrotApp::createUI</text>
</a>
</g>
</g>
<!-- Node1&#45;&gt;Node6 -->
<g id="edge5" class="edge">
<title>Node1&#45;&gt;Node6</title>
<path fill="none" stroke="midnightblue" d="M540.98,-21.8C531.23,-20.53 521.03,-19.21 511.14,-17.93"/>
<polygon fill="midnightblue" stroke="midnightblue" points="540.58,-25.28 550.95,-23.09 541.48,-18.34 540.58,-25.28"/>
</g>
<!-- Node3 -->
<g id="node3" class="node">
<title>Node3</title>
<g id="a_node3"><a xlink:href="class_vulkan_rasterizer.html#a91d83d21a2d62b9042827d03a8b4d7a0" target="_top" xlink:title=" ">
<polygon fill="none" stroke="black" points="229,-38.5 229,-57.5 336,-57.5 336,-38.5 229,-38.5"/>
<text text-anchor="middle" x="282.5" y="-45.5" font-family="Helvetica,sans-Serif" font-size="10.00">VulkanRasterizer::init</text>
</a>
</g>
</g>
<!-- Node2&#45;&gt;Node3 -->
<g id="edge2" class="edge">
<title>Node2&#45;&gt;Node3</title>
<path fill="none" stroke="midnightblue" d="M372.69,-48C360.35,-48 347.79,-48 336.15,-48"/>
<polygon fill="midnightblue" stroke="midnightblue" points="372.99,-51.5 382.99,-48 372.99,-44.5 372.99,-51.5"/>
</g>
<!-- Node4 -->
<g id="node4" class="node">
<title>Node4</title>
<g id="a_node4"><a xlink:href="class_vulkan_rasterizer.html#add1cfb13a3ae242ca9eef6c1e9e42751" target="_top" xlink:title=" ">
<polygon fill="none" stroke="black" points="74,-38.5 74,-57.5 182,-57.5 182,-38.5 74,-38.5"/>
<text text-anchor="middle" x="128" y="-45.5" font-family="Helvetica,sans-Serif" font-size="10.00">VulkanRasterizer::run</text>
</a>
</g>
</g>
<!-- Node3&#45;&gt;Node4 -->
<g id="edge3" class="edge">
<title>Node3&#45;&gt;Node4</title>
<path fill="none" stroke="midnightblue" d="M218.55,-48C206.43,-48 193.84,-48 182.07,-48"/>
<polygon fill="midnightblue" stroke="midnightblue" points="218.59,-51.5 228.59,-48 218.59,-44.5 218.59,-51.5"/>
</g>
<!-- Node5 -->
<g id="node5" class="node">
<title>Node5</title>
<g id="a_node5"><a xlink:href="main_8cpp.html#ae66f6b31b5ad750f1fe042a706a4e3d4" target="_top" xlink:title=" ">
<polygon fill="none" stroke="black" points="0,-38.5 0,-57.5 38,-57.5 38,-38.5 0,-38.5"/>
<text text-anchor="middle" x="19" y="-45.5" font-family="Helvetica,sans-Serif" font-size="10.00">main</text>
</a>
</g>
</g>
<!-- Node4&#45;&gt;Node5 -->
<g id="edge4" class="edge">
<title>Node4&#45;&gt;Node5</title>
<path fill="none" stroke="midnightblue" d="M63.67,-48C54.41,-48 45.56,-48 38.28,-48"/>
<polygon fill="midnightblue" stroke="midnightblue" points="63.81,-51.5 73.81,-48 63.81,-44.5 63.81,-51.5"/>
</g>
<!-- Node7 -->
<g id="node7" class="node">
<title>Node7</title>
<g id="a_node7"><a xlink:href="class_mandelbrot_app.html#ad5c4a7e7fd79bc75fea87df0165005b6" target="_top" xlink:title=" ">
<polygon fill="none" stroke="black" points="218,-0.5 218,-19.5 347,-19.5 347,-0.5 218,-0.5"/>
<text text-anchor="middle" x="282.5" y="-7.5" font-family="Helvetica,sans-Serif" font-size="10.00">MandelbrotApp::initVulkan</text>
</a>
</g>
</g>
<!-- Node6&#45;&gt;Node7 -->
<g id="edge6" class="edge">
<title>Node6&#45;&gt;Node7</title>
<path fill="none" stroke="midnightblue" d="M376.59,-10C366.75,-10 356.69,-10 347,-10"/>
<polygon fill="midnightblue" stroke="midnightblue" points="376.75,-13.5 386.75,-10 376.75,-6.5 376.75,-13.5"/>
</g>
</g>
</svg>
