<?xml version="1.0" encoding="UTF-8" standalone="no"?>
<!DOCTYPE svg PUBLIC "-//W3C//DTD SVG 1.1//EN"
 "http://www.w3.org/Graphics/SVG/1.1/DTD/svg11.dtd">
<!-- Generated by graphviz version 2.50.0 (20220203.2022)
 -->
<!-- Title: RenderManager::recreateSwapChain Pages: 1 -->
<!--zoomable 691 -->
<svg id="main" version="1.1" xmlns="http://www.w3.org/2000/svg" xmlns:xlink="http://www.w3.org/1999/xlink" xml:space="preserve" onload="init(evt)">
<style type="text/css"><![CDATA[
.edge:hover path { stroke: red; }
.edge:hover polygon { stroke: red; fill: red; }
]]></style>
<script type="text/javascript"><![CDATA[
var edges = document.getElementsByTagName('g');
if (edges && edges.length) {
  for (var i=0;i<edges.length;i++) {
    if (edges[i].id.substr(0,4)=='edge') {
      edges[i].setAttribute('class','edge');
    }
  }
}
]]></script>
        <defs>
                <circle id="rim" cx="0" cy="0" r="7"/>
                <circle id="rim2" cx="0" cy="0" r="3.5"/>
                <g id="zoomPlus">
                        <use xlink:href="#rim" fill="#404040">
                                <set attributeName="fill" to="#808080" begin="zoomplus.mouseover" end="zoomplus.mouseout"/>
                        </use>
                        <path d="M-4,0h8M0,-4v8" fill="none" stroke="white" stroke-width="1.5" pointer-events="none"/>
                </g>
                <g id="zoomMin">
                        <use xlink:href="#rim" fill="#404040">
                                <set attributeName="fill" to="#808080" begin="zoomminus.mouseover" end="zoomminus.mouseout"/>
                        </use>
                        <path d="M-4,0h8" fill="none" stroke="white" stroke-width="1.5" pointer-events="none"/>
                </g>
                <g id="dirArrow">
                        <path fill="none" stroke="white" stroke-width="1.5" d="M0,-3.0v7 M-2.5,-0.5L0,-3.0L2.5,-0.5"/>
                </g>
               <g id="resetDef">
                       <use xlink:href="#rim2" fill="#404040">
                               <set attributeName="fill" to="#808080" begin="reset.mouseover" end="reset.mouseout"/>
                       </use>
               </g>
        </defs>

<script type="text/javascript">
var viewWidth = 870;
var viewHeight = 691;
var sectionId = 'dynsection-35';
</script>
<script xlink:href="svgpan.js"/>
<svg id="graph" class="graph">
<g id="viewport">
<title>RenderManager::recreateSwapChain</title>
<!-- Node1 -->
<g id="node1" class="node">
<title>Node1</title>
<g id="a_node1"><a xlink:title=" ">
<polygon fill="#bfbfbf" stroke="black" points="0,-273 0,-303 149,-303 149,-273 0,-273"/>
<text text-anchor="start" x="8" y="-291" font-family="Helvetica,sans-Serif" font-size="10.00">RenderManager::recreateSwap</text>
<text text-anchor="middle" x="74.5" y="-280" font-family="Helvetica,sans-Serif" font-size="10.00">Chain</text>
</a>
</g>
</g>
<!-- Node2 -->
<g id="node2" class="node">
<title>Node2</title>
<g id="a_node2"><a xlink:href="class_render_manager.html#a387a4eac54081b4e58978e5a97b7c3f3" target="_top" xlink:title=" ">
<polygon fill="none" stroke="black" points="196.5,-570 196.5,-600 343.5,-600 343.5,-570 196.5,-570"/>
<text text-anchor="start" x="204.5" y="-588" font-family="Helvetica,sans-Serif" font-size="10.00">RenderManager::createDefault</text>
<text text-anchor="middle" x="270" y="-577" font-family="Helvetica,sans-Serif" font-size="10.00">MaterialLayout</text>
</a>
</g>
</g>
<!-- Node1&#45;&gt;Node2 -->
<g id="edge1" class="edge">
<title>Node1&#45;&gt;Node2</title>
<path fill="none" stroke="midnightblue" d="M85.36,-303.14C116.87,-351.5 215.27,-502.54 253.55,-561.29"/>
<polygon fill="midnightblue" stroke="midnightblue" points="250.77,-563.43 259.16,-569.89 256.63,-559.6 250.77,-563.43"/>
</g>
<!-- Node9 -->
<g id="node9" class="node">
<title>Node9</title>
<g id="a_node9"><a xlink:href="class_render_manager.html#aa6e12fa2f425700718eec18fb52a1ef8" target="_top" xlink:title=" ">
<polygon fill="none" stroke="black" points="198,-295 198,-325 342,-325 342,-295 198,-295"/>
<text text-anchor="start" x="206" y="-313" font-family="Helvetica,sans-Serif" font-size="10.00">RenderManager::createFrame</text>
<text text-anchor="middle" x="270" y="-302" font-family="Helvetica,sans-Serif" font-size="10.00">Buffer</text>
</a>
</g>
</g>
<!-- Node1&#45;&gt;Node9 -->
<g id="edge9" class="edge">
<title>Node1&#45;&gt;Node9</title>
<path fill="none" stroke="midnightblue" d="M149.21,-296.38C161.76,-297.81 174.87,-299.3 187.61,-300.75"/>
<polygon fill="midnightblue" stroke="midnightblue" points="187.4,-304.25 197.73,-301.9 188.19,-297.29 187.4,-304.25"/>
</g>
<!-- Node11 -->
<g id="node11" class="node">
<title>Node11</title>
<g id="a_node11"><a xlink:href="class_render_manager.html#a45a6fffe5f74da37695476732b53d33b" target="_top" xlink:title=" ">
<polygon fill="none" stroke="black" points="201.5,-406 201.5,-436 338.5,-436 338.5,-406 201.5,-406"/>
<text text-anchor="start" x="209.5" y="-424" font-family="Helvetica,sans-Serif" font-size="10.00">RenderManager::createPost</text>
<text text-anchor="middle" x="270" y="-413" font-family="Helvetica,sans-Serif" font-size="10.00">ProcessingPipelines</text>
</a>
</g>
</g>
<!-- Node1&#45;&gt;Node11 -->
<g id="edge11" class="edge">
<title>Node1&#45;&gt;Node11</title>
<path fill="none" stroke="midnightblue" d="M97.7,-303.26C132.4,-327.11 199.57,-373.27 238.69,-400.17"/>
<polygon fill="midnightblue" stroke="midnightblue" points="236.84,-403.14 247.06,-405.92 240.8,-397.37 236.84,-403.14"/>
</g>
<!-- Node24 -->
<g id="node24" class="node">
<title>Node24</title>
<g id="a_node24"><a xlink:href="class_render_manager.html#a47b4c7259640bcfc476a5cd8c129c2b8" target="_top" xlink:title=" ">
<polygon fill="none" stroke="black" points="185,-256.5 185,-275.5 355,-275.5 355,-256.5 185,-256.5"/>
<text text-anchor="middle" x="270" y="-263.5" font-family="Helvetica,sans-Serif" font-size="10.00">RenderManager::createRenderPass</text>
</a>
</g>
</g>
<!-- Node1&#45;&gt;Node24 -->
<g id="edge31" class="edge">
<title>Node1&#45;&gt;Node24</title>
<path fill="none" stroke="midnightblue" d="M149.21,-279.62C157.65,-278.66 166.34,-277.67 175.01,-276.69"/>
<polygon fill="midnightblue" stroke="midnightblue" points="175.61,-280.14 185.15,-275.53 174.81,-273.19 175.61,-280.14"/>
</g>
<!-- Node26 -->
<g id="node26" class="node">
<title>Node26</title>
<g id="a_node26"><a xlink:href="class_render_manager.html#ab9be550fe988ee994b0cba1b46ef2ded" target="_top" xlink:title=" ">
<polygon fill="none" stroke="black" points="199.5,-156 199.5,-186 340.5,-186 340.5,-156 199.5,-156"/>
<text text-anchor="start" x="207.5" y="-174" font-family="Helvetica,sans-Serif" font-size="10.00">RenderManager::createSwap</text>
<text text-anchor="middle" x="270" y="-163" font-family="Helvetica,sans-Serif" font-size="10.00">Chain</text>
</a>
</g>
</g>
<!-- Node1&#45;&gt;Node26 -->
<g id="edge33" class="edge">
<title>Node1&#45;&gt;Node26</title>
<path fill="none" stroke="midnightblue" d="M100.4,-272.94C134.7,-252.2 196.61,-214.77 235.11,-191.49"/>
<polygon fill="midnightblue" stroke="midnightblue" points="237.14,-194.35 243.89,-186.18 233.52,-188.36 237.14,-194.35"/>
</g>
<!-- Node32 -->
<g id="node32" class="node">
<title>Node32</title>
<g id="a_node32"><a xlink:href="class_render_manager.html#ad684dc770c22b8ee45875407c8591a00" target="_top" xlink:title=" ">
<polygon fill="none" stroke="black" points="189.5,-57.5 189.5,-76.5 350.5,-76.5 350.5,-57.5 189.5,-57.5"/>
<text text-anchor="middle" x="270" y="-64.5" font-family="Helvetica,sans-Serif" font-size="10.00">RenderManager::createUIObjects</text>
</a>
</g>
</g>
<!-- Node1&#45;&gt;Node32 -->
<g id="edge40" class="edge">
<title>Node1&#45;&gt;Node32</title>
<path fill="none" stroke="midnightblue" d="M86.3,-272.59C105.19,-246 145.92,-190.22 185,-147 206.01,-123.76 232.5,-99.23 250.05,-83.55"/>
<polygon fill="midnightblue" stroke="midnightblue" points="252.72,-85.86 257.89,-76.61 248.08,-80.62 252.72,-85.86"/>
</g>
<!-- Node3 -->
<g id="node3" class="node">
<title>Node3</title>
<g id="a_node3"><a xlink:href="materialparameters_8cpp.html#ad19af1f50a41ceac79efdeeafc07a8ab" target="_top" xlink:title=" ">
<polygon fill="none" stroke="black" points="419,-613.5 419,-632.5 485,-632.5 485,-613.5 419,-613.5"/>
<text text-anchor="middle" x="452" y="-620.5" font-family="Helvetica,sans-Serif" font-size="10.00">buildLayout</text>
</a>
</g>
</g>
<!-- Node2&#45;&gt;Node3 -->
<g id="edge2" class="edge">
<title>Node2&#45;&gt;Node3</title>
<path fill="none" stroke="midnightblue" d="M342.14,-600.02C364.73,-604.79 388.99,-609.91 408.86,-614.1"/>
<polygon fill="midnightblue" stroke="midnightblue" points="408.31,-617.56 418.81,-616.2 409.75,-610.71 408.31,-617.56"/>
</g>
<!-- Node5 -->
<g id="node5" class="node">
<title>Node5</title>
<g id="a_node5"><a xlink:href="class_master_material_template.html#a1da04385b3e407ba5a540895944992ae" target="_top" xlink:title=" ">
<polygon fill="none" stroke="black" points="391,-652 391,-682 513,-682 513,-652 391,-652"/>
<text text-anchor="start" x="399" y="-670" font-family="Helvetica,sans-Serif" font-size="10.00">MasterMaterialTemplate</text>
<text text-anchor="middle" x="452" y="-659" font-family="Helvetica,sans-Serif" font-size="10.00">::create</text>
</a>
</g>
</g>
<!-- Node2&#45;&gt;Node5 -->
<g id="edge4" class="edge">
<title>Node2&#45;&gt;Node5</title>
<path fill="none" stroke="midnightblue" d="M301.89,-600.18C326.01,-611.91 360.45,-628.39 391,-642 395.41,-643.96 400.01,-645.97 404.63,-647.95"/>
<polygon fill="midnightblue" stroke="midnightblue" points="403.5,-651.27 414.07,-651.94 406.23,-644.82 403.5,-651.27"/>
</g>
<!-- Node6 -->
<g id="node6" class="node">
<title>Node6</title>
<g id="a_node6"><a xlink:href="class_vertex_shader.html#a5210d098175734531886d9e5b1741f8e" target="_top" xlink:title=" ">
<polygon fill="none" stroke="black" points="556.5,-537.5 556.5,-556.5 663.5,-556.5 663.5,-537.5 556.5,-537.5"/>
<text text-anchor="middle" x="610" y="-544.5" font-family="Helvetica,sans-Serif" font-size="10.00">VertexShader::create</text>
</a>
</g>
</g>
<!-- Node2&#45;&gt;Node6 -->
<g id="edge5" class="edge">
<title>Node2&#45;&gt;Node6</title>
<path fill="none" stroke="midnightblue" d="M343.54,-572.68C359.17,-570.26 375.61,-567.89 391,-566 443.19,-559.6 502.67,-554.57 546.3,-551.29"/>
<polygon fill="midnightblue" stroke="midnightblue" points="546.76,-554.77 556.47,-550.54 546.24,-547.79 546.76,-554.77"/>
</g>
<!-- Node8 -->
<g id="node8" class="node">
<title>Node8</title>
<g id="a_node8"><a xlink:href="class_fragment_shader.html#a1221d3fb805310bb64a01e032e794d0b" target="_top" xlink:title=" ">
<polygon fill="none" stroke="black" points="392,-575.5 392,-594.5 512,-594.5 512,-575.5 392,-575.5"/>
<text text-anchor="middle" x="452" y="-582.5" font-family="Helvetica,sans-Serif" font-size="10.00">FragmentShader::create</text>
</a>
</g>
</g>
<!-- Node2&#45;&gt;Node8 -->
<g id="edge7" class="edge">
<title>Node2&#45;&gt;Node8</title>
<path fill="none" stroke="midnightblue" d="M343.69,-585C356.2,-585 369.16,-585 381.57,-585"/>
<polygon fill="midnightblue" stroke="midnightblue" points="381.85,-588.5 391.85,-585 381.85,-581.5 381.85,-588.5"/>
</g>
<!-- Node4 -->
<g id="node4" class="node">
<title>Node4</title>
<g id="a_node4"><a xlink:href="materialparameters_8cpp.html#a6d0d74203f8507f343dd66edcc0d472f" target="_top" xlink:title=" ">
<polygon fill="none" stroke="black" points="573.5,-613.5 573.5,-632.5 646.5,-632.5 646.5,-613.5 573.5,-613.5"/>
<text text-anchor="middle" x="610" y="-620.5" font-family="Helvetica,sans-Serif" font-size="10.00">buildProperty</text>
</a>
</g>
</g>
<!-- Node3&#45;&gt;Node4 -->
<g id="edge3" class="edge">
<title>Node3&#45;&gt;Node4</title>
<path fill="none" stroke="midnightblue" d="M485.32,-623C507.91,-623 538.4,-623 563.45,-623"/>
<polygon fill="midnightblue" stroke="midnightblue" points="563.45,-626.5 573.45,-623 563.45,-619.5 563.45,-626.5"/>
</g>
<!-- Node7 -->
<g id="node7" class="node">
<title>Node7</title>
<g id="a_node7"><a xlink:href="class_utils.html#a7e7d47e8b017fe7d4ae8802c7b0690cb" target="_top" xlink:title=" ">
<polygon fill="none" stroke="black" points="746.5,-537.5 746.5,-556.5 822.5,-556.5 822.5,-537.5 746.5,-537.5"/>
<text text-anchor="middle" x="784.5" y="-544.5" font-family="Helvetica,sans-Serif" font-size="10.00">Utils::readFile</text>
</a>
</g>
</g>
<!-- Node6&#45;&gt;Node7 -->
<g id="edge6" class="edge">
<title>Node6&#45;&gt;Node7</title>
<path fill="none" stroke="midnightblue" d="M663.69,-547C686.79,-547 713.68,-547 736.14,-547"/>
<polygon fill="midnightblue" stroke="midnightblue" points="736.43,-550.5 746.43,-547 736.43,-543.5 736.43,-550.5"/>
</g>
<!-- Node8&#45;&gt;Node7 -->
<g id="edge8" class="edge">
<title>Node8&#45;&gt;Node7</title>
<path fill="none" stroke="midnightblue" d="M512.35,-581.12C556.27,-577.94 617.49,-572.84 671,-566 692.6,-563.24 716.39,-559.35 736.51,-555.8"/>
<polygon fill="midnightblue" stroke="midnightblue" points="737.14,-559.25 746.37,-554.04 735.91,-552.35 737.14,-559.25"/>
</g>
<!-- Node10 -->
<g id="node10" class="node">
<title>Node10</title>
<g id="a_node10"><a xlink:href="class_frame_buffer.html#a3b861048fc9c1861448d4dee7a6b9b69" target="_top" xlink:title=" ">
<polygon fill="none" stroke="black" points="401.5,-297.5 401.5,-316.5 502.5,-316.5 502.5,-297.5 401.5,-297.5"/>
<text text-anchor="middle" x="452" y="-304.5" font-family="Helvetica,sans-Serif" font-size="10.00">FrameBuffer::create</text>
</a>
</g>
</g>
<!-- Node9&#45;&gt;Node10 -->
<g id="edge10" class="edge">
<title>Node9&#45;&gt;Node10</title>
<path fill="none" stroke="midnightblue" d="M342.14,-308.81C358.42,-308.54 375.57,-308.26 391.31,-307.99"/>
<polygon fill="midnightblue" stroke="midnightblue" points="391.49,-311.49 401.43,-307.83 391.38,-304.49 391.49,-311.49"/>
</g>
<!-- Node11&#45;&gt;Node8 -->
<g id="edge29" class="edge">
<title>Node11&#45;&gt;Node8</title>
<path fill="none" stroke="midnightblue" d="M287.61,-436.13C321.29,-466.82 397.4,-536.16 432.56,-568.19"/>
<polygon fill="midnightblue" stroke="midnightblue" points="430.43,-570.99 440.18,-575.14 435.14,-565.82 430.43,-570.99"/>
</g>
<!-- Node12 -->
<g id="node12" class="node">
<title>Node12</title>
<g id="a_node12"><a xlink:href="class_s_s_a_o_pipeline.html#a86b42b7cb08d1495260fcf5d81cb80b4" target="_top" xlink:title=" ">
<polygon fill="none" stroke="black" points="397,-373.5 397,-392.5 507,-392.5 507,-373.5 397,-373.5"/>
<text text-anchor="middle" x="452" y="-380.5" font-family="Helvetica,sans-Serif" font-size="10.00">SSAOPipeline::create</text>
</a>
</g>
</g>
<!-- Node11&#45;&gt;Node12 -->
<g id="edge12" class="edge">
<title>Node11&#45;&gt;Node12</title>
<path fill="none" stroke="midnightblue" d="M338.54,-406.74C357.48,-402.74 377.83,-398.45 395.95,-394.62"/>
<polygon fill="midnightblue" stroke="midnightblue" points="396.7,-398.04 405.76,-392.55 395.26,-391.19 396.7,-398.04"/>
</g>
<!-- Node14 -->
<g id="node14" class="node">
<title>Node14</title>
<g id="a_node14"><a xlink:href="class_uniform_buffer.html#a1e1a7c734eb7243682f2dfa7e964ee58" target="_top" xlink:title=" ">
<polygon fill="none" stroke="black" points="556,-259.5 556,-278.5 664,-278.5 664,-259.5 556,-259.5"/>
<text text-anchor="middle" x="610" y="-266.5" font-family="Helvetica,sans-Serif" font-size="10.00">UniformBuffer::create</text>
</a>
</g>
</g>
<!-- Node11&#45;&gt;Node14 -->
<g id="edge23" class="edge">
<title>Node11&#45;&gt;Node14</title>
<path fill="none" stroke="midnightblue" d="M300.08,-405.76C324.07,-393.54 359.21,-376.43 391,-364 443.89,-343.32 464.8,-356.03 513,-326 532.75,-313.7 529.28,-300.35 549,-288 552.34,-285.91 555.93,-284.03 559.64,-282.34"/>
<polygon fill="midnightblue" stroke="midnightblue" points="561.06,-285.54 569.01,-278.54 558.43,-279.06 561.06,-285.54"/>
</g>
<!-- Node20 -->
<g id="node20" class="node">
<title>Node20</title>
<g id="a_node20"><a xlink:href="class_descriptor_set_layout.html#a1a2b657df46e6453f7a7a3d7863103c2" target="_top" xlink:title=" ">
<polygon fill="none" stroke="black" points="557.5,-412 557.5,-442 662.5,-442 662.5,-412 557.5,-412"/>
<text text-anchor="start" x="565.5" y="-430" font-family="Helvetica,sans-Serif" font-size="10.00">DescriptorSetLayout</text>
<text text-anchor="middle" x="610" y="-419" font-family="Helvetica,sans-Serif" font-size="10.00">::create</text>
</a>
</g>
</g>
<!-- Node11&#45;&gt;Node20 -->
<g id="edge30" class="edge">
<title>Node11&#45;&gt;Node20</title>
<path fill="none" stroke="midnightblue" d="M338.68,-433.62C355.7,-436.27 373.97,-438.66 391,-440 445.06,-444.25 458.9,-443.65 513,-440 524.05,-439.26 535.77,-438.03 547.07,-436.63"/>
<polygon fill="midnightblue" stroke="midnightblue" points="547.85,-440.06 557.31,-435.3 546.95,-433.12 547.85,-440.06"/>
</g>
<!-- Node21 -->
<g id="node21" class="node">
<title>Node21</title>
<g id="a_node21"><a xlink:href="class_shading_pipeline.html#a6cc9ad0f6a6b61568281b0f80e630ff1" target="_top" xlink:title=" ">
<polygon fill="none" stroke="black" points="393,-493.5 393,-512.5 511,-512.5 511,-493.5 393,-493.5"/>
<text text-anchor="middle" x="452" y="-500.5" font-family="Helvetica,sans-Serif" font-size="10.00">ShadingPipeline::create</text>
</a>
</g>
</g>
<!-- Node11&#45;&gt;Node21 -->
<g id="edge24" class="edge">
<title>Node11&#45;&gt;Node21</title>
<path fill="none" stroke="midnightblue" d="M304.01,-436.04C337.31,-451.21 388.28,-474.43 420.61,-489.16"/>
<polygon fill="midnightblue" stroke="midnightblue" points="419.45,-492.47 430,-493.44 422.36,-486.1 419.45,-492.47"/>
</g>
<!-- Node23 -->
<g id="node23" class="node">
<title>Node23</title>
<g id="a_node23"><a xlink:href="class_semaphore.html#a7bf99350ca438feb4b743891587a4e1c" target="_top" xlink:title=" ">
<polygon fill="none" stroke="black" points="403,-411.5 403,-430.5 501,-430.5 501,-411.5 403,-411.5"/>
<text text-anchor="middle" x="452" y="-418.5" font-family="Helvetica,sans-Serif" font-size="10.00">Semaphore::create</text>
</a>
</g>
</g>
<!-- Node11&#45;&gt;Node23 -->
<g id="edge28" class="edge">
<title>Node11&#45;&gt;Node23</title>
<path fill="none" stroke="midnightblue" d="M338.54,-421C356.22,-421 375.13,-421 392.31,-421"/>
<polygon fill="midnightblue" stroke="midnightblue" points="392.75,-424.5 402.75,-421 392.75,-417.5 392.75,-424.5"/>
</g>
<!-- Node13 -->
<g id="node13" class="node">
<title>Node13</title>
<g id="a_node13"><a xlink:href="class_compute_pipeline.html#a92121b7ec6c70eb4b6a27ef4226e495d" target="_top" xlink:title=" ">
<polygon fill="none" stroke="black" points="549,-297.5 549,-316.5 671,-316.5 671,-297.5 549,-297.5"/>
<text text-anchor="middle" x="610" y="-304.5" font-family="Helvetica,sans-Serif" font-size="10.00">ComputePipeline::create</text>
</a>
</g>
</g>
<!-- Node12&#45;&gt;Node13 -->
<g id="edge13" class="edge">
<title>Node12&#45;&gt;Node13</title>
<path fill="none" stroke="midnightblue" d="M483.02,-373.43C492.94,-369.64 503.79,-364.79 513,-359 531.38,-347.45 530.21,-336.87 549,-326 552.67,-323.88 556.61,-321.96 560.65,-320.24"/>
<polygon fill="midnightblue" stroke="midnightblue" points="562.1,-323.43 570.17,-316.56 559.58,-316.9 562.1,-323.43"/>
</g>
<!-- Node12&#45;&gt;Node14 -->
<g id="edge14" class="edge">
<title>Node12&#45;&gt;Node14</title>
<path fill="none" stroke="midnightblue" d="M489.07,-373.42C497.62,-369.9 506.21,-365.21 513,-359 539.1,-335.12 522.03,-310.9 549,-288 551,-286.3 553.16,-284.75 555.43,-283.34"/>
<polygon fill="midnightblue" stroke="midnightblue" points="557.35,-286.28 564.59,-278.55 554.11,-280.08 557.35,-286.28"/>
</g>
<!-- Node16 -->
<g id="node16" class="node">
<title>Node16</title>
<g id="a_node16"><a xlink:href="class_pipeline_layout.html#a8dabc26f7798c86ce3bd4ff0419304f2" target="_top" xlink:title=" ">
<polygon fill="none" stroke="black" points="554,-461.5 554,-480.5 666,-480.5 666,-461.5 554,-461.5"/>
<text text-anchor="middle" x="610" y="-468.5" font-family="Helvetica,sans-Serif" font-size="10.00">PipelineLayout::create</text>
</a>
</g>
</g>
<!-- Node12&#45;&gt;Node16 -->
<g id="edge17" class="edge">
<title>Node12&#45;&gt;Node16</title>
<path fill="none" stroke="midnightblue" d="M495.32,-392.6C501.57,-395.07 507.69,-398.16 513,-402 535.18,-418.06 526.82,-435.94 549,-452 551.65,-453.92 554.51,-455.66 557.49,-457.22"/>
<polygon fill="midnightblue" stroke="midnightblue" points="556.13,-460.44 566.68,-461.4 559.03,-454.07 556.13,-460.44"/>
</g>
<!-- Node18 -->
<g id="node18" class="node">
<title>Node18</title>
<g id="a_node18"><a xlink:href="class_sampler.html#a182113be2ca9116713ef1d62027dbcb4" target="_top" xlink:title=" ">
<polygon fill="none" stroke="black" points="568,-335.5 568,-354.5 652,-354.5 652,-335.5 568,-335.5"/>
<text text-anchor="middle" x="610" y="-342.5" font-family="Helvetica,sans-Serif" font-size="10.00">Sampler::create</text>
</a>
</g>
</g>
<!-- Node12&#45;&gt;Node18 -->
<g id="edge19" class="edge">
<title>Node12&#45;&gt;Node18</title>
<path fill="none" stroke="midnightblue" d="M492.37,-373.41C512.95,-368.4 538.34,-362.21 560.17,-356.89"/>
<polygon fill="midnightblue" stroke="midnightblue" points="561.03,-360.29 569.92,-354.52 559.37,-353.49 561.03,-360.29"/>
</g>
<!-- Node19 -->
<g id="node19" class="node">
<title>Node19</title>
<g id="a_node19"><a xlink:href="class_compute_shader.html#a93b13c3307b937cf77af96bca8e89329" target="_top" xlink:title=" ">
<polygon fill="none" stroke="black" points="551,-373.5 551,-392.5 669,-392.5 669,-373.5 551,-373.5"/>
<text text-anchor="middle" x="610" y="-380.5" font-family="Helvetica,sans-Serif" font-size="10.00">ComputeShader::create</text>
</a>
</g>
</g>
<!-- Node12&#45;&gt;Node19 -->
<g id="edge20" class="edge">
<title>Node12&#45;&gt;Node19</title>
<path fill="none" stroke="midnightblue" d="M507.12,-383C517.97,-383 529.5,-383 540.75,-383"/>
<polygon fill="midnightblue" stroke="midnightblue" points="540.99,-386.5 550.98,-383 540.98,-379.5 540.99,-386.5"/>
</g>
<!-- Node12&#45;&gt;Node20 -->
<g id="edge22" class="edge">
<title>Node12&#45;&gt;Node20</title>
<path fill="none" stroke="midnightblue" d="M486.85,-392.55C504.64,-397.57 527.01,-403.87 547.72,-409.72"/>
<polygon fill="midnightblue" stroke="midnightblue" points="546.84,-413.1 557.41,-412.45 548.74,-406.37 546.84,-413.1"/>
</g>
<!-- Node15 -->
<g id="node15" class="node">
<title>Node15</title>
<g id="a_node15"><a xlink:href="class_buffer.html#a04bbfbb11daccc5656c698c63214aefc" target="_top" xlink:title=" ">
<polygon fill="none" stroke="black" points="747.5,-259.5 747.5,-278.5 821.5,-278.5 821.5,-259.5 747.5,-259.5"/>
<text text-anchor="middle" x="784.5" y="-266.5" font-family="Helvetica,sans-Serif" font-size="10.00">Buffer::create</text>
</a>
</g>
</g>
<!-- Node14&#45;&gt;Node15 -->
<g id="edge15" class="edge">
<title>Node14&#45;&gt;Node15</title>
<path fill="none" stroke="midnightblue" d="M664.16,-269C687.6,-269 714.88,-269 737.43,-269"/>
<polygon fill="midnightblue" stroke="midnightblue" points="737.43,-272.5 747.43,-269 737.43,-265.5 737.43,-272.5"/>
</g>
<!-- Node15&#45;&gt;Node15 -->
<g id="edge16" class="edge">
<title>Node15&#45;&gt;Node15</title>
<path fill="none" stroke="midnightblue" d="M757.68,-278.76C744.63,-287.57 753.57,-297 784.5,-297 805.28,-297 816.13,-292.74 817.06,-287.27"/>
<polygon fill="midnightblue" stroke="midnightblue" points="819.81,-285.09 811.32,-278.76 814.01,-289.01 819.81,-285.09"/>
</g>
<!-- Node17 -->
<g id="node17" class="node">
<title>Node17</title>
<g id="a_node17"><a xlink:href="class_vulkan_class.html#a914c142e905262efbd473aeb5bdfb0e8" target="_top" xlink:title=" ">
<polygon fill="none" stroke="black" points="707,-456 707,-486 862,-486 862,-456 707,-456"/>
<text text-anchor="start" x="715" y="-474" font-family="Helvetica,sans-Serif" font-size="10.00">VulkanClass&lt; VkPipelineLayout</text>
<text text-anchor="middle" x="784.5" y="-463" font-family="Helvetica,sans-Serif" font-size="10.00"> &gt;::getHandle</text>
</a>
</g>
</g>
<!-- Node16&#45;&gt;Node17 -->
<g id="edge18" class="edge">
<title>Node16&#45;&gt;Node17</title>
<path fill="none" stroke="midnightblue" d="M666.05,-471C675.92,-471 686.41,-471 696.91,-471"/>
<polygon fill="midnightblue" stroke="midnightblue" points="696.96,-474.5 706.96,-471 696.96,-467.5 696.96,-474.5"/>
</g>
<!-- Node19&#45;&gt;Node7 -->
<g id="edge21" class="edge">
<title>Node19&#45;&gt;Node7</title>
<path fill="none" stroke="midnightblue" d="M655.19,-392.64C660.98,-395.29 666.47,-398.68 671,-403 703.08,-433.59 679.27,-461.43 707,-496 719.44,-511.51 737.88,-524 753.55,-532.74"/>
<polygon fill="midnightblue" stroke="midnightblue" points="751.91,-535.83 762.38,-537.44 755.2,-529.65 751.91,-535.83"/>
</g>
<!-- Node21&#45;&gt;Node6 -->
<g id="edge27" class="edge">
<title>Node21&#45;&gt;Node6</title>
<path fill="none" stroke="midnightblue" d="M486.85,-512.55C509.85,-519.03 540.48,-527.67 565.32,-534.68"/>
<polygon fill="midnightblue" stroke="midnightblue" points="564.64,-538.13 575.22,-537.47 566.54,-531.39 564.64,-538.13"/>
</g>
<!-- Node21&#45;&gt;Node16 -->
<g id="edge26" class="edge">
<title>Node21&#45;&gt;Node16</title>
<path fill="none" stroke="midnightblue" d="M499.38,-493.49C516.05,-490.07 535.04,-486.17 552.47,-482.6"/>
<polygon fill="midnightblue" stroke="midnightblue" points="553.43,-485.97 562.53,-480.53 552.03,-479.11 553.43,-485.97"/>
</g>
<!-- Node22 -->
<g id="node22" class="node">
<title>Node22</title>
<g id="a_node22"><a xlink:href="class_graphics_pipeline.html#a87f0117ca1a2040cf373963612f80965" target="_top" xlink:title=" ">
<polygon fill="none" stroke="black" points="549,-499.5 549,-518.5 671,-518.5 671,-499.5 549,-499.5"/>
<text text-anchor="middle" x="610" y="-506.5" font-family="Helvetica,sans-Serif" font-size="10.00">GraphicsPipeline::create</text>
</a>
</g>
</g>
<!-- Node21&#45;&gt;Node22 -->
<g id="edge25" class="edge">
<title>Node21&#45;&gt;Node22</title>
<path fill="none" stroke="midnightblue" d="M511.09,-505.23C520.03,-505.58 529.34,-505.94 538.51,-506.29"/>
<polygon fill="midnightblue" stroke="midnightblue" points="538.65,-509.8 548.78,-506.68 538.92,-502.8 538.65,-509.8"/>
</g>
<!-- Node25 -->
<g id="node25" class="node">
<title>Node25</title>
<g id="a_node25"><a xlink:href="class_render_pass.html#a7192ec68626bea374e5003f022dfb0a6" target="_top" xlink:title=" ">
<polygon fill="none" stroke="black" points="401.5,-259.5 401.5,-278.5 502.5,-278.5 502.5,-259.5 401.5,-259.5"/>
<text text-anchor="middle" x="452" y="-266.5" font-family="Helvetica,sans-Serif" font-size="10.00">RenderPass::create</text>
</a>
</g>
</g>
<!-- Node24&#45;&gt;Node25 -->
<g id="edge32" class="edge">
<title>Node24&#45;&gt;Node25</title>
<path fill="none" stroke="midnightblue" d="M355.2,-267.4C367.25,-267.6 379.44,-267.81 390.9,-268"/>
<polygon fill="midnightblue" stroke="midnightblue" points="391.14,-271.5 401.19,-268.17 391.25,-264.5 391.14,-271.5"/>
</g>
<!-- Node27 -->
<g id="node27" class="node">
<title>Node27</title>
<g id="a_node27"><a xlink:href="class_framebuffer_selector.html#aaeb567a08ff24b698ee8cc569980c937" target="_top" xlink:title=" ">
<polygon fill="none" stroke="black" points="400,-134 400,-164 504,-164 504,-134 400,-134"/>
<text text-anchor="start" x="408" y="-152" font-family="Helvetica,sans-Serif" font-size="10.00">FramebufferSelector</text>
<text text-anchor="middle" x="452" y="-141" font-family="Helvetica,sans-Serif" font-size="10.00">::create</text>
</a>
</g>
</g>
<!-- Node26&#45;&gt;Node27 -->
<g id="edge34" class="edge">
<title>Node26&#45;&gt;Node27</title>
<path fill="none" stroke="midnightblue" d="M340.59,-162.49C356.74,-160.52 373.82,-158.43 389.59,-156.51"/>
<polygon fill="midnightblue" stroke="midnightblue" points="390.23,-159.95 399.74,-155.27 389.39,-153 390.23,-159.95"/>
</g>
<!-- Node28 -->
<g id="node28" class="node">
<title>Node28</title>
<g id="a_node28"><a xlink:href="class_image.html#a729f597dc28bd5261b1860643ed9513f" target="_top" xlink:title=" ">
<polygon fill="none" stroke="black" points="572.5,-117.5 572.5,-136.5 647.5,-136.5 647.5,-117.5 572.5,-117.5"/>
<text text-anchor="middle" x="610" y="-124.5" font-family="Helvetica,sans-Serif" font-size="10.00">Image::create</text>
</a>
</g>
</g>
<!-- Node26&#45;&gt;Node28 -->
<g id="edge37" class="edge">
<title>Node26&#45;&gt;Node28</title>
<path fill="none" stroke="midnightblue" d="M301.18,-155.88C324.92,-144.86 359.19,-130.89 391,-125 449.23,-114.22 517.71,-117.37 562.16,-121.44"/>
<polygon fill="midnightblue" stroke="midnightblue" points="562.08,-124.95 572.37,-122.43 562.76,-117.98 562.08,-124.95"/>
</g>
<!-- Node29 -->
<g id="node29" class="node">
<title>Node29</title>
<g id="a_node29"><a xlink:href="class_swap_chain.html#ad6e69feb47cd7d9016c468d2fe01f8af" target="_top" xlink:title=" ">
<polygon fill="none" stroke="black" points="403,-57.5 403,-76.5 501,-76.5 501,-57.5 403,-57.5"/>
<text text-anchor="middle" x="452" y="-64.5" font-family="Helvetica,sans-Serif" font-size="10.00">SwapChain::create</text>
</a>
</g>
</g>
<!-- Node26&#45;&gt;Node29 -->
<g id="edge36" class="edge">
<title>Node26&#45;&gt;Node29</title>
<path fill="none" stroke="midnightblue" d="M291.01,-155.77C314.2,-138.58 353.99,-110.47 391,-91 398.34,-87.14 406.45,-83.51 414.26,-80.29"/>
<polygon fill="midnightblue" stroke="midnightblue" points="415.58,-83.53 423.58,-76.59 413,-77.03 415.58,-83.53"/>
</g>
<!-- Node30 -->
<g id="node30" class="node">
<title>Node30</title>
<g id="a_node30"><a xlink:href="class_image_view.html#a49f8e14c3fd61c0e19735f7f3c397f94" target="_top" xlink:title=" ">
<polygon fill="none" stroke="black" points="403.5,-221.5 403.5,-240.5 500.5,-240.5 500.5,-221.5 403.5,-221.5"/>
<text text-anchor="middle" x="452" y="-228.5" font-family="Helvetica,sans-Serif" font-size="10.00">ImageView::create</text>
</a>
</g>
</g>
<!-- Node26&#45;&gt;Node30 -->
<g id="edge38" class="edge">
<title>Node26&#45;&gt;Node30</title>
<path fill="none" stroke="midnightblue" d="M314.24,-186.04C337.04,-193.9 365.49,-203.6 391,-212 397.42,-214.11 404.23,-216.31 410.88,-218.43"/>
<polygon fill="midnightblue" stroke="midnightblue" points="409.84,-221.78 420.43,-221.47 411.96,-215.1 409.84,-221.78"/>
</g>
<!-- Node31 -->
<g id="node31" class="node">
<title>Node31</title>
<g id="a_node31"><a xlink:href="class_utils.html#ac44035a9bc80c570cfcd56ded0dad0a5" target="_top" xlink:title=" ">
<polygon fill="none" stroke="black" points="415,-183.5 415,-202.5 489,-202.5 489,-183.5 415,-183.5"/>
<text text-anchor="middle" x="452" y="-190.5" font-family="Helvetica,sans-Serif" font-size="10.00">Utils::remove</text>
</a>
</g>
</g>
<!-- Node26&#45;&gt;Node31 -->
<g id="edge39" class="edge">
<title>Node26&#45;&gt;Node31</title>
<path fill="none" stroke="midnightblue" d="M340.59,-179.51C362.06,-182.13 385.16,-184.95 404.66,-187.34"/>
<polygon fill="midnightblue" stroke="midnightblue" points="404.44,-190.84 414.79,-188.57 405.29,-183.89 404.44,-190.84"/>
</g>
<!-- Node27&#45;&gt;Node28 -->
<g id="edge35" class="edge">
<title>Node27&#45;&gt;Node28</title>
<path fill="none" stroke="midnightblue" d="M504.08,-141.8C522.74,-139.17 543.74,-136.2 562.02,-133.63"/>
<polygon fill="midnightblue" stroke="midnightblue" points="562.73,-137.06 572.15,-132.2 561.76,-130.13 562.73,-137.06"/>
</g>
<!-- Node33 -->
<g id="node33" class="node">
<title>Node33</title>
<g id="a_node33"><a xlink:href="class_u_i_renderer.html#a429d9bebea63cfce81d4179458bac829" target="_top" xlink:title=" ">
<polygon fill="none" stroke="black" points="403,-19.5 403,-38.5 501,-38.5 501,-19.5 403,-19.5"/>
<text text-anchor="middle" x="452" y="-26.5" font-family="Helvetica,sans-Serif" font-size="10.00">UIRenderer::create</text>
</a>
</g>
</g>
<!-- Node32&#45;&gt;Node33 -->
<g id="edge41" class="edge">
<title>Node32&#45;&gt;Node33</title>
<path fill="none" stroke="midnightblue" d="M316.42,-57.41C340.6,-52.31 370.53,-45.99 396.01,-40.61"/>
<polygon fill="midnightblue" stroke="midnightblue" points="396.84,-44.01 405.91,-38.52 395.4,-37.16 396.84,-44.01"/>
</g>
<!-- Node34 -->
<g id="node34" class="node">
<title>Node34</title>
<g id="a_node34"><a xlink:href="class_command_buffer.html#aa00b25bc626efb68b5dc810ea91cf41b" target="_top" xlink:title=" ">
<polygon fill="none" stroke="black" points="551,-0.5 551,-19.5 669,-19.5 669,-0.5 551,-0.5"/>
<text text-anchor="middle" x="610" y="-7.5" font-family="Helvetica,sans-Serif" font-size="10.00">CommandBuffer::create</text>
</a>
</g>
</g>
<!-- Node33&#45;&gt;Node34 -->
<g id="edge42" class="edge">
<title>Node33&#45;&gt;Node34</title>
<path fill="none" stroke="midnightblue" d="M501.08,-23.14C513.63,-21.62 527.41,-19.94 540.79,-18.31"/>
<polygon fill="midnightblue" stroke="midnightblue" points="541.42,-21.76 550.93,-17.07 540.58,-14.81 541.42,-21.76"/>
</g>
<!-- Node35 -->
<g id="node35" class="node">
<title>Node35</title>
<g id="a_node35"><a xlink:href="class_descriptor_pool.html#a190f2272d8740c7f7fe13b5b8fb8326c" target="_top" xlink:title=" ">
<polygon fill="none" stroke="black" points="554,-38.5 554,-57.5 666,-57.5 666,-38.5 554,-38.5"/>
<text text-anchor="middle" x="610" y="-45.5" font-family="Helvetica,sans-Serif" font-size="10.00">DescriptorPool::create</text>
</a>
</g>
</g>
<!-- Node33&#45;&gt;Node35 -->
<g id="edge43" class="edge">
<title>Node33&#45;&gt;Node35</title>
<path fill="none" stroke="midnightblue" d="M501.08,-34.86C514.55,-36.5 529.42,-38.31 543.71,-40.05"/>
<polygon fill="midnightblue" stroke="midnightblue" points="543.64,-43.56 553.99,-41.3 544.48,-36.62 543.64,-43.56"/>
</g>
</g>
</svg>
        <g id="navigator" transform="translate(0 0)" fill="#404254">
                <rect fill="#f2f5e9" fill-opacity="0.5" stroke="#606060" stroke-width=".5" x="0" y="0" width="60" height="60"/>
                <use id="zoomplus" xlink:href="#zoomPlus" x="17" y="9" onmousedown="handleZoom(evt,'in')"/>
                <use id="zoomminus" xlink:href="#zoomMin" x="42" y="9" onmousedown="handleZoom(evt,'out')"/>
                <use id="reset" xlink:href="#resetDef" x="30" y="36" onmousedown="handleReset()"/>
                <g id="arrowUp" xlink:href="#dirArrow" transform="translate(30 24)" onmousedown="handlePan(0,-1)">
                  <use xlink:href="#rim" fill="#404040">
                        <set attributeName="fill" to="#808080" begin="arrowUp.mouseover" end="arrowUp.mouseout"/>
                  </use>
                  <path fill="none" stroke="white" stroke-width="1.5" d="M0,-3.0v7 M-2.5,-0.5L0,-3.0L2.5,-0.5"/>
                </g>
                <g id="arrowRight" xlink:href="#dirArrow" transform="rotate(90) translate(36 -43)" onmousedown="handlePan(1,0)">
                  <use xlink:href="#rim" fill="#404040">
                        <set attributeName="fill" to="#808080" begin="arrowRight.mouseover" end="arrowRight.mouseout"/>
                  </use>
                  <path fill="none" stroke="white" stroke-width="1.5" d="M0,-3.0v7 M-2.5,-0.5L0,-3.0L2.5,-0.5"/>
                </g>
                <g id="arrowDown" xlink:href="#dirArrow" transform="rotate(180) translate(-30 -48)" onmousedown="handlePan(0,1)">
                  <use xlink:href="#rim" fill="#404040">
                        <set attributeName="fill" to="#808080" begin="arrowDown.mouseover" end="arrowDown.mouseout"/>
                  </use>
                  <path fill="none" stroke="white" stroke-width="1.5" d="M0,-3.0v7 M-2.5,-0.5L0,-3.0L2.5,-0.5"/>
                </g>
                <g id="arrowLeft" xlink:href="#dirArrow" transform="rotate(270) translate(-36 17)" onmousedown="handlePan(-1,0)">
                  <use xlink:href="#rim" fill="#404040">
                        <set attributeName="fill" to="#808080" begin="arrowLeft.mouseover" end="arrowLeft.mouseout"/>
                  </use>
                  <path fill="none" stroke="white" stroke-width="1.5" d="M0,-3.0v7 M-2.5,-0.5L0,-3.0L2.5,-0.5"/>
                </g>
        </g>
        <svg viewBox="0 0 15 15" width="100%" height="30px" preserveAspectRatio="xMaxYMin meet">
         <g id="arrow_out" transform="scale(0.3 0.3)">
          <a xlink:href="class_render_manager_a3e54c122912e1b713b2f6357cdc370fb_cgraph_org.svg" target="_base">
           <rect id="button" ry="5" rx="5" y="6" x="6" height="38" width="38"
                fill="#f2f5e9" fill-opacity="0.5" stroke="#606060" stroke-width="1.0"/>
           <path id="arrow"
             d="M 11.500037,31.436501 C 11.940474,20.09759 22.043105,11.32322 32.158766,21.979434 L 37.068811,17.246167 C 37.068811,17.246167 37.088388,32 37.088388,32 L 22.160133,31.978069 C 22.160133,31.978069 26.997745,27.140456 26.997745,27.140456 C 18.528582,18.264221 13.291696,25.230495 11.500037,31.436501 z"
             style="fill:#404040;"/>
          </a>
         </g>
        </svg>
</svg>
