<?xml version="1.0" encoding="UTF-8" standalone="no"?>
<!DOCTYPE svg PUBLIC "-//W3C//DTD SVG 1.1//EN"
 "http://www.w3.org/Graphics/SVG/1.1/DTD/svg11.dtd">
<!-- Generated by graphviz version 2.49.3 (20211215.1918)
 -->
<!-- Title: RenderManager::createLogicalDevice Pages: 1 -->
<svg width="291pt" height="104pt"
 viewBox="0.00 0.00 291.00 104.00" xmlns="http://www.w3.org/2000/svg" xmlns:xlink="http://www.w3.org/1999/xlink">
<g id="graph0" class="graph" transform="scale(1 1) rotate(0) translate(4 100)">
<title>RenderManager::createLogicalDevice</title>
<!-- Node1 -->
<g id="node1" class="node">
<title>Node1</title>
<g id="a_node1"><a xlink:title=" ">
<polygon fill="#bfbfbf" stroke="black" points="0,-33 0,-63 148,-63 148,-33 0,-33"/>
<text text-anchor="start" x="8" y="-51" font-family="Helvetica,sans-Serif" font-size="10.00">RenderManager::createLogical</text>
<text text-anchor="middle" x="74" y="-40" font-family="Helvetica,sans-Serif" font-size="10.00">Device</text>
</a>
</g>
</g>
<!-- Node2 -->
<g id="node2" class="node">
<title>Node2</title>
<g id="a_node2"><a xlink:href="class_device.html#a2a9f19d3d5e271b7d3c300e657b44219" target="_top" xlink:title=" ">
<polygon fill="none" stroke="black" points="194.5,-76.5 194.5,-95.5 272.5,-95.5 272.5,-76.5 194.5,-76.5"/>
<text text-anchor="middle" x="233.5" y="-83.5" font-family="Helvetica,sans-Serif" font-size="10.00">Device::create</text>
</a>
</g>
</g>
<!-- Node1&#45;&gt;Node2 -->
<g id="edge1" class="edge">
<title>Node1&#45;&gt;Node2</title>
<path fill="none" stroke="midnightblue" d="M137.25,-63.02C152.9,-66.79 169.46,-70.79 184.3,-74.37"/>
<polygon fill="midnightblue" stroke="midnightblue" points="183.73,-77.83 194.27,-76.78 185.37,-71.03 183.73,-77.83"/>
</g>
<!-- Node3 -->
<g id="node3" class="node">
<title>Node3</title>
<g id="a_node3"><a xlink:href="structoptional.html#a7c9c93a03748f3024d4043b20fa8e958" target="_top" xlink:title=" ">
<polygon fill="none" stroke="black" points="184,-38.5 184,-57.5 283,-57.5 283,-38.5 184,-38.5"/>
<text text-anchor="middle" x="233.5" y="-45.5" font-family="Helvetica,sans-Serif" font-size="10.00">optional::has_value</text>
</a>
</g>
</g>
<!-- Node1&#45;&gt;Node3 -->
<g id="edge2" class="edge">
<title>Node1&#45;&gt;Node3</title>
<path fill="none" stroke="midnightblue" d="M148.22,-48C156.69,-48 165.25,-48 173.5,-48"/>
<polygon fill="midnightblue" stroke="midnightblue" points="173.75,-51.5 183.75,-48 173.75,-44.5 173.75,-51.5"/>
</g>
<!-- Node4 -->
<g id="node4" class="node">
<title>Node4</title>
<g id="a_node4"><a xlink:href="structoptional.html#a5fcd27e1ee81ffc29606ac241349f0c4" target="_top" xlink:title=" ">
<polygon fill="none" stroke="black" points="194.5,-0.5 194.5,-19.5 272.5,-19.5 272.5,-0.5 194.5,-0.5"/>
<text text-anchor="middle" x="233.5" y="-7.5" font-family="Helvetica,sans-Serif" font-size="10.00">optional::value</text>
</a>
</g>
</g>
<!-- Node1&#45;&gt;Node4 -->
<g id="edge3" class="edge">
<title>Node1&#45;&gt;Node4</title>
<path fill="none" stroke="midnightblue" d="M137.25,-32.98C152.9,-29.21 169.46,-25.21 184.3,-21.63"/>
<polygon fill="midnightblue" stroke="midnightblue" points="185.37,-24.97 194.27,-19.22 183.73,-18.17 185.37,-24.97"/>
</g>
</g>
</svg>
