<?xml version="1.0" encoding="UTF-8" standalone="no"?>
<!DOCTYPE svg PUBLIC "-//W3C//DTD SVG 1.1//EN"
 "http://www.w3.org/Graphics/SVG/1.1/DTD/svg11.dtd">
<!-- Generated by graphviz version 3.0.0 (20220413.0106)
 -->
<!-- Title: PipelineBase Pages: 1 -->
<svg width="142pt" height="332pt"
 viewBox="0.00 0.00 142.00 332.00" xmlns="http://www.w3.org/2000/svg" xmlns:xlink="http://www.w3.org/1999/xlink">
<g id="graph0" class="graph" transform="scale(1 1) rotate(0) translate(4 328)">
<title>PipelineBase</title>
<!-- Node1 -->
<g id="node1" class="node">
<title>Node1</title>
<g id="a_node1"><a xlink:title=" ">
<polygon fill="#bfbfbf" stroke="black" points="20.5,-0.5 20.5,-101.5 113.5,-101.5 113.5,-0.5 20.5,-0.5"/>
<text text-anchor="middle" x="67" y="-89.5" font-family="Helvetica,sans-Serif" font-size="10.00">PipelineBase</text>
<polyline fill="none" stroke="black" points="20.5,-82.5 113.5,-82.5 "/>
<text text-anchor="start" x="28.5" y="-70.5" font-family="Helvetica,sans-Serif" font-size="10.00"># device</text>
<text text-anchor="start" x="28.5" y="-59.5" font-family="Helvetica,sans-Serif" font-size="10.00"># layout</text>
<polyline fill="none" stroke="black" points="20.5,-52.5 113.5,-52.5 "/>
<text text-anchor="start" x="28.5" y="-40.5" font-family="Helvetica,sans-Serif" font-size="10.00">+ getDevice()</text>
<text text-anchor="start" x="28.5" y="-29.5" font-family="Helvetica,sans-Serif" font-size="10.00">+ getLayout()</text>
<text text-anchor="start" x="28.5" y="-18.5" font-family="Helvetica,sans-Serif" font-size="10.00">+ getBindPoint()</text>
<text text-anchor="start" x="28.5" y="-7.5" font-family="Helvetica,sans-Serif" font-size="10.00">+ ~PipelineBase()</text>
</a>
</g>
</g>
<!-- Node2 -->
<g id="node2" class="node">
<title>Node2</title>
<g id="a_node2"><a xlink:href="class_vulkan_class.html" target="_top" xlink:title=" ">
<polygon fill="none" stroke="black" points="0,-139.5 0,-207.5 134,-207.5 134,-139.5 0,-139.5"/>
<text text-anchor="middle" x="67" y="-195.5" font-family="Helvetica,sans-Serif" font-size="10.00">VulkanClass&lt; VkPipeline &gt;</text>
<polyline fill="none" stroke="black" points="0,-188.5 134,-188.5 "/>
<text text-anchor="start" x="8" y="-176.5" font-family="Helvetica,sans-Serif" font-size="10.00"># handle</text>
<polyline fill="none" stroke="black" points="0,-169.5 134,-169.5 "/>
<text text-anchor="start" x="8" y="-157.5" font-family="Helvetica,sans-Serif" font-size="10.00">+ getHandle()</text>
<text text-anchor="start" x="8" y="-146.5" font-family="Helvetica,sans-Serif" font-size="10.00">+ getHandlePtr()</text>
</a>
</g>
</g>
<!-- Node2&#45;&gt;Node1 -->
<g id="edge1" class="edge">
<title>Node2&#45;&gt;Node1</title>
<path fill="none" stroke="midnightblue" d="M67,-129.15C67,-120.29 67,-110.91 67,-101.84"/>
<polygon fill="none" stroke="midnightblue" points="63.5,-129.25 67,-139.25 70.5,-129.25 63.5,-129.25"/>
</g>
<!-- Node3 -->
<g id="node3" class="node">
<title>Node3</title>
<g id="a_node3"><a xlink:href="class_vulkan_class.html" target="_top" xlink:title=" ">
<polygon fill="none" stroke="black" points="20,-255.5 20,-323.5 114,-323.5 114,-255.5 20,-255.5"/>
<text text-anchor="middle" x="67" y="-311.5" font-family="Helvetica,sans-Serif" font-size="10.00">VulkanClass&lt; T &gt;</text>
<polyline fill="none" stroke="black" points="20,-304.5 114,-304.5 "/>
<text text-anchor="start" x="28" y="-292.5" font-family="Helvetica,sans-Serif" font-size="10.00"># handle</text>
<polyline fill="none" stroke="black" points="20,-285.5 114,-285.5 "/>
<text text-anchor="start" x="28" y="-273.5" font-family="Helvetica,sans-Serif" font-size="10.00">+ getHandle()</text>
<text text-anchor="start" x="28" y="-262.5" font-family="Helvetica,sans-Serif" font-size="10.00">+ getHandlePtr()</text>
</a>
</g>
</g>
<!-- Node3&#45;&gt;Node2 -->
<g id="edge2" class="edge">
<title>Node3&#45;&gt;Node2</title>
<path fill="none" stroke="orange" d="M67,-245.06C67,-232.64 67,-219.32 67,-207.62"/>
<polygon fill="orange" stroke="orange" points="63.5,-245.22 67,-255.22 70.5,-245.22 63.5,-245.22"/>
<text text-anchor="middle" x="100" y="-229" font-family="Helvetica,sans-Serif" font-size="10.00"> &lt; VkPipeline &gt;</text>
</g>
</g>
</svg>
