<?xml version="1.0" encoding="UTF-8" standalone="no"?>
<!DOCTYPE svg PUBLIC "-//W3C//DTD SVG 1.1//EN"
 "http://www.w3.org/Graphics/SVG/1.1/DTD/svg11.dtd">
<!-- Generated by graphviz version 2.49.3 (20211215.1918)
 -->
<!-- Title: UIDrawable Pages: 1 -->
<svg width="97pt" height="204pt"
 viewBox="0.00 0.00 97.00 204.00" xmlns="http://www.w3.org/2000/svg" xmlns:xlink="http://www.w3.org/1999/xlink">
<g id="graph0" class="graph" transform="scale(1 1) rotate(0) translate(4 200)">
<title>UIDrawable</title>
<!-- Node1 -->
<g id="node1" class="node">
<title>Node1</title>
<g id="a_node1"><a xlink:title=" ">
<polygon fill="#bfbfbf" stroke="black" points="1,-127.5 1,-195.5 88,-195.5 88,-127.5 1,-127.5"/>
<text text-anchor="middle" x="44.5" y="-183.5" font-family="Helvetica,sans-Serif" font-size="10.00">UIDrawable</text>
<polyline fill="none" stroke="black" points="1,-176.5 88,-176.5 "/>
<text text-anchor="middle" x="44.5" y="-164.5" font-family="Helvetica,sans-Serif" font-size="10.00"> </text>
<polyline fill="none" stroke="black" points="1,-157.5 88,-157.5 "/>
<text text-anchor="start" x="9" y="-145.5" font-family="Helvetica,sans-Serif" font-size="10.00">+ drawUI()</text>
<text text-anchor="start" x="9" y="-134.5" font-family="Helvetica,sans-Serif" font-size="10.00">+ ~UIDrawable()</text>
</a>
</g>
</g>
<!-- Node2 -->
<g id="node2" class="node">
<title>Node2</title>
<g id="a_node2"><a xlink:href="class_object_properties.html" target="_top" xlink:title=" ">
<polygon fill="none" stroke="black" points="0,-0.5 0,-90.5 89,-90.5 89,-0.5 0,-0.5"/>
<text text-anchor="middle" x="44.5" y="-78.5" font-family="Helvetica,sans-Serif" font-size="10.00">ObjectProperties</text>
<polyline fill="none" stroke="black" points="0,-71.5 89,-71.5 "/>
<text text-anchor="start" x="8" y="-59.5" font-family="Helvetica,sans-Serif" font-size="10.00">&#45; scene</text>
<text text-anchor="start" x="8" y="-48.5" font-family="Helvetica,sans-Serif" font-size="10.00">&#45; objectID</text>
<polyline fill="none" stroke="black" points="0,-41.5 89,-41.5 "/>
<text text-anchor="start" x="8" y="-29.5" font-family="Helvetica,sans-Serif" font-size="10.00">+ setObjectID()</text>
<text text-anchor="start" x="8" y="-18.5" font-family="Helvetica,sans-Serif" font-size="10.00">+ drawUI()</text>
<text text-anchor="start" x="8" y="-7.5" font-family="Helvetica,sans-Serif" font-size="10.00">+ create()</text>
</a>
</g>
</g>
<!-- Node1&#45;&gt;Node2 -->
<g id="edge1" class="edge">
<title>Node1&#45;&gt;Node2</title>
<path fill="none" stroke="midnightblue" d="M44.5,-116.97C44.5,-108.35 44.5,-99.28 44.5,-90.64"/>
<polygon fill="none" stroke="midnightblue" points="41,-117.22 44.5,-127.22 48,-117.22 41,-117.22"/>
</g>
</g>
</svg>
