<?xml version="1.0" encoding="UTF-8" standalone="no"?>
<!DOCTYPE svg PUBLIC "-//W3C//DTD SVG 1.1//EN"
 "http://www.w3.org/Graphics/SVG/1.1/DTD/svg11.dtd">
<!-- Generated by graphviz version 2.50.0 (20220203.2022)
 -->
<!-- Title: DescriptorSetLayout::create Pages: 1 -->
<svg width="663pt" height="259pt"
 viewBox="0.00 0.00 663.00 258.50" xmlns="http://www.w3.org/2000/svg" xmlns:xlink="http://www.w3.org/1999/xlink">
<g id="graph0" class="graph" transform="scale(1 1) rotate(0) translate(4 254.5)">
<title>DescriptorSetLayout::create</title>
<!-- Node1 -->
<g id="node1" class="node">
<title>Node1</title>
<g id="a_node1"><a xlink:title=" ">
<polygon fill="#bfbfbf" stroke="black" points="550,-88 550,-118 655,-118 655,-88 550,-88"/>
<text text-anchor="start" x="558" y="-106" font-family="Helvetica,sans-Serif" font-size="10.00">DescriptorSetLayout</text>
<text text-anchor="middle" x="602.5" y="-95" font-family="Helvetica,sans-Serif" font-size="10.00">::create</text>
</a>
</g>
</g>
<!-- Node2 -->
<g id="node2" class="node">
<title>Node2</title>
<g id="a_node2"><a xlink:href="class_scene.html#a26c330284ae1b40d737ac9360cfc61e3" target="_top" xlink:title=" ">
<polygon fill="none" stroke="black" points="407.5,-137.5 407.5,-156.5 483.5,-156.5 483.5,-137.5 407.5,-137.5"/>
<text text-anchor="middle" x="445.5" y="-144.5" font-family="Helvetica,sans-Serif" font-size="10.00">Scene::create</text>
</a>
</g>
</g>
<!-- Node1&#45;&gt;Node2 -->
<g id="edge1" class="edge">
<title>Node1&#45;&gt;Node2</title>
<path fill="none" stroke="midnightblue" d="M539.95,-120.62C531.24,-123.1 522.39,-125.62 514,-128 503.11,-131.09 491.22,-134.44 480.5,-137.46"/>
<polygon fill="midnightblue" stroke="midnightblue" points="541.03,-123.95 549.69,-117.84 539.11,-117.22 541.03,-123.95"/>
</g>
<!-- Node7 -->
<g id="node7" class="node">
<title>Node7</title>
<g id="a_node7"><a xlink:href="class_mandelbrot_app.html#ad39f5d4e818aad391acc59fe1f3b0896" target="_top" xlink:title=" ">
<polygon fill="none" stroke="black" points="183,-220 183,-250 341,-250 341,-220 183,-220"/>
<text text-anchor="start" x="191" y="-238" font-family="Helvetica,sans-Serif" font-size="10.00">MandelbrotApp::createDescriptor</text>
<text text-anchor="middle" x="262" y="-227" font-family="Helvetica,sans-Serif" font-size="10.00">SetLayouts</text>
</a>
</g>
</g>
<!-- Node1&#45;&gt;Node7 -->
<g id="edge6" class="edge">
<title>Node1&#45;&gt;Node7</title>
<path fill="none" stroke="midnightblue" d="M576.45,-124.75C559.73,-138.29 536.72,-155.13 514,-166 458.86,-192.37 391.92,-210.14 341.05,-221.03"/>
<polygon fill="midnightblue" stroke="midnightblue" points="579.11,-127.09 584.58,-118.02 574.64,-121.7 579.11,-127.09"/>
</g>
<!-- Node8 -->
<g id="node8" class="node">
<title>Node8</title>
<g id="a_node8"><a xlink:href="class_render_manager.html#a45a6fffe5f74da37695476732b53d33b" target="_top" xlink:title=" ">
<polygon fill="none" stroke="black" points="377,-88 377,-118 514,-118 514,-88 377,-88"/>
<text text-anchor="start" x="385" y="-106" font-family="Helvetica,sans-Serif" font-size="10.00">RenderManager::createPost</text>
<text text-anchor="middle" x="445.5" y="-95" font-family="Helvetica,sans-Serif" font-size="10.00">ProcessingPipelines</text>
</a>
</g>
</g>
<!-- Node1&#45;&gt;Node8 -->
<g id="edge8" class="edge">
<title>Node1&#45;&gt;Node8</title>
<path fill="none" stroke="midnightblue" d="M539.77,-103C531.35,-103 522.68,-103 514.16,-103"/>
<polygon fill="midnightblue" stroke="midnightblue" points="539.89,-106.5 549.89,-103 539.89,-99.5 539.89,-106.5"/>
</g>
<!-- Node11 -->
<g id="node11" class="node">
<title>Node11</title>
<g id="a_node11"><a xlink:href="class_master_material.html#a0994f648f9a890366d6785bc645859ae" target="_top" xlink:title=" ">
<polygon fill="none" stroke="black" points="384,-39 384,-69 507,-69 507,-39 384,-39"/>
<text text-anchor="start" x="392" y="-57" font-family="Helvetica,sans-Serif" font-size="10.00">MasterMaterial::generate</text>
<text text-anchor="middle" x="445.5" y="-46" font-family="Helvetica,sans-Serif" font-size="10.00">MaterialSetLayout</text>
</a>
</g>
</g>
<!-- Node1&#45;&gt;Node11 -->
<g id="edge12" class="edge">
<title>Node1&#45;&gt;Node11</title>
<path fill="none" stroke="midnightblue" d="M543.74,-84.74C527.39,-79.57 509.79,-74.01 494.11,-69.05"/>
<polygon fill="midnightblue" stroke="midnightblue" points="543.14,-88.22 553.73,-87.9 545.25,-81.55 543.14,-88.22"/>
</g>
<!-- Node12 -->
<g id="node12" class="node">
<title>Node12</title>
<g id="a_node12"><a xlink:href="vulkan__voxel__rasterizer_8cpp.html#ae66f6b31b5ad750f1fe042a706a4e3d4" target="_top" xlink:title=" ">
<polygon fill="none" stroke="black" points="426.5,-0.5 426.5,-19.5 464.5,-19.5 464.5,-0.5 426.5,-0.5"/>
<text text-anchor="middle" x="445.5" y="-7.5" font-family="Helvetica,sans-Serif" font-size="10.00">main</text>
</a>
</g>
</g>
<!-- Node1&#45;&gt;Node12 -->
<g id="edge13" class="edge">
<title>Node1&#45;&gt;Node12</title>
<path fill="none" stroke="midnightblue" d="M580.42,-80.6C563.81,-64.16 539.29,-42.43 514,-29 498.41,-20.72 478.83,-15.72 464.77,-12.95"/>
<polygon fill="midnightblue" stroke="midnightblue" points="577.96,-83.08 587.48,-87.74 582.93,-78.16 577.96,-83.08"/>
</g>
<!-- Node3 -->
<g id="node3" class="node">
<title>Node3</title>
<g id="a_node3"><a xlink:href="class_mandelbrot_app.html#a9adbc757b127cc20ef8fe983bd29ebbb" target="_top" xlink:title=" ">
<polygon fill="none" stroke="black" points="191.5,-181.5 191.5,-200.5 332.5,-200.5 332.5,-181.5 191.5,-181.5"/>
<text text-anchor="middle" x="262" y="-188.5" font-family="Helvetica,sans-Serif" font-size="10.00">MandelbrotApp::createScene</text>
</a>
</g>
</g>
<!-- Node2&#45;&gt;Node3 -->
<g id="edge2" class="edge">
<title>Node2&#45;&gt;Node3</title>
<path fill="none" stroke="midnightblue" d="M397.26,-158.45C367.75,-165.61 330.2,-174.71 302.32,-181.47"/>
<polygon fill="midnightblue" stroke="midnightblue" points="398.44,-161.77 407.33,-156.01 396.79,-154.96 398.44,-161.77"/>
</g>
<!-- Node5 -->
<g id="node5" class="node">
<title>Node5</title>
<g id="a_node5"><a xlink:href="class_render_manager.html#a34e5f071f12097fbc5e950651dcce086" target="_top" xlink:title=" ">
<polygon fill="none" stroke="black" points="190,-132 190,-162 334,-162 334,-132 190,-132"/>
<text text-anchor="start" x="198" y="-150" font-family="Helvetica,sans-Serif" font-size="10.00">RenderManager::createScene</text>
<text text-anchor="middle" x="262" y="-139" font-family="Helvetica,sans-Serif" font-size="10.00">Objects</text>
</a>
</g>
</g>
<!-- Node2&#45;&gt;Node5 -->
<g id="edge4" class="edge">
<title>Node2&#45;&gt;Node5</title>
<path fill="none" stroke="midnightblue" d="M397.32,-147C378.09,-147 355.43,-147 334.25,-147"/>
<polygon fill="midnightblue" stroke="midnightblue" points="397.33,-150.5 407.33,-147 397.33,-143.5 397.33,-150.5"/>
</g>
<!-- Node4 -->
<g id="node4" class="node">
<title>Node4</title>
<g id="a_node4"><a xlink:href="class_mandelbrot_app.html#ad5c4a7e7fd79bc75fea87df0165005b6" target="_top" xlink:title=" ">
<polygon fill="none" stroke="black" points="9,-190.5 9,-209.5 138,-209.5 138,-190.5 9,-190.5"/>
<text text-anchor="middle" x="73.5" y="-197.5" font-family="Helvetica,sans-Serif" font-size="10.00">MandelbrotApp::initVulkan</text>
</a>
</g>
</g>
<!-- Node3&#45;&gt;Node4 -->
<g id="edge3" class="edge">
<title>Node3&#45;&gt;Node4</title>
<path fill="none" stroke="midnightblue" d="M180.99,-194.86C166.72,-195.55 152.02,-196.26 138.28,-196.92"/>
<polygon fill="midnightblue" stroke="midnightblue" points="181.47,-198.34 191.29,-194.36 181.13,-191.35 181.47,-198.34"/>
</g>
<!-- Node6 -->
<g id="node6" class="node">
<title>Node6</title>
<g id="a_node6"><a xlink:href="class_render_manager.html#a2f5991e4b82925a2571e6fabf1e8b7b9" target="_top" xlink:title=" ">
<polygon fill="none" stroke="black" points="0,-122 0,-152 147,-152 147,-122 0,-122"/>
<text text-anchor="start" x="8" y="-140" font-family="Helvetica,sans-Serif" font-size="10.00">RenderManager::createRender</text>
<text text-anchor="middle" x="73.5" y="-129" font-family="Helvetica,sans-Serif" font-size="10.00">Objects</text>
</a>
</g>
</g>
<!-- Node5&#45;&gt;Node6 -->
<g id="edge5" class="edge">
<title>Node5&#45;&gt;Node6</title>
<path fill="none" stroke="midnightblue" d="M179.68,-142.64C168.87,-142.06 157.85,-141.47 147.2,-140.9"/>
<polygon fill="midnightblue" stroke="midnightblue" points="179.79,-146.15 189.96,-143.19 180.16,-139.16 179.79,-146.15"/>
</g>
<!-- Node7&#45;&gt;Node4 -->
<g id="edge7" class="edge">
<title>Node7&#45;&gt;Node4</title>
<path fill="none" stroke="midnightblue" d="M172.89,-218.46C156.6,-215.41 140.1,-212.31 125.38,-209.55"/>
<polygon fill="midnightblue" stroke="midnightblue" points="172.51,-221.96 182.99,-220.36 173.8,-215.08 172.51,-221.96"/>
</g>
<!-- Node8&#45;&gt;Node6 -->
<g id="edge9" class="edge">
<title>Node8&#45;&gt;Node6</title>
<path fill="none" stroke="midnightblue" d="M366.79,-107.88C314.73,-111.41 244.68,-116.67 183,-123 171.38,-124.19 159.08,-125.62 147.1,-127.1"/>
<polygon fill="midnightblue" stroke="midnightblue" points="367.22,-111.36 376.96,-107.2 366.75,-104.38 367.22,-111.36"/>
</g>
<!-- Node9 -->
<g id="node9" class="node">
<title>Node9</title>
<g id="a_node9"><a xlink:href="class_render_manager.html#a3e54c122912e1b713b2f6357cdc370fb" target="_top" xlink:title=" ">
<polygon fill="none" stroke="black" points="187.5,-44 187.5,-74 336.5,-74 336.5,-44 187.5,-44"/>
<text text-anchor="start" x="195.5" y="-62" font-family="Helvetica,sans-Serif" font-size="10.00">RenderManager::recreateSwap</text>
<text text-anchor="middle" x="262" y="-51" font-family="Helvetica,sans-Serif" font-size="10.00">Chain</text>
</a>
</g>
</g>
<!-- Node8&#45;&gt;Node9 -->
<g id="edge10" class="edge">
<title>Node8&#45;&gt;Node9</title>
<path fill="none" stroke="midnightblue" d="M372.82,-85.62C357,-81.79 340.38,-77.76 324.98,-74.03"/>
<polygon fill="midnightblue" stroke="midnightblue" points="372,-89.03 382.55,-87.98 373.65,-82.22 372,-89.03"/>
</g>
<!-- Node10 -->
<g id="node10" class="node">
<title>Node10</title>
<g id="a_node10"><a xlink:href="class_render_manager.html#ab087dc4ee1c6e377ca52ee44d1591c29" target="_top" xlink:title=" ">
<polygon fill="none" stroke="black" points="3.5,-44 3.5,-74 143.5,-74 143.5,-44 3.5,-44"/>
<text text-anchor="start" x="11.5" y="-62" font-family="Helvetica,sans-Serif" font-size="10.00">RenderManager::resizeSwap</text>
<text text-anchor="middle" x="73.5" y="-51" font-family="Helvetica,sans-Serif" font-size="10.00">Chain</text>
</a>
</g>
</g>
<!-- Node9&#45;&gt;Node10 -->
<g id="edge11" class="edge">
<title>Node9&#45;&gt;Node10</title>
<path fill="none" stroke="midnightblue" d="M177.11,-59C165.95,-59 154.6,-59 143.73,-59"/>
<polygon fill="midnightblue" stroke="midnightblue" points="177.29,-62.5 187.29,-59 177.29,-55.5 177.29,-62.5"/>
</g>
</g>
</svg>
