<?xml version="1.0" encoding="UTF-8" standalone="no"?>
<!DOCTYPE svg PUBLIC "-//W3C//DTD SVG 1.1//EN"
 "http://www.w3.org/Graphics/SVG/1.1/DTD/svg11.dtd">
<!-- Generated by graphviz version 2.49.3 (20211027.1501)
 -->
<!-- Title: QueueFamilyHandler::queryPresetSupport Pages: 1 -->
<svg width="271pt" height="66pt"
 viewBox="0.00 0.00 271.00 66.00" xmlns="http://www.w3.org/2000/svg" xmlns:xlink="http://www.w3.org/1999/xlink">
<g id="graph0" class="graph" transform="scale(1 1) rotate(0) translate(4 62)">
<title>QueueFamilyHandler::queryPresetSupport</title>
<!-- Node1 -->
<g id="node1" class="node">
<title>Node1</title>
<g id="a_node1"><a xlink:title=" ">
<polygon fill="#bfbfbf" stroke="black" points="0,-14 0,-44 107,-44 107,-14 0,-14"/>
<text text-anchor="start" x="8" y="-32" font-family="Helvetica,sans-Serif" font-size="10.00">QueueFamilyHandler</text>
<text text-anchor="middle" x="53.5" y="-21" font-family="Helvetica,sans-Serif" font-size="10.00">::queryPresetSupport</text>
</a>
</g>
</g>
<!-- Node2 -->
<g id="node2" class="node">
<title>Node2</title>
<g id="a_node2"><a xlink:href="class_vulkan_class.html#a914c142e905262efbd473aeb5bdfb0e8" target="_top" xlink:title=" ">
<polygon fill="none" stroke="black" points="143,-38.5 143,-57.5 263,-57.5 263,-38.5 143,-38.5"/>
<text text-anchor="middle" x="203" y="-45.5" font-family="Helvetica,sans-Serif" font-size="10.00">VulkanClass::getHandle</text>
</a>
</g>
</g>
<!-- Node1&#45;&gt;Node2 -->
<g id="edge1" class="edge">
<title>Node1&#45;&gt;Node2</title>
<path fill="none" stroke="midnightblue" d="M107.33,-35.81C115.59,-36.87 124.23,-37.98 132.79,-39.08"/>
<polygon fill="midnightblue" stroke="midnightblue" points="132.41,-42.56 142.77,-40.37 133.3,-35.62 132.41,-42.56"/>
</g>
<!-- Node3 -->
<g id="node3" class="node">
<title>Node3</title>
<g id="a_node3"><a xlink:href="class_window.html#a3b44ad706b5a6ad04b3d50df68c4d832" target="_top" xlink:title=" ">
<polygon fill="none" stroke="black" points="151.5,-0.5 151.5,-19.5 254.5,-19.5 254.5,-0.5 151.5,-0.5"/>
<text text-anchor="middle" x="203" y="-7.5" font-family="Helvetica,sans-Serif" font-size="10.00">Window::getSurface</text>
</a>
</g>
</g>
<!-- Node1&#45;&gt;Node3 -->
<g id="edge2" class="edge">
<title>Node1&#45;&gt;Node3</title>
<path fill="none" stroke="midnightblue" d="M107.33,-22.19C118.22,-20.79 129.77,-19.3 140.92,-17.87"/>
<polygon fill="midnightblue" stroke="midnightblue" points="141.55,-21.32 151.02,-16.57 140.65,-14.37 141.55,-21.32"/>
</g>
</g>
</svg>
