<?xml version="1.0" encoding="UTF-8" standalone="no"?>
<!DOCTYPE svg PUBLIC "-//W3C//DTD SVG 1.1//EN"
 "http://www.w3.org/Graphics/SVG/1.1/DTD/svg11.dtd">
<!-- Generated by graphviz version 2.49.3 (20211215.1918)
 -->
<!-- Title: MasterMaterial::updateDescriptorSetLayouts Pages: 1 -->
<svg width="516pt" height="72pt"
 viewBox="0.00 0.00 516.00 71.50" xmlns="http://www.w3.org/2000/svg" xmlns:xlink="http://www.w3.org/1999/xlink">
<g id="graph0" class="graph" transform="scale(1 1) rotate(0) translate(4 67.5)">
<title>MasterMaterial::updateDescriptorSetLayouts</title>
<!-- Node1 -->
<g id="node1" class="node">
<title>Node1</title>
<g id="a_node1"><a xlink:title=" ">
<polygon fill="#bfbfbf" stroke="black" points="0,-19.5 0,-49.5 159,-49.5 159,-19.5 0,-19.5"/>
<text text-anchor="start" x="8" y="-37.5" font-family="Helvetica,sans-Serif" font-size="10.00">MasterMaterial::updateDescriptor</text>
<text text-anchor="middle" x="79.5" y="-26.5" font-family="Helvetica,sans-Serif" font-size="10.00">SetLayouts</text>
</a>
</g>
</g>
<!-- Node2 -->
<g id="node2" class="node">
<title>Node2</title>
<g id="a_node2"><a xlink:href="class_graphics_pipeline.html#acb06ca288b571854912f180ba41c05ed" target="_top" xlink:title=" ">
<polygon fill="none" stroke="black" points="195,-44 195,-63 317,-63 317,-44 195,-44"/>
<text text-anchor="middle" x="256" y="-51" font-family="Helvetica,sans-Serif" font-size="10.00">GraphicsPipeline::create</text>
</a>
</g>
</g>
<!-- Node1&#45;&gt;Node2 -->
<g id="edge1" class="edge">
<title>Node1&#45;&gt;Node2</title>
<path fill="none" stroke="midnightblue" d="M159.07,-43.06C167.63,-43.99 176.29,-44.93 184.74,-45.85"/>
<polygon fill="midnightblue" stroke="midnightblue" points="184.59,-49.35 194.91,-46.96 185.34,-42.39 184.59,-49.35"/>
</g>
<!-- Node3 -->
<g id="node3" class="node">
<title>Node3</title>
<g id="a_node3"><a xlink:href="class_pipeline_layout.html#ab31235616dfb75c9dba21610bd65773d" target="_top" xlink:title=" ">
<polygon fill="none" stroke="black" points="200,-6 200,-25 312,-25 312,-6 200,-6"/>
<text text-anchor="middle" x="256" y="-13" font-family="Helvetica,sans-Serif" font-size="10.00">PipelineLayout::create</text>
</a>
</g>
</g>
<!-- Node1&#45;&gt;Node3 -->
<g id="edge2" class="edge">
<title>Node1&#45;&gt;Node3</title>
<path fill="none" stroke="midnightblue" d="M159.07,-25.94C169.28,-24.83 179.64,-23.71 189.6,-22.62"/>
<polygon fill="midnightblue" stroke="midnightblue" points="190.25,-26.07 199.81,-21.51 189.49,-19.11 190.25,-26.07"/>
</g>
<!-- Node4 -->
<g id="node4" class="node">
<title>Node4</title>
<g id="a_node4"><a xlink:href="class_vulkan_class.html#a914c142e905262efbd473aeb5bdfb0e8" target="_top" xlink:title=" ">
<polygon fill="none" stroke="black" points="353,-0.5 353,-30.5 508,-30.5 508,-0.5 353,-0.5"/>
<text text-anchor="start" x="361" y="-18.5" font-family="Helvetica,sans-Serif" font-size="10.00">VulkanClass&lt; VkPipelineLayout</text>
<text text-anchor="middle" x="430.5" y="-7.5" font-family="Helvetica,sans-Serif" font-size="10.00"> &gt;::getHandle</text>
</a>
</g>
</g>
<!-- Node3&#45;&gt;Node4 -->
<g id="edge3" class="edge">
<title>Node3&#45;&gt;Node4</title>
<path fill="none" stroke="midnightblue" d="M312.05,-15.5C321.92,-15.5 332.41,-15.5 342.91,-15.5"/>
<polygon fill="midnightblue" stroke="midnightblue" points="342.96,-19 352.96,-15.5 342.96,-12 342.96,-19"/>
</g>
</g>
</svg>
