<?xml version="1.0" encoding="UTF-8" standalone="no"?>
<!DOCTYPE svg PUBLIC "-//W3C//DTD SVG 1.1//EN"
 "http://www.w3.org/Graphics/SVG/1.1/DTD/svg11.dtd">
<!-- Generated by graphviz version 2.49.3 (20211215.1918)
 -->
<!-- Title: DescriptorSetLayout::create Pages: 1 -->
<svg width="584pt" height="109pt"
 viewBox="0.00 0.00 584.00 109.00" xmlns="http://www.w3.org/2000/svg" xmlns:xlink="http://www.w3.org/1999/xlink">
<g id="graph0" class="graph" transform="scale(1 1) rotate(0) translate(4 105)">
<title>DescriptorSetLayout::create</title>
<!-- Node1 -->
<g id="node1" class="node">
<title>Node1</title>
<g id="a_node1"><a xlink:title=" ">
<polygon fill="#bfbfbf" stroke="black" points="471,-33 471,-63 576,-63 576,-33 471,-33"/>
<text text-anchor="start" x="479" y="-51" font-family="Helvetica,sans-Serif" font-size="10.00">DescriptorSetLayout</text>
<text text-anchor="middle" x="523.5" y="-40" font-family="Helvetica,sans-Serif" font-size="10.00">::create</text>
</a>
</g>
</g>
<!-- Node2 -->
<g id="node2" class="node">
<title>Node2</title>
<g id="a_node2"><a xlink:href="class_scene.html#aaa7e7f381899c591f4e19fb7c88685e7" target="_top" xlink:title=" ">
<polygon fill="none" stroke="black" points="359,-79.5 359,-98.5 435,-98.5 435,-79.5 359,-79.5"/>
<text text-anchor="middle" x="397" y="-86.5" font-family="Helvetica,sans-Serif" font-size="10.00">Scene::create</text>
</a>
</g>
</g>
<!-- Node1&#45;&gt;Node2 -->
<g id="edge1" class="edge">
<title>Node1&#45;&gt;Node2</title>
<path fill="none" stroke="midnightblue" d="M467.33,-66.17C453.43,-70.75 439.05,-75.48 427.01,-79.45"/>
<polygon fill="midnightblue" stroke="midnightblue" points="468.44,-69.49 476.85,-63.03 466.25,-62.84 468.44,-69.49"/>
</g>
<!-- Node5 -->
<g id="node5" class="node">
<title>Node5</title>
<g id="a_node5"><a xlink:href="class_mandelbrot_app.html#ad39f5d4e818aad391acc59fe1f3b0896" target="_top" xlink:title=" ">
<polygon fill="none" stroke="black" points="165,-32 165,-62 323,-62 323,-32 165,-32"/>
<text text-anchor="start" x="173" y="-50" font-family="Helvetica,sans-Serif" font-size="10.00">MandelbrotApp::createDescriptor</text>
<text text-anchor="middle" x="244" y="-39" font-family="Helvetica,sans-Serif" font-size="10.00">SetLayouts</text>
</a>
</g>
</g>
<!-- Node1&#45;&gt;Node5 -->
<g id="edge4" class="edge">
<title>Node1&#45;&gt;Node5</title>
<path fill="none" stroke="midnightblue" d="M460.91,-47.78C420.26,-47.63 366.65,-47.44 323.02,-47.28"/>
<polygon fill="midnightblue" stroke="midnightblue" points="460.94,-51.28 470.95,-47.81 460.97,-44.28 460.94,-51.28"/>
</g>
<!-- Node6 -->
<g id="node6" class="node">
<title>Node6</title>
<g id="a_node6"><a xlink:href="vulkan__voxel__rasterizer_8cpp.html#ae66f6b31b5ad750f1fe042a706a4e3d4" target="_top" xlink:title=" ">
<polygon fill="none" stroke="black" points="378,-0.5 378,-19.5 416,-19.5 416,-0.5 378,-0.5"/>
<text text-anchor="middle" x="397" y="-7.5" font-family="Helvetica,sans-Serif" font-size="10.00">main</text>
</a>
</g>
</g>
<!-- Node1&#45;&gt;Node6 -->
<g id="edge6" class="edge">
<title>Node1&#45;&gt;Node6</title>
<path fill="none" stroke="midnightblue" d="M463.28,-29.92C446.14,-24.69 428.69,-19.37 416.15,-15.54"/>
<polygon fill="midnightblue" stroke="midnightblue" points="462.71,-33.41 473.29,-32.98 464.75,-26.71 462.71,-33.41"/>
</g>
<!-- Node3 -->
<g id="node3" class="node">
<title>Node3</title>
<g id="a_node3"><a xlink:href="class_mandelbrot_app.html#a9adbc757b127cc20ef8fe983bd29ebbb" target="_top" xlink:title=" ">
<polygon fill="none" stroke="black" points="173.5,-81.5 173.5,-100.5 314.5,-100.5 314.5,-81.5 173.5,-81.5"/>
<text text-anchor="middle" x="244" y="-88.5" font-family="Helvetica,sans-Serif" font-size="10.00">MandelbrotApp::createScene</text>
</a>
</g>
</g>
<!-- Node2&#45;&gt;Node3 -->
<g id="edge2" class="edge">
<title>Node2&#45;&gt;Node3</title>
<path fill="none" stroke="midnightblue" d="M348.62,-89.63C337.81,-89.77 326.1,-89.93 314.58,-90.08"/>
<polygon fill="midnightblue" stroke="midnightblue" points="348.72,-93.13 358.67,-89.49 348.63,-86.13 348.72,-93.13"/>
</g>
<!-- Node4 -->
<g id="node4" class="node">
<title>Node4</title>
<g id="a_node4"><a xlink:href="class_mandelbrot_app.html#ad5c4a7e7fd79bc75fea87df0165005b6" target="_top" xlink:title=" ">
<polygon fill="none" stroke="black" points="0,-59.5 0,-78.5 129,-78.5 129,-59.5 0,-59.5"/>
<text text-anchor="middle" x="64.5" y="-66.5" font-family="Helvetica,sans-Serif" font-size="10.00">MandelbrotApp::initVulkan</text>
</a>
</g>
</g>
<!-- Node3&#45;&gt;Node4 -->
<g id="edge3" class="edge">
<title>Node3&#45;&gt;Node4</title>
<path fill="none" stroke="midnightblue" d="M163.36,-81.13C151.91,-79.71 140.25,-78.26 129.16,-76.89"/>
<polygon fill="midnightblue" stroke="midnightblue" points="163,-84.61 173.36,-82.37 163.86,-77.66 163,-84.61"/>
</g>
<!-- Node5&#45;&gt;Node4 -->
<g id="edge5" class="edge">
<title>Node5&#45;&gt;Node4</title>
<path fill="none" stroke="midnightblue" d="M154.8,-57.93C146.19,-59 137.57,-60.07 129.27,-61.1"/>
<polygon fill="midnightblue" stroke="midnightblue" points="155.39,-61.39 164.89,-56.68 154.53,-54.44 155.39,-61.39"/>
</g>
</g>
</svg>
