<?xml version="1.0" encoding="UTF-8" standalone="no"?>
<!DOCTYPE svg PUBLIC "-//W3C//DTD SVG 1.1//EN"
 "http://www.w3.org/Graphics/SVG/1.1/DTD/svg11.dtd">
<!-- Generated by graphviz version 2.49.3 (20211215.1918)
 -->
<!-- Title: DescriptorPoolManager::allocate Pages: 1 -->
<svg width="428pt" height="78pt"
 viewBox="0.00 0.00 428.00 77.50" xmlns="http://www.w3.org/2000/svg" xmlns:xlink="http://www.w3.org/1999/xlink">
<g id="graph0" class="graph" transform="scale(1 1) rotate(0) translate(4 73.5)">
<title>DescriptorPoolManager::allocate</title>
<!-- Node1 -->
<g id="node1" class="node">
<title>Node1</title>
<g id="a_node1"><a xlink:title=" ">
<polygon fill="#bfbfbf" stroke="black" points="0,-22.5 0,-52.5 118,-52.5 118,-22.5 0,-22.5"/>
<text text-anchor="start" x="8" y="-40.5" font-family="Helvetica,sans-Serif" font-size="10.00">DescriptorPoolManager</text>
<text text-anchor="middle" x="59" y="-29.5" font-family="Helvetica,sans-Serif" font-size="10.00">::allocate</text>
</a>
</g>
</g>
<!-- Node2 -->
<g id="node2" class="node">
<title>Node2</title>
<g id="a_node2"><a xlink:href="class_descriptor_set.html#a67313affadff97f5121a39a3e196ddb1" target="_top" xlink:title=" ">
<polygon fill="none" stroke="black" points="159.5,-50 159.5,-69 266.5,-69 266.5,-50 159.5,-50"/>
<text text-anchor="middle" x="213" y="-57" font-family="Helvetica,sans-Serif" font-size="10.00">DescriptorSet::create</text>
</a>
</g>
</g>
<!-- Node1&#45;&gt;Node2 -->
<g id="edge1" class="edge">
<title>Node1&#45;&gt;Node2</title>
<path fill="none" stroke="midnightblue" d="M118.33,-45.94C128.38,-47.4 138.86,-48.91 149.02,-50.39"/>
<polygon fill="midnightblue" stroke="midnightblue" points="148.65,-53.87 159.05,-51.84 149.66,-46.94 148.65,-53.87"/>
</g>
<!-- Node3 -->
<g id="node3" class="node">
<title>Node3</title>
<g id="a_node3"><a xlink:href="class_descriptor_pool_manager.html#a1b63c77b3534248db0e83263d5d31b3c" target="_top" xlink:title=" ">
<polygon fill="none" stroke="black" points="154,-0.5 154,-30.5 272,-30.5 272,-0.5 154,-0.5"/>
<text text-anchor="start" x="162" y="-18.5" font-family="Helvetica,sans-Serif" font-size="10.00">DescriptorPoolManager</text>
<text text-anchor="middle" x="213" y="-7.5" font-family="Helvetica,sans-Serif" font-size="10.00">::grabPool</text>
</a>
</g>
</g>
<!-- Node1&#45;&gt;Node3 -->
<g id="edge2" class="edge">
<title>Node1&#45;&gt;Node3</title>
<path fill="none" stroke="midnightblue" d="M118.33,-29.06C126.7,-27.85 135.36,-26.59 143.9,-25.36"/>
<polygon fill="midnightblue" stroke="midnightblue" points="144.43,-28.82 153.82,-23.92 143.43,-21.89 144.43,-28.82"/>
</g>
<!-- Node4 -->
<g id="node4" class="node">
<title>Node4</title>
<g id="a_node4"><a xlink:href="class_descriptor_pool.html#a190f2272d8740c7f7fe13b5b8fb8326c" target="_top" xlink:title=" ">
<polygon fill="none" stroke="black" points="308,-6 308,-25 420,-25 420,-6 308,-6"/>
<text text-anchor="middle" x="364" y="-13" font-family="Helvetica,sans-Serif" font-size="10.00">DescriptorPool::create</text>
</a>
</g>
</g>
<!-- Node3&#45;&gt;Node4 -->
<g id="edge3" class="edge">
<title>Node3&#45;&gt;Node4</title>
<path fill="none" stroke="midnightblue" d="M272.03,-15.5C280.4,-15.5 289.06,-15.5 297.55,-15.5"/>
<polygon fill="midnightblue" stroke="midnightblue" points="297.81,-19 307.81,-15.5 297.81,-12 297.81,-19"/>
</g>
</g>
</svg>
