<?xml version="1.0" encoding="UTF-8" standalone="no"?>
<!DOCTYPE svg PUBLIC "-//W3C//DTD SVG 1.1//EN"
 "http://www.w3.org/Graphics/SVG/1.1/DTD/svg11.dtd">
<!-- Generated by graphviz version 3.0.0 (20220413.0106)
 -->
<!-- Title: TextureLibrary::create Pages: 1 -->
<svg width="481pt" height="78pt"
 viewBox="0.00 0.00 481.00 77.50" xmlns="http://www.w3.org/2000/svg" xmlns:xlink="http://www.w3.org/1999/xlink">
<g id="graph0" class="graph" transform="scale(1 1) rotate(0) translate(4 73.5)">
<title>TextureLibrary::create</title>
<!-- Node1 -->
<g id="node1" class="node">
<title>Node1</title>
<g id="a_node1"><a xlink:title=" ">
<polygon fill="#bfbfbf" stroke="black" points="363,-22.5 363,-41.5 473,-41.5 473,-22.5 363,-22.5"/>
<text text-anchor="middle" x="418" y="-29.5" font-family="Helvetica,sans-Serif" font-size="10.00">TextureLibrary::create</text>
</a>
</g>
</g>
<!-- Node2 -->
<g id="node2" class="node">
<title>Node2</title>
<g id="a_node2"><a xlink:href="class_render_manager.html#a34e5f071f12097fbc5e950651dcce086" target="_top" xlink:title=" ">
<polygon fill="none" stroke="black" points="183,-39 183,-69 327,-69 327,-39 183,-39"/>
<text text-anchor="start" x="191" y="-57" font-family="Helvetica,sans-Serif" font-size="10.00">RenderManager::createScene</text>
<text text-anchor="middle" x="255" y="-46" font-family="Helvetica,sans-Serif" font-size="10.00">Objects</text>
</a>
</g>
</g>
<!-- Node1&#45;&gt;Node2 -->
<g id="edge1" class="edge">
<title>Node1&#45;&gt;Node2</title>
<path fill="none" stroke="midnightblue" d="M352.78,-40.78C344.33,-41.93 335.63,-43.12 327.07,-44.29"/>
<polygon fill="midnightblue" stroke="midnightblue" points="353.51,-44.21 362.94,-39.39 352.56,-37.27 353.51,-44.21"/>
</g>
<!-- Node4 -->
<g id="node4" class="node">
<title>Node4</title>
<g id="a_node4"><a xlink:href="class_mandelbrot_app.html#a82a763408b810cdfa31c88080d97f8a1" target="_top" xlink:title=" ">
<polygon fill="none" stroke="black" points="193,-0.5 193,-19.5 317,-19.5 317,-0.5 193,-0.5"/>
<text text-anchor="middle" x="255" y="-7.5" font-family="Helvetica,sans-Serif" font-size="10.00">MandelbrotApp::createUI</text>
</a>
</g>
</g>
<!-- Node1&#45;&gt;Node4 -->
<g id="edge3" class="edge">
<title>Node1&#45;&gt;Node4</title>
<path fill="none" stroke="midnightblue" d="M352.77,-23.22C341.02,-21.62 328.79,-19.95 317.13,-18.35"/>
<polygon fill="midnightblue" stroke="midnightblue" points="352.56,-26.73 362.94,-24.61 353.51,-19.79 352.56,-26.73"/>
</g>
<!-- Node3 -->
<g id="node3" class="node">
<title>Node3</title>
<g id="a_node3"><a xlink:href="class_render_manager.html#a2f5991e4b82925a2571e6fabf1e8b7b9" target="_top" xlink:title=" ">
<polygon fill="none" stroke="black" points="0,-39 0,-69 147,-69 147,-39 0,-39"/>
<text text-anchor="start" x="8" y="-57" font-family="Helvetica,sans-Serif" font-size="10.00">RenderManager::createRender</text>
<text text-anchor="middle" x="73.5" y="-46" font-family="Helvetica,sans-Serif" font-size="10.00">Objects</text>
</a>
</g>
</g>
<!-- Node2&#45;&gt;Node3 -->
<g id="edge2" class="edge">
<title>Node2&#45;&gt;Node3</title>
<path fill="none" stroke="midnightblue" d="M172.52,-54C164.04,-54 155.46,-54 147.09,-54"/>
<polygon fill="midnightblue" stroke="midnightblue" points="172.8,-57.5 182.8,-54 172.8,-50.5 172.8,-57.5"/>
</g>
<!-- Node5 -->
<g id="node5" class="node">
<title>Node5</title>
<g id="a_node5"><a xlink:href="class_mandelbrot_app.html#ad5c4a7e7fd79bc75fea87df0165005b6" target="_top" xlink:title=" ">
<polygon fill="none" stroke="black" points="9,-0.5 9,-19.5 138,-19.5 138,-0.5 9,-0.5"/>
<text text-anchor="middle" x="73.5" y="-7.5" font-family="Helvetica,sans-Serif" font-size="10.00">MandelbrotApp::initVulkan</text>
</a>
</g>
</g>
<!-- Node4&#45;&gt;Node5 -->
<g id="edge4" class="edge">
<title>Node4&#45;&gt;Node5</title>
<path fill="none" stroke="midnightblue" d="M182.88,-10C168.09,-10 152.6,-10 138.11,-10"/>
<polygon fill="midnightblue" stroke="midnightblue" points="182.98,-13.5 192.98,-10 182.98,-6.5 182.98,-13.5"/>
</g>
</g>
</svg>
