<?xml version="1.0" encoding="UTF-8" standalone="no"?>
<!DOCTYPE svg PUBLIC "-//W3C//DTD SVG 1.1//EN"
 "http://www.w3.org/Graphics/SVG/1.1/DTD/svg11.dtd">
<!-- Generated by graphviz version 2.49.3 (20211215.1918)
 -->
<!-- Title: Image Pages: 1 -->
<svg width="260pt" height="541pt"
 viewBox="0.00 0.00 259.50 541.00" xmlns="http://www.w3.org/2000/svg" xmlns:xlink="http://www.w3.org/1999/xlink">
<g id="graph0" class="graph" transform="scale(1 1) rotate(0) translate(4 537)">
<title>Image</title>
<!-- Node1 -->
<g id="node1" class="node">
<title>Node1</title>
<g id="a_node1"><a xlink:title=" ">
<polygon fill="#bfbfbf" stroke="black" points="67,-0.5 67,-310.5 194,-310.5 194,-0.5 67,-0.5"/>
<text text-anchor="middle" x="130.5" y="-298.5" font-family="Helvetica,sans-Serif" font-size="10.00">Image</text>
<polyline fill="none" stroke="black" points="67,-291.5 194,-291.5 "/>
<text text-anchor="start" x="75" y="-279.5" font-family="Helvetica,sans-Serif" font-size="10.00">&#45; device</text>
<text text-anchor="start" x="75" y="-268.5" font-family="Helvetica,sans-Serif" font-size="10.00">&#45; allocation</text>
<text text-anchor="start" x="75" y="-257.5" font-family="Helvetica,sans-Serif" font-size="10.00">&#45; allocationInfo</text>
<text text-anchor="start" x="75" y="-246.5" font-family="Helvetica,sans-Serif" font-size="10.00">&#45; extent</text>
<text text-anchor="start" x="75" y="-235.5" font-family="Helvetica,sans-Serif" font-size="10.00">&#45; type</text>
<text text-anchor="start" x="75" y="-224.5" font-family="Helvetica,sans-Serif" font-size="10.00">&#45; format</text>
<text text-anchor="start" x="75" y="-213.5" font-family="Helvetica,sans-Serif" font-size="10.00">&#45; mipLevels</text>
<text text-anchor="start" x="75" y="-202.5" font-family="Helvetica,sans-Serif" font-size="10.00">&#45; arrayLayers</text>
<text text-anchor="start" x="75" y="-191.5" font-family="Helvetica,sans-Serif" font-size="10.00">&#45; currentLayout</text>
<text text-anchor="start" x="75" y="-180.5" font-family="Helvetica,sans-Serif" font-size="10.00">&#45; currentAccessFlags</text>
<text text-anchor="start" x="75" y="-169.5" font-family="Helvetica,sans-Serif" font-size="10.00">&#45; currentStage</text>
<polyline fill="none" stroke="black" points="67,-162.5 194,-162.5 "/>
<text text-anchor="start" x="75" y="-150.5" font-family="Helvetica,sans-Serif" font-size="10.00">+ createImageView()</text>
<text text-anchor="start" x="75" y="-139.5" font-family="Helvetica,sans-Serif" font-size="10.00">+ getDevice()</text>
<text text-anchor="start" x="75" y="-128.5" font-family="Helvetica,sans-Serif" font-size="10.00">+ getExtent()</text>
<text text-anchor="start" x="75" y="-117.5" font-family="Helvetica,sans-Serif" font-size="10.00">+ getType()</text>
<text text-anchor="start" x="75" y="-106.5" font-family="Helvetica,sans-Serif" font-size="10.00">+ getFormat()</text>
<text text-anchor="start" x="75" y="-95.5" font-family="Helvetica,sans-Serif" font-size="10.00">+ getMipLevels()</text>
<text text-anchor="start" x="75" y="-84.5" font-family="Helvetica,sans-Serif" font-size="10.00">+ getArrayLayers()</text>
<text text-anchor="start" x="75" y="-73.5" font-family="Helvetica,sans-Serif" font-size="10.00">+ transitionImageLayout()</text>
<text text-anchor="start" x="75" y="-62.5" font-family="Helvetica,sans-Serif" font-size="10.00">+ transitionImageLayout()</text>
<text text-anchor="start" x="75" y="-51.5" font-family="Helvetica,sans-Serif" font-size="10.00">+ map()</text>
<text text-anchor="start" x="75" y="-40.5" font-family="Helvetica,sans-Serif" font-size="10.00">+ unmap()</text>
<text text-anchor="start" x="75" y="-29.5" font-family="Helvetica,sans-Serif" font-size="10.00">+ ~Image()</text>
<text text-anchor="start" x="75" y="-18.5" font-family="Helvetica,sans-Serif" font-size="10.00">+ create()</text>
<text text-anchor="start" x="75" y="-7.5" font-family="Helvetica,sans-Serif" font-size="10.00">+ create()</text>
</a>
</g>
</g>
<!-- Node2 -->
<g id="node2" class="node">
<title>Node2</title>
<g id="a_node2"><a xlink:href="class_vulkan_class.html" target="_top" xlink:title=" ">
<polygon fill="none" stroke="black" points="0,-348.5 0,-416.5 127,-416.5 127,-348.5 0,-348.5"/>
<text text-anchor="middle" x="63.5" y="-404.5" font-family="Helvetica,sans-Serif" font-size="10.00">VulkanClass&lt; VkImage &gt;</text>
<polyline fill="none" stroke="black" points="0,-397.5 127,-397.5 "/>
<text text-anchor="start" x="8" y="-385.5" font-family="Helvetica,sans-Serif" font-size="10.00"># handle</text>
<polyline fill="none" stroke="black" points="0,-378.5 127,-378.5 "/>
<text text-anchor="start" x="8" y="-366.5" font-family="Helvetica,sans-Serif" font-size="10.00">+ getHandle()</text>
<text text-anchor="start" x="8" y="-355.5" font-family="Helvetica,sans-Serif" font-size="10.00">+ getHandlePtr()</text>
</a>
</g>
</g>
<!-- Node2&#45;&gt;Node1 -->
<g id="edge1" class="edge">
<title>Node2&#45;&gt;Node1</title>
<path fill="none" stroke="midnightblue" d="M76.25,-338.67C78.81,-330.09 81.63,-320.63 84.6,-310.65"/>
<polygon fill="none" stroke="midnightblue" points="72.89,-337.72 73.39,-348.3 79.59,-339.72 72.89,-337.72"/>
</g>
<!-- Node3 -->
<g id="node3" class="node">
<title>Node3</title>
<g id="a_node3"><a xlink:href="class_vulkan_class.html" target="_top" xlink:title=" ">
<polygon fill="none" stroke="black" points="16.5,-464.5 16.5,-532.5 110.5,-532.5 110.5,-464.5 16.5,-464.5"/>
<text text-anchor="middle" x="63.5" y="-520.5" font-family="Helvetica,sans-Serif" font-size="10.00">VulkanClass&lt; T &gt;</text>
<polyline fill="none" stroke="black" points="16.5,-513.5 110.5,-513.5 "/>
<text text-anchor="start" x="24.5" y="-501.5" font-family="Helvetica,sans-Serif" font-size="10.00"># handle</text>
<polyline fill="none" stroke="black" points="16.5,-494.5 110.5,-494.5 "/>
<text text-anchor="start" x="24.5" y="-482.5" font-family="Helvetica,sans-Serif" font-size="10.00">+ getHandle()</text>
<text text-anchor="start" x="24.5" y="-471.5" font-family="Helvetica,sans-Serif" font-size="10.00">+ getHandlePtr()</text>
</a>
</g>
</g>
<!-- Node3&#45;&gt;Node2 -->
<g id="edge2" class="edge">
<title>Node3&#45;&gt;Node2</title>
<path fill="none" stroke="orange" d="M63.5,-454.06C63.5,-441.64 63.5,-428.32 63.5,-416.62"/>
<polygon fill="orange" stroke="orange" points="60,-454.22 63.5,-464.22 67,-454.22 60,-454.22"/>
<text text-anchor="middle" x="92.5" y="-438" font-family="Helvetica,sans-Serif" font-size="10.00"> &lt; VkImage &gt;</text>
</g>
<!-- Node4 -->
<g id="node4" class="node">
<title>Node4</title>
<g id="a_node4"><a xlink:title=" ">
<polygon fill="none" stroke="#bfbfbf" points="145.5,-348.5 145.5,-416.5 251.5,-416.5 251.5,-348.5 145.5,-348.5"/>
<text text-anchor="start" x="153.5" y="-404.5" font-family="Helvetica,sans-Serif" font-size="10.00">std::enable_shared</text>
<text text-anchor="middle" x="198.5" y="-393.5" font-family="Helvetica,sans-Serif" font-size="10.00">_from_this&lt; Image &gt;</text>
<polyline fill="none" stroke="#bfbfbf" points="145.5,-386.5 251.5,-386.5 "/>
<text text-anchor="middle" x="198.5" y="-374.5" font-family="Helvetica,sans-Serif" font-size="10.00"> </text>
<polyline fill="none" stroke="#bfbfbf" points="145.5,-367.5 251.5,-367.5 "/>
<text text-anchor="middle" x="198.5" y="-355.5" font-family="Helvetica,sans-Serif" font-size="10.00"> </text>
</a>
</g>
</g>
<!-- Node4&#45;&gt;Node1 -->
<g id="edge3" class="edge">
<title>Node4&#45;&gt;Node1</title>
<path fill="none" stroke="midnightblue" d="M185.55,-338.67C182.96,-330.09 180.1,-320.63 177.09,-310.65"/>
<polygon fill="none" stroke="midnightblue" points="182.22,-339.74 188.47,-348.3 188.92,-337.72 182.22,-339.74"/>
</g>
</g>
</svg>
