<?xml version="1.0" encoding="UTF-8" standalone="no"?>
<!DOCTYPE svg PUBLIC "-//W3C//DTD SVG 1.1//EN"
 "http://www.w3.org/Graphics/SVG/1.1/DTD/svg11.dtd">
<!-- Generated by graphviz version 2.50.0 (20220203.2022)
 -->
<!-- Title: Buffer::create Pages: 1 -->
<!--zoomable 344 -->
<svg id="main" version="1.1" xmlns="http://www.w3.org/2000/svg" xmlns:xlink="http://www.w3.org/1999/xlink" xml:space="preserve" onload="init(evt)">
<style type="text/css"><![CDATA[
.edge:hover path { stroke: red; }
.edge:hover polygon { stroke: red; fill: red; }
]]></style>
<script type="text/javascript"><![CDATA[
var edges = document.getElementsByTagName('g');
if (edges && edges.length) {
  for (var i=0;i<edges.length;i++) {
    if (edges[i].id.substr(0,4)=='edge') {
      edges[i].setAttribute('class','edge');
    }
  }
}
]]></script>
        <defs>
                <circle id="rim" cx="0" cy="0" r="7"/>
                <circle id="rim2" cx="0" cy="0" r="3.5"/>
                <g id="zoomPlus">
                        <use xlink:href="#rim" fill="#404040">
                                <set attributeName="fill" to="#808080" begin="zoomplus.mouseover" end="zoomplus.mouseout"/>
                        </use>
                        <path d="M-4,0h8M0,-4v8" fill="none" stroke="white" stroke-width="1.5" pointer-events="none"/>
                </g>
                <g id="zoomMin">
                        <use xlink:href="#rim" fill="#404040">
                                <set attributeName="fill" to="#808080" begin="zoomminus.mouseover" end="zoomminus.mouseout"/>
                        </use>
                        <path d="M-4,0h8" fill="none" stroke="white" stroke-width="1.5" pointer-events="none"/>
                </g>
                <g id="dirArrow">
                        <path fill="none" stroke="white" stroke-width="1.5" d="M0,-3.0v7 M-2.5,-0.5L0,-3.0L2.5,-0.5"/>
                </g>
               <g id="resetDef">
                       <use xlink:href="#rim2" fill="#404040">
                               <set attributeName="fill" to="#808080" begin="reset.mouseover" end="reset.mouseout"/>
                       </use>
               </g>
        </defs>

<script type="text/javascript">
var viewWidth = 974;
var viewHeight = 344;
var sectionId = 'dynsection-3';
</script>
<script xlink:href="svgpan.js"/>
<svg id="graph" class="graph">
<g id="viewport">
<title>Buffer::create</title>
<!-- Node1 -->
<g id="node1" class="node">
<title>Node1</title>
<g id="a_node1"><a xlink:title=" ">
<polygon fill="#bfbfbf" stroke="black" points="892,-94 892,-113 966,-113 966,-94 892,-94"/>
<text text-anchor="middle" x="929" y="-101" font-family="Helvetica,sans-Serif" font-size="10.00">Buffer::create</text>
</a>
</g>
</g>
<!-- Node1&#45;&gt;Node1 -->
<g id="edge16" class="edge">
<title>Node1&#45;&gt;Node1</title>
<path fill="none" stroke="midnightblue" d="M954.3,-122.53C952.92,-127.63 944.49,-131.5 929,-131.5 904.83,-131.5 897.84,-122.07 908.04,-113.26"/>
<polygon fill="midnightblue" stroke="midnightblue" points="957.37,-120.83 949.96,-113.26 951.03,-123.8 957.37,-120.83"/>
</g>
<!-- Node2 -->
<g id="node2" class="node">
<title>Node2</title>
<g id="a_node2"><a xlink:href="class_uniform_buffer.html#a1e1a7c734eb7243682f2dfa7e964ee58" target="_top" xlink:title=" ">
<polygon fill="none" stroke="black" points="737.5,-230 737.5,-249 845.5,-249 845.5,-230 737.5,-230"/>
<text text-anchor="middle" x="791.5" y="-237" font-family="Helvetica,sans-Serif" font-size="10.00">UniformBuffer::create</text>
</a>
</g>
</g>
<!-- Node1&#45;&gt;Node2 -->
<g id="edge1" class="edge">
<title>Node1&#45;&gt;Node2</title>
<path fill="none" stroke="midnightblue" d="M911.5,-120.71C896.99,-135.78 875.23,-158.23 856,-177.5 837.28,-196.26 815.05,-217.8 802.48,-229.91"/>
<polygon fill="midnightblue" stroke="midnightblue" points="914.35,-122.79 918.76,-113.16 909.3,-117.94 914.35,-122.79"/>
</g>
<!-- Node14 -->
<g id="node14" class="node">
<title>Node14</title>
<g id="a_node14"><a xlink:href="class_buffer.html#a8c31c295d9d6b224fabfb8806f0302d6" target="_top" xlink:title=" ">
<polygon fill="none" stroke="black" points="727.5,-137.5 727.5,-167.5 855.5,-167.5 855.5,-137.5 727.5,-137.5"/>
<text text-anchor="start" x="735.5" y="-155.5" font-family="Helvetica,sans-Serif" font-size="10.00">Buffer::createHostStaging</text>
<text text-anchor="middle" x="791.5" y="-144.5" font-family="Helvetica,sans-Serif" font-size="10.00">Buffer</text>
</a>
</g>
</g>
<!-- Node1&#45;&gt;Node14 -->
<g id="edge17" class="edge">
<title>Node1&#45;&gt;Node14</title>
<path fill="none" stroke="midnightblue" d="M892.08,-116.49C874.26,-122.93 852.62,-130.76 834.08,-137.46"/>
<polygon fill="midnightblue" stroke="midnightblue" points="893.34,-119.76 901.55,-113.06 890.96,-113.17 893.34,-119.76"/>
</g>
<!-- Node16 -->
<g id="node16" class="node">
<title>Node16</title>
<g id="a_node16"><a xlink:href="class_image.html#acbd65e77bf295e13da984c629669fa77" target="_top" xlink:title=" ">
<polygon fill="none" stroke="black" points="727,-88.5 727,-118.5 856,-118.5 856,-88.5 727,-88.5"/>
<text text-anchor="start" x="735" y="-106.5" font-family="Helvetica,sans-Serif" font-size="10.00">Image::createHostStaging</text>
<text text-anchor="middle" x="791.5" y="-95.5" font-family="Helvetica,sans-Serif" font-size="10.00">Buffer</text>
</a>
</g>
</g>
<!-- Node1&#45;&gt;Node16 -->
<g id="edge19" class="edge">
<title>Node1&#45;&gt;Node16</title>
<path fill="none" stroke="midnightblue" d="M881.58,-103.5C873.37,-103.5 864.7,-103.5 856.12,-103.5"/>
<polygon fill="midnightblue" stroke="midnightblue" points="881.69,-107 891.69,-103.5 881.69,-100 881.69,-107"/>
</g>
<!-- Node18 -->
<g id="node18" class="node">
<title>Node18</title>
<g id="a_node18"><a xlink:href="class_dynamic_buffer.html#a89a831a4a8ccc4f565614c72cfd98fec" target="_top" xlink:title=" ">
<polygon fill="none" stroke="black" points="730,-50 730,-69 853,-69 853,-50 730,-50"/>
<text text-anchor="middle" x="791.5" y="-57" font-family="Helvetica,sans-Serif" font-size="10.00">DynamicBuffer::getBuffer</text>
</a>
</g>
</g>
<!-- Node1&#45;&gt;Node18 -->
<g id="edge21" class="edge">
<title>Node1&#45;&gt;Node18</title>
<path fill="none" stroke="midnightblue" d="M891.78,-90.58C880.36,-86.6 867.69,-82.28 856,-78.5 846.14,-75.32 835.37,-72.02 825.54,-69.09"/>
<polygon fill="midnightblue" stroke="midnightblue" points="890.83,-93.95 901.42,-93.96 893.15,-87.35 890.83,-93.95"/>
</g>
<!-- Node19 -->
<g id="node19" class="node">
<title>Node19</title>
<g id="a_node19"><a xlink:href="class_dynamic_buffer.html#ad12ff4367acfe377f988606a1588f363" target="_top" xlink:title=" ">
<polygon fill="none" stroke="black" points="730,-0.5 730,-30.5 853,-30.5 853,-0.5 730,-0.5"/>
<text text-anchor="start" x="738" y="-18.5" font-family="Helvetica,sans-Serif" font-size="10.00">DynamicBuffer::getBuffer</text>
<text text-anchor="middle" x="791.5" y="-7.5" font-family="Helvetica,sans-Serif" font-size="10.00">PreserveContents</text>
</a>
</g>
</g>
<!-- Node1&#45;&gt;Node19 -->
<g id="edge22" class="edge">
<title>Node1&#45;&gt;Node19</title>
<path fill="none" stroke="midnightblue" d="M911.8,-86.37C898,-72.55 877.11,-53.35 856,-40.5 849.93,-36.8 843.21,-33.47 836.49,-30.52"/>
<polygon fill="midnightblue" stroke="midnightblue" points="909.56,-89.09 919.05,-93.8 914.57,-84.2 909.56,-89.09"/>
</g>
<!-- Node3 -->
<g id="node3" class="node">
<title>Node3</title>
<g id="a_node3"><a xlink:href="class_s_s_a_o_pipeline.html#a472f8897be629d354a9382a3eecd2038" target="_top" xlink:title=" ">
<polygon fill="none" stroke="black" points="562,-310 562,-329 672,-329 672,-310 562,-310"/>
<text text-anchor="middle" x="617" y="-317" font-family="Helvetica,sans-Serif" font-size="10.00">SSAOPipeline::create</text>
</a>
</g>
</g>
<!-- Node2&#45;&gt;Node3 -->
<g id="edge2" class="edge">
<title>Node2&#45;&gt;Node3</title>
<path fill="none" stroke="midnightblue" d="M766.42,-254.37C746.64,-266.21 717.63,-282.69 691,-294.5 677.77,-300.37 662.72,-305.73 649.72,-309.98"/>
<polygon fill="midnightblue" stroke="midnightblue" points="768.33,-257.31 775.08,-249.14 764.71,-251.32 768.33,-257.31"/>
</g>
<!-- Node4 -->
<g id="node4" class="node">
<title>Node4</title>
<g id="a_node4"><a xlink:href="class_render_manager.html#a45a6fffe5f74da37695476732b53d33b" target="_top" xlink:title=" ">
<polygon fill="none" stroke="black" points="365.5,-305.5 365.5,-335.5 502.5,-335.5 502.5,-305.5 365.5,-305.5"/>
<text text-anchor="start" x="373.5" y="-323.5" font-family="Helvetica,sans-Serif" font-size="10.00">RenderManager::createPost</text>
<text text-anchor="middle" x="434" y="-312.5" font-family="Helvetica,sans-Serif" font-size="10.00">ProcessingPipelines</text>
</a>
</g>
</g>
<!-- Node2&#45;&gt;Node4 -->
<g id="edge12" class="edge">
<title>Node2&#45;&gt;Node4</title>
<path fill="none" stroke="midnightblue" d="M738.59,-251.33C675.73,-265.65 569.77,-289.79 501.13,-305.43"/>
<polygon fill="midnightblue" stroke="midnightblue" points="739.7,-254.66 748.67,-249.03 738.15,-247.84 739.7,-254.66"/>
</g>
<!-- Node8 -->
<g id="node8" class="node">
<title>Node8</title>
<g id="a_node8"><a xlink:href="class_scene.html#a26c330284ae1b40d737ac9360cfc61e3" target="_top" xlink:title=" ">
<polygon fill="none" stroke="black" points="579,-230 579,-249 655,-249 655,-230 579,-230"/>
<text text-anchor="middle" x="617" y="-237" font-family="Helvetica,sans-Serif" font-size="10.00">Scene::create</text>
</a>
</g>
</g>
<!-- Node2&#45;&gt;Node8 -->
<g id="edge7" class="edge">
<title>Node2&#45;&gt;Node8</title>
<path fill="none" stroke="midnightblue" d="M727.14,-239.5C702.93,-239.5 676.12,-239.5 655.13,-239.5"/>
<polygon fill="midnightblue" stroke="midnightblue" points="727.34,-243 737.34,-239.5 727.34,-236 727.34,-243"/>
</g>
<!-- Node12 -->
<g id="node12" class="node">
<title>Node12</title>
<g id="a_node12"><a xlink:href="class_mandelbrot_app.html#a2c5c1ee9048f4abe7dc58673336cf1f0" target="_top" xlink:title=" ">
<polygon fill="none" stroke="black" points="543,-175.5 543,-205.5 691,-205.5 691,-175.5 543,-175.5"/>
<text text-anchor="start" x="551" y="-193.5" font-family="Helvetica,sans-Serif" font-size="10.00">MandelbrotApp::createUniform</text>
<text text-anchor="middle" x="617" y="-182.5" font-family="Helvetica,sans-Serif" font-size="10.00">Buffers</text>
</a>
</g>
</g>
<!-- Node2&#45;&gt;Node12 -->
<g id="edge13" class="edge">
<title>Node2&#45;&gt;Node12</title>
<path fill="none" stroke="midnightblue" d="M746.97,-227.13C723.87,-220.57 695.31,-212.46 670.94,-205.54"/>
<polygon fill="midnightblue" stroke="midnightblue" points="746.25,-230.57 756.83,-229.94 748.17,-223.84 746.25,-230.57"/>
</g>
<!-- Node3&#45;&gt;Node4 -->
<g id="edge3" class="edge">
<title>Node3&#45;&gt;Node4</title>
<path fill="none" stroke="midnightblue" d="M551.49,-319.86C535.67,-319.94 518.7,-320.04 502.74,-320.13"/>
<polygon fill="midnightblue" stroke="midnightblue" points="551.71,-323.36 561.69,-319.8 551.67,-316.36 551.71,-323.36"/>
</g>
<!-- Node5 -->
<g id="node5" class="node">
<title>Node5</title>
<g id="a_node5"><a xlink:href="class_render_manager.html#a2f5991e4b82925a2571e6fabf1e8b7b9" target="_top" xlink:title=" ">
<polygon fill="none" stroke="black" points="177,-256.5 177,-286.5 324,-286.5 324,-256.5 177,-256.5"/>
<text text-anchor="start" x="185" y="-274.5" font-family="Helvetica,sans-Serif" font-size="10.00">RenderManager::createRender</text>
<text text-anchor="middle" x="250.5" y="-263.5" font-family="Helvetica,sans-Serif" font-size="10.00">Objects</text>
</a>
</g>
</g>
<!-- Node4&#45;&gt;Node5 -->
<g id="edge4" class="edge">
<title>Node4&#45;&gt;Node5</title>
<path fill="none" stroke="midnightblue" d="M367.26,-302.75C347.59,-297.44 326.22,-291.67 307.25,-286.55"/>
<polygon fill="midnightblue" stroke="midnightblue" points="366.5,-306.17 377.06,-305.4 368.32,-299.41 366.5,-306.17"/>
</g>
<!-- Node6 -->
<g id="node6" class="node">
<title>Node6</title>
<g id="a_node6"><a xlink:href="class_render_manager.html#a3e54c122912e1b713b2f6357cdc370fb" target="_top" xlink:title=" ">
<polygon fill="none" stroke="black" points="176,-305.5 176,-335.5 325,-335.5 325,-305.5 176,-305.5"/>
<text text-anchor="start" x="184" y="-323.5" font-family="Helvetica,sans-Serif" font-size="10.00">RenderManager::recreateSwap</text>
<text text-anchor="middle" x="250.5" y="-312.5" font-family="Helvetica,sans-Serif" font-size="10.00">Chain</text>
</a>
</g>
</g>
<!-- Node4&#45;&gt;Node6 -->
<g id="edge5" class="edge">
<title>Node4&#45;&gt;Node6</title>
<path fill="none" stroke="midnightblue" d="M355.17,-320.5C345.24,-320.5 335.1,-320.5 325.23,-320.5"/>
<polygon fill="midnightblue" stroke="midnightblue" points="355.42,-324 365.42,-320.5 355.42,-317 355.42,-324"/>
</g>
<!-- Node7 -->
<g id="node7" class="node">
<title>Node7</title>
<g id="a_node7"><a xlink:href="class_render_manager.html#ab087dc4ee1c6e377ca52ee44d1591c29" target="_top" xlink:title=" ">
<polygon fill="none" stroke="black" points="0,-305.5 0,-335.5 140,-335.5 140,-305.5 0,-305.5"/>
<text text-anchor="start" x="8" y="-323.5" font-family="Helvetica,sans-Serif" font-size="10.00">RenderManager::resizeSwap</text>
<text text-anchor="middle" x="70" y="-312.5" font-family="Helvetica,sans-Serif" font-size="10.00">Chain</text>
</a>
</g>
</g>
<!-- Node6&#45;&gt;Node7 -->
<g id="edge6" class="edge">
<title>Node6&#45;&gt;Node7</title>
<path fill="none" stroke="midnightblue" d="M165.83,-320.5C157.24,-320.5 148.57,-320.5 140.16,-320.5"/>
<polygon fill="midnightblue" stroke="midnightblue" points="165.87,-324 175.87,-320.5 165.87,-317 165.87,-324"/>
</g>
<!-- Node9 -->
<g id="node9" class="node">
<title>Node9</title>
<g id="a_node9"><a xlink:href="class_mandelbrot_app.html#a9adbc757b127cc20ef8fe983bd29ebbb" target="_top" xlink:title=" ">
<polygon fill="none" stroke="black" points="363.5,-218 363.5,-237 504.5,-237 504.5,-218 363.5,-218"/>
<text text-anchor="middle" x="434" y="-225" font-family="Helvetica,sans-Serif" font-size="10.00">MandelbrotApp::createScene</text>
</a>
</g>
</g>
<!-- Node8&#45;&gt;Node9 -->
<g id="edge8" class="edge">
<title>Node8&#45;&gt;Node9</title>
<path fill="none" stroke="midnightblue" d="M568.75,-236.37C549.16,-235.07 526.04,-233.54 504.59,-232.11"/>
<polygon fill="midnightblue" stroke="midnightblue" points="568.73,-239.87 578.94,-237.04 569.19,-232.89 568.73,-239.87"/>
</g>
<!-- Node11 -->
<g id="node11" class="node">
<title>Node11</title>
<g id="a_node11"><a xlink:href="class_render_manager.html#a34e5f071f12097fbc5e950651dcce086" target="_top" xlink:title=" ">
<polygon fill="none" stroke="black" points="362,-256.5 362,-286.5 506,-286.5 506,-256.5 362,-256.5"/>
<text text-anchor="start" x="370" y="-274.5" font-family="Helvetica,sans-Serif" font-size="10.00">RenderManager::createScene</text>
<text text-anchor="middle" x="434" y="-263.5" font-family="Helvetica,sans-Serif" font-size="10.00">Objects</text>
</a>
</g>
</g>
<!-- Node8&#45;&gt;Node11 -->
<g id="edge10" class="edge">
<title>Node8&#45;&gt;Node11</title>
<path fill="none" stroke="midnightblue" d="M568.95,-247.82C549.77,-251.21 527.17,-255.2 506.06,-258.94"/>
<polygon fill="midnightblue" stroke="midnightblue" points="569.7,-251.24 578.94,-246.05 568.48,-244.35 569.7,-251.24"/>
</g>
<!-- Node10 -->
<g id="node10" class="node">
<title>Node10</title>
<g id="a_node10"><a xlink:href="class_mandelbrot_app.html#ad5c4a7e7fd79bc75fea87df0165005b6" target="_top" xlink:title=" ">
<polygon fill="none" stroke="black" points="186,-199 186,-218 315,-218 315,-199 186,-199"/>
<text text-anchor="middle" x="250.5" y="-206" font-family="Helvetica,sans-Serif" font-size="10.00">MandelbrotApp::initVulkan</text>
</a>
</g>
</g>
<!-- Node9&#45;&gt;Node10 -->
<g id="edge9" class="edge">
<title>Node9&#45;&gt;Node10</title>
<path fill="none" stroke="midnightblue" d="M353.19,-219.14C340.41,-217.81 327.35,-216.44 315.02,-215.15"/>
<polygon fill="midnightblue" stroke="midnightblue" points="353.04,-222.65 363.35,-220.21 353.77,-215.69 353.04,-222.65"/>
</g>
<!-- Node11&#45;&gt;Node5 -->
<g id="edge11" class="edge">
<title>Node11&#45;&gt;Node5</title>
<path fill="none" stroke="midnightblue" d="M351.59,-271.5C342.5,-271.5 333.28,-271.5 324.3,-271.5"/>
<polygon fill="midnightblue" stroke="midnightblue" points="351.79,-275 361.79,-271.5 351.79,-268 351.79,-275"/>
</g>
<!-- Node12&#45;&gt;Node10 -->
<g id="edge14" class="edge">
<title>Node12&#45;&gt;Node10</title>
<path fill="none" stroke="midnightblue" d="M532.3,-194.63C466.25,-197.89 375.52,-202.38 315.27,-205.35"/>
<polygon fill="midnightblue" stroke="midnightblue" points="532.86,-198.11 542.68,-194.12 532.52,-191.12 532.86,-198.11"/>
</g>
<!-- Node13 -->
<g id="node13" class="node">
<title>Node13</title>
<g id="a_node13"><a xlink:href="class_mandelbrot_app.html#a733620a6533fb25a6ffa309886b74904" target="_top" xlink:title=" ">
<polygon fill="none" stroke="black" points="361,-130.5 361,-160.5 507,-160.5 507,-130.5 361,-130.5"/>
<text text-anchor="start" x="369" y="-148.5" font-family="Helvetica,sans-Serif" font-size="10.00">MandelbrotApp::recreateSwap</text>
<text text-anchor="middle" x="434" y="-137.5" font-family="Helvetica,sans-Serif" font-size="10.00">Chain</text>
</a>
</g>
</g>
<!-- Node12&#45;&gt;Node13 -->
<g id="edge15" class="edge">
<title>Node12&#45;&gt;Node13</title>
<path fill="none" stroke="midnightblue" d="M545.35,-172.94C528.87,-168.84 511.46,-164.51 495.46,-160.53"/>
<polygon fill="midnightblue" stroke="midnightblue" points="544.93,-176.44 555.48,-175.45 546.62,-169.64 544.93,-176.44"/>
</g>
<!-- Node15 -->
<g id="node15" class="node">
<title>Node15</title>
<g id="a_node15"><a xlink:href="class_buffer.html#a76a99d870d0eda4e49303fa62b240442" target="_top" xlink:title=" ">
<polygon fill="none" stroke="black" points="551.5,-137 551.5,-156 682.5,-156 682.5,-137 551.5,-137"/>
<text text-anchor="middle" x="617" y="-144" font-family="Helvetica,sans-Serif" font-size="10.00">Buffer::transferDataStaged</text>
</a>
</g>
</g>
<!-- Node14&#45;&gt;Node15 -->
<g id="edge18" class="edge">
<title>Node14&#45;&gt;Node15</title>
<path fill="none" stroke="midnightblue" d="M716.91,-149.94C705.53,-149.54 693.85,-149.14 682.69,-148.75"/>
<polygon fill="midnightblue" stroke="midnightblue" points="717.13,-153.45 727.25,-150.3 717.37,-146.45 717.13,-153.45"/>
</g>
<!-- Node17 -->
<g id="node17" class="node">
<title>Node17</title>
<g id="a_node17"><a xlink:href="class_image.html#ac367d6ea10ca4996f3bda1338488396d" target="_top" xlink:title=" ">
<polygon fill="none" stroke="black" points="551,-94 551,-113 683,-113 683,-94 551,-94"/>
<text text-anchor="middle" x="617" y="-101" font-family="Helvetica,sans-Serif" font-size="10.00">Image::transferDataStaged</text>
</a>
</g>
</g>
<!-- Node16&#45;&gt;Node17 -->
<g id="edge20" class="edge">
<title>Node16&#45;&gt;Node17</title>
<path fill="none" stroke="midnightblue" d="M716.65,-103.5C705.53,-103.5 694.13,-103.5 683.21,-103.5"/>
<polygon fill="midnightblue" stroke="midnightblue" points="716.76,-107 726.76,-103.5 716.76,-100 716.76,-107"/>
</g>
</g>
</svg>
        <g id="navigator" transform="translate(0 0)" fill="#404254">
                <rect fill="#f2f5e9" fill-opacity="0.5" stroke="#606060" stroke-width=".5" x="0" y="0" width="60" height="60"/>
                <use id="zoomplus" xlink:href="#zoomPlus" x="17" y="9" onmousedown="handleZoom(evt,'in')"/>
                <use id="zoomminus" xlink:href="#zoomMin" x="42" y="9" onmousedown="handleZoom(evt,'out')"/>
                <use id="reset" xlink:href="#resetDef" x="30" y="36" onmousedown="handleReset()"/>
                <g id="arrowUp" xlink:href="#dirArrow" transform="translate(30 24)" onmousedown="handlePan(0,-1)">
                  <use xlink:href="#rim" fill="#404040">
                        <set attributeName="fill" to="#808080" begin="arrowUp.mouseover" end="arrowUp.mouseout"/>
                  </use>
                  <path fill="none" stroke="white" stroke-width="1.5" d="M0,-3.0v7 M-2.5,-0.5L0,-3.0L2.5,-0.5"/>
                </g>
                <g id="arrowRight" xlink:href="#dirArrow" transform="rotate(90) translate(36 -43)" onmousedown="handlePan(1,0)">
                  <use xlink:href="#rim" fill="#404040">
                        <set attributeName="fill" to="#808080" begin="arrowRight.mouseover" end="arrowRight.mouseout"/>
                  </use>
                  <path fill="none" stroke="white" stroke-width="1.5" d="M0,-3.0v7 M-2.5,-0.5L0,-3.0L2.5,-0.5"/>
                </g>
                <g id="arrowDown" xlink:href="#dirArrow" transform="rotate(180) translate(-30 -48)" onmousedown="handlePan(0,1)">
                  <use xlink:href="#rim" fill="#404040">
                        <set attributeName="fill" to="#808080" begin="arrowDown.mouseover" end="arrowDown.mouseout"/>
                  </use>
                  <path fill="none" stroke="white" stroke-width="1.5" d="M0,-3.0v7 M-2.5,-0.5L0,-3.0L2.5,-0.5"/>
                </g>
                <g id="arrowLeft" xlink:href="#dirArrow" transform="rotate(270) translate(-36 17)" onmousedown="handlePan(-1,0)">
                  <use xlink:href="#rim" fill="#404040">
                        <set attributeName="fill" to="#808080" begin="arrowLeft.mouseover" end="arrowLeft.mouseout"/>
                  </use>
                  <path fill="none" stroke="white" stroke-width="1.5" d="M0,-3.0v7 M-2.5,-0.5L0,-3.0L2.5,-0.5"/>
                </g>
        </g>
        <svg viewBox="0 0 15 15" width="100%" height="30px" preserveAspectRatio="xMaxYMin meet">
         <g id="arrow_out" transform="scale(0.3 0.3)">
          <a xlink:href="class_buffer_a04bbfbb11daccc5656c698c63214aefc_icgraph_org.svg" target="_base">
           <rect id="button" ry="5" rx="5" y="6" x="6" height="38" width="38"
                fill="#f2f5e9" fill-opacity="0.5" stroke="#606060" stroke-width="1.0"/>
           <path id="arrow"
             d="M 11.500037,31.436501 C 11.940474,20.09759 22.043105,11.32322 32.158766,21.979434 L 37.068811,17.246167 C 37.068811,17.246167 37.088388,32 37.088388,32 L 22.160133,31.978069 C 22.160133,31.978069 26.997745,27.140456 26.997745,27.140456 C 18.528582,18.264221 13.291696,25.230495 11.500037,31.436501 z"
             style="fill:#404040;"/>
          </a>
         </g>
        </svg>
</svg>
