<?xml version="1.0" encoding="UTF-8" standalone="no"?>
<!DOCTYPE svg PUBLIC "-//W3C//DTD SVG 1.1//EN"
 "http://www.w3.org/Graphics/SVG/1.1/DTD/svg11.dtd">
<!-- Generated by graphviz version 2.50.0 (20220203.2022)
 -->
<!-- Title: ModelLoader::create Pages: 1 -->
<svg width="724pt" height="116pt"
 viewBox="0.00 0.00 724.00 115.50" xmlns="http://www.w3.org/2000/svg" xmlns:xlink="http://www.w3.org/1999/xlink">
<g id="graph0" class="graph" transform="scale(1 1) rotate(0) translate(4 111.5)">
<title>ModelLoader::create</title>
<!-- Node1 -->
<g id="node1" class="node">
<title>Node1</title>
<g id="a_node1"><a xlink:title=" ">
<polygon fill="#bfbfbf" stroke="black" points="612,-38.5 612,-57.5 716,-57.5 716,-38.5 612,-38.5"/>
<text text-anchor="middle" x="664" y="-45.5" font-family="Helvetica,sans-Serif" font-size="10.00">ModelLoader::create</text>
</a>
</g>
</g>
<!-- Node2 -->
<g id="node2" class="node">
<title>Node2</title>
<g id="a_node2"><a xlink:href="class_mesh_library.html#a19fb3a7539fd79d9b9db9f7f996546eb" target="_top" xlink:title=" ">
<polygon fill="none" stroke="black" points="453.5,-79.5 453.5,-98.5 554.5,-98.5 554.5,-79.5 453.5,-79.5"/>
<text text-anchor="middle" x="504" y="-86.5" font-family="Helvetica,sans-Serif" font-size="10.00">MeshLibrary::create</text>
</a>
</g>
</g>
<!-- Node1&#45;&gt;Node2 -->
<g id="edge1" class="edge">
<title>Node1&#45;&gt;Node2</title>
<path fill="none" stroke="midnightblue" d="M616.46,-60.08C592.61,-66.27 563.99,-73.69 541.72,-79.47"/>
<polygon fill="midnightblue" stroke="midnightblue" points="617.55,-63.41 626.35,-57.51 615.8,-56.63 617.55,-63.41"/>
</g>
<!-- Node5 -->
<g id="node5" class="node">
<title>Node5</title>
<g id="a_node5"><a xlink:href="class_mandelbrot_app.html#ae15547e49fb9d4a3b4ee4b9603dd1968" target="_top" xlink:title=" ">
<polygon fill="none" stroke="black" points="436,-38.5 436,-57.5 572,-57.5 572,-38.5 436,-38.5"/>
<text text-anchor="middle" x="504" y="-45.5" font-family="Helvetica,sans-Serif" font-size="10.00">MandelbrotApp::loadModels</text>
</a>
</g>
</g>
<!-- Node1&#45;&gt;Node5 -->
<g id="edge4" class="edge">
<title>Node1&#45;&gt;Node5</title>
<path fill="none" stroke="midnightblue" d="M601.45,-48C591.84,-48 581.88,-48 572.15,-48"/>
<polygon fill="midnightblue" stroke="midnightblue" points="601.7,-51.5 611.7,-48 601.7,-44.5 601.7,-51.5"/>
</g>
<!-- Node7 -->
<g id="node7" class="node">
<title>Node7</title>
<g id="a_node7"><a xlink:href="class_vulkan_rasterizer.html#a0649950f85953da05358416d7616fc09" target="_top" xlink:title=" ">
<polygon fill="none" stroke="black" points="432,-0.5 432,-19.5 576,-19.5 576,-0.5 432,-0.5"/>
<text text-anchor="middle" x="504" y="-7.5" font-family="Helvetica,sans-Serif" font-size="10.00">VulkanRasterizer::loadModels</text>
</a>
</g>
</g>
<!-- Node1&#45;&gt;Node7 -->
<g id="edge6" class="edge">
<title>Node1&#45;&gt;Node7</title>
<path fill="none" stroke="midnightblue" d="M613.24,-36.03C591.1,-30.71 565.39,-24.52 544.58,-19.52"/>
<polygon fill="midnightblue" stroke="midnightblue" points="612.59,-39.48 623.13,-38.41 614.23,-32.67 612.59,-39.48"/>
</g>
<!-- Node3 -->
<g id="node3" class="node">
<title>Node3</title>
<g id="a_node3"><a xlink:href="class_render_manager.html#af9f33ffbf6fa771b2a2132b4bd33de06" target="_top" xlink:title=" ">
<polygon fill="none" stroke="black" points="257,-77 257,-107 396,-107 396,-77 257,-77"/>
<text text-anchor="start" x="265" y="-95" font-family="Helvetica,sans-Serif" font-size="10.00">RenderManager::crateScene</text>
<text text-anchor="middle" x="326.5" y="-84" font-family="Helvetica,sans-Serif" font-size="10.00">Objects</text>
</a>
</g>
</g>
<!-- Node2&#45;&gt;Node3 -->
<g id="edge2" class="edge">
<title>Node2&#45;&gt;Node3</title>
<path fill="none" stroke="midnightblue" d="M442.96,-90.03C427.88,-90.28 411.58,-90.56 396.12,-90.83"/>
<polygon fill="midnightblue" stroke="midnightblue" points="443.24,-93.52 453.18,-89.85 443.12,-86.52 443.24,-93.52"/>
</g>
<!-- Node4 -->
<g id="node4" class="node">
<title>Node4</title>
<g id="a_node4"><a xlink:href="class_render_manager.html#a2f5991e4b82925a2571e6fabf1e8b7b9" target="_top" xlink:title=" ">
<polygon fill="none" stroke="black" points="74,-77 74,-107 221,-107 221,-77 74,-77"/>
<text text-anchor="start" x="82" y="-95" font-family="Helvetica,sans-Serif" font-size="10.00">RenderManager::createRender</text>
<text text-anchor="middle" x="147.5" y="-84" font-family="Helvetica,sans-Serif" font-size="10.00">Objects</text>
</a>
</g>
</g>
<!-- Node3&#45;&gt;Node4 -->
<g id="edge3" class="edge">
<title>Node3&#45;&gt;Node4</title>
<path fill="none" stroke="midnightblue" d="M246.6,-92C238.16,-92 229.61,-92 221.25,-92"/>
<polygon fill="midnightblue" stroke="midnightblue" points="246.81,-95.5 256.81,-92 246.81,-88.5 246.81,-95.5"/>
</g>
<!-- Node6 -->
<g id="node6" class="node">
<title>Node6</title>
<g id="a_node6"><a xlink:href="class_mandelbrot_app.html#ad5c4a7e7fd79bc75fea87df0165005b6" target="_top" xlink:title=" ">
<polygon fill="none" stroke="black" points="262,-38.5 262,-57.5 391,-57.5 391,-38.5 262,-38.5"/>
<text text-anchor="middle" x="326.5" y="-45.5" font-family="Helvetica,sans-Serif" font-size="10.00">MandelbrotApp::initVulkan</text>
</a>
</g>
</g>
<!-- Node5&#45;&gt;Node6 -->
<g id="edge5" class="edge">
<title>Node5&#45;&gt;Node6</title>
<path fill="none" stroke="midnightblue" d="M425.8,-48C414.2,-48 402.36,-48 391.1,-48"/>
<polygon fill="midnightblue" stroke="midnightblue" points="425.9,-51.5 435.9,-48 425.9,-44.5 425.9,-51.5"/>
</g>
<!-- Node8 -->
<g id="node8" class="node">
<title>Node8</title>
<g id="a_node8"><a xlink:href="class_vulkan_rasterizer.html#a91d83d21a2d62b9042827d03a8b4d7a0" target="_top" xlink:title=" ">
<polygon fill="none" stroke="black" points="273,-0.5 273,-19.5 380,-19.5 380,-0.5 273,-0.5"/>
<text text-anchor="middle" x="326.5" y="-7.5" font-family="Helvetica,sans-Serif" font-size="10.00">VulkanRasterizer::init</text>
</a>
</g>
</g>
<!-- Node7&#45;&gt;Node8 -->
<g id="edge7" class="edge">
<title>Node7&#45;&gt;Node8</title>
<path fill="none" stroke="midnightblue" d="M421.66,-10C407.55,-10 393.21,-10 380.13,-10"/>
<polygon fill="midnightblue" stroke="midnightblue" points="421.87,-13.5 431.87,-10 421.87,-6.5 421.87,-13.5"/>
</g>
<!-- Node9 -->
<g id="node9" class="node">
<title>Node9</title>
<g id="a_node9"><a xlink:href="class_vulkan_rasterizer.html#add1cfb13a3ae242ca9eef6c1e9e42751" target="_top" xlink:title=" ">
<polygon fill="none" stroke="black" points="93.5,-0.5 93.5,-19.5 201.5,-19.5 201.5,-0.5 93.5,-0.5"/>
<text text-anchor="middle" x="147.5" y="-7.5" font-family="Helvetica,sans-Serif" font-size="10.00">VulkanRasterizer::run</text>
</a>
</g>
</g>
<!-- Node8&#45;&gt;Node9 -->
<g id="edge8" class="edge">
<title>Node8&#45;&gt;Node9</title>
<path fill="none" stroke="midnightblue" d="M262.62,-10C242.64,-10 220.75,-10 201.54,-10"/>
<polygon fill="midnightblue" stroke="midnightblue" points="262.87,-13.5 272.87,-10 262.87,-6.5 262.87,-13.5"/>
</g>
<!-- Node10 -->
<g id="node10" class="node">
<title>Node10</title>
<g id="a_node10"><a xlink:href="vulkan__voxel__rasterizer__4_8cpp.html#ae66f6b31b5ad750f1fe042a706a4e3d4" target="_top" xlink:title=" ">
<polygon fill="none" stroke="black" points="0,-0.5 0,-19.5 38,-19.5 38,-0.5 0,-0.5"/>
<text text-anchor="middle" x="19" y="-7.5" font-family="Helvetica,sans-Serif" font-size="10.00">main</text>
</a>
</g>
</g>
<!-- Node9&#45;&gt;Node10 -->
<g id="edge9" class="edge">
<title>Node9&#45;&gt;Node10</title>
<path fill="none" stroke="midnightblue" d="M82.98,-10C66.46,-10 49.98,-10 38.02,-10"/>
<polygon fill="midnightblue" stroke="midnightblue" points="83.22,-13.5 93.22,-10 83.22,-6.5 83.22,-13.5"/>
</g>
</g>
</svg>
