<?xml version="1.0" encoding="UTF-8" standalone="no"?>
<!DOCTYPE svg PUBLIC "-//W3C//DTD SVG 1.1//EN"
 "http://www.w3.org/Graphics/SVG/1.1/DTD/svg11.dtd">
<!-- Generated by graphviz version 2.49.3 (20211215.1918)
 -->
<!-- Title: VoxelCodecSparseOctree&lt; Types &gt; Pages: 1 -->
<!--zoomable 789 -->
<svg id="main" version="1.1" xmlns="http://www.w3.org/2000/svg" xmlns:xlink="http://www.w3.org/1999/xlink" xml:space="preserve" onload="init(evt)">
<style type="text/css"><![CDATA[
.edge:hover path { stroke: red; }
.edge:hover polygon { stroke: red; fill: red; }
]]></style>
<script type="text/javascript"><![CDATA[
var edges = document.getElementsByTagName('g');
if (edges && edges.length) {
  for (var i=0;i<edges.length;i++) {
    if (edges[i].id.substr(0,4)=='edge') {
      edges[i].setAttribute('class','edge');
    }
  }
}
]]></script>
        <defs>
                <circle id="rim" cx="0" cy="0" r="7"/>
                <circle id="rim2" cx="0" cy="0" r="3.5"/>
                <g id="zoomPlus">
                        <use xlink:href="#rim" fill="#404040">
                                <set attributeName="fill" to="#808080" begin="zoomplus.mouseover" end="zoomplus.mouseout"/>
                        </use>
                        <path d="M-4,0h8M0,-4v8" fill="none" stroke="white" stroke-width="1.5" pointer-events="none"/>
                </g>
                <g id="zoomMin">
                        <use xlink:href="#rim" fill="#404040">
                                <set attributeName="fill" to="#808080" begin="zoomminus.mouseover" end="zoomminus.mouseout"/>
                        </use>
                        <path d="M-4,0h8" fill="none" stroke="white" stroke-width="1.5" pointer-events="none"/>
                </g>
                <g id="dirArrow">
                        <path fill="none" stroke="white" stroke-width="1.5" d="M0,-3.0v7 M-2.5,-0.5L0,-3.0L2.5,-0.5"/>
                </g>
               <g id="resetDef">
                       <use xlink:href="#rim2" fill="#404040">
                               <set attributeName="fill" to="#808080" begin="reset.mouseover" end="reset.mouseout"/>
                       </use>
               </g>
        </defs>

<script type="text/javascript">
var viewWidth = 281;
var viewHeight = 789;
var sectionId = 'dynsection-1';
</script>
<script xlink:href="svgpan.js"/>
<svg id="graph" class="graph">
<g id="viewport">
<title>VoxelCodecSparseOctree&lt; Types &gt;</title>
<!-- Node1 -->
<g id="node1" class="node">
<title>Node1</title>
<g id="a_node1"><a xlink:title=" ">
<polygon fill="#bfbfbf" stroke="black" points="88.5,-0.5 88.5,-178.5 216.5,-178.5 216.5,-0.5 88.5,-0.5"/>
<text text-anchor="start" x="96.5" y="-166.5" font-family="Helvetica,sans-Serif" font-size="10.00">VoxelCodecSparseOctree</text>
<text text-anchor="middle" x="152.5" y="-155.5" font-family="Helvetica,sans-Serif" font-size="10.00">&lt; Types &gt;</text>
<polyline fill="none" stroke="black" points="88.5,-148.5 216.5,-148.5 "/>
<text text-anchor="start" x="96.5" y="-136.5" font-family="Helvetica,sans-Serif" font-size="10.00">&#45; leaf</text>
<polyline fill="none" stroke="black" points="88.5,-129.5 216.5,-129.5 "/>
<text text-anchor="start" x="96.5" y="-117.5" font-family="Helvetica,sans-Serif" font-size="10.00">+ isLeaf()</text>
<text text-anchor="start" x="96.5" y="-106.5" font-family="Helvetica,sans-Serif" font-size="10.00">+ holdsData()</text>
<text text-anchor="start" x="96.5" y="-95.5" font-family="Helvetica,sans-Serif" font-size="10.00">+ getChild()</text>
<text text-anchor="start" x="96.5" y="-84.5" font-family="Helvetica,sans-Serif" font-size="10.00">+ getLeaf()</text>
<text text-anchor="start" x="96.5" y="-73.5" font-family="Helvetica,sans-Serif" font-size="10.00">+ enterNode()</text>
<text text-anchor="start" x="96.5" y="-62.5" font-family="Helvetica,sans-Serif" font-size="10.00">+ enterNode()</text>
<text text-anchor="start" x="96.5" y="-51.5" font-family="Helvetica,sans-Serif" font-size="10.00">+ nextNode()</text>
<text text-anchor="start" x="96.5" y="-40.5" font-family="Helvetica,sans-Serif" font-size="10.00">+ nextNode()</text>
<text text-anchor="start" x="96.5" y="-29.5" font-family="Helvetica,sans-Serif" font-size="10.00">+ leaveNode()</text>
<text text-anchor="start" x="96.5" y="-18.5" font-family="Helvetica,sans-Serif" font-size="10.00">+ makeNode()</text>
<text text-anchor="start" x="96.5" y="-7.5" font-family="Helvetica,sans-Serif" font-size="10.00">&#45; _enterNode()</text>
</a>
</g>
</g>
<!-- Node2 -->
<g id="node2" class="node">
<title>Node2</title>
<g id="a_node2"><a xlink:href="class_voxel_codec_octree_base.html" target="_top" xlink:title=" ">
<polygon fill="none" stroke="black" points="82.5,-216.5 82.5,-405.5 222.5,-405.5 222.5,-216.5 82.5,-216.5"/>
<text text-anchor="middle" x="152.5" y="-393.5" font-family="Helvetica,sans-Serif" font-size="10.00">VoxelCodecOctreeBase</text>
<polyline fill="none" stroke="black" points="82.5,-386.5 222.5,-386.5 "/>
<text text-anchor="start" x="90.5" y="-374.5" font-family="Helvetica,sans-Serif" font-size="10.00"># actualSize</text>
<text text-anchor="start" x="90.5" y="-363.5" font-family="Helvetica,sans-Serif" font-size="10.00"># nodeStack</text>
<polyline fill="none" stroke="black" points="82.5,-356.5 222.5,-356.5 "/>
<text text-anchor="start" x="90.5" y="-344.5" font-family="Helvetica,sans-Serif" font-size="10.00">+ getDepth()</text>
<text text-anchor="start" x="90.5" y="-333.5" font-family="Helvetica,sans-Serif" font-size="10.00">+ getPos()</text>
<text text-anchor="start" x="90.5" y="-322.5" font-family="Helvetica,sans-Serif" font-size="10.00">+ isLeaf()</text>
<text text-anchor="start" x="90.5" y="-311.5" font-family="Helvetica,sans-Serif" font-size="10.00">+ holdsData()</text>
<text text-anchor="start" x="90.5" y="-300.5" font-family="Helvetica,sans-Serif" font-size="10.00">+ getChild()</text>
<text text-anchor="start" x="90.5" y="-289.5" font-family="Helvetica,sans-Serif" font-size="10.00">+ getLeaf()</text>
<text text-anchor="start" x="90.5" y="-278.5" font-family="Helvetica,sans-Serif" font-size="10.00">+ enterNode()</text>
<text text-anchor="start" x="90.5" y="-267.5" font-family="Helvetica,sans-Serif" font-size="10.00">+ enterNode()</text>
<text text-anchor="start" x="90.5" y="-256.5" font-family="Helvetica,sans-Serif" font-size="10.00">+ nextNode()</text>
<text text-anchor="start" x="90.5" y="-245.5" font-family="Helvetica,sans-Serif" font-size="10.00">+ nextNode()</text>
<text text-anchor="start" x="90.5" y="-234.5" font-family="Helvetica,sans-Serif" font-size="10.00">+ leaveNode()</text>
<text text-anchor="start" x="90.5" y="-223.5" font-family="Helvetica,sans-Serif" font-size="10.00">+ ~VoxelCodecOctreeBase()</text>
</a>
</g>
</g>
<!-- Node2&#45;&gt;Node1 -->
<g id="edge1" class="edge">
<title>Node2&#45;&gt;Node1</title>
<path fill="none" stroke="midnightblue" d="M152.5,-206C152.5,-196.86 152.5,-187.68 152.5,-178.69"/>
<polygon fill="none" stroke="midnightblue" points="149,-206.28 152.5,-216.28 156,-206.28 149,-206.28"/>
</g>
<!-- Node3 -->
<g id="node3" class="node">
<title>Node3</title>
<g id="a_node3"><a xlink:href="class_voxel_codec_base.html" target="_top" xlink:title=" ">
<polygon fill="none" stroke="black" points="25,-453.5 25,-653.5 148,-653.5 148,-453.5 25,-453.5"/>
<text text-anchor="middle" x="86.5" y="-641.5" font-family="Helvetica,sans-Serif" font-size="10.00">VoxelCodecBase</text>
<polyline fill="none" stroke="black" points="25,-634.5 148,-634.5 "/>
<text text-anchor="start" x="33" y="-622.5" font-family="Helvetica,sans-Serif" font-size="10.00"># allocationPtr</text>
<text text-anchor="start" x="33" y="-611.5" font-family="Helvetica,sans-Serif" font-size="10.00"># size</text>
<text text-anchor="start" x="33" y="-600.5" font-family="Helvetica,sans-Serif" font-size="10.00"># readWritePtr</text>
<text text-anchor="start" x="33" y="-589.5" font-family="Helvetica,sans-Serif" font-size="10.00"># voxelIndex</text>
<polyline fill="none" stroke="black" points="25,-582.5 148,-582.5 "/>
<text text-anchor="start" x="33" y="-570.5" font-family="Helvetica,sans-Serif" font-size="10.00">+ getDataPtr()</text>
<text text-anchor="start" x="33" y="-559.5" font-family="Helvetica,sans-Serif" font-size="10.00">+ getReadWritePtr()</text>
<text text-anchor="start" x="33" y="-548.5" font-family="Helvetica,sans-Serif" font-size="10.00">+ getCurrentVoxelIndex()</text>
<text text-anchor="start" x="33" y="-537.5" font-family="Helvetica,sans-Serif" font-size="10.00">+ skipVoxel()</text>
<text text-anchor="start" x="33" y="-526.5" font-family="Helvetica,sans-Serif" font-size="10.00">+ skipVoxels()</text>
<text text-anchor="start" x="33" y="-515.5" font-family="Helvetica,sans-Serif" font-size="10.00">+ jumpToVoxel()</text>
<text text-anchor="start" x="33" y="-504.5" font-family="Helvetica,sans-Serif" font-size="10.00">+ jumpToVoxel()</text>
<text text-anchor="start" x="33" y="-493.5" font-family="Helvetica,sans-Serif" font-size="10.00">+ getElementPtr()</text>
<text text-anchor="start" x="33" y="-482.5" font-family="Helvetica,sans-Serif" font-size="10.00">+ copyElementToPtr()</text>
<text text-anchor="start" x="33" y="-471.5" font-family="Helvetica,sans-Serif" font-size="10.00">+ copyElementFromPtr()</text>
<text text-anchor="start" x="33" y="-460.5" font-family="Helvetica,sans-Serif" font-size="10.00">+ ~VoxelCodecBase()</text>
</a>
</g>
</g>
<!-- Node3&#45;&gt;Node2 -->
<g id="edge2" class="edge">
<title>Node3&#45;&gt;Node2</title>
<path fill="none" stroke="midnightblue" d="M116.38,-443.62C119.87,-430.92 123.4,-418.04 126.82,-405.57"/>
<polygon fill="none" stroke="midnightblue" points="113,-442.72 113.73,-453.29 119.75,-444.57 113,-442.72"/>
</g>
<!-- Node4 -->
<g id="node4" class="node">
<title>Node4</title>
<g id="a_node4"><a xlink:href="struct_voxel_region.html" target="_top" xlink:title=" ">
<polygon fill="none" stroke="black" points="0,-701.5 0,-780.5 71,-780.5 71,-701.5 0,-701.5"/>
<text text-anchor="middle" x="35.5" y="-768.5" font-family="Helvetica,sans-Serif" font-size="10.00">VoxelRegion</text>
<polyline fill="none" stroke="black" points="0,-761.5 71,-761.5 "/>
<text text-anchor="start" x="8" y="-749.5" font-family="Helvetica,sans-Serif" font-size="10.00">+ x</text>
<text text-anchor="start" x="8" y="-738.5" font-family="Helvetica,sans-Serif" font-size="10.00">+ y</text>
<text text-anchor="start" x="8" y="-727.5" font-family="Helvetica,sans-Serif" font-size="10.00">+ z</text>
<polyline fill="none" stroke="black" points="0,-720.5 71,-720.5 "/>
<text text-anchor="middle" x="35.5" y="-708.5" font-family="Helvetica,sans-Serif" font-size="10.00"> </text>
</a>
</g>
</g>
<!-- Node4&#45;&gt;Node3 -->
<g id="edge3" class="edge">
<title>Node4&#45;&gt;Node3</title>
<path fill="none" stroke="#404040" d="M42.03,-701.34C43.89,-691.7 46.08,-681.43 48.5,-672 49.05,-669.84 49.63,-667.65 50.21,-665.46"/>
<polygon fill="none" stroke="#404040" points="50.29,-665.18 48.04,-658.33 53.49,-653.61 55.75,-660.46 50.29,-665.18"/>
<text text-anchor="middle" x="82.5" y="-675" font-family="Helvetica,sans-Serif" font-size="10.00"> #allocationSize</text>
</g>
<!-- Node5 -->
<g id="node5" class="node">
<title>Node5</title>
<g id="a_node5"><a xlink:href="class_allocator.html" target="_top" xlink:title=" ">
<polygon fill="none" stroke="black" points="89.5,-707 89.5,-775 187.5,-775 187.5,-707 89.5,-707"/>
<text text-anchor="middle" x="138.5" y="-763" font-family="Helvetica,sans-Serif" font-size="10.00">Allocator</text>
<polyline fill="none" stroke="black" points="89.5,-756 187.5,-756 "/>
<text text-anchor="middle" x="138.5" y="-744" font-family="Helvetica,sans-Serif" font-size="10.00"> </text>
<polyline fill="none" stroke="black" points="89.5,-737 187.5,-737 "/>
<text text-anchor="start" x="97.5" y="-725" font-family="Helvetica,sans-Serif" font-size="10.00">+ makeAllocation()</text>
<text text-anchor="start" x="97.5" y="-714" font-family="Helvetica,sans-Serif" font-size="10.00">+ ~Allocator()</text>
</a>
</g>
</g>
<!-- Node5&#45;&gt;Node3 -->
<g id="edge4" class="edge">
<title>Node5&#45;&gt;Node3</title>
<path fill="none" stroke="#404040" d="M129.2,-706.84C125.83,-694.79 121.8,-680.43 117.59,-665.4"/>
<polygon fill="none" stroke="#404040" points="117.58,-665.37 112.11,-660.67 114.34,-653.81 119.81,-658.51 117.58,-665.37"/>
<text text-anchor="middle" x="164" y="-675" font-family="Helvetica,sans-Serif" font-size="10.00"> #allocationHandler</text>
</g>
<!-- Node6 -->
<g id="node6" class="node">
<title>Node6</title>
<g id="a_node6"><a xlink:href="class_virtual_allocation.html" target="_top" xlink:title=" ">
<polygon fill="none" stroke="black" points="166,-497.5 166,-609.5 273,-609.5 273,-497.5 166,-497.5"/>
<text text-anchor="middle" x="219.5" y="-597.5" font-family="Helvetica,sans-Serif" font-size="10.00">VirtualAllocation</text>
<polyline fill="none" stroke="black" points="166,-590.5 273,-590.5 "/>
<text text-anchor="start" x="174" y="-578.5" font-family="Helvetica,sans-Serif" font-size="10.00"># size</text>
<polyline fill="none" stroke="black" points="166,-571.5 273,-571.5 "/>
<text text-anchor="start" x="174" y="-559.5" font-family="Helvetica,sans-Serif" font-size="10.00">+ getSize()</text>
<text text-anchor="start" x="174" y="-548.5" font-family="Helvetica,sans-Serif" font-size="10.00">+ getData()</text>
<text text-anchor="start" x="174" y="-537.5" font-family="Helvetica,sans-Serif" font-size="10.00">+ resize()</text>
<text text-anchor="start" x="174" y="-526.5" font-family="Helvetica,sans-Serif" font-size="10.00">+ operator+()</text>
<text text-anchor="start" x="174" y="-515.5" font-family="Helvetica,sans-Serif" font-size="10.00">+ operator size_t()</text>
<text text-anchor="start" x="174" y="-504.5" font-family="Helvetica,sans-Serif" font-size="10.00">+ ~VirtualAllocation()</text>
</a>
</g>
</g>
<!-- Node6&#45;&gt;Node2 -->
<g id="edge5" class="edge">
<title>Node6&#45;&gt;Node2</title>
<path fill="none" stroke="#404040" d="M204.13,-497.32C197.5,-473.54 189.52,-444.9 181.84,-417.32"/>
<polygon fill="none" stroke="#404040" points="181.79,-417.14 176.33,-412.43 178.57,-405.58 184.03,-410.29 181.79,-417.14"/>
<text text-anchor="middle" x="210" y="-427" font-family="Helvetica,sans-Serif" font-size="10.00"> #allocation</text>
</g>
</g>
</svg>
        <g id="navigator" transform="translate(0 0)" fill="#404254">
                <rect fill="#f2f5e9" fill-opacity="0.5" stroke="#606060" stroke-width=".5" x="0" y="0" width="60" height="60"/>
                <use id="zoomplus" xlink:href="#zoomPlus" x="17" y="9" onmousedown="handleZoom(evt,'in')"/>
                <use id="zoomminus" xlink:href="#zoomMin" x="42" y="9" onmousedown="handleZoom(evt,'out')"/>
                <use id="reset" xlink:href="#resetDef" x="30" y="36" onmousedown="handleReset()"/>
                <g id="arrowUp" xlink:href="#dirArrow" transform="translate(30 24)" onmousedown="handlePan(0,-1)">
                  <use xlink:href="#rim" fill="#404040">
                        <set attributeName="fill" to="#808080" begin="arrowUp.mouseover" end="arrowUp.mouseout"/>
                  </use>
                  <path fill="none" stroke="white" stroke-width="1.5" d="M0,-3.0v7 M-2.5,-0.5L0,-3.0L2.5,-0.5"/>
                </g>
                <g id="arrowRight" xlink:href="#dirArrow" transform="rotate(90) translate(36 -43)" onmousedown="handlePan(1,0)">
                  <use xlink:href="#rim" fill="#404040">
                        <set attributeName="fill" to="#808080" begin="arrowRight.mouseover" end="arrowRight.mouseout"/>
                  </use>
                  <path fill="none" stroke="white" stroke-width="1.5" d="M0,-3.0v7 M-2.5,-0.5L0,-3.0L2.5,-0.5"/>
                </g>
                <g id="arrowDown" xlink:href="#dirArrow" transform="rotate(180) translate(-30 -48)" onmousedown="handlePan(0,1)">
                  <use xlink:href="#rim" fill="#404040">
                        <set attributeName="fill" to="#808080" begin="arrowDown.mouseover" end="arrowDown.mouseout"/>
                  </use>
                  <path fill="none" stroke="white" stroke-width="1.5" d="M0,-3.0v7 M-2.5,-0.5L0,-3.0L2.5,-0.5"/>
                </g>
                <g id="arrowLeft" xlink:href="#dirArrow" transform="rotate(270) translate(-36 17)" onmousedown="handlePan(-1,0)">
                  <use xlink:href="#rim" fill="#404040">
                        <set attributeName="fill" to="#808080" begin="arrowLeft.mouseover" end="arrowLeft.mouseout"/>
                  </use>
                  <path fill="none" stroke="white" stroke-width="1.5" d="M0,-3.0v7 M-2.5,-0.5L0,-3.0L2.5,-0.5"/>
                </g>
        </g>
        <svg viewBox="0 0 15 15" width="100%" height="30px" preserveAspectRatio="xMaxYMin meet">
         <g id="arrow_out" transform="scale(0.3 0.3)">
          <a xlink:href="class_voxel_codec_sparse_octree__coll__graph_org.svg" target="_base">
           <rect id="button" ry="5" rx="5" y="6" x="6" height="38" width="38"
                fill="#f2f5e9" fill-opacity="0.5" stroke="#606060" stroke-width="1.0"/>
           <path id="arrow"
             d="M 11.500037,31.436501 C 11.940474,20.09759 22.043105,11.32322 32.158766,21.979434 L 37.068811,17.246167 C 37.068811,17.246167 37.088388,32 37.088388,32 L 22.160133,31.978069 C 22.160133,31.978069 26.997745,27.140456 26.997745,27.140456 C 18.528582,18.264221 13.291696,25.230495 11.500037,31.436501 z"
             style="fill:#404040;"/>
          </a>
         </g>
        </svg>
</svg>
