<?xml version="1.0" encoding="UTF-8" standalone="no"?>
<!DOCTYPE svg PUBLIC "-//W3C//DTD SVG 1.1//EN"
 "http://www.w3.org/Graphics/SVG/1.1/DTD/svg11.dtd">
<!-- Generated by graphviz version 2.50.0 (20220203.2022)
 -->
<!-- Title: ShadingPipeline::create Pages: 1 -->
<svg width="394pt" height="66pt"
 viewBox="0.00 0.00 394.00 66.00" xmlns="http://www.w3.org/2000/svg" xmlns:xlink="http://www.w3.org/1999/xlink">
<g id="graph0" class="graph" transform="scale(1 1) rotate(0) translate(4 62)">
<title>ShadingPipeline::create</title>
<!-- Node1 -->
<g id="node1" class="node">
<title>Node1</title>
<g id="a_node1"><a xlink:title=" ">
<polygon fill="#bfbfbf" stroke="black" points="0,-19.5 0,-38.5 118,-38.5 118,-19.5 0,-19.5"/>
<text text-anchor="middle" x="59" y="-26.5" font-family="Helvetica,sans-Serif" font-size="10.00">ShadingPipeline::create</text>
</a>
</g>
</g>
<!-- Node2 -->
<g id="node2" class="node">
<title>Node2</title>
<g id="a_node2"><a xlink:href="class_vertex_shader.html#a5210d098175734531886d9e5b1741f8e" target="_top" xlink:title=" ">
<polygon fill="none" stroke="black" points="160.5,-38.5 160.5,-57.5 267.5,-57.5 267.5,-38.5 160.5,-38.5"/>
<text text-anchor="middle" x="214" y="-45.5" font-family="Helvetica,sans-Serif" font-size="10.00">VertexShader::create</text>
</a>
</g>
</g>
<!-- Node1&#45;&gt;Node2 -->
<g id="edge1" class="edge">
<title>Node1&#45;&gt;Node2</title>
<path fill="none" stroke="midnightblue" d="M118.28,-36.24C128.77,-37.54 139.76,-38.9 150.37,-40.22"/>
<polygon fill="midnightblue" stroke="midnightblue" points="150.05,-43.71 160.4,-41.47 150.91,-36.76 150.05,-43.71"/>
</g>
<!-- Node4 -->
<g id="node4" class="node">
<title>Node4</title>
<g id="a_node4"><a xlink:href="class_fragment_shader.html#a1221d3fb805310bb64a01e032e794d0b" target="_top" xlink:title=" ">
<polygon fill="none" stroke="black" points="154,-0.5 154,-19.5 274,-19.5 274,-0.5 154,-0.5"/>
<text text-anchor="middle" x="214" y="-7.5" font-family="Helvetica,sans-Serif" font-size="10.00">FragmentShader::create</text>
</a>
</g>
</g>
<!-- Node1&#45;&gt;Node4 -->
<g id="edge3" class="edge">
<title>Node1&#45;&gt;Node4</title>
<path fill="none" stroke="midnightblue" d="M118.28,-21.76C126.66,-20.72 135.34,-19.64 143.9,-18.58"/>
<polygon fill="midnightblue" stroke="midnightblue" points="144.38,-22.05 153.87,-17.34 143.51,-15.1 144.38,-22.05"/>
</g>
<!-- Node3 -->
<g id="node3" class="node">
<title>Node3</title>
<g id="a_node3"><a xlink:href="class_utils.html#a7e7d47e8b017fe7d4ae8802c7b0690cb" target="_top" xlink:title=" ">
<polygon fill="none" stroke="black" points="310,-19.5 310,-38.5 386,-38.5 386,-19.5 310,-19.5"/>
<text text-anchor="middle" x="348" y="-26.5" font-family="Helvetica,sans-Serif" font-size="10.00">Utils::readFile</text>
</a>
</g>
</g>
<!-- Node2&#45;&gt;Node3 -->
<g id="edge2" class="edge">
<title>Node2&#45;&gt;Node3</title>
<path fill="none" stroke="midnightblue" d="M267.55,-40.44C278.12,-38.91 289.17,-37.32 299.55,-35.83"/>
<polygon fill="midnightblue" stroke="midnightblue" points="300.27,-39.26 309.67,-34.37 299.27,-32.33 300.27,-39.26"/>
</g>
<!-- Node4&#45;&gt;Node3 -->
<g id="edge4" class="edge">
<title>Node4&#45;&gt;Node3</title>
<path fill="none" stroke="midnightblue" d="M274.05,-18.5C282.74,-19.75 291.59,-21.02 299.99,-22.23"/>
<polygon fill="midnightblue" stroke="midnightblue" points="299.57,-25.71 309.97,-23.67 300.57,-18.78 299.57,-25.71"/>
</g>
</g>
</svg>
