<?xml version="1.0" encoding="UTF-8" standalone="no"?>
<!DOCTYPE svg PUBLIC "-//W3C//DTD SVG 1.1//EN"
 "http://www.w3.org/Graphics/SVG/1.1/DTD/svg11.dtd">
<!-- Generated by graphviz version 2.49.3 (20211215.1918)
 -->
<!-- Title: Image Pages: 1 -->
<svg width="260pt" height="464pt"
 viewBox="0.00 0.00 259.50 464.00" xmlns="http://www.w3.org/2000/svg" xmlns:xlink="http://www.w3.org/1999/xlink">
<g id="graph0" class="graph" transform="scale(1 1) rotate(0) translate(4 460)">
<title>Image</title>
<!-- Node1 -->
<g id="node1" class="node">
<title>Node1</title>
<g id="a_node1"><a xlink:title=" ">
<polygon fill="#bfbfbf" stroke="black" points="77,-0.5 77,-233.5 184,-233.5 184,-0.5 77,-0.5"/>
<text text-anchor="middle" x="130.5" y="-221.5" font-family="Helvetica,sans-Serif" font-size="10.00">Image</text>
<polyline fill="none" stroke="black" points="77,-214.5 184,-214.5 "/>
<text text-anchor="start" x="85" y="-202.5" font-family="Helvetica,sans-Serif" font-size="10.00">&#45; device</text>
<text text-anchor="start" x="85" y="-191.5" font-family="Helvetica,sans-Serif" font-size="10.00">&#45; allocation</text>
<text text-anchor="start" x="85" y="-180.5" font-family="Helvetica,sans-Serif" font-size="10.00">&#45; allocationInfo</text>
<text text-anchor="start" x="85" y="-169.5" font-family="Helvetica,sans-Serif" font-size="10.00">&#45; extent</text>
<text text-anchor="start" x="85" y="-158.5" font-family="Helvetica,sans-Serif" font-size="10.00">&#45; type</text>
<text text-anchor="start" x="85" y="-147.5" font-family="Helvetica,sans-Serif" font-size="10.00">&#45; format</text>
<text text-anchor="start" x="85" y="-136.5" font-family="Helvetica,sans-Serif" font-size="10.00">&#45; mipLevels</text>
<text text-anchor="start" x="85" y="-125.5" font-family="Helvetica,sans-Serif" font-size="10.00">&#45; arrayLayers</text>
<polyline fill="none" stroke="black" points="77,-118.5 184,-118.5 "/>
<text text-anchor="start" x="85" y="-106.5" font-family="Helvetica,sans-Serif" font-size="10.00">+ createImageView()</text>
<text text-anchor="start" x="85" y="-95.5" font-family="Helvetica,sans-Serif" font-size="10.00">+ getDevice()</text>
<text text-anchor="start" x="85" y="-84.5" font-family="Helvetica,sans-Serif" font-size="10.00">+ getExtent()</text>
<text text-anchor="start" x="85" y="-73.5" font-family="Helvetica,sans-Serif" font-size="10.00">+ getType()</text>
<text text-anchor="start" x="85" y="-62.5" font-family="Helvetica,sans-Serif" font-size="10.00">+ getFormat()</text>
<text text-anchor="start" x="85" y="-51.5" font-family="Helvetica,sans-Serif" font-size="10.00">+ getMipLevels()</text>
<text text-anchor="start" x="85" y="-40.5" font-family="Helvetica,sans-Serif" font-size="10.00">+ getArrayLayers()</text>
<text text-anchor="start" x="85" y="-29.5" font-family="Helvetica,sans-Serif" font-size="10.00">+ ~Image()</text>
<text text-anchor="start" x="85" y="-18.5" font-family="Helvetica,sans-Serif" font-size="10.00">+ create()</text>
<text text-anchor="start" x="85" y="-7.5" font-family="Helvetica,sans-Serif" font-size="10.00">+ create()</text>
</a>
</g>
</g>
<!-- Node2 -->
<g id="node2" class="node">
<title>Node2</title>
<g id="a_node2"><a xlink:href="class_vulkan_class.html" target="_top" xlink:title=" ">
<polygon fill="none" stroke="black" points="0,-271.5 0,-339.5 127,-339.5 127,-271.5 0,-271.5"/>
<text text-anchor="middle" x="63.5" y="-327.5" font-family="Helvetica,sans-Serif" font-size="10.00">VulkanClass&lt; VkImage &gt;</text>
<polyline fill="none" stroke="black" points="0,-320.5 127,-320.5 "/>
<text text-anchor="start" x="8" y="-308.5" font-family="Helvetica,sans-Serif" font-size="10.00"># handle</text>
<polyline fill="none" stroke="black" points="0,-301.5 127,-301.5 "/>
<text text-anchor="start" x="8" y="-289.5" font-family="Helvetica,sans-Serif" font-size="10.00">+ getHandle()</text>
<text text-anchor="start" x="8" y="-278.5" font-family="Helvetica,sans-Serif" font-size="10.00">+ getHandlePtr()</text>
</a>
</g>
</g>
<!-- Node2&#45;&gt;Node1 -->
<g id="edge1" class="edge">
<title>Node2&#45;&gt;Node1</title>
<path fill="none" stroke="midnightblue" d="M78.87,-261.73C81.99,-253.03 85.41,-243.51 88.96,-233.62"/>
<polygon fill="none" stroke="midnightblue" points="75.57,-260.56 75.48,-271.16 82.15,-262.93 75.57,-260.56"/>
</g>
<!-- Node3 -->
<g id="node3" class="node">
<title>Node3</title>
<g id="a_node3"><a xlink:href="class_vulkan_class.html" target="_top" xlink:title=" ">
<polygon fill="none" stroke="black" points="16.5,-387.5 16.5,-455.5 110.5,-455.5 110.5,-387.5 16.5,-387.5"/>
<text text-anchor="middle" x="63.5" y="-443.5" font-family="Helvetica,sans-Serif" font-size="10.00">VulkanClass&lt; T &gt;</text>
<polyline fill="none" stroke="black" points="16.5,-436.5 110.5,-436.5 "/>
<text text-anchor="start" x="24.5" y="-424.5" font-family="Helvetica,sans-Serif" font-size="10.00"># handle</text>
<polyline fill="none" stroke="black" points="16.5,-417.5 110.5,-417.5 "/>
<text text-anchor="start" x="24.5" y="-405.5" font-family="Helvetica,sans-Serif" font-size="10.00">+ getHandle()</text>
<text text-anchor="start" x="24.5" y="-394.5" font-family="Helvetica,sans-Serif" font-size="10.00">+ getHandlePtr()</text>
</a>
</g>
</g>
<!-- Node3&#45;&gt;Node2 -->
<g id="edge2" class="edge">
<title>Node3&#45;&gt;Node2</title>
<path fill="none" stroke="orange" d="M63.5,-377.06C63.5,-364.64 63.5,-351.32 63.5,-339.62"/>
<polygon fill="orange" stroke="orange" points="60,-377.22 63.5,-387.22 67,-377.22 60,-377.22"/>
<text text-anchor="middle" x="92.5" y="-361" font-family="Helvetica,sans-Serif" font-size="10.00"> &lt; VkImage &gt;</text>
</g>
<!-- Node4 -->
<g id="node4" class="node">
<title>Node4</title>
<g id="a_node4"><a xlink:title=" ">
<polygon fill="none" stroke="#bfbfbf" points="145.5,-271.5 145.5,-339.5 251.5,-339.5 251.5,-271.5 145.5,-271.5"/>
<text text-anchor="start" x="153.5" y="-327.5" font-family="Helvetica,sans-Serif" font-size="10.00">std::enable_shared</text>
<text text-anchor="middle" x="198.5" y="-316.5" font-family="Helvetica,sans-Serif" font-size="10.00">_from_this&lt; Image &gt;</text>
<polyline fill="none" stroke="#bfbfbf" points="145.5,-309.5 251.5,-309.5 "/>
<text text-anchor="middle" x="198.5" y="-297.5" font-family="Helvetica,sans-Serif" font-size="10.00"> </text>
<polyline fill="none" stroke="#bfbfbf" points="145.5,-290.5 251.5,-290.5 "/>
<text text-anchor="middle" x="198.5" y="-278.5" font-family="Helvetica,sans-Serif" font-size="10.00"> </text>
</a>
</g>
</g>
<!-- Node4&#45;&gt;Node1 -->
<g id="edge3" class="edge">
<title>Node4&#45;&gt;Node1</title>
<path fill="none" stroke="midnightblue" d="M182.9,-261.73C179.74,-253.03 176.26,-243.51 172.66,-233.62"/>
<polygon fill="none" stroke="midnightblue" points="179.63,-262.96 186.34,-271.16 186.21,-260.56 179.63,-262.96"/>
</g>
</g>
</svg>
