<?xml version="1.0" encoding="UTF-8" standalone="no"?>
<!DOCTYPE svg PUBLIC "-//W3C//DTD SVG 1.1//EN"
 "http://www.w3.org/Graphics/SVG/1.1/DTD/svg11.dtd">
<!-- Generated by graphviz version 2.49.3 (20211215.1918)
 -->
<!-- Title: Instance Pages: 1 -->
<svg width="280pt" height="464pt"
 viewBox="0.00 0.00 279.50 464.00" xmlns="http://www.w3.org/2000/svg" xmlns:xlink="http://www.w3.org/1999/xlink">
<g id="graph0" class="graph" transform="scale(1 1) rotate(0) translate(4 460)">
<title>Instance</title>
<!-- Node1 -->
<g id="node1" class="node">
<title>Node1</title>
<g id="a_node1"><a xlink:title=" ">
<polygon fill="#bfbfbf" stroke="black" points="59,-0.5 59,-233.5 222,-233.5 222,-0.5 59,-0.5"/>
<text text-anchor="middle" x="140.5" y="-221.5" font-family="Helvetica,sans-Serif" font-size="10.00">Instance</text>
<polyline fill="none" stroke="black" points="59,-214.5 222,-214.5 "/>
<text text-anchor="start" x="67" y="-202.5" font-family="Helvetica,sans-Serif" font-size="10.00">&#45; debugMessenger</text>
<text text-anchor="start" x="67" y="-191.5" font-family="Helvetica,sans-Serif" font-size="10.00">&#45; appInfo</text>
<text text-anchor="start" x="67" y="-180.5" font-family="Helvetica,sans-Serif" font-size="10.00">&#45; physicalDevices</text>
<text text-anchor="start" x="67" y="-169.5" font-family="Helvetica,sans-Serif" font-size="10.00">&#45; validationLayers</text>
<text text-anchor="start" x="67" y="-158.5" font-family="Helvetica,sans-Serif" font-size="10.00">&#45; enableValidationLayers</text>
<polyline fill="none" stroke="black" points="59,-151.5 222,-151.5 "/>
<text text-anchor="start" x="67" y="-139.5" font-family="Helvetica,sans-Serif" font-size="10.00">+ getPhysicalDevice()</text>
<text text-anchor="start" x="67" y="-128.5" font-family="Helvetica,sans-Serif" font-size="10.00">+ getValidationLayers()</text>
<text text-anchor="start" x="67" y="-117.5" font-family="Helvetica,sans-Serif" font-size="10.00">+ getExtensions()</text>
<text text-anchor="start" x="67" y="-106.5" font-family="Helvetica,sans-Serif" font-size="10.00">+ create()</text>
<text text-anchor="start" x="67" y="-95.5" font-family="Helvetica,sans-Serif" font-size="10.00">&#45; createPhysicalDevices()</text>
<text text-anchor="start" x="67" y="-84.5" font-family="Helvetica,sans-Serif" font-size="10.00">&#45; CreateDebugUtilsMessenger</text>
<text text-anchor="start" x="67" y="-73.5" font-family="Helvetica,sans-Serif" font-size="10.00">EXT()</text>
<text text-anchor="start" x="67" y="-62.5" font-family="Helvetica,sans-Serif" font-size="10.00">&#45; populateDebugMessengerCreate</text>
<text text-anchor="start" x="67" y="-51.5" font-family="Helvetica,sans-Serif" font-size="10.00">Info()</text>
<text text-anchor="start" x="67" y="-40.5" font-family="Helvetica,sans-Serif" font-size="10.00">&#45; checkExtensionSupport()</text>
<text text-anchor="start" x="67" y="-29.5" font-family="Helvetica,sans-Serif" font-size="10.00">&#45; getSupportedLayers()</text>
<text text-anchor="start" x="67" y="-18.5" font-family="Helvetica,sans-Serif" font-size="10.00">&#45; checkValidationLayerSupport()</text>
<text text-anchor="start" x="67" y="-7.5" font-family="Helvetica,sans-Serif" font-size="10.00">&#45; getRequiredExtensions()</text>
</a>
</g>
</g>
<!-- Node2 -->
<g id="node2" class="node">
<title>Node2</title>
<g id="a_node2"><a xlink:href="class_vulkan_class.html" target="_top" xlink:title=" ">
<polygon fill="none" stroke="black" points="0,-271.5 0,-339.5 137,-339.5 137,-271.5 0,-271.5"/>
<text text-anchor="middle" x="68.5" y="-327.5" font-family="Helvetica,sans-Serif" font-size="10.00">VulkanClass&lt; VkInstance &gt;</text>
<polyline fill="none" stroke="black" points="0,-320.5 137,-320.5 "/>
<text text-anchor="start" x="8" y="-308.5" font-family="Helvetica,sans-Serif" font-size="10.00"># handle</text>
<polyline fill="none" stroke="black" points="0,-301.5 137,-301.5 "/>
<text text-anchor="start" x="8" y="-289.5" font-family="Helvetica,sans-Serif" font-size="10.00">+ getHandle()</text>
<text text-anchor="start" x="8" y="-278.5" font-family="Helvetica,sans-Serif" font-size="10.00">+ getHandlePtr()</text>
</a>
</g>
</g>
<!-- Node2&#45;&gt;Node1 -->
<g id="edge1" class="edge">
<title>Node2&#45;&gt;Node1</title>
<path fill="none" stroke="midnightblue" d="M85.01,-261.73C88.37,-253.03 92.05,-243.51 95.86,-233.62"/>
<polygon fill="none" stroke="midnightblue" points="81.71,-260.57 81.37,-271.16 88.24,-263.09 81.71,-260.57"/>
</g>
<!-- Node3 -->
<g id="node3" class="node">
<title>Node3</title>
<g id="a_node3"><a xlink:href="class_vulkan_class.html" target="_top" xlink:title=" ">
<polygon fill="none" stroke="black" points="21.5,-387.5 21.5,-455.5 115.5,-455.5 115.5,-387.5 21.5,-387.5"/>
<text text-anchor="middle" x="68.5" y="-443.5" font-family="Helvetica,sans-Serif" font-size="10.00">VulkanClass&lt; T &gt;</text>
<polyline fill="none" stroke="black" points="21.5,-436.5 115.5,-436.5 "/>
<text text-anchor="start" x="29.5" y="-424.5" font-family="Helvetica,sans-Serif" font-size="10.00"># handle</text>
<polyline fill="none" stroke="black" points="21.5,-417.5 115.5,-417.5 "/>
<text text-anchor="start" x="29.5" y="-405.5" font-family="Helvetica,sans-Serif" font-size="10.00">+ getHandle()</text>
<text text-anchor="start" x="29.5" y="-394.5" font-family="Helvetica,sans-Serif" font-size="10.00">+ getHandlePtr()</text>
</a>
</g>
</g>
<!-- Node3&#45;&gt;Node2 -->
<g id="edge2" class="edge">
<title>Node3&#45;&gt;Node2</title>
<path fill="none" stroke="orange" d="M68.5,-377.06C68.5,-364.64 68.5,-351.32 68.5,-339.62"/>
<polygon fill="orange" stroke="orange" points="65,-377.22 68.5,-387.22 72,-377.22 65,-377.22"/>
<text text-anchor="middle" x="103" y="-361" font-family="Helvetica,sans-Serif" font-size="10.00"> &lt; VkInstance &gt;</text>
</g>
<!-- Node4 -->
<g id="node4" class="node">
<title>Node4</title>
<g id="a_node4"><a xlink:title=" ">
<polygon fill="none" stroke="#bfbfbf" points="155.5,-271.5 155.5,-339.5 271.5,-339.5 271.5,-271.5 155.5,-271.5"/>
<text text-anchor="start" x="163.5" y="-327.5" font-family="Helvetica,sans-Serif" font-size="10.00">std::enable_shared</text>
<text text-anchor="middle" x="213.5" y="-316.5" font-family="Helvetica,sans-Serif" font-size="10.00">_from_this&lt; Instance &gt;</text>
<polyline fill="none" stroke="#bfbfbf" points="155.5,-309.5 271.5,-309.5 "/>
<text text-anchor="middle" x="213.5" y="-297.5" font-family="Helvetica,sans-Serif" font-size="10.00"> </text>
<polyline fill="none" stroke="#bfbfbf" points="155.5,-290.5 271.5,-290.5 "/>
<text text-anchor="middle" x="213.5" y="-278.5" font-family="Helvetica,sans-Serif" font-size="10.00"> </text>
</a>
</g>
</g>
<!-- Node4&#45;&gt;Node1 -->
<g id="edge3" class="edge">
<title>Node4&#45;&gt;Node1</title>
<path fill="none" stroke="midnightblue" d="M196.76,-261.73C193.36,-253.03 189.63,-243.51 185.76,-233.62"/>
<polygon fill="none" stroke="midnightblue" points="193.54,-263.12 200.45,-271.16 200.06,-260.57 193.54,-263.12"/>
</g>
</g>
</svg>
