<?xml version="1.0" encoding="UTF-8" standalone="no"?>
<!DOCTYPE svg PUBLIC "-//W3C//DTD SVG 1.1//EN"
 "http://www.w3.org/Graphics/SVG/1.1/DTD/svg11.dtd">
<!-- Generated by graphviz version 2.49.3 (20211215.1918)
 -->
<!-- Title: MandelbrotApp::createSwapChain Pages: 1 -->
<svg width="301pt" height="142pt"
 viewBox="0.00 0.00 301.00 142.00" xmlns="http://www.w3.org/2000/svg" xmlns:xlink="http://www.w3.org/1999/xlink">
<g id="graph0" class="graph" transform="scale(1 1) rotate(0) translate(4 138)">
<title>MandelbrotApp::createSwapChain</title>
<!-- Node1 -->
<g id="node1" class="node">
<title>Node1</title>
<g id="a_node1"><a xlink:title=" ">
<polygon fill="#bfbfbf" stroke="black" points="0,-52 0,-82 138,-82 138,-52 0,-52"/>
<text text-anchor="start" x="8" y="-70" font-family="Helvetica,sans-Serif" font-size="10.00">MandelbrotApp::createSwap</text>
<text text-anchor="middle" x="69" y="-59" font-family="Helvetica,sans-Serif" font-size="10.00">Chain</text>
</a>
</g>
</g>
<!-- Node2 -->
<g id="node2" class="node">
<title>Node2</title>
<g id="a_node2"><a xlink:href="class_swap_chain.html#ae424e0b05d7eac9234bcf2c07cb74e40" target="_top" xlink:title=" ">
<polygon fill="none" stroke="black" points="184.5,-114.5 184.5,-133.5 282.5,-133.5 282.5,-114.5 184.5,-114.5"/>
<text text-anchor="middle" x="233.5" y="-121.5" font-family="Helvetica,sans-Serif" font-size="10.00">SwapChain::create</text>
</a>
</g>
</g>
<!-- Node1&#45;&gt;Node2 -->
<g id="edge1" class="edge">
<title>Node1&#45;&gt;Node2</title>
<path fill="none" stroke="midnightblue" d="M110.38,-82.14C129.59,-89.24 152.92,-97.73 174,-105 180.03,-107.08 186.43,-109.22 192.7,-111.29"/>
<polygon fill="midnightblue" stroke="midnightblue" points="191.78,-114.67 202.37,-114.44 193.95,-108.01 191.78,-114.67"/>
</g>
<!-- Node3 -->
<g id="node3" class="node">
<title>Node3</title>
<g id="a_node3"><a xlink:href="class_image.html#af46f4c74c9df89aa493f35da8a17aff2" target="_top" xlink:title=" ">
<polygon fill="none" stroke="black" points="196,-76.5 196,-95.5 271,-95.5 271,-76.5 196,-76.5"/>
<text text-anchor="middle" x="233.5" y="-83.5" font-family="Helvetica,sans-Serif" font-size="10.00">Image::create</text>
</a>
</g>
</g>
<!-- Node1&#45;&gt;Node3 -->
<g id="edge2" class="edge">
<title>Node1&#45;&gt;Node3</title>
<path fill="none" stroke="midnightblue" d="M138.44,-75C154.22,-76.85 170.65,-78.77 185.29,-80.48"/>
<polygon fill="midnightblue" stroke="midnightblue" points="185.25,-84 195.59,-81.68 186.07,-77.05 185.25,-84"/>
</g>
<!-- Node4 -->
<g id="node4" class="node">
<title>Node4</title>
<g id="a_node4"><a xlink:href="class_image_view.html#a49f8e14c3fd61c0e19735f7f3c397f94" target="_top" xlink:title=" ">
<polygon fill="none" stroke="black" points="185,-38.5 185,-57.5 282,-57.5 282,-38.5 185,-38.5"/>
<text text-anchor="middle" x="233.5" y="-45.5" font-family="Helvetica,sans-Serif" font-size="10.00">ImageView::create</text>
</a>
</g>
</g>
<!-- Node1&#45;&gt;Node4 -->
<g id="edge3" class="edge">
<title>Node1&#45;&gt;Node4</title>
<path fill="none" stroke="midnightblue" d="M138.44,-59C150.52,-57.59 162.98,-56.13 174.73,-54.75"/>
<polygon fill="midnightblue" stroke="midnightblue" points="175.31,-58.21 184.84,-53.57 174.5,-51.26 175.31,-58.21"/>
</g>
<!-- Node5 -->
<g id="node5" class="node">
<title>Node5</title>
<g id="a_node5"><a xlink:href="class_mandelbrot_app.html#a69b06411ed6947c7c03adc0245e698d5" target="_top" xlink:title=" ">
<polygon fill="none" stroke="black" points="174,-0.5 174,-19.5 293,-19.5 293,-0.5 174,-0.5"/>
<text text-anchor="middle" x="233.5" y="-7.5" font-family="Helvetica,sans-Serif" font-size="10.00">MandelbrotApp::remove</text>
</a>
</g>
</g>
<!-- Node1&#45;&gt;Node5 -->
<g id="edge4" class="edge">
<title>Node1&#45;&gt;Node5</title>
<path fill="none" stroke="midnightblue" d="M110.38,-51.86C129.59,-44.76 152.92,-36.27 174,-29 180.03,-26.92 186.43,-24.78 192.7,-22.71"/>
<polygon fill="midnightblue" stroke="midnightblue" points="193.95,-25.99 202.37,-19.56 191.78,-19.33 193.95,-25.99"/>
</g>
</g>
</svg>
