<?xml version="1.0" encoding="UTF-8" standalone="no"?>
<!DOCTYPE svg PUBLIC "-//W3C//DTD SVG 1.1//EN"
 "http://www.w3.org/Graphics/SVG/1.1/DTD/svg11.dtd">
<!-- Generated by graphviz version 2.50.0 (20220203.2022)
 -->
<!-- Title: FragmentShader::create Pages: 1 -->
<!--zoomable 263 -->
<svg id="main" version="1.1" xmlns="http://www.w3.org/2000/svg" xmlns:xlink="http://www.w3.org/1999/xlink" xml:space="preserve" onload="init(evt)">
<style type="text/css"><![CDATA[
.edge:hover path { stroke: red; }
.edge:hover polygon { stroke: red; fill: red; }
]]></style>
<script type="text/javascript"><![CDATA[
var edges = document.getElementsByTagName('g');
if (edges && edges.length) {
  for (var i=0;i<edges.length;i++) {
    if (edges[i].id.substr(0,4)=='edge') {
      edges[i].setAttribute('class','edge');
    }
  }
}
]]></script>
        <defs>
                <circle id="rim" cx="0" cy="0" r="7"/>
                <circle id="rim2" cx="0" cy="0" r="3.5"/>
                <g id="zoomPlus">
                        <use xlink:href="#rim" fill="#404040">
                                <set attributeName="fill" to="#808080" begin="zoomplus.mouseover" end="zoomplus.mouseout"/>
                        </use>
                        <path d="M-4,0h8M0,-4v8" fill="none" stroke="white" stroke-width="1.5" pointer-events="none"/>
                </g>
                <g id="zoomMin">
                        <use xlink:href="#rim" fill="#404040">
                                <set attributeName="fill" to="#808080" begin="zoomminus.mouseover" end="zoomminus.mouseout"/>
                        </use>
                        <path d="M-4,0h8" fill="none" stroke="white" stroke-width="1.5" pointer-events="none"/>
                </g>
                <g id="dirArrow">
                        <path fill="none" stroke="white" stroke-width="1.5" d="M0,-3.0v7 M-2.5,-0.5L0,-3.0L2.5,-0.5"/>
                </g>
               <g id="resetDef">
                       <use xlink:href="#rim2" fill="#404040">
                               <set attributeName="fill" to="#808080" begin="reset.mouseover" end="reset.mouseout"/>
                       </use>
               </g>
        </defs>

<script type="text/javascript">
var viewWidth = 751;
var viewHeight = 263;
var sectionId = 'dynsection-3';
</script>
<script xlink:href="svgpan.js"/>
<svg id="graph" class="graph">
<g id="viewport">
<title>FragmentShader::create</title>
<!-- Node1 -->
<g id="node1" class="node">
<title>Node1</title>
<g id="a_node1"><a xlink:title=" ">
<polygon fill="#bfbfbf" stroke="black" points="623,-82.5 623,-101.5 743,-101.5 743,-82.5 623,-82.5"/>
<text text-anchor="middle" x="683" y="-89.5" font-family="Helvetica,sans-Serif" font-size="10.00">FragmentShader::create</text>
</a>
</g>
</g>
<!-- Node2 -->
<g id="node2" class="node">
<title>Node2</title>
<g id="a_node2"><a xlink:href="class_render_manager.html#aa04e5bcc41eaf66bd29d811e39d71c3c" target="_top" xlink:title=" ">
<polygon fill="none" stroke="black" points="437.5,-175 437.5,-205 584.5,-205 584.5,-175 437.5,-175"/>
<text text-anchor="start" x="445.5" y="-193" font-family="Helvetica,sans-Serif" font-size="10.00">RenderManager::createDefault</text>
<text text-anchor="middle" x="511" y="-182" font-family="Helvetica,sans-Serif" font-size="10.00">Material</text>
</a>
</g>
</g>
<!-- Node1&#45;&gt;Node2 -->
<g id="edge1" class="edge">
<title>Node1&#45;&gt;Node2</title>
<path fill="none" stroke="midnightblue" d="M664.86,-108.42C646.78,-124.98 616.82,-150.26 587,-166 580.71,-169.32 573.89,-172.28 567,-174.89"/>
<polygon fill="midnightblue" stroke="midnightblue" points="667.36,-110.88 672.29,-101.5 662.59,-105.76 667.36,-110.88"/>
</g>
<!-- Node6 -->
<g id="node6" class="node">
<title>Node6</title>
<g id="a_node6"><a xlink:href="class_mandelbrot_app.html#a5e76d0eb44ecf689ac5dc6a2a9336795" target="_top" xlink:title=" ">
<polygon fill="none" stroke="black" points="435,-126 435,-156 587,-156 587,-126 435,-126"/>
<text text-anchor="start" x="443" y="-144" font-family="Helvetica,sans-Serif" font-size="10.00">MandelbrotApp::createGraphics</text>
<text text-anchor="middle" x="511" y="-133" font-family="Helvetica,sans-Serif" font-size="10.00">Pipeline</text>
</a>
</g>
</g>
<!-- Node1&#45;&gt;Node6 -->
<g id="edge5" class="edge">
<title>Node1&#45;&gt;Node6</title>
<path fill="none" stroke="midnightblue" d="M639.1,-104.37C616.34,-110.93 588.19,-119.04 564.17,-125.96"/>
<polygon fill="midnightblue" stroke="midnightblue" points="640.18,-107.7 648.82,-101.56 638.24,-100.97 640.18,-107.7"/>
</g>
<!-- Node11 -->
<g id="node11" class="node">
<title>Node11</title>
<g id="a_node11"><a xlink:href="class_render_manager.html#a45a6fffe5f74da37695476732b53d33b" target="_top" xlink:title=" ">
<polygon fill="none" stroke="black" points="442.5,-77 442.5,-107 579.5,-107 579.5,-77 442.5,-77"/>
<text text-anchor="start" x="450.5" y="-95" font-family="Helvetica,sans-Serif" font-size="10.00">RenderManager::createPost</text>
<text text-anchor="middle" x="511" y="-84" font-family="Helvetica,sans-Serif" font-size="10.00">ProcessingPipelines</text>
</a>
</g>
</g>
<!-- Node1&#45;&gt;Node11 -->
<g id="edge10" class="edge">
<title>Node1&#45;&gt;Node11</title>
<path fill="none" stroke="midnightblue" d="M612.3,-92C601.49,-92 590.33,-92 579.57,-92"/>
<polygon fill="midnightblue" stroke="midnightblue" points="612.54,-95.5 622.54,-92 612.54,-88.5 612.54,-95.5"/>
</g>
<!-- Node12 -->
<g id="node12" class="node">
<title>Node12</title>
<g id="a_node12"><a xlink:href="class_mandelbrot_app.html#ae15547e49fb9d4a3b4ee4b9603dd1968" target="_top" xlink:title=" ">
<polygon fill="none" stroke="black" points="443,-38.5 443,-57.5 579,-57.5 579,-38.5 443,-38.5"/>
<text text-anchor="middle" x="511" y="-45.5" font-family="Helvetica,sans-Serif" font-size="10.00">MandelbrotApp::loadModels</text>
</a>
</g>
</g>
<!-- Node1&#45;&gt;Node12 -->
<g id="edge11" class="edge">
<title>Node1&#45;&gt;Node12</title>
<path fill="none" stroke="midnightblue" d="M636.02,-79.81C620.46,-75.71 602.98,-71.13 587,-67 574.9,-63.88 561.7,-60.52 549.79,-57.5"/>
<polygon fill="midnightblue" stroke="midnightblue" points="635.37,-83.26 645.93,-82.42 637.16,-76.49 635.37,-83.26"/>
</g>
<!-- Node13 -->
<g id="node13" class="node">
<title>Node13</title>
<g id="a_node13"><a xlink:href="vulkan__voxel__rasterizer_8cpp.html#ae66f6b31b5ad750f1fe042a706a4e3d4" target="_top" xlink:title=" ">
<polygon fill="none" stroke="black" points="492,-0.5 492,-19.5 530,-19.5 530,-0.5 492,-0.5"/>
<text text-anchor="middle" x="511" y="-7.5" font-family="Helvetica,sans-Serif" font-size="10.00">main</text>
</a>
</g>
</g>
<!-- Node1&#45;&gt;Node13 -->
<g id="edge13" class="edge">
<title>Node1&#45;&gt;Node13</title>
<path fill="none" stroke="midnightblue" d="M662.54,-76.23C644.1,-62 615.12,-41.45 587,-29 568.45,-20.79 545.69,-15.65 530.14,-12.82"/>
<polygon fill="midnightblue" stroke="midnightblue" points="660.44,-79.02 670.47,-82.45 664.77,-73.52 660.44,-79.02"/>
</g>
<!-- Node3 -->
<g id="node3" class="node">
<title>Node3</title>
<g id="a_node3"><a xlink:href="class_render_manager.html#a2f5991e4b82925a2571e6fabf1e8b7b9" target="_top" xlink:title=" ">
<polygon fill="none" stroke="black" points="251,-224 251,-254 398,-254 398,-224 251,-224"/>
<text text-anchor="start" x="259" y="-242" font-family="Helvetica,sans-Serif" font-size="10.00">RenderManager::createRender</text>
<text text-anchor="middle" x="324.5" y="-231" font-family="Helvetica,sans-Serif" font-size="10.00">Objects</text>
</a>
</g>
</g>
<!-- Node2&#45;&gt;Node3 -->
<g id="edge2" class="edge">
<title>Node2&#45;&gt;Node3</title>
<path fill="none" stroke="midnightblue" d="M443.64,-207.62C423.46,-212.98 401.47,-218.82 382,-223.99"/>
<polygon fill="midnightblue" stroke="midnightblue" points="444.62,-210.98 453.39,-205.03 442.83,-204.22 444.62,-210.98"/>
</g>
<!-- Node4 -->
<g id="node4" class="node">
<title>Node4</title>
<g id="a_node4"><a xlink:href="class_render_manager.html#a3e54c122912e1b713b2f6357cdc370fb" target="_top" xlink:title=" ">
<polygon fill="none" stroke="black" points="250,-175 250,-205 399,-205 399,-175 250,-175"/>
<text text-anchor="start" x="258" y="-193" font-family="Helvetica,sans-Serif" font-size="10.00">RenderManager::recreateSwap</text>
<text text-anchor="middle" x="324.5" y="-182" font-family="Helvetica,sans-Serif" font-size="10.00">Chain</text>
</a>
</g>
</g>
<!-- Node2&#45;&gt;Node4 -->
<g id="edge3" class="edge">
<title>Node2&#45;&gt;Node4</title>
<path fill="none" stroke="midnightblue" d="M427.29,-190C417.96,-190 408.5,-190 399.3,-190"/>
<polygon fill="midnightblue" stroke="midnightblue" points="427.35,-193.5 437.35,-190 427.35,-186.5 427.35,-193.5"/>
</g>
<!-- Node5 -->
<g id="node5" class="node">
<title>Node5</title>
<g id="a_node5"><a xlink:href="class_render_manager.html#ab087dc4ee1c6e377ca52ee44d1591c29" target="_top" xlink:title=" ">
<polygon fill="none" stroke="black" points="74,-175 74,-205 214,-205 214,-175 74,-175"/>
<text text-anchor="start" x="82" y="-193" font-family="Helvetica,sans-Serif" font-size="10.00">RenderManager::resizeSwap</text>
<text text-anchor="middle" x="144" y="-182" font-family="Helvetica,sans-Serif" font-size="10.00">Chain</text>
</a>
</g>
</g>
<!-- Node4&#45;&gt;Node5 -->
<g id="edge4" class="edge">
<title>Node4&#45;&gt;Node5</title>
<path fill="none" stroke="midnightblue" d="M239.83,-190C231.24,-190 222.57,-190 214.16,-190"/>
<polygon fill="midnightblue" stroke="midnightblue" points="239.87,-193.5 249.87,-190 239.87,-186.5 239.87,-193.5"/>
</g>
<!-- Node7 -->
<g id="node7" class="node">
<title>Node7</title>
<g id="a_node7"><a xlink:href="class_mandelbrot_app.html#ad5c4a7e7fd79bc75fea87df0165005b6" target="_top" xlink:title=" ">
<polygon fill="none" stroke="black" points="260,-63.5 260,-82.5 389,-82.5 389,-63.5 260,-63.5"/>
<text text-anchor="middle" x="324.5" y="-70.5" font-family="Helvetica,sans-Serif" font-size="10.00">MandelbrotApp::initVulkan</text>
</a>
</g>
</g>
<!-- Node6&#45;&gt;Node7 -->
<g id="edge6" class="edge">
<title>Node6&#45;&gt;Node7</title>
<path fill="none" stroke="midnightblue" d="M451.16,-122.62C445.68,-120.77 440.23,-118.88 435,-117 404.55,-106.03 369.97,-91.84 347.97,-82.58"/>
<polygon fill="midnightblue" stroke="midnightblue" points="450.42,-126.06 461.01,-125.89 452.62,-119.42 450.42,-126.06"/>
</g>
<!-- Node10 -->
<g id="node10" class="node">
<title>Node10</title>
<g id="a_node10"><a xlink:href="class_mandelbrot_app.html#a733620a6533fb25a6ffa309886b74904" target="_top" xlink:title=" ">
<polygon fill="none" stroke="black" points="251.5,-126 251.5,-156 397.5,-156 397.5,-126 251.5,-126"/>
<text text-anchor="start" x="259.5" y="-144" font-family="Helvetica,sans-Serif" font-size="10.00">MandelbrotApp::recreateSwap</text>
<text text-anchor="middle" x="324.5" y="-133" font-family="Helvetica,sans-Serif" font-size="10.00">Chain</text>
</a>
</g>
</g>
<!-- Node6&#45;&gt;Node10 -->
<g id="edge9" class="edge">
<title>Node6&#45;&gt;Node10</title>
<path fill="none" stroke="midnightblue" d="M424.81,-141C415.78,-141 406.66,-141 397.79,-141"/>
<polygon fill="midnightblue" stroke="midnightblue" points="424.96,-144.5 434.96,-141 424.96,-137.5 424.96,-144.5"/>
</g>
<!-- Node8 -->
<g id="node8" class="node">
<title>Node8</title>
<g id="a_node8"><a xlink:href="class_mandelbrot_app.html#a2cd742dc1400d3cf3e4ed782976fda5f" target="_top" xlink:title=" ">
<polygon fill="none" stroke="black" points="94,-63.5 94,-82.5 194,-82.5 194,-63.5 94,-63.5"/>
<text text-anchor="middle" x="144" y="-70.5" font-family="Helvetica,sans-Serif" font-size="10.00">MandelbrotApp::run</text>
</a>
</g>
</g>
<!-- Node7&#45;&gt;Node8 -->
<g id="edge7" class="edge">
<title>Node7&#45;&gt;Node8</title>
<path fill="none" stroke="midnightblue" d="M249.8,-73C231.01,-73 211.28,-73 194.07,-73"/>
<polygon fill="midnightblue" stroke="midnightblue" points="249.81,-76.5 259.81,-73 249.81,-69.5 249.81,-76.5"/>
</g>
<!-- Node9 -->
<g id="node9" class="node">
<title>Node9</title>
<g id="a_node9"><a xlink:href="vulkan__voxel__rasterizer__2_8cpp.html#ae66f6b31b5ad750f1fe042a706a4e3d4" target="_top" xlink:title=" ">
<polygon fill="none" stroke="black" points="0,-63.5 0,-82.5 38,-82.5 38,-63.5 0,-63.5"/>
<text text-anchor="middle" x="19" y="-70.5" font-family="Helvetica,sans-Serif" font-size="10.00">main</text>
</a>
</g>
</g>
<!-- Node8&#45;&gt;Node9 -->
<g id="edge8" class="edge">
<title>Node8&#45;&gt;Node9</title>
<path fill="none" stroke="midnightblue" d="M83.44,-73C66.88,-73 50.14,-73 38.01,-73"/>
<polygon fill="midnightblue" stroke="midnightblue" points="83.68,-76.5 93.68,-73 83.68,-69.5 83.68,-76.5"/>
</g>
<!-- Node12&#45;&gt;Node7 -->
<g id="edge12" class="edge">
<title>Node12&#45;&gt;Node7</title>
<path fill="none" stroke="midnightblue" d="M432.9,-58.45C418.35,-60.42 403.28,-62.46 389.2,-64.37"/>
<polygon fill="midnightblue" stroke="midnightblue" points="433.43,-61.91 442.87,-57.1 432.49,-54.97 433.43,-61.91"/>
</g>
</g>
</svg>
        <g id="navigator" transform="translate(0 0)" fill="#404254">
                <rect fill="#f2f5e9" fill-opacity="0.5" stroke="#606060" stroke-width=".5" x="0" y="0" width="60" height="60"/>
                <use id="zoomplus" xlink:href="#zoomPlus" x="17" y="9" onmousedown="handleZoom(evt,'in')"/>
                <use id="zoomminus" xlink:href="#zoomMin" x="42" y="9" onmousedown="handleZoom(evt,'out')"/>
                <use id="reset" xlink:href="#resetDef" x="30" y="36" onmousedown="handleReset()"/>
                <g id="arrowUp" xlink:href="#dirArrow" transform="translate(30 24)" onmousedown="handlePan(0,-1)">
                  <use xlink:href="#rim" fill="#404040">
                        <set attributeName="fill" to="#808080" begin="arrowUp.mouseover" end="arrowUp.mouseout"/>
                  </use>
                  <path fill="none" stroke="white" stroke-width="1.5" d="M0,-3.0v7 M-2.5,-0.5L0,-3.0L2.5,-0.5"/>
                </g>
                <g id="arrowRight" xlink:href="#dirArrow" transform="rotate(90) translate(36 -43)" onmousedown="handlePan(1,0)">
                  <use xlink:href="#rim" fill="#404040">
                        <set attributeName="fill" to="#808080" begin="arrowRight.mouseover" end="arrowRight.mouseout"/>
                  </use>
                  <path fill="none" stroke="white" stroke-width="1.5" d="M0,-3.0v7 M-2.5,-0.5L0,-3.0L2.5,-0.5"/>
                </g>
                <g id="arrowDown" xlink:href="#dirArrow" transform="rotate(180) translate(-30 -48)" onmousedown="handlePan(0,1)">
                  <use xlink:href="#rim" fill="#404040">
                        <set attributeName="fill" to="#808080" begin="arrowDown.mouseover" end="arrowDown.mouseout"/>
                  </use>
                  <path fill="none" stroke="white" stroke-width="1.5" d="M0,-3.0v7 M-2.5,-0.5L0,-3.0L2.5,-0.5"/>
                </g>
                <g id="arrowLeft" xlink:href="#dirArrow" transform="rotate(270) translate(-36 17)" onmousedown="handlePan(-1,0)">
                  <use xlink:href="#rim" fill="#404040">
                        <set attributeName="fill" to="#808080" begin="arrowLeft.mouseover" end="arrowLeft.mouseout"/>
                  </use>
                  <path fill="none" stroke="white" stroke-width="1.5" d="M0,-3.0v7 M-2.5,-0.5L0,-3.0L2.5,-0.5"/>
                </g>
        </g>
        <svg viewBox="0 0 15 15" width="100%" height="30px" preserveAspectRatio="xMaxYMin meet">
         <g id="arrow_out" transform="scale(0.3 0.3)">
          <a xlink:href="class_fragment_shader_a1221d3fb805310bb64a01e032e794d0b_icgraph_org.svg" target="_base">
           <rect id="button" ry="5" rx="5" y="6" x="6" height="38" width="38"
                fill="#f2f5e9" fill-opacity="0.5" stroke="#606060" stroke-width="1.0"/>
           <path id="arrow"
             d="M 11.500037,31.436501 C 11.940474,20.09759 22.043105,11.32322 32.158766,21.979434 L 37.068811,17.246167 C 37.068811,17.246167 37.088388,32 37.088388,32 L 22.160133,31.978069 C 22.160133,31.978069 26.997745,27.140456 26.997745,27.140456 C 18.528582,18.264221 13.291696,25.230495 11.500037,31.436501 z"
             style="fill:#404040;"/>
          </a>
         </g>
        </svg>
</svg>
