<?xml version="1.0" encoding="UTF-8" standalone="no"?>
<!DOCTYPE svg PUBLIC "-//W3C//DTD SVG 1.1//EN"
 "http://www.w3.org/Graphics/SVG/1.1/DTD/svg11.dtd">
<!-- Generated by graphviz version 2.50.0 (20220203.2022)
 -->
<!-- Title: MandelbrotApp::remove Pages: 1 -->
<svg width="693pt" height="78pt"
 viewBox="0.00 0.00 693.00 77.50" xmlns="http://www.w3.org/2000/svg" xmlns:xlink="http://www.w3.org/1999/xlink">
<g id="graph0" class="graph" transform="scale(1 1) rotate(0) translate(4 73.5)">
<title>MandelbrotApp::remove</title>
<!-- Node1 -->
<g id="node1" class="node">
<title>Node1</title>
<g id="a_node1"><a xlink:title=" ">
<polygon fill="#bfbfbf" stroke="black" points="566,-28 566,-47 685,-47 685,-28 566,-28"/>
<text text-anchor="middle" x="625.5" y="-35" font-family="Helvetica,sans-Serif" font-size="10.00">MandelbrotApp::remove</text>
</a>
</g>
</g>
<!-- Node2 -->
<g id="node2" class="node">
<title>Node2</title>
<g id="a_node2"><a xlink:href="class_mandelbrot_app.html#ab4ca51db62e7b50d59a46e83a7fb4a9e" target="_top" xlink:title=" ">
<polygon fill="none" stroke="black" points="392,-22.5 392,-52.5 530,-52.5 530,-22.5 392,-22.5"/>
<text text-anchor="start" x="400" y="-40.5" font-family="Helvetica,sans-Serif" font-size="10.00">MandelbrotApp::createSwap</text>
<text text-anchor="middle" x="461" y="-29.5" font-family="Helvetica,sans-Serif" font-size="10.00">Chain</text>
</a>
</g>
</g>
<!-- Node1&#45;&gt;Node2 -->
<g id="edge1" class="edge">
<title>Node1&#45;&gt;Node2</title>
<path fill="none" stroke="midnightblue" d="M555.68,-37.5C547.26,-37.5 538.66,-37.5 530.25,-37.5"/>
<polygon fill="midnightblue" stroke="midnightblue" points="555.83,-41 565.83,-37.5 555.83,-34 555.83,-41"/>
</g>
<!-- Node3 -->
<g id="node3" class="node">
<title>Node3</title>
<g id="a_node3"><a xlink:href="class_mandelbrot_app.html#ad5c4a7e7fd79bc75fea87df0165005b6" target="_top" xlink:title=" ">
<polygon fill="none" stroke="black" points="218.5,-50 218.5,-69 347.5,-69 347.5,-50 218.5,-50"/>
<text text-anchor="middle" x="283" y="-57" font-family="Helvetica,sans-Serif" font-size="10.00">MandelbrotApp::initVulkan</text>
</a>
</g>
</g>
<!-- Node2&#45;&gt;Node3 -->
<g id="edge2" class="edge">
<title>Node2&#45;&gt;Node3</title>
<path fill="none" stroke="midnightblue" d="M381.93,-47.26C370.43,-48.7 358.7,-50.16 347.54,-51.56"/>
<polygon fill="midnightblue" stroke="midnightblue" points="382.47,-50.72 391.95,-46.01 381.6,-43.77 382.47,-50.72"/>
</g>
<!-- Node6 -->
<g id="node6" class="node">
<title>Node6</title>
<g id="a_node6"><a xlink:href="class_mandelbrot_app.html#a733620a6533fb25a6ffa309886b74904" target="_top" xlink:title=" ">
<polygon fill="none" stroke="black" points="210,-0.5 210,-30.5 356,-30.5 356,-0.5 210,-0.5"/>
<text text-anchor="start" x="218" y="-18.5" font-family="Helvetica,sans-Serif" font-size="10.00">MandelbrotApp::recreateSwap</text>
<text text-anchor="middle" x="283" y="-7.5" font-family="Helvetica,sans-Serif" font-size="10.00">Chain</text>
</a>
</g>
</g>
<!-- Node2&#45;&gt;Node6 -->
<g id="edge5" class="edge">
<title>Node2&#45;&gt;Node6</title>
<path fill="none" stroke="midnightblue" d="M381.98,-27.75C373.42,-26.68 364.73,-25.59 356.24,-24.53"/>
<polygon fill="midnightblue" stroke="midnightblue" points="381.6,-31.23 391.95,-28.99 382.47,-24.28 381.6,-31.23"/>
</g>
<!-- Node4 -->
<g id="node4" class="node">
<title>Node4</title>
<g id="a_node4"><a xlink:href="class_mandelbrot_app.html#a2cd742dc1400d3cf3e4ed782976fda5f" target="_top" xlink:title=" ">
<polygon fill="none" stroke="black" points="74,-50 74,-69 174,-69 174,-50 74,-50"/>
<text text-anchor="middle" x="124" y="-57" font-family="Helvetica,sans-Serif" font-size="10.00">MandelbrotApp::run</text>
</a>
</g>
</g>
<!-- Node3&#45;&gt;Node4 -->
<g id="edge3" class="edge">
<title>Node3&#45;&gt;Node4</title>
<path fill="none" stroke="midnightblue" d="M208.13,-59.5C196.68,-59.5 185.09,-59.5 174.35,-59.5"/>
<polygon fill="midnightblue" stroke="midnightblue" points="208.14,-63 218.14,-59.5 208.14,-56 208.14,-63"/>
</g>
<!-- Node5 -->
<g id="node5" class="node">
<title>Node5</title>
<g id="a_node5"><a xlink:href="vulkan__voxel__rasterizer__2_8cpp.html#ae66f6b31b5ad750f1fe042a706a4e3d4" target="_top" xlink:title=" ">
<polygon fill="none" stroke="black" points="0,-50 0,-69 38,-69 38,-50 0,-50"/>
<text text-anchor="middle" x="19" y="-57" font-family="Helvetica,sans-Serif" font-size="10.00">main</text>
</a>
</g>
</g>
<!-- Node4&#45;&gt;Node5 -->
<g id="edge4" class="edge">
<title>Node4&#45;&gt;Node5</title>
<path fill="none" stroke="midnightblue" d="M63.85,-59.5C54.65,-59.5 45.78,-59.5 38.46,-59.5"/>
<polygon fill="midnightblue" stroke="midnightblue" points="63.91,-63 73.91,-59.5 63.91,-56 63.91,-63"/>
</g>
</g>
</svg>
