<?xml version="1.0" encoding="UTF-8" standalone="no"?>
<!DOCTYPE svg PUBLIC "-//W3C//DTD SVG 1.1//EN"
 "http://www.w3.org/Graphics/SVG/1.1/DTD/svg11.dtd">
<!-- Generated by graphviz version 2.49.3 (20211215.1918)
 -->
<!-- Title: VulkanRasterizer::run Pages: 1 -->
<!--zoomable 583 -->
<svg id="main" version="1.1" xmlns="http://www.w3.org/2000/svg" xmlns:xlink="http://www.w3.org/1999/xlink" xml:space="preserve" onload="init(evt)">
<style type="text/css"><![CDATA[
.edge:hover path { stroke: red; }
.edge:hover polygon { stroke: red; fill: red; }
]]></style>
<script type="text/javascript"><![CDATA[
var edges = document.getElementsByTagName('g');
if (edges && edges.length) {
  for (var i=0;i<edges.length;i++) {
    if (edges[i].id.substr(0,4)=='edge') {
      edges[i].setAttribute('class','edge');
    }
  }
}
]]></script>
        <defs>
                <circle id="rim" cx="0" cy="0" r="7"/>
                <circle id="rim2" cx="0" cy="0" r="3.5"/>
                <g id="zoomPlus">
                        <use xlink:href="#rim" fill="#404040">
                                <set attributeName="fill" to="#808080" begin="zoomplus.mouseover" end="zoomplus.mouseout"/>
                        </use>
                        <path d="M-4,0h8M0,-4v8" fill="none" stroke="white" stroke-width="1.5" pointer-events="none"/>
                </g>
                <g id="zoomMin">
                        <use xlink:href="#rim" fill="#404040">
                                <set attributeName="fill" to="#808080" begin="zoomminus.mouseover" end="zoomminus.mouseout"/>
                        </use>
                        <path d="M-4,0h8" fill="none" stroke="white" stroke-width="1.5" pointer-events="none"/>
                </g>
                <g id="dirArrow">
                        <path fill="none" stroke="white" stroke-width="1.5" d="M0,-3.0v7 M-2.5,-0.5L0,-3.0L2.5,-0.5"/>
                </g>
               <g id="resetDef">
                       <use xlink:href="#rim2" fill="#404040">
                               <set attributeName="fill" to="#808080" begin="reset.mouseover" end="reset.mouseout"/>
                       </use>
               </g>
        </defs>

<script type="text/javascript">
var viewWidth = 1027;
var viewHeight = 583;
var sectionId = 'dynsection-16';
</script>
<script xlink:href="svgpan.js"/>
<svg id="graph" class="graph">
<g id="viewport">
<title>VulkanRasterizer::run</title>
<!-- Node1 -->
<g id="node1" class="node">
<title>Node1</title>
<g id="a_node1"><a xlink:title=" ">
<polygon fill="#bfbfbf" stroke="black" points="0,-341.5 0,-360.5 108,-360.5 108,-341.5 0,-341.5"/>
<text text-anchor="middle" x="54" y="-348.5" font-family="Helvetica,sans-Serif" font-size="10.00">VulkanRasterizer::run</text>
</a>
</g>
</g>
<!-- Node2 -->
<g id="node2" class="node">
<title>Node2</title>
<g id="a_node2"><a xlink:href="class_vulkan_rasterizer.html#ad563a3216fcd02e6bf4473382c8a3125" target="_top" xlink:title=" ">
<polygon fill="none" stroke="black" points="148.5,-379.5 148.5,-398.5 276.5,-398.5 276.5,-379.5 148.5,-379.5"/>
<text text-anchor="middle" x="212.5" y="-386.5" font-family="Helvetica,sans-Serif" font-size="10.00">VulkanRasterizer::cleanup</text>
</a>
</g>
</g>
<!-- Node1&#45;&gt;Node2 -->
<g id="edge1" class="edge">
<title>Node1&#45;&gt;Node2</title>
<path fill="none" stroke="midnightblue" d="M94.49,-360.59C115.14,-365.6 140.61,-371.79 162.51,-377.11"/>
<polygon fill="midnightblue" stroke="midnightblue" points="161.75,-380.52 172.29,-379.48 163.4,-373.72 161.75,-380.52"/>
</g>
<!-- Node3 -->
<g id="node3" class="node">
<title>Node3</title>
<g id="a_node3"><a xlink:href="class_vulkan_rasterizer.html#a91d83d21a2d62b9042827d03a8b4d7a0" target="_top" xlink:title=" ">
<polygon fill="none" stroke="black" points="159,-341.5 159,-360.5 266,-360.5 266,-341.5 159,-341.5"/>
<text text-anchor="middle" x="212.5" y="-348.5" font-family="Helvetica,sans-Serif" font-size="10.00">VulkanRasterizer::init</text>
</a>
</g>
</g>
<!-- Node1&#45;&gt;Node3 -->
<g id="edge2" class="edge">
<title>Node1&#45;&gt;Node3</title>
<path fill="none" stroke="midnightblue" d="M108.42,-351C121.4,-351 135.4,-351 148.78,-351"/>
<polygon fill="midnightblue" stroke="midnightblue" points="148.85,-354.5 158.85,-351 148.85,-347.5 148.85,-354.5"/>
</g>
<!-- Node34 -->
<g id="node34" class="node">
<title>Node34</title>
<g id="a_node34"><a xlink:href="class_vulkan_rasterizer.html#a3d77e38b2da09aa7f56e5bf247932bc8" target="_top" xlink:title=" ">
<polygon fill="none" stroke="black" points="144,-303.5 144,-322.5 281,-322.5 281,-303.5 144,-303.5"/>
<text text-anchor="middle" x="212.5" y="-310.5" font-family="Helvetica,sans-Serif" font-size="10.00">VulkanRasterizer::mainLoop</text>
</a>
</g>
</g>
<!-- Node1&#45;&gt;Node34 -->
<g id="edge35" class="edge">
<title>Node1&#45;&gt;Node34</title>
<path fill="none" stroke="midnightblue" d="M94.49,-341.41C115.14,-336.4 140.61,-330.21 162.51,-324.89"/>
<polygon fill="midnightblue" stroke="midnightblue" points="163.4,-328.28 172.29,-322.52 161.75,-321.48 163.4,-328.28"/>
</g>
<!-- Node4 -->
<g id="node4" class="node">
<title>Node4</title>
<g id="a_node4"><a xlink:href="class_vulkan_rasterizer.html#a29b1525f64ee3cc77220ec6ac8413a5c" target="_top" xlink:title=" ">
<polygon fill="none" stroke="black" points="328,-456 328,-486 450,-486 450,-456 328,-456"/>
<text text-anchor="start" x="336" y="-474" font-family="Helvetica,sans-Serif" font-size="10.00">VulkanRasterizer::create</text>
<text text-anchor="middle" x="389" y="-463" font-family="Helvetica,sans-Serif" font-size="10.00">Instance</text>
</a>
</g>
</g>
<!-- Node3&#45;&gt;Node4 -->
<g id="edge3" class="edge">
<title>Node3&#45;&gt;Node4</title>
<path fill="none" stroke="midnightblue" d="M265.61,-360.61C271.17,-363.06 276.45,-366.14 281,-370 309.8,-394.45 288.84,-421.82 317,-447 318.33,-448.19 319.73,-449.33 321.17,-450.4"/>
<polygon fill="midnightblue" stroke="midnightblue" points="319.63,-453.57 329.94,-455.99 323.39,-447.66 319.63,-453.57"/>
</g>
<!-- Node12 -->
<g id="node12" class="node">
<title>Node12</title>
<g id="a_node12"><a xlink:href="class_vulkan_rasterizer.html#a498dd6be7070d25039d287f492fa9ec4" target="_top" xlink:title=" ">
<polygon fill="none" stroke="black" points="328,-407 328,-437 450,-437 450,-407 328,-407"/>
<text text-anchor="start" x="336" y="-425" font-family="Helvetica,sans-Serif" font-size="10.00">VulkanRasterizer::create</text>
<text text-anchor="middle" x="389" y="-414" font-family="Helvetica,sans-Serif" font-size="10.00">RenderManager</text>
</a>
</g>
</g>
<!-- Node3&#45;&gt;Node12 -->
<g id="edge12" class="edge">
<title>Node3&#45;&gt;Node12</title>
<path fill="none" stroke="midnightblue" d="M256.93,-360.54C265.14,-363.09 273.5,-366.21 281,-370 299.09,-379.14 299.15,-388.4 317,-398 320.29,-399.77 323.73,-401.44 327.25,-403.02"/>
<polygon fill="midnightblue" stroke="midnightblue" points="326.13,-406.34 336.7,-406.97 328.83,-399.88 326.13,-406.34"/>
</g>
<!-- Node14 -->
<g id="node14" class="node">
<title>Node14</title>
<g id="a_node14"><a xlink:href="class_vulkan_rasterizer.html#a05cc5233ba0a972187309807adced9f1" target="_top" xlink:title=" ">
<polygon fill="none" stroke="black" points="328,-358 328,-388 450,-388 450,-358 328,-358"/>
<text text-anchor="start" x="336" y="-376" font-family="Helvetica,sans-Serif" font-size="10.00">VulkanRasterizer::create</text>
<text text-anchor="middle" x="389" y="-365" font-family="Helvetica,sans-Serif" font-size="10.00">Scene</text>
</a>
</g>
</g>
<!-- Node3&#45;&gt;Node14 -->
<g id="edge14" class="edge">
<title>Node3&#45;&gt;Node14</title>
<path fill="none" stroke="midnightblue" d="M266.33,-357.66C282.51,-359.7 300.58,-361.98 317.73,-364.14"/>
<polygon fill="midnightblue" stroke="midnightblue" points="317.35,-367.62 327.71,-365.4 318.22,-360.68 317.35,-367.62"/>
</g>
<!-- Node15 -->
<g id="node15" class="node">
<title>Node15</title>
<g id="a_node15"><a xlink:href="class_vulkan_rasterizer.html#afdbc57016d139bcab3ee3b983ca77227" target="_top" xlink:title=" ">
<polygon fill="none" stroke="black" points="323,-319.5 323,-338.5 455,-338.5 455,-319.5 323,-319.5"/>
<text text-anchor="middle" x="389" y="-326.5" font-family="Helvetica,sans-Serif" font-size="10.00">VulkanRasterizer::createUI</text>
</a>
</g>
</g>
<!-- Node3&#45;&gt;Node15 -->
<g id="edge15" class="edge">
<title>Node3&#45;&gt;Node15</title>
<path fill="none" stroke="midnightblue" d="M266.33,-344.34C280.89,-342.5 296.98,-340.47 312.56,-338.51"/>
<polygon fill="midnightblue" stroke="midnightblue" points="313.22,-341.96 322.7,-337.23 312.34,-335.01 313.22,-341.96"/>
</g>
<!-- Node19 -->
<g id="node19" class="node">
<title>Node19</title>
<g id="a_node19"><a xlink:href="class_vulkan_rasterizer.html#ad74237aa45e8869add80eac8f5eed13f" target="_top" xlink:title=" ">
<polygon fill="none" stroke="black" points="318,-266.5 318,-285.5 460,-285.5 460,-266.5 318,-266.5"/>
<text text-anchor="middle" x="389" y="-273.5" font-family="Helvetica,sans-Serif" font-size="10.00">VulkanRasterizer::initWindow</text>
</a>
</g>
</g>
<!-- Node3&#45;&gt;Node19 -->
<g id="edge19" class="edge">
<title>Node3&#45;&gt;Node19</title>
<path fill="none" stroke="midnightblue" d="M254.46,-341.41C263.37,-338.79 272.63,-335.65 281,-332 298.19,-324.5 300.52,-318.95 317,-310 330.02,-302.93 344.74,-295.75 357.38,-289.83"/>
<polygon fill="midnightblue" stroke="midnightblue" points="358.99,-292.94 366.59,-285.56 356.05,-286.59 358.99,-292.94"/>
</g>
<!-- Node24 -->
<g id="node24" class="node">
<title>Node24</title>
<g id="a_node24"><a xlink:href="class_vulkan_rasterizer.html#a0649950f85953da05358416d7616fc09" target="_top" xlink:title=" ">
<polygon fill="none" stroke="black" points="317,-114.5 317,-133.5 461,-133.5 461,-114.5 317,-114.5"/>
<text text-anchor="middle" x="389" y="-121.5" font-family="Helvetica,sans-Serif" font-size="10.00">VulkanRasterizer::loadModels</text>
</a>
</g>
</g>
<!-- Node3&#45;&gt;Node24 -->
<g id="edge24" class="edge">
<title>Node3&#45;&gt;Node24</title>
<path fill="none" stroke="midnightblue" d="M265.23,-341.5C270.93,-339.03 276.34,-335.92 281,-332 309.31,-308.21 300.29,-289.98 317,-257 337.89,-215.77 363.74,-168.15 377.77,-142.56"/>
<polygon fill="midnightblue" stroke="midnightblue" points="380.94,-144.05 382.69,-133.6 374.81,-140.68 380.94,-144.05"/>
</g>
<!-- Node5 -->
<g id="node5" class="node">
<title>Node5</title>
<g id="a_node5"><a xlink:href="class_instance.html#a5157cfdc2e0f384b6fc4d2f901f50e51" target="_top" xlink:title=" ">
<polygon fill="none" stroke="black" points="514.5,-461.5 514.5,-480.5 600.5,-480.5 600.5,-461.5 514.5,-461.5"/>
<text text-anchor="middle" x="557.5" y="-468.5" font-family="Helvetica,sans-Serif" font-size="10.00">Instance::create</text>
</a>
</g>
</g>
<!-- Node4&#45;&gt;Node5 -->
<g id="edge4" class="edge">
<title>Node4&#45;&gt;Node5</title>
<path fill="none" stroke="midnightblue" d="M450.11,-471C467.78,-471 486.95,-471 504.09,-471"/>
<polygon fill="midnightblue" stroke="midnightblue" points="504.47,-474.5 514.47,-471 504.47,-467.5 504.47,-474.5"/>
</g>
<!-- Node6 -->
<g id="node6" class="node">
<title>Node6</title>
<g id="a_node6"><a xlink:href="class_instance.html#a2596ee041184991f5bde771922d7a830" target="_top" xlink:title=" ">
<polygon fill="none" stroke="black" points="676,-544 676,-574 803,-574 803,-544 676,-544"/>
<text text-anchor="start" x="684" y="-562" font-family="Helvetica,sans-Serif" font-size="10.00">Instance::checkExtension</text>
<text text-anchor="middle" x="739.5" y="-551" font-family="Helvetica,sans-Serif" font-size="10.00">Support</text>
</a>
</g>
</g>
<!-- Node5&#45;&gt;Node6 -->
<g id="edge5" class="edge">
<title>Node5&#45;&gt;Node6</title>
<path fill="none" stroke="midnightblue" d="M572.23,-480.58C590.35,-492.93 623.51,-514.52 654,-529 662.56,-533.07 671.82,-536.89 680.97,-540.37"/>
<polygon fill="midnightblue" stroke="midnightblue" points="679.84,-543.68 690.44,-543.85 682.26,-537.11 679.84,-543.68"/>
</g>
<!-- Node7 -->
<g id="node7" class="node">
<title>Node7</title>
<g id="a_node7"><a xlink:href="class_instance.html#a3ce4bb24b3870839a2cde17344de7bae" target="_top" xlink:title=" ">
<polygon fill="none" stroke="black" points="861,-527.5 861,-546.5 1019,-546.5 1019,-527.5 861,-527.5"/>
<text text-anchor="middle" x="940" y="-534.5" font-family="Helvetica,sans-Serif" font-size="10.00">Instance::getRequiredExtensions</text>
</a>
</g>
</g>
<!-- Node5&#45;&gt;Node7 -->
<g id="edge10" class="edge">
<title>Node5&#45;&gt;Node7</title>
<path fill="none" stroke="midnightblue" d="M591.43,-480.6C609.74,-485.7 633,-491.76 654,-496 719.52,-509.24 794.35,-519.84 850.89,-526.94"/>
<polygon fill="midnightblue" stroke="midnightblue" points="850.52,-530.42 860.87,-528.18 851.38,-523.47 850.52,-530.42"/>
</g>
<!-- Node8 -->
<g id="node8" class="node">
<title>Node8</title>
<g id="a_node8"><a xlink:href="class_instance.html#a7dfd2e7ef11a8ea5389ff3b38e2bfe68" target="_top" xlink:title=" ">
<polygon fill="none" stroke="black" points="675.5,-456 675.5,-486 803.5,-486 803.5,-456 675.5,-456"/>
<text text-anchor="start" x="683.5" y="-474" font-family="Helvetica,sans-Serif" font-size="10.00">Instance::checkValidation</text>
<text text-anchor="middle" x="739.5" y="-463" font-family="Helvetica,sans-Serif" font-size="10.00">LayerSupport</text>
</a>
</g>
</g>
<!-- Node5&#45;&gt;Node8 -->
<g id="edge7" class="edge">
<title>Node5&#45;&gt;Node8</title>
<path fill="none" stroke="midnightblue" d="M600.7,-471C619.9,-471 643.18,-471 665.11,-471"/>
<polygon fill="midnightblue" stroke="midnightblue" points="665.4,-474.5 675.4,-471 665.4,-467.5 665.4,-474.5"/>
</g>
<!-- Node10 -->
<g id="node10" class="node">
<title>Node10</title>
<g id="a_node10"><a xlink:href="class_instance.html#ad5276a918a2877e7eee8d4a41d11cb73" target="_top" xlink:title=" ">
<polygon fill="none" stroke="black" points="672,-407 672,-437 807,-437 807,-407 672,-407"/>
<text text-anchor="start" x="680" y="-425" font-family="Helvetica,sans-Serif" font-size="10.00">Instance::CreateDebugUtils</text>
<text text-anchor="middle" x="739.5" y="-414" font-family="Helvetica,sans-Serif" font-size="10.00">MessengerEXT</text>
</a>
</g>
</g>
<!-- Node5&#45;&gt;Node10 -->
<g id="edge9" class="edge">
<title>Node5&#45;&gt;Node10</title>
<path fill="none" stroke="midnightblue" d="M593.63,-461.44C616.32,-455.26 646.53,-447.04 673.5,-439.7"/>
<polygon fill="midnightblue" stroke="midnightblue" points="674.53,-443.04 683.26,-437.04 672.69,-436.29 674.53,-443.04"/>
</g>
<!-- Node11 -->
<g id="node11" class="node">
<title>Node11</title>
<g id="a_node11"><a xlink:href="class_instance.html#afc03642c387a726d74cc7b766e5af16b" target="_top" xlink:title=" ">
<polygon fill="none" stroke="black" points="654,-358 654,-388 825,-388 825,-358 654,-358"/>
<text text-anchor="start" x="662" y="-376" font-family="Helvetica,sans-Serif" font-size="10.00">Instance::populateDebugMessenger</text>
<text text-anchor="middle" x="739.5" y="-365" font-family="Helvetica,sans-Serif" font-size="10.00">CreateInfo</text>
</a>
</g>
</g>
<!-- Node5&#45;&gt;Node11 -->
<g id="edge11" class="edge">
<title>Node5&#45;&gt;Node11</title>
<path fill="none" stroke="midnightblue" d="M591.43,-461.45C600.59,-457.83 610.17,-453.08 618,-447 639.34,-430.43 631.89,-413.53 654,-398 656.84,-396 659.84,-394.17 662.95,-392.47"/>
<polygon fill="midnightblue" stroke="midnightblue" points="664.51,-395.61 671.96,-388.08 661.44,-389.32 664.51,-395.61"/>
</g>
<!-- Node6&#45;&gt;Node7 -->
<g id="edge6" class="edge">
<title>Node6&#45;&gt;Node7</title>
<path fill="none" stroke="midnightblue" d="M803.03,-552.07C818.19,-550.39 834.67,-548.56 850.76,-546.78"/>
<polygon fill="midnightblue" stroke="midnightblue" points="851.15,-550.26 860.71,-545.68 850.38,-543.3 851.15,-550.26"/>
</g>
<!-- Node9 -->
<g id="node9" class="node">
<title>Node9</title>
<g id="a_node9"><a xlink:href="class_instance.html#a8d8b9c56aab51b5a7e0d001081642a2d" target="_top" xlink:title=" ">
<polygon fill="none" stroke="black" points="867,-461.5 867,-480.5 1013,-480.5 1013,-461.5 867,-461.5"/>
<text text-anchor="middle" x="940" y="-468.5" font-family="Helvetica,sans-Serif" font-size="10.00">Instance::getSupportedLayers</text>
</a>
</g>
</g>
<!-- Node8&#45;&gt;Node9 -->
<g id="edge8" class="edge">
<title>Node8&#45;&gt;Node9</title>
<path fill="none" stroke="midnightblue" d="M803.58,-471C820.38,-471 838.77,-471 856.45,-471"/>
<polygon fill="midnightblue" stroke="midnightblue" points="856.75,-474.5 866.75,-471 856.75,-467.5 856.75,-474.5"/>
</g>
<!-- Node13 -->
<g id="node13" class="node">
<title>Node13</title>
<g id="a_node13"><a xlink:href="class_render_manager.html#ac9713a810304479b4a7374df0799367e" target="_top" xlink:title=" ">
<polygon fill="none" stroke="black" points="499.5,-418.5 499.5,-437.5 615.5,-437.5 615.5,-418.5 499.5,-418.5"/>
<text text-anchor="middle" x="557.5" y="-425.5" font-family="Helvetica,sans-Serif" font-size="10.00">RenderManager::create</text>
</a>
</g>
</g>
<!-- Node12&#45;&gt;Node13 -->
<g id="edge13" class="edge">
<title>Node12&#45;&gt;Node13</title>
<path fill="none" stroke="midnightblue" d="M450.11,-424.17C462.75,-424.62 476.17,-425.11 489.06,-425.57"/>
<polygon fill="midnightblue" stroke="midnightblue" points="489.14,-429.07 499.26,-425.94 489.39,-422.08 489.14,-429.07"/>
</g>
<!-- Node16 -->
<g id="node16" class="node">
<title>Node16</title>
<g id="a_node16"><a xlink:href="class_object_list.html#a5cac24a16df4546044c057d760b1f38d" target="_top" xlink:title=" ">
<polygon fill="none" stroke="black" points="511,-380.5 511,-399.5 604,-399.5 604,-380.5 511,-380.5"/>
<text text-anchor="middle" x="557.5" y="-387.5" font-family="Helvetica,sans-Serif" font-size="10.00">ObjectList::create</text>
</a>
</g>
</g>
<!-- Node15&#45;&gt;Node16 -->
<g id="edge16" class="edge">
<title>Node15&#45;&gt;Node16</title>
<path fill="none" stroke="midnightblue" d="M431.22,-338.55C441.16,-341.41 451.61,-344.9 461,-349 478.19,-356.5 479.95,-363.2 497,-371 501.75,-373.17 506.81,-375.2 511.91,-377.06"/>
<polygon fill="midnightblue" stroke="midnightblue" points="511.08,-380.47 521.67,-380.42 513.36,-373.85 511.08,-380.47"/>
</g>
<!-- Node17 -->
<g id="node17" class="node">
<title>Node17</title>
<g id="a_node17"><a xlink:href="class_object_properties.html#aefb35bac46fc7fe3d5cdf25fb48ed0d7" target="_top" xlink:title=" ">
<polygon fill="none" stroke="black" points="497,-342.5 497,-361.5 618,-361.5 618,-342.5 497,-342.5"/>
<text text-anchor="middle" x="557.5" y="-349.5" font-family="Helvetica,sans-Serif" font-size="10.00">ObjectProperties::create</text>
</a>
</g>
</g>
<!-- Node15&#45;&gt;Node17 -->
<g id="edge17" class="edge">
<title>Node15&#45;&gt;Node17</title>
<path fill="none" stroke="midnightblue" d="M455.33,-338.02C465.68,-339.45 476.43,-340.94 486.88,-342.38"/>
<polygon fill="midnightblue" stroke="midnightblue" points="486.4,-345.85 496.78,-343.75 487.36,-338.92 486.4,-345.85"/>
</g>
<!-- Node18 -->
<g id="node18" class="node">
<title>Node18</title>
<g id="a_node18"><a xlink:href="class_main_menu.html#a33cd128a0b8f45b67f0253005188c761" target="_top" xlink:title=" ">
<polygon fill="none" stroke="black" points="511,-304.5 511,-323.5 604,-323.5 604,-304.5 511,-304.5"/>
<text text-anchor="middle" x="557.5" y="-311.5" font-family="Helvetica,sans-Serif" font-size="10.00">MainMenu::create</text>
</a>
</g>
</g>
<!-- Node15&#45;&gt;Node18 -->
<g id="edge18" class="edge">
<title>Node15&#45;&gt;Node18</title>
<path fill="none" stroke="midnightblue" d="M455.33,-323.11C470.28,-321.77 486.05,-320.35 500.57,-319.04"/>
<polygon fill="midnightblue" stroke="midnightblue" points="501.24,-322.49 510.89,-318.11 500.62,-315.52 501.24,-322.49"/>
</g>
<!-- Node20 -->
<g id="node20" class="node">
<title>Node20</title>
<g id="a_node20"><a xlink:href="class_window.html#aca04f60c37e2fc5663dd24c80cf70b1b" target="_top" xlink:title=" ">
<polygon fill="none" stroke="black" points="516,-266.5 516,-285.5 599,-285.5 599,-266.5 516,-266.5"/>
<text text-anchor="middle" x="557.5" y="-273.5" font-family="Helvetica,sans-Serif" font-size="10.00">Window::create</text>
</a>
</g>
</g>
<!-- Node19&#45;&gt;Node20 -->
<g id="edge20" class="edge">
<title>Node19&#45;&gt;Node20</title>
<path fill="none" stroke="midnightblue" d="M460.13,-276C475.43,-276 491.34,-276 505.72,-276"/>
<polygon fill="midnightblue" stroke="midnightblue" points="505.89,-279.5 515.89,-276 505.89,-272.5 505.89,-279.5"/>
</g>
<!-- Node23 -->
<g id="node23" class="node">
<title>Node23</title>
<g id="a_node23"><a xlink:href="class_window.html#ab50d41994a7da97e3829c1e3134fc281" target="_top" xlink:title=" ">
<polygon fill="none" stroke="black" points="503.5,-228.5 503.5,-247.5 611.5,-247.5 611.5,-228.5 503.5,-228.5"/>
<text text-anchor="middle" x="557.5" y="-235.5" font-family="Helvetica,sans-Serif" font-size="10.00">Window::initWindows</text>
</a>
</g>
</g>
<!-- Node19&#45;&gt;Node23 -->
<g id="edge23" class="edge">
<title>Node19&#45;&gt;Node23</title>
<path fill="none" stroke="midnightblue" d="M432.01,-266.41C454.18,-261.35 481.57,-255.1 505.01,-249.75"/>
<polygon fill="midnightblue" stroke="midnightblue" points="505.82,-253.16 514.79,-247.52 504.26,-246.33 505.82,-253.16"/>
</g>
<!-- Node21 -->
<g id="node21" class="node">
<title>Node21</title>
<g id="a_node21"><a xlink:href="class_window.html#afbdfb8ba03018225dfc29866afd26d2a" target="_top" xlink:title=" ">
<polygon fill="none" stroke="black" points="666.5,-266.5 666.5,-285.5 812.5,-285.5 812.5,-266.5 666.5,-266.5"/>
<text text-anchor="middle" x="739.5" y="-273.5" font-family="Helvetica,sans-Serif" font-size="10.00">Window::staticResizeCallback</text>
</a>
</g>
</g>
<!-- Node20&#45;&gt;Node21 -->
<g id="edge21" class="edge">
<title>Node20&#45;&gt;Node21</title>
<path fill="none" stroke="midnightblue" d="M599.34,-276C616.22,-276 636.41,-276 656.12,-276"/>
<polygon fill="midnightblue" stroke="midnightblue" points="656.35,-279.5 666.35,-276 656.35,-272.5 656.35,-279.5"/>
</g>
<!-- Node22 -->
<g id="node22" class="node">
<title>Node22</title>
<g id="a_node22"><a xlink:href="class_window.html#ae53e48ceff3fe92ae028cc92257a1f56" target="_top" xlink:title=" ">
<polygon fill="none" stroke="black" points="861,-266.5 861,-285.5 1019,-285.5 1019,-266.5 861,-266.5"/>
<text text-anchor="middle" x="940" y="-273.5" font-family="Helvetica,sans-Serif" font-size="10.00">Window::dynamicResizeCallback</text>
</a>
</g>
</g>
<!-- Node21&#45;&gt;Node22 -->
<g id="edge22" class="edge">
<title>Node21&#45;&gt;Node22</title>
<path fill="none" stroke="midnightblue" d="M812.72,-276C825.06,-276 837.99,-276 850.69,-276"/>
<polygon fill="midnightblue" stroke="midnightblue" points="850.8,-279.5 860.8,-276 850.8,-272.5 850.8,-279.5"/>
</g>
<!-- Node25 -->
<g id="node25" class="node">
<title>Node25</title>
<g id="a_node25"><a xlink:href="class_model_loader.html#affd2b8840989f0bdf63c952775bb082e" target="_top" xlink:title=" ">
<polygon fill="none" stroke="black" points="505.5,-190.5 505.5,-209.5 609.5,-209.5 609.5,-190.5 505.5,-190.5"/>
<text text-anchor="middle" x="557.5" y="-197.5" font-family="Helvetica,sans-Serif" font-size="10.00">ModelLoader::create</text>
</a>
</g>
</g>
<!-- Node24&#45;&gt;Node25 -->
<g id="edge25" class="edge">
<title>Node24&#45;&gt;Node25</title>
<path fill="none" stroke="midnightblue" d="M405.87,-133.63C426.38,-145.79 463.45,-166.84 497,-181 502.18,-183.19 507.71,-185.27 513.22,-187.2"/>
<polygon fill="midnightblue" stroke="midnightblue" points="512.47,-190.64 523.07,-190.49 514.7,-184 512.47,-190.64"/>
</g>
<!-- Node26 -->
<g id="node26" class="node">
<title>Node26</title>
<g id="a_node26"><a xlink:href="class_master_material.html#a8f7c18252e823b182521e19ce1e53ecf" target="_top" xlink:title=" ">
<polygon fill="none" stroke="black" points="501,-152.5 501,-171.5 614,-171.5 614,-152.5 501,-152.5"/>
<text text-anchor="middle" x="557.5" y="-159.5" font-family="Helvetica,sans-Serif" font-size="10.00">MasterMaterial::create</text>
</a>
</g>
</g>
<!-- Node24&#45;&gt;Node26 -->
<g id="edge26" class="edge">
<title>Node24&#45;&gt;Node26</title>
<path fill="none" stroke="midnightblue" d="M432.01,-133.59C454.18,-138.65 481.57,-144.9 505.01,-150.25"/>
<polygon fill="midnightblue" stroke="midnightblue" points="504.26,-153.67 514.79,-152.48 505.82,-146.84 504.26,-153.67"/>
</g>
<!-- Node29 -->
<g id="node29" class="node">
<title>Node29</title>
<g id="a_node29"><a xlink:href="class_material.html#a96ab8870a32cbc222c747977254fe1f9" target="_top" xlink:title=" ">
<polygon fill="none" stroke="black" points="516,-114.5 516,-133.5 599,-133.5 599,-114.5 516,-114.5"/>
<text text-anchor="middle" x="557.5" y="-121.5" font-family="Helvetica,sans-Serif" font-size="10.00">Material::create</text>
</a>
</g>
</g>
<!-- Node24&#45;&gt;Node29 -->
<g id="edge29" class="edge">
<title>Node24&#45;&gt;Node29</title>
<path fill="none" stroke="midnightblue" d="M461.09,-124C476.03,-124 491.49,-124 505.51,-124"/>
<polygon fill="midnightblue" stroke="midnightblue" points="505.92,-127.5 515.92,-124 505.92,-120.5 505.92,-127.5"/>
</g>
<!-- Node30 -->
<g id="node30" class="node">
<title>Node30</title>
<g id="a_node30"><a xlink:href="class_mesh_instance.html#a511dc5709b2a32317ad2f0f02c6740c4" target="_top" xlink:title=" ">
<polygon fill="none" stroke="black" points="502.5,-76.5 502.5,-95.5 612.5,-95.5 612.5,-76.5 502.5,-76.5"/>
<text text-anchor="middle" x="557.5" y="-83.5" font-family="Helvetica,sans-Serif" font-size="10.00">MeshInstance::create</text>
</a>
</g>
</g>
<!-- Node24&#45;&gt;Node30 -->
<g id="edge30" class="edge">
<title>Node24&#45;&gt;Node30</title>
<path fill="none" stroke="midnightblue" d="M432.01,-114.41C454.18,-109.35 481.57,-103.1 505.01,-97.75"/>
<polygon fill="midnightblue" stroke="midnightblue" points="505.82,-101.16 514.79,-95.52 504.26,-94.33 505.82,-101.16"/>
</g>
<!-- Node31 -->
<g id="node31" class="node">
<title>Node31</title>
<g id="a_node31"><a xlink:href="class_vertex_shader.html#a5210d098175734531886d9e5b1741f8e" target="_top" xlink:title=" ">
<polygon fill="none" stroke="black" points="504,-38.5 504,-57.5 611,-57.5 611,-38.5 504,-38.5"/>
<text text-anchor="middle" x="557.5" y="-45.5" font-family="Helvetica,sans-Serif" font-size="10.00">VertexShader::create</text>
</a>
</g>
</g>
<!-- Node24&#45;&gt;Node31 -->
<g id="edge31" class="edge">
<title>Node24&#45;&gt;Node31</title>
<path fill="none" stroke="midnightblue" d="M405.87,-114.37C426.38,-102.21 463.45,-81.16 497,-67 502.18,-64.81 507.71,-62.73 513.22,-60.8"/>
<polygon fill="midnightblue" stroke="midnightblue" points="514.7,-64 523.07,-57.51 512.47,-57.36 514.7,-64"/>
</g>
<!-- Node33 -->
<g id="node33" class="node">
<title>Node33</title>
<g id="a_node33"><a xlink:href="class_fragment_shader.html#a1221d3fb805310bb64a01e032e794d0b" target="_top" xlink:title=" ">
<polygon fill="none" stroke="black" points="497.5,-0.5 497.5,-19.5 617.5,-19.5 617.5,-0.5 497.5,-0.5"/>
<text text-anchor="middle" x="557.5" y="-7.5" font-family="Helvetica,sans-Serif" font-size="10.00">FragmentShader::create</text>
</a>
</g>
</g>
<!-- Node24&#45;&gt;Node33 -->
<g id="edge33" class="edge">
<title>Node24&#45;&gt;Node33</title>
<path fill="none" stroke="midnightblue" d="M398.16,-114.47C414.86,-95.54 454.9,-52.97 497,-29 500.71,-26.89 504.69,-24.98 508.76,-23.25"/>
<polygon fill="midnightblue" stroke="midnightblue" points="510.28,-26.42 518.36,-19.57 507.77,-19.88 510.28,-26.42"/>
</g>
<!-- Node27 -->
<g id="node27" class="node">
<title>Node27</title>
<g id="a_node27"><a xlink:href="materialparameters_8cpp.html#a59fb9231365864f141c11f1aa4d67f6f" target="_top" xlink:title=" ">
<polygon fill="none" stroke="black" points="706.5,-152.5 706.5,-171.5 772.5,-171.5 772.5,-152.5 706.5,-152.5"/>
<text text-anchor="middle" x="739.5" y="-159.5" font-family="Helvetica,sans-Serif" font-size="10.00">buildLayout</text>
</a>
</g>
</g>
<!-- Node26&#45;&gt;Node27 -->
<g id="edge27" class="edge">
<title>Node26&#45;&gt;Node27</title>
<path fill="none" stroke="midnightblue" d="M614.47,-162C640.92,-162 671.99,-162 696.41,-162"/>
<polygon fill="midnightblue" stroke="midnightblue" points="696.43,-165.5 706.43,-162 696.43,-158.5 696.43,-165.5"/>
</g>
<!-- Node28 -->
<g id="node28" class="node">
<title>Node28</title>
<g id="a_node28"><a xlink:href="materialparameters_8cpp.html#a013179f8095bbe7c618aa07f0011bf78" target="_top" xlink:title=" ">
<polygon fill="none" stroke="black" points="903.5,-152.5 903.5,-171.5 976.5,-171.5 976.5,-152.5 903.5,-152.5"/>
<text text-anchor="middle" x="940" y="-159.5" font-family="Helvetica,sans-Serif" font-size="10.00">buildProperty</text>
</a>
</g>
</g>
<!-- Node27&#45;&gt;Node28 -->
<g id="edge28" class="edge">
<title>Node27&#45;&gt;Node28</title>
<path fill="none" stroke="midnightblue" d="M772.83,-162C805.43,-162 856.05,-162 892.86,-162"/>
<polygon fill="midnightblue" stroke="midnightblue" points="893.32,-165.5 903.32,-162 893.32,-158.5 893.32,-165.5"/>
</g>
<!-- Node32 -->
<g id="node32" class="node">
<title>Node32</title>
<g id="a_node32"><a xlink:href="class_utils.html#a7e7d47e8b017fe7d4ae8802c7b0690cb" target="_top" xlink:title=" ">
<polygon fill="none" stroke="black" points="701.5,-19.5 701.5,-38.5 777.5,-38.5 777.5,-19.5 701.5,-19.5"/>
<text text-anchor="middle" x="739.5" y="-26.5" font-family="Helvetica,sans-Serif" font-size="10.00">Utils::readFile</text>
</a>
</g>
</g>
<!-- Node31&#45;&gt;Node32 -->
<g id="edge32" class="edge">
<title>Node31&#45;&gt;Node32</title>
<path fill="none" stroke="midnightblue" d="M611.05,-42.45C636.38,-39.78 666.53,-36.6 691.15,-34"/>
<polygon fill="midnightblue" stroke="midnightblue" points="691.75,-37.45 701.33,-32.92 691.01,-30.49 691.75,-37.45"/>
</g>
<!-- Node33&#45;&gt;Node32 -->
<g id="edge34" class="edge">
<title>Node33&#45;&gt;Node32</title>
<path fill="none" stroke="midnightblue" d="M617.94,-16.27C641.83,-18.8 668.97,-21.66 691.45,-24.03"/>
<polygon fill="midnightblue" stroke="midnightblue" points="691.11,-27.52 701.42,-25.09 691.84,-20.56 691.11,-27.52"/>
</g>
</g>
</svg>
        <g id="navigator" transform="translate(0 0)" fill="#404254">
                <rect fill="#f2f5e9" fill-opacity="0.5" stroke="#606060" stroke-width=".5" x="0" y="0" width="60" height="60"/>
                <use id="zoomplus" xlink:href="#zoomPlus" x="17" y="9" onmousedown="handleZoom(evt,'in')"/>
                <use id="zoomminus" xlink:href="#zoomMin" x="42" y="9" onmousedown="handleZoom(evt,'out')"/>
                <use id="reset" xlink:href="#resetDef" x="30" y="36" onmousedown="handleReset()"/>
                <g id="arrowUp" xlink:href="#dirArrow" transform="translate(30 24)" onmousedown="handlePan(0,-1)">
                  <use xlink:href="#rim" fill="#404040">
                        <set attributeName="fill" to="#808080" begin="arrowUp.mouseover" end="arrowUp.mouseout"/>
                  </use>
                  <path fill="none" stroke="white" stroke-width="1.5" d="M0,-3.0v7 M-2.5,-0.5L0,-3.0L2.5,-0.5"/>
                </g>
                <g id="arrowRight" xlink:href="#dirArrow" transform="rotate(90) translate(36 -43)" onmousedown="handlePan(1,0)">
                  <use xlink:href="#rim" fill="#404040">
                        <set attributeName="fill" to="#808080" begin="arrowRight.mouseover" end="arrowRight.mouseout"/>
                  </use>
                  <path fill="none" stroke="white" stroke-width="1.5" d="M0,-3.0v7 M-2.5,-0.5L0,-3.0L2.5,-0.5"/>
                </g>
                <g id="arrowDown" xlink:href="#dirArrow" transform="rotate(180) translate(-30 -48)" onmousedown="handlePan(0,1)">
                  <use xlink:href="#rim" fill="#404040">
                        <set attributeName="fill" to="#808080" begin="arrowDown.mouseover" end="arrowDown.mouseout"/>
                  </use>
                  <path fill="none" stroke="white" stroke-width="1.5" d="M0,-3.0v7 M-2.5,-0.5L0,-3.0L2.5,-0.5"/>
                </g>
                <g id="arrowLeft" xlink:href="#dirArrow" transform="rotate(270) translate(-36 17)" onmousedown="handlePan(-1,0)">
                  <use xlink:href="#rim" fill="#404040">
                        <set attributeName="fill" to="#808080" begin="arrowLeft.mouseover" end="arrowLeft.mouseout"/>
                  </use>
                  <path fill="none" stroke="white" stroke-width="1.5" d="M0,-3.0v7 M-2.5,-0.5L0,-3.0L2.5,-0.5"/>
                </g>
        </g>
        <svg viewBox="0 0 15 15" width="100%" height="30px" preserveAspectRatio="xMaxYMin meet">
         <g id="arrow_out" transform="scale(0.3 0.3)">
          <a xlink:href="class_vulkan_rasterizer_add1cfb13a3ae242ca9eef6c1e9e42751_cgraph_org.svg" target="_base">
           <rect id="button" ry="5" rx="5" y="6" x="6" height="38" width="38"
                fill="#f2f5e9" fill-opacity="0.5" stroke="#606060" stroke-width="1.0"/>
           <path id="arrow"
             d="M 11.500037,31.436501 C 11.940474,20.09759 22.043105,11.32322 32.158766,21.979434 L 37.068811,17.246167 C 37.068811,17.246167 37.088388,32 37.088388,32 L 22.160133,31.978069 C 22.160133,31.978069 26.997745,27.140456 26.997745,27.140456 C 18.528582,18.264221 13.291696,25.230495 11.500037,31.436501 z"
             style="fill:#404040;"/>
          </a>
         </g>
        </svg>
</svg>
