<?xml version="1.0" encoding="UTF-8" standalone="no"?>
<!DOCTYPE svg PUBLIC "-//W3C//DTD SVG 1.1//EN"
 "http://www.w3.org/Graphics/SVG/1.1/DTD/svg11.dtd">
<!-- Generated by graphviz version 2.50.0 (20220203.2022)
 -->
<!-- Title: ModelLoader::loadMaterialTextures Pages: 1 -->
<svg width="215pt" height="52pt"
 viewBox="0.00 0.00 215.32 51.50" xmlns="http://www.w3.org/2000/svg" xmlns:xlink="http://www.w3.org/1999/xlink">
<g id="graph0" class="graph" transform="scale(1 1) rotate(0) translate(4 47.5)">
<title>ModelLoader::loadMaterialTextures</title>
<!-- Node1 -->
<g id="node1" class="node">
<title>Node1</title>
<g id="a_node1"><a xlink:title=" ">
<polygon fill="#bfbfbf" stroke="black" points="0,-0.5 0,-30.5 130,-30.5 130,-0.5 0,-0.5"/>
<text text-anchor="start" x="8" y="-18.5" font-family="Helvetica,sans-Serif" font-size="10.00">ModelLoader::loadMaterial</text>
<text text-anchor="middle" x="65" y="-7.5" font-family="Helvetica,sans-Serif" font-size="10.00">Textures</text>
</a>
</g>
</g>
<!-- Node2 -->
<g id="node2" class="node">
<title>Node2</title>
<g id="a_node2"><a xlink:href="utils_8h.html#a6a2854f5473fd18643d94cf402923b91" target="_top" xlink:title=" ">
<polygon fill="none" stroke="black" points="166,-6 166,-25 204,-25 204,-6 166,-6"/>
<text text-anchor="middle" x="185" y="-13" font-family="Helvetica,sans-Serif" font-size="10.00">hash</text>
</a>
</g>
</g>
<!-- Node1&#45;&gt;Node2 -->
<g id="edge1" class="edge">
<title>Node1&#45;&gt;Node2</title>
<path fill="none" stroke="midnightblue" d="M130.18,-15.5C139,-15.5 147.66,-15.5 155.37,-15.5"/>
<polygon fill="midnightblue" stroke="midnightblue" points="155.55,-19 165.55,-15.5 155.55,-12 155.55,-19"/>
</g>
<!-- Node2&#45;&gt;Node2 -->
<g id="edge2" class="edge">
<title>Node2&#45;&gt;Node2</title>
<path fill="none" stroke="midnightblue" d="M166.5,-25.26C157.51,-34.07 163.67,-43.5 185,-43.5 198.66,-43.5 206.1,-39.63 207.32,-34.53"/>
<polygon fill="midnightblue" stroke="midnightblue" points="210.55,-33.17 203.5,-25.26 204.07,-35.84 210.55,-33.17"/>
</g>
</g>
</svg>
