<?xml version="1.0" encoding="UTF-8" standalone="no"?>
<!DOCTYPE svg PUBLIC "-//W3C//DTD SVG 1.1//EN"
 "http://www.w3.org/Graphics/SVG/1.1/DTD/svg11.dtd">
<!-- Generated by graphviz version 2.49.3 (20211215.1918)
 -->
<!-- Title: Image Pages: 1 -->
<svg width="260pt" height="552pt"
 viewBox="0.00 0.00 259.50 552.00" xmlns="http://www.w3.org/2000/svg" xmlns:xlink="http://www.w3.org/1999/xlink">
<g id="graph0" class="graph" transform="scale(1 1) rotate(0) translate(4 548)">
<title>Image</title>
<!-- Node1 -->
<g id="node1" class="node">
<title>Node1</title>
<g id="a_node1"><a xlink:title=" ">
<polygon fill="#bfbfbf" stroke="black" points="61,-0.5 61,-321.5 200,-321.5 200,-0.5 61,-0.5"/>
<text text-anchor="middle" x="130.5" y="-309.5" font-family="Helvetica,sans-Serif" font-size="10.00">Image</text>
<polyline fill="none" stroke="black" points="61,-302.5 200,-302.5 "/>
<text text-anchor="start" x="69" y="-290.5" font-family="Helvetica,sans-Serif" font-size="10.00">&#45; device</text>
<text text-anchor="start" x="69" y="-279.5" font-family="Helvetica,sans-Serif" font-size="10.00">&#45; allocation</text>
<text text-anchor="start" x="69" y="-268.5" font-family="Helvetica,sans-Serif" font-size="10.00">&#45; allocationInfo</text>
<text text-anchor="start" x="69" y="-257.5" font-family="Helvetica,sans-Serif" font-size="10.00">&#45; extent</text>
<text text-anchor="start" x="69" y="-246.5" font-family="Helvetica,sans-Serif" font-size="10.00">&#45; type</text>
<text text-anchor="start" x="69" y="-235.5" font-family="Helvetica,sans-Serif" font-size="10.00">&#45; format</text>
<text text-anchor="start" x="69" y="-224.5" font-family="Helvetica,sans-Serif" font-size="10.00">&#45; mipLevels</text>
<text text-anchor="start" x="69" y="-213.5" font-family="Helvetica,sans-Serif" font-size="10.00">&#45; arrayLayers</text>
<text text-anchor="start" x="69" y="-202.5" font-family="Helvetica,sans-Serif" font-size="10.00">&#45; currentLayout</text>
<text text-anchor="start" x="69" y="-191.5" font-family="Helvetica,sans-Serif" font-size="10.00">&#45; currentAccessFlags</text>
<text text-anchor="start" x="69" y="-180.5" font-family="Helvetica,sans-Serif" font-size="10.00">&#45; currentStage</text>
<polyline fill="none" stroke="black" points="61,-173.5 200,-173.5 "/>
<text text-anchor="start" x="69" y="-161.5" font-family="Helvetica,sans-Serif" font-size="10.00">+ transferDataMapped()</text>
<text text-anchor="start" x="69" y="-150.5" font-family="Helvetica,sans-Serif" font-size="10.00">+ transferDataMapped()</text>
<text text-anchor="start" x="69" y="-139.5" font-family="Helvetica,sans-Serif" font-size="10.00">+ transferDataStaged()</text>
<text text-anchor="start" x="69" y="-128.5" font-family="Helvetica,sans-Serif" font-size="10.00">+ transferDataStaged()</text>
<text text-anchor="start" x="69" y="-117.5" font-family="Helvetica,sans-Serif" font-size="10.00">+ createImageView()</text>
<text text-anchor="start" x="69" y="-106.5" font-family="Helvetica,sans-Serif" font-size="10.00">+ getDevice()</text>
<text text-anchor="start" x="69" y="-95.5" font-family="Helvetica,sans-Serif" font-size="10.00">+ getExtent()</text>
<text text-anchor="start" x="69" y="-84.5" font-family="Helvetica,sans-Serif" font-size="10.00">+ getType()</text>
<text text-anchor="start" x="69" y="-73.5" font-family="Helvetica,sans-Serif" font-size="10.00">+ getFormat()</text>
<text text-anchor="start" x="69" y="-62.5" font-family="Helvetica,sans-Serif" font-size="10.00">+ getMipLevels()</text>
<text text-anchor="start" x="69" y="-51.5" font-family="Helvetica,sans-Serif" font-size="10.00">and 6 more...</text>
<text text-anchor="start" x="69" y="-40.5" font-family="Helvetica,sans-Serif" font-size="10.00">+ create()</text>
<text text-anchor="start" x="69" y="-29.5" font-family="Helvetica,sans-Serif" font-size="10.00">+ create()</text>
<text text-anchor="start" x="69" y="-18.5" font-family="Helvetica,sans-Serif" font-size="10.00">+ create()</text>
<text text-anchor="start" x="69" y="-7.5" font-family="Helvetica,sans-Serif" font-size="10.00">+ createHostStagingImage()</text>
</a>
</g>
</g>
<!-- Node2 -->
<g id="node2" class="node">
<title>Node2</title>
<g id="a_node2"><a xlink:href="class_vulkan_class.html" target="_top" xlink:title=" ">
<polygon fill="none" stroke="black" points="0,-359.5 0,-427.5 127,-427.5 127,-359.5 0,-359.5"/>
<text text-anchor="middle" x="63.5" y="-415.5" font-family="Helvetica,sans-Serif" font-size="10.00">VulkanClass&lt; VkImage &gt;</text>
<polyline fill="none" stroke="black" points="0,-408.5 127,-408.5 "/>
<text text-anchor="start" x="8" y="-396.5" font-family="Helvetica,sans-Serif" font-size="10.00"># handle</text>
<polyline fill="none" stroke="black" points="0,-389.5 127,-389.5 "/>
<text text-anchor="start" x="8" y="-377.5" font-family="Helvetica,sans-Serif" font-size="10.00">+ getHandle()</text>
<text text-anchor="start" x="8" y="-366.5" font-family="Helvetica,sans-Serif" font-size="10.00">+ getHandlePtr()</text>
</a>
</g>
</g>
<!-- Node2&#45;&gt;Node1 -->
<g id="edge1" class="edge">
<title>Node2&#45;&gt;Node1</title>
<path fill="none" stroke="midnightblue" d="M75.97,-349.6C78.43,-341.13 81.15,-331.78 84.02,-321.92"/>
<polygon fill="none" stroke="midnightblue" points="72.53,-348.9 73.1,-359.47 79.25,-350.85 72.53,-348.9"/>
</g>
<!-- Node3 -->
<g id="node3" class="node">
<title>Node3</title>
<g id="a_node3"><a xlink:href="class_vulkan_class.html" target="_top" xlink:title=" ">
<polygon fill="none" stroke="black" points="16.5,-475.5 16.5,-543.5 110.5,-543.5 110.5,-475.5 16.5,-475.5"/>
<text text-anchor="middle" x="63.5" y="-531.5" font-family="Helvetica,sans-Serif" font-size="10.00">VulkanClass&lt; T &gt;</text>
<polyline fill="none" stroke="black" points="16.5,-524.5 110.5,-524.5 "/>
<text text-anchor="start" x="24.5" y="-512.5" font-family="Helvetica,sans-Serif" font-size="10.00"># handle</text>
<polyline fill="none" stroke="black" points="16.5,-505.5 110.5,-505.5 "/>
<text text-anchor="start" x="24.5" y="-493.5" font-family="Helvetica,sans-Serif" font-size="10.00">+ getHandle()</text>
<text text-anchor="start" x="24.5" y="-482.5" font-family="Helvetica,sans-Serif" font-size="10.00">+ getHandlePtr()</text>
</a>
</g>
</g>
<!-- Node3&#45;&gt;Node2 -->
<g id="edge2" class="edge">
<title>Node3&#45;&gt;Node2</title>
<path fill="none" stroke="orange" d="M63.5,-465.06C63.5,-452.64 63.5,-439.32 63.5,-427.62"/>
<polygon fill="orange" stroke="orange" points="60,-465.22 63.5,-475.22 67,-465.22 60,-465.22"/>
<text text-anchor="middle" x="92.5" y="-449" font-family="Helvetica,sans-Serif" font-size="10.00"> &lt; VkImage &gt;</text>
</g>
<!-- Node4 -->
<g id="node4" class="node">
<title>Node4</title>
<g id="a_node4"><a xlink:title=" ">
<polygon fill="none" stroke="#bfbfbf" points="145.5,-359.5 145.5,-427.5 251.5,-427.5 251.5,-359.5 145.5,-359.5"/>
<text text-anchor="start" x="153.5" y="-415.5" font-family="Helvetica,sans-Serif" font-size="10.00">std::enable_shared</text>
<text text-anchor="middle" x="198.5" y="-404.5" font-family="Helvetica,sans-Serif" font-size="10.00">_from_this&lt; Image &gt;</text>
<polyline fill="none" stroke="#bfbfbf" points="145.5,-397.5 251.5,-397.5 "/>
<text text-anchor="middle" x="198.5" y="-385.5" font-family="Helvetica,sans-Serif" font-size="10.00"> </text>
<polyline fill="none" stroke="#bfbfbf" points="145.5,-378.5 251.5,-378.5 "/>
<text text-anchor="middle" x="198.5" y="-366.5" font-family="Helvetica,sans-Serif" font-size="10.00"> </text>
</a>
</g>
</g>
<!-- Node4&#45;&gt;Node1 -->
<g id="edge3" class="edge">
<title>Node4&#45;&gt;Node1</title>
<path fill="none" stroke="midnightblue" d="M185.93,-349.88C183.41,-341.34 180.62,-331.89 177.68,-321.92"/>
<polygon fill="none" stroke="midnightblue" points="182.57,-350.87 188.76,-359.47 189.28,-348.89 182.57,-350.87"/>
</g>
</g>
</svg>
