<?xml version="1.0" encoding="UTF-8" standalone="no"?>
<!DOCTYPE svg PUBLIC "-//W3C//DTD SVG 1.1//EN"
 "http://www.w3.org/Graphics/SVG/1.1/DTD/svg11.dtd">
<!-- Generated by graphviz version 2.49.3 (20211215.1918)
 -->
<!-- Title: MandelbrotApp::createUI Pages: 1 -->
<svg width="443pt" height="85pt"
 viewBox="0.00 0.00 443.00 85.00" xmlns="http://www.w3.org/2000/svg" xmlns:xlink="http://www.w3.org/1999/xlink">
<g id="graph0" class="graph" transform="scale(1 1) rotate(0) translate(4 81)">
<title>MandelbrotApp::createUI</title>
<!-- Node1 -->
<g id="node1" class="node">
<title>Node1</title>
<g id="a_node1"><a xlink:title=" ">
<polygon fill="#bfbfbf" stroke="black" points="0,-19.5 0,-38.5 124,-38.5 124,-19.5 0,-19.5"/>
<text text-anchor="middle" x="62" y="-26.5" font-family="Helvetica,sans-Serif" font-size="10.00">MandelbrotApp::createUI</text>
</a>
</g>
</g>
<!-- Node2 -->
<g id="node2" class="node">
<title>Node2</title>
<g id="a_node2"><a xlink:href="class_u_i_renderer.html#a429d9bebea63cfce81d4179458bac829" target="_top" xlink:title=" ">
<polygon fill="none" stroke="black" points="171.5,-38.5 171.5,-57.5 269.5,-57.5 269.5,-38.5 171.5,-38.5"/>
<text text-anchor="middle" x="220.5" y="-45.5" font-family="Helvetica,sans-Serif" font-size="10.00">UIRenderer::create</text>
</a>
</g>
</g>
<!-- Node1&#45;&gt;Node2 -->
<g id="edge1" class="edge">
<title>Node1&#45;&gt;Node2</title>
<path fill="none" stroke="midnightblue" d="M124.4,-36.45C136.58,-37.93 149.33,-39.48 161.39,-40.95"/>
<polygon fill="midnightblue" stroke="midnightblue" points="160.98,-44.42 171.33,-42.15 161.83,-37.47 160.98,-44.42"/>
</g>
<!-- Node5 -->
<g id="node5" class="node">
<title>Node5</title>
<g id="a_node5"><a xlink:href="class_object_properties.html#aefb35bac46fc7fe3d5cdf25fb48ed0d7" target="_top" xlink:title=" ">
<polygon fill="none" stroke="black" points="160,-0.5 160,-19.5 281,-19.5 281,-0.5 160,-0.5"/>
<text text-anchor="middle" x="220.5" y="-7.5" font-family="Helvetica,sans-Serif" font-size="10.00">ObjectProperties::create</text>
</a>
</g>
</g>
<!-- Node1&#45;&gt;Node5 -->
<g id="edge4" class="edge">
<title>Node1&#45;&gt;Node5</title>
<path fill="none" stroke="midnightblue" d="M124.4,-21.55C132.68,-20.54 141.23,-19.5 149.64,-18.48"/>
<polygon fill="midnightblue" stroke="midnightblue" points="150.31,-21.93 159.81,-17.25 149.46,-14.98 150.31,-21.93"/>
</g>
<!-- Node3 -->
<g id="node3" class="node">
<title>Node3</title>
<g id="a_node3"><a xlink:href="class_command_buffer.html#aa00b25bc626efb68b5dc810ea91cf41b" target="_top" xlink:title=" ">
<polygon fill="none" stroke="black" points="317,-57.5 317,-76.5 435,-76.5 435,-57.5 317,-57.5"/>
<text text-anchor="middle" x="376" y="-64.5" font-family="Helvetica,sans-Serif" font-size="10.00">CommandBuffer::create</text>
</a>
</g>
</g>
<!-- Node2&#45;&gt;Node3 -->
<g id="edge2" class="edge">
<title>Node2&#45;&gt;Node3</title>
<path fill="none" stroke="midnightblue" d="M269.65,-53.96C281.44,-55.42 294.29,-57.01 306.82,-58.56"/>
<polygon fill="midnightblue" stroke="midnightblue" points="306.43,-62.04 316.79,-59.79 307.29,-55.09 306.43,-62.04"/>
</g>
<!-- Node4 -->
<g id="node4" class="node">
<title>Node4</title>
<g id="a_node4"><a xlink:href="class_descriptor_pool.html#a190f2272d8740c7f7fe13b5b8fb8326c" target="_top" xlink:title=" ">
<polygon fill="none" stroke="black" points="320,-19.5 320,-38.5 432,-38.5 432,-19.5 320,-19.5"/>
<text text-anchor="middle" x="376" y="-26.5" font-family="Helvetica,sans-Serif" font-size="10.00">DescriptorPool::create</text>
</a>
</g>
</g>
<!-- Node2&#45;&gt;Node4 -->
<g id="edge3" class="edge">
<title>Node2&#45;&gt;Node4</title>
<path fill="none" stroke="midnightblue" d="M269.65,-42.04C282.33,-40.47 296.23,-38.75 309.65,-37.09"/>
<polygon fill="midnightblue" stroke="midnightblue" points="310.3,-40.54 319.79,-35.83 309.44,-33.59 310.3,-40.54"/>
</g>
</g>
</svg>
