<?xml version="1.0" encoding="UTF-8" standalone="no"?>
<!DOCTYPE svg PUBLIC "-//W3C//DTD SVG 1.1//EN"
 "http://www.w3.org/Graphics/SVG/1.1/DTD/svg11.dtd">
<!-- Generated by graphviz version 2.49.3 (20211215.1918)
 -->
<!-- Title: CommandBuffer::create Pages: 1 -->
<svg width="661pt" height="154pt"
 viewBox="0.00 0.00 661.00 154.00" xmlns="http://www.w3.org/2000/svg" xmlns:xlink="http://www.w3.org/1999/xlink">
<g id="graph0" class="graph" transform="scale(1 1) rotate(0) translate(4 150)">
<title>CommandBuffer::create</title>
<!-- Node1 -->
<g id="node1" class="node">
<title>Node1</title>
<g id="a_node1"><a xlink:title=" ">
<polygon fill="#bfbfbf" stroke="black" points="535,-60.5 535,-79.5 653,-79.5 653,-60.5 535,-60.5"/>
<text text-anchor="middle" x="594" y="-67.5" font-family="Helvetica,sans-Serif" font-size="10.00">CommandBuffer::create</text>
</a>
</g>
</g>
<!-- Node2 -->
<g id="node2" class="node">
<title>Node2</title>
<g id="a_node2"><a xlink:href="class_scene.html#aa0a677239f29daa0650fe4e399a30734" target="_top" xlink:title=" ">
<polygon fill="none" stroke="black" points="385,-126.5 385,-145.5 461,-145.5 461,-126.5 385,-126.5"/>
<text text-anchor="middle" x="423" y="-133.5" font-family="Helvetica,sans-Serif" font-size="10.00">Scene::create</text>
</a>
</g>
</g>
<!-- Node1&#45;&gt;Node2 -->
<g id="edge1" class="edge">
<title>Node1&#45;&gt;Node2</title>
<path fill="none" stroke="midnightblue" d="M567.54,-84.61C549,-94.78 523.03,-108.07 499,-117 486.91,-121.49 473.34,-125.29 461.11,-128.28"/>
<polygon fill="midnightblue" stroke="midnightblue" points="569.47,-87.54 576.51,-79.62 566.07,-81.43 569.47,-87.54"/>
</g>
<!-- Node5 -->
<g id="node5" class="node">
<title>Node5</title>
<g id="a_node5"><a xlink:href="class_mandelbrot_app.html#acb9529b763c37eea10983014fdb7c9dc" target="_top" xlink:title=" ">
<polygon fill="none" stroke="black" points="347,-77 347,-107 499,-107 499,-77 347,-77"/>
<text text-anchor="start" x="355" y="-95" font-family="Helvetica,sans-Serif" font-size="10.00">MandelbrotApp::createGraphics</text>
<text text-anchor="middle" x="423" y="-84" font-family="Helvetica,sans-Serif" font-size="10.00">CommandBuffers</text>
</a>
</g>
</g>
<!-- Node1&#45;&gt;Node5 -->
<g id="edge4" class="edge">
<title>Node1&#45;&gt;Node5</title>
<path fill="none" stroke="midnightblue" d="M524.75,-78.88C516.36,-79.98 507.76,-81.1 499.28,-82.2"/>
<polygon fill="midnightblue" stroke="midnightblue" points="525.38,-82.33 534.84,-77.57 524.47,-75.39 525.38,-82.33"/>
</g>
<!-- Node7 -->
<g id="node7" class="node">
<title>Node7</title>
<g id="a_node7"><a xlink:href="vulkan__voxel__rasterizer_8cpp.html#ae66f6b31b5ad750f1fe042a706a4e3d4" target="_top" xlink:title=" ">
<polygon fill="none" stroke="black" points="404,-38.5 404,-57.5 442,-57.5 442,-38.5 404,-38.5"/>
<text text-anchor="middle" x="423" y="-45.5" font-family="Helvetica,sans-Serif" font-size="10.00">main</text>
</a>
</g>
</g>
<!-- Node1&#45;&gt;Node7 -->
<g id="edge7" class="edge">
<title>Node1&#45;&gt;Node7</title>
<path fill="none" stroke="midnightblue" d="M524.79,-61.12C494.78,-57.21 461.91,-52.94 442.13,-50.36"/>
<polygon fill="midnightblue" stroke="midnightblue" points="524.47,-64.61 534.84,-62.43 525.38,-57.67 524.47,-64.61"/>
</g>
<!-- Node8 -->
<g id="node8" class="node">
<title>Node8</title>
<g id="a_node8"><a xlink:href="class_buffer.html#ac0bd0ae62b73b6a5115347f8a661054a" target="_top" xlink:title=" ">
<polygon fill="none" stroke="black" points="357.5,-0.5 357.5,-19.5 488.5,-19.5 488.5,-0.5 357.5,-0.5"/>
<text text-anchor="middle" x="423" y="-7.5" font-family="Helvetica,sans-Serif" font-size="10.00">Buffer::transferDataStaged</text>
</a>
</g>
</g>
<!-- Node1&#45;&gt;Node8 -->
<g id="edge8" class="edge">
<title>Node1&#45;&gt;Node8</title>
<path fill="none" stroke="midnightblue" d="M564.3,-56.03C545.93,-47.45 521.42,-36.67 499,-29 488.71,-25.48 477.42,-22.28 466.79,-19.56"/>
<polygon fill="midnightblue" stroke="midnightblue" points="563.03,-59.3 573.56,-60.41 566.02,-52.97 563.03,-59.3"/>
</g>
<!-- Node3 -->
<g id="node3" class="node">
<title>Node3</title>
<g id="a_node3"><a xlink:href="class_mandelbrot_app.html#a9adbc757b127cc20ef8fe983bd29ebbb" target="_top" xlink:title=" ">
<polygon fill="none" stroke="black" points="167.5,-126.5 167.5,-145.5 308.5,-145.5 308.5,-126.5 167.5,-126.5"/>
<text text-anchor="middle" x="238" y="-133.5" font-family="Helvetica,sans-Serif" font-size="10.00">MandelbrotApp::createScene</text>
</a>
</g>
</g>
<!-- Node2&#45;&gt;Node3 -->
<g id="edge2" class="edge">
<title>Node2&#45;&gt;Node3</title>
<path fill="none" stroke="midnightblue" d="M374.8,-136C354.63,-136 330.68,-136 308.55,-136"/>
<polygon fill="midnightblue" stroke="midnightblue" points="374.97,-139.5 384.97,-136 374.97,-132.5 374.97,-139.5"/>
</g>
<!-- Node4 -->
<g id="node4" class="node">
<title>Node4</title>
<g id="a_node4"><a xlink:href="class_mandelbrot_app.html#ad5c4a7e7fd79bc75fea87df0165005b6" target="_top" xlink:title=" ">
<polygon fill="none" stroke="black" points="0,-107.5 0,-126.5 129,-126.5 129,-107.5 0,-107.5"/>
<text text-anchor="middle" x="64.5" y="-114.5" font-family="Helvetica,sans-Serif" font-size="10.00">MandelbrotApp::initVulkan</text>
</a>
</g>
</g>
<!-- Node3&#45;&gt;Node4 -->
<g id="edge3" class="edge">
<title>Node3&#45;&gt;Node4</title>
<path fill="none" stroke="midnightblue" d="M157.11,-127.15C147.72,-126.11 138.24,-125.06 129.12,-124.05"/>
<polygon fill="midnightblue" stroke="midnightblue" points="156.92,-130.65 167.24,-128.27 157.69,-123.69 156.92,-130.65"/>
</g>
<!-- Node5&#45;&gt;Node4 -->
<g id="edge5" class="edge">
<title>Node5&#45;&gt;Node4</title>
<path fill="none" stroke="midnightblue" d="M336.79,-97.98C273.01,-102.45 187.14,-108.47 129.24,-112.53"/>
<polygon fill="midnightblue" stroke="midnightblue" points="337.1,-101.46 346.83,-97.27 336.61,-94.48 337.1,-101.46"/>
</g>
<!-- Node6 -->
<g id="node6" class="node">
<title>Node6</title>
<g id="a_node6"><a xlink:href="class_mandelbrot_app.html#a733620a6533fb25a6ffa309886b74904" target="_top" xlink:title=" ">
<polygon fill="none" stroke="black" points="165,-39 165,-69 311,-69 311,-39 165,-39"/>
<text text-anchor="start" x="173" y="-57" font-family="Helvetica,sans-Serif" font-size="10.00">MandelbrotApp::recreateSwap</text>
<text text-anchor="middle" x="238" y="-46" font-family="Helvetica,sans-Serif" font-size="10.00">Chain</text>
</a>
</g>
</g>
<!-- Node5&#45;&gt;Node6 -->
<g id="edge6" class="edge">
<title>Node5&#45;&gt;Node6</title>
<path fill="none" stroke="midnightblue" d="M339.78,-74.93C330.21,-72.94 320.51,-70.93 311.1,-68.97"/>
<polygon fill="midnightblue" stroke="midnightblue" points="339.17,-78.38 349.67,-76.98 340.59,-71.52 339.17,-78.38"/>
</g>
</g>
</svg>
