<?xml version="1.0" encoding="UTF-8" standalone="no"?>
<!DOCTYPE svg PUBLIC "-//W3C//DTD SVG 1.1//EN"
 "http://www.w3.org/Graphics/SVG/1.1/DTD/svg11.dtd">
<!-- Generated by graphviz version 2.50.0 (20220203.2022)
 -->
<!-- Title: RenderManager::recreateSwapChain Pages: 1 -->
<svg width="870pt" height="615pt"
 viewBox="0.00 0.00 870.00 615.00" xmlns="http://www.w3.org/2000/svg" xmlns:xlink="http://www.w3.org/1999/xlink">
<g id="graph0" class="graph" transform="scale(1 1) rotate(0) translate(4 611)">
<title>RenderManager::recreateSwapChain</title>
<!-- Node1 -->
<g id="node1" class="node">
<title>Node1</title>
<g id="a_node1"><a xlink:title=" ">
<polygon fill="#bfbfbf" stroke="black" points="0,-273 0,-303 149,-303 149,-273 0,-273"/>
<text text-anchor="start" x="8" y="-291" font-family="Helvetica,sans-Serif" font-size="10.00">RenderManager::recreateSwap</text>
<text text-anchor="middle" x="74.5" y="-280" font-family="Helvetica,sans-Serif" font-size="10.00">Chain</text>
</a>
</g>
</g>
<!-- Node2 -->
<g id="node2" class="node">
<title>Node2</title>
<g id="a_node2"><a xlink:href="class_render_manager.html#a387a4eac54081b4e58978e5a97b7c3f3" target="_top" xlink:title=" ">
<polygon fill="none" stroke="black" points="196.5,-494 196.5,-524 343.5,-524 343.5,-494 196.5,-494"/>
<text text-anchor="start" x="204.5" y="-512" font-family="Helvetica,sans-Serif" font-size="10.00">RenderManager::createDefault</text>
<text text-anchor="middle" x="270" y="-501" font-family="Helvetica,sans-Serif" font-size="10.00">MaterialLayout</text>
</a>
</g>
</g>
<!-- Node1&#45;&gt;Node2 -->
<g id="edge1" class="edge">
<title>Node1&#45;&gt;Node2</title>
<path fill="none" stroke="midnightblue" d="M87.67,-303.31C107.57,-328.19 148.49,-378.75 185,-420 205.39,-443.04 229.59,-468.5 246.77,-486.26"/>
<polygon fill="midnightblue" stroke="midnightblue" points="244.65,-489.1 254.13,-493.84 249.68,-484.23 244.65,-489.1"/>
</g>
<!-- Node9 -->
<g id="node9" class="node">
<title>Node9</title>
<g id="a_node9"><a xlink:href="class_render_manager.html#aa6e12fa2f425700718eec18fb52a1ef8" target="_top" xlink:title=" ">
<polygon fill="none" stroke="black" points="198,-295 198,-325 342,-325 342,-295 198,-295"/>
<text text-anchor="start" x="206" y="-313" font-family="Helvetica,sans-Serif" font-size="10.00">RenderManager::createFrame</text>
<text text-anchor="middle" x="270" y="-302" font-family="Helvetica,sans-Serif" font-size="10.00">Buffer</text>
</a>
</g>
</g>
<!-- Node1&#45;&gt;Node9 -->
<g id="edge9" class="edge">
<title>Node1&#45;&gt;Node9</title>
<path fill="none" stroke="midnightblue" d="M149.21,-296.38C161.76,-297.81 174.87,-299.3 187.61,-300.75"/>
<polygon fill="midnightblue" stroke="midnightblue" points="187.4,-304.25 197.73,-301.9 188.19,-297.29 187.4,-304.25"/>
</g>
<!-- Node11 -->
<g id="node11" class="node">
<title>Node11</title>
<g id="a_node11"><a xlink:href="class_render_manager.html#a45a6fffe5f74da37695476732b53d33b" target="_top" xlink:title=" ">
<polygon fill="none" stroke="black" points="201.5,-380 201.5,-410 338.5,-410 338.5,-380 201.5,-380"/>
<text text-anchor="start" x="209.5" y="-398" font-family="Helvetica,sans-Serif" font-size="10.00">RenderManager::createPost</text>
<text text-anchor="middle" x="270" y="-387" font-family="Helvetica,sans-Serif" font-size="10.00">ProcessingPipelines</text>
</a>
</g>
</g>
<!-- Node1&#45;&gt;Node11 -->
<g id="edge11" class="edge">
<title>Node1&#45;&gt;Node11</title>
<path fill="none" stroke="midnightblue" d="M102.81,-303.1C136.81,-321.9 194.98,-354.07 232.7,-374.93"/>
<polygon fill="midnightblue" stroke="midnightblue" points="231.38,-378.2 241.83,-379.97 234.77,-372.07 231.38,-378.2"/>
</g>
<!-- Node19 -->
<g id="node19" class="node">
<title>Node19</title>
<g id="a_node19"><a xlink:href="class_render_manager.html#a47b4c7259640bcfc476a5cd8c129c2b8" target="_top" xlink:title=" ">
<polygon fill="none" stroke="black" points="185,-256.5 185,-275.5 355,-275.5 355,-256.5 185,-256.5"/>
<text text-anchor="middle" x="270" y="-263.5" font-family="Helvetica,sans-Serif" font-size="10.00">RenderManager::createRenderPass</text>
</a>
</g>
</g>
<!-- Node1&#45;&gt;Node19 -->
<g id="edge22" class="edge">
<title>Node1&#45;&gt;Node19</title>
<path fill="none" stroke="midnightblue" d="M149.21,-279.62C157.65,-278.66 166.34,-277.67 175.01,-276.69"/>
<polygon fill="midnightblue" stroke="midnightblue" points="175.61,-280.14 185.15,-275.53 174.81,-273.19 175.61,-280.14"/>
</g>
<!-- Node21 -->
<g id="node21" class="node">
<title>Node21</title>
<g id="a_node21"><a xlink:href="class_render_manager.html#ab9be550fe988ee994b0cba1b46ef2ded" target="_top" xlink:title=" ">
<polygon fill="none" stroke="black" points="199.5,-147 199.5,-177 340.5,-177 340.5,-147 199.5,-147"/>
<text text-anchor="start" x="207.5" y="-165" font-family="Helvetica,sans-Serif" font-size="10.00">RenderManager::createSwap</text>
<text text-anchor="middle" x="270" y="-154" font-family="Helvetica,sans-Serif" font-size="10.00">Chain</text>
</a>
</g>
</g>
<!-- Node1&#45;&gt;Node21 -->
<g id="edge24" class="edge">
<title>Node1&#45;&gt;Node21</title>
<path fill="none" stroke="midnightblue" d="M98.84,-272.8C133.36,-250.32 198.14,-208.14 237.05,-182.81"/>
<polygon fill="midnightblue" stroke="midnightblue" points="239.41,-185.45 245.88,-177.06 235.59,-179.58 239.41,-185.45"/>
</g>
<!-- Node27 -->
<g id="node27" class="node">
<title>Node27</title>
<g id="a_node27"><a xlink:href="class_render_manager.html#ad684dc770c22b8ee45875407c8591a00" target="_top" xlink:title=" ">
<polygon fill="none" stroke="black" points="189.5,-54.5 189.5,-73.5 350.5,-73.5 350.5,-54.5 189.5,-54.5"/>
<text text-anchor="middle" x="270" y="-61.5" font-family="Helvetica,sans-Serif" font-size="10.00">RenderManager::createUIObjects</text>
</a>
</g>
</g>
<!-- Node1&#45;&gt;Node27 -->
<g id="edge31" class="edge">
<title>Node1&#45;&gt;Node27</title>
<path fill="none" stroke="midnightblue" d="M85.07,-272.7C102.97,-244.6 143.49,-183.49 185,-138 204.92,-116.16 230.83,-94.15 248.57,-79.88"/>
<polygon fill="midnightblue" stroke="midnightblue" points="250.91,-82.49 256.56,-73.53 246.56,-77.01 250.91,-82.49"/>
</g>
<!-- Node3 -->
<g id="node3" class="node">
<title>Node3</title>
<g id="a_node3"><a xlink:href="materialparameters_8cpp.html#ad19af1f50a41ceac79efdeeafc07a8ab" target="_top" xlink:title=" ">
<polygon fill="none" stroke="black" points="419,-587.5 419,-606.5 485,-606.5 485,-587.5 419,-587.5"/>
<text text-anchor="middle" x="452" y="-594.5" font-family="Helvetica,sans-Serif" font-size="10.00">buildLayout</text>
</a>
</g>
</g>
<!-- Node2&#45;&gt;Node3 -->
<g id="edge2" class="edge">
<title>Node2&#45;&gt;Node3</title>
<path fill="none" stroke="midnightblue" d="M293.68,-524.02C317.25,-539.15 355.58,-562.43 391,-578 396.78,-580.54 403,-582.9 409.17,-585.03"/>
<polygon fill="midnightblue" stroke="midnightblue" points="408.17,-588.39 418.77,-588.19 410.36,-581.74 408.17,-588.39"/>
</g>
<!-- Node5 -->
<g id="node5" class="node">
<title>Node5</title>
<g id="a_node5"><a xlink:href="class_master_material_template.html#a1da04385b3e407ba5a540895944992ae" target="_top" xlink:title=" ">
<polygon fill="none" stroke="black" points="391,-538 391,-568 513,-568 513,-538 391,-538"/>
<text text-anchor="start" x="399" y="-556" font-family="Helvetica,sans-Serif" font-size="10.00">MasterMaterialTemplate</text>
<text text-anchor="middle" x="452" y="-545" font-family="Helvetica,sans-Serif" font-size="10.00">::create</text>
</a>
</g>
</g>
<!-- Node2&#45;&gt;Node5 -->
<g id="edge4" class="edge">
<title>Node2&#45;&gt;Node5</title>
<path fill="none" stroke="midnightblue" d="M332.44,-524.02C348.05,-527.83 364.93,-531.96 380.92,-535.87"/>
<polygon fill="midnightblue" stroke="midnightblue" points="380.2,-539.3 390.75,-538.27 381.87,-532.5 380.2,-539.3"/>
</g>
<!-- Node6 -->
<g id="node6" class="node">
<title>Node6</title>
<g id="a_node6"><a xlink:href="class_vertex_shader.html#a5210d098175734531886d9e5b1741f8e" target="_top" xlink:title=" ">
<polygon fill="none" stroke="black" points="556.5,-499.5 556.5,-518.5 663.5,-518.5 663.5,-499.5 556.5,-499.5"/>
<text text-anchor="middle" x="610" y="-506.5" font-family="Helvetica,sans-Serif" font-size="10.00">VertexShader::create</text>
</a>
</g>
</g>
<!-- Node2&#45;&gt;Node6 -->
<g id="edge5" class="edge">
<title>Node2&#45;&gt;Node6</title>
<path fill="none" stroke="midnightblue" d="M343.51,-509C403.9,-509 489,-509 546.44,-509"/>
<polygon fill="midnightblue" stroke="midnightblue" points="546.47,-512.5 556.47,-509 546.47,-505.5 546.47,-512.5"/>
</g>
<!-- Node8 -->
<g id="node8" class="node">
<title>Node8</title>
<g id="a_node8"><a xlink:href="class_fragment_shader.html#a1221d3fb805310bb64a01e032e794d0b" target="_top" xlink:title=" ">
<polygon fill="none" stroke="black" points="392,-461.5 392,-480.5 512,-480.5 512,-461.5 392,-461.5"/>
<text text-anchor="middle" x="452" y="-468.5" font-family="Helvetica,sans-Serif" font-size="10.00">FragmentShader::create</text>
</a>
</g>
</g>
<!-- Node2&#45;&gt;Node8 -->
<g id="edge7" class="edge">
<title>Node2&#45;&gt;Node8</title>
<path fill="none" stroke="midnightblue" d="M342.14,-493.98C359.96,-490.22 378.82,-486.24 395.74,-482.67"/>
<polygon fill="midnightblue" stroke="midnightblue" points="396.93,-485.99 406,-480.5 395.49,-479.14 396.93,-485.99"/>
</g>
<!-- Node4 -->
<g id="node4" class="node">
<title>Node4</title>
<g id="a_node4"><a xlink:href="materialparameters_8cpp.html#a6d0d74203f8507f343dd66edcc0d472f" target="_top" xlink:title=" ">
<polygon fill="none" stroke="black" points="573.5,-587.5 573.5,-606.5 646.5,-606.5 646.5,-587.5 573.5,-587.5"/>
<text text-anchor="middle" x="610" y="-594.5" font-family="Helvetica,sans-Serif" font-size="10.00">buildProperty</text>
</a>
</g>
</g>
<!-- Node3&#45;&gt;Node4 -->
<g id="edge3" class="edge">
<title>Node3&#45;&gt;Node4</title>
<path fill="none" stroke="midnightblue" d="M485.32,-597C507.91,-597 538.4,-597 563.45,-597"/>
<polygon fill="midnightblue" stroke="midnightblue" points="563.45,-600.5 573.45,-597 563.45,-593.5 563.45,-600.5"/>
</g>
<!-- Node7 -->
<g id="node7" class="node">
<title>Node7</title>
<g id="a_node7"><a xlink:href="class_utils.html#a7e7d47e8b017fe7d4ae8802c7b0690cb" target="_top" xlink:title=" ">
<polygon fill="none" stroke="black" points="746.5,-483.5 746.5,-502.5 822.5,-502.5 822.5,-483.5 746.5,-483.5"/>
<text text-anchor="middle" x="784.5" y="-490.5" font-family="Helvetica,sans-Serif" font-size="10.00">Utils::readFile</text>
</a>
</g>
</g>
<!-- Node6&#45;&gt;Node7 -->
<g id="edge6" class="edge">
<title>Node6&#45;&gt;Node7</title>
<path fill="none" stroke="midnightblue" d="M663.69,-504.11C686.89,-501.96 713.93,-499.45 736.44,-497.37"/>
<polygon fill="midnightblue" stroke="midnightblue" points="736.8,-500.85 746.43,-496.44 736.15,-493.88 736.8,-500.85"/>
</g>
<!-- Node8&#45;&gt;Node7 -->
<g id="edge8" class="edge">
<title>Node8&#45;&gt;Node7</title>
<path fill="none" stroke="midnightblue" d="M512.09,-474.93C576.19,-479.2 677.27,-485.93 736.29,-489.86"/>
<polygon fill="midnightblue" stroke="midnightblue" points="736.24,-493.36 746.45,-490.53 736.71,-486.38 736.24,-493.36"/>
</g>
<!-- Node10 -->
<g id="node10" class="node">
<title>Node10</title>
<g id="a_node10"><a xlink:href="class_frame_buffer.html#a3b861048fc9c1861448d4dee7a6b9b69" target="_top" xlink:title=" ">
<polygon fill="none" stroke="black" points="401.5,-297.5 401.5,-316.5 502.5,-316.5 502.5,-297.5 401.5,-297.5"/>
<text text-anchor="middle" x="452" y="-304.5" font-family="Helvetica,sans-Serif" font-size="10.00">FrameBuffer::create</text>
</a>
</g>
</g>
<!-- Node9&#45;&gt;Node10 -->
<g id="edge10" class="edge">
<title>Node9&#45;&gt;Node10</title>
<path fill="none" stroke="midnightblue" d="M342.14,-308.81C358.42,-308.54 375.57,-308.26 391.31,-307.99"/>
<polygon fill="midnightblue" stroke="midnightblue" points="391.49,-311.49 401.43,-307.83 391.38,-304.49 391.49,-311.49"/>
</g>
<!-- Node11&#45;&gt;Node8 -->
<g id="edge20" class="edge">
<title>Node11&#45;&gt;Node8</title>
<path fill="none" stroke="midnightblue" d="M300.09,-410.2C324.09,-422.4 359.24,-439.5 391,-452 396.54,-454.18 402.43,-456.29 408.28,-458.27"/>
<polygon fill="midnightblue" stroke="midnightblue" points="407.43,-461.67 418.02,-461.45 409.6,-455.01 407.43,-461.67"/>
</g>
<!-- Node12 -->
<g id="node12" class="node">
<title>Node12</title>
<g id="a_node12"><a xlink:href="class_uniform_buffer.html#a1e1a7c734eb7243682f2dfa7e964ee58" target="_top" xlink:title=" ">
<polygon fill="none" stroke="black" points="398,-385.5 398,-404.5 506,-404.5 506,-385.5 398,-385.5"/>
<text text-anchor="middle" x="452" y="-392.5" font-family="Helvetica,sans-Serif" font-size="10.00">UniformBuffer::create</text>
</a>
</g>
</g>
<!-- Node11&#45;&gt;Node12 -->
<g id="edge12" class="edge">
<title>Node11&#45;&gt;Node12</title>
<path fill="none" stroke="midnightblue" d="M338.54,-395C354.66,-395 371.81,-395 387.73,-395"/>
<polygon fill="midnightblue" stroke="midnightblue" points="387.99,-398.5 397.99,-395 387.99,-391.5 387.99,-398.5"/>
</g>
<!-- Node14 -->
<g id="node14" class="node">
<title>Node14</title>
<g id="a_node14"><a xlink:href="class_shading_pipeline.html#a6cc9ad0f6a6b61568281b0f80e630ff1" target="_top" xlink:title=" ">
<polygon fill="none" stroke="black" points="393,-423.5 393,-442.5 511,-442.5 511,-423.5 393,-423.5"/>
<text text-anchor="middle" x="452" y="-430.5" font-family="Helvetica,sans-Serif" font-size="10.00">ShadingPipeline::create</text>
</a>
</g>
</g>
<!-- Node11&#45;&gt;Node14 -->
<g id="edge15" class="edge">
<title>Node11&#45;&gt;Node14</title>
<path fill="none" stroke="midnightblue" d="M338.54,-409.26C357.48,-413.26 377.83,-417.55 395.95,-421.38"/>
<polygon fill="midnightblue" stroke="midnightblue" points="395.26,-424.81 405.76,-423.45 396.7,-417.96 395.26,-424.81"/>
</g>
<!-- Node18 -->
<g id="node18" class="node">
<title>Node18</title>
<g id="a_node18"><a xlink:href="class_descriptor_set_layout.html#a1a2b657df46e6453f7a7a3d7863103c2" target="_top" xlink:title=" ">
<polygon fill="none" stroke="black" points="399.5,-336 399.5,-366 504.5,-366 504.5,-336 399.5,-336"/>
<text text-anchor="start" x="407.5" y="-354" font-family="Helvetica,sans-Serif" font-size="10.00">DescriptorSetLayout</text>
<text text-anchor="middle" x="452" y="-343" font-family="Helvetica,sans-Serif" font-size="10.00">::create</text>
</a>
</g>
</g>
<!-- Node11&#45;&gt;Node18 -->
<g id="edge21" class="edge">
<title>Node11&#45;&gt;Node18</title>
<path fill="none" stroke="midnightblue" d="M332.44,-379.98C350.92,-375.46 371.18,-370.51 389.65,-366"/>
<polygon fill="midnightblue" stroke="midnightblue" points="390.53,-369.38 399.41,-363.61 388.87,-362.58 390.53,-369.38"/>
</g>
<!-- Node13 -->
<g id="node13" class="node">
<title>Node13</title>
<g id="a_node13"><a xlink:href="class_buffer.html#a04bbfbb11daccc5656c698c63214aefc" target="_top" xlink:title=" ">
<polygon fill="none" stroke="black" points="573,-329.5 573,-348.5 647,-348.5 647,-329.5 573,-329.5"/>
<text text-anchor="middle" x="610" y="-336.5" font-family="Helvetica,sans-Serif" font-size="10.00">Buffer::create</text>
</a>
</g>
</g>
<!-- Node12&#45;&gt;Node13 -->
<g id="edge13" class="edge">
<title>Node12&#45;&gt;Node13</title>
<path fill="none" stroke="midnightblue" d="M484.26,-385.5C493.55,-382.57 503.72,-379.25 513,-376 534.15,-368.58 557.62,-359.55 576.06,-352.27"/>
<polygon fill="midnightblue" stroke="midnightblue" points="577.48,-355.47 585.48,-348.53 574.89,-348.97 577.48,-355.47"/>
</g>
<!-- Node13&#45;&gt;Node13 -->
<g id="edge14" class="edge">
<title>Node13&#45;&gt;Node13</title>
<path fill="none" stroke="midnightblue" d="M585.65,-348.76C573.8,-357.57 581.92,-367 610,-367 628.43,-367 638.26,-362.94 639.49,-357.65"/>
<polygon fill="midnightblue" stroke="midnightblue" points="642.39,-355.66 634.35,-348.76 636.32,-359.17 642.39,-355.66"/>
</g>
<!-- Node14&#45;&gt;Node6 -->
<g id="edge19" class="edge">
<title>Node14&#45;&gt;Node6</title>
<path fill="none" stroke="midnightblue" d="M487.77,-442.53C496.17,-445.23 505.02,-448.43 513,-452 539.45,-463.85 567.75,-481.31 586.72,-493.77"/>
<polygon fill="midnightblue" stroke="midnightblue" points="584.97,-496.81 595.23,-499.45 588.85,-490.99 584.97,-496.81"/>
</g>
<!-- Node15 -->
<g id="node15" class="node">
<title>Node15</title>
<g id="a_node15"><a xlink:href="class_graphics_pipeline.html#a87f0117ca1a2040cf373963612f80965" target="_top" xlink:title=" ">
<polygon fill="none" stroke="black" points="549,-385.5 549,-404.5 671,-404.5 671,-385.5 549,-385.5"/>
<text text-anchor="middle" x="610" y="-392.5" font-family="Helvetica,sans-Serif" font-size="10.00">GraphicsPipeline::create</text>
</a>
</g>
</g>
<!-- Node14&#45;&gt;Node15 -->
<g id="edge16" class="edge">
<title>Node14&#45;&gt;Node15</title>
<path fill="none" stroke="midnightblue" d="M492.37,-423.41C512.95,-418.4 538.34,-412.21 560.17,-406.89"/>
<polygon fill="midnightblue" stroke="midnightblue" points="561.03,-410.29 569.92,-404.52 559.37,-403.49 561.03,-410.29"/>
</g>
<!-- Node16 -->
<g id="node16" class="node">
<title>Node16</title>
<g id="a_node16"><a xlink:href="class_pipeline_layout.html#a8dabc26f7798c86ce3bd4ff0419304f2" target="_top" xlink:title=" ">
<polygon fill="none" stroke="black" points="554,-423.5 554,-442.5 666,-442.5 666,-423.5 554,-423.5"/>
<text text-anchor="middle" x="610" y="-430.5" font-family="Helvetica,sans-Serif" font-size="10.00">PipelineLayout::create</text>
</a>
</g>
</g>
<!-- Node14&#45;&gt;Node16 -->
<g id="edge17" class="edge">
<title>Node14&#45;&gt;Node16</title>
<path fill="none" stroke="midnightblue" d="M511.09,-433C521.72,-433 532.89,-433 543.72,-433"/>
<polygon fill="midnightblue" stroke="midnightblue" points="543.97,-436.5 553.97,-433 543.97,-429.5 543.97,-436.5"/>
</g>
<!-- Node17 -->
<g id="node17" class="node">
<title>Node17</title>
<g id="a_node17"><a xlink:href="class_vulkan_class.html#a914c142e905262efbd473aeb5bdfb0e8" target="_top" xlink:title=" ">
<polygon fill="none" stroke="black" points="707,-418 707,-448 862,-448 862,-418 707,-418"/>
<text text-anchor="start" x="715" y="-436" font-family="Helvetica,sans-Serif" font-size="10.00">VulkanClass&lt; VkPipelineLayout</text>
<text text-anchor="middle" x="784.5" y="-425" font-family="Helvetica,sans-Serif" font-size="10.00"> &gt;::getHandle</text>
</a>
</g>
</g>
<!-- Node16&#45;&gt;Node17 -->
<g id="edge18" class="edge">
<title>Node16&#45;&gt;Node17</title>
<path fill="none" stroke="midnightblue" d="M666.05,-433C675.92,-433 686.41,-433 696.91,-433"/>
<polygon fill="midnightblue" stroke="midnightblue" points="696.96,-436.5 706.96,-433 696.96,-429.5 696.96,-436.5"/>
</g>
<!-- Node20 -->
<g id="node20" class="node">
<title>Node20</title>
<g id="a_node20"><a xlink:href="class_render_pass.html#a7192ec68626bea374e5003f022dfb0a6" target="_top" xlink:title=" ">
<polygon fill="none" stroke="black" points="401.5,-259.5 401.5,-278.5 502.5,-278.5 502.5,-259.5 401.5,-259.5"/>
<text text-anchor="middle" x="452" y="-266.5" font-family="Helvetica,sans-Serif" font-size="10.00">RenderPass::create</text>
</a>
</g>
</g>
<!-- Node19&#45;&gt;Node20 -->
<g id="edge23" class="edge">
<title>Node19&#45;&gt;Node20</title>
<path fill="none" stroke="midnightblue" d="M355.2,-267.4C367.25,-267.6 379.44,-267.81 390.9,-268"/>
<polygon fill="midnightblue" stroke="midnightblue" points="391.14,-271.5 401.19,-268.17 391.25,-264.5 391.14,-271.5"/>
</g>
<!-- Node22 -->
<g id="node22" class="node">
<title>Node22</title>
<g id="a_node22"><a xlink:href="class_framebuffer_selector.html#aaeb567a08ff24b698ee8cc569980c937" target="_top" xlink:title=" ">
<polygon fill="none" stroke="black" points="400,-210 400,-240 504,-240 504,-210 400,-210"/>
<text text-anchor="start" x="408" y="-228" font-family="Helvetica,sans-Serif" font-size="10.00">FramebufferSelector</text>
<text text-anchor="middle" x="452" y="-217" font-family="Helvetica,sans-Serif" font-size="10.00">::create</text>
</a>
</g>
</g>
<!-- Node21&#45;&gt;Node22 -->
<g id="edge25" class="edge">
<title>Node21&#45;&gt;Node22</title>
<path fill="none" stroke="midnightblue" d="M314.11,-177.09C339.4,-185.94 371.54,-197.19 398.32,-206.56"/>
<polygon fill="midnightblue" stroke="midnightblue" points="397.33,-209.92 407.93,-209.92 399.64,-203.32 397.33,-209.92"/>
</g>
<!-- Node23 -->
<g id="node23" class="node">
<title>Node23</title>
<g id="a_node23"><a xlink:href="class_image.html#a729f597dc28bd5261b1860643ed9513f" target="_top" xlink:title=" ">
<polygon fill="none" stroke="black" points="572.5,-193.5 572.5,-212.5 647.5,-212.5 647.5,-193.5 572.5,-193.5"/>
<text text-anchor="middle" x="610" y="-200.5" font-family="Helvetica,sans-Serif" font-size="10.00">Image::create</text>
</a>
</g>
</g>
<!-- Node21&#45;&gt;Node23 -->
<g id="edge28" class="edge">
<title>Node21&#45;&gt;Node23</title>
<path fill="none" stroke="midnightblue" d="M340.62,-170.45C406.85,-178.48 504.64,-190.34 562.08,-197.31"/>
<polygon fill="midnightblue" stroke="midnightblue" points="561.97,-200.82 572.32,-198.55 562.82,-193.87 561.97,-200.82"/>
</g>
<!-- Node24 -->
<g id="node24" class="node">
<title>Node24</title>
<g id="a_node24"><a xlink:href="class_swap_chain.html#ad6e69feb47cd7d9016c468d2fe01f8af" target="_top" xlink:title=" ">
<polygon fill="none" stroke="black" points="403,-133.5 403,-152.5 501,-152.5 501,-133.5 403,-133.5"/>
<text text-anchor="middle" x="452" y="-140.5" font-family="Helvetica,sans-Serif" font-size="10.00">SwapChain::create</text>
</a>
</g>
</g>
<!-- Node21&#45;&gt;Node24 -->
<g id="edge27" class="edge">
<title>Node21&#45;&gt;Node24</title>
<path fill="none" stroke="midnightblue" d="M340.59,-154.65C357.8,-152.84 376.05,-150.91 392.66,-149.16"/>
<polygon fill="midnightblue" stroke="midnightblue" points="393.18,-152.62 402.76,-148.09 392.45,-145.66 393.18,-152.62"/>
</g>
<!-- Node25 -->
<g id="node25" class="node">
<title>Node25</title>
<g id="a_node25"><a xlink:href="class_image_view.html#a49f8e14c3fd61c0e19735f7f3c397f94" target="_top" xlink:title=" ">
<polygon fill="none" stroke="black" points="403.5,-95.5 403.5,-114.5 500.5,-114.5 500.5,-95.5 403.5,-95.5"/>
<text text-anchor="middle" x="452" y="-102.5" font-family="Helvetica,sans-Serif" font-size="10.00">ImageView::create</text>
</a>
</g>
</g>
<!-- Node21&#45;&gt;Node25 -->
<g id="edge29" class="edge">
<title>Node21&#45;&gt;Node25</title>
<path fill="none" stroke="midnightblue" d="M318.76,-146.87C347.61,-137.74 383.95,-126.23 411.23,-117.59"/>
<polygon fill="midnightblue" stroke="midnightblue" points="412.36,-120.91 420.84,-114.55 410.25,-114.23 412.36,-120.91"/>
</g>
<!-- Node26 -->
<g id="node26" class="node">
<title>Node26</title>
<g id="a_node26"><a xlink:href="class_utils.html#ac44035a9bc80c570cfcd56ded0dad0a5" target="_top" xlink:title=" ">
<polygon fill="none" stroke="black" points="415,-57.5 415,-76.5 489,-76.5 489,-57.5 415,-57.5"/>
<text text-anchor="middle" x="452" y="-64.5" font-family="Helvetica,sans-Serif" font-size="10.00">Utils::remove</text>
</a>
</g>
</g>
<!-- Node21&#45;&gt;Node26 -->
<g id="edge30" class="edge">
<title>Node21&#45;&gt;Node26</title>
<path fill="none" stroke="midnightblue" d="M291.31,-146.83C314.45,-130.1 353.89,-103.27 391,-86 395.71,-83.81 400.74,-81.78 405.8,-79.92"/>
<polygon fill="midnightblue" stroke="midnightblue" points="407.21,-83.14 415.52,-76.57 404.93,-76.52 407.21,-83.14"/>
</g>
<!-- Node22&#45;&gt;Node23 -->
<g id="edge26" class="edge">
<title>Node22&#45;&gt;Node23</title>
<path fill="none" stroke="midnightblue" d="M504.08,-217.8C522.74,-215.17 543.74,-212.2 562.02,-209.63"/>
<polygon fill="midnightblue" stroke="midnightblue" points="562.73,-213.06 572.15,-208.2 561.76,-206.13 562.73,-213.06"/>
</g>
<!-- Node28 -->
<g id="node28" class="node">
<title>Node28</title>
<g id="a_node28"><a xlink:href="class_u_i_renderer.html#a429d9bebea63cfce81d4179458bac829" target="_top" xlink:title=" ">
<polygon fill="none" stroke="black" points="403,-19.5 403,-38.5 501,-38.5 501,-19.5 403,-19.5"/>
<text text-anchor="middle" x="452" y="-26.5" font-family="Helvetica,sans-Serif" font-size="10.00">UIRenderer::create</text>
</a>
</g>
</g>
<!-- Node27&#45;&gt;Node28 -->
<g id="edge32" class="edge">
<title>Node27&#45;&gt;Node28</title>
<path fill="none" stroke="midnightblue" d="M320.19,-54.44C342.68,-50.06 369.5,-44.85 392.97,-40.28"/>
<polygon fill="midnightblue" stroke="midnightblue" points="393.66,-43.72 402.81,-38.37 392.32,-36.84 393.66,-43.72"/>
</g>
<!-- Node29 -->
<g id="node29" class="node">
<title>Node29</title>
<g id="a_node29"><a xlink:href="class_command_buffer.html#aa00b25bc626efb68b5dc810ea91cf41b" target="_top" xlink:title=" ">
<polygon fill="none" stroke="black" points="551,-0.5 551,-19.5 669,-19.5 669,-0.5 551,-0.5"/>
<text text-anchor="middle" x="610" y="-7.5" font-family="Helvetica,sans-Serif" font-size="10.00">CommandBuffer::create</text>
</a>
</g>
</g>
<!-- Node28&#45;&gt;Node29 -->
<g id="edge33" class="edge">
<title>Node28&#45;&gt;Node29</title>
<path fill="none" stroke="midnightblue" d="M501.08,-23.14C513.63,-21.62 527.41,-19.94 540.79,-18.31"/>
<polygon fill="midnightblue" stroke="midnightblue" points="541.42,-21.76 550.93,-17.07 540.58,-14.81 541.42,-21.76"/>
</g>
<!-- Node30 -->
<g id="node30" class="node">
<title>Node30</title>
<g id="a_node30"><a xlink:href="class_descriptor_pool.html#a190f2272d8740c7f7fe13b5b8fb8326c" target="_top" xlink:title=" ">
<polygon fill="none" stroke="black" points="554,-38.5 554,-57.5 666,-57.5 666,-38.5 554,-38.5"/>
<text text-anchor="middle" x="610" y="-45.5" font-family="Helvetica,sans-Serif" font-size="10.00">DescriptorPool::create</text>
</a>
</g>
</g>
<!-- Node28&#45;&gt;Node30 -->
<g id="edge34" class="edge">
<title>Node28&#45;&gt;Node30</title>
<path fill="none" stroke="midnightblue" d="M501.08,-34.86C514.55,-36.5 529.42,-38.31 543.71,-40.05"/>
<polygon fill="midnightblue" stroke="midnightblue" points="543.64,-43.56 553.99,-41.3 544.48,-36.62 543.64,-43.56"/>
</g>
</g>
</svg>
