<?xml version="1.0" encoding="UTF-8" standalone="no"?>
<!DOCTYPE svg PUBLIC "-//W3C//DTD SVG 1.1//EN"
 "http://www.w3.org/Graphics/SVG/1.1/DTD/svg11.dtd">
<!-- Generated by graphviz version 2.50.0 (20220203.2022)
 -->
<!-- Title: VulkanRasterizer::createInstance Pages: 1 -->
<svg width="653pt" height="225pt"
 viewBox="0.00 0.00 653.00 225.00" xmlns="http://www.w3.org/2000/svg" xmlns:xlink="http://www.w3.org/1999/xlink">
<g id="graph0" class="graph" transform="scale(1 1) rotate(0) translate(4 221)">
<title>VulkanRasterizer::createInstance</title>
<!-- Node1 -->
<g id="node1" class="node">
<title>Node1</title>
<g id="a_node1"><a xlink:title=" ">
<polygon fill="#bfbfbf" stroke="black" points="0,-98.5 0,-128.5 122,-128.5 122,-98.5 0,-98.5"/>
<text text-anchor="start" x="8" y="-116.5" font-family="Helvetica,sans-Serif" font-size="10.00">VulkanRasterizer::create</text>
<text text-anchor="middle" x="61" y="-105.5" font-family="Helvetica,sans-Serif" font-size="10.00">Instance</text>
</a>
</g>
</g>
<!-- Node2 -->
<g id="node2" class="node">
<title>Node2</title>
<g id="a_node2"><a xlink:href="class_instance.html#a5157cfdc2e0f384b6fc4d2f901f50e51" target="_top" xlink:title=" ">
<polygon fill="none" stroke="black" points="158,-104 158,-123 244,-123 244,-104 158,-104"/>
<text text-anchor="middle" x="201" y="-111" font-family="Helvetica,sans-Serif" font-size="10.00">Instance::create</text>
</a>
</g>
</g>
<!-- Node1&#45;&gt;Node2 -->
<g id="edge1" class="edge">
<title>Node1&#45;&gt;Node2</title>
<path fill="none" stroke="midnightblue" d="M122.13,-113.5C130.7,-113.5 139.46,-113.5 147.86,-113.5"/>
<polygon fill="midnightblue" stroke="midnightblue" points="147.9,-117 157.9,-113.5 147.9,-110 147.9,-117"/>
</g>
<!-- Node3 -->
<g id="node3" class="node">
<title>Node3</title>
<g id="a_node3"><a xlink:href="class_instance.html#a2596ee041184991f5bde771922d7a830" target="_top" xlink:title=" ">
<polygon fill="none" stroke="black" points="302,-186.5 302,-216.5 429,-216.5 429,-186.5 302,-186.5"/>
<text text-anchor="start" x="310" y="-204.5" font-family="Helvetica,sans-Serif" font-size="10.00">Instance::checkExtension</text>
<text text-anchor="middle" x="365.5" y="-193.5" font-family="Helvetica,sans-Serif" font-size="10.00">Support</text>
</a>
</g>
</g>
<!-- Node2&#45;&gt;Node3 -->
<g id="edge2" class="edge">
<title>Node2&#45;&gt;Node3</title>
<path fill="none" stroke="midnightblue" d="M212.66,-123.07C227.06,-135.6 253.95,-157.59 280,-171.5 287.78,-175.65 296.26,-179.44 304.75,-182.81"/>
<polygon fill="midnightblue" stroke="midnightblue" points="303.7,-186.16 314.29,-186.45 306.19,-179.62 303.7,-186.16"/>
</g>
<!-- Node4 -->
<g id="node4" class="node">
<title>Node4</title>
<g id="a_node4"><a xlink:href="class_instance.html#a3ce4bb24b3870839a2cde17344de7bae" target="_top" xlink:title=" ">
<polygon fill="none" stroke="black" points="487,-170 487,-189 645,-189 645,-170 487,-170"/>
<text text-anchor="middle" x="566" y="-177" font-family="Helvetica,sans-Serif" font-size="10.00">Instance::getRequiredExtensions</text>
</a>
</g>
</g>
<!-- Node2&#45;&gt;Node4 -->
<g id="edge7" class="edge">
<title>Node2&#45;&gt;Node4</title>
<path fill="none" stroke="midnightblue" d="M229.52,-123.09C244.33,-127.97 263,-133.66 280,-137.5 345.35,-152.28 420.34,-163.09 476.99,-170.04"/>
<polygon fill="midnightblue" stroke="midnightblue" points="476.65,-173.52 487,-171.25 477.49,-166.57 476.65,-173.52"/>
</g>
<!-- Node5 -->
<g id="node5" class="node">
<title>Node5</title>
<g id="a_node5"><a xlink:href="class_instance.html#a7dfd2e7ef11a8ea5389ff3b38e2bfe68" target="_top" xlink:title=" ">
<polygon fill="none" stroke="black" points="301.5,-98.5 301.5,-128.5 429.5,-128.5 429.5,-98.5 301.5,-98.5"/>
<text text-anchor="start" x="309.5" y="-116.5" font-family="Helvetica,sans-Serif" font-size="10.00">Instance::checkValidation</text>
<text text-anchor="middle" x="365.5" y="-105.5" font-family="Helvetica,sans-Serif" font-size="10.00">LayerSupport</text>
</a>
</g>
</g>
<!-- Node2&#45;&gt;Node5 -->
<g id="edge4" class="edge">
<title>Node2&#45;&gt;Node5</title>
<path fill="none" stroke="midnightblue" d="M244.27,-113.5C258.54,-113.5 274.92,-113.5 290.89,-113.5"/>
<polygon fill="midnightblue" stroke="midnightblue" points="291.31,-117 301.31,-113.5 291.31,-110 291.31,-117"/>
</g>
<!-- Node7 -->
<g id="node7" class="node">
<title>Node7</title>
<g id="a_node7"><a xlink:href="class_instance.html#ad5276a918a2877e7eee8d4a41d11cb73" target="_top" xlink:title=" ">
<polygon fill="none" stroke="black" points="298,-49.5 298,-79.5 433,-79.5 433,-49.5 298,-49.5"/>
<text text-anchor="start" x="306" y="-67.5" font-family="Helvetica,sans-Serif" font-size="10.00">Instance::CreateDebugUtils</text>
<text text-anchor="middle" x="365.5" y="-56.5" font-family="Helvetica,sans-Serif" font-size="10.00">MessengerEXT</text>
</a>
</g>
</g>
<!-- Node2&#45;&gt;Node7 -->
<g id="edge6" class="edge">
<title>Node2&#45;&gt;Node7</title>
<path fill="none" stroke="midnightblue" d="M231.19,-103.89C245.81,-99.14 263.8,-93.39 280,-88.5 286.57,-86.51 293.44,-84.48 300.31,-82.49"/>
<polygon fill="midnightblue" stroke="midnightblue" points="301.69,-85.73 310.33,-79.6 299.75,-79.01 301.69,-85.73"/>
</g>
<!-- Node8 -->
<g id="node8" class="node">
<title>Node8</title>
<g id="a_node8"><a xlink:href="class_instance.html#afc03642c387a726d74cc7b766e5af16b" target="_top" xlink:title=" ">
<polygon fill="none" stroke="black" points="280,-0.5 280,-30.5 451,-30.5 451,-0.5 280,-0.5"/>
<text text-anchor="start" x="288" y="-18.5" font-family="Helvetica,sans-Serif" font-size="10.00">Instance::populateDebugMessenger</text>
<text text-anchor="middle" x="365.5" y="-7.5" font-family="Helvetica,sans-Serif" font-size="10.00">CreateInfo</text>
</a>
</g>
</g>
<!-- Node2&#45;&gt;Node8 -->
<g id="edge8" class="edge">
<title>Node2&#45;&gt;Node8</title>
<path fill="none" stroke="midnightblue" d="M209.54,-103.78C222.33,-87.96 249.83,-56.69 280,-39.5 283.07,-37.75 286.29,-36.12 289.58,-34.6"/>
<polygon fill="midnightblue" stroke="midnightblue" points="291.2,-37.71 299.07,-30.61 288.49,-31.26 291.2,-37.71"/>
</g>
<!-- Node3&#45;&gt;Node4 -->
<g id="edge3" class="edge">
<title>Node3&#45;&gt;Node4</title>
<path fill="none" stroke="midnightblue" d="M429.03,-194.57C444.19,-192.89 460.67,-191.06 476.76,-189.28"/>
<polygon fill="midnightblue" stroke="midnightblue" points="477.15,-192.76 486.71,-188.18 476.38,-185.8 477.15,-192.76"/>
</g>
<!-- Node6 -->
<g id="node6" class="node">
<title>Node6</title>
<g id="a_node6"><a xlink:href="class_instance.html#a8d8b9c56aab51b5a7e0d001081642a2d" target="_top" xlink:title=" ">
<polygon fill="none" stroke="black" points="493,-104 493,-123 639,-123 639,-104 493,-104"/>
<text text-anchor="middle" x="566" y="-111" font-family="Helvetica,sans-Serif" font-size="10.00">Instance::getSupportedLayers</text>
</a>
</g>
</g>
<!-- Node5&#45;&gt;Node6 -->
<g id="edge5" class="edge">
<title>Node5&#45;&gt;Node6</title>
<path fill="none" stroke="midnightblue" d="M429.58,-113.5C446.38,-113.5 464.77,-113.5 482.45,-113.5"/>
<polygon fill="midnightblue" stroke="midnightblue" points="482.75,-117 492.75,-113.5 482.75,-110 482.75,-117"/>
</g>
</g>
</svg>
