<?xml version="1.0" encoding="UTF-8" standalone="no"?>
<!DOCTYPE svg PUBLIC "-//W3C//DTD SVG 1.1//EN"
 "http://www.w3.org/Graphics/SVG/1.1/DTD/svg11.dtd">
<!-- Generated by graphviz version 2.49.3 (20211215.1918)
 -->
<!-- Title: /github/workspace/src/renderer/vulkan/descriptorset.h Pages: 1 -->
<svg width="1663pt" height="642pt"
 viewBox="0.00 0.00 1662.50 642.00" xmlns="http://www.w3.org/2000/svg" xmlns:xlink="http://www.w3.org/1999/xlink">
<g id="graph0" class="graph" transform="scale(1 1) rotate(0) translate(4 638)">
<title>/github/workspace/src/renderer/vulkan/descriptorset.h</title>
<!-- Node1 -->
<g id="node1" class="node">
<title>Node1</title>
<g id="a_node1"><a xlink:title=" ">
<polygon fill="#bfbfbf" stroke="black" points="919.5,-603.5 919.5,-633.5 1072.5,-633.5 1072.5,-603.5 919.5,-603.5"/>
<text text-anchor="start" x="927.5" y="-621.5" font-family="Helvetica,sans-Serif" font-size="10.00">/github/workspace/src</text>
<text text-anchor="middle" x="996" y="-610.5" font-family="Helvetica,sans-Serif" font-size="10.00">/renderer/vulkan/descriptorset.h</text>
</a>
</g>
</g>
<!-- Node2 -->
<g id="node2" class="node">
<title>Node2</title>
<g id="a_node2"><a xlink:href="descriptorpoolmanager_8h.html" target="_top" xlink:title=" ">
<polygon fill="none" stroke="black" points="147,-536.5 147,-566.5 311,-566.5 311,-536.5 147,-536.5"/>
<text text-anchor="start" x="155" y="-554.5" font-family="Helvetica,sans-Serif" font-size="10.00">/github/workspace/src</text>
<text text-anchor="middle" x="229" y="-543.5" font-family="Helvetica,sans-Serif" font-size="10.00">/renderer/descriptorpoolmanager.h</text>
</a>
</g>
</g>
<!-- Node1&#45;&gt;Node2 -->
<g id="edge1" class="edge">
<title>Node1&#45;&gt;Node2</title>
<path fill="none" stroke="midnightblue" d="M909.27,-610.15C760.18,-597.51 457.27,-571.84 311.29,-559.47"/>
<polygon fill="midnightblue" stroke="midnightblue" points="909.04,-613.64 919.3,-611 909.63,-606.67 909.04,-613.64"/>
</g>
<!-- Node8 -->
<g id="node8" class="node">
<title>Node8</title>
<g id="a_node8"><a xlink:href="uirenderer_8h.html" target="_top" xlink:title=" ">
<polygon fill="none" stroke="black" points="1096.5,-536.5 1096.5,-566.5 1215.5,-566.5 1215.5,-536.5 1096.5,-536.5"/>
<text text-anchor="start" x="1104.5" y="-554.5" font-family="Helvetica,sans-Serif" font-size="10.00">/github/workspace/src</text>
<text text-anchor="middle" x="1156" y="-543.5" font-family="Helvetica,sans-Serif" font-size="10.00">/renderer/ui/uirenderer.h</text>
</a>
</g>
</g>
<!-- Node1&#45;&gt;Node8 -->
<g id="edge7" class="edge">
<title>Node1&#45;&gt;Node8</title>
<path fill="none" stroke="midnightblue" d="M1040.2,-599.54C1065.8,-589.14 1097.57,-576.24 1121.35,-566.58"/>
<polygon fill="midnightblue" stroke="midnightblue" points="1038.66,-596.39 1030.72,-603.4 1041.3,-602.87 1038.66,-596.39"/>
</g>
<!-- Node10 -->
<g id="node10" class="node">
<title>Node10</title>
<g id="a_node10"><a xlink:href="commandbuffer_8h.html" target="_top" xlink:title=" ">
<polygon fill="none" stroke="black" points="914,-536.5 914,-566.5 1078,-566.5 1078,-536.5 914,-536.5"/>
<text text-anchor="start" x="922" y="-554.5" font-family="Helvetica,sans-Serif" font-size="10.00">/github/workspace/src</text>
<text text-anchor="middle" x="996" y="-543.5" font-family="Helvetica,sans-Serif" font-size="10.00">/renderer/vulkan/commandbuffer.h</text>
</a>
</g>
</g>
<!-- Node1&#45;&gt;Node10 -->
<g id="edge9" class="edge">
<title>Node1&#45;&gt;Node10</title>
<path fill="none" stroke="midnightblue" d="M996,-593.11C996,-584.15 996,-574.32 996,-566.58"/>
<polygon fill="midnightblue" stroke="midnightblue" points="992.5,-593.4 996,-603.4 999.5,-593.4 992.5,-593.4"/>
</g>
<!-- Node41 -->
<g id="node41" class="node">
<title>Node41</title>
<g id="a_node41"><a xlink:href="descriptorset_8cpp.html" target="_top" xlink:title=" ">
<polygon fill="none" stroke="black" points="1234,-536.5 1234,-566.5 1398,-566.5 1398,-536.5 1234,-536.5"/>
<text text-anchor="start" x="1242" y="-554.5" font-family="Helvetica,sans-Serif" font-size="10.00">/github/workspace/src</text>
<text text-anchor="middle" x="1316" y="-543.5" font-family="Helvetica,sans-Serif" font-size="10.00">/renderer/vulkan/descriptorset.cpp</text>
</a>
</g>
</g>
<!-- Node1&#45;&gt;Node41 -->
<g id="edge65" class="edge">
<title>Node1&#45;&gt;Node41</title>
<path fill="none" stroke="midnightblue" d="M1075.02,-601.45C1127.7,-590.75 1196.28,-576.82 1246.81,-566.55"/>
<polygon fill="midnightblue" stroke="midnightblue" points="1074.14,-598.06 1065.04,-603.48 1075.54,-604.92 1074.14,-598.06"/>
</g>
<!-- Node3 -->
<g id="node3" class="node">
<title>Node3</title>
<g id="a_node3"><a xlink:href="descriptorpoolmanager_8cpp.html" target="_top" xlink:title=" ">
<polygon fill="none" stroke="black" points="142,-469.5 142,-499.5 316,-499.5 316,-469.5 142,-469.5"/>
<text text-anchor="start" x="150" y="-487.5" font-family="Helvetica,sans-Serif" font-size="10.00">/github/workspace/src</text>
<text text-anchor="middle" x="229" y="-476.5" font-family="Helvetica,sans-Serif" font-size="10.00">/renderer/descriptorpoolmanager.cpp</text>
</a>
</g>
</g>
<!-- Node2&#45;&gt;Node3 -->
<g id="edge2" class="edge">
<title>Node2&#45;&gt;Node3</title>
<path fill="none" stroke="midnightblue" d="M229,-526.11C229,-517.15 229,-507.32 229,-499.58"/>
<polygon fill="midnightblue" stroke="midnightblue" points="225.5,-526.4 229,-536.4 232.5,-526.4 225.5,-526.4"/>
</g>
<!-- Node4 -->
<g id="node4" class="node">
<title>Node4</title>
<g id="a_node4"><a xlink:href="scene_8h.html" target="_top" xlink:title=" ">
<polygon fill="none" stroke="black" points="109.5,-67.5 109.5,-97.5 222.5,-97.5 222.5,-67.5 109.5,-67.5"/>
<text text-anchor="start" x="117.5" y="-85.5" font-family="Helvetica,sans-Serif" font-size="10.00">/github/workspace/src</text>
<text text-anchor="middle" x="166" y="-74.5" font-family="Helvetica,sans-Serif" font-size="10.00">/renderer/scene.h</text>
</a>
</g>
</g>
<!-- Node2&#45;&gt;Node4 -->
<g id="edge3" class="edge">
<title>Node2&#45;&gt;Node4</title>
<path fill="none" stroke="midnightblue" d="M137.25,-535.12C73.52,-518.57 0,-485.06 0,-418.5 0,-418.5 0,-418.5 0,-215.5 0,-153.64 71.49,-116.12 120.64,-97.64"/>
<polygon fill="midnightblue" stroke="midnightblue" points="136.42,-538.52 146.97,-537.53 138.11,-531.73 136.42,-538.52"/>
</g>
<!-- Node5 -->
<g id="node5" class="node">
<title>Node5</title>
<g id="a_node5"><a xlink:href="scene_8cpp.html" target="_top" xlink:title=" ">
<polygon fill="none" stroke="black" points="28.5,-0.5 28.5,-30.5 141.5,-30.5 141.5,-0.5 28.5,-0.5"/>
<text text-anchor="start" x="36.5" y="-18.5" font-family="Helvetica,sans-Serif" font-size="10.00">/github/workspace/src</text>
<text text-anchor="middle" x="85" y="-7.5" font-family="Helvetica,sans-Serif" font-size="10.00">/renderer/scene.cpp</text>
</a>
</g>
</g>
<!-- Node4&#45;&gt;Node5 -->
<g id="edge4" class="edge">
<title>Node4&#45;&gt;Node5</title>
<path fill="none" stroke="midnightblue" d="M140.31,-60.88C128,-51.01 113.57,-39.43 102.54,-30.58"/>
<polygon fill="midnightblue" stroke="midnightblue" points="138.43,-63.87 148.42,-67.4 142.82,-58.41 138.43,-63.87"/>
</g>
<!-- Node6 -->
<g id="node6" class="node">
<title>Node6</title>
<g id="a_node6"><a xlink:href="vulkan__voxel__rasterizer__2_8cpp.html" target="_top" xlink:title=" ">
<polygon fill="none" stroke="black" points="352,-0.5 352,-30.5 526,-30.5 526,-0.5 352,-0.5"/>
<text text-anchor="start" x="360" y="-18.5" font-family="Helvetica,sans-Serif" font-size="10.00">/github/workspace/src</text>
<text text-anchor="middle" x="439" y="-7.5" font-family="Helvetica,sans-Serif" font-size="10.00">/tests/vulkan_voxel_rasterizer_2.cpp</text>
</a>
</g>
</g>
<!-- Node4&#45;&gt;Node6 -->
<g id="edge5" class="edge">
<title>Node4&#45;&gt;Node6</title>
<path fill="none" stroke="midnightblue" d="M232.55,-65.65C277.67,-54.91 336.75,-40.84 380.15,-30.51"/>
<polygon fill="midnightblue" stroke="midnightblue" points="231.48,-62.31 222.57,-68.03 233.1,-69.12 231.48,-62.31"/>
</g>
<!-- Node7 -->
<g id="node7" class="node">
<title>Node7</title>
<g id="a_node7"><a xlink:href="vulkan__voxel__rasterizer__3_8cpp.html" target="_top" xlink:title=" ">
<polygon fill="none" stroke="black" points="160,-0.5 160,-30.5 334,-30.5 334,-0.5 160,-0.5"/>
<text text-anchor="start" x="168" y="-18.5" font-family="Helvetica,sans-Serif" font-size="10.00">/github/workspace/src</text>
<text text-anchor="middle" x="247" y="-7.5" font-family="Helvetica,sans-Serif" font-size="10.00">/tests/vulkan_voxel_rasterizer_3.cpp</text>
</a>
</g>
</g>
<!-- Node4&#45;&gt;Node7 -->
<g id="edge6" class="edge">
<title>Node4&#45;&gt;Node7</title>
<path fill="none" stroke="midnightblue" d="M191.69,-60.88C204,-51.01 218.43,-39.43 229.46,-30.58"/>
<polygon fill="midnightblue" stroke="midnightblue" points="189.18,-58.41 183.58,-67.4 193.57,-63.87 189.18,-58.41"/>
</g>
<!-- Node9 -->
<g id="node9" class="node">
<title>Node9</title>
<g id="a_node9"><a xlink:href="uirenderer_8cpp.html" target="_top" xlink:title=" ">
<polygon fill="none" stroke="black" points="1525.5,-469.5 1525.5,-499.5 1654.5,-499.5 1654.5,-469.5 1525.5,-469.5"/>
<text text-anchor="start" x="1533.5" y="-487.5" font-family="Helvetica,sans-Serif" font-size="10.00">/github/workspace/src</text>
<text text-anchor="middle" x="1590" y="-476.5" font-family="Helvetica,sans-Serif" font-size="10.00">/renderer/ui/uirenderer.cpp</text>
</a>
</g>
</g>
<!-- Node8&#45;&gt;Node9 -->
<g id="edge8" class="edge">
<title>Node8&#45;&gt;Node9</title>
<path fill="none" stroke="midnightblue" d="M1225.91,-535.94C1353.09,-515.03 1387.6,-519.07 1511,-500 1515.69,-499.28 1520.52,-498.49 1525.38,-497.67"/>
<polygon fill="midnightblue" stroke="midnightblue" points="1225.07,-532.53 1215.78,-537.62 1226.22,-539.44 1225.07,-532.53"/>
</g>
<!-- Node11 -->
<g id="node11" class="node">
<title>Node11</title>
<g id="a_node11"><a xlink:href="buffer_8h.html" target="_top" xlink:title=" ">
<polygon fill="none" stroke="black" points="410.5,-469.5 410.5,-499.5 531.5,-499.5 531.5,-469.5 410.5,-469.5"/>
<text text-anchor="start" x="418.5" y="-487.5" font-family="Helvetica,sans-Serif" font-size="10.00">/github/workspace/src</text>
<text text-anchor="middle" x="471" y="-476.5" font-family="Helvetica,sans-Serif" font-size="10.00">/renderer/vulkan/buffer.h</text>
</a>
</g>
</g>
<!-- Node10&#45;&gt;Node11 -->
<g id="edge10" class="edge">
<title>Node10&#45;&gt;Node11</title>
<path fill="none" stroke="midnightblue" d="M903.81,-539.09C796.69,-525.82 622.98,-504.32 531.61,-493"/>
<polygon fill="midnightblue" stroke="midnightblue" points="903.61,-542.59 913.97,-540.34 904.47,-535.64 903.61,-542.59"/>
</g>
<!-- Node31 -->
<g id="node31" class="node">
<title>Node31</title>
<g id="a_node31"><a xlink:href="vulkan__voxel__rasterizer_8cpp.html" target="_top" xlink:title=" ">
<polygon fill="none" stroke="black" points="1044,-268.5 1044,-298.5 1208,-298.5 1208,-268.5 1044,-268.5"/>
<text text-anchor="start" x="1052" y="-286.5" font-family="Helvetica,sans-Serif" font-size="10.00">/github/workspace/src</text>
<text text-anchor="middle" x="1126" y="-275.5" font-family="Helvetica,sans-Serif" font-size="10.00">/tests/vulkan_voxel_rasterizer.cpp</text>
</a>
</g>
</g>
<!-- Node10&#45;&gt;Node31 -->
<g id="edge64" class="edge">
<title>Node10&#45;&gt;Node31</title>
<path fill="none" stroke="midnightblue" d="M1088.29,-536.01C1279.75,-508 1421.16,-542.95 1478,-366 1482.21,-352.88 1487.02,-345.41 1478,-335 1460.56,-314.88 1306.8,-298.95 1208.35,-290.69"/>
<polygon fill="midnightblue" stroke="midnightblue" points="1087.62,-532.57 1078.26,-537.53 1088.67,-539.49 1087.62,-532.57"/>
</g>
<!-- Node32 -->
<g id="node32" class="node">
<title>Node32</title>
<g id="a_node32"><a xlink:href="commandbuffer_8cpp.html" target="_top" xlink:title=" ">
<polygon fill="none" stroke="black" points="852,-469.5 852,-499.5 1026,-499.5 1026,-469.5 852,-469.5"/>
<text text-anchor="start" x="860" y="-487.5" font-family="Helvetica,sans-Serif" font-size="10.00">/github/workspace/src</text>
<text text-anchor="middle" x="939" y="-476.5" font-family="Helvetica,sans-Serif" font-size="10.00">/renderer/vulkan/commandbuffer.cpp</text>
</a>
</g>
</g>
<!-- Node10&#45;&gt;Node32 -->
<g id="edge41" class="edge">
<title>Node10&#45;&gt;Node32</title>
<path fill="none" stroke="midnightblue" d="M976.91,-528.74C968.48,-519.12 958.81,-508.09 951.34,-499.58"/>
<polygon fill="midnightblue" stroke="midnightblue" points="974.41,-531.18 983.63,-536.4 979.67,-526.57 974.41,-531.18"/>
</g>
<!-- Node33 -->
<g id="node33" class="node">
<title>Node33</title>
<g id="a_node33"><a xlink:href="swapchain_8h.html" target="_top" xlink:title=" ">
<polygon fill="none" stroke="black" points="1083.5,-469.5 1083.5,-499.5 1226.5,-499.5 1226.5,-469.5 1083.5,-469.5"/>
<text text-anchor="start" x="1091.5" y="-487.5" font-family="Helvetica,sans-Serif" font-size="10.00">/github/workspace/src</text>
<text text-anchor="middle" x="1155" y="-476.5" font-family="Helvetica,sans-Serif" font-size="10.00">/renderer/vulkan/swapchain.h</text>
</a>
</g>
</g>
<!-- Node10&#45;&gt;Node33 -->
<g id="edge42" class="edge">
<title>Node10&#45;&gt;Node33</title>
<path fill="none" stroke="midnightblue" d="M1039.92,-532.54C1065.37,-522.14 1096.93,-509.24 1120.57,-499.58"/>
<polygon fill="midnightblue" stroke="midnightblue" points="1038.43,-529.37 1030.5,-536.4 1041.08,-535.85 1038.43,-529.37"/>
</g>
<!-- Node12 -->
<g id="node12" class="node">
<title>Node12</title>
<g id="a_node12"><a xlink:href="dynamicbuffer_8h.html" target="_top" xlink:title=" ">
<polygon fill="none" stroke="black" points="71.5,-402.5 71.5,-432.5 196.5,-432.5 196.5,-402.5 71.5,-402.5"/>
<text text-anchor="start" x="79.5" y="-420.5" font-family="Helvetica,sans-Serif" font-size="10.00">/github/workspace/src</text>
<text text-anchor="middle" x="134" y="-409.5" font-family="Helvetica,sans-Serif" font-size="10.00">/renderer/dynamicbuffer.h</text>
</a>
</g>
</g>
<!-- Node11&#45;&gt;Node12 -->
<g id="edge11" class="edge">
<title>Node11&#45;&gt;Node12</title>
<path fill="none" stroke="midnightblue" d="M400.18,-469.84C340.01,-458.24 254.46,-441.73 196.72,-430.6"/>
<polygon fill="midnightblue" stroke="midnightblue" points="399.88,-473.35 410.36,-471.8 401.21,-466.47 399.88,-473.35"/>
</g>
<!-- Node14 -->
<g id="node14" class="node">
<title>Node14</title>
<g id="a_node14"><a xlink:href="buffer_8cpp.html" target="_top" xlink:title=" ">
<polygon fill="none" stroke="black" points="251.5,-402.5 251.5,-432.5 382.5,-432.5 382.5,-402.5 251.5,-402.5"/>
<text text-anchor="start" x="259.5" y="-420.5" font-family="Helvetica,sans-Serif" font-size="10.00">/github/workspace/src</text>
<text text-anchor="middle" x="317" y="-409.5" font-family="Helvetica,sans-Serif" font-size="10.00">/renderer/vulkan/buffer.cpp</text>
</a>
</g>
</g>
<!-- Node11&#45;&gt;Node14 -->
<g id="edge14" class="edge">
<title>Node11&#45;&gt;Node14</title>
<path fill="none" stroke="midnightblue" d="M428.13,-465.41C403.55,-455.03 373.14,-442.2 350.35,-432.58"/>
<polygon fill="midnightblue" stroke="midnightblue" points="427.01,-468.73 437.58,-469.4 429.73,-462.28 427.01,-468.73"/>
</g>
<!-- Node15 -->
<g id="node15" class="node">
<title>Node15</title>
<g id="a_node15"><a xlink:href="bufferview_8h.html" target="_top" xlink:title=" ">
<polygon fill="none" stroke="black" points="400.5,-402.5 400.5,-432.5 541.5,-432.5 541.5,-402.5 400.5,-402.5"/>
<text text-anchor="start" x="408.5" y="-420.5" font-family="Helvetica,sans-Serif" font-size="10.00">/github/workspace/src</text>
<text text-anchor="middle" x="471" y="-409.5" font-family="Helvetica,sans-Serif" font-size="10.00">/renderer/vulkan/bufferview.h</text>
</a>
</g>
</g>
<!-- Node11&#45;&gt;Node15 -->
<g id="edge15" class="edge">
<title>Node11&#45;&gt;Node15</title>
<path fill="none" stroke="midnightblue" d="M471,-459.11C471,-450.15 471,-440.32 471,-432.58"/>
<polygon fill="midnightblue" stroke="midnightblue" points="467.5,-459.4 471,-469.4 474.5,-459.4 467.5,-459.4"/>
</g>
<!-- Node17 -->
<g id="node17" class="node">
<title>Node17</title>
<g id="a_node17"><a xlink:href="uniformbuffer_8h.html" target="_top" xlink:title=" ">
<polygon fill="none" stroke="black" points="577.5,-402.5 577.5,-432.5 730.5,-432.5 730.5,-402.5 577.5,-402.5"/>
<text text-anchor="start" x="585.5" y="-420.5" font-family="Helvetica,sans-Serif" font-size="10.00">/github/workspace/src</text>
<text text-anchor="middle" x="654" y="-409.5" font-family="Helvetica,sans-Serif" font-size="10.00">/renderer/vulkan/uniformbuffer.h</text>
</a>
</g>
</g>
<!-- Node11&#45;&gt;Node17 -->
<g id="edge17" class="edge">
<title>Node11&#45;&gt;Node17</title>
<path fill="none" stroke="midnightblue" d="M520.4,-465.96C549.87,-455.48 586.81,-442.37 614.37,-432.58"/>
<polygon fill="midnightblue" stroke="midnightblue" points="518.96,-462.75 510.71,-469.4 521.3,-469.35 518.96,-462.75"/>
</g>
<!-- Node12&#45;&gt;Node4 -->
<g id="edge13" class="edge">
<title>Node12&#45;&gt;Node4</title>
<path fill="none" stroke="midnightblue" d="M92.59,-397.29C79.44,-389.32 66,-378.89 57,-366 35.7,-335.51 38,-321.69 38,-284.5 38,-284.5 38,-284.5 38,-215.5 38,-159.32 98.5,-118 136.31,-97.66"/>
<polygon fill="midnightblue" stroke="midnightblue" points="91.16,-400.51 101.59,-402.41 94.63,-394.42 91.16,-400.51"/>
</g>
<!-- Node13 -->
<g id="node13" class="node">
<title>Node13</title>
<g id="a_node13"><a xlink:href="dynamicbuffer_8cpp.html" target="_top" xlink:title=" ">
<polygon fill="none" stroke="black" points="66,-335.5 66,-365.5 202,-365.5 202,-335.5 66,-335.5"/>
<text text-anchor="start" x="74" y="-353.5" font-family="Helvetica,sans-Serif" font-size="10.00">/github/workspace/src</text>
<text text-anchor="middle" x="134" y="-342.5" font-family="Helvetica,sans-Serif" font-size="10.00">/renderer/dynamicbuffer.cpp</text>
</a>
</g>
</g>
<!-- Node12&#45;&gt;Node13 -->
<g id="edge12" class="edge">
<title>Node12&#45;&gt;Node13</title>
<path fill="none" stroke="midnightblue" d="M134,-392.11C134,-383.15 134,-373.32 134,-365.58"/>
<polygon fill="midnightblue" stroke="midnightblue" points="130.5,-392.4 134,-402.4 137.5,-392.4 130.5,-392.4"/>
</g>
<!-- Node16 -->
<g id="node16" class="node">
<title>Node16</title>
<g id="a_node16"><a xlink:href="bufferview_8cpp.html" target="_top" xlink:title=" ">
<polygon fill="none" stroke="black" points="220,-335.5 220,-365.5 372,-365.5 372,-335.5 220,-335.5"/>
<text text-anchor="start" x="228" y="-353.5" font-family="Helvetica,sans-Serif" font-size="10.00">/github/workspace/src</text>
<text text-anchor="middle" x="296" y="-342.5" font-family="Helvetica,sans-Serif" font-size="10.00">/renderer/vulkan/bufferview.cpp</text>
</a>
</g>
</g>
<!-- Node15&#45;&gt;Node16 -->
<g id="edge16" class="edge">
<title>Node15&#45;&gt;Node16</title>
<path fill="none" stroke="midnightblue" d="M423.4,-398.82C395.27,-388.37 360.14,-375.32 333.9,-365.58"/>
<polygon fill="midnightblue" stroke="midnightblue" points="422.43,-402.2 433.03,-402.4 424.87,-395.63 422.43,-402.2"/>
</g>
<!-- Node17&#45;&gt;Node1 -->
<g id="edge38" class="edge">
<title>Node17&#45;&gt;Node1</title>
<path fill="none" stroke="midnightblue" d="M686.03,-437.83C733.58,-466.45 825.76,-521.59 905,-567 926.79,-579.49 951.75,-593.3 970,-603.32"/>
<polygon fill="midnightblue" stroke="midnightblue" points="687.78,-434.8 677.4,-432.64 684.17,-440.8 687.78,-434.8"/>
</g>
<!-- Node18 -->
<g id="node18" class="node">
<title>Node18</title>
<g id="a_node18"><a xlink:href="materiallibrary_8h.html" target="_top" xlink:title=" ">
<polygon fill="none" stroke="black" points="610.5,-335.5 610.5,-365.5 735.5,-365.5 735.5,-335.5 610.5,-335.5"/>
<text text-anchor="start" x="618.5" y="-353.5" font-family="Helvetica,sans-Serif" font-size="10.00">/github/workspace/src</text>
<text text-anchor="middle" x="673" y="-342.5" font-family="Helvetica,sans-Serif" font-size="10.00">/renderer/materiallibrary.h</text>
</a>
</g>
</g>
<!-- Node17&#45;&gt;Node18 -->
<g id="edge18" class="edge">
<title>Node17&#45;&gt;Node18</title>
<path fill="none" stroke="midnightblue" d="M660.96,-392.7C663.62,-383.59 666.57,-373.49 668.89,-365.58"/>
<polygon fill="midnightblue" stroke="midnightblue" points="657.57,-391.82 658.12,-402.4 664.29,-393.78 657.57,-391.82"/>
</g>
<!-- Node30 -->
<g id="node30" class="node">
<title>Node30</title>
<g id="a_node30"><a xlink:href="uniformbuffer_8cpp.html" target="_top" xlink:title=" ">
<polygon fill="none" stroke="black" points="390,-335.5 390,-365.5 554,-365.5 554,-335.5 390,-335.5"/>
<text text-anchor="start" x="398" y="-353.5" font-family="Helvetica,sans-Serif" font-size="10.00">/github/workspace/src</text>
<text text-anchor="middle" x="472" y="-342.5" font-family="Helvetica,sans-Serif" font-size="10.00">/renderer/vulkan/uniformbuffer.cpp</text>
</a>
</g>
</g>
<!-- Node17&#45;&gt;Node30 -->
<g id="edge39" class="edge">
<title>Node17&#45;&gt;Node30</title>
<path fill="none" stroke="midnightblue" d="M604.87,-398.96C575.56,-388.48 538.82,-375.37 511.41,-365.58"/>
<polygon fill="midnightblue" stroke="midnightblue" points="603.91,-402.33 614.51,-402.4 606.27,-395.74 603.91,-402.33"/>
</g>
<!-- Node17&#45;&gt;Node31 -->
<g id="edge40" class="edge">
<title>Node17&#45;&gt;Node31</title>
<path fill="none" stroke="midnightblue" d="M690.74,-397.61C707.38,-388.63 727.06,-377.38 744,-366 762.38,-353.65 762.68,-343.8 783,-335 806.47,-324.83 950.03,-305.9 1043.83,-294.32"/>
<polygon fill="midnightblue" stroke="midnightblue" points="689.03,-394.56 681.86,-402.36 692.33,-400.74 689.03,-394.56"/>
</g>
<!-- Node19 -->
<g id="node19" class="node">
<title>Node19</title>
<g id="a_node19"><a xlink:href="material_8h.html" target="_top" xlink:title=" ">
<polygon fill="none" stroke="black" points="623.5,-268.5 623.5,-298.5 736.5,-298.5 736.5,-268.5 623.5,-268.5"/>
<text text-anchor="start" x="631.5" y="-286.5" font-family="Helvetica,sans-Serif" font-size="10.00">/github/workspace/src</text>
<text text-anchor="middle" x="680" y="-275.5" font-family="Helvetica,sans-Serif" font-size="10.00">/renderer/material.h</text>
</a>
</g>
</g>
<!-- Node18&#45;&gt;Node19 -->
<g id="edge19" class="edge">
<title>Node18&#45;&gt;Node19</title>
<path fill="none" stroke="midnightblue" d="M669.07,-325.11C669.6,-316.15 670.96,-306.32 672.81,-298.58"/>
<polygon fill="midnightblue" stroke="midnightblue" points="665.56,-325.32 668.84,-335.4 672.56,-325.48 665.56,-325.32"/>
</g>
<!-- Node29 -->
<g id="node29" class="node">
<title>Node29</title>
<g id="a_node29"><a xlink:href="materiallibrary_8cpp.html" target="_top" xlink:title=" ">
<polygon fill="none" stroke="black" points="469,-268.5 469,-298.5 605,-298.5 605,-268.5 469,-268.5"/>
<text text-anchor="start" x="477" y="-286.5" font-family="Helvetica,sans-Serif" font-size="10.00">/github/workspace/src</text>
<text text-anchor="middle" x="537" y="-275.5" font-family="Helvetica,sans-Serif" font-size="10.00">/renderer/materiallibrary.cpp</text>
</a>
</g>
</g>
<!-- Node18&#45;&gt;Node29 -->
<g id="edge37" class="edge">
<title>Node18&#45;&gt;Node29</title>
<path fill="none" stroke="midnightblue" d="M634.28,-330.99C612.72,-320.69 586.31,-308.07 566.45,-298.58"/>
<polygon fill="midnightblue" stroke="midnightblue" points="632.96,-334.24 643.49,-335.4 635.98,-327.93 632.96,-334.24"/>
</g>
<!-- Node19&#45;&gt;Node18 -->
<g id="edge25" class="edge">
<title>Node19&#45;&gt;Node18</title>
<path fill="none" stroke="midnightblue" d="M683.93,-308.86C683.4,-317.81 682.05,-327.64 680.2,-335.4"/>
<polygon fill="midnightblue" stroke="midnightblue" points="687.44,-308.65 684.16,-298.58 680.44,-308.5 687.44,-308.65"/>
</g>
<!-- Node20 -->
<g id="node20" class="node">
<title>Node20</title>
<g id="a_node20"><a xlink:href="mastermaterial_8h.html" target="_top" xlink:title=" ">
<polygon fill="none" stroke="black" points="688,-67.5 688,-97.5 818,-97.5 818,-67.5 688,-67.5"/>
<text text-anchor="start" x="696" y="-85.5" font-family="Helvetica,sans-Serif" font-size="10.00">/github/workspace/src</text>
<text text-anchor="middle" x="753" y="-74.5" font-family="Helvetica,sans-Serif" font-size="10.00">/renderer/mastermaterial.h</text>
</a>
</g>
</g>
<!-- Node19&#45;&gt;Node20 -->
<g id="edge20" class="edge">
<title>Node19&#45;&gt;Node20</title>
<path fill="none" stroke="midnightblue" d="M695.16,-260.48C702.22,-252.24 709.94,-242.34 715,-232 737.27,-186.46 742.44,-125.18 747.5,-97.78"/>
<polygon fill="midnightblue" stroke="midnightblue" points="692.41,-258.31 688.46,-268.14 697.68,-262.92 692.41,-258.31"/>
</g>
<!-- Node22 -->
<g id="node22" class="node">
<title>Node22</title>
<g id="a_node22"><a xlink:href="material_8cpp.html" target="_top" xlink:title=" ">
<polygon fill="none" stroke="black" points="602.5,-201.5 602.5,-231.5 715.5,-231.5 715.5,-201.5 602.5,-201.5"/>
<text text-anchor="start" x="610.5" y="-219.5" font-family="Helvetica,sans-Serif" font-size="10.00">/github/workspace/src</text>
<text text-anchor="middle" x="659" y="-208.5" font-family="Helvetica,sans-Serif" font-size="10.00">/renderer/material.cpp</text>
</a>
</g>
</g>
<!-- Node19&#45;&gt;Node22 -->
<g id="edge24" class="edge">
<title>Node19&#45;&gt;Node22</title>
<path fill="none" stroke="midnightblue" d="M672.31,-258.7C669.37,-249.59 666.11,-239.49 663.55,-231.58"/>
<polygon fill="midnightblue" stroke="midnightblue" points="669.04,-259.96 675.44,-268.4 675.7,-257.8 669.04,-259.96"/>
</g>
<!-- Node23 -->
<g id="node23" class="node">
<title>Node23</title>
<g id="a_node23"><a xlink:href="mesh_8h.html" target="_top" xlink:title=" ">
<polygon fill="none" stroke="black" points="471.5,-201.5 471.5,-231.5 584.5,-231.5 584.5,-201.5 471.5,-201.5"/>
<text text-anchor="start" x="479.5" y="-219.5" font-family="Helvetica,sans-Serif" font-size="10.00">/github/workspace/src</text>
<text text-anchor="middle" x="528" y="-208.5" font-family="Helvetica,sans-Serif" font-size="10.00">/renderer/mesh.h</text>
</a>
</g>
</g>
<!-- Node19&#45;&gt;Node23 -->
<g id="edge26" class="edge">
<title>Node19&#45;&gt;Node23</title>
<path fill="none" stroke="midnightblue" d="M637.69,-264.41C613.42,-254.03 583.41,-241.2 560.92,-231.58"/>
<polygon fill="midnightblue" stroke="midnightblue" points="636.45,-267.68 647.02,-268.4 639.2,-261.25 636.45,-267.68"/>
</g>
<!-- Node20&#45;&gt;Node18 -->
<g id="edge23" class="edge">
<title>Node20&#45;&gt;Node18</title>
<path fill="none" stroke="midnightblue" d="M763.32,-107.17C766.44,-115.48 769.44,-125 771,-134 783.65,-207.15 785.4,-236.72 745,-299 734.86,-314.63 718.04,-326.83 703.2,-335.32"/>
<polygon fill="midnightblue" stroke="midnightblue" points="766.51,-105.72 759.55,-97.73 760.01,-108.31 766.51,-105.72"/>
</g>
<!-- Node20&#45;&gt;Node19 -->
<g id="edge22" class="edge">
<title>Node20&#45;&gt;Node19</title>
<path fill="none" stroke="midnightblue" d="M758.36,-107.92C759.11,-138.4 752.83,-191.44 733,-232 726.26,-245.79 714.77,-258.78 703.99,-268.14"/>
<polygon fill="midnightblue" stroke="midnightblue" points="761.85,-107.56 757.79,-97.78 754.86,-107.96 761.85,-107.56"/>
</g>
<!-- Node21 -->
<g id="node21" class="node">
<title>Node21</title>
<g id="a_node21"><a xlink:href="mastermaterial_8cpp.html" target="_top" xlink:title=" ">
<polygon fill="none" stroke="black" points="690,-0.5 690,-30.5 830,-30.5 830,-0.5 690,-0.5"/>
<text text-anchor="start" x="698" y="-18.5" font-family="Helvetica,sans-Serif" font-size="10.00">/github/workspace/src</text>
<text text-anchor="middle" x="760" y="-7.5" font-family="Helvetica,sans-Serif" font-size="10.00">/renderer/mastermaterial.cpp</text>
</a>
</g>
</g>
<!-- Node20&#45;&gt;Node21 -->
<g id="edge21" class="edge">
<title>Node20&#45;&gt;Node21</title>
<path fill="none" stroke="midnightblue" d="M755.6,-57.4C756.57,-48.37 757.64,-38.41 758.48,-30.58"/>
<polygon fill="midnightblue" stroke="midnightblue" points="752.11,-57.08 754.52,-67.4 759.07,-57.83 752.11,-57.08"/>
</g>
<!-- Node23&#45;&gt;Node20 -->
<g id="edge27" class="edge">
<title>Node23&#45;&gt;Node20</title>
<path fill="none" stroke="midnightblue" d="M593.3,-198.64C629.56,-188.51 670.42,-175.57 686,-165 712.38,-147.11 733.85,-115.89 744.9,-97.72"/>
<polygon fill="midnightblue" stroke="midnightblue" points="591.93,-195.39 583.22,-201.42 593.79,-202.14 591.93,-195.39"/>
</g>
<!-- Node24 -->
<g id="node24" class="node">
<title>Node24</title>
<g id="a_node24"><a xlink:href="mesh_8cpp.html" target="_top" xlink:title=" ">
<polygon fill="none" stroke="black" points="564.5,-134.5 564.5,-164.5 677.5,-164.5 677.5,-134.5 564.5,-134.5"/>
<text text-anchor="start" x="572.5" y="-152.5" font-family="Helvetica,sans-Serif" font-size="10.00">/github/workspace/src</text>
<text text-anchor="middle" x="621" y="-141.5" font-family="Helvetica,sans-Serif" font-size="10.00">/renderer/mesh.cpp</text>
</a>
</g>
</g>
<!-- Node23&#45;&gt;Node24 -->
<g id="edge28" class="edge">
<title>Node23&#45;&gt;Node24</title>
<path fill="none" stroke="midnightblue" d="M556.69,-195.45C570.99,-185.45 587.95,-173.6 600.86,-164.58"/>
<polygon fill="midnightblue" stroke="midnightblue" points="554.37,-192.8 548.18,-201.4 558.38,-198.54 554.37,-192.8"/>
</g>
<!-- Node25 -->
<g id="node25" class="node">
<title>Node25</title>
<g id="a_node25"><a xlink:href="modelloader_8h.html" target="_top" xlink:title=" ">
<polygon fill="none" stroke="black" points="380,-67.5 380,-97.5 498,-97.5 498,-67.5 380,-67.5"/>
<text text-anchor="start" x="388" y="-85.5" font-family="Helvetica,sans-Serif" font-size="10.00">/github/workspace/src</text>
<text text-anchor="middle" x="439" y="-74.5" font-family="Helvetica,sans-Serif" font-size="10.00">/renderer/modelloader.h</text>
</a>
</g>
</g>
<!-- Node23&#45;&gt;Node25 -->
<g id="edge29" class="edge">
<title>Node23&#45;&gt;Node25</title>
<path fill="none" stroke="midnightblue" d="M461.56,-202.39C441.24,-194.93 421.08,-183.26 409,-165 394.85,-143.63 412.72,-114.7 426.33,-97.68"/>
<polygon fill="midnightblue" stroke="midnightblue" points="460.6,-205.76 471.19,-205.63 462.83,-199.13 460.6,-205.76"/>
</g>
<!-- Node27 -->
<g id="node27" class="node">
<title>Node27</title>
<g id="a_node27"><a xlink:href="objectinstance_8h.html" target="_top" xlink:title=" ">
<polygon fill="none" stroke="black" points="418,-134.5 418,-164.5 546,-164.5 546,-134.5 418,-134.5"/>
<text text-anchor="start" x="426" y="-152.5" font-family="Helvetica,sans-Serif" font-size="10.00">/github/workspace/src</text>
<text text-anchor="middle" x="482" y="-141.5" font-family="Helvetica,sans-Serif" font-size="10.00">/renderer/objectinstance.h</text>
</a>
</g>
</g>
<!-- Node23&#45;&gt;Node27 -->
<g id="edge33" class="edge">
<title>Node23&#45;&gt;Node27</title>
<path fill="none" stroke="midnightblue" d="M512.19,-193.16C505.48,-183.68 497.87,-172.92 491.96,-164.58"/>
<polygon fill="midnightblue" stroke="midnightblue" points="509.38,-195.26 518.02,-201.4 515.1,-191.21 509.38,-195.26"/>
</g>
<!-- Node25&#45;&gt;Node6 -->
<g id="edge31" class="edge">
<title>Node25&#45;&gt;Node6</title>
<path fill="none" stroke="midnightblue" d="M439,-57.11C439,-48.15 439,-38.32 439,-30.58"/>
<polygon fill="midnightblue" stroke="midnightblue" points="435.5,-57.4 439,-67.4 442.5,-57.4 435.5,-57.4"/>
</g>
<!-- Node25&#45;&gt;Node7 -->
<g id="edge32" class="edge">
<title>Node25&#45;&gt;Node7</title>
<path fill="none" stroke="midnightblue" d="M387.58,-64.09C356.58,-53.6 317.62,-40.41 288.58,-30.58"/>
<polygon fill="midnightblue" stroke="midnightblue" points="386.74,-67.5 397.34,-67.4 388.99,-60.87 386.74,-67.5"/>
</g>
<!-- Node26 -->
<g id="node26" class="node">
<title>Node26</title>
<g id="a_node26"><a xlink:href="modelloader_8cpp.html" target="_top" xlink:title=" ">
<polygon fill="none" stroke="black" points="544,-0.5 544,-30.5 672,-30.5 672,-0.5 544,-0.5"/>
<text text-anchor="start" x="552" y="-18.5" font-family="Helvetica,sans-Serif" font-size="10.00">/github/workspace/src</text>
<text text-anchor="middle" x="608" y="-7.5" font-family="Helvetica,sans-Serif" font-size="10.00">/renderer/modelloader.cpp</text>
</a>
</g>
</g>
<!-- Node25&#45;&gt;Node26 -->
<g id="edge30" class="edge">
<title>Node25&#45;&gt;Node26</title>
<path fill="none" stroke="midnightblue" d="M485.33,-63.68C512.43,-53.26 546.17,-40.28 571.4,-30.58"/>
<polygon fill="midnightblue" stroke="midnightblue" points="483.75,-60.54 475.67,-67.4 486.26,-67.07 483.75,-60.54"/>
</g>
<!-- Node27&#45;&gt;Node4 -->
<g id="edge36" class="edge">
<title>Node27&#45;&gt;Node4</title>
<path fill="none" stroke="midnightblue" d="M407.7,-133.22C351.06,-121.57 274.26,-105.77 222.56,-95.13"/>
<polygon fill="midnightblue" stroke="midnightblue" points="407.17,-136.68 417.67,-135.27 408.58,-129.82 407.17,-136.68"/>
</g>
<!-- Node27&#45;&gt;Node20 -->
<g id="edge34" class="edge">
<title>Node27&#45;&gt;Node20</title>
<path fill="none" stroke="midnightblue" d="M550.3,-132.12C594.64,-121.48 651.84,-107.76 694.17,-97.61"/>
<polygon fill="midnightblue" stroke="midnightblue" points="549.38,-128.74 540.47,-134.48 551.01,-135.55 549.38,-128.74"/>
</g>
<!-- Node28 -->
<g id="node28" class="node">
<title>Node28</title>
<g id="a_node28"><a xlink:href="objectinstance_8cpp.html" target="_top" xlink:title=" ">
<polygon fill="none" stroke="black" points="516.5,-67.5 516.5,-97.5 655.5,-97.5 655.5,-67.5 516.5,-67.5"/>
<text text-anchor="start" x="524.5" y="-85.5" font-family="Helvetica,sans-Serif" font-size="10.00">/github/workspace/src</text>
<text text-anchor="middle" x="586" y="-74.5" font-family="Helvetica,sans-Serif" font-size="10.00">/renderer/objectinstance.cpp</text>
</a>
</g>
</g>
<!-- Node27&#45;&gt;Node28 -->
<g id="edge35" class="edge">
<title>Node27&#45;&gt;Node28</title>
<path fill="none" stroke="midnightblue" d="M513.18,-129.02C529.36,-118.9 548.77,-106.77 563.48,-97.58"/>
<polygon fill="midnightblue" stroke="midnightblue" points="511.19,-126.13 504.57,-134.4 514.9,-132.06 511.19,-126.13"/>
</g>
<!-- Node33&#45;&gt;Node6 -->
<g id="edge62" class="edge">
<title>Node33&#45;&gt;Node6</title>
<path fill="none" stroke="midnightblue" d="M1171.13,-460.65C1194.76,-424.86 1236,-352.64 1236,-284.5 1236,-284.5 1236,-284.5 1236,-148.5 1236,9.45 691.49,-52.46 535,-31 532.08,-30.6 529.11,-30.19 526.11,-29.76"/>
<polygon fill="midnightblue" stroke="midnightblue" points="1167.96,-459.09 1165.26,-469.34 1173.76,-463.01 1167.96,-459.09"/>
</g>
<!-- Node33&#45;&gt;Node7 -->
<g id="edge63" class="edge">
<title>Node33&#45;&gt;Node7</title>
<path fill="none" stroke="midnightblue" d="M1073.17,-468.35C929.54,-441.44 643.24,-386.23 601,-366 581.34,-356.59 582.02,-345.65 563,-335 520.68,-311.32 499.17,-327.59 460,-299 353.83,-221.51 276.32,-76.16 253.74,-30.56"/>
<polygon fill="midnightblue" stroke="midnightblue" points="1072.78,-471.84 1083.26,-470.24 1074.07,-464.96 1072.78,-471.84"/>
</g>
<!-- Node33&#45;&gt;Node31 -->
<g id="edge61" class="edge">
<title>Node33&#45;&gt;Node31</title>
<path fill="none" stroke="midnightblue" d="M1159.48,-459.29C1164.07,-429.43 1168.98,-377.43 1157,-335 1153.2,-321.54 1144.69,-308.12 1137.54,-298.51"/>
<polygon fill="midnightblue" stroke="midnightblue" points="1156.01,-458.79 1157.84,-469.23 1162.92,-459.93 1156.01,-458.79"/>
</g>
<!-- Node34 -->
<g id="node34" class="node">
<title>Node34</title>
<g id="a_node34"><a xlink:href="framebuffer_8h.html" target="_top" xlink:title=" ">
<polygon fill="none" stroke="black" points="1323,-335.5 1323,-365.5 1469,-365.5 1469,-335.5 1323,-335.5"/>
<text text-anchor="start" x="1331" y="-353.5" font-family="Helvetica,sans-Serif" font-size="10.00">/github/workspace/src</text>
<text text-anchor="middle" x="1396" y="-342.5" font-family="Helvetica,sans-Serif" font-size="10.00">/renderer/vulkan/framebuffer.h</text>
</a>
</g>
</g>
<!-- Node33&#45;&gt;Node34 -->
<g id="edge43" class="edge">
<title>Node33&#45;&gt;Node34</title>
<path fill="none" stroke="midnightblue" d="M1236.69,-474.25C1291.1,-466.56 1355.9,-453.51 1375,-433 1391.96,-414.79 1391.41,-383.68 1392.14,-365.62"/>
<polygon fill="midnightblue" stroke="midnightblue" points="1236.1,-470.8 1226.67,-475.62 1237.05,-477.73 1236.1,-470.8"/>
</g>
<!-- Node36 -->
<g id="node36" class="node">
<title>Node36</title>
<g id="a_node36"><a xlink:href="graphicspipeline_8h.html" target="_top" xlink:title=" ">
<polygon fill="none" stroke="black" points="791.5,-335.5 791.5,-365.5 958.5,-365.5 958.5,-335.5 791.5,-335.5"/>
<text text-anchor="start" x="799.5" y="-353.5" font-family="Helvetica,sans-Serif" font-size="10.00">/github/workspace/src</text>
<text text-anchor="middle" x="875" y="-342.5" font-family="Helvetica,sans-Serif" font-size="10.00">/renderer/vulkan/graphicspipeline.h</text>
</a>
</g>
</g>
<!-- Node33&#45;&gt;Node36 -->
<g id="edge48" class="edge">
<title>Node33&#45;&gt;Node36</title>
<path fill="none" stroke="midnightblue" d="M1073.34,-468.61C1040.94,-460.75 1004.07,-449.26 973,-433 938.89,-415.14 905.87,-383.91 888.22,-365.73"/>
<polygon fill="midnightblue" stroke="midnightblue" points="1072.71,-472.06 1083.24,-470.94 1074.31,-465.25 1072.71,-472.06"/>
</g>
<!-- Node38 -->
<g id="node38" class="node">
<title>Node38</title>
<g id="a_node38"><a xlink:href="renderpass_8h.html" target="_top" xlink:title=" ">
<polygon fill="none" stroke="black" points="981.5,-402.5 981.5,-432.5 1126.5,-432.5 1126.5,-402.5 981.5,-402.5"/>
<text text-anchor="start" x="989.5" y="-420.5" font-family="Helvetica,sans-Serif" font-size="10.00">/github/workspace/src</text>
<text text-anchor="middle" x="1054" y="-409.5" font-family="Helvetica,sans-Serif" font-size="10.00">/renderer/vulkan/renderpass.h</text>
</a>
</g>
</g>
<!-- Node33&#45;&gt;Node38 -->
<g id="edge54" class="edge">
<title>Node33&#45;&gt;Node38</title>
<path fill="none" stroke="midnightblue" d="M1124.29,-463.73C1108.66,-453.68 1090.03,-441.68 1075.87,-432.58"/>
<polygon fill="midnightblue" stroke="midnightblue" points="1122.78,-466.93 1133.08,-469.4 1126.57,-461.04 1122.78,-466.93"/>
</g>
<!-- Node40 -->
<g id="node40" class="node">
<title>Node40</title>
<g id="a_node40"><a xlink:href="swapchain_8cpp.html" target="_top" xlink:title=" ">
<polygon fill="none" stroke="black" points="1221,-402.5 1221,-432.5 1375,-432.5 1375,-402.5 1221,-402.5"/>
<text text-anchor="start" x="1229" y="-420.5" font-family="Helvetica,sans-Serif" font-size="10.00">/github/workspace/src</text>
<text text-anchor="middle" x="1298" y="-409.5" font-family="Helvetica,sans-Serif" font-size="10.00">/renderer/vulkan/swapchain.cpp</text>
</a>
</g>
</g>
<!-- Node33&#45;&gt;Node40 -->
<g id="edge60" class="edge">
<title>Node33&#45;&gt;Node40</title>
<path fill="none" stroke="midnightblue" d="M1195.41,-465.13C1218.13,-454.8 1246.06,-442.11 1267.03,-432.58"/>
<polygon fill="midnightblue" stroke="midnightblue" points="1193.68,-462.07 1186.03,-469.4 1196.58,-468.44 1193.68,-462.07"/>
</g>
<!-- Node34&#45;&gt;Node10 -->
<g id="edge44" class="edge">
<title>Node34&#45;&gt;Node10</title>
<path fill="none" stroke="midnightblue" d="M1409.66,-374.71C1417.94,-392.14 1424.85,-415.84 1413,-433 1365.2,-502.21 1316.73,-476.38 1236,-500 1184.2,-515.15 1124.86,-527.68 1078.15,-536.47"/>
<polygon fill="midnightblue" stroke="midnightblue" points="1412.73,-373.03 1405.02,-365.76 1406.51,-376.25 1412.73,-373.03"/>
</g>
<!-- Node34&#45;&gt;Node31 -->
<g id="edge47" class="edge">
<title>Node34&#45;&gt;Node31</title>
<path fill="none" stroke="midnightblue" d="M1327.95,-333.12C1283.77,-322.48 1226.78,-308.76 1184.61,-298.61"/>
<polygon fill="midnightblue" stroke="midnightblue" points="1327.2,-336.54 1337.75,-335.48 1328.84,-329.73 1327.2,-336.54"/>
</g>
<!-- Node34&#45;&gt;Node33 -->
<g id="edge46" class="edge">
<title>Node34&#45;&gt;Node33</title>
<path fill="none" stroke="midnightblue" d="M1406.5,-375.45C1409.12,-393.54 1407.18,-417.78 1393,-433 1371.01,-456.61 1288.46,-470.34 1226.64,-477.38"/>
<polygon fill="midnightblue" stroke="midnightblue" points="1409.92,-374.72 1404.49,-365.62 1403.07,-376.12 1409.92,-374.72"/>
</g>
<!-- Node35 -->
<g id="node35" class="node">
<title>Node35</title>
<g id="a_node35"><a xlink:href="framebuffer_8cpp.html" target="_top" xlink:title=" ">
<polygon fill="none" stroke="black" points="1318,-268.5 1318,-298.5 1474,-298.5 1474,-268.5 1318,-268.5"/>
<text text-anchor="start" x="1326" y="-286.5" font-family="Helvetica,sans-Serif" font-size="10.00">/github/workspace/src</text>
<text text-anchor="middle" x="1396" y="-275.5" font-family="Helvetica,sans-Serif" font-size="10.00">/renderer/vulkan/framebuffer.cpp</text>
</a>
</g>
</g>
<!-- Node34&#45;&gt;Node35 -->
<g id="edge45" class="edge">
<title>Node34&#45;&gt;Node35</title>
<path fill="none" stroke="midnightblue" d="M1396,-325.11C1396,-316.15 1396,-306.32 1396,-298.58"/>
<polygon fill="midnightblue" stroke="midnightblue" points="1392.5,-325.4 1396,-335.4 1399.5,-325.4 1392.5,-325.4"/>
</g>
<!-- Node36&#45;&gt;Node10 -->
<g id="edge51" class="edge">
<title>Node36&#45;&gt;Node10</title>
<path fill="none" stroke="midnightblue" d="M859.84,-374.54C841.34,-405.84 815.69,-462.23 843,-500 859.55,-522.89 886.86,-535.58 913.86,-542.56"/>
<polygon fill="midnightblue" stroke="midnightblue" points="863.03,-376.03 865.28,-365.68 857.06,-372.36 863.03,-376.03"/>
</g>
<!-- Node36&#45;&gt;Node19 -->
<g id="edge50" class="edge">
<title>Node36&#45;&gt;Node19</title>
<path fill="none" stroke="midnightblue" d="M823.18,-332.23C791.64,-321.71 751.85,-308.45 722.23,-298.58"/>
<polygon fill="midnightblue" stroke="midnightblue" points="822.09,-335.55 832.69,-335.4 824.31,-328.91 822.09,-335.55"/>
</g>
<!-- Node36&#45;&gt;Node20 -->
<g id="edge49" class="edge">
<title>Node36&#45;&gt;Node20</title>
<path fill="none" stroke="midnightblue" d="M950.79,-331.39C966.65,-323.99 981.44,-313.59 991,-299 998.55,-287.48 997.06,-280.37 991,-268 948.09,-180.45 841.39,-122.54 786.61,-97.55"/>
<polygon fill="midnightblue" stroke="midnightblue" points="949.19,-328.27 941.36,-335.41 951.93,-334.71 949.19,-328.27"/>
</g>
<!-- Node36&#45;&gt;Node31 -->
<g id="edge53" class="edge">
<title>Node36&#45;&gt;Node31</title>
<path fill="none" stroke="midnightblue" d="M939.04,-332.92C980,-322.31 1032.56,-308.7 1071.51,-298.61"/>
<polygon fill="midnightblue" stroke="midnightblue" points="937.96,-329.58 929.15,-335.48 939.71,-336.36 937.96,-329.58"/>
</g>
<!-- Node37 -->
<g id="node37" class="node">
<title>Node37</title>
<g id="a_node37"><a xlink:href="graphicspipeline_8cpp.html" target="_top" xlink:title=" ">
<polygon fill="none" stroke="black" points="805.5,-268.5 805.5,-298.5 982.5,-298.5 982.5,-268.5 805.5,-268.5"/>
<text text-anchor="start" x="813.5" y="-286.5" font-family="Helvetica,sans-Serif" font-size="10.00">/github/workspace/src</text>
<text text-anchor="middle" x="894" y="-275.5" font-family="Helvetica,sans-Serif" font-size="10.00">/renderer/vulkan/graphicspipeline.cpp</text>
</a>
</g>
</g>
<!-- Node36&#45;&gt;Node37 -->
<g id="edge52" class="edge">
<title>Node36&#45;&gt;Node37</title>
<path fill="none" stroke="midnightblue" d="M881.96,-325.7C884.62,-316.59 887.57,-306.49 889.89,-298.58"/>
<polygon fill="midnightblue" stroke="midnightblue" points="878.57,-324.82 879.12,-335.4 885.29,-326.78 878.57,-324.82"/>
</g>
<!-- Node38&#45;&gt;Node10 -->
<g id="edge55" class="edge">
<title>Node38&#45;&gt;Node10</title>
<path fill="none" stroke="midnightblue" d="M1051.13,-442.71C1048.49,-459.42 1043.64,-481.81 1035,-500 1028.63,-513.41 1018.25,-526.62 1009.79,-536.16"/>
<polygon fill="midnightblue" stroke="midnightblue" points="1054.62,-443.05 1052.56,-432.66 1047.69,-442.06 1054.62,-443.05"/>
</g>
<!-- Node38&#45;&gt;Node31 -->
<g id="edge59" class="edge">
<title>Node38&#45;&gt;Node31</title>
<path fill="none" stroke="midnightblue" d="M1105.93,-397.78C1119.77,-390.15 1133.07,-379.78 1141,-366 1153.2,-344.8 1142.59,-315.82 1134.07,-298.74"/>
<polygon fill="midnightblue" stroke="midnightblue" points="1104.14,-394.77 1096.81,-402.42 1107.31,-401.01 1104.14,-394.77"/>
</g>
<!-- Node38&#45;&gt;Node34 -->
<g id="edge56" class="edge">
<title>Node38&#45;&gt;Node34</title>
<path fill="none" stroke="midnightblue" d="M1136.57,-400.81C1193.43,-390 1268.3,-375.77 1322.99,-365.38"/>
<polygon fill="midnightblue" stroke="midnightblue" points="1135.7,-397.41 1126.53,-402.72 1137.01,-404.29 1135.7,-397.41"/>
</g>
<!-- Node38&#45;&gt;Node36 -->
<g id="edge57" class="edge">
<title>Node38&#45;&gt;Node36</title>
<path fill="none" stroke="midnightblue" d="M1005.68,-398.96C976.85,-388.48 940.72,-375.37 913.76,-365.58"/>
<polygon fill="midnightblue" stroke="midnightblue" points="1004.57,-402.27 1015.16,-402.4 1006.95,-395.69 1004.57,-402.27"/>
</g>
<!-- Node39 -->
<g id="node39" class="node">
<title>Node39</title>
<g id="a_node39"><a xlink:href="renderpass_8cpp.html" target="_top" xlink:title=" ">
<polygon fill="none" stroke="black" points="976.5,-335.5 976.5,-365.5 1131.5,-365.5 1131.5,-335.5 976.5,-335.5"/>
<text text-anchor="start" x="984.5" y="-353.5" font-family="Helvetica,sans-Serif" font-size="10.00">/github/workspace/src</text>
<text text-anchor="middle" x="1054" y="-342.5" font-family="Helvetica,sans-Serif" font-size="10.00">/renderer/vulkan/renderpass.cpp</text>
</a>
</g>
</g>
<!-- Node38&#45;&gt;Node39 -->
<g id="edge58" class="edge">
<title>Node38&#45;&gt;Node39</title>
<path fill="none" stroke="midnightblue" d="M1054,-392.11C1054,-383.15 1054,-373.32 1054,-365.58"/>
<polygon fill="midnightblue" stroke="midnightblue" points="1050.5,-392.4 1054,-402.4 1057.5,-392.4 1050.5,-392.4"/>
</g>
</g>
</svg>
