<?xml version="1.0" encoding="UTF-8" standalone="no"?>
<!DOCTYPE svg PUBLIC "-//W3C//DTD SVG 1.1//EN"
 "http://www.w3.org/Graphics/SVG/1.1/DTD/svg11.dtd">
<!-- Generated by graphviz version 2.49.3 (20211215.1918)
 -->
<!-- Title: /github/workspace/src/renderer/vulkan/descriptorpool.h Pages: 1 -->
<!--zoomable 709 -->
<svg id="main" version="1.1" xmlns="http://www.w3.org/2000/svg" xmlns:xlink="http://www.w3.org/1999/xlink" xml:space="preserve" onload="init(evt)">
<style type="text/css"><![CDATA[
.edge:hover path { stroke: red; }
.edge:hover polygon { stroke: red; fill: red; }
]]></style>
<script type="text/javascript"><![CDATA[
var edges = document.getElementsByTagName('g');
if (edges && edges.length) {
  for (var i=0;i<edges.length;i++) {
    if (edges[i].id.substr(0,4)=='edge') {
      edges[i].setAttribute('class','edge');
    }
  }
}
]]></script>
        <defs>
                <circle id="rim" cx="0" cy="0" r="7"/>
                <circle id="rim2" cx="0" cy="0" r="3.5"/>
                <g id="zoomPlus">
                        <use xlink:href="#rim" fill="#404040">
                                <set attributeName="fill" to="#808080" begin="zoomplus.mouseover" end="zoomplus.mouseout"/>
                        </use>
                        <path d="M-4,0h8M0,-4v8" fill="none" stroke="white" stroke-width="1.5" pointer-events="none"/>
                </g>
                <g id="zoomMin">
                        <use xlink:href="#rim" fill="#404040">
                                <set attributeName="fill" to="#808080" begin="zoomminus.mouseover" end="zoomminus.mouseout"/>
                        </use>
                        <path d="M-4,0h8" fill="none" stroke="white" stroke-width="1.5" pointer-events="none"/>
                </g>
                <g id="dirArrow">
                        <path fill="none" stroke="white" stroke-width="1.5" d="M0,-3.0v7 M-2.5,-0.5L0,-3.0L2.5,-0.5"/>
                </g>
               <g id="resetDef">
                       <use xlink:href="#rim2" fill="#404040">
                               <set attributeName="fill" to="#808080" begin="reset.mouseover" end="reset.mouseout"/>
                       </use>
               </g>
        </defs>

<script type="text/javascript">
var viewWidth = 1523;
var viewHeight = 709;
var sectionId = 'dynsection-1';
</script>
<script xlink:href="svgpan.js"/>
<svg id="graph" class="graph">
<g id="viewport">
<title>/github/workspace/src/renderer/vulkan/descriptorpool.h</title>
<!-- Node1 -->
<g id="node1" class="node">
<title>Node1</title>
<g id="a_node1"><a xlink:title=" ">
<polygon fill="#bfbfbf" stroke="black" points="235,-670.5 235,-700.5 393,-700.5 393,-670.5 235,-670.5"/>
<text text-anchor="start" x="243" y="-688.5" font-family="Helvetica,sans-Serif" font-size="10.00">/github/workspace/src</text>
<text text-anchor="middle" x="314" y="-677.5" font-family="Helvetica,sans-Serif" font-size="10.00">/renderer/vulkan/descriptorpool.h</text>
</a>
</g>
</g>
<!-- Node2 -->
<g id="node2" class="node">
<title>Node2</title>
<g id="a_node2"><a xlink:href="descriptorpoolmanager_8h.html" target="_top" xlink:title=" ">
<polygon fill="none" stroke="black" points="120,-536.5 120,-566.5 284,-566.5 284,-536.5 120,-536.5"/>
<text text-anchor="start" x="128" y="-554.5" font-family="Helvetica,sans-Serif" font-size="10.00">/github/workspace/src</text>
<text text-anchor="middle" x="202" y="-543.5" font-family="Helvetica,sans-Serif" font-size="10.00">/renderer/descriptorpoolmanager.h</text>
</a>
</g>
</g>
<!-- Node1&#45;&gt;Node2 -->
<g id="edge1" class="edge">
<title>Node1&#45;&gt;Node2</title>
<path fill="none" stroke="midnightblue" d="M261.78,-665.82C246.65,-658.1 231.42,-647.67 221,-634 205.85,-614.12 202.48,-584.17 201.9,-566.65"/>
<polygon fill="midnightblue" stroke="midnightblue" points="260.61,-669.14 271.14,-670.29 263.62,-662.83 260.61,-669.14"/>
</g>
<!-- Node7 -->
<g id="node7" class="node">
<title>Node7</title>
<g id="a_node7"><a xlink:href="descriptorpool_8cpp.html" target="_top" xlink:title=" ">
<polygon fill="none" stroke="black" points="230,-603.5 230,-633.5 398,-633.5 398,-603.5 230,-603.5"/>
<text text-anchor="start" x="238" y="-621.5" font-family="Helvetica,sans-Serif" font-size="10.00">/github/workspace/src</text>
<text text-anchor="middle" x="314" y="-610.5" font-family="Helvetica,sans-Serif" font-size="10.00">/renderer/vulkan/descriptorpool.cpp</text>
</a>
</g>
</g>
<!-- Node1&#45;&gt;Node7 -->
<g id="edge6" class="edge">
<title>Node1&#45;&gt;Node7</title>
<path fill="none" stroke="midnightblue" d="M314,-660.11C314,-651.15 314,-641.32 314,-633.58"/>
<polygon fill="midnightblue" stroke="midnightblue" points="310.5,-660.4 314,-670.4 317.5,-660.4 310.5,-660.4"/>
</g>
<!-- Node8 -->
<g id="node8" class="node">
<title>Node8</title>
<g id="a_node8"><a xlink:href="descriptorset_8h.html" target="_top" xlink:title=" ">
<polygon fill="none" stroke="black" points="416.5,-603.5 416.5,-633.5 569.5,-633.5 569.5,-603.5 416.5,-603.5"/>
<text text-anchor="start" x="424.5" y="-621.5" font-family="Helvetica,sans-Serif" font-size="10.00">/github/workspace/src</text>
<text text-anchor="middle" x="493" y="-610.5" font-family="Helvetica,sans-Serif" font-size="10.00">/renderer/vulkan/descriptorset.h</text>
</a>
</g>
</g>
<!-- Node1&#45;&gt;Node8 -->
<g id="edge7" class="edge">
<title>Node1&#45;&gt;Node8</title>
<path fill="none" stroke="midnightblue" d="M362.32,-666.96C391.15,-656.48 427.28,-643.37 454.24,-633.58"/>
<polygon fill="midnightblue" stroke="midnightblue" points="361.05,-663.69 352.84,-670.4 363.43,-670.27 361.05,-663.69"/>
</g>
<!-- Node3 -->
<g id="node3" class="node">
<title>Node3</title>
<g id="a_node3"><a xlink:href="descriptorpoolmanager_8cpp.html" target="_top" xlink:title=" ">
<polygon fill="none" stroke="black" points="0,-469.5 0,-499.5 174,-499.5 174,-469.5 0,-469.5"/>
<text text-anchor="start" x="8" y="-487.5" font-family="Helvetica,sans-Serif" font-size="10.00">/github/workspace/src</text>
<text text-anchor="middle" x="87" y="-476.5" font-family="Helvetica,sans-Serif" font-size="10.00">/renderer/descriptorpoolmanager.cpp</text>
</a>
</g>
</g>
<!-- Node2&#45;&gt;Node3 -->
<g id="edge2" class="edge">
<title>Node2&#45;&gt;Node3</title>
<path fill="none" stroke="midnightblue" d="M168.02,-531.3C150.03,-521.12 128.32,-508.85 111.9,-499.58"/>
<polygon fill="midnightblue" stroke="midnightblue" points="166.62,-534.52 177.05,-536.4 170.06,-528.43 166.62,-534.52"/>
</g>
<!-- Node4 -->
<g id="node4" class="node">
<title>Node4</title>
<g id="a_node4"><a xlink:href="scene_8h.html" target="_top" xlink:title=" ">
<polygon fill="none" stroke="black" points="230.5,-67.5 230.5,-97.5 343.5,-97.5 343.5,-67.5 230.5,-67.5"/>
<text text-anchor="start" x="238.5" y="-85.5" font-family="Helvetica,sans-Serif" font-size="10.00">/github/workspace/src</text>
<text text-anchor="middle" x="287" y="-74.5" font-family="Helvetica,sans-Serif" font-size="10.00">/renderer/scene.h</text>
</a>
</g>
</g>
<!-- Node2&#45;&gt;Node4 -->
<g id="edge3" class="edge">
<title>Node2&#45;&gt;Node4</title>
<path fill="none" stroke="midnightblue" d="M202,-525.99C202,-499.49 202,-456 202,-418.5 202,-418.5 202,-418.5 202,-215.5 202,-165.89 244.96,-120.1 269.8,-97.78"/>
<polygon fill="midnightblue" stroke="midnightblue" points="198.5,-526.24 202,-536.24 205.5,-526.24 198.5,-526.24"/>
</g>
<!-- Node5 -->
<g id="node5" class="node">
<title>Node5</title>
<g id="a_node5"><a xlink:href="scene_8cpp.html" target="_top" xlink:title=" ">
<polygon fill="none" stroke="black" points="230.5,-0.5 230.5,-30.5 343.5,-30.5 343.5,-0.5 230.5,-0.5"/>
<text text-anchor="start" x="238.5" y="-18.5" font-family="Helvetica,sans-Serif" font-size="10.00">/github/workspace/src</text>
<text text-anchor="middle" x="287" y="-7.5" font-family="Helvetica,sans-Serif" font-size="10.00">/renderer/scene.cpp</text>
</a>
</g>
</g>
<!-- Node4&#45;&gt;Node5 -->
<g id="edge4" class="edge">
<title>Node4&#45;&gt;Node5</title>
<path fill="none" stroke="midnightblue" d="M287,-57.11C287,-48.15 287,-38.32 287,-30.58"/>
<polygon fill="midnightblue" stroke="midnightblue" points="283.5,-57.4 287,-67.4 290.5,-57.4 283.5,-57.4"/>
</g>
<!-- Node6 -->
<g id="node6" class="node">
<title>Node6</title>
<g id="a_node6"><a xlink:href="vulkan__voxel__rasterizer__2_8cpp.html" target="_top" xlink:title=" ">
<polygon fill="none" stroke="black" points="617,-0.5 617,-30.5 791,-30.5 791,-0.5 617,-0.5"/>
<text text-anchor="start" x="625" y="-18.5" font-family="Helvetica,sans-Serif" font-size="10.00">/github/workspace/src</text>
<text text-anchor="middle" x="704" y="-7.5" font-family="Helvetica,sans-Serif" font-size="10.00">/tests/vulkan_voxel_rasterizer_2.cpp</text>
</a>
</g>
</g>
<!-- Node4&#45;&gt;Node6 -->
<g id="edge5" class="edge">
<title>Node4&#45;&gt;Node6</title>
<path fill="none" stroke="midnightblue" d="M353.67,-66.96C449.31,-49.81 547.97,-36.13 616.8,-27.24"/>
<polygon fill="midnightblue" stroke="midnightblue" points="353.05,-63.51 343.83,-68.74 354.29,-70.4 353.05,-63.51"/>
</g>
<!-- Node8&#45;&gt;Node2 -->
<g id="edge8" class="edge">
<title>Node8&#45;&gt;Node2</title>
<path fill="none" stroke="midnightblue" d="M420.24,-601.25C372.46,-590.58 310.58,-576.75 264.92,-566.55"/>
<polygon fill="midnightblue" stroke="midnightblue" points="419.69,-604.71 430.22,-603.48 421.22,-597.88 419.69,-604.71"/>
</g>
<!-- Node9 -->
<g id="node9" class="node">
<title>Node9</title>
<g id="a_node9"><a xlink:href="commandbuffer_8h.html" target="_top" xlink:title=" ">
<polygon fill="none" stroke="black" points="896,-536.5 896,-566.5 1060,-566.5 1060,-536.5 896,-536.5"/>
<text text-anchor="start" x="904" y="-554.5" font-family="Helvetica,sans-Serif" font-size="10.00">/github/workspace/src</text>
<text text-anchor="middle" x="978" y="-543.5" font-family="Helvetica,sans-Serif" font-size="10.00">/renderer/vulkan/commandbuffer.h</text>
</a>
</g>
</g>
<!-- Node8&#45;&gt;Node9 -->
<g id="edge9" class="edge">
<title>Node8&#45;&gt;Node9</title>
<path fill="none" stroke="midnightblue" d="M579.71,-605.88C669.23,-593.88 807.88,-575.3 895.74,-563.52"/>
<polygon fill="midnightblue" stroke="midnightblue" points="579.03,-602.44 569.58,-607.24 579.96,-609.38 579.03,-602.44"/>
</g>
<!-- Node38 -->
<g id="node38" class="node">
<title>Node38</title>
<g id="a_node38"><a xlink:href="descriptorset_8cpp.html" target="_top" xlink:title=" ">
<polygon fill="none" stroke="black" points="1078,-536.5 1078,-566.5 1242,-566.5 1242,-536.5 1078,-536.5"/>
<text text-anchor="start" x="1086" y="-554.5" font-family="Helvetica,sans-Serif" font-size="10.00">/github/workspace/src</text>
<text text-anchor="middle" x="1160" y="-543.5" font-family="Helvetica,sans-Serif" font-size="10.00">/renderer/vulkan/descriptorset.cpp</text>
</a>
</g>
</g>
<!-- Node8&#45;&gt;Node38 -->
<g id="edge58" class="edge">
<title>Node8&#45;&gt;Node38</title>
<path fill="none" stroke="midnightblue" d="M579.89,-611.8C692.83,-603.95 896.06,-588.33 1069,-567 1071.86,-566.65 1074.76,-566.27 1077.7,-565.88"/>
<polygon fill="midnightblue" stroke="midnightblue" points="579.32,-608.33 569.58,-612.51 579.8,-615.32 579.32,-608.33"/>
</g>
<!-- Node10 -->
<g id="node10" class="node">
<title>Node10</title>
<g id="a_node10"><a xlink:href="buffer_8h.html" target="_top" xlink:title=" ">
<polygon fill="none" stroke="black" points="631.5,-469.5 631.5,-499.5 752.5,-499.5 752.5,-469.5 631.5,-469.5"/>
<text text-anchor="start" x="639.5" y="-487.5" font-family="Helvetica,sans-Serif" font-size="10.00">/github/workspace/src</text>
<text text-anchor="middle" x="692" y="-476.5" font-family="Helvetica,sans-Serif" font-size="10.00">/renderer/vulkan/buffer.h</text>
</a>
</g>
</g>
<!-- Node9&#45;&gt;Node10 -->
<g id="edge10" class="edge">
<title>Node9&#45;&gt;Node10</title>
<path fill="none" stroke="midnightblue" d="M906.41,-534.23C859.03,-523.46 797.57,-509.49 752.61,-499.28"/>
<polygon fill="midnightblue" stroke="midnightblue" points="905.77,-537.67 916.29,-536.48 907.32,-530.85 905.77,-537.67"/>
</g>
<!-- Node28 -->
<g id="node28" class="node">
<title>Node28</title>
<g id="a_node28"><a xlink:href="vulkan__voxel__rasterizer_8cpp.html" target="_top" xlink:title=" ">
<polygon fill="none" stroke="black" points="1053,-268.5 1053,-298.5 1217,-298.5 1217,-268.5 1053,-268.5"/>
<text text-anchor="start" x="1061" y="-286.5" font-family="Helvetica,sans-Serif" font-size="10.00">/github/workspace/src</text>
<text text-anchor="middle" x="1135" y="-275.5" font-family="Helvetica,sans-Serif" font-size="10.00">/tests/vulkan_voxel_rasterizer.cpp</text>
</a>
</g>
</g>
<!-- Node9&#45;&gt;Node28 -->
<g id="edge57" class="edge">
<title>Node9&#45;&gt;Node28</title>
<path fill="none" stroke="midnightblue" d="M1033.91,-532.77C1077.47,-515.37 1133.82,-483.91 1154,-433 1172.48,-386.37 1152.3,-325.64 1141.24,-298.58"/>
<polygon fill="midnightblue" stroke="midnightblue" points="1032.63,-529.52 1024.55,-536.38 1035.14,-536.05 1032.63,-529.52"/>
</g>
<!-- Node29 -->
<g id="node29" class="node">
<title>Node29</title>
<g id="a_node29"><a xlink:href="commandbuffer_8cpp.html" target="_top" xlink:title=" ">
<polygon fill="none" stroke="black" points="891,-469.5 891,-499.5 1065,-499.5 1065,-469.5 891,-469.5"/>
<text text-anchor="start" x="899" y="-487.5" font-family="Helvetica,sans-Serif" font-size="10.00">/github/workspace/src</text>
<text text-anchor="middle" x="978" y="-476.5" font-family="Helvetica,sans-Serif" font-size="10.00">/renderer/vulkan/commandbuffer.cpp</text>
</a>
</g>
</g>
<!-- Node9&#45;&gt;Node29 -->
<g id="edge35" class="edge">
<title>Node9&#45;&gt;Node29</title>
<path fill="none" stroke="midnightblue" d="M978,-526.11C978,-517.15 978,-507.32 978,-499.58"/>
<polygon fill="midnightblue" stroke="midnightblue" points="974.5,-526.4 978,-536.4 981.5,-526.4 974.5,-526.4"/>
</g>
<!-- Node30 -->
<g id="node30" class="node">
<title>Node30</title>
<g id="a_node30"><a xlink:href="swapchain_8h.html" target="_top" xlink:title=" ">
<polygon fill="none" stroke="black" points="1186.5,-469.5 1186.5,-499.5 1329.5,-499.5 1329.5,-469.5 1186.5,-469.5"/>
<text text-anchor="start" x="1194.5" y="-487.5" font-family="Helvetica,sans-Serif" font-size="10.00">/github/workspace/src</text>
<text text-anchor="middle" x="1258" y="-476.5" font-family="Helvetica,sans-Serif" font-size="10.00">/renderer/vulkan/swapchain.h</text>
</a>
</g>
</g>
<!-- Node9&#45;&gt;Node30 -->
<g id="edge36" class="edge">
<title>Node9&#45;&gt;Node30</title>
<path fill="none" stroke="midnightblue" d="M1048.28,-534.19C1094.13,-523.54 1153.39,-509.78 1197.21,-499.61"/>
<polygon fill="midnightblue" stroke="midnightblue" points="1047.36,-530.81 1038.41,-536.48 1048.94,-537.62 1047.36,-530.81"/>
</g>
<!-- Node11 -->
<g id="node11" class="node">
<title>Node11</title>
<g id="a_node11"><a xlink:href="buffer_8cpp.html" target="_top" xlink:title=" ">
<polygon fill="none" stroke="black" points="703.5,-402.5 703.5,-432.5 834.5,-432.5 834.5,-402.5 703.5,-402.5"/>
<text text-anchor="start" x="711.5" y="-420.5" font-family="Helvetica,sans-Serif" font-size="10.00">/github/workspace/src</text>
<text text-anchor="middle" x="769" y="-409.5" font-family="Helvetica,sans-Serif" font-size="10.00">/renderer/vulkan/buffer.cpp</text>
</a>
</g>
</g>
<!-- Node10&#45;&gt;Node11 -->
<g id="edge11" class="edge">
<title>Node10&#45;&gt;Node11</title>
<path fill="none" stroke="midnightblue" d="M716.42,-462.88C728.12,-453.01 741.84,-441.43 752.32,-432.58"/>
<polygon fill="midnightblue" stroke="midnightblue" points="714.09,-460.27 708.71,-469.4 718.61,-465.62 714.09,-460.27"/>
</g>
<!-- Node12 -->
<g id="node12" class="node">
<title>Node12</title>
<g id="a_node12"><a xlink:href="bufferview_8h.html" target="_top" xlink:title=" ">
<polygon fill="none" stroke="black" points="544.5,-402.5 544.5,-432.5 685.5,-432.5 685.5,-402.5 544.5,-402.5"/>
<text text-anchor="start" x="552.5" y="-420.5" font-family="Helvetica,sans-Serif" font-size="10.00">/github/workspace/src</text>
<text text-anchor="middle" x="615" y="-409.5" font-family="Helvetica,sans-Serif" font-size="10.00">/renderer/vulkan/bufferview.h</text>
</a>
</g>
</g>
<!-- Node10&#45;&gt;Node12 -->
<g id="edge12" class="edge">
<title>Node10&#45;&gt;Node12</title>
<path fill="none" stroke="midnightblue" d="M667.58,-462.88C655.88,-453.01 642.16,-441.43 631.68,-432.58"/>
<polygon fill="midnightblue" stroke="midnightblue" points="665.39,-465.62 675.29,-469.4 669.91,-460.27 665.39,-465.62"/>
</g>
<!-- Node14 -->
<g id="node14" class="node">
<title>Node14</title>
<g id="a_node14"><a xlink:href="uniformbuffer_8h.html" target="_top" xlink:title=" ">
<polygon fill="none" stroke="black" points="373.5,-402.5 373.5,-432.5 526.5,-432.5 526.5,-402.5 373.5,-402.5"/>
<text text-anchor="start" x="381.5" y="-420.5" font-family="Helvetica,sans-Serif" font-size="10.00">/github/workspace/src</text>
<text text-anchor="middle" x="450" y="-409.5" font-family="Helvetica,sans-Serif" font-size="10.00">/renderer/vulkan/uniformbuffer.h</text>
</a>
</g>
</g>
<!-- Node10&#45;&gt;Node14 -->
<g id="edge14" class="edge">
<title>Node10&#45;&gt;Node14</title>
<path fill="none" stroke="midnightblue" d="M630.01,-466.85C590.55,-456.25 540.01,-442.68 502.54,-432.61"/>
<polygon fill="midnightblue" stroke="midnightblue" points="629.22,-470.26 639.79,-469.48 631.04,-463.5 629.22,-470.26"/>
</g>
<!-- Node13 -->
<g id="node13" class="node">
<title>Node13</title>
<g id="a_node13"><a xlink:href="bufferview_8cpp.html" target="_top" xlink:title=" ">
<polygon fill="none" stroke="black" points="596,-335.5 596,-365.5 748,-365.5 748,-335.5 596,-335.5"/>
<text text-anchor="start" x="604" y="-353.5" font-family="Helvetica,sans-Serif" font-size="10.00">/github/workspace/src</text>
<text text-anchor="middle" x="672" y="-342.5" font-family="Helvetica,sans-Serif" font-size="10.00">/renderer/vulkan/bufferview.cpp</text>
</a>
</g>
</g>
<!-- Node12&#45;&gt;Node13 -->
<g id="edge13" class="edge">
<title>Node12&#45;&gt;Node13</title>
<path fill="none" stroke="midnightblue" d="M634.09,-394.74C642.52,-385.12 652.19,-374.09 659.66,-365.58"/>
<polygon fill="midnightblue" stroke="midnightblue" points="631.33,-392.57 627.37,-402.4 636.59,-397.18 631.33,-392.57"/>
</g>
<!-- Node14&#45;&gt;Node8 -->
<g id="edge32" class="edge">
<title>Node14&#45;&gt;Node8</title>
<path fill="none" stroke="midnightblue" d="M455.2,-442.57C464.25,-484.44 482.61,-569.41 489.91,-603.19"/>
<polygon fill="midnightblue" stroke="midnightblue" points="458.6,-441.72 453.06,-432.68 451.76,-443.2 458.6,-441.72"/>
</g>
<!-- Node15 -->
<g id="node15" class="node">
<title>Node15</title>
<g id="a_node15"><a xlink:href="materiallibrary_8h.html" target="_top" xlink:title=" ">
<polygon fill="none" stroke="black" points="232.5,-335.5 232.5,-365.5 357.5,-365.5 357.5,-335.5 232.5,-335.5"/>
<text text-anchor="start" x="240.5" y="-353.5" font-family="Helvetica,sans-Serif" font-size="10.00">/github/workspace/src</text>
<text text-anchor="middle" x="295" y="-342.5" font-family="Helvetica,sans-Serif" font-size="10.00">/renderer/materiallibrary.h</text>
</a>
</g>
</g>
<!-- Node14&#45;&gt;Node15 -->
<g id="edge15" class="edge">
<title>Node14&#45;&gt;Node15</title>
<path fill="none" stroke="midnightblue" d="M406.85,-398.41C382.11,-388.03 351.5,-375.2 328.57,-365.58"/>
<polygon fill="midnightblue" stroke="midnightblue" points="405.79,-401.76 416.37,-402.4 408.5,-395.3 405.79,-401.76"/>
</g>
<!-- Node27 -->
<g id="node27" class="node">
<title>Node27</title>
<g id="a_node27"><a xlink:href="uniformbuffer_8cpp.html" target="_top" xlink:title=" ">
<polygon fill="none" stroke="black" points="414,-335.5 414,-365.5 578,-365.5 578,-335.5 414,-335.5"/>
<text text-anchor="start" x="422" y="-353.5" font-family="Helvetica,sans-Serif" font-size="10.00">/github/workspace/src</text>
<text text-anchor="middle" x="496" y="-342.5" font-family="Helvetica,sans-Serif" font-size="10.00">/renderer/vulkan/uniformbuffer.cpp</text>
</a>
</g>
</g>
<!-- Node14&#45;&gt;Node27 -->
<g id="edge33" class="edge">
<title>Node14&#45;&gt;Node27</title>
<path fill="none" stroke="midnightblue" d="M465.81,-394.16C472.52,-384.68 480.13,-373.92 486.04,-365.58"/>
<polygon fill="midnightblue" stroke="midnightblue" points="462.9,-392.21 459.98,-402.4 468.62,-396.26 462.9,-392.21"/>
</g>
<!-- Node14&#45;&gt;Node28 -->
<g id="edge34" class="edge">
<title>Node14&#45;&gt;Node28</title>
<path fill="none" stroke="midnightblue" d="M424.9,-395.43C406.85,-377.81 388.38,-352.76 405,-335 446.32,-290.85 887.69,-303.34 948,-299 982.27,-296.54 1020.05,-293.64 1052.63,-291.09"/>
<polygon fill="midnightblue" stroke="midnightblue" points="422.8,-398.25 432.51,-402.49 427.56,-393.12 422.8,-398.25"/>
</g>
<!-- Node16 -->
<g id="node16" class="node">
<title>Node16</title>
<g id="a_node16"><a xlink:href="material_8h.html" target="_top" xlink:title=" ">
<polygon fill="none" stroke="black" points="441.5,-268.5 441.5,-298.5 554.5,-298.5 554.5,-268.5 441.5,-268.5"/>
<text text-anchor="start" x="449.5" y="-286.5" font-family="Helvetica,sans-Serif" font-size="10.00">/github/workspace/src</text>
<text text-anchor="middle" x="498" y="-275.5" font-family="Helvetica,sans-Serif" font-size="10.00">/renderer/material.h</text>
</a>
</g>
</g>
<!-- Node15&#45;&gt;Node16 -->
<g id="edge16" class="edge">
<title>Node15&#45;&gt;Node16</title>
<path fill="none" stroke="midnightblue" d="M342.9,-332.23C374.69,-321.71 416.23,-308.45 448.36,-298.58"/>
<polygon fill="midnightblue" stroke="midnightblue" points="341.75,-328.92 333.37,-335.4 343.96,-335.56 341.75,-328.92"/>
</g>
<!-- Node26 -->
<g id="node26" class="node">
<title>Node26</title>
<g id="a_node26"><a xlink:href="materiallibrary_8cpp.html" target="_top" xlink:title=" ">
<polygon fill="none" stroke="black" points="230,-268.5 230,-298.5 366,-298.5 366,-268.5 230,-268.5"/>
<text text-anchor="start" x="238" y="-286.5" font-family="Helvetica,sans-Serif" font-size="10.00">/github/workspace/src</text>
<text text-anchor="middle" x="298" y="-275.5" font-family="Helvetica,sans-Serif" font-size="10.00">/renderer/materiallibrary.cpp</text>
</a>
</g>
</g>
<!-- Node15&#45;&gt;Node26 -->
<g id="edge31" class="edge">
<title>Node15&#45;&gt;Node26</title>
<path fill="none" stroke="midnightblue" d="M296.11,-325.4C296.53,-316.37 296.99,-306.41 297.35,-298.58"/>
<polygon fill="midnightblue" stroke="midnightblue" points="292.62,-325.25 295.65,-335.4 299.61,-325.57 292.62,-325.25"/>
</g>
<!-- Node16&#45;&gt;Node15 -->
<g id="edge21" class="edge">
<title>Node16&#45;&gt;Node15</title>
<path fill="none" stroke="midnightblue" d="M450.06,-301.78C418.23,-312.32 376.61,-325.6 344.47,-335.48"/>
<polygon fill="midnightblue" stroke="midnightblue" points="451.22,-305.09 459.61,-298.61 449.02,-298.44 451.22,-305.09"/>
</g>
<!-- Node17 -->
<g id="node17" class="node">
<title>Node17</title>
<g id="a_node17"><a xlink:href="mastermaterial_8h.html" target="_top" xlink:title=" ">
<polygon fill="none" stroke="black" points="367,-134.5 367,-164.5 497,-164.5 497,-134.5 367,-134.5"/>
<text text-anchor="start" x="375" y="-152.5" font-family="Helvetica,sans-Serif" font-size="10.00">/github/workspace/src</text>
<text text-anchor="middle" x="432" y="-141.5" font-family="Helvetica,sans-Serif" font-size="10.00">/renderer/mastermaterial.h</text>
</a>
</g>
</g>
<!-- Node16&#45;&gt;Node17 -->
<g id="edge17" class="edge">
<title>Node16&#45;&gt;Node17</title>
<path fill="none" stroke="midnightblue" d="M474.04,-261.02C465.99,-252.67 457.64,-242.58 452,-232 440.35,-210.14 435.35,-181.38 433.31,-164.51"/>
<polygon fill="midnightblue" stroke="midnightblue" points="471.69,-263.61 481.26,-268.16 476.61,-258.64 471.69,-263.61"/>
</g>
<!-- Node19 -->
<g id="node19" class="node">
<title>Node19</title>
<g id="a_node19"><a xlink:href="material_8cpp.html" target="_top" xlink:title=" ">
<polygon fill="none" stroke="black" points="460.5,-201.5 460.5,-231.5 573.5,-231.5 573.5,-201.5 460.5,-201.5"/>
<text text-anchor="start" x="468.5" y="-219.5" font-family="Helvetica,sans-Serif" font-size="10.00">/github/workspace/src</text>
<text text-anchor="middle" x="517" y="-208.5" font-family="Helvetica,sans-Serif" font-size="10.00">/renderer/material.cpp</text>
</a>
</g>
</g>
<!-- Node16&#45;&gt;Node19 -->
<g id="edge20" class="edge">
<title>Node16&#45;&gt;Node19</title>
<path fill="none" stroke="midnightblue" d="M504.96,-258.7C507.62,-249.59 510.57,-239.49 512.89,-231.58"/>
<polygon fill="midnightblue" stroke="midnightblue" points="501.57,-257.82 502.12,-268.4 508.29,-259.78 501.57,-257.82"/>
</g>
<!-- Node20 -->
<g id="node20" class="node">
<title>Node20</title>
<g id="a_node20"><a xlink:href="mesh_8h.html" target="_top" xlink:title=" ">
<polygon fill="none" stroke="black" points="630.5,-201.5 630.5,-231.5 743.5,-231.5 743.5,-201.5 630.5,-201.5"/>
<text text-anchor="start" x="638.5" y="-219.5" font-family="Helvetica,sans-Serif" font-size="10.00">/github/workspace/src</text>
<text text-anchor="middle" x="687" y="-208.5" font-family="Helvetica,sans-Serif" font-size="10.00">/renderer/mesh.h</text>
</a>
</g>
</g>
<!-- Node16&#45;&gt;Node20 -->
<g id="edge22" class="edge">
<title>Node16&#45;&gt;Node20</title>
<path fill="none" stroke="midnightblue" d="M548.62,-265.09C579.13,-254.6 617.48,-241.41 646.07,-231.58"/>
<polygon fill="midnightblue" stroke="midnightblue" points="547.33,-261.83 539.01,-268.4 549.6,-268.45 547.33,-261.83"/>
</g>
<!-- Node17&#45;&gt;Node15 -->
<g id="edge19" class="edge">
<title>Node17&#45;&gt;Node15</title>
<path fill="none" stroke="midnightblue" d="M427.63,-174.78C420.93,-206.32 405.55,-261.76 375,-299 362.19,-314.62 343.22,-326.89 326.97,-335.42"/>
<polygon fill="midnightblue" stroke="midnightblue" points="431.12,-175.18 429.65,-164.69 424.26,-173.8 431.12,-175.18"/>
</g>
<!-- Node18 -->
<g id="node18" class="node">
<title>Node18</title>
<g id="a_node18"><a xlink:href="mastermaterial_8cpp.html" target="_top" xlink:title=" ">
<polygon fill="none" stroke="black" points="362,-67.5 362,-97.5 502,-97.5 502,-67.5 362,-67.5"/>
<text text-anchor="start" x="370" y="-85.5" font-family="Helvetica,sans-Serif" font-size="10.00">/github/workspace/src</text>
<text text-anchor="middle" x="432" y="-74.5" font-family="Helvetica,sans-Serif" font-size="10.00">/renderer/mastermaterial.cpp</text>
</a>
</g>
</g>
<!-- Node17&#45;&gt;Node18 -->
<g id="edge18" class="edge">
<title>Node17&#45;&gt;Node18</title>
<path fill="none" stroke="midnightblue" d="M432,-124.11C432,-115.15 432,-105.32 432,-97.58"/>
<polygon fill="midnightblue" stroke="midnightblue" points="428.5,-124.4 432,-134.4 435.5,-124.4 428.5,-124.4"/>
</g>
<!-- Node20&#45;&gt;Node17 -->
<g id="edge23" class="edge">
<title>Node20&#45;&gt;Node17</title>
<path fill="none" stroke="midnightblue" d="M622.21,-198.98C580.56,-188.37 527.02,-174.72 487.36,-164.61"/>
<polygon fill="midnightblue" stroke="midnightblue" points="621.43,-202.4 631.98,-201.48 623.16,-195.61 621.43,-202.4"/>
</g>
<!-- Node21 -->
<g id="node21" class="node">
<title>Node21</title>
<g id="a_node21"><a xlink:href="mesh_8cpp.html" target="_top" xlink:title=" ">
<polygon fill="none" stroke="black" points="797.5,-134.5 797.5,-164.5 910.5,-164.5 910.5,-134.5 797.5,-134.5"/>
<text text-anchor="start" x="805.5" y="-152.5" font-family="Helvetica,sans-Serif" font-size="10.00">/github/workspace/src</text>
<text text-anchor="middle" x="854" y="-141.5" font-family="Helvetica,sans-Serif" font-size="10.00">/renderer/mesh.cpp</text>
</a>
</g>
</g>
<!-- Node20&#45;&gt;Node21 -->
<g id="edge24" class="edge">
<title>Node20&#45;&gt;Node21</title>
<path fill="none" stroke="midnightblue" d="M732.78,-197.68C759.56,-187.26 792.9,-174.28 817.83,-164.58"/>
<polygon fill="midnightblue" stroke="midnightblue" points="731.29,-194.51 723.24,-201.4 733.83,-201.03 731.29,-194.51"/>
</g>
<!-- Node22 -->
<g id="node22" class="node">
<title>Node22</title>
<g id="a_node22"><a xlink:href="modelloader_8h.html" target="_top" xlink:title=" ">
<polygon fill="none" stroke="black" points="661,-134.5 661,-164.5 779,-164.5 779,-134.5 661,-134.5"/>
<text text-anchor="start" x="669" y="-152.5" font-family="Helvetica,sans-Serif" font-size="10.00">/github/workspace/src</text>
<text text-anchor="middle" x="720" y="-141.5" font-family="Helvetica,sans-Serif" font-size="10.00">/renderer/modelloader.h</text>
</a>
</g>
</g>
<!-- Node20&#45;&gt;Node22 -->
<g id="edge25" class="edge">
<title>Node20&#45;&gt;Node22</title>
<path fill="none" stroke="midnightblue" d="M698.79,-192.28C703.49,-183.02 708.75,-172.66 712.85,-164.58"/>
<polygon fill="midnightblue" stroke="midnightblue" points="695.57,-190.89 694.16,-201.4 701.81,-194.06 695.57,-190.89"/>
</g>
<!-- Node24 -->
<g id="node24" class="node">
<title>Node24</title>
<g id="a_node24"><a xlink:href="objectinstance_8h.html" target="_top" xlink:title=" ">
<polygon fill="none" stroke="black" points="515,-134.5 515,-164.5 643,-164.5 643,-134.5 515,-134.5"/>
<text text-anchor="start" x="523" y="-152.5" font-family="Helvetica,sans-Serif" font-size="10.00">/github/workspace/src</text>
<text text-anchor="middle" x="579" y="-141.5" font-family="Helvetica,sans-Serif" font-size="10.00">/renderer/objectinstance.h</text>
</a>
</g>
</g>
<!-- Node20&#45;&gt;Node24 -->
<g id="edge28" class="edge">
<title>Node20&#45;&gt;Node24</title>
<path fill="none" stroke="midnightblue" d="M654.63,-196.02C637.82,-185.9 617.66,-173.77 602.39,-164.58"/>
<polygon fill="midnightblue" stroke="midnightblue" points="653.19,-199.24 663.57,-201.4 656.8,-193.24 653.19,-199.24"/>
</g>
<!-- Node22&#45;&gt;Node6 -->
<g id="edge27" class="edge">
<title>Node22&#45;&gt;Node6</title>
<path fill="none" stroke="midnightblue" d="M717.08,-124.39C713.75,-96.9 708.41,-52.89 705.7,-30.52"/>
<polygon fill="midnightblue" stroke="midnightblue" points="713.61,-124.87 718.29,-134.37 720.56,-124.03 713.61,-124.87"/>
</g>
<!-- Node23 -->
<g id="node23" class="node">
<title>Node23</title>
<g id="a_node23"><a xlink:href="modelloader_8cpp.html" target="_top" xlink:title=" ">
<polygon fill="none" stroke="black" points="732,-67.5 732,-97.5 860,-97.5 860,-67.5 732,-67.5"/>
<text text-anchor="start" x="740" y="-85.5" font-family="Helvetica,sans-Serif" font-size="10.00">/github/workspace/src</text>
<text text-anchor="middle" x="796" y="-74.5" font-family="Helvetica,sans-Serif" font-size="10.00">/renderer/modelloader.cpp</text>
</a>
</g>
</g>
<!-- Node22&#45;&gt;Node23 -->
<g id="edge26" class="edge">
<title>Node22&#45;&gt;Node23</title>
<path fill="none" stroke="midnightblue" d="M744.11,-127.88C755.66,-118.01 769.19,-106.43 779.54,-97.58"/>
<polygon fill="midnightblue" stroke="midnightblue" points="741.82,-125.24 736.49,-134.4 746.37,-130.56 741.82,-125.24"/>
</g>
<!-- Node24&#45;&gt;Node4 -->
<g id="edge30" class="edge">
<title>Node24&#45;&gt;Node4</title>
<path fill="none" stroke="midnightblue" d="M506.18,-132.29C456.02,-121.12 390.3,-106.49 343.95,-96.18"/>
<polygon fill="midnightblue" stroke="midnightblue" points="505.48,-135.72 516,-134.48 507,-128.89 505.48,-135.72"/>
</g>
<!-- Node25 -->
<g id="node25" class="node">
<title>Node25</title>
<g id="a_node25"><a xlink:href="objectinstance_8cpp.html" target="_top" xlink:title=" ">
<polygon fill="none" stroke="black" points="520.5,-67.5 520.5,-97.5 659.5,-97.5 659.5,-67.5 520.5,-67.5"/>
<text text-anchor="start" x="528.5" y="-85.5" font-family="Helvetica,sans-Serif" font-size="10.00">/github/workspace/src</text>
<text text-anchor="middle" x="590" y="-74.5" font-family="Helvetica,sans-Serif" font-size="10.00">/renderer/objectinstance.cpp</text>
</a>
</g>
</g>
<!-- Node24&#45;&gt;Node25 -->
<g id="edge29" class="edge">
<title>Node24&#45;&gt;Node25</title>
<path fill="none" stroke="midnightblue" d="M583.08,-124.4C584.61,-115.37 586.29,-105.41 587.62,-97.58"/>
<polygon fill="midnightblue" stroke="midnightblue" points="579.6,-123.95 581.39,-134.4 586.51,-125.12 579.6,-123.95"/>
</g>
<!-- Node30&#45;&gt;Node6 -->
<g id="edge56" class="edge">
<title>Node30&#45;&gt;Node6</title>
<path fill="none" stroke="midnightblue" d="M1339.56,-475.55C1414.83,-463.18 1515,-431.67 1515,-351.5 1515,-351.5 1515,-351.5 1515,-148.5 1515,-75.79 1000.64,-35.17 791.18,-21.65"/>
<polygon fill="midnightblue" stroke="midnightblue" points="1338.93,-472.11 1329.59,-477.1 1340.01,-479.02 1338.93,-472.11"/>
</g>
<!-- Node30&#45;&gt;Node28 -->
<g id="edge55" class="edge">
<title>Node30&#45;&gt;Node28</title>
<path fill="none" stroke="midnightblue" d="M1249.62,-459.66C1238.23,-429.1 1215.91,-375.24 1187,-335 1177.16,-321.31 1163.37,-308.11 1152.47,-298.65"/>
<polygon fill="midnightblue" stroke="midnightblue" points="1246.35,-460.89 1253.06,-469.08 1252.92,-458.49 1246.35,-460.89"/>
</g>
<!-- Node31 -->
<g id="node31" class="node">
<title>Node31</title>
<g id="a_node31"><a xlink:href="framebuffer_8h.html" target="_top" xlink:title=" ">
<polygon fill="none" stroke="black" points="1239,-335.5 1239,-365.5 1385,-365.5 1385,-335.5 1239,-335.5"/>
<text text-anchor="start" x="1247" y="-353.5" font-family="Helvetica,sans-Serif" font-size="10.00">/github/workspace/src</text>
<text text-anchor="middle" x="1312" y="-342.5" font-family="Helvetica,sans-Serif" font-size="10.00">/renderer/vulkan/framebuffer.h</text>
</a>
</g>
</g>
<!-- Node30&#45;&gt;Node31 -->
<g id="edge37" class="edge">
<title>Node30&#45;&gt;Node31</title>
<path fill="none" stroke="midnightblue" d="M1257.62,-459.55C1261.42,-443.13 1268.91,-420.96 1277,-402 1282.34,-389.48 1289.48,-375.79 1296.33,-365.82"/>
<polygon fill="midnightblue" stroke="midnightblue" points="1254.18,-458.94 1255.7,-469.43 1261.05,-460.28 1254.18,-458.94"/>
</g>
<!-- Node33 -->
<g id="node33" class="node">
<title>Node33</title>
<g id="a_node33"><a xlink:href="graphicspipeline_8h.html" target="_top" xlink:title=" ">
<polygon fill="none" stroke="black" points="766.5,-335.5 766.5,-365.5 933.5,-365.5 933.5,-335.5 766.5,-335.5"/>
<text text-anchor="start" x="774.5" y="-353.5" font-family="Helvetica,sans-Serif" font-size="10.00">/github/workspace/src</text>
<text text-anchor="middle" x="850" y="-342.5" font-family="Helvetica,sans-Serif" font-size="10.00">/renderer/vulkan/graphicspipeline.h</text>
</a>
</g>
</g>
<!-- Node30&#45;&gt;Node33 -->
<g id="edge42" class="edge">
<title>Node30&#45;&gt;Node33</title>
<path fill="none" stroke="midnightblue" d="M1176.07,-475.26C1122.23,-468.1 1050.93,-455.25 991,-433 944.61,-415.78 895.76,-384.02 869.48,-365.64"/>
<polygon fill="midnightblue" stroke="midnightblue" points="1175.89,-478.76 1186.26,-476.57 1176.79,-471.82 1175.89,-478.76"/>
</g>
<!-- Node35 -->
<g id="node35" class="node">
<title>Node35</title>
<g id="a_node35"><a xlink:href="renderpass_8h.html" target="_top" xlink:title=" ">
<polygon fill="none" stroke="black" points="999.5,-402.5 999.5,-432.5 1144.5,-432.5 1144.5,-402.5 999.5,-402.5"/>
<text text-anchor="start" x="1007.5" y="-420.5" font-family="Helvetica,sans-Serif" font-size="10.00">/github/workspace/src</text>
<text text-anchor="middle" x="1072" y="-409.5" font-family="Helvetica,sans-Serif" font-size="10.00">/renderer/vulkan/renderpass.h</text>
</a>
</g>
</g>
<!-- Node30&#45;&gt;Node35 -->
<g id="edge48" class="edge">
<title>Node30&#45;&gt;Node35</title>
<path fill="none" stroke="midnightblue" d="M1208.19,-466.09C1178.16,-455.6 1140.41,-442.41 1112.28,-432.58"/>
<polygon fill="midnightblue" stroke="midnightblue" points="1207.05,-469.4 1217.64,-469.4 1209.36,-462.79 1207.05,-469.4"/>
</g>
<!-- Node37 -->
<g id="node37" class="node">
<title>Node37</title>
<g id="a_node37"><a xlink:href="swapchain_8cpp.html" target="_top" xlink:title=" ">
<polygon fill="none" stroke="black" points="1295,-402.5 1295,-432.5 1449,-432.5 1449,-402.5 1295,-402.5"/>
<text text-anchor="start" x="1303" y="-420.5" font-family="Helvetica,sans-Serif" font-size="10.00">/github/workspace/src</text>
<text text-anchor="middle" x="1372" y="-409.5" font-family="Helvetica,sans-Serif" font-size="10.00">/renderer/vulkan/swapchain.cpp</text>
</a>
</g>
</g>
<!-- Node30&#45;&gt;Node37 -->
<g id="edge54" class="edge">
<title>Node30&#45;&gt;Node37</title>
<path fill="none" stroke="midnightblue" d="M1291.68,-464.3C1309.52,-454.12 1331.04,-441.85 1347.31,-432.58"/>
<polygon fill="midnightblue" stroke="midnightblue" points="1289.69,-461.4 1282.74,-469.4 1293.16,-467.48 1289.69,-461.4"/>
</g>
<!-- Node31&#45;&gt;Node9 -->
<g id="edge38" class="edge">
<title>Node31&#45;&gt;Node9</title>
<path fill="none" stroke="midnightblue" d="M1395.18,-367.05C1437.91,-379.28 1477.34,-399.92 1458,-433 1367.74,-587.4 1245.96,-510.11 1069,-536 1066.15,-536.42 1063.25,-536.85 1060.33,-537.29"/>
<polygon fill="midnightblue" stroke="midnightblue" points="1396.01,-363.65 1385.45,-364.42 1394.19,-370.41 1396.01,-363.65"/>
</g>
<!-- Node31&#45;&gt;Node28 -->
<g id="edge41" class="edge">
<title>Node31&#45;&gt;Node28</title>
<path fill="none" stroke="midnightblue" d="M1263.85,-331.82C1235.4,-321.37 1199.87,-308.32 1173.33,-298.58"/>
<polygon fill="midnightblue" stroke="midnightblue" points="1263,-335.23 1273.59,-335.4 1265.41,-328.66 1263,-335.23"/>
</g>
<!-- Node31&#45;&gt;Node30 -->
<g id="edge40" class="edge">
<title>Node31&#45;&gt;Node30</title>
<path fill="none" stroke="midnightblue" d="M1307.48,-375C1303.6,-383.4 1298.84,-393 1295,-402 1285.14,-425.12 1276.16,-452.99 1268.61,-469.43"/>
<polygon fill="midnightblue" stroke="midnightblue" points="1310.7,-376.38 1311.51,-365.82 1304.29,-373.57 1310.7,-376.38"/>
</g>
<!-- Node32 -->
<g id="node32" class="node">
<title>Node32</title>
<g id="a_node32"><a xlink:href="framebuffer_8cpp.html" target="_top" xlink:title=" ">
<polygon fill="none" stroke="black" points="1235,-268.5 1235,-298.5 1391,-298.5 1391,-268.5 1235,-268.5"/>
<text text-anchor="start" x="1243" y="-286.5" font-family="Helvetica,sans-Serif" font-size="10.00">/github/workspace/src</text>
<text text-anchor="middle" x="1313" y="-275.5" font-family="Helvetica,sans-Serif" font-size="10.00">/renderer/vulkan/framebuffer.cpp</text>
</a>
</g>
</g>
<!-- Node31&#45;&gt;Node32 -->
<g id="edge39" class="edge">
<title>Node31&#45;&gt;Node32</title>
<path fill="none" stroke="midnightblue" d="M1312.38,-325.11C1312.51,-316.15 1312.66,-306.32 1312.78,-298.58"/>
<polygon fill="midnightblue" stroke="midnightblue" points="1308.87,-325.34 1312.22,-335.4 1315.87,-325.45 1308.87,-325.34"/>
</g>
<!-- Node33&#45;&gt;Node9 -->
<g id="edge45" class="edge">
<title>Node33&#45;&gt;Node9</title>
<path fill="none" stroke="midnightblue" d="M849.2,-375.96C849.42,-407.71 854.18,-463.36 882,-500 894.75,-516.8 914.72,-528.56 933.15,-536.49"/>
<polygon fill="midnightblue" stroke="midnightblue" points="852.7,-375.83 849.29,-365.8 845.7,-375.77 852.7,-375.83"/>
</g>
<!-- Node33&#45;&gt;Node16 -->
<g id="edge44" class="edge">
<title>Node33&#45;&gt;Node16</title>
<path fill="none" stroke="midnightblue" d="M764.21,-333.66C699.08,-321.63 611.36,-305.43 554.74,-294.98"/>
<polygon fill="midnightblue" stroke="midnightblue" points="763.59,-337.1 774.05,-335.48 764.86,-330.22 763.59,-337.1"/>
</g>
<!-- Node33&#45;&gt;Node17 -->
<g id="edge43" class="edge">
<title>Node33&#45;&gt;Node17</title>
<path fill="none" stroke="midnightblue" d="M808.74,-331.22C762.01,-309.85 684.28,-272.25 622,-232 603.4,-219.98 602.46,-211.56 583,-201 553.6,-185.05 518.26,-172.89 489.16,-164.51"/>
<polygon fill="midnightblue" stroke="midnightblue" points="807.39,-334.45 817.94,-335.4 810.28,-328.08 807.39,-334.45"/>
</g>
<!-- Node33&#45;&gt;Node28 -->
<g id="edge47" class="edge">
<title>Node33&#45;&gt;Node28</title>
<path fill="none" stroke="midnightblue" d="M921.53,-333.19C968.21,-322.54 1028.52,-308.78 1073.13,-298.61"/>
<polygon fill="midnightblue" stroke="midnightblue" points="920.46,-329.84 911.49,-335.48 922.02,-336.66 920.46,-329.84"/>
</g>
<!-- Node34 -->
<g id="node34" class="node">
<title>Node34</title>
<g id="a_node34"><a xlink:href="graphicspipeline_8cpp.html" target="_top" xlink:title=" ">
<polygon fill="none" stroke="black" points="761.5,-268.5 761.5,-298.5 938.5,-298.5 938.5,-268.5 761.5,-268.5"/>
<text text-anchor="start" x="769.5" y="-286.5" font-family="Helvetica,sans-Serif" font-size="10.00">/github/workspace/src</text>
<text text-anchor="middle" x="850" y="-275.5" font-family="Helvetica,sans-Serif" font-size="10.00">/renderer/vulkan/graphicspipeline.cpp</text>
</a>
</g>
</g>
<!-- Node33&#45;&gt;Node34 -->
<g id="edge46" class="edge">
<title>Node33&#45;&gt;Node34</title>
<path fill="none" stroke="midnightblue" d="M850,-325.11C850,-316.15 850,-306.32 850,-298.58"/>
<polygon fill="midnightblue" stroke="midnightblue" points="846.5,-325.4 850,-335.4 853.5,-325.4 846.5,-325.4"/>
</g>
<!-- Node35&#45;&gt;Node9 -->
<g id="edge49" class="edge">
<title>Node35&#45;&gt;Node9</title>
<path fill="none" stroke="midnightblue" d="M1079.05,-442.5C1082.65,-459.73 1084.36,-482.84 1074,-500 1063.68,-517.09 1045.45,-528.68 1027.62,-536.4"/>
<polygon fill="midnightblue" stroke="midnightblue" points="1082.41,-441.53 1076.65,-432.64 1075.61,-443.18 1082.41,-441.53"/>
</g>
<!-- Node35&#45;&gt;Node28 -->
<g id="edge53" class="edge">
<title>Node35&#45;&gt;Node28</title>
<path fill="none" stroke="midnightblue" d="M1094.61,-395.27C1102.42,-386.84 1110.57,-376.62 1116,-366 1127.18,-344.14 1131.88,-315.62 1133.78,-298.77"/>
<polygon fill="midnightblue" stroke="midnightblue" points="1092.07,-392.86 1087.62,-402.48 1097.1,-397.74 1092.07,-392.86"/>
</g>
<!-- Node35&#45;&gt;Node31 -->
<g id="edge50" class="edge">
<title>Node35&#45;&gt;Node31</title>
<path fill="none" stroke="midnightblue" d="M1133.48,-399.85C1172.61,-389.25 1222.73,-375.68 1259.9,-365.61"/>
<polygon fill="midnightblue" stroke="midnightblue" points="1132.52,-396.48 1123.78,-402.48 1134.35,-403.24 1132.52,-396.48"/>
</g>
<!-- Node35&#45;&gt;Node33 -->
<g id="edge51" class="edge">
<title>Node35&#45;&gt;Node33</title>
<path fill="none" stroke="midnightblue" d="M1014.21,-399.58C978.15,-389.02 932.28,-375.59 898.19,-365.61"/>
<polygon fill="midnightblue" stroke="midnightblue" points="1013.52,-403.02 1024.1,-402.48 1015.49,-396.31 1013.52,-403.02"/>
</g>
<!-- Node36 -->
<g id="node36" class="node">
<title>Node36</title>
<g id="a_node36"><a xlink:href="renderpass_8cpp.html" target="_top" xlink:title=" ">
<polygon fill="none" stroke="black" points="951.5,-335.5 951.5,-365.5 1106.5,-365.5 1106.5,-335.5 951.5,-335.5"/>
<text text-anchor="start" x="959.5" y="-353.5" font-family="Helvetica,sans-Serif" font-size="10.00">/github/workspace/src</text>
<text text-anchor="middle" x="1029" y="-342.5" font-family="Helvetica,sans-Serif" font-size="10.00">/renderer/vulkan/renderpass.cpp</text>
</a>
</g>
</g>
<!-- Node35&#45;&gt;Node36 -->
<g id="edge52" class="edge">
<title>Node35&#45;&gt;Node36</title>
<path fill="none" stroke="midnightblue" d="M1057.03,-393.87C1050.8,-384.46 1043.77,-373.83 1038.31,-365.58"/>
<polygon fill="midnightblue" stroke="midnightblue" points="1054.23,-395.99 1062.67,-402.4 1060.07,-392.12 1054.23,-395.99"/>
</g>
</g>
</svg>
        <g id="navigator" transform="translate(0 0)" fill="#404254">
                <rect fill="#f2f5e9" fill-opacity="0.5" stroke="#606060" stroke-width=".5" x="0" y="0" width="60" height="60"/>
                <use id="zoomplus" xlink:href="#zoomPlus" x="17" y="9" onmousedown="handleZoom(evt,'in')"/>
                <use id="zoomminus" xlink:href="#zoomMin" x="42" y="9" onmousedown="handleZoom(evt,'out')"/>
                <use id="reset" xlink:href="#resetDef" x="30" y="36" onmousedown="handleReset()"/>
                <g id="arrowUp" xlink:href="#dirArrow" transform="translate(30 24)" onmousedown="handlePan(0,-1)">
                  <use xlink:href="#rim" fill="#404040">
                        <set attributeName="fill" to="#808080" begin="arrowUp.mouseover" end="arrowUp.mouseout"/>
                  </use>
                  <path fill="none" stroke="white" stroke-width="1.5" d="M0,-3.0v7 M-2.5,-0.5L0,-3.0L2.5,-0.5"/>
                </g>
                <g id="arrowRight" xlink:href="#dirArrow" transform="rotate(90) translate(36 -43)" onmousedown="handlePan(1,0)">
                  <use xlink:href="#rim" fill="#404040">
                        <set attributeName="fill" to="#808080" begin="arrowRight.mouseover" end="arrowRight.mouseout"/>
                  </use>
                  <path fill="none" stroke="white" stroke-width="1.5" d="M0,-3.0v7 M-2.5,-0.5L0,-3.0L2.5,-0.5"/>
                </g>
                <g id="arrowDown" xlink:href="#dirArrow" transform="rotate(180) translate(-30 -48)" onmousedown="handlePan(0,1)">
                  <use xlink:href="#rim" fill="#404040">
                        <set attributeName="fill" to="#808080" begin="arrowDown.mouseover" end="arrowDown.mouseout"/>
                  </use>
                  <path fill="none" stroke="white" stroke-width="1.5" d="M0,-3.0v7 M-2.5,-0.5L0,-3.0L2.5,-0.5"/>
                </g>
                <g id="arrowLeft" xlink:href="#dirArrow" transform="rotate(270) translate(-36 17)" onmousedown="handlePan(-1,0)">
                  <use xlink:href="#rim" fill="#404040">
                        <set attributeName="fill" to="#808080" begin="arrowLeft.mouseover" end="arrowLeft.mouseout"/>
                  </use>
                  <path fill="none" stroke="white" stroke-width="1.5" d="M0,-3.0v7 M-2.5,-0.5L0,-3.0L2.5,-0.5"/>
                </g>
        </g>
        <svg viewBox="0 0 15 15" width="100%" height="30px" preserveAspectRatio="xMaxYMin meet">
         <g id="arrow_out" transform="scale(0.3 0.3)">
          <a xlink:href="descriptorpool_8h__dep__incl_org.svg" target="_base">
           <rect id="button" ry="5" rx="5" y="6" x="6" height="38" width="38"
                fill="#f2f5e9" fill-opacity="0.5" stroke="#606060" stroke-width="1.0"/>
           <path id="arrow"
             d="M 11.500037,31.436501 C 11.940474,20.09759 22.043105,11.32322 32.158766,21.979434 L 37.068811,17.246167 C 37.068811,17.246167 37.088388,32 37.088388,32 L 22.160133,31.978069 C 22.160133,31.978069 26.997745,27.140456 26.997745,27.140456 C 18.528582,18.264221 13.291696,25.230495 11.500037,31.436501 z"
             style="fill:#404040;"/>
          </a>
         </g>
        </svg>
</svg>
