<?xml version="1.0" encoding="UTF-8" standalone="no"?>
<!DOCTYPE svg PUBLIC "-//W3C//DTD SVG 1.1//EN"
 "http://www.w3.org/Graphics/SVG/1.1/DTD/svg11.dtd">
<!-- Generated by graphviz version 2.49.3 (20211215.1918)
 -->
<!-- Title: /github/workspace/src/renderer/vulkan/device.cpp Pages: 1 -->
<!--zoomable 375 -->
<svg id="main" version="1.1" xmlns="http://www.w3.org/2000/svg" xmlns:xlink="http://www.w3.org/1999/xlink" xml:space="preserve" onload="init(evt)">
<style type="text/css"><![CDATA[
.edge:hover path { stroke: red; }
.edge:hover polygon { stroke: red; fill: red; }
]]></style>
<script type="text/javascript"><![CDATA[
var edges = document.getElementsByTagName('g');
if (edges && edges.length) {
  for (var i=0;i<edges.length;i++) {
    if (edges[i].id.substr(0,4)=='edge') {
      edges[i].setAttribute('class','edge');
    }
  }
}
]]></script>
        <defs>
                <circle id="rim" cx="0" cy="0" r="7"/>
                <circle id="rim2" cx="0" cy="0" r="3.5"/>
                <g id="zoomPlus">
                        <use xlink:href="#rim" fill="#404040">
                                <set attributeName="fill" to="#808080" begin="zoomplus.mouseover" end="zoomplus.mouseout"/>
                        </use>
                        <path d="M-4,0h8M0,-4v8" fill="none" stroke="white" stroke-width="1.5" pointer-events="none"/>
                </g>
                <g id="zoomMin">
                        <use xlink:href="#rim" fill="#404040">
                                <set attributeName="fill" to="#808080" begin="zoomminus.mouseover" end="zoomminus.mouseout"/>
                        </use>
                        <path d="M-4,0h8" fill="none" stroke="white" stroke-width="1.5" pointer-events="none"/>
                </g>
                <g id="dirArrow">
                        <path fill="none" stroke="white" stroke-width="1.5" d="M0,-3.0v7 M-2.5,-0.5L0,-3.0L2.5,-0.5"/>
                </g>
               <g id="resetDef">
                       <use xlink:href="#rim2" fill="#404040">
                               <set attributeName="fill" to="#808080" begin="reset.mouseover" end="reset.mouseout"/>
                       </use>
               </g>
        </defs>

<script type="text/javascript">
var viewWidth = 1281;
var viewHeight = 375;
var sectionId = 'dynsection-0';
</script>
<script xlink:href="svgpan.js"/>
<svg id="graph" class="graph">
<g id="viewport">
<title>/github/workspace/src/renderer/vulkan/device.cpp</title>
<!-- Node1 -->
<g id="node1" class="node">
<title>Node1</title>
<g id="a_node1"><a xlink:title=" ">
<polygon fill="#bfbfbf" stroke="black" points="877,-336.5 877,-366.5 1013,-366.5 1013,-336.5 877,-336.5"/>
<text text-anchor="start" x="885" y="-354.5" font-family="Helvetica,sans-Serif" font-size="10.00">/github/workspace/src</text>
<text text-anchor="middle" x="945" y="-343.5" font-family="Helvetica,sans-Serif" font-size="10.00">/renderer/vulkan/device.cpp</text>
</a>
</g>
</g>
<!-- Node2 -->
<g id="node2" class="node">
<title>Node2</title>
<g id="a_node2"><a xlink:title=" ">
<polygon fill="none" stroke="#bfbfbf" points="1061,-112.5 1061,-131.5 1169,-131.5 1169,-112.5 1061,-112.5"/>
<text text-anchor="middle" x="1115" y="-119.5" font-family="Helvetica,sans-Serif" font-size="10.00">vulkan/vulkan_core.h</text>
</a>
</g>
</g>
<!-- Node1&#45;&gt;Node2 -->
<g id="edge1" class="edge">
<title>Node1&#45;&gt;Node2</title>
<path fill="none" stroke="midnightblue" d="M955.63,-336.27C985.49,-296.31 1070.02,-183.19 1102.28,-140.02"/>
<polygon fill="midnightblue" stroke="midnightblue" points="1105.15,-142.03 1108.33,-131.93 1099.54,-137.84 1105.15,-142.03"/>
</g>
<!-- Node3 -->
<g id="node3" class="node">
<title>Node3</title>
<g id="a_node3"><a xlink:href="device_8h.html" target="_top" xlink:title=" ">
<polygon fill="none" stroke="black" points="553.5,-280.5 553.5,-299.5 606.5,-299.5 606.5,-280.5 553.5,-280.5"/>
<text text-anchor="middle" x="580" y="-287.5" font-family="Helvetica,sans-Serif" font-size="10.00">device.h</text>
</a>
</g>
</g>
<!-- Node1&#45;&gt;Node3 -->
<g id="edge2" class="edge">
<title>Node1&#45;&gt;Node3</title>
<path fill="none" stroke="midnightblue" d="M876.77,-339.38C799.73,-326.82 677.22,-306.85 616.53,-296.96"/>
<polygon fill="midnightblue" stroke="midnightblue" points="617.07,-293.5 606.64,-295.34 615.95,-300.41 617.07,-293.5"/>
</g>
<!-- Node4 -->
<g id="node4" class="node">
<title>Node4</title>
<g id="a_node4"><a xlink:title=" ">
<polygon fill="none" stroke="#bfbfbf" points="911,-0.5 911,-19.5 995,-19.5 995,-0.5 911,-0.5"/>
<text text-anchor="middle" x="953" y="-7.5" font-family="Helvetica,sans-Serif" font-size="10.00">vulkan/vulkan.h</text>
</a>
</g>
</g>
<!-- Node3&#45;&gt;Node4 -->
<g id="edge3" class="edge">
<title>Node3&#45;&gt;Node4</title>
<path fill="none" stroke="midnightblue" d="M606.9,-287.38C730.15,-279.6 1235,-243.79 1235,-179 1235,-179 1235,-179 1235,-121 1235,-83.16 1212.61,-75.2 1180,-56 1126.13,-24.29 1053.9,-14.5 1005.52,-11.7"/>
<polygon fill="midnightblue" stroke="midnightblue" points="1005.43,-8.19 995.27,-11.19 1005.08,-15.18 1005.43,-8.19"/>
</g>
<!-- Node5 -->
<g id="node5" class="node">
<title>Node5</title>
<g id="a_node5"><a xlink:title=" ">
<polygon fill="none" stroke="#bfbfbf" points="1083.5,-56.5 1083.5,-75.5 1170.5,-75.5 1170.5,-56.5 1083.5,-56.5"/>
<text text-anchor="middle" x="1127" y="-63.5" font-family="Helvetica,sans-Serif" font-size="10.00">vk_mem_alloc.h</text>
</a>
</g>
</g>
<!-- Node3&#45;&gt;Node5 -->
<g id="edge4" class="edge">
<title>Node3&#45;&gt;Node5</title>
<path fill="none" stroke="midnightblue" d="M606.78,-286.23C713.42,-274.57 1105.64,-225.81 1178,-132 1191.6,-114.37 1169.96,-94.22 1150.81,-81.09"/>
<polygon fill="midnightblue" stroke="midnightblue" points="1152.62,-78.09 1142.32,-75.59 1148.81,-83.96 1152.62,-78.09"/>
</g>
<!-- Node6 -->
<g id="node6" class="node">
<title>Node6</title>
<g id="a_node6"><a xlink:title=" ">
<polygon fill="none" stroke="#bfbfbf" points="258,-0.5 258,-19.5 302,-19.5 302,-0.5 258,-0.5"/>
<text text-anchor="middle" x="280" y="-7.5" font-family="Helvetica,sans-Serif" font-size="10.00">vector</text>
</a>
</g>
</g>
<!-- Node3&#45;&gt;Node6 -->
<g id="edge5" class="edge">
<title>Node3&#45;&gt;Node6</title>
<path fill="none" stroke="midnightblue" d="M553.49,-289.34C444.67,-290.02 38,-285.46 38,-179 38,-179 38,-179 38,-121 38,-66.49 92.61,-79.06 142,-56 161.01,-47.12 213.7,-30.75 248.2,-20.39"/>
<polygon fill="midnightblue" stroke="midnightblue" points="249.25,-23.73 257.83,-17.51 247.25,-17.02 249.25,-23.73"/>
</g>
<!-- Node7 -->
<g id="node7" class="node">
<title>Node7</title>
<g id="a_node7"><a xlink:title=" ">
<polygon fill="none" stroke="#bfbfbf" points="340.5,-56.5 340.5,-75.5 399.5,-75.5 399.5,-56.5 340.5,-56.5"/>
<text text-anchor="middle" x="370" y="-63.5" font-family="Helvetica,sans-Serif" font-size="10.00">stdexcept</text>
</a>
</g>
</g>
<!-- Node3&#45;&gt;Node7 -->
<g id="edge6" class="edge">
<title>Node3&#45;&gt;Node7</title>
<path fill="none" stroke="midnightblue" d="M553.34,-287.48C464.56,-281.8 181.82,-258.34 133,-188 81,-113.09 250.09,-81.76 330.24,-71.34"/>
<polygon fill="midnightblue" stroke="midnightblue" points="330.98,-74.78 340.47,-70.06 330.11,-67.83 330.98,-74.78"/>
</g>
<!-- Node8 -->
<g id="node8" class="node">
<title>Node8</title>
<g id="a_node8"><a xlink:title=" ">
<polygon fill="none" stroke="#bfbfbf" points="158.5,-56.5 158.5,-75.5 199.5,-75.5 199.5,-56.5 158.5,-56.5"/>
<text text-anchor="middle" x="179" y="-63.5" font-family="Helvetica,sans-Serif" font-size="10.00">string</text>
</a>
</g>
</g>
<!-- Node3&#45;&gt;Node8 -->
<g id="edge7" class="edge">
<title>Node3&#45;&gt;Node8</title>
<path fill="none" stroke="midnightblue" d="M553.34,-288.13C475.31,-285.24 248.68,-274.39 182,-244 148.51,-228.74 135.81,-221.69 121,-188 117.42,-179.86 119.99,-176.83 121,-168 123.91,-142.62 121.6,-134.34 134,-112 140.32,-100.61 150.37,-90.17 159.36,-82.21"/>
<polygon fill="midnightblue" stroke="midnightblue" points="161.78,-84.76 167.19,-75.65 157.28,-79.39 161.78,-84.76"/>
</g>
<!-- Node9 -->
<g id="node9" class="node">
<title>Node9</title>
<g id="a_node9"><a xlink:title=" ">
<polygon fill="none" stroke="#bfbfbf" points="142,-168.5 142,-187.5 172,-187.5 172,-168.5 142,-168.5"/>
<text text-anchor="middle" x="157" y="-175.5" font-family="Helvetica,sans-Serif" font-size="10.00">set</text>
</a>
</g>
</g>
<!-- Node3&#45;&gt;Node9 -->
<g id="edge8" class="edge">
<title>Node3&#45;&gt;Node9</title>
<path fill="none" stroke="midnightblue" d="M553.39,-284.46C511.82,-277.16 429.08,-261.82 360,-244 282.28,-223.95 261.36,-215.71 181.67,-188.12"/>
<polygon fill="midnightblue" stroke="midnightblue" points="182.78,-184.8 172.19,-184.84 180.5,-191.42 182.78,-184.8"/>
</g>
<!-- Node10 -->
<g id="node10" class="node">
<title>Node10</title>
<g id="a_node10"><a xlink:title=" ">
<polygon fill="none" stroke="#bfbfbf" points="1131,-0.5 1131,-19.5 1177,-19.5 1177,-0.5 1131,-0.5"/>
<text text-anchor="middle" x="1154" y="-7.5" font-family="Helvetica,sans-Serif" font-size="10.00">cstring</text>
</a>
</g>
</g>
<!-- Node3&#45;&gt;Node10 -->
<g id="edge9" class="edge">
<title>Node3&#45;&gt;Node10</title>
<path fill="none" stroke="midnightblue" d="M606.51,-289.56C685.05,-290.61 922.9,-289.53 1113,-244 1187.64,-226.12 1273,-255.76 1273,-179 1273,-179 1273,-179 1273,-121 1273,-73.3 1220.8,-40.53 1185.54,-23.84"/>
<polygon fill="midnightblue" stroke="midnightblue" points="1186.66,-20.5 1176.1,-19.56 1183.77,-26.88 1186.66,-20.5"/>
</g>
<!-- Node11 -->
<g id="node11" class="node">
<title>Node11</title>
<g id="a_node11"><a xlink:title=" ">
<polygon fill="none" stroke="#bfbfbf" points="186,-0.5 186,-19.5 240,-19.5 240,-0.5 186,-0.5"/>
<text text-anchor="middle" x="213" y="-7.5" font-family="Helvetica,sans-Serif" font-size="10.00">iostream</text>
</a>
</g>
</g>
<!-- Node3&#45;&gt;Node11 -->
<g id="edge10" class="edge">
<title>Node3&#45;&gt;Node11</title>
<path fill="none" stroke="midnightblue" d="M553.41,-288.85C461.74,-288 159.75,-282.28 72,-244 32.49,-226.76 0,-222.11 0,-179 0,-179 0,-179 0,-121 0,-42.9 114.44,-20.19 175.55,-13.64"/>
<polygon fill="midnightblue" stroke="midnightblue" points="175.98,-17.11 185.59,-12.65 175.3,-10.14 175.98,-17.11"/>
</g>
<!-- Node12 -->
<g id="node12" class="node">
<title>Node12</title>
<g id="a_node12"><a xlink:title=" ">
<polygon fill="none" stroke="#bfbfbf" points="608.5,-112.5 608.5,-131.5 649.5,-131.5 649.5,-112.5 608.5,-112.5"/>
<text text-anchor="middle" x="629" y="-119.5" font-family="Helvetica,sans-Serif" font-size="10.00">bitset</text>
</a>
</g>
</g>
<!-- Node3&#45;&gt;Node12 -->
<g id="edge11" class="edge">
<title>Node3&#45;&gt;Node12</title>
<path fill="none" stroke="midnightblue" d="M582.74,-280.39C585.6,-271.34 590.19,-256.7 594,-244 604.91,-207.66 617.11,-164.99 623.84,-141.27"/>
<polygon fill="midnightblue" stroke="midnightblue" points="627.24,-142.1 626.6,-131.53 620.51,-140.19 627.24,-142.1"/>
</g>
<!-- Node13 -->
<g id="node13" class="node">
<title>Node13</title>
<g id="a_node13"><a xlink:title=" ">
<polygon fill="none" stroke="#bfbfbf" points="189.5,-168.5 189.5,-187.5 240.5,-187.5 240.5,-168.5 189.5,-168.5"/>
<text text-anchor="middle" x="215" y="-175.5" font-family="Helvetica,sans-Serif" font-size="10.00">memory</text>
</a>
</g>
</g>
<!-- Node3&#45;&gt;Node13 -->
<g id="edge12" class="edge">
<title>Node3&#45;&gt;Node13</title>
<path fill="none" stroke="midnightblue" d="M553.46,-281C488.9,-261.55 323.66,-211.75 250.63,-189.74"/>
<polygon fill="midnightblue" stroke="midnightblue" points="251.54,-186.36 240.96,-186.82 249.52,-193.06 251.54,-186.36"/>
</g>
<!-- Node14 -->
<g id="node14" class="node">
<title>Node14</title>
<g id="a_node14"><a xlink:href="physicaldevice_8h.html" target="_top" xlink:title=" ">
<polygon fill="none" stroke="black" points="451,-224.5 451,-243.5 539,-243.5 539,-224.5 451,-224.5"/>
<text text-anchor="middle" x="495" y="-231.5" font-family="Helvetica,sans-Serif" font-size="10.00">physicaldevice.h</text>
</a>
</g>
</g>
<!-- Node3&#45;&gt;Node14 -->
<g id="edge13" class="edge">
<title>Node3&#45;&gt;Node14</title>
<path fill="none" stroke="midnightblue" d="M566.34,-280.32C553.08,-271.9 532.73,-258.97 517.15,-249.07"/>
<polygon fill="midnightblue" stroke="midnightblue" points="518.94,-246.06 508.62,-243.65 515.19,-251.97 518.94,-246.06"/>
</g>
<!-- Node18 -->
<g id="node18" class="node">
<title>Node18</title>
<g id="a_node18"><a xlink:href="instance_8h.html" target="_top" xlink:title=" ">
<polygon fill="none" stroke="black" points="464.5,-56.5 464.5,-75.5 525.5,-75.5 525.5,-56.5 464.5,-56.5"/>
<text text-anchor="middle" x="495" y="-63.5" font-family="Helvetica,sans-Serif" font-size="10.00">instance.h</text>
</a>
</g>
</g>
<!-- Node3&#45;&gt;Node18 -->
<g id="edge56" class="edge">
<title>Node3&#45;&gt;Node18</title>
<path fill="none" stroke="midnightblue" d="M577.43,-280.37C569.63,-254.44 545.05,-175.15 518,-112 514.07,-102.83 509.09,-92.92 504.77,-84.74"/>
<polygon fill="midnightblue" stroke="midnightblue" points="507.77,-82.93 499.95,-75.79 501.61,-86.26 507.77,-82.93"/>
</g>
<!-- Node14&#45;&gt;Node2 -->
<g id="edge14" class="edge">
<title>Node14&#45;&gt;Node2</title>
<path fill="none" stroke="midnightblue" d="M539.06,-225.56C591.14,-216.74 680.42,-201.53 757,-188 863.87,-169.12 988.53,-146.31 1058.98,-133.34"/>
<polygon fill="midnightblue" stroke="midnightblue" points="1059.77,-136.76 1068.97,-131.5 1058.5,-129.87 1059.77,-136.76"/>
</g>
<!-- Node14&#45;&gt;Node6 -->
<g id="edge19" class="edge">
<title>Node14&#45;&gt;Node6</title>
<path fill="none" stroke="midnightblue" d="M450.63,-228.2C406.79,-222.4 338.44,-210.49 283,-188 280.29,-186.9 196.18,-133.94 194,-132 170.16,-110.76 159.6,-106.12 149,-76 146.05,-67.62 143.84,-63.23 149,-56 152.01,-51.78 210.5,-32.8 248.29,-20.88"/>
<polygon fill="midnightblue" stroke="midnightblue" points="249.39,-24.2 257.88,-17.86 247.29,-17.52 249.39,-24.2"/>
</g>
<!-- Node14&#45;&gt;Node8 -->
<g id="edge15" class="edge">
<title>Node14&#45;&gt;Node8</title>
<path fill="none" stroke="midnightblue" d="M456.28,-224.44C422.65,-216.53 372.91,-203.64 331,-188 317.5,-182.96 224.43,-141.95 214,-132 200.4,-119.03 190.9,-99.6 185.26,-85.35"/>
<polygon fill="midnightblue" stroke="midnightblue" points="188.43,-83.85 181.7,-75.67 181.86,-86.26 188.43,-83.85"/>
</g>
<!-- Node14&#45;&gt;Node9 -->
<g id="edge16" class="edge">
<title>Node14&#45;&gt;Node9</title>
<path fill="none" stroke="midnightblue" d="M450.99,-229.72C391.62,-224.63 282.65,-212.96 181.81,-187.71"/>
<polygon fill="midnightblue" stroke="midnightblue" points="182.63,-184.3 172.08,-185.22 180.9,-191.09 182.63,-184.3"/>
</g>
<!-- Node14&#45;&gt;Node11 -->
<g id="edge17" class="edge">
<title>Node14&#45;&gt;Node11</title>
<path fill="none" stroke="midnightblue" d="M464.01,-224.45C437.16,-216.54 397.62,-203.65 365,-188 343.93,-177.89 291.84,-149.18 276,-132 247.35,-100.91 228.02,-54.35 218.95,-29.01"/>
<polygon fill="midnightblue" stroke="midnightblue" points="222.26,-27.86 215.69,-19.55 215.64,-30.15 222.26,-27.86"/>
</g>
<!-- Node14&#45;&gt;Node12 -->
<g id="edge18" class="edge">
<title>Node14&#45;&gt;Node12</title>
<path fill="none" stroke="midnightblue" d="M507.4,-224.36C519.91,-215.53 539.65,-201.27 556,-188 575.83,-171.91 597.57,-152.28 612.12,-138.83"/>
<polygon fill="midnightblue" stroke="midnightblue" points="614.85,-141.07 619.79,-131.7 610.08,-135.94 614.85,-141.07"/>
</g>
<!-- Node14&#45;&gt;Node13 -->
<g id="edge20" class="edge">
<title>Node14&#45;&gt;Node13</title>
<path fill="none" stroke="midnightblue" d="M450.67,-225.18C402.44,-216.56 323.09,-202.04 255,-188 253.56,-187.7 252.1,-187.4 250.62,-187.08"/>
<polygon fill="midnightblue" stroke="midnightblue" points="251.31,-183.65 240.79,-184.95 249.82,-190.49 251.31,-183.65"/>
</g>
<!-- Node15 -->
<g id="node15" class="node">
<title>Node15</title>
<g id="a_node15"><a xlink:href="types_8h.html" target="_top" xlink:title=" ">
<polygon fill="none" stroke="black" points="373.5,-168.5 373.5,-187.5 420.5,-187.5 420.5,-168.5 373.5,-168.5"/>
<text text-anchor="middle" x="397" y="-175.5" font-family="Helvetica,sans-Serif" font-size="10.00">types.h</text>
</a>
</g>
</g>
<!-- Node14&#45;&gt;Node15 -->
<g id="edge21" class="edge">
<title>Node14&#45;&gt;Node15</title>
<path fill="none" stroke="midnightblue" d="M479.25,-224.32C463.68,-215.74 439.62,-202.49 421.54,-192.52"/>
<polygon fill="midnightblue" stroke="midnightblue" points="423.15,-189.42 412.71,-187.65 419.78,-195.55 423.15,-189.42"/>
</g>
<!-- Node17 -->
<g id="node17" class="node">
<title>Node17</title>
<g id="a_node17"><a xlink:href="vulkanclass_8h.html" target="_top" xlink:title=" ">
<polygon fill="none" stroke="black" points="915,-56.5 915,-75.5 991,-75.5 991,-56.5 915,-56.5"/>
<text text-anchor="middle" x="953" y="-63.5" font-family="Helvetica,sans-Serif" font-size="10.00">vulkanclass.h</text>
</a>
</g>
</g>
<!-- Node14&#45;&gt;Node17 -->
<g id="edge25" class="edge">
<title>Node14&#45;&gt;Node17</title>
<path fill="none" stroke="midnightblue" d="M499.49,-224.38C511.92,-201.51 549.24,-139.17 600,-112 651.7,-84.33 820.83,-72.95 904.81,-68.92"/>
<polygon fill="midnightblue" stroke="midnightblue" points="905.03,-72.41 914.85,-68.45 904.7,-65.42 905.03,-72.41"/>
</g>
<!-- Node14&#45;&gt;Node18 -->
<g id="edge27" class="edge">
<title>Node14&#45;&gt;Node18</title>
<path fill="none" stroke="midnightblue" d="M491.74,-224.08C487.52,-197.95 487.13,-121.21 490.55,-85.58"/>
<polygon fill="midnightblue" stroke="midnightblue" points="494.03,-85.92 491.8,-75.57 487.09,-85.06 494.03,-85.92"/>
</g>
<!-- Node20 -->
<g id="node20" class="node">
<title>Node20</title>
<g id="a_node20"><a xlink:href="queues_8h.html" target="_top" xlink:title=" ">
<polygon fill="none" stroke="black" points="692,-168.5 692,-187.5 748,-187.5 748,-168.5 692,-168.5"/>
<text text-anchor="middle" x="720" y="-175.5" font-family="Helvetica,sans-Serif" font-size="10.00">queues.h</text>
</a>
</g>
</g>
<!-- Node14&#45;&gt;Node20 -->
<g id="edge34" class="edge">
<title>Node14&#45;&gt;Node20</title>
<path fill="none" stroke="midnightblue" d="M525.56,-224.44C566.29,-214.12 638.02,-196.92 682.13,-186.9"/>
<polygon fill="midnightblue" stroke="midnightblue" points="682.92,-190.31 691.9,-184.7 681.38,-183.49 682.92,-190.31"/>
</g>
<!-- Node15&#45;&gt;Node4 -->
<g id="edge22" class="edge">
<title>Node15&#45;&gt;Node4</title>
<path fill="none" stroke="midnightblue" d="M373.35,-169.67C356.01,-162.92 333.69,-151 323,-132 313.06,-114.32 317.22,-69.54 332,-56 373.49,-17.97 758.56,-12.03 900.65,-11.14"/>
<polygon fill="midnightblue" stroke="midnightblue" points="900.87,-14.64 910.85,-11.09 900.83,-7.64 900.87,-14.64"/>
</g>
<!-- Node15&#45;&gt;Node6 -->
<g id="edge23" class="edge">
<title>Node15&#45;&gt;Node6</title>
<path fill="none" stroke="midnightblue" d="M373.29,-170.18C344.98,-161.52 300.18,-146.03 290,-132 268.01,-101.68 271.73,-55.15 276.06,-29.52"/>
<polygon fill="midnightblue" stroke="midnightblue" points="279.51,-30.12 277.94,-19.64 272.64,-28.81 279.51,-30.12"/>
</g>
<!-- Node16 -->
<g id="node16" class="node">
<title>Node16</title>
<g id="a_node16"><a xlink:title=" ">
<polygon fill="none" stroke="#bfbfbf" points="332,-112.5 332,-131.5 382,-131.5 382,-112.5 332,-112.5"/>
<text text-anchor="middle" x="357" y="-119.5" font-family="Helvetica,sans-Serif" font-size="10.00">optional</text>
</a>
</g>
</g>
<!-- Node15&#45;&gt;Node16 -->
<g id="edge24" class="edge">
<title>Node15&#45;&gt;Node16</title>
<path fill="none" stroke="midnightblue" d="M390.39,-168.08C384.74,-160.46 376.46,-149.26 369.55,-139.94"/>
<polygon fill="midnightblue" stroke="midnightblue" points="372.25,-137.7 363.48,-131.75 366.62,-141.87 372.25,-137.7"/>
</g>
<!-- Node17&#45;&gt;Node4 -->
<g id="edge26" class="edge">
<title>Node17&#45;&gt;Node4</title>
<path fill="none" stroke="midnightblue" d="M953,-56.08C953,-49.01 953,-38.86 953,-29.99"/>
<polygon fill="midnightblue" stroke="midnightblue" points="956.5,-29.75 953,-19.75 949.5,-29.75 956.5,-29.75"/>
</g>
<!-- Node18&#45;&gt;Node4 -->
<g id="edge28" class="edge">
<title>Node18&#45;&gt;Node4</title>
<path fill="none" stroke="midnightblue" d="M525.76,-61.37C602.78,-52.29 804.6,-28.5 900.69,-17.17"/>
<polygon fill="midnightblue" stroke="midnightblue" points="901.24,-20.63 910.76,-15.98 900.42,-13.68 901.24,-20.63"/>
</g>
<!-- Node18&#45;&gt;Node6 -->
<g id="edge30" class="edge">
<title>Node18&#45;&gt;Node6</title>
<path fill="none" stroke="midnightblue" d="M464.2,-57.26C423.73,-47.1 353.03,-29.34 311.99,-19.03"/>
<polygon fill="midnightblue" stroke="midnightblue" points="312.78,-15.62 302.23,-16.58 311.07,-22.41 312.78,-15.62"/>
</g>
<!-- Node18&#45;&gt;Node10 -->
<g id="edge31" class="edge">
<title>Node18&#45;&gt;Node10</title>
<path fill="none" stroke="midnightblue" d="M525.9,-62.47C635.72,-53.47 1006.68,-23.07 1120.51,-13.74"/>
<polygon fill="midnightblue" stroke="midnightblue" points="1121.02,-17.21 1130.7,-12.91 1120.45,-10.24 1121.02,-17.21"/>
</g>
<!-- Node18&#45;&gt;Node11 -->
<g id="edge32" class="edge">
<title>Node18&#45;&gt;Node11</title>
<path fill="none" stroke="midnightblue" d="M464.19,-60.02C419.26,-52.61 332.92,-37.84 249.92,-20.09"/>
<polygon fill="midnightblue" stroke="midnightblue" points="250.6,-16.65 240.08,-17.97 249.12,-23.5 250.6,-16.65"/>
</g>
<!-- Node18&#45;&gt;Node14 -->
<g id="edge33" class="edge">
<title>Node18&#45;&gt;Node14</title>
<path fill="none" stroke="midnightblue" d="M498.2,-75.57C502.45,-101.23 502.88,-177.92 499.5,-213.93"/>
<polygon fill="midnightblue" stroke="midnightblue" points="496,-213.73 498.26,-224.08 502.94,-214.57 496,-213.73"/>
</g>
<!-- Node19 -->
<g id="node19" class="node">
<title>Node19</title>
<g id="a_node19"><a xlink:title=" ">
<polygon fill="none" stroke="#bfbfbf" points="423.5,-0.5 423.5,-19.5 502.5,-19.5 502.5,-0.5 423.5,-0.5"/>
<text text-anchor="middle" x="463" y="-7.5" font-family="Helvetica,sans-Serif" font-size="10.00">GLFW/glfw3.h</text>
</a>
</g>
</g>
<!-- Node18&#45;&gt;Node19 -->
<g id="edge29" class="edge">
<title>Node18&#45;&gt;Node19</title>
<path fill="none" stroke="midnightblue" d="M489.72,-56.08C485.29,-48.61 478.84,-37.72 473.38,-28.52"/>
<polygon fill="midnightblue" stroke="midnightblue" points="476.29,-26.57 468.19,-19.75 470.27,-30.14 476.29,-26.57"/>
</g>
<!-- Node20&#45;&gt;Node2 -->
<g id="edge35" class="edge">
<title>Node20&#45;&gt;Node2</title>
<path fill="none" stroke="midnightblue" d="M748.43,-173.22C804.26,-165.77 932.4,-148.61 1050.75,-132.17"/>
<polygon fill="midnightblue" stroke="midnightblue" points="1051.28,-135.63 1060.71,-130.78 1050.32,-128.69 1051.28,-135.63"/>
</g>
<!-- Node20&#45;&gt;Node3 -->
<g id="edge44" class="edge">
<title>Node20&#45;&gt;Node3</title>
<path fill="none" stroke="midnightblue" d="M715.16,-187.58C707.2,-201.05 690.21,-227.34 670,-244 653.28,-257.78 631.64,-268.77 613.76,-276.44"/>
<polygon fill="midnightblue" stroke="midnightblue" points="612.19,-273.31 604.28,-280.36 614.86,-279.78 612.19,-273.31"/>
</g>
<!-- Node20&#45;&gt;Node6 -->
<g id="edge36" class="edge">
<title>Node20&#45;&gt;Node6</title>
<path fill="none" stroke="midnightblue" d="M713.74,-168.4C703.54,-154.89 682.16,-128.56 659,-112 549.37,-33.62 382.73,-16.07 312.75,-12.13"/>
<polygon fill="midnightblue" stroke="midnightblue" points="312.54,-8.62 302.37,-11.61 312.18,-15.61 312.54,-8.62"/>
</g>
<!-- Node20&#45;&gt;Node12 -->
<g id="edge40" class="edge">
<title>Node20&#45;&gt;Node12</title>
<path fill="none" stroke="midnightblue" d="M705.38,-168.32C691.05,-159.82 668.99,-146.73 652.25,-136.8"/>
<polygon fill="midnightblue" stroke="midnightblue" points="653.97,-133.75 643.58,-131.65 650.4,-139.77 653.97,-133.75"/>
</g>
<!-- Node20&#45;&gt;Node14 -->
<g id="edge45" class="edge">
<title>Node20&#45;&gt;Node14</title>
<path fill="none" stroke="midnightblue" d="M691.68,-186.99C655,-196.31 590.75,-211.78 545.63,-222.18"/>
<polygon fill="midnightblue" stroke="midnightblue" points="544.71,-218.8 535.74,-224.44 546.27,-225.62 544.71,-218.8"/>
</g>
<!-- Node20&#45;&gt;Node16 -->
<g id="edge39" class="edge">
<title>Node20&#45;&gt;Node16</title>
<path fill="none" stroke="midnightblue" d="M691.74,-174.23C634.72,-168.41 501.98,-153.61 392,-132 391.9,-131.98 391.8,-131.96 391.7,-131.94"/>
<polygon fill="midnightblue" stroke="midnightblue" points="392.67,-128.57 382.16,-129.84 391.17,-135.41 392.67,-128.57"/>
</g>
<!-- Node20&#45;&gt;Node17 -->
<g id="edge43" class="edge">
<title>Node20&#45;&gt;Node17</title>
<path fill="none" stroke="midnightblue" d="M748.22,-175.56C803.26,-172.13 921.87,-161.41 948,-132 958.91,-119.72 959.06,-100.46 957.14,-86.09"/>
<polygon fill="midnightblue" stroke="midnightblue" points="960.51,-85.07 955.32,-75.84 953.62,-86.3 960.51,-85.07"/>
</g>
<!-- Node21 -->
<g id="node21" class="node">
<title>Node21</title>
<g id="a_node21"><a xlink:title=" ">
<polygon fill="none" stroke="#bfbfbf" points="829.5,-112.5 829.5,-131.5 864.5,-131.5 864.5,-112.5 829.5,-112.5"/>
<text text-anchor="middle" x="847" y="-119.5" font-family="Helvetica,sans-Serif" font-size="10.00">map</text>
</a>
</g>
</g>
<!-- Node20&#45;&gt;Node21 -->
<g id="edge37" class="edge">
<title>Node20&#45;&gt;Node21</title>
<path fill="none" stroke="midnightblue" d="M740.12,-168.44C761.76,-159.24 796.27,-144.57 820.2,-134.4"/>
<polygon fill="midnightblue" stroke="midnightblue" points="821.59,-137.61 829.42,-130.47 818.85,-131.17 821.59,-137.61"/>
</g>
<!-- Node22 -->
<g id="node22" class="node">
<title>Node22</title>
<g id="a_node22"><a xlink:title=" ">
<polygon fill="none" stroke="#bfbfbf" points="883,-112.5 883,-131.5 939,-131.5 939,-112.5 883,-112.5"/>
<text text-anchor="middle" x="911" y="-119.5" font-family="Helvetica,sans-Serif" font-size="10.00">algorithm</text>
</a>
</g>
</g>
<!-- Node20&#45;&gt;Node22 -->
<g id="edge38" class="edge">
<title>Node20&#45;&gt;Node22</title>
<path fill="none" stroke="midnightblue" d="M748.18,-169.03C781.19,-159.7 836.03,-144.2 872.83,-133.79"/>
<polygon fill="midnightblue" stroke="midnightblue" points="874.03,-137.09 882.7,-131 872.13,-130.35 874.03,-137.09"/>
</g>
<!-- Node23 -->
<g id="node23" class="node">
<title>Node23</title>
<g id="a_node23"><a xlink:title=" ">
<polygon fill="none" stroke="#bfbfbf" points="706,-112.5 706,-131.5 750,-131.5 750,-112.5 706,-112.5"/>
<text text-anchor="middle" x="728" y="-119.5" font-family="Helvetica,sans-Serif" font-size="10.00">thread</text>
</a>
</g>
</g>
<!-- Node20&#45;&gt;Node23 -->
<g id="edge41" class="edge">
<title>Node20&#45;&gt;Node23</title>
<path fill="none" stroke="midnightblue" d="M721.32,-168.08C722.38,-160.93 723.91,-150.64 725.23,-141.69"/>
<polygon fill="midnightblue" stroke="midnightblue" points="728.7,-142.16 726.7,-131.75 721.78,-141.13 728.7,-142.16"/>
</g>
<!-- Node24 -->
<g id="node24" class="node">
<title>Node24</title>
<g id="a_node24"><a xlink:title=" ">
<polygon fill="none" stroke="#bfbfbf" points="768.5,-112.5 768.5,-131.5 811.5,-131.5 811.5,-112.5 768.5,-112.5"/>
<text text-anchor="middle" x="790" y="-119.5" font-family="Helvetica,sans-Serif" font-size="10.00">mutex</text>
</a>
</g>
</g>
<!-- Node20&#45;&gt;Node24 -->
<g id="edge42" class="edge">
<title>Node20&#45;&gt;Node24</title>
<path fill="none" stroke="midnightblue" d="M731.25,-168.32C741.8,-160.18 757.8,-147.84 770.44,-138.09"/>
<polygon fill="midnightblue" stroke="midnightblue" points="772.77,-140.71 778.55,-131.83 768.49,-135.17 772.77,-140.71"/>
</g>
<!-- Node25 -->
<g id="node25" class="node">
<title>Node25</title>
<g id="a_node25"><a xlink:href="window_8h.html" target="_top" xlink:title=" ">
<polygon fill="none" stroke="black" points="400.5,-112.5 400.5,-131.5 457.5,-131.5 457.5,-112.5 400.5,-112.5"/>
<text text-anchor="middle" x="429" y="-119.5" font-family="Helvetica,sans-Serif" font-size="10.00">window.h</text>
</a>
</g>
</g>
<!-- Node20&#45;&gt;Node25 -->
<g id="edge46" class="edge">
<title>Node20&#45;&gt;Node25</title>
<path fill="none" stroke="midnightblue" d="M691.83,-171.77C639.49,-162.06 527.16,-141.22 467.72,-130.19"/>
<polygon fill="midnightblue" stroke="midnightblue" points="468.08,-126.69 457.61,-128.31 466.81,-133.58 468.08,-126.69"/>
</g>
<!-- Node26 -->
<g id="node26" class="node">
<title>Node26</title>
<g id="a_node26"><a xlink:href="fence_8h.html" target="_top" xlink:title=" ">
<polygon fill="none" stroke="black" points="995,-112.5 995,-131.5 1043,-131.5 1043,-112.5 995,-112.5"/>
<text text-anchor="middle" x="1019" y="-119.5" font-family="Helvetica,sans-Serif" font-size="10.00">fence.h</text>
</a>
</g>
</g>
<!-- Node20&#45;&gt;Node26 -->
<g id="edge51" class="edge">
<title>Node20&#45;&gt;Node26</title>
<path fill="none" stroke="midnightblue" d="M748.3,-172.71C796.32,-165.29 896.76,-149.22 981,-132 982.27,-131.74 983.56,-131.47 984.87,-131.19"/>
<polygon fill="midnightblue" stroke="midnightblue" points="985.93,-134.54 994.93,-128.94 984.4,-127.71 985.93,-134.54"/>
</g>
<!-- Node25&#45;&gt;Node7 -->
<g id="edge49" class="edge">
<title>Node25&#45;&gt;Node7</title>
<path fill="none" stroke="midnightblue" d="M419.52,-112.32C410.8,-104.34 397.66,-92.31 387.1,-82.65"/>
<polygon fill="midnightblue" stroke="midnightblue" points="389.39,-80 379.65,-75.83 384.67,-85.17 389.39,-80"/>
</g>
<!-- Node25&#45;&gt;Node8 -->
<g id="edge48" class="edge">
<title>Node25&#45;&gt;Node8</title>
<path fill="none" stroke="midnightblue" d="M400.38,-114.15C397.22,-113.41 394.04,-112.68 391,-112 326.5,-97.52 250.67,-81.72 209.45,-73.23"/>
<polygon fill="midnightblue" stroke="midnightblue" points="210,-69.77 199.5,-71.19 208.59,-76.63 210,-69.77"/>
</g>
<!-- Node25&#45;&gt;Node18 -->
<g id="edge50" class="edge">
<title>Node25&#45;&gt;Node18</title>
<path fill="none" stroke="midnightblue" d="M439.6,-112.32C449.46,-104.26 464.35,-92.08 476.22,-82.37"/>
<polygon fill="midnightblue" stroke="midnightblue" points="478.68,-84.88 484.2,-75.83 474.25,-79.46 478.68,-84.88"/>
</g>
<!-- Node25&#45;&gt;Node19 -->
<g id="edge47" class="edge">
<title>Node25&#45;&gt;Node19</title>
<path fill="none" stroke="midnightblue" d="M431.67,-112.37C437.18,-94.54 449.93,-53.3 457.35,-29.27"/>
<polygon fill="midnightblue" stroke="midnightblue" points="460.74,-30.18 460.34,-19.59 454.05,-28.11 460.74,-30.18"/>
</g>
<!-- Node26&#45;&gt;Node3 -->
<g id="edge55" class="edge">
<title>Node26&#45;&gt;Node3</title>
<path fill="none" stroke="midnightblue" d="M996.46,-131.52C924.02,-158.92 696.98,-244.77 612.28,-276.79"/>
<polygon fill="midnightblue" stroke="midnightblue" points="610.79,-273.61 602.68,-280.42 613.27,-280.16 610.79,-273.61"/>
</g>
<!-- Node26&#45;&gt;Node4 -->
<g id="edge52" class="edge">
<title>Node26&#45;&gt;Node4</title>
<path fill="none" stroke="midnightblue" d="M1017.94,-112.43C1016.02,-99.43 1011.11,-74.29 1000,-56 993.02,-44.5 982.36,-33.96 972.95,-25.97"/>
<polygon fill="midnightblue" stroke="midnightblue" points="975.11,-23.22 965.14,-19.66 970.71,-28.67 975.11,-23.22"/>
</g>
<!-- Node26&#45;&gt;Node5 -->
<g id="edge53" class="edge">
<title>Node26&#45;&gt;Node5</title>
<path fill="none" stroke="midnightblue" d="M1036.35,-112.32C1053.67,-103.66 1080.52,-90.24 1100.5,-80.25"/>
<polygon fill="midnightblue" stroke="midnightblue" points="1102.31,-83.26 1109.69,-75.65 1099.18,-77 1102.31,-83.26"/>
</g>
<!-- Node26&#45;&gt;Node17 -->
<g id="edge54" class="edge">
<title>Node26&#45;&gt;Node17</title>
<path fill="none" stroke="midnightblue" d="M1008.4,-112.32C998.54,-104.26 983.65,-92.08 971.78,-82.37"/>
<polygon fill="midnightblue" stroke="midnightblue" points="973.75,-79.46 963.8,-75.83 969.32,-84.88 973.75,-79.46"/>
</g>
</g>
</svg>
        <g id="navigator" transform="translate(0 0)" fill="#404254">
                <rect fill="#f2f5e9" fill-opacity="0.5" stroke="#606060" stroke-width=".5" x="0" y="0" width="60" height="60"/>
                <use id="zoomplus" xlink:href="#zoomPlus" x="17" y="9" onmousedown="handleZoom(evt,'in')"/>
                <use id="zoomminus" xlink:href="#zoomMin" x="42" y="9" onmousedown="handleZoom(evt,'out')"/>
                <use id="reset" xlink:href="#resetDef" x="30" y="36" onmousedown="handleReset()"/>
                <g id="arrowUp" xlink:href="#dirArrow" transform="translate(30 24)" onmousedown="handlePan(0,-1)">
                  <use xlink:href="#rim" fill="#404040">
                        <set attributeName="fill" to="#808080" begin="arrowUp.mouseover" end="arrowUp.mouseout"/>
                  </use>
                  <path fill="none" stroke="white" stroke-width="1.5" d="M0,-3.0v7 M-2.5,-0.5L0,-3.0L2.5,-0.5"/>
                </g>
                <g id="arrowRight" xlink:href="#dirArrow" transform="rotate(90) translate(36 -43)" onmousedown="handlePan(1,0)">
                  <use xlink:href="#rim" fill="#404040">
                        <set attributeName="fill" to="#808080" begin="arrowRight.mouseover" end="arrowRight.mouseout"/>
                  </use>
                  <path fill="none" stroke="white" stroke-width="1.5" d="M0,-3.0v7 M-2.5,-0.5L0,-3.0L2.5,-0.5"/>
                </g>
                <g id="arrowDown" xlink:href="#dirArrow" transform="rotate(180) translate(-30 -48)" onmousedown="handlePan(0,1)">
                  <use xlink:href="#rim" fill="#404040">
                        <set attributeName="fill" to="#808080" begin="arrowDown.mouseover" end="arrowDown.mouseout"/>
                  </use>
                  <path fill="none" stroke="white" stroke-width="1.5" d="M0,-3.0v7 M-2.5,-0.5L0,-3.0L2.5,-0.5"/>
                </g>
                <g id="arrowLeft" xlink:href="#dirArrow" transform="rotate(270) translate(-36 17)" onmousedown="handlePan(-1,0)">
                  <use xlink:href="#rim" fill="#404040">
                        <set attributeName="fill" to="#808080" begin="arrowLeft.mouseover" end="arrowLeft.mouseout"/>
                  </use>
                  <path fill="none" stroke="white" stroke-width="1.5" d="M0,-3.0v7 M-2.5,-0.5L0,-3.0L2.5,-0.5"/>
                </g>
        </g>
        <svg viewBox="0 0 15 15" width="100%" height="30px" preserveAspectRatio="xMaxYMin meet">
         <g id="arrow_out" transform="scale(0.3 0.3)">
          <a xlink:href="device_8cpp__incl_org.svg" target="_base">
           <rect id="button" ry="5" rx="5" y="6" x="6" height="38" width="38"
                fill="#f2f5e9" fill-opacity="0.5" stroke="#606060" stroke-width="1.0"/>
           <path id="arrow"
             d="M 11.500037,31.436501 C 11.940474,20.09759 22.043105,11.32322 32.158766,21.979434 L 37.068811,17.246167 C 37.068811,17.246167 37.088388,32 37.088388,32 L 22.160133,31.978069 C 22.160133,31.978069 26.997745,27.140456 26.997745,27.140456 C 18.528582,18.264221 13.291696,25.230495 11.500037,31.436501 z"
             style="fill:#404040;"/>
          </a>
         </g>
        </svg>
</svg>
