<?xml version="1.0" encoding="UTF-8" standalone="no"?>
<!DOCTYPE svg PUBLIC "-//W3C//DTD SVG 1.1//EN"
 "http://www.w3.org/Graphics/SVG/1.1/DTD/svg11.dtd">
<!-- Generated by graphviz version 2.50.0 (20220203.2022)
 -->
<!-- Title: /github/workspace/src/renderer/dynamicbuffer.h Pages: 1 -->
<!--zoomable 642 -->
<svg id="main" version="1.1" xmlns="http://www.w3.org/2000/svg" xmlns:xlink="http://www.w3.org/1999/xlink" xml:space="preserve" onload="init(evt)">
<style type="text/css"><![CDATA[
.edge:hover path { stroke: red; }
.edge:hover polygon { stroke: red; fill: red; }
]]></style>
<script type="text/javascript"><![CDATA[
var edges = document.getElementsByTagName('g');
if (edges && edges.length) {
  for (var i=0;i<edges.length;i++) {
    if (edges[i].id.substr(0,4)=='edge') {
      edges[i].setAttribute('class','edge');
    }
  }
}
]]></script>
        <defs>
                <circle id="rim" cx="0" cy="0" r="7"/>
                <circle id="rim2" cx="0" cy="0" r="3.5"/>
                <g id="zoomPlus">
                        <use xlink:href="#rim" fill="#404040">
                                <set attributeName="fill" to="#808080" begin="zoomplus.mouseover" end="zoomplus.mouseout"/>
                        </use>
                        <path d="M-4,0h8M0,-4v8" fill="none" stroke="white" stroke-width="1.5" pointer-events="none"/>
                </g>
                <g id="zoomMin">
                        <use xlink:href="#rim" fill="#404040">
                                <set attributeName="fill" to="#808080" begin="zoomminus.mouseover" end="zoomminus.mouseout"/>
                        </use>
                        <path d="M-4,0h8" fill="none" stroke="white" stroke-width="1.5" pointer-events="none"/>
                </g>
                <g id="dirArrow">
                        <path fill="none" stroke="white" stroke-width="1.5" d="M0,-3.0v7 M-2.5,-0.5L0,-3.0L2.5,-0.5"/>
                </g>
               <g id="resetDef">
                       <use xlink:href="#rim2" fill="#404040">
                               <set attributeName="fill" to="#808080" begin="reset.mouseover" end="reset.mouseout"/>
                       </use>
               </g>
        </defs>

<script type="text/javascript">
var viewWidth = 1269;
var viewHeight = 642;
var sectionId = 'dynsection-1';
</script>
<script xlink:href="svgpan.js"/>
<svg id="graph" class="graph">
<g id="viewport">
<title>/github/workspace/src/renderer/dynamicbuffer.h</title>
<!-- Node1 -->
<g id="node1" class="node">
<title>Node1</title>
<g id="a_node1"><a xlink:title=" ">
<polygon fill="#bfbfbf" stroke="black" points="425.5,-603.5 425.5,-633.5 550.5,-633.5 550.5,-603.5 425.5,-603.5"/>
<text text-anchor="start" x="433.5" y="-621.5" font-family="Helvetica,sans-Serif" font-size="10.00">/github/workspace/src</text>
<text text-anchor="middle" x="488" y="-610.5" font-family="Helvetica,sans-Serif" font-size="10.00">/renderer/dynamicbuffer.h</text>
</a>
</g>
</g>
<!-- Node2 -->
<g id="node2" class="node">
<title>Node2</title>
<g id="a_node2"><a xlink:href="dynamicbuffer_8cpp.html" target="_top" xlink:title=" ">
<polygon fill="none" stroke="black" points="271,-536.5 271,-566.5 407,-566.5 407,-536.5 271,-536.5"/>
<text text-anchor="start" x="279" y="-554.5" font-family="Helvetica,sans-Serif" font-size="10.00">/github/workspace/src</text>
<text text-anchor="middle" x="339" y="-543.5" font-family="Helvetica,sans-Serif" font-size="10.00">/renderer/dynamicbuffer.cpp</text>
</a>
</g>
</g>
<!-- Node1&#45;&gt;Node2 -->
<g id="edge1" class="edge">
<title>Node1&#45;&gt;Node2</title>
<path fill="none" stroke="midnightblue" d="M446.21,-599.27C422.48,-588.92 393.22,-576.15 371.27,-566.58"/>
<polygon fill="midnightblue" stroke="midnightblue" points="445.1,-602.61 455.67,-603.4 447.9,-596.19 445.1,-602.61"/>
</g>
<!-- Node3 -->
<g id="node3" class="node">
<title>Node3</title>
<g id="a_node3"><a xlink:href="materiallibrary_8h.html" target="_top" xlink:title=" ">
<polygon fill="none" stroke="black" points="425.5,-536.5 425.5,-566.5 550.5,-566.5 550.5,-536.5 425.5,-536.5"/>
<text text-anchor="start" x="433.5" y="-554.5" font-family="Helvetica,sans-Serif" font-size="10.00">/github/workspace/src</text>
<text text-anchor="middle" x="488" y="-543.5" font-family="Helvetica,sans-Serif" font-size="10.00">/renderer/materiallibrary.h</text>
</a>
</g>
</g>
<!-- Node1&#45;&gt;Node3 -->
<g id="edge2" class="edge">
<title>Node1&#45;&gt;Node3</title>
<path fill="none" stroke="midnightblue" d="M488,-593.11C488,-584.15 488,-574.32 488,-566.58"/>
<polygon fill="midnightblue" stroke="midnightblue" points="484.5,-593.4 488,-603.4 491.5,-593.4 484.5,-593.4"/>
</g>
<!-- Node12 -->
<g id="node12" class="node">
<title>Node12</title>
<g id="a_node12"><a xlink:href="scene_8h.html" target="_top" xlink:title=" ">
<polygon fill="none" stroke="black" points="863.5,-268.5 863.5,-298.5 976.5,-298.5 976.5,-268.5 863.5,-268.5"/>
<text text-anchor="start" x="871.5" y="-286.5" font-family="Helvetica,sans-Serif" font-size="10.00">/github/workspace/src</text>
<text text-anchor="middle" x="920" y="-275.5" font-family="Helvetica,sans-Serif" font-size="10.00">/renderer/scene.h</text>
</a>
</g>
</g>
<!-- Node1&#45;&gt;Node12 -->
<g id="edge52" class="edge">
<title>Node1&#45;&gt;Node12</title>
<path fill="none" stroke="midnightblue" d="M560.95,-609.69C680.98,-594.78 907,-557.2 907,-485.5 907,-485.5 907,-485.5 907,-416.5 907,-373.44 913.94,-322.85 917.68,-298.71"/>
<polygon fill="midnightblue" stroke="midnightblue" points="560.23,-606.25 550.73,-610.93 561.08,-613.2 560.23,-606.25"/>
</g>
<!-- Node4 -->
<g id="node4" class="node">
<title>Node4</title>
<g id="a_node4"><a xlink:href="material_8h.html" target="_top" xlink:title=" ">
<polygon fill="none" stroke="black" points="473.5,-469.5 473.5,-499.5 586.5,-499.5 586.5,-469.5 473.5,-469.5"/>
<text text-anchor="start" x="481.5" y="-487.5" font-family="Helvetica,sans-Serif" font-size="10.00">/github/workspace/src</text>
<text text-anchor="middle" x="530" y="-476.5" font-family="Helvetica,sans-Serif" font-size="10.00">/renderer/material.h</text>
</a>
</g>
</g>
<!-- Node3&#45;&gt;Node4 -->
<g id="edge3" class="edge">
<title>Node3&#45;&gt;Node4</title>
<path fill="none" stroke="midnightblue" d="M496.33,-527.58C501.83,-518.24 508.88,-507.75 515.23,-499.58"/>
<polygon fill="midnightblue" stroke="midnightblue" points="493.23,-525.95 491.43,-536.4 499.35,-529.35 493.23,-525.95"/>
</g>
<!-- Node13 -->
<g id="node13" class="node">
<title>Node13</title>
<g id="a_node13"><a xlink:href="rendermanager_8h.html" target="_top" xlink:title=" ">
<polygon fill="none" stroke="black" points="241,-201.5 241,-231.5 371,-231.5 371,-201.5 241,-201.5"/>
<text text-anchor="start" x="249" y="-219.5" font-family="Helvetica,sans-Serif" font-size="10.00">/github/workspace/src</text>
<text text-anchor="middle" x="306" y="-208.5" font-family="Helvetica,sans-Serif" font-size="10.00">/renderer/rendermanager.h</text>
</a>
</g>
</g>
<!-- Node3&#45;&gt;Node13 -->
<g id="edge51" class="edge">
<title>Node3&#45;&gt;Node13</title>
<path fill="none" stroke="midnightblue" d="M431.06,-533.39C338.11,-504.65 164,-447 164,-418.5 164,-418.5 164,-418.5 164,-349.5 164,-312.31 158.89,-296.32 183,-268 197.89,-250.51 219.78,-238.99 240.99,-231.43"/>
<polygon fill="midnightblue" stroke="midnightblue" points="430.3,-536.82 440.89,-536.42 432.36,-530.13 430.3,-536.82"/>
</g>
<!-- Node31 -->
<g id="node31" class="node">
<title>Node31</title>
<g id="a_node31"><a xlink:href="materiallibrary_8cpp.html" target="_top" xlink:title=" ">
<polygon fill="none" stroke="black" points="0,-469.5 0,-499.5 136,-499.5 136,-469.5 0,-469.5"/>
<text text-anchor="start" x="8" y="-487.5" font-family="Helvetica,sans-Serif" font-size="10.00">/github/workspace/src</text>
<text text-anchor="middle" x="68" y="-476.5" font-family="Helvetica,sans-Serif" font-size="10.00">/renderer/materiallibrary.cpp</text>
</a>
</g>
</g>
<!-- Node3&#45;&gt;Node31 -->
<g id="edge50" class="edge">
<title>Node3&#45;&gt;Node31</title>
<path fill="none" stroke="midnightblue" d="M415.02,-535.91C296.62,-516.32 264.65,-517.89 150,-500 145.57,-499.31 141.01,-498.57 136.42,-497.81"/>
<polygon fill="midnightblue" stroke="midnightblue" points="414.78,-539.41 425.22,-537.61 415.93,-532.51 414.78,-539.41"/>
</g>
<!-- Node4&#45;&gt;Node3 -->
<g id="edge9" class="edge">
<title>Node4&#45;&gt;Node3</title>
<path fill="none" stroke="midnightblue" d="M521.69,-508.39C516.2,-517.73 509.15,-528.22 502.79,-536.4"/>
<polygon fill="midnightblue" stroke="midnightblue" points="524.79,-510.02 526.58,-499.58 518.67,-506.62 524.79,-510.02"/>
</g>
<!-- Node5 -->
<g id="node5" class="node">
<title>Node5</title>
<g id="a_node5"><a xlink:href="mastermaterial_8h.html" target="_top" xlink:title=" ">
<polygon fill="none" stroke="black" points="560,-268.5 560,-298.5 690,-298.5 690,-268.5 560,-268.5"/>
<text text-anchor="start" x="568" y="-286.5" font-family="Helvetica,sans-Serif" font-size="10.00">/github/workspace/src</text>
<text text-anchor="middle" x="625" y="-275.5" font-family="Helvetica,sans-Serif" font-size="10.00">/renderer/mastermaterial.h</text>
</a>
</g>
</g>
<!-- Node4&#45;&gt;Node5 -->
<g id="edge4" class="edge">
<title>Node4&#45;&gt;Node5</title>
<path fill="none" stroke="midnightblue" d="M596.5,-471.24C617.69,-463.85 638.96,-452 652,-433 681.27,-390.35 645.06,-326.51 630.12,-298.51"/>
<polygon fill="midnightblue" stroke="midnightblue" points="595.27,-467.97 586.8,-474.34 597.39,-474.63 595.27,-467.97"/>
</g>
<!-- Node7 -->
<g id="node7" class="node">
<title>Node7</title>
<g id="a_node7"><a xlink:href="material_8cpp.html" target="_top" xlink:title=" ">
<polygon fill="none" stroke="black" points="539.5,-402.5 539.5,-432.5 652.5,-432.5 652.5,-402.5 539.5,-402.5"/>
<text text-anchor="start" x="547.5" y="-420.5" font-family="Helvetica,sans-Serif" font-size="10.00">/github/workspace/src</text>
<text text-anchor="middle" x="596" y="-409.5" font-family="Helvetica,sans-Serif" font-size="10.00">/renderer/material.cpp</text>
</a>
</g>
</g>
<!-- Node4&#45;&gt;Node7 -->
<g id="edge8" class="edge">
<title>Node4&#45;&gt;Node7</title>
<path fill="none" stroke="midnightblue" d="M551.51,-462.31C561.41,-452.56 572.89,-441.26 581.71,-432.58"/>
<polygon fill="midnightblue" stroke="midnightblue" points="548.99,-459.89 544.32,-469.4 553.9,-464.87 548.99,-459.89"/>
</g>
<!-- Node8 -->
<g id="node8" class="node">
<title>Node8</title>
<g id="a_node8"><a xlink:href="mesh_8h.html" target="_top" xlink:title=" ">
<polygon fill="none" stroke="black" points="408.5,-402.5 408.5,-432.5 521.5,-432.5 521.5,-402.5 408.5,-402.5"/>
<text text-anchor="start" x="416.5" y="-420.5" font-family="Helvetica,sans-Serif" font-size="10.00">/github/workspace/src</text>
<text text-anchor="middle" x="465" y="-409.5" font-family="Helvetica,sans-Serif" font-size="10.00">/renderer/mesh.h</text>
</a>
</g>
</g>
<!-- Node4&#45;&gt;Node8 -->
<g id="edge10" class="edge">
<title>Node4&#45;&gt;Node8</title>
<path fill="none" stroke="midnightblue" d="M508.81,-462.31C499.06,-452.56 487.76,-441.26 479.08,-432.58"/>
<polygon fill="midnightblue" stroke="midnightblue" points="506.35,-464.8 515.9,-469.4 511.3,-459.85 506.35,-464.8"/>
</g>
<!-- Node5&#45;&gt;Node3 -->
<g id="edge7" class="edge">
<title>Node5&#45;&gt;Node3</title>
<path fill="none" stroke="midnightblue" d="M549.68,-299.18C494.93,-310.48 428.78,-325.7 419,-335 386.8,-365.64 384.84,-390.86 399,-433 413.51,-476.18 450.87,-516.12 472.29,-536.45"/>
<polygon fill="midnightblue" stroke="midnightblue" points="550.65,-302.56 559.75,-297.12 549.25,-295.7 550.65,-302.56"/>
</g>
<!-- Node5&#45;&gt;Node4 -->
<g id="edge6" class="edge">
<title>Node5&#45;&gt;Node4</title>
<path fill="none" stroke="midnightblue" d="M646.31,-306.49C668.8,-337.33 696.75,-394.01 670,-433 651.66,-459.73 617.02,-472.32 586.7,-478.24"/>
<polygon fill="midnightblue" stroke="midnightblue" points="649.04,-304.3 640.17,-298.51 643.5,-308.57 649.04,-304.3"/>
</g>
<!-- Node6 -->
<g id="node6" class="node">
<title>Node6</title>
<g id="a_node6"><a xlink:href="mastermaterial_8cpp.html" target="_top" xlink:title=" ">
<polygon fill="none" stroke="black" points="619,-201.5 619,-231.5 759,-231.5 759,-201.5 619,-201.5"/>
<text text-anchor="start" x="627" y="-219.5" font-family="Helvetica,sans-Serif" font-size="10.00">/github/workspace/src</text>
<text text-anchor="middle" x="689" y="-208.5" font-family="Helvetica,sans-Serif" font-size="10.00">/renderer/mastermaterial.cpp</text>
</a>
</g>
</g>
<!-- Node5&#45;&gt;Node6 -->
<g id="edge5" class="edge">
<title>Node5&#45;&gt;Node6</title>
<path fill="none" stroke="midnightblue" d="M646.15,-261.02C655.68,-251.34 666.67,-240.17 675.14,-231.58"/>
<polygon fill="midnightblue" stroke="midnightblue" points="643.41,-258.81 638.89,-268.4 648.4,-263.73 643.41,-258.81"/>
</g>
<!-- Node8&#45;&gt;Node5 -->
<g id="edge11" class="edge">
<title>Node8&#45;&gt;Node5</title>
<path fill="none" stroke="midnightblue" d="M501.95,-397.65C517.47,-388.96 535.29,-377.93 550,-366 575.54,-345.29 600.42,-315.88 614.13,-298.64"/>
<polygon fill="midnightblue" stroke="midnightblue" points="500.21,-394.61 493.12,-402.48 503.58,-400.75 500.21,-394.61"/>
</g>
<!-- Node9 -->
<g id="node9" class="node">
<title>Node9</title>
<g id="a_node9"><a xlink:href="mesh_8cpp.html" target="_top" xlink:title=" ">
<polygon fill="none" stroke="black" points="428.5,-335.5 428.5,-365.5 541.5,-365.5 541.5,-335.5 428.5,-335.5"/>
<text text-anchor="start" x="436.5" y="-353.5" font-family="Helvetica,sans-Serif" font-size="10.00">/github/workspace/src</text>
<text text-anchor="middle" x="485" y="-342.5" font-family="Helvetica,sans-Serif" font-size="10.00">/renderer/mesh.cpp</text>
</a>
</g>
</g>
<!-- Node8&#45;&gt;Node9 -->
<g id="edge12" class="edge">
<title>Node8&#45;&gt;Node9</title>
<path fill="none" stroke="midnightblue" d="M472.32,-392.7C475.13,-383.59 478.23,-373.49 480.67,-365.58"/>
<polygon fill="midnightblue" stroke="midnightblue" points="468.94,-391.81 469.34,-402.4 475.63,-393.87 468.94,-391.81"/>
</g>
<!-- Node10 -->
<g id="node10" class="node">
<title>Node10</title>
<g id="a_node10"><a xlink:href="meshinstance_8h.html" target="_top" xlink:title=" ">
<polygon fill="none" stroke="black" points="727,-335.5 727,-365.5 853,-365.5 853,-335.5 727,-335.5"/>
<text text-anchor="start" x="735" y="-353.5" font-family="Helvetica,sans-Serif" font-size="10.00">/github/workspace/src</text>
<text text-anchor="middle" x="790" y="-342.5" font-family="Helvetica,sans-Serif" font-size="10.00">/renderer/meshinstance.h</text>
</a>
</g>
</g>
<!-- Node8&#45;&gt;Node10 -->
<g id="edge13" class="edge">
<title>Node8&#45;&gt;Node10</title>
<path fill="none" stroke="midnightblue" d="M531.87,-401.64C603.95,-386.69 676.51,-372.75 726.86,-363.26"/>
<polygon fill="midnightblue" stroke="midnightblue" points="530.78,-398.29 521.7,-403.75 532.2,-405.14 530.78,-398.29"/>
</g>
<!-- Node27 -->
<g id="node27" class="node">
<title>Node27</title>
<g id="a_node27"><a xlink:href="meshlibrary_8h.html" target="_top" xlink:title=" ">
<polygon fill="none" stroke="black" points="192.5,-268.5 192.5,-298.5 307.5,-298.5 307.5,-268.5 192.5,-268.5"/>
<text text-anchor="start" x="200.5" y="-286.5" font-family="Helvetica,sans-Serif" font-size="10.00">/github/workspace/src</text>
<text text-anchor="middle" x="250" y="-275.5" font-family="Helvetica,sans-Serif" font-size="10.00">/renderer/meshlibrary.h</text>
</a>
</g>
</g>
<!-- Node8&#45;&gt;Node27 -->
<g id="edge41" class="edge">
<title>Node8&#45;&gt;Node27</title>
<path fill="none" stroke="midnightblue" d="M398.33,-410.24C340.76,-403.29 263.94,-389.78 245,-366 229.72,-346.82 237.38,-316.34 243.95,-298.6"/>
<polygon fill="midnightblue" stroke="midnightblue" points="398.13,-413.74 408.47,-411.42 398.94,-406.79 398.13,-413.74"/>
</g>
<!-- Node29 -->
<g id="node29" class="node">
<title>Node29</title>
<g id="a_node29"><a xlink:href="modelloader_8h.html" target="_top" xlink:title=" ">
<polygon fill="none" stroke="black" points="254,-335.5 254,-365.5 372,-365.5 372,-335.5 254,-335.5"/>
<text text-anchor="start" x="262" y="-353.5" font-family="Helvetica,sans-Serif" font-size="10.00">/github/workspace/src</text>
<text text-anchor="middle" x="313" y="-342.5" font-family="Helvetica,sans-Serif" font-size="10.00">/renderer/modelloader.h</text>
</a>
</g>
</g>
<!-- Node8&#45;&gt;Node29 -->
<g id="edge44" class="edge">
<title>Node8&#45;&gt;Node29</title>
<path fill="none" stroke="midnightblue" d="M422.69,-398.41C398.42,-388.03 368.41,-375.2 345.92,-365.58"/>
<polygon fill="midnightblue" stroke="midnightblue" points="421.45,-401.68 432.02,-402.4 424.2,-395.25 421.45,-401.68"/>
</g>
<!-- Node10&#45;&gt;Node5 -->
<g id="edge14" class="edge">
<title>Node10&#45;&gt;Node5</title>
<path fill="none" stroke="midnightblue" d="M744.77,-331.68C718.31,-321.26 685.37,-308.28 660.73,-298.58"/>
<polygon fill="midnightblue" stroke="midnightblue" points="743.61,-334.99 754.2,-335.4 746.18,-328.47 743.61,-334.99"/>
</g>
<!-- Node11 -->
<g id="node11" class="node">
<title>Node11</title>
<g id="a_node11"><a xlink:href="meshinstance_8cpp.html" target="_top" xlink:title=" ">
<polygon fill="none" stroke="black" points="708.5,-268.5 708.5,-298.5 845.5,-298.5 845.5,-268.5 708.5,-268.5"/>
<text text-anchor="start" x="716.5" y="-286.5" font-family="Helvetica,sans-Serif" font-size="10.00">/github/workspace/src</text>
<text text-anchor="middle" x="777" y="-275.5" font-family="Helvetica,sans-Serif" font-size="10.00">/renderer/meshinstance.cpp</text>
</a>
</g>
</g>
<!-- Node10&#45;&gt;Node11 -->
<g id="edge15" class="edge">
<title>Node10&#45;&gt;Node11</title>
<path fill="none" stroke="midnightblue" d="M785.18,-325.4C783.37,-316.37 781.38,-306.41 779.82,-298.58"/>
<polygon fill="midnightblue" stroke="midnightblue" points="781.79,-326.28 787.18,-335.4 788.65,-324.9 781.79,-326.28"/>
</g>
<!-- Node10&#45;&gt;Node12 -->
<g id="edge16" class="edge">
<title>Node10&#45;&gt;Node12</title>
<path fill="none" stroke="midnightblue" d="M827.29,-330.85C847.85,-320.58 872.95,-308.03 891.85,-298.58"/>
<polygon fill="midnightblue" stroke="midnightblue" points="825.59,-327.79 818.21,-335.4 828.72,-334.05 825.59,-327.79"/>
</g>
<!-- Node12&#45;&gt;Node13 -->
<g id="edge17" class="edge">
<title>Node12&#45;&gt;Node13</title>
<path fill="none" stroke="midnightblue" d="M853.18,-269.31C850.42,-268.84 847.68,-268.39 845,-268 635.98,-237.26 580.36,-260.36 371,-232 369.83,-231.84 368.66,-231.68 367.47,-231.51"/>
<polygon fill="midnightblue" stroke="midnightblue" points="852.8,-272.8 863.27,-271.17 854.07,-265.92 852.8,-272.8"/>
</g>
<!-- Node17 -->
<g id="node17" class="node">
<title>Node17</title>
<g id="a_node17"><a xlink:href="mainmenu_8h.html" target="_top" xlink:title=" ">
<polygon fill="none" stroke="black" points="604.5,-67.5 604.5,-97.5 725.5,-97.5 725.5,-67.5 604.5,-67.5"/>
<text text-anchor="start" x="612.5" y="-85.5" font-family="Helvetica,sans-Serif" font-size="10.00">/github/workspace/src</text>
<text text-anchor="middle" x="665" y="-74.5" font-family="Helvetica,sans-Serif" font-size="10.00">/renderer/ui/mainmenu.h</text>
</a>
</g>
</g>
<!-- Node12&#45;&gt;Node17 -->
<g id="edge29" class="edge">
<title>Node12&#45;&gt;Node17</title>
<path fill="none" stroke="midnightblue" d="M871.68,-264.56C851.98,-256.14 829.53,-245.06 811,-232 753.37,-191.39 698.82,-126.48 676.1,-97.86"/>
<polygon fill="midnightblue" stroke="midnightblue" points="870.52,-267.86 881.1,-268.47 873.21,-261.4 870.52,-267.86"/>
</g>
<!-- Node19 -->
<g id="node19" class="node">
<title>Node19</title>
<g id="a_node19"><a xlink:href="vulkan__voxel__rasterizer__3_8cpp.html" target="_top" xlink:title=" ">
<polygon fill="none" stroke="black" points="770,-0.5 770,-30.5 944,-30.5 944,-0.5 770,-0.5"/>
<text text-anchor="start" x="778" y="-18.5" font-family="Helvetica,sans-Serif" font-size="10.00">/github/workspace/src</text>
<text text-anchor="middle" x="857" y="-7.5" font-family="Helvetica,sans-Serif" font-size="10.00">/tests/vulkan_voxel_rasterizer_3.cpp</text>
</a>
</g>
</g>
<!-- Node12&#45;&gt;Node19 -->
<g id="edge39" class="edge">
<title>Node12&#45;&gt;Node19</title>
<path fill="none" stroke="midnightblue" d="M914.29,-258.41C901.44,-204.12 870.53,-73.61 860.33,-30.55"/>
<polygon fill="midnightblue" stroke="midnightblue" points="910.9,-259.27 916.61,-268.2 917.71,-257.66 910.9,-259.27"/>
</g>
<!-- Node20 -->
<g id="node20" class="node">
<title>Node20</title>
<g id="a_node20"><a xlink:href="vulkan__voxel__rasterizer__4_8cpp.html" target="_top" xlink:title=" ">
<polygon fill="none" stroke="black" points="578,-0.5 578,-30.5 752,-30.5 752,-0.5 578,-0.5"/>
<text text-anchor="start" x="586" y="-18.5" font-family="Helvetica,sans-Serif" font-size="10.00">/github/workspace/src</text>
<text text-anchor="middle" x="665" y="-7.5" font-family="Helvetica,sans-Serif" font-size="10.00">/tests/vulkan_voxel_rasterizer_4.cpp</text>
</a>
</g>
</g>
<!-- Node12&#45;&gt;Node20 -->
<g id="edge40" class="edge">
<title>Node12&#45;&gt;Node20</title>
<path fill="none" stroke="midnightblue" d="M903.53,-260.25C872.76,-219.45 803.37,-131.01 734,-67 719.27,-53.41 700.89,-40.11 686.8,-30.57"/>
<polygon fill="midnightblue" stroke="midnightblue" points="900.86,-262.53 909.66,-268.43 906.46,-258.33 900.86,-262.53"/>
</g>
<!-- Node21 -->
<g id="node21" class="node">
<title>Node21</title>
<g id="a_node21"><a xlink:href="scene_8cpp.html" target="_top" xlink:title=" ">
<polygon fill="none" stroke="black" points="986.5,-201.5 986.5,-231.5 1099.5,-231.5 1099.5,-201.5 986.5,-201.5"/>
<text text-anchor="start" x="994.5" y="-219.5" font-family="Helvetica,sans-Serif" font-size="10.00">/github/workspace/src</text>
<text text-anchor="middle" x="1043" y="-208.5" font-family="Helvetica,sans-Serif" font-size="10.00">/renderer/scene.cpp</text>
</a>
</g>
</g>
<!-- Node12&#45;&gt;Node21 -->
<g id="edge28" class="edge">
<title>Node12&#45;&gt;Node21</title>
<path fill="none" stroke="midnightblue" d="M955.55,-263.71C974.95,-253.46 998.56,-240.98 1016.36,-231.58"/>
<polygon fill="midnightblue" stroke="midnightblue" points="953.9,-260.63 946.69,-268.4 957.17,-266.82 953.9,-260.63"/>
</g>
<!-- Node22 -->
<g id="node22" class="node">
<title>Node22</title>
<g id="a_node22"><a xlink:href="objectlist_8h.html" target="_top" xlink:title=" ">
<polygon fill="none" stroke="black" points="885.5,-67.5 885.5,-97.5 1000.5,-97.5 1000.5,-67.5 885.5,-67.5"/>
<text text-anchor="start" x="893.5" y="-85.5" font-family="Helvetica,sans-Serif" font-size="10.00">/github/workspace/src</text>
<text text-anchor="middle" x="943" y="-74.5" font-family="Helvetica,sans-Serif" font-size="10.00">/renderer/ui/objectlist.h</text>
</a>
</g>
</g>
<!-- Node12&#45;&gt;Node22 -->
<g id="edge30" class="edge">
<title>Node12&#45;&gt;Node22</title>
<path fill="none" stroke="midnightblue" d="M922.83,-258C927.69,-215.93 937.48,-131.26 941.36,-97.68"/>
<polygon fill="midnightblue" stroke="midnightblue" points="919.33,-257.85 921.65,-268.19 926.28,-258.66 919.33,-257.85"/>
</g>
<!-- Node24 -->
<g id="node24" class="node">
<title>Node24</title>
<g id="a_node24"><a xlink:href="objectproperties_8h.html" target="_top" xlink:title=" ">
<polygon fill="none" stroke="black" points="1018.5,-67.5 1018.5,-97.5 1163.5,-97.5 1163.5,-67.5 1018.5,-67.5"/>
<text text-anchor="start" x="1026.5" y="-85.5" font-family="Helvetica,sans-Serif" font-size="10.00">/github/workspace/src</text>
<text text-anchor="middle" x="1091" y="-74.5" font-family="Helvetica,sans-Serif" font-size="10.00">/renderer/ui/objectproperties.h</text>
</a>
</g>
</g>
<!-- Node12&#45;&gt;Node24 -->
<g id="edge34" class="edge">
<title>Node12&#45;&gt;Node24</title>
<path fill="none" stroke="midnightblue" d="M934.76,-259.91C946,-243.18 962.2,-220.06 978,-201 1010.69,-161.56 1053.64,-119.16 1076,-97.69"/>
<polygon fill="midnightblue" stroke="midnightblue" points="931.68,-258.22 929.05,-268.49 937.51,-262.1 931.68,-258.22"/>
</g>
<!-- Node26 -->
<g id="node26" class="node">
<title>Node26</title>
<g id="a_node26"><a xlink:href="vulkan__voxel__rasterizer__2_8cpp.html" target="_top" xlink:title=" ">
<polygon fill="none" stroke="black" points="389,-201.5 389,-231.5 563,-231.5 563,-201.5 389,-201.5"/>
<text text-anchor="start" x="397" y="-219.5" font-family="Helvetica,sans-Serif" font-size="10.00">/github/workspace/src</text>
<text text-anchor="middle" x="476" y="-208.5" font-family="Helvetica,sans-Serif" font-size="10.00">/tests/vulkan_voxel_rasterizer_2.cpp</text>
</a>
</g>
</g>
<!-- Node12&#45;&gt;Node26 -->
<g id="edge38" class="edge">
<title>Node12&#45;&gt;Node26</title>
<path fill="none" stroke="midnightblue" d="M853.31,-267.97C747.81,-249.62 637.51,-235.68 563.02,-227.04"/>
<polygon fill="midnightblue" stroke="midnightblue" points="852.72,-271.42 863.18,-269.7 853.93,-264.53 852.72,-271.42"/>
</g>
<!-- Node13&#45;&gt;Node12 -->
<g id="edge19" class="edge">
<title>Node13&#45;&gt;Node12</title>
<path fill="none" stroke="midnightblue" d="M381.4,-230.9C383.96,-231.29 386.5,-231.66 389,-232 598.36,-260.36 653.98,-237.26 863,-268 864.04,-268.15 865.1,-268.31 866.16,-268.48"/>
<polygon fill="midnightblue" stroke="midnightblue" points="381.84,-227.42 371.4,-229.27 380.71,-234.33 381.84,-227.42"/>
</g>
<!-- Node14 -->
<g id="node14" class="node">
<title>Node14</title>
<g id="a_node14"><a xlink:href="rendermanager_8cpp.html" target="_top" xlink:title=" ">
<polygon fill="none" stroke="black" points="425,-134.5 425,-164.5 565,-164.5 565,-134.5 425,-134.5"/>
<text text-anchor="start" x="433" y="-152.5" font-family="Helvetica,sans-Serif" font-size="10.00">/github/workspace/src</text>
<text text-anchor="middle" x="495" y="-141.5" font-family="Helvetica,sans-Serif" font-size="10.00">/renderer/rendermanager.cpp</text>
</a>
</g>
</g>
<!-- Node13&#45;&gt;Node14 -->
<g id="edge18" class="edge">
<title>Node13&#45;&gt;Node14</title>
<path fill="none" stroke="midnightblue" d="M356.62,-198.09C387.13,-187.6 425.48,-174.41 454.07,-164.58"/>
<polygon fill="midnightblue" stroke="midnightblue" points="355.33,-194.83 347.01,-201.4 357.6,-201.45 355.33,-194.83"/>
</g>
<!-- Node15 -->
<g id="node15" class="node">
<title>Node15</title>
<g id="a_node15"><a xlink:href="scenewriter_8h.html" target="_top" xlink:title=" ">
<polygon fill="none" stroke="black" points="291,-134.5 291,-164.5 407,-164.5 407,-134.5 291,-134.5"/>
<text text-anchor="start" x="299" y="-152.5" font-family="Helvetica,sans-Serif" font-size="10.00">/github/workspace/src</text>
<text text-anchor="middle" x="349" y="-141.5" font-family="Helvetica,sans-Serif" font-size="10.00">/renderer/scenewriter.h</text>
</a>
</g>
</g>
<!-- Node13&#45;&gt;Node15 -->
<g id="edge20" class="edge">
<title>Node13&#45;&gt;Node15</title>
<path fill="none" stroke="midnightblue" d="M314.68,-192.58C320.32,-183.24 327.53,-172.75 334.01,-164.58"/>
<polygon fill="midnightblue" stroke="midnightblue" points="311.57,-190.98 309.65,-201.4 317.65,-194.44 311.57,-190.98"/>
</g>
<!-- Node13&#45;&gt;Node20 -->
<g id="edge27" class="edge">
<title>Node13&#45;&gt;Node20</title>
<path fill="none" stroke="midnightblue" d="M292,-192.05C274.77,-159.79 251.32,-101.79 282,-67 324.37,-18.96 504.54,-39.74 568,-31 571.2,-30.56 574.47,-30.1 577.76,-29.64"/>
<polygon fill="midnightblue" stroke="midnightblue" points="289.16,-194.14 297.08,-201.18 295.28,-190.74 289.16,-194.14"/>
</g>
<!-- Node15&#45;&gt;Node13 -->
<g id="edge21" class="edge">
<title>Node15&#45;&gt;Node13</title>
<path fill="none" stroke="midnightblue" d="M340.34,-173.39C334.7,-182.73 327.49,-193.22 321.01,-201.4"/>
<polygon fill="midnightblue" stroke="midnightblue" points="343.45,-175 345.36,-164.58 337.37,-171.53 343.45,-175"/>
</g>
<!-- Node16 -->
<g id="node16" class="node">
<title>Node16</title>
<g id="a_node16"><a xlink:href="scenewriter_8cpp.html" target="_top" xlink:title=" ">
<polygon fill="none" stroke="black" points="291,-67.5 291,-97.5 417,-97.5 417,-67.5 291,-67.5"/>
<text text-anchor="start" x="299" y="-85.5" font-family="Helvetica,sans-Serif" font-size="10.00">/github/workspace/src</text>
<text text-anchor="middle" x="354" y="-74.5" font-family="Helvetica,sans-Serif" font-size="10.00">/renderer/scenewriter.cpp</text>
</a>
</g>
</g>
<!-- Node15&#45;&gt;Node16 -->
<g id="edge22" class="edge">
<title>Node15&#45;&gt;Node16</title>
<path fill="none" stroke="midnightblue" d="M350.85,-124.4C351.55,-115.37 352.31,-105.41 352.92,-97.58"/>
<polygon fill="midnightblue" stroke="midnightblue" points="347.36,-124.16 350.08,-134.4 354.34,-124.69 347.36,-124.16"/>
</g>
<!-- Node15&#45;&gt;Node17 -->
<g id="edge23" class="edge">
<title>Node15&#45;&gt;Node17</title>
<path fill="none" stroke="midnightblue" d="M416.95,-133.81C486.79,-119.21 556.14,-105.22 604.32,-95.58"/>
<polygon fill="midnightblue" stroke="midnightblue" points="416.17,-130.4 407.09,-135.88 417.6,-137.25 416.17,-130.4"/>
</g>
<!-- Node18 -->
<g id="node18" class="node">
<title>Node18</title>
<g id="a_node18"><a xlink:href="mainmenu_8cpp.html" target="_top" xlink:title=" ">
<polygon fill="none" stroke="black" points="428.5,-0.5 428.5,-30.5 559.5,-30.5 559.5,-0.5 428.5,-0.5"/>
<text text-anchor="start" x="436.5" y="-18.5" font-family="Helvetica,sans-Serif" font-size="10.00">/github/workspace/src</text>
<text text-anchor="middle" x="494" y="-7.5" font-family="Helvetica,sans-Serif" font-size="10.00">/renderer/ui/mainmenu.cpp</text>
</a>
</g>
</g>
<!-- Node17&#45;&gt;Node18 -->
<g id="edge24" class="edge">
<title>Node17&#45;&gt;Node18</title>
<path fill="none" stroke="midnightblue" d="M618.48,-63.82C591,-53.37 556.67,-40.32 531.03,-30.58"/>
<polygon fill="midnightblue" stroke="midnightblue" points="617.3,-67.11 627.9,-67.4 619.79,-60.57 617.3,-67.11"/>
</g>
<!-- Node17&#45;&gt;Node19 -->
<g id="edge25" class="edge">
<title>Node17&#45;&gt;Node19</title>
<path fill="none" stroke="midnightblue" d="M716.42,-64.09C747.42,-53.6 786.38,-40.41 815.42,-30.58"/>
<polygon fill="midnightblue" stroke="midnightblue" points="715.01,-60.87 706.66,-67.4 717.26,-67.5 715.01,-60.87"/>
</g>
<!-- Node17&#45;&gt;Node20 -->
<g id="edge26" class="edge">
<title>Node17&#45;&gt;Node20</title>
<path fill="none" stroke="midnightblue" d="M665,-57.11C665,-48.15 665,-38.32 665,-30.58"/>
<polygon fill="midnightblue" stroke="midnightblue" points="661.5,-57.4 665,-67.4 668.5,-57.4 661.5,-57.4"/>
</g>
<!-- Node22&#45;&gt;Node19 -->
<g id="edge32" class="edge">
<title>Node22&#45;&gt;Node19</title>
<path fill="none" stroke="midnightblue" d="M916.1,-61.17C902.95,-51.23 887.45,-39.51 875.62,-30.58"/>
<polygon fill="midnightblue" stroke="midnightblue" points="914.25,-64.16 924.34,-67.4 918.47,-58.57 914.25,-64.16"/>
</g>
<!-- Node22&#45;&gt;Node20 -->
<g id="edge33" class="edge">
<title>Node22&#45;&gt;Node20</title>
<path fill="none" stroke="midnightblue" d="M875.52,-65.72C829.54,-54.97 769.21,-40.87 724.93,-30.51"/>
<polygon fill="midnightblue" stroke="midnightblue" points="874.86,-69.16 885.4,-68.03 876.46,-62.35 874.86,-69.16"/>
</g>
<!-- Node23 -->
<g id="node23" class="node">
<title>Node23</title>
<g id="a_node23"><a xlink:href="objectlist_8cpp.html" target="_top" xlink:title=" ">
<polygon fill="none" stroke="black" points="962.5,-0.5 962.5,-30.5 1087.5,-30.5 1087.5,-0.5 962.5,-0.5"/>
<text text-anchor="start" x="970.5" y="-18.5" font-family="Helvetica,sans-Serif" font-size="10.00">/github/workspace/src</text>
<text text-anchor="middle" x="1025" y="-7.5" font-family="Helvetica,sans-Serif" font-size="10.00">/renderer/ui/objectlist.cpp</text>
</a>
</g>
</g>
<!-- Node22&#45;&gt;Node23 -->
<g id="edge31" class="edge">
<title>Node22&#45;&gt;Node23</title>
<path fill="none" stroke="midnightblue" d="M968.65,-61.17C981.19,-51.23 995.97,-39.51 1007.24,-30.58"/>
<polygon fill="midnightblue" stroke="midnightblue" points="966.46,-58.44 960.79,-67.4 970.8,-63.93 966.46,-58.44"/>
</g>
<!-- Node24&#45;&gt;Node19 -->
<g id="edge36" class="edge">
<title>Node24&#45;&gt;Node19</title>
<path fill="none" stroke="midnightblue" d="M1030.57,-64.71C992.49,-54.14 943.89,-40.63 907.8,-30.61"/>
<polygon fill="midnightblue" stroke="midnightblue" points="1029.94,-68.17 1040.51,-67.48 1031.82,-61.43 1029.94,-68.17"/>
</g>
<!-- Node24&#45;&gt;Node20 -->
<g id="edge37" class="edge">
<title>Node24&#45;&gt;Node20</title>
<path fill="none" stroke="midnightblue" d="M1007.97,-66.7C897.91,-49.03 868.37,-46.87 761,-31 758.08,-30.57 755.11,-30.13 752.12,-29.68"/>
<polygon fill="midnightblue" stroke="midnightblue" points="1007.73,-70.21 1018.16,-68.34 1008.85,-63.29 1007.73,-70.21"/>
</g>
<!-- Node25 -->
<g id="node25" class="node">
<title>Node25</title>
<g id="a_node25"><a xlink:href="objectproperties_8cpp.html" target="_top" xlink:title=" ">
<polygon fill="none" stroke="black" points="1105.5,-0.5 1105.5,-30.5 1260.5,-30.5 1260.5,-0.5 1105.5,-0.5"/>
<text text-anchor="start" x="1113.5" y="-18.5" font-family="Helvetica,sans-Serif" font-size="10.00">/github/workspace/src</text>
<text text-anchor="middle" x="1183" y="-7.5" font-family="Helvetica,sans-Serif" font-size="10.00">/renderer/ui/objectproperties.cpp</text>
</a>
</g>
</g>
<!-- Node24&#45;&gt;Node25 -->
<g id="edge35" class="edge">
<title>Node24&#45;&gt;Node25</title>
<path fill="none" stroke="midnightblue" d="M1119.38,-61.45C1133.53,-51.45 1150.31,-39.6 1163.08,-30.58"/>
<polygon fill="midnightblue" stroke="midnightblue" points="1117.11,-58.77 1110.96,-67.4 1121.15,-64.48 1117.11,-58.77"/>
</g>
<!-- Node27&#45;&gt;Node13 -->
<g id="edge43" class="edge">
<title>Node27&#45;&gt;Node13</title>
<path fill="none" stroke="midnightblue" d="M268.75,-260.74C277.04,-251.12 286.54,-240.09 293.87,-231.58"/>
<polygon fill="midnightblue" stroke="midnightblue" points="266.03,-258.54 262.15,-268.4 271.33,-263.1 266.03,-258.54"/>
</g>
<!-- Node28 -->
<g id="node28" class="node">
<title>Node28</title>
<g id="a_node28"><a xlink:href="meshlibrary_8cpp.html" target="_top" xlink:title=" ">
<polygon fill="none" stroke="black" points="97.5,-201.5 97.5,-231.5 222.5,-231.5 222.5,-201.5 97.5,-201.5"/>
<text text-anchor="start" x="105.5" y="-219.5" font-family="Helvetica,sans-Serif" font-size="10.00">/github/workspace/src</text>
<text text-anchor="middle" x="160" y="-208.5" font-family="Helvetica,sans-Serif" font-size="10.00">/renderer/meshlibrary.cpp</text>
</a>
</g>
</g>
<!-- Node27&#45;&gt;Node28 -->
<g id="edge42" class="edge">
<title>Node27&#45;&gt;Node28</title>
<path fill="none" stroke="midnightblue" d="M222.24,-262.45C208.39,-252.45 191.98,-240.6 179.49,-231.58"/>
<polygon fill="midnightblue" stroke="midnightblue" points="220.32,-265.38 230.47,-268.4 224.41,-259.7 220.32,-265.38"/>
</g>
<!-- Node29&#45;&gt;Node19 -->
<g id="edge48" class="edge">
<title>Node29&#45;&gt;Node19</title>
<path fill="none" stroke="midnightblue" d="M382.13,-335.17C414.15,-327.03 452.09,-315.17 484,-299 527.85,-276.78 533.39,-262.43 572,-232 589.12,-218.51 592.82,-214.41 610,-201 693.53,-135.78 795.61,-61.08 837.57,-30.58"/>
<polygon fill="midnightblue" stroke="midnightblue" points="381.25,-331.78 372.39,-337.58 382.94,-338.58 381.25,-331.78"/>
</g>
<!-- Node29&#45;&gt;Node20 -->
<g id="edge49" class="edge">
<title>Node29&#45;&gt;Node20</title>
<path fill="none" stroke="midnightblue" d="M243.97,-341.71C171.82,-329.29 69,-297.54 69,-217.5 69,-217.5 69,-217.5 69,-148.5 69,-34.31 510.02,-38.78 568,-31 571.21,-30.57 574.47,-30.12 577.77,-29.67"/>
<polygon fill="midnightblue" stroke="midnightblue" points="243.5,-345.18 253.93,-343.34 244.63,-338.27 243.5,-345.18"/>
</g>
<!-- Node29&#45;&gt;Node26 -->
<g id="edge47" class="edge">
<title>Node29&#45;&gt;Node26</title>
<path fill="none" stroke="midnightblue" d="M382.17,-333.59C416.06,-324.4 451.94,-312.08 463,-299 479.01,-280.08 479.32,-249.51 477.83,-231.68"/>
<polygon fill="midnightblue" stroke="midnightblue" points="381,-330.29 372.22,-336.22 382.79,-337.05 381,-330.29"/>
</g>
<!-- Node29&#45;&gt;Node27 -->
<g id="edge45" class="edge">
<title>Node29&#45;&gt;Node27</title>
<path fill="none" stroke="midnightblue" d="M292.19,-328.02C282.8,-318.34 271.98,-307.17 263.64,-298.58"/>
<polygon fill="midnightblue" stroke="midnightblue" points="289.86,-330.65 299.33,-335.4 294.88,-325.78 289.86,-330.65"/>
</g>
<!-- Node30 -->
<g id="node30" class="node">
<title>Node30</title>
<g id="a_node30"><a xlink:href="modelloader_8cpp.html" target="_top" xlink:title=" ">
<polygon fill="none" stroke="black" points="326,-268.5 326,-298.5 454,-298.5 454,-268.5 326,-268.5"/>
<text text-anchor="start" x="334" y="-286.5" font-family="Helvetica,sans-Serif" font-size="10.00">/github/workspace/src</text>
<text text-anchor="middle" x="390" y="-275.5" font-family="Helvetica,sans-Serif" font-size="10.00">/renderer/modelloader.cpp</text>
</a>
</g>
</g>
<!-- Node29&#45;&gt;Node30 -->
<g id="edge46" class="edge">
<title>Node29&#45;&gt;Node30</title>
<path fill="none" stroke="midnightblue" d="M337.42,-328.88C349.12,-319.01 362.84,-307.43 373.32,-298.58"/>
<polygon fill="midnightblue" stroke="midnightblue" points="335.09,-326.27 329.71,-335.4 339.61,-331.62 335.09,-326.27"/>
</g>
</g>
</svg>
        <g id="navigator" transform="translate(0 0)" fill="#404254">
                <rect fill="#f2f5e9" fill-opacity="0.5" stroke="#606060" stroke-width=".5" x="0" y="0" width="60" height="60"/>
                <use id="zoomplus" xlink:href="#zoomPlus" x="17" y="9" onmousedown="handleZoom(evt,'in')"/>
                <use id="zoomminus" xlink:href="#zoomMin" x="42" y="9" onmousedown="handleZoom(evt,'out')"/>
                <use id="reset" xlink:href="#resetDef" x="30" y="36" onmousedown="handleReset()"/>
                <g id="arrowUp" xlink:href="#dirArrow" transform="translate(30 24)" onmousedown="handlePan(0,-1)">
                  <use xlink:href="#rim" fill="#404040">
                        <set attributeName="fill" to="#808080" begin="arrowUp.mouseover" end="arrowUp.mouseout"/>
                  </use>
                  <path fill="none" stroke="white" stroke-width="1.5" d="M0,-3.0v7 M-2.5,-0.5L0,-3.0L2.5,-0.5"/>
                </g>
                <g id="arrowRight" xlink:href="#dirArrow" transform="rotate(90) translate(36 -43)" onmousedown="handlePan(1,0)">
                  <use xlink:href="#rim" fill="#404040">
                        <set attributeName="fill" to="#808080" begin="arrowRight.mouseover" end="arrowRight.mouseout"/>
                  </use>
                  <path fill="none" stroke="white" stroke-width="1.5" d="M0,-3.0v7 M-2.5,-0.5L0,-3.0L2.5,-0.5"/>
                </g>
                <g id="arrowDown" xlink:href="#dirArrow" transform="rotate(180) translate(-30 -48)" onmousedown="handlePan(0,1)">
                  <use xlink:href="#rim" fill="#404040">
                        <set attributeName="fill" to="#808080" begin="arrowDown.mouseover" end="arrowDown.mouseout"/>
                  </use>
                  <path fill="none" stroke="white" stroke-width="1.5" d="M0,-3.0v7 M-2.5,-0.5L0,-3.0L2.5,-0.5"/>
                </g>
                <g id="arrowLeft" xlink:href="#dirArrow" transform="rotate(270) translate(-36 17)" onmousedown="handlePan(-1,0)">
                  <use xlink:href="#rim" fill="#404040">
                        <set attributeName="fill" to="#808080" begin="arrowLeft.mouseover" end="arrowLeft.mouseout"/>
                  </use>
                  <path fill="none" stroke="white" stroke-width="1.5" d="M0,-3.0v7 M-2.5,-0.5L0,-3.0L2.5,-0.5"/>
                </g>
        </g>
        <svg viewBox="0 0 15 15" width="100%" height="30px" preserveAspectRatio="xMaxYMin meet">
         <g id="arrow_out" transform="scale(0.3 0.3)">
          <a xlink:href="dynamicbuffer_8h__dep__incl_org.svg" target="_base">
           <rect id="button" ry="5" rx="5" y="6" x="6" height="38" width="38"
                fill="#f2f5e9" fill-opacity="0.5" stroke="#606060" stroke-width="1.0"/>
           <path id="arrow"
             d="M 11.500037,31.436501 C 11.940474,20.09759 22.043105,11.32322 32.158766,21.979434 L 37.068811,17.246167 C 37.068811,17.246167 37.088388,32 37.088388,32 L 22.160133,31.978069 C 22.160133,31.978069 26.997745,27.140456 26.997745,27.140456 C 18.528582,18.264221 13.291696,25.230495 11.500037,31.436501 z"
             style="fill:#404040;"/>
          </a>
         </g>
        </svg>
</svg>
