<?xml version="1.0" encoding="UTF-8" standalone="no"?>
<!DOCTYPE svg PUBLIC "-//W3C//DTD SVG 1.1//EN"
 "http://www.w3.org/Graphics/SVG/1.1/DTD/svg11.dtd">
<!-- Generated by graphviz version 2.49.3 (20211215.1918)
 -->
<!-- Title: /github/workspace/src/renderer/dynamicbuffer.h Pages: 1 -->
<svg width="1113pt" height="508pt"
 viewBox="0.00 0.00 1112.50 508.00" xmlns="http://www.w3.org/2000/svg" xmlns:xlink="http://www.w3.org/1999/xlink">
<g id="graph0" class="graph" transform="scale(1 1) rotate(0) translate(4 504)">
<title>/github/workspace/src/renderer/dynamicbuffer.h</title>
<!-- Node1 -->
<g id="node1" class="node">
<title>Node1</title>
<g id="a_node1"><a xlink:title=" ">
<polygon fill="#bfbfbf" stroke="black" points="154.5,-469.5 154.5,-499.5 279.5,-499.5 279.5,-469.5 154.5,-469.5"/>
<text text-anchor="start" x="162.5" y="-487.5" font-family="Helvetica,sans-Serif" font-size="10.00">/github/workspace/src</text>
<text text-anchor="middle" x="217" y="-476.5" font-family="Helvetica,sans-Serif" font-size="10.00">/renderer/dynamicbuffer.h</text>
</a>
</g>
</g>
<!-- Node2 -->
<g id="node2" class="node">
<title>Node2</title>
<g id="a_node2"><a xlink:href="dynamicbuffer_8cpp.html" target="_top" xlink:title=" ">
<polygon fill="none" stroke="black" points="0,-402.5 0,-432.5 136,-432.5 136,-402.5 0,-402.5"/>
<text text-anchor="start" x="8" y="-420.5" font-family="Helvetica,sans-Serif" font-size="10.00">/github/workspace/src</text>
<text text-anchor="middle" x="68" y="-409.5" font-family="Helvetica,sans-Serif" font-size="10.00">/renderer/dynamicbuffer.cpp</text>
</a>
</g>
</g>
<!-- Node1&#45;&gt;Node2 -->
<g id="edge1" class="edge">
<title>Node1&#45;&gt;Node2</title>
<path fill="none" stroke="midnightblue" d="M175.21,-465.27C151.48,-454.92 122.22,-442.15 100.27,-432.58"/>
<polygon fill="midnightblue" stroke="midnightblue" points="174.1,-468.61 184.67,-469.4 176.9,-462.19 174.1,-468.61"/>
</g>
<!-- Node3 -->
<g id="node3" class="node">
<title>Node3</title>
<g id="a_node3"><a xlink:href="materiallibrary_8h.html" target="_top" xlink:title=" ">
<polygon fill="none" stroke="black" points="154.5,-402.5 154.5,-432.5 279.5,-432.5 279.5,-402.5 154.5,-402.5"/>
<text text-anchor="start" x="162.5" y="-420.5" font-family="Helvetica,sans-Serif" font-size="10.00">/github/workspace/src</text>
<text text-anchor="middle" x="217" y="-409.5" font-family="Helvetica,sans-Serif" font-size="10.00">/renderer/materiallibrary.h</text>
</a>
</g>
</g>
<!-- Node1&#45;&gt;Node3 -->
<g id="edge2" class="edge">
<title>Node1&#45;&gt;Node3</title>
<path fill="none" stroke="midnightblue" d="M217,-459.11C217,-450.15 217,-440.32 217,-432.58"/>
<polygon fill="midnightblue" stroke="midnightblue" points="213.5,-459.4 217,-469.4 220.5,-459.4 213.5,-459.4"/>
</g>
<!-- Node16 -->
<g id="node16" class="node">
<title>Node16</title>
<g id="a_node16"><a xlink:href="scene_8h.html" target="_top" xlink:title=" ">
<polygon fill="none" stroke="black" points="600.5,-134.5 600.5,-164.5 713.5,-164.5 713.5,-134.5 600.5,-134.5"/>
<text text-anchor="start" x="608.5" y="-152.5" font-family="Helvetica,sans-Serif" font-size="10.00">/github/workspace/src</text>
<text text-anchor="middle" x="657" y="-141.5" font-family="Helvetica,sans-Serif" font-size="10.00">/renderer/scene.h</text>
</a>
</g>
</g>
<!-- Node1&#45;&gt;Node16 -->
<g id="edge31" class="edge">
<title>Node1&#45;&gt;Node16</title>
<path fill="none" stroke="midnightblue" d="M289.83,-475.81C410.32,-461.04 638,-423.6 638,-351.5 638,-351.5 638,-351.5 638,-282.5 638,-239.2 648.14,-188.73 653.6,-164.66"/>
<polygon fill="midnightblue" stroke="midnightblue" points="289.08,-472.37 279.57,-477.04 289.92,-479.32 289.08,-472.37"/>
</g>
<!-- Node4 -->
<g id="node4" class="node">
<title>Node4</title>
<g id="a_node4"><a xlink:href="material_8h.html" target="_top" xlink:title=" ">
<polygon fill="none" stroke="black" points="160.5,-335.5 160.5,-365.5 273.5,-365.5 273.5,-335.5 160.5,-335.5"/>
<text text-anchor="start" x="168.5" y="-353.5" font-family="Helvetica,sans-Serif" font-size="10.00">/github/workspace/src</text>
<text text-anchor="middle" x="217" y="-342.5" font-family="Helvetica,sans-Serif" font-size="10.00">/renderer/material.h</text>
</a>
</g>
</g>
<!-- Node3&#45;&gt;Node4 -->
<g id="edge3" class="edge">
<title>Node3&#45;&gt;Node4</title>
<path fill="none" stroke="midnightblue" d="M210.45,-392.4C210.01,-383.37 210.3,-373.41 211.33,-365.58"/>
<polygon fill="midnightblue" stroke="midnightblue" points="206.97,-392.74 211.32,-402.4 213.94,-392.13 206.97,-392.74"/>
</g>
<!-- Node22 -->
<g id="node22" class="node">
<title>Node22</title>
<g id="a_node22"><a xlink:href="materiallibrary_8cpp.html" target="_top" xlink:title=" ">
<polygon fill="none" stroke="black" points="292,-335.5 292,-365.5 428,-365.5 428,-335.5 292,-335.5"/>
<text text-anchor="start" x="300" y="-353.5" font-family="Helvetica,sans-Serif" font-size="10.00">/github/workspace/src</text>
<text text-anchor="middle" x="360" y="-342.5" font-family="Helvetica,sans-Serif" font-size="10.00">/renderer/materiallibrary.cpp</text>
</a>
</g>
</g>
<!-- Node3&#45;&gt;Node22 -->
<g id="edge30" class="edge">
<title>Node3&#45;&gt;Node22</title>
<path fill="none" stroke="midnightblue" d="M257.41,-398.13C280.13,-387.8 308.06,-375.11 329.03,-365.58"/>
<polygon fill="midnightblue" stroke="midnightblue" points="255.68,-395.07 248.03,-402.4 258.58,-401.44 255.68,-395.07"/>
</g>
<!-- Node4&#45;&gt;Node3 -->
<g id="edge9" class="edge">
<title>Node4&#45;&gt;Node3</title>
<path fill="none" stroke="midnightblue" d="M223.54,-375.57C223.99,-384.6 223.71,-394.56 222.68,-402.4"/>
<polygon fill="midnightblue" stroke="midnightblue" points="227.03,-375.24 222.67,-365.58 220.05,-375.84 227.03,-375.24"/>
</g>
<!-- Node5 -->
<g id="node5" class="node">
<title>Node5</title>
<g id="a_node5"><a xlink:href="mastermaterial_8h.html" target="_top" xlink:title=" ">
<polygon fill="none" stroke="black" points="138,-134.5 138,-164.5 268,-164.5 268,-134.5 138,-134.5"/>
<text text-anchor="start" x="146" y="-152.5" font-family="Helvetica,sans-Serif" font-size="10.00">/github/workspace/src</text>
<text text-anchor="middle" x="203" y="-141.5" font-family="Helvetica,sans-Serif" font-size="10.00">/renderer/mastermaterial.h</text>
</a>
</g>
</g>
<!-- Node4&#45;&gt;Node5 -->
<g id="edge4" class="edge">
<title>Node4&#45;&gt;Node5</title>
<path fill="none" stroke="midnightblue" d="M210.69,-325.27C204.6,-283.29 198.93,-198.33 200.31,-164.68"/>
<polygon fill="midnightblue" stroke="midnightblue" points="207.25,-325.87 212.29,-335.19 214.16,-324.76 207.25,-325.87"/>
</g>
<!-- Node7 -->
<g id="node7" class="node">
<title>Node7</title>
<g id="a_node7"><a xlink:href="material_8cpp.html" target="_top" xlink:title=" ">
<polygon fill="none" stroke="black" points="66.5,-268.5 66.5,-298.5 179.5,-298.5 179.5,-268.5 66.5,-268.5"/>
<text text-anchor="start" x="74.5" y="-286.5" font-family="Helvetica,sans-Serif" font-size="10.00">/github/workspace/src</text>
<text text-anchor="middle" x="123" y="-275.5" font-family="Helvetica,sans-Serif" font-size="10.00">/renderer/material.cpp</text>
</a>
</g>
</g>
<!-- Node4&#45;&gt;Node7 -->
<g id="edge8" class="edge">
<title>Node4&#45;&gt;Node7</title>
<path fill="none" stroke="midnightblue" d="M188.01,-329.45C173.55,-319.45 156.41,-307.6 143.36,-298.58"/>
<polygon fill="midnightblue" stroke="midnightblue" points="186.39,-332.59 196.6,-335.4 190.37,-326.83 186.39,-332.59"/>
</g>
<!-- Node8 -->
<g id="node8" class="node">
<title>Node8</title>
<g id="a_node8"><a xlink:href="mesh_8h.html" target="_top" xlink:title=" ">
<polygon fill="none" stroke="black" points="299.5,-268.5 299.5,-298.5 412.5,-298.5 412.5,-268.5 299.5,-268.5"/>
<text text-anchor="start" x="307.5" y="-286.5" font-family="Helvetica,sans-Serif" font-size="10.00">/github/workspace/src</text>
<text text-anchor="middle" x="356" y="-275.5" font-family="Helvetica,sans-Serif" font-size="10.00">/renderer/mesh.h</text>
</a>
</g>
</g>
<!-- Node4&#45;&gt;Node8 -->
<g id="edge10" class="edge">
<title>Node4&#45;&gt;Node8</title>
<path fill="none" stroke="midnightblue" d="M256.28,-331.13C278.37,-320.8 305.51,-308.11 325.9,-298.58"/>
<polygon fill="midnightblue" stroke="midnightblue" points="254.74,-327.99 247.16,-335.4 257.7,-334.33 254.74,-327.99"/>
</g>
<!-- Node5&#45;&gt;Node3 -->
<g id="edge7" class="edge">
<title>Node5&#45;&gt;Node3</title>
<path fill="none" stroke="midnightblue" d="M159.38,-168.95C106.71,-194.15 28.5,-242.71 57,-299 83,-350.35 143.17,-384.71 181.86,-402.39"/>
<polygon fill="midnightblue" stroke="midnightblue" points="160.98,-172.06 168.57,-164.66 158.02,-165.72 160.98,-172.06"/>
</g>
<!-- Node5&#45;&gt;Node4 -->
<g id="edge6" class="edge">
<title>Node5&#45;&gt;Node4</title>
<path fill="none" stroke="midnightblue" d="M209.28,-174.57C215.38,-216.44 221.06,-301.41 219.7,-335.19"/>
<polygon fill="midnightblue" stroke="midnightblue" points="212.74,-174 207.69,-164.68 205.83,-175.11 212.74,-174"/>
</g>
<!-- Node6 -->
<g id="node6" class="node">
<title>Node6</title>
<g id="a_node6"><a xlink:href="mastermaterial_8cpp.html" target="_top" xlink:title=" ">
<polygon fill="none" stroke="black" points="113,-67.5 113,-97.5 253,-97.5 253,-67.5 113,-67.5"/>
<text text-anchor="start" x="121" y="-85.5" font-family="Helvetica,sans-Serif" font-size="10.00">/github/workspace/src</text>
<text text-anchor="middle" x="183" y="-74.5" font-family="Helvetica,sans-Serif" font-size="10.00">/renderer/mastermaterial.cpp</text>
</a>
</g>
</g>
<!-- Node5&#45;&gt;Node6 -->
<g id="edge5" class="edge">
<title>Node5&#45;&gt;Node6</title>
<path fill="none" stroke="midnightblue" d="M195.68,-124.7C192.87,-115.59 189.77,-105.49 187.33,-97.58"/>
<polygon fill="midnightblue" stroke="midnightblue" points="192.37,-125.87 198.66,-134.4 199.06,-123.81 192.37,-125.87"/>
</g>
<!-- Node8&#45;&gt;Node5 -->
<g id="edge11" class="edge">
<title>Node8&#45;&gt;Node5</title>
<path fill="none" stroke="midnightblue" d="M324.77,-262.79C311.47,-253.93 296.05,-242.99 283,-232 257.22,-210.29 230.4,-181.47 215.29,-164.56"/>
<polygon fill="midnightblue" stroke="midnightblue" points="322.88,-265.74 333.16,-268.3 326.72,-259.89 322.88,-265.74"/>
</g>
<!-- Node9 -->
<g id="node9" class="node">
<title>Node9</title>
<g id="a_node9"><a xlink:href="mesh_8cpp.html" target="_top" xlink:title=" ">
<polygon fill="none" stroke="black" points="476.5,-201.5 476.5,-231.5 589.5,-231.5 589.5,-201.5 476.5,-201.5"/>
<text text-anchor="start" x="484.5" y="-219.5" font-family="Helvetica,sans-Serif" font-size="10.00">/github/workspace/src</text>
<text text-anchor="middle" x="533" y="-208.5" font-family="Helvetica,sans-Serif" font-size="10.00">/renderer/mesh.cpp</text>
</a>
</g>
</g>
<!-- Node8&#45;&gt;Node9 -->
<g id="edge12" class="edge">
<title>Node8&#45;&gt;Node9</title>
<path fill="none" stroke="midnightblue" d="M404.15,-264.82C432.6,-254.37 468.13,-241.32 494.67,-231.58"/>
<polygon fill="midnightblue" stroke="midnightblue" points="402.59,-261.66 394.41,-268.4 405,-268.23 402.59,-261.66"/>
</g>
<!-- Node10 -->
<g id="node10" class="node">
<title>Node10</title>
<g id="a_node10"><a xlink:href="modelloader_8h.html" target="_top" xlink:title=" ">
<polygon fill="none" stroke="black" points="444,-134.5 444,-164.5 562,-164.5 562,-134.5 444,-134.5"/>
<text text-anchor="start" x="452" y="-152.5" font-family="Helvetica,sans-Serif" font-size="10.00">/github/workspace/src</text>
<text text-anchor="middle" x="503" y="-141.5" font-family="Helvetica,sans-Serif" font-size="10.00">/renderer/modelloader.h</text>
</a>
</g>
</g>
<!-- Node8&#45;&gt;Node10 -->
<g id="edge13" class="edge">
<title>Node8&#45;&gt;Node10</title>
<path fill="none" stroke="midnightblue" d="M387.73,-262.84C401,-254.05 416.26,-243.16 429,-232 453.44,-210.59 478.05,-181.68 491.83,-164.67"/>
<polygon fill="midnightblue" stroke="midnightblue" points="385.82,-259.91 379.35,-268.3 389.64,-265.77 385.82,-259.91"/>
</g>
<!-- Node14 -->
<g id="node14" class="node">
<title>Node14</title>
<g id="a_node14"><a xlink:href="objectinstance_8h.html" target="_top" xlink:title=" ">
<polygon fill="none" stroke="black" points="292,-201.5 292,-231.5 420,-231.5 420,-201.5 292,-201.5"/>
<text text-anchor="start" x="300" y="-219.5" font-family="Helvetica,sans-Serif" font-size="10.00">/github/workspace/src</text>
<text text-anchor="middle" x="356" y="-208.5" font-family="Helvetica,sans-Serif" font-size="10.00">/renderer/objectinstance.h</text>
</a>
</g>
</g>
<!-- Node8&#45;&gt;Node14 -->
<g id="edge17" class="edge">
<title>Node8&#45;&gt;Node14</title>
<path fill="none" stroke="midnightblue" d="M356,-258.11C356,-249.15 356,-239.32 356,-231.58"/>
<polygon fill="midnightblue" stroke="midnightblue" points="352.5,-258.4 356,-268.4 359.5,-258.4 352.5,-258.4"/>
</g>
<!-- Node11 -->
<g id="node11" class="node">
<title>Node11</title>
<g id="a_node11"><a xlink:href="modelloader_8cpp.html" target="_top" xlink:title=" ">
<polygon fill="none" stroke="black" points="309,-67.5 309,-97.5 437,-97.5 437,-67.5 309,-67.5"/>
<text text-anchor="start" x="317" y="-85.5" font-family="Helvetica,sans-Serif" font-size="10.00">/github/workspace/src</text>
<text text-anchor="middle" x="373" y="-74.5" font-family="Helvetica,sans-Serif" font-size="10.00">/renderer/modelloader.cpp</text>
</a>
</g>
</g>
<!-- Node10&#45;&gt;Node11 -->
<g id="edge14" class="edge">
<title>Node10&#45;&gt;Node11</title>
<path fill="none" stroke="midnightblue" d="M465.71,-129.85C445.15,-119.58 420.05,-107.03 401.15,-97.58"/>
<polygon fill="midnightblue" stroke="midnightblue" points="464.28,-133.05 474.79,-134.4 467.41,-126.79 464.28,-133.05"/>
</g>
<!-- Node12 -->
<g id="node12" class="node">
<title>Node12</title>
<g id="a_node12"><a xlink:href="vulkan__voxel__rasterizer__2_8cpp.html" target="_top" xlink:title=" ">
<polygon fill="none" stroke="black" points="455,-67.5 455,-97.5 629,-97.5 629,-67.5 455,-67.5"/>
<text text-anchor="start" x="463" y="-85.5" font-family="Helvetica,sans-Serif" font-size="10.00">/github/workspace/src</text>
<text text-anchor="middle" x="542" y="-74.5" font-family="Helvetica,sans-Serif" font-size="10.00">/tests/vulkan_voxel_rasterizer_2.cpp</text>
</a>
</g>
</g>
<!-- Node10&#45;&gt;Node12 -->
<g id="edge15" class="edge">
<title>Node10&#45;&gt;Node12</title>
<path fill="none" stroke="midnightblue" d="M516.75,-125.58C522.36,-116.24 528.65,-105.75 533.55,-97.58"/>
<polygon fill="midnightblue" stroke="midnightblue" points="513.61,-124.02 511.46,-134.4 519.61,-127.62 513.61,-124.02"/>
</g>
<!-- Node13 -->
<g id="node13" class="node">
<title>Node13</title>
<g id="a_node13"><a xlink:href="vulkan__voxel__rasterizer__3_8cpp.html" target="_top" xlink:title=" ">
<polygon fill="none" stroke="black" points="595,-0.5 595,-30.5 769,-30.5 769,-0.5 595,-0.5"/>
<text text-anchor="start" x="603" y="-18.5" font-family="Helvetica,sans-Serif" font-size="10.00">/github/workspace/src</text>
<text text-anchor="middle" x="682" y="-7.5" font-family="Helvetica,sans-Serif" font-size="10.00">/tests/vulkan_voxel_rasterizer_3.cpp</text>
</a>
</g>
</g>
<!-- Node10&#45;&gt;Node13 -->
<g id="edge16" class="edge">
<title>Node10&#45;&gt;Node13</title>
<path fill="none" stroke="midnightblue" d="M433.79,-133.4C376.67,-120.61 304.3,-103.5 300,-98 291.51,-87.15 290.92,-77.36 300,-67 319.15,-45.15 488.28,-29.7 594.97,-22.02"/>
<polygon fill="midnightblue" stroke="midnightblue" points="433.38,-136.9 443.9,-135.66 434.9,-130.06 433.38,-136.9"/>
</g>
<!-- Node14&#45;&gt;Node5 -->
<g id="edge18" class="edge">
<title>Node14&#45;&gt;Node5</title>
<path fill="none" stroke="midnightblue" d="M313.41,-197.41C288.98,-187.03 258.78,-174.2 236.13,-164.58"/>
<polygon fill="midnightblue" stroke="midnightblue" points="312.23,-200.71 322.8,-201.4 314.97,-194.26 312.23,-200.71"/>
</g>
<!-- Node15 -->
<g id="node15" class="node">
<title>Node15</title>
<g id="a_node15"><a xlink:href="objectinstance_8cpp.html" target="_top" xlink:title=" ">
<polygon fill="none" stroke="black" points="286.5,-134.5 286.5,-164.5 425.5,-164.5 425.5,-134.5 286.5,-134.5"/>
<text text-anchor="start" x="294.5" y="-152.5" font-family="Helvetica,sans-Serif" font-size="10.00">/github/workspace/src</text>
<text text-anchor="middle" x="356" y="-141.5" font-family="Helvetica,sans-Serif" font-size="10.00">/renderer/objectinstance.cpp</text>
</a>
</g>
</g>
<!-- Node14&#45;&gt;Node15 -->
<g id="edge19" class="edge">
<title>Node14&#45;&gt;Node15</title>
<path fill="none" stroke="midnightblue" d="M356,-191.11C356,-182.15 356,-172.32 356,-164.58"/>
<polygon fill="midnightblue" stroke="midnightblue" points="352.5,-191.4 356,-201.4 359.5,-191.4 352.5,-191.4"/>
</g>
<!-- Node14&#45;&gt;Node16 -->
<g id="edge20" class="edge">
<title>Node14&#45;&gt;Node16</title>
<path fill="none" stroke="midnightblue" d="M430.12,-199.49C482.57,-188.17 551.86,-173.2 600,-162.81"/>
<polygon fill="midnightblue" stroke="midnightblue" points="429.24,-196.1 420.2,-201.64 430.72,-202.95 429.24,-196.1"/>
</g>
<!-- Node16&#45;&gt;Node12 -->
<g id="edge28" class="edge">
<title>Node16&#45;&gt;Node12</title>
<path fill="none" stroke="midnightblue" d="M623.02,-129.3C605.03,-119.12 583.32,-106.85 566.9,-97.58"/>
<polygon fill="midnightblue" stroke="midnightblue" points="621.62,-132.52 632.05,-134.4 625.06,-126.43 621.62,-132.52"/>
</g>
<!-- Node16&#45;&gt;Node13 -->
<g id="edge29" class="edge">
<title>Node16&#45;&gt;Node13</title>
<path fill="none" stroke="midnightblue" d="M661.57,-124.39C666.77,-96.9 675.11,-52.89 679.34,-30.52"/>
<polygon fill="midnightblue" stroke="midnightblue" points="658.1,-123.9 659.68,-134.37 664.98,-125.2 658.1,-123.9"/>
</g>
<!-- Node17 -->
<g id="node17" class="node">
<title>Node17</title>
<g id="a_node17"><a xlink:href="scene_8cpp.html" target="_top" xlink:title=" ">
<polygon fill="none" stroke="black" points="685.5,-67.5 685.5,-97.5 798.5,-97.5 798.5,-67.5 685.5,-67.5"/>
<text text-anchor="start" x="693.5" y="-85.5" font-family="Helvetica,sans-Serif" font-size="10.00">/github/workspace/src</text>
<text text-anchor="middle" x="742" y="-74.5" font-family="Helvetica,sans-Serif" font-size="10.00">/renderer/scene.cpp</text>
</a>
</g>
</g>
<!-- Node16&#45;&gt;Node17 -->
<g id="edge21" class="edge">
<title>Node16&#45;&gt;Node17</title>
<path fill="none" stroke="midnightblue" d="M683.59,-128.17C696.59,-118.23 711.9,-106.51 723.59,-97.58"/>
<polygon fill="midnightblue" stroke="midnightblue" points="681.26,-125.54 675.44,-134.4 685.51,-131.1 681.26,-125.54"/>
</g>
<!-- Node18 -->
<g id="node18" class="node">
<title>Node18</title>
<g id="a_node18"><a xlink:href="objectlist_8h.html" target="_top" xlink:title=" ">
<polygon fill="none" stroke="black" points="816.5,-67.5 816.5,-97.5 931.5,-97.5 931.5,-67.5 816.5,-67.5"/>
<text text-anchor="start" x="824.5" y="-85.5" font-family="Helvetica,sans-Serif" font-size="10.00">/github/workspace/src</text>
<text text-anchor="middle" x="874" y="-74.5" font-family="Helvetica,sans-Serif" font-size="10.00">/renderer/ui/objectlist.h</text>
</a>
</g>
</g>
<!-- Node16&#45;&gt;Node18 -->
<g id="edge22" class="edge">
<title>Node16&#45;&gt;Node18</title>
<path fill="none" stroke="midnightblue" d="M713.49,-131.58C748.73,-121.02 793.57,-107.59 826.89,-97.61"/>
<polygon fill="midnightblue" stroke="midnightblue" points="712.39,-128.25 703.82,-134.48 714.4,-134.96 712.39,-128.25"/>
</g>
<!-- Node20 -->
<g id="node20" class="node">
<title>Node20</title>
<g id="a_node20"><a xlink:href="objectproperties_8h.html" target="_top" xlink:title=" ">
<polygon fill="none" stroke="black" points="949.5,-67.5 949.5,-97.5 1094.5,-97.5 1094.5,-67.5 949.5,-67.5"/>
<text text-anchor="start" x="957.5" y="-85.5" font-family="Helvetica,sans-Serif" font-size="10.00">/github/workspace/src</text>
<text text-anchor="middle" x="1022" y="-74.5" font-family="Helvetica,sans-Serif" font-size="10.00">/renderer/ui/objectproperties.h</text>
</a>
</g>
</g>
<!-- Node16&#45;&gt;Node20 -->
<g id="edge25" class="edge">
<title>Node16&#45;&gt;Node20</title>
<path fill="none" stroke="midnightblue" d="M723.64,-136.67C781.2,-126.45 866.59,-111.28 941,-98 943.67,-97.52 946.39,-97.04 949.14,-96.55"/>
<polygon fill="midnightblue" stroke="midnightblue" points="722.82,-133.26 713.58,-138.46 724.04,-140.16 722.82,-133.26"/>
</g>
<!-- Node18&#45;&gt;Node13 -->
<g id="edge24" class="edge">
<title>Node18&#45;&gt;Node13</title>
<path fill="none" stroke="midnightblue" d="M822.58,-64.09C791.58,-53.6 752.62,-40.41 723.58,-30.58"/>
<polygon fill="midnightblue" stroke="midnightblue" points="821.74,-67.5 832.34,-67.4 823.99,-60.87 821.74,-67.5"/>
</g>
<!-- Node19 -->
<g id="node19" class="node">
<title>Node19</title>
<g id="a_node19"><a xlink:href="objectlist_8cpp.html" target="_top" xlink:title=" ">
<polygon fill="none" stroke="black" points="806.5,-0.5 806.5,-30.5 931.5,-30.5 931.5,-0.5 806.5,-0.5"/>
<text text-anchor="start" x="814.5" y="-18.5" font-family="Helvetica,sans-Serif" font-size="10.00">/github/workspace/src</text>
<text text-anchor="middle" x="869" y="-7.5" font-family="Helvetica,sans-Serif" font-size="10.00">/renderer/ui/objectlist.cpp</text>
</a>
</g>
</g>
<!-- Node18&#45;&gt;Node19 -->
<g id="edge23" class="edge">
<title>Node18&#45;&gt;Node19</title>
<path fill="none" stroke="midnightblue" d="M872.15,-57.4C871.45,-48.37 870.69,-38.41 870.08,-30.58"/>
<polygon fill="midnightblue" stroke="midnightblue" points="868.66,-57.69 872.92,-67.4 875.64,-57.16 868.66,-57.69"/>
</g>
<!-- Node20&#45;&gt;Node13 -->
<g id="edge27" class="edge">
<title>Node20&#45;&gt;Node13</title>
<path fill="none" stroke="midnightblue" d="M939.55,-65.74C883.3,-54.98 809.47,-40.87 755.29,-30.51"/>
<polygon fill="midnightblue" stroke="midnightblue" points="939,-69.2 949.48,-67.64 940.31,-62.32 939,-69.2"/>
</g>
<!-- Node21 -->
<g id="node21" class="node">
<title>Node21</title>
<g id="a_node21"><a xlink:href="objectproperties_8cpp.html" target="_top" xlink:title=" ">
<polygon fill="none" stroke="black" points="949.5,-0.5 949.5,-30.5 1104.5,-30.5 1104.5,-0.5 949.5,-0.5"/>
<text text-anchor="start" x="957.5" y="-18.5" font-family="Helvetica,sans-Serif" font-size="10.00">/github/workspace/src</text>
<text text-anchor="middle" x="1027" y="-7.5" font-family="Helvetica,sans-Serif" font-size="10.00">/renderer/ui/objectproperties.cpp</text>
</a>
</g>
</g>
<!-- Node20&#45;&gt;Node21 -->
<g id="edge26" class="edge">
<title>Node20&#45;&gt;Node21</title>
<path fill="none" stroke="midnightblue" d="M1023.85,-57.4C1024.55,-48.37 1025.31,-38.41 1025.92,-30.58"/>
<polygon fill="midnightblue" stroke="midnightblue" points="1020.36,-57.16 1023.08,-67.4 1027.34,-57.69 1020.36,-57.16"/>
</g>
</g>
</svg>
