<?xml version="1.0" encoding="UTF-8" standalone="no"?>
<!DOCTYPE svg PUBLIC "-//W3C//DTD SVG 1.1//EN"
 "http://www.w3.org/Graphics/SVG/1.1/DTD/svg11.dtd">
<!-- Generated by graphviz version 2.49.3 (20211215.1918)
 -->
<!-- Title: /github/workspace/src/renderer/eventbus.h Pages: 1 -->
<!--zoomable 843 -->
<svg id="main" version="1.1" xmlns="http://www.w3.org/2000/svg" xmlns:xlink="http://www.w3.org/1999/xlink" xml:space="preserve" onload="init(evt)">
<style type="text/css"><![CDATA[
.edge:hover path { stroke: red; }
.edge:hover polygon { stroke: red; fill: red; }
]]></style>
<script type="text/javascript"><![CDATA[
var edges = document.getElementsByTagName('g');
if (edges && edges.length) {
  for (var i=0;i<edges.length;i++) {
    if (edges[i].id.substr(0,4)=='edge') {
      edges[i].setAttribute('class','edge');
    }
  }
}
]]></script>
        <defs>
                <circle id="rim" cx="0" cy="0" r="7"/>
                <circle id="rim2" cx="0" cy="0" r="3.5"/>
                <g id="zoomPlus">
                        <use xlink:href="#rim" fill="#404040">
                                <set attributeName="fill" to="#808080" begin="zoomplus.mouseover" end="zoomplus.mouseout"/>
                        </use>
                        <path d="M-4,0h8M0,-4v8" fill="none" stroke="white" stroke-width="1.5" pointer-events="none"/>
                </g>
                <g id="zoomMin">
                        <use xlink:href="#rim" fill="#404040">
                                <set attributeName="fill" to="#808080" begin="zoomminus.mouseover" end="zoomminus.mouseout"/>
                        </use>
                        <path d="M-4,0h8" fill="none" stroke="white" stroke-width="1.5" pointer-events="none"/>
                </g>
                <g id="dirArrow">
                        <path fill="none" stroke="white" stroke-width="1.5" d="M0,-3.0v7 M-2.5,-0.5L0,-3.0L2.5,-0.5"/>
                </g>
               <g id="resetDef">
                       <use xlink:href="#rim2" fill="#404040">
                               <set attributeName="fill" to="#808080" begin="reset.mouseover" end="reset.mouseout"/>
                       </use>
               </g>
        </defs>

<script type="text/javascript">
var viewWidth = 1309;
var viewHeight = 843;
var sectionId = 'dynsection-1';
</script>
<script xlink:href="svgpan.js"/>
<svg id="graph" class="graph">
<g id="viewport">
<title>/github/workspace/src/renderer/eventbus.h</title>
<!-- Node1 -->
<g id="node1" class="node">
<title>Node1</title>
<g id="a_node1"><a xlink:title=" ">
<polygon fill="#bfbfbf" stroke="black" points="679.5,-804.5 679.5,-834.5 792.5,-834.5 792.5,-804.5 679.5,-804.5"/>
<text text-anchor="start" x="687.5" y="-822.5" font-family="Helvetica,sans-Serif" font-size="10.00">/github/workspace/src</text>
<text text-anchor="middle" x="736" y="-811.5" font-family="Helvetica,sans-Serif" font-size="10.00">/renderer/eventbus.h</text>
</a>
</g>
</g>
<!-- Node2 -->
<g id="node2" class="node">
<title>Node2</title>
<g id="a_node2"><a xlink:href="eventbus_8cpp.html" target="_top" xlink:title=" ">
<polygon fill="none" stroke="black" points="604,-737.5 604,-767.5 720,-767.5 720,-737.5 604,-737.5"/>
<text text-anchor="start" x="612" y="-755.5" font-family="Helvetica,sans-Serif" font-size="10.00">/github/workspace/src</text>
<text text-anchor="middle" x="662" y="-744.5" font-family="Helvetica,sans-Serif" font-size="10.00">/renderer/eventbus.cpp</text>
</a>
</g>
</g>
<!-- Node1&#45;&gt;Node2 -->
<g id="edge1" class="edge">
<title>Node1&#45;&gt;Node2</title>
<path fill="none" stroke="midnightblue" d="M712.2,-797.6C701.03,-787.78 688.01,-776.34 678.03,-767.58"/>
<polygon fill="midnightblue" stroke="midnightblue" points="710.12,-800.43 719.94,-804.4 714.74,-795.17 710.12,-800.43"/>
</g>
<!-- Node3 -->
<g id="node3" class="node">
<title>Node3</title>
<g id="a_node3"><a xlink:href="swapchain_8h.html" target="_top" xlink:title=" ">
<polygon fill="none" stroke="black" points="738.5,-737.5 738.5,-767.5 881.5,-767.5 881.5,-737.5 738.5,-737.5"/>
<text text-anchor="start" x="746.5" y="-755.5" font-family="Helvetica,sans-Serif" font-size="10.00">/github/workspace/src</text>
<text text-anchor="middle" x="810" y="-744.5" font-family="Helvetica,sans-Serif" font-size="10.00">/renderer/vulkan/swapchain.h</text>
</a>
</g>
</g>
<!-- Node1&#45;&gt;Node3 -->
<g id="edge2" class="edge">
<title>Node1&#45;&gt;Node3</title>
<path fill="none" stroke="midnightblue" d="M759.8,-797.6C770.97,-787.78 783.99,-776.34 793.97,-767.58"/>
<polygon fill="midnightblue" stroke="midnightblue" points="757.26,-795.17 752.06,-804.4 761.88,-800.43 757.26,-795.17"/>
</g>
<!-- Node4 -->
<g id="node4" class="node">
<title>Node4</title>
<g id="a_node4"><a xlink:href="framebuffer_8h.html" target="_top" xlink:title=" ">
<polygon fill="none" stroke="black" points="473,-603.5 473,-633.5 619,-633.5 619,-603.5 473,-603.5"/>
<text text-anchor="start" x="481" y="-621.5" font-family="Helvetica,sans-Serif" font-size="10.00">/github/workspace/src</text>
<text text-anchor="middle" x="546" y="-610.5" font-family="Helvetica,sans-Serif" font-size="10.00">/renderer/vulkan/framebuffer.h</text>
</a>
</g>
</g>
<!-- Node3&#45;&gt;Node4 -->
<g id="edge3" class="edge">
<title>Node3&#45;&gt;Node4</title>
<path fill="none" stroke="midnightblue" d="M748.01,-734.22C722.01,-725.43 691.94,-713.87 666,-701 625.19,-680.74 580.98,-650.92 559.1,-633.52"/>
<polygon fill="midnightblue" stroke="midnightblue" points="747.17,-737.63 757.76,-737.46 749.37,-730.99 747.17,-737.63"/>
</g>
<!-- Node20 -->
<g id="node20" class="node">
<title>Node20</title>
<g id="a_node20"><a xlink:href="vulkan__voxel__rasterizer__2_8cpp.html" target="_top" xlink:title=" ">
<polygon fill="none" stroke="black" points="556,-0.5 556,-30.5 730,-30.5 730,-0.5 556,-0.5"/>
<text text-anchor="start" x="564" y="-18.5" font-family="Helvetica,sans-Serif" font-size="10.00">/github/workspace/src</text>
<text text-anchor="middle" x="643" y="-7.5" font-family="Helvetica,sans-Serif" font-size="10.00">/tests/vulkan_voxel_rasterizer_2.cpp</text>
</a>
</g>
</g>
<!-- Node3&#45;&gt;Node20 -->
<g id="edge57" class="edge">
<title>Node3&#45;&gt;Node20</title>
<path fill="none" stroke="midnightblue" d="M891.77,-750.36C983.31,-744.23 1119,-718.46 1119,-619.5 1119,-619.5 1119,-619.5 1119,-148.5 1119,-68.69 867.39,-35.16 730.03,-22.8"/>
<polygon fill="midnightblue" stroke="midnightblue" points="891.44,-746.87 881.67,-750.96 891.86,-753.86 891.44,-746.87"/>
</g>
<!-- Node31 -->
<g id="node31" class="node">
<title>Node31</title>
<g id="a_node31"><a xlink:href="vulkan__voxel__rasterizer_8cpp.html" target="_top" xlink:title=" ">
<polygon fill="none" stroke="black" points="673,-335.5 673,-365.5 837,-365.5 837,-335.5 673,-335.5"/>
<text text-anchor="start" x="681" y="-353.5" font-family="Helvetica,sans-Serif" font-size="10.00">/github/workspace/src</text>
<text text-anchor="middle" x="755" y="-342.5" font-family="Helvetica,sans-Serif" font-size="10.00">/tests/vulkan_voxel_rasterizer.cpp</text>
</a>
</g>
</g>
<!-- Node3&#45;&gt;Node31 -->
<g id="edge56" class="edge">
<title>Node3&#45;&gt;Node31</title>
<path fill="none" stroke="midnightblue" d="M832.95,-730.04C861.84,-700.35 904.64,-645.59 878,-603 858.6,-571.99 826.73,-595.65 804,-567 754.75,-504.94 753.07,-402.78 754.26,-365.59"/>
<polygon fill="midnightblue" stroke="midnightblue" points="830.21,-727.84 825.6,-737.38 835.15,-732.79 830.21,-727.84"/>
</g>
<!-- Node34 -->
<g id="node34" class="node">
<title>Node34</title>
<g id="a_node34"><a xlink:href="graphicspipeline_8h.html" target="_top" xlink:title=" ">
<polygon fill="none" stroke="black" points="924.5,-603.5 924.5,-633.5 1091.5,-633.5 1091.5,-603.5 924.5,-603.5"/>
<text text-anchor="start" x="932.5" y="-621.5" font-family="Helvetica,sans-Serif" font-size="10.00">/github/workspace/src</text>
<text text-anchor="middle" x="1008" y="-610.5" font-family="Helvetica,sans-Serif" font-size="10.00">/renderer/vulkan/graphicspipeline.h</text>
</a>
</g>
</g>
<!-- Node3&#45;&gt;Node34 -->
<g id="edge43" class="edge">
<title>Node3&#45;&gt;Node34</title>
<path fill="none" stroke="midnightblue" d="M852.04,-733.2C870.67,-724.41 892.5,-713.15 911,-701 942.44,-680.35 975.16,-650.92 993.42,-633.66"/>
<polygon fill="midnightblue" stroke="midnightblue" points="850.51,-730.05 842.91,-737.43 853.45,-736.4 850.51,-730.05"/>
</g>
<!-- Node36 -->
<g id="node36" class="node">
<title>Node36</title>
<g id="a_node36"><a xlink:href="renderpass_8h.html" target="_top" xlink:title=" ">
<polygon fill="none" stroke="black" points="684.5,-670.5 684.5,-700.5 829.5,-700.5 829.5,-670.5 684.5,-670.5"/>
<text text-anchor="start" x="692.5" y="-688.5" font-family="Helvetica,sans-Serif" font-size="10.00">/github/workspace/src</text>
<text text-anchor="middle" x="757" y="-677.5" font-family="Helvetica,sans-Serif" font-size="10.00">/renderer/vulkan/renderpass.h</text>
</a>
</g>
</g>
<!-- Node3&#45;&gt;Node36 -->
<g id="edge49" class="edge">
<title>Node3&#45;&gt;Node36</title>
<path fill="none" stroke="midnightblue" d="M792.02,-729.45C784.23,-719.9 775.35,-709 768.48,-700.58"/>
<polygon fill="midnightblue" stroke="midnightblue" points="789.47,-731.86 798.5,-737.4 794.89,-727.43 789.47,-731.86"/>
</g>
<!-- Node38 -->
<g id="node38" class="node">
<title>Node38</title>
<g id="a_node38"><a xlink:href="swapchain_8cpp.html" target="_top" xlink:title=" ">
<polygon fill="none" stroke="black" points="1147,-670.5 1147,-700.5 1301,-700.5 1301,-670.5 1147,-670.5"/>
<text text-anchor="start" x="1155" y="-688.5" font-family="Helvetica,sans-Serif" font-size="10.00">/github/workspace/src</text>
<text text-anchor="middle" x="1224" y="-677.5" font-family="Helvetica,sans-Serif" font-size="10.00">/renderer/vulkan/swapchain.cpp</text>
</a>
</g>
</g>
<!-- Node3&#45;&gt;Node38 -->
<g id="edge55" class="edge">
<title>Node3&#45;&gt;Node38</title>
<path fill="none" stroke="midnightblue" d="M891.76,-738.78C957.07,-728.61 1050.91,-713.96 1133,-701 1137.42,-700.3 1141.97,-699.58 1146.56,-698.86"/>
<polygon fill="midnightblue" stroke="midnightblue" points="890.87,-735.38 881.53,-740.38 891.95,-742.3 890.87,-735.38"/>
</g>
<!-- Node4&#45;&gt;Node3 -->
<g id="edge41" class="edge">
<title>Node4&#45;&gt;Node3</title>
<path fill="none" stroke="midnightblue" d="M580.11,-638.95C607.58,-656.65 647.17,-682.72 684,-701 713.25,-715.52 747.76,-728.36 773.37,-737.46"/>
<polygon fill="midnightblue" stroke="midnightblue" points="581.95,-635.97 571.64,-633.52 578.17,-641.87 581.95,-635.97"/>
</g>
<!-- Node5 -->
<g id="node5" class="node">
<title>Node5</title>
<g id="a_node5"><a xlink:href="commandbuffer_8h.html" target="_top" xlink:title=" ">
<polygon fill="none" stroke="black" points="464,-536.5 464,-566.5 628,-566.5 628,-536.5 464,-536.5"/>
<text text-anchor="start" x="472" y="-554.5" font-family="Helvetica,sans-Serif" font-size="10.00">/github/workspace/src</text>
<text text-anchor="middle" x="546" y="-543.5" font-family="Helvetica,sans-Serif" font-size="10.00">/renderer/vulkan/commandbuffer.h</text>
</a>
</g>
</g>
<!-- Node4&#45;&gt;Node5 -->
<g id="edge4" class="edge">
<title>Node4&#45;&gt;Node5</title>
<path fill="none" stroke="midnightblue" d="M546,-593.11C546,-584.15 546,-574.32 546,-566.58"/>
<polygon fill="midnightblue" stroke="midnightblue" points="542.5,-593.4 546,-603.4 549.5,-593.4 542.5,-593.4"/>
</g>
<!-- Node4&#45;&gt;Node31 -->
<g id="edge42" class="edge">
<title>Node4&#45;&gt;Node31</title>
<path fill="none" stroke="midnightblue" d="M591.68,-598.86C607.44,-590.79 624.31,-580.15 637,-567 694.14,-507.78 679.28,-472.93 721,-402 728.4,-389.43 737.7,-375.74 744.7,-365.78"/>
<polygon fill="midnightblue" stroke="midnightblue" points="590.02,-595.77 582.56,-603.31 593.09,-602.06 590.02,-595.77"/>
</g>
<!-- Node33 -->
<g id="node33" class="node">
<title>Node33</title>
<g id="a_node33"><a xlink:href="framebuffer_8cpp.html" target="_top" xlink:title=" ">
<polygon fill="none" stroke="black" points="290,-536.5 290,-566.5 446,-566.5 446,-536.5 290,-536.5"/>
<text text-anchor="start" x="298" y="-554.5" font-family="Helvetica,sans-Serif" font-size="10.00">/github/workspace/src</text>
<text text-anchor="middle" x="368" y="-543.5" font-family="Helvetica,sans-Serif" font-size="10.00">/renderer/vulkan/framebuffer.cpp</text>
</a>
</g>
</g>
<!-- Node4&#45;&gt;Node33 -->
<g id="edge40" class="edge">
<title>Node4&#45;&gt;Node33</title>
<path fill="none" stroke="midnightblue" d="M497.95,-599.96C469.28,-589.48 433.36,-576.37 406.55,-566.58"/>
<polygon fill="midnightblue" stroke="midnightblue" points="496.78,-603.25 507.38,-603.4 499.18,-596.68 496.78,-603.25"/>
</g>
<!-- Node5&#45;&gt;Node3 -->
<g id="edge38" class="edge">
<title>Node5&#45;&gt;Node3</title>
<path fill="none" stroke="midnightblue" d="M498.05,-571.21C484.62,-578.93 471.62,-589.35 464,-603 457.28,-615.03 456.46,-622.47 464,-634 494.5,-680.66 646.2,-718.63 738.31,-737.86"/>
<polygon fill="midnightblue" stroke="midnightblue" points="499.69,-574.3 506.88,-566.52 496.41,-568.12 499.69,-574.3"/>
</g>
<!-- Node6 -->
<g id="node6" class="node">
<title>Node6</title>
<g id="a_node6"><a xlink:href="buffer_8h.html" target="_top" xlink:title=" ">
<polygon fill="none" stroke="black" points="317.5,-469.5 317.5,-499.5 438.5,-499.5 438.5,-469.5 317.5,-469.5"/>
<text text-anchor="start" x="325.5" y="-487.5" font-family="Helvetica,sans-Serif" font-size="10.00">/github/workspace/src</text>
<text text-anchor="middle" x="378" y="-476.5" font-family="Helvetica,sans-Serif" font-size="10.00">/renderer/vulkan/buffer.h</text>
</a>
</g>
</g>
<!-- Node5&#45;&gt;Node6 -->
<g id="edge5" class="edge">
<title>Node5&#45;&gt;Node6</title>
<path fill="none" stroke="midnightblue" d="M499.95,-532.68C473,-522.26 439.46,-509.28 414.38,-499.58"/>
<polygon fill="midnightblue" stroke="midnightblue" points="498.96,-536.05 509.55,-536.4 501.48,-529.52 498.96,-536.05"/>
</g>
<!-- Node5&#45;&gt;Node31 -->
<g id="edge39" class="edge">
<title>Node5&#45;&gt;Node31</title>
<path fill="none" stroke="midnightblue" d="M594.83,-531.93C610.8,-524 627.6,-513.42 640,-500 672.27,-465.06 652.86,-438.79 683,-402 695.29,-387 713.1,-374.45 727.94,-365.62"/>
<polygon fill="midnightblue" stroke="midnightblue" points="593.12,-528.87 585.57,-536.3 596.11,-535.2 593.12,-528.87"/>
</g>
<!-- Node32 -->
<g id="node32" class="node">
<title>Node32</title>
<g id="a_node32"><a xlink:href="commandbuffer_8cpp.html" target="_top" xlink:title=" ">
<polygon fill="none" stroke="black" points="457,-469.5 457,-499.5 631,-499.5 631,-469.5 457,-469.5"/>
<text text-anchor="start" x="465" y="-487.5" font-family="Helvetica,sans-Serif" font-size="10.00">/github/workspace/src</text>
<text text-anchor="middle" x="544" y="-476.5" font-family="Helvetica,sans-Serif" font-size="10.00">/renderer/vulkan/commandbuffer.cpp</text>
</a>
</g>
</g>
<!-- Node5&#45;&gt;Node32 -->
<g id="edge37" class="edge">
<title>Node5&#45;&gt;Node32</title>
<path fill="none" stroke="midnightblue" d="M545.25,-526.11C544.97,-517.15 544.67,-507.32 544.43,-499.58"/>
<polygon fill="midnightblue" stroke="midnightblue" points="541.76,-526.51 545.57,-536.4 548.76,-526.29 541.76,-526.51"/>
</g>
<!-- Node7 -->
<g id="node7" class="node">
<title>Node7</title>
<g id="a_node7"><a xlink:href="buffer_8cpp.html" target="_top" xlink:title=" ">
<polygon fill="none" stroke="black" points="499.5,-402.5 499.5,-432.5 630.5,-432.5 630.5,-402.5 499.5,-402.5"/>
<text text-anchor="start" x="507.5" y="-420.5" font-family="Helvetica,sans-Serif" font-size="10.00">/github/workspace/src</text>
<text text-anchor="middle" x="565" y="-409.5" font-family="Helvetica,sans-Serif" font-size="10.00">/renderer/vulkan/buffer.cpp</text>
</a>
</g>
</g>
<!-- Node6&#45;&gt;Node7 -->
<g id="edge6" class="edge">
<title>Node6&#45;&gt;Node7</title>
<path fill="none" stroke="midnightblue" d="M428.08,-466.09C458.27,-455.6 496.22,-442.41 524.5,-432.58"/>
<polygon fill="midnightblue" stroke="midnightblue" points="426.87,-462.81 418.58,-469.4 429.17,-469.42 426.87,-462.81"/>
</g>
<!-- Node8 -->
<g id="node8" class="node">
<title>Node8</title>
<g id="a_node8"><a xlink:href="bufferview_8h.html" target="_top" xlink:title=" ">
<polygon fill="none" stroke="black" points="169.5,-402.5 169.5,-432.5 310.5,-432.5 310.5,-402.5 169.5,-402.5"/>
<text text-anchor="start" x="177.5" y="-420.5" font-family="Helvetica,sans-Serif" font-size="10.00">/github/workspace/src</text>
<text text-anchor="middle" x="240" y="-409.5" font-family="Helvetica,sans-Serif" font-size="10.00">/renderer/vulkan/bufferview.h</text>
</a>
</g>
</g>
<!-- Node6&#45;&gt;Node8 -->
<g id="edge7" class="edge">
<title>Node6&#45;&gt;Node8</title>
<path fill="none" stroke="midnightblue" d="M339,-465.13C317.07,-454.8 290.13,-442.11 269.89,-432.58"/>
<polygon fill="midnightblue" stroke="midnightblue" points="337.52,-468.3 348.06,-469.4 340.5,-461.97 337.52,-468.3"/>
</g>
<!-- Node10 -->
<g id="node10" class="node">
<title>Node10</title>
<g id="a_node10"><a xlink:href="uniformbuffer_8h.html" target="_top" xlink:title=" ">
<polygon fill="none" stroke="black" points="328.5,-402.5 328.5,-432.5 481.5,-432.5 481.5,-402.5 328.5,-402.5"/>
<text text-anchor="start" x="336.5" y="-420.5" font-family="Helvetica,sans-Serif" font-size="10.00">/github/workspace/src</text>
<text text-anchor="middle" x="405" y="-409.5" font-family="Helvetica,sans-Serif" font-size="10.00">/renderer/vulkan/uniformbuffer.h</text>
</a>
</g>
</g>
<!-- Node6&#45;&gt;Node10 -->
<g id="edge9" class="edge">
<title>Node6&#45;&gt;Node10</title>
<path fill="none" stroke="midnightblue" d="M387.77,-459.99C391.58,-450.8 395.83,-440.58 399.15,-432.58"/>
<polygon fill="midnightblue" stroke="midnightblue" points="384.46,-458.82 383.86,-469.4 390.93,-461.5 384.46,-458.82"/>
</g>
<!-- Node9 -->
<g id="node9" class="node">
<title>Node9</title>
<g id="a_node9"><a xlink:href="bufferview_8cpp.html" target="_top" xlink:title=" ">
<polygon fill="none" stroke="black" points="0,-335.5 0,-365.5 152,-365.5 152,-335.5 0,-335.5"/>
<text text-anchor="start" x="8" y="-353.5" font-family="Helvetica,sans-Serif" font-size="10.00">/github/workspace/src</text>
<text text-anchor="middle" x="76" y="-342.5" font-family="Helvetica,sans-Serif" font-size="10.00">/renderer/vulkan/bufferview.cpp</text>
</a>
</g>
</g>
<!-- Node8&#45;&gt;Node9 -->
<g id="edge8" class="edge">
<title>Node8&#45;&gt;Node9</title>
<path fill="none" stroke="midnightblue" d="M195.04,-398.68C168.74,-388.26 136,-375.28 111.52,-365.58"/>
<polygon fill="midnightblue" stroke="midnightblue" points="193.83,-401.97 204.41,-402.4 196.41,-395.46 193.83,-401.97"/>
</g>
<!-- Node11 -->
<g id="node11" class="node">
<title>Node11</title>
<g id="a_node11"><a xlink:href="materiallibrary_8h.html" target="_top" xlink:title=" ">
<polygon fill="none" stroke="black" points="529.5,-335.5 529.5,-365.5 654.5,-365.5 654.5,-335.5 529.5,-335.5"/>
<text text-anchor="start" x="537.5" y="-353.5" font-family="Helvetica,sans-Serif" font-size="10.00">/github/workspace/src</text>
<text text-anchor="middle" x="592" y="-342.5" font-family="Helvetica,sans-Serif" font-size="10.00">/renderer/materiallibrary.h</text>
</a>
</g>
</g>
<!-- Node10&#45;&gt;Node11 -->
<g id="edge10" class="edge">
<title>Node10&#45;&gt;Node11</title>
<path fill="none" stroke="midnightblue" d="M455.08,-399.09C485.27,-388.6 523.22,-375.41 551.5,-365.58"/>
<polygon fill="midnightblue" stroke="midnightblue" points="453.87,-395.81 445.58,-402.4 456.17,-402.42 453.87,-395.81"/>
</g>
<!-- Node26 -->
<g id="node26" class="node">
<title>Node26</title>
<g id="a_node26"><a xlink:href="descriptorset_8h.html" target="_top" xlink:title=" ">
<polygon fill="none" stroke="black" points="170.5,-335.5 170.5,-365.5 323.5,-365.5 323.5,-335.5 170.5,-335.5"/>
<text text-anchor="start" x="178.5" y="-353.5" font-family="Helvetica,sans-Serif" font-size="10.00">/github/workspace/src</text>
<text text-anchor="middle" x="247" y="-342.5" font-family="Helvetica,sans-Serif" font-size="10.00">/renderer/vulkan/descriptorset.h</text>
</a>
</g>
</g>
<!-- Node10&#45;&gt;Node26 -->
<g id="edge29" class="edge">
<title>Node10&#45;&gt;Node26</title>
<path fill="none" stroke="midnightblue" d="M361.35,-398.54C336.07,-388.14 304.7,-375.24 281.22,-365.58"/>
<polygon fill="midnightblue" stroke="midnightblue" points="360.14,-401.83 370.72,-402.4 362.8,-395.35 360.14,-401.83"/>
</g>
<!-- Node30 -->
<g id="node30" class="node">
<title>Node30</title>
<g id="a_node30"><a xlink:href="uniformbuffer_8cpp.html" target="_top" xlink:title=" ">
<polygon fill="none" stroke="black" points="342,-335.5 342,-365.5 506,-365.5 506,-335.5 342,-335.5"/>
<text text-anchor="start" x="350" y="-353.5" font-family="Helvetica,sans-Serif" font-size="10.00">/github/workspace/src</text>
<text text-anchor="middle" x="424" y="-342.5" font-family="Helvetica,sans-Serif" font-size="10.00">/renderer/vulkan/uniformbuffer.cpp</text>
</a>
</g>
</g>
<!-- Node10&#45;&gt;Node30 -->
<g id="edge35" class="edge">
<title>Node10&#45;&gt;Node30</title>
<path fill="none" stroke="midnightblue" d="M411.96,-392.7C414.62,-383.59 417.57,-373.49 419.89,-365.58"/>
<polygon fill="midnightblue" stroke="midnightblue" points="408.57,-391.82 409.12,-402.4 415.29,-393.78 408.57,-391.82"/>
</g>
<!-- Node10&#45;&gt;Node31 -->
<g id="edge36" class="edge">
<title>Node10&#45;&gt;Node31</title>
<path fill="none" stroke="midnightblue" d="M490.35,-400.65C548.11,-389.92 623.71,-375.88 679.32,-365.55"/>
<polygon fill="midnightblue" stroke="midnightblue" points="489.71,-397.21 480.51,-402.48 490.98,-404.09 489.71,-397.21"/>
</g>
<!-- Node12 -->
<g id="node12" class="node">
<title>Node12</title>
<g id="a_node12"><a xlink:href="material_8h.html" target="_top" xlink:title=" ">
<polygon fill="none" stroke="black" points="716.5,-268.5 716.5,-298.5 829.5,-298.5 829.5,-268.5 716.5,-268.5"/>
<text text-anchor="start" x="724.5" y="-286.5" font-family="Helvetica,sans-Serif" font-size="10.00">/github/workspace/src</text>
<text text-anchor="middle" x="773" y="-275.5" font-family="Helvetica,sans-Serif" font-size="10.00">/renderer/material.h</text>
</a>
</g>
</g>
<!-- Node11&#45;&gt;Node12 -->
<g id="edge11" class="edge">
<title>Node11&#45;&gt;Node12</title>
<path fill="none" stroke="midnightblue" d="M635.15,-331.82C663.24,-321.37 699.71,-308.32 728.13,-298.58"/>
<polygon fill="midnightblue" stroke="midnightblue" points="633.73,-328.61 625.6,-335.4 636.19,-335.17 633.73,-328.61"/>
</g>
<!-- Node25 -->
<g id="node25" class="node">
<title>Node25</title>
<g id="a_node25"><a xlink:href="materiallibrary_8cpp.html" target="_top" xlink:title=" ">
<polygon fill="none" stroke="black" points="524,-268.5 524,-298.5 660,-298.5 660,-268.5 524,-268.5"/>
<text text-anchor="start" x="532" y="-286.5" font-family="Helvetica,sans-Serif" font-size="10.00">/github/workspace/src</text>
<text text-anchor="middle" x="592" y="-275.5" font-family="Helvetica,sans-Serif" font-size="10.00">/renderer/materiallibrary.cpp</text>
</a>
</g>
</g>
<!-- Node11&#45;&gt;Node25 -->
<g id="edge28" class="edge">
<title>Node11&#45;&gt;Node25</title>
<path fill="none" stroke="midnightblue" d="M592,-325.11C592,-316.15 592,-306.32 592,-298.58"/>
<polygon fill="midnightblue" stroke="midnightblue" points="588.5,-325.4 592,-335.4 595.5,-325.4 588.5,-325.4"/>
</g>
<!-- Node12&#45;&gt;Node11 -->
<g id="edge16" class="edge">
<title>Node12&#45;&gt;Node11</title>
<path fill="none" stroke="midnightblue" d="M729.93,-302.15C701.86,-312.59 665.39,-325.64 636.95,-335.4"/>
<polygon fill="midnightblue" stroke="midnightblue" points="731.34,-305.36 739.48,-298.58 728.88,-298.8 731.34,-305.36"/>
</g>
<!-- Node13 -->
<g id="node13" class="node">
<title>Node13</title>
<g id="a_node13"><a xlink:href="mastermaterial_8h.html" target="_top" xlink:title=" ">
<polygon fill="none" stroke="black" points="793,-134.5 793,-164.5 923,-164.5 923,-134.5 793,-134.5"/>
<text text-anchor="start" x="801" y="-152.5" font-family="Helvetica,sans-Serif" font-size="10.00">/github/workspace/src</text>
<text text-anchor="middle" x="858" y="-141.5" font-family="Helvetica,sans-Serif" font-size="10.00">/renderer/mastermaterial.h</text>
</a>
</g>
</g>
<!-- Node12&#45;&gt;Node13 -->
<g id="edge12" class="edge">
<title>Node12&#45;&gt;Node13</title>
<path fill="none" stroke="midnightblue" d="M807.8,-262.7C819.3,-254.56 831.14,-244.17 839,-232 852.48,-211.13 856.43,-181.78 857.56,-164.59"/>
<polygon fill="midnightblue" stroke="midnightblue" points="805.52,-260.01 799.14,-268.47 809.41,-265.83 805.52,-260.01"/>
</g>
<!-- Node15 -->
<g id="node15" class="node">
<title>Node15</title>
<g id="a_node15"><a xlink:href="material_8cpp.html" target="_top" xlink:title=" ">
<polygon fill="none" stroke="black" points="716.5,-201.5 716.5,-231.5 829.5,-231.5 829.5,-201.5 716.5,-201.5"/>
<text text-anchor="start" x="724.5" y="-219.5" font-family="Helvetica,sans-Serif" font-size="10.00">/github/workspace/src</text>
<text text-anchor="middle" x="773" y="-208.5" font-family="Helvetica,sans-Serif" font-size="10.00">/renderer/material.cpp</text>
</a>
</g>
</g>
<!-- Node12&#45;&gt;Node15 -->
<g id="edge15" class="edge">
<title>Node12&#45;&gt;Node15</title>
<path fill="none" stroke="midnightblue" d="M773,-258.11C773,-249.15 773,-239.32 773,-231.58"/>
<polygon fill="midnightblue" stroke="midnightblue" points="769.5,-258.4 773,-268.4 776.5,-258.4 769.5,-258.4"/>
</g>
<!-- Node16 -->
<g id="node16" class="node">
<title>Node16</title>
<g id="a_node16"><a xlink:href="mesh_8h.html" target="_top" xlink:title=" ">
<polygon fill="none" stroke="black" points="546.5,-201.5 546.5,-231.5 659.5,-231.5 659.5,-201.5 546.5,-201.5"/>
<text text-anchor="start" x="554.5" y="-219.5" font-family="Helvetica,sans-Serif" font-size="10.00">/github/workspace/src</text>
<text text-anchor="middle" x="603" y="-208.5" font-family="Helvetica,sans-Serif" font-size="10.00">/renderer/mesh.h</text>
</a>
</g>
</g>
<!-- Node12&#45;&gt;Node16 -->
<g id="edge17" class="edge">
<title>Node12&#45;&gt;Node16</title>
<path fill="none" stroke="midnightblue" d="M726.76,-264.82C699.43,-254.37 665.31,-241.32 639.82,-231.58"/>
<polygon fill="midnightblue" stroke="midnightblue" points="725.52,-268.09 736.11,-268.4 728.02,-261.56 725.52,-268.09"/>
</g>
<!-- Node13&#45;&gt;Node11 -->
<g id="edge14" class="edge">
<title>Node13&#45;&gt;Node11</title>
<path fill="none" stroke="midnightblue" d="M782.98,-161.93C756.24,-169.26 727.66,-181.29 707,-201 673.2,-233.24 698.38,-262.68 669,-299 656.53,-314.41 638.08,-326.74 622.36,-335.36"/>
<polygon fill="midnightblue" stroke="midnightblue" points="783.91,-165.3 792.73,-159.43 782.18,-158.52 783.91,-165.3"/>
</g>
<!-- Node14 -->
<g id="node14" class="node">
<title>Node14</title>
<g id="a_node14"><a xlink:href="mastermaterial_8cpp.html" target="_top" xlink:title=" ">
<polygon fill="none" stroke="black" points="817,-67.5 817,-97.5 957,-97.5 957,-67.5 817,-67.5"/>
<text text-anchor="start" x="825" y="-85.5" font-family="Helvetica,sans-Serif" font-size="10.00">/github/workspace/src</text>
<text text-anchor="middle" x="887" y="-74.5" font-family="Helvetica,sans-Serif" font-size="10.00">/renderer/mastermaterial.cpp</text>
</a>
</g>
</g>
<!-- Node13&#45;&gt;Node14 -->
<g id="edge13" class="edge">
<title>Node13&#45;&gt;Node14</title>
<path fill="none" stroke="midnightblue" d="M868.49,-124.99C872.59,-115.8 877.15,-105.58 880.72,-97.58"/>
<polygon fill="midnightblue" stroke="midnightblue" points="865.17,-123.84 864.29,-134.4 871.56,-126.69 865.17,-123.84"/>
</g>
<!-- Node16&#45;&gt;Node13 -->
<g id="edge18" class="edge">
<title>Node16&#45;&gt;Node13</title>
<path fill="none" stroke="midnightblue" d="M667.79,-198.98C709.44,-188.37 762.98,-174.72 802.64,-164.61"/>
<polygon fill="midnightblue" stroke="midnightblue" points="666.84,-195.61 658.02,-201.48 668.57,-202.4 666.84,-195.61"/>
</g>
<!-- Node17 -->
<g id="node17" class="node">
<title>Node17</title>
<g id="a_node17"><a xlink:href="mesh_8cpp.html" target="_top" xlink:title=" ">
<polygon fill="none" stroke="black" points="349.5,-134.5 349.5,-164.5 462.5,-164.5 462.5,-134.5 349.5,-134.5"/>
<text text-anchor="start" x="357.5" y="-152.5" font-family="Helvetica,sans-Serif" font-size="10.00">/github/workspace/src</text>
<text text-anchor="middle" x="406" y="-141.5" font-family="Helvetica,sans-Serif" font-size="10.00">/renderer/mesh.cpp</text>
</a>
</g>
</g>
<!-- Node16&#45;&gt;Node17 -->
<g id="edge19" class="edge">
<title>Node16&#45;&gt;Node17</title>
<path fill="none" stroke="midnightblue" d="M550.65,-198.23C518.78,-187.71 478.59,-174.45 448.66,-164.58"/>
<polygon fill="midnightblue" stroke="midnightblue" points="549.66,-201.59 560.25,-201.4 551.85,-194.94 549.66,-201.59"/>
</g>
<!-- Node18 -->
<g id="node18" class="node">
<title>Node18</title>
<g id="a_node18"><a xlink:href="modelloader_8h.html" target="_top" xlink:title=" ">
<polygon fill="none" stroke="black" points="627,-134.5 627,-164.5 745,-164.5 745,-134.5 627,-134.5"/>
<text text-anchor="start" x="635" y="-152.5" font-family="Helvetica,sans-Serif" font-size="10.00">/github/workspace/src</text>
<text text-anchor="middle" x="686" y="-141.5" font-family="Helvetica,sans-Serif" font-size="10.00">/renderer/modelloader.h</text>
</a>
</g>
</g>
<!-- Node16&#45;&gt;Node18 -->
<g id="edge20" class="edge">
<title>Node16&#45;&gt;Node18</title>
<path fill="none" stroke="midnightblue" d="M628.96,-195.17C641.65,-185.23 656.61,-173.51 668.03,-164.58"/>
<polygon fill="midnightblue" stroke="midnightblue" points="626.72,-192.47 621.01,-201.4 631.04,-197.99 626.72,-192.47"/>
</g>
<!-- Node21 -->
<g id="node21" class="node">
<title>Node21</title>
<g id="a_node21"><a xlink:href="objectinstance_8h.html" target="_top" xlink:title=" ">
<polygon fill="none" stroke="black" points="481,-134.5 481,-164.5 609,-164.5 609,-134.5 481,-134.5"/>
<text text-anchor="start" x="489" y="-152.5" font-family="Helvetica,sans-Serif" font-size="10.00">/github/workspace/src</text>
<text text-anchor="middle" x="545" y="-141.5" font-family="Helvetica,sans-Serif" font-size="10.00">/renderer/objectinstance.h</text>
</a>
</g>
</g>
<!-- Node16&#45;&gt;Node21 -->
<g id="edge23" class="edge">
<title>Node16&#45;&gt;Node21</title>
<path fill="none" stroke="midnightblue" d="M583.58,-193.74C575,-184.12 565.16,-173.09 557.56,-164.58"/>
<polygon fill="midnightblue" stroke="midnightblue" points="581.15,-196.26 590.41,-201.4 586.37,-191.6 581.15,-196.26"/>
</g>
<!-- Node19 -->
<g id="node19" class="node">
<title>Node19</title>
<g id="a_node19"><a xlink:href="modelloader_8cpp.html" target="_top" xlink:title=" ">
<polygon fill="none" stroke="black" points="671,-67.5 671,-97.5 799,-97.5 799,-67.5 671,-67.5"/>
<text text-anchor="start" x="679" y="-85.5" font-family="Helvetica,sans-Serif" font-size="10.00">/github/workspace/src</text>
<text text-anchor="middle" x="735" y="-74.5" font-family="Helvetica,sans-Serif" font-size="10.00">/renderer/modelloader.cpp</text>
</a>
</g>
</g>
<!-- Node18&#45;&gt;Node19 -->
<g id="edge21" class="edge">
<title>Node18&#45;&gt;Node19</title>
<path fill="none" stroke="midnightblue" d="M702.84,-126.16C709.99,-116.68 718.1,-105.92 724.39,-97.58"/>
<polygon fill="midnightblue" stroke="midnightblue" points="699.86,-124.3 696.63,-134.4 705.45,-128.52 699.86,-124.3"/>
</g>
<!-- Node18&#45;&gt;Node20 -->
<g id="edge22" class="edge">
<title>Node18&#45;&gt;Node20</title>
<path fill="none" stroke="midnightblue" d="M673.59,-125.1C669.5,-116.72 665.18,-107.09 662,-98 653.94,-74.96 648.28,-47.06 645.34,-30.6"/>
<polygon fill="midnightblue" stroke="midnightblue" points="670.59,-126.91 678.22,-134.26 676.84,-123.76 670.59,-126.91"/>
</g>
<!-- Node22 -->
<g id="node22" class="node">
<title>Node22</title>
<g id="a_node22"><a xlink:href="objectinstance_8cpp.html" target="_top" xlink:title=" ">
<polygon fill="none" stroke="black" points="475.5,-67.5 475.5,-97.5 614.5,-97.5 614.5,-67.5 475.5,-67.5"/>
<text text-anchor="start" x="483.5" y="-85.5" font-family="Helvetica,sans-Serif" font-size="10.00">/github/workspace/src</text>
<text text-anchor="middle" x="545" y="-74.5" font-family="Helvetica,sans-Serif" font-size="10.00">/renderer/objectinstance.cpp</text>
</a>
</g>
</g>
<!-- Node21&#45;&gt;Node22 -->
<g id="edge24" class="edge">
<title>Node21&#45;&gt;Node22</title>
<path fill="none" stroke="midnightblue" d="M545,-124.11C545,-115.15 545,-105.32 545,-97.58"/>
<polygon fill="midnightblue" stroke="midnightblue" points="541.5,-124.4 545,-134.4 548.5,-124.4 541.5,-124.4"/>
</g>
<!-- Node23 -->
<g id="node23" class="node">
<title>Node23</title>
<g id="a_node23"><a xlink:href="scene_8h.html" target="_top" xlink:title=" ">
<polygon fill="none" stroke="black" points="344.5,-67.5 344.5,-97.5 457.5,-97.5 457.5,-67.5 344.5,-67.5"/>
<text text-anchor="start" x="352.5" y="-85.5" font-family="Helvetica,sans-Serif" font-size="10.00">/github/workspace/src</text>
<text text-anchor="middle" x="401" y="-74.5" font-family="Helvetica,sans-Serif" font-size="10.00">/renderer/scene.h</text>
</a>
</g>
</g>
<!-- Node21&#45;&gt;Node23 -->
<g id="edge25" class="edge">
<title>Node21&#45;&gt;Node23</title>
<path fill="none" stroke="midnightblue" d="M504.61,-130.27C481.68,-119.92 453.4,-107.15 432.18,-97.58"/>
<polygon fill="midnightblue" stroke="midnightblue" points="503.2,-133.47 513.75,-134.4 506.08,-127.09 503.2,-133.47"/>
</g>
<!-- Node23&#45;&gt;Node20 -->
<g id="edge27" class="edge">
<title>Node23&#45;&gt;Node20</title>
<path fill="none" stroke="midnightblue" d="M462.99,-64.85C502.45,-54.25 552.99,-40.68 590.46,-30.61"/>
<polygon fill="midnightblue" stroke="midnightblue" points="461.96,-61.5 453.21,-67.48 463.78,-68.26 461.96,-61.5"/>
</g>
<!-- Node24 -->
<g id="node24" class="node">
<title>Node24</title>
<g id="a_node24"><a xlink:href="scene_8cpp.html" target="_top" xlink:title=" ">
<polygon fill="none" stroke="black" points="344.5,-0.5 344.5,-30.5 457.5,-30.5 457.5,-0.5 344.5,-0.5"/>
<text text-anchor="start" x="352.5" y="-18.5" font-family="Helvetica,sans-Serif" font-size="10.00">/github/workspace/src</text>
<text text-anchor="middle" x="401" y="-7.5" font-family="Helvetica,sans-Serif" font-size="10.00">/renderer/scene.cpp</text>
</a>
</g>
</g>
<!-- Node23&#45;&gt;Node24 -->
<g id="edge26" class="edge">
<title>Node23&#45;&gt;Node24</title>
<path fill="none" stroke="midnightblue" d="M401,-57.11C401,-48.15 401,-38.32 401,-30.58"/>
<polygon fill="midnightblue" stroke="midnightblue" points="397.5,-57.4 401,-67.4 404.5,-57.4 397.5,-57.4"/>
</g>
<!-- Node26&#45;&gt;Node5 -->
<g id="edge33" class="edge">
<title>Node26&#45;&gt;Node5</title>
<path fill="none" stroke="midnightblue" d="M195.07,-370.22C181.23,-377.85 167.93,-388.22 160,-402 153.13,-413.94 152.53,-421.42 160,-433 199.14,-493.68 239.4,-477.49 308,-500 358.77,-516.66 417.48,-529.19 463.88,-537.6"/>
<polygon fill="midnightblue" stroke="midnightblue" points="196.86,-373.23 204.19,-365.58 193.69,-366.99 196.86,-373.23"/>
</g>
<!-- Node27 -->
<g id="node27" class="node">
<title>Node27</title>
<g id="a_node27"><a xlink:href="descriptorpoolmanager_8h.html" target="_top" xlink:title=" ">
<polygon fill="none" stroke="black" points="160,-268.5 160,-298.5 324,-298.5 324,-268.5 160,-268.5"/>
<text text-anchor="start" x="168" y="-286.5" font-family="Helvetica,sans-Serif" font-size="10.00">/github/workspace/src</text>
<text text-anchor="middle" x="242" y="-275.5" font-family="Helvetica,sans-Serif" font-size="10.00">/renderer/descriptorpoolmanager.h</text>
</a>
</g>
</g>
<!-- Node26&#45;&gt;Node27 -->
<g id="edge30" class="edge">
<title>Node26&#45;&gt;Node27</title>
<path fill="none" stroke="midnightblue" d="M245.15,-325.4C244.45,-316.37 243.69,-306.41 243.08,-298.58"/>
<polygon fill="midnightblue" stroke="midnightblue" points="241.66,-325.69 245.92,-335.4 248.64,-325.16 241.66,-325.69"/>
</g>
<!-- Node29 -->
<g id="node29" class="node">
<title>Node29</title>
<g id="a_node29"><a xlink:href="descriptorset_8cpp.html" target="_top" xlink:title=" ">
<polygon fill="none" stroke="black" points="342,-268.5 342,-298.5 506,-298.5 506,-268.5 342,-268.5"/>
<text text-anchor="start" x="350" y="-286.5" font-family="Helvetica,sans-Serif" font-size="10.00">/github/workspace/src</text>
<text text-anchor="middle" x="424" y="-275.5" font-family="Helvetica,sans-Serif" font-size="10.00">/renderer/vulkan/descriptorset.cpp</text>
</a>
</g>
</g>
<!-- Node26&#45;&gt;Node29 -->
<g id="edge34" class="edge">
<title>Node26&#45;&gt;Node29</title>
<path fill="none" stroke="midnightblue" d="M295.15,-331.82C323.6,-321.37 359.13,-308.32 385.67,-298.58"/>
<polygon fill="midnightblue" stroke="midnightblue" points="293.59,-328.66 285.41,-335.4 296,-335.23 293.59,-328.66"/>
</g>
<!-- Node27&#45;&gt;Node23 -->
<g id="edge32" class="edge">
<title>Node27&#45;&gt;Node23</title>
<path fill="none" stroke="midnightblue" d="M243.66,-257.96C245.75,-240.93 250.44,-218.29 261,-201 289.69,-154.01 343.8,-116.75 375.69,-97.6"/>
<polygon fill="midnightblue" stroke="midnightblue" points="240.15,-257.92 242.63,-268.22 247.11,-258.62 240.15,-257.92"/>
</g>
<!-- Node28 -->
<g id="node28" class="node">
<title>Node28</title>
<g id="a_node28"><a xlink:href="descriptorpoolmanager_8cpp.html" target="_top" xlink:title=" ">
<polygon fill="none" stroke="black" points="270,-201.5 270,-231.5 444,-231.5 444,-201.5 270,-201.5"/>
<text text-anchor="start" x="278" y="-219.5" font-family="Helvetica,sans-Serif" font-size="10.00">/github/workspace/src</text>
<text text-anchor="middle" x="357" y="-208.5" font-family="Helvetica,sans-Serif" font-size="10.00">/renderer/descriptorpoolmanager.cpp</text>
</a>
</g>
</g>
<!-- Node27&#45;&gt;Node28 -->
<g id="edge31" class="edge">
<title>Node27&#45;&gt;Node28</title>
<path fill="none" stroke="midnightblue" d="M275.98,-263.3C293.97,-253.12 315.68,-240.85 332.1,-231.58"/>
<polygon fill="midnightblue" stroke="midnightblue" points="273.94,-260.43 266.95,-268.4 277.38,-266.52 273.94,-260.43"/>
</g>
<!-- Node34&#45;&gt;Node5 -->
<g id="edge46" class="edge">
<title>Node34&#45;&gt;Node5</title>
<path fill="none" stroke="midnightblue" d="M914.29,-604.32C830.37,-592.51 708.49,-575.36 628.27,-564.07"/>
<polygon fill="midnightblue" stroke="midnightblue" points="913.95,-607.8 924.34,-605.73 914.92,-600.87 913.95,-607.8"/>
</g>
<!-- Node34&#45;&gt;Node12 -->
<g id="edge45" class="edge">
<title>Node34&#45;&gt;Node12</title>
<path fill="none" stroke="midnightblue" d="M1018.27,-593.77C1028.6,-567.73 1043,-524.43 1043,-485.5 1043,-485.5 1043,-485.5 1043,-416.5 1043,-322.32 908.77,-295.33 829.6,-287.6"/>
<polygon fill="midnightblue" stroke="midnightblue" points="1014.97,-592.6 1014.42,-603.18 1021.45,-595.25 1014.97,-592.6"/>
</g>
<!-- Node34&#45;&gt;Node13 -->
<g id="edge44" class="edge">
<title>Node34&#45;&gt;Node13</title>
<path fill="none" stroke="midnightblue" d="M1028.99,-595.84C1050.56,-571.22 1081,-528.79 1081,-485.5 1081,-485.5 1081,-485.5 1081,-282.5 1081,-208.49 988.92,-175.09 923.1,-160.67"/>
<polygon fill="midnightblue" stroke="midnightblue" points="1026.19,-593.72 1022.08,-603.48 1031.38,-598.42 1026.19,-593.72"/>
</g>
<!-- Node34&#45;&gt;Node31 -->
<g id="edge48" class="edge">
<title>Node34&#45;&gt;Node31</title>
<path fill="none" stroke="midnightblue" d="M920.55,-601.2C882.39,-592.42 843.3,-580.59 830,-567 776.99,-512.84 817.2,-471.51 787,-402 781.37,-389.05 772.7,-375.61 765.79,-365.85"/>
<polygon fill="midnightblue" stroke="midnightblue" points="920.22,-604.71 930.74,-603.48 921.75,-597.88 920.22,-604.71"/>
</g>
<!-- Node35 -->
<g id="node35" class="node">
<title>Node35</title>
<g id="a_node35"><a xlink:href="graphicspipeline_8cpp.html" target="_top" xlink:title=" ">
<polygon fill="none" stroke="black" points="838.5,-536.5 838.5,-566.5 1015.5,-566.5 1015.5,-536.5 838.5,-536.5"/>
<text text-anchor="start" x="846.5" y="-554.5" font-family="Helvetica,sans-Serif" font-size="10.00">/github/workspace/src</text>
<text text-anchor="middle" x="927" y="-543.5" font-family="Helvetica,sans-Serif" font-size="10.00">/renderer/vulkan/graphicspipeline.cpp</text>
</a>
</g>
</g>
<!-- Node34&#45;&gt;Node35 -->
<g id="edge47" class="edge">
<title>Node34&#45;&gt;Node35</title>
<path fill="none" stroke="midnightblue" d="M982.31,-596.88C970,-587.01 955.57,-575.43 944.54,-566.58"/>
<polygon fill="midnightblue" stroke="midnightblue" points="980.43,-599.87 990.42,-603.4 984.82,-594.41 980.43,-599.87"/>
</g>
<!-- Node36&#45;&gt;Node4 -->
<g id="edge51" class="edge">
<title>Node36&#45;&gt;Node4</title>
<path fill="none" stroke="midnightblue" d="M701.63,-667.44C667.43,-656.91 624.07,-643.55 591.81,-633.61"/>
<polygon fill="midnightblue" stroke="midnightblue" points="700.89,-670.88 711.48,-670.48 702.95,-664.19 700.89,-670.88"/>
</g>
<!-- Node36&#45;&gt;Node5 -->
<g id="edge50" class="edge">
<title>Node36&#45;&gt;Node5</title>
<path fill="none" stroke="midnightblue" d="M722.45,-665.2C706.57,-656.08 687.61,-644.83 671,-634 651.26,-621.13 647.6,-616.07 628,-603 608.81,-590.2 586.48,-576.52 569.97,-566.64"/>
<polygon fill="midnightblue" stroke="midnightblue" points="720.99,-668.39 731.41,-670.31 724.46,-662.31 720.99,-668.39"/>
</g>
<!-- Node36&#45;&gt;Node31 -->
<g id="edge54" class="edge">
<title>Node36&#45;&gt;Node31</title>
<path fill="none" stroke="midnightblue" d="M727.52,-664.11C718.19,-655.94 709.01,-645.68 704,-634 682.7,-584.3 734.16,-415.87 750.33,-365.71"/>
<polygon fill="midnightblue" stroke="midnightblue" points="725.34,-666.85 735.3,-670.47 729.77,-661.43 725.34,-666.85"/>
</g>
<!-- Node36&#45;&gt;Node34 -->
<g id="edge52" class="edge">
<title>Node36&#45;&gt;Node34</title>
<path fill="none" stroke="midnightblue" d="M821.04,-667.92C862,-657.31 914.56,-643.7 953.51,-633.61"/>
<polygon fill="midnightblue" stroke="midnightblue" points="819.96,-664.58 811.15,-670.48 821.71,-671.36 819.96,-664.58"/>
</g>
<!-- Node37 -->
<g id="node37" class="node">
<title>Node37</title>
<g id="a_node37"><a xlink:href="renderpass_8cpp.html" target="_top" xlink:title=" ">
<polygon fill="none" stroke="black" points="713.5,-603.5 713.5,-633.5 868.5,-633.5 868.5,-603.5 713.5,-603.5"/>
<text text-anchor="start" x="721.5" y="-621.5" font-family="Helvetica,sans-Serif" font-size="10.00">/github/workspace/src</text>
<text text-anchor="middle" x="791" y="-610.5" font-family="Helvetica,sans-Serif" font-size="10.00">/renderer/vulkan/renderpass.cpp</text>
</a>
</g>
</g>
<!-- Node36&#45;&gt;Node37 -->
<g id="edge53" class="edge">
<title>Node36&#45;&gt;Node37</title>
<path fill="none" stroke="midnightblue" d="M769.14,-661.28C773.99,-652.02 779.41,-641.66 783.64,-633.58"/>
<polygon fill="midnightblue" stroke="midnightblue" points="765.91,-659.91 764.38,-670.4 772.11,-663.16 765.91,-659.91"/>
</g>
</g>
</svg>
        <g id="navigator" transform="translate(0 0)" fill="#404254">
                <rect fill="#f2f5e9" fill-opacity="0.5" stroke="#606060" stroke-width=".5" x="0" y="0" width="60" height="60"/>
                <use id="zoomplus" xlink:href="#zoomPlus" x="17" y="9" onmousedown="handleZoom(evt,'in')"/>
                <use id="zoomminus" xlink:href="#zoomMin" x="42" y="9" onmousedown="handleZoom(evt,'out')"/>
                <use id="reset" xlink:href="#resetDef" x="30" y="36" onmousedown="handleReset()"/>
                <g id="arrowUp" xlink:href="#dirArrow" transform="translate(30 24)" onmousedown="handlePan(0,-1)">
                  <use xlink:href="#rim" fill="#404040">
                        <set attributeName="fill" to="#808080" begin="arrowUp.mouseover" end="arrowUp.mouseout"/>
                  </use>
                  <path fill="none" stroke="white" stroke-width="1.5" d="M0,-3.0v7 M-2.5,-0.5L0,-3.0L2.5,-0.5"/>
                </g>
                <g id="arrowRight" xlink:href="#dirArrow" transform="rotate(90) translate(36 -43)" onmousedown="handlePan(1,0)">
                  <use xlink:href="#rim" fill="#404040">
                        <set attributeName="fill" to="#808080" begin="arrowRight.mouseover" end="arrowRight.mouseout"/>
                  </use>
                  <path fill="none" stroke="white" stroke-width="1.5" d="M0,-3.0v7 M-2.5,-0.5L0,-3.0L2.5,-0.5"/>
                </g>
                <g id="arrowDown" xlink:href="#dirArrow" transform="rotate(180) translate(-30 -48)" onmousedown="handlePan(0,1)">
                  <use xlink:href="#rim" fill="#404040">
                        <set attributeName="fill" to="#808080" begin="arrowDown.mouseover" end="arrowDown.mouseout"/>
                  </use>
                  <path fill="none" stroke="white" stroke-width="1.5" d="M0,-3.0v7 M-2.5,-0.5L0,-3.0L2.5,-0.5"/>
                </g>
                <g id="arrowLeft" xlink:href="#dirArrow" transform="rotate(270) translate(-36 17)" onmousedown="handlePan(-1,0)">
                  <use xlink:href="#rim" fill="#404040">
                        <set attributeName="fill" to="#808080" begin="arrowLeft.mouseover" end="arrowLeft.mouseout"/>
                  </use>
                  <path fill="none" stroke="white" stroke-width="1.5" d="M0,-3.0v7 M-2.5,-0.5L0,-3.0L2.5,-0.5"/>
                </g>
        </g>
        <svg viewBox="0 0 15 15" width="100%" height="30px" preserveAspectRatio="xMaxYMin meet">
         <g id="arrow_out" transform="scale(0.3 0.3)">
          <a xlink:href="eventbus_8h__dep__incl_org.svg" target="_base">
           <rect id="button" ry="5" rx="5" y="6" x="6" height="38" width="38"
                fill="#f2f5e9" fill-opacity="0.5" stroke="#606060" stroke-width="1.0"/>
           <path id="arrow"
             d="M 11.500037,31.436501 C 11.940474,20.09759 22.043105,11.32322 32.158766,21.979434 L 37.068811,17.246167 C 37.068811,17.246167 37.088388,32 37.088388,32 L 22.160133,31.978069 C 22.160133,31.978069 26.997745,27.140456 26.997745,27.140456 C 18.528582,18.264221 13.291696,25.230495 11.500037,31.436501 z"
             style="fill:#404040;"/>
          </a>
         </g>
        </svg>
</svg>
