<?xml version="1.0" encoding="UTF-8" standalone="no"?>
<!DOCTYPE svg PUBLIC "-//W3C//DTD SVG 1.1//EN"
 "http://www.w3.org/Graphics/SVG/1.1/DTD/svg11.dtd">
<!-- Generated by graphviz version 2.49.3 (20211215.1918)
 -->
<!-- Title: /github/workspace/src/renderer/framebufferselector.h Pages: 1 -->
<svg width="546pt" height="173pt"
 viewBox="0.00 0.00 545.50 173.00" xmlns="http://www.w3.org/2000/svg" xmlns:xlink="http://www.w3.org/1999/xlink">
<g id="graph0" class="graph" transform="scale(1 1) rotate(0) translate(4 169)">
<title>/github/workspace/src/renderer/framebufferselector.h</title>
<!-- Node1 -->
<g id="node1" class="node">
<title>Node1</title>
<g id="a_node1"><a xlink:title=" ">
<polygon fill="#bfbfbf" stroke="black" points="214,-134.5 214,-164.5 363,-164.5 363,-134.5 214,-134.5"/>
<text text-anchor="start" x="222" y="-152.5" font-family="Helvetica,sans-Serif" font-size="10.00">/github/workspace/src</text>
<text text-anchor="middle" x="288.5" y="-141.5" font-family="Helvetica,sans-Serif" font-size="10.00">/renderer/framebufferselector.h</text>
</a>
</g>
</g>
<!-- Node2 -->
<g id="node2" class="node">
<title>Node2</title>
<g id="a_node2"><a xlink:href="framebufferselector_8cpp.html" target="_top" xlink:title=" ">
<polygon fill="none" stroke="black" points="0,-67.5 0,-97.5 159,-97.5 159,-67.5 0,-67.5"/>
<text text-anchor="start" x="8" y="-85.5" font-family="Helvetica,sans-Serif" font-size="10.00">/github/workspace/src</text>
<text text-anchor="middle" x="79.5" y="-74.5" font-family="Helvetica,sans-Serif" font-size="10.00">/renderer/framebufferselector.cpp</text>
</a>
</g>
</g>
<!-- Node1&#45;&gt;Node2 -->
<g id="edge1" class="edge">
<title>Node1&#45;&gt;Node2</title>
<path fill="none" stroke="midnightblue" d="M233.66,-131.44C199.78,-120.91 156.83,-107.55 124.87,-97.61"/>
<polygon fill="midnightblue" stroke="midnightblue" points="232.82,-134.85 243.41,-134.48 234.9,-128.16 232.82,-134.85"/>
</g>
<!-- Node3 -->
<g id="node3" class="node">
<title>Node3</title>
<g id="a_node3"><a xlink:href="rendermanager_8h.html" target="_top" xlink:title=" ">
<polygon fill="none" stroke="black" points="177.5,-67.5 177.5,-97.5 307.5,-97.5 307.5,-67.5 177.5,-67.5"/>
<text text-anchor="start" x="185.5" y="-85.5" font-family="Helvetica,sans-Serif" font-size="10.00">/github/workspace/src</text>
<text text-anchor="middle" x="242.5" y="-74.5" font-family="Helvetica,sans-Serif" font-size="10.00">/renderer/rendermanager.h</text>
</a>
</g>
</g>
<!-- Node1&#45;&gt;Node3 -->
<g id="edge2" class="edge">
<title>Node1&#45;&gt;Node3</title>
<path fill="none" stroke="midnightblue" d="M272.69,-126.16C265.98,-116.68 258.37,-105.92 252.46,-97.58"/>
<polygon fill="midnightblue" stroke="midnightblue" points="269.88,-128.26 278.52,-134.4 275.6,-124.21 269.88,-128.26"/>
</g>
<!-- Node5 -->
<g id="node5" class="node">
<title>Node5</title>
<g id="a_node5"><a xlink:href="vulkan__voxel__rasterizer__4_8cpp.html" target="_top" xlink:title=" ">
<polygon fill="none" stroke="black" points="248.5,-0.5 248.5,-30.5 422.5,-30.5 422.5,-0.5 248.5,-0.5"/>
<text text-anchor="start" x="256.5" y="-18.5" font-family="Helvetica,sans-Serif" font-size="10.00">/github/workspace/src</text>
<text text-anchor="middle" x="335.5" y="-7.5" font-family="Helvetica,sans-Serif" font-size="10.00">/tests/vulkan_voxel_rasterizer_4.cpp</text>
</a>
</g>
</g>
<!-- Node1&#45;&gt;Node5 -->
<g id="edge6" class="edge">
<title>Node1&#45;&gt;Node5</title>
<path fill="none" stroke="midnightblue" d="M302.97,-125.59C307.81,-117.16 312.89,-107.38 316.5,-98 325.27,-75.22 330.71,-47.24 333.42,-30.7"/>
<polygon fill="midnightblue" stroke="midnightblue" points="299.81,-124.05 297.69,-134.43 305.82,-127.64 299.81,-124.05"/>
</g>
<!-- Node6 -->
<g id="node6" class="node">
<title>Node6</title>
<g id="a_node6"><a xlink:href="vulkan__voxel__rasterizer__3_8cpp.html" target="_top" xlink:title=" ">
<polygon fill="none" stroke="black" points="363.5,-67.5 363.5,-97.5 537.5,-97.5 537.5,-67.5 363.5,-67.5"/>
<text text-anchor="start" x="371.5" y="-85.5" font-family="Helvetica,sans-Serif" font-size="10.00">/github/workspace/src</text>
<text text-anchor="middle" x="450.5" y="-74.5" font-family="Helvetica,sans-Serif" font-size="10.00">/tests/vulkan_voxel_rasterizer_3.cpp</text>
</a>
</g>
</g>
<!-- Node1&#45;&gt;Node6 -->
<g id="edge5" class="edge">
<title>Node1&#45;&gt;Node6</title>
<path fill="none" stroke="midnightblue" d="M333.25,-130.54C359.17,-120.14 391.34,-107.24 415.42,-97.58"/>
<polygon fill="midnightblue" stroke="midnightblue" points="331.63,-127.42 323.65,-134.4 334.24,-133.92 331.63,-127.42"/>
</g>
<!-- Node4 -->
<g id="node4" class="node">
<title>Node4</title>
<g id="a_node4"><a xlink:href="rendermanager_8cpp.html" target="_top" xlink:title=" ">
<polygon fill="none" stroke="black" points="90.5,-0.5 90.5,-30.5 230.5,-30.5 230.5,-0.5 90.5,-0.5"/>
<text text-anchor="start" x="98.5" y="-18.5" font-family="Helvetica,sans-Serif" font-size="10.00">/github/workspace/src</text>
<text text-anchor="middle" x="160.5" y="-7.5" font-family="Helvetica,sans-Serif" font-size="10.00">/renderer/rendermanager.cpp</text>
</a>
</g>
</g>
<!-- Node3&#45;&gt;Node4 -->
<g id="edge3" class="edge">
<title>Node3&#45;&gt;Node4</title>
<path fill="none" stroke="midnightblue" d="M216.85,-61.17C204.31,-51.23 189.53,-39.51 178.26,-30.58"/>
<polygon fill="midnightblue" stroke="midnightblue" points="214.7,-63.93 224.71,-67.4 219.04,-58.44 214.7,-63.93"/>
</g>
<!-- Node3&#45;&gt;Node5 -->
<g id="edge4" class="edge">
<title>Node3&#45;&gt;Node5</title>
<path fill="none" stroke="midnightblue" d="M271.19,-61.45C285.49,-51.45 302.45,-39.6 315.36,-30.58"/>
<polygon fill="midnightblue" stroke="midnightblue" points="268.87,-58.8 262.68,-67.4 272.88,-64.54 268.87,-58.8"/>
</g>
</g>
</svg>
