<?xml version="1.0" encoding="UTF-8" standalone="no"?>
<!DOCTYPE svg PUBLIC "-//W3C//DTD SVG 1.1//EN"
 "http://www.w3.org/Graphics/SVG/1.1/DTD/svg11.dtd">
<!-- Generated by graphviz version 2.49.3 (20211215.1918)
 -->
<!-- Title: /github/workspace/src/renderer/vulkan/framebuffer.h Pages: 1 -->
<svg width="1033pt" height="374pt"
 viewBox="0.00 0.00 1032.87 374.00" xmlns="http://www.w3.org/2000/svg" xmlns:xlink="http://www.w3.org/1999/xlink">
<g id="graph0" class="graph" transform="scale(1 1) rotate(0) translate(4 370)">
<title>/github/workspace/src/renderer/vulkan/framebuffer.h</title>
<!-- Node1 -->
<g id="node1" class="node">
<title>Node1</title>
<g id="a_node1"><a xlink:title=" ">
<polygon fill="#bfbfbf" stroke="black" points="652.87,-335.5 652.87,-365.5 798.87,-365.5 798.87,-335.5 652.87,-335.5"/>
<text text-anchor="start" x="660.87" y="-353.5" font-family="Helvetica,sans-Serif" font-size="10.00">/github/workspace/src</text>
<text text-anchor="middle" x="725.87" y="-342.5" font-family="Helvetica,sans-Serif" font-size="10.00">/renderer/vulkan/framebuffer.h</text>
</a>
</g>
</g>
<!-- Node2 -->
<g id="node2" class="node">
<title>Node2</title>
<g id="a_node2"><a xlink:href="commandbuffer_8h.html" target="_top" xlink:title=" ">
<polygon fill="none" stroke="black" points="509.87,-268.5 509.87,-298.5 673.87,-298.5 673.87,-268.5 509.87,-268.5"/>
<text text-anchor="start" x="517.87" y="-286.5" font-family="Helvetica,sans-Serif" font-size="10.00">/github/workspace/src</text>
<text text-anchor="middle" x="591.87" y="-275.5" font-family="Helvetica,sans-Serif" font-size="10.00">/renderer/vulkan/commandbuffer.h</text>
</a>
</g>
</g>
<!-- Node1&#45;&gt;Node2 -->
<g id="edge1" class="edge">
<title>Node1&#45;&gt;Node2</title>
<path fill="none" stroke="midnightblue" d="M687.71,-330.99C666.47,-320.69 640.45,-308.07 620.89,-298.58"/>
<polygon fill="midnightblue" stroke="midnightblue" points="686.27,-334.18 696.79,-335.4 689.32,-327.88 686.27,-334.18"/>
</g>
<!-- Node4 -->
<g id="node4" class="node">
<title>Node4</title>
<g id="a_node4"><a xlink:href="swapchain_8h.html" target="_top" xlink:title=" ">
<polygon fill="none" stroke="black" points="318.37,-201.5 318.37,-231.5 461.37,-231.5 461.37,-201.5 318.37,-201.5"/>
<text text-anchor="start" x="326.37" y="-219.5" font-family="Helvetica,sans-Serif" font-size="10.00">/github/workspace/src</text>
<text text-anchor="middle" x="389.87" y="-208.5" font-family="Helvetica,sans-Serif" font-size="10.00">/renderer/vulkan/swapchain.h</text>
</a>
</g>
</g>
<!-- Node1&#45;&gt;Node4 -->
<g id="edge20" class="edge">
<title>Node1&#45;&gt;Node4</title>
<path fill="none" stroke="midnightblue" d="M642.82,-340.54C596.69,-333.28 539.31,-320.59 491.87,-299 453.79,-281.67 415.9,-249.95 398.61,-231.61"/>
<polygon fill="midnightblue" stroke="midnightblue" points="642.37,-344.01 652.78,-342.05 643.42,-337.09 642.37,-344.01"/>
</g>
<!-- Node7 -->
<g id="node7" class="node">
<title>Node7</title>
<g id="a_node7"><a xlink:href="vulkan__voxel__rasterizer_8cpp.html" target="_top" xlink:title=" ">
<polygon fill="none" stroke="black" points="547.87,-0.5 547.87,-30.5 711.87,-30.5 711.87,-0.5 547.87,-0.5"/>
<text text-anchor="start" x="555.87" y="-18.5" font-family="Helvetica,sans-Serif" font-size="10.00">/github/workspace/src</text>
<text text-anchor="middle" x="629.87" y="-7.5" font-family="Helvetica,sans-Serif" font-size="10.00">/tests/vulkan_voxel_rasterizer.cpp</text>
</a>
</g>
</g>
<!-- Node1&#45;&gt;Node7 -->
<g id="edge21" class="edge">
<title>Node1&#45;&gt;Node7</title>
<path fill="none" stroke="midnightblue" d="M759.84,-329.86C793.75,-307.43 840.87,-267.3 840.87,-217.5 840.87,-217.5 840.87,-217.5 840.87,-148.5 840.87,-107.95 830.97,-93.02 799.87,-67 775.19,-46.35 742.34,-34.15 712.09,-26.93"/>
<polygon fill="midnightblue" stroke="midnightblue" points="757.64,-327.11 751.11,-335.45 761.42,-333.01 757.64,-327.11"/>
</g>
<!-- Node12 -->
<g id="node12" class="node">
<title>Node12</title>
<g id="a_node12"><a xlink:href="framebuffer_8cpp.html" target="_top" xlink:title=" ">
<polygon fill="none" stroke="black" points="868.87,-268.5 868.87,-298.5 1024.87,-298.5 1024.87,-268.5 868.87,-268.5"/>
<text text-anchor="start" x="876.87" y="-286.5" font-family="Helvetica,sans-Serif" font-size="10.00">/github/workspace/src</text>
<text text-anchor="middle" x="946.87" y="-275.5" font-family="Helvetica,sans-Serif" font-size="10.00">/renderer/vulkan/framebuffer.cpp</text>
</a>
</g>
</g>
<!-- Node1&#45;&gt;Node12 -->
<g id="edge19" class="edge">
<title>Node1&#45;&gt;Node12</title>
<path fill="none" stroke="midnightblue" d="M783.4,-332.58C819.29,-322.02 864.95,-308.59 898.89,-298.61"/>
<polygon fill="midnightblue" stroke="midnightblue" points="782.16,-329.3 773.55,-335.48 784.13,-336.01 782.16,-329.3"/>
</g>
<!-- Node3 -->
<g id="node3" class="node">
<title>Node3</title>
<g id="a_node3"><a xlink:href="commandbuffer_8cpp.html" target="_top" xlink:title=" ">
<polygon fill="none" stroke="black" points="562.87,-201.5 562.87,-231.5 736.87,-231.5 736.87,-201.5 562.87,-201.5"/>
<text text-anchor="start" x="570.87" y="-219.5" font-family="Helvetica,sans-Serif" font-size="10.00">/github/workspace/src</text>
<text text-anchor="middle" x="649.87" y="-208.5" font-family="Helvetica,sans-Serif" font-size="10.00">/renderer/vulkan/commandbuffer.cpp</text>
</a>
</g>
</g>
<!-- Node2&#45;&gt;Node3 -->
<g id="edge2" class="edge">
<title>Node2&#45;&gt;Node3</title>
<path fill="none" stroke="midnightblue" d="M611.29,-260.74C619.87,-251.12 629.71,-240.09 637.31,-231.58"/>
<polygon fill="midnightblue" stroke="midnightblue" points="608.5,-258.6 604.45,-268.4 613.72,-263.26 608.5,-258.6"/>
</g>
<!-- Node2&#45;&gt;Node4 -->
<g id="edge3" class="edge">
<title>Node2&#45;&gt;Node4</title>
<path fill="none" stroke="midnightblue" d="M538.19,-265.23C505.52,-254.71 464.3,-241.45 433.61,-231.58"/>
<polygon fill="midnightblue" stroke="midnightblue" points="537.45,-268.66 548.04,-268.4 539.59,-262 537.45,-268.66"/>
</g>
<!-- Node2&#45;&gt;Node7 -->
<g id="edge18" class="edge">
<title>Node2&#45;&gt;Node7</title>
<path fill="none" stroke="midnightblue" d="M683.79,-268.18C706.59,-260.7 729.24,-249.31 745.87,-232 788.74,-187.35 775.34,-159.31 783.87,-98 785.77,-84.35 791.95,-78.16 783.87,-67 767.11,-43.87 739.44,-31.15 712.13,-24.21"/>
<polygon fill="midnightblue" stroke="midnightblue" points="682.56,-264.89 674.02,-271.15 684.6,-271.59 682.56,-264.89"/>
</g>
<!-- Node4&#45;&gt;Node1 -->
<g id="edge4" class="edge">
<title>Node4&#45;&gt;Node1</title>
<path fill="none" stroke="midnightblue" d="M418.93,-238.07C442.19,-256.72 475.95,-283.57 509.87,-299 555.23,-319.64 609.69,-332.15 652.63,-339.56"/>
<polygon fill="midnightblue" stroke="midnightblue" points="420.86,-235.13 410.86,-231.61 416.48,-240.59 420.86,-235.13"/>
</g>
<!-- Node5 -->
<g id="node5" class="node">
<title>Node5</title>
<g id="a_node5"><a xlink:href="graphicspipeline_8h.html" target="_top" xlink:title=" ">
<polygon fill="none" stroke="black" points="396.37,-67.5 396.37,-97.5 563.37,-97.5 563.37,-67.5 396.37,-67.5"/>
<text text-anchor="start" x="404.37" y="-85.5" font-family="Helvetica,sans-Serif" font-size="10.00">/github/workspace/src</text>
<text text-anchor="middle" x="479.87" y="-74.5" font-family="Helvetica,sans-Serif" font-size="10.00">/renderer/vulkan/graphicspipeline.h</text>
</a>
</g>
</g>
<!-- Node4&#45;&gt;Node5 -->
<g id="edge5" class="edge">
<title>Node4&#45;&gt;Node5</title>
<path fill="none" stroke="midnightblue" d="M308.18,-210.39C201.63,-202.88 26.41,-187.29 6.87,-165 -2.22,-154.64 -2.34,-144.25 6.87,-134 32.37,-105.63 267.41,-91.91 396.27,-86.47"/>
<polygon fill="midnightblue" stroke="midnightblue" points="308.05,-213.89 318.27,-211.09 308.54,-206.91 308.05,-213.89"/>
</g>
<!-- Node4&#45;&gt;Node7 -->
<g id="edge16" class="edge">
<title>Node4&#45;&gt;Node7</title>
<path fill="none" stroke="midnightblue" d="M385.92,-191.15C380.47,-153.96 372.92,-85.39 387.87,-67 393.16,-60.48 482.43,-43.06 551.01,-30.5"/>
<polygon fill="midnightblue" stroke="midnightblue" points="382.48,-191.8 387.45,-201.16 389.4,-190.75 382.48,-191.8"/>
</g>
<!-- Node8 -->
<g id="node8" class="node">
<title>Node8</title>
<g id="a_node8"><a xlink:href="renderpass_8h.html" target="_top" xlink:title=" ">
<polygon fill="none" stroke="black" points="518.37,-134.5 518.37,-164.5 663.37,-164.5 663.37,-134.5 518.37,-134.5"/>
<text text-anchor="start" x="526.37" y="-152.5" font-family="Helvetica,sans-Serif" font-size="10.00">/github/workspace/src</text>
<text text-anchor="middle" x="590.87" y="-141.5" font-family="Helvetica,sans-Serif" font-size="10.00">/renderer/vulkan/renderpass.h</text>
</a>
</g>
</g>
<!-- Node4&#45;&gt;Node8 -->
<g id="edge9" class="edge">
<title>Node4&#45;&gt;Node8</title>
<path fill="none" stroke="midnightblue" d="M443.28,-198.23C475.79,-187.71 516.81,-174.45 547.34,-164.58"/>
<polygon fill="midnightblue" stroke="midnightblue" points="441.92,-194.99 433.48,-201.4 444.07,-201.65 441.92,-194.99"/>
</g>
<!-- Node10 -->
<g id="node10" class="node">
<title>Node10</title>
<g id="a_node10"><a xlink:href="swapchain_8cpp.html" target="_top" xlink:title=" ">
<polygon fill="none" stroke="black" points="15.87,-134.5 15.87,-164.5 169.87,-164.5 169.87,-134.5 15.87,-134.5"/>
<text text-anchor="start" x="23.87" y="-152.5" font-family="Helvetica,sans-Serif" font-size="10.00">/github/workspace/src</text>
<text text-anchor="middle" x="92.87" y="-141.5" font-family="Helvetica,sans-Serif" font-size="10.00">/renderer/vulkan/swapchain.cpp</text>
</a>
</g>
</g>
<!-- Node4&#45;&gt;Node10 -->
<g id="edge15" class="edge">
<title>Node4&#45;&gt;Node10</title>
<path fill="none" stroke="midnightblue" d="M315.92,-199.32C267.11,-188.63 203.79,-174.77 157.09,-164.55"/>
<polygon fill="midnightblue" stroke="midnightblue" points="315.27,-202.76 325.79,-201.48 316.77,-195.92 315.27,-202.76"/>
</g>
<!-- Node11 -->
<g id="node11" class="node">
<title>Node11</title>
<g id="a_node11"><a xlink:href="vulkan__voxel__rasterizer__2_8cpp.html" target="_top" xlink:title=" ">
<polygon fill="none" stroke="black" points="187.87,-134.5 187.87,-164.5 361.87,-164.5 361.87,-134.5 187.87,-134.5"/>
<text text-anchor="start" x="195.87" y="-152.5" font-family="Helvetica,sans-Serif" font-size="10.00">/github/workspace/src</text>
<text text-anchor="middle" x="274.87" y="-141.5" font-family="Helvetica,sans-Serif" font-size="10.00">/tests/vulkan_voxel_rasterizer_2.cpp</text>
</a>
</g>
</g>
<!-- Node4&#45;&gt;Node11 -->
<g id="edge17" class="edge">
<title>Node4&#45;&gt;Node11</title>
<path fill="none" stroke="midnightblue" d="M355.89,-196.3C337.9,-186.12 316.19,-173.85 299.77,-164.58"/>
<polygon fill="midnightblue" stroke="midnightblue" points="354.49,-199.52 364.91,-201.4 357.93,-193.43 354.49,-199.52"/>
</g>
<!-- Node5&#45;&gt;Node2 -->
<g id="edge6" class="edge">
<title>Node5&#45;&gt;Node2</title>
<path fill="none" stroke="midnightblue" d="M487.2,-107.36C497.32,-138.01 517.58,-192.04 545.87,-232 555.19,-245.16 567.59,-258.59 577.16,-268.29"/>
<polygon fill="midnightblue" stroke="midnightblue" points="490.44,-106 484.04,-97.55 483.77,-108.14 490.44,-106"/>
</g>
<!-- Node6 -->
<g id="node6" class="node">
<title>Node6</title>
<g id="a_node6"><a xlink:href="graphicspipeline_8cpp.html" target="_top" xlink:title=" ">
<polygon fill="none" stroke="black" points="352.37,-0.5 352.37,-30.5 529.37,-30.5 529.37,-0.5 352.37,-0.5"/>
<text text-anchor="start" x="360.37" y="-18.5" font-family="Helvetica,sans-Serif" font-size="10.00">/github/workspace/src</text>
<text text-anchor="middle" x="440.87" y="-7.5" font-family="Helvetica,sans-Serif" font-size="10.00">/renderer/vulkan/graphicspipeline.cpp</text>
</a>
</g>
</g>
<!-- Node5&#45;&gt;Node6 -->
<g id="edge7" class="edge">
<title>Node5&#45;&gt;Node6</title>
<path fill="none" stroke="midnightblue" d="M466.11,-58.58C460.51,-49.24 454.22,-38.75 449.31,-30.58"/>
<polygon fill="midnightblue" stroke="midnightblue" points="463.26,-60.62 471.41,-67.4 469.26,-57.02 463.26,-60.62"/>
</g>
<!-- Node5&#45;&gt;Node7 -->
<g id="edge8" class="edge">
<title>Node5&#45;&gt;Node7</title>
<path fill="none" stroke="midnightblue" d="M521.62,-63.41C545.57,-53.03 575.19,-40.2 597.38,-30.58"/>
<polygon fill="midnightblue" stroke="midnightblue" points="520.2,-60.21 512.42,-67.4 522.98,-66.63 520.2,-60.21"/>
</g>
<!-- Node8&#45;&gt;Node1 -->
<g id="edge11" class="edge">
<title>Node8&#45;&gt;Node1</title>
<path fill="none" stroke="midnightblue" d="M673.63,-158.07C701.12,-164.99 728.99,-177.75 745.87,-201 775.67,-242.05 748.47,-306.73 733.81,-335.22"/>
<polygon fill="midnightblue" stroke="midnightblue" points="674.06,-154.58 663.54,-155.78 672.51,-161.41 674.06,-154.58"/>
</g>
<!-- Node8&#45;&gt;Node2 -->
<g id="edge10" class="edge">
<title>Node8&#45;&gt;Node2</title>
<path fill="none" stroke="midnightblue" d="M570.26,-172.27C563.7,-180.6 557.26,-190.62 553.87,-201 549.58,-214.09 549.5,-218.93 553.87,-232 558.46,-245.74 568.42,-258.73 576.99,-268.1"/>
<polygon fill="midnightblue" stroke="midnightblue" points="573,-174.45 576.75,-164.54 567.64,-169.95 573,-174.45"/>
</g>
<!-- Node8&#45;&gt;Node5 -->
<g id="edge12" class="edge">
<title>Node8&#45;&gt;Node5</title>
<path fill="none" stroke="midnightblue" d="M558.07,-129.3C540.7,-119.12 519.75,-106.85 503.91,-97.58"/>
<polygon fill="midnightblue" stroke="midnightblue" points="556.38,-132.36 566.78,-134.4 559.92,-126.32 556.38,-132.36"/>
</g>
<!-- Node8&#45;&gt;Node7 -->
<g id="edge14" class="edge">
<title>Node8&#45;&gt;Node7</title>
<path fill="none" stroke="midnightblue" d="M595.99,-124.4C599.65,-108.06 604.97,-86.07 610.87,-67 614.69,-54.65 619.91,-40.94 623.92,-30.93"/>
<polygon fill="midnightblue" stroke="midnightblue" points="592.56,-123.71 593.83,-134.23 599.39,-125.21 592.56,-123.71"/>
</g>
<!-- Node9 -->
<g id="node9" class="node">
<title>Node9</title>
<g id="a_node9"><a xlink:href="renderpass_8cpp.html" target="_top" xlink:title=" ">
<polygon fill="none" stroke="black" points="619.37,-67.5 619.37,-97.5 774.37,-97.5 774.37,-67.5 619.37,-67.5"/>
<text text-anchor="start" x="627.37" y="-85.5" font-family="Helvetica,sans-Serif" font-size="10.00">/github/workspace/src</text>
<text text-anchor="middle" x="696.87" y="-74.5" font-family="Helvetica,sans-Serif" font-size="10.00">/renderer/vulkan/renderpass.cpp</text>
</a>
</g>
</g>
<!-- Node8&#45;&gt;Node9 -->
<g id="edge13" class="edge">
<title>Node8&#45;&gt;Node9</title>
<path fill="none" stroke="midnightblue" d="M622.64,-129.02C639.14,-118.9 658.92,-106.77 673.91,-97.58"/>
<polygon fill="midnightblue" stroke="midnightblue" points="620.56,-126.18 613.87,-134.4 624.22,-132.15 620.56,-126.18"/>
</g>
</g>
</svg>
