<?xml version="1.0" encoding="UTF-8" standalone="no"?>
<!DOCTYPE svg PUBLIC "-//W3C//DTD SVG 1.1//EN"
 "http://www.w3.org/Graphics/SVG/1.1/DTD/svg11.dtd">
<!-- Generated by graphviz version 2.49.3 (20211215.1918)
 -->
<!-- Title: /github/workspace/src/renderer/vulkan/framebuffer.h Pages: 1 -->
<svg width="1511pt" height="642pt"
 viewBox="0.00 0.00 1510.94 642.00" xmlns="http://www.w3.org/2000/svg" xmlns:xlink="http://www.w3.org/1999/xlink">
<g id="graph0" class="graph" transform="scale(1 1) rotate(0) translate(4 638)">
<title>/github/workspace/src/renderer/vulkan/framebuffer.h</title>
<!-- Node1 -->
<g id="node1" class="node">
<title>Node1</title>
<g id="a_node1"><a xlink:title=" ">
<polygon fill="#bfbfbf" stroke="black" points="982,-603.5 982,-633.5 1128,-633.5 1128,-603.5 982,-603.5"/>
<text text-anchor="start" x="990" y="-621.5" font-family="Helvetica,sans-Serif" font-size="10.00">/github/workspace/src</text>
<text text-anchor="middle" x="1055" y="-610.5" font-family="Helvetica,sans-Serif" font-size="10.00">/renderer/vulkan/framebuffer.h</text>
</a>
</g>
</g>
<!-- Node2 -->
<g id="node2" class="node">
<title>Node2</title>
<g id="a_node2"><a xlink:href="commandbuffer_8h.html" target="_top" xlink:title=" ">
<polygon fill="none" stroke="black" points="696,-536.5 696,-566.5 860,-566.5 860,-536.5 696,-536.5"/>
<text text-anchor="start" x="704" y="-554.5" font-family="Helvetica,sans-Serif" font-size="10.00">/github/workspace/src</text>
<text text-anchor="middle" x="778" y="-543.5" font-family="Helvetica,sans-Serif" font-size="10.00">/renderer/vulkan/commandbuffer.h</text>
</a>
</g>
</g>
<!-- Node1&#45;&gt;Node2 -->
<g id="edge1" class="edge">
<title>Node1&#45;&gt;Node2</title>
<path fill="none" stroke="midnightblue" d="M985.48,-601.19C940.11,-590.54 881.49,-576.78 838.13,-566.61"/>
<polygon fill="midnightblue" stroke="midnightblue" points="984.7,-604.6 995.24,-603.48 986.3,-597.78 984.7,-604.6"/>
</g>
<!-- Node28 -->
<g id="node28" class="node">
<title>Node28</title>
<g id="a_node28"><a xlink:href="vulkan__voxel__rasterizer_8cpp.html" target="_top" xlink:title=" ">
<polygon fill="none" stroke="black" points="806,-268.5 806,-298.5 970,-298.5 970,-268.5 806,-268.5"/>
<text text-anchor="start" x="814" y="-286.5" font-family="Helvetica,sans-Serif" font-size="10.00">/github/workspace/src</text>
<text text-anchor="middle" x="888" y="-275.5" font-family="Helvetica,sans-Serif" font-size="10.00">/tests/vulkan_voxel_rasterizer.cpp</text>
</a>
</g>
</g>
<!-- Node1&#45;&gt;Node28 -->
<g id="edge55" class="edge">
<title>Node1&#45;&gt;Node28</title>
<path fill="none" stroke="midnightblue" d="M999.86,-599.76C951.21,-580.26 888,-543.71 888,-485.5 888,-485.5 888,-485.5 888,-416.5 888,-373.65 888,-322.97 888,-298.76"/>
<polygon fill="midnightblue" stroke="midnightblue" points="998.78,-603.1 1009.37,-603.44 1001.3,-596.57 998.78,-603.1"/>
</g>
<!-- Node30 -->
<g id="node30" class="node">
<title>Node30</title>
<g id="a_node30"><a xlink:href="swapchain_8h.html" target="_top" xlink:title=" ">
<polygon fill="none" stroke="black" points="1151.5,-469.5 1151.5,-499.5 1294.5,-499.5 1294.5,-469.5 1151.5,-469.5"/>
<text text-anchor="start" x="1159.5" y="-487.5" font-family="Helvetica,sans-Serif" font-size="10.00">/github/workspace/src</text>
<text text-anchor="middle" x="1223" y="-476.5" font-family="Helvetica,sans-Serif" font-size="10.00">/renderer/vulkan/swapchain.h</text>
</a>
</g>
</g>
<!-- Node1&#45;&gt;Node30 -->
<g id="edge54" class="edge">
<title>Node1&#45;&gt;Node30</title>
<path fill="none" stroke="midnightblue" d="M1132.06,-600.05C1151.6,-592.61 1171.2,-582.03 1186,-567 1204.27,-548.45 1210.64,-517.47 1215.67,-499.52"/>
<polygon fill="midnightblue" stroke="midnightblue" points="1130.74,-596.8 1122.49,-603.45 1133.09,-603.4 1130.74,-596.8"/>
</g>
<!-- Node36 -->
<g id="node36" class="node">
<title>Node36</title>
<g id="a_node36"><a xlink:href="framebuffer_8cpp.html" target="_top" xlink:title=" ">
<polygon fill="none" stroke="black" points="1030,-536.5 1030,-566.5 1186,-566.5 1186,-536.5 1030,-536.5"/>
<text text-anchor="start" x="1038" y="-554.5" font-family="Helvetica,sans-Serif" font-size="10.00">/github/workspace/src</text>
<text text-anchor="middle" x="1108" y="-543.5" font-family="Helvetica,sans-Serif" font-size="10.00">/renderer/vulkan/framebuffer.cpp</text>
</a>
</g>
</g>
<!-- Node1&#45;&gt;Node36 -->
<g id="edge53" class="edge">
<title>Node1&#45;&gt;Node36</title>
<path fill="none" stroke="midnightblue" d="M1072.98,-595.45C1080.77,-585.9 1089.65,-575 1096.52,-566.58"/>
<polygon fill="midnightblue" stroke="midnightblue" points="1070.11,-593.43 1066.5,-603.4 1075.53,-597.86 1070.11,-593.43"/>
</g>
<!-- Node3 -->
<g id="node3" class="node">
<title>Node3</title>
<g id="a_node3"><a xlink:href="buffer_8h.html" target="_top" xlink:title=" ">
<polygon fill="none" stroke="black" points="695.5,-469.5 695.5,-499.5 816.5,-499.5 816.5,-469.5 695.5,-469.5"/>
<text text-anchor="start" x="703.5" y="-487.5" font-family="Helvetica,sans-Serif" font-size="10.00">/github/workspace/src</text>
<text text-anchor="middle" x="756" y="-476.5" font-family="Helvetica,sans-Serif" font-size="10.00">/renderer/vulkan/buffer.h</text>
</a>
</g>
</g>
<!-- Node2&#45;&gt;Node3 -->
<g id="edge2" class="edge">
<title>Node2&#45;&gt;Node3</title>
<path fill="none" stroke="midnightblue" d="M769.94,-526.7C766.86,-517.59 763.44,-507.49 760.76,-499.58"/>
<polygon fill="midnightblue" stroke="midnightblue" points="766.71,-528.05 773.23,-536.4 773.34,-525.8 766.71,-528.05"/>
</g>
<!-- Node2&#45;&gt;Node28 -->
<g id="edge52" class="edge">
<title>Node2&#45;&gt;Node28</title>
<path fill="none" stroke="midnightblue" d="M802.23,-528.96C810.43,-520.61 819.02,-510.52 825,-500 830.18,-490.89 871.09,-345.08 884.07,-298.61"/>
<polygon fill="midnightblue" stroke="midnightblue" points="799.62,-526.62 794.9,-536.11 804.5,-531.64 799.62,-526.62"/>
</g>
<!-- Node29 -->
<g id="node29" class="node">
<title>Node29</title>
<g id="a_node29"><a xlink:href="commandbuffer_8cpp.html" target="_top" xlink:title=" ">
<polygon fill="none" stroke="black" points="503,-469.5 503,-499.5 677,-499.5 677,-469.5 503,-469.5"/>
<text text-anchor="start" x="511" y="-487.5" font-family="Helvetica,sans-Serif" font-size="10.00">/github/workspace/src</text>
<text text-anchor="middle" x="590" y="-476.5" font-family="Helvetica,sans-Serif" font-size="10.00">/renderer/vulkan/commandbuffer.cpp</text>
</a>
</g>
</g>
<!-- Node2&#45;&gt;Node29 -->
<g id="edge34" class="edge">
<title>Node2&#45;&gt;Node29</title>
<path fill="none" stroke="midnightblue" d="M727.65,-533.09C697.3,-522.6 659.15,-509.41 630.71,-499.58"/>
<polygon fill="midnightblue" stroke="midnightblue" points="726.61,-536.44 737.21,-536.4 728.9,-529.82 726.61,-536.44"/>
</g>
<!-- Node2&#45;&gt;Node30 -->
<g id="edge35" class="edge">
<title>Node2&#45;&gt;Node30</title>
<path fill="none" stroke="midnightblue" d="M870.12,-537.04C953.57,-524.85 1074.83,-507.14 1151.26,-495.98"/>
<polygon fill="midnightblue" stroke="midnightblue" points="869.53,-533.59 860.14,-538.5 870.54,-540.52 869.53,-533.59"/>
</g>
<!-- Node4 -->
<g id="node4" class="node">
<title>Node4</title>
<g id="a_node4"><a xlink:href="buffer_8cpp.html" target="_top" xlink:title=" ">
<polygon fill="none" stroke="black" points="690.5,-402.5 690.5,-432.5 821.5,-432.5 821.5,-402.5 690.5,-402.5"/>
<text text-anchor="start" x="698.5" y="-420.5" font-family="Helvetica,sans-Serif" font-size="10.00">/github/workspace/src</text>
<text text-anchor="middle" x="756" y="-409.5" font-family="Helvetica,sans-Serif" font-size="10.00">/renderer/vulkan/buffer.cpp</text>
</a>
</g>
</g>
<!-- Node3&#45;&gt;Node4 -->
<g id="edge3" class="edge">
<title>Node3&#45;&gt;Node4</title>
<path fill="none" stroke="midnightblue" d="M756,-459.11C756,-450.15 756,-440.32 756,-432.58"/>
<polygon fill="midnightblue" stroke="midnightblue" points="752.5,-459.4 756,-469.4 759.5,-459.4 752.5,-459.4"/>
</g>
<!-- Node5 -->
<g id="node5" class="node">
<title>Node5</title>
<g id="a_node5"><a xlink:href="bufferview_8h.html" target="_top" xlink:title=" ">
<polygon fill="none" stroke="black" points="531.5,-402.5 531.5,-432.5 672.5,-432.5 672.5,-402.5 531.5,-402.5"/>
<text text-anchor="start" x="539.5" y="-420.5" font-family="Helvetica,sans-Serif" font-size="10.00">/github/workspace/src</text>
<text text-anchor="middle" x="602" y="-409.5" font-family="Helvetica,sans-Serif" font-size="10.00">/renderer/vulkan/bufferview.h</text>
</a>
</g>
</g>
<!-- Node3&#45;&gt;Node5 -->
<g id="edge4" class="edge">
<title>Node3&#45;&gt;Node5</title>
<path fill="none" stroke="midnightblue" d="M713.13,-465.41C688.55,-455.03 658.14,-442.2 635.35,-432.58"/>
<polygon fill="midnightblue" stroke="midnightblue" points="712.01,-468.73 722.58,-469.4 714.73,-462.28 712.01,-468.73"/>
</g>
<!-- Node7 -->
<g id="node7" class="node">
<title>Node7</title>
<g id="a_node7"><a xlink:href="uniformbuffer_8h.html" target="_top" xlink:title=" ">
<polygon fill="none" stroke="black" points="360.5,-402.5 360.5,-432.5 513.5,-432.5 513.5,-402.5 360.5,-402.5"/>
<text text-anchor="start" x="368.5" y="-420.5" font-family="Helvetica,sans-Serif" font-size="10.00">/github/workspace/src</text>
<text text-anchor="middle" x="437" y="-409.5" font-family="Helvetica,sans-Serif" font-size="10.00">/renderer/vulkan/uniformbuffer.h</text>
</a>
</g>
</g>
<!-- Node3&#45;&gt;Node7 -->
<g id="edge6" class="edge">
<title>Node3&#45;&gt;Node7</title>
<path fill="none" stroke="midnightblue" d="M685.48,-468.9C618.98,-455.28 554.12,-442.14 506.51,-432.52"/>
<polygon fill="midnightblue" stroke="midnightblue" points="684.8,-472.33 695.3,-470.91 686.2,-465.47 684.8,-472.33"/>
</g>
<!-- Node6 -->
<g id="node6" class="node">
<title>Node6</title>
<g id="a_node6"><a xlink:href="bufferview_8cpp.html" target="_top" xlink:title=" ">
<polygon fill="none" stroke="black" points="670,-335.5 670,-365.5 822,-365.5 822,-335.5 670,-335.5"/>
<text text-anchor="start" x="678" y="-353.5" font-family="Helvetica,sans-Serif" font-size="10.00">/github/workspace/src</text>
<text text-anchor="middle" x="746" y="-342.5" font-family="Helvetica,sans-Serif" font-size="10.00">/renderer/vulkan/bufferview.cpp</text>
</a>
</g>
</g>
<!-- Node5&#45;&gt;Node6 -->
<g id="edge5" class="edge">
<title>Node5&#45;&gt;Node6</title>
<path fill="none" stroke="midnightblue" d="M642.39,-398.27C665.32,-387.92 693.6,-375.15 714.82,-365.58"/>
<polygon fill="midnightblue" stroke="midnightblue" points="640.92,-395.09 633.25,-402.4 643.8,-401.47 640.92,-395.09"/>
</g>
<!-- Node8 -->
<g id="node8" class="node">
<title>Node8</title>
<g id="a_node8"><a xlink:href="materiallibrary_8h.html" target="_top" xlink:title=" ">
<polygon fill="none" stroke="black" points="306.5,-335.5 306.5,-365.5 431.5,-365.5 431.5,-335.5 306.5,-335.5"/>
<text text-anchor="start" x="314.5" y="-353.5" font-family="Helvetica,sans-Serif" font-size="10.00">/github/workspace/src</text>
<text text-anchor="middle" x="369" y="-342.5" font-family="Helvetica,sans-Serif" font-size="10.00">/renderer/materiallibrary.h</text>
</a>
</g>
</g>
<!-- Node7&#45;&gt;Node8 -->
<g id="edge7" class="edge">
<title>Node7&#45;&gt;Node8</title>
<path fill="none" stroke="midnightblue" d="M414.83,-395.31C404.63,-385.56 392.81,-374.26 383.73,-365.58"/>
<polygon fill="midnightblue" stroke="midnightblue" points="412.6,-398.02 422.25,-402.4 417.43,-392.96 412.6,-398.02"/>
</g>
<!-- Node23 -->
<g id="node23" class="node">
<title>Node23</title>
<g id="a_node23"><a xlink:href="descriptorset_8h.html" target="_top" xlink:title=" ">
<polygon fill="none" stroke="black" points="135.5,-335.5 135.5,-365.5 288.5,-365.5 288.5,-335.5 135.5,-335.5"/>
<text text-anchor="start" x="143.5" y="-353.5" font-family="Helvetica,sans-Serif" font-size="10.00">/github/workspace/src</text>
<text text-anchor="middle" x="212" y="-342.5" font-family="Helvetica,sans-Serif" font-size="10.00">/renderer/vulkan/descriptorset.h</text>
</a>
</g>
</g>
<!-- Node7&#45;&gt;Node23 -->
<g id="edge26" class="edge">
<title>Node7&#45;&gt;Node23</title>
<path fill="none" stroke="midnightblue" d="M378.43,-399.58C341.89,-389.02 295.4,-375.59 260.85,-365.61"/>
<polygon fill="midnightblue" stroke="midnightblue" points="377.88,-403.06 388.46,-402.48 379.82,-396.34 377.88,-403.06"/>
</g>
<!-- Node27 -->
<g id="node27" class="node">
<title>Node27</title>
<g id="a_node27"><a xlink:href="uniformbuffer_8cpp.html" target="_top" xlink:title=" ">
<polygon fill="none" stroke="black" points="450,-335.5 450,-365.5 614,-365.5 614,-335.5 450,-335.5"/>
<text text-anchor="start" x="458" y="-353.5" font-family="Helvetica,sans-Serif" font-size="10.00">/github/workspace/src</text>
<text text-anchor="middle" x="532" y="-342.5" font-family="Helvetica,sans-Serif" font-size="10.00">/renderer/vulkan/uniformbuffer.cpp</text>
</a>
</g>
</g>
<!-- Node7&#45;&gt;Node27 -->
<g id="edge32" class="edge">
<title>Node7&#45;&gt;Node27</title>
<path fill="none" stroke="midnightblue" d="M465.89,-396.73C480.59,-386.68 498.11,-374.68 511.43,-365.58"/>
<polygon fill="midnightblue" stroke="midnightblue" points="463.89,-393.86 457.61,-402.4 467.84,-399.64 463.89,-393.86"/>
</g>
<!-- Node7&#45;&gt;Node28 -->
<g id="edge33" class="edge">
<title>Node7&#45;&gt;Node28</title>
<path fill="none" stroke="midnightblue" d="M523.76,-400.9C556.03,-393.07 592.25,-381.8 623,-366 642.39,-356.04 641.39,-344.51 661,-335 686.52,-322.62 752.4,-308.62 806.66,-298.5"/>
<polygon fill="midnightblue" stroke="midnightblue" points="522.82,-397.52 513.88,-403.22 524.42,-404.34 522.82,-397.52"/>
</g>
<!-- Node9 -->
<g id="node9" class="node">
<title>Node9</title>
<g id="a_node9"><a xlink:href="material_8h.html" target="_top" xlink:title=" ">
<polygon fill="none" stroke="black" points="674.5,-268.5 674.5,-298.5 787.5,-298.5 787.5,-268.5 674.5,-268.5"/>
<text text-anchor="start" x="682.5" y="-286.5" font-family="Helvetica,sans-Serif" font-size="10.00">/github/workspace/src</text>
<text text-anchor="middle" x="731" y="-275.5" font-family="Helvetica,sans-Serif" font-size="10.00">/renderer/material.h</text>
</a>
</g>
</g>
<!-- Node8&#45;&gt;Node9 -->
<g id="edge8" class="edge">
<title>Node8&#45;&gt;Node9</title>
<path fill="none" stroke="midnightblue" d="M439.3,-333.64C523.42,-317.97 616.33,-302.14 674.4,-292.81"/>
<polygon fill="midnightblue" stroke="midnightblue" points="438.54,-330.22 429.35,-335.5 439.82,-337.1 438.54,-330.22"/>
</g>
<!-- Node22 -->
<g id="node22" class="node">
<title>Node22</title>
<g id="a_node22"><a xlink:href="materiallibrary_8cpp.html" target="_top" xlink:title=" ">
<polygon fill="none" stroke="black" points="459,-268.5 459,-298.5 595,-298.5 595,-268.5 459,-268.5"/>
<text text-anchor="start" x="467" y="-286.5" font-family="Helvetica,sans-Serif" font-size="10.00">/github/workspace/src</text>
<text text-anchor="middle" x="527" y="-275.5" font-family="Helvetica,sans-Serif" font-size="10.00">/renderer/materiallibrary.cpp</text>
</a>
</g>
</g>
<!-- Node8&#45;&gt;Node22 -->
<g id="edge25" class="edge">
<title>Node8&#45;&gt;Node22</title>
<path fill="none" stroke="midnightblue" d="M412.65,-331.54C437.93,-321.14 469.3,-308.24 492.78,-298.58"/>
<polygon fill="midnightblue" stroke="midnightblue" points="411.2,-328.35 403.28,-335.4 413.86,-334.83 411.2,-328.35"/>
</g>
<!-- Node9&#45;&gt;Node8 -->
<g id="edge13" class="edge">
<title>Node9&#45;&gt;Node8</title>
<path fill="none" stroke="midnightblue" d="M664.32,-296.84C607.33,-306.75 523.32,-321.23 450,-335 444.11,-336.11 437.96,-337.29 431.78,-338.5"/>
<polygon fill="midnightblue" stroke="midnightblue" points="665.03,-300.27 674.28,-295.1 663.83,-293.37 665.03,-300.27"/>
</g>
<!-- Node10 -->
<g id="node10" class="node">
<title>Node10</title>
<g id="a_node10"><a xlink:href="mastermaterial_8h.html" target="_top" xlink:title=" ">
<polygon fill="none" stroke="black" points="726,-134.5 726,-164.5 856,-164.5 856,-134.5 726,-134.5"/>
<text text-anchor="start" x="734" y="-152.5" font-family="Helvetica,sans-Serif" font-size="10.00">/github/workspace/src</text>
<text text-anchor="middle" x="791" y="-141.5" font-family="Helvetica,sans-Serif" font-size="10.00">/renderer/mastermaterial.h</text>
</a>
</g>
</g>
<!-- Node9&#45;&gt;Node10 -->
<g id="edge9" class="edge">
<title>Node9&#45;&gt;Node10</title>
<path fill="none" stroke="midnightblue" d="M733.73,-258.22C736.3,-241.49 741.14,-219.09 750,-201 756.66,-187.41 767.58,-174.21 776.48,-164.72"/>
<polygon fill="midnightblue" stroke="midnightblue" points="730.24,-257.92 732.35,-268.3 737.18,-258.87 730.24,-257.92"/>
</g>
<!-- Node12 -->
<g id="node12" class="node">
<title>Node12</title>
<g id="a_node12"><a xlink:href="material_8cpp.html" target="_top" xlink:title=" ">
<polygon fill="none" stroke="black" points="759.5,-201.5 759.5,-231.5 872.5,-231.5 872.5,-201.5 759.5,-201.5"/>
<text text-anchor="start" x="767.5" y="-219.5" font-family="Helvetica,sans-Serif" font-size="10.00">/github/workspace/src</text>
<text text-anchor="middle" x="816" y="-208.5" font-family="Helvetica,sans-Serif" font-size="10.00">/renderer/material.cpp</text>
</a>
</g>
</g>
<!-- Node9&#45;&gt;Node12 -->
<g id="edge12" class="edge">
<title>Node9&#45;&gt;Node12</title>
<path fill="none" stroke="midnightblue" d="M757.59,-262.17C770.59,-252.23 785.9,-240.51 797.59,-231.58"/>
<polygon fill="midnightblue" stroke="midnightblue" points="755.26,-259.54 749.44,-268.4 759.51,-265.1 755.26,-259.54"/>
</g>
<!-- Node13 -->
<g id="node13" class="node">
<title>Node13</title>
<g id="a_node13"><a xlink:href="mesh_8h.html" target="_top" xlink:title=" ">
<polygon fill="none" stroke="black" points="1026.5,-201.5 1026.5,-231.5 1139.5,-231.5 1139.5,-201.5 1026.5,-201.5"/>
<text text-anchor="start" x="1034.5" y="-219.5" font-family="Helvetica,sans-Serif" font-size="10.00">/github/workspace/src</text>
<text text-anchor="middle" x="1083" y="-208.5" font-family="Helvetica,sans-Serif" font-size="10.00">/renderer/mesh.h</text>
</a>
</g>
</g>
<!-- Node9&#45;&gt;Node13 -->
<g id="edge14" class="edge">
<title>Node9&#45;&gt;Node13</title>
<path fill="none" stroke="midnightblue" d="M797.72,-267.9C883.18,-251.11 970.79,-236.06 1026.43,-226.78"/>
<polygon fill="midnightblue" stroke="midnightblue" points="796.98,-264.48 787.85,-269.85 798.34,-271.35 796.98,-264.48"/>
</g>
<!-- Node10&#45;&gt;Node8 -->
<g id="edge11" class="edge">
<title>Node10&#45;&gt;Node8</title>
<path fill="none" stroke="midnightblue" d="M715.95,-165.92C643.82,-183.07 533.72,-215.49 450,-268 420.59,-286.44 393.74,-317.47 379.56,-335.45"/>
<polygon fill="midnightblue" stroke="midnightblue" points="716.93,-169.29 725.87,-163.6 715.34,-162.47 716.93,-169.29"/>
</g>
<!-- Node11 -->
<g id="node11" class="node">
<title>Node11</title>
<g id="a_node11"><a xlink:href="mastermaterial_8cpp.html" target="_top" xlink:title=" ">
<polygon fill="none" stroke="black" points="721,-67.5 721,-97.5 861,-97.5 861,-67.5 721,-67.5"/>
<text text-anchor="start" x="729" y="-85.5" font-family="Helvetica,sans-Serif" font-size="10.00">/github/workspace/src</text>
<text text-anchor="middle" x="791" y="-74.5" font-family="Helvetica,sans-Serif" font-size="10.00">/renderer/mastermaterial.cpp</text>
</a>
</g>
</g>
<!-- Node10&#45;&gt;Node11 -->
<g id="edge10" class="edge">
<title>Node10&#45;&gt;Node11</title>
<path fill="none" stroke="midnightblue" d="M791,-124.11C791,-115.15 791,-105.32 791,-97.58"/>
<polygon fill="midnightblue" stroke="midnightblue" points="787.5,-124.4 791,-134.4 794.5,-124.4 787.5,-124.4"/>
</g>
<!-- Node13&#45;&gt;Node10 -->
<g id="edge15" class="edge">
<title>Node13&#45;&gt;Node10</title>
<path fill="none" stroke="midnightblue" d="M1016.53,-200.7C967.78,-189.85 902.01,-175.21 854.07,-164.54"/>
<polygon fill="midnightblue" stroke="midnightblue" points="1015.83,-204.13 1026.35,-202.89 1017.35,-197.3 1015.83,-204.13"/>
</g>
<!-- Node14 -->
<g id="node14" class="node">
<title>Node14</title>
<g id="a_node14"><a xlink:href="mesh_8cpp.html" target="_top" xlink:title=" ">
<polygon fill="none" stroke="black" points="1026.5,-134.5 1026.5,-164.5 1139.5,-164.5 1139.5,-134.5 1026.5,-134.5"/>
<text text-anchor="start" x="1034.5" y="-152.5" font-family="Helvetica,sans-Serif" font-size="10.00">/github/workspace/src</text>
<text text-anchor="middle" x="1083" y="-141.5" font-family="Helvetica,sans-Serif" font-size="10.00">/renderer/mesh.cpp</text>
</a>
</g>
</g>
<!-- Node13&#45;&gt;Node14 -->
<g id="edge16" class="edge">
<title>Node13&#45;&gt;Node14</title>
<path fill="none" stroke="midnightblue" d="M1083,-191.11C1083,-182.15 1083,-172.32 1083,-164.58"/>
<polygon fill="midnightblue" stroke="midnightblue" points="1079.5,-191.4 1083,-201.4 1086.5,-191.4 1079.5,-191.4"/>
</g>
<!-- Node15 -->
<g id="node15" class="node">
<title>Node15</title>
<g id="a_node15"><a xlink:href="modelloader_8h.html" target="_top" xlink:title=" ">
<polygon fill="none" stroke="black" points="1158,-134.5 1158,-164.5 1276,-164.5 1276,-134.5 1158,-134.5"/>
<text text-anchor="start" x="1166" y="-152.5" font-family="Helvetica,sans-Serif" font-size="10.00">/github/workspace/src</text>
<text text-anchor="middle" x="1217" y="-141.5" font-family="Helvetica,sans-Serif" font-size="10.00">/renderer/modelloader.h</text>
</a>
</g>
</g>
<!-- Node13&#45;&gt;Node15 -->
<g id="edge17" class="edge">
<title>Node13&#45;&gt;Node15</title>
<path fill="none" stroke="midnightblue" d="M1121.15,-196.99C1142.39,-186.69 1168.41,-174.07 1187.98,-164.58"/>
<polygon fill="midnightblue" stroke="midnightblue" points="1119.55,-193.88 1112.08,-201.4 1122.6,-200.18 1119.55,-193.88"/>
</g>
<!-- Node18 -->
<g id="node18" class="node">
<title>Node18</title>
<g id="a_node18"><a xlink:href="objectinstance_8h.html" target="_top" xlink:title=" ">
<polygon fill="none" stroke="black" points="880,-134.5 880,-164.5 1008,-164.5 1008,-134.5 880,-134.5"/>
<text text-anchor="start" x="888" y="-152.5" font-family="Helvetica,sans-Serif" font-size="10.00">/github/workspace/src</text>
<text text-anchor="middle" x="944" y="-141.5" font-family="Helvetica,sans-Serif" font-size="10.00">/renderer/objectinstance.h</text>
</a>
</g>
</g>
<!-- Node13&#45;&gt;Node18 -->
<g id="edge20" class="edge">
<title>Node13&#45;&gt;Node18</title>
<path fill="none" stroke="midnightblue" d="M1043.72,-197.13C1021.63,-186.8 994.49,-174.11 974.1,-164.58"/>
<polygon fill="midnightblue" stroke="midnightblue" points="1042.3,-200.33 1052.84,-201.4 1045.26,-193.99 1042.3,-200.33"/>
</g>
<!-- Node16 -->
<g id="node16" class="node">
<title>Node16</title>
<g id="a_node16"><a xlink:href="modelloader_8cpp.html" target="_top" xlink:title=" ">
<polygon fill="none" stroke="black" points="1199,-67.5 1199,-97.5 1327,-97.5 1327,-67.5 1199,-67.5"/>
<text text-anchor="start" x="1207" y="-85.5" font-family="Helvetica,sans-Serif" font-size="10.00">/github/workspace/src</text>
<text text-anchor="middle" x="1263" y="-74.5" font-family="Helvetica,sans-Serif" font-size="10.00">/renderer/modelloader.cpp</text>
</a>
</g>
</g>
<!-- Node15&#45;&gt;Node16 -->
<g id="edge18" class="edge">
<title>Node15&#45;&gt;Node16</title>
<path fill="none" stroke="midnightblue" d="M1232.81,-126.16C1239.52,-116.68 1247.13,-105.92 1253.04,-97.58"/>
<polygon fill="midnightblue" stroke="midnightblue" points="1229.9,-124.21 1226.98,-134.4 1235.62,-128.26 1229.9,-124.21"/>
</g>
<!-- Node17 -->
<g id="node17" class="node">
<title>Node17</title>
<g id="a_node17"><a xlink:href="vulkan__voxel__rasterizer__2_8cpp.html" target="_top" xlink:title=" ">
<polygon fill="none" stroke="black" points="1084,-0.5 1084,-30.5 1258,-30.5 1258,-0.5 1084,-0.5"/>
<text text-anchor="start" x="1092" y="-18.5" font-family="Helvetica,sans-Serif" font-size="10.00">/github/workspace/src</text>
<text text-anchor="middle" x="1171" y="-7.5" font-family="Helvetica,sans-Serif" font-size="10.00">/tests/vulkan_voxel_rasterizer_2.cpp</text>
</a>
</g>
</g>
<!-- Node15&#45;&gt;Node17 -->
<g id="edge19" class="edge">
<title>Node15&#45;&gt;Node17</title>
<path fill="none" stroke="midnightblue" d="M1203.08,-125.53C1198.41,-117.1 1193.51,-107.33 1190,-98 1181.4,-75.16 1175.91,-47.2 1173.14,-30.67"/>
<polygon fill="midnightblue" stroke="midnightblue" points="1200.15,-127.45 1208.16,-134.39 1206.22,-123.97 1200.15,-127.45"/>
</g>
<!-- Node19 -->
<g id="node19" class="node">
<title>Node19</title>
<g id="a_node19"><a xlink:href="objectinstance_8cpp.html" target="_top" xlink:title=" ">
<polygon fill="none" stroke="black" points="879.5,-67.5 879.5,-97.5 1018.5,-97.5 1018.5,-67.5 879.5,-67.5"/>
<text text-anchor="start" x="887.5" y="-85.5" font-family="Helvetica,sans-Serif" font-size="10.00">/github/workspace/src</text>
<text text-anchor="middle" x="949" y="-74.5" font-family="Helvetica,sans-Serif" font-size="10.00">/renderer/objectinstance.cpp</text>
</a>
</g>
</g>
<!-- Node18&#45;&gt;Node19 -->
<g id="edge21" class="edge">
<title>Node18&#45;&gt;Node19</title>
<path fill="none" stroke="midnightblue" d="M945.85,-124.4C946.55,-115.37 947.31,-105.41 947.92,-97.58"/>
<polygon fill="midnightblue" stroke="midnightblue" points="942.36,-124.16 945.08,-134.4 949.34,-124.69 942.36,-124.16"/>
</g>
<!-- Node20 -->
<g id="node20" class="node">
<title>Node20</title>
<g id="a_node20"><a xlink:href="scene_8h.html" target="_top" xlink:title=" ">
<polygon fill="none" stroke="black" points="589.5,-67.5 589.5,-97.5 702.5,-97.5 702.5,-67.5 589.5,-67.5"/>
<text text-anchor="start" x="597.5" y="-85.5" font-family="Helvetica,sans-Serif" font-size="10.00">/github/workspace/src</text>
<text text-anchor="middle" x="646" y="-74.5" font-family="Helvetica,sans-Serif" font-size="10.00">/renderer/scene.h</text>
</a>
</g>
</g>
<!-- Node18&#45;&gt;Node20 -->
<g id="edge22" class="edge">
<title>Node18&#45;&gt;Node20</title>
<path fill="none" stroke="midnightblue" d="M870.19,-132.47C824.6,-122.56 764.9,-109.57 712,-98 708.91,-97.32 705.73,-96.63 702.52,-95.93"/>
<polygon fill="midnightblue" stroke="midnightblue" points="869.47,-135.9 879.99,-134.6 870.96,-129.06 869.47,-135.9"/>
</g>
<!-- Node20&#45;&gt;Node17 -->
<g id="edge24" class="edge">
<title>Node20&#45;&gt;Node17</title>
<path fill="none" stroke="midnightblue" d="M712.93,-66.96C848.06,-45.12 993.57,-30.98 1083.91,-23.3"/>
<polygon fill="midnightblue" stroke="midnightblue" points="712.11,-63.55 702.81,-68.62 713.24,-70.46 712.11,-63.55"/>
</g>
<!-- Node21 -->
<g id="node21" class="node">
<title>Node21</title>
<g id="a_node21"><a xlink:href="scene_8cpp.html" target="_top" xlink:title=" ">
<polygon fill="none" stroke="black" points="589.5,-0.5 589.5,-30.5 702.5,-30.5 702.5,-0.5 589.5,-0.5"/>
<text text-anchor="start" x="597.5" y="-18.5" font-family="Helvetica,sans-Serif" font-size="10.00">/github/workspace/src</text>
<text text-anchor="middle" x="646" y="-7.5" font-family="Helvetica,sans-Serif" font-size="10.00">/renderer/scene.cpp</text>
</a>
</g>
</g>
<!-- Node20&#45;&gt;Node21 -->
<g id="edge23" class="edge">
<title>Node20&#45;&gt;Node21</title>
<path fill="none" stroke="midnightblue" d="M646,-57.11C646,-48.15 646,-38.32 646,-30.58"/>
<polygon fill="midnightblue" stroke="midnightblue" points="642.5,-57.4 646,-67.4 649.5,-57.4 642.5,-57.4"/>
</g>
<!-- Node23&#45;&gt;Node2 -->
<g id="edge30" class="edge">
<title>Node23&#45;&gt;Node2</title>
<path fill="none" stroke="midnightblue" d="M243.28,-370.96C271.15,-388.02 313.24,-413.14 351,-433 413.12,-465.67 427.1,-478.79 494,-500 560.35,-521.04 638.38,-534.12 695.84,-541.68"/>
<polygon fill="midnightblue" stroke="midnightblue" points="245.1,-367.97 234.75,-365.71 241.44,-373.93 245.1,-367.97"/>
</g>
<!-- Node24 -->
<g id="node24" class="node">
<title>Node24</title>
<g id="a_node24"><a xlink:href="descriptorpoolmanager_8h.html" target="_top" xlink:title=" ">
<polygon fill="none" stroke="black" points="182,-268.5 182,-298.5 346,-298.5 346,-268.5 182,-268.5"/>
<text text-anchor="start" x="190" y="-286.5" font-family="Helvetica,sans-Serif" font-size="10.00">/github/workspace/src</text>
<text text-anchor="middle" x="264" y="-275.5" font-family="Helvetica,sans-Serif" font-size="10.00">/renderer/descriptorpoolmanager.h</text>
</a>
</g>
</g>
<!-- Node23&#45;&gt;Node24 -->
<g id="edge27" class="edge">
<title>Node23&#45;&gt;Node24</title>
<path fill="none" stroke="midnightblue" d="M229.64,-327.45C237.28,-317.9 246,-307 252.74,-298.58"/>
<polygon fill="midnightblue" stroke="midnightblue" points="226.8,-325.4 223.28,-335.4 232.26,-329.77 226.8,-325.4"/>
</g>
<!-- Node26 -->
<g id="node26" class="node">
<title>Node26</title>
<g id="a_node26"><a xlink:href="descriptorset_8cpp.html" target="_top" xlink:title=" ">
<polygon fill="none" stroke="black" points="0,-268.5 0,-298.5 164,-298.5 164,-268.5 0,-268.5"/>
<text text-anchor="start" x="8" y="-286.5" font-family="Helvetica,sans-Serif" font-size="10.00">/github/workspace/src</text>
<text text-anchor="middle" x="82" y="-275.5" font-family="Helvetica,sans-Serif" font-size="10.00">/renderer/vulkan/descriptorset.cpp</text>
</a>
</g>
</g>
<!-- Node23&#45;&gt;Node26 -->
<g id="edge31" class="edge">
<title>Node23&#45;&gt;Node26</title>
<path fill="none" stroke="midnightblue" d="M174.71,-330.85C154.15,-320.58 129.05,-308.03 110.15,-298.58"/>
<polygon fill="midnightblue" stroke="midnightblue" points="173.28,-334.05 183.79,-335.4 176.41,-327.79 173.28,-334.05"/>
</g>
<!-- Node24&#45;&gt;Node20 -->
<g id="edge29" class="edge">
<title>Node24&#45;&gt;Node20</title>
<path fill="none" stroke="midnightblue" d="M239.22,-261.13C222.41,-244.02 205.64,-219.86 220,-201 264.85,-142.1 484.2,-105.23 589.45,-90.64"/>
<polygon fill="midnightblue" stroke="midnightblue" points="237.2,-264.04 246.83,-268.45 242.05,-259 237.2,-264.04"/>
</g>
<!-- Node25 -->
<g id="node25" class="node">
<title>Node25</title>
<g id="a_node25"><a xlink:href="descriptorpoolmanager_8cpp.html" target="_top" xlink:title=" ">
<polygon fill="none" stroke="black" points="229,-201.5 229,-231.5 403,-231.5 403,-201.5 229,-201.5"/>
<text text-anchor="start" x="237" y="-219.5" font-family="Helvetica,sans-Serif" font-size="10.00">/github/workspace/src</text>
<text text-anchor="middle" x="316" y="-208.5" font-family="Helvetica,sans-Serif" font-size="10.00">/renderer/descriptorpoolmanager.cpp</text>
</a>
</g>
</g>
<!-- Node24&#45;&gt;Node25 -->
<g id="edge28" class="edge">
<title>Node24&#45;&gt;Node25</title>
<path fill="none" stroke="midnightblue" d="M281.64,-260.45C289.28,-250.9 298,-240 304.74,-231.58"/>
<polygon fill="midnightblue" stroke="midnightblue" points="278.8,-258.4 275.28,-268.4 284.26,-262.77 278.8,-258.4"/>
</g>
<!-- Node30&#45;&gt;Node1 -->
<g id="edge36" class="edge">
<title>Node30&#45;&gt;Node1</title>
<path fill="none" stroke="midnightblue" d="M1227.72,-509.55C1226.16,-527.53 1219.2,-551.57 1204,-567 1183.97,-587.34 1155.14,-599.53 1128.13,-606.82"/>
<polygon fill="midnightblue" stroke="midnightblue" points="1231.21,-509.62 1228.02,-499.52 1224.22,-509.41 1231.21,-509.62"/>
</g>
<!-- Node30&#45;&gt;Node17 -->
<g id="edge51" class="edge">
<title>Node30&#45;&gt;Node17</title>
<path fill="none" stroke="midnightblue" d="M1304.78,-477.16C1370.93,-470.35 1457.02,-457.08 1482,-433 1508.78,-407.18 1501,-388.69 1501,-351.5 1501,-351.5 1501,-351.5 1501,-148.5 1501,-93.58 1341.46,-51.22 1244.24,-30.5"/>
<polygon fill="midnightblue" stroke="midnightblue" points="1304.37,-473.69 1294.77,-478.16 1305.06,-480.65 1304.37,-473.69"/>
</g>
<!-- Node30&#45;&gt;Node28 -->
<g id="edge50" class="edge">
<title>Node30&#45;&gt;Node28</title>
<path fill="none" stroke="midnightblue" d="M1249.17,-462.47C1284.16,-431.89 1337.96,-374.47 1303,-335 1281.34,-310.55 1084.97,-295.52 970.29,-288.75"/>
<polygon fill="midnightblue" stroke="midnightblue" points="1246.51,-460.14 1241.17,-469.29 1251.05,-465.47 1246.51,-460.14"/>
</g>
<!-- Node31 -->
<g id="node31" class="node">
<title>Node31</title>
<g id="a_node31"><a xlink:href="graphicspipeline_8h.html" target="_top" xlink:title=" ">
<polygon fill="none" stroke="black" points="1127.5,-335.5 1127.5,-365.5 1294.5,-365.5 1294.5,-335.5 1127.5,-335.5"/>
<text text-anchor="start" x="1135.5" y="-353.5" font-family="Helvetica,sans-Serif" font-size="10.00">/github/workspace/src</text>
<text text-anchor="middle" x="1211" y="-342.5" font-family="Helvetica,sans-Serif" font-size="10.00">/renderer/vulkan/graphicspipeline.h</text>
</a>
</g>
</g>
<!-- Node30&#45;&gt;Node31 -->
<g id="edge37" class="edge">
<title>Node30&#45;&gt;Node31</title>
<path fill="none" stroke="midnightblue" d="M1220.81,-459.39C1218.31,-431.9 1214.31,-387.89 1212.27,-365.52"/>
<polygon fill="midnightblue" stroke="midnightblue" points="1217.32,-459.73 1221.72,-469.37 1224.3,-459.1 1217.32,-459.73"/>
</g>
<!-- Node33 -->
<g id="node33" class="node">
<title>Node33</title>
<g id="a_node33"><a xlink:href="renderpass_8h.html" target="_top" xlink:title=" ">
<polygon fill="none" stroke="black" points="957.5,-402.5 957.5,-432.5 1102.5,-432.5 1102.5,-402.5 957.5,-402.5"/>
<text text-anchor="start" x="965.5" y="-420.5" font-family="Helvetica,sans-Serif" font-size="10.00">/github/workspace/src</text>
<text text-anchor="middle" x="1030" y="-409.5" font-family="Helvetica,sans-Serif" font-size="10.00">/renderer/vulkan/renderpass.h</text>
</a>
</g>
</g>
<!-- Node30&#45;&gt;Node33 -->
<g id="edge43" class="edge">
<title>Node30&#45;&gt;Node33</title>
<path fill="none" stroke="midnightblue" d="M1171.31,-466.09C1140.16,-455.6 1100.99,-442.41 1071.8,-432.58"/>
<polygon fill="midnightblue" stroke="midnightblue" points="1170.53,-469.52 1181.12,-469.4 1172.76,-462.89 1170.53,-469.52"/>
</g>
<!-- Node35 -->
<g id="node35" class="node">
<title>Node35</title>
<g id="a_node35"><a xlink:href="swapchain_8cpp.html" target="_top" xlink:title=" ">
<polygon fill="none" stroke="black" points="1319,-402.5 1319,-432.5 1473,-432.5 1473,-402.5 1319,-402.5"/>
<text text-anchor="start" x="1327" y="-420.5" font-family="Helvetica,sans-Serif" font-size="10.00">/github/workspace/src</text>
<text text-anchor="middle" x="1396" y="-409.5" font-family="Helvetica,sans-Serif" font-size="10.00">/renderer/vulkan/swapchain.cpp</text>
</a>
</g>
</g>
<!-- Node30&#45;&gt;Node35 -->
<g id="edge49" class="edge">
<title>Node30&#45;&gt;Node35</title>
<path fill="none" stroke="midnightblue" d="M1270.06,-465.82C1297.87,-455.37 1332.59,-442.32 1358.53,-432.58"/>
<polygon fill="midnightblue" stroke="midnightblue" points="1268.67,-462.6 1260.54,-469.4 1271.13,-469.16 1268.67,-462.6"/>
</g>
<!-- Node31&#45;&gt;Node2 -->
<g id="edge40" class="edge">
<title>Node31&#45;&gt;Node2</title>
<path fill="none" stroke="midnightblue" d="M1117.3,-366.39C1047.87,-377.94 962.83,-393.39 948,-402 898.39,-430.8 908,-463.19 864,-500 846.73,-514.44 824.83,-527.24 807.44,-536.34"/>
<polygon fill="midnightblue" stroke="midnightblue" points="1118.13,-369.8 1127.42,-364.71 1116.99,-362.89 1118.13,-369.8"/>
</g>
<!-- Node31&#45;&gt;Node9 -->
<g id="edge39" class="edge">
<title>Node31&#45;&gt;Node9</title>
<path fill="none" stroke="midnightblue" d="M1117.32,-334.96C973.99,-316.21 935.45,-321.91 797,-299 793.99,-298.5 790.91,-297.96 787.81,-297.38"/>
<polygon fill="midnightblue" stroke="midnightblue" points="1117,-338.44 1127.37,-336.29 1117.92,-331.5 1117,-338.44"/>
</g>
<!-- Node31&#45;&gt;Node10 -->
<g id="edge38" class="edge">
<title>Node31&#45;&gt;Node10</title>
<path fill="none" stroke="midnightblue" d="M1172.01,-331.02C1088.72,-291.56 894.99,-199.77 820.72,-164.58"/>
<polygon fill="midnightblue" stroke="midnightblue" points="1170.6,-334.23 1181.13,-335.35 1173.59,-327.9 1170.6,-334.23"/>
</g>
<!-- Node31&#45;&gt;Node28 -->
<g id="edge42" class="edge">
<title>Node31&#45;&gt;Node28</title>
<path fill="none" stroke="midnightblue" d="M1131.24,-333.45C1078.07,-322.75 1008.84,-308.82 957.84,-298.55"/>
<polygon fill="midnightblue" stroke="midnightblue" points="1130.82,-336.93 1141.31,-335.48 1132.2,-330.07 1130.82,-336.93"/>
</g>
<!-- Node32 -->
<g id="node32" class="node">
<title>Node32</title>
<g id="a_node32"><a xlink:href="graphicspipeline_8cpp.html" target="_top" xlink:title=" ">
<polygon fill="none" stroke="black" points="1122.5,-268.5 1122.5,-298.5 1299.5,-298.5 1299.5,-268.5 1122.5,-268.5"/>
<text text-anchor="start" x="1130.5" y="-286.5" font-family="Helvetica,sans-Serif" font-size="10.00">/github/workspace/src</text>
<text text-anchor="middle" x="1211" y="-275.5" font-family="Helvetica,sans-Serif" font-size="10.00">/renderer/vulkan/graphicspipeline.cpp</text>
</a>
</g>
</g>
<!-- Node31&#45;&gt;Node32 -->
<g id="edge41" class="edge">
<title>Node31&#45;&gt;Node32</title>
<path fill="none" stroke="midnightblue" d="M1211,-325.11C1211,-316.15 1211,-306.32 1211,-298.58"/>
<polygon fill="midnightblue" stroke="midnightblue" points="1207.5,-325.4 1211,-335.4 1214.5,-325.4 1207.5,-325.4"/>
</g>
<!-- Node33&#45;&gt;Node1 -->
<g id="edge45" class="edge">
<title>Node33&#45;&gt;Node1</title>
<path fill="none" stroke="midnightblue" d="M1023.42,-442.77C1016.45,-472.69 1008.1,-524.76 1021,-567 1025.14,-580.55 1034.26,-593.75 1042.01,-603.25"/>
<polygon fill="midnightblue" stroke="midnightblue" points="1026.88,-443.36 1025.88,-432.81 1020.08,-441.68 1026.88,-443.36"/>
</g>
<!-- Node33&#45;&gt;Node2 -->
<g id="edge44" class="edge">
<title>Node33&#45;&gt;Node2</title>
<path fill="none" stroke="midnightblue" d="M1010.91,-440.46C993.95,-458.73 967.62,-484.22 940,-500 910.97,-516.59 875.83,-528.39 845.72,-536.4"/>
<polygon fill="midnightblue" stroke="midnightblue" points="1013.89,-442.39 1018.02,-432.63 1008.7,-437.68 1013.89,-442.39"/>
</g>
<!-- Node33&#45;&gt;Node28 -->
<g id="edge48" class="edge">
<title>Node33&#45;&gt;Node28</title>
<path fill="none" stroke="midnightblue" d="M990.38,-397.55C975.2,-389.17 958.33,-378.38 945,-366 923.24,-345.79 904.99,-315.95 895.35,-298.54"/>
<polygon fill="midnightblue" stroke="midnightblue" points="989.11,-400.84 999.58,-402.46 992.4,-394.66 989.11,-400.84"/>
</g>
<!-- Node33&#45;&gt;Node31 -->
<g id="edge46" class="edge">
<title>Node33&#45;&gt;Node31</title>
<path fill="none" stroke="midnightblue" d="M1078.86,-398.96C1108.01,-388.48 1144.54,-375.37 1171.8,-365.58"/>
<polygon fill="midnightblue" stroke="midnightblue" points="1077.5,-395.72 1069.27,-402.4 1079.87,-402.31 1077.5,-395.72"/>
</g>
<!-- Node34 -->
<g id="node34" class="node">
<title>Node34</title>
<g id="a_node34"><a xlink:href="renderpass_8cpp.html" target="_top" xlink:title=" ">
<polygon fill="none" stroke="black" points="954.5,-335.5 954.5,-365.5 1109.5,-365.5 1109.5,-335.5 954.5,-335.5"/>
<text text-anchor="start" x="962.5" y="-353.5" font-family="Helvetica,sans-Serif" font-size="10.00">/github/workspace/src</text>
<text text-anchor="middle" x="1032" y="-342.5" font-family="Helvetica,sans-Serif" font-size="10.00">/renderer/vulkan/renderpass.cpp</text>
</a>
</g>
</g>
<!-- Node33&#45;&gt;Node34 -->
<g id="edge47" class="edge">
<title>Node33&#45;&gt;Node34</title>
<path fill="none" stroke="midnightblue" d="M1030.75,-392.11C1031.03,-383.15 1031.33,-373.32 1031.57,-365.58"/>
<polygon fill="midnightblue" stroke="midnightblue" points="1027.24,-392.29 1030.43,-402.4 1034.24,-392.51 1027.24,-392.29"/>
</g>
</g>
</svg>
