<?xml version="1.0" encoding="UTF-8" standalone="no"?>
<!DOCTYPE svg PUBLIC "-//W3C//DTD SVG 1.1//EN"
 "http://www.w3.org/Graphics/SVG/1.1/DTD/svg11.dtd">
<!-- Generated by graphviz version 2.49.3 (20211027.1501)
 -->
<!-- Title: /github/workspace/src/renderer/vulkan/framebuffer.h Pages: 1 -->
<svg width="675pt" height="374pt"
 viewBox="0.00 0.00 675.00 374.00" xmlns="http://www.w3.org/2000/svg" xmlns:xlink="http://www.w3.org/1999/xlink">
<g id="graph0" class="graph" transform="scale(1 1) rotate(0) translate(4 370)">
<title>/github/workspace/src/renderer/vulkan/framebuffer.h</title>
<!-- Node1 -->
<g id="node1" class="node">
<title>Node1</title>
<g id="a_node1"><a xlink:title=" ">
<polygon fill="#bfbfbf" stroke="black" points="125,-335.5 125,-365.5 271,-365.5 271,-335.5 125,-335.5"/>
<text text-anchor="start" x="133" y="-353.5" font-family="Helvetica,sans-Serif" font-size="10.00">/github/workspace/src</text>
<text text-anchor="middle" x="198" y="-342.5" font-family="Helvetica,sans-Serif" font-size="10.00">/renderer/vulkan/framebuffer.h</text>
</a>
</g>
</g>
<!-- Node2 -->
<g id="node2" class="node">
<title>Node2</title>
<g id="a_node2"><a xlink:href="commandbuffer_8h.html" target="_top" xlink:title=" ">
<polygon fill="none" stroke="black" points="498,-67.5 498,-97.5 662,-97.5 662,-67.5 498,-67.5"/>
<text text-anchor="start" x="506" y="-85.5" font-family="Helvetica,sans-Serif" font-size="10.00">/github/workspace/src</text>
<text text-anchor="middle" x="580" y="-74.5" font-family="Helvetica,sans-Serif" font-size="10.00">/renderer/vulkan/commandbuffer.h</text>
</a>
</g>
</g>
<!-- Node1&#45;&gt;Node2 -->
<g id="edge1" class="edge">
<title>Node1&#45;&gt;Node2</title>
<path fill="none" stroke="midnightblue" d="M281.56,-335.88C316.37,-328.12 356.42,-316.36 390,-299 482.6,-251.12 550.64,-137.78 572.5,-97.78"/>
<polygon fill="midnightblue" stroke="midnightblue" points="280.46,-332.54 271.42,-338.07 281.93,-339.38 280.46,-332.54"/>
</g>
<!-- Node4 -->
<g id="node4" class="node">
<title>Node4</title>
<g id="a_node4"><a xlink:href="vulkan__voxel__rasterizer_8cpp.html" target="_top" xlink:title=" ">
<polygon fill="none" stroke="black" points="195,-0.5 195,-30.5 359,-30.5 359,-0.5 195,-0.5"/>
<text text-anchor="start" x="203" y="-18.5" font-family="Helvetica,sans-Serif" font-size="10.00">/github/workspace/src</text>
<text text-anchor="middle" x="277" y="-7.5" font-family="Helvetica,sans-Serif" font-size="10.00">/tests/vulkan_voxel_rasterizer.cpp</text>
</a>
</g>
</g>
<!-- Node1&#45;&gt;Node4 -->
<g id="edge22" class="edge">
<title>Node1&#45;&gt;Node4</title>
<path fill="none" stroke="midnightblue" d="M114.77,-338.97C86.02,-331.73 55.43,-319.54 33,-299 4.18,-272.61 0,-256.58 0,-217.5 0,-217.5 0,-217.5 0,-148.5 0,-108.53 6.71,-91.86 38,-67 50.47,-57.09 130.63,-41.42 194.73,-30.16"/>
<polygon fill="midnightblue" stroke="midnightblue" points="114.31,-342.46 124.85,-341.33 115.91,-335.64 114.31,-342.46"/>
</g>
<!-- Node5 -->
<g id="node5" class="node">
<title>Node5</title>
<g id="a_node5"><a xlink:href="framebuffer_8cpp.html" target="_top" xlink:title=" ">
<polygon fill="none" stroke="black" points="204,-268.5 204,-298.5 360,-298.5 360,-268.5 204,-268.5"/>
<text text-anchor="start" x="212" y="-286.5" font-family="Helvetica,sans-Serif" font-size="10.00">/github/workspace/src</text>
<text text-anchor="middle" x="282" y="-275.5" font-family="Helvetica,sans-Serif" font-size="10.00">/renderer/vulkan/framebuffer.cpp</text>
</a>
</g>
</g>
<!-- Node1&#45;&gt;Node5 -->
<g id="edge4" class="edge">
<title>Node1&#45;&gt;Node5</title>
<path fill="none" stroke="midnightblue" d="M224.28,-329.17C237.12,-319.23 252.26,-307.51 263.81,-298.58"/>
<polygon fill="midnightblue" stroke="midnightblue" points="221.99,-326.51 216.23,-335.4 226.28,-332.04 221.99,-326.51"/>
</g>
<!-- Node6 -->
<g id="node6" class="node">
<title>Node6</title>
<g id="a_node6"><a xlink:href="swapchain_8h.html" target="_top" xlink:title=" ">
<polygon fill="none" stroke="black" points="42.5,-268.5 42.5,-298.5 185.5,-298.5 185.5,-268.5 42.5,-268.5"/>
<text text-anchor="start" x="50.5" y="-286.5" font-family="Helvetica,sans-Serif" font-size="10.00">/github/workspace/src</text>
<text text-anchor="middle" x="114" y="-275.5" font-family="Helvetica,sans-Serif" font-size="10.00">/renderer/vulkan/swapchain.h</text>
</a>
</g>
</g>
<!-- Node1&#45;&gt;Node6 -->
<g id="edge5" class="edge">
<title>Node1&#45;&gt;Node6</title>
<path fill="none" stroke="midnightblue" d="M165.8,-329.45C152.1,-319.45 136.99,-307.6 126.52,-298.58"/>
<polygon fill="midnightblue" stroke="midnightblue" points="163.93,-332.41 174.09,-335.4 168.01,-326.73 163.93,-332.41"/>
</g>
<!-- Node3 -->
<g id="node3" class="node">
<title>Node3</title>
<g id="a_node3"><a xlink:href="commandbuffer_8cpp.html" target="_top" xlink:title=" ">
<polygon fill="none" stroke="black" points="493,-0.5 493,-30.5 667,-30.5 667,-0.5 493,-0.5"/>
<text text-anchor="start" x="501" y="-18.5" font-family="Helvetica,sans-Serif" font-size="10.00">/github/workspace/src</text>
<text text-anchor="middle" x="580" y="-7.5" font-family="Helvetica,sans-Serif" font-size="10.00">/renderer/vulkan/commandbuffer.cpp</text>
</a>
</g>
</g>
<!-- Node2&#45;&gt;Node3 -->
<g id="edge2" class="edge">
<title>Node2&#45;&gt;Node3</title>
<path fill="none" stroke="midnightblue" d="M580,-57.11C580,-48.15 580,-38.32 580,-30.58"/>
<polygon fill="midnightblue" stroke="midnightblue" points="576.5,-57.4 580,-67.4 583.5,-57.4 576.5,-57.4"/>
</g>
<!-- Node2&#45;&gt;Node4 -->
<g id="edge3" class="edge">
<title>Node2&#45;&gt;Node4</title>
<path fill="none" stroke="midnightblue" d="M504.56,-65.32C454.76,-54.63 390.16,-40.77 342.52,-30.55"/>
<polygon fill="midnightblue" stroke="midnightblue" points="504.11,-68.8 514.63,-67.48 505.58,-61.96 504.11,-68.8"/>
</g>
<!-- Node6&#45;&gt;Node1 -->
<g id="edge8" class="edge">
<title>Node6&#45;&gt;Node1</title>
<path fill="none" stroke="midnightblue" d="M146.16,-304.52C159.85,-314.51 174.97,-326.37 185.45,-335.4"/>
<polygon fill="midnightblue" stroke="midnightblue" points="148.03,-301.56 137.87,-298.58 143.96,-307.25 148.03,-301.56"/>
</g>
<!-- Node6&#45;&gt;Node4 -->
<g id="edge21" class="edge">
<title>Node6&#45;&gt;Node4</title>
<path fill="none" stroke="midnightblue" d="M96.79,-260.25C66.37,-218.04 10.52,-125.36 57,-67 65.91,-55.81 136.21,-40.96 194.99,-30.26"/>
<polygon fill="midnightblue" stroke="midnightblue" points="94.09,-262.49 102.85,-268.46 99.73,-258.33 94.09,-262.49"/>
</g>
<!-- Node7 -->
<g id="node7" class="node">
<title>Node7</title>
<g id="a_node7"><a xlink:href="application_8h.html" target="_top" xlink:title=" ">
<polygon fill="none" stroke="black" points="66.5,-67.5 66.5,-97.5 209.5,-97.5 209.5,-67.5 66.5,-67.5"/>
<text text-anchor="start" x="74.5" y="-85.5" font-family="Helvetica,sans-Serif" font-size="10.00">/github/workspace/src</text>
<text text-anchor="middle" x="138" y="-74.5" font-family="Helvetica,sans-Serif" font-size="10.00">/renderer/vulkan/application.h</text>
</a>
</g>
</g>
<!-- Node6&#45;&gt;Node7 -->
<g id="edge6" class="edge">
<title>Node6&#45;&gt;Node7</title>
<path fill="none" stroke="midnightblue" d="M104.01,-258.9C92.84,-228.93 78.25,-176.06 94,-134 99.3,-119.84 110.57,-107.04 120.37,-97.87"/>
<polygon fill="midnightblue" stroke="midnightblue" points="100.86,-260.45 107.76,-268.49 107.38,-257.9 100.86,-260.45"/>
</g>
<!-- Node9 -->
<g id="node9" class="node">
<title>Node9</title>
<g id="a_node9"><a xlink:href="graphicspipeline_8h.html" target="_top" xlink:title=" ">
<polygon fill="none" stroke="black" points="103.5,-134.5 103.5,-164.5 270.5,-164.5 270.5,-134.5 103.5,-134.5"/>
<text text-anchor="start" x="111.5" y="-152.5" font-family="Helvetica,sans-Serif" font-size="10.00">/github/workspace/src</text>
<text text-anchor="middle" x="187" y="-141.5" font-family="Helvetica,sans-Serif" font-size="10.00">/renderer/vulkan/graphicspipeline.h</text>
</a>
</g>
</g>
<!-- Node6&#45;&gt;Node9 -->
<g id="edge9" class="edge">
<title>Node6&#45;&gt;Node9</title>
<path fill="none" stroke="midnightblue" d="M115.93,-258.11C118.13,-241.16 122.86,-218.54 133,-201 141.35,-186.55 155.14,-173.76 166.7,-164.66"/>
<polygon fill="midnightblue" stroke="midnightblue" points="112.42,-258.01 114.81,-268.33 119.37,-258.77 112.42,-258.01"/>
</g>
<!-- Node11 -->
<g id="node11" class="node">
<title>Node11</title>
<g id="a_node11"><a xlink:href="renderpass_8h.html" target="_top" xlink:title=" ">
<polygon fill="none" stroke="black" points="315.5,-201.5 315.5,-231.5 460.5,-231.5 460.5,-201.5 315.5,-201.5"/>
<text text-anchor="start" x="323.5" y="-219.5" font-family="Helvetica,sans-Serif" font-size="10.00">/github/workspace/src</text>
<text text-anchor="middle" x="388" y="-208.5" font-family="Helvetica,sans-Serif" font-size="10.00">/renderer/vulkan/renderpass.h</text>
</a>
</g>
</g>
<!-- Node6&#45;&gt;Node11 -->
<g id="edge14" class="edge">
<title>Node6&#45;&gt;Node11</title>
<path fill="none" stroke="midnightblue" d="M183.05,-266.12C227.89,-255.48 285.72,-241.76 328.52,-231.61"/>
<polygon fill="midnightblue" stroke="midnightblue" points="182.04,-262.76 173.12,-268.48 183.65,-269.57 182.04,-262.76"/>
</g>
<!-- Node13 -->
<g id="node13" class="node">
<title>Node13</title>
<g id="a_node13"><a xlink:href="swapchain_8cpp.html" target="_top" xlink:title=" ">
<polygon fill="none" stroke="black" points="142,-201.5 142,-231.5 296,-231.5 296,-201.5 142,-201.5"/>
<text text-anchor="start" x="150" y="-219.5" font-family="Helvetica,sans-Serif" font-size="10.00">/github/workspace/src</text>
<text text-anchor="middle" x="219" y="-208.5" font-family="Helvetica,sans-Serif" font-size="10.00">/renderer/vulkan/swapchain.cpp</text>
</a>
</g>
</g>
<!-- Node6&#45;&gt;Node13 -->
<g id="edge20" class="edge">
<title>Node6&#45;&gt;Node13</title>
<path fill="none" stroke="midnightblue" d="M145.48,-263.02C161.82,-252.9 181.41,-240.77 196.26,-231.58"/>
<polygon fill="midnightblue" stroke="midnightblue" points="143.44,-260.16 136.78,-268.4 147.13,-266.11 143.44,-260.16"/>
</g>
<!-- Node8 -->
<g id="node8" class="node">
<title>Node8</title>
<g id="a_node8"><a xlink:href="application_8cpp.html" target="_top" xlink:title=" ">
<polygon fill="none" stroke="black" points="23,-0.5 23,-30.5 177,-30.5 177,-0.5 23,-0.5"/>
<text text-anchor="start" x="31" y="-18.5" font-family="Helvetica,sans-Serif" font-size="10.00">/github/workspace/src</text>
<text text-anchor="middle" x="100" y="-7.5" font-family="Helvetica,sans-Serif" font-size="10.00">/renderer/vulkan/application.cpp</text>
</a>
</g>
</g>
<!-- Node7&#45;&gt;Node8 -->
<g id="edge7" class="edge">
<title>Node7&#45;&gt;Node8</title>
<path fill="none" stroke="midnightblue" d="M124.6,-58.58C119.14,-49.24 113.01,-38.75 108.23,-30.58"/>
<polygon fill="midnightblue" stroke="midnightblue" points="121.69,-60.53 129.75,-67.4 127.73,-57 121.69,-60.53"/>
</g>
<!-- Node9&#45;&gt;Node2 -->
<g id="edge11" class="edge">
<title>Node9&#45;&gt;Node2</title>
<path fill="none" stroke="midnightblue" d="M280.83,-132.98C346.96,-122.04 434.66,-107.54 497.99,-97.06"/>
<polygon fill="midnightblue" stroke="midnightblue" points="280.12,-129.55 270.83,-134.64 281.26,-136.46 280.12,-129.55"/>
</g>
<!-- Node9&#45;&gt;Node4 -->
<g id="edge13" class="edge">
<title>Node9&#45;&gt;Node4</title>
<path fill="none" stroke="midnightblue" d="M202.45,-125.83C221.11,-98.47 251.92,-53.28 267.44,-30.52"/>
<polygon fill="midnightblue" stroke="midnightblue" points="199.37,-124.14 196.63,-134.37 205.16,-128.08 199.37,-124.14"/>
</g>
<!-- Node9&#45;&gt;Node7 -->
<g id="edge10" class="edge">
<title>Node9&#45;&gt;Node7</title>
<path fill="none" stroke="midnightblue" d="M170.16,-126.16C163.01,-116.68 154.9,-105.92 148.61,-97.58"/>
<polygon fill="midnightblue" stroke="midnightblue" points="167.55,-128.52 176.37,-134.4 173.14,-124.3 167.55,-128.52"/>
</g>
<!-- Node10 -->
<g id="node10" class="node">
<title>Node10</title>
<g id="a_node10"><a xlink:href="graphicspipeline_8cpp.html" target="_top" xlink:title=" ">
<polygon fill="none" stroke="black" points="265.5,-67.5 265.5,-97.5 442.5,-97.5 442.5,-67.5 265.5,-67.5"/>
<text text-anchor="start" x="273.5" y="-85.5" font-family="Helvetica,sans-Serif" font-size="10.00">/github/workspace/src</text>
<text text-anchor="middle" x="354" y="-74.5" font-family="Helvetica,sans-Serif" font-size="10.00">/renderer/vulkan/graphicspipeline.cpp</text>
</a>
</g>
</g>
<!-- Node9&#45;&gt;Node10 -->
<g id="edge12" class="edge">
<title>Node9&#45;&gt;Node10</title>
<path fill="none" stroke="midnightblue" d="M232.78,-130.68C259.56,-120.26 292.9,-107.28 317.83,-97.58"/>
<polygon fill="midnightblue" stroke="midnightblue" points="231.29,-127.51 223.24,-134.4 233.83,-134.03 231.29,-127.51"/>
</g>
<!-- Node11&#45;&gt;Node1 -->
<g id="edge16" class="edge">
<title>Node11&#45;&gt;Node1</title>
<path fill="none" stroke="midnightblue" d="M388.53,-241.62C387.62,-259.64 383.43,-283.7 369,-299 343.83,-325.68 305.32,-338.48 271.21,-344.54"/>
<polygon fill="midnightblue" stroke="midnightblue" points="392.03,-241.64 388.74,-231.57 385.03,-241.49 392.03,-241.64"/>
</g>
<!-- Node11&#45;&gt;Node2 -->
<g id="edge15" class="edge">
<title>Node11&#45;&gt;Node2</title>
<path fill="none" stroke="midnightblue" d="M429.09,-197.04C447.12,-188.27 468.18,-177.06 486,-165 516.59,-144.3 548.25,-114.89 565.91,-97.64"/>
<polygon fill="midnightblue" stroke="midnightblue" points="427.49,-193.93 419.98,-201.4 430.51,-200.24 427.49,-193.93"/>
</g>
<!-- Node11&#45;&gt;Node4 -->
<g id="edge19" class="edge">
<title>Node11&#45;&gt;Node4</title>
<path fill="none" stroke="midnightblue" d="M424.95,-195.72C436.05,-187.76 446.89,-177.48 453,-165 460.58,-149.51 464.32,-84.19 451,-67 439.01,-51.52 397.53,-39.15 358.08,-30.53"/>
<polygon fill="midnightblue" stroke="midnightblue" points="422.87,-192.9 416.48,-201.35 426.75,-198.72 422.87,-192.9"/>
</g>
<!-- Node11&#45;&gt;Node9 -->
<g id="edge17" class="edge">
<title>Node11&#45;&gt;Node9</title>
<path fill="none" stroke="midnightblue" d="M334.59,-198.23C302.07,-187.71 261.06,-174.45 230.53,-164.58"/>
<polygon fill="midnightblue" stroke="midnightblue" points="333.79,-201.65 344.39,-201.4 335.95,-194.99 333.79,-201.65"/>
</g>
<!-- Node12 -->
<g id="node12" class="node">
<title>Node12</title>
<g id="a_node12"><a xlink:href="renderpass_8cpp.html" target="_top" xlink:title=" ">
<polygon fill="none" stroke="black" points="288.5,-134.5 288.5,-164.5 443.5,-164.5 443.5,-134.5 288.5,-134.5"/>
<text text-anchor="start" x="296.5" y="-152.5" font-family="Helvetica,sans-Serif" font-size="10.00">/github/workspace/src</text>
<text text-anchor="middle" x="366" y="-141.5" font-family="Helvetica,sans-Serif" font-size="10.00">/renderer/vulkan/renderpass.cpp</text>
</a>
</g>
</g>
<!-- Node11&#45;&gt;Node12 -->
<g id="edge18" class="edge">
<title>Node11&#45;&gt;Node12</title>
<path fill="none" stroke="midnightblue" d="M379.94,-191.7C376.86,-182.59 373.44,-172.49 370.76,-164.58"/>
<polygon fill="midnightblue" stroke="midnightblue" points="376.71,-193.05 383.23,-201.4 383.34,-190.8 376.71,-193.05"/>
</g>
</g>
</svg>
