<?xml version="1.0" encoding="UTF-8" standalone="no"?>
<!DOCTYPE svg PUBLIC "-//W3C//DTD SVG 1.1//EN"
 "http://www.w3.org/Graphics/SVG/1.1/DTD/svg11.dtd">
<!-- Generated by graphviz version 2.49.3 (20211215.1918)
 -->
<!-- Title: /github/workspace/src/renderer/vulkan/image.h Pages: 1 -->
<svg width="1495pt" height="375pt"
 viewBox="0.00 0.00 1494.50 375.00" xmlns="http://www.w3.org/2000/svg" xmlns:xlink="http://www.w3.org/1999/xlink">
<g id="graph0" class="graph" transform="scale(1 1) rotate(0) translate(4 371)">
<title>/github/workspace/src/renderer/vulkan/image.h</title>
<!-- Node1 -->
<g id="node1" class="node">
<title>Node1</title>
<g id="a_node1"><a xlink:title=" ">
<polygon fill="#bfbfbf" stroke="black" points="994,-336.5 994,-366.5 1117,-366.5 1117,-336.5 994,-336.5"/>
<text text-anchor="start" x="1002" y="-354.5" font-family="Helvetica,sans-Serif" font-size="10.00">/github/workspace/src</text>
<text text-anchor="middle" x="1055.5" y="-343.5" font-family="Helvetica,sans-Serif" font-size="10.00">/renderer/vulkan/image.h</text>
</a>
</g>
</g>
<!-- Node2 -->
<g id="node2" class="node">
<title>Node2</title>
<g id="a_node2"><a xlink:title=" ">
<polygon fill="none" stroke="#bfbfbf" points="297.5,-112.5 297.5,-131.5 405.5,-131.5 405.5,-112.5 297.5,-112.5"/>
<text text-anchor="middle" x="351.5" y="-119.5" font-family="Helvetica,sans-Serif" font-size="10.00">vulkan/vulkan_core.h</text>
</a>
</g>
</g>
<!-- Node1&#45;&gt;Node2 -->
<g id="edge1" class="edge">
<title>Node1&#45;&gt;Node2</title>
<path fill="none" stroke="midnightblue" d="M993.91,-348.48C818.69,-341.28 324.2,-310.27 232.5,-188 212.19,-160.92 252.25,-143.75 291.27,-133.9"/>
<polygon fill="midnightblue" stroke="midnightblue" points="292.21,-137.28 301.13,-131.56 290.59,-130.47 292.21,-137.28"/>
</g>
<!-- Node3 -->
<g id="node3" class="node">
<title>Node3</title>
<g id="a_node3"><a xlink:title=" ">
<polygon fill="none" stroke="#bfbfbf" points="1329,-56.5 1329,-75.5 1416,-75.5 1416,-56.5 1329,-56.5"/>
<text text-anchor="middle" x="1372.5" y="-63.5" font-family="Helvetica,sans-Serif" font-size="10.00">vk_mem_alloc.h</text>
</a>
</g>
</g>
<!-- Node1&#45;&gt;Node3 -->
<g id="edge2" class="edge">
<title>Node1&#45;&gt;Node3</title>
<path fill="none" stroke="midnightblue" d="M1117.34,-345.21C1228.01,-334.02 1448.5,-303.18 1448.5,-235 1448.5,-235 1448.5,-235 1448.5,-177 1448.5,-137.28 1414.54,-101.5 1392.02,-82.15"/>
<polygon fill="midnightblue" stroke="midnightblue" points="1393.98,-79.24 1384.04,-75.57 1389.52,-84.63 1393.98,-79.24"/>
</g>
<!-- Node4 -->
<g id="node4" class="node">
<title>Node4</title>
<g id="a_node4"><a xlink:href="device_8h.html" target="_top" xlink:title=" ">
<polygon fill="none" stroke="black" points="789,-280.5 789,-299.5 842,-299.5 842,-280.5 789,-280.5"/>
<text text-anchor="middle" x="815.5" y="-287.5" font-family="Helvetica,sans-Serif" font-size="10.00">device.h</text>
</a>
</g>
</g>
<!-- Node1&#45;&gt;Node4 -->
<g id="edge3" class="edge">
<title>Node1&#45;&gt;Node4</title>
<path fill="none" stroke="midnightblue" d="M998.93,-336.47C953.51,-325.22 891.09,-309.74 852.03,-300.06"/>
<polygon fill="midnightblue" stroke="midnightblue" points="852.7,-296.62 842.15,-297.61 851.02,-303.41 852.7,-296.62"/>
</g>
<!-- Node6 -->
<g id="node6" class="node">
<title>Node6</title>
<g id="a_node6"><a xlink:title=" ">
<polygon fill="none" stroke="#bfbfbf" points="615.5,-0.5 615.5,-19.5 659.5,-19.5 659.5,-0.5 615.5,-0.5"/>
<text text-anchor="middle" x="637.5" y="-7.5" font-family="Helvetica,sans-Serif" font-size="10.00">vector</text>
</a>
</g>
</g>
<!-- Node1&#45;&gt;Node6 -->
<g id="edge64" class="edge">
<title>Node1&#45;&gt;Node6</title>
<path fill="none" stroke="midnightblue" d="M1117.25,-346.82C1236.43,-338.01 1486.5,-310.53 1486.5,-235 1486.5,-235 1486.5,-235 1486.5,-121 1486.5,-81.38 1461.39,-72.77 1425.5,-56 1390.75,-39.76 813.93,-17.5 669.89,-12.18"/>
<polygon fill="midnightblue" stroke="midnightblue" points="669.65,-8.67 659.53,-11.8 669.4,-15.66 669.65,-8.67"/>
</g>
<!-- Node17 -->
<g id="node17" class="node">
<title>Node17</title>
<g id="a_node17"><a xlink:href="vulkanclass_8h.html" target="_top" xlink:title=" ">
<polygon fill="none" stroke="black" points="1187.5,-56.5 1187.5,-75.5 1263.5,-75.5 1263.5,-56.5 1187.5,-56.5"/>
<text text-anchor="middle" x="1225.5" y="-63.5" font-family="Helvetica,sans-Serif" font-size="10.00">vulkanclass.h</text>
</a>
</g>
</g>
<!-- Node1&#45;&gt;Node17 -->
<g id="edge58" class="edge">
<title>Node1&#45;&gt;Node17</title>
<path fill="none" stroke="midnightblue" d="M1117.07,-350.87C1199.24,-347.76 1334.5,-328.45 1334.5,-235 1334.5,-235 1334.5,-235 1334.5,-177 1334.5,-146.9 1334.79,-135.1 1315.5,-112 1302.75,-96.73 1283.52,-86.14 1266.11,-79.08"/>
<polygon fill="midnightblue" stroke="midnightblue" points="1267.27,-75.78 1256.68,-75.52 1264.8,-82.33 1267.27,-75.78"/>
</g>
<!-- Node20 -->
<g id="node20" class="node">
<title>Node20</title>
<g id="a_node20"><a xlink:href="queues_8h.html" target="_top" xlink:title=" ">
<polygon fill="none" stroke="black" points="848.5,-168.5 848.5,-187.5 904.5,-187.5 904.5,-168.5 848.5,-168.5"/>
<text text-anchor="middle" x="876.5" y="-175.5" font-family="Helvetica,sans-Serif" font-size="10.00">queues.h</text>
</a>
</g>
</g>
<!-- Node1&#45;&gt;Node20 -->
<g id="edge59" class="edge">
<title>Node1&#45;&gt;Node20</title>
<path fill="none" stroke="midnightblue" d="M1040.85,-336.47C1007.77,-304.77 927.46,-227.82 892.83,-194.65"/>
<polygon fill="midnightblue" stroke="midnightblue" points="895.08,-191.95 885.43,-187.56 890.23,-197.01 895.08,-191.95"/>
</g>
<!-- Node27 -->
<g id="node27" class="node">
<title>Node27</title>
<g id="a_node27"><a xlink:href="imageview_8h.html" target="_top" xlink:title=" ">
<polygon fill="none" stroke="black" points="0,-224.5 0,-243.5 71,-243.5 71,-224.5 0,-224.5"/>
<text text-anchor="middle" x="35.5" y="-231.5" font-family="Helvetica,sans-Serif" font-size="10.00">imageview.h</text>
</a>
</g>
</g>
<!-- Node1&#45;&gt;Node27 -->
<g id="edge60" class="edge">
<title>Node1&#45;&gt;Node27</title>
<path fill="none" stroke="midnightblue" d="M993.82,-350.29C791.52,-349.17 157.07,-342.31 76.5,-300 57.25,-289.89 43.17,-268.7 36.86,-253.26"/>
<polygon fill="midnightblue" stroke="midnightblue" points="40.17,-252.12 33.76,-243.69 33.51,-254.28 40.17,-252.12"/>
</g>
<!-- Node4&#45;&gt;Node3 -->
<g id="edge5" class="edge">
<title>Node4&#45;&gt;Node3</title>
<path fill="none" stroke="midnightblue" d="M842.01,-288.92C926.02,-288.29 1185.04,-283.11 1257.5,-244 1320.9,-209.78 1354.74,-123.73 1367.04,-85.64"/>
<polygon fill="midnightblue" stroke="midnightblue" points="1370.45,-86.45 1370.06,-75.86 1363.76,-84.38 1370.45,-86.45"/>
</g>
<!-- Node5 -->
<g id="node5" class="node">
<title>Node5</title>
<g id="a_node5"><a xlink:title=" ">
<polygon fill="none" stroke="#bfbfbf" points="1017.5,-0.5 1017.5,-19.5 1101.5,-19.5 1101.5,-0.5 1017.5,-0.5"/>
<text text-anchor="middle" x="1059.5" y="-7.5" font-family="Helvetica,sans-Serif" font-size="10.00">vulkan/vulkan.h</text>
</a>
</g>
</g>
<!-- Node4&#45;&gt;Node5 -->
<g id="edge4" class="edge">
<title>Node4&#45;&gt;Node5</title>
<path fill="none" stroke="midnightblue" d="M842.03,-288.91C929.33,-288.23 1206.59,-282.99 1285.5,-244 1320.47,-226.72 1419.49,-93.38 1425.5,-76 1428.41,-67.6 1431.39,-62.66 1425.5,-56 1405.06,-32.9 1207.96,-19.07 1111.78,-13.65"/>
<polygon fill="midnightblue" stroke="midnightblue" points="1111.86,-10.15 1101.68,-13.09 1111.47,-17.14 1111.86,-10.15"/>
</g>
<!-- Node4&#45;&gt;Node6 -->
<g id="edge6" class="edge">
<title>Node4&#45;&gt;Node6</title>
<path fill="none" stroke="midnightblue" d="M842.27,-285.79C935.95,-273.5 1238.73,-224.41 1150.5,-112 1090.55,-35.62 772.55,-16.37 669.65,-12.1"/>
<polygon fill="midnightblue" stroke="midnightblue" points="669.69,-8.6 659.56,-11.7 669.41,-15.59 669.69,-8.6"/>
</g>
<!-- Node7 -->
<g id="node7" class="node">
<title>Node7</title>
<g id="a_node7"><a xlink:title=" ">
<polygon fill="none" stroke="#bfbfbf" points="836,-56.5 836,-75.5 895,-75.5 895,-56.5 836,-56.5"/>
<text text-anchor="middle" x="865.5" y="-63.5" font-family="Helvetica,sans-Serif" font-size="10.00">stdexcept</text>
</a>
</g>
</g>
<!-- Node4&#45;&gt;Node7 -->
<g id="edge7" class="edge">
<title>Node4&#45;&gt;Node7</title>
<path fill="none" stroke="midnightblue" d="M842.42,-285.31C906.77,-274.86 1069.06,-238.61 1135.5,-132 1140.2,-124.46 1141.25,-118.78 1135.5,-112 1106.49,-77.75 973.29,-69.55 905.45,-67.6"/>
<polygon fill="midnightblue" stroke="midnightblue" points="905.24,-64.09 895.15,-67.33 905.06,-71.09 905.24,-64.09"/>
</g>
<!-- Node8 -->
<g id="node8" class="node">
<title>Node8</title>
<g id="a_node8"><a xlink:title=" ">
<polygon fill="none" stroke="#bfbfbf" points="731,-56.5 731,-75.5 772,-75.5 772,-56.5 731,-56.5"/>
<text text-anchor="middle" x="751.5" y="-63.5" font-family="Helvetica,sans-Serif" font-size="10.00">string</text>
</a>
</g>
</g>
<!-- Node4&#45;&gt;Node8 -->
<g id="edge8" class="edge">
<title>Node4&#45;&gt;Node8</title>
<path fill="none" stroke="midnightblue" d="M813.88,-280.1C811.53,-267.51 806.86,-243.84 801.5,-224 790.29,-182.48 784.49,-173 771.5,-132 766.54,-116.35 761.07,-98.52 757.1,-85.5"/>
<polygon fill="midnightblue" stroke="midnightblue" points="760.43,-84.4 754.17,-75.85 753.73,-86.43 760.43,-84.4"/>
</g>
<!-- Node9 -->
<g id="node9" class="node">
<title>Node9</title>
<g id="a_node9"><a xlink:title=" ">
<polygon fill="none" stroke="#bfbfbf" points="719.5,-168.5 719.5,-187.5 749.5,-187.5 749.5,-168.5 719.5,-168.5"/>
<text text-anchor="middle" x="734.5" y="-175.5" font-family="Helvetica,sans-Serif" font-size="10.00">set</text>
</a>
</g>
</g>
<!-- Node4&#45;&gt;Node9 -->
<g id="edge9" class="edge">
<title>Node4&#45;&gt;Node9</title>
<path fill="none" stroke="midnightblue" d="M802.53,-280.29C791.05,-272.05 774.46,-258.76 763.5,-244 752.92,-229.75 745.09,-211.03 740.24,-197.35"/>
<polygon fill="midnightblue" stroke="midnightblue" points="743.49,-196.01 737.01,-187.63 736.85,-198.22 743.49,-196.01"/>
</g>
<!-- Node10 -->
<g id="node10" class="node">
<title>Node10</title>
<g id="a_node10"><a xlink:title=" ">
<polygon fill="none" stroke="#bfbfbf" points="200.5,-0.5 200.5,-19.5 246.5,-19.5 246.5,-0.5 200.5,-0.5"/>
<text text-anchor="middle" x="223.5" y="-7.5" font-family="Helvetica,sans-Serif" font-size="10.00">cstring</text>
</a>
</g>
</g>
<!-- Node4&#45;&gt;Node10 -->
<g id="edge10" class="edge">
<title>Node4&#45;&gt;Node10</title>
<path fill="none" stroke="midnightblue" d="M788.65,-289.26C671,-290.1 204.9,-290.48 161.5,-244 148.87,-230.47 91.74,-256.91 183.5,-56 188.52,-45.02 197.15,-34.79 205.11,-26.86"/>
<polygon fill="midnightblue" stroke="midnightblue" points="207.79,-29.15 212.69,-19.77 203,-24.04 207.79,-29.15"/>
</g>
<!-- Node11 -->
<g id="node11" class="node">
<title>Node11</title>
<g id="a_node11"><a xlink:title=" ">
<polygon fill="none" stroke="#bfbfbf" points="91.5,-0.5 91.5,-19.5 145.5,-19.5 145.5,-0.5 91.5,-0.5"/>
<text text-anchor="middle" x="118.5" y="-7.5" font-family="Helvetica,sans-Serif" font-size="10.00">iostream</text>
</a>
</g>
</g>
<!-- Node4&#45;&gt;Node11 -->
<g id="edge11" class="edge">
<title>Node4&#45;&gt;Node11</title>
<path fill="none" stroke="midnightblue" d="M788.86,-289.01C694.09,-288.7 374.05,-284.6 281.5,-244 188.39,-203.16 139.6,-77.22 124.08,-29.55"/>
<polygon fill="midnightblue" stroke="midnightblue" points="127.39,-28.4 121.05,-19.91 120.71,-30.5 127.39,-28.4"/>
</g>
<!-- Node12 -->
<g id="node12" class="node">
<title>Node12</title>
<g id="a_node12"><a xlink:title=" ">
<polygon fill="none" stroke="#bfbfbf" points="682,-112.5 682,-131.5 723,-131.5 723,-112.5 682,-112.5"/>
<text text-anchor="middle" x="702.5" y="-119.5" font-family="Helvetica,sans-Serif" font-size="10.00">bitset</text>
</a>
</g>
</g>
<!-- Node4&#45;&gt;Node12 -->
<g id="edge12" class="edge">
<title>Node4&#45;&gt;Node12</title>
<path fill="none" stroke="midnightblue" d="M812.93,-280.35C806.42,-259.42 787.66,-205.03 758.5,-168 749.12,-156.09 736.03,-145.35 724.86,-137.35"/>
<polygon fill="midnightblue" stroke="midnightblue" points="726.65,-134.33 716.43,-131.55 722.69,-140.1 726.65,-134.33"/>
</g>
<!-- Node13 -->
<g id="node13" class="node">
<title>Node13</title>
<g id="a_node13"><a xlink:title=" ">
<polygon fill="none" stroke="#bfbfbf" points="242,-168.5 242,-187.5 293,-187.5 293,-168.5 242,-168.5"/>
<text text-anchor="middle" x="267.5" y="-175.5" font-family="Helvetica,sans-Serif" font-size="10.00">memory</text>
</a>
</g>
</g>
<!-- Node4&#45;&gt;Node13 -->
<g id="edge13" class="edge">
<title>Node4&#45;&gt;Node13</title>
<path fill="none" stroke="midnightblue" d="M788.71,-286.12C735.27,-280.15 611.77,-265.18 509.5,-244 435.09,-228.59 349.55,-203.95 302.72,-189.84"/>
<polygon fill="midnightblue" stroke="midnightblue" points="303.64,-186.47 293.05,-186.92 301.61,-193.17 303.64,-186.47"/>
</g>
<!-- Node14 -->
<g id="node14" class="node">
<title>Node14</title>
<g id="a_node14"><a xlink:href="physicaldevice_8h.html" target="_top" xlink:title=" ">
<polygon fill="none" stroke="black" points="518.5,-224.5 518.5,-243.5 606.5,-243.5 606.5,-224.5 518.5,-224.5"/>
<text text-anchor="middle" x="562.5" y="-231.5" font-family="Helvetica,sans-Serif" font-size="10.00">physicaldevice.h</text>
</a>
</g>
</g>
<!-- Node4&#45;&gt;Node14 -->
<g id="edge14" class="edge">
<title>Node4&#45;&gt;Node14</title>
<path fill="none" stroke="midnightblue" d="M788.9,-283.32C747.07,-274.39 665.21,-256.92 612.24,-245.62"/>
<polygon fill="midnightblue" stroke="midnightblue" points="612.88,-242.17 602.37,-243.51 611.42,-249.02 612.88,-242.17"/>
</g>
<!-- Node18 -->
<g id="node18" class="node">
<title>Node18</title>
<g id="a_node18"><a xlink:href="instance_8h.html" target="_top" xlink:title=" ">
<polygon fill="none" stroke="black" points="230,-56.5 230,-75.5 291,-75.5 291,-56.5 230,-56.5"/>
<text text-anchor="middle" x="260.5" y="-63.5" font-family="Helvetica,sans-Serif" font-size="10.00">instance.h</text>
</a>
</g>
</g>
<!-- Node4&#45;&gt;Node18 -->
<g id="edge57" class="edge">
<title>Node4&#45;&gt;Node18</title>
<path fill="none" stroke="midnightblue" d="M788.9,-288.94C683.87,-288.06 300.45,-278.6 232.5,-188 209.1,-156.8 232.75,-109.28 248.64,-84.08"/>
<polygon fill="midnightblue" stroke="midnightblue" points="251.65,-85.87 254.24,-75.59 245.81,-82.01 251.65,-85.87"/>
</g>
<!-- Node14&#45;&gt;Node2 -->
<g id="edge15" class="edge">
<title>Node14&#45;&gt;Node2</title>
<path fill="none" stroke="midnightblue" d="M531.89,-224.48C506.36,-216.74 469.44,-204.1 439.5,-188 413.29,-173.9 386.2,-152.71 369.12,-138.39"/>
<polygon fill="midnightblue" stroke="midnightblue" points="371.04,-135.43 361.16,-131.6 366.5,-140.76 371.04,-135.43"/>
</g>
<!-- Node14&#45;&gt;Node6 -->
<g id="edge20" class="edge">
<title>Node14&#45;&gt;Node6</title>
<path fill="none" stroke="midnightblue" d="M547.25,-224.48C534.28,-216.54 515.99,-203.6 504.5,-188 469.14,-139.99 444.61,-103.62 480.5,-56 488.14,-45.86 561.97,-27.88 605.61,-17.99"/>
<polygon fill="midnightblue" stroke="midnightblue" points="606.48,-21.38 615.47,-15.78 604.95,-14.55 606.48,-21.38"/>
</g>
<!-- Node14&#45;&gt;Node8 -->
<g id="edge16" class="edge">
<title>Node14&#45;&gt;Node8</title>
<path fill="none" stroke="midnightblue" d="M565.77,-224.39C574.48,-202.59 600.23,-144.61 639.5,-112 663.34,-92.2 697.01,-80.26 721.2,-73.71"/>
<polygon fill="midnightblue" stroke="midnightblue" points="722.1,-77.09 730.93,-71.22 720.37,-70.31 722.1,-77.09"/>
</g>
<!-- Node14&#45;&gt;Node9 -->
<g id="edge17" class="edge">
<title>Node14&#45;&gt;Node9</title>
<path fill="none" stroke="midnightblue" d="M589.75,-224.44C622.6,-214.13 677.36,-196.94 709.28,-186.92"/>
<polygon fill="midnightblue" stroke="midnightblue" points="710.67,-190.15 719.16,-183.82 708.57,-183.47 710.67,-190.15"/>
</g>
<!-- Node14&#45;&gt;Node11 -->
<g id="edge18" class="edge">
<title>Node14&#45;&gt;Node11</title>
<path fill="none" stroke="midnightblue" d="M518.36,-225.88C465.17,-216.92 379.24,-201.12 349.5,-188 257.49,-147.41 168.91,-62.94 134.05,-27.36"/>
<polygon fill="midnightblue" stroke="midnightblue" points="136.2,-24.54 126.73,-19.79 131.17,-29.41 136.2,-24.54"/>
</g>
<!-- Node14&#45;&gt;Node12 -->
<g id="edge19" class="edge">
<title>Node14&#45;&gt;Node12</title>
<path fill="none" stroke="midnightblue" d="M597.46,-224.46C619.62,-217.6 647.74,-206.07 667.5,-188 681.37,-175.32 690.83,-155.84 696.39,-141.51"/>
<polygon fill="midnightblue" stroke="midnightblue" points="699.8,-142.35 699.88,-131.76 693.21,-139.99 699.8,-142.35"/>
</g>
<!-- Node14&#45;&gt;Node13 -->
<g id="edge21" class="edge">
<title>Node14&#45;&gt;Node13</title>
<path fill="none" stroke="midnightblue" d="M518.16,-225.82C467.2,-217.42 381.11,-202.77 307.5,-188 306.06,-187.71 304.59,-187.41 303.11,-187.1"/>
<polygon fill="midnightblue" stroke="midnightblue" points="303.8,-183.67 293.28,-184.99 302.32,-190.51 303.8,-183.67"/>
</g>
<!-- Node15 -->
<g id="node15" class="node">
<title>Node15</title>
<g id="a_node15"><a xlink:href="types_8h.html" target="_top" xlink:title=" ">
<polygon fill="none" stroke="black" points="513,-168.5 513,-187.5 560,-187.5 560,-168.5 513,-168.5"/>
<text text-anchor="middle" x="536.5" y="-175.5" font-family="Helvetica,sans-Serif" font-size="10.00">types.h</text>
</a>
</g>
</g>
<!-- Node14&#45;&gt;Node15 -->
<g id="edge22" class="edge">
<title>Node14&#45;&gt;Node15</title>
<path fill="none" stroke="midnightblue" d="M558.21,-224.08C554.65,-216.69 549.48,-205.95 545.08,-196.81"/>
<polygon fill="midnightblue" stroke="midnightblue" points="548.21,-195.24 540.71,-187.75 541.9,-198.28 548.21,-195.24"/>
</g>
<!-- Node14&#45;&gt;Node17 -->
<g id="edge26" class="edge">
<title>Node14&#45;&gt;Node17</title>
<path fill="none" stroke="midnightblue" d="M570.27,-224.19C594.37,-196.89 666.68,-115.33 673.5,-112 718.18,-90.14 1051.3,-74.22 1177.36,-68.92"/>
<polygon fill="midnightblue" stroke="midnightblue" points="1177.65,-72.41 1187.49,-68.5 1177.35,-65.41 1177.65,-72.41"/>
</g>
<!-- Node14&#45;&gt;Node18 -->
<g id="edge28" class="edge">
<title>Node14&#45;&gt;Node18</title>
<path fill="none" stroke="midnightblue" d="M523.52,-224.47C454.08,-207.38 313.67,-167.55 279.5,-132 267.14,-119.14 259.79,-99.96 257.39,-85.76"/>
<polygon fill="midnightblue" stroke="midnightblue" points="260.87,-85.33 256.52,-75.66 253.89,-85.93 260.87,-85.33"/>
</g>
<!-- Node14&#45;&gt;Node20 -->
<g id="edge35" class="edge">
<title>Node14&#45;&gt;Node20</title>
<path fill="none" stroke="midnightblue" d="M606.83,-224.5C668.74,-213.44 779.8,-194.38 838.28,-184.82"/>
<polygon fill="midnightblue" stroke="midnightblue" points="838.91,-188.26 848.22,-183.2 837.79,-181.35 838.91,-188.26"/>
</g>
<!-- Node15&#45;&gt;Node5 -->
<g id="edge23" class="edge">
<title>Node15&#45;&gt;Node5</title>
<path fill="none" stroke="midnightblue" d="M531.97,-168.43C525.56,-154.98 515.92,-128.72 528.5,-112 585.57,-36.12 884.19,-17.09 1006.83,-12.45"/>
<polygon fill="midnightblue" stroke="midnightblue" points="1007.23,-15.94 1017.1,-12.08 1006.98,-8.94 1007.23,-15.94"/>
</g>
<!-- Node15&#45;&gt;Node6 -->
<g id="edge24" class="edge">
<title>Node15&#45;&gt;Node6</title>
<path fill="none" stroke="midnightblue" d="M524.96,-168.49C515.02,-160.38 501.38,-147.18 495.5,-132 483.3,-100.5 475.55,-83.25 495.5,-56 508.56,-38.17 567.48,-24.09 605.2,-16.7"/>
<polygon fill="midnightblue" stroke="midnightblue" points="606.06,-20.1 615.23,-14.79 604.75,-13.22 606.06,-20.1"/>
</g>
<!-- Node16 -->
<g id="node16" class="node">
<title>Node16</title>
<g id="a_node16"><a xlink:title=" ">
<polygon fill="none" stroke="#bfbfbf" points="537.5,-112.5 537.5,-131.5 587.5,-131.5 587.5,-112.5 537.5,-112.5"/>
<text text-anchor="middle" x="562.5" y="-119.5" font-family="Helvetica,sans-Serif" font-size="10.00">optional</text>
</a>
</g>
</g>
<!-- Node15&#45;&gt;Node16 -->
<g id="edge25" class="edge">
<title>Node15&#45;&gt;Node16</title>
<path fill="none" stroke="midnightblue" d="M540.79,-168.08C544.35,-160.69 549.52,-149.95 553.92,-140.81"/>
<polygon fill="midnightblue" stroke="midnightblue" points="557.1,-142.28 558.29,-131.75 550.79,-139.24 557.1,-142.28"/>
</g>
<!-- Node17&#45;&gt;Node5 -->
<g id="edge27" class="edge">
<title>Node17&#45;&gt;Node5</title>
<path fill="none" stroke="midnightblue" d="M1199.2,-56.44C1171.15,-47.32 1126.56,-32.81 1095.32,-22.65"/>
<polygon fill="midnightblue" stroke="midnightblue" points="1096.27,-19.28 1085.68,-19.52 1094.11,-25.94 1096.27,-19.28"/>
</g>
<!-- Node18&#45;&gt;Node5 -->
<g id="edge29" class="edge">
<title>Node18&#45;&gt;Node5</title>
<path fill="none" stroke="midnightblue" d="M291.33,-62.92C412.16,-54.75 854.3,-24.87 1007.12,-14.54"/>
<polygon fill="midnightblue" stroke="midnightblue" points="1007.45,-18.03 1017.19,-13.86 1006.97,-11.04 1007.45,-18.03"/>
</g>
<!-- Node18&#45;&gt;Node6 -->
<g id="edge31" class="edge">
<title>Node18&#45;&gt;Node6</title>
<path fill="none" stroke="midnightblue" d="M291.17,-60.96C348.46,-53.35 475.63,-36.21 582.5,-20 589.93,-18.87 597.92,-17.6 605.44,-16.38"/>
<polygon fill="midnightblue" stroke="midnightblue" points="606.01,-19.83 615.31,-14.75 604.87,-12.92 606.01,-19.83"/>
</g>
<!-- Node18&#45;&gt;Node10 -->
<g id="edge32" class="edge">
<title>Node18&#45;&gt;Node10</title>
<path fill="none" stroke="midnightblue" d="M254.39,-56.08C249.22,-48.53 241.65,-37.49 235.31,-28.23"/>
<polygon fill="midnightblue" stroke="midnightblue" points="238.04,-26.02 229.5,-19.75 232.26,-29.98 238.04,-26.02"/>
</g>
<!-- Node18&#45;&gt;Node11 -->
<g id="edge33" class="edge">
<title>Node18&#45;&gt;Node11</title>
<path fill="none" stroke="midnightblue" d="M238,-56.44C214.42,-47.48 177.18,-33.31 150.54,-23.18"/>
<polygon fill="midnightblue" stroke="midnightblue" points="151.49,-19.8 140.9,-19.52 149,-26.34 151.49,-19.8"/>
</g>
<!-- Node18&#45;&gt;Node14 -->
<g id="edge34" class="edge">
<title>Node18&#45;&gt;Node14</title>
<path fill="none" stroke="midnightblue" d="M267.84,-75.66C274.22,-89.25 281.83,-115.7 297.5,-132 329.93,-165.74 458.09,-203.35 523.66,-221.69"/>
<polygon fill="midnightblue" stroke="midnightblue" points="523.05,-225.16 533.63,-224.47 524.93,-218.41 523.05,-225.16"/>
</g>
<!-- Node19 -->
<g id="node19" class="node">
<title>Node19</title>
<g id="a_node19"><a xlink:title=" ">
<polygon fill="none" stroke="#bfbfbf" points="494,-0.5 494,-19.5 573,-19.5 573,-0.5 494,-0.5"/>
<text text-anchor="middle" x="533.5" y="-7.5" font-family="Helvetica,sans-Serif" font-size="10.00">GLFW/glfw3.h</text>
</a>
</g>
</g>
<!-- Node18&#45;&gt;Node19 -->
<g id="edge30" class="edge">
<title>Node18&#45;&gt;Node19</title>
<path fill="none" stroke="midnightblue" d="M291.02,-58.96C337.78,-49.71 427.63,-31.94 483.86,-20.82"/>
<polygon fill="midnightblue" stroke="midnightblue" points="484.81,-24.2 493.94,-18.82 483.46,-17.33 484.81,-24.2"/>
</g>
<!-- Node20&#45;&gt;Node2 -->
<g id="edge36" class="edge">
<title>Node20&#45;&gt;Node2</title>
<path fill="none" stroke="midnightblue" d="M848.27,-174.1C766.92,-165.73 530.46,-141.41 415.61,-129.59"/>
<polygon fill="midnightblue" stroke="midnightblue" points="415.85,-126.1 405.55,-128.56 415.14,-133.06 415.85,-126.1"/>
</g>
<!-- Node20&#45;&gt;Node4 -->
<g id="edge45" class="edge">
<title>Node20&#45;&gt;Node4</title>
<path fill="none" stroke="midnightblue" d="M871.74,-187.59C861.78,-205.55 838.59,-247.37 825.3,-271.32"/>
<polygon fill="midnightblue" stroke="midnightblue" points="822.08,-269.93 820.29,-280.37 828.2,-273.32 822.08,-269.93"/>
</g>
<!-- Node20&#45;&gt;Node6 -->
<g id="edge37" class="edge">
<title>Node20&#45;&gt;Node6</title>
<path fill="none" stroke="midnightblue" d="M884.98,-168.23C892.55,-159.75 903.1,-146.13 907.5,-132 912.94,-114.51 915.28,-68.08 904.5,-56 873.87,-21.69 734.07,-13.54 669.88,-11.6"/>
<polygon fill="midnightblue" stroke="midnightblue" points="669.63,-8.09 659.54,-11.33 669.44,-15.09 669.63,-8.09"/>
</g>
<!-- Node20&#45;&gt;Node12 -->
<g id="edge41" class="edge">
<title>Node20&#45;&gt;Node12</title>
<path fill="none" stroke="midnightblue" d="M848.93,-168.44C817.37,-158.65 765.82,-142.65 733.06,-132.48"/>
<polygon fill="midnightblue" stroke="midnightblue" points="733.72,-129.02 723.13,-129.4 731.64,-135.71 733.72,-129.02"/>
</g>
<!-- Node20&#45;&gt;Node14 -->
<g id="edge46" class="edge">
<title>Node20&#45;&gt;Node14</title>
<path fill="none" stroke="midnightblue" d="M848.41,-184.57C796.22,-194.06 683.95,-213.41 616.61,-224.56"/>
<polygon fill="midnightblue" stroke="midnightblue" points="615.91,-221.13 606.61,-226.22 617.05,-228.04 615.91,-221.13"/>
</g>
<!-- Node20&#45;&gt;Node16 -->
<g id="edge40" class="edge">
<title>Node20&#45;&gt;Node16</title>
<path fill="none" stroke="midnightblue" d="M848.36,-172.16C791.01,-162.3 660.74,-139.9 597.82,-129.07"/>
<polygon fill="midnightblue" stroke="midnightblue" points="598.05,-125.56 587.6,-127.32 596.86,-132.46 598.05,-125.56"/>
</g>
<!-- Node20&#45;&gt;Node17 -->
<g id="edge44" class="edge">
<title>Node20&#45;&gt;Node17</title>
<path fill="none" stroke="midnightblue" d="M904.88,-176.21C953.81,-173.97 1056.43,-165.31 1135.5,-132 1163.89,-120.04 1191.92,-97.67 1208.96,-82.56"/>
<polygon fill="midnightblue" stroke="midnightblue" points="1211.35,-85.11 1216.4,-75.8 1206.65,-79.93 1211.35,-85.11"/>
</g>
<!-- Node21 -->
<g id="node21" class="node">
<title>Node21</title>
<g id="a_node21"><a xlink:title=" ">
<polygon fill="none" stroke="#bfbfbf" points="955,-112.5 955,-131.5 990,-131.5 990,-112.5 955,-112.5"/>
<text text-anchor="middle" x="972.5" y="-119.5" font-family="Helvetica,sans-Serif" font-size="10.00">map</text>
</a>
</g>
</g>
<!-- Node20&#45;&gt;Node21 -->
<g id="edge38" class="edge">
<title>Node20&#45;&gt;Node21</title>
<path fill="none" stroke="midnightblue" d="M891.92,-168.32C907.04,-159.82 930.32,-146.73 947.97,-136.8"/>
<polygon fill="midnightblue" stroke="midnightblue" points="950.11,-139.61 957.11,-131.65 946.68,-133.51 950.11,-139.61"/>
</g>
<!-- Node22 -->
<g id="node22" class="node">
<title>Node22</title>
<g id="a_node22"><a xlink:title=" ">
<polygon fill="none" stroke="#bfbfbf" points="1008.5,-112.5 1008.5,-131.5 1064.5,-131.5 1064.5,-112.5 1008.5,-112.5"/>
<text text-anchor="middle" x="1036.5" y="-119.5" font-family="Helvetica,sans-Serif" font-size="10.00">algorithm</text>
</a>
</g>
</g>
<!-- Node20&#45;&gt;Node22 -->
<g id="edge39" class="edge">
<title>Node20&#45;&gt;Node22</title>
<path fill="none" stroke="midnightblue" d="M901.85,-168.44C928.77,-159.36 971.5,-144.94 1001.59,-134.78"/>
<polygon fill="midnightblue" stroke="midnightblue" points="1002.91,-138.03 1011.27,-131.52 1000.67,-131.4 1002.91,-138.03"/>
</g>
<!-- Node23 -->
<g id="node23" class="node">
<title>Node23</title>
<g id="a_node23"><a xlink:title=" ">
<polygon fill="none" stroke="#bfbfbf" points="1082.5,-112.5 1082.5,-131.5 1126.5,-131.5 1126.5,-112.5 1082.5,-112.5"/>
<text text-anchor="middle" x="1104.5" y="-119.5" font-family="Helvetica,sans-Serif" font-size="10.00">thread</text>
</a>
</g>
</g>
<!-- Node20&#45;&gt;Node23 -->
<g id="edge42" class="edge">
<title>Node20&#45;&gt;Node23</title>
<path fill="none" stroke="midnightblue" d="M904.68,-171.1C941.16,-163.35 1006.9,-148.98 1072.15,-132.24"/>
<polygon fill="midnightblue" stroke="midnightblue" points="1073.39,-135.54 1082.19,-129.64 1071.63,-128.76 1073.39,-135.54"/>
</g>
<!-- Node24 -->
<g id="node24" class="node">
<title>Node24</title>
<g id="a_node24"><a xlink:title=" ">
<polygon fill="none" stroke="#bfbfbf" points="855,-112.5 855,-131.5 898,-131.5 898,-112.5 855,-112.5"/>
<text text-anchor="middle" x="876.5" y="-119.5" font-family="Helvetica,sans-Serif" font-size="10.00">mutex</text>
</a>
</g>
</g>
<!-- Node20&#45;&gt;Node24 -->
<g id="edge43" class="edge">
<title>Node20&#45;&gt;Node24</title>
<path fill="none" stroke="midnightblue" d="M876.5,-168.08C876.5,-161.01 876.5,-150.86 876.5,-141.99"/>
<polygon fill="midnightblue" stroke="midnightblue" points="880,-141.75 876.5,-131.75 873,-141.75 880,-141.75"/>
</g>
<!-- Node25 -->
<g id="node25" class="node">
<title>Node25</title>
<g id="a_node25"><a xlink:href="window_8h.html" target="_top" xlink:title=" ">
<polygon fill="none" stroke="black" points="780,-112.5 780,-131.5 837,-131.5 837,-112.5 780,-112.5"/>
<text text-anchor="middle" x="808.5" y="-119.5" font-family="Helvetica,sans-Serif" font-size="10.00">window.h</text>
</a>
</g>
</g>
<!-- Node20&#45;&gt;Node25 -->
<g id="edge47" class="edge">
<title>Node20&#45;&gt;Node25</title>
<path fill="none" stroke="midnightblue" d="M865.57,-168.32C855.33,-160.18 839.78,-147.84 827.5,-138.09"/>
<polygon fill="midnightblue" stroke="midnightblue" points="829.63,-135.31 819.62,-131.83 825.28,-140.79 829.63,-135.31"/>
</g>
<!-- Node26 -->
<g id="node26" class="node">
<title>Node26</title>
<g id="a_node26"><a xlink:href="fence_8h.html" target="_top" xlink:title=" ">
<polygon fill="none" stroke="black" points="1258.5,-112.5 1258.5,-131.5 1306.5,-131.5 1306.5,-112.5 1258.5,-112.5"/>
<text text-anchor="middle" x="1282.5" y="-119.5" font-family="Helvetica,sans-Serif" font-size="10.00">fence.h</text>
</a>
</g>
</g>
<!-- Node20&#45;&gt;Node26 -->
<g id="edge52" class="edge">
<title>Node20&#45;&gt;Node26</title>
<path fill="none" stroke="midnightblue" d="M904.73,-173.25C977.12,-163.62 1169.21,-138.07 1248.02,-127.59"/>
<polygon fill="midnightblue" stroke="midnightblue" points="1248.92,-131 1258.37,-126.21 1247.99,-124.06 1248.92,-131"/>
</g>
<!-- Node25&#45;&gt;Node7 -->
<g id="edge50" class="edge">
<title>Node25&#45;&gt;Node7</title>
<path fill="none" stroke="midnightblue" d="M817.66,-112.32C826,-104.42 838.53,-92.55 848.68,-82.94"/>
<polygon fill="midnightblue" stroke="midnightblue" points="851.32,-85.25 856.18,-75.83 846.51,-80.17 851.32,-85.25"/>
</g>
<!-- Node25&#45;&gt;Node8 -->
<g id="edge49" class="edge">
<title>Node25&#45;&gt;Node8</title>
<path fill="none" stroke="midnightblue" d="M799.34,-112.32C791,-104.42 778.47,-92.55 768.32,-82.94"/>
<polygon fill="midnightblue" stroke="midnightblue" points="770.49,-80.17 760.82,-75.83 765.68,-85.25 770.49,-80.17"/>
</g>
<!-- Node25&#45;&gt;Node18 -->
<g id="edge51" class="edge">
<title>Node25&#45;&gt;Node18</title>
<path fill="none" stroke="midnightblue" d="M779.65,-117.43C765.45,-115.71 748.09,-113.67 732.5,-112 573.13,-94.97 383.13,-77.81 301.3,-70.57"/>
<polygon fill="midnightblue" stroke="midnightblue" points="301.44,-67.07 291.17,-69.68 300.83,-74.05 301.44,-67.07"/>
</g>
<!-- Node25&#45;&gt;Node19 -->
<g id="edge48" class="edge">
<title>Node25&#45;&gt;Node19</title>
<path fill="none" stroke="midnightblue" d="M807.52,-112.28C805.43,-98.11 799.2,-70.26 781.5,-56 766.25,-43.71 651,-26.6 583.11,-17.42"/>
<polygon fill="midnightblue" stroke="midnightblue" points="583.42,-13.93 573.05,-16.07 582.49,-20.87 583.42,-13.93"/>
</g>
<!-- Node26&#45;&gt;Node3 -->
<g id="edge54" class="edge">
<title>Node26&#45;&gt;Node3</title>
<path fill="none" stroke="midnightblue" d="M1296.96,-112.32C1311,-103.9 1332.55,-90.97 1349.04,-81.07"/>
<polygon fill="midnightblue" stroke="midnightblue" points="1351.3,-83.8 1358.08,-75.65 1347.7,-77.8 1351.3,-83.8"/>
</g>
<!-- Node26&#45;&gt;Node4 -->
<g id="edge56" class="edge">
<title>Node26&#45;&gt;Node4</title>
<path fill="none" stroke="midnightblue" d="M1281.96,-131.82C1280.06,-154.64 1271.56,-215.82 1234.5,-244 1174.91,-289.31 942.83,-290.93 852.12,-289.76"/>
<polygon fill="midnightblue" stroke="midnightblue" points="852.08,-286.26 842.03,-289.61 851.98,-293.26 852.08,-286.26"/>
</g>
<!-- Node26&#45;&gt;Node5 -->
<g id="edge53" class="edge">
<title>Node26&#45;&gt;Node5</title>
<path fill="none" stroke="midnightblue" d="M1284,-112.09C1285.79,-98.16 1286.94,-71.26 1272.5,-56 1250.92,-33.19 1167.62,-21.03 1111.81,-15.31"/>
<polygon fill="midnightblue" stroke="midnightblue" points="1112.03,-11.81 1101.74,-14.31 1111.34,-18.78 1112.03,-11.81"/>
</g>
<!-- Node26&#45;&gt;Node17 -->
<g id="edge55" class="edge">
<title>Node26&#45;&gt;Node17</title>
<path fill="none" stroke="midnightblue" d="M1273.34,-112.32C1265,-104.42 1252.47,-92.55 1242.32,-82.94"/>
<polygon fill="midnightblue" stroke="midnightblue" points="1244.49,-80.17 1234.82,-75.83 1239.68,-85.25 1244.49,-80.17"/>
</g>
<!-- Node27&#45;&gt;Node1 -->
<g id="edge62" class="edge">
<title>Node27&#45;&gt;Node1</title>
<path fill="none" stroke="midnightblue" d="M44.63,-243.69C54.95,-258.33 70.8,-287.56 94.5,-300 172.77,-341.1 773.73,-348.75 983.55,-350.18"/>
<polygon fill="midnightblue" stroke="midnightblue" points="983.82,-353.68 993.84,-350.24 983.86,-346.68 983.82,-353.68"/>
</g>
<!-- Node27&#45;&gt;Node5 -->
<g id="edge61" class="edge">
<title>Node27&#45;&gt;Node5</title>
<path fill="none" stroke="midnightblue" d="M41.18,-224.18C61.26,-193.93 132.38,-94.13 220.5,-56 256.66,-40.35 829.47,-19.06 1007.27,-12.8"/>
<polygon fill="midnightblue" stroke="midnightblue" points="1007.55,-16.29 1017.42,-12.44 1007.3,-9.3 1007.55,-16.29"/>
</g>
<!-- Node27&#45;&gt;Node11 -->
<g id="edge63" class="edge">
<title>Node27&#45;&gt;Node11</title>
<path fill="none" stroke="midnightblue" d="M33.56,-224.47C27.92,-197.47 13.95,-112.38 47.5,-56 56.07,-41.6 71.24,-31.06 85.36,-23.82"/>
<polygon fill="midnightblue" stroke="midnightblue" points="86.88,-26.98 94.41,-19.53 83.88,-20.65 86.88,-26.98"/>
</g>
</g>
</svg>
