<?xml version="1.0" encoding="UTF-8" standalone="no"?>
<!DOCTYPE svg PUBLIC "-//W3C//DTD SVG 1.1//EN"
 "http://www.w3.org/Graphics/SVG/1.1/DTD/svg11.dtd">
<!-- Generated by graphviz version 2.49.3 (20211215.1918)
 -->
<!-- Title: /github/workspace/src/renderer/vulkan/image.h Pages: 1 -->
<!--zoomable 709 -->
<svg id="main" version="1.1" xmlns="http://www.w3.org/2000/svg" xmlns:xlink="http://www.w3.org/1999/xlink" xml:space="preserve" onload="init(evt)">
<style type="text/css"><![CDATA[
.edge:hover path { stroke: red; }
.edge:hover polygon { stroke: red; fill: red; }
]]></style>
<script type="text/javascript"><![CDATA[
var edges = document.getElementsByTagName('g');
if (edges && edges.length) {
  for (var i=0;i<edges.length;i++) {
    if (edges[i].id.substr(0,4)=='edge') {
      edges[i].setAttribute('class','edge');
    }
  }
}
]]></script>
        <defs>
                <circle id="rim" cx="0" cy="0" r="7"/>
                <circle id="rim2" cx="0" cy="0" r="3.5"/>
                <g id="zoomPlus">
                        <use xlink:href="#rim" fill="#404040">
                                <set attributeName="fill" to="#808080" begin="zoomplus.mouseover" end="zoomplus.mouseout"/>
                        </use>
                        <path d="M-4,0h8M0,-4v8" fill="none" stroke="white" stroke-width="1.5" pointer-events="none"/>
                </g>
                <g id="zoomMin">
                        <use xlink:href="#rim" fill="#404040">
                                <set attributeName="fill" to="#808080" begin="zoomminus.mouseover" end="zoomminus.mouseout"/>
                        </use>
                        <path d="M-4,0h8" fill="none" stroke="white" stroke-width="1.5" pointer-events="none"/>
                </g>
                <g id="dirArrow">
                        <path fill="none" stroke="white" stroke-width="1.5" d="M0,-3.0v7 M-2.5,-0.5L0,-3.0L2.5,-0.5"/>
                </g>
               <g id="resetDef">
                       <use xlink:href="#rim2" fill="#404040">
                               <set attributeName="fill" to="#808080" begin="reset.mouseover" end="reset.mouseout"/>
                       </use>
               </g>
        </defs>

<script type="text/javascript">
var viewWidth = 1234;
var viewHeight = 709;
var sectionId = 'dynsection-1';
</script>
<script xlink:href="svgpan.js"/>
<svg id="graph" class="graph">
<g id="viewport">
<title>/github/workspace/src/renderer/vulkan/image.h</title>
<!-- Node1 -->
<g id="node1" class="node">
<title>Node1</title>
<g id="a_node1"><a xlink:title=" ">
<polygon fill="#bfbfbf" stroke="black" points="883.5,-670.5 883.5,-700.5 1006.5,-700.5 1006.5,-670.5 883.5,-670.5"/>
<text text-anchor="start" x="891.5" y="-688.5" font-family="Helvetica,sans-Serif" font-size="10.00">/github/workspace/src</text>
<text text-anchor="middle" x="945" y="-677.5" font-family="Helvetica,sans-Serif" font-size="10.00">/renderer/vulkan/image.h</text>
</a>
</g>
</g>
<!-- Node2 -->
<g id="node2" class="node">
<title>Node2</title>
<g id="a_node2"><a xlink:href="image_8cpp.html" target="_top" xlink:title=" ">
<polygon fill="none" stroke="black" points="721,-603.5 721,-633.5 855,-633.5 855,-603.5 721,-603.5"/>
<text text-anchor="start" x="729" y="-621.5" font-family="Helvetica,sans-Serif" font-size="10.00">/github/workspace/src</text>
<text text-anchor="middle" x="788" y="-610.5" font-family="Helvetica,sans-Serif" font-size="10.00">/renderer/vulkan/image.cpp</text>
</a>
</g>
</g>
<!-- Node1&#45;&gt;Node2 -->
<g id="edge1" class="edge">
<title>Node1&#45;&gt;Node2</title>
<path fill="none" stroke="midnightblue" d="M901.63,-666.54C876.51,-656.14 845.34,-643.24 822,-633.58"/>
<polygon fill="midnightblue" stroke="midnightblue" points="900.36,-669.8 910.93,-670.4 903.03,-663.34 900.36,-669.8"/>
</g>
<!-- Node3 -->
<g id="node3" class="node">
<title>Node3</title>
<g id="a_node3"><a xlink:href="imageview_8h.html" target="_top" xlink:title=" ">
<polygon fill="none" stroke="black" points="873.5,-603.5 873.5,-633.5 1016.5,-633.5 1016.5,-603.5 873.5,-603.5"/>
<text text-anchor="start" x="881.5" y="-621.5" font-family="Helvetica,sans-Serif" font-size="10.00">/github/workspace/src</text>
<text text-anchor="middle" x="945" y="-610.5" font-family="Helvetica,sans-Serif" font-size="10.00">/renderer/vulkan/imageview.h</text>
</a>
</g>
</g>
<!-- Node1&#45;&gt;Node3 -->
<g id="edge2" class="edge">
<title>Node1&#45;&gt;Node3</title>
<path fill="none" stroke="midnightblue" d="M938.45,-660.4C938.01,-651.37 938.3,-641.41 939.33,-633.58"/>
<polygon fill="midnightblue" stroke="midnightblue" points="934.97,-660.74 939.32,-670.4 941.94,-660.13 934.97,-660.74"/>
</g>
<!-- Node23 -->
<g id="node23" class="node">
<title>Node23</title>
<g id="a_node23"><a xlink:href="vulkan__voxel__rasterizer_8cpp.html" target="_top" xlink:title=" ">
<polygon fill="none" stroke="black" points="830,-201.5 830,-231.5 994,-231.5 994,-201.5 830,-201.5"/>
<text text-anchor="start" x="838" y="-219.5" font-family="Helvetica,sans-Serif" font-size="10.00">/github/workspace/src</text>
<text text-anchor="middle" x="912" y="-208.5" font-family="Helvetica,sans-Serif" font-size="10.00">/tests/vulkan_voxel_rasterizer.cpp</text>
</a>
</g>
</g>
<!-- Node1&#45;&gt;Node23 -->
<g id="edge56" class="edge">
<title>Node1&#45;&gt;Node23</title>
<path fill="none" stroke="midnightblue" d="M1016.69,-680.83C1099.35,-672.28 1224,-644.19 1224,-552.5 1224,-552.5 1224,-552.5 1224,-349.5 1224,-312.31 1232.06,-293.52 1205,-268 1189.72,-253.59 1075.45,-237.09 994.23,-226.98"/>
<polygon fill="midnightblue" stroke="midnightblue" points="1016.19,-677.36 1006.57,-681.8 1016.86,-684.33 1016.19,-677.36"/>
</g>
<!-- Node3&#45;&gt;Node1 -->
<g id="edge53" class="edge">
<title>Node3&#45;&gt;Node1</title>
<path fill="none" stroke="midnightblue" d="M951.54,-643.57C951.99,-652.6 951.71,-662.56 950.68,-670.4"/>
<polygon fill="midnightblue" stroke="midnightblue" points="955.03,-643.24 950.67,-633.58 948.05,-643.84 955.03,-643.24"/>
</g>
<!-- Node4 -->
<g id="node4" class="node">
<title>Node4</title>
<g id="a_node4"><a xlink:href="descriptorset_8h.html" target="_top" xlink:title=" ">
<polygon fill="none" stroke="black" points="868.5,-536.5 868.5,-566.5 1021.5,-566.5 1021.5,-536.5 868.5,-536.5"/>
<text text-anchor="start" x="876.5" y="-554.5" font-family="Helvetica,sans-Serif" font-size="10.00">/github/workspace/src</text>
<text text-anchor="middle" x="945" y="-543.5" font-family="Helvetica,sans-Serif" font-size="10.00">/renderer/vulkan/descriptorset.h</text>
</a>
</g>
</g>
<!-- Node3&#45;&gt;Node4 -->
<g id="edge3" class="edge">
<title>Node3&#45;&gt;Node4</title>
<path fill="none" stroke="midnightblue" d="M945,-593.11C945,-584.15 945,-574.32 945,-566.58"/>
<polygon fill="midnightblue" stroke="midnightblue" points="941.5,-593.4 945,-603.4 948.5,-593.4 941.5,-593.4"/>
</g>
<!-- Node26 -->
<g id="node26" class="node">
<title>Node26</title>
<g id="a_node26"><a xlink:href="framebuffer_8h.html" target="_top" xlink:title=" ">
<polygon fill="none" stroke="black" points="1050,-268.5 1050,-298.5 1196,-298.5 1196,-268.5 1050,-268.5"/>
<text text-anchor="start" x="1058" y="-286.5" font-family="Helvetica,sans-Serif" font-size="10.00">/github/workspace/src</text>
<text text-anchor="middle" x="1123" y="-275.5" font-family="Helvetica,sans-Serif" font-size="10.00">/renderer/vulkan/framebuffer.h</text>
</a>
</g>
</g>
<!-- Node3&#45;&gt;Node26 -->
<g id="edge52" class="edge">
<title>Node3&#45;&gt;Node26</title>
<path fill="none" stroke="midnightblue" d="M1025.48,-600.68C1084.36,-583.1 1154,-548.92 1154,-485.5 1154,-485.5 1154,-485.5 1154,-416.5 1154,-372.48 1137.46,-322.34 1128.54,-298.51"/>
<polygon fill="midnightblue" stroke="midnightblue" points="1024.41,-597.34 1015.76,-603.46 1026.33,-604.07 1024.41,-597.34"/>
</g>
<!-- Node32 -->
<g id="node32" class="node">
<title>Node32</title>
<g id="a_node32"><a xlink:href="swapchain_8cpp.html" target="_top" xlink:title=" ">
<polygon fill="none" stroke="black" points="562,-335.5 562,-365.5 716,-365.5 716,-335.5 562,-335.5"/>
<text text-anchor="start" x="570" y="-353.5" font-family="Helvetica,sans-Serif" font-size="10.00">/github/workspace/src</text>
<text text-anchor="middle" x="639" y="-342.5" font-family="Helvetica,sans-Serif" font-size="10.00">/renderer/vulkan/swapchain.cpp</text>
</a>
</g>
</g>
<!-- Node3&#45;&gt;Node32 -->
<g id="edge55" class="edge">
<title>Node3&#45;&gt;Node32</title>
<path fill="none" stroke="midnightblue" d="M863.56,-602.56C789.23,-588.78 690.4,-570 687,-567 627.1,-514.1 632.93,-404.42 637.16,-365.54"/>
<polygon fill="midnightblue" stroke="midnightblue" points="862.94,-606.01 873.41,-604.39 864.22,-599.13 862.94,-606.01"/>
</g>
<!-- Node34 -->
<g id="node34" class="node">
<title>Node34</title>
<g id="a_node34"><a xlink:href="imageview_8cpp.html" target="_top" xlink:title=" ">
<polygon fill="none" stroke="black" points="696,-536.5 696,-566.5 850,-566.5 850,-536.5 696,-536.5"/>
<text text-anchor="start" x="704" y="-554.5" font-family="Helvetica,sans-Serif" font-size="10.00">/github/workspace/src</text>
<text text-anchor="middle" x="773" y="-543.5" font-family="Helvetica,sans-Serif" font-size="10.00">/renderer/vulkan/imageview.cpp</text>
</a>
</g>
</g>
<!-- Node3&#45;&gt;Node34 -->
<g id="edge54" class="edge">
<title>Node3&#45;&gt;Node34</title>
<path fill="none" stroke="midnightblue" d="M898.21,-599.82C870.57,-589.37 836.04,-576.32 810.25,-566.58"/>
<polygon fill="midnightblue" stroke="midnightblue" points="897.09,-603.13 907.68,-603.4 899.56,-596.59 897.09,-603.13"/>
</g>
<!-- Node5 -->
<g id="node5" class="node">
<title>Node5</title>
<g id="a_node5"><a xlink:href="commandbuffer_8h.html" target="_top" xlink:title=" ">
<polygon fill="none" stroke="black" points="772,-469.5 772,-499.5 936,-499.5 936,-469.5 772,-469.5"/>
<text text-anchor="start" x="780" y="-487.5" font-family="Helvetica,sans-Serif" font-size="10.00">/github/workspace/src</text>
<text text-anchor="middle" x="854" y="-476.5" font-family="Helvetica,sans-Serif" font-size="10.00">/renderer/vulkan/commandbuffer.h</text>
</a>
</g>
</g>
<!-- Node4&#45;&gt;Node5 -->
<g id="edge4" class="edge">
<title>Node4&#45;&gt;Node5</title>
<path fill="none" stroke="midnightblue" d="M916.93,-530.45C902.93,-520.45 886.34,-508.6 873.71,-499.58"/>
<polygon fill="midnightblue" stroke="midnightblue" points="915.08,-533.43 925.25,-536.4 919.15,-527.74 915.08,-533.43"/>
</g>
<!-- Node33 -->
<g id="node33" class="node">
<title>Node33</title>
<g id="a_node33"><a xlink:href="descriptorset_8cpp.html" target="_top" xlink:title=" ">
<polygon fill="none" stroke="black" points="954,-469.5 954,-499.5 1118,-499.5 1118,-469.5 954,-469.5"/>
<text text-anchor="start" x="962" y="-487.5" font-family="Helvetica,sans-Serif" font-size="10.00">/github/workspace/src</text>
<text text-anchor="middle" x="1036" y="-476.5" font-family="Helvetica,sans-Serif" font-size="10.00">/renderer/vulkan/descriptorset.cpp</text>
</a>
</g>
</g>
<!-- Node4&#45;&gt;Node33 -->
<g id="edge51" class="edge">
<title>Node4&#45;&gt;Node33</title>
<path fill="none" stroke="midnightblue" d="M973.07,-530.45C987.07,-520.45 1003.66,-508.6 1016.29,-499.58"/>
<polygon fill="midnightblue" stroke="midnightblue" points="970.85,-527.74 964.75,-536.4 974.92,-533.43 970.85,-527.74"/>
</g>
<!-- Node6 -->
<g id="node6" class="node">
<title>Node6</title>
<g id="a_node6"><a xlink:href="buffer_8h.html" target="_top" xlink:title=" ">
<polygon fill="none" stroke="black" points="258.5,-402.5 258.5,-432.5 379.5,-432.5 379.5,-402.5 258.5,-402.5"/>
<text text-anchor="start" x="266.5" y="-420.5" font-family="Helvetica,sans-Serif" font-size="10.00">/github/workspace/src</text>
<text text-anchor="middle" x="319" y="-409.5" font-family="Helvetica,sans-Serif" font-size="10.00">/renderer/vulkan/buffer.h</text>
</a>
</g>
</g>
<!-- Node5&#45;&gt;Node6 -->
<g id="edge5" class="edge">
<title>Node5&#45;&gt;Node6</title>
<path fill="none" stroke="midnightblue" d="M761.83,-472.3C652.35,-459 472.85,-437.19 379.56,-425.86"/>
<polygon fill="midnightblue" stroke="midnightblue" points="761.52,-475.79 771.87,-473.52 762.37,-468.84 761.52,-475.79"/>
</g>
<!-- Node5&#45;&gt;Node23 -->
<g id="edge50" class="edge">
<title>Node5&#45;&gt;Node23</title>
<path fill="none" stroke="midnightblue" d="M873.08,-461.37C890.99,-439.03 916.54,-402.66 927,-366 938.95,-324.12 933.27,-311.1 927,-268 925.18,-255.51 920.97,-241.81 917.47,-231.84"/>
<polygon fill="midnightblue" stroke="midnightblue" points="870.28,-459.27 866.64,-469.22 875.69,-463.71 870.28,-459.27"/>
</g>
<!-- Node24 -->
<g id="node24" class="node">
<title>Node24</title>
<g id="a_node24"><a xlink:href="commandbuffer_8cpp.html" target="_top" xlink:title=" ">
<polygon fill="none" stroke="black" points="652,-402.5 652,-432.5 826,-432.5 826,-402.5 652,-402.5"/>
<text text-anchor="start" x="660" y="-420.5" font-family="Helvetica,sans-Serif" font-size="10.00">/github/workspace/src</text>
<text text-anchor="middle" x="739" y="-409.5" font-family="Helvetica,sans-Serif" font-size="10.00">/renderer/vulkan/commandbuffer.cpp</text>
</a>
</g>
</g>
<!-- Node5&#45;&gt;Node24 -->
<g id="edge28" class="edge">
<title>Node5&#45;&gt;Node24</title>
<path fill="none" stroke="midnightblue" d="M820.02,-464.3C802.03,-454.12 780.32,-441.85 763.9,-432.58"/>
<polygon fill="midnightblue" stroke="midnightblue" points="818.62,-467.52 829.05,-469.4 822.06,-461.43 818.62,-467.52"/>
</g>
<!-- Node25 -->
<g id="node25" class="node">
<title>Node25</title>
<g id="a_node25"><a xlink:href="swapchain_8h.html" target="_top" xlink:title=" ">
<polygon fill="none" stroke="black" points="944.5,-402.5 944.5,-432.5 1087.5,-432.5 1087.5,-402.5 944.5,-402.5"/>
<text text-anchor="start" x="952.5" y="-420.5" font-family="Helvetica,sans-Serif" font-size="10.00">/github/workspace/src</text>
<text text-anchor="middle" x="1016" y="-409.5" font-family="Helvetica,sans-Serif" font-size="10.00">/renderer/vulkan/swapchain.h</text>
</a>
</g>
</g>
<!-- Node5&#45;&gt;Node25 -->
<g id="edge29" class="edge">
<title>Node5&#45;&gt;Node25</title>
<path fill="none" stroke="midnightblue" d="M898.75,-465.54C924.67,-455.14 956.84,-442.24 980.92,-432.58"/>
<polygon fill="midnightblue" stroke="midnightblue" points="897.13,-462.42 889.15,-469.4 899.74,-468.92 897.13,-462.42"/>
</g>
<!-- Node7 -->
<g id="node7" class="node">
<title>Node7</title>
<g id="a_node7"><a xlink:href="buffer_8cpp.html" target="_top" xlink:title=" ">
<polygon fill="none" stroke="black" points="253.5,-335.5 253.5,-365.5 384.5,-365.5 384.5,-335.5 253.5,-335.5"/>
<text text-anchor="start" x="261.5" y="-353.5" font-family="Helvetica,sans-Serif" font-size="10.00">/github/workspace/src</text>
<text text-anchor="middle" x="319" y="-342.5" font-family="Helvetica,sans-Serif" font-size="10.00">/renderer/vulkan/buffer.cpp</text>
</a>
</g>
</g>
<!-- Node6&#45;&gt;Node7 -->
<g id="edge6" class="edge">
<title>Node6&#45;&gt;Node7</title>
<path fill="none" stroke="midnightblue" d="M319,-392.11C319,-383.15 319,-373.32 319,-365.58"/>
<polygon fill="midnightblue" stroke="midnightblue" points="315.5,-392.4 319,-402.4 322.5,-392.4 315.5,-392.4"/>
</g>
<!-- Node8 -->
<g id="node8" class="node">
<title>Node8</title>
<g id="a_node8"><a xlink:href="bufferview_8h.html" target="_top" xlink:title=" ">
<polygon fill="none" stroke="black" points="402.5,-335.5 402.5,-365.5 543.5,-365.5 543.5,-335.5 402.5,-335.5"/>
<text text-anchor="start" x="410.5" y="-353.5" font-family="Helvetica,sans-Serif" font-size="10.00">/github/workspace/src</text>
<text text-anchor="middle" x="473" y="-342.5" font-family="Helvetica,sans-Serif" font-size="10.00">/renderer/vulkan/bufferview.h</text>
</a>
</g>
</g>
<!-- Node6&#45;&gt;Node8 -->
<g id="edge7" class="edge">
<title>Node6&#45;&gt;Node8</title>
<path fill="none" stroke="midnightblue" d="M361.87,-398.41C386.45,-388.03 416.86,-375.2 439.65,-365.58"/>
<polygon fill="midnightblue" stroke="midnightblue" points="360.27,-395.28 352.42,-402.4 362.99,-401.73 360.27,-395.28"/>
</g>
<!-- Node10 -->
<g id="node10" class="node">
<title>Node10</title>
<g id="a_node10"><a xlink:href="uniformbuffer_8h.html" target="_top" xlink:title=" ">
<polygon fill="none" stroke="black" points="43.5,-335.5 43.5,-365.5 196.5,-365.5 196.5,-335.5 43.5,-335.5"/>
<text text-anchor="start" x="51.5" y="-353.5" font-family="Helvetica,sans-Serif" font-size="10.00">/github/workspace/src</text>
<text text-anchor="middle" x="120" y="-342.5" font-family="Helvetica,sans-Serif" font-size="10.00">/renderer/vulkan/uniformbuffer.h</text>
</a>
</g>
</g>
<!-- Node6&#45;&gt;Node10 -->
<g id="edge9" class="edge">
<title>Node6&#45;&gt;Node10</title>
<path fill="none" stroke="midnightblue" d="M266.12,-399.23C233.93,-388.71 193.33,-375.45 163.1,-365.58"/>
<polygon fill="midnightblue" stroke="midnightblue" points="265.23,-402.62 275.82,-402.4 267.4,-395.96 265.23,-402.62"/>
</g>
<!-- Node9 -->
<g id="node9" class="node">
<title>Node9</title>
<g id="a_node9"><a xlink:href="bufferview_8cpp.html" target="_top" xlink:title=" ">
<polygon fill="none" stroke="black" points="369,-268.5 369,-298.5 521,-298.5 521,-268.5 369,-268.5"/>
<text text-anchor="start" x="377" y="-286.5" font-family="Helvetica,sans-Serif" font-size="10.00">/github/workspace/src</text>
<text text-anchor="middle" x="445" y="-275.5" font-family="Helvetica,sans-Serif" font-size="10.00">/renderer/vulkan/bufferview.cpp</text>
</a>
</g>
</g>
<!-- Node8&#45;&gt;Node9 -->
<g id="edge8" class="edge">
<title>Node8&#45;&gt;Node9</title>
<path fill="none" stroke="midnightblue" d="M462.87,-325.99C458.92,-316.8 454.51,-306.58 451.06,-298.58"/>
<polygon fill="midnightblue" stroke="midnightblue" points="459.75,-327.6 466.92,-335.4 466.18,-324.83 459.75,-327.6"/>
</g>
<!-- Node10&#45;&gt;Node4 -->
<g id="edge25" class="edge">
<title>Node10&#45;&gt;Node4</title>
<path fill="none" stroke="midnightblue" d="M140.68,-372.74C160.48,-391.73 192.13,-418.69 225,-433 486.75,-546.94 577.36,-489.38 859,-536 861.99,-536.49 865.03,-537 868.11,-537.51"/>
<polygon fill="midnightblue" stroke="midnightblue" points="143.03,-370.15 133.44,-365.65 138.13,-375.15 143.03,-370.15"/>
</g>
<!-- Node11 -->
<g id="node11" class="node">
<title>Node11</title>
<g id="a_node11"><a xlink:href="materiallibrary_8h.html" target="_top" xlink:title=" ">
<polygon fill="none" stroke="black" points="5.5,-268.5 5.5,-298.5 130.5,-298.5 130.5,-268.5 5.5,-268.5"/>
<text text-anchor="start" x="13.5" y="-286.5" font-family="Helvetica,sans-Serif" font-size="10.00">/github/workspace/src</text>
<text text-anchor="middle" x="68" y="-275.5" font-family="Helvetica,sans-Serif" font-size="10.00">/renderer/materiallibrary.h</text>
</a>
</g>
</g>
<!-- Node10&#45;&gt;Node11 -->
<g id="edge10" class="edge">
<title>Node10&#45;&gt;Node11</title>
<path fill="none" stroke="midnightblue" d="M102.36,-327.45C94.72,-317.9 86,-307 79.26,-298.58"/>
<polygon fill="midnightblue" stroke="midnightblue" points="99.74,-329.77 108.72,-335.4 105.2,-325.4 99.74,-329.77"/>
</g>
<!-- Node22 -->
<g id="node22" class="node">
<title>Node22</title>
<g id="a_node22"><a xlink:href="uniformbuffer_8cpp.html" target="_top" xlink:title=" ">
<polygon fill="none" stroke="black" points="149,-268.5 149,-298.5 313,-298.5 313,-268.5 149,-268.5"/>
<text text-anchor="start" x="157" y="-286.5" font-family="Helvetica,sans-Serif" font-size="10.00">/github/workspace/src</text>
<text text-anchor="middle" x="231" y="-275.5" font-family="Helvetica,sans-Serif" font-size="10.00">/renderer/vulkan/uniformbuffer.cpp</text>
</a>
</g>
</g>
<!-- Node10&#45;&gt;Node22 -->
<g id="edge26" class="edge">
<title>Node10&#45;&gt;Node22</title>
<path fill="none" stroke="midnightblue" d="M152.8,-330.3C170.16,-320.12 191.12,-307.85 206.96,-298.58"/>
<polygon fill="midnightblue" stroke="midnightblue" points="150.95,-327.32 144.09,-335.4 154.48,-333.36 150.95,-327.32"/>
</g>
<!-- Node10&#45;&gt;Node23 -->
<g id="edge27" class="edge">
<title>Node10&#45;&gt;Node23</title>
<path fill="none" stroke="midnightblue" d="M199.43,-333.36C246.23,-323.13 300.39,-309.83 322,-299 341.49,-289.23 339.82,-276.24 360,-268 402.37,-250.69 686.63,-231.22 829.85,-222.36"/>
<polygon fill="midnightblue" stroke="midnightblue" points="198.6,-329.96 189.57,-335.49 200.08,-336.8 198.6,-329.96"/>
</g>
<!-- Node12 -->
<g id="node12" class="node">
<title>Node12</title>
<g id="a_node12"><a xlink:href="material_8h.html" target="_top" xlink:title=" ">
<polygon fill="none" stroke="black" points="186.5,-201.5 186.5,-231.5 299.5,-231.5 299.5,-201.5 186.5,-201.5"/>
<text text-anchor="start" x="194.5" y="-219.5" font-family="Helvetica,sans-Serif" font-size="10.00">/github/workspace/src</text>
<text text-anchor="middle" x="243" y="-208.5" font-family="Helvetica,sans-Serif" font-size="10.00">/renderer/material.h</text>
</a>
</g>
</g>
<!-- Node11&#45;&gt;Node12 -->
<g id="edge11" class="edge">
<title>Node11&#45;&gt;Node12</title>
<path fill="none" stroke="midnightblue" d="M109.88,-264.68C136.95,-254.26 172.02,-241.28 199.43,-231.58"/>
<polygon fill="midnightblue" stroke="midnightblue" points="108.35,-261.52 100.29,-268.4 110.88,-268.05 108.35,-261.52"/>
</g>
<!-- Node21 -->
<g id="node21" class="node">
<title>Node21</title>
<g id="a_node21"><a xlink:href="materiallibrary_8cpp.html" target="_top" xlink:title=" ">
<polygon fill="none" stroke="black" points="0,-201.5 0,-231.5 136,-231.5 136,-201.5 0,-201.5"/>
<text text-anchor="start" x="8" y="-219.5" font-family="Helvetica,sans-Serif" font-size="10.00">/github/workspace/src</text>
<text text-anchor="middle" x="68" y="-208.5" font-family="Helvetica,sans-Serif" font-size="10.00">/renderer/materiallibrary.cpp</text>
</a>
</g>
</g>
<!-- Node11&#45;&gt;Node21 -->
<g id="edge24" class="edge">
<title>Node11&#45;&gt;Node21</title>
<path fill="none" stroke="midnightblue" d="M68,-258.11C68,-249.15 68,-239.32 68,-231.58"/>
<polygon fill="midnightblue" stroke="midnightblue" points="64.5,-258.4 68,-268.4 71.5,-258.4 64.5,-258.4"/>
</g>
<!-- Node12&#45;&gt;Node11 -->
<g id="edge20" class="edge">
<title>Node12&#45;&gt;Node11</title>
<path fill="none" stroke="midnightblue" d="M201.2,-235.29C174.14,-245.71 139.07,-258.69 111.65,-268.4"/>
<polygon fill="midnightblue" stroke="midnightblue" points="202.72,-238.45 210.78,-231.58 200.19,-231.93 202.72,-238.45"/>
</g>
<!-- Node13 -->
<g id="node13" class="node">
<title>Node13</title>
<g id="a_node13"><a xlink:href="mastermaterial_8h.html" target="_top" xlink:title=" ">
<polygon fill="none" stroke="black" points="386,-134.5 386,-164.5 516,-164.5 516,-134.5 386,-134.5"/>
<text text-anchor="start" x="394" y="-152.5" font-family="Helvetica,sans-Serif" font-size="10.00">/github/workspace/src</text>
<text text-anchor="middle" x="451" y="-141.5" font-family="Helvetica,sans-Serif" font-size="10.00">/renderer/mastermaterial.h</text>
</a>
</g>
</g>
<!-- Node12&#45;&gt;Node13 -->
<g id="edge12" class="edge">
<title>Node12&#45;&gt;Node13</title>
<path fill="none" stroke="midnightblue" d="M297.58,-198.44C331.3,-187.91 374.04,-174.55 405.85,-164.61"/>
<polygon fill="midnightblue" stroke="midnightblue" points="296.38,-195.15 287.88,-201.48 298.47,-201.83 296.38,-195.15"/>
</g>
<!-- Node18 -->
<g id="node18" class="node">
<title>Node18</title>
<g id="a_node18"><a xlink:href="material_8cpp.html" target="_top" xlink:title=" ">
<polygon fill="none" stroke="black" points="251.5,-134.5 251.5,-164.5 364.5,-164.5 364.5,-134.5 251.5,-134.5"/>
<text text-anchor="start" x="259.5" y="-152.5" font-family="Helvetica,sans-Serif" font-size="10.00">/github/workspace/src</text>
<text text-anchor="middle" x="308" y="-141.5" font-family="Helvetica,sans-Serif" font-size="10.00">/renderer/material.cpp</text>
</a>
</g>
</g>
<!-- Node12&#45;&gt;Node18 -->
<g id="edge19" class="edge">
<title>Node12&#45;&gt;Node18</title>
<path fill="none" stroke="midnightblue" d="M264.19,-194.31C273.94,-184.56 285.24,-173.26 293.92,-164.58"/>
<polygon fill="midnightblue" stroke="midnightblue" points="261.7,-191.85 257.1,-201.4 266.65,-196.8 261.7,-191.85"/>
</g>
<!-- Node19 -->
<g id="node19" class="node">
<title>Node19</title>
<g id="a_node19"><a xlink:href="mesh_8h.html" target="_top" xlink:title=" ">
<polygon fill="none" stroke="black" points="120.5,-134.5 120.5,-164.5 233.5,-164.5 233.5,-134.5 120.5,-134.5"/>
<text text-anchor="start" x="128.5" y="-152.5" font-family="Helvetica,sans-Serif" font-size="10.00">/github/workspace/src</text>
<text text-anchor="middle" x="177" y="-141.5" font-family="Helvetica,sans-Serif" font-size="10.00">/renderer/mesh.h</text>
</a>
</g>
</g>
<!-- Node12&#45;&gt;Node19 -->
<g id="edge21" class="edge">
<title>Node12&#45;&gt;Node19</title>
<path fill="none" stroke="midnightblue" d="M221.49,-194.31C211.59,-184.56 200.11,-173.26 191.29,-164.58"/>
<polygon fill="midnightblue" stroke="midnightblue" points="219.1,-196.87 228.68,-201.4 224.01,-191.89 219.1,-196.87"/>
</g>
<!-- Node13&#45;&gt;Node11 -->
<g id="edge14" class="edge">
<title>Node13&#45;&gt;Node11</title>
<path fill="none" stroke="midnightblue" d="M422.21,-170.49C394.23,-189.03 349.95,-216.08 308,-232 299.64,-235.17 198.89,-255.93 130.62,-269.83"/>
<polygon fill="midnightblue" stroke="midnightblue" points="424.34,-173.28 430.69,-164.8 420.44,-167.47 424.34,-173.28"/>
</g>
<!-- Node14 -->
<g id="node14" class="node">
<title>Node14</title>
<g id="a_node14"><a xlink:href="mastermaterial_8cpp.html" target="_top" xlink:title=" ">
<polygon fill="none" stroke="black" points="383,-67.5 383,-97.5 523,-97.5 523,-67.5 383,-67.5"/>
<text text-anchor="start" x="391" y="-85.5" font-family="Helvetica,sans-Serif" font-size="10.00">/github/workspace/src</text>
<text text-anchor="middle" x="453" y="-74.5" font-family="Helvetica,sans-Serif" font-size="10.00">/renderer/mastermaterial.cpp</text>
</a>
</g>
</g>
<!-- Node13&#45;&gt;Node14 -->
<g id="edge13" class="edge">
<title>Node13&#45;&gt;Node14</title>
<path fill="none" stroke="midnightblue" d="M451.75,-124.11C452.03,-115.15 452.33,-105.32 452.57,-97.58"/>
<polygon fill="midnightblue" stroke="midnightblue" points="448.24,-124.29 451.43,-134.4 455.24,-124.51 448.24,-124.29"/>
</g>
<!-- Node15 -->
<g id="node15" class="node">
<title>Node15</title>
<g id="a_node15"><a xlink:href="modelloader_8h.html" target="_top" xlink:title=" ">
<polygon fill="none" stroke="black" points="247,-67.5 247,-97.5 365,-97.5 365,-67.5 247,-67.5"/>
<text text-anchor="start" x="255" y="-85.5" font-family="Helvetica,sans-Serif" font-size="10.00">/github/workspace/src</text>
<text text-anchor="middle" x="306" y="-74.5" font-family="Helvetica,sans-Serif" font-size="10.00">/renderer/modelloader.h</text>
</a>
</g>
</g>
<!-- Node13&#45;&gt;Node15 -->
<g id="edge15" class="edge">
<title>Node13&#45;&gt;Node15</title>
<path fill="none" stroke="midnightblue" d="M410.33,-130.27C387.24,-119.92 358.76,-107.15 337.4,-97.58"/>
<polygon fill="midnightblue" stroke="midnightblue" points="408.98,-133.5 419.54,-134.4 411.84,-127.11 408.98,-133.5"/>
</g>
<!-- Node17 -->
<g id="node17" class="node">
<title>Node17</title>
<g id="a_node17"><a xlink:href="vulkan__voxel__rasterizer__2_8cpp.html" target="_top" xlink:title=" ">
<polygon fill="none" stroke="black" points="464,-0.5 464,-30.5 638,-30.5 638,-0.5 464,-0.5"/>
<text text-anchor="start" x="472" y="-18.5" font-family="Helvetica,sans-Serif" font-size="10.00">/github/workspace/src</text>
<text text-anchor="middle" x="551" y="-7.5" font-family="Helvetica,sans-Serif" font-size="10.00">/tests/vulkan_voxel_rasterizer_2.cpp</text>
</a>
</g>
</g>
<!-- Node13&#45;&gt;Node17 -->
<g id="edge18" class="edge">
<title>Node13&#45;&gt;Node17</title>
<path fill="none" stroke="midnightblue" d="M494.84,-129.53C508.57,-121.62 522.59,-111.15 532,-98 546.54,-77.68 550.12,-47.87 550.9,-30.5"/>
<polygon fill="midnightblue" stroke="midnightblue" points="493.03,-126.53 485.9,-134.37 496.36,-132.69 493.03,-126.53"/>
</g>
<!-- Node16 -->
<g id="node16" class="node">
<title>Node16</title>
<g id="a_node16"><a xlink:href="modelloader_8cpp.html" target="_top" xlink:title=" ">
<polygon fill="none" stroke="black" points="242,-0.5 242,-30.5 370,-30.5 370,-0.5 242,-0.5"/>
<text text-anchor="start" x="250" y="-18.5" font-family="Helvetica,sans-Serif" font-size="10.00">/github/workspace/src</text>
<text text-anchor="middle" x="306" y="-7.5" font-family="Helvetica,sans-Serif" font-size="10.00">/renderer/modelloader.cpp</text>
</a>
</g>
</g>
<!-- Node15&#45;&gt;Node16 -->
<g id="edge16" class="edge">
<title>Node15&#45;&gt;Node16</title>
<path fill="none" stroke="midnightblue" d="M306,-57.11C306,-48.15 306,-38.32 306,-30.58"/>
<polygon fill="midnightblue" stroke="midnightblue" points="302.5,-57.4 306,-67.4 309.5,-57.4 302.5,-57.4"/>
</g>
<!-- Node15&#45;&gt;Node17 -->
<g id="edge17" class="edge">
<title>Node15&#45;&gt;Node17</title>
<path fill="none" stroke="midnightblue" d="M368.76,-64.85C408.7,-54.25 459.87,-40.68 497.81,-30.61"/>
<polygon fill="midnightblue" stroke="midnightblue" points="367.63,-61.53 358.86,-67.48 369.42,-68.29 367.63,-61.53"/>
</g>
<!-- Node19&#45;&gt;Node15 -->
<g id="edge23" class="edge">
<title>Node19&#45;&gt;Node15</title>
<path fill="none" stroke="midnightblue" d="M214.01,-129.85C234.4,-119.58 259.31,-107.03 278.06,-97.58"/>
<polygon fill="midnightblue" stroke="midnightblue" points="212.35,-126.77 204.99,-134.4 215.5,-133.02 212.35,-126.77"/>
</g>
<!-- Node20 -->
<g id="node20" class="node">
<title>Node20</title>
<g id="a_node20"><a xlink:href="mesh_8cpp.html" target="_top" xlink:title=" ">
<polygon fill="none" stroke="black" points="115.5,-67.5 115.5,-97.5 228.5,-97.5 228.5,-67.5 115.5,-67.5"/>
<text text-anchor="start" x="123.5" y="-85.5" font-family="Helvetica,sans-Serif" font-size="10.00">/github/workspace/src</text>
<text text-anchor="middle" x="172" y="-74.5" font-family="Helvetica,sans-Serif" font-size="10.00">/renderer/mesh.cpp</text>
</a>
</g>
</g>
<!-- Node19&#45;&gt;Node20 -->
<g id="edge22" class="edge">
<title>Node19&#45;&gt;Node20</title>
<path fill="none" stroke="midnightblue" d="M175.15,-124.4C174.45,-115.37 173.69,-105.41 173.08,-97.58"/>
<polygon fill="midnightblue" stroke="midnightblue" points="171.66,-124.69 175.92,-134.4 178.64,-124.16 171.66,-124.69"/>
</g>
<!-- Node25&#45;&gt;Node17 -->
<g id="edge49" class="edge">
<title>Node25&#45;&gt;Node17</title>
<path fill="none" stroke="midnightblue" d="M1017.78,-392C1019.55,-365.51 1022,-322.04 1022,-284.5 1022,-284.5 1022,-284.5 1022,-148.5 1022,-69.68 774.36,-35.76 638.21,-23.07"/>
<polygon fill="midnightblue" stroke="midnightblue" points="1014.27,-392.03 1017.07,-402.25 1021.25,-392.52 1014.27,-392.03"/>
</g>
<!-- Node25&#45;&gt;Node23 -->
<g id="edge48" class="edge">
<title>Node25&#45;&gt;Node23</title>
<path fill="none" stroke="midnightblue" d="M1010.1,-392.34C1001.93,-361.78 985.28,-308.3 960,-268 951.39,-254.27 938.64,-241.08 928.44,-231.62"/>
<polygon fill="midnightblue" stroke="midnightblue" points="1006.74,-393.33 1012.63,-402.13 1013.51,-391.57 1006.74,-393.33"/>
</g>
<!-- Node25&#45;&gt;Node26 -->
<g id="edge30" class="edge">
<title>Node25&#45;&gt;Node26</title>
<path fill="none" stroke="midnightblue" d="M1028.87,-394.19C1048.72,-366.86 1085.87,-321.38 1107.27,-298.52"/>
<polygon fill="midnightblue" stroke="midnightblue" points="1026,-392.19 1023.08,-402.37 1031.72,-396.23 1026,-392.19"/>
</g>
<!-- Node28 -->
<g id="node28" class="node">
<title>Node28</title>
<g id="a_node28"><a xlink:href="graphicspipeline_8h.html" target="_top" xlink:title=" ">
<polygon fill="none" stroke="black" points="539.5,-268.5 539.5,-298.5 706.5,-298.5 706.5,-268.5 539.5,-268.5"/>
<text text-anchor="start" x="547.5" y="-286.5" font-family="Helvetica,sans-Serif" font-size="10.00">/github/workspace/src</text>
<text text-anchor="middle" x="623" y="-275.5" font-family="Helvetica,sans-Serif" font-size="10.00">/renderer/vulkan/graphicspipeline.h</text>
</a>
</g>
</g>
<!-- Node25&#45;&gt;Node28 -->
<g id="edge35" class="edge">
<title>Node25&#45;&gt;Node28</title>
<path fill="none" stroke="midnightblue" d="M934.26,-409.99C883.4,-403.58 817.69,-390.93 764,-366 743.92,-356.68 743.69,-346.87 725,-335 702.81,-320.91 676.15,-307.83 655.65,-298.52"/>
<polygon fill="midnightblue" stroke="midnightblue" points="933.88,-413.47 944.23,-411.19 934.72,-406.52 933.88,-413.47"/>
</g>
<!-- Node30 -->
<g id="node30" class="node">
<title>Node30</title>
<g id="a_node30"><a xlink:href="renderpass_8h.html" target="_top" xlink:title=" ">
<polygon fill="none" stroke="black" points="772.5,-335.5 772.5,-365.5 917.5,-365.5 917.5,-335.5 772.5,-335.5"/>
<text text-anchor="start" x="780.5" y="-353.5" font-family="Helvetica,sans-Serif" font-size="10.00">/github/workspace/src</text>
<text text-anchor="middle" x="845" y="-342.5" font-family="Helvetica,sans-Serif" font-size="10.00">/renderer/vulkan/renderpass.h</text>
</a>
</g>
</g>
<!-- Node25&#45;&gt;Node30 -->
<g id="edge41" class="edge">
<title>Node25&#45;&gt;Node30</title>
<path fill="none" stroke="midnightblue" d="M969.48,-398.82C942,-388.37 907.67,-375.32 882.03,-365.58"/>
<polygon fill="midnightblue" stroke="midnightblue" points="968.3,-402.11 978.9,-402.4 970.79,-395.57 968.3,-402.11"/>
</g>
<!-- Node25&#45;&gt;Node32 -->
<g id="edge47" class="edge">
<title>Node25&#45;&gt;Node32</title>
<path fill="none" stroke="midnightblue" d="M934.03,-402.37C869.26,-391.2 779.5,-375.72 716.04,-364.78"/>
<polygon fill="midnightblue" stroke="midnightblue" points="933.75,-405.87 944.2,-404.12 934.94,-398.97 933.75,-405.87"/>
</g>
<!-- Node26&#45;&gt;Node5 -->
<g id="edge31" class="edge">
<title>Node26&#45;&gt;Node5</title>
<path fill="none" stroke="midnightblue" d="M1126.31,-308.7C1129.33,-341.48 1129.24,-399.73 1097,-433 1091.11,-439.08 1000.77,-456.75 931.95,-469.47"/>
<polygon fill="midnightblue" stroke="midnightblue" points="1129.78,-308.19 1125.21,-298.63 1122.82,-308.95 1129.78,-308.19"/>
</g>
<!-- Node26&#45;&gt;Node23 -->
<g id="edge34" class="edge">
<title>Node26&#45;&gt;Node23</title>
<path fill="none" stroke="midnightblue" d="M1067.63,-265.44C1033.43,-254.91 990.07,-241.55 957.81,-231.61"/>
<polygon fill="midnightblue" stroke="midnightblue" points="1066.89,-268.88 1077.48,-268.48 1068.95,-262.19 1066.89,-268.88"/>
</g>
<!-- Node26&#45;&gt;Node25 -->
<g id="edge33" class="edge">
<title>Node26&#45;&gt;Node25</title>
<path fill="none" stroke="midnightblue" d="M1110.21,-306.69C1090.42,-333.97 1053.27,-379.45 1031.82,-402.37"/>
<polygon fill="midnightblue" stroke="midnightblue" points="1113.07,-308.71 1115.99,-298.52 1107.36,-304.67 1113.07,-308.71"/>
</g>
<!-- Node27 -->
<g id="node27" class="node">
<title>Node27</title>
<g id="a_node27"><a xlink:href="framebuffer_8cpp.html" target="_top" xlink:title=" ">
<polygon fill="none" stroke="black" points="1050,-201.5 1050,-231.5 1206,-231.5 1206,-201.5 1050,-201.5"/>
<text text-anchor="start" x="1058" y="-219.5" font-family="Helvetica,sans-Serif" font-size="10.00">/github/workspace/src</text>
<text text-anchor="middle" x="1128" y="-208.5" font-family="Helvetica,sans-Serif" font-size="10.00">/renderer/vulkan/framebuffer.cpp</text>
</a>
</g>
</g>
<!-- Node26&#45;&gt;Node27 -->
<g id="edge32" class="edge">
<title>Node26&#45;&gt;Node27</title>
<path fill="none" stroke="midnightblue" d="M1124.85,-258.4C1125.55,-249.37 1126.31,-239.41 1126.92,-231.58"/>
<polygon fill="midnightblue" stroke="midnightblue" points="1121.36,-258.16 1124.08,-268.4 1128.34,-258.69 1121.36,-258.16"/>
</g>
<!-- Node28&#45;&gt;Node5 -->
<g id="edge38" class="edge">
<title>Node28&#45;&gt;Node5</title>
<path fill="none" stroke="midnightblue" d="M529.41,-298.82C451.34,-306.26 284.55,-289.02 244,-335 215.15,-367.71 218.3,-402.03 249,-433 267.14,-451.3 610.84,-471.12 771.95,-479.45"/>
<polygon fill="midnightblue" stroke="midnightblue" points="529.84,-302.29 539.37,-297.66 529.03,-295.34 529.84,-302.29"/>
</g>
<!-- Node28&#45;&gt;Node12 -->
<g id="edge37" class="edge">
<title>Node28&#45;&gt;Node12</title>
<path fill="none" stroke="midnightblue" d="M531.01,-266.76C458.82,-254.42 360.65,-237.62 299.59,-227.18"/>
<polygon fill="midnightblue" stroke="midnightblue" points="530.57,-270.24 541.01,-268.48 531.75,-263.34 530.57,-270.24"/>
</g>
<!-- Node28&#45;&gt;Node13 -->
<g id="edge36" class="edge">
<title>Node28&#45;&gt;Node13</title>
<path fill="none" stroke="midnightblue" d="M623.72,-258.21C622.94,-240.3 619,-216.46 605,-201 582.34,-175.97 547.09,-163.31 516.03,-156.92"/>
<polygon fill="midnightblue" stroke="midnightblue" points="620.22,-258.26 623.86,-268.21 627.22,-258.17 620.22,-258.26"/>
</g>
<!-- Node28&#45;&gt;Node23 -->
<g id="edge40" class="edge">
<title>Node28&#45;&gt;Node23</title>
<path fill="none" stroke="midnightblue" d="M695.24,-266.25C742.61,-255.6 803.93,-241.81 849.26,-231.61"/>
<polygon fill="midnightblue" stroke="midnightblue" points="694.34,-262.87 685.35,-268.48 695.88,-269.7 694.34,-262.87"/>
</g>
<!-- Node29 -->
<g id="node29" class="node">
<title>Node29</title>
<g id="a_node29"><a xlink:href="graphicspipeline_8cpp.html" target="_top" xlink:title=" ">
<polygon fill="none" stroke="black" points="418.5,-201.5 418.5,-231.5 595.5,-231.5 595.5,-201.5 418.5,-201.5"/>
<text text-anchor="start" x="426.5" y="-219.5" font-family="Helvetica,sans-Serif" font-size="10.00">/github/workspace/src</text>
<text text-anchor="middle" x="507" y="-208.5" font-family="Helvetica,sans-Serif" font-size="10.00">/renderer/vulkan/graphicspipeline.cpp</text>
</a>
</g>
</g>
<!-- Node28&#45;&gt;Node29 -->
<g id="edge39" class="edge">
<title>Node28&#45;&gt;Node29</title>
<path fill="none" stroke="midnightblue" d="M588.73,-263.3C570.58,-253.12 548.68,-240.85 532.12,-231.58"/>
<polygon fill="midnightblue" stroke="midnightblue" points="587.4,-266.56 597.83,-268.4 590.82,-260.45 587.4,-266.56"/>
</g>
<!-- Node30&#45;&gt;Node5 -->
<g id="edge42" class="edge">
<title>Node30&#45;&gt;Node5</title>
<path fill="none" stroke="midnightblue" d="M846.66,-375.85C848.53,-403.31 851.51,-447.04 853.04,-469.37"/>
<polygon fill="midnightblue" stroke="midnightblue" points="850.13,-375.26 845.96,-365.52 843.14,-375.74 850.13,-375.26"/>
</g>
<!-- Node30&#45;&gt;Node23 -->
<g id="edge46" class="edge">
<title>Node30&#45;&gt;Node23</title>
<path fill="none" stroke="midnightblue" d="M789.96,-330.86C775.77,-323.28 762.2,-312.92 754,-299 747.01,-287.13 745.87,-279.13 754,-268 771.66,-243.81 801.05,-230.94 829.72,-224.19"/>
<polygon fill="midnightblue" stroke="midnightblue" points="788.81,-334.2 799.33,-335.46 791.89,-327.91 788.81,-334.2"/>
</g>
<!-- Node30&#45;&gt;Node26 -->
<g id="edge43" class="edge">
<title>Node30&#45;&gt;Node26</title>
<path fill="none" stroke="midnightblue" d="M914.78,-333.19C960.3,-322.54 1019.14,-308.78 1062.65,-298.61"/>
<polygon fill="midnightblue" stroke="midnightblue" points="913.92,-329.79 904.98,-335.48 915.51,-336.61 913.92,-329.79"/>
</g>
<!-- Node30&#45;&gt;Node28 -->
<g id="edge44" class="edge">
<title>Node30&#45;&gt;Node28</title>
<path fill="none" stroke="midnightblue" d="M787.21,-332.58C751.15,-322.02 705.28,-308.59 671.19,-298.61"/>
<polygon fill="midnightblue" stroke="midnightblue" points="786.52,-336.02 797.1,-335.48 788.49,-329.31 786.52,-336.02"/>
</g>
<!-- Node31 -->
<g id="node31" class="node">
<title>Node31</title>
<g id="a_node31"><a xlink:href="renderpass_8cpp.html" target="_top" xlink:title=" ">
<polygon fill="none" stroke="black" points="762.5,-268.5 762.5,-298.5 917.5,-298.5 917.5,-268.5 762.5,-268.5"/>
<text text-anchor="start" x="770.5" y="-286.5" font-family="Helvetica,sans-Serif" font-size="10.00">/github/workspace/src</text>
<text text-anchor="middle" x="840" y="-275.5" font-family="Helvetica,sans-Serif" font-size="10.00">/renderer/vulkan/renderpass.cpp</text>
</a>
</g>
</g>
<!-- Node30&#45;&gt;Node31 -->
<g id="edge45" class="edge">
<title>Node30&#45;&gt;Node31</title>
<path fill="none" stroke="midnightblue" d="M843.15,-325.4C842.45,-316.37 841.69,-306.41 841.08,-298.58"/>
<polygon fill="midnightblue" stroke="midnightblue" points="839.66,-325.69 843.92,-335.4 846.64,-325.16 839.66,-325.69"/>
</g>
</g>
</svg>
        <g id="navigator" transform="translate(0 0)" fill="#404254">
                <rect fill="#f2f5e9" fill-opacity="0.5" stroke="#606060" stroke-width=".5" x="0" y="0" width="60" height="60"/>
                <use id="zoomplus" xlink:href="#zoomPlus" x="17" y="9" onmousedown="handleZoom(evt,'in')"/>
                <use id="zoomminus" xlink:href="#zoomMin" x="42" y="9" onmousedown="handleZoom(evt,'out')"/>
                <use id="reset" xlink:href="#resetDef" x="30" y="36" onmousedown="handleReset()"/>
                <g id="arrowUp" xlink:href="#dirArrow" transform="translate(30 24)" onmousedown="handlePan(0,-1)">
                  <use xlink:href="#rim" fill="#404040">
                        <set attributeName="fill" to="#808080" begin="arrowUp.mouseover" end="arrowUp.mouseout"/>
                  </use>
                  <path fill="none" stroke="white" stroke-width="1.5" d="M0,-3.0v7 M-2.5,-0.5L0,-3.0L2.5,-0.5"/>
                </g>
                <g id="arrowRight" xlink:href="#dirArrow" transform="rotate(90) translate(36 -43)" onmousedown="handlePan(1,0)">
                  <use xlink:href="#rim" fill="#404040">
                        <set attributeName="fill" to="#808080" begin="arrowRight.mouseover" end="arrowRight.mouseout"/>
                  </use>
                  <path fill="none" stroke="white" stroke-width="1.5" d="M0,-3.0v7 M-2.5,-0.5L0,-3.0L2.5,-0.5"/>
                </g>
                <g id="arrowDown" xlink:href="#dirArrow" transform="rotate(180) translate(-30 -48)" onmousedown="handlePan(0,1)">
                  <use xlink:href="#rim" fill="#404040">
                        <set attributeName="fill" to="#808080" begin="arrowDown.mouseover" end="arrowDown.mouseout"/>
                  </use>
                  <path fill="none" stroke="white" stroke-width="1.5" d="M0,-3.0v7 M-2.5,-0.5L0,-3.0L2.5,-0.5"/>
                </g>
                <g id="arrowLeft" xlink:href="#dirArrow" transform="rotate(270) translate(-36 17)" onmousedown="handlePan(-1,0)">
                  <use xlink:href="#rim" fill="#404040">
                        <set attributeName="fill" to="#808080" begin="arrowLeft.mouseover" end="arrowLeft.mouseout"/>
                  </use>
                  <path fill="none" stroke="white" stroke-width="1.5" d="M0,-3.0v7 M-2.5,-0.5L0,-3.0L2.5,-0.5"/>
                </g>
        </g>
        <svg viewBox="0 0 15 15" width="100%" height="30px" preserveAspectRatio="xMaxYMin meet">
         <g id="arrow_out" transform="scale(0.3 0.3)">
          <a xlink:href="image_8h__dep__incl_org.svg" target="_base">
           <rect id="button" ry="5" rx="5" y="6" x="6" height="38" width="38"
                fill="#f2f5e9" fill-opacity="0.5" stroke="#606060" stroke-width="1.0"/>
           <path id="arrow"
             d="M 11.500037,31.436501 C 11.940474,20.09759 22.043105,11.32322 32.158766,21.979434 L 37.068811,17.246167 C 37.068811,17.246167 37.088388,32 37.088388,32 L 22.160133,31.978069 C 22.160133,31.978069 26.997745,27.140456 26.997745,27.140456 C 18.528582,18.264221 13.291696,25.230495 11.500037,31.436501 z"
             style="fill:#404040;"/>
          </a>
         </g>
        </svg>
</svg>
