<?xml version="1.0" encoding="UTF-8" standalone="no"?>
<!DOCTYPE svg PUBLIC "-//W3C//DTD SVG 1.1//EN"
 "http://www.w3.org/Graphics/SVG/1.1/DTD/svg11.dtd">
<!-- Generated by graphviz version 2.49.3 (20211215.1918)
 -->
<!-- Title: /github/workspace/src/renderer/vulkan/imageview.h Pages: 1 -->
<svg width="1786pt" height="709pt"
 viewBox="0.00 0.00 1785.50 709.00" xmlns="http://www.w3.org/2000/svg" xmlns:xlink="http://www.w3.org/1999/xlink">
<g id="graph0" class="graph" transform="scale(1 1) rotate(0) translate(4 705)">
<title>/github/workspace/src/renderer/vulkan/imageview.h</title>
<!-- Node1 -->
<g id="node1" class="node">
<title>Node1</title>
<g id="a_node1"><a xlink:title=" ">
<polygon fill="#bfbfbf" stroke="black" points="1408,-670.5 1408,-700.5 1551,-700.5 1551,-670.5 1408,-670.5"/>
<text text-anchor="start" x="1416" y="-688.5" font-family="Helvetica,sans-Serif" font-size="10.00">/github/workspace/src</text>
<text text-anchor="middle" x="1479.5" y="-677.5" font-family="Helvetica,sans-Serif" font-size="10.00">/renderer/vulkan/imageview.h</text>
</a>
</g>
</g>
<!-- Node2 -->
<g id="node2" class="node">
<title>Node2</title>
<g id="a_node2"><a xlink:href="descriptorset_8h.html" target="_top" xlink:title=" ">
<polygon fill="none" stroke="black" points="546,-603.5 546,-633.5 699,-633.5 699,-603.5 546,-603.5"/>
<text text-anchor="start" x="554" y="-621.5" font-family="Helvetica,sans-Serif" font-size="10.00">/github/workspace/src</text>
<text text-anchor="middle" x="622.5" y="-610.5" font-family="Helvetica,sans-Serif" font-size="10.00">/renderer/vulkan/descriptorset.h</text>
</a>
</g>
</g>
<!-- Node1&#45;&gt;Node2 -->
<g id="edge1" class="edge">
<title>Node1&#45;&gt;Node2</title>
<path fill="none" stroke="midnightblue" d="M1397.79,-678.3C1232.41,-665.76 860.1,-637.52 699.09,-625.31"/>
<polygon fill="midnightblue" stroke="midnightblue" points="1397.67,-681.8 1407.91,-679.07 1398.2,-674.82 1397.67,-681.8"/>
</g>
<!-- Node30 -->
<g id="node30" class="node">
<title>Node30</title>
<g id="a_node30"><a xlink:href="framebuffer_8h.html" target="_top" xlink:title=" ">
<polygon fill="none" stroke="black" points="1129.5,-335.5 1129.5,-365.5 1275.5,-365.5 1275.5,-335.5 1129.5,-335.5"/>
<text text-anchor="start" x="1137.5" y="-353.5" font-family="Helvetica,sans-Serif" font-size="10.00">/github/workspace/src</text>
<text text-anchor="middle" x="1202.5" y="-342.5" font-family="Helvetica,sans-Serif" font-size="10.00">/renderer/vulkan/framebuffer.h</text>
</a>
</g>
</g>
<!-- Node1&#45;&gt;Node30 -->
<g id="edge56" class="edge">
<title>Node1&#45;&gt;Node30</title>
<path fill="none" stroke="midnightblue" d="M1514.05,-664.75C1548.24,-642.34 1595.5,-602.35 1595.5,-552.5 1595.5,-552.5 1595.5,-552.5 1595.5,-483.5 1595.5,-416.83 1389.71,-377.53 1275.96,-360.9"/>
<polygon fill="midnightblue" stroke="midnightblue" points="1511.82,-662.02 1505.24,-670.33 1515.56,-667.93 1511.82,-662.02"/>
</g>
<!-- Node36 -->
<g id="node36" class="node">
<title>Node36</title>
<g id="a_node36"><a xlink:href="swapchain_8cpp.html" target="_top" xlink:title=" ">
<polygon fill="none" stroke="black" points="1185.5,-402.5 1185.5,-432.5 1339.5,-432.5 1339.5,-402.5 1185.5,-402.5"/>
<text text-anchor="start" x="1193.5" y="-420.5" font-family="Helvetica,sans-Serif" font-size="10.00">/github/workspace/src</text>
<text text-anchor="middle" x="1262.5" y="-409.5" font-family="Helvetica,sans-Serif" font-size="10.00">/renderer/vulkan/swapchain.cpp</text>
</a>
</g>
</g>
<!-- Node1&#45;&gt;Node36 -->
<g id="edge62" class="edge">
<title>Node1&#45;&gt;Node36</title>
<path fill="none" stroke="midnightblue" d="M1447.42,-664.83C1434.82,-656.24 1420.71,-645.51 1409.5,-634 1344.56,-567.33 1289.16,-468.83 1269.82,-432.57"/>
<polygon fill="midnightblue" stroke="midnightblue" points="1445.58,-667.81 1455.85,-670.41 1449.45,-661.97 1445.58,-667.81"/>
</g>
<!-- Node38 -->
<g id="node38" class="node">
<title>Node38</title>
<g id="a_node38"><a xlink:href="image_8h.html" target="_top" xlink:title=" ">
<polygon fill="none" stroke="black" points="1418,-603.5 1418,-633.5 1541,-633.5 1541,-603.5 1418,-603.5"/>
<text text-anchor="start" x="1426" y="-621.5" font-family="Helvetica,sans-Serif" font-size="10.00">/github/workspace/src</text>
<text text-anchor="middle" x="1479.5" y="-610.5" font-family="Helvetica,sans-Serif" font-size="10.00">/renderer/vulkan/image.h</text>
</a>
</g>
</g>
<!-- Node1&#45;&gt;Node38 -->
<g id="edge57" class="edge">
<title>Node1&#45;&gt;Node38</title>
<path fill="none" stroke="midnightblue" d="M1472.95,-660.4C1472.51,-651.37 1472.8,-641.41 1473.83,-633.58"/>
<polygon fill="midnightblue" stroke="midnightblue" points="1469.47,-660.74 1473.82,-670.4 1476.44,-660.13 1469.47,-660.74"/>
</g>
<!-- Node40 -->
<g id="node40" class="node">
<title>Node40</title>
<g id="a_node40"><a xlink:href="imageview_8cpp.html" target="_top" xlink:title=" ">
<polygon fill="none" stroke="black" points="1623.5,-603.5 1623.5,-633.5 1777.5,-633.5 1777.5,-603.5 1623.5,-603.5"/>
<text text-anchor="start" x="1631.5" y="-621.5" font-family="Helvetica,sans-Serif" font-size="10.00">/github/workspace/src</text>
<text text-anchor="middle" x="1700.5" y="-610.5" font-family="Helvetica,sans-Serif" font-size="10.00">/renderer/vulkan/imageview.cpp</text>
</a>
</g>
</g>
<!-- Node1&#45;&gt;Node40 -->
<g id="edge61" class="edge">
<title>Node1&#45;&gt;Node40</title>
<path fill="none" stroke="midnightblue" d="M1537.03,-667.58C1572.92,-657.02 1618.59,-643.59 1652.52,-633.61"/>
<polygon fill="midnightblue" stroke="midnightblue" points="1535.79,-664.3 1527.18,-670.48 1537.76,-671.01 1535.79,-664.3"/>
</g>
<!-- Node3 -->
<g id="node3" class="node">
<title>Node3</title>
<g id="a_node3"><a xlink:href="descriptorpoolmanager_8h.html" target="_top" xlink:title=" ">
<polygon fill="none" stroke="black" points="118.5,-536.5 118.5,-566.5 282.5,-566.5 282.5,-536.5 118.5,-536.5"/>
<text text-anchor="start" x="126.5" y="-554.5" font-family="Helvetica,sans-Serif" font-size="10.00">/github/workspace/src</text>
<text text-anchor="middle" x="200.5" y="-543.5" font-family="Helvetica,sans-Serif" font-size="10.00">/renderer/descriptorpoolmanager.h</text>
</a>
</g>
</g>
<!-- Node2&#45;&gt;Node3 -->
<g id="edge2" class="edge">
<title>Node2&#45;&gt;Node3</title>
<path fill="none" stroke="midnightblue" d="M535.34,-604.07C461.15,-592.65 355.36,-576.35 282.65,-565.15"/>
<polygon fill="midnightblue" stroke="midnightblue" points="535.17,-607.59 545.59,-605.65 536.24,-600.67 535.17,-607.59"/>
</g>
<!-- Node8 -->
<g id="node8" class="node">
<title>Node8</title>
<g id="a_node8"><a xlink:href="commandbuffer_8h.html" target="_top" xlink:title=" ">
<polygon fill="none" stroke="black" points="780.5,-536.5 780.5,-566.5 944.5,-566.5 944.5,-536.5 780.5,-536.5"/>
<text text-anchor="start" x="788.5" y="-554.5" font-family="Helvetica,sans-Serif" font-size="10.00">/github/workspace/src</text>
<text text-anchor="middle" x="862.5" y="-543.5" font-family="Helvetica,sans-Serif" font-size="10.00">/renderer/vulkan/commandbuffer.h</text>
</a>
</g>
</g>
<!-- Node2&#45;&gt;Node8 -->
<g id="edge7" class="edge">
<title>Node2&#45;&gt;Node8</title>
<path fill="none" stroke="midnightblue" d="M683.98,-600.85C723.11,-590.25 773.23,-576.68 810.4,-566.61"/>
<polygon fill="midnightblue" stroke="midnightblue" points="683.02,-597.48 674.28,-603.48 684.85,-604.24 683.02,-597.48"/>
</g>
<!-- Node37 -->
<g id="node37" class="node">
<title>Node37</title>
<g id="a_node37"><a xlink:href="descriptorset_8cpp.html" target="_top" xlink:title=" ">
<polygon fill="none" stroke="black" points="540.5,-536.5 540.5,-566.5 704.5,-566.5 704.5,-536.5 540.5,-536.5"/>
<text text-anchor="start" x="548.5" y="-554.5" font-family="Helvetica,sans-Serif" font-size="10.00">/github/workspace/src</text>
<text text-anchor="middle" x="622.5" y="-543.5" font-family="Helvetica,sans-Serif" font-size="10.00">/renderer/vulkan/descriptorset.cpp</text>
</a>
</g>
</g>
<!-- Node2&#45;&gt;Node37 -->
<g id="edge55" class="edge">
<title>Node2&#45;&gt;Node37</title>
<path fill="none" stroke="midnightblue" d="M622.5,-593.11C622.5,-584.15 622.5,-574.32 622.5,-566.58"/>
<polygon fill="midnightblue" stroke="midnightblue" points="619,-593.4 622.5,-603.4 626,-593.4 619,-593.4"/>
</g>
<!-- Node4 -->
<g id="node4" class="node">
<title>Node4</title>
<g id="a_node4"><a xlink:href="descriptorpoolmanager_8cpp.html" target="_top" xlink:title=" ">
<polygon fill="none" stroke="black" points="113.5,-469.5 113.5,-499.5 287.5,-499.5 287.5,-469.5 113.5,-469.5"/>
<text text-anchor="start" x="121.5" y="-487.5" font-family="Helvetica,sans-Serif" font-size="10.00">/github/workspace/src</text>
<text text-anchor="middle" x="200.5" y="-476.5" font-family="Helvetica,sans-Serif" font-size="10.00">/renderer/descriptorpoolmanager.cpp</text>
</a>
</g>
</g>
<!-- Node3&#45;&gt;Node4 -->
<g id="edge3" class="edge">
<title>Node3&#45;&gt;Node4</title>
<path fill="none" stroke="midnightblue" d="M200.5,-526.11C200.5,-517.15 200.5,-507.32 200.5,-499.58"/>
<polygon fill="midnightblue" stroke="midnightblue" points="197,-526.4 200.5,-536.4 204,-526.4 197,-526.4"/>
</g>
<!-- Node5 -->
<g id="node5" class="node">
<title>Node5</title>
<g id="a_node5"><a xlink:href="scene_8h.html" target="_top" xlink:title=" ">
<polygon fill="none" stroke="black" points="0,-67.5 0,-97.5 113,-97.5 113,-67.5 0,-67.5"/>
<text text-anchor="start" x="8" y="-85.5" font-family="Helvetica,sans-Serif" font-size="10.00">/github/workspace/src</text>
<text text-anchor="middle" x="56.5" y="-74.5" font-family="Helvetica,sans-Serif" font-size="10.00">/renderer/scene.h</text>
</a>
</g>
</g>
<!-- Node3&#45;&gt;Node5 -->
<g id="edge4" class="edge">
<title>Node3&#45;&gt;Node5</title>
<path fill="none" stroke="midnightblue" d="M155.86,-532.08C113.58,-511.32 56.5,-473.16 56.5,-418.5 56.5,-418.5 56.5,-418.5 56.5,-215.5 56.5,-172.65 56.5,-121.97 56.5,-97.76"/>
<polygon fill="midnightblue" stroke="midnightblue" points="154.37,-535.25 164.9,-536.37 157.37,-528.92 154.37,-535.25"/>
</g>
<!-- Node6 -->
<g id="node6" class="node">
<title>Node6</title>
<g id="a_node6"><a xlink:href="scene_8cpp.html" target="_top" xlink:title=" ">
<polygon fill="none" stroke="black" points="0,-0.5 0,-30.5 113,-30.5 113,-0.5 0,-0.5"/>
<text text-anchor="start" x="8" y="-18.5" font-family="Helvetica,sans-Serif" font-size="10.00">/github/workspace/src</text>
<text text-anchor="middle" x="56.5" y="-7.5" font-family="Helvetica,sans-Serif" font-size="10.00">/renderer/scene.cpp</text>
</a>
</g>
</g>
<!-- Node5&#45;&gt;Node6 -->
<g id="edge5" class="edge">
<title>Node5&#45;&gt;Node6</title>
<path fill="none" stroke="midnightblue" d="M56.5,-57.11C56.5,-48.15 56.5,-38.32 56.5,-30.58"/>
<polygon fill="midnightblue" stroke="midnightblue" points="53,-57.4 56.5,-67.4 60,-57.4 53,-57.4"/>
</g>
<!-- Node7 -->
<g id="node7" class="node">
<title>Node7</title>
<g id="a_node7"><a xlink:href="vulkan__voxel__rasterizer__2_8cpp.html" target="_top" xlink:title=" ">
<polygon fill="none" stroke="black" points="211.5,-0.5 211.5,-30.5 385.5,-30.5 385.5,-0.5 211.5,-0.5"/>
<text text-anchor="start" x="219.5" y="-18.5" font-family="Helvetica,sans-Serif" font-size="10.00">/github/workspace/src</text>
<text text-anchor="middle" x="298.5" y="-7.5" font-family="Helvetica,sans-Serif" font-size="10.00">/tests/vulkan_voxel_rasterizer_2.cpp</text>
</a>
</g>
</g>
<!-- Node5&#45;&gt;Node7 -->
<g id="edge6" class="edge">
<title>Node5&#45;&gt;Node7</title>
<path fill="none" stroke="midnightblue" d="M118.49,-64.85C157.95,-54.25 208.49,-40.68 245.96,-30.61"/>
<polygon fill="midnightblue" stroke="midnightblue" points="117.46,-61.5 108.71,-67.48 119.28,-68.26 117.46,-61.5"/>
</g>
<!-- Node9 -->
<g id="node9" class="node">
<title>Node9</title>
<g id="a_node9"><a xlink:href="buffer_8h.html" target="_top" xlink:title=" ">
<polygon fill="none" stroke="black" points="512,-469.5 512,-499.5 633,-499.5 633,-469.5 512,-469.5"/>
<text text-anchor="start" x="520" y="-487.5" font-family="Helvetica,sans-Serif" font-size="10.00">/github/workspace/src</text>
<text text-anchor="middle" x="572.5" y="-476.5" font-family="Helvetica,sans-Serif" font-size="10.00">/renderer/vulkan/buffer.h</text>
</a>
</g>
</g>
<!-- Node8&#45;&gt;Node9 -->
<g id="edge8" class="edge">
<title>Node8&#45;&gt;Node9</title>
<path fill="none" stroke="midnightblue" d="M789.87,-534.22C741.66,-523.41 679.09,-509.39 633.46,-499.16"/>
<polygon fill="midnightblue" stroke="midnightblue" points="789.41,-537.7 799.93,-536.48 790.94,-530.87 789.41,-537.7"/>
</g>
<!-- Node27 -->
<g id="node27" class="node">
<title>Node27</title>
<g id="a_node27"><a xlink:href="vulkan__voxel__rasterizer_8cpp.html" target="_top" xlink:title=" ">
<polygon fill="none" stroke="black" points="769.5,-268.5 769.5,-298.5 933.5,-298.5 933.5,-268.5 769.5,-268.5"/>
<text text-anchor="start" x="777.5" y="-286.5" font-family="Helvetica,sans-Serif" font-size="10.00">/github/workspace/src</text>
<text text-anchor="middle" x="851.5" y="-275.5" font-family="Helvetica,sans-Serif" font-size="10.00">/tests/vulkan_voxel_rasterizer.cpp</text>
</a>
</g>
</g>
<!-- Node8&#45;&gt;Node27 -->
<g id="edge54" class="edge">
<title>Node8&#45;&gt;Node27</title>
<path fill="none" stroke="midnightblue" d="M883.96,-528.44C890.59,-520.19 897.06,-510.3 900.5,-500 904.87,-486.93 904.49,-482.19 900.5,-469 894.93,-450.6 885.14,-450.18 876.5,-433 862.29,-404.74 858.1,-397.13 852.5,-366 848.31,-342.74 849.16,-315.15 850.26,-298.77"/>
<polygon fill="midnightblue" stroke="midnightblue" points="881.24,-526.24 877.38,-536.1 886.55,-530.8 881.24,-526.24"/>
</g>
<!-- Node28 -->
<g id="node28" class="node">
<title>Node28</title>
<g id="a_node28"><a xlink:href="commandbuffer_8cpp.html" target="_top" xlink:title=" ">
<polygon fill="none" stroke="black" points="717.5,-469.5 717.5,-499.5 891.5,-499.5 891.5,-469.5 717.5,-469.5"/>
<text text-anchor="start" x="725.5" y="-487.5" font-family="Helvetica,sans-Serif" font-size="10.00">/github/workspace/src</text>
<text text-anchor="middle" x="804.5" y="-476.5" font-family="Helvetica,sans-Serif" font-size="10.00">/renderer/vulkan/commandbuffer.cpp</text>
</a>
</g>
</g>
<!-- Node8&#45;&gt;Node28 -->
<g id="edge32" class="edge">
<title>Node8&#45;&gt;Node28</title>
<path fill="none" stroke="midnightblue" d="M843.08,-528.74C834.5,-519.12 824.66,-508.09 817.06,-499.58"/>
<polygon fill="midnightblue" stroke="midnightblue" points="840.65,-531.26 849.91,-536.4 845.87,-526.6 840.65,-531.26"/>
</g>
<!-- Node29 -->
<g id="node29" class="node">
<title>Node29</title>
<g id="a_node29"><a xlink:href="swapchain_8h.html" target="_top" xlink:title=" ">
<polygon fill="none" stroke="black" points="1011,-469.5 1011,-499.5 1154,-499.5 1154,-469.5 1011,-469.5"/>
<text text-anchor="start" x="1019" y="-487.5" font-family="Helvetica,sans-Serif" font-size="10.00">/github/workspace/src</text>
<text text-anchor="middle" x="1082.5" y="-476.5" font-family="Helvetica,sans-Serif" font-size="10.00">/renderer/vulkan/swapchain.h</text>
</a>
</g>
</g>
<!-- Node8&#45;&gt;Node29 -->
<g id="edge33" class="edge">
<title>Node8&#45;&gt;Node29</title>
<path fill="none" stroke="midnightblue" d="M919.77,-533.58C955.5,-523.02 1000.96,-509.59 1034.74,-499.61"/>
<polygon fill="midnightblue" stroke="midnightblue" points="918.56,-530.29 909.97,-536.48 920.55,-537 918.56,-530.29"/>
</g>
<!-- Node10 -->
<g id="node10" class="node">
<title>Node10</title>
<g id="a_node10"><a xlink:href="buffer_8cpp.html" target="_top" xlink:title=" ">
<polygon fill="none" stroke="black" points="543,-402.5 543,-432.5 674,-432.5 674,-402.5 543,-402.5"/>
<text text-anchor="start" x="551" y="-420.5" font-family="Helvetica,sans-Serif" font-size="10.00">/github/workspace/src</text>
<text text-anchor="middle" x="608.5" y="-409.5" font-family="Helvetica,sans-Serif" font-size="10.00">/renderer/vulkan/buffer.cpp</text>
</a>
</g>
</g>
<!-- Node9&#45;&gt;Node10 -->
<g id="edge9" class="edge">
<title>Node9&#45;&gt;Node10</title>
<path fill="none" stroke="midnightblue" d="M585.2,-460.58C590.37,-451.24 596.18,-440.75 600.7,-432.58"/>
<polygon fill="midnightblue" stroke="midnightblue" points="582.09,-458.95 580.31,-469.4 588.22,-462.34 582.09,-458.95"/>
</g>
<!-- Node11 -->
<g id="node11" class="node">
<title>Node11</title>
<g id="a_node11"><a xlink:href="bufferview_8h.html" target="_top" xlink:title=" ">
<polygon fill="none" stroke="black" points="384,-402.5 384,-432.5 525,-432.5 525,-402.5 384,-402.5"/>
<text text-anchor="start" x="392" y="-420.5" font-family="Helvetica,sans-Serif" font-size="10.00">/github/workspace/src</text>
<text text-anchor="middle" x="454.5" y="-409.5" font-family="Helvetica,sans-Serif" font-size="10.00">/renderer/vulkan/bufferview.h</text>
</a>
</g>
</g>
<!-- Node9&#45;&gt;Node11 -->
<g id="edge10" class="edge">
<title>Node9&#45;&gt;Node11</title>
<path fill="none" stroke="midnightblue" d="M537.89,-464.44C519.38,-454.24 496.98,-441.9 480.05,-432.58"/>
<polygon fill="midnightblue" stroke="midnightblue" points="536.45,-467.64 546.9,-469.4 539.83,-461.51 536.45,-467.64"/>
</g>
<!-- Node13 -->
<g id="node13" class="node">
<title>Node13</title>
<g id="a_node13"><a xlink:href="uniformbuffer_8h.html" target="_top" xlink:title=" ">
<polygon fill="none" stroke="black" points="213,-402.5 213,-432.5 366,-432.5 366,-402.5 213,-402.5"/>
<text text-anchor="start" x="221" y="-420.5" font-family="Helvetica,sans-Serif" font-size="10.00">/github/workspace/src</text>
<text text-anchor="middle" x="289.5" y="-409.5" font-family="Helvetica,sans-Serif" font-size="10.00">/renderer/vulkan/uniformbuffer.h</text>
</a>
</g>
</g>
<!-- Node9&#45;&gt;Node13 -->
<g id="edge12" class="edge">
<title>Node9&#45;&gt;Node13</title>
<path fill="none" stroke="midnightblue" d="M501.79,-467.26C455.28,-456.58 395.02,-442.74 350.6,-432.53"/>
<polygon fill="midnightblue" stroke="midnightblue" points="501.26,-470.73 511.79,-469.56 502.83,-463.91 501.26,-470.73"/>
</g>
<!-- Node12 -->
<g id="node12" class="node">
<title>Node12</title>
<g id="a_node12"><a xlink:href="bufferview_8cpp.html" target="_top" xlink:title=" ">
<polygon fill="none" stroke="black" points="448.5,-335.5 448.5,-365.5 600.5,-365.5 600.5,-335.5 448.5,-335.5"/>
<text text-anchor="start" x="456.5" y="-353.5" font-family="Helvetica,sans-Serif" font-size="10.00">/github/workspace/src</text>
<text text-anchor="middle" x="524.5" y="-342.5" font-family="Helvetica,sans-Serif" font-size="10.00">/renderer/vulkan/bufferview.cpp</text>
</a>
</g>
</g>
<!-- Node11&#45;&gt;Node12 -->
<g id="edge11" class="edge">
<title>Node11&#45;&gt;Node12</title>
<path fill="none" stroke="midnightblue" d="M477.32,-395.31C487.82,-385.56 499.99,-374.26 509.34,-365.58"/>
<polygon fill="midnightblue" stroke="midnightblue" points="474.64,-393.03 469.69,-402.4 479.4,-398.16 474.64,-393.03"/>
</g>
<!-- Node13&#45;&gt;Node2 -->
<g id="edge29" class="edge">
<title>Node13&#45;&gt;Node2</title>
<path fill="none" stroke="midnightblue" d="M320.21,-437.94C365.9,-466.73 454.68,-522.14 531.5,-567 553.19,-579.66 578.15,-593.46 596.44,-603.43"/>
<polygon fill="midnightblue" stroke="midnightblue" points="321.98,-434.92 311.66,-432.55 318.25,-440.84 321.98,-434.92"/>
</g>
<!-- Node14 -->
<g id="node14" class="node">
<title>Node14</title>
<g id="a_node14"><a xlink:href="materiallibrary_8h.html" target="_top" xlink:title=" ">
<polygon fill="none" stroke="black" points="267,-335.5 267,-365.5 392,-365.5 392,-335.5 267,-335.5"/>
<text text-anchor="start" x="275" y="-353.5" font-family="Helvetica,sans-Serif" font-size="10.00">/github/workspace/src</text>
<text text-anchor="middle" x="329.5" y="-342.5" font-family="Helvetica,sans-Serif" font-size="10.00">/renderer/materiallibrary.h</text>
</a>
</g>
</g>
<!-- Node13&#45;&gt;Node14 -->
<g id="edge13" class="edge">
<title>Node13&#45;&gt;Node14</title>
<path fill="none" stroke="midnightblue" d="M303.43,-393.87C309.22,-384.46 315.76,-373.83 320.84,-365.58"/>
<polygon fill="midnightblue" stroke="midnightblue" points="300.44,-392.05 298.18,-402.4 306.4,-395.71 300.44,-392.05"/>
</g>
<!-- Node26 -->
<g id="node26" class="node">
<title>Node26</title>
<g id="a_node26"><a xlink:href="uniformbuffer_8cpp.html" target="_top" xlink:title=" ">
<polygon fill="none" stroke="black" points="84.5,-335.5 84.5,-365.5 248.5,-365.5 248.5,-335.5 84.5,-335.5"/>
<text text-anchor="start" x="92.5" y="-353.5" font-family="Helvetica,sans-Serif" font-size="10.00">/github/workspace/src</text>
<text text-anchor="middle" x="166.5" y="-342.5" font-family="Helvetica,sans-Serif" font-size="10.00">/renderer/vulkan/uniformbuffer.cpp</text>
</a>
</g>
</g>
<!-- Node13&#45;&gt;Node26 -->
<g id="edge30" class="edge">
<title>Node13&#45;&gt;Node26</title>
<path fill="none" stroke="midnightblue" d="M253.95,-397.71C234.55,-387.46 210.94,-374.98 193.14,-365.58"/>
<polygon fill="midnightblue" stroke="midnightblue" points="252.33,-400.82 262.81,-402.4 255.6,-394.63 252.33,-400.82"/>
</g>
<!-- Node13&#45;&gt;Node27 -->
<g id="edge31" class="edge">
<title>Node13&#45;&gt;Node27</title>
<path fill="none" stroke="midnightblue" d="M335.56,-398.54C356.04,-389.81 380.08,-378.5 400.5,-366 419.38,-354.44 419.08,-343.56 439.5,-335 454.5,-328.72 653.16,-306.19 769.04,-293.45"/>
<polygon fill="midnightblue" stroke="midnightblue" points="334,-395.4 326.13,-402.49 336.71,-401.86 334,-395.4"/>
</g>
<!-- Node15 -->
<g id="node15" class="node">
<title>Node15</title>
<g id="a_node15"><a xlink:href="material_8h.html" target="_top" xlink:title=" ">
<polygon fill="none" stroke="black" points="349,-268.5 349,-298.5 462,-298.5 462,-268.5 349,-268.5"/>
<text text-anchor="start" x="357" y="-286.5" font-family="Helvetica,sans-Serif" font-size="10.00">/github/workspace/src</text>
<text text-anchor="middle" x="405.5" y="-275.5" font-family="Helvetica,sans-Serif" font-size="10.00">/renderer/material.h</text>
</a>
</g>
</g>
<!-- Node14&#45;&gt;Node15 -->
<g id="edge14" class="edge">
<title>Node14&#45;&gt;Node15</title>
<path fill="none" stroke="midnightblue" d="M347.9,-328.31C358.63,-318.56 372.07,-307.26 383.37,-298.58"/>
<polygon fill="midnightblue" stroke="midnightblue" points="345.23,-326.01 340.31,-335.4 350.01,-331.13 345.23,-326.01"/>
</g>
<!-- Node25 -->
<g id="node25" class="node">
<title>Node25</title>
<g id="a_node25"><a xlink:href="materiallibrary_8cpp.html" target="_top" xlink:title=" ">
<polygon fill="none" stroke="black" points="194.5,-268.5 194.5,-298.5 330.5,-298.5 330.5,-268.5 194.5,-268.5"/>
<text text-anchor="start" x="202.5" y="-286.5" font-family="Helvetica,sans-Serif" font-size="10.00">/github/workspace/src</text>
<text text-anchor="middle" x="262.5" y="-275.5" font-family="Helvetica,sans-Serif" font-size="10.00">/renderer/materiallibrary.cpp</text>
</a>
</g>
</g>
<!-- Node14&#45;&gt;Node25 -->
<g id="edge28" class="edge">
<title>Node14&#45;&gt;Node25</title>
<path fill="none" stroke="midnightblue" d="M307.66,-328.31C297.61,-318.56 285.96,-307.26 277.01,-298.58"/>
<polygon fill="midnightblue" stroke="midnightblue" points="305.35,-330.94 314.96,-335.4 310.22,-325.92 305.35,-330.94"/>
</g>
<!-- Node15&#45;&gt;Node14 -->
<g id="edge19" class="edge">
<title>Node15&#45;&gt;Node14</title>
<path fill="none" stroke="midnightblue" d="M387.13,-305.66C376.41,-315.4 362.97,-326.71 351.67,-335.4"/>
<polygon fill="midnightblue" stroke="midnightblue" points="389.8,-307.96 394.72,-298.58 385.02,-302.84 389.8,-307.96"/>
</g>
<!-- Node16 -->
<g id="node16" class="node">
<title>Node16</title>
<g id="a_node16"><a xlink:href="mastermaterial_8h.html" target="_top" xlink:title=" ">
<polygon fill="none" stroke="black" points="508.5,-201.5 508.5,-231.5 638.5,-231.5 638.5,-201.5 508.5,-201.5"/>
<text text-anchor="start" x="516.5" y="-219.5" font-family="Helvetica,sans-Serif" font-size="10.00">/github/workspace/src</text>
<text text-anchor="middle" x="573.5" y="-208.5" font-family="Helvetica,sans-Serif" font-size="10.00">/renderer/mastermaterial.h</text>
</a>
</g>
</g>
<!-- Node15&#45;&gt;Node16 -->
<g id="edge15" class="edge">
<title>Node15&#45;&gt;Node16</title>
<path fill="none" stroke="midnightblue" d="M451.55,-264.68C478.5,-254.26 512.04,-241.28 537.12,-231.58"/>
<polygon fill="midnightblue" stroke="midnightblue" points="450.02,-261.52 441.95,-268.4 452.54,-268.05 450.02,-261.52"/>
</g>
<!-- Node18 -->
<g id="node18" class="node">
<title>Node18</title>
<g id="a_node18"><a xlink:href="material_8cpp.html" target="_top" xlink:title=" ">
<polygon fill="none" stroke="black" points="373,-201.5 373,-231.5 486,-231.5 486,-201.5 373,-201.5"/>
<text text-anchor="start" x="381" y="-219.5" font-family="Helvetica,sans-Serif" font-size="10.00">/github/workspace/src</text>
<text text-anchor="middle" x="429.5" y="-208.5" font-family="Helvetica,sans-Serif" font-size="10.00">/renderer/material.cpp</text>
</a>
</g>
</g>
<!-- Node15&#45;&gt;Node18 -->
<g id="edge18" class="edge">
<title>Node15&#45;&gt;Node18</title>
<path fill="none" stroke="midnightblue" d="M414.18,-258.99C417.57,-249.8 421.35,-239.58 424.3,-231.58"/>
<polygon fill="midnightblue" stroke="midnightblue" points="410.89,-257.8 410.71,-268.4 417.45,-260.23 410.89,-257.8"/>
</g>
<!-- Node19 -->
<g id="node19" class="node">
<title>Node19</title>
<g id="a_node19"><a xlink:href="mesh_8h.html" target="_top" xlink:title=" ">
<polygon fill="none" stroke="black" points="242,-201.5 242,-231.5 355,-231.5 355,-201.5 242,-201.5"/>
<text text-anchor="start" x="250" y="-219.5" font-family="Helvetica,sans-Serif" font-size="10.00">/github/workspace/src</text>
<text text-anchor="middle" x="298.5" y="-208.5" font-family="Helvetica,sans-Serif" font-size="10.00">/renderer/mesh.h</text>
</a>
</g>
</g>
<!-- Node15&#45;&gt;Node19 -->
<g id="edge20" class="edge">
<title>Node15&#45;&gt;Node19</title>
<path fill="none" stroke="midnightblue" d="M373.42,-263.02C356.77,-252.9 336.81,-240.77 321.67,-231.58"/>
<polygon fill="midnightblue" stroke="midnightblue" points="371.92,-266.2 382.28,-268.4 375.55,-260.21 371.92,-266.2"/>
</g>
<!-- Node16&#45;&gt;Node14 -->
<g id="edge17" class="edge">
<title>Node16&#45;&gt;Node14</title>
<path fill="none" stroke="midnightblue" d="M547.47,-237.88C535.82,-247.05 521.94,-258.02 509.5,-268 492.5,-281.64 490.49,-288.3 471.5,-299 443.57,-314.73 409.86,-326.97 382.29,-335.46"/>
<polygon fill="midnightblue" stroke="midnightblue" points="549.8,-240.5 555.51,-231.57 545.48,-235 549.8,-240.5"/>
</g>
<!-- Node17 -->
<g id="node17" class="node">
<title>Node17</title>
<g id="a_node17"><a xlink:href="mastermaterial_8cpp.html" target="_top" xlink:title=" ">
<polygon fill="none" stroke="black" points="507.5,-134.5 507.5,-164.5 647.5,-164.5 647.5,-134.5 507.5,-134.5"/>
<text text-anchor="start" x="515.5" y="-152.5" font-family="Helvetica,sans-Serif" font-size="10.00">/github/workspace/src</text>
<text text-anchor="middle" x="577.5" y="-141.5" font-family="Helvetica,sans-Serif" font-size="10.00">/renderer/mastermaterial.cpp</text>
</a>
</g>
</g>
<!-- Node16&#45;&gt;Node17 -->
<g id="edge16" class="edge">
<title>Node16&#45;&gt;Node17</title>
<path fill="none" stroke="midnightblue" d="M574.98,-191.4C575.54,-182.37 576.15,-172.41 576.63,-164.58"/>
<polygon fill="midnightblue" stroke="midnightblue" points="571.49,-191.2 574.37,-201.4 578.48,-191.63 571.49,-191.2"/>
</g>
<!-- Node20 -->
<g id="node20" class="node">
<title>Node20</title>
<g id="a_node20"><a xlink:href="mesh_8cpp.html" target="_top" xlink:title=" ">
<polygon fill="none" stroke="black" points="376,-134.5 376,-164.5 489,-164.5 489,-134.5 376,-134.5"/>
<text text-anchor="start" x="384" y="-152.5" font-family="Helvetica,sans-Serif" font-size="10.00">/github/workspace/src</text>
<text text-anchor="middle" x="432.5" y="-141.5" font-family="Helvetica,sans-Serif" font-size="10.00">/renderer/mesh.cpp</text>
</a>
</g>
</g>
<!-- Node19&#45;&gt;Node20 -->
<g id="edge21" class="edge">
<title>Node19&#45;&gt;Node20</title>
<path fill="none" stroke="midnightblue" d="M336.65,-196.99C357.89,-186.69 383.91,-174.07 403.48,-164.58"/>
<polygon fill="midnightblue" stroke="midnightblue" points="335.05,-193.88 327.58,-201.4 338.1,-200.18 335.05,-193.88"/>
</g>
<!-- Node21 -->
<g id="node21" class="node">
<title>Node21</title>
<g id="a_node21"><a xlink:href="modelloader_8h.html" target="_top" xlink:title=" ">
<polygon fill="none" stroke="black" points="239.5,-134.5 239.5,-164.5 357.5,-164.5 357.5,-134.5 239.5,-134.5"/>
<text text-anchor="start" x="247.5" y="-152.5" font-family="Helvetica,sans-Serif" font-size="10.00">/github/workspace/src</text>
<text text-anchor="middle" x="298.5" y="-141.5" font-family="Helvetica,sans-Serif" font-size="10.00">/renderer/modelloader.h</text>
</a>
</g>
</g>
<!-- Node19&#45;&gt;Node21 -->
<g id="edge22" class="edge">
<title>Node19&#45;&gt;Node21</title>
<path fill="none" stroke="midnightblue" d="M298.5,-191.11C298.5,-182.15 298.5,-172.32 298.5,-164.58"/>
<polygon fill="midnightblue" stroke="midnightblue" points="295,-191.4 298.5,-201.4 302,-191.4 295,-191.4"/>
</g>
<!-- Node23 -->
<g id="node23" class="node">
<title>Node23</title>
<g id="a_node23"><a xlink:href="objectinstance_8h.html" target="_top" xlink:title=" ">
<polygon fill="none" stroke="black" points="93.5,-134.5 93.5,-164.5 221.5,-164.5 221.5,-134.5 93.5,-134.5"/>
<text text-anchor="start" x="101.5" y="-152.5" font-family="Helvetica,sans-Serif" font-size="10.00">/github/workspace/src</text>
<text text-anchor="middle" x="157.5" y="-141.5" font-family="Helvetica,sans-Serif" font-size="10.00">/renderer/objectinstance.h</text>
</a>
</g>
</g>
<!-- Node19&#45;&gt;Node23 -->
<g id="edge25" class="edge">
<title>Node19&#45;&gt;Node23</title>
<path fill="none" stroke="midnightblue" d="M258.65,-197.13C236.25,-186.8 208.72,-174.11 188.04,-164.58"/>
<polygon fill="midnightblue" stroke="midnightblue" points="257.36,-200.39 267.91,-201.4 260.29,-194.03 257.36,-200.39"/>
</g>
<!-- Node21&#45;&gt;Node7 -->
<g id="edge24" class="edge">
<title>Node21&#45;&gt;Node7</title>
<path fill="none" stroke="midnightblue" d="M298.5,-124.02C298.5,-96.51 298.5,-52.79 298.5,-30.52"/>
<polygon fill="midnightblue" stroke="midnightblue" points="295,-124.37 298.5,-134.37 302,-124.37 295,-124.37"/>
</g>
<!-- Node22 -->
<g id="node22" class="node">
<title>Node22</title>
<g id="a_node22"><a xlink:href="modelloader_8cpp.html" target="_top" xlink:title=" ">
<polygon fill="none" stroke="black" points="326.5,-67.5 326.5,-97.5 454.5,-97.5 454.5,-67.5 326.5,-67.5"/>
<text text-anchor="start" x="334.5" y="-85.5" font-family="Helvetica,sans-Serif" font-size="10.00">/github/workspace/src</text>
<text text-anchor="middle" x="390.5" y="-74.5" font-family="Helvetica,sans-Serif" font-size="10.00">/renderer/modelloader.cpp</text>
</a>
</g>
</g>
<!-- Node21&#45;&gt;Node22 -->
<g id="edge23" class="edge">
<title>Node21&#45;&gt;Node22</title>
<path fill="none" stroke="midnightblue" d="M326.88,-128.45C341.03,-118.45 357.81,-106.6 370.58,-97.58"/>
<polygon fill="midnightblue" stroke="midnightblue" points="324.61,-125.77 318.46,-134.4 328.65,-131.48 324.61,-125.77"/>
</g>
<!-- Node23&#45;&gt;Node5 -->
<g id="edge27" class="edge">
<title>Node23&#45;&gt;Node5</title>
<path fill="none" stroke="midnightblue" d="M126.79,-128.73C111.16,-118.68 92.53,-106.68 78.37,-97.58"/>
<polygon fill="midnightblue" stroke="midnightblue" points="125.28,-131.93 135.58,-134.4 129.07,-126.04 125.28,-131.93"/>
</g>
<!-- Node24 -->
<g id="node24" class="node">
<title>Node24</title>
<g id="a_node24"><a xlink:href="objectinstance_8cpp.html" target="_top" xlink:title=" ">
<polygon fill="none" stroke="black" points="131,-67.5 131,-97.5 270,-97.5 270,-67.5 131,-67.5"/>
<text text-anchor="start" x="139" y="-85.5" font-family="Helvetica,sans-Serif" font-size="10.00">/github/workspace/src</text>
<text text-anchor="middle" x="200.5" y="-74.5" font-family="Helvetica,sans-Serif" font-size="10.00">/renderer/objectinstance.cpp</text>
</a>
</g>
</g>
<!-- Node23&#45;&gt;Node24 -->
<g id="edge26" class="edge">
<title>Node23&#45;&gt;Node24</title>
<path fill="none" stroke="midnightblue" d="M172.47,-125.87C178.7,-116.46 185.73,-105.83 191.19,-97.58"/>
<polygon fill="midnightblue" stroke="midnightblue" points="169.43,-124.12 166.83,-134.4 175.27,-127.99 169.43,-124.12"/>
</g>
<!-- Node29&#45;&gt;Node7 -->
<g id="edge53" class="edge">
<title>Node29&#45;&gt;Node7</title>
<path fill="none" stroke="midnightblue" d="M1088.06,-459.49C1093.67,-433.15 1101.5,-389.55 1101.5,-351.5 1101.5,-351.5 1101.5,-351.5 1101.5,-148.5 1101.5,-76.58 593.46,-35.56 385.58,-21.78"/>
<polygon fill="midnightblue" stroke="midnightblue" points="1084.63,-458.82 1085.9,-469.34 1091.46,-460.32 1084.63,-458.82"/>
</g>
<!-- Node29&#45;&gt;Node27 -->
<g id="edge52" class="edge">
<title>Node29&#45;&gt;Node27</title>
<path fill="none" stroke="midnightblue" d="M1083.37,-459.34C1083.17,-426.6 1077.72,-368.4 1044.5,-335 1015.56,-305.9 972.06,-292.92 933.67,-287.37"/>
<polygon fill="midnightblue" stroke="midnightblue" points="1079.87,-459.36 1083.27,-469.4 1086.87,-459.43 1079.87,-459.36"/>
</g>
<!-- Node29&#45;&gt;Node30 -->
<g id="edge34" class="edge">
<title>Node29&#45;&gt;Node30</title>
<path fill="none" stroke="midnightblue" d="M1097.28,-461.54C1119.75,-434.25 1161.64,-388.48 1185.39,-365.52"/>
<polygon fill="midnightblue" stroke="midnightblue" points="1094.52,-459.39 1090.97,-469.37 1099.97,-463.78 1094.52,-459.39"/>
</g>
<!-- Node32 -->
<g id="node32" class="node">
<title>Node32</title>
<g id="a_node32"><a xlink:href="graphicspipeline_8h.html" target="_top" xlink:title=" ">
<polygon fill="none" stroke="black" points="619,-335.5 619,-365.5 786,-365.5 786,-335.5 619,-335.5"/>
<text text-anchor="start" x="627" y="-353.5" font-family="Helvetica,sans-Serif" font-size="10.00">/github/workspace/src</text>
<text text-anchor="middle" x="702.5" y="-342.5" font-family="Helvetica,sans-Serif" font-size="10.00">/renderer/vulkan/graphicspipeline.h</text>
</a>
</g>
</g>
<!-- Node29&#45;&gt;Node32 -->
<g id="edge39" class="edge">
<title>Node29&#45;&gt;Node32</title>
<path fill="none" stroke="midnightblue" d="M1000.86,-467.39C962.59,-458.85 916.66,-447.17 876.5,-433 822.08,-413.8 761.75,-383.33 728.35,-365.59"/>
<polygon fill="midnightblue" stroke="midnightblue" points="1000.42,-470.87 1010.93,-469.6 1001.92,-464.04 1000.42,-470.87"/>
</g>
<!-- Node34 -->
<g id="node34" class="node">
<title>Node34</title>
<g id="a_node34"><a xlink:href="renderpass_8h.html" target="_top" xlink:title=" ">
<polygon fill="none" stroke="black" points="885,-402.5 885,-432.5 1030,-432.5 1030,-402.5 885,-402.5"/>
<text text-anchor="start" x="893" y="-420.5" font-family="Helvetica,sans-Serif" font-size="10.00">/github/workspace/src</text>
<text text-anchor="middle" x="957.5" y="-409.5" font-family="Helvetica,sans-Serif" font-size="10.00">/renderer/vulkan/renderpass.h</text>
</a>
</g>
</g>
<!-- Node29&#45;&gt;Node34 -->
<g id="edge45" class="edge">
<title>Node29&#45;&gt;Node34</title>
<path fill="none" stroke="midnightblue" d="M1046.37,-464.71C1026.66,-454.46 1002.66,-441.98 984.57,-432.58"/>
<polygon fill="midnightblue" stroke="midnightblue" points="1044.89,-467.89 1055.38,-469.4 1048.12,-461.68 1044.89,-467.89"/>
</g>
<!-- Node29&#45;&gt;Node36 -->
<g id="edge51" class="edge">
<title>Node29&#45;&gt;Node36</title>
<path fill="none" stroke="midnightblue" d="M1131.09,-465.96C1160.08,-455.48 1196.41,-442.37 1223.52,-432.58"/>
<polygon fill="midnightblue" stroke="midnightblue" points="1129.77,-462.71 1121.56,-469.4 1132.15,-469.29 1129.77,-462.71"/>
</g>
<!-- Node30&#45;&gt;Node8 -->
<g id="edge35" class="edge">
<title>Node30&#45;&gt;Node8</title>
<path fill="none" stroke="midnightblue" d="M1285.44,-367.64C1329.69,-380.27 1370.86,-401.12 1348.5,-433 1302.55,-498.52 1070.69,-530.61 944.55,-543.44"/>
<polygon fill="midnightblue" stroke="midnightblue" points="1286.23,-364.24 1275.67,-365 1284.4,-370.99 1286.23,-364.24"/>
</g>
<!-- Node30&#45;&gt;Node27 -->
<g id="edge38" class="edge">
<title>Node30&#45;&gt;Node27</title>
<path fill="none" stroke="midnightblue" d="M1119.43,-334.12C1061.17,-323.33 983.88,-309.01 927.29,-298.53"/>
<polygon fill="midnightblue" stroke="midnightblue" points="1118.88,-337.57 1129.35,-335.95 1120.15,-330.69 1118.88,-337.57"/>
</g>
<!-- Node30&#45;&gt;Node29 -->
<g id="edge37" class="edge">
<title>Node30&#45;&gt;Node29</title>
<path fill="none" stroke="midnightblue" d="M1187.82,-373.34C1165.41,-400.57 1123.52,-446.35 1099.71,-469.37"/>
<polygon fill="midnightblue" stroke="midnightblue" points="1190.56,-375.51 1194.11,-365.52 1185.11,-371.12 1190.56,-375.51"/>
</g>
<!-- Node31 -->
<g id="node31" class="node">
<title>Node31</title>
<g id="a_node31"><a xlink:href="framebuffer_8cpp.html" target="_top" xlink:title=" ">
<polygon fill="none" stroke="black" points="1129.5,-268.5 1129.5,-298.5 1285.5,-298.5 1285.5,-268.5 1129.5,-268.5"/>
<text text-anchor="start" x="1137.5" y="-286.5" font-family="Helvetica,sans-Serif" font-size="10.00">/github/workspace/src</text>
<text text-anchor="middle" x="1207.5" y="-275.5" font-family="Helvetica,sans-Serif" font-size="10.00">/renderer/vulkan/framebuffer.cpp</text>
</a>
</g>
</g>
<!-- Node30&#45;&gt;Node31 -->
<g id="edge36" class="edge">
<title>Node30&#45;&gt;Node31</title>
<path fill="none" stroke="midnightblue" d="M1204.35,-325.4C1205.05,-316.37 1205.81,-306.41 1206.42,-298.58"/>
<polygon fill="midnightblue" stroke="midnightblue" points="1200.86,-325.16 1203.58,-335.4 1207.84,-325.69 1200.86,-325.16"/>
</g>
<!-- Node32&#45;&gt;Node8 -->
<g id="edge42" class="edge">
<title>Node32&#45;&gt;Node8</title>
<path fill="none" stroke="midnightblue" d="M695.77,-375.77C688.48,-407.68 681.25,-463.94 708.5,-500 725.63,-522.67 753.22,-535.32 780.34,-542.31"/>
<polygon fill="midnightblue" stroke="midnightblue" points="699.2,-376.49 698.19,-365.94 692.4,-374.81 699.2,-376.49"/>
</g>
<!-- Node32&#45;&gt;Node15 -->
<g id="edge41" class="edge">
<title>Node32&#45;&gt;Node15</title>
<path fill="none" stroke="midnightblue" d="M628.37,-333.28C576.99,-322.03 509.61,-307.29 462.44,-296.96"/>
<polygon fill="midnightblue" stroke="midnightblue" points="627.9,-336.76 638.42,-335.48 629.4,-329.92 627.9,-336.76"/>
</g>
<!-- Node32&#45;&gt;Node16 -->
<g id="edge40" class="edge">
<title>Node32&#45;&gt;Node16</title>
<path fill="none" stroke="midnightblue" d="M710.07,-325.43C714,-307.98 715.91,-284.62 704.5,-268 689.47,-246.09 663.49,-233.69 638.61,-226.66"/>
<polygon fill="midnightblue" stroke="midnightblue" points="706.6,-324.86 707.45,-335.42 713.37,-326.63 706.6,-324.86"/>
</g>
<!-- Node32&#45;&gt;Node27 -->
<g id="edge44" class="edge">
<title>Node32&#45;&gt;Node27</title>
<path fill="none" stroke="midnightblue" d="M744.29,-331.27C768.02,-320.92 797.28,-308.15 819.23,-298.58"/>
<polygon fill="midnightblue" stroke="midnightblue" points="742.6,-328.19 734.83,-335.4 745.4,-334.61 742.6,-328.19"/>
</g>
<!-- Node33 -->
<g id="node33" class="node">
<title>Node33</title>
<g id="a_node33"><a xlink:href="graphicspipeline_8cpp.html" target="_top" xlink:title=" ">
<polygon fill="none" stroke="black" points="518,-268.5 518,-298.5 695,-298.5 695,-268.5 518,-268.5"/>
<text text-anchor="start" x="526" y="-286.5" font-family="Helvetica,sans-Serif" font-size="10.00">/github/workspace/src</text>
<text text-anchor="middle" x="606.5" y="-275.5" font-family="Helvetica,sans-Serif" font-size="10.00">/renderer/vulkan/graphicspipeline.cpp</text>
</a>
</g>
</g>
<!-- Node32&#45;&gt;Node33 -->
<g id="edge43" class="edge">
<title>Node32&#45;&gt;Node33</title>
<path fill="none" stroke="midnightblue" d="M673.31,-329.73C658.45,-319.68 640.74,-307.68 627.29,-298.58"/>
<polygon fill="midnightblue" stroke="midnightblue" points="671.43,-332.69 681.67,-335.4 675.35,-326.89 671.43,-332.69"/>
</g>
<!-- Node34&#45;&gt;Node8 -->
<g id="edge46" class="edge">
<title>Node34&#45;&gt;Node8</title>
<path fill="none" stroke="midnightblue" d="M954.67,-442.59C951.68,-459.86 945.63,-482.99 933.5,-500 922.52,-515.39 905.34,-527.8 890.62,-536.46"/>
<polygon fill="midnightblue" stroke="midnightblue" points="958.13,-443.11 956.16,-432.7 951.21,-442.06 958.13,-443.11"/>
</g>
<!-- Node34&#45;&gt;Node27 -->
<g id="edge50" class="edge">
<title>Node34&#45;&gt;Node27</title>
<path fill="none" stroke="midnightblue" d="M910.75,-397.82C896.28,-389.96 881.52,-379.45 871.5,-366 856.53,-345.9 852.65,-316.02 851.71,-298.57"/>
<polygon fill="midnightblue" stroke="midnightblue" points="909.18,-400.94 919.67,-402.37 912.36,-394.71 909.18,-400.94"/>
</g>
<!-- Node34&#45;&gt;Node30 -->
<g id="edge47" class="edge">
<title>Node34&#45;&gt;Node30</title>
<path fill="none" stroke="midnightblue" d="M1020.26,-399.85C1060.2,-389.25 1111.37,-375.68 1149.31,-365.61"/>
<polygon fill="midnightblue" stroke="midnightblue" points="1019.13,-396.53 1010.36,-402.48 1020.92,-403.29 1019.13,-396.53"/>
</g>
<!-- Node34&#45;&gt;Node32 -->
<g id="edge48" class="edge">
<title>Node34&#45;&gt;Node32</title>
<path fill="none" stroke="midnightblue" d="M892.71,-399.98C851.06,-389.37 797.52,-375.72 757.86,-365.61"/>
<polygon fill="midnightblue" stroke="midnightblue" points="891.93,-403.4 902.48,-402.48 893.66,-396.61 891.93,-403.4"/>
</g>
<!-- Node35 -->
<g id="node35" class="node">
<title>Node35</title>
<g id="a_node35"><a xlink:href="renderpass_8cpp.html" target="_top" xlink:title=" ">
<polygon fill="none" stroke="black" points="880,-335.5 880,-365.5 1035,-365.5 1035,-335.5 880,-335.5"/>
<text text-anchor="start" x="888" y="-353.5" font-family="Helvetica,sans-Serif" font-size="10.00">/github/workspace/src</text>
<text text-anchor="middle" x="957.5" y="-342.5" font-family="Helvetica,sans-Serif" font-size="10.00">/renderer/vulkan/renderpass.cpp</text>
</a>
</g>
</g>
<!-- Node34&#45;&gt;Node35 -->
<g id="edge49" class="edge">
<title>Node34&#45;&gt;Node35</title>
<path fill="none" stroke="midnightblue" d="M957.5,-392.11C957.5,-383.15 957.5,-373.32 957.5,-365.58"/>
<polygon fill="midnightblue" stroke="midnightblue" points="954,-392.4 957.5,-402.4 961,-392.4 954,-392.4"/>
</g>
<!-- Node38&#45;&gt;Node1 -->
<g id="edge59" class="edge">
<title>Node38&#45;&gt;Node1</title>
<path fill="none" stroke="midnightblue" d="M1486.04,-643.57C1486.49,-652.6 1486.21,-662.56 1485.18,-670.4"/>
<polygon fill="midnightblue" stroke="midnightblue" points="1489.53,-643.24 1485.17,-633.58 1482.55,-643.84 1489.53,-643.24"/>
</g>
<!-- Node38&#45;&gt;Node27 -->
<g id="edge60" class="edge">
<title>Node38&#45;&gt;Node27</title>
<path fill="none" stroke="midnightblue" d="M1450.85,-596.95C1441.17,-588.67 1431.14,-578.37 1424.5,-567 1405.74,-534.88 1405.5,-522.69 1405.5,-485.5 1405.5,-485.5 1405.5,-485.5 1405.5,-416.5 1405.5,-320.65 1087.76,-294.27 933.54,-287.11"/>
<polygon fill="midnightblue" stroke="midnightblue" points="1448.85,-599.84 1458.82,-603.42 1453.26,-594.4 1448.85,-599.84"/>
</g>
<!-- Node39 -->
<g id="node39" class="node">
<title>Node39</title>
<g id="a_node39"><a xlink:href="image_8cpp.html" target="_top" xlink:title=" ">
<polygon fill="none" stroke="black" points="1433.5,-536.5 1433.5,-566.5 1567.5,-566.5 1567.5,-536.5 1433.5,-536.5"/>
<text text-anchor="start" x="1441.5" y="-554.5" font-family="Helvetica,sans-Serif" font-size="10.00">/github/workspace/src</text>
<text text-anchor="middle" x="1500.5" y="-543.5" font-family="Helvetica,sans-Serif" font-size="10.00">/renderer/vulkan/image.cpp</text>
</a>
</g>
</g>
<!-- Node38&#45;&gt;Node39 -->
<g id="edge58" class="edge">
<title>Node38&#45;&gt;Node39</title>
<path fill="none" stroke="midnightblue" d="M1487.19,-593.7C1490.13,-584.59 1493.39,-574.49 1495.95,-566.58"/>
<polygon fill="midnightblue" stroke="midnightblue" points="1483.8,-592.8 1484.06,-603.4 1490.46,-594.96 1483.8,-592.8"/>
</g>
</g>
</svg>
