<?xml version="1.0" encoding="UTF-8" standalone="no"?>
<!DOCTYPE svg PUBLIC "-//W3C//DTD SVG 1.1//EN"
 "http://www.w3.org/Graphics/SVG/1.1/DTD/svg11.dtd">
<!-- Generated by graphviz version 2.49.3 (20211215.1918)
 -->
<!-- Title: /github/workspace/src/renderer/vulkan/image.h Pages: 1 -->
<!--zoomable 508 -->
<svg id="main" version="1.1" xmlns="http://www.w3.org/2000/svg" xmlns:xlink="http://www.w3.org/1999/xlink" xml:space="preserve" onload="init(evt)">
<style type="text/css"><![CDATA[
.edge:hover path { stroke: red; }
.edge:hover polygon { stroke: red; fill: red; }
]]></style>
<script type="text/javascript"><![CDATA[
var edges = document.getElementsByTagName('g');
if (edges && edges.length) {
  for (var i=0;i<edges.length;i++) {
    if (edges[i].id.substr(0,4)=='edge') {
      edges[i].setAttribute('class','edge');
    }
  }
}
]]></script>
        <defs>
                <circle id="rim" cx="0" cy="0" r="7"/>
                <circle id="rim2" cx="0" cy="0" r="3.5"/>
                <g id="zoomPlus">
                        <use xlink:href="#rim" fill="#404040">
                                <set attributeName="fill" to="#808080" begin="zoomplus.mouseover" end="zoomplus.mouseout"/>
                        </use>
                        <path d="M-4,0h8M0,-4v8" fill="none" stroke="white" stroke-width="1.5" pointer-events="none"/>
                </g>
                <g id="zoomMin">
                        <use xlink:href="#rim" fill="#404040">
                                <set attributeName="fill" to="#808080" begin="zoomminus.mouseover" end="zoomminus.mouseout"/>
                        </use>
                        <path d="M-4,0h8" fill="none" stroke="white" stroke-width="1.5" pointer-events="none"/>
                </g>
                <g id="dirArrow">
                        <path fill="none" stroke="white" stroke-width="1.5" d="M0,-3.0v7 M-2.5,-0.5L0,-3.0L2.5,-0.5"/>
                </g>
               <g id="resetDef">
                       <use xlink:href="#rim2" fill="#404040">
                               <set attributeName="fill" to="#808080" begin="reset.mouseover" end="reset.mouseout"/>
                       </use>
               </g>
        </defs>

<script type="text/javascript">
var viewWidth = 1001;
var viewHeight = 508;
var sectionId = 'dynsection-1';
</script>
<script xlink:href="svgpan.js"/>
<svg id="graph" class="graph">
<g id="viewport">
<title>/github/workspace/src/renderer/vulkan/image.h</title>
<!-- Node1 -->
<g id="node1" class="node">
<title>Node1</title>
<g id="a_node1"><a xlink:title=" ">
<polygon fill="#bfbfbf" stroke="black" points="162.5,-469.5 162.5,-499.5 285.5,-499.5 285.5,-469.5 162.5,-469.5"/>
<text text-anchor="start" x="170.5" y="-487.5" font-family="Helvetica,sans-Serif" font-size="10.00">/github/workspace/src</text>
<text text-anchor="middle" x="224" y="-476.5" font-family="Helvetica,sans-Serif" font-size="10.00">/renderer/vulkan/image.h</text>
</a>
</g>
</g>
<!-- Node2 -->
<g id="node2" class="node">
<title>Node2</title>
<g id="a_node2"><a xlink:href="image_8cpp.html" target="_top" xlink:title=" ">
<polygon fill="none" stroke="black" points="0,-402.5 0,-432.5 134,-432.5 134,-402.5 0,-402.5"/>
<text text-anchor="start" x="8" y="-420.5" font-family="Helvetica,sans-Serif" font-size="10.00">/github/workspace/src</text>
<text text-anchor="middle" x="67" y="-409.5" font-family="Helvetica,sans-Serif" font-size="10.00">/renderer/vulkan/image.cpp</text>
</a>
</g>
</g>
<!-- Node1&#45;&gt;Node2 -->
<g id="edge1" class="edge">
<title>Node1&#45;&gt;Node2</title>
<path fill="none" stroke="midnightblue" d="M180.63,-465.54C155.51,-455.14 124.34,-442.24 101,-432.58"/>
<polygon fill="midnightblue" stroke="midnightblue" points="179.36,-468.8 189.93,-469.4 182.03,-462.34 179.36,-468.8"/>
</g>
<!-- Node3 -->
<g id="node3" class="node">
<title>Node3</title>
<g id="a_node3"><a xlink:href="imageview_8h.html" target="_top" xlink:title=" ">
<polygon fill="none" stroke="black" points="152.5,-402.5 152.5,-432.5 295.5,-432.5 295.5,-402.5 152.5,-402.5"/>
<text text-anchor="start" x="160.5" y="-420.5" font-family="Helvetica,sans-Serif" font-size="10.00">/github/workspace/src</text>
<text text-anchor="middle" x="224" y="-409.5" font-family="Helvetica,sans-Serif" font-size="10.00">/renderer/vulkan/imageview.h</text>
</a>
</g>
</g>
<!-- Node1&#45;&gt;Node3 -->
<g id="edge2" class="edge">
<title>Node1&#45;&gt;Node3</title>
<path fill="none" stroke="midnightblue" d="M217.45,-459.4C217.01,-450.37 217.3,-440.41 218.33,-432.58"/>
<polygon fill="midnightblue" stroke="midnightblue" points="213.97,-459.74 218.32,-469.4 220.94,-459.13 213.97,-459.74"/>
</g>
<!-- Node10 -->
<g id="node10" class="node">
<title>Node10</title>
<g id="a_node10"><a xlink:href="vulkan__voxel__rasterizer_8cpp.html" target="_top" xlink:title=" ">
<polygon fill="none" stroke="black" points="525,-0.5 525,-30.5 689,-30.5 689,-0.5 525,-0.5"/>
<text text-anchor="start" x="533" y="-18.5" font-family="Helvetica,sans-Serif" font-size="10.00">/github/workspace/src</text>
<text text-anchor="middle" x="607" y="-7.5" font-family="Helvetica,sans-Serif" font-size="10.00">/tests/vulkan_voxel_rasterizer.cpp</text>
</a>
</g>
</g>
<!-- Node1&#45;&gt;Node10 -->
<g id="edge31" class="edge">
<title>Node1&#45;&gt;Node10</title>
<path fill="none" stroke="midnightblue" d="M295.85,-478.68C486.91,-464.92 993,-421.83 993,-351.5 993,-351.5 993,-351.5 993,-148.5 993,-109.25 990.03,-91.03 959,-67 948.4,-58.79 790.04,-38.46 689.38,-26.25"/>
<polygon fill="midnightblue" stroke="midnightblue" points="295.36,-475.21 285.63,-479.41 295.85,-482.19 295.36,-475.21"/>
</g>
<!-- Node3&#45;&gt;Node1 -->
<g id="edge28" class="edge">
<title>Node3&#45;&gt;Node1</title>
<path fill="none" stroke="midnightblue" d="M230.54,-442.57C230.99,-451.6 230.71,-461.56 229.68,-469.4"/>
<polygon fill="midnightblue" stroke="midnightblue" points="234.03,-442.24 229.67,-432.58 227.05,-442.84 234.03,-442.24"/>
</g>
<!-- Node4 -->
<g id="node4" class="node">
<title>Node4</title>
<g id="a_node4"><a xlink:href="descriptorset_8h.html" target="_top" xlink:title=" ">
<polygon fill="none" stroke="black" points="349.5,-335.5 349.5,-365.5 502.5,-365.5 502.5,-335.5 349.5,-335.5"/>
<text text-anchor="start" x="357.5" y="-353.5" font-family="Helvetica,sans-Serif" font-size="10.00">/github/workspace/src</text>
<text text-anchor="middle" x="426" y="-342.5" font-family="Helvetica,sans-Serif" font-size="10.00">/renderer/vulkan/descriptorset.h</text>
</a>
</g>
</g>
<!-- Node3&#45;&gt;Node4 -->
<g id="edge3" class="edge">
<title>Node3&#45;&gt;Node4</title>
<path fill="none" stroke="midnightblue" d="M277.68,-399.23C310.35,-388.71 351.57,-375.45 382.25,-365.58"/>
<polygon fill="midnightblue" stroke="midnightblue" points="276.28,-396 267.83,-402.4 278.42,-402.66 276.28,-396"/>
</g>
<!-- Node8 -->
<g id="node8" class="node">
<title>Node8</title>
<g id="a_node8"><a xlink:href="framebuffer_8h.html" target="_top" xlink:title=" ">
<polygon fill="none" stroke="black" points="257,-67.5 257,-97.5 403,-97.5 403,-67.5 257,-67.5"/>
<text text-anchor="start" x="265" y="-85.5" font-family="Helvetica,sans-Serif" font-size="10.00">/github/workspace/src</text>
<text text-anchor="middle" x="330" y="-74.5" font-family="Helvetica,sans-Serif" font-size="10.00">/renderer/vulkan/framebuffer.h</text>
</a>
</g>
</g>
<!-- Node3&#45;&gt;Node8 -->
<g id="edge27" class="edge">
<title>Node3&#45;&gt;Node8</title>
<path fill="none" stroke="midnightblue" d="M176.31,-398.28C132.07,-377.9 73,-340.25 73,-284.5 73,-284.5 73,-284.5 73,-215.5 73,-174.34 84.34,-159.05 117,-134 156.88,-103.41 212.4,-90.95 256.76,-86.05"/>
<polygon fill="midnightblue" stroke="midnightblue" points="174.95,-401.5 185.51,-402.37 177.79,-395.11 174.95,-401.5"/>
</g>
<!-- Node15 -->
<g id="node15" class="node">
<title>Node15</title>
<g id="a_node15"><a xlink:href="swapchain_8cpp.html" target="_top" xlink:title=" ">
<polygon fill="none" stroke="black" points="139,-134.5 139,-164.5 293,-164.5 293,-134.5 139,-134.5"/>
<text text-anchor="start" x="147" y="-152.5" font-family="Helvetica,sans-Serif" font-size="10.00">/github/workspace/src</text>
<text text-anchor="middle" x="216" y="-141.5" font-family="Helvetica,sans-Serif" font-size="10.00">/renderer/vulkan/swapchain.cpp</text>
</a>
</g>
</g>
<!-- Node3&#45;&gt;Node15 -->
<g id="edge30" class="edge">
<title>Node3&#45;&gt;Node15</title>
<path fill="none" stroke="midnightblue" d="M172.65,-397.66C158.97,-390.02 145.83,-379.68 138,-366 97.58,-295.38 171.51,-200.07 202.89,-164.58"/>
<polygon fill="midnightblue" stroke="midnightblue" points="171.18,-400.84 181.67,-402.3 174.38,-394.61 171.18,-400.84"/>
</g>
<!-- Node18 -->
<g id="node18" class="node">
<title>Node18</title>
<g id="a_node18"><a xlink:href="imageview_8cpp.html" target="_top" xlink:title=" ">
<polygon fill="none" stroke="black" points="147,-335.5 147,-365.5 301,-365.5 301,-335.5 147,-335.5"/>
<text text-anchor="start" x="155" y="-353.5" font-family="Helvetica,sans-Serif" font-size="10.00">/github/workspace/src</text>
<text text-anchor="middle" x="224" y="-342.5" font-family="Helvetica,sans-Serif" font-size="10.00">/renderer/vulkan/imageview.cpp</text>
</a>
</g>
</g>
<!-- Node3&#45;&gt;Node18 -->
<g id="edge29" class="edge">
<title>Node3&#45;&gt;Node18</title>
<path fill="none" stroke="midnightblue" d="M224,-392.11C224,-383.15 224,-373.32 224,-365.58"/>
<polygon fill="midnightblue" stroke="midnightblue" points="220.5,-392.4 224,-402.4 227.5,-392.4 220.5,-392.4"/>
</g>
<!-- Node5 -->
<g id="node5" class="node">
<title>Node5</title>
<g id="a_node5"><a xlink:href="commandbuffer_8h.html" target="_top" xlink:title=" ">
<polygon fill="none" stroke="black" points="541,-268.5 541,-298.5 705,-298.5 705,-268.5 541,-268.5"/>
<text text-anchor="start" x="549" y="-286.5" font-family="Helvetica,sans-Serif" font-size="10.00">/github/workspace/src</text>
<text text-anchor="middle" x="623" y="-275.5" font-family="Helvetica,sans-Serif" font-size="10.00">/renderer/vulkan/commandbuffer.h</text>
</a>
</g>
</g>
<!-- Node4&#45;&gt;Node5 -->
<g id="edge4" class="edge">
<title>Node4&#45;&gt;Node5</title>
<path fill="none" stroke="midnightblue" d="M478.35,-332.23C510.22,-321.71 550.41,-308.45 580.34,-298.58"/>
<polygon fill="midnightblue" stroke="midnightblue" points="477.15,-328.94 468.75,-335.4 479.34,-335.59 477.15,-328.94"/>
</g>
<!-- Node17 -->
<g id="node17" class="node">
<title>Node17</title>
<g id="a_node17"><a xlink:href="descriptorset_8cpp.html" target="_top" xlink:title=" ">
<polygon fill="none" stroke="black" points="344,-268.5 344,-298.5 508,-298.5 508,-268.5 344,-268.5"/>
<text text-anchor="start" x="352" y="-286.5" font-family="Helvetica,sans-Serif" font-size="10.00">/github/workspace/src</text>
<text text-anchor="middle" x="426" y="-275.5" font-family="Helvetica,sans-Serif" font-size="10.00">/renderer/vulkan/descriptorset.cpp</text>
</a>
</g>
</g>
<!-- Node4&#45;&gt;Node17 -->
<g id="edge26" class="edge">
<title>Node4&#45;&gt;Node17</title>
<path fill="none" stroke="midnightblue" d="M426,-325.11C426,-316.15 426,-306.32 426,-298.58"/>
<polygon fill="midnightblue" stroke="midnightblue" points="422.5,-325.4 426,-335.4 429.5,-325.4 422.5,-325.4"/>
</g>
<!-- Node6 -->
<g id="node6" class="node">
<title>Node6</title>
<g id="a_node6"><a xlink:href="commandbuffer_8cpp.html" target="_top" xlink:title=" ">
<polygon fill="none" stroke="black" points="536,-201.5 536,-231.5 710,-231.5 710,-201.5 536,-201.5"/>
<text text-anchor="start" x="544" y="-219.5" font-family="Helvetica,sans-Serif" font-size="10.00">/github/workspace/src</text>
<text text-anchor="middle" x="623" y="-208.5" font-family="Helvetica,sans-Serif" font-size="10.00">/renderer/vulkan/commandbuffer.cpp</text>
</a>
</g>
</g>
<!-- Node5&#45;&gt;Node6 -->
<g id="edge5" class="edge">
<title>Node5&#45;&gt;Node6</title>
<path fill="none" stroke="midnightblue" d="M623,-258.11C623,-249.15 623,-239.32 623,-231.58"/>
<polygon fill="midnightblue" stroke="midnightblue" points="619.5,-258.4 623,-268.4 626.5,-258.4 619.5,-258.4"/>
</g>
<!-- Node7 -->
<g id="node7" class="node">
<title>Node7</title>
<g id="a_node7"><a xlink:href="swapchain_8h.html" target="_top" xlink:title=" ">
<polygon fill="none" stroke="black" points="374.5,-201.5 374.5,-231.5 517.5,-231.5 517.5,-201.5 374.5,-201.5"/>
<text text-anchor="start" x="382.5" y="-219.5" font-family="Helvetica,sans-Serif" font-size="10.00">/github/workspace/src</text>
<text text-anchor="middle" x="446" y="-208.5" font-family="Helvetica,sans-Serif" font-size="10.00">/renderer/vulkan/swapchain.h</text>
</a>
</g>
</g>
<!-- Node5&#45;&gt;Node7 -->
<g id="edge6" class="edge">
<title>Node5&#45;&gt;Node7</title>
<path fill="none" stroke="midnightblue" d="M574.85,-264.82C546.4,-254.37 510.87,-241.32 484.33,-231.58"/>
<polygon fill="midnightblue" stroke="midnightblue" points="574,-268.23 584.59,-268.4 576.41,-261.66 574,-268.23"/>
</g>
<!-- Node5&#45;&gt;Node10 -->
<g id="edge25" class="edge">
<title>Node5&#45;&gt;Node10</title>
<path fill="none" stroke="midnightblue" d="M691.68,-265.78C806.86,-234.64 1018.71,-162.17 937,-67 928.93,-57.6 784.4,-38.23 689.31,-26.4"/>
<polygon fill="midnightblue" stroke="midnightblue" points="690.62,-262.44 681.86,-268.4 692.43,-269.2 690.62,-262.44"/>
</g>
<!-- Node7&#45;&gt;Node8 -->
<g id="edge7" class="edge">
<title>Node7&#45;&gt;Node8</title>
<path fill="none" stroke="midnightblue" d="M391.58,-197.1C375.93,-189.15 360.16,-178.51 349,-165 332.61,-145.16 325.61,-115.19 325.5,-97.66"/>
<polygon fill="midnightblue" stroke="midnightblue" points="390.21,-200.33 400.74,-201.48 393.22,-194.01 390.21,-200.33"/>
</g>
<!-- Node7&#45;&gt;Node10 -->
<g id="edge23" class="edge">
<title>Node7&#45;&gt;Node10</title>
<path fill="none" stroke="midnightblue" d="M506.58,-197.3C522.83,-189.72 538.94,-179.25 550,-165 577.26,-129.88 552,-107.65 570,-67 575.9,-53.68 585.76,-40.47 593.82,-30.9"/>
<polygon fill="midnightblue" stroke="midnightblue" points="504.81,-194.25 497.03,-201.44 507.6,-200.68 504.81,-194.25"/>
</g>
<!-- Node11 -->
<g id="node11" class="node">
<title>Node11</title>
<g id="a_node11"><a xlink:href="graphicspipeline_8h.html" target="_top" xlink:title=" ">
<polygon fill="none" stroke="black" points="760.5,-67.5 760.5,-97.5 927.5,-97.5 927.5,-67.5 760.5,-67.5"/>
<text text-anchor="start" x="768.5" y="-85.5" font-family="Helvetica,sans-Serif" font-size="10.00">/github/workspace/src</text>
<text text-anchor="middle" x="844" y="-74.5" font-family="Helvetica,sans-Serif" font-size="10.00">/renderer/vulkan/graphicspipeline.h</text>
</a>
</g>
</g>
<!-- Node7&#45;&gt;Node11 -->
<g id="edge12" class="edge">
<title>Node7&#45;&gt;Node11</title>
<path fill="none" stroke="midnightblue" d="M527.57,-201C629,-185.52 663.31,-206.95 752,-165 785.95,-148.94 816.7,-116.44 832.61,-97.7"/>
<polygon fill="midnightblue" stroke="midnightblue" points="526.86,-197.57 517.54,-202.62 527.97,-204.48 526.86,-197.57"/>
</g>
<!-- Node13 -->
<g id="node13" class="node">
<title>Node13</title>
<g id="a_node13"><a xlink:href="renderpass_8h.html" target="_top" xlink:title=" ">
<polygon fill="none" stroke="black" points="597.5,-134.5 597.5,-164.5 742.5,-164.5 742.5,-134.5 597.5,-134.5"/>
<text text-anchor="start" x="605.5" y="-152.5" font-family="Helvetica,sans-Serif" font-size="10.00">/github/workspace/src</text>
<text text-anchor="middle" x="670" y="-141.5" font-family="Helvetica,sans-Serif" font-size="10.00">/renderer/vulkan/renderpass.h</text>
</a>
</g>
</g>
<!-- Node7&#45;&gt;Node13 -->
<g id="edge16" class="edge">
<title>Node7&#45;&gt;Node13</title>
<path fill="none" stroke="midnightblue" d="M504.31,-198.58C540.69,-188.02 586.97,-174.59 621.37,-164.61"/>
<polygon fill="midnightblue" stroke="midnightblue" points="502.96,-195.33 494.33,-201.48 504.91,-202.05 502.96,-195.33"/>
</g>
<!-- Node7&#45;&gt;Node15 -->
<g id="edge22" class="edge">
<title>Node7&#45;&gt;Node15</title>
<path fill="none" stroke="midnightblue" d="M386.61,-198.71C349.18,-188.14 301.4,-174.63 265.93,-164.61"/>
<polygon fill="midnightblue" stroke="midnightblue" points="385.8,-202.12 396.38,-201.48 387.71,-195.39 385.8,-202.12"/>
</g>
<!-- Node16 -->
<g id="node16" class="node">
<title>Node16</title>
<g id="a_node16"><a xlink:href="vulkan__voxel__rasterizer__2_8cpp.html" target="_top" xlink:title=" ">
<polygon fill="none" stroke="black" points="367,-134.5 367,-164.5 541,-164.5 541,-134.5 367,-134.5"/>
<text text-anchor="start" x="375" y="-152.5" font-family="Helvetica,sans-Serif" font-size="10.00">/github/workspace/src</text>
<text text-anchor="middle" x="454" y="-141.5" font-family="Helvetica,sans-Serif" font-size="10.00">/tests/vulkan_voxel_rasterizer_2.cpp</text>
</a>
</g>
</g>
<!-- Node7&#45;&gt;Node16 -->
<g id="edge24" class="edge">
<title>Node7&#45;&gt;Node16</title>
<path fill="none" stroke="midnightblue" d="M448.97,-191.4C450.08,-182.37 451.3,-172.41 452.27,-164.58"/>
<polygon fill="midnightblue" stroke="midnightblue" points="445.48,-191.04 447.74,-201.4 452.43,-191.9 445.48,-191.04"/>
</g>
<!-- Node8&#45;&gt;Node5 -->
<g id="edge8" class="edge">
<title>Node8&#45;&gt;Node5</title>
<path fill="none" stroke="midnightblue" d="M246.56,-89.68C177.05,-98.2 94.67,-118.24 130,-165 154.83,-197.86 407.1,-245.51 540.8,-268.74"/>
<polygon fill="midnightblue" stroke="midnightblue" points="247.18,-93.13 256.71,-88.5 246.38,-86.18 247.18,-93.13"/>
</g>
<!-- Node8&#45;&gt;Node7 -->
<g id="edge10" class="edge">
<title>Node8&#45;&gt;Node7</title>
<path fill="none" stroke="midnightblue" d="M341.08,-107.69C346.29,-125.19 353.43,-148.57 367,-165 380.35,-181.16 400.3,-193.21 416.93,-201.48"/>
<polygon fill="midnightblue" stroke="midnightblue" points="344.29,-106.21 338.04,-97.66 337.59,-108.24 344.29,-106.21"/>
</g>
<!-- Node9 -->
<g id="node9" class="node">
<title>Node9</title>
<g id="a_node9"><a xlink:href="framebuffer_8cpp.html" target="_top" xlink:title=" ">
<polygon fill="none" stroke="black" points="252,-0.5 252,-30.5 408,-30.5 408,-0.5 252,-0.5"/>
<text text-anchor="start" x="260" y="-18.5" font-family="Helvetica,sans-Serif" font-size="10.00">/github/workspace/src</text>
<text text-anchor="middle" x="330" y="-7.5" font-family="Helvetica,sans-Serif" font-size="10.00">/renderer/vulkan/framebuffer.cpp</text>
</a>
</g>
</g>
<!-- Node8&#45;&gt;Node9 -->
<g id="edge9" class="edge">
<title>Node8&#45;&gt;Node9</title>
<path fill="none" stroke="midnightblue" d="M330,-57.11C330,-48.15 330,-38.32 330,-30.58"/>
<polygon fill="midnightblue" stroke="midnightblue" points="326.5,-57.4 330,-67.4 333.5,-57.4 326.5,-57.4"/>
</g>
<!-- Node8&#45;&gt;Node10 -->
<g id="edge11" class="edge">
<title>Node8&#45;&gt;Node10</title>
<path fill="none" stroke="midnightblue" d="M399.52,-65.19C444.89,-54.54 503.51,-40.78 546.87,-30.61"/>
<polygon fill="midnightblue" stroke="midnightblue" points="398.7,-61.78 389.76,-67.48 400.3,-68.6 398.7,-61.78"/>
</g>
<!-- Node11&#45;&gt;Node5 -->
<g id="edge13" class="edge">
<title>Node11&#45;&gt;Node5</title>
<path fill="none" stroke="midnightblue" d="M832.2,-106.91C814.9,-139.11 779.79,-197.06 735,-232 714.65,-247.88 688.52,-260.03 666.61,-268.43"/>
<polygon fill="midnightblue" stroke="midnightblue" points="835.44,-108.27 836.99,-97.79 829.24,-105.02 835.44,-108.27"/>
</g>
<!-- Node11&#45;&gt;Node10 -->
<g id="edge15" class="edge">
<title>Node11&#45;&gt;Node10</title>
<path fill="none" stroke="midnightblue" d="M782.8,-64.71C744.23,-54.14 695,-40.63 658.45,-30.61"/>
<polygon fill="midnightblue" stroke="midnightblue" points="782.3,-68.21 792.87,-67.48 784.15,-61.46 782.3,-68.21"/>
</g>
<!-- Node12 -->
<g id="node12" class="node">
<title>Node12</title>
<g id="a_node12"><a xlink:href="graphicspipeline_8cpp.html" target="_top" xlink:title=" ">
<polygon fill="none" stroke="black" points="755.5,-0.5 755.5,-30.5 932.5,-30.5 932.5,-0.5 755.5,-0.5"/>
<text text-anchor="start" x="763.5" y="-18.5" font-family="Helvetica,sans-Serif" font-size="10.00">/github/workspace/src</text>
<text text-anchor="middle" x="844" y="-7.5" font-family="Helvetica,sans-Serif" font-size="10.00">/renderer/vulkan/graphicspipeline.cpp</text>
</a>
</g>
</g>
<!-- Node11&#45;&gt;Node12 -->
<g id="edge14" class="edge">
<title>Node11&#45;&gt;Node12</title>
<path fill="none" stroke="midnightblue" d="M844,-57.11C844,-48.15 844,-38.32 844,-30.58"/>
<polygon fill="midnightblue" stroke="midnightblue" points="840.5,-57.4 844,-67.4 847.5,-57.4 840.5,-57.4"/>
</g>
<!-- Node13&#45;&gt;Node5 -->
<g id="edge17" class="edge">
<title>Node13&#45;&gt;Node5</title>
<path fill="none" stroke="midnightblue" d="M696.69,-171.68C714.05,-188.14 731.36,-211.53 719,-232 708.68,-249.09 690.45,-260.68 672.62,-268.4"/>
<polygon fill="midnightblue" stroke="midnightblue" points="698.61,-168.7 688.82,-164.64 693.94,-173.92 698.61,-168.7"/>
</g>
<!-- Node13&#45;&gt;Node8 -->
<g id="edge18" class="edge">
<title>Node13&#45;&gt;Node8</title>
<path fill="none" stroke="midnightblue" d="M587.55,-132.74C531.3,-121.98 457.47,-107.87 403.29,-97.51"/>
<polygon fill="midnightblue" stroke="midnightblue" points="587,-136.2 597.48,-134.64 588.31,-129.32 587,-136.2"/>
</g>
<!-- Node13&#45;&gt;Node10 -->
<g id="edge21" class="edge">
<title>Node13&#45;&gt;Node10</title>
<path fill="none" stroke="midnightblue" d="M614.96,-129.86C600.77,-122.28 587.2,-111.92 579,-98 566.17,-76.21 582.48,-47.67 595.05,-30.79"/>
<polygon fill="midnightblue" stroke="midnightblue" points="613.81,-133.2 624.33,-134.46 616.89,-126.91 613.81,-133.2"/>
</g>
<!-- Node13&#45;&gt;Node11 -->
<g id="edge19" class="edge">
<title>Node13&#45;&gt;Node11</title>
<path fill="none" stroke="midnightblue" d="M717.33,-130.82C745.3,-120.37 780.23,-107.32 806.32,-97.58"/>
<polygon fill="midnightblue" stroke="midnightblue" points="715.9,-127.62 707.76,-134.4 718.35,-134.18 715.9,-127.62"/>
</g>
<!-- Node14 -->
<g id="node14" class="node">
<title>Node14</title>
<g id="a_node14"><a xlink:href="renderpass_8cpp.html" target="_top" xlink:title=" ">
<polygon fill="none" stroke="black" points="587.5,-67.5 587.5,-97.5 742.5,-97.5 742.5,-67.5 587.5,-67.5"/>
<text text-anchor="start" x="595.5" y="-85.5" font-family="Helvetica,sans-Serif" font-size="10.00">/github/workspace/src</text>
<text text-anchor="middle" x="665" y="-74.5" font-family="Helvetica,sans-Serif" font-size="10.00">/renderer/vulkan/renderpass.cpp</text>
</a>
</g>
</g>
<!-- Node13&#45;&gt;Node14 -->
<g id="edge20" class="edge">
<title>Node13&#45;&gt;Node14</title>
<path fill="none" stroke="midnightblue" d="M668.15,-124.4C667.45,-115.37 666.69,-105.41 666.08,-97.58"/>
<polygon fill="midnightblue" stroke="midnightblue" points="664.66,-124.69 668.92,-134.4 671.64,-124.16 664.66,-124.69"/>
</g>
</g>
</svg>
        <g id="navigator" transform="translate(0 0)" fill="#404254">
                <rect fill="#f2f5e9" fill-opacity="0.5" stroke="#606060" stroke-width=".5" x="0" y="0" width="60" height="60"/>
                <use id="zoomplus" xlink:href="#zoomPlus" x="17" y="9" onmousedown="handleZoom(evt,'in')"/>
                <use id="zoomminus" xlink:href="#zoomMin" x="42" y="9" onmousedown="handleZoom(evt,'out')"/>
                <use id="reset" xlink:href="#resetDef" x="30" y="36" onmousedown="handleReset()"/>
                <g id="arrowUp" xlink:href="#dirArrow" transform="translate(30 24)" onmousedown="handlePan(0,-1)">
                  <use xlink:href="#rim" fill="#404040">
                        <set attributeName="fill" to="#808080" begin="arrowUp.mouseover" end="arrowUp.mouseout"/>
                  </use>
                  <path fill="none" stroke="white" stroke-width="1.5" d="M0,-3.0v7 M-2.5,-0.5L0,-3.0L2.5,-0.5"/>
                </g>
                <g id="arrowRight" xlink:href="#dirArrow" transform="rotate(90) translate(36 -43)" onmousedown="handlePan(1,0)">
                  <use xlink:href="#rim" fill="#404040">
                        <set attributeName="fill" to="#808080" begin="arrowRight.mouseover" end="arrowRight.mouseout"/>
                  </use>
                  <path fill="none" stroke="white" stroke-width="1.5" d="M0,-3.0v7 M-2.5,-0.5L0,-3.0L2.5,-0.5"/>
                </g>
                <g id="arrowDown" xlink:href="#dirArrow" transform="rotate(180) translate(-30 -48)" onmousedown="handlePan(0,1)">
                  <use xlink:href="#rim" fill="#404040">
                        <set attributeName="fill" to="#808080" begin="arrowDown.mouseover" end="arrowDown.mouseout"/>
                  </use>
                  <path fill="none" stroke="white" stroke-width="1.5" d="M0,-3.0v7 M-2.5,-0.5L0,-3.0L2.5,-0.5"/>
                </g>
                <g id="arrowLeft" xlink:href="#dirArrow" transform="rotate(270) translate(-36 17)" onmousedown="handlePan(-1,0)">
                  <use xlink:href="#rim" fill="#404040">
                        <set attributeName="fill" to="#808080" begin="arrowLeft.mouseover" end="arrowLeft.mouseout"/>
                  </use>
                  <path fill="none" stroke="white" stroke-width="1.5" d="M0,-3.0v7 M-2.5,-0.5L0,-3.0L2.5,-0.5"/>
                </g>
        </g>
        <svg viewBox="0 0 15 15" width="100%" height="30px" preserveAspectRatio="xMaxYMin meet">
         <g id="arrow_out" transform="scale(0.3 0.3)">
          <a xlink:href="image_8h__dep__incl_org.svg" target="_base">
           <rect id="button" ry="5" rx="5" y="6" x="6" height="38" width="38"
                fill="#f2f5e9" fill-opacity="0.5" stroke="#606060" stroke-width="1.0"/>
           <path id="arrow"
             d="M 11.500037,31.436501 C 11.940474,20.09759 22.043105,11.32322 32.158766,21.979434 L 37.068811,17.246167 C 37.068811,17.246167 37.088388,32 37.088388,32 L 22.160133,31.978069 C 22.160133,31.978069 26.997745,27.140456 26.997745,27.140456 C 18.528582,18.264221 13.291696,25.230495 11.500037,31.436501 z"
             style="fill:#404040;"/>
          </a>
         </g>
        </svg>
</svg>
