<?xml version="1.0" encoding="UTF-8" standalone="no"?>
<!DOCTYPE svg PUBLIC "-//W3C//DTD SVG 1.1//EN"
 "http://www.w3.org/Graphics/SVG/1.1/DTD/svg11.dtd">
<!-- Generated by graphviz version 2.49.3 (20211215.1918)
 -->
<!-- Title: Graphical Class Hierarchy Pages: 1 -->
<svg width="506pt" height="446pt"
 viewBox="0.00 0.00 506.00 446.00" xmlns="http://www.w3.org/2000/svg" xmlns:xlink="http://www.w3.org/1999/xlink">
<g id="graph0" class="graph" transform="scale(1 1) rotate(0) translate(4 442)">
<title>Graphical Class Hierarchy</title>
<!-- Node0 -->
<g id="node1" class="node">
<title>Node0</title>
<g id="a_node1"><a xlink:href="class_shader.html" target="_top" xlink:title=" ">
<polygon fill="none" stroke="black" points="0,-285.5 0,-304.5 47,-304.5 47,-285.5 0,-285.5"/>
<text text-anchor="middle" x="23.5" y="-292.5" font-family="Helvetica,sans-Serif" font-size="10.00">Shader</text>
</a>
</g>
</g>
<!-- Node1 -->
<g id="node2" class="node">
<title>Node1</title>
<g id="a_node2"><a xlink:href="class_compute_shader.html" target="_top" xlink:title=" ">
<polygon fill="none" stroke="black" points="83,-389.5 83,-408.5 169,-408.5 169,-389.5 83,-389.5"/>
<text text-anchor="middle" x="126" y="-396.5" font-family="Helvetica,sans-Serif" font-size="10.00">ComputeShader</text>
</a>
</g>
</g>
<!-- Node0&#45;&gt;Node1 -->
<g id="edge1" class="edge">
<title>Node0&#45;&gt;Node1</title>
<path fill="none" stroke="midnightblue" d="M40.87,-311.94C62.19,-334 98.71,-371.8 115.75,-389.43"/>
<polygon fill="midnightblue" stroke="midnightblue" points="43.24,-309.36 33.77,-304.6 38.21,-314.22 43.24,-309.36"/>
</g>
<!-- Node3 -->
<g id="node4" class="node">
<title>Node3</title>
<g id="a_node4"><a xlink:href="class_graphics_shader.html" target="_top" xlink:title=" ">
<polygon fill="none" stroke="black" points="83,-247.5 83,-266.5 169,-266.5 169,-247.5 83,-247.5"/>
<text text-anchor="middle" x="126" y="-254.5" font-family="Helvetica,sans-Serif" font-size="10.00">GraphicsShader</text>
</a>
</g>
</g>
<!-- Node0&#45;&gt;Node3 -->
<g id="edge3" class="edge">
<title>Node0&#45;&gt;Node3</title>
<path fill="none" stroke="midnightblue" d="M56.73,-282.81C70.64,-277.56 86.66,-271.5 99.69,-266.57"/>
<polygon fill="midnightblue" stroke="midnightblue" points="55.17,-279.66 47.05,-286.47 57.65,-286.21 55.17,-279.66"/>
</g>
<!-- Node21 -->
<g id="node22" class="node">
<title>Node21</title>
<g id="a_node22"><a xlink:href="class_k_h_r_shader.html" target="_top" xlink:title=" ">
<polygon fill="none" stroke="black" points="242.5,-76.5 242.5,-95.5 310.5,-95.5 310.5,-76.5 242.5,-76.5"/>
<text text-anchor="middle" x="276.5" y="-83.5" font-family="Helvetica,sans-Serif" font-size="10.00">KHRShader</text>
</a>
</g>
</g>
<!-- Node0&#45;&gt;Node21 -->
<g id="edge21" class="edge">
<title>Node0&#45;&gt;Node21</title>
<path fill="none" stroke="midnightblue" d="M36.46,-276.85C62.43,-238.9 127.88,-150.93 205,-105 216.33,-98.25 230.09,-93.85 242.43,-91.01"/>
<polygon fill="midnightblue" stroke="midnightblue" points="33.41,-275.11 30.73,-285.36 39.22,-279.02 33.41,-275.11"/>
</g>
<!-- Node22 -->
<g id="node23" class="node">
<title>Node22</title>
<g id="a_node23"><a xlink:href="class_n_v_shader.html" target="_top" xlink:title=" ">
<polygon fill="none" stroke="black" points="245.5,-342.5 245.5,-361.5 307.5,-361.5 307.5,-342.5 245.5,-342.5"/>
<text text-anchor="middle" x="276.5" y="-349.5" font-family="Helvetica,sans-Serif" font-size="10.00">NVShader</text>
</a>
</g>
</g>
<!-- Node0&#45;&gt;Node22 -->
<g id="edge27" class="edge">
<title>Node0&#45;&gt;Node22</title>
<path fill="none" stroke="midnightblue" d="M56.97,-302.37C105.89,-313.48 197.82,-334.36 245.34,-345.15"/>
<polygon fill="midnightblue" stroke="midnightblue" points="57.74,-298.96 47.22,-300.16 56.19,-305.79 57.74,-298.96"/>
</g>
<!-- Node2 -->
<g id="node3" class="node">
<title>Node2</title>
<g id="a_node3"><a xlink:href="class_n_v_task_shader.html" target="_top" xlink:title=" ">
<polygon fill="none" stroke="black" points="399.5,-418.5 399.5,-437.5 482.5,-437.5 482.5,-418.5 399.5,-418.5"/>
<text text-anchor="middle" x="441" y="-425.5" font-family="Helvetica,sans-Serif" font-size="10.00">NVTaskShader</text>
</a>
</g>
</g>
<!-- Node1&#45;&gt;Node2 -->
<g id="edge2" class="edge">
<title>Node1&#45;&gt;Node2</title>
<path fill="none" stroke="midnightblue" d="M179.17,-403.83C241.12,-409.57 343.11,-419.02 399.45,-424.24"/>
<polygon fill="midnightblue" stroke="midnightblue" points="179.49,-400.35 169.21,-402.91 178.85,-407.32 179.49,-400.35"/>
</g>
<!-- Node4 -->
<g id="node5" class="node">
<title>Node4</title>
<g id="a_node5"><a xlink:href="class_fragment_shader.html" target="_top" xlink:title=" ">
<polygon fill="none" stroke="black" points="232,-190.5 232,-209.5 321,-209.5 321,-190.5 232,-190.5"/>
<text text-anchor="middle" x="276.5" y="-197.5" font-family="Helvetica,sans-Serif" font-size="10.00">FragmentShader</text>
</a>
</g>
</g>
<!-- Node3&#45;&gt;Node4 -->
<g id="edge4" class="edge">
<title>Node3&#45;&gt;Node4</title>
<path fill="none" stroke="midnightblue" d="M153.34,-242.61C168.2,-234.89 187.3,-225.63 205,-219 214.5,-215.44 224.94,-212.25 234.82,-209.55"/>
<polygon fill="midnightblue" stroke="midnightblue" points="151.44,-239.65 144.24,-247.42 154.71,-245.84 151.44,-239.65"/>
</g>
<!-- Node5 -->
<g id="node6" class="node">
<title>Node5</title>
<g id="a_node6"><a xlink:href="class_geometry_shader.html" target="_top" xlink:title=" ">
<polygon fill="none" stroke="black" points="232,-152.5 232,-171.5 321,-171.5 321,-152.5 232,-152.5"/>
<text text-anchor="middle" x="276.5" y="-159.5" font-family="Helvetica,sans-Serif" font-size="10.00">GeometryShader</text>
</a>
</g>
</g>
<!-- Node3&#45;&gt;Node5 -->
<g id="edge5" class="edge">
<title>Node3&#45;&gt;Node5</title>
<path fill="none" stroke="midnightblue" d="M140.57,-239.3C154.79,-221.95 178.7,-195.98 205,-181 213.26,-176.29 222.73,-172.71 232,-170.01"/>
<polygon fill="midnightblue" stroke="midnightblue" points="137.54,-237.48 134.05,-247.49 143.02,-241.84 137.54,-237.48"/>
</g>
<!-- Node6 -->
<g id="node7" class="node">
<title>Node6</title>
<g id="a_node7"><a xlink:href="class_n_v_mesh_shader.html" target="_top" xlink:title=" ">
<polygon fill="none" stroke="black" points="398,-380.5 398,-399.5 484,-399.5 484,-380.5 398,-380.5"/>
<text text-anchor="middle" x="441" y="-387.5" font-family="Helvetica,sans-Serif" font-size="10.00">NVMeshShader</text>
</a>
</g>
</g>
<!-- Node3&#45;&gt;Node6 -->
<g id="edge6" class="edge">
<title>Node3&#45;&gt;Node6</title>
<path fill="none" stroke="midnightblue" d="M133.97,-276.19C144.7,-302.66 168.01,-349.54 205,-371 264.83,-405.71 348.08,-402.87 397.76,-396.94"/>
<polygon fill="midnightblue" stroke="midnightblue" points="137.22,-274.9 130.35,-266.83 130.69,-277.42 137.22,-274.9"/>
</g>
<!-- Node7 -->
<g id="node8" class="node">
<title>Node7</title>
<g id="a_node8"><a xlink:href="class_raytracing_shader.html" target="_top" xlink:title=" ">
<polygon fill="none" stroke="black" points="230,-114.5 230,-133.5 323,-133.5 323,-114.5 230,-114.5"/>
<text text-anchor="middle" x="276.5" y="-121.5" font-family="Helvetica,sans-Serif" font-size="10.00">RaytracingShader</text>
</a>
</g>
</g>
<!-- Node3&#45;&gt;Node7 -->
<g id="edge7" class="edge">
<title>Node3&#45;&gt;Node7</title>
<path fill="none" stroke="midnightblue" d="M134.88,-238C146.44,-212.48 170.45,-167.51 205,-143 212.34,-137.79 221.03,-134.01 229.76,-131.27"/>
<polygon fill="midnightblue" stroke="midnightblue" points="131.59,-236.77 130.81,-247.34 138.01,-239.57 131.59,-236.77"/>
</g>
<!-- Node18 -->
<g id="node19" class="node">
<title>Node18</title>
<g id="a_node19"><a xlink:href="class_tesselation_control_shader.html" target="_top" xlink:title=" ">
<polygon fill="none" stroke="black" points="212.5,-304.5 212.5,-323.5 340.5,-323.5 340.5,-304.5 212.5,-304.5"/>
<text text-anchor="middle" x="276.5" y="-311.5" font-family="Helvetica,sans-Serif" font-size="10.00">TesselationControlShader</text>
</a>
</g>
</g>
<!-- Node3&#45;&gt;Node18 -->
<g id="edge18" class="edge">
<title>Node3&#45;&gt;Node18</title>
<path fill="none" stroke="midnightblue" d="M153.34,-271.39C168.2,-279.11 187.3,-288.37 205,-295 214.5,-298.56 224.94,-301.75 234.82,-304.45"/>
<polygon fill="midnightblue" stroke="midnightblue" points="154.71,-268.16 144.24,-266.58 151.44,-274.35 154.71,-268.16"/>
</g>
<!-- Node19 -->
<g id="node20" class="node">
<title>Node19</title>
<g id="a_node20"><a xlink:href="class_tesselation_evaluation_shader.html" target="_top" xlink:title=" ">
<polygon fill="none" stroke="black" points="205,-266.5 205,-285.5 348,-285.5 348,-266.5 205,-266.5"/>
<text text-anchor="middle" x="276.5" y="-273.5" font-family="Helvetica,sans-Serif" font-size="10.00">TesselationEvaluationShader</text>
</a>
</g>
</g>
<!-- Node3&#45;&gt;Node19 -->
<g id="edge19" class="edge">
<title>Node3&#45;&gt;Node19</title>
<path fill="none" stroke="midnightblue" d="M179.09,-263.66C187.43,-264.73 196.18,-265.85 204.86,-266.96"/>
<polygon fill="midnightblue" stroke="midnightblue" points="179.52,-260.19 169.16,-262.39 178.63,-267.13 179.52,-260.19"/>
</g>
<!-- Node20 -->
<g id="node21" class="node">
<title>Node20</title>
<g id="a_node21"><a xlink:href="class_vertex_shader.html" target="_top" xlink:title=" ">
<polygon fill="none" stroke="black" points="239,-228.5 239,-247.5 314,-247.5 314,-228.5 239,-228.5"/>
<text text-anchor="middle" x="276.5" y="-235.5" font-family="Helvetica,sans-Serif" font-size="10.00">VertexShader</text>
</a>
</g>
</g>
<!-- Node3&#45;&gt;Node20 -->
<g id="edge20" class="edge">
<title>Node3&#45;&gt;Node20</title>
<path fill="none" stroke="midnightblue" d="M179.21,-250.32C198.88,-247.8 220.83,-245 238.79,-242.7"/>
<polygon fill="midnightblue" stroke="midnightblue" points="178.63,-246.87 169.16,-251.61 179.52,-253.81 178.63,-246.87"/>
</g>
<!-- Node8 -->
<g id="node9" class="node">
<title>Node8</title>
<g id="a_node9"><a xlink:href="class_k_h_r_any_hit_shader.html" target="_top" xlink:title=" ">
<polygon fill="none" stroke="black" points="392,-152.5 392,-171.5 490,-171.5 490,-152.5 392,-152.5"/>
<text text-anchor="middle" x="441" y="-159.5" font-family="Helvetica,sans-Serif" font-size="10.00">KHRAnyHitShader</text>
</a>
</g>
</g>
<!-- Node7&#45;&gt;Node8 -->
<g id="edge8" class="edge">
<title>Node7&#45;&gt;Node8</title>
<path fill="none" stroke="midnightblue" d="M328.37,-135.9C351.21,-141.24 377.8,-147.45 399.29,-152.48"/>
<polygon fill="midnightblue" stroke="midnightblue" points="329.04,-132.46 318.51,-133.59 327.45,-139.27 329.04,-132.46"/>
</g>
<!-- Node9 -->
<g id="node10" class="node">
<title>Node9</title>
<g id="a_node10"><a xlink:href="class_k_h_r_callable_shader.html" target="_top" xlink:title=" ">
<polygon fill="none" stroke="black" points="389.5,-114.5 389.5,-133.5 492.5,-133.5 492.5,-114.5 389.5,-114.5"/>
<text text-anchor="middle" x="441" y="-121.5" font-family="Helvetica,sans-Serif" font-size="10.00">KHRCallableShader</text>
</a>
</g>
</g>
<!-- Node7&#45;&gt;Node9 -->
<g id="edge9" class="edge">
<title>Node7&#45;&gt;Node9</title>
<path fill="none" stroke="midnightblue" d="M333.34,-124C351.47,-124 371.48,-124 389.22,-124"/>
<polygon fill="midnightblue" stroke="midnightblue" points="333.2,-120.5 323.2,-124 333.2,-127.5 333.2,-120.5"/>
</g>
<!-- Node10 -->
<g id="node11" class="node">
<title>Node10</title>
<g id="a_node11"><a xlink:href="class_k_h_r_closest_hit_shader.html" target="_top" xlink:title=" ">
<polygon fill="none" stroke="black" points="384,-76.5 384,-95.5 498,-95.5 498,-76.5 384,-76.5"/>
<text text-anchor="middle" x="441" y="-83.5" font-family="Helvetica,sans-Serif" font-size="10.00">KHRClosestHitShader</text>
</a>
</g>
</g>
<!-- Node7&#45;&gt;Node10 -->
<g id="edge10" class="edge">
<title>Node7&#45;&gt;Node10</title>
<path fill="none" stroke="midnightblue" d="M328.37,-112.1C351.21,-106.76 377.8,-100.55 399.29,-95.52"/>
<polygon fill="midnightblue" stroke="midnightblue" points="327.45,-108.73 318.51,-114.41 329.04,-115.54 327.45,-108.73"/>
</g>
<!-- Node11 -->
<g id="node12" class="node">
<title>Node11</title>
<g id="a_node12"><a xlink:href="class_k_h_r_miss_shader.html" target="_top" xlink:title=" ">
<polygon fill="none" stroke="black" points="396.5,-38.5 396.5,-57.5 485.5,-57.5 485.5,-38.5 396.5,-38.5"/>
<text text-anchor="middle" x="441" y="-45.5" font-family="Helvetica,sans-Serif" font-size="10.00">KHRMissShader</text>
</a>
</g>
</g>
<!-- Node7&#45;&gt;Node11 -->
<g id="edge11" class="edge">
<title>Node7&#45;&gt;Node11</title>
<path fill="none" stroke="midnightblue" d="M332.7,-112.33C338.04,-110.27 343.24,-107.84 348,-105 367.98,-93.08 364.41,-79.55 384,-67 389.88,-63.23 396.59,-60.13 403.27,-57.6"/>
<polygon fill="midnightblue" stroke="midnightblue" points="331.31,-109.11 323,-115.68 333.6,-115.73 331.31,-109.11"/>
</g>
<!-- Node12 -->
<g id="node13" class="node">
<title>Node12</title>
<g id="a_node13"><a xlink:href="class_k_h_r_raygen_shader.html" target="_top" xlink:title=" ">
<polygon fill="none" stroke="black" points="390.5,-0.5 390.5,-19.5 491.5,-19.5 491.5,-0.5 390.5,-0.5"/>
<text text-anchor="middle" x="441" y="-7.5" font-family="Helvetica,sans-Serif" font-size="10.00">KHRRaygenShader</text>
</a>
</g>
</g>
<!-- Node7&#45;&gt;Node12 -->
<g id="edge12" class="edge">
<title>Node7&#45;&gt;Node12</title>
<path fill="none" stroke="midnightblue" d="M332.68,-114.29C338.21,-111.85 343.45,-108.8 348,-105 376.69,-81.04 356.09,-53.86 384,-29 388.37,-25.11 393.57,-22.01 399.01,-19.54"/>
<polygon fill="midnightblue" stroke="midnightblue" points="331.32,-111.06 323.18,-117.85 333.78,-117.61 331.32,-111.06"/>
</g>
<!-- Node13 -->
<g id="node14" class="node">
<title>Node13</title>
<g id="a_node14"><a xlink:href="class_n_v_any_hit_shader.html" target="_top" xlink:title=" ">
<polygon fill="none" stroke="black" points="395.5,-342.5 395.5,-361.5 486.5,-361.5 486.5,-342.5 395.5,-342.5"/>
<text text-anchor="middle" x="441" y="-349.5" font-family="Helvetica,sans-Serif" font-size="10.00">NVAnyHitShader</text>
</a>
</g>
</g>
<!-- Node7&#45;&gt;Node13 -->
<g id="edge13" class="edge">
<title>Node7&#45;&gt;Node13</title>
<path fill="none" stroke="midnightblue" d="M333.07,-132.29C338.66,-134.98 343.8,-138.47 348,-143 406.42,-206.04 327.62,-268.13 384,-333 387.37,-336.87 391.56,-339.96 396.12,-342.42"/>
<polygon fill="midnightblue" stroke="midnightblue" points="333.92,-128.87 323.34,-128.49 331.38,-135.39 333.92,-128.87"/>
</g>
<!-- Node14 -->
<g id="node15" class="node">
<title>Node14</title>
<g id="a_node15"><a xlink:href="class_n_v_callable_shader.html" target="_top" xlink:title=" ">
<polygon fill="none" stroke="black" points="393,-304.5 393,-323.5 489,-323.5 489,-304.5 393,-304.5"/>
<text text-anchor="middle" x="441" y="-311.5" font-family="Helvetica,sans-Serif" font-size="10.00">NVCallableShader</text>
</a>
</g>
</g>
<!-- Node7&#45;&gt;Node14 -->
<g id="edge14" class="edge">
<title>Node7&#45;&gt;Node14</title>
<path fill="none" stroke="midnightblue" d="M332.45,-132.29C338.24,-134.97 343.6,-138.46 348,-143 396.33,-192.84 337.28,-243.64 384,-295 387.52,-298.87 391.87,-301.96 396.56,-304.41"/>
<polygon fill="midnightblue" stroke="midnightblue" points="333.69,-129.02 323.1,-128.71 331.19,-135.55 333.69,-129.02"/>
</g>
<!-- Node15 -->
<g id="node16" class="node">
<title>Node15</title>
<g id="a_node16"><a xlink:href="class_n_v_closest_hit_shader.html" target="_top" xlink:title=" ">
<polygon fill="none" stroke="black" points="387.5,-266.5 387.5,-285.5 494.5,-285.5 494.5,-266.5 387.5,-266.5"/>
<text text-anchor="middle" x="441" y="-273.5" font-family="Helvetica,sans-Serif" font-size="10.00">NVClosestHitShader</text>
</a>
</g>
</g>
<!-- Node7&#45;&gt;Node15 -->
<g id="edge15" class="edge">
<title>Node7&#45;&gt;Node15</title>
<path fill="none" stroke="midnightblue" d="M332.78,-132.9C338.37,-135.48 343.6,-138.79 348,-143 386.36,-179.76 346.83,-219.03 384,-257 387.81,-260.89 392.44,-263.98 397.39,-266.44"/>
<polygon fill="midnightblue" stroke="midnightblue" points="333.69,-129.5 323.1,-129.2 331.19,-136.04 333.69,-129.5"/>
</g>
<!-- Node16 -->
<g id="node17" class="node">
<title>Node16</title>
<g id="a_node17"><a xlink:href="class_n_v_miss_shader.html" target="_top" xlink:title=" ">
<polygon fill="none" stroke="black" points="399.5,-228.5 399.5,-247.5 482.5,-247.5 482.5,-228.5 399.5,-228.5"/>
<text text-anchor="middle" x="441" y="-235.5" font-family="Helvetica,sans-Serif" font-size="10.00">NVMissShader</text>
</a>
</g>
</g>
<!-- Node7&#45;&gt;Node16 -->
<g id="edge16" class="edge">
<title>Node7&#45;&gt;Node16</title>
<path fill="none" stroke="midnightblue" d="M332.68,-133.71C338.21,-136.15 343.45,-139.2 348,-143 376.69,-166.96 356.09,-194.14 384,-219 388.45,-222.96 393.75,-226.1 399.3,-228.59"/>
<polygon fill="midnightblue" stroke="midnightblue" points="333.78,-130.39 323.18,-130.15 331.32,-136.94 333.78,-130.39"/>
</g>
<!-- Node17 -->
<g id="node18" class="node">
<title>Node17</title>
<g id="a_node18"><a xlink:href="class_n_v_raygen_shader.html" target="_top" xlink:title=" ">
<polygon fill="none" stroke="black" points="394,-190.5 394,-209.5 488,-209.5 488,-190.5 394,-190.5"/>
<text text-anchor="middle" x="441" y="-197.5" font-family="Helvetica,sans-Serif" font-size="10.00">NVRaygenShader</text>
</a>
</g>
</g>
<!-- Node7&#45;&gt;Node17 -->
<g id="edge17" class="edge">
<title>Node7&#45;&gt;Node17</title>
<path fill="none" stroke="midnightblue" d="M332.7,-135.67C338.04,-137.73 343.24,-140.16 348,-143 367.98,-154.92 364.41,-168.45 384,-181 389.88,-184.77 396.59,-187.87 403.27,-190.4"/>
<polygon fill="midnightblue" stroke="midnightblue" points="333.6,-132.27 323,-132.32 331.31,-138.89 333.6,-132.27"/>
</g>
<!-- Node21&#45;&gt;Node8 -->
<g id="edge22" class="edge">
<title>Node21&#45;&gt;Node8</title>
<path fill="none" stroke="midnightblue" d="M320.34,-93.52C329.85,-96.27 339.6,-99.99 348,-105 367.98,-116.92 364.41,-130.45 384,-143 389.88,-146.77 396.59,-149.87 403.27,-152.4"/>
<polygon fill="midnightblue" stroke="midnightblue" points="321.13,-90.11 310.57,-91 319.38,-96.89 321.13,-90.11"/>
</g>
<!-- Node21&#45;&gt;Node9 -->
<g id="edge23" class="edge">
<title>Node21&#45;&gt;Node9</title>
<path fill="none" stroke="midnightblue" d="M320.82,-96.13C345.16,-101.82 375.37,-108.89 399.28,-114.48"/>
<polygon fill="midnightblue" stroke="midnightblue" points="321.31,-92.65 310.78,-93.78 319.72,-99.47 321.31,-92.65"/>
</g>
<!-- Node21&#45;&gt;Node10 -->
<g id="edge24" class="edge">
<title>Node21&#45;&gt;Node10</title>
<path fill="none" stroke="midnightblue" d="M320.8,-86C340.11,-86 363.1,-86 383.73,-86"/>
<polygon fill="midnightblue" stroke="midnightblue" points="320.78,-82.5 310.78,-86 320.78,-89.5 320.78,-82.5"/>
</g>
<!-- Node21&#45;&gt;Node11 -->
<g id="edge25" class="edge">
<title>Node21&#45;&gt;Node11</title>
<path fill="none" stroke="midnightblue" d="M320.82,-75.87C345.16,-70.18 375.37,-63.11 399.28,-57.52"/>
<polygon fill="midnightblue" stroke="midnightblue" points="319.72,-72.53 310.78,-78.22 321.31,-79.35 319.72,-72.53"/>
</g>
<!-- Node21&#45;&gt;Node12 -->
<g id="edge26" class="edge">
<title>Node21&#45;&gt;Node12</title>
<path fill="none" stroke="midnightblue" d="M302.02,-71.39C323.24,-59.1 355.01,-41.58 384,-29 391.91,-25.57 400.66,-22.34 408.85,-19.56"/>
<polygon fill="midnightblue" stroke="midnightblue" points="300.2,-68.39 293.33,-76.46 303.73,-74.44 300.2,-68.39"/>
</g>
<!-- Node22&#45;&gt;Node2 -->
<g id="edge34" class="edge">
<title>Node22&#45;&gt;Node2</title>
<path fill="none" stroke="midnightblue" d="M302.02,-366.61C323.24,-378.9 355.01,-396.42 384,-409 391.91,-412.43 400.66,-415.66 408.85,-418.44"/>
<polygon fill="midnightblue" stroke="midnightblue" points="303.73,-363.56 293.33,-361.54 300.2,-369.61 303.73,-363.56"/>
</g>
<!-- Node22&#45;&gt;Node6 -->
<g id="edge31" class="edge">
<title>Node22&#45;&gt;Node6</title>
<path fill="none" stroke="midnightblue" d="M317.53,-361.36C342.39,-367.17 374.26,-374.63 399.25,-380.47"/>
<polygon fill="midnightblue" stroke="midnightblue" points="318.22,-357.93 307.68,-359.06 316.62,-364.74 318.22,-357.93"/>
</g>
<!-- Node22&#45;&gt;Node13 -->
<g id="edge28" class="edge">
<title>Node22&#45;&gt;Node13</title>
<path fill="none" stroke="midnightblue" d="M318,-352C341.48,-352 371.08,-352 395.25,-352"/>
<polygon fill="midnightblue" stroke="midnightblue" points="317.68,-348.5 307.68,-352 317.68,-355.5 317.68,-348.5"/>
</g>
<!-- Node22&#45;&gt;Node14 -->
<g id="edge29" class="edge">
<title>Node22&#45;&gt;Node14</title>
<path fill="none" stroke="midnightblue" d="M317.53,-342.64C342.39,-336.83 374.26,-329.37 399.25,-323.53"/>
<polygon fill="midnightblue" stroke="midnightblue" points="316.62,-339.26 307.68,-344.94 318.22,-346.07 316.62,-339.26"/>
</g>
<!-- Node22&#45;&gt;Node15 -->
<g id="edge30" class="edge">
<title>Node22&#45;&gt;Node15</title>
<path fill="none" stroke="midnightblue" d="M317.5,-345.27C327.9,-342.46 338.76,-338.51 348,-333 367.98,-321.08 364.41,-307.55 384,-295 389.88,-291.23 396.59,-288.13 403.27,-285.6"/>
<polygon fill="midnightblue" stroke="midnightblue" points="316.65,-341.88 307.75,-347.63 318.29,-348.68 316.65,-341.88"/>
</g>
<!-- Node22&#45;&gt;Node16 -->
<g id="edge32" class="edge">
<title>Node22&#45;&gt;Node16</title>
<path fill="none" stroke="midnightblue" d="M317.38,-347.51C328.23,-344.71 339.36,-340.22 348,-333 376.69,-309.04 356.09,-281.86 384,-257 388.45,-253.04 393.75,-249.9 399.3,-247.41"/>
<polygon fill="midnightblue" stroke="midnightblue" points="316.6,-344.09 307.57,-349.63 318.08,-350.94 316.6,-344.09"/>
</g>
<!-- Node22&#45;&gt;Node17 -->
<g id="edge33" class="edge">
<title>Node22&#45;&gt;Node17</title>
<path fill="none" stroke="midnightblue" d="M317.75,-348.31C328.71,-345.54 339.8,-340.86 348,-333 386.36,-296.24 346.83,-256.97 384,-219 387.81,-215.11 392.44,-212.02 397.39,-209.56"/>
<polygon fill="midnightblue" stroke="midnightblue" points="316.9,-344.91 307.81,-350.35 318.31,-351.77 316.9,-344.91"/>
</g>
</g>
</svg>
