<?xml version="1.0" encoding="UTF-8" standalone="no"?>
<!DOCTYPE svg PUBLIC "-//W3C//DTD SVG 1.1//EN"
 "http://www.w3.org/Graphics/SVG/1.1/DTD/svg11.dtd">
<!-- Generated by graphviz version 2.50.0 (20220203.2022)
 -->
<!-- Title: Graphical Class Hierarchy Pages: 1 -->
<svg width="269pt" height="256pt"
 viewBox="0.00 0.00 269.00 256.00" xmlns="http://www.w3.org/2000/svg" xmlns:xlink="http://www.w3.org/1999/xlink">
<g id="graph0" class="graph" transform="scale(1 1) rotate(0) translate(4 252)">
<title>Graphical Class Hierarchy</title>
<!-- Node0 -->
<g id="node1" class="node">
<title>Node0</title>
<g id="a_node1"><a xlink:href="struct_render_event.html" target="_top" xlink:title=" ">
<polygon fill="none" stroke="black" points="0,-114.5 0,-133.5 72,-133.5 72,-114.5 0,-114.5"/>
<text text-anchor="middle" x="36" y="-121.5" font-family="Helvetica,sans-Serif" font-size="10.00">RenderEvent</text>
</a>
</g>
</g>
<!-- Node1 -->
<g id="node2" class="node">
<title>Node1</title>
<g id="a_node2"><a xlink:href="struct_post_render_present_image_event.html" target="_top" xlink:title=" ">
<polygon fill="none" stroke="black" points="108,-228.5 108,-247.5 261,-247.5 261,-228.5 108,-228.5"/>
<text text-anchor="middle" x="184.5" y="-235.5" font-family="Helvetica,sans-Serif" font-size="10.00">PostRenderPresentImageEvent</text>
</a>
</g>
</g>
<!-- Node0&#45;&gt;Node1 -->
<g id="edge1" class="edge">
<title>Node0&#45;&gt;Node1</title>
<path fill="none" stroke="midnightblue" d="M45.95,-142.69C57.32,-164.4 79.01,-199.68 108,-219 113.85,-222.9 120.44,-226 127.22,-228.46"/>
<polygon fill="midnightblue" stroke="midnightblue" points="48.96,-140.88 41.34,-133.52 42.71,-144.03 48.96,-140.88"/>
</g>
<!-- Node2 -->
<g id="node3" class="node">
<title>Node2</title>
<g id="a_node3"><a xlink:href="struct_post_render_recreate_event.html" target="_top" xlink:title=" ">
<polygon fill="none" stroke="black" points="119,-190.5 119,-209.5 250,-209.5 250,-190.5 119,-190.5"/>
<text text-anchor="middle" x="184.5" y="-197.5" font-family="Helvetica,sans-Serif" font-size="10.00">PostRenderRecreateEvent</text>
</a>
</g>
</g>
<!-- Node0&#45;&gt;Node2 -->
<g id="edge2" class="edge">
<title>Node0&#45;&gt;Node2</title>
<path fill="none" stroke="midnightblue" d="M53.68,-140.9C67.22,-153.69 87.37,-170.74 108,-181 115.75,-184.85 124.34,-187.97 132.87,-190.47"/>
<polygon fill="midnightblue" stroke="midnightblue" points="55.78,-138.05 46.17,-133.59 50.9,-143.07 55.78,-138.05"/>
</g>
<!-- Node3 -->
<g id="node4" class="node">
<title>Node3</title>
<g id="a_node4"><a xlink:href="struct_post_render_submit_queue_event.html" target="_top" xlink:title=" ">
<polygon fill="none" stroke="black" points="108.5,-152.5 108.5,-171.5 260.5,-171.5 260.5,-152.5 108.5,-152.5"/>
<text text-anchor="middle" x="184.5" y="-159.5" font-family="Helvetica,sans-Serif" font-size="10.00">PostRenderSubmitQueueEvent</text>
</a>
</g>
</g>
<!-- Node0&#45;&gt;Node3 -->
<g id="edge3" class="edge">
<title>Node0&#45;&gt;Node3</title>
<path fill="none" stroke="midnightblue" d="M81.94,-136.13C90.58,-138.44 99.57,-140.81 108,-143 120.04,-146.12 133.17,-149.46 145.06,-152.45"/>
<polygon fill="midnightblue" stroke="midnightblue" points="82.57,-132.68 72,-133.48 80.76,-139.44 82.57,-132.68"/>
</g>
<!-- Node4 -->
<g id="node5" class="node">
<title>Node4</title>
<g id="a_node5"><a xlink:href="struct_pre_render_acquire_frame_event.html" target="_top" xlink:title=" ">
<polygon fill="none" stroke="black" points="110.5,-114.5 110.5,-133.5 258.5,-133.5 258.5,-114.5 110.5,-114.5"/>
<text text-anchor="middle" x="184.5" y="-121.5" font-family="Helvetica,sans-Serif" font-size="10.00">PreRenderAcquireFrameEvent</text>
</a>
</g>
</g>
<!-- Node0&#45;&gt;Node4 -->
<g id="edge4" class="edge">
<title>Node0&#45;&gt;Node4</title>
<path fill="none" stroke="midnightblue" d="M82.26,-124C91.21,-124 100.81,-124 110.42,-124"/>
<polygon fill="midnightblue" stroke="midnightblue" points="82.09,-120.5 72.09,-124 82.09,-127.5 82.09,-120.5"/>
</g>
<!-- Node5 -->
<g id="node6" class="node">
<title>Node5</title>
<g id="a_node6"><a xlink:href="struct_pre_render_resize_event.html" target="_top" xlink:title=" ">
<polygon fill="none" stroke="black" points="126.5,-76.5 126.5,-95.5 242.5,-95.5 242.5,-76.5 126.5,-76.5"/>
<text text-anchor="middle" x="184.5" y="-83.5" font-family="Helvetica,sans-Serif" font-size="10.00">PreRenderResizeEvent</text>
</a>
</g>
</g>
<!-- Node0&#45;&gt;Node5 -->
<g id="edge5" class="edge">
<title>Node0&#45;&gt;Node5</title>
<path fill="none" stroke="midnightblue" d="M81.94,-111.87C90.58,-109.56 99.57,-107.19 108,-105 120.04,-101.88 133.17,-98.54 145.06,-95.55"/>
<polygon fill="midnightblue" stroke="midnightblue" points="80.76,-108.56 72,-114.52 82.57,-115.32 80.76,-108.56"/>
</g>
<!-- Node6 -->
<g id="node7" class="node">
<title>Node6</title>
<g id="a_node7"><a xlink:href="struct_pre_render_update_buffers_event.html" target="_top" xlink:title=" ">
<polygon fill="none" stroke="black" points="110,-38.5 110,-57.5 259,-57.5 259,-38.5 110,-38.5"/>
<text text-anchor="middle" x="184.5" y="-45.5" font-family="Helvetica,sans-Serif" font-size="10.00">PreRenderUpdateBuffersEvent</text>
</a>
</g>
</g>
<!-- Node0&#45;&gt;Node6 -->
<g id="edge6" class="edge">
<title>Node0&#45;&gt;Node6</title>
<path fill="none" stroke="midnightblue" d="M53.68,-107.1C67.22,-94.31 87.37,-77.26 108,-67 115.75,-63.15 124.34,-60.03 132.87,-57.53"/>
<polygon fill="midnightblue" stroke="midnightblue" points="50.9,-104.93 46.17,-114.41 55.78,-109.95 50.9,-104.93"/>
</g>
<!-- Node7 -->
<g id="node8" class="node">
<title>Node7</title>
<g id="a_node8"><a xlink:href="struct_render_submit_queue_event.html" target="_top" xlink:title=" ">
<polygon fill="none" stroke="black" points="119,-0.5 119,-19.5 250,-19.5 250,-0.5 119,-0.5"/>
<text text-anchor="middle" x="184.5" y="-7.5" font-family="Helvetica,sans-Serif" font-size="10.00">RenderSubmitQueueEvent</text>
</a>
</g>
</g>
<!-- Node0&#45;&gt;Node7 -->
<g id="edge7" class="edge">
<title>Node0&#45;&gt;Node7</title>
<path fill="none" stroke="midnightblue" d="M45.95,-105.31C57.32,-83.6 79.01,-48.32 108,-29 113.85,-25.1 120.44,-22 127.22,-19.54"/>
<polygon fill="midnightblue" stroke="midnightblue" points="42.71,-103.97 41.34,-114.48 48.96,-107.12 42.71,-103.97"/>
</g>
</g>
</svg>
