<?xml version="1.0" encoding="UTF-8" standalone="no"?>
<!DOCTYPE svg PUBLIC "-//W3C//DTD SVG 1.1//EN"
 "http://www.w3.org/Graphics/SVG/1.1/DTD/svg11.dtd">
<!-- Generated by graphviz version 3.0.0 (20220413.0106)
 -->
<!-- Title: /github/workspace/src/renderer/mastermaterial.h Pages: 1 -->
<!--zoomable 575 -->
<svg id="main" version="1.1" xmlns="http://www.w3.org/2000/svg" xmlns:xlink="http://www.w3.org/1999/xlink" xml:space="preserve" onload="init(evt)">
<style type="text/css"><![CDATA[
.edge:hover path { stroke: red; }
.edge:hover polygon { stroke: red; fill: red; }
]]></style>
<script type="text/javascript"><![CDATA[
var edges = document.getElementsByTagName('g');
if (edges && edges.length) {
  for (var i=0;i<edges.length;i++) {
    if (edges[i].id.substr(0,4)=='edge') {
      edges[i].setAttribute('class','edge');
    }
  }
}
]]></script>
        <defs>
                <circle id="rim" cx="0" cy="0" r="7"/>
                <circle id="rim2" cx="0" cy="0" r="3.5"/>
                <g id="zoomPlus">
                        <use xlink:href="#rim" fill="#404040">
                                <set attributeName="fill" to="#808080" begin="zoomplus.mouseover" end="zoomplus.mouseout"/>
                        </use>
                        <path d="M-4,0h8M0,-4v8" fill="none" stroke="white" stroke-width="1.5" pointer-events="none"/>
                </g>
                <g id="zoomMin">
                        <use xlink:href="#rim" fill="#404040">
                                <set attributeName="fill" to="#808080" begin="zoomminus.mouseover" end="zoomminus.mouseout"/>
                        </use>
                        <path d="M-4,0h8" fill="none" stroke="white" stroke-width="1.5" pointer-events="none"/>
                </g>
                <g id="dirArrow">
                        <path fill="none" stroke="white" stroke-width="1.5" d="M0,-3.0v7 M-2.5,-0.5L0,-3.0L2.5,-0.5"/>
                </g>
               <g id="resetDef">
                       <use xlink:href="#rim2" fill="#404040">
                               <set attributeName="fill" to="#808080" begin="reset.mouseover" end="reset.mouseout"/>
                       </use>
               </g>
        </defs>

<script type="text/javascript">
var viewWidth = 1464;
var viewHeight = 575;
var sectionId = 'dynsection-1';
</script>
<script xlink:href="svgpan.js"/>
<svg id="graph" class="graph">
<g id="viewport">
<title>/github/workspace/src/renderer/mastermaterial.h</title>
<!-- Node1 -->
<g id="node1" class="node">
<title>Node1</title>
<g id="a_node1"><a xlink:title=" ">
<polygon fill="#bfbfbf" stroke="black" points="421,-536.5 421,-566.5 551,-566.5 551,-536.5 421,-536.5"/>
<text text-anchor="start" x="429" y="-554.5" font-family="Helvetica,sans-Serif" font-size="10.00">/github/workspace/src</text>
<text text-anchor="middle" x="486" y="-543.5" font-family="Helvetica,sans-Serif" font-size="10.00">/renderer/mastermaterial.h</text>
</a>
</g>
</g>
<!-- Node2 -->
<g id="node2" class="node">
<title>Node2</title>
<g id="a_node2"><a xlink:href="mastermaterial_8cpp.html" target="_top" xlink:title=" ">
<polygon fill="none" stroke="black" points="233,-469.5 233,-499.5 373,-499.5 373,-469.5 233,-469.5"/>
<text text-anchor="start" x="241" y="-487.5" font-family="Helvetica,sans-Serif" font-size="10.00">/github/workspace/src</text>
<text text-anchor="middle" x="303" y="-476.5" font-family="Helvetica,sans-Serif" font-size="10.00">/renderer/mastermaterial.cpp</text>
</a>
</g>
</g>
<!-- Node1&#45;&gt;Node2 -->
<g id="edge1" class="edge">
<title>Node1&#45;&gt;Node2</title>
<path fill="none" stroke="midnightblue" d="M436.6,-532.96C407.13,-522.48 370.19,-509.37 342.63,-499.58"/>
<polygon fill="midnightblue" stroke="midnightblue" points="435.7,-536.35 446.29,-536.4 438.04,-529.75 435.7,-536.35"/>
</g>
<!-- Node3 -->
<g id="node3" class="node">
<title>Node3</title>
<g id="a_node3"><a xlink:href="material_8h.html" target="_top" xlink:title=" ">
<polygon fill="none" stroke="black" points="429.5,-469.5 429.5,-499.5 542.5,-499.5 542.5,-469.5 429.5,-469.5"/>
<text text-anchor="start" x="437.5" y="-487.5" font-family="Helvetica,sans-Serif" font-size="10.00">/github/workspace/src</text>
<text text-anchor="middle" x="486" y="-476.5" font-family="Helvetica,sans-Serif" font-size="10.00">/renderer/material.h</text>
</a>
</g>
</g>
<!-- Node1&#45;&gt;Node3 -->
<g id="edge2" class="edge">
<title>Node1&#45;&gt;Node3</title>
<path fill="none" stroke="midnightblue" d="M479.45,-526.4C479.01,-517.37 479.3,-507.41 480.33,-499.58"/>
<polygon fill="midnightblue" stroke="midnightblue" points="475.97,-526.74 480.32,-536.4 482.94,-526.13 475.97,-526.74"/>
</g>
<!-- Node5 -->
<g id="node5" class="node">
<title>Node5</title>
<g id="a_node5"><a xlink:href="materiallibrary_8h.html" target="_top" xlink:title=" ">
<polygon fill="none" stroke="black" points="286.5,-402.5 286.5,-432.5 411.5,-432.5 411.5,-402.5 286.5,-402.5"/>
<text text-anchor="start" x="294.5" y="-420.5" font-family="Helvetica,sans-Serif" font-size="10.00">/github/workspace/src</text>
<text text-anchor="middle" x="349" y="-409.5" font-family="Helvetica,sans-Serif" font-size="10.00">/renderer/materiallibrary.h</text>
</a>
</g>
</g>
<!-- Node1&#45;&gt;Node5 -->
<g id="edge55" class="edge">
<title>Node1&#45;&gt;Node5</title>
<path fill="none" stroke="midnightblue" d="M457.19,-530.42C445.24,-521.6 431.51,-510.8 420,-500 396.74,-478.17 373.06,-449.39 359.78,-432.52"/>
<polygon fill="midnightblue" stroke="midnightblue" points="455.37,-533.42 465.52,-536.46 459.48,-527.76 455.37,-533.42"/>
</g>
<!-- Node3&#45;&gt;Node1 -->
<g id="edge3" class="edge">
<title>Node3&#45;&gt;Node1</title>
<path fill="none" stroke="midnightblue" d="M492.54,-509.57C492.99,-518.6 492.71,-528.56 491.68,-536.4"/>
<polygon fill="midnightblue" stroke="midnightblue" points="496.03,-509.24 491.67,-499.58 489.05,-509.84 496.03,-509.24"/>
</g>
<!-- Node4 -->
<g id="node4" class="node">
<title>Node4</title>
<g id="a_node4"><a xlink:href="material_8cpp.html" target="_top" xlink:title=" ">
<polygon fill="none" stroke="black" points="429.5,-402.5 429.5,-432.5 542.5,-432.5 542.5,-402.5 429.5,-402.5"/>
<text text-anchor="start" x="437.5" y="-420.5" font-family="Helvetica,sans-Serif" font-size="10.00">/github/workspace/src</text>
<text text-anchor="middle" x="486" y="-409.5" font-family="Helvetica,sans-Serif" font-size="10.00">/renderer/material.cpp</text>
</a>
</g>
</g>
<!-- Node3&#45;&gt;Node4 -->
<g id="edge4" class="edge">
<title>Node3&#45;&gt;Node4</title>
<path fill="none" stroke="midnightblue" d="M486,-459.11C486,-450.15 486,-440.32 486,-432.58"/>
<polygon fill="midnightblue" stroke="midnightblue" points="482.5,-459.4 486,-469.4 489.5,-459.4 482.5,-459.4"/>
</g>
<!-- Node3&#45;&gt;Node5 -->
<g id="edge5" class="edge">
<title>Node3&#45;&gt;Node5</title>
<path fill="none" stroke="midnightblue" d="M441.44,-465.27C418.67,-454.92 391.92,-442.15 372.99,-432.58"/>
<polygon fill="midnightblue" stroke="midnightblue" points="440.04,-468.48 450.59,-469.4 442.92,-462.1 440.04,-468.48"/>
</g>
<!-- Node23 -->
<g id="node23" class="node">
<title>Node23</title>
<g id="a_node23"><a xlink:href="mesh_8h.html" target="_top" xlink:title=" ">
<polygon fill="none" stroke="black" points="560.5,-402.5 560.5,-432.5 673.5,-432.5 673.5,-402.5 560.5,-402.5"/>
<text text-anchor="start" x="568.5" y="-420.5" font-family="Helvetica,sans-Serif" font-size="10.00">/github/workspace/src</text>
<text text-anchor="middle" x="617" y="-409.5" font-family="Helvetica,sans-Serif" font-size="10.00">/renderer/mesh.h</text>
</a>
</g>
</g>
<!-- Node3&#45;&gt;Node23 -->
<g id="edge38" class="edge">
<title>Node3&#45;&gt;Node23</title>
<path fill="none" stroke="midnightblue" d="M523.58,-464.85C544.29,-454.58 569.59,-442.03 588.63,-432.58"/>
<polygon fill="midnightblue" stroke="midnightblue" points="521.83,-461.82 514.43,-469.4 524.94,-468.09 521.83,-461.82"/>
</g>
<!-- Node5&#45;&gt;Node3 -->
<g id="edge6" class="edge">
<title>Node5&#45;&gt;Node3</title>
<path fill="none" stroke="midnightblue" d="M393.5,-436.7C416.26,-447.05 443.01,-459.81 461.95,-469.4"/>
<polygon fill="midnightblue" stroke="midnightblue" points="394.9,-433.49 384.34,-432.58 392.02,-439.88 394.9,-433.49"/>
</g>
<!-- Node6 -->
<g id="node6" class="node">
<title>Node6</title>
<g id="a_node6"><a xlink:href="materiallibrary_8cpp.html" target="_top" xlink:title=" ">
<polygon fill="none" stroke="black" points="185,-335.5 185,-365.5 321,-365.5 321,-335.5 185,-335.5"/>
<text text-anchor="start" x="193" y="-353.5" font-family="Helvetica,sans-Serif" font-size="10.00">/github/workspace/src</text>
<text text-anchor="middle" x="253" y="-342.5" font-family="Helvetica,sans-Serif" font-size="10.00">/renderer/materiallibrary.cpp</text>
</a>
</g>
</g>
<!-- Node5&#45;&gt;Node6 -->
<g id="edge7" class="edge">
<title>Node5&#45;&gt;Node6</title>
<path fill="none" stroke="midnightblue" d="M319.81,-396.73C304.95,-386.68 287.24,-374.68 273.79,-365.58"/>
<polygon fill="midnightblue" stroke="midnightblue" points="317.93,-399.69 328.17,-402.4 321.85,-393.89 317.93,-399.69"/>
</g>
<!-- Node7 -->
<g id="node7" class="node">
<title>Node7</title>
<g id="a_node7"><a xlink:href="rendermanager_8h.html" target="_top" xlink:title=" ">
<polygon fill="none" stroke="black" points="254,-201.5 254,-231.5 384,-231.5 384,-201.5 254,-201.5"/>
<text text-anchor="start" x="262" y="-219.5" font-family="Helvetica,sans-Serif" font-size="10.00">/github/workspace/src</text>
<text text-anchor="middle" x="319" y="-208.5" font-family="Helvetica,sans-Serif" font-size="10.00">/renderer/rendermanager.h</text>
</a>
</g>
</g>
<!-- Node5&#45;&gt;Node7 -->
<g id="edge8" class="edge">
<title>Node5&#45;&gt;Node7</title>
<path fill="none" stroke="midnightblue" d="M345.35,-392.27C339.02,-350.29 326.21,-265.33 321.14,-231.68"/>
<polygon fill="midnightblue" stroke="midnightblue" points="341.89,-392.82 346.84,-402.19 348.81,-391.78 341.89,-392.82"/>
</g>
<!-- Node8 -->
<g id="node8" class="node">
<title>Node8</title>
<g id="a_node8"><a xlink:href="rendermanager_8cpp.html" target="_top" xlink:title=" ">
<polygon fill="none" stroke="black" points="28,-134.5 28,-164.5 168,-164.5 168,-134.5 28,-134.5"/>
<text text-anchor="start" x="36" y="-152.5" font-family="Helvetica,sans-Serif" font-size="10.00">/github/workspace/src</text>
<text text-anchor="middle" x="98" y="-141.5" font-family="Helvetica,sans-Serif" font-size="10.00">/renderer/rendermanager.cpp</text>
</a>
</g>
</g>
<!-- Node7&#45;&gt;Node8 -->
<g id="edge9" class="edge">
<title>Node7&#45;&gt;Node8</title>
<path fill="none" stroke="midnightblue" d="M261.47,-198.58C225.58,-188.02 179.91,-174.59 145.98,-164.61"/>
<polygon fill="midnightblue" stroke="midnightblue" points="260.74,-202.01 271.32,-201.48 262.71,-195.3 260.74,-202.01"/>
</g>
<!-- Node9 -->
<g id="node9" class="node">
<title>Node9</title>
<g id="a_node9"><a xlink:href="scene_8h.html" target="_top" xlink:title=" ">
<polygon fill="none" stroke="black" points="622.5,-134.5 622.5,-164.5 735.5,-164.5 735.5,-134.5 622.5,-134.5"/>
<text text-anchor="start" x="630.5" y="-152.5" font-family="Helvetica,sans-Serif" font-size="10.00">/github/workspace/src</text>
<text text-anchor="middle" x="679" y="-141.5" font-family="Helvetica,sans-Serif" font-size="10.00">/renderer/scene.h</text>
</a>
</g>
</g>
<!-- Node7&#45;&gt;Node9 -->
<g id="edge10" class="edge">
<title>Node7&#45;&gt;Node9</title>
<path fill="none" stroke="midnightblue" d="M391.66,-199.58C473.99,-184.33 565.02,-168.51 622.31,-159.07"/>
<polygon fill="midnightblue" stroke="midnightblue" points="390.86,-196.17 381.67,-201.43 392.14,-203.05 390.86,-196.17"/>
</g>
<!-- Node13 -->
<g id="node13" class="node">
<title>Node13</title>
<g id="a_node13"><a xlink:href="main_8cpp.html" target="_top" xlink:title=" ">
<polygon fill="none" stroke="black" points="537.5,-0.5 537.5,-30.5 650.5,-30.5 650.5,-0.5 537.5,-0.5"/>
<text text-anchor="start" x="545.5" y="-18.5" font-family="Helvetica,sans-Serif" font-size="10.00">/github/workspace/src</text>
<text text-anchor="middle" x="594" y="-7.5" font-family="Helvetica,sans-Serif" font-size="10.00">/tests/main.cpp</text>
</a>
</g>
</g>
<!-- Node7&#45;&gt;Node13 -->
<g id="edge36" class="edge">
<title>Node7&#45;&gt;Node13</title>
<path fill="none" stroke="midnightblue" d="M351.23,-196.01C387.7,-173.58 448.47,-135.06 498,-98 527.58,-75.86 559.94,-47.44 578.52,-30.67"/>
<polygon fill="midnightblue" stroke="midnightblue" points="349.21,-193.15 342.51,-201.36 352.86,-199.12 349.21,-193.15"/>
</g>
<!-- Node15 -->
<g id="node15" class="node">
<title>Node15</title>
<g id="a_node15"><a xlink:href="vulkan__voxel__rasterizer__4_8cpp.html" target="_top" xlink:title=" ">
<polygon fill="none" stroke="black" points="196,-0.5 196,-30.5 370,-30.5 370,-0.5 196,-0.5"/>
<text text-anchor="start" x="204" y="-18.5" font-family="Helvetica,sans-Serif" font-size="10.00">/github/workspace/src</text>
<text text-anchor="middle" x="283" y="-7.5" font-family="Helvetica,sans-Serif" font-size="10.00">/tests/vulkan_voxel_rasterizer_4.cpp</text>
</a>
</g>
</g>
<!-- Node7&#45;&gt;Node15 -->
<g id="edge37" class="edge">
<title>Node7&#45;&gt;Node15</title>
<path fill="none" stroke="midnightblue" d="M280.3,-196.6C245.7,-177.25 197.4,-143.58 177,-98 171.37,-85.42 169.65,-78.65 177,-67 187.94,-49.68 206.62,-38.17 225.29,-30.59"/>
<polygon fill="midnightblue" stroke="midnightblue" points="278.76,-199.74 289.21,-201.44 282.1,-193.59 278.76,-199.74"/>
</g>
<!-- Node21 -->
<g id="node21" class="node">
<title>Node21</title>
<g id="a_node21"><a xlink:href="scenewriter_8h.html" target="_top" xlink:title=" ">
<polygon fill="none" stroke="black" points="261,-134.5 261,-164.5 377,-164.5 377,-134.5 261,-134.5"/>
<text text-anchor="start" x="269" y="-152.5" font-family="Helvetica,sans-Serif" font-size="10.00">/github/workspace/src</text>
<text text-anchor="middle" x="319" y="-141.5" font-family="Helvetica,sans-Serif" font-size="10.00">/renderer/scenewriter.h</text>
</a>
</g>
</g>
<!-- Node7&#45;&gt;Node21 -->
<g id="edge32" class="edge">
<title>Node7&#45;&gt;Node21</title>
<path fill="none" stroke="midnightblue" d="M312.45,-191.4C312.01,-182.37 312.3,-172.41 313.33,-164.58"/>
<polygon fill="midnightblue" stroke="midnightblue" points="308.97,-191.74 313.32,-201.4 315.94,-191.13 308.97,-191.74"/>
</g>
<!-- Node9&#45;&gt;Node7 -->
<g id="edge11" class="edge">
<title>Node9&#45;&gt;Node7</title>
<path fill="none" stroke="midnightblue" d="M612.2,-163.2C556.06,-173.2 473.86,-187.62 402,-201 396.21,-202.08 390.17,-203.23 384.09,-204.38"/>
<polygon fill="midnightblue" stroke="midnightblue" points="613.14,-166.59 622.37,-161.39 611.91,-159.7 613.14,-166.59"/>
</g>
<!-- Node10 -->
<g id="node10" class="node">
<title>Node10</title>
<g id="a_node10"><a xlink:href="scene_8cpp.html" target="_top" xlink:title=" ">
<polygon fill="none" stroke="black" points="622.5,-67.5 622.5,-97.5 735.5,-97.5 735.5,-67.5 622.5,-67.5"/>
<text text-anchor="start" x="630.5" y="-85.5" font-family="Helvetica,sans-Serif" font-size="10.00">/github/workspace/src</text>
<text text-anchor="middle" x="679" y="-74.5" font-family="Helvetica,sans-Serif" font-size="10.00">/renderer/scene.cpp</text>
</a>
</g>
</g>
<!-- Node9&#45;&gt;Node10 -->
<g id="edge12" class="edge">
<title>Node9&#45;&gt;Node10</title>
<path fill="none" stroke="midnightblue" d="M679,-124.11C679,-115.15 679,-105.32 679,-97.58"/>
<polygon fill="midnightblue" stroke="midnightblue" points="675.5,-124.4 679,-134.4 682.5,-124.4 675.5,-124.4"/>
</g>
<!-- Node11 -->
<g id="node11" class="node">
<title>Node11</title>
<g id="a_node11"><a xlink:href="mainmenu_8h.html" target="_top" xlink:title=" ">
<polygon fill="none" stroke="black" points="368.5,-67.5 368.5,-97.5 489.5,-97.5 489.5,-67.5 368.5,-67.5"/>
<text text-anchor="start" x="376.5" y="-85.5" font-family="Helvetica,sans-Serif" font-size="10.00">/github/workspace/src</text>
<text text-anchor="middle" x="429" y="-74.5" font-family="Helvetica,sans-Serif" font-size="10.00">/renderer/ui/mainmenu.h</text>
</a>
</g>
</g>
<!-- Node9&#45;&gt;Node11 -->
<g id="edge13" class="edge">
<title>Node9&#45;&gt;Node11</title>
<path fill="none" stroke="midnightblue" d="M615.22,-131.92C574.42,-121.31 522.07,-107.7 483.27,-97.61"/>
<polygon fill="midnightblue" stroke="midnightblue" points="614.5,-135.35 625.06,-134.48 616.26,-128.57 614.5,-135.35"/>
</g>
<!-- Node9&#45;&gt;Node13 -->
<g id="edge28" class="edge">
<title>Node9&#45;&gt;Node13</title>
<path fill="none" stroke="midnightblue" d="M644.81,-128.55C633.49,-120.4 621.81,-110.04 614,-98 600.44,-77.1 596.07,-47.76 594.67,-30.58"/>
<polygon fill="midnightblue" stroke="midnightblue" points="643.08,-131.61 653.32,-134.34 647.02,-125.82 643.08,-131.61"/>
</g>
<!-- Node14 -->
<g id="node14" class="node">
<title>Node14</title>
<g id="a_node14"><a xlink:href="vulkan__voxel__rasterizer__3_8cpp.html" target="_top" xlink:title=" ">
<polygon fill="none" stroke="black" points="887,-0.5 887,-30.5 1061,-30.5 1061,-0.5 887,-0.5"/>
<text text-anchor="start" x="895" y="-18.5" font-family="Helvetica,sans-Serif" font-size="10.00">/github/workspace/src</text>
<text text-anchor="middle" x="974" y="-7.5" font-family="Helvetica,sans-Serif" font-size="10.00">/tests/vulkan_voxel_rasterizer_3.cpp</text>
</a>
</g>
</g>
<!-- Node9&#45;&gt;Node14 -->
<g id="edge30" class="edge">
<title>Node9&#45;&gt;Node14</title>
<path fill="none" stroke="midnightblue" d="M745.85,-139.45C850.12,-125.3 1039.79,-99.39 1041,-98 1061.2,-74.79 1026.03,-46.94 999.47,-30.54"/>
<polygon fill="midnightblue" stroke="midnightblue" points="745.16,-136.01 735.72,-140.82 746.1,-142.95 745.16,-136.01"/>
</g>
<!-- Node9&#45;&gt;Node15 -->
<g id="edge31" class="edge">
<title>Node9&#45;&gt;Node15</title>
<path fill="none" stroke="midnightblue" d="M612.24,-143.11C531.69,-135.71 401.75,-120.71 359,-98 343.37,-89.69 311.25,-51.62 294.2,-30.58"/>
<polygon fill="midnightblue" stroke="midnightblue" points="612.02,-146.6 622.29,-144.01 612.65,-139.63 612.02,-146.6"/>
</g>
<!-- Node16 -->
<g id="node16" class="node">
<title>Node16</title>
<g id="a_node16"><a xlink:href="objectlist_8h.html" target="_top" xlink:title=" ">
<polygon fill="none" stroke="black" points="916.5,-67.5 916.5,-97.5 1031.5,-97.5 1031.5,-67.5 916.5,-67.5"/>
<text text-anchor="start" x="924.5" y="-85.5" font-family="Helvetica,sans-Serif" font-size="10.00">/github/workspace/src</text>
<text text-anchor="middle" x="974" y="-74.5" font-family="Helvetica,sans-Serif" font-size="10.00">/renderer/ui/objectlist.h</text>
</a>
</g>
</g>
<!-- Node9&#45;&gt;Node16 -->
<g id="edge18" class="edge">
<title>Node9&#45;&gt;Node16</title>
<path fill="none" stroke="midnightblue" d="M745.55,-133.84C796.96,-122.51 867.39,-106.99 916.4,-96.19"/>
<polygon fill="midnightblue" stroke="midnightblue" points="744.54,-130.47 735.53,-136.04 746.05,-137.31 744.54,-130.47"/>
</g>
<!-- Node18 -->
<g id="node18" class="node">
<title>Node18</title>
<g id="a_node18"><a xlink:href="objectproperties_8h.html" target="_top" xlink:title=" ">
<polygon fill="none" stroke="black" points="753.5,-67.5 753.5,-97.5 898.5,-97.5 898.5,-67.5 753.5,-67.5"/>
<text text-anchor="start" x="761.5" y="-85.5" font-family="Helvetica,sans-Serif" font-size="10.00">/github/workspace/src</text>
<text text-anchor="middle" x="826" y="-74.5" font-family="Helvetica,sans-Serif" font-size="10.00">/renderer/ui/objectproperties.h</text>
</a>
</g>
</g>
<!-- Node9&#45;&gt;Node18 -->
<g id="edge23" class="edge">
<title>Node9&#45;&gt;Node18</title>
<path fill="none" stroke="midnightblue" d="M720.23,-130.27C743.64,-119.92 772.51,-107.15 794.17,-97.58"/>
<polygon fill="midnightblue" stroke="midnightblue" points="718.63,-127.15 710.9,-134.4 721.46,-133.55 718.63,-127.15"/>
</g>
<!-- Node20 -->
<g id="node20" class="node">
<title>Node20</title>
<g id="a_node20"><a xlink:href="vulkan__voxel__rasterizer__2_8cpp.html" target="_top" xlink:title=" ">
<polygon fill="none" stroke="black" points="1088,-67.5 1088,-97.5 1262,-97.5 1262,-67.5 1088,-67.5"/>
<text text-anchor="start" x="1096" y="-85.5" font-family="Helvetica,sans-Serif" font-size="10.00">/github/workspace/src</text>
<text text-anchor="middle" x="1175" y="-74.5" font-family="Helvetica,sans-Serif" font-size="10.00">/tests/vulkan_voxel_rasterizer_2.cpp</text>
</a>
</g>
</g>
<!-- Node9&#45;&gt;Node20 -->
<g id="edge29" class="edge">
<title>Node9&#45;&gt;Node20</title>
<path fill="none" stroke="midnightblue" d="M745.61,-139.56C759.61,-137.71 774.29,-135.77 788,-134 915.05,-117.55 947.03,-115.1 1074,-98 1078.56,-97.39 1083.24,-96.75 1087.97,-96.09"/>
<polygon fill="midnightblue" stroke="midnightblue" points="745.01,-136.11 735.56,-140.9 745.94,-143.05 745.01,-136.11"/>
</g>
<!-- Node12 -->
<g id="node12" class="node">
<title>Node12</title>
<g id="a_node12"><a xlink:href="mainmenu_8cpp.html" target="_top" xlink:title=" ">
<polygon fill="none" stroke="black" points="388.5,-0.5 388.5,-30.5 519.5,-30.5 519.5,-0.5 388.5,-0.5"/>
<text text-anchor="start" x="396.5" y="-18.5" font-family="Helvetica,sans-Serif" font-size="10.00">/github/workspace/src</text>
<text text-anchor="middle" x="454" y="-7.5" font-family="Helvetica,sans-Serif" font-size="10.00">/renderer/ui/mainmenu.cpp</text>
</a>
</g>
</g>
<!-- Node11&#45;&gt;Node12 -->
<g id="edge14" class="edge">
<title>Node11&#45;&gt;Node12</title>
<path fill="none" stroke="midnightblue" d="M438.04,-57.99C441.58,-48.8 445.51,-38.58 448.59,-30.58"/>
<polygon fill="midnightblue" stroke="midnightblue" points="434.75,-56.81 434.42,-67.4 441.28,-59.32 434.75,-56.81"/>
</g>
<!-- Node11&#45;&gt;Node13 -->
<g id="edge15" class="edge">
<title>Node11&#45;&gt;Node13</title>
<path fill="none" stroke="midnightblue" d="M474.23,-63.68C500.69,-53.26 533.63,-40.28 558.27,-30.58"/>
<polygon fill="midnightblue" stroke="midnightblue" points="472.82,-60.47 464.8,-67.4 475.39,-66.99 472.82,-60.47"/>
</g>
<!-- Node11&#45;&gt;Node14 -->
<g id="edge16" class="edge">
<title>Node11&#45;&gt;Node14</title>
<path fill="none" stroke="midnightblue" d="M499.93,-74.36C588.51,-65.25 744.65,-48.56 878,-31 880.92,-30.61 883.9,-30.21 886.9,-29.8"/>
<polygon fill="midnightblue" stroke="midnightblue" points="499.32,-70.91 489.73,-75.41 500.03,-77.87 499.32,-70.91"/>
</g>
<!-- Node11&#45;&gt;Node15 -->
<g id="edge17" class="edge">
<title>Node11&#45;&gt;Node15</title>
<path fill="none" stroke="midnightblue" d="M388.05,-63.27C364.8,-52.92 336.13,-40.15 314.62,-30.58"/>
<polygon fill="midnightblue" stroke="midnightblue" points="386.76,-66.53 397.32,-67.4 389.61,-60.13 386.76,-66.53"/>
</g>
<!-- Node16&#45;&gt;Node13 -->
<g id="edge20" class="edge">
<title>Node16&#45;&gt;Node13</title>
<path fill="none" stroke="midnightblue" d="M906.37,-66.75C811.25,-48.87 711.46,-33.56 650.61,-24.61"/>
<polygon fill="midnightblue" stroke="midnightblue" points="905.97,-70.23 916.45,-68.65 907.27,-63.36 905.97,-70.23"/>
</g>
<!-- Node16&#45;&gt;Node14 -->
<g id="edge21" class="edge">
<title>Node16&#45;&gt;Node14</title>
<path fill="none" stroke="midnightblue" d="M974,-57.11C974,-48.15 974,-38.32 974,-30.58"/>
<polygon fill="midnightblue" stroke="midnightblue" points="970.5,-57.4 974,-67.4 977.5,-57.4 970.5,-57.4"/>
</g>
<!-- Node16&#45;&gt;Node15 -->
<g id="edge22" class="edge">
<title>Node16&#45;&gt;Node15</title>
<path fill="none" stroke="midnightblue" d="M906.34,-66.9C672.95,-34.27 609.94,-56.26 379,-31 376.07,-30.68 373.09,-30.33 370.08,-29.97"/>
<polygon fill="midnightblue" stroke="midnightblue" points="906.11,-70.4 916.5,-68.34 907.09,-63.47 906.11,-70.4"/>
</g>
<!-- Node17 -->
<g id="node17" class="node">
<title>Node17</title>
<g id="a_node17"><a xlink:href="objectlist_8cpp.html" target="_top" xlink:title=" ">
<polygon fill="none" stroke="black" points="1079.5,-0.5 1079.5,-30.5 1204.5,-30.5 1204.5,-0.5 1079.5,-0.5"/>
<text text-anchor="start" x="1087.5" y="-18.5" font-family="Helvetica,sans-Serif" font-size="10.00">/github/workspace/src</text>
<text text-anchor="middle" x="1142" y="-7.5" font-family="Helvetica,sans-Serif" font-size="10.00">/renderer/ui/objectlist.cpp</text>
</a>
</g>
</g>
<!-- Node16&#45;&gt;Node17 -->
<g id="edge19" class="edge">
<title>Node16&#45;&gt;Node17</title>
<path fill="none" stroke="midnightblue" d="M1020.05,-63.68C1047,-53.26 1080.54,-40.28 1105.62,-30.58"/>
<polygon fill="midnightblue" stroke="midnightblue" points="1018.52,-60.52 1010.45,-67.4 1021.04,-67.05 1018.52,-60.52"/>
</g>
<!-- Node18&#45;&gt;Node13 -->
<g id="edge25" class="edge">
<title>Node18&#45;&gt;Node13</title>
<path fill="none" stroke="midnightblue" d="M766.09,-64.71C728.34,-54.14 680.14,-40.63 644.37,-30.61"/>
<polygon fill="midnightblue" stroke="midnightblue" points="765.37,-68.15 775.95,-67.48 767.26,-61.41 765.37,-68.15"/>
</g>
<!-- Node18&#45;&gt;Node14 -->
<g id="edge26" class="edge">
<title>Node18&#45;&gt;Node14</title>
<path fill="none" stroke="midnightblue" d="M867.51,-63.27C891.08,-52.92 920.14,-40.15 941.95,-30.58"/>
<polygon fill="midnightblue" stroke="midnightblue" points="865.86,-60.17 858.11,-67.4 868.68,-66.58 865.86,-60.17"/>
</g>
<!-- Node18&#45;&gt;Node15 -->
<g id="edge27" class="edge">
<title>Node18&#45;&gt;Node15</title>
<path fill="none" stroke="midnightblue" d="M742.88,-66.77C581.32,-44.84 537.87,-50.8 379,-31 376.07,-30.64 373.1,-30.25 370.09,-29.86"/>
<polygon fill="midnightblue" stroke="midnightblue" points="742.8,-70.29 753.19,-68.19 743.75,-63.36 742.8,-70.29"/>
</g>
<!-- Node19 -->
<g id="node19" class="node">
<title>Node19</title>
<g id="a_node19"><a xlink:href="objectproperties_8cpp.html" target="_top" xlink:title=" ">
<polygon fill="none" stroke="black" points="713.5,-0.5 713.5,-30.5 868.5,-30.5 868.5,-0.5 713.5,-0.5"/>
<text text-anchor="start" x="721.5" y="-18.5" font-family="Helvetica,sans-Serif" font-size="10.00">/github/workspace/src</text>
<text text-anchor="middle" x="791" y="-7.5" font-family="Helvetica,sans-Serif" font-size="10.00">/renderer/ui/objectproperties.cpp</text>
</a>
</g>
</g>
<!-- Node18&#45;&gt;Node19 -->
<g id="edge24" class="edge">
<title>Node18&#45;&gt;Node19</title>
<path fill="none" stroke="midnightblue" d="M813.66,-58.58C808.63,-49.24 802.98,-38.75 798.58,-30.58"/>
<polygon fill="midnightblue" stroke="midnightblue" points="810.58,-60.25 818.41,-67.4 816.75,-56.93 810.58,-60.25"/>
</g>
<!-- Node21&#45;&gt;Node7 -->
<g id="edge33" class="edge">
<title>Node21&#45;&gt;Node7</title>
<path fill="none" stroke="midnightblue" d="M325.54,-174.57C325.99,-183.6 325.71,-193.56 324.68,-201.4"/>
<polygon fill="midnightblue" stroke="midnightblue" points="329.03,-174.24 324.67,-164.58 322.05,-174.84 329.03,-174.24"/>
</g>
<!-- Node21&#45;&gt;Node11 -->
<g id="edge35" class="edge">
<title>Node21&#45;&gt;Node11</title>
<path fill="none" stroke="midnightblue" d="M351.5,-129.3C368.71,-119.12 389.48,-106.85 405.18,-97.58"/>
<polygon fill="midnightblue" stroke="midnightblue" points="349.7,-126.3 342.87,-134.4 353.26,-132.32 349.7,-126.3"/>
</g>
<!-- Node22 -->
<g id="node22" class="node">
<title>Node22</title>
<g id="a_node22"><a xlink:href="scenewriter_8cpp.html" target="_top" xlink:title=" ">
<polygon fill="none" stroke="black" points="186,-67.5 186,-97.5 312,-97.5 312,-67.5 186,-67.5"/>
<text text-anchor="start" x="194" y="-85.5" font-family="Helvetica,sans-Serif" font-size="10.00">/github/workspace/src</text>
<text text-anchor="middle" x="249" y="-74.5" font-family="Helvetica,sans-Serif" font-size="10.00">/renderer/scenewriter.cpp</text>
</a>
</g>
</g>
<!-- Node21&#45;&gt;Node22 -->
<g id="edge34" class="edge">
<title>Node21&#45;&gt;Node22</title>
<path fill="none" stroke="midnightblue" d="M296.18,-127.31C285.68,-117.56 273.51,-106.26 264.16,-97.58"/>
<polygon fill="midnightblue" stroke="midnightblue" points="294.1,-130.16 303.81,-134.4 298.86,-125.03 294.1,-130.16"/>
</g>
<!-- Node23&#45;&gt;Node1 -->
<g id="edge39" class="edge">
<title>Node23&#45;&gt;Node1</title>
<path fill="none" stroke="midnightblue" d="M601.45,-440.9C589.05,-458 570.71,-481.66 552,-500 538.09,-513.63 520.5,-526.93 506.97,-536.46"/>
<polygon fill="midnightblue" stroke="midnightblue" points="604.4,-442.79 607.36,-432.62 598.7,-438.73 604.4,-442.79"/>
</g>
<!-- Node24 -->
<g id="node24" class="node">
<title>Node24</title>
<g id="a_node24"><a xlink:href="mesh_8cpp.html" target="_top" xlink:title=" ">
<polygon fill="none" stroke="black" points="631.5,-335.5 631.5,-365.5 744.5,-365.5 744.5,-335.5 631.5,-335.5"/>
<text text-anchor="start" x="639.5" y="-353.5" font-family="Helvetica,sans-Serif" font-size="10.00">/github/workspace/src</text>
<text text-anchor="middle" x="688" y="-342.5" font-family="Helvetica,sans-Serif" font-size="10.00">/renderer/mesh.cpp</text>
</a>
</g>
</g>
<!-- Node23&#45;&gt;Node24 -->
<g id="edge40" class="edge">
<title>Node23&#45;&gt;Node24</title>
<path fill="none" stroke="midnightblue" d="M639.83,-395.6C650.55,-385.78 663.05,-374.34 672.62,-365.58"/>
<polygon fill="midnightblue" stroke="midnightblue" points="637.42,-393.06 632.41,-402.4 642.15,-398.22 637.42,-393.06"/>
</g>
<!-- Node25 -->
<g id="node25" class="node">
<title>Node25</title>
<g id="a_node25"><a xlink:href="meshinstance_8h.html" target="_top" xlink:title=" ">
<polygon fill="none" stroke="black" points="763,-335.5 763,-365.5 889,-365.5 889,-335.5 763,-335.5"/>
<text text-anchor="start" x="771" y="-353.5" font-family="Helvetica,sans-Serif" font-size="10.00">/github/workspace/src</text>
<text text-anchor="middle" x="826" y="-342.5" font-family="Helvetica,sans-Serif" font-size="10.00">/renderer/meshinstance.h</text>
</a>
</g>
</g>
<!-- Node23&#45;&gt;Node25 -->
<g id="edge41" class="edge">
<title>Node23&#45;&gt;Node25</title>
<path fill="none" stroke="midnightblue" d="M671.84,-399.44C705.72,-388.91 748.67,-375.55 780.63,-365.61"/>
<polygon fill="midnightblue" stroke="midnightblue" points="670.6,-396.16 662.09,-402.48 672.68,-402.85 670.6,-396.16"/>
</g>
<!-- Node27 -->
<g id="node27" class="node">
<title>Node27</title>
<g id="a_node27"><a xlink:href="meshlibrary_8h.html" target="_top" xlink:title=" ">
<polygon fill="none" stroke="black" points="407.5,-268.5 407.5,-298.5 522.5,-298.5 522.5,-268.5 407.5,-268.5"/>
<text text-anchor="start" x="415.5" y="-286.5" font-family="Helvetica,sans-Serif" font-size="10.00">/github/workspace/src</text>
<text text-anchor="middle" x="465" y="-275.5" font-family="Helvetica,sans-Serif" font-size="10.00">/renderer/meshlibrary.h</text>
</a>
</g>
</g>
<!-- Node23&#45;&gt;Node27 -->
<g id="edge45" class="edge">
<title>Node23&#45;&gt;Node27</title>
<path fill="none" stroke="midnightblue" d="M557.07,-399.27C527.54,-389.66 496.12,-377.37 486,-366 469.19,-347.12 465.51,-316.54 464.89,-298.69"/>
<polygon fill="midnightblue" stroke="midnightblue" points="556.39,-402.73 566.98,-402.42 558.51,-396.06 556.39,-402.73"/>
</g>
<!-- Node29 -->
<g id="node29" class="node">
<title>Node29</title>
<g id="a_node29"><a xlink:href="modelloader_8h.html" target="_top" xlink:title=" ">
<polygon fill="none" stroke="black" points="495,-335.5 495,-365.5 613,-365.5 613,-335.5 495,-335.5"/>
<text text-anchor="start" x="503" y="-353.5" font-family="Helvetica,sans-Serif" font-size="10.00">/github/workspace/src</text>
<text text-anchor="middle" x="554" y="-342.5" font-family="Helvetica,sans-Serif" font-size="10.00">/renderer/modelloader.h</text>
</a>
</g>
</g>
<!-- Node23&#45;&gt;Node29 -->
<g id="edge48" class="edge">
<title>Node23&#45;&gt;Node29</title>
<path fill="none" stroke="midnightblue" d="M596.19,-395.02C586.8,-385.34 575.98,-374.17 567.64,-365.58"/>
<polygon fill="midnightblue" stroke="midnightblue" points="593.86,-397.65 603.33,-402.4 598.88,-392.78 593.86,-397.65"/>
</g>
<!-- Node25&#45;&gt;Node1 -->
<g id="edge42" class="edge">
<title>Node25&#45;&gt;Node1</title>
<path fill="none" stroke="midnightblue" d="M794.65,-370.95C748.01,-399.75 657.39,-455.18 579,-500 556.83,-512.68 531.32,-526.47 512.63,-536.44"/>
<polygon fill="midnightblue" stroke="midnightblue" points="796.72,-373.79 803.38,-365.55 793.04,-367.83 796.72,-373.79"/>
</g>
<!-- Node25&#45;&gt;Node9 -->
<g id="edge44" class="edge">
<title>Node25&#45;&gt;Node9</title>
<path fill="none" stroke="midnightblue" d="M809.46,-327.11C778.97,-285.83 714.7,-198.83 689.48,-164.68"/>
<polygon fill="midnightblue" stroke="midnightblue" points="806.67,-329.22 815.43,-335.19 812.3,-325.07 806.67,-329.22"/>
</g>
<!-- Node26 -->
<g id="node26" class="node">
<title>Node26</title>
<g id="a_node26"><a xlink:href="meshinstance_8cpp.html" target="_top" xlink:title=" ">
<polygon fill="none" stroke="black" points="1318.5,-268.5 1318.5,-298.5 1455.5,-298.5 1455.5,-268.5 1318.5,-268.5"/>
<text text-anchor="start" x="1326.5" y="-286.5" font-family="Helvetica,sans-Serif" font-size="10.00">/github/workspace/src</text>
<text text-anchor="middle" x="1387" y="-275.5" font-family="Helvetica,sans-Serif" font-size="10.00">/renderer/meshinstance.cpp</text>
</a>
</g>
</g>
<!-- Node25&#45;&gt;Node26 -->
<g id="edge43" class="edge">
<title>Node25&#45;&gt;Node26</title>
<path fill="none" stroke="midnightblue" d="M899.16,-343.32C993.1,-335.03 1161.07,-319.01 1304,-299 1308.64,-298.35 1313.41,-297.64 1318.21,-296.89"/>
<polygon fill="midnightblue" stroke="midnightblue" points="898.84,-339.84 889.19,-344.2 899.45,-346.81 898.84,-339.84"/>
</g>
<!-- Node27&#45;&gt;Node7 -->
<g id="edge47" class="edge">
<title>Node27&#45;&gt;Node7</title>
<path fill="none" stroke="midnightblue" d="M424.05,-264.27C400.8,-253.92 372.13,-241.15 350.62,-231.58"/>
<polygon fill="midnightblue" stroke="midnightblue" points="422.76,-267.53 433.32,-268.4 425.61,-261.13 422.76,-267.53"/>
</g>
<!-- Node28 -->
<g id="node28" class="node">
<title>Node28</title>
<g id="a_node28"><a xlink:href="meshlibrary_8cpp.html" target="_top" xlink:title=" ">
<polygon fill="none" stroke="black" points="402.5,-201.5 402.5,-231.5 527.5,-231.5 527.5,-201.5 402.5,-201.5"/>
<text text-anchor="start" x="410.5" y="-219.5" font-family="Helvetica,sans-Serif" font-size="10.00">/github/workspace/src</text>
<text text-anchor="middle" x="465" y="-208.5" font-family="Helvetica,sans-Serif" font-size="10.00">/renderer/meshlibrary.cpp</text>
</a>
</g>
</g>
<!-- Node27&#45;&gt;Node28 -->
<g id="edge46" class="edge">
<title>Node27&#45;&gt;Node28</title>
<path fill="none" stroke="midnightblue" d="M465,-258.11C465,-249.15 465,-239.32 465,-231.58"/>
<polygon fill="midnightblue" stroke="midnightblue" points="461.5,-258.4 465,-268.4 468.5,-258.4 461.5,-258.4"/>
</g>
<!-- Node29&#45;&gt;Node13 -->
<g id="edge51" class="edge">
<title>Node29&#45;&gt;Node13</title>
<path fill="none" stroke="midnightblue" d="M554.59,-324.99C555.18,-298.49 556,-255 556,-217.5 556,-217.5 556,-217.5 556,-148.5 556,-104.14 576.06,-54.56 587.03,-30.76"/>
<polygon fill="midnightblue" stroke="midnightblue" points="551.09,-325.16 554.36,-335.24 558.09,-325.32 551.09,-325.16"/>
</g>
<!-- Node29&#45;&gt;Node14 -->
<g id="edge53" class="edge">
<title>Node29&#45;&gt;Node14</title>
<path fill="none" stroke="midnightblue" d="M622.7,-335.06C622.8,-335.04 622.9,-335.02 623,-335 770.77,-306.46 1290,-368 1290,-217.5 1290,-217.5 1290,-217.5 1290,-148.5 1290,-111.31 1298.08,-92.49 1271,-67 1267.11,-63.34 1147.41,-43.81 1061.18,-30.14"/>
<polygon fill="midnightblue" stroke="midnightblue" points="622.2,-331.59 613.07,-336.95 623.56,-338.46 622.2,-331.59"/>
</g>
<!-- Node29&#45;&gt;Node15 -->
<g id="edge54" class="edge">
<title>Node29&#45;&gt;Node15</title>
<path fill="none" stroke="midnightblue" d="M485.05,-340.27C336.58,-319.45 0,-266.82 0,-217.5 0,-217.5 0,-217.5 0,-148.5 0,-60.94 112.63,-31.33 195.78,-21.39"/>
<polygon fill="midnightblue" stroke="midnightblue" points="484.59,-343.74 494.97,-341.65 485.55,-336.8 484.59,-343.74"/>
</g>
<!-- Node29&#45;&gt;Node20 -->
<g id="edge52" class="edge">
<title>Node29&#45;&gt;Node20</title>
<path fill="none" stroke="midnightblue" d="M617.67,-332.67C649.15,-323.74 687.47,-311.94 721,-299 888.67,-234.27 1080.47,-134.17 1149,-97.54"/>
<polygon fill="midnightblue" stroke="midnightblue" points="616.39,-329.39 607.71,-335.46 618.28,-336.13 616.39,-329.39"/>
</g>
<!-- Node29&#45;&gt;Node27 -->
<g id="edge49" class="edge">
<title>Node29&#45;&gt;Node27</title>
<path fill="none" stroke="midnightblue" d="M526.55,-329.45C512.86,-319.45 496.63,-307.6 484.27,-298.58"/>
<polygon fill="midnightblue" stroke="midnightblue" points="524.55,-332.32 534.69,-335.4 528.68,-326.67 524.55,-332.32"/>
</g>
<!-- Node30 -->
<g id="node30" class="node">
<title>Node30</title>
<g id="a_node30"><a xlink:href="modelloader_8cpp.html" target="_top" xlink:title=" ">
<polygon fill="none" stroke="black" points="584,-268.5 584,-298.5 712,-298.5 712,-268.5 584,-268.5"/>
<text text-anchor="start" x="592" y="-286.5" font-family="Helvetica,sans-Serif" font-size="10.00">/github/workspace/src</text>
<text text-anchor="middle" x="648" y="-275.5" font-family="Helvetica,sans-Serif" font-size="10.00">/renderer/modelloader.cpp</text>
</a>
</g>
</g>
<!-- Node29&#45;&gt;Node30 -->
<g id="edge50" class="edge">
<title>Node29&#45;&gt;Node30</title>
<path fill="none" stroke="midnightblue" d="M582.99,-329.45C597.45,-319.45 614.59,-307.6 627.64,-298.58"/>
<polygon fill="midnightblue" stroke="midnightblue" points="580.63,-326.83 574.4,-335.4 584.61,-332.59 580.63,-326.83"/>
</g>
</g>
</svg>
        <g id="navigator" transform="translate(0 0)" fill="#404254">
                <rect fill="#f2f5e9" fill-opacity="0.5" stroke="#606060" stroke-width=".5" x="0" y="0" width="60" height="60"/>
                <use id="zoomplus" xlink:href="#zoomPlus" x="17" y="9" onmousedown="handleZoom(evt,'in')"/>
                <use id="zoomminus" xlink:href="#zoomMin" x="42" y="9" onmousedown="handleZoom(evt,'out')"/>
                <use id="reset" xlink:href="#resetDef" x="30" y="36" onmousedown="handleReset()"/>
                <g id="arrowUp" xlink:href="#dirArrow" transform="translate(30 24)" onmousedown="handlePan(0,-1)">
                  <use xlink:href="#rim" fill="#404040">
                        <set attributeName="fill" to="#808080" begin="arrowUp.mouseover" end="arrowUp.mouseout"/>
                  </use>
                  <path fill="none" stroke="white" stroke-width="1.5" d="M0,-3.0v7 M-2.5,-0.5L0,-3.0L2.5,-0.5"/>
                </g>
                <g id="arrowRight" xlink:href="#dirArrow" transform="rotate(90) translate(36 -43)" onmousedown="handlePan(1,0)">
                  <use xlink:href="#rim" fill="#404040">
                        <set attributeName="fill" to="#808080" begin="arrowRight.mouseover" end="arrowRight.mouseout"/>
                  </use>
                  <path fill="none" stroke="white" stroke-width="1.5" d="M0,-3.0v7 M-2.5,-0.5L0,-3.0L2.5,-0.5"/>
                </g>
                <g id="arrowDown" xlink:href="#dirArrow" transform="rotate(180) translate(-30 -48)" onmousedown="handlePan(0,1)">
                  <use xlink:href="#rim" fill="#404040">
                        <set attributeName="fill" to="#808080" begin="arrowDown.mouseover" end="arrowDown.mouseout"/>
                  </use>
                  <path fill="none" stroke="white" stroke-width="1.5" d="M0,-3.0v7 M-2.5,-0.5L0,-3.0L2.5,-0.5"/>
                </g>
                <g id="arrowLeft" xlink:href="#dirArrow" transform="rotate(270) translate(-36 17)" onmousedown="handlePan(-1,0)">
                  <use xlink:href="#rim" fill="#404040">
                        <set attributeName="fill" to="#808080" begin="arrowLeft.mouseover" end="arrowLeft.mouseout"/>
                  </use>
                  <path fill="none" stroke="white" stroke-width="1.5" d="M0,-3.0v7 M-2.5,-0.5L0,-3.0L2.5,-0.5"/>
                </g>
        </g>
        <svg viewBox="0 0 15 15" width="100%" height="30px" preserveAspectRatio="xMaxYMin meet">
         <g id="arrow_out" transform="scale(0.3 0.3)">
          <a xlink:href="mastermaterial_8h__dep__incl_org.svg" target="_base">
           <rect id="button" ry="5" rx="5" y="6" x="6" height="38" width="38"
                fill="#f2f5e9" fill-opacity="0.5" stroke="#606060" stroke-width="1.0"/>
           <path id="arrow"
             d="M 11.500037,31.436501 C 11.940474,20.09759 22.043105,11.32322 32.158766,21.979434 L 37.068811,17.246167 C 37.068811,17.246167 37.088388,32 37.088388,32 L 22.160133,31.978069 C 22.160133,31.978069 26.997745,27.140456 26.997745,27.140456 C 18.528582,18.264221 13.291696,25.230495 11.500037,31.436501 z"
             style="fill:#404040;"/>
          </a>
         </g>
        </svg>
</svg>
