<?xml version="1.0" encoding="UTF-8" standalone="no"?>
<!DOCTYPE svg PUBLIC "-//W3C//DTD SVG 1.1//EN"
 "http://www.w3.org/Graphics/SVG/1.1/DTD/svg11.dtd">
<!-- Generated by graphviz version 2.49.3 (20211215.1918)
 -->
<!-- Title: /github/workspace/src/renderer/mastermaterial.cpp Pages: 1 -->
<svg width="3503pt" height="1159pt"
 viewBox="0.00 0.00 3503.00 1159.00" xmlns="http://www.w3.org/2000/svg" xmlns:xlink="http://www.w3.org/1999/xlink">
<g id="graph0" class="graph" transform="scale(1 1) rotate(0) translate(4 1155)">
<title>/github/workspace/src/renderer/mastermaterial.cpp</title>
<!-- Node1 -->
<g id="node1" class="node">
<title>Node1</title>
<g id="a_node1"><a xlink:title=" ">
<polygon fill="#bfbfbf" stroke="black" points="623,-1120.5 623,-1150.5 763,-1150.5 763,-1120.5 623,-1120.5"/>
<text text-anchor="start" x="631" y="-1138.5" font-family="Helvetica,sans-Serif" font-size="10.00">/github/workspace/src</text>
<text text-anchor="middle" x="693" y="-1127.5" font-family="Helvetica,sans-Serif" font-size="10.00">/renderer/mastermaterial.cpp</text>
</a>
</g>
</g>
<!-- Node2 -->
<g id="node2" class="node">
<title>Node2</title>
<g id="a_node2"><a xlink:href="mastermaterial_8h.html" target="_top" xlink:title=" ">
<polygon fill="none" stroke="black" points="648.5,-1064.5 648.5,-1083.5 737.5,-1083.5 737.5,-1064.5 648.5,-1064.5"/>
<text text-anchor="middle" x="693" y="-1071.5" font-family="Helvetica,sans-Serif" font-size="10.00">mastermaterial.h</text>
</a>
</g>
</g>
<!-- Node1&#45;&gt;Node2 -->
<g id="edge1" class="edge">
<title>Node1&#45;&gt;Node2</title>
<path fill="none" stroke="midnightblue" d="M693,-1120.4C693,-1112.47 693,-1102.46 693,-1093.86"/>
<polygon fill="midnightblue" stroke="midnightblue" points="696.5,-1093.66 693,-1083.66 689.5,-1093.66 696.5,-1093.66"/>
</g>
<!-- Node3 -->
<g id="node3" class="node">
<title>Node3</title>
<g id="a_node3"><a xlink:href="graphicspipeline_8h.html" target="_top" xlink:title=" ">
<polygon fill="none" stroke="black" points="762.5,-840.5 762.5,-859.5 887.5,-859.5 887.5,-840.5 762.5,-840.5"/>
<text text-anchor="middle" x="825" y="-847.5" font-family="Helvetica,sans-Serif" font-size="10.00">vulkan/graphicspipeline.h</text>
</a>
</g>
</g>
<!-- Node2&#45;&gt;Node3 -->
<g id="edge2" class="edge">
<title>Node2&#45;&gt;Node3</title>
<path fill="none" stroke="midnightblue" d="M702.5,-1064.35C711.59,-1055.73 725.32,-1041.83 735,-1028 772.65,-974.21 804.1,-902.48 817.73,-869.28"/>
<polygon fill="midnightblue" stroke="midnightblue" points="821.15,-870.17 821.65,-859.58 814.66,-867.54 821.15,-870.17"/>
</g>
<!-- Node36 -->
<g id="node36" class="node">
<title>Node36</title>
<g id="a_node36"><a xlink:title=" ">
<polygon fill="none" stroke="#bfbfbf" points="658.5,-280.5 658.5,-299.5 697.5,-299.5 697.5,-280.5 658.5,-280.5"/>
<text text-anchor="middle" x="678" y="-287.5" font-family="Helvetica,sans-Serif" font-size="10.00">utility</text>
</a>
</g>
</g>
<!-- Node2&#45;&gt;Node36 -->
<g id="edge195" class="edge">
<title>Node2&#45;&gt;Node36</title>
<path fill="none" stroke="midnightblue" d="M648.35,-1073.23C574.51,-1071 435,-1054.66 435,-963 435,-963 435,-963 435,-681 435,-511.41 602.57,-354.54 659.41,-306.21"/>
<polygon fill="midnightblue" stroke="midnightblue" points="661.83,-308.75 667.25,-299.64 657.33,-303.38 661.83,-308.75"/>
</g>
<!-- Node54 -->
<g id="node54" class="node">
<title>Node54</title>
<g id="a_node54"><a xlink:href="material_8h.html" target="_top" xlink:title=" ">
<polygon fill="none" stroke="black" points="721.5,-896.5 721.5,-915.5 780.5,-915.5 780.5,-896.5 721.5,-896.5"/>
<text text-anchor="middle" x="751" y="-903.5" font-family="Helvetica,sans-Serif" font-size="10.00">material.h</text>
</a>
</g>
</g>
<!-- Node2&#45;&gt;Node54 -->
<g id="edge177" class="edge">
<title>Node2&#45;&gt;Node54</title>
<path fill="none" stroke="midnightblue" d="M692.86,-1064.08C697.81,-1037.72 724.65,-959.88 740.47,-924.66"/>
<polygon fill="midnightblue" stroke="midnightblue" points="743.66,-926.1 744.8,-915.57 737.34,-923.09 743.66,-926.1"/>
</g>
<!-- Node57 -->
<g id="node57" class="node">
<title>Node57</title>
<g id="a_node57"><a xlink:href="mesh_8h.html" target="_top" xlink:title=" ">
<polygon fill="none" stroke="black" points="489,-952.5 489,-971.5 537,-971.5 537,-952.5 489,-952.5"/>
<text text-anchor="middle" x="513" y="-959.5" font-family="Helvetica,sans-Serif" font-size="10.00">mesh.h</text>
</a>
</g>
</g>
<!-- Node2&#45;&gt;Node57 -->
<g id="edge186" class="edge">
<title>Node2&#45;&gt;Node57</title>
<path fill="none" stroke="midnightblue" d="M648.2,-1065.85C619.86,-1059.58 583.68,-1048.18 557,-1028 540.75,-1015.71 528.48,-995.61 521.07,-981.01"/>
<polygon fill="midnightblue" stroke="midnightblue" points="524.21,-979.45 516.74,-971.94 517.9,-982.47 524.21,-979.45"/>
</g>
<!-- Node58 -->
<g id="node58" class="node">
<title>Node58</title>
<g id="a_node58"><a xlink:href="objectinstance_8h.html" target="_top" xlink:title=" ">
<polygon fill="none" stroke="black" points="566.5,-1008.5 566.5,-1027.5 653.5,-1027.5 653.5,-1008.5 566.5,-1008.5"/>
<text text-anchor="middle" x="610" y="-1015.5" font-family="Helvetica,sans-Serif" font-size="10.00">objectinstance.h</text>
</a>
</g>
</g>
<!-- Node2&#45;&gt;Node58 -->
<g id="edge192" class="edge">
<title>Node2&#45;&gt;Node58</title>
<path fill="none" stroke="midnightblue" d="M679.66,-1064.32C666.84,-1055.98 647.22,-1043.21 632.06,-1033.35"/>
<polygon fill="midnightblue" stroke="midnightblue" points="633.59,-1030.17 623.3,-1027.65 629.78,-1036.04 633.59,-1030.17"/>
</g>
<!-- Node4 -->
<g id="node4" class="node">
<title>Node4</title>
<g id="a_node4"><a xlink:href="device_8h.html" target="_top" xlink:title=" ">
<polygon fill="none" stroke="black" points="1834.5,-280.5 1834.5,-299.5 1887.5,-299.5 1887.5,-280.5 1834.5,-280.5"/>
<text text-anchor="middle" x="1861" y="-287.5" font-family="Helvetica,sans-Serif" font-size="10.00">device.h</text>
</a>
</g>
</g>
<!-- Node3&#45;&gt;Node4 -->
<g id="edge3" class="edge">
<title>Node3&#45;&gt;Node4</title>
<path fill="none" stroke="midnightblue" d="M834.74,-840.38C871.49,-808.11 1006.03,-692.36 1130,-616 1258.29,-536.98 1327.83,-573.91 1435,-468 1481.65,-421.9 1447.46,-373.88 1501,-336 1552.42,-299.62 1743.26,-292.62 1824.26,-291.3"/>
<polygon fill="midnightblue" stroke="midnightblue" points="1824.54,-294.79 1834.49,-291.15 1824.44,-287.79 1824.54,-294.79"/>
</g>
<!-- Node5 -->
<g id="node5" class="node">
<title>Node5</title>
<g id="a_node5"><a xlink:title=" ">
<polygon fill="none" stroke="#bfbfbf" points="2978,-0.5 2978,-19.5 3062,-19.5 3062,-0.5 2978,-0.5"/>
<text text-anchor="middle" x="3020" y="-7.5" font-family="Helvetica,sans-Serif" font-size="10.00">vulkan/vulkan.h</text>
</a>
</g>
</g>
<!-- Node3&#45;&gt;Node5 -->
<g id="edge175" class="edge">
<title>Node3&#45;&gt;Node5</title>
<path fill="none" stroke="midnightblue" d="M887.55,-849.36C1136.85,-850.45 2083.71,-851.04 2861,-804 3002.37,-795.44 3495,-880.63 3495,-739 3495,-739 3495,-739 3495,-121 3495,-76.55 3459.76,-73.71 3419,-56 3357.91,-29.46 3165.71,-17.47 3072.17,-13.09"/>
<polygon fill="midnightblue" stroke="midnightblue" points="3072.23,-9.59 3062.08,-12.63 3071.91,-16.58 3072.23,-9.59"/>
</g>
<!-- Node7 -->
<g id="node7" class="node">
<title>Node7</title>
<g id="a_node7"><a xlink:title=" ">
<polygon fill="none" stroke="#bfbfbf" points="445,-0.5 445,-19.5 489,-19.5 489,-0.5 445,-0.5"/>
<text text-anchor="middle" x="467" y="-7.5" font-family="Helvetica,sans-Serif" font-size="10.00">vector</text>
</a>
</g>
</g>
<!-- Node3&#45;&gt;Node7 -->
<g id="edge176" class="edge">
<title>Node3&#45;&gt;Node7</title>
<path fill="none" stroke="midnightblue" d="M815.9,-840.37C777.99,-804.58 628.5,-664.73 497,-560 342.05,-436.59 282.83,-431.85 135,-300 105.88,-274.03 76,-274.02 76,-235 76,-235 76,-235 76,-121 76,-80.46 103.76,-74.18 140,-56 191.28,-30.28 362.37,-17.26 434.5,-12.81"/>
<polygon fill="midnightblue" stroke="midnightblue" points="435.02,-16.29 444.79,-12.2 434.6,-9.3 435.02,-16.29"/>
</g>
<!-- Node29 -->
<g id="node29" class="node">
<title>Node29</title>
<g id="a_node29"><a xlink:href="pipelinebase_8h.html" target="_top" xlink:title=" ">
<polygon fill="none" stroke="black" points="1348,-448.5 1348,-467.5 1426,-467.5 1426,-448.5 1348,-448.5"/>
<text text-anchor="middle" x="1387" y="-455.5" font-family="Helvetica,sans-Serif" font-size="10.00">pipelinebase.h</text>
</a>
</g>
</g>
<!-- Node3&#45;&gt;Node29 -->
<g id="edge58" class="edge">
<title>Node3&#45;&gt;Node29</title>
<path fill="none" stroke="midnightblue" d="M821.63,-840.45C814.17,-820.19 798.07,-767.94 813,-728 847.64,-635.34 878.89,-618.03 959,-560 1075.48,-475.62 1252.31,-460.73 1337.59,-458.76"/>
<polygon fill="midnightblue" stroke="midnightblue" points="1337.83,-462.25 1347.77,-458.57 1337.71,-455.25 1337.83,-462.25"/>
</g>
<!-- Node34 -->
<g id="node34" class="node">
<title>Node34</title>
<g id="a_node34"><a xlink:href="shader_8h.html" target="_top" xlink:title=" ">
<polygon fill="none" stroke="black" points="502.5,-336.5 502.5,-355.5 555.5,-355.5 555.5,-336.5 502.5,-336.5"/>
<text text-anchor="middle" x="529" y="-343.5" font-family="Helvetica,sans-Serif" font-size="10.00">shader.h</text>
</a>
</g>
</g>
<!-- Node3&#45;&gt;Node34 -->
<g id="edge80" class="edge">
<title>Node3&#45;&gt;Node34</title>
<path fill="none" stroke="midnightblue" d="M819.47,-840.37C796.14,-803.12 707,-651.83 707,-515 707,-515 707,-515 707,-457 707,-391.1 617.62,-363.36 565.53,-352.79"/>
<polygon fill="midnightblue" stroke="midnightblue" points="566.13,-349.34 555.65,-350.9 564.81,-356.22 566.13,-349.34"/>
</g>
<!-- Node39 -->
<g id="node39" class="node">
<title>Node39</title>
<g id="a_node39"><a xlink:href="swapchain_8h.html" target="_top" xlink:title=" ">
<polygon fill="none" stroke="black" points="1789.5,-784.5 1789.5,-803.5 1860.5,-803.5 1860.5,-784.5 1789.5,-784.5"/>
<text text-anchor="middle" x="1825" y="-791.5" font-family="Helvetica,sans-Serif" font-size="10.00">swapchain.h</text>
</a>
</g>
</g>
<!-- Node3&#45;&gt;Node39 -->
<g id="edge91" class="edge">
<title>Node3&#45;&gt;Node39</title>
<path fill="none" stroke="midnightblue" d="M887.55,-845.62C1073.12,-835.6 1617.6,-806.2 1779.25,-797.47"/>
<polygon fill="midnightblue" stroke="midnightblue" points="1779.54,-800.96 1789.33,-796.93 1779.16,-793.97 1779.54,-800.96"/>
</g>
<!-- Node42 -->
<g id="node42" class="node">
<title>Node42</title>
<g id="a_node42"><a xlink:href="renderpass_8h.html" target="_top" xlink:title=" ">
<polygon fill="none" stroke="black" points="3155,-448.5 3155,-467.5 3227,-467.5 3227,-448.5 3155,-448.5"/>
<text text-anchor="middle" x="3191" y="-455.5" font-family="Helvetica,sans-Serif" font-size="10.00">renderpass.h</text>
</a>
</g>
</g>
<!-- Node3&#45;&gt;Node42 -->
<g id="edge174" class="edge">
<title>Node3&#45;&gt;Node42</title>
<path fill="none" stroke="midnightblue" d="M887.52,-848.03C1282.83,-841.7 3419,-804.45 3419,-739 3419,-739 3419,-739 3419,-569 3419,-489.11 3304.05,-467.21 3237.39,-461.23"/>
<polygon fill="midnightblue" stroke="midnightblue" points="3237.38,-457.72 3227.13,-460.4 3236.81,-464.7 3237.38,-457.72"/>
</g>
<!-- Node4&#45;&gt;Node5 -->
<g id="edge4" class="edge">
<title>Node4&#45;&gt;Node5</title>
<path fill="none" stroke="midnightblue" d="M1873.21,-280.24C1883.35,-272.14 1897.04,-259.11 1903,-244 1915.39,-212.58 1921.06,-196.54 1903,-168 1883.01,-136.42 1846.99,-163.58 1827,-132 1822.25,-124.49 1823.07,-119.97 1827,-112 1845.09,-75.33 1861.55,-69.92 1900,-56 2001,-19.45 2760.77,-12.47 2967.95,-11.25"/>
<polygon fill="midnightblue" stroke="midnightblue" points="2967.99,-14.75 2977.97,-11.19 2967.95,-7.75 2967.99,-14.75"/>
</g>
<!-- Node6 -->
<g id="node6" class="node">
<title>Node6</title>
<g id="a_node6"><a xlink:title=" ">
<polygon fill="none" stroke="#bfbfbf" points="2554.5,-56.5 2554.5,-75.5 2641.5,-75.5 2641.5,-56.5 2554.5,-56.5"/>
<text text-anchor="middle" x="2598" y="-63.5" font-family="Helvetica,sans-Serif" font-size="10.00">vk_mem_alloc.h</text>
</a>
</g>
</g>
<!-- Node4&#45;&gt;Node6 -->
<g id="edge5" class="edge">
<title>Node4&#45;&gt;Node6</title>
<path fill="none" stroke="midnightblue" d="M1887.51,-286.49C1939.77,-281.22 2059.59,-267.49 2158,-244 2308.65,-208.04 2347.55,-197.3 2488,-132 2520.21,-117.03 2555.16,-95.35 2576.82,-81.22"/>
<polygon fill="midnightblue" stroke="midnightblue" points="2578.82,-84.09 2585.25,-75.67 2574.97,-78.25 2578.82,-84.09"/>
</g>
<!-- Node4&#45;&gt;Node7 -->
<g id="edge6" class="edge">
<title>Node4&#45;&gt;Node7</title>
<path fill="none" stroke="midnightblue" d="M1834.42,-288.05C1753.17,-284.86 1509.19,-273.04 1436,-244 1384.11,-223.41 1385.05,-194.65 1336,-168 1294.49,-145.45 1276.05,-157.05 1236,-132 1194.97,-106.33 1202.22,-75.68 1158,-56 1097.43,-29.05 628.26,-15.13 499.56,-11.8"/>
<polygon fill="midnightblue" stroke="midnightblue" points="499.28,-8.29 489.19,-11.53 499.1,-15.29 499.28,-8.29"/>
</g>
<!-- Node8 -->
<g id="node8" class="node">
<title>Node8</title>
<g id="a_node8"><a xlink:title=" ">
<polygon fill="none" stroke="#bfbfbf" points="779.5,-56.5 779.5,-75.5 838.5,-75.5 838.5,-56.5 779.5,-56.5"/>
<text text-anchor="middle" x="809" y="-63.5" font-family="Helvetica,sans-Serif" font-size="10.00">stdexcept</text>
</a>
</g>
</g>
<!-- Node4&#45;&gt;Node8 -->
<g id="edge7" class="edge">
<title>Node4&#45;&gt;Node8</title>
<path fill="none" stroke="midnightblue" d="M1834.38,-288.89C1762.61,-288.07 1559.47,-282.27 1396,-244 1235.34,-206.38 1207.83,-156.71 1049,-112 979.62,-92.47 896.53,-79.03 848.55,-72.21"/>
<polygon fill="midnightblue" stroke="midnightblue" points="848.96,-68.73 838.57,-70.81 847.99,-75.66 848.96,-68.73"/>
</g>
<!-- Node9 -->
<g id="node9" class="node">
<title>Node9</title>
<g id="a_node9"><a xlink:title=" ">
<polygon fill="none" stroke="#bfbfbf" points="1210.5,-56.5 1210.5,-75.5 1251.5,-75.5 1251.5,-56.5 1210.5,-56.5"/>
<text text-anchor="middle" x="1231" y="-63.5" font-family="Helvetica,sans-Serif" font-size="10.00">string</text>
</a>
</g>
</g>
<!-- Node4&#45;&gt;Node9 -->
<g id="edge8" class="edge">
<title>Node4&#45;&gt;Node9</title>
<path fill="none" stroke="midnightblue" d="M1834.24,-287.78C1757.52,-283.97 1538.09,-270.97 1472,-244 1420.97,-223.18 1423.06,-193.12 1374,-168 1323.68,-142.23 1292.48,-171.46 1252,-132 1239.67,-119.98 1234.57,-100.69 1232.47,-86.24"/>
<polygon fill="midnightblue" stroke="midnightblue" points="1235.91,-85.48 1231.34,-75.92 1228.95,-86.24 1235.91,-85.48"/>
</g>
<!-- Node10 -->
<g id="node10" class="node">
<title>Node10</title>
<g id="a_node10"><a xlink:title=" ">
<polygon fill="none" stroke="#bfbfbf" points="1846,-168.5 1846,-187.5 1876,-187.5 1876,-168.5 1846,-168.5"/>
<text text-anchor="middle" x="1861" y="-175.5" font-family="Helvetica,sans-Serif" font-size="10.00">set</text>
</a>
</g>
</g>
<!-- Node4&#45;&gt;Node10 -->
<g id="edge9" class="edge">
<title>Node4&#45;&gt;Node10</title>
<path fill="none" stroke="midnightblue" d="M1861,-280.37C1861,-262.62 1861,-221.67 1861,-197.6"/>
<polygon fill="midnightblue" stroke="midnightblue" points="1864.5,-197.59 1861,-187.59 1857.5,-197.59 1864.5,-197.59"/>
</g>
<!-- Node11 -->
<g id="node11" class="node">
<title>Node11</title>
<g id="a_node11"><a xlink:title=" ">
<polygon fill="none" stroke="#bfbfbf" points="1449,-0.5 1449,-19.5 1495,-19.5 1495,-0.5 1449,-0.5"/>
<text text-anchor="middle" x="1472" y="-7.5" font-family="Helvetica,sans-Serif" font-size="10.00">cstring</text>
</a>
</g>
</g>
<!-- Node4&#45;&gt;Node11 -->
<g id="edge10" class="edge">
<title>Node4&#45;&gt;Node11</title>
<path fill="none" stroke="midnightblue" d="M1834.22,-287.08C1768.03,-282.02 1598.35,-267.11 1547,-244 1511.92,-228.21 1498.04,-222.49 1481,-188 1455.15,-135.69 1462.66,-63.75 1468.29,-29.97"/>
<polygon fill="midnightblue" stroke="midnightblue" points="1471.81,-30.17 1470.15,-19.71 1464.92,-28.92 1471.81,-30.17"/>
</g>
<!-- Node12 -->
<g id="node12" class="node">
<title>Node12</title>
<g id="a_node12"><a xlink:title=" ">
<polygon fill="none" stroke="#bfbfbf" points="1629,-0.5 1629,-19.5 1683,-19.5 1683,-0.5 1629,-0.5"/>
<text text-anchor="middle" x="1656" y="-7.5" font-family="Helvetica,sans-Serif" font-size="10.00">iostream</text>
</a>
</g>
</g>
<!-- Node4&#45;&gt;Node12 -->
<g id="edge11" class="edge">
<title>Node4&#45;&gt;Node12</title>
<path fill="none" stroke="midnightblue" d="M1866.84,-280.36C1880.49,-258.97 1911.42,-202.8 1885,-168 1849.01,-120.59 1805.92,-164.43 1756,-132 1714.26,-104.88 1681.17,-54.86 1665.64,-28.42"/>
<polygon fill="midnightblue" stroke="midnightblue" points="1668.57,-26.49 1660.57,-19.54 1662.49,-29.96 1668.57,-26.49"/>
</g>
<!-- Node13 -->
<g id="node13" class="node">
<title>Node13</title>
<g id="a_node13"><a xlink:title=" ">
<polygon fill="none" stroke="#bfbfbf" points="2371.5,-112.5 2371.5,-131.5 2412.5,-131.5 2412.5,-112.5 2371.5,-112.5"/>
<text text-anchor="middle" x="2392" y="-119.5" font-family="Helvetica,sans-Serif" font-size="10.00">bitset</text>
</a>
</g>
</g>
<!-- Node4&#45;&gt;Node13 -->
<g id="edge12" class="edge">
<title>Node4&#45;&gt;Node13</title>
<path fill="none" stroke="midnightblue" d="M1887.81,-284.26C1927.23,-277.02 2002.97,-262.15 2066,-244 2136.79,-223.62 2153.52,-215.15 2222,-188 2242.72,-179.79 2247.29,-176.25 2268,-168 2299.6,-155.41 2336.28,-142.28 2361.5,-133.48"/>
<polygon fill="midnightblue" stroke="midnightblue" points="2362.93,-136.68 2371.23,-130.1 2360.63,-130.07 2362.93,-136.68"/>
</g>
<!-- Node14 -->
<g id="node14" class="node">
<title>Node14</title>
<g id="a_node14"><a xlink:title=" ">
<polygon fill="none" stroke="#bfbfbf" points="1502.5,-168.5 1502.5,-187.5 1553.5,-187.5 1553.5,-168.5 1502.5,-168.5"/>
<text text-anchor="middle" x="1528" y="-175.5" font-family="Helvetica,sans-Serif" font-size="10.00">memory</text>
</a>
</g>
</g>
<!-- Node4&#45;&gt;Node14 -->
<g id="edge13" class="edge">
<title>Node4&#45;&gt;Node14</title>
<path fill="none" stroke="midnightblue" d="M1834.39,-280.93C1805.43,-272.09 1757.81,-257.39 1717,-244 1662.37,-226.07 1599.28,-204.12 1561.57,-190.87"/>
<polygon fill="midnightblue" stroke="midnightblue" points="1562.69,-187.55 1552.09,-187.53 1560.36,-194.15 1562.69,-187.55"/>
</g>
<!-- Node15 -->
<g id="node15" class="node">
<title>Node15</title>
<g id="a_node15"><a xlink:href="physicaldevice_8h.html" target="_top" xlink:title=" ">
<polygon fill="none" stroke="black" points="1726,-224.5 1726,-243.5 1814,-243.5 1814,-224.5 1726,-224.5"/>
<text text-anchor="middle" x="1770" y="-231.5" font-family="Helvetica,sans-Serif" font-size="10.00">physicaldevice.h</text>
</a>
</g>
</g>
<!-- Node4&#45;&gt;Node15 -->
<g id="edge14" class="edge">
<title>Node4&#45;&gt;Node15</title>
<path fill="none" stroke="midnightblue" d="M1846.38,-280.32C1832.05,-271.82 1809.99,-258.73 1793.25,-248.8"/>
<polygon fill="midnightblue" stroke="midnightblue" points="1794.97,-245.75 1784.58,-243.65 1791.4,-251.77 1794.97,-245.75"/>
</g>
<!-- Node20 -->
<g id="node20" class="node">
<title>Node20</title>
<g id="a_node20"><a xlink:href="instance_8h.html" target="_top" xlink:title=" ">
<polygon fill="none" stroke="black" points="1490.5,-56.5 1490.5,-75.5 1551.5,-75.5 1551.5,-56.5 1490.5,-56.5"/>
<text text-anchor="middle" x="1521" y="-63.5" font-family="Helvetica,sans-Serif" font-size="10.00">instance.h</text>
</a>
</g>
</g>
<!-- Node4&#45;&gt;Node20 -->
<g id="edge57" class="edge">
<title>Node4&#45;&gt;Node20</title>
<path fill="none" stroke="midnightblue" d="M1834.37,-285.97C1756.74,-276.54 1533.56,-244.82 1493,-188 1470.34,-156.25 1493.68,-108.96 1509.33,-83.94"/>
<polygon fill="midnightblue" stroke="midnightblue" points="1512.29,-85.8 1514.84,-75.52 1506.44,-81.97 1512.29,-85.8"/>
</g>
<!-- Node15&#45;&gt;Node7 -->
<g id="edge20" class="edge">
<title>Node15&#45;&gt;Node7</title>
<path fill="none" stroke="midnightblue" d="M1751.14,-224.4C1731.72,-215.49 1700.61,-201.05 1674,-188 1656.51,-179.42 1653.08,-175.26 1635,-168 1473.6,-103.15 1431.33,-86.02 1260,-56 1110.05,-29.73 628.88,-15.3 499.36,-11.83"/>
<polygon fill="midnightblue" stroke="midnightblue" points="499.38,-8.33 489.29,-11.56 499.19,-15.33 499.38,-8.33"/>
</g>
<!-- Node15&#45;&gt;Node9 -->
<g id="edge16" class="edge">
<title>Node15&#45;&gt;Node9</title>
<path fill="none" stroke="midnightblue" d="M1744.23,-224.36C1718.63,-215.65 1678.34,-201.58 1644,-188 1623.27,-179.8 1619.54,-173.75 1598,-168 1459.3,-130.97 1400.62,-204.98 1277,-132 1258.82,-121.26 1245.95,-100.2 1238.54,-84.95"/>
<polygon fill="midnightblue" stroke="midnightblue" points="1241.58,-83.19 1234.28,-75.53 1235.21,-86.08 1241.58,-83.19"/>
</g>
<!-- Node15&#45;&gt;Node10 -->
<g id="edge17" class="edge">
<title>Node15&#45;&gt;Node10</title>
<path fill="none" stroke="midnightblue" d="M1784.62,-224.32C1798.95,-215.82 1821.01,-202.73 1837.75,-192.8"/>
<polygon fill="midnightblue" stroke="midnightblue" points="1839.6,-195.77 1846.42,-187.65 1836.03,-189.75 1839.6,-195.77"/>
</g>
<!-- Node15&#45;&gt;Node12 -->
<g id="edge18" class="edge">
<title>Node15&#45;&gt;Node12</title>
<path fill="none" stroke="midnightblue" d="M1762.32,-224.11C1751.43,-211.55 1730.83,-187.89 1713,-168 1698.51,-151.84 1689.81,-151.36 1680,-132 1663.12,-98.68 1658.1,-54.61 1656.62,-29.9"/>
<polygon fill="midnightblue" stroke="midnightblue" points="1660.1,-29.56 1656.14,-19.73 1653.11,-29.88 1660.1,-29.56"/>
</g>
<!-- Node15&#45;&gt;Node13 -->
<g id="edge19" class="edge">
<title>Node15&#45;&gt;Node13</title>
<path fill="none" stroke="midnightblue" d="M1814.11,-232.94C1891.18,-231.8 2054.77,-224.8 2187,-188 2207.31,-182.35 2210.22,-175.29 2230,-168 2254.12,-159.11 2321.76,-141.14 2361.6,-130.81"/>
<polygon fill="midnightblue" stroke="midnightblue" points="2362.52,-134.18 2371.32,-128.29 2360.77,-127.41 2362.52,-134.18"/>
</g>
<!-- Node15&#45;&gt;Node14 -->
<g id="edge21" class="edge">
<title>Node15&#45;&gt;Node14</title>
<path fill="none" stroke="midnightblue" d="M1731.65,-224.48C1691.01,-215.45 1624.97,-200.76 1568,-188 1566.57,-187.68 1565.11,-187.35 1563.63,-187.02"/>
<polygon fill="midnightblue" stroke="midnightblue" points="1564.34,-183.59 1553.82,-184.82 1562.81,-190.42 1564.34,-183.59"/>
</g>
<!-- Node16 -->
<g id="node16" class="node">
<title>Node16</title>
<g id="a_node16"><a xlink:title=" ">
<polygon fill="none" stroke="#bfbfbf" points="932,-112.5 932,-131.5 1040,-131.5 1040,-112.5 932,-112.5"/>
<text text-anchor="middle" x="986" y="-119.5" font-family="Helvetica,sans-Serif" font-size="10.00">vulkan/vulkan_core.h</text>
</a>
</g>
</g>
<!-- Node15&#45;&gt;Node16 -->
<g id="edge15" class="edge">
<title>Node15&#45;&gt;Node16</title>
<path fill="none" stroke="midnightblue" d="M1732.35,-224.47C1698.76,-216.44 1648.48,-203.37 1606,-188 1585.8,-180.69 1582.8,-173.36 1562,-168 1466.84,-143.47 1179.91,-130.13 1050.52,-125.22"/>
<polygon fill="midnightblue" stroke="midnightblue" points="1050.48,-121.71 1040.36,-124.84 1050.22,-128.71 1050.48,-121.71"/>
</g>
<!-- Node17 -->
<g id="node17" class="node">
<title>Node17</title>
<g id="a_node17"><a xlink:href="types_8h.html" target="_top" xlink:title=" ">
<polygon fill="none" stroke="black" points="1780.5,-168.5 1780.5,-187.5 1827.5,-187.5 1827.5,-168.5 1780.5,-168.5"/>
<text text-anchor="middle" x="1804" y="-175.5" font-family="Helvetica,sans-Serif" font-size="10.00">types.h</text>
</a>
</g>
</g>
<!-- Node15&#45;&gt;Node17 -->
<g id="edge22" class="edge">
<title>Node15&#45;&gt;Node17</title>
<path fill="none" stroke="midnightblue" d="M1775.61,-224.08C1780.37,-216.53 1787.32,-205.49 1793.15,-196.23"/>
<polygon fill="midnightblue" stroke="midnightblue" points="1796.12,-198.08 1798.49,-187.75 1790.2,-194.35 1796.12,-198.08"/>
</g>
<!-- Node19 -->
<g id="node19" class="node">
<title>Node19</title>
<g id="a_node19"><a xlink:href="vulkanclass_8h.html" target="_top" xlink:title=" ">
<polygon fill="none" stroke="black" points="2849,-56.5 2849,-75.5 2925,-75.5 2925,-56.5 2849,-56.5"/>
<text text-anchor="middle" x="2887" y="-63.5" font-family="Helvetica,sans-Serif" font-size="10.00">vulkanclass.h</text>
</a>
</g>
</g>
<!-- Node15&#45;&gt;Node19 -->
<g id="edge26" class="edge">
<title>Node15&#45;&gt;Node19</title>
<path fill="none" stroke="midnightblue" d="M1814.13,-230.05C1895.21,-224.32 2073.23,-210.23 2222,-188 2392.34,-162.55 2432.46,-142.33 2602,-112 2684.86,-97.18 2781.74,-82.43 2838.53,-74.04"/>
<polygon fill="midnightblue" stroke="midnightblue" points="2839.27,-77.47 2848.66,-72.55 2838.25,-70.54 2839.27,-77.47"/>
</g>
<!-- Node15&#45;&gt;Node20 -->
<g id="edge28" class="edge">
<title>Node15&#45;&gt;Node20</title>
<path fill="none" stroke="midnightblue" d="M1753.74,-224.31C1708.99,-197.42 1585.62,-115.35 1538.96,-81.67"/>
<polygon fill="midnightblue" stroke="midnightblue" points="1540.83,-78.7 1530.7,-75.61 1536.69,-84.34 1540.83,-78.7"/>
</g>
<!-- Node22 -->
<g id="node22" class="node">
<title>Node22</title>
<g id="a_node22"><a xlink:href="queues_8h.html" target="_top" xlink:title=" ">
<polygon fill="none" stroke="black" points="2122,-168.5 2122,-187.5 2178,-187.5 2178,-168.5 2122,-168.5"/>
<text text-anchor="middle" x="2150" y="-175.5" font-family="Helvetica,sans-Serif" font-size="10.00">queues.h</text>
</a>
</g>
</g>
<!-- Node15&#45;&gt;Node22 -->
<g id="edge35" class="edge">
<title>Node15&#45;&gt;Node22</title>
<path fill="none" stroke="midnightblue" d="M1814.2,-226.05C1889.26,-214.97 2040.09,-193.56 2111.28,-183.92"/>
<polygon fill="midnightblue" stroke="midnightblue" points="2112.15,-187.34 2121.59,-182.53 2111.21,-180.4 2112.15,-187.34"/>
</g>
<!-- Node17&#45;&gt;Node5 -->
<g id="edge23" class="edge">
<title>Node17&#45;&gt;Node5</title>
<path fill="none" stroke="midnightblue" d="M1799.87,-168.26C1794.43,-155.47 1786.4,-131.09 1794,-112 1806.68,-80.16 1815.79,-70.15 1847,-56 1949.84,-9.38 2753.72,-9.75 2967.78,-10.69"/>
<polygon fill="midnightblue" stroke="midnightblue" points="2967.8,-14.19 2977.82,-10.74 2967.83,-7.19 2967.8,-14.19"/>
</g>
<!-- Node17&#45;&gt;Node7 -->
<g id="edge24" class="edge">
<title>Node17&#45;&gt;Node7</title>
<path fill="none" stroke="midnightblue" d="M1780.38,-169.37C1704.26,-144.92 1465.73,-69.31 1386,-56 1209.98,-26.63 641.18,-14.25 499.3,-11.57"/>
<polygon fill="midnightblue" stroke="midnightblue" points="499.15,-8.07 489.09,-11.38 499.02,-15.07 499.15,-8.07"/>
</g>
<!-- Node18 -->
<g id="node18" class="node">
<title>Node18</title>
<g id="a_node18"><a xlink:title=" ">
<polygon fill="none" stroke="#bfbfbf" points="1836,-112.5 1836,-131.5 1886,-131.5 1886,-112.5 1836,-112.5"/>
<text text-anchor="middle" x="1861" y="-119.5" font-family="Helvetica,sans-Serif" font-size="10.00">optional</text>
</a>
</g>
</g>
<!-- Node17&#45;&gt;Node18 -->
<g id="edge25" class="edge">
<title>Node17&#45;&gt;Node18</title>
<path fill="none" stroke="midnightblue" d="M1813.16,-168.32C1821.5,-160.42 1834.03,-148.55 1844.18,-138.94"/>
<polygon fill="midnightblue" stroke="midnightblue" points="1846.82,-141.25 1851.68,-131.83 1842.01,-136.17 1846.82,-141.25"/>
</g>
<!-- Node19&#45;&gt;Node5 -->
<g id="edge27" class="edge">
<title>Node19&#45;&gt;Node5</title>
<path fill="none" stroke="midnightblue" d="M2908.07,-56.44C2930.06,-47.52 2964.73,-33.44 2989.66,-23.32"/>
<polygon fill="midnightblue" stroke="midnightblue" points="2991.08,-26.52 2999.02,-19.52 2988.44,-20.04 2991.08,-26.52"/>
</g>
<!-- Node20&#45;&gt;Node5 -->
<g id="edge29" class="edge">
<title>Node20&#45;&gt;Node5</title>
<path fill="none" stroke="midnightblue" d="M1551.88,-58.12C1556.59,-57.28 1561.41,-56.53 1566,-56 1845.71,-23.93 2741.11,-13.59 2967.57,-11.45"/>
<polygon fill="midnightblue" stroke="midnightblue" points="2967.88,-14.95 2977.85,-11.36 2967.81,-7.95 2967.88,-14.95"/>
</g>
<!-- Node20&#45;&gt;Node7 -->
<g id="edge31" class="edge">
<title>Node20&#45;&gt;Node7</title>
<path fill="none" stroke="midnightblue" d="M1490.12,-58.18C1485.41,-57.32 1480.59,-56.56 1476,-56 1093.75,-9.53 624.83,-9.67 499.21,-10.65"/>
<polygon fill="midnightblue" stroke="midnightblue" points="499.08,-7.15 489.11,-10.74 499.14,-14.15 499.08,-7.15"/>
</g>
<!-- Node20&#45;&gt;Node11 -->
<g id="edge32" class="edge">
<title>Node20&#45;&gt;Node11</title>
<path fill="none" stroke="midnightblue" d="M1512.91,-56.08C1505.84,-48.3 1495.41,-36.8 1486.85,-27.37"/>
<polygon fill="midnightblue" stroke="midnightblue" points="1489.25,-24.8 1479.94,-19.75 1484.07,-29.51 1489.25,-24.8"/>
</g>
<!-- Node20&#45;&gt;Node12 -->
<g id="edge33" class="edge">
<title>Node20&#45;&gt;Node12</title>
<path fill="none" stroke="midnightblue" d="M1542.39,-56.44C1564.71,-47.52 1599.9,-33.44 1625.21,-23.32"/>
<polygon fill="midnightblue" stroke="midnightblue" points="1626.72,-26.48 1634.71,-19.52 1624.12,-19.98 1626.72,-26.48"/>
</g>
<!-- Node20&#45;&gt;Node15 -->
<g id="edge34" class="edge">
<title>Node20&#45;&gt;Node15</title>
<path fill="none" stroke="midnightblue" d="M1537.12,-75.61C1581.7,-102.38 1705.07,-184.44 1751.89,-218.23"/>
<polygon fill="midnightblue" stroke="midnightblue" points="1750.05,-221.22 1760.19,-224.31 1754.19,-215.57 1750.05,-221.22"/>
</g>
<!-- Node21 -->
<g id="node21" class="node">
<title>Node21</title>
<g id="a_node21"><a xlink:title=" ">
<polygon fill="none" stroke="#bfbfbf" points="1275.5,-0.5 1275.5,-19.5 1354.5,-19.5 1354.5,-0.5 1275.5,-0.5"/>
<text text-anchor="middle" x="1315" y="-7.5" font-family="Helvetica,sans-Serif" font-size="10.00">GLFW/glfw3.h</text>
</a>
</g>
</g>
<!-- Node20&#45;&gt;Node21 -->
<g id="edge30" class="edge">
<title>Node20&#45;&gt;Node21</title>
<path fill="none" stroke="midnightblue" d="M1490.16,-56.92C1454.95,-47.69 1397.13,-32.53 1357.63,-22.17"/>
<polygon fill="midnightblue" stroke="midnightblue" points="1358.32,-18.74 1347.76,-19.59 1356.54,-25.51 1358.32,-18.74"/>
</g>
<!-- Node22&#45;&gt;Node4 -->
<g id="edge45" class="edge">
<title>Node22&#45;&gt;Node4</title>
<path fill="none" stroke="midnightblue" d="M2137.08,-187.52C2115.91,-201.14 2072.18,-227.93 2032,-244 1987.12,-261.95 1932.76,-274.84 1897.56,-282.11"/>
<polygon fill="midnightblue" stroke="midnightblue" points="1896.83,-278.68 1887.72,-284.09 1898.21,-285.55 1896.83,-278.68"/>
</g>
<!-- Node22&#45;&gt;Node7 -->
<g id="edge37" class="edge">
<title>Node22&#45;&gt;Node7</title>
<path fill="none" stroke="midnightblue" d="M2121.93,-169.96C2086.84,-161.15 2024.95,-145.57 1972,-132 1937.75,-123.22 1929.58,-119.37 1895,-112 1747.36,-80.55 1710.15,-71.58 1560,-56 1142.45,-12.68 631.12,-10.62 499.23,-10.86"/>
<polygon fill="midnightblue" stroke="midnightblue" points="499.01,-7.36 489.02,-10.89 499.03,-14.36 499.01,-7.36"/>
</g>
<!-- Node22&#45;&gt;Node13 -->
<g id="edge41" class="edge">
<title>Node22&#45;&gt;Node13</title>
<path fill="none" stroke="midnightblue" d="M2178.3,-170.91C2230.85,-159.59 2339.73,-136.1 2357,-132 2358.45,-131.66 2359.93,-131.3 2361.43,-130.93"/>
<polygon fill="midnightblue" stroke="midnightblue" points="2362.45,-134.28 2371.3,-128.46 2360.75,-127.49 2362.45,-134.28"/>
</g>
<!-- Node22&#45;&gt;Node15 -->
<g id="edge46" class="edge">
<title>Node22&#45;&gt;Node15</title>
<path fill="none" stroke="midnightblue" d="M2121.67,-183.59C2058.63,-193.04 1906.45,-214.7 1824.42,-225.94"/>
<polygon fill="midnightblue" stroke="midnightblue" points="1823.72,-222.5 1814.29,-227.32 1824.67,-229.44 1823.72,-222.5"/>
</g>
<!-- Node22&#45;&gt;Node16 -->
<g id="edge36" class="edge">
<title>Node22&#45;&gt;Node16</title>
<path fill="none" stroke="midnightblue" d="M2121.8,-175.69C1972.01,-168.74 1268.18,-136.09 1050.39,-125.99"/>
<polygon fill="midnightblue" stroke="midnightblue" points="1050.24,-122.48 1040.09,-125.51 1049.91,-129.47 1050.24,-122.48"/>
</g>
<!-- Node22&#45;&gt;Node18 -->
<g id="edge40" class="edge">
<title>Node22&#45;&gt;Node18</title>
<path fill="none" stroke="midnightblue" d="M2121.76,-171.72C2068.68,-161.81 1954.15,-140.41 1896.16,-129.57"/>
<polygon fill="midnightblue" stroke="midnightblue" points="1896.5,-126.07 1886.02,-127.68 1895.21,-132.95 1896.5,-126.07"/>
</g>
<!-- Node22&#45;&gt;Node19 -->
<g id="edge44" class="edge">
<title>Node22&#45;&gt;Node19</title>
<path fill="none" stroke="midnightblue" d="M2178.08,-169.31C2179.74,-168.86 2181.39,-168.42 2183,-168 2245.53,-151.49 2263.51,-154.9 2324,-132 2342.22,-125.1 2344.28,-117.38 2363,-112 2451.61,-86.54 2726.5,-73.25 2838.63,-68.77"/>
<polygon fill="midnightblue" stroke="midnightblue" points="2838.79,-72.26 2848.65,-68.37 2838.52,-65.27 2838.79,-72.26"/>
</g>
<!-- Node23 -->
<g id="node23" class="node">
<title>Node23</title>
<g id="a_node23"><a xlink:title=" ">
<polygon fill="none" stroke="#bfbfbf" points="2205.5,-112.5 2205.5,-131.5 2240.5,-131.5 2240.5,-112.5 2205.5,-112.5"/>
<text text-anchor="middle" x="2223" y="-119.5" font-family="Helvetica,sans-Serif" font-size="10.00">map</text>
</a>
</g>
</g>
<!-- Node22&#45;&gt;Node23 -->
<g id="edge38" class="edge">
<title>Node22&#45;&gt;Node23</title>
<path fill="none" stroke="midnightblue" d="M2161.73,-168.32C2172.84,-160.11 2189.74,-147.6 2202.98,-137.81"/>
<polygon fill="midnightblue" stroke="midnightblue" points="2205.1,-140.59 2211.06,-131.83 2200.94,-134.97 2205.1,-140.59"/>
</g>
<!-- Node24 -->
<g id="node24" class="node">
<title>Node24</title>
<g id="a_node24"><a xlink:title=" ">
<polygon fill="none" stroke="#bfbfbf" points="2259,-112.5 2259,-131.5 2315,-131.5 2315,-112.5 2259,-112.5"/>
<text text-anchor="middle" x="2287" y="-119.5" font-family="Helvetica,sans-Serif" font-size="10.00">algorithm</text>
</a>
</g>
</g>
<!-- Node22&#45;&gt;Node24 -->
<g id="edge39" class="edge">
<title>Node22&#45;&gt;Node24</title>
<path fill="none" stroke="midnightblue" d="M2171.71,-168.44C2194.35,-159.52 2230.07,-145.44 2255.75,-135.32"/>
<polygon fill="midnightblue" stroke="midnightblue" points="2257.37,-138.44 2265.39,-131.52 2254.81,-131.93 2257.37,-138.44"/>
</g>
<!-- Node25 -->
<g id="node25" class="node">
<title>Node25</title>
<g id="a_node25"><a xlink:title=" ">
<polygon fill="none" stroke="#bfbfbf" points="2082,-112.5 2082,-131.5 2126,-131.5 2126,-112.5 2082,-112.5"/>
<text text-anchor="middle" x="2104" y="-119.5" font-family="Helvetica,sans-Serif" font-size="10.00">thread</text>
</a>
</g>
</g>
<!-- Node22&#45;&gt;Node25 -->
<g id="edge42" class="edge">
<title>Node22&#45;&gt;Node25</title>
<path fill="none" stroke="midnightblue" d="M2142.4,-168.08C2135.77,-160.3 2125.98,-148.8 2117.94,-139.37"/>
<polygon fill="midnightblue" stroke="midnightblue" points="2120.6,-137.09 2111.45,-131.75 2115.27,-141.63 2120.6,-137.09"/>
</g>
<!-- Node26 -->
<g id="node26" class="node">
<title>Node26</title>
<g id="a_node26"><a xlink:title=" ">
<polygon fill="none" stroke="#bfbfbf" points="2144.5,-112.5 2144.5,-131.5 2187.5,-131.5 2187.5,-112.5 2144.5,-112.5"/>
<text text-anchor="middle" x="2166" y="-119.5" font-family="Helvetica,sans-Serif" font-size="10.00">mutex</text>
</a>
</g>
</g>
<!-- Node22&#45;&gt;Node26 -->
<g id="edge43" class="edge">
<title>Node22&#45;&gt;Node26</title>
<path fill="none" stroke="midnightblue" d="M2152.64,-168.08C2154.79,-160.85 2157.88,-150.41 2160.55,-141.4"/>
<polygon fill="midnightblue" stroke="midnightblue" points="2163.92,-142.33 2163.41,-131.75 2157.21,-140.34 2163.92,-142.33"/>
</g>
<!-- Node27 -->
<g id="node27" class="node">
<title>Node27</title>
<g id="a_node27"><a xlink:href="window_8h.html" target="_top" xlink:title=" ">
<polygon fill="none" stroke="black" points="1286.5,-112.5 1286.5,-131.5 1343.5,-131.5 1343.5,-112.5 1286.5,-112.5"/>
<text text-anchor="middle" x="1315" y="-119.5" font-family="Helvetica,sans-Serif" font-size="10.00">window.h</text>
</a>
</g>
</g>
<!-- Node22&#45;&gt;Node27 -->
<g id="edge47" class="edge">
<title>Node22&#45;&gt;Node27</title>
<path fill="none" stroke="midnightblue" d="M2121.74,-175.17C1997.23,-167.12 1497.42,-134.8 1353.79,-125.51"/>
<polygon fill="midnightblue" stroke="midnightblue" points="1353.89,-122.01 1343.68,-124.85 1353.44,-128.99 1353.89,-122.01"/>
</g>
<!-- Node28 -->
<g id="node28" class="node">
<title>Node28</title>
<g id="a_node28"><a xlink:href="fence_8h.html" target="_top" xlink:title=" ">
<polygon fill="none" stroke="black" points="2431,-112.5 2431,-131.5 2479,-131.5 2479,-112.5 2431,-112.5"/>
<text text-anchor="middle" x="2455" y="-119.5" font-family="Helvetica,sans-Serif" font-size="10.00">fence.h</text>
</a>
</g>
</g>
<!-- Node22&#45;&gt;Node28 -->
<g id="edge52" class="edge">
<title>Node22&#45;&gt;Node28</title>
<path fill="none" stroke="midnightblue" d="M2178.37,-173.28C2226.35,-166.78 2326.69,-152.29 2420.94,-132.04"/>
<polygon fill="midnightblue" stroke="midnightblue" points="2421.89,-135.42 2430.92,-129.87 2420.4,-128.58 2421.89,-135.42"/>
</g>
<!-- Node27&#45;&gt;Node8 -->
<g id="edge50" class="edge">
<title>Node27&#45;&gt;Node8</title>
<path fill="none" stroke="midnightblue" d="M1286.35,-117.94C1200.82,-108.81 947.22,-81.75 848.73,-71.24"/>
<polygon fill="midnightblue" stroke="midnightblue" points="848.92,-67.74 838.6,-70.16 848.17,-74.7 848.92,-67.74"/>
</g>
<!-- Node27&#45;&gt;Node9 -->
<g id="edge49" class="edge">
<title>Node27&#45;&gt;Node9</title>
<path fill="none" stroke="midnightblue" d="M1301.5,-112.32C1288.4,-103.9 1268.29,-90.97 1252.89,-81.07"/>
<polygon fill="midnightblue" stroke="midnightblue" points="1254.77,-78.12 1244.46,-75.65 1250.98,-84.01 1254.77,-78.12"/>
</g>
<!-- Node27&#45;&gt;Node20 -->
<g id="edge51" class="edge">
<title>Node27&#45;&gt;Node20</title>
<path fill="none" stroke="midnightblue" d="M1343.64,-113.49C1379.21,-104.17 1440.11,-88.2 1480.46,-77.63"/>
<polygon fill="midnightblue" stroke="midnightblue" points="1481.46,-80.98 1490.25,-75.06 1479.69,-74.21 1481.46,-80.98"/>
</g>
<!-- Node27&#45;&gt;Node21 -->
<g id="edge48" class="edge">
<title>Node27&#45;&gt;Node21</title>
<path fill="none" stroke="midnightblue" d="M1315,-112.37C1315,-94.62 1315,-53.67 1315,-29.6"/>
<polygon fill="midnightblue" stroke="midnightblue" points="1318.5,-29.59 1315,-19.59 1311.5,-29.59 1318.5,-29.59"/>
</g>
<!-- Node28&#45;&gt;Node4 -->
<g id="edge56" class="edge">
<title>Node28&#45;&gt;Node4</title>
<path fill="none" stroke="midnightblue" d="M2434.36,-131.54C2381.36,-153.18 2235.81,-210.79 2110,-244 2035.8,-263.58 1946.93,-277.39 1897.95,-284.19"/>
<polygon fill="midnightblue" stroke="midnightblue" points="1897.27,-280.75 1887.84,-285.57 1898.22,-287.69 1897.27,-280.75"/>
</g>
<!-- Node28&#45;&gt;Node5 -->
<g id="edge53" class="edge">
<title>Node28&#45;&gt;Node5</title>
<path fill="none" stroke="midnightblue" d="M2463.61,-112.38C2478.76,-97.84 2511.81,-68.77 2546,-56 2622.16,-27.55 2861.12,-16.26 2967.74,-12.55"/>
<polygon fill="midnightblue" stroke="midnightblue" points="2968.07,-16.04 2977.94,-12.2 2967.83,-9.04 2968.07,-16.04"/>
</g>
<!-- Node28&#45;&gt;Node6 -->
<g id="edge54" class="edge">
<title>Node28&#45;&gt;Node6</title>
<path fill="none" stroke="midnightblue" d="M2477.66,-112.44C2501.4,-103.48 2538.91,-89.31 2565.74,-79.18"/>
<polygon fill="midnightblue" stroke="midnightblue" points="2567.33,-82.32 2575.45,-75.52 2564.86,-75.77 2567.33,-82.32"/>
</g>
<!-- Node28&#45;&gt;Node19 -->
<g id="edge55" class="edge">
<title>Node28&#45;&gt;Node19</title>
<path fill="none" stroke="midnightblue" d="M2479.15,-117.98C2548.02,-109.37 2746.32,-84.59 2838.64,-73.04"/>
<polygon fill="midnightblue" stroke="midnightblue" points="2839.34,-76.48 2848.83,-71.77 2838.47,-69.54 2839.34,-76.48"/>
</g>
<!-- Node29&#45;&gt;Node4 -->
<g id="edge60" class="edge">
<title>Node29&#45;&gt;Node4</title>
<path fill="none" stroke="midnightblue" d="M1389.86,-448.39C1397.94,-425.54 1423.32,-363.24 1468,-336 1527.32,-299.84 1738.33,-292.73 1824.22,-291.34"/>
<polygon fill="midnightblue" stroke="midnightblue" points="1824.35,-294.83 1834.3,-291.19 1824.25,-287.84 1824.35,-294.83"/>
</g>
<!-- Node29&#45;&gt;Node7 -->
<g id="edge79" class="edge">
<title>Node29&#45;&gt;Node7</title>
<path fill="none" stroke="midnightblue" d="M1347.9,-452.38C1255.46,-441.5 1016.13,-413.54 816,-392 737.16,-383.52 530.46,-394.24 461,-356 428.83,-338.29 410,-327.72 410,-291 410,-291 410,-291 410,-121 410,-84.3 435.32,-47.66 452.21,-27.3"/>
<polygon fill="midnightblue" stroke="midnightblue" points="454.95,-29.48 458.83,-19.62 449.65,-24.9 454.95,-29.48"/>
</g>
<!-- Node29&#45;&gt;Node16 -->
<g id="edge59" class="edge">
<title>Node29&#45;&gt;Node16</title>
<path fill="none" stroke="midnightblue" d="M1347.75,-452.67C1316.7,-447.49 1273.76,-436.25 1244,-412 1147.74,-333.59 1202.33,-248.72 1108,-168 1089.02,-151.76 1063.67,-141.15 1040.99,-134.34"/>
<polygon fill="midnightblue" stroke="midnightblue" points="1041.7,-130.91 1031.12,-131.56 1039.8,-137.64 1041.7,-130.91"/>
</g>
<!-- Node29&#45;&gt;Node19 -->
<g id="edge61" class="edge">
<title>Node29&#45;&gt;Node19</title>
<path fill="none" stroke="midnightblue" d="M1426.19,-457.7C1564.52,-459.24 2041.81,-456.47 2418,-356 2609.45,-304.87 2671.77,-305.96 2831,-188 2858.05,-167.96 2868.65,-162.9 2882,-132 2888.25,-117.53 2889.18,-99.58 2888.73,-86.21"/>
<polygon fill="midnightblue" stroke="midnightblue" points="2892.2,-85.6 2888.08,-75.84 2885.21,-86.04 2892.2,-85.6"/>
</g>
<!-- Node30 -->
<g id="node30" class="node">
<title>Node30</title>
<g id="a_node30"><a xlink:href="pipelinelayout_8h.html" target="_top" xlink:title=" ">
<polygon fill="none" stroke="black" points="1566.5,-392.5 1566.5,-411.5 1649.5,-411.5 1649.5,-392.5 1566.5,-392.5"/>
<text text-anchor="middle" x="1608" y="-399.5" font-family="Helvetica,sans-Serif" font-size="10.00">pipelinelayout.h</text>
</a>
</g>
</g>
<!-- Node29&#45;&gt;Node30 -->
<g id="edge62" class="edge">
<title>Node29&#45;&gt;Node30</title>
<path fill="none" stroke="midnightblue" d="M1422.02,-448.44C1460.25,-439.1 1521.57,-424.12 1563.26,-413.93"/>
<polygon fill="midnightblue" stroke="midnightblue" points="1564.26,-417.29 1573.15,-411.52 1562.6,-410.49 1564.26,-417.29"/>
</g>
<!-- Node32 -->
<g id="node32" class="node">
<title>Node32</title>
<g id="a_node32"><a xlink:href="descriptorlayout_8h.html" target="_top" xlink:title=" ">
<polygon fill="none" stroke="black" points="1324,-336.5 1324,-355.5 1416,-355.5 1416,-336.5 1324,-336.5"/>
<text text-anchor="middle" x="1370" y="-343.5" font-family="Helvetica,sans-Serif" font-size="10.00">descriptorlayout.h</text>
</a>
</g>
</g>
<!-- Node29&#45;&gt;Node32 -->
<g id="edge78" class="edge">
<title>Node29&#45;&gt;Node32</title>
<path fill="none" stroke="midnightblue" d="M1385.67,-448.37C1382.92,-430.62 1376.59,-389.67 1372.87,-365.6"/>
<polygon fill="midnightblue" stroke="midnightblue" points="1376.31,-364.94 1371.33,-355.59 1369.4,-366.01 1376.31,-364.94"/>
</g>
<!-- Node30&#45;&gt;Node4 -->
<g id="edge76" class="edge">
<title>Node30&#45;&gt;Node4</title>
<path fill="none" stroke="midnightblue" d="M1620.49,-392.43C1640.54,-378.97 1681.45,-352.69 1719,-336 1753.77,-320.54 1795.49,-307.99 1824.67,-300.1"/>
<polygon fill="midnightblue" stroke="midnightblue" points="1825.68,-303.46 1834.44,-297.51 1823.88,-296.69 1825.68,-303.46"/>
</g>
<!-- Node30&#45;&gt;Node5 -->
<g id="edge63" class="edge">
<title>Node30&#45;&gt;Node5</title>
<path fill="none" stroke="midnightblue" d="M1649.54,-399.54C1735.85,-395.96 1931.5,-384.83 1991,-356 2027.77,-338.19 2056,-331.86 2056,-291 2056,-291 2056,-291 2056,-233 2056,-167.53 1929.46,-161.76 1972,-112 2037.35,-35.57 2764.67,-15.91 2967.67,-11.89"/>
<polygon fill="midnightblue" stroke="midnightblue" points="2967.84,-15.39 2977.77,-11.7 2967.71,-8.39 2967.84,-15.39"/>
</g>
<!-- Node30&#45;&gt;Node7 -->
<g id="edge65" class="edge">
<title>Node30&#45;&gt;Node7</title>
<path fill="none" stroke="midnightblue" d="M1566.33,-400.36C1369.55,-397.19 540.85,-382.31 493,-356 462.21,-339.07 448,-326.14 448,-291 448,-291 448,-291 448,-121 448,-88.49 456.16,-51.35 461.78,-29.61"/>
<polygon fill="midnightblue" stroke="midnightblue" points="465.22,-30.32 464.44,-19.75 458.46,-28.5 465.22,-30.32"/>
</g>
<!-- Node30&#45;&gt;Node8 -->
<g id="edge64" class="edge">
<title>Node30&#45;&gt;Node8</title>
<path fill="none" stroke="midnightblue" d="M1566.18,-397C1456.56,-385.34 1153.52,-345.57 924,-244 878.48,-223.85 859.18,-225.98 827,-188 802.48,-159.07 803.41,-111.62 806.22,-85.57"/>
<polygon fill="midnightblue" stroke="midnightblue" points="809.7,-85.9 807.51,-75.54 802.76,-85.01 809.7,-85.9"/>
</g>
<!-- Node30&#45;&gt;Node19 -->
<g id="edge77" class="edge">
<title>Node30&#45;&gt;Node19</title>
<path fill="none" stroke="midnightblue" d="M1649.68,-399.57C1733.76,-396.15 1929.44,-385.47 2091,-356 2364.69,-306.08 2432.84,-283.9 2694,-188 2750.76,-167.16 2767.75,-165.64 2818,-132 2839.04,-117.92 2859.7,-97.29 2872.85,-83.07"/>
<polygon fill="midnightblue" stroke="midnightblue" points="2875.55,-85.3 2879.67,-75.54 2870.36,-80.6 2875.55,-85.3"/>
</g>
<!-- Node31 -->
<g id="node31" class="node">
<title>Node31</title>
<g id="a_node31"><a xlink:title=" ">
<polygon fill="none" stroke="#bfbfbf" points="1510.5,-336.5 1510.5,-355.5 1569.5,-355.5 1569.5,-336.5 1510.5,-336.5"/>
<text text-anchor="middle" x="1540" y="-343.5" font-family="Helvetica,sans-Serif" font-size="10.00">functional</text>
</a>
</g>
</g>
<!-- Node30&#45;&gt;Node31 -->
<g id="edge66" class="edge">
<title>Node30&#45;&gt;Node31</title>
<path fill="none" stroke="midnightblue" d="M1597.07,-392.32C1586.83,-384.18 1571.28,-371.84 1559,-362.09"/>
<polygon fill="midnightblue" stroke="midnightblue" points="1561.13,-359.31 1551.12,-355.83 1556.78,-364.79 1561.13,-359.31"/>
</g>
<!-- Node30&#45;&gt;Node32 -->
<g id="edge67" class="edge">
<title>Node30&#45;&gt;Node32</title>
<path fill="none" stroke="midnightblue" d="M1570.29,-392.44C1528.86,-383.04 1462.24,-367.93 1417.33,-357.74"/>
<polygon fill="midnightblue" stroke="midnightblue" points="1418.06,-354.32 1407.54,-355.52 1416.51,-361.14 1418.06,-354.32"/>
</g>
<!-- Node33 -->
<g id="node33" class="node">
<title>Node33</title>
<g id="a_node33"><a xlink:href="pushconstant_8h.html" target="_top" xlink:title=" ">
<polygon fill="none" stroke="black" points="1980.5,-112.5 1980.5,-131.5 2063.5,-131.5 2063.5,-112.5 1980.5,-112.5"/>
<text text-anchor="middle" x="2022" y="-119.5" font-family="Helvetica,sans-Serif" font-size="10.00">pushconstant.h</text>
</a>
</g>
</g>
<!-- Node30&#45;&gt;Node33 -->
<g id="edge73" class="edge">
<title>Node30&#45;&gt;Node33</title>
<path fill="none" stroke="midnightblue" d="M1649.61,-400.07C1757.89,-397.22 2042.01,-386.85 2070,-356 2126.15,-294.12 2103.22,-244.67 2070,-168 2064.73,-155.84 2054.38,-145.46 2044.64,-137.74"/>
<polygon fill="midnightblue" stroke="midnightblue" points="2046.5,-134.77 2036.37,-131.67 2042.36,-140.41 2046.5,-134.77"/>
</g>
<!-- Node32&#45;&gt;Node4 -->
<g id="edge72" class="edge">
<title>Node32&#45;&gt;Node4</title>
<path fill="none" stroke="midnightblue" d="M1416.16,-337.86C1420.83,-337.2 1425.51,-336.57 1430,-336 1575.47,-317.51 1749.28,-301.09 1823.94,-294.3"/>
<polygon fill="midnightblue" stroke="midnightblue" points="1824.58,-297.76 1834.22,-293.37 1823.95,-290.79 1824.58,-297.76"/>
</g>
<!-- Node32&#45;&gt;Node5 -->
<g id="edge68" class="edge">
<title>Node32&#45;&gt;Node5</title>
<path fill="none" stroke="midnightblue" d="M1373.7,-336.19C1386.16,-307.62 1429.33,-216.56 1493,-168 1611.81,-77.39 1663.22,-83.98 1810,-56 2036.94,-12.73 2766.19,-10.59 2967.88,-10.85"/>
<polygon fill="midnightblue" stroke="midnightblue" points="2967.91,-14.35 2977.92,-10.86 2967.92,-7.35 2967.91,-14.35"/>
</g>
<!-- Node32&#45;&gt;Node7 -->
<g id="edge70" class="edge">
<title>Node32&#45;&gt;Node7</title>
<path fill="none" stroke="midnightblue" d="M1323.56,-339.38C1269.25,-332.32 1176.88,-318.82 1099,-300 896.74,-251.12 837.87,-243.21 662,-132 618.89,-104.74 619.28,-82.99 576,-56 551.75,-40.87 521.53,-28.86 499.06,-21.07"/>
<polygon fill="midnightblue" stroke="midnightblue" points="499.93,-17.67 489.34,-17.79 497.69,-24.3 499.93,-17.67"/>
</g>
<!-- Node32&#45;&gt;Node8 -->
<g id="edge69" class="edge">
<title>Node32&#45;&gt;Node8</title>
<path fill="none" stroke="midnightblue" d="M1329.72,-336.45C1222.07,-313.04 930.52,-245.79 852,-188 827.78,-170.17 823.93,-160.39 814,-132 808.8,-117.13 807.77,-99.21 807.92,-85.95"/>
<polygon fill="midnightblue" stroke="midnightblue" points="811.43,-85.82 808.28,-75.7 804.44,-85.57 811.43,-85.82"/>
</g>
<!-- Node32&#45;&gt;Node19 -->
<g id="edge71" class="edge">
<title>Node32&#45;&gt;Node19</title>
<path fill="none" stroke="midnightblue" d="M1416.21,-341.42C1507.93,-334.22 1719.46,-317.23 1897,-300 2011.58,-288.88 2302.97,-280.93 2412,-244 2428.24,-238.5 2429.51,-231.35 2445,-224 2587.4,-156.42 2767.15,-101.28 2846.36,-78.4"/>
<polygon fill="midnightblue" stroke="midnightblue" points="2847.76,-81.64 2856.41,-75.52 2845.83,-74.91 2847.76,-81.64"/>
</g>
<!-- Node33&#45;&gt;Node5 -->
<g id="edge74" class="edge">
<title>Node33&#45;&gt;Node5</title>
<path fill="none" stroke="midnightblue" d="M2063.72,-113.48C2066.86,-112.96 2069.98,-112.46 2073,-112 2264.82,-82.69 2313.08,-76.91 2506,-56 2674.67,-37.72 2875.11,-21.86 2967.98,-14.84"/>
<polygon fill="midnightblue" stroke="midnightblue" points="2968.26,-18.33 2977.97,-14.09 2967.73,-11.35 2968.26,-18.33"/>
</g>
<!-- Node33&#45;&gt;Node19 -->
<g id="edge75" class="edge">
<title>Node33&#45;&gt;Node19</title>
<path fill="none" stroke="midnightblue" d="M2063.69,-113.23C2066.83,-112.77 2069.96,-112.35 2073,-112 2222.66,-94.72 2686.34,-75.06 2838.26,-68.93"/>
<polygon fill="midnightblue" stroke="midnightblue" points="2838.8,-72.41 2848.65,-68.51 2838.52,-65.42 2838.8,-72.41"/>
</g>
<!-- Node34&#45;&gt;Node4 -->
<g id="edge87" class="edge">
<title>Node34&#45;&gt;Node4</title>
<path fill="none" stroke="midnightblue" d="M555.61,-343.92C723.03,-337.13 1630.02,-300.36 1824.34,-292.49"/>
<polygon fill="midnightblue" stroke="midnightblue" points="1824.48,-295.98 1834.33,-292.08 1824.2,-288.99 1824.48,-295.98"/>
</g>
<!-- Node34&#45;&gt;Node5 -->
<g id="edge81" class="edge">
<title>Node34&#45;&gt;Node5</title>
<path fill="none" stroke="midnightblue" d="M543.75,-336.31C570.82,-320.48 627.65,-287.84 649,-280 948.72,-169.93 1039.95,-199.62 1352,-132 1503.75,-99.12 1538.97,-75.6 1693,-56 1946.12,-23.78 2753.87,-13.63 2967.67,-11.48"/>
<polygon fill="midnightblue" stroke="midnightblue" points="2968.02,-14.98 2977.98,-11.38 2967.95,-7.98 2968.02,-14.98"/>
</g>
<!-- Node34&#45;&gt;Node7 -->
<g id="edge85" class="edge">
<title>Node34&#45;&gt;Node7</title>
<path fill="none" stroke="midnightblue" d="M502.47,-343.9C430.54,-340.57 233.35,-328.98 176,-300 140.37,-281.99 114,-274.92 114,-235 114,-235 114,-235 114,-121 114,-75.19 152.22,-74.8 194,-56 275.14,-19.49 381.79,-12.25 434.56,-11.04"/>
<polygon fill="midnightblue" stroke="midnightblue" points="434.73,-14.54 444.67,-10.87 434.61,-7.54 434.73,-14.54"/>
</g>
<!-- Node34&#45;&gt;Node8 -->
<g id="edge83" class="edge">
<title>Node34&#45;&gt;Node8</title>
<path fill="none" stroke="midnightblue" d="M530.9,-336.19C536.78,-309.77 556.13,-229.22 586,-168 599.19,-140.97 599.29,-129.15 624,-112 667.63,-81.73 729.35,-71.73 769.28,-68.48"/>
<polygon fill="midnightblue" stroke="midnightblue" points="769.7,-71.96 779.43,-67.76 769.21,-64.98 769.7,-71.96"/>
</g>
<!-- Node34&#45;&gt;Node9 -->
<g id="edge86" class="edge">
<title>Node34&#45;&gt;Node9</title>
<path fill="none" stroke="midnightblue" d="M538.42,-336.45C577.77,-301.31 734.27,-167.2 890,-112 999.38,-73.23 1139.2,-67.39 1200.21,-66.83"/>
<polygon fill="midnightblue" stroke="midnightblue" points="1200.34,-70.33 1210.33,-66.78 1200.31,-63.33 1200.34,-70.33"/>
</g>
<!-- Node35 -->
<g id="node35" class="node">
<title>Node35</title>
<g id="a_node35"><a xlink:title=" ">
<polygon fill="none" stroke="#bfbfbf" points="476.5,-280.5 476.5,-299.5 525.5,-299.5 525.5,-280.5 476.5,-280.5"/>
<text text-anchor="middle" x="501" y="-287.5" font-family="Helvetica,sans-Serif" font-size="10.00">cassert</text>
</a>
</g>
</g>
<!-- Node34&#45;&gt;Node35 -->
<g id="edge82" class="edge">
<title>Node34&#45;&gt;Node35</title>
<path fill="none" stroke="midnightblue" d="M524.38,-336.08C520.54,-328.69 514.98,-317.95 510.24,-308.81"/>
<polygon fill="midnightblue" stroke="midnightblue" points="513.25,-307.02 505.54,-299.75 507.03,-310.24 513.25,-307.02"/>
</g>
<!-- Node34&#45;&gt;Node36 -->
<g id="edge84" class="edge">
<title>Node34&#45;&gt;Node36</title>
<path fill="none" stroke="midnightblue" d="M552.61,-336.44C578.63,-327.01 620.51,-311.84 648.63,-301.65"/>
<polygon fill="midnightblue" stroke="midnightblue" points="650.1,-304.83 658.31,-298.14 647.71,-298.25 650.1,-304.83"/>
</g>
<!-- Node37 -->
<g id="node37" class="node">
<title>Node37</title>
<g id="a_node37"><a xlink:href="utils_8h.html" target="_top" xlink:title=" ">
<polygon fill="none" stroke="black" points="185,-280.5 185,-299.5 263,-299.5 263,-280.5 185,-280.5"/>
<text text-anchor="middle" x="224" y="-287.5" font-family="Helvetica,sans-Serif" font-size="10.00">../../utils/utils.h</text>
</a>
</g>
</g>
<!-- Node34&#45;&gt;Node37 -->
<g id="edge88" class="edge">
<title>Node34&#45;&gt;Node37</title>
<path fill="none" stroke="midnightblue" d="M502.47,-340.3C451.36,-331.25 338.56,-311.28 273.29,-299.73"/>
<polygon fill="midnightblue" stroke="midnightblue" points="273.69,-296.24 263.24,-297.95 272.47,-303.14 273.69,-296.24"/>
</g>
<!-- Node37&#45;&gt;Node7 -->
<g id="edge89" class="edge">
<title>Node37&#45;&gt;Node7</title>
<path fill="none" stroke="midnightblue" d="M209.81,-280.37C197.8,-272.37 180.99,-259.39 171,-244 154.62,-218.75 152,-209.1 152,-179 152,-179 152,-179 152,-121 152,-61.54 354.55,-26.71 434.81,-15.24"/>
<polygon fill="midnightblue" stroke="midnightblue" points="435.43,-18.69 444.85,-13.84 434.46,-11.76 435.43,-18.69"/>
</g>
<!-- Node38 -->
<g id="node38" class="node">
<title>Node38</title>
<g id="a_node38"><a xlink:title=" ">
<polygon fill="none" stroke="#bfbfbf" points="180,-224.5 180,-243.5 268,-243.5 268,-224.5 180,-224.5"/>
<text text-anchor="middle" x="224" y="-231.5" font-family="Helvetica,sans-Serif" font-size="10.00">boost/bimap.hpp</text>
</a>
</g>
</g>
<!-- Node37&#45;&gt;Node38 -->
<g id="edge90" class="edge">
<title>Node37&#45;&gt;Node38</title>
<path fill="none" stroke="midnightblue" d="M224,-280.08C224,-273.01 224,-262.86 224,-253.99"/>
<polygon fill="midnightblue" stroke="midnightblue" points="227.5,-253.75 224,-243.75 220.5,-253.75 227.5,-253.75"/>
</g>
<!-- Node39&#45;&gt;Node5 -->
<g id="edge92" class="edge">
<title>Node39&#45;&gt;Node5</title>
<path fill="none" stroke="midnightblue" d="M1860.69,-793.22C2042.29,-794.12 2864.83,-795.45 3115,-748 3273.41,-717.95 3457,-788.23 3457,-627 3457,-627 3457,-627 3457,-121 3457,-76.55 3421.66,-73.95 3381,-56 3326.87,-32.1 3158.57,-19.08 3072.24,-13.81"/>
<polygon fill="midnightblue" stroke="midnightblue" points="3072.32,-10.31 3062.13,-13.21 3071.9,-17.3 3072.32,-10.31"/>
</g>
<!-- Node39&#45;&gt;Node7 -->
<g id="edge95" class="edge">
<title>Node39&#45;&gt;Node7</title>
<path fill="none" stroke="midnightblue" d="M1789.4,-792.39C1655.27,-789.89 1180.58,-779 1033,-748 963.36,-733.37 944.29,-728.16 883,-692 706.54,-587.9 717.49,-481.1 533,-392 429.89,-342.21 296,-405.5 296,-291 296,-291 296,-291 296,-121 296,-55.58 385.61,-27.23 435.09,-16.57"/>
<polygon fill="midnightblue" stroke="midnightblue" points="435.89,-19.97 444.99,-14.55 434.5,-13.11 435.89,-19.97"/>
</g>
<!-- Node39&#45;&gt;Node8 -->
<g id="edge96" class="edge">
<title>Node39&#45;&gt;Node8</title>
<path fill="none" stroke="midnightblue" d="M1789.29,-792.82C1663.21,-791.88 1239.52,-785.88 1110,-748 962.21,-704.77 886.03,-712.15 807,-580 706.77,-412.4 779.71,-155.55 802.7,-85.3"/>
<polygon fill="midnightblue" stroke="midnightblue" points="806.07,-86.26 805.93,-75.67 799.43,-84.04 806.07,-86.26"/>
</g>
<!-- Node39&#45;&gt;Node21 -->
<g id="edge93" class="edge">
<title>Node39&#45;&gt;Node21</title>
<path fill="none" stroke="midnightblue" d="M1789.35,-791.05C1649.22,-782.92 1144,-749.02 1144,-683 1144,-683 1144,-683 1144,-569 1144,-427.92 674.43,-159.78 770,-56 803.15,-20 1136.49,-12.8 1264.92,-11.36"/>
<polygon fill="midnightblue" stroke="midnightblue" points="1265.29,-14.86 1275.26,-11.25 1265.22,-7.86 1265.29,-14.86"/>
</g>
<!-- Node39&#45;&gt;Node27 -->
<g id="edge97" class="edge">
<title>Node39&#45;&gt;Node27</title>
<path fill="none" stroke="midnightblue" d="M1789.41,-793.47C1653.88,-794.89 1175.38,-796.41 1130,-748 1004.77,-614.4 1065.91,-507.53 1130,-336 1163.54,-246.23 1253.87,-169.27 1294.59,-137.97"/>
<polygon fill="midnightblue" stroke="midnightblue" points="1296.85,-140.65 1302.71,-131.83 1292.63,-135.07 1296.85,-140.65"/>
</g>
<!-- Node40 -->
<g id="node40" class="node">
<title>Node40</title>
<g id="a_node40"><a xlink:title=" ">
<polygon fill="none" stroke="#bfbfbf" points="1761,-672.5 1761,-691.5 1871,-691.5 1871,-672.5 1761,-672.5"/>
<text text-anchor="middle" x="1816" y="-679.5" font-family="Helvetica,sans-Serif" font-size="10.00">dexode/EventBus.hpp</text>
</a>
</g>
</g>
<!-- Node39&#45;&gt;Node40 -->
<g id="edge94" class="edge">
<title>Node39&#45;&gt;Node40</title>
<path fill="none" stroke="midnightblue" d="M1824.29,-784.37C1822.84,-766.62 1819.49,-725.67 1817.52,-701.6"/>
<polygon fill="midnightblue" stroke="midnightblue" points="1821.01,-701.27 1816.7,-691.59 1814.03,-701.84 1821.01,-701.27"/>
</g>
<!-- Node41 -->
<g id="node41" class="node">
<title>Node41</title>
<g id="a_node41"><a xlink:href="framebuffer_8h.html" target="_top" xlink:title=" ">
<polygon fill="none" stroke="black" points="2163.5,-728.5 2163.5,-747.5 2236.5,-747.5 2236.5,-728.5 2163.5,-728.5"/>
<text text-anchor="middle" x="2200" y="-735.5" font-family="Helvetica,sans-Serif" font-size="10.00">framebuffer.h</text>
</a>
</g>
</g>
<!-- Node39&#45;&gt;Node41 -->
<g id="edge98" class="edge">
<title>Node39&#45;&gt;Node41</title>
<path fill="none" stroke="midnightblue" d="M1860.61,-786.28C1865.76,-785.51 1871,-784.73 1876,-784 1974.38,-769.59 2090.12,-753.2 2153.32,-744.74"/>
<polygon fill="midnightblue" stroke="midnightblue" points="2153.92,-748.19 2163.37,-743.4 2153,-741.25 2153.92,-748.19"/>
</g>
<!-- Node48 -->
<g id="node48" class="node">
<title>Node48</title>
<g id="a_node48"><a xlink:href="commandbuffer_8h.html" target="_top" xlink:title=" ">
<polygon fill="none" stroke="black" points="1994.5,-504.5 1994.5,-523.5 2085.5,-523.5 2085.5,-504.5 1994.5,-504.5"/>
<text text-anchor="middle" x="2040" y="-511.5" font-family="Helvetica,sans-Serif" font-size="10.00">commandbuffer.h</text>
</a>
</g>
</g>
<!-- Node39&#45;&gt;Node48 -->
<g id="edge173" class="edge">
<title>Node39&#45;&gt;Node48</title>
<path fill="none" stroke="midnightblue" d="M1836.24,-784.36C1856.94,-767.38 1899,-727.42 1899,-683 1899,-683 1899,-683 1899,-625 1899,-594.2 1901.37,-581.92 1923,-560 1939.57,-543.21 1963.08,-532.57 1984.69,-525.88"/>
<polygon fill="midnightblue" stroke="midnightblue" points="1985.81,-529.2 1994.45,-523.08 1983.88,-522.47 1985.81,-529.2"/>
</g>
<!-- Node49 -->
<g id="node49" class="node">
<title>Node49</title>
<g id="a_node49"><a xlink:href="semaphore_8h.html" target="_top" xlink:title=" ">
<polygon fill="none" stroke="black" points="2939,-336.5 2939,-355.5 3011,-355.5 3011,-336.5 2939,-336.5"/>
<text text-anchor="middle" x="2975" y="-343.5" font-family="Helvetica,sans-Serif" font-size="10.00">semaphore.h</text>
</a>
</g>
</g>
<!-- Node39&#45;&gt;Node49 -->
<g id="edge172" class="edge">
<title>Node39&#45;&gt;Node49</title>
<path fill="none" stroke="midnightblue" d="M1860.8,-787.22C1868.75,-786.06 1877.15,-784.91 1885,-784 2385.55,-726.15 2514.31,-748.67 3015,-692 3042.67,-688.87 3077,-710.84 3077,-683 3077,-683 3077,-683 3077,-457 3077,-412.39 3031.34,-378.23 3001.12,-360.51"/>
<polygon fill="midnightblue" stroke="midnightblue" points="3002.73,-357.4 2992.3,-355.55 2999.3,-363.5 3002.73,-357.4"/>
</g>
<!-- Node53 -->
<g id="node53" class="node">
<title>Node53</title>
<g id="a_node53"><a xlink:href="eventbus_8h.html" target="_top" xlink:title=" ">
<polygon fill="none" stroke="black" points="1725.5,-728.5 1725.5,-747.5 1796.5,-747.5 1796.5,-728.5 1725.5,-728.5"/>
<text text-anchor="middle" x="1761" y="-735.5" font-family="Helvetica,sans-Serif" font-size="10.00">../eventbus.h</text>
</a>
</g>
</g>
<!-- Node39&#45;&gt;Node53 -->
<g id="edge169" class="edge">
<title>Node39&#45;&gt;Node53</title>
<path fill="none" stroke="midnightblue" d="M1814.72,-784.32C1805.16,-776.26 1790.72,-764.08 1779.22,-754.37"/>
<polygon fill="midnightblue" stroke="midnightblue" points="1781.37,-751.61 1771.47,-747.83 1776.86,-756.96 1781.37,-751.61"/>
</g>
<!-- Node41&#45;&gt;Node4 -->
<g id="edge102" class="edge">
<title>Node41&#45;&gt;Node4</title>
<path fill="none" stroke="midnightblue" d="M2167.19,-728.45C2082.11,-705.34 1861,-638.74 1861,-571 1861,-571 1861,-571 1861,-401 1861,-368.95 1861,-331.64 1861,-309.75"/>
<polygon fill="midnightblue" stroke="midnightblue" points="1864.5,-309.56 1861,-299.56 1857.5,-309.56 1864.5,-309.56"/>
</g>
<!-- Node41&#45;&gt;Node5 -->
<g id="edge99" class="edge">
<title>Node41&#45;&gt;Node5</title>
<path fill="none" stroke="midnightblue" d="M2236.72,-736.83C2354.43,-735.89 2732.77,-729.93 3043,-692 3194.84,-673.44 3381,-779.97 3381,-627 3381,-627 3381,-627 3381,-569 3381,-468.9 3419,-447.1 3419,-347 3419,-347 3419,-347 3419,-121 3419,-76.89 3384.17,-74.23 3344,-56 3296.67,-34.52 3151.4,-20.75 3072.43,-14.65"/>
<polygon fill="midnightblue" stroke="midnightblue" points="3072.44,-11.14 3062.21,-13.87 3071.91,-18.12 3072.44,-11.14"/>
</g>
<!-- Node41&#45;&gt;Node7 -->
<g id="edge100" class="edge">
<title>Node41&#45;&gt;Node7</title>
<path fill="none" stroke="midnightblue" d="M2163.49,-729.58C1960.46,-688.24 968.6,-485.66 665,-412 632.31,-404.07 624.85,-399.23 592,-392 497.38,-371.17 458.25,-408.78 377,-356 347.95,-337.13 334,-325.64 334,-291 334,-291 334,-291 334,-121 334,-68.65 395.93,-36.53 435.28,-21.4"/>
<polygon fill="midnightblue" stroke="midnightblue" points="436.56,-24.65 444.74,-17.92 434.15,-18.08 436.56,-24.65"/>
</g>
<!-- Node41&#45;&gt;Node19 -->
<g id="edge101" class="edge">
<title>Node41&#45;&gt;Node19</title>
<path fill="none" stroke="midnightblue" d="M2236.8,-731.89C2247.79,-730.49 2259.87,-729.06 2271,-728 2521.93,-704.14 2591.19,-747.81 2837,-692 2901.95,-677.25 2925.15,-679.02 2976,-636 3033.5,-587.36 3153,-422.31 3153,-347 3153,-347 3153,-347 3153,-233 3153,-131.41 3011.64,-89.72 2935.02,-74.58"/>
<polygon fill="midnightblue" stroke="midnightblue" points="2935.59,-71.13 2925.11,-72.7 2934.28,-78.01 2935.59,-71.13"/>
</g>
<!-- Node41&#45;&gt;Node39 -->
<g id="edge167" class="edge">
<title>Node41&#45;&gt;Node39</title>
<path fill="none" stroke="midnightblue" d="M2163.16,-745.02C2105.58,-753.56 1991.29,-769.75 1894,-784 1886.54,-785.09 1878.55,-786.28 1870.73,-787.42"/>
<polygon fill="midnightblue" stroke="midnightblue" points="1869.99,-783.99 1860.59,-788.88 1870.99,-790.92 1869.99,-783.99"/>
</g>
<!-- Node41&#45;&gt;Node42 -->
<g id="edge103" class="edge">
<title>Node41&#45;&gt;Node42</title>
<path fill="none" stroke="midnightblue" d="M2236.64,-736.78C2386.2,-735.63 2945.74,-728.9 3015,-692 3106.73,-643.13 3164.42,-523.08 3183.76,-477.22"/>
<polygon fill="midnightblue" stroke="midnightblue" points="3187.01,-478.5 3187.57,-467.92 3180.54,-475.84 3187.01,-478.5"/>
</g>
<!-- Node44 -->
<g id="node44" class="node">
<title>Node44</title>
<g id="a_node44"><a xlink:href="imageview_8h.html" target="_top" xlink:title=" ">
<polygon fill="none" stroke="black" points="2262.5,-672.5 2262.5,-691.5 2333.5,-691.5 2333.5,-672.5 2262.5,-672.5"/>
<text text-anchor="middle" x="2298" y="-679.5" font-family="Helvetica,sans-Serif" font-size="10.00">imageview.h</text>
</a>
</g>
</g>
<!-- Node41&#45;&gt;Node44 -->
<g id="edge110" class="edge">
<title>Node41&#45;&gt;Node44</title>
<path fill="none" stroke="midnightblue" d="M2215.75,-728.32C2231.32,-719.74 2255.38,-706.49 2273.46,-696.52"/>
<polygon fill="midnightblue" stroke="midnightblue" points="2275.22,-699.55 2282.29,-691.65 2271.85,-693.42 2275.22,-699.55"/>
</g>
<!-- Node41&#45;&gt;Node49 -->
<g id="edge168" class="edge">
<title>Node41&#45;&gt;Node49</title>
<path fill="none" stroke="midnightblue" d="M2236.54,-735.64C2388.57,-729.48 2963,-701.32 2963,-627 2963,-627 2963,-627 2963,-457 2963,-424.76 2968.16,-387.51 2971.71,-365.68"/>
<polygon fill="midnightblue" stroke="midnightblue" points="2975.21,-365.97 2973.43,-355.52 2968.31,-364.8 2975.21,-365.97"/>
</g>
<!-- Node42&#45;&gt;Node4 -->
<g id="edge107" class="edge">
<title>Node42&#45;&gt;Node4</title>
<path fill="none" stroke="midnightblue" d="M3155,-449.98C3089.5,-437.34 2946.39,-410.39 2825,-392 2627.47,-362.08 2577.66,-357.09 2379,-336 2198.87,-316.87 1982.86,-300.08 1897.89,-293.72"/>
<polygon fill="midnightblue" stroke="midnightblue" points="1897.96,-290.21 1887.72,-292.96 1897.43,-297.19 1897.96,-290.21"/>
</g>
<!-- Node42&#45;&gt;Node5 -->
<g id="edge104" class="edge">
<title>Node42&#45;&gt;Node5</title>
<path fill="none" stroke="midnightblue" d="M3227.21,-453.86C3257.1,-449.38 3298.61,-438.48 3324,-412 3344.83,-390.28 3343,-377.1 3343,-347 3343,-347 3343,-347 3343,-121 3343,-79.19 3312.3,-74.89 3275,-56 3210.33,-23.25 3125.96,-13.9 3072.36,-11.47"/>
<polygon fill="midnightblue" stroke="midnightblue" points="3072.19,-7.96 3062.07,-11.07 3071.92,-14.96 3072.19,-7.96"/>
</g>
<!-- Node42&#45;&gt;Node7 -->
<g id="edge105" class="edge">
<title>Node42&#45;&gt;Node7</title>
<path fill="none" stroke="midnightblue" d="M3154.92,-456.92C2945.22,-456.33 1881.51,-451.39 1557,-412 1422,-395.61 1258,-482.99 1258,-347 1258,-347 1258,-347 1258,-289 1258,-167.28 1159.54,-162.96 1049,-112 854.58,-22.36 590.21,-11.76 499.27,-10.89"/>
<polygon fill="midnightblue" stroke="midnightblue" points="499.08,-7.39 489.06,-10.83 499.04,-14.39 499.08,-7.39"/>
</g>
<!-- Node42&#45;&gt;Node19 -->
<g id="edge108" class="edge">
<title>Node42&#45;&gt;Node19</title>
<path fill="none" stroke="midnightblue" d="M3193.1,-448.25C3203.58,-402.27 3245.12,-187.95 3129,-112 3097.81,-91.6 2996.79,-78.11 2935.57,-71.58"/>
<polygon fill="midnightblue" stroke="midnightblue" points="2935.68,-68.08 2925.37,-70.52 2934.95,-75.04 2935.68,-68.08"/>
</g>
<!-- Node42&#45;&gt;Node39 -->
<g id="edge109" class="edge">
<title>Node42&#45;&gt;Node39</title>
<path fill="none" stroke="midnightblue" d="M3191.23,-467.63C3191.8,-507.95 3188.23,-678.6 3091,-748 3040.42,-784.1 2092.08,-791.53 1870.86,-792.78"/>
<polygon fill="midnightblue" stroke="midnightblue" points="1870.56,-789.28 1860.58,-792.83 1870.6,-796.28 1870.56,-789.28"/>
</g>
<!-- Node43 -->
<g id="node43" class="node">
<title>Node43</title>
<g id="a_node43"><a xlink:title=" ">
<polygon fill="none" stroke="#bfbfbf" points="3277,-392.5 3277,-411.5 3315,-411.5 3315,-392.5 3277,-392.5"/>
<text text-anchor="middle" x="3296" y="-399.5" font-family="Helvetica,sans-Serif" font-size="10.00">array</text>
</a>
</g>
</g>
<!-- Node42&#45;&gt;Node43 -->
<g id="edge106" class="edge">
<title>Node42&#45;&gt;Node43</title>
<path fill="none" stroke="midnightblue" d="M3207.87,-448.32C3224.71,-439.66 3250.81,-426.24 3270.24,-416.25"/>
<polygon fill="midnightblue" stroke="midnightblue" points="3271.88,-419.34 3279.17,-411.65 3268.68,-413.12 3271.88,-419.34"/>
</g>
<!-- Node44&#45;&gt;Node5 -->
<g id="edge111" class="edge">
<title>Node44&#45;&gt;Node5</title>
<path fill="none" stroke="midnightblue" d="M2333.72,-677.97C2521.01,-661.1 3381,-571.43 3381,-347 3381,-347 3381,-347 3381,-121 3381,-77.89 3347.92,-74.53 3309,-56 3232.29,-19.47 3132.4,-11.47 3072.4,-10.31"/>
<polygon fill="midnightblue" stroke="midnightblue" points="3072.44,-6.81 3062.4,-10.17 3072.35,-13.81 3072.44,-6.81"/>
</g>
<!-- Node44&#45;&gt;Node12 -->
<g id="edge166" class="edge">
<title>Node44&#45;&gt;Node12</title>
<path fill="none" stroke="midnightblue" d="M2293.14,-672.47C2283.32,-654.39 2262,-610.59 2262,-571 2262,-571 2262,-571 2262,-401 2262,-210.79 2070.81,-257.57 1903,-168 1867.17,-148.87 1854.21,-152.24 1819,-132 1762.51,-99.53 1702.6,-50.85 1673.67,-26.31"/>
<polygon fill="midnightblue" stroke="midnightblue" points="1675.6,-23.35 1665.73,-19.51 1671.05,-28.67 1675.6,-23.35"/>
</g>
<!-- Node45 -->
<g id="node45" class="node">
<title>Node45</title>
<g id="a_node45"><a xlink:href="image_8h.html" target="_top" xlink:title=" ">
<polygon fill="none" stroke="black" points="2309,-616.5 2309,-635.5 2359,-635.5 2359,-616.5 2309,-616.5"/>
<text text-anchor="middle" x="2334" y="-623.5" font-family="Helvetica,sans-Serif" font-size="10.00">image.h</text>
</a>
</g>
</g>
<!-- Node44&#45;&gt;Node45 -->
<g id="edge112" class="edge">
<title>Node44&#45;&gt;Node45</title>
<path fill="none" stroke="midnightblue" d="M2298.78,-672.08C2302.29,-664.38 2309.48,-653.03 2316.61,-643.65"/>
<polygon fill="midnightblue" stroke="midnightblue" points="2319.44,-645.72 2323.03,-635.75 2314.01,-641.3 2319.44,-645.72"/>
</g>
<!-- Node45&#45;&gt;Node4 -->
<g id="edge115" class="edge">
<title>Node45&#45;&gt;Node4</title>
<path fill="none" stroke="midnightblue" d="M2327.01,-616.44C2295.06,-577.86 2158.05,-418.38 2011,-336 1975.09,-315.88 1929.2,-303.82 1897.68,-297.32"/>
<polygon fill="midnightblue" stroke="midnightblue" points="1898.07,-293.83 1887.58,-295.33 1896.72,-300.7 1898.07,-293.83"/>
</g>
<!-- Node45&#45;&gt;Node6 -->
<g id="edge114" class="edge">
<title>Node45&#45;&gt;Node6</title>
<path fill="none" stroke="midnightblue" d="M2359.19,-625.06C2462.58,-624.66 2849,-616.37 2849,-515 2849,-515 2849,-515 2849,-457 2849,-285.83 2675.91,-130 2617.21,-82.08"/>
<polygon fill="midnightblue" stroke="midnightblue" points="2619.09,-79.1 2609.11,-75.56 2614.71,-84.56 2619.09,-79.1"/>
</g>
<!-- Node45&#45;&gt;Node7 -->
<g id="edge165" class="edge">
<title>Node45&#45;&gt;Node7</title>
<path fill="none" stroke="midnightblue" d="M2308.8,-623.25C2231.96,-617.82 1993.81,-600.43 1797,-580 1453.02,-544.29 1366.56,-533.52 1027,-468 865.58,-436.85 826.79,-421.14 665,-392 529.44,-367.58 372,-428.74 372,-291 372,-291 372,-291 372,-121 372,-77.74 414.61,-43.09 442.75,-24.91"/>
<polygon fill="midnightblue" stroke="midnightblue" points="444.66,-27.85 451.31,-19.6 440.97,-21.9 444.66,-27.85"/>
</g>
<!-- Node45&#45;&gt;Node16 -->
<g id="edge113" class="edge">
<title>Node45&#45;&gt;Node16</title>
<path fill="none" stroke="midnightblue" d="M2308.74,-622.33C2210.57,-611.82 1844.98,-571.59 1546,-524 1414.64,-503.09 1382.5,-493.76 1252,-468 1096.28,-437.26 916,-505.72 916,-347 916,-347 916,-347 916,-289 916,-230.58 953.27,-169.04 973.42,-140.03"/>
<polygon fill="midnightblue" stroke="midnightblue" points="976.33,-141.97 979.29,-131.8 970.63,-137.91 976.33,-141.97"/>
</g>
<!-- Node45&#45;&gt;Node19 -->
<g id="edge116" class="edge">
<title>Node45&#45;&gt;Node19</title>
<path fill="none" stroke="midnightblue" d="M2359.25,-624.41C2444.97,-622.11 2724.08,-612.28 2807,-580 2846.99,-564.43 3115,-389.91 3115,-347 3115,-347 3115,-347 3115,-289 3115,-200.75 3092.05,-169.38 3025,-112 2999.74,-90.38 2963.86,-79.09 2935.01,-73.23"/>
<polygon fill="midnightblue" stroke="midnightblue" points="2935.61,-69.78 2925.14,-71.38 2934.32,-76.66 2935.61,-69.78"/>
</g>
<!-- Node45&#45;&gt;Node22 -->
<g id="edge117" class="edge">
<title>Node45&#45;&gt;Node22</title>
<path fill="none" stroke="midnightblue" d="M2359.23,-624.08C2404.64,-621.63 2502.31,-612.67 2577,-580 2621.22,-560.65 2664,-563.27 2664,-515 2664,-515 2664,-515 2664,-345 2664,-245.1 2307.94,-196.5 2188.52,-183.01"/>
<polygon fill="midnightblue" stroke="midnightblue" points="2188.69,-179.51 2178.37,-181.88 2187.92,-186.47 2188.69,-179.51"/>
</g>
<!-- Node45&#45;&gt;Node44 -->
<g id="edge118" class="edge">
<title>Node45&#45;&gt;Node44</title>
<path fill="none" stroke="midnightblue" d="M2333.3,-635.75C2329.84,-643.4 2322.68,-654.74 2315.54,-664.14"/>
<polygon fill="midnightblue" stroke="midnightblue" points="2312.69,-662.11 2309.11,-672.08 2318.13,-666.52 2312.69,-662.11"/>
</g>
<!-- Node46 -->
<g id="node46" class="node">
<title>Node46</title>
<g id="a_node46"><a xlink:href="commandpool_8h.html" target="_top" xlink:title=" ">
<polygon fill="none" stroke="black" points="2317.5,-224.5 2317.5,-243.5 2402.5,-243.5 2402.5,-224.5 2317.5,-224.5"/>
<text text-anchor="middle" x="2360" y="-231.5" font-family="Helvetica,sans-Serif" font-size="10.00">commandpool.h</text>
</a>
</g>
</g>
<!-- Node45&#45;&gt;Node46 -->
<g id="edge119" class="edge">
<title>Node45&#45;&gt;Node46</title>
<path fill="none" stroke="midnightblue" d="M2359.28,-625.38C2423.53,-624.9 2588,-613.99 2588,-515 2588,-515 2588,-515 2588,-401 2588,-311.93 2472.87,-265.62 2406.24,-246.28"/>
<polygon fill="midnightblue" stroke="midnightblue" points="2406.95,-242.85 2396.38,-243.51 2405.06,-249.59 2406.95,-242.85"/>
</g>
<!-- Node47 -->
<g id="node47" class="node">
<title>Node47</title>
<g id="a_node47"><a xlink:href="buffer_8h.html" target="_top" xlink:title=" ">
<polygon fill="none" stroke="black" points="2328,-560.5 2328,-579.5 2376,-579.5 2376,-560.5 2328,-560.5"/>
<text text-anchor="middle" x="2352" y="-567.5" font-family="Helvetica,sans-Serif" font-size="10.00">buffer.h</text>
</a>
</g>
</g>
<!-- Node45&#45;&gt;Node47 -->
<g id="edge123" class="edge">
<title>Node45&#45;&gt;Node47</title>
<path fill="none" stroke="midnightblue" d="M2336.97,-616.08C2339.38,-608.85 2342.86,-598.41 2345.87,-589.4"/>
<polygon fill="midnightblue" stroke="midnightblue" points="2349.24,-590.34 2349.08,-579.75 2342.6,-588.13 2349.24,-590.34"/>
</g>
<!-- Node46&#45;&gt;Node16 -->
<g id="edge120" class="edge">
<title>Node46&#45;&gt;Node16</title>
<path fill="none" stroke="midnightblue" d="M2317.24,-225.89C2234.19,-212.36 2045.15,-182.94 1885,-168 1722.72,-152.86 1228.02,-132.52 1050.37,-125.5"/>
<polygon fill="midnightblue" stroke="midnightblue" points="1050.27,-121.99 1040.14,-125.1 1049.99,-128.99 1050.27,-121.99"/>
</g>
<!-- Node46&#45;&gt;Node19 -->
<g id="edge121" class="edge">
<title>Node46&#45;&gt;Node19</title>
<path fill="none" stroke="midnightblue" d="M2375.11,-224.34C2399.33,-210.77 2448.62,-184.34 2493,-168 2614.2,-123.38 2763.33,-90.96 2838.61,-76.09"/>
<polygon fill="midnightblue" stroke="midnightblue" points="2839.6,-79.46 2848.74,-74.11 2838.25,-72.59 2839.6,-79.46"/>
</g>
<!-- Node46&#45;&gt;Node22 -->
<g id="edge122" class="edge">
<title>Node46&#45;&gt;Node22</title>
<path fill="none" stroke="midnightblue" d="M2326.72,-224.44C2288.96,-214.73 2227.47,-198.92 2187.89,-188.74"/>
<polygon fill="midnightblue" stroke="midnightblue" points="2188.64,-185.32 2178.08,-186.22 2186.89,-192.1 2188.64,-185.32"/>
</g>
<!-- Node47&#45;&gt;Node4 -->
<g id="edge126" class="edge">
<title>Node47&#45;&gt;Node4</title>
<path fill="none" stroke="midnightblue" d="M2346.03,-560.42C2321.38,-525.71 2223.34,-394.77 2108,-336 2039.47,-301.08 1948.07,-292.92 1897.88,-291.22"/>
<polygon fill="midnightblue" stroke="midnightblue" points="1897.91,-287.72 1887.82,-290.95 1897.72,-294.72 1897.91,-287.72"/>
</g>
<!-- Node47&#45;&gt;Node6 -->
<g id="edge125" class="edge">
<title>Node47&#45;&gt;Node6</title>
<path fill="none" stroke="midnightblue" d="M2376.06,-564.43C2400.22,-558.72 2437.2,-546.8 2461,-524 2591.34,-399.16 2599.05,-155.76 2598.46,-86.06"/>
<polygon fill="midnightblue" stroke="midnightblue" points="2601.96,-85.71 2598.3,-75.77 2594.96,-85.82 2601.96,-85.71"/>
</g>
<!-- Node47&#45;&gt;Node7 -->
<g id="edge164" class="edge">
<title>Node47&#45;&gt;Node7</title>
<path fill="none" stroke="midnightblue" d="M2327.96,-568.47C2162.01,-564.47 1185.09,-535.91 920,-412 711.86,-314.72 528.68,-90.91 479.77,-27.83"/>
<polygon fill="midnightblue" stroke="midnightblue" points="482.41,-25.52 473.54,-19.72 476.85,-29.78 482.41,-25.52"/>
</g>
<!-- Node47&#45;&gt;Node16 -->
<g id="edge124" class="edge">
<title>Node47&#45;&gt;Node16</title>
<path fill="none" stroke="midnightblue" d="M2327.96,-567.72C2193.58,-560.42 1534.39,-522.34 1339,-468 1283.07,-452.45 1266.66,-447.85 1221,-412 1166.43,-369.15 1038.23,-195.08 998.18,-139.88"/>
<polygon fill="midnightblue" stroke="midnightblue" points="1000.84,-137.59 992.14,-131.54 995.17,-141.69 1000.84,-137.59"/>
</g>
<!-- Node47&#45;&gt;Node19 -->
<g id="edge127" class="edge">
<title>Node47&#45;&gt;Node19</title>
<path fill="none" stroke="midnightblue" d="M2376.16,-568.93C2472.43,-567.29 2832.53,-548.08 3020,-356 3041.02,-334.46 3039,-321.1 3039,-291 3039,-291 3039,-291 3039,-177 3039,-123.44 2976.29,-93.3 2931.43,-78.59"/>
<polygon fill="midnightblue" stroke="midnightblue" points="2932.46,-75.25 2921.87,-75.6 2930.37,-81.93 2932.46,-75.25"/>
</g>
<!-- Node47&#45;&gt;Node22 -->
<g id="edge128" class="edge">
<title>Node47&#45;&gt;Node22</title>
<path fill="none" stroke="midnightblue" d="M2374.95,-560.48C2410.29,-545.71 2474,-511.76 2474,-459 2474,-459 2474,-459 2474,-345 2474,-284.57 2460.69,-259.78 2412,-224 2377.03,-198.31 2252.09,-186.08 2188.2,-181.4"/>
<polygon fill="midnightblue" stroke="midnightblue" points="2188.35,-177.9 2178.13,-180.69 2187.86,-184.88 2188.35,-177.9"/>
</g>
<!-- Node47&#45;&gt;Node48 -->
<g id="edge129" class="edge">
<title>Node47&#45;&gt;Node48</title>
<path fill="none" stroke="midnightblue" d="M2327.78,-564.81C2278.34,-556.25 2164.71,-536.58 2095.95,-524.68"/>
<polygon fill="midnightblue" stroke="midnightblue" points="2096.18,-521.17 2085.73,-522.91 2094.98,-528.07 2096.18,-521.17"/>
</g>
<!-- Node48&#45;&gt;Node3 -->
<g id="edge140" class="edge">
<title>Node48&#45;&gt;Node3</title>
<path fill="none" stroke="midnightblue" d="M2022.06,-523.75C1992.55,-539.55 1937,-575.81 1937,-625 1937,-739 1937,-739 1937,-739 1937,-780.49 1908.11,-787.59 1870,-804 1781.45,-842.14 1120.61,-847.97 897.97,-848.85"/>
<polygon fill="midnightblue" stroke="midnightblue" points="897.69,-845.35 887.7,-848.89 897.72,-852.35 897.69,-845.35"/>
</g>
<!-- Node48&#45;&gt;Node16 -->
<g id="edge130" class="edge">
<title>Node48&#45;&gt;Node16</title>
<path fill="none" stroke="midnightblue" d="M1994.2,-512.21C1859.1,-509.54 1463.82,-499.2 1339,-468 1222.06,-438.77 1177.28,-441.18 1092,-356 1028.79,-292.87 999.49,-185.2 989.82,-141.88"/>
<polygon fill="midnightblue" stroke="midnightblue" points="993.2,-140.93 987.69,-131.88 986.35,-142.39 993.2,-140.93"/>
</g>
<!-- Node48&#45;&gt;Node19 -->
<g id="edge131" class="edge">
<title>Node48&#45;&gt;Node19</title>
<path fill="none" stroke="midnightblue" d="M2072.11,-504.39C2216.83,-465.32 2803.93,-304.11 2863,-244 2905.54,-200.71 2905.26,-172.26 2898,-112 2896.93,-103.11 2894.71,-93.43 2892.54,-85.34"/>
<polygon fill="midnightblue" stroke="midnightblue" points="2895.84,-84.17 2889.73,-75.51 2889.11,-86.09 2895.84,-84.17"/>
</g>
<!-- Node48&#45;&gt;Node29 -->
<g id="edge141" class="edge">
<title>Node48&#45;&gt;Node29</title>
<path fill="none" stroke="midnightblue" d="M1994.34,-509.22C1875.8,-499.42 1558.98,-473.22 1436.39,-463.08"/>
<polygon fill="midnightblue" stroke="midnightblue" points="1436.43,-459.58 1426.18,-462.24 1435.85,-466.55 1436.43,-459.58"/>
</g>
<!-- Node48&#45;&gt;Node30 -->
<g id="edge142" class="edge">
<title>Node48&#45;&gt;Node30</title>
<path fill="none" stroke="midnightblue" d="M2006.46,-504.46C1928.94,-484.72 1737.43,-435.96 1651.25,-414.01"/>
<polygon fill="midnightblue" stroke="midnightblue" points="1652.07,-410.61 1641.52,-411.53 1650.34,-417.39 1652.07,-410.61"/>
</g>
<!-- Node48&#45;&gt;Node41 -->
<g id="edge139" class="edge">
<title>Node48&#45;&gt;Node41</title>
<path fill="none" stroke="midnightblue" d="M2043.5,-523.69C2052,-544.27 2075.1,-597.14 2103,-636 2127.03,-669.48 2161.76,-702.9 2182.49,-721.66"/>
<polygon fill="midnightblue" stroke="midnightblue" points="2180.16,-724.27 2189.95,-728.33 2184.82,-719.06 2180.16,-724.27"/>
</g>
<!-- Node48&#45;&gt;Node42 -->
<g id="edge138" class="edge">
<title>Node48&#45;&gt;Node42</title>
<path fill="none" stroke="midnightblue" d="M2085.83,-510.85C2270.5,-502.19 2958.98,-469.89 3144.63,-461.18"/>
<polygon fill="midnightblue" stroke="midnightblue" points="3145.04,-464.66 3154.87,-460.7 3144.71,-457.67 3145.04,-464.66"/>
</g>
<!-- Node48&#45;&gt;Node46 -->
<g id="edge132" class="edge">
<title>Node48&#45;&gt;Node46</title>
<path fill="none" stroke="midnightblue" d="M2061.86,-504.47C2133.88,-476.15 2360.23,-385.38 2379,-356 2399.43,-324.03 2382.15,-277.85 2369.81,-252.79"/>
<polygon fill="midnightblue" stroke="midnightblue" points="2372.81,-250.99 2365.09,-243.73 2366.6,-254.22 2372.81,-250.99"/>
</g>
<!-- Node48&#45;&gt;Node49 -->
<g id="edge133" class="edge">
<title>Node48&#45;&gt;Node49</title>
<path fill="none" stroke="midnightblue" d="M2085.73,-504.88C2244.3,-476.73 2769.53,-383.48 2928.81,-355.2"/>
<polygon fill="midnightblue" stroke="midnightblue" points="2929.53,-358.63 2938.77,-353.43 2928.31,-351.74 2929.53,-358.63"/>
</g>
<!-- Node50 -->
<g id="node50" class="node">
<title>Node50</title>
<g id="a_node50"><a xlink:href="descriptorset_8h.html" target="_top" xlink:title=" ">
<polygon fill="none" stroke="black" points="1980,-392.5 1980,-411.5 2060,-411.5 2060,-392.5 1980,-392.5"/>
<text text-anchor="middle" x="2020" y="-399.5" font-family="Helvetica,sans-Serif" font-size="10.00">descriptorset.h</text>
</a>
</g>
</g>
<!-- Node48&#45;&gt;Node50 -->
<g id="edge143" class="edge">
<title>Node48&#45;&gt;Node50</title>
<path fill="none" stroke="midnightblue" d="M2038.43,-504.37C2035.2,-486.62 2027.76,-445.67 2023.38,-421.6"/>
<polygon fill="midnightblue" stroke="midnightblue" points="2026.79,-420.8 2021.56,-411.59 2019.91,-422.06 2026.79,-420.8"/>
</g>
<!-- Node49&#45;&gt;Node4 -->
<g id="edge137" class="edge">
<title>Node49&#45;&gt;Node4</title>
<path fill="none" stroke="midnightblue" d="M2938.76,-337.88C2934.14,-337.15 2929.47,-336.49 2925,-336 2524.66,-291.71 2035.17,-290.21 1898.17,-290.75"/>
<polygon fill="midnightblue" stroke="midnightblue" points="1897.81,-287.25 1887.83,-290.8 1897.84,-294.25 1897.81,-287.25"/>
</g>
<!-- Node49&#45;&gt;Node5 -->
<g id="edge134" class="edge">
<title>Node49&#45;&gt;Node5</title>
<path fill="none" stroke="midnightblue" d="M3011.26,-343.36C3096.98,-337.36 3305,-309.35 3305,-179 3305,-179 3305,-179 3305,-121 3305,-81.08 3277.96,-75.28 3243,-56 3189.52,-26.5 3119.27,-16.22 3072.03,-12.7"/>
<polygon fill="midnightblue" stroke="midnightblue" points="3072.23,-9.21 3062.02,-12.03 3071.76,-16.19 3072.23,-9.21"/>
</g>
<!-- Node49&#45;&gt;Node6 -->
<g id="edge135" class="edge">
<title>Node49&#45;&gt;Node6</title>
<path fill="none" stroke="midnightblue" d="M2968.4,-336.28C2952.14,-315.2 2908.2,-260.51 2863,-224 2783.83,-160.05 2675.92,-104.42 2625.75,-80.08"/>
<polygon fill="midnightblue" stroke="midnightblue" points="2627.04,-76.81 2616.51,-75.63 2624.01,-83.12 2627.04,-76.81"/>
</g>
<!-- Node49&#45;&gt;Node19 -->
<g id="edge136" class="edge">
<title>Node49&#45;&gt;Node19</title>
<path fill="none" stroke="midnightblue" d="M2978.18,-336.08C2989.31,-303.23 3023.36,-187.02 2977,-112 2967.33,-96.35 2950.38,-85.96 2933.78,-79.15"/>
<polygon fill="midnightblue" stroke="midnightblue" points="2934.69,-75.76 2924.1,-75.54 2932.25,-82.32 2934.69,-75.76"/>
</g>
<!-- Node50&#45;&gt;Node4 -->
<g id="edge148" class="edge">
<title>Node50&#45;&gt;Node4</title>
<path fill="none" stroke="midnightblue" d="M2018.38,-392.11C2015.41,-378.22 2007.76,-351.37 1991,-336 1965.13,-312.28 1926.13,-300.96 1897.59,-295.63"/>
<polygon fill="midnightblue" stroke="midnightblue" points="1898.04,-292.15 1887.59,-293.92 1896.86,-299.05 1898.04,-292.15"/>
</g>
<!-- Node50&#45;&gt;Node5 -->
<g id="edge144" class="edge">
<title>Node50&#45;&gt;Node5</title>
<path fill="none" stroke="midnightblue" d="M2060.08,-401.58C2209.75,-402.11 2746.42,-389.11 3121,-188 3178.61,-157.07 3225.73,-107.94 3186,-56 3172.14,-37.89 3115.72,-25.37 3072.46,-18.22"/>
<polygon fill="midnightblue" stroke="midnightblue" points="3072.77,-14.72 3062.34,-16.6 3071.66,-21.63 3072.77,-14.72"/>
</g>
<!-- Node50&#45;&gt;Node7 -->
<g id="edge146" class="edge">
<title>Node50&#45;&gt;Node7</title>
<path fill="none" stroke="midnightblue" d="M1979.7,-400.13C1871.65,-397.43 1566.62,-387.4 1315,-356 1180.41,-339.2 1145.61,-336.59 1015,-300 879.56,-262.06 844.44,-251.63 719,-188 624.14,-139.88 524.52,-59.65 484.83,-26.28"/>
<polygon fill="midnightblue" stroke="midnightblue" points="486.78,-23.34 476.88,-19.55 482.25,-28.68 486.78,-23.34"/>
</g>
<!-- Node50&#45;&gt;Node8 -->
<g id="edge145" class="edge">
<title>Node50&#45;&gt;Node8</title>
<path fill="none" stroke="midnightblue" d="M1979.78,-395.04C1902.13,-383.53 1726.14,-357.52 1578,-336 1466.47,-319.8 1436.5,-326.63 1327,-300 1253.39,-282.09 1237.33,-269.54 1166,-244 1098.22,-219.73 1080.97,-214.42 1014,-188 954.34,-164.46 935.12,-166.42 881,-132 859.14,-118.1 837.56,-97.44 823.81,-83.16"/>
<polygon fill="midnightblue" stroke="midnightblue" points="826.08,-80.47 816.68,-75.59 820.99,-85.27 826.08,-80.47"/>
</g>
<!-- Node50&#45;&gt;Node19 -->
<g id="edge147" class="edge">
<title>Node50&#45;&gt;Node19</title>
<path fill="none" stroke="midnightblue" d="M2060.17,-400.2C2127.47,-397.94 2266.67,-389.25 2379,-356 2453.34,-334 2463.28,-306.87 2536,-280 2595.05,-258.18 2614.38,-266.97 2673,-244 2764.27,-208.24 2802.05,-208.77 2863,-132 2873.74,-118.47 2879.98,-99.66 2883.39,-85.76"/>
<polygon fill="midnightblue" stroke="midnightblue" points="2886.84,-86.37 2885.56,-75.86 2880,-84.88 2886.84,-86.37"/>
</g>
<!-- Node50&#45;&gt;Node32 -->
<g id="edge149" class="edge">
<title>Node50&#45;&gt;Node32</title>
<path fill="none" stroke="midnightblue" d="M1979.83,-397.66C1868.4,-388.41 1555.15,-362.38 1426.37,-351.68"/>
<polygon fill="midnightblue" stroke="midnightblue" points="1426.57,-348.19 1416.32,-350.85 1426,-355.16 1426.57,-348.19"/>
</g>
<!-- Node50&#45;&gt;Node44 -->
<g id="edge156" class="edge">
<title>Node50&#45;&gt;Node44</title>
<path fill="none" stroke="midnightblue" d="M2036.02,-411.52C2063.57,-427.46 2117,-464.62 2117,-513 2117,-571 2117,-571 2117,-571 2117,-634.22 2198.63,-662.14 2252.25,-673.65"/>
<polygon fill="midnightblue" stroke="midnightblue" points="2251.74,-677.12 2262.24,-675.68 2253.14,-670.26 2251.74,-677.12"/>
</g>
<!-- Node51 -->
<g id="node51" class="node">
<title>Node51</title>
<g id="a_node51"><a xlink:href="descriptorpool_8h.html" target="_top" xlink:title=" ">
<polygon fill="none" stroke="black" points="1896.5,-336.5 1896.5,-355.5 1981.5,-355.5 1981.5,-336.5 1896.5,-336.5"/>
<text text-anchor="middle" x="1939" y="-343.5" font-family="Helvetica,sans-Serif" font-size="10.00">descriptorpool.h</text>
</a>
</g>
</g>
<!-- Node50&#45;&gt;Node51 -->
<g id="edge150" class="edge">
<title>Node50&#45;&gt;Node51</title>
<path fill="none" stroke="midnightblue" d="M2006.99,-392.32C1994.47,-383.98 1975.32,-371.21 1960.53,-361.35"/>
<polygon fill="midnightblue" stroke="midnightblue" points="1962.24,-358.29 1951.98,-355.65 1958.36,-364.11 1962.24,-358.29"/>
</g>
<!-- Node52 -->
<g id="node52" class="node">
<title>Node52</title>
<g id="a_node52"><a xlink:href="uniformbuffer_8h.html" target="_top" xlink:title=" ">
<polygon fill="none" stroke="black" points="2290,-336.5 2290,-355.5 2370,-355.5 2370,-336.5 2290,-336.5"/>
<text text-anchor="middle" x="2330" y="-343.5" font-family="Helvetica,sans-Serif" font-size="10.00">uniformbuffer.h</text>
</a>
</g>
</g>
<!-- Node50&#45;&gt;Node52 -->
<g id="edge157" class="edge">
<title>Node50&#45;&gt;Node52</title>
<path fill="none" stroke="midnightblue" d="M2060.21,-394C2116.43,-384.2 2218.47,-366.43 2279.67,-355.77"/>
<polygon fill="midnightblue" stroke="midnightblue" points="2280.61,-359.16 2289.86,-353.99 2279.41,-352.26 2280.61,-359.16"/>
</g>
<!-- Node51&#45;&gt;Node4 -->
<g id="edge155" class="edge">
<title>Node51&#45;&gt;Node4</title>
<path fill="none" stroke="midnightblue" d="M1926.47,-336.32C1914.41,-327.98 1895.97,-315.21 1881.73,-305.35"/>
<polygon fill="midnightblue" stroke="midnightblue" points="1883.72,-302.47 1873.5,-299.65 1879.73,-308.22 1883.72,-302.47"/>
</g>
<!-- Node51&#45;&gt;Node5 -->
<g id="edge151" class="edge">
<title>Node51&#45;&gt;Node5</title>
<path fill="none" stroke="midnightblue" d="M1981.73,-341.88C2107.33,-331.7 2484.94,-293.77 2778,-188 2876.32,-152.52 2969.3,-63.79 3004.82,-27.18"/>
<polygon fill="midnightblue" stroke="midnightblue" points="3007.48,-29.46 3011.87,-19.82 3002.42,-24.62 3007.48,-29.46"/>
</g>
<!-- Node51&#45;&gt;Node7 -->
<g id="edge153" class="edge">
<title>Node51&#45;&gt;Node7</title>
<path fill="none" stroke="midnightblue" d="M1896.24,-342.13C1802.98,-334.79 1575.46,-310.92 1398,-244 1395.61,-243.1 1084.44,-56.77 1082,-56 971.68,-21.29 609.52,-13.11 499.19,-11.41"/>
<polygon fill="midnightblue" stroke="midnightblue" points="499.07,-7.91 489.02,-11.26 498.97,-14.91 499.07,-7.91"/>
</g>
<!-- Node51&#45;&gt;Node8 -->
<g id="edge152" class="edge">
<title>Node51&#45;&gt;Node8</title>
<path fill="none" stroke="midnightblue" d="M1896.21,-345.19C1803.79,-344.78 1579.1,-339.41 1396,-300 1341.48,-288.27 973.7,-155.24 923,-132 889.69,-116.73 853.23,-94.99 830.74,-80.94"/>
<polygon fill="midnightblue" stroke="midnightblue" points="832.6,-77.98 822.28,-75.6 828.87,-83.9 832.6,-77.98"/>
</g>
<!-- Node51&#45;&gt;Node19 -->
<g id="edge154" class="edge">
<title>Node51&#45;&gt;Node19</title>
<path fill="none" stroke="midnightblue" d="M1981.7,-339.97C2031.1,-333.5 2114.55,-320.59 2184,-300 2206.16,-293.43 2209.8,-286.41 2232,-280 2324.24,-253.36 2351.79,-267 2445,-244 2600.28,-205.68 2642.73,-201.05 2787,-132 2816.8,-117.74 2848.3,-96 2867.81,-81.65"/>
<polygon fill="midnightblue" stroke="midnightblue" points="2869.95,-84.41 2875.87,-75.63 2865.77,-78.8 2869.95,-84.41"/>
</g>
<!-- Node52&#45;&gt;Node4 -->
<g id="edge161" class="edge">
<title>Node52&#45;&gt;Node4</title>
<path fill="none" stroke="midnightblue" d="M2289.61,-340.35C2199.7,-330 1984.21,-305.19 1897.78,-295.24"/>
<polygon fill="midnightblue" stroke="midnightblue" points="1898,-291.74 1887.66,-294.07 1897.2,-298.69 1898,-291.74"/>
</g>
<!-- Node52&#45;&gt;Node5 -->
<g id="edge158" class="edge">
<title>Node52&#45;&gt;Node5</title>
<path fill="none" stroke="midnightblue" d="M2366.95,-336.46C2420.82,-324.01 2524.1,-300.16 2612,-280 2736.41,-251.46 3093.99,-236.7 3167,-132 3186.32,-104.29 3187.09,-83.16 3167,-56 3145.35,-26.73 3105.05,-15.88 3072.11,-12.12"/>
<polygon fill="midnightblue" stroke="midnightblue" points="3072.44,-8.64 3062.15,-11.17 3071.77,-15.61 3072.44,-8.64"/>
</g>
<!-- Node52&#45;&gt;Node6 -->
<g id="edge159" class="edge">
<title>Node52&#45;&gt;Node6</title>
<path fill="none" stroke="midnightblue" d="M2336.74,-336.37C2346.73,-323.71 2366.18,-299.49 2384,-280 2454.36,-203.02 2544.61,-117.04 2581.34,-82.55"/>
<polygon fill="midnightblue" stroke="midnightblue" points="2583.82,-85.02 2588.72,-75.63 2579.03,-79.91 2583.82,-85.02"/>
</g>
<!-- Node52&#45;&gt;Node22 -->
<g id="edge163" class="edge">
<title>Node52&#45;&gt;Node22</title>
<path fill="none" stroke="midnightblue" d="M2320.32,-336.08C2291.13,-309.15 2203.69,-228.51 2166.76,-194.45"/>
<polygon fill="midnightblue" stroke="midnightblue" points="2169.01,-191.77 2159.29,-187.57 2164.27,-196.92 2169.01,-191.77"/>
</g>
<!-- Node52&#45;&gt;Node36 -->
<g id="edge160" class="edge">
<title>Node52&#45;&gt;Node36</title>
<path fill="none" stroke="midnightblue" d="M2289.98,-343.69C2059.79,-336.17 907.69,-298.51 707.64,-291.97"/>
<polygon fill="midnightblue" stroke="midnightblue" points="707.68,-288.47 697.57,-291.64 707.45,-295.46 707.68,-288.47"/>
</g>
<!-- Node52&#45;&gt;Node47 -->
<g id="edge162" class="edge">
<title>Node52&#45;&gt;Node47</title>
<path fill="none" stroke="midnightblue" d="M2330.88,-355.88C2334.15,-388.85 2345.62,-504.64 2350.15,-550.3"/>
<polygon fill="midnightblue" stroke="midnightblue" points="2346.67,-550.69 2351.14,-560.3 2353.63,-550 2346.67,-550.69"/>
</g>
<!-- Node53&#45;&gt;Node4 -->
<g id="edge171" class="edge">
<title>Node53&#45;&gt;Node4</title>
<path fill="none" stroke="midnightblue" d="M1757.22,-728.35C1749.58,-710.03 1733,-665.82 1733,-627 1733,-627 1733,-627 1733,-401 1733,-351.64 1788.42,-319.61 1826.33,-303.48"/>
<polygon fill="midnightblue" stroke="midnightblue" points="1828.07,-306.55 1836.02,-299.53 1825.43,-300.06 1828.07,-306.55"/>
</g>
<!-- Node53&#45;&gt;Node40 -->
<g id="edge170" class="edge">
<title>Node53&#45;&gt;Node40</title>
<path fill="none" stroke="midnightblue" d="M1770.08,-728.08C1778.17,-720.14 1790.2,-708.34 1799.91,-698.8"/>
<polygon fill="midnightblue" stroke="midnightblue" points="1802.4,-701.25 1807.09,-691.75 1797.5,-696.26 1802.4,-701.25"/>
</g>
<!-- Node54&#45;&gt;Node2 -->
<g id="edge184" class="edge">
<title>Node54&#45;&gt;Node2</title>
<path fill="none" stroke="midnightblue" d="M751.21,-915.57C746.45,-941.45 719.67,-1019.25 703.75,-1054.86"/>
<polygon fill="midnightblue" stroke="midnightblue" points="700.5,-1053.54 699.38,-1064.08 706.82,-1056.54 700.5,-1053.54"/>
</g>
<!-- Node54&#45;&gt;Node3 -->
<g id="edge185" class="edge">
<title>Node54&#45;&gt;Node3</title>
<path fill="none" stroke="midnightblue" d="M762.89,-896.32C774.15,-888.11 791.29,-875.6 804.71,-865.81"/>
<polygon fill="midnightblue" stroke="midnightblue" points="806.88,-868.56 812.89,-859.83 802.75,-862.9 806.88,-868.56"/>
</g>
<!-- Node55 -->
<g id="node55" class="node">
<title>Node55</title>
<g id="a_node55"><a xlink:href="materiallibrary_8h.html" target="_top" xlink:title=" ">
<polygon fill="none" stroke="black" points="654,-840.5 654,-859.5 738,-859.5 738,-840.5 654,-840.5"/>
<text text-anchor="middle" x="696" y="-847.5" font-family="Helvetica,sans-Serif" font-size="10.00">materiallibrary.h</text>
</a>
</g>
</g>
<!-- Node54&#45;&gt;Node55 -->
<g id="edge178" class="edge">
<title>Node54&#45;&gt;Node55</title>
<path fill="none" stroke="midnightblue" d="M737.05,-896.32C727.48,-888.58 715.32,-877.02 706.54,-867.51"/>
<polygon fill="midnightblue" stroke="midnightblue" points="709.06,-865.07 699.85,-859.83 703.78,-869.67 709.06,-865.07"/>
</g>
<!-- Node55&#45;&gt;Node2 -->
<g id="edge181" class="edge">
<title>Node55&#45;&gt;Node2</title>
<path fill="none" stroke="midnightblue" d="M695.88,-859.88C695.43,-892.85 693.87,-1008.64 693.25,-1054.3"/>
<polygon fill="midnightblue" stroke="midnightblue" points="689.75,-1054.25 693.12,-1064.3 696.75,-1054.35 689.75,-1054.25"/>
</g>
<!-- Node55&#45;&gt;Node7 -->
<g id="edge179" class="edge">
<title>Node55&#45;&gt;Node7</title>
<path fill="none" stroke="midnightblue" d="M690.93,-840.26C668.87,-802.84 577.68,-653.71 472,-560 451.82,-542.1 78.95,-320.98 62,-300 42.64,-276.05 38,-265.8 38,-235 38,-235 38,-235 38,-121 38,-90.2 37.75,-74.98 62,-56 119.71,-10.85 349.19,-9.3 434.68,-10.36"/>
<polygon fill="midnightblue" stroke="midnightblue" points="434.78,-13.86 444.83,-10.5 434.89,-6.86 434.78,-13.86"/>
</g>
<!-- Node55&#45;&gt;Node52 -->
<g id="edge183" class="edge">
<title>Node55&#45;&gt;Node52</title>
<path fill="none" stroke="midnightblue" d="M738.26,-841.73C743.22,-841.05 748.21,-840.45 753,-840 1677.42,-752.47 1937.12,-920.96 2837,-692 2901.55,-675.58 2938.73,-691.2 2976,-636 3050.26,-526.03 2539.27,-395.88 2377.81,-357.9"/>
<polygon fill="midnightblue" stroke="midnightblue" points="2378.22,-354.41 2367.69,-355.54 2376.63,-361.22 2378.22,-354.41"/>
</g>
<!-- Node55&#45;&gt;Node54 -->
<g id="edge182" class="edge">
<title>Node55&#45;&gt;Node54</title>
<path fill="none" stroke="midnightblue" d="M710.04,-859.75C719.58,-867.48 731.66,-878.97 740.41,-888.43"/>
<polygon fill="midnightblue" stroke="midnightblue" points="737.87,-890.85 747.08,-896.08 743.14,-886.25 737.87,-890.85"/>
</g>
<!-- Node56 -->
<g id="node56" class="node">
<title>Node56</title>
<g id="a_node56"><a xlink:title=" ">
<polygon fill="none" stroke="#bfbfbf" points="577.5,-784.5 577.5,-803.5 646.5,-803.5 646.5,-784.5 577.5,-784.5"/>
<text text-anchor="middle" x="612" y="-791.5" font-family="Helvetica,sans-Serif" font-size="10.00">glm/glm.hpp</text>
</a>
</g>
</g>
<!-- Node55&#45;&gt;Node56 -->
<g id="edge180" class="edge">
<title>Node55&#45;&gt;Node56</title>
<path fill="none" stroke="midnightblue" d="M682.5,-840.32C669.4,-831.9 649.29,-818.97 633.89,-809.07"/>
<polygon fill="midnightblue" stroke="midnightblue" points="635.77,-806.12 625.46,-803.65 631.98,-812.01 635.77,-806.12"/>
</g>
<!-- Node57&#45;&gt;Node7 -->
<g id="edge189" class="edge">
<title>Node57&#45;&gt;Node7</title>
<path fill="none" stroke="midnightblue" d="M507.44,-952.27C496.45,-934.15 473,-890.83 473,-851 473,-851 473,-851 473,-681 473,-536.53 0,-379.47 0,-235 0,-235 0,-235 0,-121 0,-86.84 12,-74.05 41,-56 106.69,-15.12 347.02,-10.97 434.7,-10.84"/>
<polygon fill="midnightblue" stroke="midnightblue" points="434.85,-14.34 444.85,-10.85 434.86,-7.34 434.85,-14.34"/>
</g>
<!-- Node57&#45;&gt;Node9 -->
<g id="edge190" class="edge">
<title>Node57&#45;&gt;Node9</title>
<path fill="none" stroke="midnightblue" d="M513.65,-952.39C515.93,-925.86 525.21,-843.55 556,-784 570.29,-756.37 578.24,-752.03 598,-728 649.06,-665.89 840,-539.41 840,-459 840,-459 840,-459 840,-289 840,-202.11 853.24,-163.8 923,-112 966.55,-79.66 1131.21,-70.37 1200.25,-67.86"/>
<polygon fill="midnightblue" stroke="midnightblue" points="1200.6,-71.35 1210.47,-67.52 1200.36,-64.36 1200.6,-71.35"/>
</g>
<!-- Node57&#45;&gt;Node14 -->
<g id="edge187" class="edge">
<title>Node57&#45;&gt;Node14</title>
<path fill="none" stroke="midnightblue" d="M515.32,-952.32C524.35,-918.67 557.22,-798.04 568,-784 705.09,-605.47 1362.37,-263.6 1501.92,-192.25"/>
<polygon fill="midnightblue" stroke="midnightblue" points="1503.74,-195.25 1511.06,-187.59 1500.56,-189.01 1503.74,-195.25"/>
</g>
<!-- Node57&#45;&gt;Node54 -->
<g id="edge191" class="edge">
<title>Node57&#45;&gt;Node54</title>
<path fill="none" stroke="midnightblue" d="M537.11,-954.27C540.1,-953.48 543.12,-952.71 546,-952 603.25,-937.92 670.01,-923.66 711.4,-915.08"/>
<polygon fill="midnightblue" stroke="midnightblue" points="712.27,-918.47 721.36,-913.02 710.86,-911.62 712.27,-918.47"/>
</g>
<!-- Node57&#45;&gt;Node56 -->
<g id="edge188" class="edge">
<title>Node57&#45;&gt;Node56</title>
<path fill="none" stroke="midnightblue" d="M525.57,-952.28C536.68,-944.02 552.68,-930.73 563,-916 585.9,-883.33 600.48,-838.37 607.35,-813.48"/>
<polygon fill="midnightblue" stroke="midnightblue" points="610.8,-814.13 609.96,-803.57 604.03,-812.34 610.8,-814.13"/>
</g>
<!-- Node58&#45;&gt;Node57 -->
<g id="edge194" class="edge">
<title>Node58&#45;&gt;Node57</title>
<path fill="none" stroke="midnightblue" d="M594.42,-1008.32C579,-999.74 555.19,-986.49 537.29,-976.52"/>
<polygon fill="midnightblue" stroke="midnightblue" points="538.99,-973.46 528.55,-971.65 535.58,-979.58 538.99,-973.46"/>
</g>
<!-- Node59 -->
<g id="node59" class="node">
<title>Node59</title>
<g id="a_node59"><a xlink:title=" ">
<polygon fill="none" stroke="#bfbfbf" points="555,-952.5 555,-971.5 665,-971.5 665,-952.5 555,-952.5"/>
<text text-anchor="middle" x="610" y="-959.5" font-family="Helvetica,sans-Serif" font-size="10.00">glm/gtx/transform.hpp</text>
</a>
</g>
</g>
<!-- Node58&#45;&gt;Node59 -->
<g id="edge193" class="edge">
<title>Node58&#45;&gt;Node59</title>
<path fill="none" stroke="midnightblue" d="M610,-1008.08C610,-1001.01 610,-990.86 610,-981.99"/>
<polygon fill="midnightblue" stroke="midnightblue" points="613.5,-981.75 610,-971.75 606.5,-981.75 613.5,-981.75"/>
</g>
</g>
</svg>
