<?xml version="1.0" encoding="UTF-8" standalone="no"?>
<!DOCTYPE svg PUBLIC "-//W3C//DTD SVG 1.1//EN"
 "http://www.w3.org/Graphics/SVG/1.1/DTD/svg11.dtd">
<!-- Generated by graphviz version 2.49.3 (20211215.1918)
 -->
<!-- Title: /github/workspace/src/renderer/materiallibrary.h Pages: 1 -->
<svg width="1710pt" height="508pt"
 viewBox="0.00 0.00 1710.00 508.00" xmlns="http://www.w3.org/2000/svg" xmlns:xlink="http://www.w3.org/1999/xlink">
<g id="graph0" class="graph" transform="scale(1 1) rotate(0) translate(4 504)">
<title>/github/workspace/src/renderer/materiallibrary.h</title>
<!-- Node1 -->
<g id="node1" class="node">
<title>Node1</title>
<g id="a_node1"><a xlink:title=" ">
<polygon fill="#bfbfbf" stroke="black" points="794.5,-469.5 794.5,-499.5 919.5,-499.5 919.5,-469.5 794.5,-469.5"/>
<text text-anchor="start" x="802.5" y="-487.5" font-family="Helvetica,sans-Serif" font-size="10.00">/github/workspace/src</text>
<text text-anchor="middle" x="857" y="-476.5" font-family="Helvetica,sans-Serif" font-size="10.00">/renderer/materiallibrary.h</text>
</a>
</g>
</g>
<!-- Node2 -->
<g id="node2" class="node">
<title>Node2</title>
<g id="a_node2"><a xlink:href="material_8h.html" target="_top" xlink:title=" ">
<polygon fill="none" stroke="black" points="800.5,-402.5 800.5,-432.5 913.5,-432.5 913.5,-402.5 800.5,-402.5"/>
<text text-anchor="start" x="808.5" y="-420.5" font-family="Helvetica,sans-Serif" font-size="10.00">/github/workspace/src</text>
<text text-anchor="middle" x="857" y="-409.5" font-family="Helvetica,sans-Serif" font-size="10.00">/renderer/material.h</text>
</a>
</g>
</g>
<!-- Node1&#45;&gt;Node2 -->
<g id="edge1" class="edge">
<title>Node1&#45;&gt;Node2</title>
<path fill="none" stroke="midnightblue" d="M850.45,-459.4C850.01,-450.37 850.3,-440.41 851.33,-432.58"/>
<polygon fill="midnightblue" stroke="midnightblue" points="846.97,-459.74 851.32,-469.4 853.94,-459.13 846.97,-459.74"/>
</g>
<!-- Node10 -->
<g id="node10" class="node">
<title>Node10</title>
<g id="a_node10"><a xlink:href="rendermanager_8h.html" target="_top" xlink:title=" ">
<polygon fill="none" stroke="black" points="1248,-67.5 1248,-97.5 1378,-97.5 1378,-67.5 1248,-67.5"/>
<text text-anchor="start" x="1256" y="-85.5" font-family="Helvetica,sans-Serif" font-size="10.00">/github/workspace/src</text>
<text text-anchor="middle" x="1313" y="-74.5" font-family="Helvetica,sans-Serif" font-size="10.00">/renderer/rendermanager.h</text>
</a>
</g>
</g>
<!-- Node1&#45;&gt;Node10 -->
<g id="edge47" class="edge">
<title>Node1&#45;&gt;Node10</title>
<path fill="none" stroke="midnightblue" d="M929.72,-476.99C1105.3,-460.3 1538,-412.94 1538,-351.5 1538,-351.5 1538,-351.5 1538,-215.5 1538,-178.2 1544.36,-160.38 1518,-134 1512.85,-128.85 1435.02,-110.61 1376.77,-97.54"/>
<polygon fill="midnightblue" stroke="midnightblue" points="929.17,-473.53 919.54,-477.95 929.83,-480.5 929.17,-473.53"/>
</g>
<!-- Node29 -->
<g id="node29" class="node">
<title>Node29</title>
<g id="a_node29"><a xlink:href="materiallibrary_8cpp.html" target="_top" xlink:title=" ">
<polygon fill="none" stroke="black" points="1566,-402.5 1566,-432.5 1702,-432.5 1702,-402.5 1566,-402.5"/>
<text text-anchor="start" x="1574" y="-420.5" font-family="Helvetica,sans-Serif" font-size="10.00">/github/workspace/src</text>
<text text-anchor="middle" x="1634" y="-409.5" font-family="Helvetica,sans-Serif" font-size="10.00">/renderer/materiallibrary.cpp</text>
</a>
</g>
</g>
<!-- Node1&#45;&gt;Node29 -->
<g id="edge46" class="edge">
<title>Node1&#45;&gt;Node29</title>
<path fill="none" stroke="midnightblue" d="M929.86,-480.67C1056.68,-475.18 1326.05,-461.11 1552,-433 1556.45,-432.45 1561.02,-431.81 1565.62,-431.13"/>
<polygon fill="midnightblue" stroke="midnightblue" points="929.35,-477.18 919.51,-481.11 929.65,-484.18 929.35,-477.18"/>
</g>
<!-- Node2&#45;&gt;Node1 -->
<g id="edge7" class="edge">
<title>Node2&#45;&gt;Node1</title>
<path fill="none" stroke="midnightblue" d="M863.54,-442.57C863.99,-451.6 863.71,-461.56 862.68,-469.4"/>
<polygon fill="midnightblue" stroke="midnightblue" points="867.03,-442.24 862.67,-432.58 860.05,-442.84 867.03,-442.24"/>
</g>
<!-- Node3 -->
<g id="node3" class="node">
<title>Node3</title>
<g id="a_node3"><a xlink:href="mastermaterial_8h.html" target="_top" xlink:title=" ">
<polygon fill="none" stroke="black" points="637,-201.5 637,-231.5 767,-231.5 767,-201.5 637,-201.5"/>
<text text-anchor="start" x="645" y="-219.5" font-family="Helvetica,sans-Serif" font-size="10.00">/github/workspace/src</text>
<text text-anchor="middle" x="702" y="-208.5" font-family="Helvetica,sans-Serif" font-size="10.00">/renderer/mastermaterial.h</text>
</a>
</g>
</g>
<!-- Node2&#45;&gt;Node3 -->
<g id="edge2" class="edge">
<title>Node2&#45;&gt;Node3</title>
<path fill="none" stroke="midnightblue" d="M818.15,-396.86C805.56,-388.28 792.31,-377.54 782,-366 743.17,-322.5 712.08,-259.65 703.22,-231.76"/>
<polygon fill="midnightblue" stroke="midnightblue" points="816.42,-399.91 826.71,-402.43 820.24,-394.04 816.42,-399.91"/>
</g>
<!-- Node5 -->
<g id="node5" class="node">
<title>Node5</title>
<g id="a_node5"><a xlink:href="material_8cpp.html" target="_top" xlink:title=" ">
<polygon fill="none" stroke="black" points="800.5,-335.5 800.5,-365.5 913.5,-365.5 913.5,-335.5 800.5,-335.5"/>
<text text-anchor="start" x="808.5" y="-353.5" font-family="Helvetica,sans-Serif" font-size="10.00">/github/workspace/src</text>
<text text-anchor="middle" x="857" y="-342.5" font-family="Helvetica,sans-Serif" font-size="10.00">/renderer/material.cpp</text>
</a>
</g>
</g>
<!-- Node2&#45;&gt;Node5 -->
<g id="edge6" class="edge">
<title>Node2&#45;&gt;Node5</title>
<path fill="none" stroke="midnightblue" d="M857,-392.11C857,-383.15 857,-373.32 857,-365.58"/>
<polygon fill="midnightblue" stroke="midnightblue" points="853.5,-392.4 857,-402.4 860.5,-392.4 853.5,-392.4"/>
</g>
<!-- Node6 -->
<g id="node6" class="node">
<title>Node6</title>
<g id="a_node6"><a xlink:href="mesh_8h.html" target="_top" xlink:title=" ">
<polygon fill="none" stroke="black" points="944.5,-335.5 944.5,-365.5 1057.5,-365.5 1057.5,-335.5 944.5,-335.5"/>
<text text-anchor="start" x="952.5" y="-353.5" font-family="Helvetica,sans-Serif" font-size="10.00">/github/workspace/src</text>
<text text-anchor="middle" x="1001" y="-342.5" font-family="Helvetica,sans-Serif" font-size="10.00">/renderer/mesh.h</text>
</a>
</g>
</g>
<!-- Node2&#45;&gt;Node6 -->
<g id="edge8" class="edge">
<title>Node2&#45;&gt;Node6</title>
<path fill="none" stroke="midnightblue" d="M897.39,-398.27C920.32,-387.92 948.6,-375.15 969.82,-365.58"/>
<polygon fill="midnightblue" stroke="midnightblue" points="895.92,-395.09 888.25,-402.4 898.8,-401.47 895.92,-395.09"/>
</g>
<!-- Node3&#45;&gt;Node1 -->
<g id="edge5" class="edge">
<title>Node3&#45;&gt;Node1</title>
<path fill="none" stroke="midnightblue" d="M707,-241.6C716.84,-284.2 742.13,-373.87 791,-433 802.95,-447.46 819.78,-460.25 833.46,-469.35"/>
<polygon fill="midnightblue" stroke="midnightblue" points="710.37,-240.6 704.78,-231.6 703.53,-242.12 710.37,-240.6"/>
</g>
<!-- Node3&#45;&gt;Node2 -->
<g id="edge4" class="edge">
<title>Node3&#45;&gt;Node2</title>
<path fill="none" stroke="midnightblue" d="M718.45,-240.48C735.98,-271.26 764.81,-326.58 800,-366 812.68,-380.21 829.83,-393.19 842.24,-402.43"/>
<polygon fill="midnightblue" stroke="midnightblue" points="721.43,-238.64 713.38,-231.76 715.38,-242.16 721.43,-238.64"/>
</g>
<!-- Node4 -->
<g id="node4" class="node">
<title>Node4</title>
<g id="a_node4"><a xlink:href="mastermaterial_8cpp.html" target="_top" xlink:title=" ">
<polygon fill="none" stroke="black" points="0,-134.5 0,-164.5 140,-164.5 140,-134.5 0,-134.5"/>
<text text-anchor="start" x="8" y="-152.5" font-family="Helvetica,sans-Serif" font-size="10.00">/github/workspace/src</text>
<text text-anchor="middle" x="70" y="-141.5" font-family="Helvetica,sans-Serif" font-size="10.00">/renderer/mastermaterial.cpp</text>
</a>
</g>
</g>
<!-- Node3&#45;&gt;Node4 -->
<g id="edge3" class="edge">
<title>Node3&#45;&gt;Node4</title>
<path fill="none" stroke="midnightblue" d="M626.63,-210.79C519.97,-203.62 319.02,-188.32 149,-165 146.1,-164.6 143.14,-164.17 140.16,-163.72"/>
<polygon fill="midnightblue" stroke="midnightblue" points="626.45,-214.28 636.66,-211.45 626.91,-207.3 626.45,-214.28"/>
</g>
<!-- Node6&#45;&gt;Node3 -->
<g id="edge9" class="edge">
<title>Node6&#45;&gt;Node3</title>
<path fill="none" stroke="midnightblue" d="M934.19,-337.46C897.82,-329.42 852.68,-316.97 815,-299 814.84,-298.92 753.97,-255.01 721.65,-231.68"/>
<polygon fill="midnightblue" stroke="midnightblue" points="933.69,-340.93 944.2,-339.61 935.16,-334.09 933.69,-340.93"/>
</g>
<!-- Node7 -->
<g id="node7" class="node">
<title>Node7</title>
<g id="a_node7"><a xlink:href="mesh_8cpp.html" target="_top" xlink:title=" ">
<polygon fill="none" stroke="black" points="970.5,-268.5 970.5,-298.5 1083.5,-298.5 1083.5,-268.5 970.5,-268.5"/>
<text text-anchor="start" x="978.5" y="-286.5" font-family="Helvetica,sans-Serif" font-size="10.00">/github/workspace/src</text>
<text text-anchor="middle" x="1027" y="-275.5" font-family="Helvetica,sans-Serif" font-size="10.00">/renderer/mesh.cpp</text>
</a>
</g>
</g>
<!-- Node6&#45;&gt;Node7 -->
<g id="edge10" class="edge">
<title>Node6&#45;&gt;Node7</title>
<path fill="none" stroke="midnightblue" d="M1010.4,-325.99C1014.08,-316.8 1018.17,-306.58 1021.37,-298.58"/>
<polygon fill="midnightblue" stroke="midnightblue" points="1007.11,-324.81 1006.64,-335.4 1013.61,-327.41 1007.11,-324.81"/>
</g>
<!-- Node8 -->
<g id="node8" class="node">
<title>Node8</title>
<g id="a_node8"><a xlink:href="meshlibrary_8h.html" target="_top" xlink:title=" ">
<polygon fill="none" stroke="black" points="1394.5,-134.5 1394.5,-164.5 1509.5,-164.5 1509.5,-134.5 1394.5,-134.5"/>
<text text-anchor="start" x="1402.5" y="-152.5" font-family="Helvetica,sans-Serif" font-size="10.00">/github/workspace/src</text>
<text text-anchor="middle" x="1452" y="-141.5" font-family="Helvetica,sans-Serif" font-size="10.00">/renderer/meshlibrary.h</text>
</a>
</g>
</g>
<!-- Node6&#45;&gt;Node8 -->
<g id="edge11" class="edge">
<title>Node6&#45;&gt;Node8</title>
<path fill="none" stroke="midnightblue" d="M1044.77,-331.57C1067.82,-322.05 1096.51,-310.05 1122,-299 1232.67,-251.02 1362.96,-191.48 1421.19,-164.71"/>
<polygon fill="midnightblue" stroke="midnightblue" points="1043.18,-328.44 1035.27,-335.49 1045.85,-334.91 1043.18,-328.44"/>
</g>
<!-- Node13 -->
<g id="node13" class="node">
<title>Node13</title>
<g id="a_node13"><a xlink:href="modelloader_8h.html" target="_top" xlink:title=" ">
<polygon fill="none" stroke="black" points="1103,-201.5 1103,-231.5 1221,-231.5 1221,-201.5 1103,-201.5"/>
<text text-anchor="start" x="1111" y="-219.5" font-family="Helvetica,sans-Serif" font-size="10.00">/github/workspace/src</text>
<text text-anchor="middle" x="1162" y="-208.5" font-family="Helvetica,sans-Serif" font-size="10.00">/renderer/modelloader.h</text>
</a>
</g>
</g>
<!-- Node6&#45;&gt;Node13 -->
<g id="edge16" class="edge">
<title>Node6&#45;&gt;Node13</title>
<path fill="none" stroke="midnightblue" d="M1041.99,-330.7C1058.37,-322.21 1076.9,-311.31 1092,-299 1116.87,-278.73 1139.92,-248.91 1152.37,-231.52"/>
<polygon fill="midnightblue" stroke="midnightblue" points="1039.98,-327.79 1032.63,-335.42 1043.13,-334.04 1039.98,-327.79"/>
</g>
<!-- Node17 -->
<g id="node17" class="node">
<title>Node17</title>
<g id="a_node17"><a xlink:href="objectinstance_8h.html" target="_top" xlink:title=" ">
<polygon fill="none" stroke="black" points="824,-268.5 824,-298.5 952,-298.5 952,-268.5 824,-268.5"/>
<text text-anchor="start" x="832" y="-286.5" font-family="Helvetica,sans-Serif" font-size="10.00">/github/workspace/src</text>
<text text-anchor="middle" x="888" y="-275.5" font-family="Helvetica,sans-Serif" font-size="10.00">/renderer/objectinstance.h</text>
</a>
</g>
</g>
<!-- Node6&#45;&gt;Node17 -->
<g id="edge22" class="edge">
<title>Node6&#45;&gt;Node17</title>
<path fill="none" stroke="midnightblue" d="M967.61,-330.3C949.93,-320.12 928.6,-307.85 912.47,-298.58"/>
<polygon fill="midnightblue" stroke="midnightblue" points="966.07,-333.44 976.48,-335.4 969.56,-327.38 966.07,-333.44"/>
</g>
<!-- Node9 -->
<g id="node9" class="node">
<title>Node9</title>
<g id="a_node9"><a xlink:href="meshlibrary_8cpp.html" target="_top" xlink:title=" ">
<polygon fill="none" stroke="black" points="1396.5,-67.5 1396.5,-97.5 1521.5,-97.5 1521.5,-67.5 1396.5,-67.5"/>
<text text-anchor="start" x="1404.5" y="-85.5" font-family="Helvetica,sans-Serif" font-size="10.00">/github/workspace/src</text>
<text text-anchor="middle" x="1459" y="-74.5" font-family="Helvetica,sans-Serif" font-size="10.00">/renderer/meshlibrary.cpp</text>
</a>
</g>
</g>
<!-- Node8&#45;&gt;Node9 -->
<g id="edge12" class="edge">
<title>Node8&#45;&gt;Node9</title>
<path fill="none" stroke="midnightblue" d="M1454.6,-124.4C1455.57,-115.37 1456.64,-105.41 1457.48,-97.58"/>
<polygon fill="midnightblue" stroke="midnightblue" points="1451.11,-124.08 1453.52,-134.4 1458.07,-124.83 1451.11,-124.08"/>
</g>
<!-- Node8&#45;&gt;Node10 -->
<g id="edge13" class="edge">
<title>Node8&#45;&gt;Node10</title>
<path fill="none" stroke="midnightblue" d="M1412.72,-130.13C1390.63,-119.8 1363.49,-107.11 1343.1,-97.58"/>
<polygon fill="midnightblue" stroke="midnightblue" points="1411.3,-133.33 1421.84,-134.4 1414.26,-126.99 1411.3,-133.33"/>
</g>
<!-- Node11 -->
<g id="node11" class="node">
<title>Node11</title>
<g id="a_node11"><a xlink:href="rendermanager_8cpp.html" target="_top" xlink:title=" ">
<polygon fill="none" stroke="black" points="1243,-0.5 1243,-30.5 1383,-30.5 1383,-0.5 1243,-0.5"/>
<text text-anchor="start" x="1251" y="-18.5" font-family="Helvetica,sans-Serif" font-size="10.00">/github/workspace/src</text>
<text text-anchor="middle" x="1313" y="-7.5" font-family="Helvetica,sans-Serif" font-size="10.00">/renderer/rendermanager.cpp</text>
</a>
</g>
</g>
<!-- Node10&#45;&gt;Node11 -->
<g id="edge14" class="edge">
<title>Node10&#45;&gt;Node11</title>
<path fill="none" stroke="midnightblue" d="M1313,-57.11C1313,-48.15 1313,-38.32 1313,-30.58"/>
<polygon fill="midnightblue" stroke="midnightblue" points="1309.5,-57.4 1313,-67.4 1316.5,-57.4 1309.5,-57.4"/>
</g>
<!-- Node12 -->
<g id="node12" class="node">
<title>Node12</title>
<g id="a_node12"><a xlink:href="vulkan__voxel__rasterizer__4_8cpp.html" target="_top" xlink:title=" ">
<polygon fill="none" stroke="black" points="649,-0.5 649,-30.5 823,-30.5 823,-0.5 649,-0.5"/>
<text text-anchor="start" x="657" y="-18.5" font-family="Helvetica,sans-Serif" font-size="10.00">/github/workspace/src</text>
<text text-anchor="middle" x="736" y="-7.5" font-family="Helvetica,sans-Serif" font-size="10.00">/tests/vulkan_voxel_rasterizer_4.cpp</text>
</a>
</g>
</g>
<!-- Node10&#45;&gt;Node12 -->
<g id="edge15" class="edge">
<title>Node10&#45;&gt;Node12</title>
<path fill="none" stroke="midnightblue" d="M1237.87,-67.56C1236.57,-67.37 1235.28,-67.18 1234,-67 1090.54,-46.59 922.68,-31.35 823.07,-23.19"/>
<polygon fill="midnightblue" stroke="midnightblue" points="1237.55,-71.06 1247.97,-69.14 1238.63,-64.14 1237.55,-71.06"/>
</g>
<!-- Node13&#45;&gt;Node8 -->
<g id="edge17" class="edge">
<title>Node13&#45;&gt;Node8</title>
<path fill="none" stroke="midnightblue" d="M1231.06,-200.02C1280.77,-188.88 1347.07,-174.02 1394.04,-163.49"/>
<polygon fill="midnightblue" stroke="midnightblue" points="1230.03,-196.67 1221.04,-202.27 1231.56,-203.5 1230.03,-196.67"/>
</g>
<!-- Node13&#45;&gt;Node12 -->
<g id="edge21" class="edge">
<title>Node13&#45;&gt;Node12</title>
<path fill="none" stroke="midnightblue" d="M1184.02,-193.53C1190.82,-185.28 1197.46,-175.38 1201,-165 1215.19,-123.42 1220.29,-96.79 1188,-67 1161.76,-42.79 946.96,-27.58 823.15,-20.74"/>
<polygon fill="midnightblue" stroke="midnightblue" points="1181.26,-191.36 1177.26,-201.17 1186.51,-196 1181.26,-191.36"/>
</g>
<!-- Node14 -->
<g id="node14" class="node">
<title>Node14</title>
<g id="a_node14"><a xlink:href="modelloader_8cpp.html" target="_top" xlink:title=" ">
<polygon fill="none" stroke="black" points="1248,-134.5 1248,-164.5 1376,-164.5 1376,-134.5 1248,-134.5"/>
<text text-anchor="start" x="1256" y="-152.5" font-family="Helvetica,sans-Serif" font-size="10.00">/github/workspace/src</text>
<text text-anchor="middle" x="1312" y="-141.5" font-family="Helvetica,sans-Serif" font-size="10.00">/renderer/modelloader.cpp</text>
</a>
</g>
</g>
<!-- Node13&#45;&gt;Node14 -->
<g id="edge18" class="edge">
<title>Node13&#45;&gt;Node14</title>
<path fill="none" stroke="midnightblue" d="M1203.75,-197.41C1227.7,-187.03 1257.32,-174.2 1279.52,-164.58"/>
<polygon fill="midnightblue" stroke="midnightblue" points="1202.33,-194.21 1194.55,-201.4 1205.11,-200.63 1202.33,-194.21"/>
</g>
<!-- Node15 -->
<g id="node15" class="node">
<title>Node15</title>
<g id="a_node15"><a xlink:href="vulkan__voxel__rasterizer__2_8cpp.html" target="_top" xlink:title=" ">
<polygon fill="none" stroke="black" points="1018,-134.5 1018,-164.5 1192,-164.5 1192,-134.5 1018,-134.5"/>
<text text-anchor="start" x="1026" y="-152.5" font-family="Helvetica,sans-Serif" font-size="10.00">/github/workspace/src</text>
<text text-anchor="middle" x="1105" y="-141.5" font-family="Helvetica,sans-Serif" font-size="10.00">/tests/vulkan_voxel_rasterizer_2.cpp</text>
</a>
</g>
</g>
<!-- Node13&#45;&gt;Node15 -->
<g id="edge19" class="edge">
<title>Node13&#45;&gt;Node15</title>
<path fill="none" stroke="midnightblue" d="M1142.91,-193.74C1134.48,-184.12 1124.81,-173.09 1117.34,-164.58"/>
<polygon fill="midnightblue" stroke="midnightblue" points="1140.41,-196.18 1149.63,-201.4 1145.67,-191.57 1140.41,-196.18"/>
</g>
<!-- Node16 -->
<g id="node16" class="node">
<title>Node16</title>
<g id="a_node16"><a xlink:href="vulkan__voxel__rasterizer__3_8cpp.html" target="_top" xlink:title=" ">
<polygon fill="none" stroke="black" points="649,-67.5 649,-97.5 823,-97.5 823,-67.5 649,-67.5"/>
<text text-anchor="start" x="657" y="-85.5" font-family="Helvetica,sans-Serif" font-size="10.00">/github/workspace/src</text>
<text text-anchor="middle" x="736" y="-74.5" font-family="Helvetica,sans-Serif" font-size="10.00">/tests/vulkan_voxel_rasterizer_3.cpp</text>
</a>
</g>
</g>
<!-- Node13&#45;&gt;Node16 -->
<g id="edge20" class="edge">
<title>Node13&#45;&gt;Node16</title>
<path fill="none" stroke="midnightblue" d="M1092.96,-204.8C1083.24,-203.43 1073.38,-202.12 1064,-201 1020.68,-195.81 702.4,-197.23 673,-165 652.63,-142.67 686.61,-114.3 712.06,-97.6"/>
<polygon fill="midnightblue" stroke="midnightblue" points="1092.6,-208.28 1102.99,-206.23 1093.59,-201.35 1092.6,-208.28"/>
</g>
<!-- Node17&#45;&gt;Node3 -->
<g id="edge23" class="edge">
<title>Node17&#45;&gt;Node3</title>
<path fill="none" stroke="midnightblue" d="M838.19,-265.09C808.16,-254.6 770.41,-241.41 742.28,-231.58"/>
<polygon fill="midnightblue" stroke="midnightblue" points="837.05,-268.4 847.64,-268.4 839.36,-261.79 837.05,-268.4"/>
</g>
<!-- Node18 -->
<g id="node18" class="node">
<title>Node18</title>
<g id="a_node18"><a xlink:href="objectinstance_8cpp.html" target="_top" xlink:title=" ">
<polygon fill="none" stroke="black" points="916.5,-201.5 916.5,-231.5 1055.5,-231.5 1055.5,-201.5 916.5,-201.5"/>
<text text-anchor="start" x="924.5" y="-219.5" font-family="Helvetica,sans-Serif" font-size="10.00">/github/workspace/src</text>
<text text-anchor="middle" x="986" y="-208.5" font-family="Helvetica,sans-Serif" font-size="10.00">/renderer/objectinstance.cpp</text>
</a>
</g>
</g>
<!-- Node17&#45;&gt;Node18 -->
<g id="edge24" class="edge">
<title>Node17&#45;&gt;Node18</title>
<path fill="none" stroke="midnightblue" d="M917.8,-262.73C932.97,-252.68 951.04,-240.68 964.78,-231.58"/>
<polygon fill="midnightblue" stroke="midnightblue" points="915.66,-259.95 909.26,-268.4 919.53,-265.79 915.66,-259.95"/>
</g>
<!-- Node19 -->
<g id="node19" class="node">
<title>Node19</title>
<g id="a_node19"><a xlink:href="scene_8h.html" target="_top" xlink:title=" ">
<polygon fill="none" stroke="black" points="785.5,-201.5 785.5,-231.5 898.5,-231.5 898.5,-201.5 785.5,-201.5"/>
<text text-anchor="start" x="793.5" y="-219.5" font-family="Helvetica,sans-Serif" font-size="10.00">/github/workspace/src</text>
<text text-anchor="middle" x="842" y="-208.5" font-family="Helvetica,sans-Serif" font-size="10.00">/renderer/scene.h</text>
</a>
</g>
</g>
<!-- Node17&#45;&gt;Node19 -->
<g id="edge25" class="edge">
<title>Node17&#45;&gt;Node19</title>
<path fill="none" stroke="midnightblue" d="M872.19,-260.16C865.48,-250.68 857.87,-239.92 851.96,-231.58"/>
<polygon fill="midnightblue" stroke="midnightblue" points="869.38,-262.26 878.02,-268.4 875.1,-258.21 869.38,-262.26"/>
</g>
<!-- Node19&#45;&gt;Node10 -->
<g id="edge26" class="edge">
<title>Node19&#45;&gt;Node10</title>
<path fill="none" stroke="midnightblue" d="M897.25,-198.15C920.76,-189.7 948,-178.44 971,-165 989.82,-154.01 989.14,-142.98 1009,-134 1030.36,-124.35 1164.94,-104.24 1247.72,-92.52"/>
<polygon fill="midnightblue" stroke="midnightblue" points="896.04,-194.87 887.77,-201.48 898.36,-201.47 896.04,-194.87"/>
</g>
<!-- Node19&#45;&gt;Node12 -->
<g id="edge45" class="edge">
<title>Node19&#45;&gt;Node12</title>
<path fill="none" stroke="midnightblue" d="M775.24,-201.23C691.53,-191.43 509.56,-213.47 463,-165 432.78,-133.55 430.05,-100.48 458,-67 482.05,-38.19 576.65,-25.78 648.88,-20.46"/>
<polygon fill="midnightblue" stroke="midnightblue" points="774.8,-204.71 785.19,-202.63 775.78,-197.77 774.8,-204.71"/>
</g>
<!-- Node19&#45;&gt;Node15 -->
<g id="edge43" class="edge">
<title>Node19&#45;&gt;Node15</title>
<path fill="none" stroke="midnightblue" d="M908.55,-199.05C951.55,-188.43 1006.92,-174.74 1047.91,-164.61"/>
<polygon fill="midnightblue" stroke="midnightblue" points="907.61,-195.68 898.74,-201.48 909.29,-202.47 907.61,-195.68"/>
</g>
<!-- Node19&#45;&gt;Node16 -->
<g id="edge44" class="edge">
<title>Node19&#45;&gt;Node16</title>
<path fill="none" stroke="midnightblue" d="M775.37,-199.86C717.36,-186.08 642.18,-167.79 640,-165 631.52,-154.14 632.88,-145.79 640,-134 650.32,-116.91 668.55,-105.32 686.38,-97.6"/>
<polygon fill="midnightblue" stroke="midnightblue" points="774.71,-203.3 785.24,-202.2 776.32,-196.48 774.71,-203.3"/>
</g>
<!-- Node20 -->
<g id="node20" class="node">
<title>Node20</title>
<g id="a_node20"><a xlink:href="scene_8cpp.html" target="_top" xlink:title=" ">
<polygon fill="none" stroke="black" points="158.5,-134.5 158.5,-164.5 271.5,-164.5 271.5,-134.5 158.5,-134.5"/>
<text text-anchor="start" x="166.5" y="-152.5" font-family="Helvetica,sans-Serif" font-size="10.00">/github/workspace/src</text>
<text text-anchor="middle" x="215" y="-141.5" font-family="Helvetica,sans-Serif" font-size="10.00">/renderer/scene.cpp</text>
</a>
</g>
</g>
<!-- Node19&#45;&gt;Node20 -->
<g id="edge27" class="edge">
<title>Node19&#45;&gt;Node20</title>
<path fill="none" stroke="midnightblue" d="M775.3,-201.06C555.52,-170.01 495.47,-196.68 280,-165 277.25,-164.6 274.45,-164.14 271.63,-163.65"/>
<polygon fill="midnightblue" stroke="midnightblue" points="774.82,-204.52 785.21,-202.48 775.81,-197.59 774.82,-204.52"/>
</g>
<!-- Node21 -->
<g id="node21" class="node">
<title>Node21</title>
<g id="a_node21"><a xlink:href="scenewriter_8h.html" target="_top" xlink:title=" ">
<polygon fill="none" stroke="black" points="846,-134.5 846,-164.5 962,-164.5 962,-134.5 846,-134.5"/>
<text text-anchor="start" x="854" y="-152.5" font-family="Helvetica,sans-Serif" font-size="10.00">/github/workspace/src</text>
<text text-anchor="middle" x="904" y="-141.5" font-family="Helvetica,sans-Serif" font-size="10.00">/renderer/scenewriter.h</text>
</a>
</g>
</g>
<!-- Node19&#45;&gt;Node21 -->
<g id="edge28" class="edge">
<title>Node19&#45;&gt;Node21</title>
<path fill="none" stroke="midnightblue" d="M862.48,-194.02C871.72,-184.34 882.37,-173.17 890.57,-164.58"/>
<polygon fill="midnightblue" stroke="midnightblue" points="859.82,-191.74 855.45,-201.4 864.89,-196.58 859.82,-191.74"/>
</g>
<!-- Node23 -->
<g id="node23" class="node">
<title>Node23</title>
<g id="a_node23"><a xlink:href="mainmenu_8h.html" target="_top" xlink:title=" ">
<polygon fill="none" stroke="black" points="289.5,-134.5 289.5,-164.5 410.5,-164.5 410.5,-134.5 289.5,-134.5"/>
<text text-anchor="start" x="297.5" y="-152.5" font-family="Helvetica,sans-Serif" font-size="10.00">/github/workspace/src</text>
<text text-anchor="middle" x="350" y="-141.5" font-family="Helvetica,sans-Serif" font-size="10.00">/renderer/ui/mainmenu.h</text>
</a>
</g>
</g>
<!-- Node19&#45;&gt;Node23 -->
<g id="edge31" class="edge">
<title>Node19&#45;&gt;Node23</title>
<path fill="none" stroke="midnightblue" d="M775.26,-201.01C619.43,-176.6 576.95,-187.44 425,-165 420.28,-164.3 415.4,-163.51 410.5,-162.68"/>
<polygon fill="midnightblue" stroke="midnightblue" points="774.77,-204.48 785.2,-202.59 775.87,-197.56 774.77,-204.48"/>
</g>
<!-- Node25 -->
<g id="node25" class="node">
<title>Node25</title>
<g id="a_node25"><a xlink:href="objectlist_8h.html" target="_top" xlink:title=" ">
<polygon fill="none" stroke="black" points="472.5,-134.5 472.5,-164.5 587.5,-164.5 587.5,-134.5 472.5,-134.5"/>
<text text-anchor="start" x="480.5" y="-152.5" font-family="Helvetica,sans-Serif" font-size="10.00">/github/workspace/src</text>
<text text-anchor="middle" x="530" y="-141.5" font-family="Helvetica,sans-Serif" font-size="10.00">/renderer/ui/objectlist.h</text>
</a>
</g>
</g>
<!-- Node19&#45;&gt;Node25 -->
<g id="edge35" class="edge">
<title>Node19&#45;&gt;Node25</title>
<path fill="none" stroke="midnightblue" d="M775.53,-200.92C705,-185.97 635.35,-171.75 587.7,-162.11"/>
<polygon fill="midnightblue" stroke="midnightblue" points="774.98,-204.38 785.49,-203.03 776.43,-197.53 774.98,-204.38"/>
</g>
<!-- Node27 -->
<g id="node27" class="node">
<title>Node27</title>
<g id="a_node27"><a xlink:href="objectproperties_8h.html" target="_top" xlink:title=" ">
<polygon fill="none" stroke="black" points="682.5,-134.5 682.5,-164.5 827.5,-164.5 827.5,-134.5 682.5,-134.5"/>
<text text-anchor="start" x="690.5" y="-152.5" font-family="Helvetica,sans-Serif" font-size="10.00">/github/workspace/src</text>
<text text-anchor="middle" x="755" y="-141.5" font-family="Helvetica,sans-Serif" font-size="10.00">/renderer/ui/objectproperties.h</text>
</a>
</g>
</g>
<!-- Node19&#45;&gt;Node27 -->
<g id="edge39" class="edge">
<title>Node19&#45;&gt;Node27</title>
<path fill="none" stroke="midnightblue" d="M814.79,-195.17C801.48,-185.23 785.8,-173.51 773.84,-164.58"/>
<polygon fill="midnightblue" stroke="midnightblue" points="813.02,-198.21 823.12,-201.4 817.21,-192.61 813.02,-198.21"/>
</g>
<!-- Node21&#45;&gt;Node10 -->
<g id="edge29" class="edge">
<title>Node21&#45;&gt;Node10</title>
<path fill="none" stroke="midnightblue" d="M972.15,-134.68C973.44,-134.45 974.73,-134.22 976,-134 1070.25,-117.46 1179.94,-101.66 1247.92,-92.27"/>
<polygon fill="midnightblue" stroke="midnightblue" points="971.31,-131.28 962.11,-136.54 972.58,-138.16 971.31,-131.28"/>
</g>
<!-- Node22 -->
<g id="node22" class="node">
<title>Node22</title>
<g id="a_node22"><a xlink:href="scenewriter_8cpp.html" target="_top" xlink:title=" ">
<polygon fill="none" stroke="black" points="1053,-67.5 1053,-97.5 1179,-97.5 1179,-67.5 1053,-67.5"/>
<text text-anchor="start" x="1061" y="-85.5" font-family="Helvetica,sans-Serif" font-size="10.00">/github/workspace/src</text>
<text text-anchor="middle" x="1116" y="-74.5" font-family="Helvetica,sans-Serif" font-size="10.00">/renderer/scenewriter.cpp</text>
</a>
</g>
</g>
<!-- Node21&#45;&gt;Node22 -->
<g id="edge30" class="edge">
<title>Node21&#45;&gt;Node22</title>
<path fill="none" stroke="midnightblue" d="M959.63,-131.44C993.99,-120.91 1037.56,-107.55 1069.98,-97.61"/>
<polygon fill="midnightblue" stroke="midnightblue" points="958.27,-128.2 949.74,-134.48 960.33,-134.89 958.27,-128.2"/>
</g>
<!-- Node23&#45;&gt;Node12 -->
<g id="edge34" class="edge">
<title>Node23&#45;&gt;Node12</title>
<path fill="none" stroke="midnightblue" d="M310.25,-129.68C281.2,-113.45 250.08,-89.2 270,-67 294.8,-39.37 521.07,-25.47 648.95,-19.76"/>
<polygon fill="midnightblue" stroke="midnightblue" points="308.67,-132.8 319.14,-134.45 311.98,-126.64 308.67,-132.8"/>
</g>
<!-- Node23&#45;&gt;Node16 -->
<g id="edge33" class="edge">
<title>Node23&#45;&gt;Node16</title>
<path fill="none" stroke="midnightblue" d="M420.96,-136.55C486.39,-125.53 583.57,-109.17 652.67,-97.53"/>
<polygon fill="midnightblue" stroke="midnightblue" points="420.02,-133.16 410.74,-138.27 421.18,-140.06 420.02,-133.16"/>
</g>
<!-- Node24 -->
<g id="node24" class="node">
<title>Node24</title>
<g id="a_node24"><a xlink:href="mainmenu_8cpp.html" target="_top" xlink:title=" ">
<polygon fill="none" stroke="black" points="279.5,-67.5 279.5,-97.5 410.5,-97.5 410.5,-67.5 279.5,-67.5"/>
<text text-anchor="start" x="287.5" y="-85.5" font-family="Helvetica,sans-Serif" font-size="10.00">/github/workspace/src</text>
<text text-anchor="middle" x="345" y="-74.5" font-family="Helvetica,sans-Serif" font-size="10.00">/renderer/ui/mainmenu.cpp</text>
</a>
</g>
</g>
<!-- Node23&#45;&gt;Node24 -->
<g id="edge32" class="edge">
<title>Node23&#45;&gt;Node24</title>
<path fill="none" stroke="midnightblue" d="M348.15,-124.4C347.45,-115.37 346.69,-105.41 346.08,-97.58"/>
<polygon fill="midnightblue" stroke="midnightblue" points="344.66,-124.69 348.92,-134.4 351.64,-124.16 344.66,-124.69"/>
</g>
<!-- Node25&#45;&gt;Node12 -->
<g id="edge38" class="edge">
<title>Node25&#45;&gt;Node12</title>
<path fill="none" stroke="midnightblue" d="M558.95,-128.44C571.92,-119.31 587.35,-108.27 601,-98 618.69,-84.69 621.45,-79.1 640,-67 661.14,-53.21 686.45,-40.02 705.77,-30.58"/>
<polygon fill="midnightblue" stroke="midnightblue" points="556.59,-125.81 550.41,-134.42 560.6,-131.55 556.59,-125.81"/>
</g>
<!-- Node25&#45;&gt;Node16 -->
<g id="edge37" class="edge">
<title>Node25&#45;&gt;Node16</title>
<path fill="none" stroke="midnightblue" d="M584.05,-131.44C617.45,-120.91 659.78,-107.55 691.28,-97.61"/>
<polygon fill="midnightblue" stroke="midnightblue" points="582.93,-128.13 574.45,-134.48 585.04,-134.8 582.93,-128.13"/>
</g>
<!-- Node26 -->
<g id="node26" class="node">
<title>Node26</title>
<g id="a_node26"><a xlink:href="objectlist_8cpp.html" target="_top" xlink:title=" ">
<polygon fill="none" stroke="black" points="467.5,-67.5 467.5,-97.5 592.5,-97.5 592.5,-67.5 467.5,-67.5"/>
<text text-anchor="start" x="475.5" y="-85.5" font-family="Helvetica,sans-Serif" font-size="10.00">/github/workspace/src</text>
<text text-anchor="middle" x="530" y="-74.5" font-family="Helvetica,sans-Serif" font-size="10.00">/renderer/ui/objectlist.cpp</text>
</a>
</g>
</g>
<!-- Node25&#45;&gt;Node26 -->
<g id="edge36" class="edge">
<title>Node25&#45;&gt;Node26</title>
<path fill="none" stroke="midnightblue" d="M530,-124.11C530,-115.15 530,-105.32 530,-97.58"/>
<polygon fill="midnightblue" stroke="midnightblue" points="526.5,-124.4 530,-134.4 533.5,-124.4 526.5,-124.4"/>
</g>
<!-- Node27&#45;&gt;Node12 -->
<g id="edge42" class="edge">
<title>Node27&#45;&gt;Node12</title>
<path fill="none" stroke="midnightblue" d="M799.8,-129.37C812.52,-121.6 824.84,-111.26 832,-98 838.55,-85.88 839.12,-78.79 832,-67 821.68,-49.91 803.45,-38.32 785.62,-30.6"/>
<polygon fill="midnightblue" stroke="midnightblue" points="797.98,-126.38 790.99,-134.35 801.42,-132.48 797.98,-126.38"/>
</g>
<!-- Node27&#45;&gt;Node16 -->
<g id="edge41" class="edge">
<title>Node27&#45;&gt;Node16</title>
<path fill="none" stroke="midnightblue" d="M748.04,-124.7C745.38,-115.59 742.43,-105.49 740.11,-97.58"/>
<polygon fill="midnightblue" stroke="midnightblue" points="744.71,-125.78 750.88,-134.4 751.43,-123.82 744.71,-125.78"/>
</g>
<!-- Node28 -->
<g id="node28" class="node">
<title>Node28</title>
<g id="a_node28"><a xlink:href="objectproperties_8cpp.html" target="_top" xlink:title=" ">
<polygon fill="none" stroke="black" points="879.5,-67.5 879.5,-97.5 1034.5,-97.5 1034.5,-67.5 879.5,-67.5"/>
<text text-anchor="start" x="887.5" y="-85.5" font-family="Helvetica,sans-Serif" font-size="10.00">/github/workspace/src</text>
<text text-anchor="middle" x="957" y="-74.5" font-family="Helvetica,sans-Serif" font-size="10.00">/renderer/ui/objectproperties.cpp</text>
</a>
</g>
</g>
<!-- Node27&#45;&gt;Node28 -->
<g id="edge40" class="edge">
<title>Node27&#45;&gt;Node28</title>
<path fill="none" stroke="midnightblue" d="M808.68,-131.23C841.35,-120.71 882.57,-107.45 913.25,-97.58"/>
<polygon fill="midnightblue" stroke="midnightblue" points="807.28,-128 798.83,-134.4 809.42,-134.66 807.28,-128"/>
</g>
</g>
</svg>
