<?xml version="1.0" encoding="UTF-8" standalone="no"?>
<!DOCTYPE svg PUBLIC "-//W3C//DTD SVG 1.1//EN"
 "http://www.w3.org/Graphics/SVG/1.1/DTD/svg11.dtd">
<!-- Generated by graphviz version 2.49.3 (20211215.1918)
 -->
<!-- Title: /github/workspace/src/renderer/material.cpp Pages: 1 -->
<svg width="3440pt" height="935pt"
 viewBox="0.00 0.00 3439.50 935.00" xmlns="http://www.w3.org/2000/svg" xmlns:xlink="http://www.w3.org/1999/xlink">
<g id="graph0" class="graph" transform="scale(1 1) rotate(0) translate(4 931)">
<title>/github/workspace/src/renderer/material.cpp</title>
<!-- Node1 -->
<g id="node1" class="node">
<title>Node1</title>
<g id="a_node1"><a xlink:title=" ">
<polygon fill="#bfbfbf" stroke="black" points="2080.5,-896.5 2080.5,-926.5 2193.5,-926.5 2193.5,-896.5 2080.5,-896.5"/>
<text text-anchor="start" x="2088.5" y="-914.5" font-family="Helvetica,sans-Serif" font-size="10.00">/github/workspace/src</text>
<text text-anchor="middle" x="2137" y="-903.5" font-family="Helvetica,sans-Serif" font-size="10.00">/renderer/material.cpp</text>
</a>
</g>
</g>
<!-- Node2 -->
<g id="node2" class="node">
<title>Node2</title>
<g id="a_node2"><a xlink:href="material_8h.html" target="_top" xlink:title=" ">
<polygon fill="none" stroke="black" points="2107.5,-840.5 2107.5,-859.5 2166.5,-859.5 2166.5,-840.5 2107.5,-840.5"/>
<text text-anchor="middle" x="2137" y="-847.5" font-family="Helvetica,sans-Serif" font-size="10.00">material.h</text>
</a>
</g>
</g>
<!-- Node1&#45;&gt;Node2 -->
<g id="edge1" class="edge">
<title>Node1&#45;&gt;Node2</title>
<path fill="none" stroke="midnightblue" d="M2137,-896.4C2137,-888.47 2137,-878.46 2137,-869.86"/>
<polygon fill="midnightblue" stroke="midnightblue" points="2140.5,-869.66 2137,-859.66 2133.5,-869.66 2140.5,-869.66"/>
</g>
<!-- Node3 -->
<g id="node3" class="node">
<title>Node3</title>
<g id="a_node3"><a xlink:href="materiallibrary_8h.html" target="_top" xlink:title=" ">
<polygon fill="none" stroke="black" points="2095,-784.5 2095,-803.5 2179,-803.5 2179,-784.5 2095,-784.5"/>
<text text-anchor="middle" x="2137" y="-791.5" font-family="Helvetica,sans-Serif" font-size="10.00">materiallibrary.h</text>
</a>
</g>
</g>
<!-- Node2&#45;&gt;Node3 -->
<g id="edge2" class="edge">
<title>Node2&#45;&gt;Node3</title>
<path fill="none" stroke="midnightblue" d="M2131.83,-840.08C2130.32,-832.93 2129.89,-822.64 2130.54,-813.69"/>
<polygon fill="midnightblue" stroke="midnightblue" points="2134.02,-814.13 2131.87,-803.75 2127.08,-813.2 2134.02,-814.13"/>
</g>
<!-- Node7 -->
<g id="node7" class="node">
<title>Node7</title>
<g id="a_node7"><a xlink:href="graphicspipeline_8h.html" target="_top" xlink:title=" ">
<polygon fill="none" stroke="black" points="1567.5,-560.5 1567.5,-579.5 1692.5,-579.5 1692.5,-560.5 1567.5,-560.5"/>
<text text-anchor="middle" x="1630" y="-567.5" font-family="Helvetica,sans-Serif" font-size="10.00">vulkan/graphicspipeline.h</text>
</a>
</g>
</g>
<!-- Node2&#45;&gt;Node7 -->
<g id="edge180" class="edge">
<title>Node2&#45;&gt;Node7</title>
<path fill="none" stroke="midnightblue" d="M2107.4,-849.01C1939.18,-848.71 1111,-842.01 1111,-739 1111,-739 1111,-739 1111,-681 1111,-590.92 1414,-574.28 1556.97,-571.44"/>
<polygon fill="midnightblue" stroke="midnightblue" points="1557.46,-574.93 1567.4,-571.25 1557.33,-567.93 1557.46,-574.93"/>
</g>
<!-- Node3&#45;&gt;Node2 -->
<g id="edge178" class="edge">
<title>Node3&#45;&gt;Node2</title>
<path fill="none" stroke="midnightblue" d="M2142.13,-803.75C2143.66,-810.86 2144.1,-821.14 2143.47,-830.1"/>
<polygon fill="midnightblue" stroke="midnightblue" points="2139.99,-829.71 2142.17,-840.08 2146.93,-830.62 2139.99,-829.71"/>
</g>
<!-- Node4 -->
<g id="node4" class="node">
<title>Node4</title>
<g id="a_node4"><a xlink:title=" ">
<polygon fill="none" stroke="#bfbfbf" points="453,-0.5 453,-19.5 497,-19.5 497,-0.5 453,-0.5"/>
<text text-anchor="middle" x="475" y="-7.5" font-family="Helvetica,sans-Serif" font-size="10.00">vector</text>
</a>
</g>
</g>
<!-- Node3&#45;&gt;Node4 -->
<g id="edge3" class="edge">
<title>Node3&#45;&gt;Node4</title>
<path fill="none" stroke="midnightblue" d="M2094.79,-793.11C1795.04,-793.59 0,-791.95 0,-683 0,-683 0,-683 0,-121 0,-83.16 21.57,-73.73 55,-56 122.18,-20.37 356.13,-12.94 442.58,-11.4"/>
<polygon fill="midnightblue" stroke="midnightblue" points="442.89,-14.89 452.83,-11.23 442.78,-7.89 442.89,-14.89"/>
</g>
<!-- Node5 -->
<g id="node5" class="node">
<title>Node5</title>
<g id="a_node5"><a xlink:title=" ">
<polygon fill="none" stroke="#bfbfbf" points="2149.5,-728.5 2149.5,-747.5 2218.5,-747.5 2218.5,-728.5 2149.5,-728.5"/>
<text text-anchor="middle" x="2184" y="-735.5" font-family="Helvetica,sans-Serif" font-size="10.00">glm/glm.hpp</text>
</a>
</g>
</g>
<!-- Node3&#45;&gt;Node5 -->
<g id="edge4" class="edge">
<title>Node3&#45;&gt;Node5</title>
<path fill="none" stroke="midnightblue" d="M2144.76,-784.08C2151.54,-776.3 2161.54,-764.8 2169.76,-755.37"/>
<polygon fill="midnightblue" stroke="midnightblue" points="2172.46,-757.59 2176.38,-747.75 2167.18,-753 2172.46,-757.59"/>
</g>
<!-- Node6 -->
<g id="node6" class="node">
<title>Node6</title>
<g id="a_node6"><a xlink:href="mastermaterial_8h.html" target="_top" xlink:title=" ">
<polygon fill="none" stroke="black" points="3342.5,-672.5 3342.5,-691.5 3431.5,-691.5 3431.5,-672.5 3342.5,-672.5"/>
<text text-anchor="middle" x="3387" y="-679.5" font-family="Helvetica,sans-Serif" font-size="10.00">mastermaterial.h</text>
</a>
</g>
</g>
<!-- Node3&#45;&gt;Node6 -->
<g id="edge5" class="edge">
<title>Node3&#45;&gt;Node6</title>
<path fill="none" stroke="midnightblue" d="M2179.03,-790.46C2332.85,-780.93 2879.54,-745.16 3328,-692 3329.3,-691.85 3330.62,-691.68 3331.95,-691.52"/>
<polygon fill="midnightblue" stroke="midnightblue" points="3332.81,-694.93 3342.26,-690.14 3331.89,-687.99 3332.81,-694.93"/>
</g>
<!-- Node53 -->
<g id="node53" class="node">
<title>Node53</title>
<g id="a_node53"><a xlink:href="uniformbuffer_8h.html" target="_top" xlink:title=" ">
<polygon fill="none" stroke="black" points="2051,-728.5 2051,-747.5 2131,-747.5 2131,-728.5 2051,-728.5"/>
<text text-anchor="middle" x="2091" y="-735.5" font-family="Helvetica,sans-Serif" font-size="10.00">uniformbuffer.h</text>
</a>
</g>
</g>
<!-- Node3&#45;&gt;Node53 -->
<g id="edge179" class="edge">
<title>Node3&#45;&gt;Node53</title>
<path fill="none" stroke="midnightblue" d="M2129.4,-784.08C2122.77,-776.3 2112.98,-764.8 2104.94,-755.37"/>
<polygon fill="midnightblue" stroke="midnightblue" points="2107.6,-753.09 2098.45,-747.75 2102.27,-757.63 2107.6,-753.09"/>
</g>
<!-- Node6&#45;&gt;Node2 -->
<g id="edge176" class="edge">
<title>Node6&#45;&gt;Node2</title>
<path fill="none" stroke="midnightblue" d="M3342.24,-689.93C3337.43,-690.64 3332.62,-691.34 3328,-692 2876.82,-756.14 2328.16,-825.17 2177.13,-844.01"/>
<polygon fill="midnightblue" stroke="midnightblue" points="2176.44,-840.57 2166.95,-845.28 2177.3,-847.52 2176.44,-840.57"/>
</g>
<!-- Node6&#45;&gt;Node7 -->
<g id="edge6" class="edge">
<title>Node6&#45;&gt;Node7</title>
<path fill="none" stroke="midnightblue" d="M3342.27,-680.26C3138.76,-676.79 2298.88,-661.18 2037,-636 1908.68,-623.66 1759.39,-596.5 1682.21,-581.49"/>
<polygon fill="midnightblue" stroke="midnightblue" points="1682.74,-578.02 1672.26,-579.54 1681.4,-584.89 1682.74,-578.02"/>
</g>
<!-- Node39 -->
<g id="node39" class="node">
<title>Node39</title>
<g id="a_node39"><a xlink:title=" ">
<polygon fill="none" stroke="#bfbfbf" points="3304.5,-280.5 3304.5,-299.5 3343.5,-299.5 3343.5,-280.5 3304.5,-280.5"/>
<text text-anchor="middle" x="3324" y="-287.5" font-family="Helvetica,sans-Serif" font-size="10.00">utility</text>
</a>
</g>
</g>
<!-- Node6&#45;&gt;Node39 -->
<g id="edge177" class="edge">
<title>Node6&#45;&gt;Node39</title>
<path fill="none" stroke="midnightblue" d="M3384.57,-672.24C3379.66,-653.71 3369,-609.12 3369,-571 3369,-571 3369,-571 3369,-401 3369,-365.93 3349.16,-328.94 3335.83,-308.04"/>
<polygon fill="midnightblue" stroke="midnightblue" points="3338.7,-306.03 3330.26,-299.63 3332.87,-309.9 3338.7,-306.03"/>
</g>
<!-- Node7&#45;&gt;Node4 -->
<g id="edge175" class="edge">
<title>Node7&#45;&gt;Node4</title>
<path fill="none" stroke="midnightblue" d="M1567.16,-569C1276.43,-568.19 76,-555.62 76,-403 76,-403 76,-403 76,-121 76,-84.55 94.4,-74.16 126,-56 179.51,-25.24 365.98,-15 442.18,-12.05"/>
<polygon fill="midnightblue" stroke="midnightblue" points="442.73,-15.54 452.59,-11.67 442.47,-8.54 442.73,-15.54"/>
</g>
<!-- Node8 -->
<g id="node8" class="node">
<title>Node8</title>
<g id="a_node8"><a xlink:href="device_8h.html" target="_top" xlink:title=" ">
<polygon fill="none" stroke="black" points="1680.5,-280.5 1680.5,-299.5 1733.5,-299.5 1733.5,-280.5 1680.5,-280.5"/>
<text text-anchor="middle" x="1707" y="-287.5" font-family="Helvetica,sans-Serif" font-size="10.00">device.h</text>
</a>
</g>
</g>
<!-- Node7&#45;&gt;Node8 -->
<g id="edge7" class="edge">
<title>Node7&#45;&gt;Node8</title>
<path fill="none" stroke="midnightblue" d="M1583.37,-560.45C1531.83,-547.99 1456,-519.4 1456,-459 1456,-459 1456,-459 1456,-401 1456,-370.9 1452.7,-356.21 1475,-336 1539,-277.99 1581.36,-317.26 1666,-300 1667.29,-299.74 1668.59,-299.47 1669.91,-299.19"/>
<polygon fill="midnightblue" stroke="midnightblue" points="1671.07,-302.53 1680.12,-297.02 1669.61,-295.68 1671.07,-302.53"/>
</g>
<!-- Node9 -->
<g id="node9" class="node">
<title>Node9</title>
<g id="a_node9"><a xlink:title=" ">
<polygon fill="none" stroke="#bfbfbf" points="2073,-0.5 2073,-19.5 2157,-19.5 2157,-0.5 2073,-0.5"/>
<text text-anchor="middle" x="2115" y="-7.5" font-family="Helvetica,sans-Serif" font-size="10.00">vulkan/vulkan.h</text>
</a>
</g>
</g>
<!-- Node7&#45;&gt;Node9 -->
<g id="edge174" class="edge">
<title>Node7&#45;&gt;Node9</title>
<path fill="none" stroke="midnightblue" d="M1631.73,-560.34C1636.82,-535.55 1652.39,-465.05 1668,-448 1696.26,-417.14 1716.59,-428.61 1755,-412 1810.5,-387.99 1826.81,-386.55 1879,-356 1915.21,-334.8 1925.91,-330.24 1955,-300 1975.85,-278.32 1977.55,-269.81 1993,-244 2039.71,-165.95 2087.59,-68.29 2106.55,-28.79"/>
<polygon fill="midnightblue" stroke="midnightblue" points="2109.76,-30.19 2110.91,-19.66 2103.44,-27.17 2109.76,-30.19"/>
</g>
<!-- Node32 -->
<g id="node32" class="node">
<title>Node32</title>
<g id="a_node32"><a xlink:href="pipelinebase_8h.html" target="_top" xlink:title=" ">
<polygon fill="none" stroke="black" points="1677,-448.5 1677,-467.5 1755,-467.5 1755,-448.5 1677,-448.5"/>
<text text-anchor="middle" x="1716" y="-455.5" font-family="Helvetica,sans-Serif" font-size="10.00">pipelinebase.h</text>
</a>
</g>
</g>
<!-- Node7&#45;&gt;Node32 -->
<g id="edge62" class="edge">
<title>Node7&#45;&gt;Node32</title>
<path fill="none" stroke="midnightblue" d="M1636.75,-560.37C1651,-542.14 1684.39,-499.43 1702.96,-475.68"/>
<polygon fill="midnightblue" stroke="midnightblue" points="1705.88,-477.63 1709.28,-467.59 1700.37,-473.31 1705.88,-477.63"/>
</g>
<!-- Node37 -->
<g id="node37" class="node">
<title>Node37</title>
<g id="a_node37"><a xlink:href="shader_8h.html" target="_top" xlink:title=" ">
<polygon fill="none" stroke="black" points="679.5,-336.5 679.5,-355.5 732.5,-355.5 732.5,-336.5 679.5,-336.5"/>
<text text-anchor="middle" x="706" y="-343.5" font-family="Helvetica,sans-Serif" font-size="10.00">shader.h</text>
</a>
</g>
</g>
<!-- Node7&#45;&gt;Node37 -->
<g id="edge84" class="edge">
<title>Node7&#45;&gt;Node37</title>
<path fill="none" stroke="midnightblue" d="M1567.39,-568.71C1393.06,-566.81 906.33,-553.76 776,-468 739.12,-443.73 719.3,-392.84 710.93,-365.43"/>
<polygon fill="midnightblue" stroke="midnightblue" points="714.22,-364.22 708.1,-355.57 707.49,-366.14 714.22,-364.22"/>
</g>
<!-- Node40 -->
<g id="node40" class="node">
<title>Node40</title>
<g id="a_node40"><a xlink:href="swapchain_8h.html" target="_top" xlink:title=" ">
<polygon fill="none" stroke="black" points="1887.5,-504.5 1887.5,-523.5 1958.5,-523.5 1958.5,-504.5 1887.5,-504.5"/>
<text text-anchor="middle" x="1923" y="-511.5" font-family="Helvetica,sans-Serif" font-size="10.00">swapchain.h</text>
</a>
</g>
</g>
<!-- Node7&#45;&gt;Node40 -->
<g id="edge92" class="edge">
<title>Node7&#45;&gt;Node40</title>
<path fill="none" stroke="midnightblue" d="M1676.43,-560.44C1731.46,-550.3 1822.57,-533.51 1877.28,-523.43"/>
<polygon fill="midnightblue" stroke="midnightblue" points="1878.19,-526.82 1887.39,-521.56 1876.92,-519.93 1878.19,-526.82"/>
</g>
<!-- Node43 -->
<g id="node43" class="node">
<title>Node43</title>
<g id="a_node43"><a xlink:href="renderpass_8h.html" target="_top" xlink:title=" ">
<polygon fill="none" stroke="black" points="1674,-392.5 1674,-411.5 1746,-411.5 1746,-392.5 1674,-392.5"/>
<text text-anchor="middle" x="1710" y="-399.5" font-family="Helvetica,sans-Serif" font-size="10.00">renderpass.h</text>
</a>
</g>
</g>
<!-- Node7&#45;&gt;Node43 -->
<g id="edge173" class="edge">
<title>Node7&#45;&gt;Node43</title>
<path fill="none" stroke="midnightblue" d="M1627.75,-560.31C1622.83,-539.28 1613.21,-484.7 1635,-448 1643.71,-433.33 1659.23,-422.86 1673.9,-415.74"/>
<polygon fill="midnightblue" stroke="midnightblue" points="1675.63,-418.8 1683.33,-411.54 1672.78,-412.41 1675.63,-418.8"/>
</g>
<!-- Node8&#45;&gt;Node4 -->
<g id="edge10" class="edge">
<title>Node8&#45;&gt;Node4</title>
<path fill="none" stroke="midnightblue" d="M1680.34,-285.59C1665.05,-283.73 1645.47,-281.5 1628,-280 1490.72,-268.2 1140.53,-285.04 1009,-244 963.3,-229.74 955.49,-216.46 917,-188 886.88,-165.73 881.58,-157.35 854,-132 817.89,-98.82 818.06,-77.53 774,-56 727.44,-33.25 574.85,-18.82 507.47,-13.42"/>
<polygon fill="midnightblue" stroke="midnightblue" points="507.66,-9.92 497.42,-12.62 507.11,-16.9 507.66,-9.92"/>
</g>
<!-- Node8&#45;&gt;Node9 -->
<g id="edge8" class="edge">
<title>Node8&#45;&gt;Node9</title>
<path fill="none" stroke="midnightblue" d="M1733.67,-280.76C1773.01,-266.76 1842,-234.33 1842,-179 1842,-179 1842,-179 1842,-121 1842,-90.2 1842.41,-75.79 1866,-56 1895.09,-31.6 1998.44,-19.63 2062.49,-14.43"/>
<polygon fill="midnightblue" stroke="midnightblue" points="2063.11,-17.9 2072.8,-13.63 2062.56,-10.92 2063.11,-17.9"/>
</g>
<!-- Node10 -->
<g id="node10" class="node">
<title>Node10</title>
<g id="a_node10"><a xlink:title=" ">
<polygon fill="none" stroke="#bfbfbf" points="2932.5,-56.5 2932.5,-75.5 3019.5,-75.5 3019.5,-56.5 2932.5,-56.5"/>
<text text-anchor="middle" x="2976" y="-63.5" font-family="Helvetica,sans-Serif" font-size="10.00">vk_mem_alloc.h</text>
</a>
</g>
</g>
<!-- Node8&#45;&gt;Node10 -->
<g id="edge9" class="edge">
<title>Node8&#45;&gt;Node10</title>
<path fill="none" stroke="midnightblue" d="M1733.69,-288.44C1871.82,-285.46 2502.23,-270.49 2585,-244 2644.77,-224.87 2646.56,-193.27 2704,-168 2760.84,-142.99 2780.71,-153.4 2839,-132 2879.5,-117.13 2924.29,-94.67 2951.28,-80.42"/>
<polygon fill="midnightblue" stroke="midnightblue" points="2953.2,-83.36 2960.38,-75.57 2949.9,-77.18 2953.2,-83.36"/>
</g>
<!-- Node11 -->
<g id="node11" class="node">
<title>Node11</title>
<g id="a_node11"><a xlink:title=" ">
<polygon fill="none" stroke="#bfbfbf" points="445.5,-56.5 445.5,-75.5 504.5,-75.5 504.5,-56.5 445.5,-56.5"/>
<text text-anchor="middle" x="475" y="-63.5" font-family="Helvetica,sans-Serif" font-size="10.00">stdexcept</text>
</a>
</g>
</g>
<!-- Node8&#45;&gt;Node11 -->
<g id="edge11" class="edge">
<title>Node8&#45;&gt;Node11</title>
<path fill="none" stroke="midnightblue" d="M1680.35,-285.54C1665.05,-283.66 1645.47,-281.44 1628,-280 1312.66,-254.08 1226.07,-311.73 917,-244 750.73,-207.56 565.95,-115.21 500.03,-80.48"/>
<polygon fill="midnightblue" stroke="midnightblue" points="501.31,-77.2 490.84,-75.61 498.03,-83.38 501.31,-77.2"/>
</g>
<!-- Node12 -->
<g id="node12" class="node">
<title>Node12</title>
<g id="a_node12"><a xlink:title=" ">
<polygon fill="none" stroke="#bfbfbf" points="872.5,-56.5 872.5,-75.5 913.5,-75.5 913.5,-56.5 872.5,-56.5"/>
<text text-anchor="middle" x="893" y="-63.5" font-family="Helvetica,sans-Serif" font-size="10.00">string</text>
</a>
</g>
</g>
<!-- Node8&#45;&gt;Node12 -->
<g id="edge12" class="edge">
<title>Node8&#45;&gt;Node12</title>
<path fill="none" stroke="midnightblue" d="M1680.32,-285.85C1665.01,-284.07 1645.43,-281.84 1628,-280 1345.72,-250.15 1256.94,-299.71 996,-188 955.43,-170.63 940.43,-167.34 914,-132 903.8,-118.36 898.44,-99.57 895.69,-85.7"/>
<polygon fill="midnightblue" stroke="midnightblue" points="899.14,-85.09 894.01,-75.82 892.24,-86.27 899.14,-85.09"/>
</g>
<!-- Node13 -->
<g id="node13" class="node">
<title>Node13</title>
<g id="a_node13"><a xlink:title=" ">
<polygon fill="none" stroke="#bfbfbf" points="1601,-168.5 1601,-187.5 1631,-187.5 1631,-168.5 1601,-168.5"/>
<text text-anchor="middle" x="1616" y="-175.5" font-family="Helvetica,sans-Serif" font-size="10.00">set</text>
</a>
</g>
</g>
<!-- Node8&#45;&gt;Node13 -->
<g id="edge13" class="edge">
<title>Node8&#45;&gt;Node13</title>
<path fill="none" stroke="midnightblue" d="M1699.86,-280.37C1684.71,-262.05 1649.13,-219.05 1629.54,-195.36"/>
<polygon fill="midnightblue" stroke="midnightblue" points="1632.18,-193.07 1623.11,-187.59 1626.78,-197.53 1632.18,-193.07"/>
</g>
<!-- Node14 -->
<g id="node14" class="node">
<title>Node14</title>
<g id="a_node14"><a xlink:title=" ">
<polygon fill="none" stroke="#bfbfbf" points="973,-0.5 973,-19.5 1019,-19.5 1019,-0.5 973,-0.5"/>
<text text-anchor="middle" x="996" y="-7.5" font-family="Helvetica,sans-Serif" font-size="10.00">cstring</text>
</a>
</g>
</g>
<!-- Node8&#45;&gt;Node14 -->
<g id="edge14" class="edge">
<title>Node8&#45;&gt;Node14</title>
<path fill="none" stroke="midnightblue" d="M1680.34,-285.65C1665.04,-283.8 1645.46,-281.58 1628,-280 1388.88,-258.41 1323.11,-297.24 1089,-244 1023.65,-229.14 1003.69,-226.73 949,-188 891.86,-147.53 822.19,-112.89 863,-56 885.53,-24.59 931.18,-14.83 962.66,-11.94"/>
<polygon fill="midnightblue" stroke="midnightblue" points="963.02,-15.43 972.74,-11.21 962.51,-8.45 963.02,-15.43"/>
</g>
<!-- Node15 -->
<g id="node15" class="node">
<title>Node15</title>
<g id="a_node15"><a xlink:title=" ">
<polygon fill="none" stroke="#bfbfbf" points="1623,-0.5 1623,-19.5 1677,-19.5 1677,-0.5 1623,-0.5"/>
<text text-anchor="middle" x="1650" y="-7.5" font-family="Helvetica,sans-Serif" font-size="10.00">iostream</text>
</a>
</g>
</g>
<!-- Node8&#45;&gt;Node15 -->
<g id="edge15" class="edge">
<title>Node8&#45;&gt;Node15</title>
<path fill="none" stroke="midnightblue" d="M1712.38,-280.44C1717.56,-271.68 1725.01,-257.47 1728,-244 1730.99,-230.52 1728.91,-191.33 1725,-168 1720.73,-142.47 1719.16,-135.81 1709,-112 1695.71,-80.86 1674.7,-47.45 1661.67,-27.92"/>
<polygon fill="midnightblue" stroke="midnightblue" points="1664.49,-25.84 1655.98,-19.53 1658.7,-29.77 1664.49,-25.84"/>
</g>
<!-- Node16 -->
<g id="node16" class="node">
<title>Node16</title>
<g id="a_node16"><a xlink:title=" ">
<polygon fill="none" stroke="#bfbfbf" points="1658.5,-112.5 1658.5,-131.5 1699.5,-131.5 1699.5,-112.5 1658.5,-112.5"/>
<text text-anchor="middle" x="1679" y="-119.5" font-family="Helvetica,sans-Serif" font-size="10.00">bitset</text>
</a>
</g>
</g>
<!-- Node8&#45;&gt;Node16 -->
<g id="edge16" class="edge">
<title>Node8&#45;&gt;Node16</title>
<path fill="none" stroke="midnightblue" d="M1708.93,-280.24C1713.03,-259.96 1721.24,-208.42 1709,-168 1705.88,-157.7 1699.55,-147.61 1693.5,-139.6"/>
<polygon fill="midnightblue" stroke="midnightblue" points="1696.22,-137.4 1687.21,-131.82 1690.77,-141.8 1696.22,-137.4"/>
</g>
<!-- Node17 -->
<g id="node17" class="node">
<title>Node17</title>
<g id="a_node17"><a xlink:title=" ">
<polygon fill="none" stroke="#bfbfbf" points="1648.5,-168.5 1648.5,-187.5 1699.5,-187.5 1699.5,-168.5 1648.5,-168.5"/>
<text text-anchor="middle" x="1674" y="-175.5" font-family="Helvetica,sans-Serif" font-size="10.00">memory</text>
</a>
</g>
</g>
<!-- Node8&#45;&gt;Node17 -->
<g id="edge17" class="edge">
<title>Node8&#45;&gt;Node17</title>
<path fill="none" stroke="midnightblue" d="M1704.41,-280.37C1699.06,-262.54 1686.69,-221.3 1679.48,-197.27"/>
<polygon fill="midnightblue" stroke="midnightblue" points="1682.8,-196.16 1676.58,-187.59 1676.1,-198.18 1682.8,-196.16"/>
</g>
<!-- Node18 -->
<g id="node18" class="node">
<title>Node18</title>
<g id="a_node18"><a xlink:href="physicaldevice_8h.html" target="_top" xlink:title=" ">
<polygon fill="none" stroke="black" points="1415,-224.5 1415,-243.5 1503,-243.5 1503,-224.5 1415,-224.5"/>
<text text-anchor="middle" x="1459" y="-231.5" font-family="Helvetica,sans-Serif" font-size="10.00">physicaldevice.h</text>
</a>
</g>
</g>
<!-- Node8&#45;&gt;Node18 -->
<g id="edge18" class="edge">
<title>Node8&#45;&gt;Node18</title>
<path fill="none" stroke="midnightblue" d="M1680.46,-283.22C1639.46,-274.29 1560.05,-257 1508.31,-245.74"/>
<polygon fill="midnightblue" stroke="midnightblue" points="1508.86,-242.28 1498.35,-243.57 1507.37,-249.12 1508.86,-242.28"/>
</g>
<!-- Node23 -->
<g id="node23" class="node">
<title>Node23</title>
<g id="a_node23"><a xlink:href="instance_8h.html" target="_top" xlink:title=" ">
<polygon fill="none" stroke="black" points="1206.5,-56.5 1206.5,-75.5 1267.5,-75.5 1267.5,-56.5 1206.5,-56.5"/>
<text text-anchor="middle" x="1237" y="-63.5" font-family="Helvetica,sans-Serif" font-size="10.00">instance.h</text>
</a>
</g>
</g>
<!-- Node8&#45;&gt;Node23 -->
<g id="edge61" class="edge">
<title>Node8&#45;&gt;Node23</title>
<path fill="none" stroke="midnightblue" d="M1680.46,-285.96C1598.75,-276.56 1355.55,-248.38 1339,-244 1276.6,-227.48 1253.93,-230.1 1205,-188 1176.95,-163.87 1153.71,-144.72 1171,-112 1178.42,-97.95 1192.42,-87.47 1205.62,-80.17"/>
<polygon fill="midnightblue" stroke="midnightblue" points="1207.22,-83.28 1214.54,-75.62 1204.04,-77.04 1207.22,-83.28"/>
</g>
<!-- Node18&#45;&gt;Node4 -->
<g id="edge24" class="edge">
<title>Node18&#45;&gt;Node4</title>
<path fill="none" stroke="midnightblue" d="M1414.8,-225.96C1364.01,-217.69 1278.24,-203.16 1205,-188 1152.22,-177.07 1012.71,-163.54 969,-132 936.79,-108.76 955.68,-77.05 922,-56 852.8,-12.75 598.09,-10.14 507.36,-10.63"/>
<polygon fill="midnightblue" stroke="midnightblue" points="507.11,-7.13 497.13,-10.7 507.16,-14.13 507.11,-7.13"/>
</g>
<!-- Node18&#45;&gt;Node12 -->
<g id="edge20" class="edge">
<title>Node18&#45;&gt;Node12</title>
<path fill="none" stroke="midnightblue" d="M1414.72,-230.95C1344.55,-226.97 1203.89,-215.97 1088,-188 1018.02,-171.11 992.45,-176.69 936,-132 920.29,-119.56 908.37,-99.77 901.11,-85.29"/>
<polygon fill="midnightblue" stroke="midnightblue" points="904.09,-83.41 896.66,-75.87 897.76,-86.4 904.09,-83.41"/>
</g>
<!-- Node18&#45;&gt;Node13 -->
<g id="edge21" class="edge">
<title>Node18&#45;&gt;Node13</title>
<path fill="none" stroke="midnightblue" d="M1483.88,-224.44C1513.27,-214.33 1561.87,-197.62 1591.22,-187.52"/>
<polygon fill="midnightblue" stroke="midnightblue" points="1592.42,-190.81 1600.73,-184.25 1590.14,-184.19 1592.42,-190.81"/>
</g>
<!-- Node18&#45;&gt;Node15 -->
<g id="edge22" class="edge">
<title>Node18&#45;&gt;Node15</title>
<path fill="none" stroke="midnightblue" d="M1457.23,-224.46C1454.96,-211.03 1452.66,-184.81 1465,-168 1489.52,-134.6 1517.78,-156.77 1551,-132 1590.55,-102.51 1623.85,-53.89 1639.83,-28.18"/>
<polygon fill="midnightblue" stroke="midnightblue" points="1642.89,-29.9 1645.09,-19.53 1636.9,-26.26 1642.89,-29.9"/>
</g>
<!-- Node18&#45;&gt;Node16 -->
<g id="edge23" class="edge">
<title>Node18&#45;&gt;Node16</title>
<path fill="none" stroke="midnightblue" d="M1459.62,-224.38C1461.12,-210.37 1466.16,-182.73 1483,-168 1538.19,-119.73 1572.71,-149.13 1644,-132 1645.45,-131.65 1646.93,-131.29 1648.43,-130.92"/>
<polygon fill="midnightblue" stroke="midnightblue" points="1649.45,-134.27 1658.3,-128.44 1647.75,-127.48 1649.45,-134.27"/>
</g>
<!-- Node18&#45;&gt;Node17 -->
<g id="edge25" class="edge">
<title>Node18&#45;&gt;Node17</title>
<path fill="none" stroke="midnightblue" d="M1494.08,-224.45C1528.5,-216.01 1582.76,-202.63 1638.36,-188.39"/>
<polygon fill="midnightblue" stroke="midnightblue" points="1639.57,-191.7 1648.39,-185.82 1637.84,-184.92 1639.57,-191.7"/>
</g>
<!-- Node19 -->
<g id="node19" class="node">
<title>Node19</title>
<g id="a_node19"><a xlink:title=" ">
<polygon fill="none" stroke="#bfbfbf" points="2430,-112.5 2430,-131.5 2538,-131.5 2538,-112.5 2430,-112.5"/>
<text text-anchor="middle" x="2484" y="-119.5" font-family="Helvetica,sans-Serif" font-size="10.00">vulkan/vulkan_core.h</text>
</a>
</g>
</g>
<!-- Node18&#45;&gt;Node19 -->
<g id="edge19" class="edge">
<title>Node18&#45;&gt;Node19</title>
<path fill="none" stroke="midnightblue" d="M1471.9,-224.47C1494.89,-209.78 1544.97,-180.13 1592,-168 1631.92,-157.7 2221.24,-133.45 2419.49,-125.54"/>
<polygon fill="midnightblue" stroke="midnightblue" points="2419.89,-129.03 2429.75,-125.13 2419.62,-122.04 2419.89,-129.03"/>
</g>
<!-- Node20 -->
<g id="node20" class="node">
<title>Node20</title>
<g id="a_node20"><a xlink:href="types_8h.html" target="_top" xlink:title=" ">
<polygon fill="none" stroke="black" points="1345.5,-168.5 1345.5,-187.5 1392.5,-187.5 1392.5,-168.5 1345.5,-168.5"/>
<text text-anchor="middle" x="1369" y="-175.5" font-family="Helvetica,sans-Serif" font-size="10.00">types.h</text>
</a>
</g>
</g>
<!-- Node18&#45;&gt;Node20 -->
<g id="edge26" class="edge">
<title>Node18&#45;&gt;Node20</title>
<path fill="none" stroke="midnightblue" d="M1444.54,-224.32C1430.5,-215.9 1408.95,-202.97 1392.46,-193.07"/>
<polygon fill="midnightblue" stroke="midnightblue" points="1393.8,-189.8 1383.42,-187.65 1390.2,-195.8 1393.8,-189.8"/>
</g>
<!-- Node22 -->
<g id="node22" class="node">
<title>Node22</title>
<g id="a_node22"><a xlink:href="vulkanclass_8h.html" target="_top" xlink:title=" ">
<polygon fill="none" stroke="black" points="2288,-56.5 2288,-75.5 2364,-75.5 2364,-56.5 2288,-56.5"/>
<text text-anchor="middle" x="2326" y="-63.5" font-family="Helvetica,sans-Serif" font-size="10.00">vulkanclass.h</text>
</a>
</g>
</g>
<!-- Node18&#45;&gt;Node22 -->
<g id="edge30" class="edge">
<title>Node18&#45;&gt;Node22</title>
<path fill="none" stroke="midnightblue" d="M1465.8,-224.48C1477.84,-210.08 1504.43,-181.22 1534,-168 1602.14,-137.53 2116.3,-86.83 2277.69,-71.52"/>
<polygon fill="midnightblue" stroke="midnightblue" points="2278.18,-74.99 2287.8,-70.56 2277.52,-68.02 2278.18,-74.99"/>
</g>
<!-- Node18&#45;&gt;Node23 -->
<g id="edge32" class="edge">
<title>Node18&#45;&gt;Node23</title>
<path fill="none" stroke="midnightblue" d="M1414.9,-233.61C1345.67,-232.19 1215.11,-218.16 1169,-132 1158,-111.45 1181.2,-92.26 1203.58,-80.13"/>
<polygon fill="midnightblue" stroke="midnightblue" points="1205.34,-83.17 1212.69,-75.54 1202.19,-76.91 1205.34,-83.17"/>
</g>
<!-- Node25 -->
<g id="node25" class="node">
<title>Node25</title>
<g id="a_node25"><a xlink:href="queues_8h.html" target="_top" xlink:title=" ">
<polygon fill="none" stroke="black" points="1271,-168.5 1271,-187.5 1327,-187.5 1327,-168.5 1271,-168.5"/>
<text text-anchor="middle" x="1299" y="-175.5" font-family="Helvetica,sans-Serif" font-size="10.00">queues.h</text>
</a>
</g>
</g>
<!-- Node18&#45;&gt;Node25 -->
<g id="edge39" class="edge">
<title>Node18&#45;&gt;Node25</title>
<path fill="none" stroke="midnightblue" d="M1428.56,-224.44C1399.77,-215.4 1357.1,-201.06 1328.6,-190.92"/>
<polygon fill="midnightblue" stroke="midnightblue" points="1329.75,-187.61 1319.15,-187.52 1327.38,-194.2 1329.75,-187.61"/>
</g>
<!-- Node20&#45;&gt;Node4 -->
<g id="edge28" class="edge">
<title>Node20&#45;&gt;Node4</title>
<path fill="none" stroke="midnightblue" d="M1392.72,-171.37C1437.54,-160.63 1530.6,-137.75 1535,-132 1540.4,-124.94 1540.94,-118.61 1535,-112 1534.38,-111.31 1007.92,-56.09 1007,-56 817.61,-37.95 589.92,-19.92 507.1,-13.48"/>
<polygon fill="midnightblue" stroke="midnightblue" points="507.3,-9.98 497.06,-12.7 506.76,-16.96 507.3,-9.98"/>
</g>
<!-- Node20&#45;&gt;Node9 -->
<g id="edge27" class="edge">
<title>Node20&#45;&gt;Node9</title>
<path fill="none" stroke="midnightblue" d="M1392.72,-173.29C1430.48,-167.02 1506.28,-152.94 1568,-132 1644.46,-106.07 1655.28,-77.88 1733,-56 1847.8,-23.68 1988.35,-14.55 2062.84,-11.99"/>
<polygon fill="midnightblue" stroke="midnightblue" points="2063.02,-15.49 2072.9,-11.67 2062.8,-8.49 2063.02,-15.49"/>
</g>
<!-- Node21 -->
<g id="node21" class="node">
<title>Node21</title>
<g id="a_node21"><a xlink:title=" ">
<polygon fill="none" stroke="#bfbfbf" points="1476,-112.5 1476,-131.5 1526,-131.5 1526,-112.5 1476,-112.5"/>
<text text-anchor="middle" x="1501" y="-119.5" font-family="Helvetica,sans-Serif" font-size="10.00">optional</text>
</a>
</g>
</g>
<!-- Node20&#45;&gt;Node21 -->
<g id="edge29" class="edge">
<title>Node20&#45;&gt;Node21</title>
<path fill="none" stroke="midnightblue" d="M1389.92,-168.44C1411.74,-159.52 1446.15,-145.44 1470.89,-135.32"/>
<polygon fill="midnightblue" stroke="midnightblue" points="1472.25,-138.54 1480.18,-131.52 1469.6,-132.06 1472.25,-138.54"/>
</g>
<!-- Node22&#45;&gt;Node9 -->
<g id="edge31" class="edge">
<title>Node22&#45;&gt;Node9</title>
<path fill="none" stroke="midnightblue" d="M2292.57,-56.44C2256.14,-47.12 2197.77,-32.18 2157.97,-22"/>
<polygon fill="midnightblue" stroke="midnightblue" points="2158.83,-18.61 2148.28,-19.52 2157.1,-25.39 2158.83,-18.61"/>
</g>
<!-- Node23&#45;&gt;Node4 -->
<g id="edge35" class="edge">
<title>Node23&#45;&gt;Node4</title>
<path fill="none" stroke="midnightblue" d="M1206.28,-61.36C1190.65,-59.59 1171.33,-57.51 1154,-56 905.28,-34.28 604.49,-17.76 507.09,-12.65"/>
<polygon fill="midnightblue" stroke="midnightblue" points="507.18,-9.15 497.01,-12.12 506.81,-16.14 507.18,-9.15"/>
</g>
<!-- Node23&#45;&gt;Node9 -->
<g id="edge33" class="edge">
<title>Node23&#45;&gt;Node9</title>
<path fill="none" stroke="midnightblue" d="M1267.73,-63.11C1397.07,-55.15 1898.05,-24.34 2062.43,-14.23"/>
<polygon fill="midnightblue" stroke="midnightblue" points="2062.99,-17.71 2072.76,-13.6 2062.56,-10.72 2062.99,-17.71"/>
</g>
<!-- Node23&#45;&gt;Node14 -->
<g id="edge36" class="edge">
<title>Node23&#45;&gt;Node14</title>
<path fill="none" stroke="midnightblue" d="M1206.48,-58.16C1161.02,-47.98 1075.89,-28.9 1029.03,-18.4"/>
<polygon fill="midnightblue" stroke="midnightblue" points="1029.61,-14.94 1019.08,-16.17 1028.08,-21.77 1029.61,-14.94"/>
</g>
<!-- Node23&#45;&gt;Node15 -->
<g id="edge37" class="edge">
<title>Node23&#45;&gt;Node15</title>
<path fill="none" stroke="midnightblue" d="M1267.7,-60.99C1342.13,-51.25 1531.96,-26.43 1612.72,-15.87"/>
<polygon fill="midnightblue" stroke="midnightblue" points="1613.46,-19.31 1622.92,-14.54 1612.55,-12.37 1613.46,-19.31"/>
</g>
<!-- Node23&#45;&gt;Node18 -->
<g id="edge38" class="edge">
<title>Node23&#45;&gt;Node18</title>
<path fill="none" stroke="midnightblue" d="M1225.04,-75.54C1206.24,-86.99 1174.49,-108.62 1187,-132 1228.33,-209.23 1337.51,-228.51 1404.38,-232.69"/>
<polygon fill="midnightblue" stroke="midnightblue" points="1404.57,-236.21 1414.74,-233.24 1404.94,-229.22 1404.57,-236.21"/>
</g>
<!-- Node24 -->
<g id="node24" class="node">
<title>Node24</title>
<g id="a_node24"><a xlink:title=" ">
<polygon fill="none" stroke="#bfbfbf" points="1197.5,-0.5 1197.5,-19.5 1276.5,-19.5 1276.5,-0.5 1197.5,-0.5"/>
<text text-anchor="middle" x="1237" y="-7.5" font-family="Helvetica,sans-Serif" font-size="10.00">GLFW/glfw3.h</text>
</a>
</g>
</g>
<!-- Node23&#45;&gt;Node24 -->
<g id="edge34" class="edge">
<title>Node23&#45;&gt;Node24</title>
<path fill="none" stroke="midnightblue" d="M1237,-56.08C1237,-49.01 1237,-38.86 1237,-29.99"/>
<polygon fill="midnightblue" stroke="midnightblue" points="1240.5,-29.75 1237,-19.75 1233.5,-29.75 1240.5,-29.75"/>
</g>
<!-- Node25&#45;&gt;Node4 -->
<g id="edge41" class="edge">
<title>Node25&#45;&gt;Node4</title>
<path fill="none" stroke="midnightblue" d="M1275.96,-168.49C1202.87,-141.54 980.13,-59.59 964,-56 795.11,-18.38 586.67,-12.13 507.53,-11.15"/>
<polygon fill="midnightblue" stroke="midnightblue" points="507.28,-7.65 497.24,-11.04 507.21,-14.65 507.28,-7.65"/>
</g>
<!-- Node25&#45;&gt;Node8 -->
<g id="edge49" class="edge">
<title>Node25&#45;&gt;Node8</title>
<path fill="none" stroke="midnightblue" d="M1305.7,-187.5C1317.55,-201.87 1343.74,-230.68 1373,-244 1386.44,-250.12 1586.36,-274.57 1670.31,-284.64"/>
<polygon fill="midnightblue" stroke="midnightblue" points="1670.08,-288.13 1680.43,-285.85 1670.91,-281.18 1670.08,-288.13"/>
</g>
<!-- Node25&#45;&gt;Node16 -->
<g id="edge45" class="edge">
<title>Node25&#45;&gt;Node16</title>
<path fill="none" stroke="midnightblue" d="M1327.15,-170C1330.46,-169.27 1333.8,-168.59 1337,-168 1450.95,-147.07 1587.99,-132.07 1648.14,-126"/>
<polygon fill="midnightblue" stroke="midnightblue" points="1648.85,-129.44 1658.46,-124.97 1648.16,-122.48 1648.85,-129.44"/>
</g>
<!-- Node25&#45;&gt;Node18 -->
<g id="edge50" class="edge">
<title>Node25&#45;&gt;Node18</title>
<path fill="none" stroke="midnightblue" d="M1327.08,-186.82C1355.72,-195.76 1399.75,-210.53 1429.04,-220.95"/>
<polygon fill="midnightblue" stroke="midnightblue" points="1428.14,-224.35 1438.74,-224.44 1430.51,-217.76 1428.14,-224.35"/>
</g>
<!-- Node25&#45;&gt;Node19 -->
<g id="edge40" class="edge">
<title>Node25&#45;&gt;Node19</title>
<path fill="none" stroke="midnightblue" d="M1327.11,-169.7C1330.42,-169.03 1333.78,-168.44 1337,-168 1390.84,-160.64 2185.69,-133.15 2419.67,-125.18"/>
<polygon fill="midnightblue" stroke="midnightblue" points="2419.85,-128.68 2429.73,-124.84 2419.61,-121.68 2419.85,-128.68"/>
</g>
<!-- Node25&#45;&gt;Node21 -->
<g id="edge44" class="edge">
<title>Node25&#45;&gt;Node21</title>
<path fill="none" stroke="midnightblue" d="M1327.09,-169.49C1363.39,-159.79 1426.59,-142.89 1465.99,-132.36"/>
<polygon fill="midnightblue" stroke="midnightblue" points="1466.94,-135.73 1475.7,-129.76 1465.13,-128.97 1466.94,-135.73"/>
</g>
<!-- Node25&#45;&gt;Node22 -->
<g id="edge48" class="edge">
<title>Node25&#45;&gt;Node22</title>
<path fill="none" stroke="midnightblue" d="M1327.11,-168.62C1353.76,-160.37 1394.7,-146.86 1429,-132 1446.51,-124.41 1448.6,-117.06 1467,-112 1621.3,-69.56 2119.33,-66.64 2277.39,-66.82"/>
<polygon fill="midnightblue" stroke="midnightblue" points="2277.73,-70.32 2287.73,-66.83 2277.74,-63.32 2277.73,-70.32"/>
</g>
<!-- Node26 -->
<g id="node26" class="node">
<title>Node26</title>
<g id="a_node26"><a xlink:title=" ">
<polygon fill="none" stroke="#bfbfbf" points="1186.5,-112.5 1186.5,-131.5 1221.5,-131.5 1221.5,-112.5 1186.5,-112.5"/>
<text text-anchor="middle" x="1204" y="-119.5" font-family="Helvetica,sans-Serif" font-size="10.00">map</text>
</a>
</g>
</g>
<!-- Node25&#45;&gt;Node26 -->
<g id="edge42" class="edge">
<title>Node25&#45;&gt;Node26</title>
<path fill="none" stroke="midnightblue" d="M1283.74,-168.32C1268.78,-159.82 1245.75,-146.73 1228.27,-136.8"/>
<polygon fill="midnightblue" stroke="midnightblue" points="1229.65,-133.55 1219.23,-131.65 1226.19,-139.64 1229.65,-133.55"/>
</g>
<!-- Node27 -->
<g id="node27" class="node">
<title>Node27</title>
<g id="a_node27"><a xlink:title=" ">
<polygon fill="none" stroke="#bfbfbf" points="1240,-112.5 1240,-131.5 1296,-131.5 1296,-112.5 1240,-112.5"/>
<text text-anchor="middle" x="1268" y="-119.5" font-family="Helvetica,sans-Serif" font-size="10.00">algorithm</text>
</a>
</g>
</g>
<!-- Node25&#45;&gt;Node27 -->
<g id="edge43" class="edge">
<title>Node25&#45;&gt;Node27</title>
<path fill="none" stroke="midnightblue" d="M1293.88,-168.08C1289.59,-160.61 1283.34,-149.72 1278.06,-140.52"/>
<polygon fill="midnightblue" stroke="midnightblue" points="1281.04,-138.68 1273.02,-131.75 1274.97,-142.17 1281.04,-138.68"/>
</g>
<!-- Node28 -->
<g id="node28" class="node">
<title>Node28</title>
<g id="a_node28"><a xlink:title=" ">
<polygon fill="none" stroke="#bfbfbf" points="1314,-112.5 1314,-131.5 1358,-131.5 1358,-112.5 1314,-112.5"/>
<text text-anchor="middle" x="1336" y="-119.5" font-family="Helvetica,sans-Serif" font-size="10.00">thread</text>
</a>
</g>
</g>
<!-- Node25&#45;&gt;Node28 -->
<g id="edge46" class="edge">
<title>Node25&#45;&gt;Node28</title>
<path fill="none" stroke="midnightblue" d="M1305.11,-168.08C1310.28,-160.53 1317.85,-149.49 1324.19,-140.23"/>
<polygon fill="midnightblue" stroke="midnightblue" points="1327.24,-141.98 1330,-131.75 1321.46,-138.02 1327.24,-141.98"/>
</g>
<!-- Node29 -->
<g id="node29" class="node">
<title>Node29</title>
<g id="a_node29"><a xlink:title=" ">
<polygon fill="none" stroke="#bfbfbf" points="1376.5,-112.5 1376.5,-131.5 1419.5,-131.5 1419.5,-112.5 1376.5,-112.5"/>
<text text-anchor="middle" x="1398" y="-119.5" font-family="Helvetica,sans-Serif" font-size="10.00">mutex</text>
</a>
</g>
</g>
<!-- Node25&#45;&gt;Node29 -->
<g id="edge47" class="edge">
<title>Node25&#45;&gt;Node29</title>
<path fill="none" stroke="midnightblue" d="M1314.91,-168.32C1330.64,-159.74 1354.94,-146.49 1373.21,-136.52"/>
<polygon fill="midnightblue" stroke="midnightblue" points="1375.03,-139.52 1382.13,-131.65 1371.68,-133.37 1375.03,-139.52"/>
</g>
<!-- Node30 -->
<g id="node30" class="node">
<title>Node30</title>
<g id="a_node30"><a xlink:href="window_8h.html" target="_top" xlink:title=" ">
<polygon fill="none" stroke="black" points="978.5,-112.5 978.5,-131.5 1035.5,-131.5 1035.5,-112.5 978.5,-112.5"/>
<text text-anchor="middle" x="1007" y="-119.5" font-family="Helvetica,sans-Serif" font-size="10.00">window.h</text>
</a>
</g>
</g>
<!-- Node25&#45;&gt;Node30 -->
<g id="edge51" class="edge">
<title>Node25&#45;&gt;Node30</title>
<path fill="none" stroke="midnightblue" d="M1270.74,-171.77C1218.21,-162.06 1105.5,-141.22 1045.85,-130.19"/>
<polygon fill="midnightblue" stroke="midnightblue" points="1046.18,-126.69 1035.71,-128.31 1044.91,-133.57 1046.18,-126.69"/>
</g>
<!-- Node31 -->
<g id="node31" class="node">
<title>Node31</title>
<g id="a_node31"><a xlink:href="fence_8h.html" target="_top" xlink:title=" ">
<polygon fill="none" stroke="black" points="2136,-112.5 2136,-131.5 2184,-131.5 2184,-112.5 2136,-112.5"/>
<text text-anchor="middle" x="2160" y="-119.5" font-family="Helvetica,sans-Serif" font-size="10.00">fence.h</text>
</a>
</g>
</g>
<!-- Node25&#45;&gt;Node31 -->
<g id="edge56" class="edge">
<title>Node25&#45;&gt;Node31</title>
<path fill="none" stroke="midnightblue" d="M1327.11,-169.75C1330.43,-169.07 1333.78,-168.47 1337,-168 1640.55,-124.11 2012.72,-122.17 2125.82,-122.7"/>
<polygon fill="midnightblue" stroke="midnightblue" points="2125.92,-126.2 2135.94,-122.76 2125.96,-119.2 2125.92,-126.2"/>
</g>
<!-- Node30&#45;&gt;Node11 -->
<g id="edge54" class="edge">
<title>Node30&#45;&gt;Node11</title>
<path fill="none" stroke="midnightblue" d="M978.4,-118.1C889.4,-109.06 617.26,-81.44 514.68,-71.03"/>
<polygon fill="midnightblue" stroke="midnightblue" points="515.03,-67.54 504.72,-70.02 514.32,-74.51 515.03,-67.54"/>
</g>
<!-- Node30&#45;&gt;Node12 -->
<g id="edge53" class="edge">
<title>Node30&#45;&gt;Node12</title>
<path fill="none" stroke="midnightblue" d="M988.94,-112.44C970.43,-103.68 941.42,-89.94 920.14,-79.86"/>
<polygon fill="midnightblue" stroke="midnightblue" points="921.51,-76.63 910.98,-75.52 918.52,-82.96 921.51,-76.63"/>
</g>
<!-- Node30&#45;&gt;Node23 -->
<g id="edge55" class="edge">
<title>Node30&#45;&gt;Node23</title>
<path fill="none" stroke="midnightblue" d="M1035.66,-114.27C1076.08,-104.78 1150.02,-87.42 1196.17,-76.59"/>
<polygon fill="midnightblue" stroke="midnightblue" points="1197.2,-79.94 1206.14,-74.25 1195.6,-73.12 1197.2,-79.94"/>
</g>
<!-- Node30&#45;&gt;Node24 -->
<g id="edge52" class="edge">
<title>Node30&#45;&gt;Node24</title>
<path fill="none" stroke="midnightblue" d="M1025.05,-112.37C1065.27,-93.13 1162.46,-46.65 1209.96,-23.93"/>
<polygon fill="midnightblue" stroke="midnightblue" points="1211.52,-27.06 1219.04,-19.59 1208.5,-20.75 1211.52,-27.06"/>
</g>
<!-- Node31&#45;&gt;Node8 -->
<g id="edge60" class="edge">
<title>Node31&#45;&gt;Node8</title>
<path fill="none" stroke="midnightblue" d="M2140.93,-131.52C2112.27,-144.26 2056.27,-168.8 2008,-188 1941.1,-214.61 1924.27,-221.14 1856,-244 1817.79,-256.8 1773.53,-269.96 1743.24,-278.71"/>
<polygon fill="midnightblue" stroke="midnightblue" points="1742.17,-275.38 1733.53,-281.51 1744.11,-282.1 1742.17,-275.38"/>
</g>
<!-- Node31&#45;&gt;Node9 -->
<g id="edge57" class="edge">
<title>Node31&#45;&gt;Node9</title>
<path fill="none" stroke="midnightblue" d="M2156.47,-112.37C2149.14,-94.46 2132.15,-52.92 2122.34,-28.95"/>
<polygon fill="midnightblue" stroke="midnightblue" points="2125.54,-27.52 2118.51,-19.59 2119.06,-30.17 2125.54,-27.52"/>
</g>
<!-- Node31&#45;&gt;Node10 -->
<g id="edge58" class="edge">
<title>Node31&#45;&gt;Node10</title>
<path fill="none" stroke="midnightblue" d="M2184.42,-119.38C2296.52,-111.97 2763.1,-81.09 2922.41,-70.55"/>
<polygon fill="midnightblue" stroke="midnightblue" points="2922.71,-74.03 2932.45,-69.88 2922.24,-67.05 2922.71,-74.03"/>
</g>
<!-- Node31&#45;&gt;Node22 -->
<g id="edge59" class="edge">
<title>Node31&#45;&gt;Node22</title>
<path fill="none" stroke="midnightblue" d="M2184.14,-113.15C2211.89,-104.12 2257.72,-89.21 2289.76,-78.79"/>
<polygon fill="midnightblue" stroke="midnightblue" points="2291.21,-82 2299.64,-75.58 2289.05,-75.34 2291.21,-82"/>
</g>
<!-- Node32&#45;&gt;Node4 -->
<g id="edge83" class="edge">
<title>Node32&#45;&gt;Node4</title>
<path fill="none" stroke="midnightblue" d="M1676.79,-456.24C1493.34,-452.3 719.05,-431.43 491,-356 402.97,-326.88 359.19,-325.51 315,-244 289.27,-196.54 147.29,-284.17 336,-56 362.07,-24.48 410.46,-14.81 442.7,-11.98"/>
<polygon fill="midnightblue" stroke="midnightblue" points="443.23,-15.45 452.95,-11.25 442.73,-8.47 443.23,-15.45"/>
</g>
<!-- Node32&#45;&gt;Node8 -->
<g id="edge64" class="edge">
<title>Node32&#45;&gt;Node8</title>
<path fill="none" stroke="midnightblue" d="M1701.05,-448.41C1689.02,-440.6 1672.86,-427.87 1665,-412 1653.93,-389.64 1661.89,-380.94 1661,-356 1660.68,-347.12 1657.55,-344.19 1661,-336 1666.03,-324.05 1675.94,-313.69 1685.29,-305.93"/>
<polygon fill="midnightblue" stroke="midnightblue" points="1687.44,-308.69 1693.21,-299.81 1683.16,-303.15 1687.44,-308.69"/>
</g>
<!-- Node32&#45;&gt;Node19 -->
<g id="edge63" class="edge">
<title>Node32&#45;&gt;Node19</title>
<path fill="none" stroke="midnightblue" d="M1755.12,-454.01C1779.75,-452.16 1812.23,-449.82 1841,-448 1877.81,-445.68 2478.63,-438.78 2504,-412 2558.12,-354.86 2469.25,-319.78 2448,-244 2437.6,-206.9 2458.45,-163.7 2472.55,-140.27"/>
<polygon fill="midnightblue" stroke="midnightblue" points="2475.53,-142.11 2477.89,-131.78 2469.6,-138.38 2475.53,-142.11"/>
</g>
<!-- Node32&#45;&gt;Node22 -->
<g id="edge65" class="edge">
<title>Node32&#45;&gt;Node22</title>
<path fill="none" stroke="midnightblue" d="M1755.12,-454.08C1779.76,-452.26 1812.24,-449.92 1841,-448 1906.2,-443.65 2383.23,-459.6 2428,-412 2477.16,-359.73 2452.43,-236.59 2378,-112 2370.73,-99.83 2359.01,-89.27 2348.54,-81.44"/>
<polygon fill="midnightblue" stroke="midnightblue" points="2350.35,-78.43 2340.17,-75.53 2346.32,-84.16 2350.35,-78.43"/>
</g>
<!-- Node33 -->
<g id="node33" class="node">
<title>Node33</title>
<g id="a_node33"><a xlink:href="pipelinelayout_8h.html" target="_top" xlink:title=" ">
<polygon fill="none" stroke="black" points="2006.5,-392.5 2006.5,-411.5 2089.5,-411.5 2089.5,-392.5 2006.5,-392.5"/>
<text text-anchor="middle" x="2048" y="-399.5" font-family="Helvetica,sans-Serif" font-size="10.00">pipelinelayout.h</text>
</a>
</g>
</g>
<!-- Node32&#45;&gt;Node33 -->
<g id="edge66" class="edge">
<title>Node32&#45;&gt;Node33</title>
<path fill="none" stroke="midnightblue" d="M1755.06,-450.65C1815.06,-440.89 1929.94,-422.2 1996.61,-411.36"/>
<polygon fill="midnightblue" stroke="midnightblue" points="1997.18,-414.81 2006.49,-409.75 1996.06,-407.9 1997.18,-414.81"/>
</g>
<!-- Node35 -->
<g id="node35" class="node">
<title>Node35</title>
<g id="a_node35"><a xlink:href="descriptorlayout_8h.html" target="_top" xlink:title=" ">
<polygon fill="none" stroke="black" points="1484,-336.5 1484,-355.5 1576,-355.5 1576,-336.5 1484,-336.5"/>
<text text-anchor="middle" x="1530" y="-343.5" font-family="Helvetica,sans-Serif" font-size="10.00">descriptorlayout.h</text>
</a>
</g>
</g>
<!-- Node32&#45;&gt;Node35 -->
<g id="edge82" class="edge">
<title>Node32&#45;&gt;Node35</title>
<path fill="none" stroke="midnightblue" d="M1697.24,-448.34C1678.98,-439.72 1650.61,-425.81 1627,-412 1599.66,-396.01 1569.56,-375.32 1550.25,-361.63"/>
<polygon fill="midnightblue" stroke="midnightblue" points="1552.12,-358.66 1541.94,-355.7 1548.05,-364.36 1552.12,-358.66"/>
</g>
<!-- Node33&#45;&gt;Node4 -->
<g id="edge69" class="edge">
<title>Node33&#45;&gt;Node4</title>
<path fill="none" stroke="midnightblue" d="M2010.48,-392.39C1949.32,-378.64 1824.2,-351.67 1717,-336 1296.39,-274.53 1156.97,-408.47 765,-244 705.08,-218.86 592.8,-95.24 541,-56 526.77,-45.22 510.16,-33.9 497.16,-25.31"/>
<polygon fill="midnightblue" stroke="midnightblue" points="498.7,-22.14 488.42,-19.59 494.87,-27.99 498.7,-22.14"/>
</g>
<!-- Node33&#45;&gt;Node8 -->
<g id="edge80" class="edge">
<title>Node33&#45;&gt;Node8</title>
<path fill="none" stroke="midnightblue" d="M2031.34,-392.31C2004.66,-378.69 1950.41,-352.2 1902,-336 1848.01,-317.94 1783.25,-304.56 1743.62,-297.27"/>
<polygon fill="midnightblue" stroke="midnightblue" points="1744.09,-293.8 1733.62,-295.47 1742.84,-300.69 1744.09,-293.8"/>
</g>
<!-- Node33&#45;&gt;Node9 -->
<g id="edge67" class="edge">
<title>Node33&#45;&gt;Node9</title>
<path fill="none" stroke="midnightblue" d="M2089.52,-398.39C2156.7,-393.6 2293.1,-381.44 2406,-356 2617.37,-308.37 2740.38,-324.93 2839,-132 2866.07,-79.04 2775.98,-62.31 2758,-56 2649.53,-17.95 2301.07,-11.99 2167.65,-11.12"/>
<polygon fill="midnightblue" stroke="midnightblue" points="2167.31,-7.62 2157.29,-11.06 2167.27,-14.62 2167.31,-7.62"/>
</g>
<!-- Node33&#45;&gt;Node11 -->
<g id="edge68" class="edge">
<title>Node33&#45;&gt;Node11</title>
<path fill="none" stroke="midnightblue" d="M2006.4,-396.16C1991.47,-394.59 1974.5,-393 1959,-392 1673.04,-373.57 952.56,-403.68 670,-356 588.64,-342.27 553.72,-355.86 493,-300 432.44,-244.29 456.54,-130.61 469.17,-85.78"/>
<polygon fill="midnightblue" stroke="midnightblue" points="472.6,-86.52 472.07,-75.94 465.88,-84.54 472.6,-86.52"/>
</g>
<!-- Node33&#45;&gt;Node22 -->
<g id="edge81" class="edge">
<title>Node33&#45;&gt;Node22</title>
<path fill="none" stroke="midnightblue" d="M2059.83,-392.41C2081.98,-375.98 2130.58,-338.34 2165,-300 2231.02,-226.48 2292.6,-124.8 2316.03,-84.48"/>
<polygon fill="midnightblue" stroke="midnightblue" points="2319.18,-86.02 2321.14,-75.61 2313.12,-82.52 2319.18,-86.02"/>
</g>
<!-- Node34 -->
<g id="node34" class="node">
<title>Node34</title>
<g id="a_node34"><a xlink:title=" ">
<polygon fill="none" stroke="#bfbfbf" points="2030.5,-336.5 2030.5,-355.5 2089.5,-355.5 2089.5,-336.5 2030.5,-336.5"/>
<text text-anchor="middle" x="2060" y="-343.5" font-family="Helvetica,sans-Serif" font-size="10.00">functional</text>
</a>
</g>
</g>
<!-- Node33&#45;&gt;Node34 -->
<g id="edge70" class="edge">
<title>Node33&#45;&gt;Node34</title>
<path fill="none" stroke="midnightblue" d="M2049.98,-392.08C2051.57,-384.93 2053.86,-374.64 2055.85,-365.69"/>
<polygon fill="midnightblue" stroke="midnightblue" points="2059.3,-366.27 2058.06,-355.75 2052.47,-364.75 2059.3,-366.27"/>
</g>
<!-- Node33&#45;&gt;Node35 -->
<g id="edge71" class="edge">
<title>Node33&#45;&gt;Node35</title>
<path fill="none" stroke="midnightblue" d="M2006.49,-396.67C1914.01,-387.03 1691.01,-363.78 1586.2,-352.86"/>
<polygon fill="midnightblue" stroke="midnightblue" points="1586.45,-349.37 1576.14,-351.81 1585.72,-356.33 1586.45,-349.37"/>
</g>
<!-- Node36 -->
<g id="node36" class="node">
<title>Node36</title>
<g id="a_node36"><a xlink:href="pushconstant_8h.html" target="_top" xlink:title=" ">
<polygon fill="none" stroke="black" points="2746.5,-112.5 2746.5,-131.5 2829.5,-131.5 2829.5,-112.5 2746.5,-112.5"/>
<text text-anchor="middle" x="2788" y="-119.5" font-family="Helvetica,sans-Serif" font-size="10.00">pushconstant.h</text>
</a>
</g>
</g>
<!-- Node33&#45;&gt;Node36 -->
<g id="edge77" class="edge">
<title>Node33&#45;&gt;Node36</title>
<path fill="none" stroke="midnightblue" d="M2089.67,-398.04C2192.55,-389.16 2464.17,-355.98 2656,-244 2705.45,-215.14 2752.07,-165.17 2774.34,-139.41"/>
<polygon fill="midnightblue" stroke="midnightblue" points="2777.11,-141.55 2780.92,-131.67 2771.78,-137.02 2777.11,-141.55"/>
</g>
<!-- Node35&#45;&gt;Node4 -->
<g id="edge74" class="edge">
<title>Node35&#45;&gt;Node4</title>
<path fill="none" stroke="midnightblue" d="M1483.87,-342.7C1334.29,-334.71 864.51,-305.21 727,-244 669.37,-218.34 534.66,-75.72 489.82,-27.18"/>
<polygon fill="midnightblue" stroke="midnightblue" points="492.32,-24.73 482.97,-19.74 487.17,-29.47 492.32,-24.73"/>
</g>
<!-- Node35&#45;&gt;Node8 -->
<g id="edge76" class="edge">
<title>Node35&#45;&gt;Node8</title>
<path fill="none" stroke="midnightblue" d="M1558.05,-336.44C1588.44,-327.17 1637.04,-312.34 1670.41,-302.16"/>
<polygon fill="midnightblue" stroke="midnightblue" points="1671.7,-305.43 1680.24,-299.16 1669.66,-298.73 1671.7,-305.43"/>
</g>
<!-- Node35&#45;&gt;Node9 -->
<g id="edge72" class="edge">
<title>Node35&#45;&gt;Node9</title>
<path fill="none" stroke="midnightblue" d="M1576.12,-340.29C1671.16,-329.3 1880,-297.98 1880,-235 1880,-235 1880,-235 1880,-121 1880,-40.88 1993.45,-18.99 2062.69,-13.09"/>
<polygon fill="midnightblue" stroke="midnightblue" points="2063.28,-16.56 2072.99,-12.31 2062.75,-9.58 2063.28,-16.56"/>
</g>
<!-- Node35&#45;&gt;Node11 -->
<g id="edge73" class="edge">
<title>Node35&#45;&gt;Node11</title>
<path fill="none" stroke="midnightblue" d="M1483.84,-345.45C1336.35,-346.39 877.98,-345.51 738,-300 694.27,-285.78 686.75,-272.92 651,-244 585.43,-190.97 517.84,-116.28 489.2,-83.51"/>
<polygon fill="midnightblue" stroke="midnightblue" points="491.68,-81.03 482.48,-75.77 486.39,-85.61 491.68,-81.03"/>
</g>
<!-- Node35&#45;&gt;Node22 -->
<g id="edge75" class="edge">
<title>Node35&#45;&gt;Node22</title>
<path fill="none" stroke="midnightblue" d="M1576.3,-341.47C1660.63,-334.68 1835.91,-318.79 1894,-300 2059.03,-246.62 2082.4,-192.58 2236,-112 2257.01,-100.98 2281.07,-88.98 2299.02,-80.15"/>
<polygon fill="midnightblue" stroke="midnightblue" points="2300.87,-83.14 2308.31,-75.59 2297.79,-76.85 2300.87,-83.14"/>
</g>
<!-- Node36&#45;&gt;Node9 -->
<g id="edge78" class="edge">
<title>Node36&#45;&gt;Node9</title>
<path fill="none" stroke="midnightblue" d="M2783.54,-112.34C2775.49,-97.74 2757.01,-68.59 2732,-56 2682.16,-30.92 2306.7,-16.91 2167.08,-12.52"/>
<polygon fill="midnightblue" stroke="midnightblue" points="2167.15,-9.02 2157.05,-12.21 2166.94,-16.02 2167.15,-9.02"/>
</g>
<!-- Node36&#45;&gt;Node22 -->
<g id="edge79" class="edge">
<title>Node36&#45;&gt;Node22</title>
<path fill="none" stroke="midnightblue" d="M2746.19,-116.11C2660.42,-106.09 2465.04,-83.25 2374.16,-72.63"/>
<polygon fill="midnightblue" stroke="midnightblue" points="2374.46,-69.14 2364.13,-71.46 2373.65,-76.09 2374.46,-69.14"/>
</g>
<!-- Node37&#45;&gt;Node4 -->
<g id="edge89" class="edge">
<title>Node37&#45;&gt;Node4</title>
<path fill="none" stroke="midnightblue" d="M679.34,-343.71C637.54,-340.75 554.98,-331.13 493,-300 425.75,-266.22 396.96,-256.59 366,-188 341.86,-134.53 333.38,-104.76 366,-56 383.01,-30.58 417.29,-19.5 442.89,-14.68"/>
<polygon fill="midnightblue" stroke="midnightblue" points="443.62,-18.11 452.91,-13.03 442.48,-11.21 443.62,-18.11"/>
</g>
<!-- Node37&#45;&gt;Node8 -->
<g id="edge91" class="edge">
<title>Node37&#45;&gt;Node8</title>
<path fill="none" stroke="midnightblue" d="M732.66,-342.4C753.44,-340.43 783.03,-337.78 809,-336 895.77,-330.04 1512.12,-300.35 1670.15,-292.77"/>
<polygon fill="midnightblue" stroke="midnightblue" points="1670.49,-296.25 1680.31,-292.28 1670.15,-289.26 1670.49,-296.25"/>
</g>
<!-- Node37&#45;&gt;Node9 -->
<g id="edge85" class="edge">
<title>Node37&#45;&gt;Node9</title>
<path fill="none" stroke="midnightblue" d="M732.77,-342.65C864.42,-330.94 1439.83,-278.17 1512,-244 1556.32,-223.01 1549.66,-192.76 1592,-168 1638.97,-140.54 1660.6,-156.84 1709,-132 1758.66,-106.51 1757.54,-77.63 1809,-56 1893.05,-20.67 2000.22,-12.41 2062.87,-10.85"/>
<polygon fill="midnightblue" stroke="midnightblue" points="2062.98,-14.35 2072.91,-10.65 2062.84,-7.35 2062.98,-14.35"/>
</g>
<!-- Node37&#45;&gt;Node11 -->
<g id="edge87" class="edge">
<title>Node37&#45;&gt;Node11</title>
<path fill="none" stroke="midnightblue" d="M679.15,-342.18C631.82,-336.68 536.36,-322.99 513,-300 453.88,-241.82 464.49,-130.01 471.52,-85.72"/>
<polygon fill="midnightblue" stroke="midnightblue" points="474.99,-86.22 473.23,-75.77 468.09,-85.04 474.99,-86.22"/>
</g>
<!-- Node37&#45;&gt;Node12 -->
<g id="edge90" class="edge">
<title>Node37&#45;&gt;Node12</title>
<path fill="none" stroke="midnightblue" d="M701.79,-336.42C689.12,-309.3 654.32,-223.87 689,-168 727.27,-106.35 815.59,-81.18 862.47,-71.87"/>
<polygon fill="midnightblue" stroke="midnightblue" points="863.17,-75.3 872.36,-70.02 861.89,-68.42 863.17,-75.3"/>
</g>
<!-- Node38 -->
<g id="node38" class="node">
<title>Node38</title>
<g id="a_node38"><a xlink:title=" ">
<polygon fill="none" stroke="#bfbfbf" points="522.5,-280.5 522.5,-299.5 571.5,-299.5 571.5,-280.5 522.5,-280.5"/>
<text text-anchor="middle" x="547" y="-287.5" font-family="Helvetica,sans-Serif" font-size="10.00">cassert</text>
</a>
</g>
</g>
<!-- Node37&#45;&gt;Node38 -->
<g id="edge86" class="edge">
<title>Node37&#45;&gt;Node38</title>
<path fill="none" stroke="midnightblue" d="M680.81,-336.44C653.9,-327.31 611.1,-312.77 581.17,-302.6"/>
<polygon fill="midnightblue" stroke="midnightblue" points="582.15,-299.24 571.55,-299.34 579.9,-305.87 582.15,-299.24"/>
</g>
<!-- Node37&#45;&gt;Node39 -->
<g id="edge88" class="edge">
<title>Node37&#45;&gt;Node39</title>
<path fill="none" stroke="midnightblue" d="M732.64,-342.16C753.42,-340.07 783.01,-337.37 809,-336 1326.53,-308.79 3046.26,-293.35 3294.13,-291.25"/>
<polygon fill="midnightblue" stroke="midnightblue" points="3294.23,-294.75 3304.2,-291.16 3294.17,-287.75 3294.23,-294.75"/>
</g>
<!-- Node40&#45;&gt;Node4 -->
<g id="edge96" class="edge">
<title>Node40&#45;&gt;Node4</title>
<path fill="none" stroke="midnightblue" d="M1887.48,-512.6C1703,-510.38 852.7,-498.66 591,-468 466.25,-453.38 433.77,-449.83 314,-412 200.81,-376.25 114,-353.7 114,-235 114,-235 114,-235 114,-121 114,-86.84 126.32,-74.54 155,-56 202.17,-25.51 371.3,-15.19 442.76,-12.14"/>
<polygon fill="midnightblue" stroke="midnightblue" points="443.12,-15.62 452.97,-11.72 442.83,-8.63 443.12,-15.62"/>
</g>
<!-- Node40&#45;&gt;Node9 -->
<g id="edge93" class="edge">
<title>Node40&#45;&gt;Node9</title>
<path fill="none" stroke="midnightblue" d="M1958.67,-510.21C2037.61,-503.92 2233.02,-487.59 2396,-468 2642.81,-438.33 2720.6,-465.04 2944,-356 3065.01,-296.94 3136.12,-266.13 3148,-132 3151.15,-96.44 3151.66,-75.87 3122,-56 3082.06,-29.23 2368.34,-15.26 2167.31,-11.84"/>
<polygon fill="midnightblue" stroke="midnightblue" points="2167.35,-8.34 2157.29,-11.67 2167.23,-15.34 2167.35,-8.34"/>
</g>
<!-- Node40&#45;&gt;Node11 -->
<g id="edge97" class="edge">
<title>Node40&#45;&gt;Node11</title>
<path fill="none" stroke="midnightblue" d="M1887.47,-512.39C1673.35,-508.49 559.6,-484.81 428,-412 342.7,-364.81 288.12,-317.71 315,-224 332.08,-164.44 350.43,-151.7 398,-112 413.06,-99.43 432.08,-88.28 447.44,-80.22"/>
<polygon fill="midnightblue" stroke="midnightblue" points="449.15,-83.28 456.47,-75.62 445.97,-77.04 449.15,-83.28"/>
</g>
<!-- Node40&#45;&gt;Node24 -->
<g id="edge94" class="edge">
<title>Node40&#45;&gt;Node24</title>
<path fill="none" stroke="midnightblue" d="M1958.79,-511.42C2108.1,-504.46 2681.39,-474.16 2850,-412 3016.17,-350.74 3164.83,-169.64 3029,-56 3026.85,-54.2 1577.02,-19.19 1287.1,-12.21"/>
<polygon fill="midnightblue" stroke="midnightblue" points="1286.97,-8.7 1276.89,-11.96 1286.8,-15.7 1286.97,-8.7"/>
</g>
<!-- Node40&#45;&gt;Node30 -->
<g id="edge98" class="edge">
<title>Node40&#45;&gt;Node30</title>
<path fill="none" stroke="midnightblue" d="M1887.22,-513.37C1694.63,-514.89 790,-516.02 790,-403 790,-403 790,-403 790,-345 790,-238.81 918.54,-164.57 977.76,-136.01"/>
<polygon fill="midnightblue" stroke="midnightblue" points="979.42,-139.09 986.97,-131.66 976.44,-132.76 979.42,-139.09"/>
</g>
<!-- Node41 -->
<g id="node41" class="node">
<title>Node41</title>
<g id="a_node41"><a xlink:title=" ">
<polygon fill="none" stroke="#bfbfbf" points="1840,-392.5 1840,-411.5 1950,-411.5 1950,-392.5 1840,-392.5"/>
<text text-anchor="middle" x="1895" y="-399.5" font-family="Helvetica,sans-Serif" font-size="10.00">dexode/EventBus.hpp</text>
</a>
</g>
</g>
<!-- Node40&#45;&gt;Node41 -->
<g id="edge95" class="edge">
<title>Node40&#45;&gt;Node41</title>
<path fill="none" stroke="midnightblue" d="M1926.24,-504.32C1930.48,-491.61 1936.63,-467.32 1930,-448 1926.28,-437.16 1918.77,-426.92 1911.65,-418.96"/>
<polygon fill="midnightblue" stroke="midnightblue" points="1914,-416.35 1904.56,-411.55 1908.95,-421.19 1914,-416.35"/>
</g>
<!-- Node42 -->
<g id="node42" class="node">
<title>Node42</title>
<g id="a_node42"><a xlink:href="framebuffer_8h.html" target="_top" xlink:title=" ">
<polygon fill="none" stroke="black" points="2119.5,-448.5 2119.5,-467.5 2192.5,-467.5 2192.5,-448.5 2119.5,-448.5"/>
<text text-anchor="middle" x="2156" y="-455.5" font-family="Helvetica,sans-Serif" font-size="10.00">framebuffer.h</text>
</a>
</g>
</g>
<!-- Node40&#45;&gt;Node42 -->
<g id="edge99" class="edge">
<title>Node40&#45;&gt;Node42</title>
<path fill="none" stroke="midnightblue" d="M1954.83,-504.44C1994.8,-494.68 2063.42,-478.77 2109.31,-468.59"/>
<polygon fill="midnightblue" stroke="midnightblue" points="2110.29,-471.96 2119.31,-466.39 2108.79,-465.12 2110.29,-471.96"/>
</g>
<!-- Node47 -->
<g id="node47" class="node">
<title>Node47</title>
<g id="a_node47"><a xlink:href="semaphore_8h.html" target="_top" xlink:title=" ">
<polygon fill="none" stroke="black" points="2834,-336.5 2834,-355.5 2906,-355.5 2906,-336.5 2834,-336.5"/>
<text text-anchor="middle" x="2870" y="-343.5" font-family="Helvetica,sans-Serif" font-size="10.00">semaphore.h</text>
</a>
</g>
</g>
<!-- Node40&#45;&gt;Node47 -->
<g id="edge131" class="edge">
<title>Node40&#45;&gt;Node47</title>
<path fill="none" stroke="midnightblue" d="M1958.84,-509.74C2064.35,-499.75 2382.72,-466.89 2642,-412 2711.11,-397.37 2790.04,-373.14 2834.55,-358.76"/>
<polygon fill="midnightblue" stroke="midnightblue" points="2835.88,-362.01 2844.31,-355.59 2833.71,-355.35 2835.88,-362.01"/>
</g>
<!-- Node48 -->
<g id="node48" class="node">
<title>Node48</title>
<g id="a_node48"><a xlink:href="eventbus_8h.html" target="_top" xlink:title=" ">
<polygon fill="none" stroke="black" points="1849.5,-448.5 1849.5,-467.5 1920.5,-467.5 1920.5,-448.5 1849.5,-448.5"/>
<text text-anchor="middle" x="1885" y="-455.5" font-family="Helvetica,sans-Serif" font-size="10.00">../eventbus.h</text>
</a>
</g>
</g>
<!-- Node40&#45;&gt;Node48 -->
<g id="edge128" class="edge">
<title>Node40&#45;&gt;Node48</title>
<path fill="none" stroke="midnightblue" d="M1916.73,-504.08C1911.36,-496.46 1903.48,-485.26 1896.92,-475.94"/>
<polygon fill="midnightblue" stroke="midnightblue" points="1899.78,-473.91 1891.16,-467.75 1894.05,-477.94 1899.78,-473.91"/>
</g>
<!-- Node49 -->
<g id="node49" class="node">
<title>Node49</title>
<g id="a_node49"><a xlink:href="commandbuffer_8h.html" target="_top" xlink:title=" ">
<polygon fill="none" stroke="black" points="2045.5,-616.5 2045.5,-635.5 2136.5,-635.5 2136.5,-616.5 2045.5,-616.5"/>
<text text-anchor="middle" x="2091" y="-623.5" font-family="Helvetica,sans-Serif" font-size="10.00">commandbuffer.h</text>
</a>
</g>
</g>
<!-- Node40&#45;&gt;Node49 -->
<g id="edge132" class="edge">
<title>Node40&#45;&gt;Node49</title>
<path fill="none" stroke="midnightblue" d="M1951.6,-523.59C1973.89,-531.09 2005,-543.39 2029,-560 2048.54,-573.52 2066.79,-593.97 2078.35,-608.32"/>
<polygon fill="midnightblue" stroke="midnightblue" points="2075.72,-610.63 2084.65,-616.34 2081.23,-606.31 2075.72,-610.63"/>
</g>
<!-- Node42&#45;&gt;Node4 -->
<g id="edge101" class="edge">
<title>Node42&#45;&gt;Node4</title>
<path fill="none" stroke="midnightblue" d="M2154.9,-448.37C2151.47,-425.47 2138.72,-363.07 2099,-336 2048.67,-301.7 1612.73,-304.67 1552,-300 1269.08,-278.24 1187.83,-325.41 916,-244 747.22,-193.46 723.72,-136.5 567,-56 545.42,-44.91 520.7,-32.86 502.32,-24.02"/>
<polygon fill="midnightblue" stroke="midnightblue" points="503.62,-20.76 493.09,-19.59 500.59,-27.07 503.62,-20.76"/>
</g>
<!-- Node42&#45;&gt;Node8 -->
<g id="edge103" class="edge">
<title>Node42&#45;&gt;Node8</title>
<path fill="none" stroke="midnightblue" d="M2157.34,-448.36C2160.26,-425.97 2164.57,-365.76 2132,-336 2103.56,-310.02 1841.55,-296.58 1743.66,-292.43"/>
<polygon fill="midnightblue" stroke="midnightblue" points="1743.77,-288.93 1733.64,-292.01 1743.48,-295.92 1743.77,-288.93"/>
</g>
<!-- Node42&#45;&gt;Node9 -->
<g id="edge100" class="edge">
<title>Node42&#45;&gt;Node9</title>
<path fill="none" stroke="midnightblue" d="M2192.55,-455.96C2326.75,-451.57 2790.92,-431.14 2915,-356 3048.99,-274.86 3208.21,-169.27 3100,-56 3067.56,-22.05 2366.93,-13.24 2167.52,-11.41"/>
<polygon fill="midnightblue" stroke="midnightblue" points="2167.34,-7.91 2157.31,-11.32 2167.28,-14.91 2167.34,-7.91"/>
</g>
<!-- Node42&#45;&gt;Node22 -->
<g id="edge102" class="edge">
<title>Node42&#45;&gt;Node22</title>
<path fill="none" stroke="midnightblue" d="M2192.58,-455C2273.35,-450.19 2464.49,-436.51 2524,-412 2605.13,-378.58 2680,-378.74 2680,-291 2680,-291 2680,-291 2680,-233 2680,-99.56 2471.25,-73.17 2374.35,-68.11"/>
<polygon fill="midnightblue" stroke="midnightblue" points="2374.37,-64.61 2364.22,-67.64 2374.05,-71.6 2374.37,-64.61"/>
</g>
<!-- Node42&#45;&gt;Node40 -->
<g id="edge122" class="edge">
<title>Node42&#45;&gt;Node40</title>
<path fill="none" stroke="midnightblue" d="M2124.25,-467.54C2084,-477.37 2014.61,-493.46 1968.69,-503.63"/>
<polygon fill="midnightblue" stroke="midnightblue" points="1967.71,-500.26 1958.7,-505.83 1969.22,-507.1 1967.71,-500.26"/>
</g>
<!-- Node42&#45;&gt;Node43 -->
<g id="edge104" class="edge">
<title>Node42&#45;&gt;Node43</title>
<path fill="none" stroke="midnightblue" d="M2119.12,-452.54C2038.22,-442.74 1845.3,-419.38 1756.36,-408.61"/>
<polygon fill="midnightblue" stroke="midnightblue" points="1756.64,-405.12 1746.3,-407.39 1755.8,-412.07 1756.64,-405.12"/>
</g>
<!-- Node45 -->
<g id="node45" class="node">
<title>Node45</title>
<g id="a_node45"><a xlink:href="imageview_8h.html" target="_top" xlink:title=" ">
<polygon fill="none" stroke="black" points="2211.5,-392.5 2211.5,-411.5 2282.5,-411.5 2282.5,-392.5 2211.5,-392.5"/>
<text text-anchor="middle" x="2247" y="-399.5" font-family="Helvetica,sans-Serif" font-size="10.00">imageview.h</text>
</a>
</g>
</g>
<!-- Node42&#45;&gt;Node45 -->
<g id="edge111" class="edge">
<title>Node42&#45;&gt;Node45</title>
<path fill="none" stroke="midnightblue" d="M2170.62,-448.32C2184.95,-439.82 2207.01,-426.73 2223.75,-416.8"/>
<polygon fill="midnightblue" stroke="midnightblue" points="2225.6,-419.77 2232.42,-411.65 2222.03,-413.75 2225.6,-419.77"/>
</g>
<!-- Node42&#45;&gt;Node47 -->
<g id="edge123" class="edge">
<title>Node42&#45;&gt;Node47</title>
<path fill="none" stroke="midnightblue" d="M2192.77,-454.53C2266.55,-449.25 2437.75,-435.41 2580,-412 2668.91,-397.37 2771.46,-372.45 2827.68,-358.09"/>
<polygon fill="midnightblue" stroke="midnightblue" points="2828.81,-361.42 2837.62,-355.54 2827.06,-354.64 2828.81,-361.42"/>
</g>
<!-- Node43&#45;&gt;Node4 -->
<g id="edge106" class="edge">
<title>Node43&#45;&gt;Node4</title>
<path fill="none" stroke="midnightblue" d="M1673.88,-400.93C1488.9,-400.41 652.11,-395.85 544,-356 417.94,-309.53 356.29,-265.48 341,-132 337.12,-98.15 329.06,-82.06 351,-56 373.75,-28.97 414.12,-18.17 442.61,-13.86"/>
<polygon fill="midnightblue" stroke="midnightblue" points="443.43,-17.29 452.88,-12.51 442.51,-10.35 443.43,-17.29"/>
</g>
<!-- Node43&#45;&gt;Node8 -->
<g id="edge108" class="edge">
<title>Node43&#45;&gt;Node8</title>
<path fill="none" stroke="midnightblue" d="M1712.17,-392.17C1714.96,-379.66 1719.2,-356.08 1717,-336 1716.03,-327.14 1714.01,-317.47 1712.04,-309.38"/>
<polygon fill="midnightblue" stroke="midnightblue" points="1715.38,-308.33 1709.48,-299.53 1708.61,-310.09 1715.38,-308.33"/>
</g>
<!-- Node43&#45;&gt;Node9 -->
<g id="edge105" class="edge">
<title>Node43&#45;&gt;Node9</title>
<path fill="none" stroke="midnightblue" d="M1746.13,-392.57C1793.91,-379.79 1878.33,-351.4 1932,-300 2019.85,-215.86 1978.13,-149.45 2056,-56 2066.05,-43.93 2079.91,-33.15 2091.67,-25.17"/>
<polygon fill="midnightblue" stroke="midnightblue" points="2093.7,-28.03 2100.16,-19.64 2089.87,-22.17 2093.7,-28.03"/>
</g>
<!-- Node43&#45;&gt;Node22 -->
<g id="edge109" class="edge">
<title>Node43&#45;&gt;Node22</title>
<path fill="none" stroke="midnightblue" d="M1733.79,-392.44C1757.41,-383.79 1794.53,-369.77 1826,-356 2014.8,-273.39 2060.14,-245.73 2232,-132 2257.71,-114.99 2286.84,-94.68 2305.77,-81.34"/>
<polygon fill="midnightblue" stroke="midnightblue" points="2307.79,-84.2 2313.94,-75.57 2303.75,-78.48 2307.79,-84.2"/>
</g>
<!-- Node43&#45;&gt;Node40 -->
<g id="edge110" class="edge">
<title>Node43&#45;&gt;Node40</title>
<path fill="none" stroke="midnightblue" d="M1726.64,-411.59C1763.66,-430.71 1853.07,-476.88 1897.31,-499.73"/>
<polygon fill="midnightblue" stroke="midnightblue" points="1895.8,-502.89 1906.29,-504.37 1899.01,-496.67 1895.8,-502.89"/>
</g>
<!-- Node44 -->
<g id="node44" class="node">
<title>Node44</title>
<g id="a_node44"><a xlink:title=" ">
<polygon fill="none" stroke="#bfbfbf" points="1670,-336.5 1670,-355.5 1708,-355.5 1708,-336.5 1670,-336.5"/>
<text text-anchor="middle" x="1689" y="-343.5" font-family="Helvetica,sans-Serif" font-size="10.00">array</text>
</a>
</g>
</g>
<!-- Node43&#45;&gt;Node44 -->
<g id="edge107" class="edge">
<title>Node43&#45;&gt;Node44</title>
<path fill="none" stroke="midnightblue" d="M1706.53,-392.08C1703.69,-384.77 1699.57,-374.18 1696.04,-365.1"/>
<polygon fill="midnightblue" stroke="midnightblue" points="1699.29,-363.8 1692.4,-355.75 1692.77,-366.34 1699.29,-363.8"/>
</g>
<!-- Node45&#45;&gt;Node9 -->
<g id="edge112" class="edge">
<title>Node45&#45;&gt;Node9</title>
<path fill="none" stroke="midnightblue" d="M2282.76,-396.79C2354.89,-386.14 2516.78,-350.9 2585,-244 2605.31,-212.16 2654.57,-211.32 2566,-112 2513.41,-53.03 2274.82,-25.02 2167.54,-15.23"/>
<polygon fill="midnightblue" stroke="midnightblue" points="2167.54,-11.72 2157.27,-14.31 2166.92,-18.69 2167.54,-11.72"/>
</g>
<!-- Node45&#45;&gt;Node15 -->
<g id="edge121" class="edge">
<title>Node45&#45;&gt;Node15</title>
<path fill="none" stroke="midnightblue" d="M2256.29,-392.39C2264.58,-384.02 2276.14,-370.48 2281,-356 2292.22,-322.54 2282.62,-305.29 2258,-280 2089.86,-107.29 1791.46,-37.35 1687.2,-17.44"/>
<polygon fill="midnightblue" stroke="midnightblue" points="1687.63,-13.96 1677.15,-15.57 1686.34,-20.84 1687.63,-13.96"/>
</g>
<!-- Node46 -->
<g id="node46" class="node">
<title>Node46</title>
<g id="a_node46"><a xlink:href="image_8h.html" target="_top" xlink:title=" ">
<polygon fill="none" stroke="black" points="2222,-336.5 2222,-355.5 2272,-355.5 2272,-336.5 2222,-336.5"/>
<text text-anchor="middle" x="2247" y="-343.5" font-family="Helvetica,sans-Serif" font-size="10.00">image.h</text>
</a>
</g>
</g>
<!-- Node45&#45;&gt;Node46 -->
<g id="edge113" class="edge">
<title>Node45&#45;&gt;Node46</title>
<path fill="none" stroke="midnightblue" d="M2241.83,-392.08C2240.32,-384.93 2239.89,-374.64 2240.54,-365.69"/>
<polygon fill="midnightblue" stroke="midnightblue" points="2244.02,-366.13 2241.87,-355.75 2237.08,-365.2 2244.02,-366.13"/>
</g>
<!-- Node46&#45;&gt;Node4 -->
<g id="edge120" class="edge">
<title>Node46&#45;&gt;Node4</title>
<path fill="none" stroke="midnightblue" d="M2221.92,-343.04C2111.25,-334.38 1672,-300 1672,-300 1618.33,-293.44 1605.72,-286.1 1552,-280 1421.26,-265.16 1084.1,-290.47 961,-244 839.08,-197.98 853.83,-111.66 736,-56 659.53,-19.88 558.23,-12.43 507.24,-11.1"/>
<polygon fill="midnightblue" stroke="midnightblue" points="507.22,-7.6 497.15,-10.9 507.08,-14.6 507.22,-7.6"/>
</g>
<!-- Node46&#45;&gt;Node8 -->
<g id="edge116" class="edge">
<title>Node46&#45;&gt;Node8</title>
<path fill="none" stroke="midnightblue" d="M2221.7,-341.92C2206.68,-340.12 2187.26,-337.85 2170,-336 2011.63,-319.05 1822.47,-301.51 1743.97,-294.35"/>
<polygon fill="midnightblue" stroke="midnightblue" points="1743.91,-290.83 1733.64,-293.41 1743.28,-297.8 1743.91,-290.83"/>
</g>
<!-- Node46&#45;&gt;Node10 -->
<g id="edge115" class="edge">
<title>Node46&#45;&gt;Node10</title>
<path fill="none" stroke="midnightblue" d="M2272.2,-339.5C2332.8,-325.98 2491.15,-288.94 2619,-244 2736.55,-202.68 2766.28,-191.04 2876,-132 2904.78,-116.51 2936.08,-95.42 2955.86,-81.51"/>
<polygon fill="midnightblue" stroke="midnightblue" points="2957.95,-84.32 2964.08,-75.68 2953.9,-78.61 2957.95,-84.32"/>
</g>
<!-- Node46&#45;&gt;Node19 -->
<g id="edge114" class="edge">
<title>Node46&#45;&gt;Node19</title>
<path fill="none" stroke="midnightblue" d="M2256.29,-336.3C2292.06,-302.8 2421.14,-181.88 2467.38,-138.57"/>
<polygon fill="midnightblue" stroke="midnightblue" points="2469.87,-141.03 2474.77,-131.64 2465.08,-135.92 2469.87,-141.03"/>
</g>
<!-- Node46&#45;&gt;Node22 -->
<g id="edge117" class="edge">
<title>Node46&#45;&gt;Node22</title>
<path fill="none" stroke="midnightblue" d="M2248.1,-336.09C2249.75,-323.49 2253.19,-299.8 2258,-280 2275.77,-206.85 2305.64,-122.29 2319.08,-85.59"/>
<polygon fill="midnightblue" stroke="midnightblue" points="2322.52,-86.39 2322.69,-75.8 2315.95,-83.97 2322.52,-86.39"/>
</g>
<!-- Node46&#45;&gt;Node25 -->
<g id="edge118" class="edge">
<title>Node46&#45;&gt;Node25</title>
<path fill="none" stroke="midnightblue" d="M2221.85,-341.56C2148.27,-331.53 1927,-301.69 1743,-280 1593.41,-262.37 1548.69,-292.26 1406,-244 1403.7,-243.22 1352.57,-211.92 1321.83,-193.04"/>
<polygon fill="midnightblue" stroke="midnightblue" points="1323.38,-189.88 1313.03,-187.63 1319.71,-195.85 1323.38,-189.88"/>
</g>
<!-- Node46&#45;&gt;Node45 -->
<g id="edge119" class="edge">
<title>Node46&#45;&gt;Node45</title>
<path fill="none" stroke="midnightblue" d="M2252.13,-355.75C2253.66,-362.86 2254.1,-373.14 2253.47,-382.1"/>
<polygon fill="midnightblue" stroke="midnightblue" points="2249.99,-381.71 2252.17,-392.08 2256.93,-382.62 2249.99,-381.71"/>
</g>
<!-- Node47&#45;&gt;Node8 -->
<g id="edge127" class="edge">
<title>Node47&#45;&gt;Node8</title>
<path fill="none" stroke="midnightblue" d="M2833.92,-343.32C2660.98,-335.29 1918.14,-300.8 1743.75,-292.71"/>
<polygon fill="midnightblue" stroke="midnightblue" points="1743.7,-289.2 1733.55,-292.23 1743.38,-296.19 1743.7,-289.2"/>
</g>
<!-- Node47&#45;&gt;Node9 -->
<g id="edge124" class="edge">
<title>Node47&#45;&gt;Node9</title>
<path fill="none" stroke="midnightblue" d="M2883.45,-336.44C2895.9,-328.1 2914.49,-314.58 2928,-300 3007.78,-213.92 3109.93,-141.01 3029,-56 2999.15,-24.64 2357.32,-14.06 2167.46,-11.61"/>
<polygon fill="midnightblue" stroke="midnightblue" points="2167.22,-8.1 2157.18,-11.48 2167.13,-15.1 2167.22,-8.1"/>
</g>
<!-- Node47&#45;&gt;Node10 -->
<g id="edge125" class="edge">
<title>Node47&#45;&gt;Node10</title>
<path fill="none" stroke="midnightblue" d="M2877.79,-336.19C2897.44,-313.43 2949.34,-250.13 2975,-188 2988.03,-156.46 2989.72,-145.93 2986,-112 2985.03,-103.14 2983.01,-93.47 2981.04,-85.38"/>
<polygon fill="midnightblue" stroke="midnightblue" points="2984.38,-84.33 2978.48,-75.53 2977.61,-86.09 2984.38,-84.33"/>
</g>
<!-- Node47&#45;&gt;Node22 -->
<g id="edge126" class="edge">
<title>Node47&#45;&gt;Node22</title>
<path fill="none" stroke="midnightblue" d="M2869.49,-336.28C2867.36,-307.98 2856.87,-217.66 2808,-168 2782.75,-142.34 2690.93,-120.71 2656,-112 2557.68,-87.49 2439.33,-75.45 2374.45,-70.29"/>
<polygon fill="midnightblue" stroke="midnightblue" points="2374.36,-66.78 2364.12,-69.49 2373.82,-73.76 2374.36,-66.78"/>
</g>
<!-- Node48&#45;&gt;Node8 -->
<g id="edge130" class="edge">
<title>Node48&#45;&gt;Node8</title>
<path fill="none" stroke="midnightblue" d="M1874.03,-448.28C1862.97,-439.39 1845.5,-425.08 1831,-412 1790.84,-375.78 1745.93,-330.75 1722.74,-307.15"/>
<polygon fill="midnightblue" stroke="midnightblue" points="1724.99,-304.44 1715.49,-299.75 1719.99,-309.34 1724.99,-304.44"/>
</g>
<!-- Node48&#45;&gt;Node41 -->
<g id="edge129" class="edge">
<title>Node48&#45;&gt;Node41</title>
<path fill="none" stroke="midnightblue" d="M1886.65,-448.08C1887.98,-440.93 1889.88,-430.64 1891.54,-421.69"/>
<polygon fill="midnightblue" stroke="midnightblue" points="1895,-422.22 1893.38,-411.75 1888.12,-420.95 1895,-422.22"/>
</g>
<!-- Node49&#45;&gt;Node7 -->
<g id="edge142" class="edge">
<title>Node49&#45;&gt;Node7</title>
<path fill="none" stroke="midnightblue" d="M2045.39,-618.1C2040.2,-617.36 2034.99,-616.65 2030,-616 1915.86,-601.16 1783.02,-586.79 1702.78,-578.43"/>
<polygon fill="midnightblue" stroke="midnightblue" points="1703.09,-574.94 1692.78,-577.39 1702.37,-581.9 1703.09,-574.94"/>
</g>
<!-- Node49&#45;&gt;Node19 -->
<g id="edge133" class="edge">
<title>Node49&#45;&gt;Node19</title>
<path fill="none" stroke="midnightblue" d="M2136.53,-624.86C2262.08,-623.27 2604,-610.19 2604,-515 2604,-515 2604,-515 2604,-457 2604,-347.9 2510.05,-349.43 2482,-244 2472.63,-208.77 2476.88,-165.71 2480.59,-141.62"/>
<polygon fill="midnightblue" stroke="midnightblue" points="2484.05,-142.15 2482.26,-131.7 2477.15,-140.99 2484.05,-142.15"/>
</g>
<!-- Node49&#45;&gt;Node22 -->
<g id="edge134" class="edge">
<title>Node49&#45;&gt;Node22</title>
<path fill="none" stroke="midnightblue" d="M2136.52,-623.76C2250.6,-620.26 2546.25,-608.62 2640,-580 2696.52,-562.75 2756,-574.1 2756,-515 2756,-515 2756,-515 2756,-233 2756,-192.55 2656.61,-129.21 2620,-112 2539.6,-74.2 2434.48,-66.88 2374.18,-66.15"/>
<polygon fill="midnightblue" stroke="midnightblue" points="2374.2,-62.65 2364.18,-66.08 2374.15,-69.65 2374.2,-62.65"/>
</g>
<!-- Node49&#45;&gt;Node32 -->
<g id="edge143" class="edge">
<title>Node49&#45;&gt;Node32</title>
<path fill="none" stroke="midnightblue" d="M2045.32,-617.1C1982.23,-604.69 1866.52,-576.46 1781,-524 1760.27,-511.29 1741.19,-490.68 1729.14,-476.08"/>
<polygon fill="midnightblue" stroke="midnightblue" points="1731.57,-473.51 1722.59,-467.89 1726.1,-477.89 1731.57,-473.51"/>
</g>
<!-- Node49&#45;&gt;Node33 -->
<g id="edge144" class="edge">
<title>Node49&#45;&gt;Node33</title>
<path fill="none" stroke="midnightblue" d="M2089.31,-616.3C2082.99,-583.63 2060.56,-467.87 2051.67,-421.96"/>
<polygon fill="midnightblue" stroke="midnightblue" points="2055.06,-421.04 2049.72,-411.88 2048.19,-422.37 2055.06,-421.04"/>
</g>
<!-- Node49&#45;&gt;Node42 -->
<g id="edge141" class="edge">
<title>Node49&#45;&gt;Node42</title>
<path fill="none" stroke="midnightblue" d="M2094.49,-616.08C2104.77,-589.83 2135.03,-512.55 2148.91,-477.12"/>
<polygon fill="midnightblue" stroke="midnightblue" points="2152.26,-478.16 2152.65,-467.57 2145.74,-475.6 2152.26,-478.16"/>
</g>
<!-- Node49&#45;&gt;Node43 -->
<g id="edge140" class="edge">
<title>Node49&#45;&gt;Node43</title>
<path fill="none" stroke="midnightblue" d="M2070.3,-616.41C2031.73,-600.13 1946.68,-562.92 1879,-524 1840.74,-502 1832.91,-493.66 1797,-468 1773.49,-451.2 1746.94,-431.21 1729.42,-417.88"/>
<polygon fill="midnightblue" stroke="midnightblue" points="1731.22,-414.85 1721.15,-411.57 1726.98,-420.42 1731.22,-414.85"/>
</g>
<!-- Node49&#45;&gt;Node47 -->
<g id="edge139" class="edge">
<title>Node49&#45;&gt;Node47</title>
<path fill="none" stroke="midnightblue" d="M2136.53,-624.47C2323.45,-621.68 3022,-605.23 3022,-515 3022,-515 3022,-515 3022,-457 3022,-403.44 2959.29,-373.3 2914.43,-358.59"/>
<polygon fill="midnightblue" stroke="midnightblue" points="2915.46,-355.25 2904.87,-355.6 2913.37,-361.93 2915.46,-355.25"/>
</g>
<!-- Node50 -->
<g id="node50" class="node">
<title>Node50</title>
<g id="a_node50"><a xlink:href="commandpool_8h.html" target="_top" xlink:title=" ">
<polygon fill="none" stroke="black" points="2490.5,-224.5 2490.5,-243.5 2575.5,-243.5 2575.5,-224.5 2490.5,-224.5"/>
<text text-anchor="middle" x="2533" y="-231.5" font-family="Helvetica,sans-Serif" font-size="10.00">commandpool.h</text>
</a>
</g>
</g>
<!-- Node49&#45;&gt;Node50 -->
<g id="edge135" class="edge">
<title>Node49&#45;&gt;Node50</title>
<path fill="none" stroke="midnightblue" d="M2136.94,-623.86C2258.19,-620.48 2580.16,-608.84 2618,-580 2642.49,-561.34 2642,-545.8 2642,-515 2642,-515 2642,-515 2642,-345 2642,-299.12 2593.56,-265.53 2561.27,-248.23"/>
<polygon fill="midnightblue" stroke="midnightblue" points="2562.73,-245.04 2552.24,-243.58 2559.53,-251.27 2562.73,-245.04"/>
</g>
<!-- Node51 -->
<g id="node51" class="node">
<title>Node51</title>
<g id="a_node51"><a xlink:href="descriptorset_8h.html" target="_top" xlink:title=" ">
<polygon fill="none" stroke="black" points="1210,-448.5 1210,-467.5 1290,-467.5 1290,-448.5 1210,-448.5"/>
<text text-anchor="middle" x="1250" y="-455.5" font-family="Helvetica,sans-Serif" font-size="10.00">descriptorset.h</text>
</a>
</g>
</g>
<!-- Node49&#45;&gt;Node51 -->
<g id="edge145" class="edge">
<title>Node49&#45;&gt;Node51</title>
<path fill="none" stroke="midnightblue" d="M2045.48,-625.53C1952.68,-625.67 1735.49,-621.1 1559,-580 1449.88,-554.59 1328.24,-497.96 1276.06,-472.21"/>
<polygon fill="midnightblue" stroke="midnightblue" points="1277.37,-468.95 1266.86,-467.63 1274.26,-475.22 1277.37,-468.95"/>
</g>
<!-- Node50&#45;&gt;Node19 -->
<g id="edge136" class="edge">
<title>Node50&#45;&gt;Node19</title>
<path fill="none" stroke="midnightblue" d="M2529.16,-224.37C2521.18,-206.46 2502.67,-164.92 2492,-140.95"/>
<polygon fill="midnightblue" stroke="midnightblue" points="2495.09,-139.3 2487.83,-131.59 2488.7,-142.15 2495.09,-139.3"/>
</g>
<!-- Node50&#45;&gt;Node22 -->
<g id="edge137" class="edge">
<title>Node50&#45;&gt;Node22</title>
<path fill="none" stroke="midnightblue" d="M2537.88,-224.19C2549.2,-202.41 2574.29,-145.41 2547,-112 2525.62,-85.83 2432.57,-74.49 2374.24,-69.88"/>
<polygon fill="midnightblue" stroke="midnightblue" points="2374.37,-66.38 2364.13,-69.12 2373.84,-73.36 2374.37,-66.38"/>
</g>
<!-- Node50&#45;&gt;Node25 -->
<g id="edge138" class="edge">
<title>Node50&#45;&gt;Node25</title>
<path fill="none" stroke="midnightblue" d="M2490.26,-232.51C2304.54,-230.2 1566.7,-219.22 1337,-188 1336.9,-187.99 1336.8,-187.97 1336.7,-187.96"/>
<polygon fill="midnightblue" stroke="midnightblue" points="1337.56,-184.56 1327.11,-186.3 1336.36,-191.45 1337.56,-184.56"/>
</g>
<!-- Node51&#45;&gt;Node4 -->
<g id="edge148" class="edge">
<title>Node51&#45;&gt;Node4</title>
<path fill="none" stroke="midnightblue" d="M1209.7,-456.14C1066.21,-452.89 580.7,-440 428,-412 284.67,-385.71 152,-380.72 152,-235 152,-235 152,-235 152,-121 152,-90.2 152.12,-75.44 176,-56 216.38,-23.13 373.74,-14.18 442.52,-11.82"/>
<polygon fill="midnightblue" stroke="midnightblue" points="442.88,-15.31 452.77,-11.49 442.66,-8.31 442.88,-15.31"/>
</g>
<!-- Node51&#45;&gt;Node8 -->
<g id="edge150" class="edge">
<title>Node51&#45;&gt;Node8</title>
<path fill="none" stroke="midnightblue" d="M1260.42,-448.24C1288.01,-425.54 1366.06,-364.66 1442,-336 1536.34,-300.4 1566.94,-318.82 1666,-300 1667.29,-299.76 1668.6,-299.5 1669.92,-299.24"/>
<polygon fill="midnightblue" stroke="midnightblue" points="1671.05,-302.58 1680.14,-297.12 1669.64,-295.72 1671.05,-302.58"/>
</g>
<!-- Node51&#45;&gt;Node9 -->
<g id="edge146" class="edge">
<title>Node51&#45;&gt;Node9</title>
<path fill="none" stroke="midnightblue" d="M1290.22,-449.48C1330.87,-441.53 1395.33,-427.93 1450,-412 1545.7,-384.12 1565.15,-363.34 1661,-336 1734.85,-314.94 1759.97,-331.53 1830,-300 1874.34,-280.04 1918,-283.62 1918,-235 1918,-235 1918,-235 1918,-177 1918,-94.3 2020.77,-44.47 2077.85,-23.17"/>
<polygon fill="midnightblue" stroke="midnightblue" points="2079.4,-26.33 2087.61,-19.64 2077.01,-19.75 2079.4,-26.33"/>
</g>
<!-- Node51&#45;&gt;Node11 -->
<g id="edge147" class="edge">
<title>Node51&#45;&gt;Node11</title>
<path fill="none" stroke="midnightblue" d="M1209.84,-455.69C1040.13,-449.75 387.79,-422.7 328,-356 248.46,-267.28 400.96,-127.69 456.15,-82.01"/>
<polygon fill="midnightblue" stroke="midnightblue" points="458.59,-84.54 464.12,-75.51 454.16,-79.12 458.59,-84.54"/>
</g>
<!-- Node51&#45;&gt;Node22 -->
<g id="edge149" class="edge">
<title>Node51&#45;&gt;Node22</title>
<path fill="none" stroke="midnightblue" d="M1290.06,-455.98C1479.08,-451.09 2273.45,-429.53 2292,-412 2385.09,-324.03 2346.91,-143.9 2331.37,-85.63"/>
<polygon fill="midnightblue" stroke="midnightblue" points="2334.65,-84.37 2328.61,-75.67 2327.91,-86.24 2334.65,-84.37"/>
</g>
<!-- Node51&#45;&gt;Node35 -->
<g id="edge151" class="edge">
<title>Node51&#45;&gt;Node35</title>
<path fill="none" stroke="midnightblue" d="M1290.09,-449.25C1324.53,-441.89 1375.11,-429.35 1417,-412 1450.85,-397.98 1487.07,-375.7 1509.13,-361.22"/>
<polygon fill="midnightblue" stroke="midnightblue" points="1511.29,-363.98 1517.67,-355.53 1507.41,-358.16 1511.29,-363.98"/>
</g>
<!-- Node51&#45;&gt;Node45 -->
<g id="edge158" class="edge">
<title>Node51&#45;&gt;Node45</title>
<path fill="none" stroke="midnightblue" d="M1290.22,-454.98C1412.04,-448.84 1787.69,-429.72 2099,-412 2133.22,-410.05 2171.88,-407.7 2201.1,-405.88"/>
<polygon fill="midnightblue" stroke="midnightblue" points="2201.65,-409.36 2211.42,-405.24 2201.22,-402.37 2201.65,-409.36"/>
</g>
<!-- Node52 -->
<g id="node52" class="node">
<title>Node52</title>
<g id="a_node52"><a xlink:href="descriptorpool_8h.html" target="_top" xlink:title=" ">
<polygon fill="none" stroke="black" points="818.5,-336.5 818.5,-355.5 903.5,-355.5 903.5,-336.5 818.5,-336.5"/>
<text text-anchor="middle" x="861" y="-343.5" font-family="Helvetica,sans-Serif" font-size="10.00">descriptorpool.h</text>
</a>
</g>
</g>
<!-- Node51&#45;&gt;Node52 -->
<g id="edge152" class="edge">
<title>Node51&#45;&gt;Node52</title>
<path fill="none" stroke="midnightblue" d="M1219.8,-448.46C1150.35,-428.82 979.29,-380.45 901.13,-358.35"/>
<polygon fill="midnightblue" stroke="midnightblue" points="901.76,-354.89 891.18,-355.53 899.85,-361.62 901.76,-354.89"/>
</g>
<!-- Node51&#45;&gt;Node53 -->
<g id="edge159" class="edge">
<title>Node51&#45;&gt;Node53</title>
<path fill="none" stroke="midnightblue" d="M1209.84,-465.67C1157.61,-476.89 1073,-504.96 1073,-569 1073,-627 1073,-627 1073,-627 1073,-725.45 1835.27,-735.88 2040.58,-736.91"/>
<polygon fill="midnightblue" stroke="midnightblue" points="2040.76,-740.41 2050.78,-736.95 2040.8,-733.41 2040.76,-740.41"/>
</g>
<!-- Node52&#45;&gt;Node4 -->
<g id="edge155" class="edge">
<title>Node52&#45;&gt;Node4</title>
<path fill="none" stroke="midnightblue" d="M818.28,-340.65C775.34,-335.15 707.98,-323.43 654,-300 613.85,-282.58 605.66,-273.14 573,-244 501.1,-179.86 467.49,-167.05 436,-76 433.09,-67.6 432.89,-64.33 436,-56 440.17,-44.81 448.52,-34.56 456.42,-26.68"/>
<polygon fill="midnightblue" stroke="midnightblue" points="459.06,-29 464.01,-19.63 454.3,-23.87 459.06,-29"/>
</g>
<!-- Node52&#45;&gt;Node8 -->
<g id="edge157" class="edge">
<title>Node52&#45;&gt;Node8</title>
<path fill="none" stroke="midnightblue" d="M903.58,-337.76C908.43,-337.09 913.32,-336.48 918,-336 1249.09,-302 1336.07,-343.84 1666,-300 1667.3,-299.83 1668.62,-299.63 1669.95,-299.42"/>
<polygon fill="midnightblue" stroke="midnightblue" points="1671,-302.79 1680.21,-297.56 1669.74,-295.91 1671,-302.79"/>
</g>
<!-- Node52&#45;&gt;Node9 -->
<g id="edge153" class="edge">
<title>Node52&#45;&gt;Node9</title>
<path fill="none" stroke="midnightblue" d="M903.58,-337.82C908.44,-337.14 913.32,-336.51 918,-336 1049.91,-321.64 1386.89,-338.05 1514,-300 1609.75,-271.34 1629.19,-248.16 1709,-188 1776.26,-137.3 1769.82,-93.98 1845,-56 1914.68,-20.8 2006.11,-12.24 2062.69,-10.63"/>
<polygon fill="midnightblue" stroke="midnightblue" points="2062.91,-14.13 2072.83,-10.41 2062.76,-7.13 2062.91,-14.13"/>
</g>
<!-- Node52&#45;&gt;Node11 -->
<g id="edge154" class="edge">
<title>Node52&#45;&gt;Node11</title>
<path fill="none" stroke="midnightblue" d="M818.44,-336.76C785.26,-329.48 738.52,-317.3 700,-300 621.48,-264.73 597.74,-253.59 542,-188 514.38,-155.5 492.83,-109.85 482.23,-84.94"/>
<polygon fill="midnightblue" stroke="midnightblue" points="485.43,-83.53 478.37,-75.63 478.97,-86.21 485.43,-83.53"/>
</g>
<!-- Node52&#45;&gt;Node22 -->
<g id="edge156" class="edge">
<title>Node52&#45;&gt;Node22</title>
<path fill="none" stroke="midnightblue" d="M903.58,-337.79C908.43,-337.11 913.32,-336.49 918,-336 1215.45,-304.63 1296.58,-358 1590,-300 1714.04,-275.48 2005.47,-146.89 2127,-112 2178,-97.36 2237.46,-84.44 2278.01,-76.25"/>
<polygon fill="midnightblue" stroke="midnightblue" points="2278.78,-79.66 2287.89,-74.27 2277.4,-72.8 2278.78,-79.66"/>
</g>
<!-- Node53&#45;&gt;Node8 -->
<g id="edge163" class="edge">
<title>Node53&#45;&gt;Node8</title>
<path fill="none" stroke="midnightblue" d="M2050.95,-736.89C1773.79,-735.87 152,-725.68 152,-627 152,-627 152,-627 152,-569 152,-428.7 1254.58,-358.9 1393,-336 1445.71,-327.28 1598.91,-305.93 1669.98,-296.1"/>
<polygon fill="midnightblue" stroke="midnightblue" points="1670.83,-299.52 1680.26,-294.68 1669.87,-292.58 1670.83,-299.52"/>
</g>
<!-- Node53&#45;&gt;Node9 -->
<g id="edge160" class="edge">
<title>Node53&#45;&gt;Node9</title>
<path fill="none" stroke="midnightblue" d="M2131.04,-729.27C2134.4,-728.78 2137.76,-728.35 2141,-728 2363.2,-704.14 2929.46,-747.23 3146,-692 3208.59,-676.04 3276,-691.6 3276,-627 3276,-627 3276,-627 3276,-121 3276,-56.4 3208.53,-72.21 3146,-56 3051.01,-31.38 2363.54,-15.94 2167.22,-12"/>
<polygon fill="midnightblue" stroke="midnightblue" points="2167.23,-8.5 2157.16,-11.8 2167.09,-15.5 2167.23,-8.5"/>
</g>
<!-- Node53&#45;&gt;Node10 -->
<g id="edge161" class="edge">
<title>Node53&#45;&gt;Node10</title>
<path fill="none" stroke="midnightblue" d="M2131.07,-729.47C2134.42,-728.94 2137.77,-728.44 2141,-728 2262.29,-711.53 3238,-749.4 3238,-627 3238,-627 3238,-627 3238,-233 3238,-135.21 3106.16,-92.63 3029.53,-76.14"/>
<polygon fill="midnightblue" stroke="midnightblue" points="3030.06,-72.67 3019.56,-74.07 3028.64,-79.53 3030.06,-72.67"/>
</g>
<!-- Node53&#45;&gt;Node25 -->
<g id="edge172" class="edge">
<title>Node53&#45;&gt;Node25</title>
<path fill="none" stroke="midnightblue" d="M2050.93,-736.68C1803.67,-734.6 490.23,-722.21 314,-692 221.88,-676.21 114,-720.47 114,-627 114,-627 114,-627 114,-401 114,-163.59 385.41,-271.6 618,-224 742.36,-198.55 1135.57,-184.18 1260.5,-180.17"/>
<polygon fill="midnightblue" stroke="midnightblue" points="1260.84,-183.66 1270.73,-179.85 1260.62,-176.66 1260.84,-183.66"/>
</g>
<!-- Node53&#45;&gt;Node39 -->
<g id="edge162" class="edge">
<title>Node53&#45;&gt;Node39</title>
<path fill="none" stroke="midnightblue" d="M2131.04,-729.26C2134.4,-728.77 2137.75,-728.34 2141,-728 2204.51,-721.33 3238.18,-729.33 3290,-692 3314.99,-674 3314,-657.8 3314,-627 3314,-627 3314,-627 3314,-401 3314,-368.82 3318.3,-331.55 3321.26,-309.7"/>
<polygon fill="midnightblue" stroke="midnightblue" points="3324.76,-309.92 3322.69,-299.53 3317.83,-308.95 3324.76,-309.92"/>
</g>
<!-- Node54 -->
<g id="node54" class="node">
<title>Node54</title>
<g id="a_node54"><a xlink:href="buffer_8h.html" target="_top" xlink:title=" ">
<polygon fill="none" stroke="black" points="2067,-672.5 2067,-691.5 2115,-691.5 2115,-672.5 2067,-672.5"/>
<text text-anchor="middle" x="2091" y="-679.5" font-family="Helvetica,sans-Serif" font-size="10.00">buffer.h</text>
</a>
</g>
</g>
<!-- Node53&#45;&gt;Node54 -->
<g id="edge164" class="edge">
<title>Node53&#45;&gt;Node54</title>
<path fill="none" stroke="midnightblue" d="M2091,-728.08C2091,-721.01 2091,-710.86 2091,-701.99"/>
<polygon fill="midnightblue" stroke="midnightblue" points="2094.5,-701.75 2091,-691.75 2087.5,-701.75 2094.5,-701.75"/>
</g>
<!-- Node54&#45;&gt;Node4 -->
<g id="edge171" class="edge">
<title>Node54&#45;&gt;Node4</title>
<path fill="none" stroke="midnightblue" d="M2066.88,-680.38C1836.76,-674.14 38,-618.47 38,-403 38,-403 38,-403 38,-121 38,-83.44 58.99,-73.92 92,-56 152.26,-23.3 361.23,-14.12 442.4,-11.76"/>
<polygon fill="midnightblue" stroke="midnightblue" points="442.64,-15.25 452.54,-11.48 442.45,-8.25 442.64,-15.25"/>
</g>
<!-- Node54&#45;&gt;Node8 -->
<g id="edge167" class="edge">
<title>Node54&#45;&gt;Node8</title>
<path fill="none" stroke="midnightblue" d="M2076.64,-672.37C2064.46,-664.36 2047.36,-651.39 2037,-636 1973.4,-541.57 2036.56,-475.34 1959,-392 1928.66,-359.4 1805.79,-319.89 1743.53,-301.44"/>
<polygon fill="midnightblue" stroke="midnightblue" points="1744.31,-298.02 1733.73,-298.56 1742.33,-304.73 1744.31,-298.02"/>
</g>
<!-- Node54&#45;&gt;Node10 -->
<g id="edge166" class="edge">
<title>Node54&#45;&gt;Node10</title>
<path fill="none" stroke="midnightblue" d="M2115.14,-681.16C2274.93,-681.9 3174,-681.2 3174,-571 3174,-571 3174,-571 3174,-289 3174,-186.93 3055.99,-110.15 3002.18,-80.44"/>
<polygon fill="midnightblue" stroke="midnightblue" points="3003.69,-77.28 2993.22,-75.6 3000.36,-83.43 3003.69,-77.28"/>
</g>
<!-- Node54&#45;&gt;Node19 -->
<g id="edge165" class="edge">
<title>Node54&#45;&gt;Node19</title>
<path fill="none" stroke="midnightblue" d="M2115.2,-679.83C2238.81,-673.51 2794,-641.26 2794,-571 2794,-571 2794,-571 2794,-233 2794,-181.33 2639.09,-147.74 2548.28,-132.49"/>
<polygon fill="midnightblue" stroke="midnightblue" points="2548.79,-129.03 2538.35,-130.86 2547.65,-135.94 2548.79,-129.03"/>
</g>
<!-- Node54&#45;&gt;Node22 -->
<g id="edge168" class="edge">
<title>Node54&#45;&gt;Node22</title>
<path fill="none" stroke="midnightblue" d="M2115.44,-680.87C2265.89,-679.73 3060,-669.09 3060,-571 3060,-571 3060,-571 3060,-457 3060,-274.9 2994.78,-206.29 2839,-112 2799.8,-88.27 2494.35,-73.69 2374.26,-68.82"/>
<polygon fill="midnightblue" stroke="midnightblue" points="2374.37,-65.32 2364.24,-68.42 2374.09,-72.32 2374.37,-65.32"/>
</g>
<!-- Node54&#45;&gt;Node25 -->
<g id="edge169" class="edge">
<title>Node54&#45;&gt;Node25</title>
<path fill="none" stroke="midnightblue" d="M2067,-681.17C1931.62,-681.34 1251.8,-671.61 751,-468 631.06,-419.24 572.57,-414.96 513,-300 508.91,-292.11 507.13,-286.67 513,-280 563.08,-223.07 1109.81,-189.29 1260.65,-181.01"/>
<polygon fill="midnightblue" stroke="midnightblue" points="1261.02,-184.49 1270.82,-180.46 1260.64,-177.5 1261.02,-184.49"/>
</g>
<!-- Node54&#45;&gt;Node49 -->
<g id="edge170" class="edge">
<title>Node54&#45;&gt;Node49</title>
<path fill="none" stroke="midnightblue" d="M2091,-672.08C2091,-665.01 2091,-654.86 2091,-645.99"/>
<polygon fill="midnightblue" stroke="midnightblue" points="2094.5,-645.75 2091,-635.75 2087.5,-645.75 2094.5,-645.75"/>
</g>
</g>
</svg>
