<?xml version="1.0" encoding="UTF-8" standalone="no"?>
<!DOCTYPE svg PUBLIC "-//W3C//DTD SVG 1.1//EN"
 "http://www.w3.org/Graphics/SVG/1.1/DTD/svg11.dtd">
<!-- Generated by graphviz version 2.49.3 (20211215.1918)
 -->
<!-- Title: /github/workspace/src/renderer/material.h Pages: 1 -->
<svg width="1139pt" height="374pt"
 viewBox="0.00 0.00 1139.00 374.00" xmlns="http://www.w3.org/2000/svg" xmlns:xlink="http://www.w3.org/1999/xlink">
<g id="graph0" class="graph" transform="scale(1 1) rotate(0) translate(4 370)">
<title>/github/workspace/src/renderer/material.h</title>
<!-- Node1 -->
<g id="node1" class="node">
<title>Node1</title>
<g id="a_node1"><a xlink:title=" ">
<polygon fill="#bfbfbf" stroke="black" points="865.5,-335.5 865.5,-365.5 978.5,-365.5 978.5,-335.5 865.5,-335.5"/>
<text text-anchor="start" x="873.5" y="-353.5" font-family="Helvetica,sans-Serif" font-size="10.00">/github/workspace/src</text>
<text text-anchor="middle" x="922" y="-342.5" font-family="Helvetica,sans-Serif" font-size="10.00">/renderer/material.h</text>
</a>
</g>
</g>
<!-- Node2 -->
<g id="node2" class="node">
<title>Node2</title>
<g id="a_node2"><a xlink:href="mastermaterial_8h.html" target="_top" xlink:title=" ">
<polygon fill="none" stroke="black" points="810,-134.5 810,-164.5 940,-164.5 940,-134.5 810,-134.5"/>
<text text-anchor="start" x="818" y="-152.5" font-family="Helvetica,sans-Serif" font-size="10.00">/github/workspace/src</text>
<text text-anchor="middle" x="875" y="-141.5" font-family="Helvetica,sans-Serif" font-size="10.00">/renderer/mastermaterial.h</text>
</a>
</g>
</g>
<!-- Node1&#45;&gt;Node2 -->
<g id="edge1" class="edge">
<title>Node1&#45;&gt;Node2</title>
<path fill="none" stroke="midnightblue" d="M904.28,-325.89C900.69,-317.49 897.44,-307.9 895,-299 881.66,-250.36 872.02,-191.15 871.83,-164.58"/>
<polygon fill="midnightblue" stroke="midnightblue" points="901.2,-327.55 908.63,-335.1 907.53,-324.56 901.2,-327.55"/>
</g>
<!-- Node4 -->
<g id="node4" class="node">
<title>Node4</title>
<g id="a_node4"><a xlink:href="materiallibrary_8h.html" target="_top" xlink:title=" ">
<polygon fill="none" stroke="black" points="1000.5,-67.5 1000.5,-97.5 1125.5,-97.5 1125.5,-67.5 1000.5,-67.5"/>
<text text-anchor="start" x="1008.5" y="-85.5" font-family="Helvetica,sans-Serif" font-size="10.00">/github/workspace/src</text>
<text text-anchor="middle" x="1063" y="-74.5" font-family="Helvetica,sans-Serif" font-size="10.00">/renderer/materiallibrary.h</text>
</a>
</g>
</g>
<!-- Node1&#45;&gt;Node4 -->
<g id="edge8" class="edge">
<title>Node1&#45;&gt;Node4</title>
<path fill="none" stroke="midnightblue" d="M983.2,-331.35C999.35,-323.9 1015.22,-313.48 1026,-299 1072.52,-236.5 1062.21,-134.61 1061.21,-97.55"/>
<polygon fill="midnightblue" stroke="midnightblue" points="981.52,-328.27 973.7,-335.41 984.27,-334.7 981.52,-328.27"/>
</g>
<!-- Node6 -->
<g id="node6" class="node">
<title>Node6</title>
<g id="a_node6"><a xlink:href="material_8cpp.html" target="_top" xlink:title=" ">
<polygon fill="none" stroke="black" points="912.5,-268.5 912.5,-298.5 1025.5,-298.5 1025.5,-268.5 912.5,-268.5"/>
<text text-anchor="start" x="920.5" y="-286.5" font-family="Helvetica,sans-Serif" font-size="10.00">/github/workspace/src</text>
<text text-anchor="middle" x="969" y="-275.5" font-family="Helvetica,sans-Serif" font-size="10.00">/renderer/material.cpp</text>
</a>
</g>
</g>
<!-- Node1&#45;&gt;Node6 -->
<g id="edge7" class="edge">
<title>Node1&#45;&gt;Node6</title>
<path fill="none" stroke="midnightblue" d="M938.16,-327.16C945.01,-317.68 952.79,-306.92 958.82,-298.58"/>
<polygon fill="midnightblue" stroke="midnightblue" points="935.22,-325.24 932.2,-335.4 940.89,-329.34 935.22,-325.24"/>
</g>
<!-- Node7 -->
<g id="node7" class="node">
<title>Node7</title>
<g id="a_node7"><a xlink:href="mesh_8h.html" target="_top" xlink:title=" ">
<polygon fill="none" stroke="black" points="669.5,-268.5 669.5,-298.5 782.5,-298.5 782.5,-268.5 669.5,-268.5"/>
<text text-anchor="start" x="677.5" y="-286.5" font-family="Helvetica,sans-Serif" font-size="10.00">/github/workspace/src</text>
<text text-anchor="middle" x="726" y="-275.5" font-family="Helvetica,sans-Serif" font-size="10.00">/renderer/mesh.h</text>
</a>
</g>
</g>
<!-- Node1&#45;&gt;Node7 -->
<g id="edge9" class="edge">
<title>Node1&#45;&gt;Node7</title>
<path fill="none" stroke="midnightblue" d="M869.92,-332.23C838.21,-321.71 798.22,-308.45 768.45,-298.58"/>
<polygon fill="midnightblue" stroke="midnightblue" points="868.88,-335.57 879.47,-335.4 871.08,-328.93 868.88,-335.57"/>
</g>
<!-- Node2&#45;&gt;Node1 -->
<g id="edge3" class="edge">
<title>Node2&#45;&gt;Node1</title>
<path fill="none" stroke="midnightblue" d="M884.86,-174.42C892.17,-203.97 901.12,-255.68 913,-299 916.4,-311.39 921.36,-325.09 923.81,-335.1"/>
<polygon fill="midnightblue" stroke="midnightblue" points="888.19,-173.34 882.23,-164.58 881.43,-175.15 888.19,-173.34"/>
</g>
<!-- Node3 -->
<g id="node3" class="node">
<title>Node3</title>
<g id="a_node3"><a xlink:href="mastermaterial_8cpp.html" target="_top" xlink:title=" ">
<polygon fill="none" stroke="black" points="842,-67.5 842,-97.5 982,-97.5 982,-67.5 842,-67.5"/>
<text text-anchor="start" x="850" y="-85.5" font-family="Helvetica,sans-Serif" font-size="10.00">/github/workspace/src</text>
<text text-anchor="middle" x="912" y="-74.5" font-family="Helvetica,sans-Serif" font-size="10.00">/renderer/mastermaterial.cpp</text>
</a>
</g>
</g>
<!-- Node2&#45;&gt;Node3 -->
<g id="edge2" class="edge">
<title>Node2&#45;&gt;Node3</title>
<path fill="none" stroke="midnightblue" d="M888.05,-125.58C893.36,-116.24 899.34,-105.75 903.99,-97.58"/>
<polygon fill="midnightblue" stroke="midnightblue" points="884.93,-123.97 883.03,-134.4 891.02,-127.44 884.93,-123.97"/>
</g>
<!-- Node2&#45;&gt;Node4 -->
<g id="edge4" class="edge">
<title>Node2&#45;&gt;Node4</title>
<path fill="none" stroke="midnightblue" d="M925.35,-131.09C955.7,-120.6 993.85,-107.41 1022.29,-97.58"/>
<polygon fill="midnightblue" stroke="midnightblue" points="924.1,-127.82 915.79,-134.4 926.39,-134.44 924.1,-127.82"/>
</g>
<!-- Node4&#45;&gt;Node1 -->
<g id="edge5" class="edge">
<title>Node4&#45;&gt;Node1</title>
<path fill="none" stroke="midnightblue" d="M1072.18,-107.37C1081.47,-150.29 1086.88,-241.39 1044,-299 1028.54,-319.77 1002.6,-332.18 978.53,-339.49"/>
<polygon fill="midnightblue" stroke="midnightblue" points="1075.55,-106.42 1069.76,-97.55 1068.75,-108.09 1075.55,-106.42"/>
</g>
<!-- Node5 -->
<g id="node5" class="node">
<title>Node5</title>
<g id="a_node5"><a xlink:href="materiallibrary_8cpp.html" target="_top" xlink:title=" ">
<polygon fill="none" stroke="black" points="995,-0.5 995,-30.5 1131,-30.5 1131,-0.5 995,-0.5"/>
<text text-anchor="start" x="1003" y="-18.5" font-family="Helvetica,sans-Serif" font-size="10.00">/github/workspace/src</text>
<text text-anchor="middle" x="1063" y="-7.5" font-family="Helvetica,sans-Serif" font-size="10.00">/renderer/materiallibrary.cpp</text>
</a>
</g>
</g>
<!-- Node4&#45;&gt;Node5 -->
<g id="edge6" class="edge">
<title>Node4&#45;&gt;Node5</title>
<path fill="none" stroke="midnightblue" d="M1063,-57.11C1063,-48.15 1063,-38.32 1063,-30.58"/>
<polygon fill="midnightblue" stroke="midnightblue" points="1059.5,-57.4 1063,-67.4 1066.5,-57.4 1059.5,-57.4"/>
</g>
<!-- Node7&#45;&gt;Node2 -->
<g id="edge10" class="edge">
<title>Node7&#45;&gt;Node2</title>
<path fill="none" stroke="midnightblue" d="M757.37,-262.95C770.69,-254.11 786.09,-243.16 799,-232 823.88,-210.49 849.23,-181.61 863.46,-164.63"/>
<polygon fill="midnightblue" stroke="midnightblue" points="755.42,-260.04 748.96,-268.44 759.25,-265.9 755.42,-260.04"/>
</g>
<!-- Node8 -->
<g id="node8" class="node">
<title>Node8</title>
<g id="a_node8"><a xlink:href="mesh_8cpp.html" target="_top" xlink:title=" ">
<polygon fill="none" stroke="black" points="530.5,-201.5 530.5,-231.5 643.5,-231.5 643.5,-201.5 530.5,-201.5"/>
<text text-anchor="start" x="538.5" y="-219.5" font-family="Helvetica,sans-Serif" font-size="10.00">/github/workspace/src</text>
<text text-anchor="middle" x="587" y="-208.5" font-family="Helvetica,sans-Serif" font-size="10.00">/renderer/mesh.cpp</text>
</a>
</g>
</g>
<!-- Node7&#45;&gt;Node8 -->
<g id="edge11" class="edge">
<title>Node7&#45;&gt;Node8</title>
<path fill="none" stroke="midnightblue" d="M686.72,-264.13C664.63,-253.8 637.49,-241.11 617.1,-231.58"/>
<polygon fill="midnightblue" stroke="midnightblue" points="685.3,-267.33 695.84,-268.4 688.26,-260.99 685.3,-267.33"/>
</g>
<!-- Node9 -->
<g id="node9" class="node">
<title>Node9</title>
<g id="a_node9"><a xlink:href="modelloader_8h.html" target="_top" xlink:title=" ">
<polygon fill="none" stroke="black" points="155,-134.5 155,-164.5 273,-164.5 273,-134.5 155,-134.5"/>
<text text-anchor="start" x="163" y="-152.5" font-family="Helvetica,sans-Serif" font-size="10.00">/github/workspace/src</text>
<text text-anchor="middle" x="214" y="-141.5" font-family="Helvetica,sans-Serif" font-size="10.00">/renderer/modelloader.h</text>
</a>
</g>
</g>
<!-- Node7&#45;&gt;Node9 -->
<g id="edge12" class="edge">
<title>Node7&#45;&gt;Node9</title>
<path fill="none" stroke="midnightblue" d="M659.44,-266.42C619.29,-256.65 567.16,-243.81 521,-232 431.11,-209 326.77,-181.03 265.8,-164.56"/>
<polygon fill="midnightblue" stroke="midnightblue" points="658.83,-269.88 669.37,-268.84 660.48,-263.08 658.83,-269.88"/>
</g>
<!-- Node13 -->
<g id="node13" class="node">
<title>Node13</title>
<g id="a_node13"><a xlink:href="objectinstance_8h.html" target="_top" xlink:title=" ">
<polygon fill="none" stroke="black" points="662,-201.5 662,-231.5 790,-231.5 790,-201.5 662,-201.5"/>
<text text-anchor="start" x="670" y="-219.5" font-family="Helvetica,sans-Serif" font-size="10.00">/github/workspace/src</text>
<text text-anchor="middle" x="726" y="-208.5" font-family="Helvetica,sans-Serif" font-size="10.00">/renderer/objectinstance.h</text>
</a>
</g>
</g>
<!-- Node7&#45;&gt;Node13 -->
<g id="edge16" class="edge">
<title>Node7&#45;&gt;Node13</title>
<path fill="none" stroke="midnightblue" d="M726,-258.11C726,-249.15 726,-239.32 726,-231.58"/>
<polygon fill="midnightblue" stroke="midnightblue" points="722.5,-258.4 726,-268.4 729.5,-258.4 722.5,-258.4"/>
</g>
<!-- Node10 -->
<g id="node10" class="node">
<title>Node10</title>
<g id="a_node10"><a xlink:href="modelloader_8cpp.html" target="_top" xlink:title=" ">
<polygon fill="none" stroke="black" points="0,-67.5 0,-97.5 128,-97.5 128,-67.5 0,-67.5"/>
<text text-anchor="start" x="8" y="-85.5" font-family="Helvetica,sans-Serif" font-size="10.00">/github/workspace/src</text>
<text text-anchor="middle" x="64" y="-74.5" font-family="Helvetica,sans-Serif" font-size="10.00">/renderer/modelloader.cpp</text>
</a>
</g>
</g>
<!-- Node9&#45;&gt;Node10 -->
<g id="edge13" class="edge">
<title>Node9&#45;&gt;Node10</title>
<path fill="none" stroke="midnightblue" d="M172.25,-130.41C148.3,-120.03 118.68,-107.2 96.48,-97.58"/>
<polygon fill="midnightblue" stroke="midnightblue" points="170.89,-133.63 181.45,-134.4 173.67,-127.21 170.89,-133.63"/>
</g>
<!-- Node11 -->
<g id="node11" class="node">
<title>Node11</title>
<g id="a_node11"><a xlink:href="vulkan__voxel__rasterizer__2_8cpp.html" target="_top" xlink:title=" ">
<polygon fill="none" stroke="black" points="184,-67.5 184,-97.5 358,-97.5 358,-67.5 184,-67.5"/>
<text text-anchor="start" x="192" y="-85.5" font-family="Helvetica,sans-Serif" font-size="10.00">/github/workspace/src</text>
<text text-anchor="middle" x="271" y="-74.5" font-family="Helvetica,sans-Serif" font-size="10.00">/tests/vulkan_voxel_rasterizer_2.cpp</text>
</a>
</g>
</g>
<!-- Node9&#45;&gt;Node11 -->
<g id="edge14" class="edge">
<title>Node9&#45;&gt;Node11</title>
<path fill="none" stroke="midnightblue" d="M233.09,-126.74C241.52,-117.12 251.19,-106.09 258.66,-97.58"/>
<polygon fill="midnightblue" stroke="midnightblue" points="230.33,-124.57 226.37,-134.4 235.59,-129.18 230.33,-124.57"/>
</g>
<!-- Node12 -->
<g id="node12" class="node">
<title>Node12</title>
<g id="a_node12"><a xlink:href="vulkan__voxel__rasterizer__3_8cpp.html" target="_top" xlink:title=" ">
<polygon fill="none" stroke="black" points="324,-0.5 324,-30.5 498,-30.5 498,-0.5 324,-0.5"/>
<text text-anchor="start" x="332" y="-18.5" font-family="Helvetica,sans-Serif" font-size="10.00">/github/workspace/src</text>
<text text-anchor="middle" x="411" y="-7.5" font-family="Helvetica,sans-Serif" font-size="10.00">/tests/vulkan_voxel_rasterizer_3.cpp</text>
</a>
</g>
</g>
<!-- Node9&#45;&gt;Node12 -->
<g id="edge15" class="edge">
<title>Node9&#45;&gt;Node12</title>
<path fill="none" stroke="midnightblue" d="M191.33,-126.96C175.78,-109.57 160.37,-85.09 175,-67 193.74,-43.83 264.52,-30.81 323.72,-23.83"/>
<polygon fill="midnightblue" stroke="midnightblue" points="188.96,-129.55 198.38,-134.41 194.05,-124.74 188.96,-129.55"/>
</g>
<!-- Node13&#45;&gt;Node2 -->
<g id="edge17" class="edge">
<title>Node13&#45;&gt;Node2</title>
<path fill="none" stroke="midnightblue" d="M767.79,-197.27C791.52,-186.92 820.78,-174.15 842.73,-164.58"/>
<polygon fill="midnightblue" stroke="midnightblue" points="766.1,-194.19 758.33,-201.4 768.9,-200.61 766.1,-194.19"/>
</g>
<!-- Node14 -->
<g id="node14" class="node">
<title>Node14</title>
<g id="a_node14"><a xlink:href="objectinstance_8cpp.html" target="_top" xlink:title=" ">
<polygon fill="none" stroke="black" points="652.5,-134.5 652.5,-164.5 791.5,-164.5 791.5,-134.5 652.5,-134.5"/>
<text text-anchor="start" x="660.5" y="-152.5" font-family="Helvetica,sans-Serif" font-size="10.00">/github/workspace/src</text>
<text text-anchor="middle" x="722" y="-141.5" font-family="Helvetica,sans-Serif" font-size="10.00">/renderer/objectinstance.cpp</text>
</a>
</g>
</g>
<!-- Node13&#45;&gt;Node14 -->
<g id="edge18" class="edge">
<title>Node13&#45;&gt;Node14</title>
<path fill="none" stroke="midnightblue" d="M724.52,-191.4C723.96,-182.37 723.35,-172.41 722.87,-164.58"/>
<polygon fill="midnightblue" stroke="midnightblue" points="721.02,-191.63 725.13,-201.4 728.01,-191.2 721.02,-191.63"/>
</g>
<!-- Node15 -->
<g id="node15" class="node">
<title>Node15</title>
<g id="a_node15"><a xlink:href="scene_8h.html" target="_top" xlink:title=" ">
<polygon fill="none" stroke="black" points="467.5,-134.5 467.5,-164.5 580.5,-164.5 580.5,-134.5 467.5,-134.5"/>
<text text-anchor="start" x="475.5" y="-152.5" font-family="Helvetica,sans-Serif" font-size="10.00">/github/workspace/src</text>
<text text-anchor="middle" x="524" y="-141.5" font-family="Helvetica,sans-Serif" font-size="10.00">/renderer/scene.h</text>
</a>
</g>
</g>
<!-- Node13&#45;&gt;Node15 -->
<g id="edge19" class="edge">
<title>Node13&#45;&gt;Node15</title>
<path fill="none" stroke="midnightblue" d="M672.32,-198.23C639.65,-187.71 598.43,-174.45 567.75,-164.58"/>
<polygon fill="midnightblue" stroke="midnightblue" points="671.58,-201.66 682.17,-201.4 673.72,-195 671.58,-201.66"/>
</g>
<!-- Node15&#45;&gt;Node11 -->
<g id="edge27" class="edge">
<title>Node15&#45;&gt;Node11</title>
<path fill="none" stroke="midnightblue" d="M459.72,-131.98C418.39,-121.37 365.27,-107.72 325.92,-97.61"/>
<polygon fill="midnightblue" stroke="midnightblue" points="458.86,-135.38 469.41,-134.48 460.6,-128.6 458.86,-135.38"/>
</g>
<!-- Node15&#45;&gt;Node12 -->
<g id="edge28" class="edge">
<title>Node15&#45;&gt;Node12</title>
<path fill="none" stroke="midnightblue" d="M457.56,-135.39C437.24,-127.93 417.08,-116.26 405,-98 391.61,-77.77 398.78,-48.2 405.03,-30.8"/>
<polygon fill="midnightblue" stroke="midnightblue" points="456.6,-138.76 467.19,-138.63 458.83,-132.13 456.6,-138.76"/>
</g>
<!-- Node16 -->
<g id="node16" class="node">
<title>Node16</title>
<g id="a_node16"><a xlink:href="scene_8cpp.html" target="_top" xlink:title=" ">
<polygon fill="none" stroke="black" points="414.5,-67.5 414.5,-97.5 527.5,-97.5 527.5,-67.5 414.5,-67.5"/>
<text text-anchor="start" x="422.5" y="-85.5" font-family="Helvetica,sans-Serif" font-size="10.00">/github/workspace/src</text>
<text text-anchor="middle" x="471" y="-74.5" font-family="Helvetica,sans-Serif" font-size="10.00">/renderer/scene.cpp</text>
</a>
</g>
</g>
<!-- Node15&#45;&gt;Node16 -->
<g id="edge20" class="edge">
<title>Node15&#45;&gt;Node16</title>
<path fill="none" stroke="midnightblue" d="M506.02,-126.45C498.23,-116.9 489.35,-106 482.48,-97.58"/>
<polygon fill="midnightblue" stroke="midnightblue" points="503.47,-128.86 512.5,-134.4 508.89,-124.43 503.47,-128.86"/>
</g>
<!-- Node17 -->
<g id="node17" class="node">
<title>Node17</title>
<g id="a_node17"><a xlink:href="objectlist_8h.html" target="_top" xlink:title=" ">
<polygon fill="none" stroke="black" points="708.5,-67.5 708.5,-97.5 823.5,-97.5 823.5,-67.5 708.5,-67.5"/>
<text text-anchor="start" x="716.5" y="-85.5" font-family="Helvetica,sans-Serif" font-size="10.00">/github/workspace/src</text>
<text text-anchor="middle" x="766" y="-74.5" font-family="Helvetica,sans-Serif" font-size="10.00">/renderer/ui/objectlist.h</text>
</a>
</g>
</g>
<!-- Node15&#45;&gt;Node17 -->
<g id="edge21" class="edge">
<title>Node15&#45;&gt;Node17</title>
<path fill="none" stroke="midnightblue" d="M585.99,-131.85C625.45,-121.25 675.99,-107.68 713.46,-97.61"/>
<polygon fill="midnightblue" stroke="midnightblue" points="584.96,-128.5 576.21,-134.48 586.78,-135.26 584.96,-128.5"/>
</g>
<!-- Node19 -->
<g id="node19" class="node">
<title>Node19</title>
<g id="a_node19"><a xlink:href="objectproperties_8h.html" target="_top" xlink:title=" ">
<polygon fill="none" stroke="black" points="545.5,-67.5 545.5,-97.5 690.5,-97.5 690.5,-67.5 545.5,-67.5"/>
<text text-anchor="start" x="553.5" y="-85.5" font-family="Helvetica,sans-Serif" font-size="10.00">/github/workspace/src</text>
<text text-anchor="middle" x="618" y="-74.5" font-family="Helvetica,sans-Serif" font-size="10.00">/renderer/ui/objectproperties.h</text>
</a>
</g>
</g>
<!-- Node15&#45;&gt;Node19 -->
<g id="edge24" class="edge">
<title>Node15&#45;&gt;Node19</title>
<path fill="none" stroke="midnightblue" d="M552.99,-128.45C567.45,-118.45 584.59,-106.6 597.64,-97.58"/>
<polygon fill="midnightblue" stroke="midnightblue" points="550.63,-125.83 544.4,-134.4 554.61,-131.59 550.63,-125.83"/>
</g>
<!-- Node17&#45;&gt;Node12 -->
<g id="edge23" class="edge">
<title>Node17&#45;&gt;Node12</title>
<path fill="none" stroke="midnightblue" d="M698.57,-66.76C625.29,-52.43 551.96,-39.72 496.85,-30.5"/>
<polygon fill="midnightblue" stroke="midnightblue" points="697.95,-70.21 708.44,-68.7 699.3,-63.34 697.95,-70.21"/>
</g>
<!-- Node18 -->
<g id="node18" class="node">
<title>Node18</title>
<g id="a_node18"><a xlink:href="objectlist_8cpp.html" target="_top" xlink:title=" ">
<polygon fill="none" stroke="black" points="708.5,-0.5 708.5,-30.5 833.5,-30.5 833.5,-0.5 708.5,-0.5"/>
<text text-anchor="start" x="716.5" y="-18.5" font-family="Helvetica,sans-Serif" font-size="10.00">/github/workspace/src</text>
<text text-anchor="middle" x="771" y="-7.5" font-family="Helvetica,sans-Serif" font-size="10.00">/renderer/ui/objectlist.cpp</text>
</a>
</g>
</g>
<!-- Node17&#45;&gt;Node18 -->
<g id="edge22" class="edge">
<title>Node17&#45;&gt;Node18</title>
<path fill="none" stroke="midnightblue" d="M767.85,-57.4C768.55,-48.37 769.31,-38.41 769.92,-30.58"/>
<polygon fill="midnightblue" stroke="midnightblue" points="764.36,-57.16 767.08,-67.4 771.34,-57.69 764.36,-57.16"/>
</g>
<!-- Node19&#45;&gt;Node12 -->
<g id="edge26" class="edge">
<title>Node19&#45;&gt;Node12</title>
<path fill="none" stroke="midnightblue" d="M563.68,-64.44C530.13,-53.91 487.59,-40.55 455.94,-30.61"/>
<polygon fill="midnightblue" stroke="midnightblue" points="562.75,-67.82 573.34,-67.48 564.85,-61.14 562.75,-67.82"/>
</g>
<!-- Node20 -->
<g id="node20" class="node">
<title>Node20</title>
<g id="a_node20"><a xlink:href="objectproperties_8cpp.html" target="_top" xlink:title=" ">
<polygon fill="none" stroke="black" points="535.5,-0.5 535.5,-30.5 690.5,-30.5 690.5,-0.5 535.5,-0.5"/>
<text text-anchor="start" x="543.5" y="-18.5" font-family="Helvetica,sans-Serif" font-size="10.00">/github/workspace/src</text>
<text text-anchor="middle" x="613" y="-7.5" font-family="Helvetica,sans-Serif" font-size="10.00">/renderer/ui/objectproperties.cpp</text>
</a>
</g>
</g>
<!-- Node19&#45;&gt;Node20 -->
<g id="edge25" class="edge">
<title>Node19&#45;&gt;Node20</title>
<path fill="none" stroke="midnightblue" d="M616.15,-57.4C615.45,-48.37 614.69,-38.41 614.08,-30.58"/>
<polygon fill="midnightblue" stroke="midnightblue" points="612.66,-57.69 616.92,-67.4 619.64,-57.16 612.66,-57.69"/>
</g>
</g>
</svg>
