<?xml version="1.0" encoding="UTF-8" standalone="no"?>
<!DOCTYPE svg PUBLIC "-//W3C//DTD SVG 1.1//EN"
 "http://www.w3.org/Graphics/SVG/1.1/DTD/svg11.dtd">
<!-- Generated by graphviz version 2.49.3 (20211215.1918)
 -->
<!-- Title: /github/workspace/src/renderer/materialparameters.h Pages: 1 -->
<svg width="952pt" height="508pt"
 viewBox="0.00 0.00 951.50 508.00" xmlns="http://www.w3.org/2000/svg" xmlns:xlink="http://www.w3.org/1999/xlink">
<g id="graph0" class="graph" transform="scale(1 1) rotate(0) translate(4 504)">
<title>/github/workspace/src/renderer/materialparameters.h</title>
<!-- Node1 -->
<g id="node1" class="node">
<title>Node1</title>
<g id="a_node1"><a xlink:title=" ">
<polygon fill="#bfbfbf" stroke="black" points="402.5,-469.5 402.5,-499.5 551.5,-499.5 551.5,-469.5 402.5,-469.5"/>
<text text-anchor="start" x="410.5" y="-487.5" font-family="Helvetica,sans-Serif" font-size="10.00">/github/workspace/src</text>
<text text-anchor="middle" x="477" y="-476.5" font-family="Helvetica,sans-Serif" font-size="10.00">/renderer/materialparameters.h</text>
</a>
</g>
</g>
<!-- Node2 -->
<g id="node2" class="node">
<title>Node2</title>
<g id="a_node2"><a xlink:href="mastermaterial_8h.html" target="_top" xlink:title=" ">
<polygon fill="none" stroke="black" points="230,-402.5 230,-432.5 360,-432.5 360,-402.5 230,-402.5"/>
<text text-anchor="start" x="238" y="-420.5" font-family="Helvetica,sans-Serif" font-size="10.00">/github/workspace/src</text>
<text text-anchor="middle" x="295" y="-409.5" font-family="Helvetica,sans-Serif" font-size="10.00">/renderer/mastermaterial.h</text>
</a>
</g>
</g>
<!-- Node1&#45;&gt;Node2 -->
<g id="edge1" class="edge">
<title>Node1&#45;&gt;Node2</title>
<path fill="none" stroke="midnightblue" d="M427.87,-465.96C398.56,-455.48 361.82,-442.37 334.41,-432.58"/>
<polygon fill="midnightblue" stroke="midnightblue" points="426.91,-469.33 437.51,-469.4 429.27,-462.74 426.91,-469.33"/>
</g>
<!-- Node22 -->
<g id="node22" class="node">
<title>Node22</title>
<g id="a_node22"><a xlink:href="materialparameters_8cpp.html" target="_top" xlink:title=" ">
<polygon fill="none" stroke="black" points="397.5,-402.5 397.5,-432.5 556.5,-432.5 556.5,-402.5 397.5,-402.5"/>
<text text-anchor="start" x="405.5" y="-420.5" font-family="Helvetica,sans-Serif" font-size="10.00">/github/workspace/src</text>
<text text-anchor="middle" x="477" y="-409.5" font-family="Helvetica,sans-Serif" font-size="10.00">/renderer/materialparameters.cpp</text>
</a>
</g>
</g>
<!-- Node1&#45;&gt;Node22 -->
<g id="edge30" class="edge">
<title>Node1&#45;&gt;Node22</title>
<path fill="none" stroke="midnightblue" d="M477,-459.11C477,-450.15 477,-440.32 477,-432.58"/>
<polygon fill="midnightblue" stroke="midnightblue" points="473.5,-459.4 477,-469.4 480.5,-459.4 473.5,-459.4"/>
</g>
<!-- Node23 -->
<g id="node23" class="node">
<title>Node23</title>
<g id="a_node23"><a xlink:href="texture_8h.html" target="_top" xlink:title=" ">
<polygon fill="none" stroke="black" points="584.5,-402.5 584.5,-432.5 697.5,-432.5 697.5,-402.5 584.5,-402.5"/>
<text text-anchor="start" x="592.5" y="-420.5" font-family="Helvetica,sans-Serif" font-size="10.00">/github/workspace/src</text>
<text text-anchor="middle" x="641" y="-409.5" font-family="Helvetica,sans-Serif" font-size="10.00">/renderer/texture.h</text>
</a>
</g>
</g>
<!-- Node1&#45;&gt;Node23 -->
<g id="edge31" class="edge">
<title>Node1&#45;&gt;Node23</title>
<path fill="none" stroke="midnightblue" d="M521.96,-465.68C548.26,-455.26 581,-442.28 605.48,-432.58"/>
<polygon fill="midnightblue" stroke="midnightblue" points="520.59,-462.46 512.59,-469.4 523.17,-468.97 520.59,-462.46"/>
</g>
<!-- Node3 -->
<g id="node3" class="node">
<title>Node3</title>
<g id="a_node3"><a xlink:href="mastermaterial_8cpp.html" target="_top" xlink:title=" ">
<polygon fill="none" stroke="black" points="225,-335.5 225,-365.5 365,-365.5 365,-335.5 225,-335.5"/>
<text text-anchor="start" x="233" y="-353.5" font-family="Helvetica,sans-Serif" font-size="10.00">/github/workspace/src</text>
<text text-anchor="middle" x="295" y="-342.5" font-family="Helvetica,sans-Serif" font-size="10.00">/renderer/mastermaterial.cpp</text>
</a>
</g>
</g>
<!-- Node2&#45;&gt;Node3 -->
<g id="edge2" class="edge">
<title>Node2&#45;&gt;Node3</title>
<path fill="none" stroke="midnightblue" d="M295,-392.11C295,-383.15 295,-373.32 295,-365.58"/>
<polygon fill="midnightblue" stroke="midnightblue" points="291.5,-392.4 295,-402.4 298.5,-392.4 291.5,-392.4"/>
</g>
<!-- Node4 -->
<g id="node4" class="node">
<title>Node4</title>
<g id="a_node4"><a xlink:href="material_8h.html" target="_top" xlink:title=" ">
<polygon fill="none" stroke="black" points="93.5,-335.5 93.5,-365.5 206.5,-365.5 206.5,-335.5 93.5,-335.5"/>
<text text-anchor="start" x="101.5" y="-353.5" font-family="Helvetica,sans-Serif" font-size="10.00">/github/workspace/src</text>
<text text-anchor="middle" x="150" y="-342.5" font-family="Helvetica,sans-Serif" font-size="10.00">/renderer/material.h</text>
</a>
</g>
</g>
<!-- Node2&#45;&gt;Node4 -->
<g id="edge3" class="edge">
<title>Node2&#45;&gt;Node4</title>
<path fill="none" stroke="midnightblue" d="M248.52,-398.41C224.4,-388.03 195.92,-375.2 175.73,-365.58"/>
<polygon fill="midnightblue" stroke="midnightblue" points="247.29,-401.69 257.86,-402.4 250.04,-395.25 247.29,-401.69"/>
</g>
<!-- Node6 -->
<g id="node6" class="node">
<title>Node6</title>
<g id="a_node6"><a xlink:href="materiallibrary_8h.html" target="_top" xlink:title=" ">
<polygon fill="none" stroke="black" points="5.5,-268.5 5.5,-298.5 130.5,-298.5 130.5,-268.5 5.5,-268.5"/>
<text text-anchor="start" x="13.5" y="-286.5" font-family="Helvetica,sans-Serif" font-size="10.00">/github/workspace/src</text>
<text text-anchor="middle" x="68" y="-275.5" font-family="Helvetica,sans-Serif" font-size="10.00">/renderer/materiallibrary.h</text>
</a>
</g>
</g>
<!-- Node2&#45;&gt;Node6 -->
<g id="edge29" class="edge">
<title>Node2&#45;&gt;Node6</title>
<path fill="none" stroke="midnightblue" d="M219.93,-407.19C167.17,-399.09 102.78,-385.56 84,-366 66.63,-347.9 65.48,-316.75 66.53,-298.66"/>
<polygon fill="midnightblue" stroke="midnightblue" points="219.56,-410.67 229.97,-408.69 220.6,-403.75 219.56,-410.67"/>
</g>
<!-- Node4&#45;&gt;Node2 -->
<g id="edge4" class="edge">
<title>Node4&#45;&gt;Node2</title>
<path fill="none" stroke="midnightblue" d="M196.42,-369.56C220.52,-379.94 249.01,-392.77 269.22,-402.4"/>
<polygon fill="midnightblue" stroke="midnightblue" points="197.65,-366.28 187.08,-365.58 194.9,-372.72 197.65,-366.28"/>
</g>
<!-- Node5 -->
<g id="node5" class="node">
<title>Node5</title>
<g id="a_node5"><a xlink:href="material_8cpp.html" target="_top" xlink:title=" ">
<polygon fill="none" stroke="black" points="148.5,-268.5 148.5,-298.5 261.5,-298.5 261.5,-268.5 148.5,-268.5"/>
<text text-anchor="start" x="156.5" y="-286.5" font-family="Helvetica,sans-Serif" font-size="10.00">/github/workspace/src</text>
<text text-anchor="middle" x="205" y="-275.5" font-family="Helvetica,sans-Serif" font-size="10.00">/renderer/material.cpp</text>
</a>
</g>
</g>
<!-- Node4&#45;&gt;Node5 -->
<g id="edge5" class="edge">
<title>Node4&#45;&gt;Node5</title>
<path fill="none" stroke="midnightblue" d="M168.42,-327.74C176.55,-318.12 185.89,-307.09 193.09,-298.58"/>
<polygon fill="midnightblue" stroke="midnightblue" points="165.72,-325.5 161.93,-335.4 171.07,-330.02 165.72,-325.5"/>
</g>
<!-- Node4&#45;&gt;Node6 -->
<g id="edge6" class="edge">
<title>Node4&#45;&gt;Node6</title>
<path fill="none" stroke="midnightblue" d="M118.42,-329.45C105.03,-319.45 90.28,-307.6 80.08,-298.58"/>
<polygon fill="midnightblue" stroke="midnightblue" points="116.39,-332.31 126.53,-335.4 120.53,-326.66 116.39,-332.31"/>
</g>
<!-- Node8 -->
<g id="node8" class="node">
<title>Node8</title>
<g id="a_node8"><a xlink:href="mesh_8h.html" target="_top" xlink:title=" ">
<polygon fill="none" stroke="black" points="280.5,-268.5 280.5,-298.5 393.5,-298.5 393.5,-268.5 280.5,-268.5"/>
<text text-anchor="start" x="288.5" y="-286.5" font-family="Helvetica,sans-Serif" font-size="10.00">/github/workspace/src</text>
<text text-anchor="middle" x="337" y="-275.5" font-family="Helvetica,sans-Serif" font-size="10.00">/renderer/mesh.h</text>
</a>
</g>
</g>
<!-- Node4&#45;&gt;Node8 -->
<g id="edge9" class="edge">
<title>Node4&#45;&gt;Node8</title>
<path fill="none" stroke="midnightblue" d="M200.08,-332.09C230.27,-321.6 268.22,-308.41 296.5,-298.58"/>
<polygon fill="midnightblue" stroke="midnightblue" points="198.87,-328.81 190.58,-335.4 201.17,-335.42 198.87,-328.81"/>
</g>
<!-- Node6&#45;&gt;Node4 -->
<g id="edge7" class="edge">
<title>Node6&#45;&gt;Node4</title>
<path fill="none" stroke="midnightblue" d="M99.54,-304.52C112.93,-314.51 127.68,-326.37 137.89,-335.4"/>
<polygon fill="midnightblue" stroke="midnightblue" points="101.57,-301.66 91.43,-298.58 97.43,-307.31 101.57,-301.66"/>
</g>
<!-- Node7 -->
<g id="node7" class="node">
<title>Node7</title>
<g id="a_node7"><a xlink:href="materiallibrary_8cpp.html" target="_top" xlink:title=" ">
<polygon fill="none" stroke="black" points="0,-201.5 0,-231.5 136,-231.5 136,-201.5 0,-201.5"/>
<text text-anchor="start" x="8" y="-219.5" font-family="Helvetica,sans-Serif" font-size="10.00">/github/workspace/src</text>
<text text-anchor="middle" x="68" y="-208.5" font-family="Helvetica,sans-Serif" font-size="10.00">/renderer/materiallibrary.cpp</text>
</a>
</g>
</g>
<!-- Node6&#45;&gt;Node7 -->
<g id="edge8" class="edge">
<title>Node6&#45;&gt;Node7</title>
<path fill="none" stroke="midnightblue" d="M68,-258.11C68,-249.15 68,-239.32 68,-231.58"/>
<polygon fill="midnightblue" stroke="midnightblue" points="64.5,-258.4 68,-268.4 71.5,-258.4 64.5,-258.4"/>
</g>
<!-- Node8&#45;&gt;Node2 -->
<g id="edge10" class="edge">
<title>Node8&#45;&gt;Node2</title>
<path fill="none" stroke="midnightblue" d="M358.12,-306.25C371.63,-322.92 384.78,-346.32 374,-366 365.01,-382.42 348.15,-394.28 332.31,-402.36"/>
<polygon fill="midnightblue" stroke="midnightblue" points="360.74,-303.93 351.56,-298.65 355.44,-308.51 360.74,-303.93"/>
</g>
<!-- Node9 -->
<g id="node9" class="node">
<title>Node9</title>
<g id="a_node9"><a xlink:href="mesh_8cpp.html" target="_top" xlink:title=" ">
<polygon fill="none" stroke="black" points="195.5,-201.5 195.5,-231.5 308.5,-231.5 308.5,-201.5 195.5,-201.5"/>
<text text-anchor="start" x="203.5" y="-219.5" font-family="Helvetica,sans-Serif" font-size="10.00">/github/workspace/src</text>
<text text-anchor="middle" x="252" y="-208.5" font-family="Helvetica,sans-Serif" font-size="10.00">/renderer/mesh.cpp</text>
</a>
</g>
</g>
<!-- Node8&#45;&gt;Node9 -->
<g id="edge11" class="edge">
<title>Node8&#45;&gt;Node9</title>
<path fill="none" stroke="midnightblue" d="M310.41,-262.17C297.41,-252.23 282.1,-240.51 270.41,-231.58"/>
<polygon fill="midnightblue" stroke="midnightblue" points="308.49,-265.1 318.56,-268.4 312.74,-259.54 308.49,-265.1"/>
</g>
<!-- Node10 -->
<g id="node10" class="node">
<title>Node10</title>
<g id="a_node10"><a xlink:href="modelloader_8h.html" target="_top" xlink:title=" ">
<polygon fill="none" stroke="black" points="219,-134.5 219,-164.5 337,-164.5 337,-134.5 219,-134.5"/>
<text text-anchor="start" x="227" y="-152.5" font-family="Helvetica,sans-Serif" font-size="10.00">/github/workspace/src</text>
<text text-anchor="middle" x="278" y="-141.5" font-family="Helvetica,sans-Serif" font-size="10.00">/renderer/modelloader.h</text>
</a>
</g>
</g>
<!-- Node8&#45;&gt;Node10 -->
<g id="edge12" class="edge">
<title>Node8&#45;&gt;Node10</title>
<path fill="none" stroke="midnightblue" d="M333.77,-258.29C330.91,-241.58 325.77,-219.19 317,-201 310.56,-187.63 300.17,-174.42 291.74,-164.87"/>
<polygon fill="midnightblue" stroke="midnightblue" points="330.34,-259 335.34,-268.34 337.26,-257.92 330.34,-259"/>
</g>
<!-- Node14 -->
<g id="node14" class="node">
<title>Node14</title>
<g id="a_node14"><a xlink:href="objectinstance_8h.html" target="_top" xlink:title=" ">
<polygon fill="none" stroke="black" points="367,-201.5 367,-231.5 495,-231.5 495,-201.5 367,-201.5"/>
<text text-anchor="start" x="375" y="-219.5" font-family="Helvetica,sans-Serif" font-size="10.00">/github/workspace/src</text>
<text text-anchor="middle" x="431" y="-208.5" font-family="Helvetica,sans-Serif" font-size="10.00">/renderer/objectinstance.h</text>
</a>
</g>
</g>
<!-- Node8&#45;&gt;Node14 -->
<g id="edge16" class="edge">
<title>Node8&#45;&gt;Node14</title>
<path fill="none" stroke="midnightblue" d="M365.99,-262.45C380.45,-252.45 397.59,-240.6 410.64,-231.58"/>
<polygon fill="midnightblue" stroke="midnightblue" points="363.63,-259.83 357.4,-268.4 367.61,-265.59 363.63,-259.83"/>
</g>
<!-- Node11 -->
<g id="node11" class="node">
<title>Node11</title>
<g id="a_node11"><a xlink:href="modelloader_8cpp.html" target="_top" xlink:title=" ">
<polygon fill="none" stroke="black" points="110,-67.5 110,-97.5 238,-97.5 238,-67.5 110,-67.5"/>
<text text-anchor="start" x="118" y="-85.5" font-family="Helvetica,sans-Serif" font-size="10.00">/github/workspace/src</text>
<text text-anchor="middle" x="174" y="-74.5" font-family="Helvetica,sans-Serif" font-size="10.00">/renderer/modelloader.cpp</text>
</a>
</g>
</g>
<!-- Node10&#45;&gt;Node11 -->
<g id="edge13" class="edge">
<title>Node10&#45;&gt;Node11</title>
<path fill="none" stroke="midnightblue" d="M246.82,-129.02C230.64,-118.9 211.23,-106.77 196.52,-97.58"/>
<polygon fill="midnightblue" stroke="midnightblue" points="245.1,-132.06 255.43,-134.4 248.81,-126.13 245.1,-132.06"/>
</g>
<!-- Node12 -->
<g id="node12" class="node">
<title>Node12</title>
<g id="a_node12"><a xlink:href="vulkan__voxel__rasterizer__2_8cpp.html" target="_top" xlink:title=" ">
<polygon fill="none" stroke="black" points="294,-67.5 294,-97.5 468,-97.5 468,-67.5 294,-67.5"/>
<text text-anchor="start" x="302" y="-85.5" font-family="Helvetica,sans-Serif" font-size="10.00">/github/workspace/src</text>
<text text-anchor="middle" x="381" y="-74.5" font-family="Helvetica,sans-Serif" font-size="10.00">/tests/vulkan_voxel_rasterizer_2.cpp</text>
</a>
</g>
</g>
<!-- Node10&#45;&gt;Node12 -->
<g id="edge14" class="edge">
<title>Node10&#45;&gt;Node12</title>
<path fill="none" stroke="midnightblue" d="M308.88,-129.02C324.9,-118.9 344.13,-106.77 358.69,-97.58"/>
<polygon fill="midnightblue" stroke="midnightblue" points="306.94,-126.1 300.35,-134.4 310.67,-132.02 306.94,-126.1"/>
</g>
<!-- Node13 -->
<g id="node13" class="node">
<title>Node13</title>
<g id="a_node13"><a xlink:href="vulkan__voxel__rasterizer__3_8cpp.html" target="_top" xlink:title=" ">
<polygon fill="none" stroke="black" points="434,-0.5 434,-30.5 608,-30.5 608,-0.5 434,-0.5"/>
<text text-anchor="start" x="442" y="-18.5" font-family="Helvetica,sans-Serif" font-size="10.00">/github/workspace/src</text>
<text text-anchor="middle" x="521" y="-7.5" font-family="Helvetica,sans-Serif" font-size="10.00">/tests/vulkan_voxel_rasterizer_3.cpp</text>
</a>
</g>
</g>
<!-- Node10&#45;&gt;Node13 -->
<g id="edge15" class="edge">
<title>Node10&#45;&gt;Node13</title>
<path fill="none" stroke="midnightblue" d="M273.11,-124.45C270.94,-106.46 271.4,-82.42 285,-67 304.68,-44.69 375.14,-31.59 433.99,-24.35"/>
<polygon fill="midnightblue" stroke="midnightblue" points="269.68,-125.13 274.66,-134.48 276.6,-124.06 269.68,-125.13"/>
</g>
<!-- Node14&#45;&gt;Node2 -->
<g id="edge17" class="edge">
<title>Node14&#45;&gt;Node2</title>
<path fill="none" stroke="midnightblue" d="M430.05,-242.03C427.63,-273.86 419.18,-329.6 390,-366 376.68,-382.61 356.38,-394.44 337.97,-402.46"/>
<polygon fill="midnightblue" stroke="midnightblue" points="433.56,-242.04 430.68,-231.85 426.57,-241.61 433.56,-242.04"/>
</g>
<!-- Node15 -->
<g id="node15" class="node">
<title>Node15</title>
<g id="a_node15"><a xlink:href="objectinstance_8cpp.html" target="_top" xlink:title=" ">
<polygon fill="none" stroke="black" points="361.5,-134.5 361.5,-164.5 500.5,-164.5 500.5,-134.5 361.5,-134.5"/>
<text text-anchor="start" x="369.5" y="-152.5" font-family="Helvetica,sans-Serif" font-size="10.00">/github/workspace/src</text>
<text text-anchor="middle" x="431" y="-141.5" font-family="Helvetica,sans-Serif" font-size="10.00">/renderer/objectinstance.cpp</text>
</a>
</g>
</g>
<!-- Node14&#45;&gt;Node15 -->
<g id="edge18" class="edge">
<title>Node14&#45;&gt;Node15</title>
<path fill="none" stroke="midnightblue" d="M431,-191.11C431,-182.15 431,-172.32 431,-164.58"/>
<polygon fill="midnightblue" stroke="midnightblue" points="427.5,-191.4 431,-201.4 434.5,-191.4 427.5,-191.4"/>
</g>
<!-- Node16 -->
<g id="node16" class="node">
<title>Node16</title>
<g id="a_node16"><a xlink:href="scene_8h.html" target="_top" xlink:title=" ">
<polygon fill="none" stroke="black" points="521.5,-134.5 521.5,-164.5 634.5,-164.5 634.5,-134.5 521.5,-134.5"/>
<text text-anchor="start" x="529.5" y="-152.5" font-family="Helvetica,sans-Serif" font-size="10.00">/github/workspace/src</text>
<text text-anchor="middle" x="578" y="-141.5" font-family="Helvetica,sans-Serif" font-size="10.00">/renderer/scene.h</text>
</a>
</g>
</g>
<!-- Node14&#45;&gt;Node16 -->
<g id="edge19" class="edge">
<title>Node14&#45;&gt;Node16</title>
<path fill="none" stroke="midnightblue" d="M472.23,-197.27C495.64,-186.92 524.51,-174.15 546.17,-164.58"/>
<polygon fill="midnightblue" stroke="midnightblue" points="470.63,-194.15 462.9,-201.4 473.46,-200.55 470.63,-194.15"/>
</g>
<!-- Node16&#45;&gt;Node12 -->
<g id="edge27" class="edge">
<title>Node16&#45;&gt;Node12</title>
<path fill="none" stroke="midnightblue" d="M525.65,-131.23C493.78,-120.71 453.59,-107.45 423.66,-97.58"/>
<polygon fill="midnightblue" stroke="midnightblue" points="524.66,-134.59 535.25,-134.4 526.85,-127.94 524.66,-134.59"/>
</g>
<!-- Node16&#45;&gt;Node13 -->
<g id="edge28" class="edge">
<title>Node16&#45;&gt;Node13</title>
<path fill="none" stroke="midnightblue" d="M542.43,-128.69C531.57,-120.69 520.95,-110.39 515,-98 504.56,-76.26 510.63,-47.45 515.89,-30.55"/>
<polygon fill="midnightblue" stroke="midnightblue" points="540.47,-131.59 550.7,-134.36 544.43,-125.82 540.47,-131.59"/>
</g>
<!-- Node17 -->
<g id="node17" class="node">
<title>Node17</title>
<g id="a_node17"><a xlink:href="scene_8cpp.html" target="_top" xlink:title=" ">
<polygon fill="none" stroke="black" points="524.5,-67.5 524.5,-97.5 637.5,-97.5 637.5,-67.5 524.5,-67.5"/>
<text text-anchor="start" x="532.5" y="-85.5" font-family="Helvetica,sans-Serif" font-size="10.00">/github/workspace/src</text>
<text text-anchor="middle" x="581" y="-74.5" font-family="Helvetica,sans-Serif" font-size="10.00">/renderer/scene.cpp</text>
</a>
</g>
</g>
<!-- Node16&#45;&gt;Node17 -->
<g id="edge20" class="edge">
<title>Node16&#45;&gt;Node17</title>
<path fill="none" stroke="midnightblue" d="M579.11,-124.4C579.53,-115.37 579.99,-105.41 580.35,-97.58"/>
<polygon fill="midnightblue" stroke="midnightblue" points="575.62,-124.25 578.65,-134.4 582.61,-124.57 575.62,-124.25"/>
</g>
<!-- Node18 -->
<g id="node18" class="node">
<title>Node18</title>
<g id="a_node18"><a xlink:href="objectlist_8h.html" target="_top" xlink:title=" ">
<polygon fill="none" stroke="black" points="818.5,-67.5 818.5,-97.5 933.5,-97.5 933.5,-67.5 818.5,-67.5"/>
<text text-anchor="start" x="826.5" y="-85.5" font-family="Helvetica,sans-Serif" font-size="10.00">/github/workspace/src</text>
<text text-anchor="middle" x="876" y="-74.5" font-family="Helvetica,sans-Serif" font-size="10.00">/renderer/ui/objectlist.h</text>
</a>
</g>
</g>
<!-- Node16&#45;&gt;Node18 -->
<g id="edge21" class="edge">
<title>Node16&#45;&gt;Node18</title>
<path fill="none" stroke="midnightblue" d="M644.66,-134.03C691.03,-123.95 754.29,-110.18 810,-98 812.75,-97.4 815.57,-96.78 818.41,-96.16"/>
<polygon fill="midnightblue" stroke="midnightblue" points="643.77,-130.64 634.74,-136.18 645.25,-137.48 643.77,-130.64"/>
</g>
<!-- Node20 -->
<g id="node20" class="node">
<title>Node20</title>
<g id="a_node20"><a xlink:href="objectproperties_8h.html" target="_top" xlink:title=" ">
<polygon fill="none" stroke="black" points="655.5,-67.5 655.5,-97.5 800.5,-97.5 800.5,-67.5 655.5,-67.5"/>
<text text-anchor="start" x="663.5" y="-85.5" font-family="Helvetica,sans-Serif" font-size="10.00">/github/workspace/src</text>
<text text-anchor="middle" x="728" y="-74.5" font-family="Helvetica,sans-Serif" font-size="10.00">/renderer/ui/objectproperties.h</text>
</a>
</g>
</g>
<!-- Node16&#45;&gt;Node20 -->
<g id="edge24" class="edge">
<title>Node16&#45;&gt;Node20</title>
<path fill="none" stroke="midnightblue" d="M619.75,-130.41C643.7,-120.03 673.32,-107.2 695.52,-97.58"/>
<polygon fill="midnightblue" stroke="midnightblue" points="618.33,-127.21 610.55,-134.4 621.11,-133.63 618.33,-127.21"/>
</g>
<!-- Node18&#45;&gt;Node13 -->
<g id="edge23" class="edge">
<title>Node18&#45;&gt;Node13</title>
<path fill="none" stroke="midnightblue" d="M808.57,-66.76C735.29,-52.43 661.96,-39.72 606.85,-30.5"/>
<polygon fill="midnightblue" stroke="midnightblue" points="807.95,-70.21 818.44,-68.7 809.3,-63.34 807.95,-70.21"/>
</g>
<!-- Node19 -->
<g id="node19" class="node">
<title>Node19</title>
<g id="a_node19"><a xlink:href="objectlist_8cpp.html" target="_top" xlink:title=" ">
<polygon fill="none" stroke="black" points="818.5,-0.5 818.5,-30.5 943.5,-30.5 943.5,-0.5 818.5,-0.5"/>
<text text-anchor="start" x="826.5" y="-18.5" font-family="Helvetica,sans-Serif" font-size="10.00">/github/workspace/src</text>
<text text-anchor="middle" x="881" y="-7.5" font-family="Helvetica,sans-Serif" font-size="10.00">/renderer/ui/objectlist.cpp</text>
</a>
</g>
</g>
<!-- Node18&#45;&gt;Node19 -->
<g id="edge22" class="edge">
<title>Node18&#45;&gt;Node19</title>
<path fill="none" stroke="midnightblue" d="M877.85,-57.4C878.55,-48.37 879.31,-38.41 879.92,-30.58"/>
<polygon fill="midnightblue" stroke="midnightblue" points="874.36,-57.16 877.08,-67.4 881.34,-57.69 874.36,-57.16"/>
</g>
<!-- Node20&#45;&gt;Node13 -->
<g id="edge26" class="edge">
<title>Node20&#45;&gt;Node13</title>
<path fill="none" stroke="midnightblue" d="M673.68,-64.44C640.13,-53.91 597.59,-40.55 565.94,-30.61"/>
<polygon fill="midnightblue" stroke="midnightblue" points="672.75,-67.82 683.34,-67.48 674.85,-61.14 672.75,-67.82"/>
</g>
<!-- Node21 -->
<g id="node21" class="node">
<title>Node21</title>
<g id="a_node21"><a xlink:href="objectproperties_8cpp.html" target="_top" xlink:title=" ">
<polygon fill="none" stroke="black" points="645.5,-0.5 645.5,-30.5 800.5,-30.5 800.5,-0.5 645.5,-0.5"/>
<text text-anchor="start" x="653.5" y="-18.5" font-family="Helvetica,sans-Serif" font-size="10.00">/github/workspace/src</text>
<text text-anchor="middle" x="723" y="-7.5" font-family="Helvetica,sans-Serif" font-size="10.00">/renderer/ui/objectproperties.cpp</text>
</a>
</g>
</g>
<!-- Node20&#45;&gt;Node21 -->
<g id="edge25" class="edge">
<title>Node20&#45;&gt;Node21</title>
<path fill="none" stroke="midnightblue" d="M726.15,-57.4C725.45,-48.37 724.69,-38.41 724.08,-30.58"/>
<polygon fill="midnightblue" stroke="midnightblue" points="722.66,-57.69 726.92,-67.4 729.64,-57.16 722.66,-57.69"/>
</g>
<!-- Node24 -->
<g id="node24" class="node">
<title>Node24</title>
<g id="a_node24"><a xlink:href="texture_8cpp.html" target="_top" xlink:title=" ">
<polygon fill="none" stroke="black" points="459.5,-335.5 459.5,-365.5 572.5,-365.5 572.5,-335.5 459.5,-335.5"/>
<text text-anchor="start" x="467.5" y="-353.5" font-family="Helvetica,sans-Serif" font-size="10.00">/github/workspace/src</text>
<text text-anchor="middle" x="516" y="-342.5" font-family="Helvetica,sans-Serif" font-size="10.00">/renderer/texture.cpp</text>
</a>
</g>
</g>
<!-- Node23&#45;&gt;Node24 -->
<g id="edge32" class="edge">
<title>Node23&#45;&gt;Node24</title>
<path fill="none" stroke="midnightblue" d="M604.87,-397.71C585.16,-387.46 561.16,-374.98 543.07,-365.58"/>
<polygon fill="midnightblue" stroke="midnightblue" points="603.39,-400.89 613.88,-402.4 606.62,-394.68 603.39,-400.89"/>
</g>
<!-- Node25 -->
<g id="node25" class="node">
<title>Node25</title>
<g id="a_node25"><a xlink:href="texturelibrary_8h.html" target="_top" xlink:title=" ">
<polygon fill="none" stroke="black" points="591,-335.5 591,-365.5 711,-365.5 711,-335.5 591,-335.5"/>
<text text-anchor="start" x="599" y="-353.5" font-family="Helvetica,sans-Serif" font-size="10.00">/github/workspace/src</text>
<text text-anchor="middle" x="651" y="-342.5" font-family="Helvetica,sans-Serif" font-size="10.00">/renderer/texturelibrary.h</text>
</a>
</g>
</g>
<!-- Node23&#45;&gt;Node25 -->
<g id="edge33" class="edge">
<title>Node23&#45;&gt;Node25</title>
<path fill="none" stroke="midnightblue" d="M638.16,-392.4C639.1,-383.37 640.93,-373.41 643.16,-365.58"/>
<polygon fill="midnightblue" stroke="midnightblue" points="634.67,-392.18 637.49,-402.4 641.65,-392.65 634.67,-392.18"/>
</g>
<!-- Node25&#45;&gt;Node23 -->
<g id="edge34" class="edge">
<title>Node25&#45;&gt;Node23</title>
<path fill="none" stroke="midnightblue" d="M653.84,-375.57C652.9,-384.6 651.08,-394.56 648.85,-402.4"/>
<polygon fill="midnightblue" stroke="midnightblue" points="657.33,-375.79 654.51,-365.58 650.35,-375.32 657.33,-375.79"/>
</g>
<!-- Node26 -->
<g id="node26" class="node">
<title>Node26</title>
<g id="a_node26"><a xlink:href="texturelibrary_8cpp.html" target="_top" xlink:title=" ">
<polygon fill="none" stroke="black" points="585.5,-268.5 585.5,-298.5 716.5,-298.5 716.5,-268.5 585.5,-268.5"/>
<text text-anchor="start" x="593.5" y="-286.5" font-family="Helvetica,sans-Serif" font-size="10.00">/github/workspace/src</text>
<text text-anchor="middle" x="651" y="-275.5" font-family="Helvetica,sans-Serif" font-size="10.00">/renderer/texturelibrary.cpp</text>
</a>
</g>
</g>
<!-- Node25&#45;&gt;Node26 -->
<g id="edge35" class="edge">
<title>Node25&#45;&gt;Node26</title>
<path fill="none" stroke="midnightblue" d="M651,-325.11C651,-316.15 651,-306.32 651,-298.58"/>
<polygon fill="midnightblue" stroke="midnightblue" points="647.5,-325.4 651,-335.4 654.5,-325.4 647.5,-325.4"/>
</g>
</g>
</svg>
