<?xml version="1.0" encoding="UTF-8" standalone="no"?>
<!DOCTYPE svg PUBLIC "-//W3C//DTD SVG 1.1//EN"
 "http://www.w3.org/Graphics/SVG/1.1/DTD/svg11.dtd">
<!-- Generated by graphviz version 2.49.3 (20211215.1918)
 -->
<!-- Title: /github/workspace/src/renderer/materiallibrary.h Pages: 1 -->
<!--zoomable 307 -->
<svg id="main" version="1.1" xmlns="http://www.w3.org/2000/svg" xmlns:xlink="http://www.w3.org/1999/xlink" xml:space="preserve" onload="init(evt)">
<style type="text/css"><![CDATA[
.edge:hover path { stroke: red; }
.edge:hover polygon { stroke: red; fill: red; }
]]></style>
<script type="text/javascript"><![CDATA[
var edges = document.getElementsByTagName('g');
if (edges && edges.length) {
  for (var i=0;i<edges.length;i++) {
    if (edges[i].id.substr(0,4)=='edge') {
      edges[i].setAttribute('class','edge');
    }
  }
}
]]></script>
        <defs>
                <circle id="rim" cx="0" cy="0" r="7"/>
                <circle id="rim2" cx="0" cy="0" r="3.5"/>
                <g id="zoomPlus">
                        <use xlink:href="#rim" fill="#404040">
                                <set attributeName="fill" to="#808080" begin="zoomplus.mouseover" end="zoomplus.mouseout"/>
                        </use>
                        <path d="M-4,0h8M0,-4v8" fill="none" stroke="white" stroke-width="1.5" pointer-events="none"/>
                </g>
                <g id="zoomMin">
                        <use xlink:href="#rim" fill="#404040">
                                <set attributeName="fill" to="#808080" begin="zoomminus.mouseover" end="zoomminus.mouseout"/>
                        </use>
                        <path d="M-4,0h8" fill="none" stroke="white" stroke-width="1.5" pointer-events="none"/>
                </g>
                <g id="dirArrow">
                        <path fill="none" stroke="white" stroke-width="1.5" d="M0,-3.0v7 M-2.5,-0.5L0,-3.0L2.5,-0.5"/>
                </g>
               <g id="resetDef">
                       <use xlink:href="#rim2" fill="#404040">
                               <set attributeName="fill" to="#808080" begin="reset.mouseover" end="reset.mouseout"/>
                       </use>
               </g>
        </defs>

<script type="text/javascript">
var viewWidth = 513;
var viewHeight = 307;
var sectionId = 'dynsection-1';
</script>
<script xlink:href="svgpan.js"/>
<svg id="graph" class="graph">
<g id="viewport">
<title>/github/workspace/src/renderer/materiallibrary.h</title>
<!-- Node1 -->
<g id="node1" class="node">
<title>Node1</title>
<g id="a_node1"><a xlink:title=" ">
<polygon fill="#bfbfbf" stroke="black" points="173,-268.5 173,-298.5 298,-298.5 298,-268.5 173,-268.5"/>
<text text-anchor="start" x="181" y="-286.5" font-family="Helvetica,sans-Serif" font-size="10.00">/github/workspace/src</text>
<text text-anchor="middle" x="235.5" y="-275.5" font-family="Helvetica,sans-Serif" font-size="10.00">/renderer/materiallibrary.h</text>
</a>
</g>
</g>
<!-- Node2 -->
<g id="node2" class="node">
<title>Node2</title>
<g id="a_node2"><a xlink:href="material_8h.html" target="_top" xlink:title=" ">
<polygon fill="none" stroke="black" points="108,-201.5 108,-231.5 221,-231.5 221,-201.5 108,-201.5"/>
<text text-anchor="start" x="116" y="-219.5" font-family="Helvetica,sans-Serif" font-size="10.00">/github/workspace/src</text>
<text text-anchor="middle" x="164.5" y="-208.5" font-family="Helvetica,sans-Serif" font-size="10.00">/renderer/material.h</text>
</a>
</g>
</g>
<!-- Node1&#45;&gt;Node2 -->
<g id="edge1" class="edge">
<title>Node1&#45;&gt;Node2</title>
<path fill="none" stroke="midnightblue" d="M206.65,-261.88C195.13,-252.01 182.71,-240.43 174.2,-231.58"/>
<polygon fill="midnightblue" stroke="midnightblue" points="204.5,-264.65 214.42,-268.4 209,-259.29 204.5,-264.65"/>
</g>
<!-- Node11 -->
<g id="node11" class="node">
<title>Node11</title>
<g id="a_node11"><a xlink:href="materiallibrary_8cpp.html" target="_top" xlink:title=" ">
<polygon fill="none" stroke="black" points="239.5,-201.5 239.5,-231.5 375.5,-231.5 375.5,-201.5 239.5,-201.5"/>
<text text-anchor="start" x="247.5" y="-219.5" font-family="Helvetica,sans-Serif" font-size="10.00">/github/workspace/src</text>
<text text-anchor="middle" x="307.5" y="-208.5" font-family="Helvetica,sans-Serif" font-size="10.00">/renderer/materiallibrary.cpp</text>
</a>
</g>
</g>
<!-- Node1&#45;&gt;Node11 -->
<g id="edge14" class="edge">
<title>Node1&#45;&gt;Node11</title>
<path fill="none" stroke="midnightblue" d="M258.65,-261.6C269.52,-251.78 282.2,-240.34 291.91,-231.58"/>
<polygon fill="midnightblue" stroke="midnightblue" points="256.2,-259.1 251.12,-268.4 260.89,-264.29 256.2,-259.1"/>
</g>
<!-- Node2&#45;&gt;Node1 -->
<g id="edge10" class="edge">
<title>Node2&#45;&gt;Node1</title>
<path fill="none" stroke="midnightblue" d="M193.32,-238.09C204.83,-247.96 217.26,-259.54 225.77,-268.4"/>
<polygon fill="midnightblue" stroke="midnightblue" points="195.46,-235.32 185.55,-231.58 190.97,-240.68 195.46,-235.32"/>
</g>
<!-- Node3 -->
<g id="node3" class="node">
<title>Node3</title>
<g id="a_node3"><a xlink:href="mastermaterial_8h.html" target="_top" xlink:title=" ">
<polygon fill="none" stroke="black" points="292.5,-134.5 292.5,-164.5 422.5,-164.5 422.5,-134.5 292.5,-134.5"/>
<text text-anchor="start" x="300.5" y="-152.5" font-family="Helvetica,sans-Serif" font-size="10.00">/github/workspace/src</text>
<text text-anchor="middle" x="357.5" y="-141.5" font-family="Helvetica,sans-Serif" font-size="10.00">/renderer/mastermaterial.h</text>
</a>
</g>
</g>
<!-- Node2&#45;&gt;Node3 -->
<g id="edge2" class="edge">
<title>Node2&#45;&gt;Node3</title>
<path fill="none" stroke="midnightblue" d="M216.19,-198.09C247.34,-187.6 286.51,-174.41 315.7,-164.58"/>
<polygon fill="midnightblue" stroke="midnightblue" points="214.74,-194.89 206.38,-201.4 216.97,-201.52 214.74,-194.89"/>
</g>
<!-- Node8 -->
<g id="node8" class="node">
<title>Node8</title>
<g id="a_node8"><a xlink:href="material_8cpp.html" target="_top" xlink:title=" ">
<polygon fill="none" stroke="black" points="0,-134.5 0,-164.5 113,-164.5 113,-134.5 0,-134.5"/>
<text text-anchor="start" x="8" y="-152.5" font-family="Helvetica,sans-Serif" font-size="10.00">/github/workspace/src</text>
<text text-anchor="middle" x="56.5" y="-141.5" font-family="Helvetica,sans-Serif" font-size="10.00">/renderer/material.cpp</text>
</a>
</g>
</g>
<!-- Node2&#45;&gt;Node8 -->
<g id="edge9" class="edge">
<title>Node2&#45;&gt;Node8</title>
<path fill="none" stroke="midnightblue" d="M132.13,-196.02C115.32,-185.9 95.16,-173.77 79.89,-164.58"/>
<polygon fill="midnightblue" stroke="midnightblue" points="130.69,-199.24 141.07,-201.4 134.3,-193.24 130.69,-199.24"/>
</g>
<!-- Node9 -->
<g id="node9" class="node">
<title>Node9</title>
<g id="a_node9"><a xlink:href="mesh_8h.html" target="_top" xlink:title=" ">
<polygon fill="none" stroke="black" points="131,-134.5 131,-164.5 244,-164.5 244,-134.5 131,-134.5"/>
<text text-anchor="start" x="139" y="-152.5" font-family="Helvetica,sans-Serif" font-size="10.00">/github/workspace/src</text>
<text text-anchor="middle" x="187.5" y="-141.5" font-family="Helvetica,sans-Serif" font-size="10.00">/renderer/mesh.h</text>
</a>
</g>
</g>
<!-- Node2&#45;&gt;Node9 -->
<g id="edge11" class="edge">
<title>Node2&#45;&gt;Node9</title>
<path fill="none" stroke="midnightblue" d="M172.92,-191.7C176.15,-182.59 179.72,-172.49 182.52,-164.58"/>
<polygon fill="midnightblue" stroke="midnightblue" points="169.53,-190.8 169.49,-201.4 176.13,-193.14 169.53,-190.8"/>
</g>
<!-- Node3&#45;&gt;Node1 -->
<g id="edge4" class="edge">
<title>Node3&#45;&gt;Node1</title>
<path fill="none" stroke="midnightblue" d="M375.28,-173.05C386.67,-190.42 397.15,-214.36 384.5,-232 364.85,-259.41 329.48,-272.13 298.13,-277.95"/>
<polygon fill="midnightblue" stroke="midnightblue" points="377.98,-170.8 369.37,-164.64 372.26,-174.83 377.98,-170.8"/>
</g>
<!-- Node4 -->
<g id="node4" class="node">
<title>Node4</title>
<g id="a_node4"><a xlink:href="mastermaterial_8cpp.html" target="_top" xlink:title=" ">
<polygon fill="none" stroke="black" points="287.5,-67.5 287.5,-97.5 427.5,-97.5 427.5,-67.5 287.5,-67.5"/>
<text text-anchor="start" x="295.5" y="-85.5" font-family="Helvetica,sans-Serif" font-size="10.00">/github/workspace/src</text>
<text text-anchor="middle" x="357.5" y="-74.5" font-family="Helvetica,sans-Serif" font-size="10.00">/renderer/mastermaterial.cpp</text>
</a>
</g>
</g>
<!-- Node3&#45;&gt;Node4 -->
<g id="edge3" class="edge">
<title>Node3&#45;&gt;Node4</title>
<path fill="none" stroke="midnightblue" d="M357.5,-124.11C357.5,-115.15 357.5,-105.32 357.5,-97.58"/>
<polygon fill="midnightblue" stroke="midnightblue" points="354,-124.4 357.5,-134.4 361,-124.4 354,-124.4"/>
</g>
<!-- Node5 -->
<g id="node5" class="node">
<title>Node5</title>
<g id="a_node5"><a xlink:href="modelloader_8h.html" target="_top" xlink:title=" ">
<polygon fill="none" stroke="black" points="151.5,-67.5 151.5,-97.5 269.5,-97.5 269.5,-67.5 151.5,-67.5"/>
<text text-anchor="start" x="159.5" y="-85.5" font-family="Helvetica,sans-Serif" font-size="10.00">/github/workspace/src</text>
<text text-anchor="middle" x="210.5" y="-74.5" font-family="Helvetica,sans-Serif" font-size="10.00">/renderer/modelloader.h</text>
</a>
</g>
</g>
<!-- Node3&#45;&gt;Node5 -->
<g id="edge5" class="edge">
<title>Node3&#45;&gt;Node5</title>
<path fill="none" stroke="midnightblue" d="M316.27,-130.27C292.86,-119.92 263.99,-107.15 242.33,-97.58"/>
<polygon fill="midnightblue" stroke="midnightblue" points="315.04,-133.55 325.6,-134.4 317.87,-127.15 315.04,-133.55"/>
</g>
<!-- Node7 -->
<g id="node7" class="node">
<title>Node7</title>
<g id="a_node7"><a xlink:href="vulkan__voxel__rasterizer__2_8cpp.html" target="_top" xlink:title=" ">
<polygon fill="none" stroke="black" points="330.5,-0.5 330.5,-30.5 504.5,-30.5 504.5,-0.5 330.5,-0.5"/>
<text text-anchor="start" x="338.5" y="-18.5" font-family="Helvetica,sans-Serif" font-size="10.00">/github/workspace/src</text>
<text text-anchor="middle" x="417.5" y="-7.5" font-family="Helvetica,sans-Serif" font-size="10.00">/tests/vulkan_voxel_rasterizer_2.cpp</text>
</a>
</g>
</g>
<!-- Node3&#45;&gt;Node7 -->
<g id="edge8" class="edge">
<title>Node3&#45;&gt;Node7</title>
<path fill="none" stroke="midnightblue" d="M403.77,-129.41C416.7,-121.67 429.19,-111.34 436.5,-98 448.36,-76.34 436.09,-47.51 426.51,-30.58"/>
<polygon fill="midnightblue" stroke="midnightblue" points="401.87,-126.46 394.81,-134.36 405.26,-132.59 401.87,-126.46"/>
</g>
<!-- Node6 -->
<g id="node6" class="node">
<title>Node6</title>
<g id="a_node6"><a xlink:href="modelloader_8cpp.html" target="_top" xlink:title=" ">
<polygon fill="none" stroke="black" points="146.5,-0.5 146.5,-30.5 274.5,-30.5 274.5,-0.5 146.5,-0.5"/>
<text text-anchor="start" x="154.5" y="-18.5" font-family="Helvetica,sans-Serif" font-size="10.00">/github/workspace/src</text>
<text text-anchor="middle" x="210.5" y="-7.5" font-family="Helvetica,sans-Serif" font-size="10.00">/renderer/modelloader.cpp</text>
</a>
</g>
</g>
<!-- Node5&#45;&gt;Node6 -->
<g id="edge6" class="edge">
<title>Node5&#45;&gt;Node6</title>
<path fill="none" stroke="midnightblue" d="M210.5,-57.11C210.5,-48.15 210.5,-38.32 210.5,-30.58"/>
<polygon fill="midnightblue" stroke="midnightblue" points="207,-57.4 210.5,-67.4 214,-57.4 207,-57.4"/>
</g>
<!-- Node5&#45;&gt;Node7 -->
<g id="edge7" class="edge">
<title>Node5&#45;&gt;Node7</title>
<path fill="none" stroke="midnightblue" d="M264.82,-64.44C298.37,-53.91 340.91,-40.55 372.56,-30.61"/>
<polygon fill="midnightblue" stroke="midnightblue" points="263.65,-61.14 255.16,-67.48 265.75,-67.82 263.65,-61.14"/>
</g>
<!-- Node9&#45;&gt;Node5 -->
<g id="edge13" class="edge">
<title>Node9&#45;&gt;Node5</title>
<path fill="none" stroke="midnightblue" d="M195.92,-124.7C199.15,-115.59 202.72,-105.49 205.52,-97.58"/>
<polygon fill="midnightblue" stroke="midnightblue" points="192.53,-123.8 192.49,-134.4 199.13,-126.14 192.53,-123.8"/>
</g>
<!-- Node10 -->
<g id="node10" class="node">
<title>Node10</title>
<g id="a_node10"><a xlink:href="mesh_8cpp.html" target="_top" xlink:title=" ">
<polygon fill="none" stroke="black" points="20,-67.5 20,-97.5 133,-97.5 133,-67.5 20,-67.5"/>
<text text-anchor="start" x="28" y="-85.5" font-family="Helvetica,sans-Serif" font-size="10.00">/github/workspace/src</text>
<text text-anchor="middle" x="76.5" y="-74.5" font-family="Helvetica,sans-Serif" font-size="10.00">/renderer/mesh.cpp</text>
</a>
</g>
</g>
<!-- Node9&#45;&gt;Node10 -->
<g id="edge12" class="edge">
<title>Node9&#45;&gt;Node10</title>
<path fill="none" stroke="midnightblue" d="M154.7,-129.3C137.34,-119.12 116.38,-106.85 100.54,-97.58"/>
<polygon fill="midnightblue" stroke="midnightblue" points="153.02,-132.36 163.41,-134.4 156.55,-126.32 153.02,-132.36"/>
</g>
</g>
</svg>
        <g id="navigator" transform="translate(0 0)" fill="#404254">
                <rect fill="#f2f5e9" fill-opacity="0.5" stroke="#606060" stroke-width=".5" x="0" y="0" width="60" height="60"/>
                <use id="zoomplus" xlink:href="#zoomPlus" x="17" y="9" onmousedown="handleZoom(evt,'in')"/>
                <use id="zoomminus" xlink:href="#zoomMin" x="42" y="9" onmousedown="handleZoom(evt,'out')"/>
                <use id="reset" xlink:href="#resetDef" x="30" y="36" onmousedown="handleReset()"/>
                <g id="arrowUp" xlink:href="#dirArrow" transform="translate(30 24)" onmousedown="handlePan(0,-1)">
                  <use xlink:href="#rim" fill="#404040">
                        <set attributeName="fill" to="#808080" begin="arrowUp.mouseover" end="arrowUp.mouseout"/>
                  </use>
                  <path fill="none" stroke="white" stroke-width="1.5" d="M0,-3.0v7 M-2.5,-0.5L0,-3.0L2.5,-0.5"/>
                </g>
                <g id="arrowRight" xlink:href="#dirArrow" transform="rotate(90) translate(36 -43)" onmousedown="handlePan(1,0)">
                  <use xlink:href="#rim" fill="#404040">
                        <set attributeName="fill" to="#808080" begin="arrowRight.mouseover" end="arrowRight.mouseout"/>
                  </use>
                  <path fill="none" stroke="white" stroke-width="1.5" d="M0,-3.0v7 M-2.5,-0.5L0,-3.0L2.5,-0.5"/>
                </g>
                <g id="arrowDown" xlink:href="#dirArrow" transform="rotate(180) translate(-30 -48)" onmousedown="handlePan(0,1)">
                  <use xlink:href="#rim" fill="#404040">
                        <set attributeName="fill" to="#808080" begin="arrowDown.mouseover" end="arrowDown.mouseout"/>
                  </use>
                  <path fill="none" stroke="white" stroke-width="1.5" d="M0,-3.0v7 M-2.5,-0.5L0,-3.0L2.5,-0.5"/>
                </g>
                <g id="arrowLeft" xlink:href="#dirArrow" transform="rotate(270) translate(-36 17)" onmousedown="handlePan(-1,0)">
                  <use xlink:href="#rim" fill="#404040">
                        <set attributeName="fill" to="#808080" begin="arrowLeft.mouseover" end="arrowLeft.mouseout"/>
                  </use>
                  <path fill="none" stroke="white" stroke-width="1.5" d="M0,-3.0v7 M-2.5,-0.5L0,-3.0L2.5,-0.5"/>
                </g>
        </g>
        <svg viewBox="0 0 15 15" width="100%" height="30px" preserveAspectRatio="xMaxYMin meet">
         <g id="arrow_out" transform="scale(0.3 0.3)">
          <a xlink:href="materiallibrary_8h__dep__incl_org.svg" target="_base">
           <rect id="button" ry="5" rx="5" y="6" x="6" height="38" width="38"
                fill="#f2f5e9" fill-opacity="0.5" stroke="#606060" stroke-width="1.0"/>
           <path id="arrow"
             d="M 11.500037,31.436501 C 11.940474,20.09759 22.043105,11.32322 32.158766,21.979434 L 37.068811,17.246167 C 37.068811,17.246167 37.088388,32 37.088388,32 L 22.160133,31.978069 C 22.160133,31.978069 26.997745,27.140456 26.997745,27.140456 C 18.528582,18.264221 13.291696,25.230495 11.500037,31.436501 z"
             style="fill:#404040;"/>
          </a>
         </g>
        </svg>
</svg>
