<?xml version="1.0" encoding="UTF-8" standalone="no"?>
<!DOCTYPE svg PUBLIC "-//W3C//DTD SVG 1.1//EN"
 "http://www.w3.org/Graphics/SVG/1.1/DTD/svg11.dtd">
<!-- Generated by graphviz version 2.49.3 (20211215.1918)
 -->
<!-- Title: /github/workspace/src/renderer/materiallibrary.cpp Pages: 1 -->
<svg width="1816pt" height="543pt"
 viewBox="0.00 0.00 1816.00 543.00" xmlns="http://www.w3.org/2000/svg" xmlns:xlink="http://www.w3.org/1999/xlink">
<g id="graph0" class="graph" transform="scale(1 1) rotate(0) translate(4 539)">
<title>/github/workspace/src/renderer/materiallibrary.cpp</title>
<!-- Node1 -->
<g id="node1" class="node">
<title>Node1</title>
<g id="a_node1"><a xlink:title=" ">
<polygon fill="#bfbfbf" stroke="black" points="1632,-504.5 1632,-534.5 1768,-534.5 1768,-504.5 1632,-504.5"/>
<text text-anchor="start" x="1640" y="-522.5" font-family="Helvetica,sans-Serif" font-size="10.00">/github/workspace/src</text>
<text text-anchor="middle" x="1700" y="-511.5" font-family="Helvetica,sans-Serif" font-size="10.00">/renderer/materiallibrary.cpp</text>
</a>
</g>
</g>
<!-- Node2 -->
<g id="node2" class="node">
<title>Node2</title>
<g id="a_node2"><a xlink:href="materiallibrary_8h.html" target="_top" xlink:title=" ">
<polygon fill="none" stroke="black" points="1608,-448.5 1608,-467.5 1692,-467.5 1692,-448.5 1608,-448.5"/>
<text text-anchor="middle" x="1650" y="-455.5" font-family="Helvetica,sans-Serif" font-size="10.00">materiallibrary.h</text>
</a>
</g>
</g>
<!-- Node1&#45;&gt;Node2 -->
<g id="edge1" class="edge">
<title>Node1&#45;&gt;Node2</title>
<path fill="none" stroke="midnightblue" d="M1688.15,-504.4C1680.89,-495.75 1671.55,-484.64 1663.93,-475.58"/>
<polygon fill="midnightblue" stroke="midnightblue" points="1666.39,-473.06 1657.28,-467.66 1661.03,-477.57 1666.39,-473.06"/>
</g>
<!-- Node10 -->
<g id="node10" class="node">
<title>Node10</title>
<g id="a_node10"><a xlink:title=" ">
<polygon fill="none" stroke="#bfbfbf" points="1740.5,-280.5 1740.5,-299.5 1779.5,-299.5 1779.5,-280.5 1740.5,-280.5"/>
<text text-anchor="middle" x="1760" y="-287.5" font-family="Helvetica,sans-Serif" font-size="10.00">utility</text>
</a>
</g>
</g>
<!-- Node1&#45;&gt;Node10 -->
<g id="edge84" class="edge">
<title>Node1&#45;&gt;Node10</title>
<path fill="none" stroke="midnightblue" d="M1703.75,-504.27C1714.16,-464.81 1743.38,-354.02 1755.07,-309.68"/>
<polygon fill="midnightblue" stroke="midnightblue" points="1758.48,-310.49 1757.65,-299.93 1751.71,-308.7 1758.48,-310.49"/>
</g>
<!-- Node3 -->
<g id="node3" class="node">
<title>Node3</title>
<g id="a_node3"><a xlink:title=" ">
<polygon fill="none" stroke="#bfbfbf" points="1424,-0.5 1424,-19.5 1468,-19.5 1468,-0.5 1424,-0.5"/>
<text text-anchor="middle" x="1446" y="-7.5" font-family="Helvetica,sans-Serif" font-size="10.00">vector</text>
</a>
</g>
</g>
<!-- Node2&#45;&gt;Node3 -->
<g id="edge2" class="edge">
<title>Node2&#45;&gt;Node3</title>
<path fill="none" stroke="midnightblue" d="M1668.75,-448.38C1710.6,-427.7 1808,-370.97 1808,-291 1808,-291 1808,-291 1808,-121 1808,-52.36 1566.71,-22.48 1478.12,-13.82"/>
<polygon fill="midnightblue" stroke="midnightblue" points="1478.39,-10.33 1468.1,-12.87 1477.72,-17.3 1478.39,-10.33"/>
</g>
<!-- Node4 -->
<g id="node4" class="node">
<title>Node4</title>
<g id="a_node4"><a xlink:title=" ">
<polygon fill="none" stroke="#bfbfbf" points="1615.5,-392.5 1615.5,-411.5 1684.5,-411.5 1684.5,-392.5 1615.5,-392.5"/>
<text text-anchor="middle" x="1650" y="-399.5" font-family="Helvetica,sans-Serif" font-size="10.00">glm/glm.hpp</text>
</a>
</g>
</g>
<!-- Node2&#45;&gt;Node4 -->
<g id="edge3" class="edge">
<title>Node2&#45;&gt;Node4</title>
<path fill="none" stroke="midnightblue" d="M1650,-448.08C1650,-441.01 1650,-430.86 1650,-421.99"/>
<polygon fill="midnightblue" stroke="midnightblue" points="1653.5,-421.75 1650,-411.75 1646.5,-421.75 1653.5,-421.75"/>
</g>
<!-- Node5 -->
<g id="node5" class="node">
<title>Node5</title>
<g id="a_node5"><a xlink:href="mastermaterial_8h.html" target="_top" xlink:title=" ">
<polygon fill="none" stroke="black" points="1073.5,-392.5 1073.5,-411.5 1162.5,-411.5 1162.5,-392.5 1073.5,-392.5"/>
<text text-anchor="middle" x="1118" y="-399.5" font-family="Helvetica,sans-Serif" font-size="10.00">mastermaterial.h</text>
</a>
</g>
</g>
<!-- Node2&#45;&gt;Node5 -->
<g id="edge4" class="edge">
<title>Node2&#45;&gt;Node5</title>
<path fill="none" stroke="midnightblue" d="M1607.81,-452.72C1512.32,-443.02 1279.66,-419.41 1173.03,-408.59"/>
<polygon fill="midnightblue" stroke="midnightblue" points="1173.11,-405.08 1162.81,-407.55 1172.4,-412.04 1173.11,-405.08"/>
</g>
<!-- Node35 -->
<g id="node35" class="node">
<title>Node35</title>
<g id="a_node35"><a xlink:href="uniformbuffer_8h.html" target="_top" xlink:title=" ">
<polygon fill="none" stroke="black" points="1475,-392.5 1475,-411.5 1587,-411.5 1587,-392.5 1475,-392.5"/>
<text text-anchor="middle" x="1531" y="-399.5" font-family="Helvetica,sans-Serif" font-size="10.00">vulkan/uniformbuffer.h</text>
</a>
</g>
</g>
<!-- Node2&#45;&gt;Node35 -->
<g id="edge71" class="edge">
<title>Node2&#45;&gt;Node35</title>
<path fill="none" stroke="midnightblue" d="M1631.14,-448.44C1611.73,-439.64 1581.27,-425.81 1559.04,-415.72"/>
<polygon fill="midnightblue" stroke="midnightblue" points="1560.32,-412.46 1549.77,-411.52 1557.43,-418.84 1560.32,-412.46"/>
</g>
<!-- Node6 -->
<g id="node6" class="node">
<title>Node6</title>
<g id="a_node6"><a xlink:href="shader_8h.html" target="_top" xlink:title=" ">
<polygon fill="none" stroke="black" points="710.5,-336.5 710.5,-355.5 795.5,-355.5 795.5,-336.5 710.5,-336.5"/>
<text text-anchor="middle" x="753" y="-343.5" font-family="Helvetica,sans-Serif" font-size="10.00">vulkan/shader.h</text>
</a>
</g>
</g>
<!-- Node5&#45;&gt;Node6 -->
<g id="edge5" class="edge">
<title>Node5&#45;&gt;Node6</title>
<path fill="none" stroke="midnightblue" d="M1073.24,-394.38C1005.66,-384.38 877.81,-365.47 805.78,-354.81"/>
<polygon fill="midnightblue" stroke="midnightblue" points="805.98,-351.3 795.57,-353.3 804.95,-358.22 805.98,-351.3"/>
</g>
<!-- Node6&#45;&gt;Node3 -->
<g id="edge10" class="edge">
<title>Node6&#45;&gt;Node3</title>
<path fill="none" stroke="midnightblue" d="M795.85,-338.22C896.25,-321.38 1153.31,-272.82 1353,-188 1397.76,-168.99 1417.03,-170.29 1447,-132 1468.33,-104.74 1470.55,-89.99 1464,-56 1462.21,-46.7 1458.52,-36.89 1454.94,-28.8"/>
<polygon fill="midnightblue" stroke="midnightblue" points="1458.06,-27.21 1450.62,-19.66 1451.73,-30.2 1458.06,-27.21"/>
</g>
<!-- Node7 -->
<g id="node7" class="node">
<title>Node7</title>
<g id="a_node7"><a xlink:title=" ">
<polygon fill="none" stroke="#bfbfbf" points="429,-0.5 429,-19.5 513,-19.5 513,-0.5 429,-0.5"/>
<text text-anchor="middle" x="471" y="-7.5" font-family="Helvetica,sans-Serif" font-size="10.00">vulkan/vulkan.h</text>
</a>
</g>
</g>
<!-- Node6&#45;&gt;Node7 -->
<g id="edge6" class="edge">
<title>Node6&#45;&gt;Node7</title>
<path fill="none" stroke="midnightblue" d="M710.45,-344.66C597.32,-343.28 291.41,-336.2 198,-300 153.98,-282.94 114,-282.21 114,-235 114,-235 114,-235 114,-121 114,-57.97 319.8,-27.24 418.89,-16.1"/>
<polygon fill="midnightblue" stroke="midnightblue" points="419.44,-19.56 429,-14.99 418.68,-12.6 419.44,-19.56"/>
</g>
<!-- Node8 -->
<g id="node8" class="node">
<title>Node8</title>
<g id="a_node8"><a xlink:title=" ">
<polygon fill="none" stroke="#bfbfbf" points="223.5,-280.5 223.5,-299.5 272.5,-299.5 272.5,-280.5 223.5,-280.5"/>
<text text-anchor="middle" x="248" y="-287.5" font-family="Helvetica,sans-Serif" font-size="10.00">cassert</text>
</a>
</g>
</g>
<!-- Node6&#45;&gt;Node8 -->
<g id="edge7" class="edge">
<title>Node6&#45;&gt;Node8</title>
<path fill="none" stroke="midnightblue" d="M710.35,-342.75C628.07,-337.99 441.83,-325.23 287,-300 285.54,-299.76 284.06,-299.5 282.56,-299.23"/>
<polygon fill="midnightblue" stroke="midnightblue" points="283.16,-295.78 272.66,-297.2 281.76,-302.63 283.16,-295.78"/>
</g>
<!-- Node9 -->
<g id="node9" class="node">
<title>Node9</title>
<g id="a_node9"><a xlink:title=" ">
<polygon fill="none" stroke="#bfbfbf" points="636.5,-56.5 636.5,-75.5 695.5,-75.5 695.5,-56.5 636.5,-56.5"/>
<text text-anchor="middle" x="666" y="-63.5" font-family="Helvetica,sans-Serif" font-size="10.00">stdexcept</text>
</a>
</g>
</g>
<!-- Node6&#45;&gt;Node9 -->
<g id="edge8" class="edge">
<title>Node6&#45;&gt;Node9</title>
<path fill="none" stroke="midnightblue" d="M795.63,-340.6C854.63,-331.9 954,-306.6 954,-235 954,-235 954,-235 954,-177 954,-143.54 943.52,-131.04 916,-112 840.37,-59.66 800.94,-92.36 705.78,-75.93"/>
<polygon fill="midnightblue" stroke="midnightblue" points="706.25,-72.46 695.77,-74.06 704.96,-79.34 706.25,-72.46"/>
</g>
<!-- Node6&#45;&gt;Node10 -->
<g id="edge9" class="edge">
<title>Node6&#45;&gt;Node10</title>
<path fill="none" stroke="midnightblue" d="M795.63,-342.71C964.73,-333.65 1586.14,-300.32 1730.09,-292.6"/>
<polygon fill="midnightblue" stroke="midnightblue" points="1730.55,-296.08 1740.35,-292.05 1730.18,-289.09 1730.55,-296.08"/>
</g>
<!-- Node11 -->
<g id="node11" class="node">
<title>Node11</title>
<g id="a_node11"><a xlink:title=" ">
<polygon fill="none" stroke="#bfbfbf" points="341.5,-56.5 341.5,-75.5 382.5,-75.5 382.5,-56.5 341.5,-56.5"/>
<text text-anchor="middle" x="362" y="-63.5" font-family="Helvetica,sans-Serif" font-size="10.00">string</text>
</a>
</g>
</g>
<!-- Node6&#45;&gt;Node11 -->
<g id="edge11" class="edge">
<title>Node6&#45;&gt;Node11</title>
<path fill="none" stroke="midnightblue" d="M710.36,-340.44C645.26,-331.63 519.73,-307.22 435,-244 383.09,-205.27 367.91,-122.96 363.62,-85.85"/>
<polygon fill="midnightblue" stroke="midnightblue" points="367.1,-85.47 362.61,-75.88 360.14,-86.18 367.1,-85.47"/>
</g>
<!-- Node12 -->
<g id="node12" class="node">
<title>Node12</title>
<g id="a_node12"><a xlink:href="device_8h.html" target="_top" xlink:title=" ">
<polygon fill="none" stroke="black" points="726.5,-280.5 726.5,-299.5 779.5,-299.5 779.5,-280.5 726.5,-280.5"/>
<text text-anchor="middle" x="753" y="-287.5" font-family="Helvetica,sans-Serif" font-size="10.00">device.h</text>
</a>
</g>
</g>
<!-- Node6&#45;&gt;Node12 -->
<g id="edge12" class="edge">
<title>Node6&#45;&gt;Node12</title>
<path fill="none" stroke="midnightblue" d="M753,-336.08C753,-329.01 753,-318.86 753,-309.99"/>
<polygon fill="midnightblue" stroke="midnightblue" points="756.5,-309.75 753,-299.75 749.5,-309.75 756.5,-309.75"/>
</g>
<!-- Node33 -->
<g id="node33" class="node">
<title>Node33</title>
<g id="a_node33"><a xlink:href="utils_8h.html" target="_top" xlink:title=" ">
<polygon fill="none" stroke="black" points="218,-112.5 218,-131.5 296,-131.5 296,-112.5 218,-112.5"/>
<text text-anchor="middle" x="257" y="-119.5" font-family="Helvetica,sans-Serif" font-size="10.00">../../utils/utils.h</text>
</a>
</g>
</g>
<!-- Node6&#45;&gt;Node33 -->
<g id="edge67" class="edge">
<title>Node6&#45;&gt;Node33</title>
<path fill="none" stroke="midnightblue" d="M710.28,-344.68C588.7,-343.32 247.38,-336.28 214,-300 171.94,-254.28 219.75,-174.5 244.27,-139.86"/>
<polygon fill="midnightblue" stroke="midnightblue" points="247.15,-141.85 250.21,-131.71 241.49,-137.73 247.15,-141.85"/>
</g>
<!-- Node12&#45;&gt;Node3 -->
<g id="edge15" class="edge">
<title>Node12&#45;&gt;Node3</title>
<path fill="none" stroke="midnightblue" d="M779.57,-288.09C849.41,-285.33 1043.66,-275.22 1202,-244 1287.54,-227.13 1308.84,-219.85 1390,-188 1494.73,-146.91 1557.6,-171.54 1617,-76 1649.28,-24.07 1536.3,-13.49 1478.29,-11.43"/>
<polygon fill="midnightblue" stroke="midnightblue" points="1478.24,-7.93 1468.14,-11.14 1478.03,-14.92 1478.24,-7.93"/>
</g>
<!-- Node12&#45;&gt;Node7 -->
<g id="edge13" class="edge">
<title>Node12&#45;&gt;Node7</title>
<path fill="none" stroke="midnightblue" d="M726.41,-288.09C671.01,-285.58 539.66,-276.41 435,-244 327.92,-210.84 268.1,-227.26 209,-132 196.84,-112.4 211.05,-67.93 224,-56 251.7,-30.47 354.63,-18.9 418.55,-14.08"/>
<polygon fill="midnightblue" stroke="midnightblue" points="419.12,-17.54 428.84,-13.33 418.62,-10.56 419.12,-17.54"/>
</g>
<!-- Node12&#45;&gt;Node9 -->
<g id="edge16" class="edge">
<title>Node12&#45;&gt;Node9</title>
<path fill="none" stroke="midnightblue" d="M769.73,-280.48C817.94,-254.86 950.38,-176.32 897,-112 870.96,-80.62 761.89,-84.27 705.91,-75.81"/>
<polygon fill="midnightblue" stroke="midnightblue" points="706.24,-72.31 695.78,-74.01 705.02,-79.2 706.24,-72.31"/>
</g>
<!-- Node12&#45;&gt;Node11 -->
<g id="edge17" class="edge">
<title>Node12&#45;&gt;Node11</title>
<path fill="none" stroke="midnightblue" d="M726.23,-287.81C662.65,-284.52 504.68,-273.51 462,-244 405.44,-204.89 377.05,-122.78 366.71,-85.78"/>
<polygon fill="midnightblue" stroke="midnightblue" points="370.02,-84.61 364.07,-75.84 363.26,-86.41 370.02,-84.61"/>
</g>
<!-- Node13 -->
<g id="node13" class="node">
<title>Node13</title>
<g id="a_node13"><a xlink:title=" ">
<polygon fill="none" stroke="#bfbfbf" points="1520.5,-56.5 1520.5,-75.5 1607.5,-75.5 1607.5,-56.5 1520.5,-56.5"/>
<text text-anchor="middle" x="1564" y="-63.5" font-family="Helvetica,sans-Serif" font-size="10.00">vk_mem_alloc.h</text>
</a>
</g>
</g>
<!-- Node12&#45;&gt;Node13 -->
<g id="edge14" class="edge">
<title>Node12&#45;&gt;Node13</title>
<path fill="none" stroke="midnightblue" d="M779.56,-287.86C865.18,-283.48 1140.67,-264 1353,-188 1428.5,-160.98 1508.1,-107.46 1544.17,-81.63"/>
<polygon fill="midnightblue" stroke="midnightblue" points="1546.32,-84.39 1552.37,-75.69 1542.22,-78.72 1546.32,-84.39"/>
</g>
<!-- Node14 -->
<g id="node14" class="node">
<title>Node14</title>
<g id="a_node14"><a xlink:title=" ">
<polygon fill="none" stroke="#bfbfbf" points="466,-168.5 466,-187.5 496,-187.5 496,-168.5 466,-168.5"/>
<text text-anchor="middle" x="481" y="-175.5" font-family="Helvetica,sans-Serif" font-size="10.00">set</text>
</a>
</g>
</g>
<!-- Node12&#45;&gt;Node14 -->
<g id="edge18" class="edge">
<title>Node12&#45;&gt;Node14</title>
<path fill="none" stroke="midnightblue" d="M731.66,-280.37C681.89,-260.24 558.38,-210.29 505.58,-188.94"/>
<polygon fill="midnightblue" stroke="midnightblue" points="506.87,-185.69 496.29,-185.18 504.24,-192.18 506.87,-185.69"/>
</g>
<!-- Node15 -->
<g id="node15" class="node">
<title>Node15</title>
<g id="a_node15"><a xlink:title=" ">
<polygon fill="none" stroke="#bfbfbf" points="288,-0.5 288,-19.5 334,-19.5 334,-0.5 288,-0.5"/>
<text text-anchor="middle" x="311" y="-7.5" font-family="Helvetica,sans-Serif" font-size="10.00">cstring</text>
</a>
</g>
</g>
<!-- Node12&#45;&gt;Node15 -->
<g id="edge19" class="edge">
<title>Node12&#45;&gt;Node15</title>
<path fill="none" stroke="midnightblue" d="M726.07,-289.03C660.55,-288.46 488.12,-283.03 351,-244 295.17,-228.11 275.58,-227.46 233,-188 189.26,-147.47 172.98,-103.52 209,-56 225.53,-34.2 254.9,-22.75 277.89,-16.87"/>
<polygon fill="midnightblue" stroke="midnightblue" points="278.99,-20.21 287.94,-14.55 277.41,-13.39 278.99,-20.21"/>
</g>
<!-- Node16 -->
<g id="node16" class="node">
<title>Node16</title>
<g id="a_node16"><a xlink:title=" ">
<polygon fill="none" stroke="#bfbfbf" points="140,-0.5 140,-19.5 194,-19.5 194,-0.5 140,-0.5"/>
<text text-anchor="middle" x="167" y="-7.5" font-family="Helvetica,sans-Serif" font-size="10.00">iostream</text>
</a>
</g>
</g>
<!-- Node12&#45;&gt;Node16 -->
<g id="edge20" class="edge">
<title>Node12&#45;&gt;Node16</title>
<path fill="none" stroke="midnightblue" d="M726.2,-287.97C592.06,-282.48 0,-253.98 0,-179 0,-179 0,-179 0,-121 0,-59.26 80.6,-30.21 129.81,-18.23"/>
<polygon fill="midnightblue" stroke="midnightblue" points="130.84,-21.59 139.8,-15.93 129.27,-14.77 130.84,-21.59"/>
</g>
<!-- Node17 -->
<g id="node17" class="node">
<title>Node17</title>
<g id="a_node17"><a xlink:title=" ">
<polygon fill="none" stroke="#bfbfbf" points="846.5,-112.5 846.5,-131.5 887.5,-131.5 887.5,-112.5 846.5,-112.5"/>
<text text-anchor="middle" x="867" y="-119.5" font-family="Helvetica,sans-Serif" font-size="10.00">bitset</text>
</a>
</g>
</g>
<!-- Node12&#45;&gt;Node17 -->
<g id="edge21" class="edge">
<title>Node12&#45;&gt;Node17</title>
<path fill="none" stroke="midnightblue" d="M764.42,-280.35C784.66,-264.38 826.79,-228.24 849,-188 856.96,-173.58 861.6,-155.39 864.18,-141.92"/>
<polygon fill="midnightblue" stroke="midnightblue" points="867.65,-142.35 865.88,-131.91 860.75,-141.18 867.65,-142.35"/>
</g>
<!-- Node18 -->
<g id="node18" class="node">
<title>Node18</title>
<g id="a_node18"><a xlink:title=" ">
<polygon fill="none" stroke="#bfbfbf" points="788.5,-168.5 788.5,-187.5 839.5,-187.5 839.5,-168.5 788.5,-168.5"/>
<text text-anchor="middle" x="814" y="-175.5" font-family="Helvetica,sans-Serif" font-size="10.00">memory</text>
</a>
</g>
</g>
<!-- Node12&#45;&gt;Node18 -->
<g id="edge22" class="edge">
<title>Node12&#45;&gt;Node18</title>
<path fill="none" stroke="midnightblue" d="M757.8,-280.38C762.83,-271.32 770.98,-256.66 778,-244 786.88,-228 796.97,-209.77 804.2,-196.7"/>
<polygon fill="midnightblue" stroke="midnightblue" points="807.33,-198.28 809.11,-187.83 801.21,-194.89 807.33,-198.28"/>
</g>
<!-- Node19 -->
<g id="node19" class="node">
<title>Node19</title>
<g id="a_node19"><a xlink:href="physicaldevice_8h.html" target="_top" xlink:title=" ">
<polygon fill="none" stroke="black" points="681,-224.5 681,-243.5 769,-243.5 769,-224.5 681,-224.5"/>
<text text-anchor="middle" x="725" y="-231.5" font-family="Helvetica,sans-Serif" font-size="10.00">physicaldevice.h</text>
</a>
</g>
</g>
<!-- Node12&#45;&gt;Node19 -->
<g id="edge23" class="edge">
<title>Node12&#45;&gt;Node19</title>
<path fill="none" stroke="midnightblue" d="M748.38,-280.08C744.54,-272.69 738.98,-261.95 734.24,-252.81"/>
<polygon fill="midnightblue" stroke="midnightblue" points="737.25,-251.02 729.54,-243.75 731.03,-254.24 737.25,-251.02"/>
</g>
<!-- Node24 -->
<g id="node24" class="node">
<title>Node24</title>
<g id="a_node24"><a xlink:href="instance_8h.html" target="_top" xlink:title=" ">
<polygon fill="none" stroke="black" points="442.5,-56.5 442.5,-75.5 503.5,-75.5 503.5,-56.5 442.5,-56.5"/>
<text text-anchor="middle" x="473" y="-63.5" font-family="Helvetica,sans-Serif" font-size="10.00">instance.h</text>
</a>
</g>
</g>
<!-- Node12&#45;&gt;Node24 -->
<g id="edge66" class="edge">
<title>Node12&#45;&gt;Node24</title>
<path fill="none" stroke="midnightblue" d="M726.26,-287.06C667.31,-282.37 528.25,-268.92 489,-244 463.39,-227.74 459.08,-216.94 450,-188 438.79,-152.28 453.67,-108.82 464.2,-84.92"/>
<polygon fill="midnightblue" stroke="midnightblue" points="467.45,-86.22 468.49,-75.68 461.1,-83.27 467.45,-86.22"/>
</g>
<!-- Node19&#45;&gt;Node3 -->
<g id="edge29" class="edge">
<title>Node19&#45;&gt;Node3</title>
<path fill="none" stroke="midnightblue" d="M769.05,-233.37C908.33,-233.55 1335.4,-226.27 1427,-132 1453.58,-104.64 1452.24,-56.22 1449.06,-29.68"/>
<polygon fill="midnightblue" stroke="midnightblue" points="1452.52,-29.18 1447.66,-19.77 1445.59,-30.16 1452.52,-29.18"/>
</g>
<!-- Node19&#45;&gt;Node11 -->
<g id="edge25" class="edge">
<title>Node19&#45;&gt;Node11</title>
<path fill="none" stroke="midnightblue" d="M692.69,-224.47C663.91,-216.43 620.92,-203.36 585,-188 508.51,-155.29 423.51,-104.99 384.19,-80.85"/>
<polygon fill="midnightblue" stroke="midnightblue" points="385.99,-77.85 375.64,-75.58 382.31,-83.81 385.99,-77.85"/>
</g>
<!-- Node19&#45;&gt;Node14 -->
<g id="edge26" class="edge">
<title>Node19&#45;&gt;Node14</title>
<path fill="none" stroke="midnightblue" d="M680.66,-224.99C636.99,-216.8 568.51,-203.17 510,-188 508.74,-187.67 507.45,-187.32 506.15,-186.96"/>
<polygon fill="midnightblue" stroke="midnightblue" points="506.86,-183.52 496.27,-184.04 504.87,-190.23 506.86,-183.52"/>
</g>
<!-- Node19&#45;&gt;Node16 -->
<g id="edge27" class="edge">
<title>Node19&#45;&gt;Node16</title>
<path fill="none" stroke="midnightblue" d="M680.86,-225.64C642.94,-218.52 587.23,-206.12 541,-188 523.96,-181.32 522.41,-173.65 505,-168 441.98,-147.53 260.57,-173.61 209,-132 177.81,-106.83 169.72,-57.12 167.66,-29.9"/>
<polygon fill="midnightblue" stroke="midnightblue" points="171.15,-29.54 167.1,-19.75 164.16,-29.93 171.15,-29.54"/>
</g>
<!-- Node19&#45;&gt;Node17 -->
<g id="edge28" class="edge">
<title>Node19&#45;&gt;Node17</title>
<path fill="none" stroke="midnightblue" d="M730.56,-224.49C739.62,-211.12 758.73,-184.95 780,-168 797.28,-154.23 819.43,-142.84 837.06,-134.97"/>
<polygon fill="midnightblue" stroke="midnightblue" points="838.53,-138.15 846.32,-130.97 835.76,-131.72 838.53,-138.15"/>
</g>
<!-- Node19&#45;&gt;Node18 -->
<g id="edge30" class="edge">
<title>Node19&#45;&gt;Node18</title>
<path fill="none" stroke="midnightblue" d="M739.3,-224.32C753.18,-215.9 774.49,-202.97 790.8,-193.07"/>
<polygon fill="midnightblue" stroke="midnightblue" points="793,-195.83 799.74,-187.65 789.37,-189.85 793,-195.83"/>
</g>
<!-- Node20 -->
<g id="node20" class="node">
<title>Node20</title>
<g id="a_node20"><a xlink:title=" ">
<polygon fill="none" stroke="#bfbfbf" points="1310,-112.5 1310,-131.5 1418,-131.5 1418,-112.5 1310,-112.5"/>
<text text-anchor="middle" x="1364" y="-119.5" font-family="Helvetica,sans-Serif" font-size="10.00">vulkan/vulkan_core.h</text>
</a>
</g>
</g>
<!-- Node19&#45;&gt;Node20 -->
<g id="edge24" class="edge">
<title>Node19&#45;&gt;Node20</title>
<path fill="none" stroke="midnightblue" d="M769.06,-228.31C833.89,-221.15 958.72,-206.36 1064,-188 1155.13,-172.11 1260.6,-147.88 1319.07,-133.93"/>
<polygon fill="midnightblue" stroke="midnightblue" points="1320.17,-137.27 1329.08,-131.53 1318.54,-130.46 1320.17,-137.27"/>
</g>
<!-- Node21 -->
<g id="node21" class="node">
<title>Node21</title>
<g id="a_node21"><a xlink:href="types_8h.html" target="_top" xlink:title=" ">
<polygon fill="none" stroke="black" points="684.5,-168.5 684.5,-187.5 731.5,-187.5 731.5,-168.5 684.5,-168.5"/>
<text text-anchor="middle" x="708" y="-175.5" font-family="Helvetica,sans-Serif" font-size="10.00">types.h</text>
</a>
</g>
</g>
<!-- Node19&#45;&gt;Node21 -->
<g id="edge31" class="edge">
<title>Node19&#45;&gt;Node21</title>
<path fill="none" stroke="midnightblue" d="M722.19,-224.08C719.92,-216.85 716.63,-206.41 713.79,-197.4"/>
<polygon fill="midnightblue" stroke="midnightblue" points="717.1,-196.24 710.75,-187.75 710.42,-198.34 717.1,-196.24"/>
</g>
<!-- Node23 -->
<g id="node23" class="node">
<title>Node23</title>
<g id="a_node23"><a xlink:href="vulkanclass_8h.html" target="_top" xlink:title=" ">
<polygon fill="none" stroke="black" points="714,-56.5 714,-75.5 790,-75.5 790,-56.5 714,-56.5"/>
<text text-anchor="middle" x="752" y="-63.5" font-family="Helvetica,sans-Serif" font-size="10.00">vulkanclass.h</text>
</a>
</g>
</g>
<!-- Node19&#45;&gt;Node23 -->
<g id="edge35" class="edge">
<title>Node19&#45;&gt;Node23</title>
<path fill="none" stroke="midnightblue" d="M711.22,-224.44C699.63,-216.47 683.62,-203.52 675,-188 658.45,-158.22 647.29,-141.1 665,-112 674.46,-96.46 691.21,-86.05 707.5,-79.19"/>
<polygon fill="midnightblue" stroke="midnightblue" points="708.9,-82.4 716.99,-75.55 706.4,-75.87 708.9,-82.4"/>
</g>
<!-- Node19&#45;&gt;Node24 -->
<g id="edge37" class="edge">
<title>Node19&#45;&gt;Node24</title>
<path fill="none" stroke="midnightblue" d="M697.04,-224.45C655.73,-209.39 578.05,-175.6 522,-132 504.35,-118.27 487.74,-98.71 478.59,-84.64"/>
<polygon fill="midnightblue" stroke="midnightblue" points="481.57,-82.81 473.53,-75.92 475.52,-86.32 481.57,-82.81"/>
</g>
<!-- Node26 -->
<g id="node26" class="node">
<title>Node26</title>
<g id="a_node26"><a xlink:href="queues_8h.html" target="_top" xlink:title=" ">
<polygon fill="none" stroke="black" points="999,-168.5 999,-187.5 1055,-187.5 1055,-168.5 999,-168.5"/>
<text text-anchor="middle" x="1027" y="-175.5" font-family="Helvetica,sans-Serif" font-size="10.00">queues.h</text>
</a>
</g>
</g>
<!-- Node19&#45;&gt;Node26 -->
<g id="edge44" class="edge">
<title>Node19&#45;&gt;Node26</title>
<path fill="none" stroke="midnightblue" d="M767.76,-224.44C826.88,-213.44 932.41,-194.61 988.95,-185.01"/>
<polygon fill="midnightblue" stroke="midnightblue" points="989.63,-188.44 998.91,-183.33 988.47,-181.54 989.63,-188.44"/>
</g>
<!-- Node21&#45;&gt;Node3 -->
<g id="edge33" class="edge">
<title>Node21&#45;&gt;Node3</title>
<path fill="none" stroke="midnightblue" d="M713.47,-168.07C722.85,-153.62 743.5,-125.36 769,-112 883.84,-51.83 1294.7,-20.86 1413.57,-13.02"/>
<polygon fill="midnightblue" stroke="midnightblue" points="1414.08,-16.5 1423.83,-12.35 1413.63,-9.51 1414.08,-16.5"/>
</g>
<!-- Node21&#45;&gt;Node7 -->
<g id="edge32" class="edge">
<title>Node21&#45;&gt;Node7</title>
<path fill="none" stroke="midnightblue" d="M684.4,-172.62C645.81,-165.09 571.48,-148.83 551,-132 521.67,-107.89 533.64,-87.19 512,-56 504.79,-45.6 495.35,-35.09 487.35,-26.84"/>
<polygon fill="midnightblue" stroke="midnightblue" points="489.78,-24.32 480.24,-19.7 484.82,-29.26 489.78,-24.32"/>
</g>
<!-- Node22 -->
<g id="node22" class="node">
<title>Node22</title>
<g id="a_node22"><a xlink:title=" ">
<polygon fill="none" stroke="#bfbfbf" points="778,-112.5 778,-131.5 828,-131.5 828,-112.5 778,-112.5"/>
<text text-anchor="middle" x="803" y="-119.5" font-family="Helvetica,sans-Serif" font-size="10.00">optional</text>
</a>
</g>
</g>
<!-- Node21&#45;&gt;Node22 -->
<g id="edge34" class="edge">
<title>Node21&#45;&gt;Node22</title>
<path fill="none" stroke="midnightblue" d="M723.26,-168.32C738.22,-159.82 761.25,-146.73 778.73,-136.8"/>
<polygon fill="midnightblue" stroke="midnightblue" points="780.81,-139.64 787.77,-131.65 777.35,-133.55 780.81,-139.64"/>
</g>
<!-- Node23&#45;&gt;Node7 -->
<g id="edge36" class="edge">
<title>Node23&#45;&gt;Node7</title>
<path fill="none" stroke="midnightblue" d="M713.81,-57.66C664.51,-48.19 578.5,-31.66 523.19,-21.03"/>
<polygon fill="midnightblue" stroke="midnightblue" points="523.72,-17.57 513.24,-19.12 522.4,-24.44 523.72,-17.57"/>
</g>
<!-- Node24&#45;&gt;Node3 -->
<g id="edge40" class="edge">
<title>Node24&#45;&gt;Node3</title>
<path fill="none" stroke="midnightblue" d="M503.68,-63.18C534.76,-61.33 584.22,-58.43 627,-56 933.14,-38.64 1303.72,-18.65 1413.74,-12.73"/>
<polygon fill="midnightblue" stroke="midnightblue" points="1414.05,-16.22 1423.85,-12.19 1413.67,-9.23 1414.05,-16.22"/>
</g>
<!-- Node24&#45;&gt;Node7 -->
<g id="edge38" class="edge">
<title>Node24&#45;&gt;Node7</title>
<path fill="none" stroke="midnightblue" d="M472.67,-56.08C472.41,-49.01 472.03,-38.86 471.7,-29.99"/>
<polygon fill="midnightblue" stroke="midnightblue" points="475.19,-29.61 471.32,-19.75 468.2,-29.87 475.19,-29.61"/>
</g>
<!-- Node24&#45;&gt;Node15 -->
<g id="edge41" class="edge">
<title>Node24&#45;&gt;Node15</title>
<path fill="none" stroke="midnightblue" d="M447.33,-56.44C419.36,-47.12 374.51,-32.17 343.96,-21.99"/>
<polygon fill="midnightblue" stroke="midnightblue" points="344.78,-18.57 334.19,-18.73 342.57,-25.21 344.78,-18.57"/>
</g>
<!-- Node24&#45;&gt;Node16 -->
<g id="edge42" class="edge">
<title>Node24&#45;&gt;Node16</title>
<path fill="none" stroke="midnightblue" d="M442.26,-59.58C385.67,-49.59 265.22,-28.33 204.15,-17.56"/>
<polygon fill="midnightblue" stroke="midnightblue" points="204.63,-14.09 194.17,-15.8 203.41,-20.98 204.63,-14.09"/>
</g>
<!-- Node24&#45;&gt;Node19 -->
<g id="edge43" class="edge">
<title>Node24&#45;&gt;Node19</title>
<path fill="none" stroke="midnightblue" d="M485.06,-75.92C498.12,-89.38 518.27,-115.1 540,-132 591.45,-172.02 661.13,-203.78 698.74,-220.37"/>
<polygon fill="midnightblue" stroke="midnightblue" points="697.46,-223.63 708.02,-224.45 700.28,-217.22 697.46,-223.63"/>
</g>
<!-- Node25 -->
<g id="node25" class="node">
<title>Node25</title>
<g id="a_node25"><a xlink:title=" ">
<polygon fill="none" stroke="#bfbfbf" points="530.5,-0.5 530.5,-19.5 609.5,-19.5 609.5,-0.5 530.5,-0.5"/>
<text text-anchor="middle" x="570" y="-7.5" font-family="Helvetica,sans-Serif" font-size="10.00">GLFW/glfw3.h</text>
</a>
</g>
</g>
<!-- Node24&#45;&gt;Node25 -->
<g id="edge39" class="edge">
<title>Node24&#45;&gt;Node25</title>
<path fill="none" stroke="midnightblue" d="M488.58,-56.32C504,-47.74 527.81,-34.49 545.71,-24.52"/>
<polygon fill="midnightblue" stroke="midnightblue" points="547.42,-27.58 554.45,-19.65 544.01,-21.46 547.42,-27.58"/>
</g>
<!-- Node26&#45;&gt;Node3 -->
<g id="edge46" class="edge">
<title>Node26&#45;&gt;Node3</title>
<path fill="none" stroke="midnightblue" d="M1055.04,-169.17C1056.72,-168.76 1058.38,-168.36 1060,-168 1149.4,-147.92 1177.9,-165.98 1263,-132 1297.69,-118.15 1386.67,-54.48 1426.37,-25.47"/>
<polygon fill="midnightblue" stroke="midnightblue" points="1428.49,-28.26 1434.48,-19.52 1424.35,-22.61 1428.49,-28.26"/>
</g>
<!-- Node26&#45;&gt;Node12 -->
<g id="edge54" class="edge">
<title>Node26&#45;&gt;Node12</title>
<path fill="none" stroke="midnightblue" d="M1016.66,-187.7C999.65,-201.58 964.25,-228.72 930,-244 883.88,-264.58 826.63,-276.97 789.96,-283.4"/>
<polygon fill="midnightblue" stroke="midnightblue" points="789,-280.01 779.73,-285.13 790.17,-286.91 789,-280.01"/>
</g>
<!-- Node26&#45;&gt;Node17 -->
<g id="edge50" class="edge">
<title>Node26&#45;&gt;Node17</title>
<path fill="none" stroke="midnightblue" d="M1001.65,-168.44C973.31,-158.88 927.44,-143.4 897.24,-133.21"/>
<polygon fill="midnightblue" stroke="midnightblue" points="898.25,-129.85 887.65,-129.97 896.01,-136.49 898.25,-129.85"/>
</g>
<!-- Node26&#45;&gt;Node19 -->
<g id="edge55" class="edge">
<title>Node26&#45;&gt;Node19</title>
<path fill="none" stroke="midnightblue" d="M998.83,-184.82C948.7,-194.3 843.69,-213.12 779.2,-224.23"/>
<polygon fill="midnightblue" stroke="midnightblue" points="778.48,-220.8 769.21,-225.94 779.66,-227.7 778.48,-220.8"/>
</g>
<!-- Node26&#45;&gt;Node20 -->
<g id="edge45" class="edge">
<title>Node26&#45;&gt;Node20</title>
<path fill="none" stroke="midnightblue" d="M1055.15,-172.49C1108.86,-163.88 1227.16,-144.93 1300.76,-133.13"/>
<polygon fill="midnightblue" stroke="midnightblue" points="1301.52,-136.56 1310.84,-131.52 1300.41,-129.65 1301.52,-136.56"/>
</g>
<!-- Node26&#45;&gt;Node22 -->
<g id="edge49" class="edge">
<title>Node26&#45;&gt;Node22</title>
<path fill="none" stroke="midnightblue" d="M998.78,-170.45C961.81,-161.83 894.97,-146.11 838,-132 837.9,-131.98 837.8,-131.95 837.7,-131.93"/>
<polygon fill="midnightblue" stroke="midnightblue" points="838.77,-128.59 828.22,-129.54 837.07,-135.38 838.77,-128.59"/>
</g>
<!-- Node26&#45;&gt;Node23 -->
<g id="edge53" class="edge">
<title>Node26&#45;&gt;Node23</title>
<path fill="none" stroke="midnightblue" d="M1021.7,-168.23C1012.6,-154.01 992.61,-126.07 968,-112 915.6,-82.03 845.87,-71.91 799.99,-68.55"/>
<polygon fill="midnightblue" stroke="midnightblue" points="800.22,-65.06 790.01,-67.9 799.76,-72.04 800.22,-65.06"/>
</g>
<!-- Node27 -->
<g id="node27" class="node">
<title>Node27</title>
<g id="a_node27"><a xlink:title=" ">
<polygon fill="none" stroke="#bfbfbf" points="1020.5,-112.5 1020.5,-131.5 1055.5,-131.5 1055.5,-112.5 1020.5,-112.5"/>
<text text-anchor="middle" x="1038" y="-119.5" font-family="Helvetica,sans-Serif" font-size="10.00">map</text>
</a>
</g>
</g>
<!-- Node26&#45;&gt;Node27 -->
<g id="edge47" class="edge">
<title>Node26&#45;&gt;Node27</title>
<path fill="none" stroke="midnightblue" d="M1028.82,-168.08C1030.27,-160.93 1032.37,-150.64 1034.19,-141.69"/>
<polygon fill="midnightblue" stroke="midnightblue" points="1037.65,-142.25 1036.22,-131.75 1030.79,-140.85 1037.65,-142.25"/>
</g>
<!-- Node28 -->
<g id="node28" class="node">
<title>Node28</title>
<g id="a_node28"><a xlink:title=" ">
<polygon fill="none" stroke="#bfbfbf" points="1074,-112.5 1074,-131.5 1130,-131.5 1130,-112.5 1074,-112.5"/>
<text text-anchor="middle" x="1102" y="-119.5" font-family="Helvetica,sans-Serif" font-size="10.00">algorithm</text>
</a>
</g>
</g>
<!-- Node26&#45;&gt;Node28 -->
<g id="edge48" class="edge">
<title>Node26&#45;&gt;Node28</title>
<path fill="none" stroke="midnightblue" d="M1039.05,-168.32C1050.46,-160.11 1067.83,-147.6 1081.43,-137.81"/>
<polygon fill="midnightblue" stroke="midnightblue" points="1083.66,-140.52 1089.73,-131.83 1079.57,-134.84 1083.66,-140.52"/>
</g>
<!-- Node29 -->
<g id="node29" class="node">
<title>Node29</title>
<g id="a_node29"><a xlink:title=" ">
<polygon fill="none" stroke="#bfbfbf" points="1148,-112.5 1148,-131.5 1192,-131.5 1192,-112.5 1148,-112.5"/>
<text text-anchor="middle" x="1170" y="-119.5" font-family="Helvetica,sans-Serif" font-size="10.00">thread</text>
</a>
</g>
</g>
<!-- Node26&#45;&gt;Node29 -->
<g id="edge51" class="edge">
<title>Node26&#45;&gt;Node29</title>
<path fill="none" stroke="midnightblue" d="M1049.66,-168.44C1073.54,-159.42 1111.35,-145.15 1138.21,-135"/>
<polygon fill="midnightblue" stroke="midnightblue" points="1139.8,-138.15 1147.92,-131.34 1137.33,-131.6 1139.8,-138.15"/>
</g>
<!-- Node30 -->
<g id="node30" class="node">
<title>Node30</title>
<g id="a_node30"><a xlink:title=" ">
<polygon fill="none" stroke="#bfbfbf" points="1210.5,-112.5 1210.5,-131.5 1253.5,-131.5 1253.5,-112.5 1210.5,-112.5"/>
<text text-anchor="middle" x="1232" y="-119.5" font-family="Helvetica,sans-Serif" font-size="10.00">mutex</text>
</a>
</g>
</g>
<!-- Node26&#45;&gt;Node30 -->
<g id="edge52" class="edge">
<title>Node26&#45;&gt;Node30</title>
<path fill="none" stroke="midnightblue" d="M1055.09,-170.01C1087.66,-161.84 1143.19,-147.73 1200.4,-132.1"/>
<polygon fill="midnightblue" stroke="midnightblue" points="1201.62,-135.4 1210.34,-129.38 1199.77,-128.65 1201.62,-135.4"/>
</g>
<!-- Node31 -->
<g id="node31" class="node">
<title>Node31</title>
<g id="a_node31"><a xlink:href="window_8h.html" target="_top" xlink:title=" ">
<polygon fill="none" stroke="black" points="560.5,-112.5 560.5,-131.5 617.5,-131.5 617.5,-112.5 560.5,-112.5"/>
<text text-anchor="middle" x="589" y="-119.5" font-family="Helvetica,sans-Serif" font-size="10.00">window.h</text>
</a>
</g>
</g>
<!-- Node26&#45;&gt;Node31 -->
<g id="edge56" class="edge">
<title>Node26&#45;&gt;Node31</title>
<path fill="none" stroke="midnightblue" d="M998.93,-173.54C923.19,-164.2 714.45,-138.47 627.65,-127.76"/>
<polygon fill="midnightblue" stroke="midnightblue" points="628.04,-124.29 617.68,-126.54 627.18,-131.23 628.04,-124.29"/>
</g>
<!-- Node32 -->
<g id="node32" class="node">
<title>Node32</title>
<g id="a_node32"><a xlink:href="fence_8h.html" target="_top" xlink:title=" ">
<polygon fill="none" stroke="black" points="674,-112.5 674,-131.5 722,-131.5 722,-112.5 674,-112.5"/>
<text text-anchor="middle" x="698" y="-119.5" font-family="Helvetica,sans-Serif" font-size="10.00">fence.h</text>
</a>
</g>
</g>
<!-- Node26&#45;&gt;Node32 -->
<g id="edge61" class="edge">
<title>Node26&#45;&gt;Node32</title>
<path fill="none" stroke="midnightblue" d="M998.95,-172.4C938.89,-162.54 798.02,-139.42 732.56,-128.67"/>
<polygon fill="midnightblue" stroke="midnightblue" points="732.79,-125.16 722.36,-127 731.66,-132.07 732.79,-125.16"/>
</g>
<!-- Node31&#45;&gt;Node9 -->
<g id="edge59" class="edge">
<title>Node31&#45;&gt;Node9</title>
<path fill="none" stroke="midnightblue" d="M601.37,-112.32C613.16,-104.06 631.13,-91.45 645.14,-81.63"/>
<polygon fill="midnightblue" stroke="midnightblue" points="647.48,-84.26 653.66,-75.65 643.46,-78.53 647.48,-84.26"/>
</g>
<!-- Node31&#45;&gt;Node11 -->
<g id="edge58" class="edge">
<title>Node31&#45;&gt;Node11</title>
<path fill="none" stroke="midnightblue" d="M560.25,-114.16C517.29,-103.94 436.68,-84.77 392.64,-74.29"/>
<polygon fill="midnightblue" stroke="midnightblue" points="393.33,-70.86 382.79,-71.95 391.71,-77.67 393.33,-70.86"/>
</g>
<!-- Node31&#45;&gt;Node24 -->
<g id="edge60" class="edge">
<title>Node31&#45;&gt;Node24</title>
<path fill="none" stroke="midnightblue" d="M570.62,-112.44C551.78,-103.68 522.27,-89.94 500.62,-79.86"/>
<polygon fill="midnightblue" stroke="midnightblue" points="501.84,-76.56 491.29,-75.52 498.88,-82.91 501.84,-76.56"/>
</g>
<!-- Node31&#45;&gt;Node25 -->
<g id="edge57" class="edge">
<title>Node31&#45;&gt;Node25</title>
<path fill="none" stroke="midnightblue" d="M587.51,-112.37C584.44,-94.62 577.37,-53.67 573.21,-29.6"/>
<polygon fill="midnightblue" stroke="midnightblue" points="576.64,-28.85 571.48,-19.59 569.74,-30.04 576.64,-28.85"/>
</g>
<!-- Node32&#45;&gt;Node7 -->
<g id="edge62" class="edge">
<title>Node32&#45;&gt;Node7</title>
<path fill="none" stroke="midnightblue" d="M680.19,-112.37C640.57,-93.17 544.96,-46.84 497.98,-24.07"/>
<polygon fill="midnightblue" stroke="midnightblue" points="499.25,-20.8 488.73,-19.59 496.2,-27.1 499.25,-20.8"/>
</g>
<!-- Node32&#45;&gt;Node12 -->
<g id="edge65" class="edge">
<title>Node32&#45;&gt;Node12</title>
<path fill="none" stroke="midnightblue" d="M673.95,-126.65C614.32,-135.8 463.97,-159.61 457,-168 451.32,-174.84 452.09,-180.59 457,-188 514.07,-274.2 649.99,-288.05 715.89,-289.48"/>
<polygon fill="midnightblue" stroke="midnightblue" points="716.18,-292.99 726.23,-289.62 716.27,-285.99 716.18,-292.99"/>
</g>
<!-- Node32&#45;&gt;Node13 -->
<g id="edge63" class="edge">
<title>Node32&#45;&gt;Node13</title>
<path fill="none" stroke="midnightblue" d="M722.27,-117.5C735.97,-115.63 753.41,-113.43 769,-112 1047.18,-86.53 1381.53,-73.23 1510.06,-68.76"/>
<polygon fill="midnightblue" stroke="midnightblue" points="1510.53,-72.24 1520.4,-68.4 1510.29,-65.25 1510.53,-72.24"/>
</g>
<!-- Node32&#45;&gt;Node23 -->
<g id="edge64" class="edge">
<title>Node32&#45;&gt;Node23</title>
<path fill="none" stroke="midnightblue" d="M706.92,-112.08C714.78,-104.22 726.43,-92.57 735.92,-83.08"/>
<polygon fill="midnightblue" stroke="midnightblue" points="738.65,-85.3 743.25,-75.75 733.7,-80.35 738.65,-85.3"/>
</g>
<!-- Node33&#45;&gt;Node3 -->
<g id="edge68" class="edge">
<title>Node33&#45;&gt;Node3</title>
<path fill="none" stroke="midnightblue" d="M263.69,-112.2C275.55,-97.39 301.88,-67.93 332,-56 434.73,-15.3 1240.56,-11.4 1413.42,-11.04"/>
<polygon fill="midnightblue" stroke="midnightblue" points="1413.66,-14.54 1423.66,-11.02 1413.65,-7.54 1413.66,-14.54"/>
</g>
<!-- Node33&#45;&gt;Node11 -->
<g id="edge69" class="edge">
<title>Node33&#45;&gt;Node11</title>
<path fill="none" stroke="midnightblue" d="M273.87,-112.32C290.71,-103.66 316.81,-90.24 336.24,-80.25"/>
<polygon fill="midnightblue" stroke="midnightblue" points="337.88,-83.34 345.17,-75.65 334.68,-77.12 337.88,-83.34"/>
</g>
<!-- Node34 -->
<g id="node34" class="node">
<title>Node34</title>
<g id="a_node34"><a xlink:title=" ">
<polygon fill="none" stroke="#bfbfbf" points="233,-56.5 233,-75.5 283,-75.5 283,-56.5 233,-56.5"/>
<text text-anchor="middle" x="258" y="-63.5" font-family="Helvetica,sans-Serif" font-size="10.00">fstream</text>
</a>
</g>
</g>
<!-- Node33&#45;&gt;Node34 -->
<g id="edge70" class="edge">
<title>Node33&#45;&gt;Node34</title>
<path fill="none" stroke="midnightblue" d="M257.17,-112.08C257.3,-105.01 257.48,-94.86 257.65,-85.99"/>
<polygon fill="midnightblue" stroke="midnightblue" points="261.15,-85.81 257.84,-75.75 254.15,-85.68 261.15,-85.81"/>
</g>
<!-- Node35&#45;&gt;Node7 -->
<g id="edge72" class="edge">
<title>Node35&#45;&gt;Node7</title>
<path fill="none" stroke="midnightblue" d="M1474.75,-399.86C1202.87,-393.97 38,-364.46 38,-291 38,-291 38,-291 38,-177 38,-102.19 88.23,-89.74 155,-56 200.08,-33.22 341.22,-20.06 418.74,-14.38"/>
<polygon fill="midnightblue" stroke="midnightblue" points="419.05,-17.86 428.78,-13.65 418.55,-10.88 419.05,-17.86"/>
</g>
<!-- Node35&#45;&gt;Node10 -->
<g id="edge74" class="edge">
<title>Node35&#45;&gt;Node10</title>
<path fill="none" stroke="midnightblue" d="M1578.43,-392.48C1623.27,-383.8 1686.75,-369.7 1708,-356 1726.53,-344.05 1741.45,-323.26 1750.47,-308.41"/>
<polygon fill="midnightblue" stroke="midnightblue" points="1753.55,-310.06 1755.53,-299.66 1747.49,-306.56 1753.55,-310.06"/>
</g>
<!-- Node35&#45;&gt;Node12 -->
<g id="edge75" class="edge">
<title>Node35&#45;&gt;Node12</title>
<path fill="none" stroke="midnightblue" d="M1474.74,-393.04C1324.15,-371.75 914.89,-313.89 789.81,-296.2"/>
<polygon fill="midnightblue" stroke="midnightblue" points="790,-292.7 779.61,-294.76 789.02,-299.63 790,-292.7"/>
</g>
<!-- Node35&#45;&gt;Node13 -->
<g id="edge73" class="edge">
<title>Node35&#45;&gt;Node13</title>
<path fill="none" stroke="midnightblue" d="M1558.77,-392.47C1595.99,-379.36 1660.52,-350.35 1688,-300 1732.65,-218.19 1628.08,-119.3 1583.21,-82.11"/>
<polygon fill="midnightblue" stroke="midnightblue" points="1585.31,-79.3 1575.34,-75.71 1580.89,-84.73 1585.31,-79.3"/>
</g>
<!-- Node35&#45;&gt;Node26 -->
<g id="edge83" class="edge">
<title>Node35&#45;&gt;Node26</title>
<path fill="none" stroke="midnightblue" d="M1511.55,-392.43C1434.14,-358.34 1147.67,-232.15 1055.65,-191.62"/>
<polygon fill="midnightblue" stroke="midnightblue" points="1056.95,-188.37 1046.39,-187.54 1054.13,-194.78 1056.95,-188.37"/>
</g>
<!-- Node36 -->
<g id="node36" class="node">
<title>Node36</title>
<g id="a_node36"><a xlink:href="buffer_8h.html" target="_top" xlink:title=" ">
<polygon fill="none" stroke="black" points="1507,-336.5 1507,-355.5 1555,-355.5 1555,-336.5 1507,-336.5"/>
<text text-anchor="middle" x="1531" y="-343.5" font-family="Helvetica,sans-Serif" font-size="10.00">buffer.h</text>
</a>
</g>
</g>
<!-- Node35&#45;&gt;Node36 -->
<g id="edge76" class="edge">
<title>Node35&#45;&gt;Node36</title>
<path fill="none" stroke="midnightblue" d="M1531,-392.08C1531,-385.01 1531,-374.86 1531,-365.99"/>
<polygon fill="midnightblue" stroke="midnightblue" points="1534.5,-365.75 1531,-355.75 1527.5,-365.75 1534.5,-365.75"/>
</g>
<!-- Node36&#45;&gt;Node3 -->
<g id="edge82" class="edge">
<title>Node36&#45;&gt;Node3</title>
<path fill="none" stroke="midnightblue" d="M1548.98,-336.36C1563.16,-328.68 1582.4,-316.16 1594,-300 1658.05,-210.79 1700.97,-142.26 1633,-56 1614.08,-31.99 1526.59,-19.31 1478.28,-14.03"/>
<polygon fill="midnightblue" stroke="midnightblue" points="1478.63,-10.55 1468.32,-12.99 1477.9,-17.51 1478.63,-10.55"/>
</g>
<!-- Node36&#45;&gt;Node12 -->
<g id="edge79" class="edge">
<title>Node36&#45;&gt;Node12</title>
<path fill="none" stroke="midnightblue" d="M1506.86,-343.32C1394.86,-335.55 925.55,-302.98 789.88,-293.56"/>
<polygon fill="midnightblue" stroke="midnightblue" points="789.82,-290.05 779.6,-292.85 789.34,-297.03 789.82,-290.05"/>
</g>
<!-- Node36&#45;&gt;Node13 -->
<g id="edge78" class="edge">
<title>Node36&#45;&gt;Node13</title>
<path fill="none" stroke="midnightblue" d="M1541.47,-336.31C1551.06,-327.88 1565.07,-314.3 1574,-300 1590.31,-273.88 1598,-265.8 1598,-235 1598,-235 1598,-235 1598,-177 1598,-143.16 1583.13,-105.97 1573.06,-84.66"/>
<polygon fill="midnightblue" stroke="midnightblue" points="1576.14,-82.99 1568.59,-75.56 1569.86,-86.08 1576.14,-82.99"/>
</g>
<!-- Node36&#45;&gt;Node20 -->
<g id="edge77" class="edge">
<title>Node36&#45;&gt;Node20</title>
<path fill="none" stroke="midnightblue" d="M1526.5,-336.32C1519.77,-323.6 1506.45,-299.31 1493,-280 1455.36,-225.96 1404.01,-167.24 1378.97,-139.41"/>
<polygon fill="midnightblue" stroke="midnightblue" points="1381.39,-136.87 1372.09,-131.8 1376.2,-141.57 1381.39,-136.87"/>
</g>
<!-- Node36&#45;&gt;Node23 -->
<g id="edge80" class="edge">
<title>Node36&#45;&gt;Node23</title>
<path fill="none" stroke="midnightblue" d="M1530.29,-336.14C1526.87,-300.36 1508.77,-165.82 1427,-112 1375.02,-77.79 946.44,-69.38 800.47,-67.5"/>
<polygon fill="midnightblue" stroke="midnightblue" points="800.1,-63.99 790.05,-67.37 800.01,-70.99 800.1,-63.99"/>
</g>
<!-- Node36&#45;&gt;Node26 -->
<g id="edge81" class="edge">
<title>Node36&#45;&gt;Node26</title>
<path fill="none" stroke="midnightblue" d="M1523.81,-336.38C1504.17,-313.48 1446.83,-251.09 1384,-224 1327.31,-199.56 1145.39,-186.04 1065.38,-181.14"/>
<polygon fill="midnightblue" stroke="midnightblue" points="1065.43,-177.64 1055.24,-180.53 1065.01,-184.62 1065.43,-177.64"/>
</g>
</g>
</svg>
