<?xml version="1.0" encoding="UTF-8" standalone="no"?>
<!DOCTYPE svg PUBLIC "-//W3C//DTD SVG 1.1//EN"
 "http://www.w3.org/Graphics/SVG/1.1/DTD/svg11.dtd">
<!-- Generated by graphviz version 2.49.3 (20211215.1918)
 -->
<!-- Title: /github/workspace/src/renderer/material.cpp Pages: 1 -->
<svg width="3562pt" height="935pt"
 viewBox="0.00 0.00 3562.00 935.00" xmlns="http://www.w3.org/2000/svg" xmlns:xlink="http://www.w3.org/1999/xlink">
<g id="graph0" class="graph" transform="scale(1 1) rotate(0) translate(4 931)">
<title>/github/workspace/src/renderer/material.cpp</title>
<!-- Node1 -->
<g id="node1" class="node">
<title>Node1</title>
<g id="a_node1"><a xlink:title=" ">
<polygon fill="#bfbfbf" stroke="black" points="473.5,-896.5 473.5,-926.5 586.5,-926.5 586.5,-896.5 473.5,-896.5"/>
<text text-anchor="start" x="481.5" y="-914.5" font-family="Helvetica,sans-Serif" font-size="10.00">/github/workspace/src</text>
<text text-anchor="middle" x="530" y="-903.5" font-family="Helvetica,sans-Serif" font-size="10.00">/renderer/material.cpp</text>
</a>
</g>
</g>
<!-- Node2 -->
<g id="node2" class="node">
<title>Node2</title>
<g id="a_node2"><a xlink:href="material_8h.html" target="_top" xlink:title=" ">
<polygon fill="none" stroke="black" points="500.5,-840.5 500.5,-859.5 559.5,-859.5 559.5,-840.5 500.5,-840.5"/>
<text text-anchor="middle" x="530" y="-847.5" font-family="Helvetica,sans-Serif" font-size="10.00">material.h</text>
</a>
</g>
</g>
<!-- Node1&#45;&gt;Node2 -->
<g id="edge1" class="edge">
<title>Node1&#45;&gt;Node2</title>
<path fill="none" stroke="midnightblue" d="M530,-896.4C530,-888.47 530,-878.46 530,-869.86"/>
<polygon fill="midnightblue" stroke="midnightblue" points="533.5,-869.66 530,-859.66 526.5,-869.66 533.5,-869.66"/>
</g>
<!-- Node3 -->
<g id="node3" class="node">
<title>Node3</title>
<g id="a_node3"><a xlink:href="materiallibrary_8h.html" target="_top" xlink:title=" ">
<polygon fill="none" stroke="black" points="449,-784.5 449,-803.5 533,-803.5 533,-784.5 449,-784.5"/>
<text text-anchor="middle" x="491" y="-791.5" font-family="Helvetica,sans-Serif" font-size="10.00">materiallibrary.h</text>
</a>
</g>
</g>
<!-- Node2&#45;&gt;Node3 -->
<g id="edge2" class="edge">
<title>Node2&#45;&gt;Node3</title>
<path fill="none" stroke="midnightblue" d="M518.39,-840.08C511.42,-832.61 503.16,-821.72 497.29,-812.52"/>
<polygon fill="midnightblue" stroke="midnightblue" points="500.24,-810.64 492.19,-803.75 494.19,-814.16 500.24,-810.64"/>
</g>
<!-- Node6 -->
<g id="node6" class="node">
<title>Node6</title>
<g id="a_node6"><a xlink:href="mastermaterial_8h.html" target="_top" xlink:title=" ">
<polygon fill="none" stroke="black" points="506.5,-728.5 506.5,-747.5 595.5,-747.5 595.5,-728.5 506.5,-728.5"/>
<text text-anchor="middle" x="551" y="-735.5" font-family="Helvetica,sans-Serif" font-size="10.00">mastermaterial.h</text>
</a>
</g>
</g>
<!-- Node2&#45;&gt;Node6 -->
<g id="edge191" class="edge">
<title>Node2&#45;&gt;Node6</title>
<path fill="none" stroke="midnightblue" d="M525.9,-840.45C526.29,-831.45 530.41,-816.84 533,-804 536.13,-788.47 538.52,-770.63 541.49,-757.58"/>
<polygon fill="midnightblue" stroke="midnightblue" points="544.87,-758.46 544.15,-747.89 538.12,-756.61 544.87,-758.46"/>
</g>
<!-- Node7 -->
<g id="node7" class="node">
<title>Node7</title>
<g id="a_node7"><a xlink:href="graphicspipeline_8h.html" target="_top" xlink:title=" ">
<polygon fill="none" stroke="black" points="1550.5,-560.5 1550.5,-579.5 1675.5,-579.5 1675.5,-560.5 1550.5,-560.5"/>
<text text-anchor="middle" x="1613" y="-567.5" font-family="Helvetica,sans-Serif" font-size="10.00">vulkan/graphicspipeline.h</text>
</a>
</g>
</g>
<!-- Node2&#45;&gt;Node7 -->
<g id="edge192" class="edge">
<title>Node2&#45;&gt;Node7</title>
<path fill="none" stroke="midnightblue" d="M559.59,-844.63C635.27,-832.64 830,-796.21 830,-739 830,-739 830,-739 830,-681 830,-609.69 1345.82,-581.67 1540.13,-573.65"/>
<polygon fill="midnightblue" stroke="midnightblue" points="1540.4,-577.14 1550.25,-573.24 1540.11,-570.15 1540.4,-577.14"/>
</g>
<!-- Node3&#45;&gt;Node2 -->
<g id="edge189" class="edge">
<title>Node3&#45;&gt;Node2</title>
<path fill="none" stroke="midnightblue" d="M502.45,-803.75C509.4,-811.17 517.67,-822.05 523.58,-831.27"/>
<polygon fill="midnightblue" stroke="midnightblue" points="520.66,-833.21 528.73,-840.08 526.7,-829.68 520.66,-833.21"/>
</g>
<!-- Node4 -->
<g id="node4" class="node">
<title>Node4</title>
<g id="a_node4"><a xlink:title=" ">
<polygon fill="none" stroke="#bfbfbf" points="503,-0.5 503,-19.5 547,-19.5 547,-0.5 503,-0.5"/>
<text text-anchor="middle" x="525" y="-7.5" font-family="Helvetica,sans-Serif" font-size="10.00">vector</text>
</a>
</g>
</g>
<!-- Node3&#45;&gt;Node4 -->
<g id="edge3" class="edge">
<title>Node3&#45;&gt;Node4</title>
<path fill="none" stroke="midnightblue" d="M448.71,-792.5C329.61,-789.95 0,-774.61 0,-683 0,-683 0,-683 0,-121 0,-79.19 30.01,-73.45 68,-56 143.88,-21.16 401.52,-13.21 492.7,-11.47"/>
<polygon fill="midnightblue" stroke="midnightblue" points="492.79,-14.97 502.72,-11.29 492.66,-7.97 492.79,-14.97"/>
</g>
<!-- Node5 -->
<g id="node5" class="node">
<title>Node5</title>
<g id="a_node5"><a xlink:title=" ">
<polygon fill="none" stroke="#bfbfbf" points="28.5,-560.5 28.5,-579.5 97.5,-579.5 97.5,-560.5 28.5,-560.5"/>
<text text-anchor="middle" x="63" y="-567.5" font-family="Helvetica,sans-Serif" font-size="10.00">glm/glm.hpp</text>
</a>
</g>
</g>
<!-- Node3&#45;&gt;Node5 -->
<g id="edge4" class="edge">
<title>Node3&#45;&gt;Node5</title>
<path fill="none" stroke="midnightblue" d="M448.96,-793.42C372.49,-791.93 209.5,-778.08 112,-692 81.37,-664.96 69.58,-616.01 65.29,-589.41"/>
<polygon fill="midnightblue" stroke="midnightblue" points="68.75,-588.91 63.87,-579.51 61.82,-589.9 68.75,-588.91"/>
</g>
<!-- Node3&#45;&gt;Node6 -->
<g id="edge5" class="edge">
<title>Node3&#45;&gt;Node6</title>
<path fill="none" stroke="midnightblue" d="M500.64,-784.32C509.51,-776.34 522.87,-764.31 533.61,-754.65"/>
<polygon fill="midnightblue" stroke="midnightblue" points="536.09,-757.13 541.18,-747.83 531.41,-751.92 536.09,-757.13"/>
</g>
<!-- Node55 -->
<g id="node55" class="node">
<title>Node55</title>
<g id="a_node55"><a xlink:href="uniformbuffer_8h.html" target="_top" xlink:title=" ">
<polygon fill="none" stroke="black" points="695,-728.5 695,-747.5 775,-747.5 775,-728.5 695,-728.5"/>
<text text-anchor="middle" x="735" y="-735.5" font-family="Helvetica,sans-Serif" font-size="10.00">uniformbuffer.h</text>
</a>
</g>
</g>
<!-- Node3&#45;&gt;Node55 -->
<g id="edge190" class="edge">
<title>Node3&#45;&gt;Node55</title>
<path fill="none" stroke="midnightblue" d="M529.66,-784.44C572.14,-775.04 640.43,-759.93 686.47,-749.74"/>
<polygon fill="midnightblue" stroke="midnightblue" points="687.51,-753.09 696.52,-747.52 686,-746.26 687.51,-753.09"/>
</g>
<!-- Node6&#45;&gt;Node2 -->
<g id="edge179" class="edge">
<title>Node6&#45;&gt;Node2</title>
<path fill="none" stroke="midnightblue" d="M556.09,-747.89C557.8,-760.46 555.01,-784.12 551,-804 549.18,-813.03 546.6,-822.93 543.51,-831.14"/>
<polygon fill="midnightblue" stroke="midnightblue" points="540.24,-829.89 539.34,-840.45 546.62,-832.76 540.24,-829.89"/>
</g>
<!-- Node6&#45;&gt;Node7 -->
<g id="edge6" class="edge">
<title>Node6&#45;&gt;Node7</title>
<path fill="none" stroke="midnightblue" d="M564.68,-728.5C602.76,-705.35 713.88,-641.25 816,-616 952.05,-582.37 1370.56,-573.79 1540.33,-571.67"/>
<polygon fill="midnightblue" stroke="midnightblue" points="1540.46,-575.17 1550.41,-571.55 1540.37,-568.17 1540.46,-575.17"/>
</g>
<!-- Node39 -->
<g id="node39" class="node">
<title>Node39</title>
<g id="a_node39"><a xlink:title=" ">
<polygon fill="none" stroke="#bfbfbf" points="66.5,-280.5 66.5,-299.5 105.5,-299.5 105.5,-280.5 66.5,-280.5"/>
<text text-anchor="middle" x="86" y="-287.5" font-family="Helvetica,sans-Serif" font-size="10.00">utility</text>
</a>
</g>
</g>
<!-- Node6&#45;&gt;Node39 -->
<g id="edge188" class="edge">
<title>Node6&#45;&gt;Node39</title>
<path fill="none" stroke="midnightblue" d="M506.32,-734.9C397.2,-728.55 126,-704.93 126,-627 126,-627 126,-627 126,-401 126,-366.62 108.53,-329.63 96.68,-308.5"/>
<polygon fill="midnightblue" stroke="midnightblue" points="99.62,-306.61 91.56,-299.73 93.58,-310.13 99.62,-306.61"/>
</g>
<!-- Node57 -->
<g id="node57" class="node">
<title>Node57</title>
<g id="a_node57"><a xlink:href="mesh_8h.html" target="_top" xlink:title=" ">
<polygon fill="none" stroke="black" points="455,-616.5 455,-635.5 503,-635.5 503,-616.5 455,-616.5"/>
<text text-anchor="middle" x="479" y="-623.5" font-family="Helvetica,sans-Serif" font-size="10.00">mesh.h</text>
</a>
</g>
</g>
<!-- Node6&#45;&gt;Node57 -->
<g id="edge180" class="edge">
<title>Node6&#45;&gt;Node57</title>
<path fill="none" stroke="midnightblue" d="M536.81,-728.37C524.8,-720.37 507.99,-707.39 498,-692 488.9,-677.98 484.05,-659.48 481.53,-645.8"/>
<polygon fill="midnightblue" stroke="midnightblue" points="484.95,-644.98 479.93,-635.65 478.03,-646.08 484.95,-644.98"/>
</g>
<!-- Node58 -->
<g id="node58" class="node">
<title>Node58</title>
<g id="a_node58"><a xlink:href="objectinstance_8h.html" target="_top" xlink:title=" ">
<polygon fill="none" stroke="black" points="507.5,-672.5 507.5,-691.5 594.5,-691.5 594.5,-672.5 507.5,-672.5"/>
<text text-anchor="middle" x="551" y="-679.5" font-family="Helvetica,sans-Serif" font-size="10.00">objectinstance.h</text>
</a>
</g>
</g>
<!-- Node6&#45;&gt;Node58 -->
<g id="edge186" class="edge">
<title>Node6&#45;&gt;Node58</title>
<path fill="none" stroke="midnightblue" d="M551,-728.08C551,-721.01 551,-710.86 551,-701.99"/>
<polygon fill="midnightblue" stroke="midnightblue" points="554.5,-701.75 551,-691.75 547.5,-701.75 554.5,-701.75"/>
</g>
<!-- Node7&#45;&gt;Node4 -->
<g id="edge178" class="edge">
<title>Node7&#45;&gt;Node4</title>
<path fill="none" stroke="midnightblue" d="M1550.39,-567.71C1434.1,-564.63 1177.15,-554.67 963,-524 847.71,-507.49 818.98,-500.02 707,-468 564.14,-427.15 528.09,-415.64 392,-356 374.52,-348.34 371.76,-343 354,-336 297.42,-313.71 272.51,-333.87 222,-300 191.73,-279.7 172,-271.45 172,-235 172,-235 172,-235 172,-121 172,-82.58 195.3,-74.45 229,-56 274.01,-31.36 425.66,-17.96 492.68,-13.12"/>
<polygon fill="midnightblue" stroke="midnightblue" points="492.96,-16.61 502.68,-12.42 492.46,-9.63 492.96,-16.61"/>
</g>
<!-- Node8 -->
<g id="node8" class="node">
<title>Node8</title>
<g id="a_node8"><a xlink:href="device_8h.html" target="_top" xlink:title=" ">
<polygon fill="none" stroke="black" points="1708.5,-280.5 1708.5,-299.5 1761.5,-299.5 1761.5,-280.5 1708.5,-280.5"/>
<text text-anchor="middle" x="1735" y="-287.5" font-family="Helvetica,sans-Serif" font-size="10.00">device.h</text>
</a>
</g>
</g>
<!-- Node7&#45;&gt;Node8 -->
<g id="edge7" class="edge">
<title>Node7&#45;&gt;Node8</title>
<path fill="none" stroke="midnightblue" d="M1603.85,-560.25C1586.61,-542.77 1551,-501.53 1551,-459 1551,-459 1551,-459 1551,-401 1551,-370.9 1548.53,-357.09 1570,-336 1574.68,-331.41 1651.37,-311.75 1698.53,-299.99"/>
<polygon fill="midnightblue" stroke="midnightblue" points="1699.54,-303.34 1708.4,-297.53 1697.85,-296.55 1699.54,-303.34"/>
</g>
<!-- Node9 -->
<g id="node9" class="node">
<title>Node9</title>
<g id="a_node9"><a xlink:title=" ">
<polygon fill="none" stroke="#bfbfbf" points="2480,-0.5 2480,-19.5 2564,-19.5 2564,-0.5 2480,-0.5"/>
<text text-anchor="middle" x="2522" y="-7.5" font-family="Helvetica,sans-Serif" font-size="10.00">vulkan/vulkan.h</text>
</a>
</g>
</g>
<!-- Node7&#45;&gt;Node9 -->
<g id="edge177" class="edge">
<title>Node7&#45;&gt;Node9</title>
<path fill="none" stroke="midnightblue" d="M1675.76,-566.5C1864.88,-558.29 2419.38,-529.17 2470,-468 2507.47,-422.72 2483.7,-390.62 2462,-336 2415.76,-219.6 2225.54,-218.78 2291,-112 2328.8,-50.35 2414.02,-26.21 2469.71,-16.84"/>
<polygon fill="midnightblue" stroke="midnightblue" points="2470.42,-20.27 2479.75,-15.25 2469.33,-13.35 2470.42,-20.27"/>
</g>
<!-- Node32 -->
<g id="node32" class="node">
<title>Node32</title>
<g id="a_node32"><a xlink:href="pipelinebase_8h.html" target="_top" xlink:title=" ">
<polygon fill="none" stroke="black" points="1700,-448.5 1700,-467.5 1778,-467.5 1778,-448.5 1700,-448.5"/>
<text text-anchor="middle" x="1739" y="-455.5" font-family="Helvetica,sans-Serif" font-size="10.00">pipelinebase.h</text>
</a>
</g>
</g>
<!-- Node7&#45;&gt;Node32 -->
<g id="edge62" class="edge">
<title>Node7&#45;&gt;Node32</title>
<path fill="none" stroke="midnightblue" d="M1622.89,-560.37C1644.14,-541.81 1694.43,-497.91 1721.32,-474.44"/>
<polygon fill="midnightblue" stroke="midnightblue" points="1723.93,-476.8 1729.16,-467.59 1719.32,-471.53 1723.93,-476.8"/>
</g>
<!-- Node37 -->
<g id="node37" class="node">
<title>Node37</title>
<g id="a_node37"><a xlink:href="shader_8h.html" target="_top" xlink:title=" ">
<polygon fill="none" stroke="black" points="444.5,-336.5 444.5,-355.5 497.5,-355.5 497.5,-336.5 444.5,-336.5"/>
<text text-anchor="middle" x="471" y="-343.5" font-family="Helvetica,sans-Serif" font-size="10.00">shader.h</text>
</a>
</g>
</g>
<!-- Node7&#45;&gt;Node37 -->
<g id="edge84" class="edge">
<title>Node7&#45;&gt;Node37</title>
<path fill="none" stroke="midnightblue" d="M1550.32,-566.39C1410.1,-559.49 1061.19,-536.31 778,-468 669.7,-441.88 548.78,-385.62 496.91,-360.08"/>
<polygon fill="midnightblue" stroke="midnightblue" points="498.28,-356.86 487.77,-355.55 495.17,-363.13 498.28,-356.86"/>
</g>
<!-- Node42 -->
<g id="node42" class="node">
<title>Node42</title>
<g id="a_node42"><a xlink:href="swapchain_8h.html" target="_top" xlink:title=" ">
<polygon fill="none" stroke="black" points="2095.5,-504.5 2095.5,-523.5 2166.5,-523.5 2166.5,-504.5 2095.5,-504.5"/>
<text text-anchor="middle" x="2131" y="-511.5" font-family="Helvetica,sans-Serif" font-size="10.00">swapchain.h</text>
</a>
</g>
</g>
<!-- Node7&#45;&gt;Node42 -->
<g id="edge95" class="edge">
<title>Node7&#45;&gt;Node42</title>
<path fill="none" stroke="midnightblue" d="M1675.74,-562.46C1781.3,-551.46 1991.99,-529.49 2085.02,-519.79"/>
<polygon fill="midnightblue" stroke="midnightblue" points="2085.66,-523.25 2095.24,-518.73 2084.94,-516.28 2085.66,-523.25"/>
</g>
<!-- Node45 -->
<g id="node45" class="node">
<title>Node45</title>
<g id="a_node45"><a xlink:href="renderpass_8h.html" target="_top" xlink:title=" ">
<polygon fill="none" stroke="black" points="1785,-392.5 1785,-411.5 1857,-411.5 1857,-392.5 1785,-392.5"/>
<text text-anchor="middle" x="1821" y="-399.5" font-family="Helvetica,sans-Serif" font-size="10.00">renderpass.h</text>
</a>
</g>
</g>
<!-- Node7&#45;&gt;Node45 -->
<g id="edge176" class="edge">
<title>Node7&#45;&gt;Node45</title>
<path fill="none" stroke="midnightblue" d="M1616.26,-560.27C1624.93,-538.2 1650.7,-479.65 1691,-448 1715.32,-428.9 1748.29,-417.61 1774.94,-411.12"/>
<polygon fill="midnightblue" stroke="midnightblue" points="1775.84,-414.5 1784.81,-408.86 1774.28,-407.68 1775.84,-414.5"/>
</g>
<!-- Node8&#45;&gt;Node4 -->
<g id="edge10" class="edge">
<title>Node8&#45;&gt;Node4</title>
<path fill="none" stroke="midnightblue" d="M1708.26,-288.76C1618.89,-287.61 1331.54,-281.05 1248,-244 1137.66,-195.07 1161.73,-106.28 1052,-56 963.2,-15.31 658.03,-11.17 557.44,-10.93"/>
<polygon fill="midnightblue" stroke="midnightblue" points="557.29,-7.43 547.28,-10.92 557.28,-14.43 557.29,-7.43"/>
</g>
<!-- Node8&#45;&gt;Node9 -->
<g id="edge8" class="edge">
<title>Node8&#45;&gt;Node9</title>
<path fill="none" stroke="midnightblue" d="M1761.68,-284.42C1796.14,-277.97 1857.58,-264.63 1907,-244 1997.11,-206.39 2017.07,-189.47 2096,-132 2137.24,-101.98 2135.59,-77.16 2182,-56 2232.14,-33.15 2387.5,-19.82 2469.73,-14.19"/>
<polygon fill="midnightblue" stroke="midnightblue" points="2470.12,-17.67 2479.86,-13.5 2469.65,-10.68 2470.12,-17.67"/>
</g>
<!-- Node10 -->
<g id="node10" class="node">
<title>Node10</title>
<g id="a_node10"><a xlink:title=" ">
<polygon fill="none" stroke="#bfbfbf" points="2492.5,-56.5 2492.5,-75.5 2579.5,-75.5 2579.5,-56.5 2492.5,-56.5"/>
<text text-anchor="middle" x="2536" y="-63.5" font-family="Helvetica,sans-Serif" font-size="10.00">vk_mem_alloc.h</text>
</a>
</g>
</g>
<!-- Node8&#45;&gt;Node10 -->
<g id="edge9" class="edge">
<title>Node8&#45;&gt;Node10</title>
<path fill="none" stroke="midnightblue" d="M1761.89,-287.71C1820.64,-284.42 1964.5,-273.76 2081,-244 2167.59,-221.88 2420.25,-116.1 2506.64,-79.5"/>
<polygon fill="midnightblue" stroke="midnightblue" points="2508.03,-82.71 2515.87,-75.58 2505.3,-76.27 2508.03,-82.71"/>
</g>
<!-- Node11 -->
<g id="node11" class="node">
<title>Node11</title>
<g id="a_node11"><a xlink:title=" ">
<polygon fill="none" stroke="#bfbfbf" points="723.5,-56.5 723.5,-75.5 782.5,-75.5 782.5,-56.5 723.5,-56.5"/>
<text text-anchor="middle" x="753" y="-63.5" font-family="Helvetica,sans-Serif" font-size="10.00">stdexcept</text>
</a>
</g>
</g>
<!-- Node8&#45;&gt;Node11 -->
<g id="edge11" class="edge">
<title>Node8&#45;&gt;Node11</title>
<path fill="none" stroke="midnightblue" d="M1708.44,-288.25C1607.57,-285.2 1248.31,-272.53 1138,-244 992.27,-206.31 833.55,-115.8 775.7,-80.98"/>
<polygon fill="midnightblue" stroke="midnightblue" points="777.36,-77.89 766.99,-75.7 773.73,-83.88 777.36,-77.89"/>
</g>
<!-- Node12 -->
<g id="node12" class="node">
<title>Node12</title>
<g id="a_node12"><a xlink:title=" ">
<polygon fill="none" stroke="#bfbfbf" points="1104.5,-56.5 1104.5,-75.5 1145.5,-75.5 1145.5,-56.5 1104.5,-56.5"/>
<text text-anchor="middle" x="1125" y="-63.5" font-family="Helvetica,sans-Serif" font-size="10.00">string</text>
</a>
</g>
</g>
<!-- Node8&#45;&gt;Node12 -->
<g id="edge12" class="edge">
<title>Node8&#45;&gt;Node12</title>
<path fill="none" stroke="midnightblue" d="M1708.48,-288.04C1624.98,-284.76 1368.52,-272.56 1291,-244 1212.09,-214.93 1155.31,-123.57 1134.12,-84.74"/>
<polygon fill="midnightblue" stroke="midnightblue" points="1137.19,-83.06 1129.41,-75.87 1131.01,-86.34 1137.19,-83.06"/>
</g>
<!-- Node13 -->
<g id="node13" class="node">
<title>Node13</title>
<g id="a_node13"><a xlink:title=" ">
<polygon fill="none" stroke="#bfbfbf" points="1872,-168.5 1872,-187.5 1902,-187.5 1902,-168.5 1872,-168.5"/>
<text text-anchor="middle" x="1887" y="-175.5" font-family="Helvetica,sans-Serif" font-size="10.00">set</text>
</a>
</g>
</g>
<!-- Node8&#45;&gt;Node13 -->
<g id="edge13" class="edge">
<title>Node8&#45;&gt;Node13</title>
<path fill="none" stroke="midnightblue" d="M1754.82,-280.46C1772.67,-272.33 1799.2,-259.12 1820,-244 1839.94,-229.5 1859.85,-209.28 1872.71,-195.26"/>
<polygon fill="midnightblue" stroke="midnightblue" points="1875.33,-197.58 1879.42,-187.81 1870.13,-192.89 1875.33,-197.58"/>
</g>
<!-- Node14 -->
<g id="node14" class="node">
<title>Node14</title>
<g id="a_node14"><a xlink:title=" ">
<polygon fill="none" stroke="#bfbfbf" points="1418,-0.5 1418,-19.5 1464,-19.5 1464,-0.5 1418,-0.5"/>
<text text-anchor="middle" x="1441" y="-7.5" font-family="Helvetica,sans-Serif" font-size="10.00">cstring</text>
</a>
</g>
</g>
<!-- Node8&#45;&gt;Node14 -->
<g id="edge14" class="edge">
<title>Node8&#45;&gt;Node14</title>
<path fill="none" stroke="midnightblue" d="M1708.44,-287.55C1658.42,-284.19 1547.34,-273.75 1459,-244 1408.69,-227.06 1275.36,-177.49 1248,-132 1208.04,-65.54 1342.52,-29.9 1407.67,-16.86"/>
<polygon fill="midnightblue" stroke="midnightblue" points="1408.7,-20.23 1417.86,-14.89 1407.38,-13.35 1408.7,-20.23"/>
</g>
<!-- Node15 -->
<g id="node15" class="node">
<title>Node15</title>
<g id="a_node15"><a xlink:title=" ">
<polygon fill="none" stroke="#bfbfbf" points="1905,-0.5 1905,-19.5 1959,-19.5 1959,-0.5 1905,-0.5"/>
<text text-anchor="middle" x="1932" y="-7.5" font-family="Helvetica,sans-Serif" font-size="10.00">iostream</text>
</a>
</g>
</g>
<!-- Node8&#45;&gt;Node15 -->
<g id="edge15" class="edge">
<title>Node8&#45;&gt;Node15</title>
<path fill="none" stroke="midnightblue" d="M1761.68,-285.59C1792.77,-280.6 1844.63,-269.02 1882,-244 1908.76,-226.08 1910.66,-215.14 1928,-188 1962.12,-134.58 2007.79,-113.9 1982,-56 1976.43,-43.5 1965.48,-33.01 1955.25,-25.32"/>
<polygon fill="midnightblue" stroke="midnightblue" points="1957.16,-22.38 1946.95,-19.53 1953.15,-28.12 1957.16,-22.38"/>
</g>
<!-- Node16 -->
<g id="node16" class="node">
<title>Node16</title>
<g id="a_node16"><a xlink:title=" ">
<polygon fill="none" stroke="#bfbfbf" points="1898.5,-112.5 1898.5,-131.5 1939.5,-131.5 1939.5,-112.5 1898.5,-112.5"/>
<text text-anchor="middle" x="1919" y="-119.5" font-family="Helvetica,sans-Serif" font-size="10.00">bitset</text>
</a>
</g>
</g>
<!-- Node8&#45;&gt;Node16 -->
<g id="edge16" class="edge">
<title>Node8&#45;&gt;Node16</title>
<path fill="none" stroke="midnightblue" d="M1761.63,-283.06C1802.76,-272.27 1880.22,-245.05 1911,-188 1918.68,-173.77 1920.29,-155.3 1920.21,-141.68"/>
<polygon fill="midnightblue" stroke="midnightblue" points="1923.71,-141.45 1919.84,-131.59 1916.71,-141.71 1923.71,-141.45"/>
</g>
<!-- Node17 -->
<g id="node17" class="node">
<title>Node17</title>
<g id="a_node17"><a xlink:title=" ">
<polygon fill="none" stroke="#bfbfbf" points="1218.5,-168.5 1218.5,-187.5 1269.5,-187.5 1269.5,-168.5 1218.5,-168.5"/>
<text text-anchor="middle" x="1244" y="-175.5" font-family="Helvetica,sans-Serif" font-size="10.00">memory</text>
</a>
</g>
</g>
<!-- Node8&#45;&gt;Node17 -->
<g id="edge17" class="edge">
<title>Node8&#45;&gt;Node17</title>
<path fill="none" stroke="midnightblue" d="M1708.42,-287.94C1629.48,-284.49 1397.61,-272.15 1328,-244 1300.63,-232.93 1274.64,-210.29 1259.01,-194.87"/>
<polygon fill="midnightblue" stroke="midnightblue" points="1261.34,-192.25 1251.83,-187.57 1256.35,-197.15 1261.34,-192.25"/>
</g>
<!-- Node18 -->
<g id="node18" class="node">
<title>Node18</title>
<g id="a_node18"><a xlink:href="physicaldevice_8h.html" target="_top" xlink:title=" ">
<polygon fill="none" stroke="black" points="1686,-224.5 1686,-243.5 1774,-243.5 1774,-224.5 1686,-224.5"/>
<text text-anchor="middle" x="1730" y="-231.5" font-family="Helvetica,sans-Serif" font-size="10.00">physicaldevice.h</text>
</a>
</g>
</g>
<!-- Node8&#45;&gt;Node18 -->
<g id="edge18" class="edge">
<title>Node8&#45;&gt;Node18</title>
<path fill="none" stroke="midnightblue" d="M1734.17,-280.08C1733.52,-273.01 1732.58,-262.86 1731.76,-253.99"/>
<polygon fill="midnightblue" stroke="midnightblue" points="1735.22,-253.39 1730.81,-243.75 1728.25,-254.03 1735.22,-253.39"/>
</g>
<!-- Node23 -->
<g id="node23" class="node">
<title>Node23</title>
<g id="a_node23"><a xlink:href="instance_8h.html" target="_top" xlink:title=" ">
<polygon fill="none" stroke="black" points="1742.5,-56.5 1742.5,-75.5 1803.5,-75.5 1803.5,-56.5 1742.5,-56.5"/>
<text text-anchor="middle" x="1773" y="-63.5" font-family="Helvetica,sans-Serif" font-size="10.00">instance.h</text>
</a>
</g>
</g>
<!-- Node8&#45;&gt;Node23 -->
<g id="edge61" class="edge">
<title>Node8&#45;&gt;Node23</title>
<path fill="none" stroke="midnightblue" d="M1708.43,-285.5C1613.98,-272.09 1304.98,-219.18 1400,-112 1421.8,-87.42 1640.34,-73.65 1732.43,-68.91"/>
<polygon fill="midnightblue" stroke="midnightblue" points="1732.68,-72.4 1742.49,-68.4 1732.33,-65.41 1732.68,-72.4"/>
</g>
<!-- Node18&#45;&gt;Node4 -->
<g id="edge24" class="edge">
<title>Node18&#45;&gt;Node4</title>
<path fill="none" stroke="midnightblue" d="M1689.18,-224.46C1645.93,-215.41 1575.65,-200.71 1515,-188 1396.33,-163.14 1357.39,-184.3 1248,-132 1199.84,-108.98 1204.61,-75.71 1155,-56 1044.56,-12.12 669.48,-10.28 557.09,-10.75"/>
<polygon fill="midnightblue" stroke="midnightblue" points="557.03,-7.25 547.05,-10.81 557.07,-14.25 557.03,-7.25"/>
</g>
<!-- Node18&#45;&gt;Node12 -->
<g id="edge20" class="edge">
<title>Node18&#45;&gt;Node12</title>
<path fill="none" stroke="midnightblue" d="M1685.93,-233.09C1592.92,-231.48 1372.14,-218.09 1214,-132 1187.67,-117.67 1160.23,-96.53 1142.9,-82.29"/>
<polygon fill="midnightblue" stroke="midnightblue" points="1144.74,-79.26 1134.82,-75.54 1140.25,-84.63 1144.74,-79.26"/>
</g>
<!-- Node18&#45;&gt;Node13 -->
<g id="edge21" class="edge">
<title>Node18&#45;&gt;Node13</title>
<path fill="none" stroke="midnightblue" d="M1754.88,-224.44C1784.27,-214.33 1832.87,-197.62 1862.22,-187.52"/>
<polygon fill="midnightblue" stroke="midnightblue" points="1863.42,-190.81 1871.73,-184.25 1861.14,-184.19 1863.42,-190.81"/>
</g>
<!-- Node18&#45;&gt;Node15 -->
<g id="edge22" class="edge">
<title>Node18&#45;&gt;Node15</title>
<path fill="none" stroke="midnightblue" d="M1733.52,-224.48C1739.09,-211.55 1750.79,-186.5 1765,-168 1810.62,-108.62 1879.41,-51.7 1912.66,-25.71"/>
<polygon fill="midnightblue" stroke="midnightblue" points="1914.91,-28.4 1920.67,-19.51 1910.62,-22.86 1914.91,-28.4"/>
</g>
<!-- Node18&#45;&gt;Node16 -->
<g id="edge23" class="edge">
<title>Node18&#45;&gt;Node16</title>
<path fill="none" stroke="midnightblue" d="M1736.24,-224.17C1746.42,-210.35 1767.92,-183.6 1792,-168 1808.21,-157.5 1856.35,-141.82 1888.48,-132.02"/>
<polygon fill="midnightblue" stroke="midnightblue" points="1889.73,-135.29 1898.29,-129.05 1887.71,-128.59 1889.73,-135.29"/>
</g>
<!-- Node18&#45;&gt;Node17 -->
<g id="edge25" class="edge">
<title>Node18&#45;&gt;Node17</title>
<path fill="none" stroke="midnightblue" d="M1685.92,-228.21C1611.09,-220.07 1454.42,-202.94 1322,-188 1308.21,-186.44 1293.06,-184.7 1279.8,-183.17"/>
<polygon fill="midnightblue" stroke="midnightblue" points="1279.98,-179.67 1269.64,-181.99 1279.17,-186.62 1279.98,-179.67"/>
</g>
<!-- Node19 -->
<g id="node19" class="node">
<title>Node19</title>
<g id="a_node19"><a xlink:title=" ">
<polygon fill="none" stroke="#bfbfbf" points="2556,-112.5 2556,-131.5 2664,-131.5 2664,-112.5 2556,-112.5"/>
<text text-anchor="middle" x="2610" y="-119.5" font-family="Helvetica,sans-Serif" font-size="10.00">vulkan/vulkan_core.h</text>
</a>
</g>
</g>
<!-- Node18&#45;&gt;Node19 -->
<g id="edge19" class="edge">
<title>Node18&#45;&gt;Node19</title>
<path fill="none" stroke="midnightblue" d="M1743.28,-224.28C1766.45,-209.59 1816.27,-180.3 1863,-168 1895.74,-159.38 2370.54,-134.96 2545.7,-126.19"/>
<polygon fill="midnightblue" stroke="midnightblue" points="2546,-129.68 2555.81,-125.68 2545.65,-122.68 2546,-129.68"/>
</g>
<!-- Node20 -->
<g id="node20" class="node">
<title>Node20</title>
<g id="a_node20"><a xlink:href="types_8h.html" target="_top" xlink:title=" ">
<polygon fill="none" stroke="black" points="1598.5,-168.5 1598.5,-187.5 1645.5,-187.5 1645.5,-168.5 1598.5,-168.5"/>
<text text-anchor="middle" x="1622" y="-175.5" font-family="Helvetica,sans-Serif" font-size="10.00">types.h</text>
</a>
</g>
</g>
<!-- Node18&#45;&gt;Node20 -->
<g id="edge26" class="edge">
<title>Node18&#45;&gt;Node20</title>
<path fill="none" stroke="midnightblue" d="M1712.65,-224.32C1695.33,-215.66 1668.48,-202.24 1648.5,-192.25"/>
<polygon fill="midnightblue" stroke="midnightblue" points="1649.82,-189 1639.31,-187.65 1646.69,-195.26 1649.82,-189"/>
</g>
<!-- Node22 -->
<g id="node22" class="node">
<title>Node22</title>
<g id="a_node22"><a xlink:href="vulkanclass_8h.html" target="_top" xlink:title=" ">
<polygon fill="none" stroke="black" points="2920,-56.5 2920,-75.5 2996,-75.5 2996,-56.5 2920,-56.5"/>
<text text-anchor="middle" x="2958" y="-63.5" font-family="Helvetica,sans-Serif" font-size="10.00">vulkanclass.h</text>
</a>
</g>
</g>
<!-- Node18&#45;&gt;Node22 -->
<g id="edge30" class="edge">
<title>Node18&#45;&gt;Node22</title>
<path fill="none" stroke="midnightblue" d="M1774.05,-228.05C1884.81,-215.3 2183.65,-179 2430,-132 2467.7,-124.81 2476.16,-118.39 2514,-112 2656.86,-87.86 2827.93,-74.98 2909.76,-69.78"/>
<polygon fill="midnightblue" stroke="midnightblue" points="2910,-73.28 2919.76,-69.16 2909.56,-66.29 2910,-73.28"/>
</g>
<!-- Node18&#45;&gt;Node23 -->
<g id="edge32" class="edge">
<title>Node18&#45;&gt;Node23</title>
<path fill="none" stroke="midnightblue" d="M1719.06,-224.29C1709.2,-211.53 1699.05,-187.2 1707,-168 1715.66,-147.09 1731.19,-151.3 1743,-132 1751.89,-117.47 1757.41,-98.79 1762.14,-85.18"/>
<polygon fill="midnightblue" stroke="midnightblue" points="1765.52,-86.13 1765.81,-75.54 1758.98,-83.64 1765.52,-86.13"/>
</g>
<!-- Node25 -->
<g id="node25" class="node">
<title>Node25</title>
<g id="a_node25"><a xlink:href="queues_8h.html" target="_top" xlink:title=" ">
<polygon fill="none" stroke="black" points="1524,-168.5 1524,-187.5 1580,-187.5 1580,-168.5 1524,-168.5"/>
<text text-anchor="middle" x="1552" y="-175.5" font-family="Helvetica,sans-Serif" font-size="10.00">queues.h</text>
</a>
</g>
</g>
<!-- Node18&#45;&gt;Node25 -->
<g id="edge39" class="edge">
<title>Node18&#45;&gt;Node25</title>
<path fill="none" stroke="midnightblue" d="M1696.71,-224.44C1664.63,-215.32 1616.62,-200.81 1584.74,-190.65"/>
<polygon fill="midnightblue" stroke="midnightblue" points="1585.58,-187.25 1574.99,-187.52 1583.44,-193.91 1585.58,-187.25"/>
</g>
<!-- Node20&#45;&gt;Node4 -->
<g id="edge28" class="edge">
<title>Node20&#45;&gt;Node4</title>
<path fill="none" stroke="midnightblue" d="M1645.67,-171.35C1681.75,-161.68 1743.84,-140.23 1719,-112 1640,-22.23 739.79,-12.24 557.19,-11.14"/>
<polygon fill="midnightblue" stroke="midnightblue" points="557.17,-7.64 547.15,-11.08 557.13,-14.64 557.17,-7.64"/>
</g>
<!-- Node20&#45;&gt;Node9 -->
<g id="edge27" class="edge">
<title>Node20&#45;&gt;Node9</title>
<path fill="none" stroke="midnightblue" d="M1645.6,-169.33C1720.51,-145.1 1952.55,-70.88 2030,-56 2188.2,-25.61 2379.09,-15.59 2469.55,-12.41"/>
<polygon fill="midnightblue" stroke="midnightblue" points="2469.94,-15.9 2479.82,-12.06 2469.7,-8.9 2469.94,-15.9"/>
</g>
<!-- Node21 -->
<g id="node21" class="node">
<title>Node21</title>
<g id="a_node21"><a xlink:title=" ">
<polygon fill="none" stroke="#bfbfbf" points="1660,-112.5 1660,-131.5 1710,-131.5 1710,-112.5 1660,-112.5"/>
<text text-anchor="middle" x="1685" y="-119.5" font-family="Helvetica,sans-Serif" font-size="10.00">optional</text>
</a>
</g>
</g>
<!-- Node20&#45;&gt;Node21 -->
<g id="edge29" class="edge">
<title>Node20&#45;&gt;Node21</title>
<path fill="none" stroke="midnightblue" d="M1632.12,-168.32C1641.53,-160.26 1655.74,-148.08 1667.07,-138.37"/>
<polygon fill="midnightblue" stroke="midnightblue" points="1669.38,-141 1674.69,-131.83 1664.82,-135.68 1669.38,-141"/>
</g>
<!-- Node22&#45;&gt;Node9 -->
<g id="edge31" class="edge">
<title>Node22&#45;&gt;Node9</title>
<path fill="none" stroke="midnightblue" d="M2919.69,-60.26C2841.44,-50.56 2663.15,-28.48 2574.32,-17.48"/>
<polygon fill="midnightblue" stroke="midnightblue" points="2574.55,-13.98 2564.2,-16.23 2573.69,-20.93 2574.55,-13.98"/>
</g>
<!-- Node23&#45;&gt;Node4 -->
<g id="edge35" class="edge">
<title>Node23&#45;&gt;Node4</title>
<path fill="none" stroke="midnightblue" d="M1742.3,-61.16C1726.67,-59.33 1707.35,-57.27 1690,-56 1241.89,-23.09 694.92,-13.42 557.5,-11.43"/>
<polygon fill="midnightblue" stroke="midnightblue" points="557.29,-7.93 547.24,-11.28 557.19,-14.93 557.29,-7.93"/>
</g>
<!-- Node23&#45;&gt;Node9 -->
<g id="edge33" class="edge">
<title>Node23&#45;&gt;Node9</title>
<path fill="none" stroke="midnightblue" d="M1803.72,-61.37C1819.35,-59.6 1838.67,-57.52 1856,-56 2084.37,-35.91 2357.49,-20 2469.83,-13.8"/>
<polygon fill="midnightblue" stroke="midnightblue" points="2470.08,-17.29 2479.88,-13.25 2469.7,-10.31 2470.08,-17.29"/>
</g>
<!-- Node23&#45;&gt;Node14 -->
<g id="edge36" class="edge">
<title>Node23&#45;&gt;Node14</title>
<path fill="none" stroke="midnightblue" d="M1742.36,-60.02C1680.02,-49.88 1538.85,-26.92 1474.32,-16.42"/>
<polygon fill="midnightblue" stroke="midnightblue" points="1474.71,-12.94 1464.28,-14.79 1473.59,-19.85 1474.71,-12.94"/>
</g>
<!-- Node23&#45;&gt;Node15 -->
<g id="edge37" class="edge">
<title>Node23&#45;&gt;Node15</title>
<path fill="none" stroke="midnightblue" d="M1798.19,-56.44C1824.94,-47.36 1867.4,-32.94 1897.31,-22.78"/>
<polygon fill="midnightblue" stroke="midnightblue" points="1898.58,-26.05 1906.92,-19.52 1896.33,-19.42 1898.58,-26.05"/>
</g>
<!-- Node23&#45;&gt;Node18 -->
<g id="edge38" class="edge">
<title>Node23&#45;&gt;Node18</title>
<path fill="none" stroke="midnightblue" d="M1777.34,-75.54C1778.12,-88.5 1772.26,-113.59 1761,-132 1749.19,-151.3 1733.66,-147.09 1725,-168 1718.79,-183 1723.63,-201.13 1727.76,-214.43"/>
<polygon fill="midnightblue" stroke="midnightblue" points="1724.51,-215.77 1730.8,-224.29 1731.19,-213.7 1724.51,-215.77"/>
</g>
<!-- Node24 -->
<g id="node24" class="node">
<title>Node24</title>
<g id="a_node24"><a xlink:title=" ">
<polygon fill="none" stroke="#bfbfbf" points="1733.5,-0.5 1733.5,-19.5 1812.5,-19.5 1812.5,-0.5 1733.5,-0.5"/>
<text text-anchor="middle" x="1773" y="-7.5" font-family="Helvetica,sans-Serif" font-size="10.00">GLFW/glfw3.h</text>
</a>
</g>
</g>
<!-- Node23&#45;&gt;Node24 -->
<g id="edge34" class="edge">
<title>Node23&#45;&gt;Node24</title>
<path fill="none" stroke="midnightblue" d="M1773,-56.08C1773,-49.01 1773,-38.86 1773,-29.99"/>
<polygon fill="midnightblue" stroke="midnightblue" points="1776.5,-29.75 1773,-19.75 1769.5,-29.75 1776.5,-29.75"/>
</g>
<!-- Node25&#45;&gt;Node4 -->
<g id="edge41" class="edge">
<title>Node25&#45;&gt;Node4</title>
<path fill="none" stroke="midnightblue" d="M1523.82,-170.11C1492.96,-162.23 1442.24,-148.29 1400,-132 1327.3,-103.96 1317.39,-75.69 1242,-56 1109.93,-21.5 679.5,-13.1 557.5,-11.39"/>
<polygon fill="midnightblue" stroke="midnightblue" points="557.36,-7.89 547.31,-11.25 557.27,-14.88 557.36,-7.89"/>
</g>
<!-- Node25&#45;&gt;Node8 -->
<g id="edge49" class="edge">
<title>Node25&#45;&gt;Node8</title>
<path fill="none" stroke="midnightblue" d="M1562.95,-187.59C1579.82,-200.62 1613.42,-225.79 1644,-244 1664.15,-256 1687.94,-267.69 1706.15,-276.14"/>
<polygon fill="midnightblue" stroke="midnightblue" points="1704.82,-279.38 1715.36,-280.37 1707.73,-273.02 1704.82,-279.38"/>
</g>
<!-- Node25&#45;&gt;Node16 -->
<g id="edge45" class="edge">
<title>Node25&#45;&gt;Node16</title>
<path fill="none" stroke="midnightblue" d="M1580.16,-170.01C1583.47,-169.29 1586.8,-168.6 1590,-168 1699.11,-147.67 1830.17,-132.47 1888.47,-126.18"/>
<polygon fill="midnightblue" stroke="midnightblue" points="1888.91,-129.65 1898.48,-125.11 1888.17,-122.69 1888.91,-129.65"/>
</g>
<!-- Node25&#45;&gt;Node18 -->
<g id="edge50" class="edge">
<title>Node25&#45;&gt;Node18</title>
<path fill="none" stroke="midnightblue" d="M1580.28,-186.14C1612.11,-195.1 1663.47,-210.58 1697.07,-221.29"/>
<polygon fill="midnightblue" stroke="midnightblue" points="1696.29,-224.71 1706.88,-224.44 1698.44,-218.05 1696.29,-224.71"/>
</g>
<!-- Node25&#45;&gt;Node19 -->
<g id="edge40" class="edge">
<title>Node25&#45;&gt;Node19</title>
<path fill="none" stroke="midnightblue" d="M1580.11,-169.72C1583.43,-169.05 1586.78,-168.45 1590,-168 1613.74,-164.7 2325.64,-134.85 2545.78,-125.67"/>
<polygon fill="midnightblue" stroke="midnightblue" points="2546.04,-129.16 2555.89,-125.25 2545.75,-122.17 2546.04,-129.16"/>
</g>
<!-- Node25&#45;&gt;Node21 -->
<g id="edge44" class="edge">
<title>Node25&#45;&gt;Node21</title>
<path fill="none" stroke="midnightblue" d="M1573.07,-168.44C1595.06,-159.52 1629.73,-145.44 1654.66,-135.32"/>
<polygon fill="midnightblue" stroke="midnightblue" points="1656.08,-138.52 1664.02,-131.52 1653.44,-132.04 1656.08,-138.52"/>
</g>
<!-- Node25&#45;&gt;Node22 -->
<g id="edge48" class="edge">
<title>Node25&#45;&gt;Node22</title>
<path fill="none" stroke="midnightblue" d="M1580.11,-169.73C1583.43,-169.05 1586.78,-168.45 1590,-168 1927.94,-120.47 2017.68,-168.35 2357,-132 2410.33,-126.29 2422.82,-118.94 2476,-112 2634.16,-91.35 2822.72,-76.59 2909.69,-70.33"/>
<polygon fill="midnightblue" stroke="midnightblue" points="2910.05,-73.81 2919.78,-69.61 2909.55,-66.83 2910.05,-73.81"/>
</g>
<!-- Node26 -->
<g id="node26" class="node">
<title>Node26</title>
<g id="a_node26"><a xlink:title=" ">
<polygon fill="none" stroke="#bfbfbf" points="1408.5,-112.5 1408.5,-131.5 1443.5,-131.5 1443.5,-112.5 1408.5,-112.5"/>
<text text-anchor="middle" x="1426" y="-119.5" font-family="Helvetica,sans-Serif" font-size="10.00">map</text>
</a>
</g>
</g>
<!-- Node25&#45;&gt;Node26 -->
<g id="edge42" class="edge">
<title>Node25&#45;&gt;Node26</title>
<path fill="none" stroke="midnightblue" d="M1532.03,-168.44C1510.78,-159.34 1477.02,-144.86 1453.31,-134.71"/>
<polygon fill="midnightblue" stroke="midnightblue" points="1454.4,-131.37 1443.83,-130.64 1451.65,-137.8 1454.4,-131.37"/>
</g>
<!-- Node27 -->
<g id="node27" class="node">
<title>Node27</title>
<g id="a_node27"><a xlink:title=" ">
<polygon fill="none" stroke="#bfbfbf" points="1462,-112.5 1462,-131.5 1518,-131.5 1518,-112.5 1462,-112.5"/>
<text text-anchor="middle" x="1490" y="-119.5" font-family="Helvetica,sans-Serif" font-size="10.00">algorithm</text>
</a>
</g>
</g>
<!-- Node25&#45;&gt;Node27 -->
<g id="edge43" class="edge">
<title>Node25&#45;&gt;Node27</title>
<path fill="none" stroke="midnightblue" d="M1542.04,-168.32C1532.87,-160.34 1519.06,-148.31 1507.97,-138.65"/>
<polygon fill="midnightblue" stroke="midnightblue" points="1509.98,-135.76 1500.14,-131.83 1505.38,-141.04 1509.98,-135.76"/>
</g>
<!-- Node28 -->
<g id="node28" class="node">
<title>Node28</title>
<g id="a_node28"><a xlink:title=" ">
<polygon fill="none" stroke="#bfbfbf" points="1536,-112.5 1536,-131.5 1580,-131.5 1580,-112.5 1536,-112.5"/>
<text text-anchor="middle" x="1558" y="-119.5" font-family="Helvetica,sans-Serif" font-size="10.00">thread</text>
</a>
</g>
</g>
<!-- Node25&#45;&gt;Node28 -->
<g id="edge46" class="edge">
<title>Node25&#45;&gt;Node28</title>
<path fill="none" stroke="midnightblue" d="M1552.99,-168.08C1553.79,-160.93 1554.93,-150.64 1555.92,-141.69"/>
<polygon fill="midnightblue" stroke="midnightblue" points="1559.4,-142.08 1557.03,-131.75 1552.44,-141.3 1559.4,-142.08"/>
</g>
<!-- Node29 -->
<g id="node29" class="node">
<title>Node29</title>
<g id="a_node29"><a xlink:title=" ">
<polygon fill="none" stroke="#bfbfbf" points="1598.5,-112.5 1598.5,-131.5 1641.5,-131.5 1641.5,-112.5 1598.5,-112.5"/>
<text text-anchor="middle" x="1620" y="-119.5" font-family="Helvetica,sans-Serif" font-size="10.00">mutex</text>
</a>
</g>
</g>
<!-- Node25&#45;&gt;Node29 -->
<g id="edge47" class="edge">
<title>Node25&#45;&gt;Node29</title>
<path fill="none" stroke="midnightblue" d="M1562.93,-168.32C1573.17,-160.18 1588.72,-147.84 1601,-138.09"/>
<polygon fill="midnightblue" stroke="midnightblue" points="1603.22,-140.79 1608.88,-131.83 1598.87,-135.31 1603.22,-140.79"/>
</g>
<!-- Node30 -->
<g id="node30" class="node">
<title>Node30</title>
<g id="a_node30"><a xlink:href="window_8h.html" target="_top" xlink:title=" ">
<polygon fill="none" stroke="black" points="1256.5,-112.5 1256.5,-131.5 1313.5,-131.5 1313.5,-112.5 1256.5,-112.5"/>
<text text-anchor="middle" x="1285" y="-119.5" font-family="Helvetica,sans-Serif" font-size="10.00">window.h</text>
</a>
</g>
</g>
<!-- Node25&#45;&gt;Node30 -->
<g id="edge51" class="edge">
<title>Node25&#45;&gt;Node30</title>
<path fill="none" stroke="midnightblue" d="M1523.93,-171.32C1476.01,-161.63 1378.32,-141.87 1323.87,-130.86"/>
<polygon fill="midnightblue" stroke="midnightblue" points="1324.4,-127.4 1313.9,-128.85 1323.01,-134.26 1324.4,-127.4"/>
</g>
<!-- Node31 -->
<g id="node31" class="node">
<title>Node31</title>
<g id="a_node31"><a xlink:href="fence_8h.html" target="_top" xlink:title=" ">
<polygon fill="none" stroke="black" points="2300,-112.5 2300,-131.5 2348,-131.5 2348,-112.5 2300,-112.5"/>
<text text-anchor="middle" x="2324" y="-119.5" font-family="Helvetica,sans-Serif" font-size="10.00">fence.h</text>
</a>
</g>
</g>
<!-- Node25&#45;&gt;Node31 -->
<g id="edge56" class="edge">
<title>Node25&#45;&gt;Node31</title>
<path fill="none" stroke="midnightblue" d="M1580.12,-169.77C1583.43,-169.09 1586.78,-168.48 1590,-168 1857.4,-128.44 2184.57,-123.53 2289.73,-123.02"/>
<polygon fill="midnightblue" stroke="midnightblue" points="2289.78,-126.52 2299.77,-122.98 2289.75,-119.52 2289.78,-126.52"/>
</g>
<!-- Node30&#45;&gt;Node11 -->
<g id="edge54" class="edge">
<title>Node30&#45;&gt;Node11</title>
<path fill="none" stroke="midnightblue" d="M1256.4,-118.1C1167.4,-109.06 895.26,-81.44 792.68,-71.03"/>
<polygon fill="midnightblue" stroke="midnightblue" points="793.03,-67.54 782.72,-70.02 792.32,-74.51 793.03,-67.54"/>
</g>
<!-- Node30&#45;&gt;Node12 -->
<g id="edge53" class="edge">
<title>Node30&#45;&gt;Node12</title>
<path fill="none" stroke="midnightblue" d="M1259.65,-112.44C1231.31,-102.88 1185.44,-87.4 1155.24,-77.21"/>
<polygon fill="midnightblue" stroke="midnightblue" points="1156.25,-73.85 1145.65,-73.97 1154.01,-80.49 1156.25,-73.85"/>
</g>
<!-- Node30&#45;&gt;Node23 -->
<g id="edge55" class="edge">
<title>Node30&#45;&gt;Node23</title>
<path fill="none" stroke="midnightblue" d="M1313.6,-114.53C1318.39,-113.59 1323.32,-112.7 1328,-112 1504.54,-85.67 1551.34,-101.54 1728,-76 1729.29,-75.81 1730.59,-75.62 1731.91,-75.41"/>
<polygon fill="midnightblue" stroke="midnightblue" points="1732.84,-78.8 1742.09,-73.64 1731.64,-71.9 1732.84,-78.8"/>
</g>
<!-- Node30&#45;&gt;Node24 -->
<g id="edge52" class="edge">
<title>Node30&#45;&gt;Node24</title>
<path fill="none" stroke="midnightblue" d="M1313.7,-114.53C1394.59,-96.3 1625.01,-44.36 1725.34,-21.74"/>
<polygon fill="midnightblue" stroke="midnightblue" points="1726.22,-25.13 1735.21,-19.52 1724.68,-18.3 1726.22,-25.13"/>
</g>
<!-- Node31&#45;&gt;Node8 -->
<g id="edge60" class="edge">
<title>Node31&#45;&gt;Node8</title>
<path fill="none" stroke="midnightblue" d="M2307.83,-131.61C2265.18,-153.94 2145.6,-214.01 2039,-244 1944.96,-270.46 1829.92,-282.09 1772.03,-286.57"/>
<polygon fill="midnightblue" stroke="midnightblue" points="1771.62,-283.09 1761.91,-287.32 1772.14,-290.07 1771.62,-283.09"/>
</g>
<!-- Node31&#45;&gt;Node9 -->
<g id="edge57" class="edge">
<title>Node31&#45;&gt;Node9</title>
<path fill="none" stroke="midnightblue" d="M2339.54,-112.37C2373.88,-93.29 2456.44,-47.42 2497.69,-24.51"/>
<polygon fill="midnightblue" stroke="midnightblue" points="2499.49,-27.51 2506.54,-19.59 2496.09,-21.39 2499.49,-27.51"/>
</g>
<!-- Node31&#45;&gt;Node10 -->
<g id="edge58" class="edge">
<title>Node31&#45;&gt;Node10</title>
<path fill="none" stroke="midnightblue" d="M2348.32,-114.81C2383.53,-105.84 2449.26,-89.09 2492.83,-78"/>
<polygon fill="midnightblue" stroke="midnightblue" points="2493.76,-81.37 2502.59,-75.51 2492.03,-74.59 2493.76,-81.37"/>
</g>
<!-- Node31&#45;&gt;Node22 -->
<g id="edge59" class="edge">
<title>Node31&#45;&gt;Node22</title>
<path fill="none" stroke="midnightblue" d="M2348.01,-114.71C2352.63,-113.67 2357.44,-112.71 2362,-112 2563.78,-80.69 2807.52,-70.92 2909.48,-68.08"/>
<polygon fill="midnightblue" stroke="midnightblue" points="2909.86,-71.57 2919.76,-67.81 2909.67,-64.58 2909.86,-71.57"/>
</g>
<!-- Node32&#45;&gt;Node4 -->
<g id="edge83" class="edge">
<title>Node32&#45;&gt;Node4</title>
<path fill="none" stroke="midnightblue" d="M1699.86,-454.99C1510.61,-444.62 691.46,-391.68 492,-244 423.49,-193.28 412.91,-130.69 454,-56 462.48,-40.58 478.73,-29.7 493.54,-22.51"/>
<polygon fill="midnightblue" stroke="midnightblue" points="495.26,-25.57 502.97,-18.3 492.41,-19.18 495.26,-25.57"/>
</g>
<!-- Node32&#45;&gt;Node8 -->
<g id="edge64" class="edge">
<title>Node32&#45;&gt;Node8</title>
<path fill="none" stroke="midnightblue" d="M1738.78,-448.08C1738.16,-421.95 1736.31,-345.21 1735.45,-309.58"/>
<polygon fill="midnightblue" stroke="midnightblue" points="1738.95,-309.48 1735.21,-299.57 1731.95,-309.65 1738.95,-309.48"/>
</g>
<!-- Node32&#45;&gt;Node19 -->
<g id="edge63" class="edge">
<title>Node32&#45;&gt;Node19</title>
<path fill="none" stroke="midnightblue" d="M1778.21,-455.56C1925.51,-450.04 2439,-429.6 2469,-412 2520.04,-382.06 2522.1,-356.08 2541,-300 2551.82,-267.89 2536.4,-256.18 2547,-224 2557.72,-191.47 2580.97,-158.72 2596.03,-139.68"/>
<polygon fill="midnightblue" stroke="midnightblue" points="2598.9,-141.69 2602.48,-131.71 2593.47,-137.28 2598.9,-141.69"/>
</g>
<!-- Node32&#45;&gt;Node22 -->
<g id="edge65" class="edge">
<title>Node32&#45;&gt;Node22</title>
<path fill="none" stroke="midnightblue" d="M1778.15,-455.56C1967.86,-448.32 2786.31,-413.93 2883,-356 2989.07,-292.45 3009.41,-249.47 3048,-132 3050.77,-123.56 3052.67,-119.56 3048,-112 3038.33,-96.35 3021.38,-85.96 3004.78,-79.15"/>
<polygon fill="midnightblue" stroke="midnightblue" points="3005.69,-75.76 2995.1,-75.54 3003.25,-82.32 3005.69,-75.76"/>
</g>
<!-- Node33 -->
<g id="node33" class="node">
<title>Node33</title>
<g id="a_node33"><a xlink:href="pipelinelayout_8h.html" target="_top" xlink:title=" ">
<polygon fill="none" stroke="black" points="2210.5,-392.5 2210.5,-411.5 2293.5,-411.5 2293.5,-392.5 2210.5,-392.5"/>
<text text-anchor="middle" x="2252" y="-399.5" font-family="Helvetica,sans-Serif" font-size="10.00">pipelinelayout.h</text>
</a>
</g>
</g>
<!-- Node32&#45;&gt;Node33 -->
<g id="edge66" class="edge">
<title>Node32&#45;&gt;Node33</title>
<path fill="none" stroke="midnightblue" d="M1778.4,-452.85C1870.04,-443.21 2097.48,-419.27 2200.19,-408.45"/>
<polygon fill="midnightblue" stroke="midnightblue" points="2200.75,-411.91 2210.32,-407.39 2200.01,-404.95 2200.75,-411.91"/>
</g>
<!-- Node35 -->
<g id="node35" class="node">
<title>Node35</title>
<g id="a_node35"><a xlink:href="descriptorlayout_8h.html" target="_top" xlink:title=" ">
<polygon fill="none" stroke="black" points="1579,-336.5 1579,-355.5 1671,-355.5 1671,-336.5 1579,-336.5"/>
<text text-anchor="middle" x="1625" y="-343.5" font-family="Helvetica,sans-Serif" font-size="10.00">descriptorlayout.h</text>
</a>
</g>
</g>
<!-- Node32&#45;&gt;Node35 -->
<g id="edge82" class="edge">
<title>Node32&#45;&gt;Node35</title>
<path fill="none" stroke="midnightblue" d="M1730.05,-448.37C1710.91,-429.89 1665.72,-386.29 1641.32,-362.74"/>
<polygon fill="midnightblue" stroke="midnightblue" points="1643.53,-360.02 1633.9,-355.59 1638.67,-365.05 1643.53,-360.02"/>
</g>
<!-- Node33&#45;&gt;Node4 -->
<g id="edge69" class="edge">
<title>Node33&#45;&gt;Node4</title>
<path fill="none" stroke="midnightblue" d="M2210.29,-392.44C2128.21,-375.65 1951.22,-339.69 1923,-336 1679.22,-304.11 1615.09,-329.43 1371,-300 1299.98,-291.44 1115.73,-280.14 1054,-244 960.79,-189.43 994.69,-107.97 900,-56 841.26,-23.76 637.28,-14.32 557.42,-11.82"/>
<polygon fill="midnightblue" stroke="midnightblue" points="557.1,-8.31 547,-11.51 556.89,-15.3 557.1,-8.31"/>
</g>
<!-- Node33&#45;&gt;Node8 -->
<g id="edge80" class="edge">
<title>Node33&#45;&gt;Node8</title>
<path fill="none" stroke="midnightblue" d="M2227.91,-392.46C2188.2,-378.68 2106.28,-351.53 2035,-336 1921.45,-311.25 1890.4,-320.47 1776,-300 1774.71,-299.77 1773.4,-299.53 1772.07,-299.27"/>
<polygon fill="midnightblue" stroke="midnightblue" points="1772.34,-295.76 1761.85,-297.21 1770.95,-302.62 1772.34,-295.76"/>
</g>
<!-- Node33&#45;&gt;Node9 -->
<g id="edge67" class="edge">
<title>Node33&#45;&gt;Node9</title>
<path fill="none" stroke="midnightblue" d="M2293.66,-398.15C2395.46,-391.04 2654.69,-371.92 2740,-356 2918.96,-322.61 2965.73,-313.48 3134,-244 3212.89,-211.42 3257.69,-211 3290,-132 3326.5,-42.76 3219.46,-74.25 3133,-56 2929.55,-13.05 2680.53,-9.45 2574.17,-10.15"/>
<polygon fill="midnightblue" stroke="midnightblue" points="2574,-6.66 2564.03,-10.24 2574.06,-13.66 2574,-6.66"/>
</g>
<!-- Node33&#45;&gt;Node11 -->
<g id="edge68" class="edge">
<title>Node33&#45;&gt;Node11</title>
<path fill="none" stroke="midnightblue" d="M2210.41,-394.31C2205.55,-393.53 2200.67,-392.75 2196,-392 2095.13,-375.9 2069.81,-372.47 1969,-356 1916.07,-347.36 1903.29,-342.06 1850,-336 1585.45,-305.89 1515.88,-335.52 1252,-300 1132.27,-283.88 1096.25,-293.4 986,-244 893.73,-202.65 804.09,-118.6 768.77,-83.25"/>
<polygon fill="midnightblue" stroke="midnightblue" points="770.86,-80.39 761.35,-75.73 765.88,-85.3 770.86,-80.39"/>
</g>
<!-- Node33&#45;&gt;Node22 -->
<g id="edge81" class="edge">
<title>Node33&#45;&gt;Node22</title>
<path fill="none" stroke="midnightblue" d="M2293.75,-397.4C2389.93,-388.97 2621.44,-367.74 2655,-356 2671.54,-350.21 2908.62,-199.31 2922,-188 2947.48,-166.46 2960.11,-163.17 2972,-132 2977.84,-116.68 2972.89,-98.35 2967.33,-85.07"/>
<polygon fill="midnightblue" stroke="midnightblue" points="2970.33,-83.23 2962.93,-75.65 2963.99,-86.19 2970.33,-83.23"/>
</g>
<!-- Node34 -->
<g id="node34" class="node">
<title>Node34</title>
<g id="a_node34"><a xlink:title=" ">
<polygon fill="none" stroke="#bfbfbf" points="2222.5,-336.5 2222.5,-355.5 2281.5,-355.5 2281.5,-336.5 2222.5,-336.5"/>
<text text-anchor="middle" x="2252" y="-343.5" font-family="Helvetica,sans-Serif" font-size="10.00">functional</text>
</a>
</g>
</g>
<!-- Node33&#45;&gt;Node34 -->
<g id="edge70" class="edge">
<title>Node33&#45;&gt;Node34</title>
<path fill="none" stroke="midnightblue" d="M2252,-392.08C2252,-385.01 2252,-374.86 2252,-365.99"/>
<polygon fill="midnightblue" stroke="midnightblue" points="2255.5,-365.75 2252,-355.75 2248.5,-365.75 2255.5,-365.75"/>
</g>
<!-- Node33&#45;&gt;Node35 -->
<g id="edge71" class="edge">
<title>Node33&#45;&gt;Node35</title>
<path fill="none" stroke="midnightblue" d="M2210.36,-396.64C2195.43,-395.11 2178.46,-393.43 2163,-392 1987.4,-375.78 1779.32,-359.09 1681.35,-351.39"/>
<polygon fill="midnightblue" stroke="midnightblue" points="1681.33,-347.88 1671.08,-350.58 1680.78,-354.86 1681.33,-347.88"/>
</g>
<!-- Node36 -->
<g id="node36" class="node">
<title>Node36</title>
<g id="a_node36"><a xlink:href="pushconstant_8h.html" target="_top" xlink:title=" ">
<polygon fill="none" stroke="black" points="3176.5,-112.5 3176.5,-131.5 3259.5,-131.5 3259.5,-112.5 3176.5,-112.5"/>
<text text-anchor="middle" x="3218" y="-119.5" font-family="Helvetica,sans-Serif" font-size="10.00">pushconstant.h</text>
</a>
</g>
</g>
<!-- Node33&#45;&gt;Node36 -->
<g id="edge77" class="edge">
<title>Node33&#45;&gt;Node36</title>
<path fill="none" stroke="midnightblue" d="M2293.73,-397.45C2396.25,-388.63 2654.88,-365.74 2693,-356 2897.81,-303.68 3123.41,-178.25 3194.94,-136.66"/>
<polygon fill="midnightblue" stroke="midnightblue" points="3196.76,-139.65 3203.63,-131.58 3193.23,-133.6 3196.76,-139.65"/>
</g>
<!-- Node35&#45;&gt;Node4 -->
<g id="edge74" class="edge">
<title>Node35&#45;&gt;Node4</title>
<path fill="none" stroke="midnightblue" d="M1578.8,-343.39C1426.87,-337.94 948.65,-319.41 882,-300 718.07,-252.26 578.62,-82.21 537.38,-27.84"/>
<polygon fill="midnightblue" stroke="midnightblue" points="540.01,-25.53 531.22,-19.62 534.41,-29.72 540.01,-25.53"/>
</g>
<!-- Node35&#45;&gt;Node8 -->
<g id="edge76" class="edge">
<title>Node35&#45;&gt;Node8</title>
<path fill="none" stroke="midnightblue" d="M1642.67,-336.32C1660.39,-327.62 1687.9,-314.12 1708.29,-304.11"/>
<polygon fill="midnightblue" stroke="midnightblue" points="1709.94,-307.2 1717.37,-299.65 1706.85,-300.92 1709.94,-307.2"/>
</g>
<!-- Node35&#45;&gt;Node9 -->
<g id="edge72" class="edge">
<title>Node35&#45;&gt;Node9</title>
<path fill="none" stroke="midnightblue" d="M1653.3,-336.42C1682.75,-327.46 1730.17,-312.94 1771,-300 1847.64,-275.71 1869.22,-275.93 1943,-244 1990.46,-223.46 2001.42,-215.84 2045,-188 2080.36,-165.41 2087.47,-157.22 2121,-132 2165.33,-98.66 2168.94,-77.67 2220,-56 2302.46,-21.01 2407.63,-12.61 2469.62,-10.93"/>
<polygon fill="midnightblue" stroke="midnightblue" points="2470,-14.43 2479.93,-10.71 2469.85,-7.43 2470,-14.43"/>
</g>
<!-- Node35&#45;&gt;Node11 -->
<g id="edge73" class="edge">
<title>Node35&#45;&gt;Node11</title>
<path fill="none" stroke="midnightblue" d="M1578.77,-343.27C1449.79,-338.21 1087.81,-322.37 971,-300 930.9,-292.32 823.82,-273.88 796,-244 774.53,-220.94 760.43,-126.54 755.24,-85.83"/>
<polygon fill="midnightblue" stroke="midnightblue" points="758.71,-85.37 754.01,-75.87 751.76,-86.23 758.71,-85.37"/>
</g>
<!-- Node35&#45;&gt;Node22 -->
<g id="edge75" class="edge">
<title>Node35&#45;&gt;Node22</title>
<path fill="none" stroke="midnightblue" d="M1671.25,-342.18C1803.09,-334.06 2174.81,-310.53 2229,-300 2247.01,-296.5 2776.96,-125.48 2921.75,-78.71"/>
<polygon fill="midnightblue" stroke="midnightblue" points="2923.06,-81.97 2931.5,-75.56 2920.91,-75.31 2923.06,-81.97"/>
</g>
<!-- Node36&#45;&gt;Node9 -->
<g id="edge78" class="edge">
<title>Node36&#45;&gt;Node9</title>
<path fill="none" stroke="midnightblue" d="M3195.38,-112.43C3156.89,-98.22 3075.94,-69.98 3005,-56 2850.21,-25.5 2663.32,-15.54 2574.2,-12.39"/>
<polygon fill="midnightblue" stroke="midnightblue" points="2574.19,-8.89 2564.08,-12.05 2573.96,-15.89 2574.19,-8.89"/>
</g>
<!-- Node36&#45;&gt;Node22 -->
<g id="edge79" class="edge">
<title>Node36&#45;&gt;Node22</title>
<path fill="none" stroke="midnightblue" d="M3176.8,-112.44C3130.42,-102.81 3055.13,-87.17 3006.09,-76.99"/>
<polygon fill="midnightblue" stroke="midnightblue" points="3006.55,-73.51 2996.04,-74.9 3005.12,-80.36 3006.55,-73.51"/>
</g>
<!-- Node37&#45;&gt;Node4 -->
<g id="edge89" class="edge">
<title>Node37&#45;&gt;Node4</title>
<path fill="none" stroke="midnightblue" d="M444.36,-339.15C389.13,-327.01 267.2,-300.19 267,-300 245.01,-279.45 248,-265.1 248,-235 248,-235 248,-235 248,-121 248,-84.28 267.72,-75.23 299,-56 360.19,-18.4 446.69,-11.4 492.92,-10.58"/>
<polygon fill="midnightblue" stroke="midnightblue" points="492.99,-14.08 502.96,-10.49 492.93,-7.08 492.99,-14.08"/>
</g>
<!-- Node37&#45;&gt;Node8 -->
<g id="edge91" class="edge">
<title>Node37&#45;&gt;Node8</title>
<path fill="none" stroke="midnightblue" d="M497.69,-343.86C659.63,-336.94 1509.7,-300.63 1698.03,-292.58"/>
<polygon fill="midnightblue" stroke="midnightblue" points="1698.4,-296.07 1708.24,-292.14 1698.1,-289.07 1698.4,-296.07"/>
</g>
<!-- Node37&#45;&gt;Node9 -->
<g id="edge85" class="edge">
<title>Node37&#45;&gt;Node9</title>
<path fill="none" stroke="midnightblue" d="M497.63,-343.46C678.55,-332.92 1722,-271.11 1783,-244 1827.81,-224.08 1821.93,-194.8 1863,-168 1897.7,-145.36 1911.53,-149.69 1949,-132 2014.44,-101.11 2023.76,-77.04 2093,-56 2224.41,-16.06 2387.72,-10.25 2469.78,-10.17"/>
<polygon fill="midnightblue" stroke="midnightblue" points="2469.84,-13.67 2479.85,-10.19 2469.86,-6.67 2469.84,-13.67"/>
</g>
<!-- Node37&#45;&gt;Node11 -->
<g id="edge87" class="edge">
<title>Node37&#45;&gt;Node11</title>
<path fill="none" stroke="midnightblue" d="M469.68,-336.22C468.13,-323.38 466.61,-298.94 474,-280 497.63,-219.46 520.62,-212.48 568,-168 598.59,-139.28 607.45,-132.6 644,-112 667.66,-98.66 696.08,-87.06 717.96,-78.98"/>
<polygon fill="midnightblue" stroke="midnightblue" points="719.3,-82.22 727.52,-75.52 716.92,-75.64 719.3,-82.22"/>
</g>
<!-- Node37&#45;&gt;Node12 -->
<g id="edge90" class="edge">
<title>Node37&#45;&gt;Node12</title>
<path fill="none" stroke="midnightblue" d="M485.1,-336.38C506.77,-323.32 549.78,-298.1 588,-280 775.95,-190.98 1011.73,-106.43 1094.55,-77.51"/>
<polygon fill="midnightblue" stroke="midnightblue" points="1095.81,-80.78 1104.11,-74.18 1093.51,-74.17 1095.81,-80.78"/>
</g>
<!-- Node38 -->
<g id="node38" class="node">
<title>Node38</title>
<g id="a_node38"><a xlink:title=" ">
<polygon fill="none" stroke="#bfbfbf" points="372.5,-280.5 372.5,-299.5 421.5,-299.5 421.5,-280.5 372.5,-280.5"/>
<text text-anchor="middle" x="397" y="-287.5" font-family="Helvetica,sans-Serif" font-size="10.00">cassert</text>
</a>
</g>
</g>
<!-- Node37&#45;&gt;Node38 -->
<g id="edge86" class="edge">
<title>Node37&#45;&gt;Node38</title>
<path fill="none" stroke="midnightblue" d="M459.11,-336.32C447.85,-328.11 430.71,-315.6 417.29,-305.81"/>
<polygon fill="midnightblue" stroke="midnightblue" points="419.25,-302.9 409.11,-299.83 415.12,-308.56 419.25,-302.9"/>
</g>
<!-- Node37&#45;&gt;Node39 -->
<g id="edge88" class="edge">
<title>Node37&#45;&gt;Node39</title>
<path fill="none" stroke="midnightblue" d="M444.23,-341.25C374.81,-331.51 189.31,-305.49 116.21,-295.24"/>
<polygon fill="midnightblue" stroke="midnightblue" points="116.26,-291.71 105.87,-293.79 115.29,-298.64 116.26,-291.71"/>
</g>
<!-- Node40 -->
<g id="node40" class="node">
<title>Node40</title>
<g id="a_node40"><a xlink:href="utils_8h.html" target="_top" xlink:title=" ">
<polygon fill="none" stroke="black" points="276,-280.5 276,-299.5 354,-299.5 354,-280.5 276,-280.5"/>
<text text-anchor="middle" x="315" y="-287.5" font-family="Helvetica,sans-Serif" font-size="10.00">../../utils/utils.h</text>
</a>
</g>
</g>
<!-- Node37&#45;&gt;Node40 -->
<g id="edge92" class="edge">
<title>Node37&#45;&gt;Node40</title>
<path fill="none" stroke="midnightblue" d="M446.28,-336.44C420.15,-327.4 378.74,-313.06 349.42,-302.92"/>
<polygon fill="midnightblue" stroke="midnightblue" points="350.2,-299.48 339.6,-299.52 347.91,-306.1 350.2,-299.48"/>
</g>
<!-- Node40&#45;&gt;Node4 -->
<g id="edge93" class="edge">
<title>Node40&#45;&gt;Node4</title>
<path fill="none" stroke="midnightblue" d="M311.09,-280.36C303.17,-262.07 286,-217.91 286,-179 286,-179 286,-179 286,-121 286,-31 427.58,-14.38 492.8,-11.5"/>
<polygon fill="midnightblue" stroke="midnightblue" points="493.08,-14.99 502.94,-11.13 492.82,-7.99 493.08,-14.99"/>
</g>
<!-- Node41 -->
<g id="node41" class="node">
<title>Node41</title>
<g id="a_node41"><a xlink:title=" ">
<polygon fill="none" stroke="#bfbfbf" points="314,-224.5 314,-243.5 402,-243.5 402,-224.5 314,-224.5"/>
<text text-anchor="middle" x="358" y="-231.5" font-family="Helvetica,sans-Serif" font-size="10.00">boost/bimap.hpp</text>
</a>
</g>
</g>
<!-- Node40&#45;&gt;Node41 -->
<g id="edge94" class="edge">
<title>Node40&#45;&gt;Node41</title>
<path fill="none" stroke="midnightblue" d="M322.1,-280.08C328.24,-272.38 337.27,-261.03 344.74,-251.65"/>
<polygon fill="midnightblue" stroke="midnightblue" points="347.54,-253.75 351.03,-243.75 342.06,-249.39 347.54,-253.75"/>
</g>
<!-- Node42&#45;&gt;Node4 -->
<g id="edge99" class="edge">
<title>Node42&#45;&gt;Node4</title>
<path fill="none" stroke="midnightblue" d="M2095.16,-512.14C1953.15,-508.57 1429.75,-493.9 1266,-468 1171.02,-452.97 1149.61,-437.91 1057,-412 885.8,-364.1 832.59,-378.33 673,-300 587.26,-257.92 569.49,-222.51 539,-132 530.81,-107.69 528.13,-101.46 525,-76 523.1,-60.58 523.25,-42.95 523.78,-29.94"/>
<polygon fill="midnightblue" stroke="midnightblue" points="527.28,-30.04 524.32,-19.87 520.29,-29.67 527.28,-30.04"/>
</g>
<!-- Node42&#45;&gt;Node9 -->
<g id="edge96" class="edge">
<title>Node42&#45;&gt;Node9</title>
<path fill="none" stroke="midnightblue" d="M2166.58,-508.74C2233.07,-500.76 2380.67,-483.05 2505,-468 2957.1,-413.28 3417.36,-583.99 3473,-132 3477.19,-97.99 3486.31,-77.95 3460,-56 3425.81,-27.48 2766.78,-14.86 2574.34,-11.78"/>
<polygon fill="midnightblue" stroke="midnightblue" points="2574.25,-8.28 2564.19,-11.62 2574.14,-15.28 2574.25,-8.28"/>
</g>
<!-- Node42&#45;&gt;Node11 -->
<g id="edge100" class="edge">
<title>Node42&#45;&gt;Node11</title>
<path fill="none" stroke="midnightblue" d="M2095.16,-512.14C1953.15,-508.57 1429.75,-493.9 1266,-468 1171.02,-452.97 1149.08,-439.74 1057,-412 910.72,-367.92 822.37,-423.19 732,-300 682.57,-232.62 708.01,-192.89 729,-112 731.53,-102.27 736.53,-92.31 741.32,-84.25"/>
<polygon fill="midnightblue" stroke="midnightblue" points="744.29,-86.1 746.69,-75.78 738.38,-82.36 744.29,-86.1"/>
</g>
<!-- Node42&#45;&gt;Node24 -->
<g id="edge97" class="edge">
<title>Node42&#45;&gt;Node24</title>
<path fill="none" stroke="midnightblue" d="M2164.13,-504.43C2205.15,-491.84 2273.24,-463.99 2303,-412 2313.02,-394.5 2301.82,-351.78 2291,-336 2167.35,-155.66 1907.37,-55.13 1810.46,-22.73"/>
<polygon fill="midnightblue" stroke="midnightblue" points="1811.39,-19.35 1800.8,-19.54 1809.2,-26 1811.39,-19.35"/>
</g>
<!-- Node42&#45;&gt;Node30 -->
<g id="edge101" class="edge">
<title>Node42&#45;&gt;Node30</title>
<path fill="none" stroke="midnightblue" d="M2095.26,-512.65C1923.38,-510.51 1190,-495.93 1190,-403 1190,-403 1190,-403 1190,-233 1190,-202.77 1191.36,-191.8 1210,-168 1220.98,-153.98 1237.65,-143.36 1252.48,-135.97"/>
<polygon fill="midnightblue" stroke="midnightblue" points="1254.31,-138.97 1261.89,-131.57 1251.35,-132.63 1254.31,-138.97"/>
</g>
<!-- Node43 -->
<g id="node43" class="node">
<title>Node43</title>
<g id="a_node43"><a xlink:title=" ">
<polygon fill="none" stroke="#bfbfbf" points="2044,-392.5 2044,-411.5 2154,-411.5 2154,-392.5 2044,-392.5"/>
<text text-anchor="middle" x="2099" y="-399.5" font-family="Helvetica,sans-Serif" font-size="10.00">dexode/EventBus.hpp</text>
</a>
</g>
</g>
<!-- Node42&#45;&gt;Node43 -->
<g id="edge98" class="edge">
<title>Node42&#45;&gt;Node43</title>
<path fill="none" stroke="midnightblue" d="M2128.49,-504.37C2123.3,-486.54 2111.3,-445.3 2104.32,-421.27"/>
<polygon fill="midnightblue" stroke="midnightblue" points="2107.65,-420.22 2101.5,-411.59 2100.93,-422.17 2107.65,-420.22"/>
</g>
<!-- Node44 -->
<g id="node44" class="node">
<title>Node44</title>
<g id="a_node44"><a xlink:href="framebuffer_8h.html" target="_top" xlink:title=" ">
<polygon fill="none" stroke="black" points="2387.5,-448.5 2387.5,-467.5 2460.5,-467.5 2460.5,-448.5 2387.5,-448.5"/>
<text text-anchor="middle" x="2424" y="-455.5" font-family="Helvetica,sans-Serif" font-size="10.00">framebuffer.h</text>
</a>
</g>
</g>
<!-- Node42&#45;&gt;Node44 -->
<g id="edge102" class="edge">
<title>Node42&#45;&gt;Node44</title>
<path fill="none" stroke="midnightblue" d="M2166.6,-505.55C2219.45,-495.34 2318.42,-477.1 2377.1,-466.74"/>
<polygon fill="midnightblue" stroke="midnightblue" points="2377.97,-470.14 2387.22,-464.96 2376.76,-463.25 2377.97,-470.14"/>
</g>
<!-- Node49 -->
<g id="node49" class="node">
<title>Node49</title>
<g id="a_node49"><a xlink:href="semaphore_8h.html" target="_top" xlink:title=" ">
<polygon fill="none" stroke="black" points="2973,-336.5 2973,-355.5 3045,-355.5 3045,-336.5 2973,-336.5"/>
<text text-anchor="middle" x="3009" y="-343.5" font-family="Helvetica,sans-Serif" font-size="10.00">semaphore.h</text>
</a>
</g>
</g>
<!-- Node42&#45;&gt;Node49 -->
<g id="edge134" class="edge">
<title>Node42&#45;&gt;Node49</title>
<path fill="none" stroke="midnightblue" d="M2166.87,-511.8C2229.54,-508.92 2362.56,-499.32 2470,-468 2490.23,-462.1 2492.74,-453.8 2513,-448 2639.57,-411.8 2678.43,-440.29 2807,-412 2868.73,-398.42 2938.44,-373.85 2977.72,-359.12"/>
<polygon fill="midnightblue" stroke="midnightblue" points="2979.14,-362.32 2987.26,-355.51 2976.66,-355.77 2979.14,-362.32"/>
</g>
<!-- Node50 -->
<g id="node50" class="node">
<title>Node50</title>
<g id="a_node50"><a xlink:href="eventbus_8h.html" target="_top" xlink:title=" ">
<polygon fill="none" stroke="black" points="2031.5,-448.5 2031.5,-467.5 2102.5,-467.5 2102.5,-448.5 2031.5,-448.5"/>
<text text-anchor="middle" x="2067" y="-455.5" font-family="Helvetica,sans-Serif" font-size="10.00">../eventbus.h</text>
</a>
</g>
</g>
<!-- Node42&#45;&gt;Node50 -->
<g id="edge131" class="edge">
<title>Node42&#45;&gt;Node50</title>
<path fill="none" stroke="midnightblue" d="M2120.72,-504.32C2111.16,-496.26 2096.72,-484.08 2085.22,-474.37"/>
<polygon fill="midnightblue" stroke="midnightblue" points="2087.37,-471.61 2077.47,-467.83 2082.86,-476.96 2087.37,-471.61"/>
</g>
<!-- Node51 -->
<g id="node51" class="node">
<title>Node51</title>
<g id="a_node51"><a xlink:href="commandbuffer_8h.html" target="_top" xlink:title=" ">
<polygon fill="none" stroke="black" points="2238.5,-616.5 2238.5,-635.5 2329.5,-635.5 2329.5,-616.5 2238.5,-616.5"/>
<text text-anchor="middle" x="2284" y="-623.5" font-family="Helvetica,sans-Serif" font-size="10.00">commandbuffer.h</text>
</a>
</g>
</g>
<!-- Node42&#45;&gt;Node51 -->
<g id="edge135" class="edge">
<title>Node42&#45;&gt;Node51</title>
<path fill="none" stroke="midnightblue" d="M2142.95,-523.59C2169.04,-542.35 2231.36,-587.15 2263.72,-610.42"/>
<polygon fill="midnightblue" stroke="midnightblue" points="2261.83,-613.37 2271.99,-616.37 2265.92,-607.69 2261.83,-613.37"/>
</g>
<!-- Node44&#45;&gt;Node4 -->
<g id="edge104" class="edge">
<title>Node44&#45;&gt;Node4</title>
<path fill="none" stroke="midnightblue" d="M2387.43,-452.71C2342.74,-446.77 2265.28,-434.17 2202,-412 2183.62,-405.56 2181.55,-397.96 2163,-392 2059.47,-358.75 2027.32,-378.79 1921,-356 1888.94,-349.13 1882.34,-341.37 1850,-336 1560.2,-287.88 1478.59,-354.94 1190,-300 1112.68,-285.28 1090.98,-281.9 1022,-244 905.99,-180.25 911.58,-110.62 791,-56 712.34,-20.36 609,-12.72 557.33,-11.23"/>
<polygon fill="midnightblue" stroke="midnightblue" points="557.2,-7.72 547.12,-11 557.04,-14.72 557.2,-7.72"/>
</g>
<!-- Node44&#45;&gt;Node8 -->
<g id="edge106" class="edge">
<title>Node44&#45;&gt;Node8</title>
<path fill="none" stroke="midnightblue" d="M2415.3,-448.46C2388.21,-421.96 2306.28,-342.53 2291,-336 2185.51,-290.9 1889.55,-316.34 1776,-300 1774.7,-299.81 1773.38,-299.61 1772.05,-299.39"/>
<polygon fill="midnightblue" stroke="midnightblue" points="1772.28,-295.87 1761.8,-297.47 1770.99,-302.75 1772.28,-295.87"/>
</g>
<!-- Node44&#45;&gt;Node9 -->
<g id="edge103" class="edge">
<title>Node44&#45;&gt;Node9</title>
<path fill="none" stroke="midnightblue" d="M2460.8,-453.18C2476.83,-451.55 2495.84,-449.64 2513,-448 2691.57,-430.98 2739.56,-449.41 2915,-412 2989.92,-396.02 3007,-384.76 3078,-356 3259.71,-282.4 3421.52,-324.62 3458,-132 3464.52,-97.57 3465.3,-76.66 3437,-56 3402.01,-30.46 2763.79,-15.8 2574.49,-12"/>
<polygon fill="midnightblue" stroke="midnightblue" points="2574.31,-8.49 2564.25,-11.79 2574.17,-15.49 2574.31,-8.49"/>
</g>
<!-- Node44&#45;&gt;Node22 -->
<g id="edge105" class="edge">
<title>Node44&#45;&gt;Node22</title>
<path fill="none" stroke="midnightblue" d="M2460.56,-453.2C2542.89,-444.58 2740.77,-423.37 2807,-412 2917.94,-392.96 2968.33,-429.02 3054,-356 3138.25,-284.19 3178.06,-194.28 3104,-112 3096.95,-104.16 3042.32,-88.7 3001.94,-78.11"/>
<polygon fill="midnightblue" stroke="midnightblue" points="3002.58,-74.66 2992.02,-75.53 3000.82,-81.43 3002.58,-74.66"/>
</g>
<!-- Node44&#45;&gt;Node42 -->
<g id="edge125" class="edge">
<title>Node44&#45;&gt;Node42</title>
<path fill="none" stroke="midnightblue" d="M2387.44,-466.64C2334.01,-476.95 2234.93,-495.2 2176.75,-505.46"/>
<polygon fill="midnightblue" stroke="midnightblue" points="2175.97,-502.05 2166.73,-507.22 2177.18,-508.94 2175.97,-502.05"/>
</g>
<!-- Node44&#45;&gt;Node45 -->
<g id="edge107" class="edge">
<title>Node44&#45;&gt;Node45</title>
<path fill="none" stroke="midnightblue" d="M2387.19,-453.7C2282.55,-444.33 1983.48,-417.55 1867.63,-407.18"/>
<polygon fill="midnightblue" stroke="midnightblue" points="1867.6,-403.66 1857.33,-406.25 1866.98,-410.63 1867.6,-403.66"/>
</g>
<!-- Node47 -->
<g id="node47" class="node">
<title>Node47</title>
<g id="a_node47"><a xlink:href="imageview_8h.html" target="_top" xlink:title=" ">
<polygon fill="none" stroke="black" points="2388.5,-392.5 2388.5,-411.5 2459.5,-411.5 2459.5,-392.5 2388.5,-392.5"/>
<text text-anchor="middle" x="2424" y="-399.5" font-family="Helvetica,sans-Serif" font-size="10.00">imageview.h</text>
</a>
</g>
</g>
<!-- Node44&#45;&gt;Node47 -->
<g id="edge114" class="edge">
<title>Node44&#45;&gt;Node47</title>
<path fill="none" stroke="midnightblue" d="M2424,-448.08C2424,-441.01 2424,-430.86 2424,-421.99"/>
<polygon fill="midnightblue" stroke="midnightblue" points="2427.5,-421.75 2424,-411.75 2420.5,-421.75 2427.5,-421.75"/>
</g>
<!-- Node44&#45;&gt;Node49 -->
<g id="edge126" class="edge">
<title>Node44&#45;&gt;Node49</title>
<path fill="none" stroke="midnightblue" d="M2460.73,-450.28C2465.53,-449.47 2470.38,-448.69 2475,-448 2605.2,-428.55 2641.73,-445.63 2769,-412 2791.34,-406.1 2795.01,-399.11 2817,-392 2866,-376.17 2923.7,-363.41 2962.96,-355.57"/>
<polygon fill="midnightblue" stroke="midnightblue" points="2963.64,-359.01 2972.78,-353.64 2962.29,-352.14 2963.64,-359.01"/>
</g>
<!-- Node45&#45;&gt;Node4 -->
<g id="edge109" class="edge">
<title>Node45&#45;&gt;Node4</title>
<path fill="none" stroke="midnightblue" d="M1784.88,-399.53C1619.8,-392.5 936.44,-360.25 732,-300 626.41,-268.88 590.1,-234.52 550,-132 540.48,-107.65 537.43,-101.57 532,-76 528.72,-60.54 526.94,-42.67 525.99,-29.59"/>
<polygon fill="midnightblue" stroke="midnightblue" points="529.48,-29.26 525.36,-19.5 522.49,-29.7 529.48,-29.26"/>
</g>
<!-- Node45&#45;&gt;Node8 -->
<g id="edge111" class="edge">
<title>Node45&#45;&gt;Node8</title>
<path fill="none" stroke="midnightblue" d="M1814.25,-392.37C1800,-374.14 1766.61,-331.43 1748.04,-307.68"/>
<polygon fill="midnightblue" stroke="midnightblue" points="1750.63,-305.31 1741.72,-299.59 1745.12,-309.63 1750.63,-305.31"/>
</g>
<!-- Node45&#45;&gt;Node9 -->
<g id="edge108" class="edge">
<title>Node45&#45;&gt;Node9</title>
<path fill="none" stroke="midnightblue" d="M1857.07,-399.31C1981.83,-393.35 2390.45,-372.75 2447,-356 2545.8,-326.74 2588.91,-326.98 2650,-244 2685.3,-196.04 2701.06,-164.53 2673,-112 2648.75,-66.61 2594.08,-38.05 2557.61,-23.31"/>
<polygon fill="midnightblue" stroke="midnightblue" points="2558.43,-19.87 2547.84,-19.51 2555.9,-26.4 2558.43,-19.87"/>
</g>
<!-- Node45&#45;&gt;Node22 -->
<g id="edge112" class="edge">
<title>Node45&#45;&gt;Node22</title>
<path fill="none" stroke="midnightblue" d="M1857.17,-399.29C2003.3,-392.32 2543.93,-365.96 2579,-356 2749.79,-307.51 2900.52,-137.3 2944.85,-83.46"/>
<polygon fill="midnightblue" stroke="midnightblue" points="2947.65,-85.56 2951.24,-75.59 2942.22,-81.14 2947.65,-85.56"/>
</g>
<!-- Node45&#45;&gt;Node42 -->
<g id="edge113" class="edge">
<title>Node45&#45;&gt;Node42</title>
<path fill="none" stroke="midnightblue" d="M1845.27,-411.61C1900.28,-431.13 2034.58,-478.79 2097.47,-501.1"/>
<polygon fill="midnightblue" stroke="midnightblue" points="2096.34,-504.41 2106.93,-504.46 2098.68,-497.82 2096.34,-504.41"/>
</g>
<!-- Node46 -->
<g id="node46" class="node">
<title>Node46</title>
<g id="a_node46"><a xlink:title=" ">
<polygon fill="none" stroke="#bfbfbf" points="1803,-336.5 1803,-355.5 1841,-355.5 1841,-336.5 1803,-336.5"/>
<text text-anchor="middle" x="1822" y="-343.5" font-family="Helvetica,sans-Serif" font-size="10.00">array</text>
</a>
</g>
</g>
<!-- Node45&#45;&gt;Node46 -->
<g id="edge110" class="edge">
<title>Node45&#45;&gt;Node46</title>
<path fill="none" stroke="midnightblue" d="M1821.17,-392.08C1821.3,-385.01 1821.48,-374.86 1821.65,-365.99"/>
<polygon fill="midnightblue" stroke="midnightblue" points="1825.15,-365.81 1821.84,-355.75 1818.15,-365.68 1825.15,-365.81"/>
</g>
<!-- Node47&#45;&gt;Node9 -->
<g id="edge115" class="edge">
<title>Node47&#45;&gt;Node9</title>
<path fill="none" stroke="midnightblue" d="M2459.5,-398.24C2518.43,-393.16 2639.88,-380.5 2740,-356 2864,-325.65 3200.09,-239.46 3269,-132 3339.26,-22.45 3536.01,-138.76 3057,-56 2881.75,-25.72 2670.55,-15.58 2574.33,-12.38"/>
<polygon fill="midnightblue" stroke="midnightblue" points="2574.39,-8.88 2564.28,-12.06 2574.16,-15.87 2574.39,-8.88"/>
</g>
<!-- Node47&#45;&gt;Node15 -->
<g id="edge124" class="edge">
<title>Node47&#45;&gt;Node15</title>
<path fill="none" stroke="midnightblue" d="M2431.63,-392.2C2441.81,-379.34 2457.4,-354.87 2447,-336 2391.42,-235.2 2057.79,-70.74 1959.33,-23.85"/>
<polygon fill="midnightblue" stroke="midnightblue" points="1960.83,-20.69 1950.3,-19.56 1957.83,-27.01 1960.83,-20.69"/>
</g>
<!-- Node48 -->
<g id="node48" class="node">
<title>Node48</title>
<g id="a_node48"><a xlink:href="image_8h.html" target="_top" xlink:title=" ">
<polygon fill="none" stroke="black" points="2388,-336.5 2388,-355.5 2438,-355.5 2438,-336.5 2388,-336.5"/>
<text text-anchor="middle" x="2413" y="-343.5" font-family="Helvetica,sans-Serif" font-size="10.00">image.h</text>
</a>
</g>
</g>
<!-- Node47&#45;&gt;Node48 -->
<g id="edge116" class="edge">
<title>Node47&#45;&gt;Node48</title>
<path fill="none" stroke="midnightblue" d="M2417.02,-392.08C2414.08,-385.01 2411.58,-374.86 2410.39,-365.99"/>
<polygon fill="midnightblue" stroke="midnightblue" points="2413.86,-365.47 2409.65,-355.75 2406.88,-365.98 2413.86,-365.47"/>
</g>
<!-- Node48&#45;&gt;Node4 -->
<g id="edge123" class="edge">
<title>Node48&#45;&gt;Node4</title>
<path fill="none" stroke="midnightblue" d="M2387.77,-343.04C2363.11,-341.15 2324.48,-338.25 2291,-336 1809.91,-303.6 1678.64,-357.47 1210,-244 1130.57,-224.77 1038,-260.72 1038,-179 1038,-179 1038,-179 1038,-121 1038,-81.08 1011.88,-73.52 976,-56 902.02,-19.88 647.68,-12.74 557.23,-11.34"/>
<polygon fill="midnightblue" stroke="midnightblue" points="557.09,-7.84 547.04,-11.2 556.99,-14.84 557.09,-7.84"/>
</g>
<!-- Node48&#45;&gt;Node8 -->
<g id="edge119" class="edge">
<title>Node48&#45;&gt;Node8</title>
<path fill="none" stroke="midnightblue" d="M2387.94,-338.57C2383.33,-337.57 2378.54,-336.66 2374,-336 2110.48,-297.93 2039.72,-336.66 1776,-300 1774.7,-299.82 1773.38,-299.62 1772.05,-299.4"/>
<polygon fill="midnightblue" stroke="midnightblue" points="1772.27,-295.89 1761.8,-297.51 1771,-302.77 1772.27,-295.89"/>
</g>
<!-- Node48&#45;&gt;Node10 -->
<g id="edge118" class="edge">
<title>Node48&#45;&gt;Node10</title>
<path fill="none" stroke="midnightblue" d="M2413.68,-336.41C2414.85,-323.79 2417.75,-299.63 2424,-280 2448.69,-202.5 2500.61,-119.68 2524.06,-84.46"/>
<polygon fill="midnightblue" stroke="midnightblue" points="2527.18,-86.08 2529.87,-75.83 2521.38,-82.17 2527.18,-86.08"/>
</g>
<!-- Node48&#45;&gt;Node19 -->
<g id="edge117" class="edge">
<title>Node48&#45;&gt;Node19</title>
<path fill="none" stroke="midnightblue" d="M2415.54,-336.22C2424.24,-307.74 2455.45,-216.92 2513,-168 2530.22,-153.36 2553.01,-142.46 2572.17,-135.07"/>
<polygon fill="midnightblue" stroke="midnightblue" points="2573.64,-138.26 2581.81,-131.51 2571.22,-131.69 2573.64,-138.26"/>
</g>
<!-- Node48&#45;&gt;Node22 -->
<g id="edge120" class="edge">
<title>Node48&#45;&gt;Node22</title>
<path fill="none" stroke="midnightblue" d="M2435.22,-336.39C2477.58,-319.78 2572.57,-281.64 2650,-244 2743.02,-198.78 2764.78,-184.32 2854,-132 2882.8,-115.11 2915.33,-94.53 2936.23,-81.11"/>
<polygon fill="midnightblue" stroke="midnightblue" points="2938.18,-84.02 2944.69,-75.66 2934.38,-78.13 2938.18,-84.02"/>
</g>
<!-- Node48&#45;&gt;Node25 -->
<g id="edge121" class="edge">
<title>Node48&#45;&gt;Node25</title>
<path fill="none" stroke="midnightblue" d="M2387.88,-342.15C2266.74,-328.31 1745.84,-267.89 1677,-244 1660.44,-238.25 1658.42,-232.34 1643,-224 1622.07,-212.69 1597.91,-200.79 1579.74,-192.07"/>
<polygon fill="midnightblue" stroke="midnightblue" points="1580.86,-188.73 1570.33,-187.58 1577.85,-195.05 1580.86,-188.73"/>
</g>
<!-- Node48&#45;&gt;Node47 -->
<g id="edge122" class="edge">
<title>Node48&#45;&gt;Node47</title>
<path fill="none" stroke="midnightblue" d="M2419.91,-355.75C2422.89,-362.86 2425.43,-373.14 2426.62,-382.1"/>
<polygon fill="midnightblue" stroke="midnightblue" points="2423.13,-382.36 2427.35,-392.08 2430.11,-381.86 2423.13,-382.36"/>
</g>
<!-- Node49&#45;&gt;Node8 -->
<g id="edge130" class="edge">
<title>Node49&#45;&gt;Node8</title>
<path fill="none" stroke="midnightblue" d="M2972.92,-343.47C2789.01,-335.68 1957.26,-300.42 1771.76,-292.56"/>
<polygon fill="midnightblue" stroke="midnightblue" points="1771.83,-289.06 1761.69,-292.13 1771.54,-296.05 1771.83,-289.06"/>
</g>
<!-- Node49&#45;&gt;Node9 -->
<g id="edge127" class="edge">
<title>Node49&#45;&gt;Node9</title>
<path fill="none" stroke="midnightblue" d="M3039.68,-336.44C3066.5,-328.47 3106.18,-315.51 3139,-300 3197.44,-272.38 3203.23,-248.6 3263,-224 3327.6,-197.41 3372.63,-242.76 3416,-188 3452.42,-142.01 3456.43,-98.51 3416,-56 3386.87,-25.36 2761.14,-14.29 2574.25,-11.66"/>
<polygon fill="midnightblue" stroke="midnightblue" points="2574.18,-8.16 2564.13,-11.52 2574.08,-15.16 2574.18,-8.16"/>
</g>
<!-- Node49&#45;&gt;Node10 -->
<g id="edge128" class="edge">
<title>Node49&#45;&gt;Node10</title>
<path fill="none" stroke="midnightblue" d="M2998.96,-336.38C2959.79,-303.09 2812.49,-181.43 2673,-112 2643.56,-97.35 2608.26,-85.88 2580.86,-78.19"/>
<polygon fill="midnightblue" stroke="midnightblue" points="2581.72,-74.8 2571.15,-75.53 2579.87,-81.55 2581.72,-74.8"/>
</g>
<!-- Node49&#45;&gt;Node22 -->
<g id="edge129" class="edge">
<title>Node49&#45;&gt;Node22</title>
<path fill="none" stroke="midnightblue" d="M3017.13,-336.13C3046.1,-303.46 3139.69,-187.78 3086,-112 3076.34,-98.37 3038.1,-86.03 3005.91,-77.73"/>
<polygon fill="midnightblue" stroke="midnightblue" points="3006.7,-74.33 2996.15,-75.29 3005,-81.12 3006.7,-74.33"/>
</g>
<!-- Node50&#45;&gt;Node8 -->
<g id="edge133" class="edge">
<title>Node50&#45;&gt;Node8</title>
<path fill="none" stroke="midnightblue" d="M2056.45,-448.47C2029.26,-426.85 1953.96,-369.27 1883,-336 1846.52,-318.89 1801.96,-306.38 1771.33,-298.95"/>
<polygon fill="midnightblue" stroke="midnightblue" points="1772.04,-295.53 1761.5,-296.63 1770.43,-302.34 1772.04,-295.53"/>
</g>
<!-- Node50&#45;&gt;Node43 -->
<g id="edge132" class="edge">
<title>Node50&#45;&gt;Node43</title>
<path fill="none" stroke="midnightblue" d="M2072.28,-448.08C2076.71,-440.61 2083.16,-429.72 2088.62,-420.52"/>
<polygon fill="midnightblue" stroke="midnightblue" points="2091.73,-422.14 2093.81,-411.75 2085.71,-418.57 2091.73,-422.14"/>
</g>
<!-- Node51&#45;&gt;Node7 -->
<g id="edge145" class="edge">
<title>Node51&#45;&gt;Node7</title>
<path fill="none" stroke="midnightblue" d="M2238.41,-621.33C2124.09,-612.13 1824.51,-588.02 1685.62,-576.84"/>
<polygon fill="midnightblue" stroke="midnightblue" points="1685.75,-573.34 1675.5,-576.03 1685.19,-580.32 1685.75,-573.34"/>
</g>
<!-- Node51&#45;&gt;Node19 -->
<g id="edge136" class="edge">
<title>Node51&#45;&gt;Node19</title>
<path fill="none" stroke="midnightblue" d="M2329.56,-621.78C2473.18,-611.02 2907,-573.66 2907,-515 2907,-515 2907,-515 2907,-457 2907,-372.9 2694.06,-191.75 2628.79,-138.2"/>
<polygon fill="midnightblue" stroke="midnightblue" points="2630.88,-135.39 2620.92,-131.78 2626.46,-140.82 2630.88,-135.39"/>
</g>
<!-- Node51&#45;&gt;Node22 -->
<g id="edge137" class="edge">
<title>Node51&#45;&gt;Node22</title>
<path fill="none" stroke="midnightblue" d="M2329.58,-624.4C2460.31,-622.3 2834.63,-613.45 2952,-580 3125.67,-530.51 3216.38,-520.45 3291,-356 3314.77,-303.62 3288.27,-131.53 3269,-112 3259.85,-102.73 3091.26,-82.24 3006.22,-72.44"/>
<polygon fill="midnightblue" stroke="midnightblue" points="3006.61,-68.96 2996.28,-71.3 3005.81,-75.92 3006.61,-68.96"/>
</g>
<!-- Node51&#45;&gt;Node32 -->
<g id="edge146" class="edge">
<title>Node51&#45;&gt;Node32</title>
<path fill="none" stroke="midnightblue" d="M2238.23,-625.49C2166.24,-624.95 2022.98,-618.54 1909,-580 1844.03,-558.03 1782.18,-502.39 1754.37,-474.88"/>
<polygon fill="midnightblue" stroke="midnightblue" points="1756.69,-472.25 1747.16,-467.62 1751.72,-477.18 1756.69,-472.25"/>
</g>
<!-- Node51&#45;&gt;Node33 -->
<g id="edge147" class="edge">
<title>Node51&#45;&gt;Node33</title>
<path fill="none" stroke="midnightblue" d="M2282.75,-616.3C2278.04,-583.63 2261.35,-467.87 2254.73,-421.96"/>
<polygon fill="midnightblue" stroke="midnightblue" points="2258.17,-421.28 2253.28,-411.88 2251.24,-422.28 2258.17,-421.28"/>
</g>
<!-- Node51&#45;&gt;Node44 -->
<g id="edge144" class="edge">
<title>Node51&#45;&gt;Node44</title>
<path fill="none" stroke="midnightblue" d="M2312.49,-616.42C2331.75,-609.35 2356.58,-597.6 2373,-580 2400.64,-550.38 2414.48,-503.58 2420.36,-477.72"/>
<polygon fill="midnightblue" stroke="midnightblue" points="2423.83,-478.25 2422.47,-467.74 2416.98,-476.8 2423.83,-478.25"/>
</g>
<!-- Node51&#45;&gt;Node45 -->
<g id="edge143" class="edge">
<title>Node51&#45;&gt;Node45</title>
<path fill="none" stroke="midnightblue" d="M2264.28,-616.34C2211.77,-593.18 2064.34,-527.53 1944,-468 1909.6,-450.98 1870.51,-430.05 1845.81,-416.61"/>
<polygon fill="midnightblue" stroke="midnightblue" points="1847.24,-413.4 1836.78,-411.69 1843.88,-419.55 1847.24,-413.4"/>
</g>
<!-- Node51&#45;&gt;Node49 -->
<g id="edge142" class="edge">
<title>Node51&#45;&gt;Node49</title>
<path fill="none" stroke="midnightblue" d="M2329.81,-623.79C2467.05,-619.89 2868.54,-606.32 2921,-580 2955.08,-562.9 2977,-553.13 2977,-515 2977,-515 2977,-515 2977,-457 2977,-423.33 2990.99,-386.08 3000.47,-364.72"/>
<polygon fill="midnightblue" stroke="midnightblue" points="3003.67,-366.14 3004.68,-355.59 2997.32,-363.21 3003.67,-366.14"/>
</g>
<!-- Node52 -->
<g id="node52" class="node">
<title>Node52</title>
<g id="a_node52"><a xlink:href="commandpool_8h.html" target="_top" xlink:title=" ">
<polygon fill="none" stroke="black" points="2555.5,-224.5 2555.5,-243.5 2640.5,-243.5 2640.5,-224.5 2555.5,-224.5"/>
<text text-anchor="middle" x="2598" y="-231.5" font-family="Helvetica,sans-Serif" font-size="10.00">commandpool.h</text>
</a>
</g>
</g>
<!-- Node51&#45;&gt;Node52 -->
<g id="edge138" class="edge">
<title>Node51&#45;&gt;Node52</title>
<path fill="none" stroke="midnightblue" d="M2329.52,-623.06C2440.69,-617.1 2717,-594.31 2717,-515 2717,-515 2717,-515 2717,-401 2717,-334.6 2653.32,-276.52 2619.13,-250.11"/>
<polygon fill="midnightblue" stroke="midnightblue" points="2620.83,-247.02 2610.74,-243.81 2616.63,-252.61 2620.83,-247.02"/>
</g>
<!-- Node53 -->
<g id="node53" class="node">
<title>Node53</title>
<g id="a_node53"><a xlink:href="descriptorset_8h.html" target="_top" xlink:title=" ">
<polygon fill="none" stroke="black" points="1439,-448.5 1439,-467.5 1519,-467.5 1519,-448.5 1439,-448.5"/>
<text text-anchor="middle" x="1479" y="-455.5" font-family="Helvetica,sans-Serif" font-size="10.00">descriptorset.h</text>
</a>
</g>
</g>
<!-- Node51&#45;&gt;Node53 -->
<g id="edge148" class="edge">
<title>Node51&#45;&gt;Node53</title>
<path fill="none" stroke="midnightblue" d="M2238.28,-624.82C2085.69,-623.86 1600.29,-617.83 1542,-580 1505.86,-556.54 1489.27,-505.31 1482.69,-477.63"/>
<polygon fill="midnightblue" stroke="midnightblue" points="1486.07,-476.69 1480.52,-467.67 1479.23,-478.18 1486.07,-476.69"/>
</g>
<!-- Node52&#45;&gt;Node19 -->
<g id="edge139" class="edge">
<title>Node52&#45;&gt;Node19</title>
<path fill="none" stroke="midnightblue" d="M2598.94,-224.37C2600.88,-206.62 2605.35,-165.67 2607.97,-141.6"/>
<polygon fill="midnightblue" stroke="midnightblue" points="2611.46,-141.91 2609.06,-131.59 2604.5,-141.15 2611.46,-141.91"/>
</g>
<!-- Node52&#45;&gt;Node22 -->
<g id="edge140" class="edge">
<title>Node52&#45;&gt;Node22</title>
<path fill="none" stroke="midnightblue" d="M2617.04,-224.44C2655.48,-207.13 2745.07,-166.69 2820,-132 2858.48,-114.18 2902.81,-93.23 2930.62,-80.03"/>
<polygon fill="midnightblue" stroke="midnightblue" points="2932.2,-83.15 2939.73,-75.7 2929.2,-76.83 2932.2,-83.15"/>
</g>
<!-- Node52&#45;&gt;Node25 -->
<g id="edge141" class="edge">
<title>Node52&#45;&gt;Node25</title>
<path fill="none" stroke="midnightblue" d="M2555.41,-232.17C2388.8,-228.74 1780.95,-214.63 1590,-188 1589.9,-187.99 1589.8,-187.97 1589.7,-187.96"/>
<polygon fill="midnightblue" stroke="midnightblue" points="1590.56,-184.56 1580.11,-186.28 1589.36,-191.45 1590.56,-184.56"/>
</g>
<!-- Node53&#45;&gt;Node4 -->
<g id="edge151" class="edge">
<title>Node53&#45;&gt;Node4</title>
<path fill="none" stroke="midnightblue" d="M1438.97,-454.94C1271.91,-446.06 630.02,-409.11 435,-356 414.66,-350.46 411.86,-343.05 392,-336 330.23,-314.08 301.63,-339.06 249,-300 221.95,-279.92 210,-268.69 210,-235 210,-235 210,-235 210,-121 210,-83.16 232.16,-74.8 265,-56 303.35,-34.05 431.55,-19.63 492.4,-13.85"/>
<polygon fill="midnightblue" stroke="midnightblue" points="492.97,-17.31 502.6,-12.91 492.32,-10.34 492.97,-17.31"/>
</g>
<!-- Node53&#45;&gt;Node8 -->
<g id="edge153" class="edge">
<title>Node53&#45;&gt;Node8</title>
<path fill="none" stroke="midnightblue" d="M1480.48,-448.38C1484.79,-426.04 1499.49,-365.94 1537,-336 1538.59,-334.73 1641.27,-311.8 1698.11,-299.17"/>
<polygon fill="midnightblue" stroke="midnightblue" points="1699.15,-302.53 1708.16,-296.94 1697.64,-295.69 1699.15,-302.53"/>
</g>
<!-- Node53&#45;&gt;Node9 -->
<g id="edge149" class="edge">
<title>Node53&#45;&gt;Node9</title>
<path fill="none" stroke="midnightblue" d="M1501.85,-448.46C1573.47,-421.45 1799.36,-334.3 1978,-244 2021.74,-221.89 2030.84,-212.99 2073,-188 2114.84,-163.21 2127.32,-160.12 2167,-132 2209.99,-101.53 2210.15,-78.08 2258,-56 2326.61,-24.34 2414.51,-14.74 2469.55,-11.95"/>
<polygon fill="midnightblue" stroke="midnightblue" points="2469.94,-15.44 2479.77,-11.5 2469.63,-8.45 2469.94,-15.44"/>
</g>
<!-- Node53&#45;&gt;Node11 -->
<g id="edge150" class="edge">
<title>Node53&#45;&gt;Node11</title>
<path fill="none" stroke="midnightblue" d="M1438.98,-454.27C1331.44,-445.58 1029.41,-412.15 809,-300 775.01,-282.71 763.45,-276.8 744,-244 731.01,-222.11 734.68,-213.31 732,-188 730.1,-170.04 731.65,-122.62 734,-112 736.06,-102.68 739.98,-92.87 743.72,-84.79"/>
<polygon fill="midnightblue" stroke="midnightblue" points="746.95,-86.17 748.22,-75.65 740.67,-83.07 746.95,-86.17"/>
</g>
<!-- Node53&#45;&gt;Node22 -->
<g id="edge152" class="edge">
<title>Node53&#45;&gt;Node22</title>
<path fill="none" stroke="midnightblue" d="M1519.2,-455.3C1701.78,-447.54 2445.16,-415.8 2469,-412 2501.8,-406.77 2508.88,-400.45 2541,-392 2605.22,-375.11 2624.78,-381.71 2686,-356 2813.54,-302.45 2849.74,-285.36 2948,-188 2969.54,-166.65 2977.92,-160.94 2987,-132 2992.35,-114.95 2982.4,-96.42 2972.73,-83.52"/>
<polygon fill="midnightblue" stroke="midnightblue" points="2975.3,-81.13 2966.27,-75.58 2969.87,-85.55 2975.3,-81.13"/>
</g>
<!-- Node53&#45;&gt;Node35 -->
<g id="edge154" class="edge">
<title>Node53&#45;&gt;Node35</title>
<path fill="none" stroke="midnightblue" d="M1490.46,-448.37C1515.3,-429.65 1574.36,-385.15 1605.31,-361.83"/>
<polygon fill="midnightblue" stroke="midnightblue" points="1607.72,-364.4 1613.6,-355.59 1603.5,-358.81 1607.72,-364.4"/>
</g>
<!-- Node53&#45;&gt;Node47 -->
<g id="edge161" class="edge">
<title>Node53&#45;&gt;Node47</title>
<path fill="none" stroke="midnightblue" d="M1519.32,-455.08C1638.9,-449.32 2002.04,-431.41 2303,-412 2327.88,-410.4 2355.63,-408.35 2378.26,-406.62"/>
<polygon fill="midnightblue" stroke="midnightblue" points="2378.57,-410.1 2388.27,-405.84 2378.04,-403.12 2378.57,-410.1"/>
</g>
<!-- Node54 -->
<g id="node54" class="node">
<title>Node54</title>
<g id="a_node54"><a xlink:href="descriptorpool_8h.html" target="_top" xlink:title=" ">
<polygon fill="none" stroke="black" points="1218.5,-336.5 1218.5,-355.5 1303.5,-355.5 1303.5,-336.5 1218.5,-336.5"/>
<text text-anchor="middle" x="1261" y="-343.5" font-family="Helvetica,sans-Serif" font-size="10.00">descriptorpool.h</text>
</a>
</g>
</g>
<!-- Node53&#45;&gt;Node54 -->
<g id="edge155" class="edge">
<title>Node53&#45;&gt;Node54</title>
<path fill="none" stroke="midnightblue" d="M1461.89,-448.37C1423.93,-429.21 1332.42,-383.04 1287.19,-360.22"/>
<polygon fill="midnightblue" stroke="midnightblue" points="1288.53,-356.97 1278.03,-355.59 1285.38,-363.22 1288.53,-356.97"/>
</g>
<!-- Node53&#45;&gt;Node55 -->
<g id="edge162" class="edge">
<title>Node53&#45;&gt;Node55</title>
<path fill="none" stroke="midnightblue" d="M1438.74,-458.7C1328.73,-459.79 1017.88,-475.89 816,-616 778.23,-642.21 753.25,-692.25 741.94,-719.03"/>
<polygon fill="midnightblue" stroke="midnightblue" points="738.68,-717.77 738.17,-728.35 745.16,-720.4 738.68,-717.77"/>
</g>
<!-- Node54&#45;&gt;Node4 -->
<g id="edge158" class="edge">
<title>Node54&#45;&gt;Node4</title>
<path fill="none" stroke="midnightblue" d="M1218.28,-342.83C1094.27,-335.8 737.14,-310.16 644,-244 568.56,-190.41 537.82,-74.55 528.42,-29.47"/>
<polygon fill="midnightblue" stroke="midnightblue" points="531.85,-28.75 526.48,-19.62 524.98,-30.1 531.85,-28.75"/>
</g>
<!-- Node54&#45;&gt;Node8 -->
<g id="edge160" class="edge">
<title>Node54&#45;&gt;Node8</title>
<path fill="none" stroke="midnightblue" d="M1303.6,-337.98C1308.45,-337.27 1313.33,-336.59 1318,-336 1484.54,-314.9 1528.16,-326.04 1694,-300 1695.3,-299.8 1696.61,-299.58 1697.94,-299.35"/>
<polygon fill="midnightblue" stroke="midnightblue" points="1699.02,-302.7 1708.18,-297.37 1697.7,-295.83 1699.02,-302.7"/>
</g>
<!-- Node54&#45;&gt;Node9 -->
<g id="edge156" class="edge">
<title>Node54&#45;&gt;Node9</title>
<path fill="none" stroke="midnightblue" d="M1303.51,-338.18C1425.54,-318.48 1771.31,-261.79 1820,-244 1977.46,-186.47 1987.9,-108.83 2147,-56 2257.62,-19.27 2395.42,-11.85 2469.32,-10.75"/>
<polygon fill="midnightblue" stroke="midnightblue" points="2469.79,-14.24 2479.75,-10.63 2469.71,-7.24 2469.79,-14.24"/>
</g>
<!-- Node54&#45;&gt;Node11 -->
<g id="edge157" class="edge">
<title>Node54&#45;&gt;Node11</title>
<path fill="none" stroke="midnightblue" d="M1218.44,-343.41C1107.3,-338.25 813.14,-317.74 758,-244 722.61,-196.68 737.54,-120.65 747.18,-85.68"/>
<polygon fill="midnightblue" stroke="midnightblue" points="750.61,-86.45 750.06,-75.87 743.89,-84.48 750.61,-86.45"/>
</g>
<!-- Node54&#45;&gt;Node22 -->
<g id="edge159" class="edge">
<title>Node54&#45;&gt;Node22</title>
<path fill="none" stroke="midnightblue" d="M1303.75,-342.23C1391.53,-336.33 1598.31,-321.29 1771,-300 1928.66,-280.56 1969.28,-280.01 2124,-244 2288.03,-205.82 2325.53,-183.13 2486,-132 2513.18,-123.34 2519.11,-118.03 2547,-112 2676.16,-84.07 2832.09,-73.04 2909.5,-69.05"/>
<polygon fill="midnightblue" stroke="midnightblue" points="2910.08,-72.52 2919.9,-68.53 2909.73,-65.53 2910.08,-72.52"/>
</g>
<!-- Node55&#45;&gt;Node8 -->
<g id="edge166" class="edge">
<title>Node55&#45;&gt;Node8</title>
<path fill="none" stroke="midnightblue" d="M736.08,-728.24C737.9,-715.42 742.26,-691.01 751,-672 782.29,-603.92 810.91,-595.3 877,-560 1172.69,-402.06 1576.03,-319.81 1698.37,-297.4"/>
<polygon fill="midnightblue" stroke="midnightblue" points="1699.12,-300.82 1708.34,-295.59 1697.87,-293.93 1699.12,-300.82"/>
</g>
<!-- Node55&#45;&gt;Node9 -->
<g id="edge163" class="edge">
<title>Node55&#45;&gt;Node9</title>
<path fill="none" stroke="midnightblue" d="M775.13,-737.22C989.07,-738.16 2017.15,-739.89 2856,-692 3011.53,-683.12 3554,-782.78 3554,-627 3554,-627 3554,-627 3554,-121 3554,-77.56 3521.23,-72.4 3481,-56 3396.98,-21.74 2762.01,-13.2 2574.18,-11.42"/>
<polygon fill="midnightblue" stroke="midnightblue" points="2574.05,-7.92 2564.02,-11.32 2573.98,-14.92 2574.05,-7.92"/>
</g>
<!-- Node55&#45;&gt;Node10 -->
<g id="edge164" class="edge">
<title>Node55&#45;&gt;Node10</title>
<path fill="none" stroke="midnightblue" d="M775.13,-736.43C1107.41,-731.54 3391,-695.47 3391,-627 3391,-627 3391,-627 3391,-513 3391,-334.41 3350.28,-235.65 3185,-168 2976.75,-82.75 2703.91,-68.92 2589.81,-67.05"/>
<polygon fill="midnightblue" stroke="midnightblue" points="2589.64,-63.55 2579.59,-66.91 2589.54,-70.55 2589.64,-63.55"/>
</g>
<!-- Node55&#45;&gt;Node25 -->
<g id="edge175" class="edge">
<title>Node55&#45;&gt;Node25</title>
<path fill="none" stroke="midnightblue" d="M726.83,-728.38C711.07,-710.81 678,-668.94 678,-627 678,-627 678,-627 678,-569 678,-248.2 1009.77,-331.54 1312,-224 1380.84,-199.51 1465.77,-187.6 1513.92,-182.43"/>
<polygon fill="midnightblue" stroke="midnightblue" points="1514.32,-185.91 1523.91,-181.4 1513.6,-178.94 1514.32,-185.91"/>
</g>
<!-- Node55&#45;&gt;Node39 -->
<g id="edge165" class="edge">
<title>Node55&#45;&gt;Node39</title>
<path fill="none" stroke="midnightblue" d="M720.25,-728.36C705.66,-719.64 682.83,-705.56 664,-692 588.64,-637.71 576.26,-615.78 502,-560 362.03,-454.85 329.05,-424.49 178,-336 157.58,-324.04 133.53,-312.35 115.14,-303.89"/>
<polygon fill="midnightblue" stroke="midnightblue" points="116.38,-300.61 105.83,-299.65 113.48,-306.98 116.38,-300.61"/>
</g>
<!-- Node56 -->
<g id="node56" class="node">
<title>Node56</title>
<g id="a_node56"><a xlink:href="buffer_8h.html" target="_top" xlink:title=" ">
<polygon fill="none" stroke="black" points="2084,-672.5 2084,-691.5 2132,-691.5 2132,-672.5 2084,-672.5"/>
<text text-anchor="middle" x="2108" y="-679.5" font-family="Helvetica,sans-Serif" font-size="10.00">buffer.h</text>
</a>
</g>
</g>
<!-- Node55&#45;&gt;Node56 -->
<g id="edge167" class="edge">
<title>Node55&#45;&gt;Node56</title>
<path fill="none" stroke="midnightblue" d="M775.35,-735.41C978.37,-727.43 1885.9,-691.73 2073.86,-684.34"/>
<polygon fill="midnightblue" stroke="midnightblue" points="2074.13,-687.84 2083.98,-683.94 2073.85,-680.84 2074.13,-687.84"/>
</g>
<!-- Node56&#45;&gt;Node4 -->
<g id="edge174" class="edge">
<title>Node56&#45;&gt;Node4</title>
<path fill="none" stroke="midnightblue" d="M2083.82,-679.16C2015.91,-673.87 1817.72,-657.61 1654,-636 1124.78,-566.14 974.95,-596.39 474,-412 394.06,-382.58 134,-320.18 134,-235 134,-235 134,-235 134,-121 134,-82.58 157.14,-74.16 191,-56 242.85,-28.19 419.36,-16.3 492.67,-12.48"/>
<polygon fill="midnightblue" stroke="midnightblue" points="492.9,-15.98 502.71,-11.98 492.55,-8.99 492.9,-15.98"/>
</g>
<!-- Node56&#45;&gt;Node8 -->
<g id="edge170" class="edge">
<title>Node56&#45;&gt;Node8</title>
<path fill="none" stroke="midnightblue" d="M2083.71,-680.1C2025.91,-676.54 1885,-658.85 1885,-571 1885,-571 1885,-571 1885,-457 1885,-401.02 1887.74,-377.35 1850,-336 1829.68,-313.73 1796.98,-302.35 1771.64,-296.61"/>
<polygon fill="midnightblue" stroke="midnightblue" points="1772.13,-293.14 1761.63,-294.55 1770.72,-300 1772.13,-293.14"/>
</g>
<!-- Node56&#45;&gt;Node10 -->
<g id="edge169" class="edge">
<title>Node56&#45;&gt;Node10</title>
<path fill="none" stroke="midnightblue" d="M2132.33,-680.6C2261.35,-678.39 2866.45,-666.51 3051,-636 3154.12,-618.95 3277,-675.52 3277,-571 3277,-571 3277,-571 3277,-345 3277,-70.08 2964.62,-199.51 2704,-112 2663.79,-98.5 2617.13,-86.27 2583.2,-77.97"/>
<polygon fill="midnightblue" stroke="midnightblue" points="2583.64,-74.48 2573.1,-75.53 2581.99,-81.28 2583.64,-74.48"/>
</g>
<!-- Node56&#45;&gt;Node19 -->
<g id="edge168" class="edge">
<title>Node56&#45;&gt;Node19</title>
<path fill="none" stroke="midnightblue" d="M2132.2,-681.06C2288.5,-681.13 3149,-676.75 3149,-571 3149,-571 3149,-571 3149,-401 3149,-288.86 2775.82,-170.86 2650.49,-134.4"/>
<polygon fill="midnightblue" stroke="midnightblue" points="2651.1,-130.93 2640.52,-131.52 2649.16,-137.66 2651.1,-130.93"/>
</g>
<!-- Node56&#45;&gt;Node22 -->
<g id="edge171" class="edge">
<title>Node56&#45;&gt;Node22</title>
<path fill="none" stroke="midnightblue" d="M2132.22,-680.96C2270.61,-680.59 2962.51,-676.67 3171,-636 3255.3,-619.55 3353,-656.89 3353,-571 3353,-571 3353,-571 3353,-513 3353,-332.38 3423.48,-230.31 3287,-112 3266.15,-93.92 3092.45,-77.71 3006.2,-70.69"/>
<polygon fill="midnightblue" stroke="midnightblue" points="3006.38,-67.19 2996.14,-69.88 3005.82,-74.17 3006.38,-67.19"/>
</g>
<!-- Node56&#45;&gt;Node25 -->
<g id="edge172" class="edge">
<title>Node56&#45;&gt;Node25</title>
<path fill="none" stroke="midnightblue" d="M2083.81,-679.07C2002.26,-672.12 1730.48,-645.19 1516,-580 1399.51,-544.59 1353.9,-552.24 1266,-468 1219.99,-423.9 1175.6,-389.65 1210,-336 1278.4,-229.33 1439.48,-194.17 1513.53,-183.4"/>
<polygon fill="midnightblue" stroke="midnightblue" points="1514.38,-186.81 1523.8,-181.98 1513.42,-179.88 1514.38,-186.81"/>
</g>
<!-- Node56&#45;&gt;Node51 -->
<g id="edge173" class="edge">
<title>Node56&#45;&gt;Node51</title>
<path fill="none" stroke="midnightblue" d="M2132.1,-673.6C2161.58,-664.56 2211.81,-649.15 2246.38,-638.54"/>
<polygon fill="midnightblue" stroke="midnightblue" points="2247.6,-641.83 2256.13,-635.55 2245.54,-635.14 2247.6,-641.83"/>
</g>
<!-- Node57&#45;&gt;Node2 -->
<g id="edge185" class="edge">
<title>Node57&#45;&gt;Node2</title>
<path fill="none" stroke="midnightblue" d="M472.83,-635.86C454.69,-663.11 404.93,-747.25 440,-804 451.11,-821.97 471.8,-833 490.55,-839.64"/>
<polygon fill="midnightblue" stroke="midnightblue" points="489.52,-842.99 500.11,-842.73 491.67,-836.33 489.52,-842.99"/>
</g>
<!-- Node57&#45;&gt;Node4 -->
<g id="edge183" class="edge">
<title>Node57&#45;&gt;Node4</title>
<path fill="none" stroke="midnightblue" d="M454.81,-621.88C381.04,-611.71 164,-576.55 164,-515 164,-515 164,-515 164,-401 164,-335.6 91.14,-355.77 57,-300 41.29,-274.33 38,-265.1 38,-235 38,-235 38,-235 38,-121 38,-27.47 384.1,-13.46 492.77,-11.37"/>
<polygon fill="midnightblue" stroke="midnightblue" points="492.87,-14.87 502.81,-11.19 492.75,-7.87 492.87,-14.87"/>
</g>
<!-- Node57&#45;&gt;Node5 -->
<g id="edge182" class="edge">
<title>Node57&#45;&gt;Node5</title>
<path fill="none" stroke="midnightblue" d="M454.84,-621.86C387.27,-613.09 195.59,-588.21 107.85,-576.82"/>
<polygon fill="midnightblue" stroke="midnightblue" points="108.05,-573.32 97.68,-575.5 107.15,-580.26 108.05,-573.32"/>
</g>
<!-- Node57&#45;&gt;Node12 -->
<g id="edge184" class="edge">
<title>Node57&#45;&gt;Node12</title>
<path fill="none" stroke="midnightblue" d="M481.58,-616.43C485.46,-603.84 493.29,-579.71 502,-560 538.46,-477.46 555.45,-458.9 616,-392 763.19,-229.36 1009.76,-115.49 1094.96,-79.3"/>
<polygon fill="midnightblue" stroke="midnightblue" points="1096.45,-82.47 1104.31,-75.37 1093.73,-76.02 1096.45,-82.47"/>
</g>
<!-- Node57&#45;&gt;Node17 -->
<g id="edge181" class="edge">
<title>Node57&#45;&gt;Node17</title>
<path fill="none" stroke="midnightblue" d="M483.12,-616.38C502.13,-577.53 585.45,-417.04 702,-336 787.04,-276.87 1101.39,-208.3 1208.21,-186.23"/>
<polygon fill="midnightblue" stroke="midnightblue" points="1209.08,-189.63 1218.17,-184.19 1207.67,-182.77 1209.08,-189.63"/>
</g>
<!-- Node58&#45;&gt;Node57 -->
<g id="edge187" class="edge">
<title>Node58&#45;&gt;Node57</title>
<path fill="none" stroke="midnightblue" d="M539.43,-672.32C528.58,-664.18 512.12,-651.84 499.12,-642.09"/>
<polygon fill="midnightblue" stroke="midnightblue" points="500.88,-639.03 490.78,-635.83 496.68,-644.63 500.88,-639.03"/>
</g>
</g>
</svg>
