<?xml version="1.0" encoding="UTF-8" standalone="no"?>
<!DOCTYPE svg PUBLIC "-//W3C//DTD SVG 1.1//EN"
 "http://www.w3.org/Graphics/SVG/1.1/DTD/svg11.dtd">
<!-- Generated by graphviz version 2.50.0 (20220203.2022)
 -->
<!-- Title: /github/workspace/src/renderer/material.h Pages: 1 -->
<svg width="1389pt" height="575pt"
 viewBox="0.00 0.00 1389.00 575.00" xmlns="http://www.w3.org/2000/svg" xmlns:xlink="http://www.w3.org/1999/xlink">
<g id="graph0" class="graph" transform="scale(1 1) rotate(0) translate(4 571)">
<title>/github/workspace/src/renderer/material.h</title>
<!-- Node1 -->
<g id="node1" class="node">
<title>Node1</title>
<g id="a_node1"><a xlink:title=" ">
<polygon fill="#bfbfbf" stroke="black" points="240.5,-536.5 240.5,-566.5 353.5,-566.5 353.5,-536.5 240.5,-536.5"/>
<text text-anchor="start" x="248.5" y="-554.5" font-family="Helvetica,sans-Serif" font-size="10.00">/github/workspace/src</text>
<text text-anchor="middle" x="297" y="-543.5" font-family="Helvetica,sans-Serif" font-size="10.00">/renderer/material.h</text>
</a>
</g>
</g>
<!-- Node2 -->
<g id="node2" class="node">
<title>Node2</title>
<g id="a_node2"><a xlink:href="mastermaterial_8h.html" target="_top" xlink:title=" ">
<polygon fill="none" stroke="black" points="270,-335.5 270,-365.5 400,-365.5 400,-335.5 270,-335.5"/>
<text text-anchor="start" x="278" y="-353.5" font-family="Helvetica,sans-Serif" font-size="10.00">/github/workspace/src</text>
<text text-anchor="middle" x="335" y="-342.5" font-family="Helvetica,sans-Serif" font-size="10.00">/renderer/mastermaterial.h</text>
</a>
</g>
</g>
<!-- Node1&#45;&gt;Node2 -->
<g id="edge1" class="edge">
<title>Node1&#45;&gt;Node2</title>
<path fill="none" stroke="midnightblue" d="M297.06,-526C301.97,-483.93 318.45,-399.26 328.6,-365.68"/>
<polygon fill="midnightblue" stroke="midnightblue" points="293.55,-525.89 296.03,-536.19 300.52,-526.59 293.55,-525.89"/>
</g>
<!-- Node4 -->
<g id="node4" class="node">
<title>Node4</title>
<g id="a_node4"><a xlink:href="materiallibrary_8h.html" target="_top" xlink:title=" ">
<polygon fill="none" stroke="black" points="170.5,-268.5 170.5,-298.5 295.5,-298.5 295.5,-268.5 170.5,-268.5"/>
<text text-anchor="start" x="178.5" y="-286.5" font-family="Helvetica,sans-Serif" font-size="10.00">/github/workspace/src</text>
<text text-anchor="middle" x="233" y="-275.5" font-family="Helvetica,sans-Serif" font-size="10.00">/renderer/materiallibrary.h</text>
</a>
</g>
</g>
<!-- Node1&#45;&gt;Node4 -->
<g id="edge33" class="edge">
<title>Node1&#45;&gt;Node4</title>
<path fill="none" stroke="midnightblue" d="M287.12,-526.41C270.24,-472.12 239.12,-341.61 233.14,-298.55"/>
<polygon fill="midnightblue" stroke="midnightblue" points="283.88,-527.77 290.3,-536.2 290.54,-525.61 283.88,-527.77"/>
</g>
<!-- Node21 -->
<g id="node21" class="node">
<title>Node21</title>
<g id="a_node21"><a xlink:href="material_8cpp.html" target="_top" xlink:title=" ">
<polygon fill="none" stroke="black" points="334.5,-469.5 334.5,-499.5 447.5,-499.5 447.5,-469.5 334.5,-469.5"/>
<text text-anchor="start" x="342.5" y="-487.5" font-family="Helvetica,sans-Serif" font-size="10.00">/github/workspace/src</text>
<text text-anchor="middle" x="391" y="-476.5" font-family="Helvetica,sans-Serif" font-size="10.00">/renderer/material.cpp</text>
</a>
</g>
</g>
<!-- Node1&#45;&gt;Node21 -->
<g id="edge32" class="edge">
<title>Node1&#45;&gt;Node21</title>
<path fill="none" stroke="midnightblue" d="M325.99,-530.45C340.45,-520.45 357.59,-508.6 370.64,-499.58"/>
<polygon fill="midnightblue" stroke="midnightblue" points="323.63,-527.83 317.4,-536.4 327.61,-533.59 323.63,-527.83"/>
</g>
<!-- Node22 -->
<g id="node22" class="node">
<title>Node22</title>
<g id="a_node22"><a xlink:href="mesh_8h.html" target="_top" xlink:title=" ">
<polygon fill="none" stroke="black" points="465.5,-469.5 465.5,-499.5 578.5,-499.5 578.5,-469.5 465.5,-469.5"/>
<text text-anchor="start" x="473.5" y="-487.5" font-family="Helvetica,sans-Serif" font-size="10.00">/github/workspace/src</text>
<text text-anchor="middle" x="522" y="-476.5" font-family="Helvetica,sans-Serif" font-size="10.00">/renderer/mesh.h</text>
</a>
</g>
</g>
<!-- Node1&#45;&gt;Node22 -->
<g id="edge34" class="edge">
<title>Node1&#45;&gt;Node22</title>
<path fill="none" stroke="midnightblue" d="M355.57,-533.58C392.11,-523.02 438.6,-509.59 473.15,-499.61"/>
<polygon fill="midnightblue" stroke="midnightblue" points="354.18,-530.34 345.54,-536.48 356.12,-537.06 354.18,-530.34"/>
</g>
<!-- Node2&#45;&gt;Node1 -->
<g id="edge3" class="edge">
<title>Node2&#45;&gt;Node1</title>
<path fill="none" stroke="midnightblue" d="M334.96,-375.84C330.08,-417.8 313.61,-502.48 303.44,-536.19"/>
<polygon fill="midnightblue" stroke="midnightblue" points="338.47,-375.98 335.98,-365.68 331.5,-375.28 338.47,-375.98"/>
</g>
<!-- Node3 -->
<g id="node3" class="node">
<title>Node3</title>
<g id="a_node3"><a xlink:href="mastermaterial_8cpp.html" target="_top" xlink:title=" ">
<polygon fill="none" stroke="black" points="314,-268.5 314,-298.5 454,-298.5 454,-268.5 314,-268.5"/>
<text text-anchor="start" x="322" y="-286.5" font-family="Helvetica,sans-Serif" font-size="10.00">/github/workspace/src</text>
<text text-anchor="middle" x="384" y="-275.5" font-family="Helvetica,sans-Serif" font-size="10.00">/renderer/mastermaterial.cpp</text>
</a>
</g>
</g>
<!-- Node2&#45;&gt;Node3 -->
<g id="edge2" class="edge">
<title>Node2&#45;&gt;Node3</title>
<path fill="none" stroke="midnightblue" d="M351.84,-327.16C358.99,-317.68 367.1,-306.92 373.39,-298.58"/>
<polygon fill="midnightblue" stroke="midnightblue" points="348.86,-325.3 345.63,-335.4 354.45,-329.52 348.86,-325.3"/>
</g>
<!-- Node2&#45;&gt;Node4 -->
<g id="edge4" class="edge">
<title>Node2&#45;&gt;Node4</title>
<path fill="none" stroke="midnightblue" d="M304.42,-330.02C288.55,-319.9 269.52,-307.77 255.09,-298.58"/>
<polygon fill="midnightblue" stroke="midnightblue" points="302.55,-332.97 312.87,-335.4 306.32,-327.07 302.55,-332.97"/>
</g>
<!-- Node4&#45;&gt;Node1 -->
<g id="edge5" class="edge">
<title>Node4&#45;&gt;Node1</title>
<path fill="none" stroke="midnightblue" d="M242.78,-308.28C259.61,-362.27 290.75,-492.8 296.82,-536.2"/>
<polygon fill="midnightblue" stroke="midnightblue" points="246.04,-306.98 239.62,-298.55 239.38,-309.14 246.04,-306.98"/>
</g>
<!-- Node5 -->
<g id="node5" class="node">
<title>Node5</title>
<g id="a_node5"><a xlink:href="materiallibrary_8cpp.html" target="_top" xlink:title=" ">
<polygon fill="none" stroke="black" points="165,-201.5 165,-231.5 301,-231.5 301,-201.5 165,-201.5"/>
<text text-anchor="start" x="173" y="-219.5" font-family="Helvetica,sans-Serif" font-size="10.00">/github/workspace/src</text>
<text text-anchor="middle" x="233" y="-208.5" font-family="Helvetica,sans-Serif" font-size="10.00">/renderer/materiallibrary.cpp</text>
</a>
</g>
</g>
<!-- Node4&#45;&gt;Node5 -->
<g id="edge6" class="edge">
<title>Node4&#45;&gt;Node5</title>
<path fill="none" stroke="midnightblue" d="M233,-258.11C233,-249.15 233,-239.32 233,-231.58"/>
<polygon fill="midnightblue" stroke="midnightblue" points="229.5,-258.4 233,-268.4 236.5,-258.4 229.5,-258.4"/>
</g>
<!-- Node6 -->
<g id="node6" class="node">
<title>Node6</title>
<g id="a_node6"><a xlink:href="rendermanager_8h.html" target="_top" xlink:title=" ">
<polygon fill="none" stroke="black" points="319,-201.5 319,-231.5 449,-231.5 449,-201.5 319,-201.5"/>
<text text-anchor="start" x="327" y="-219.5" font-family="Helvetica,sans-Serif" font-size="10.00">/github/workspace/src</text>
<text text-anchor="middle" x="384" y="-208.5" font-family="Helvetica,sans-Serif" font-size="10.00">/renderer/rendermanager.h</text>
</a>
</g>
</g>
<!-- Node4&#45;&gt;Node6 -->
<g id="edge7" class="edge">
<title>Node4&#45;&gt;Node6</title>
<path fill="none" stroke="midnightblue" d="M275.03,-264.41C299.14,-254.03 328.95,-241.2 351.3,-231.58"/>
<polygon fill="midnightblue" stroke="midnightblue" points="273.57,-261.23 265.76,-268.4 276.33,-267.66 273.57,-261.23"/>
</g>
<!-- Node7 -->
<g id="node7" class="node">
<title>Node7</title>
<g id="a_node7"><a xlink:href="rendermanager_8cpp.html" target="_top" xlink:title=" ">
<polygon fill="none" stroke="black" points="0,-134.5 0,-164.5 140,-164.5 140,-134.5 0,-134.5"/>
<text text-anchor="start" x="8" y="-152.5" font-family="Helvetica,sans-Serif" font-size="10.00">/github/workspace/src</text>
<text text-anchor="middle" x="70" y="-141.5" font-family="Helvetica,sans-Serif" font-size="10.00">/renderer/rendermanager.cpp</text>
</a>
</g>
</g>
<!-- Node6&#45;&gt;Node7 -->
<g id="edge8" class="edge">
<title>Node6&#45;&gt;Node7</title>
<path fill="none" stroke="midnightblue" d="M309.09,-199.99C256.99,-189.21 188.13,-174.95 137.69,-164.51"/>
<polygon fill="midnightblue" stroke="midnightblue" points="308.44,-203.43 318.94,-202.03 309.86,-196.58 308.44,-203.43"/>
</g>
<!-- Node8 -->
<g id="node8" class="node">
<title>Node8</title>
<g id="a_node8"><a xlink:href="scene_8h.html" target="_top" xlink:title=" ">
<polygon fill="none" stroke="black" points="518.5,-134.5 518.5,-164.5 631.5,-164.5 631.5,-134.5 518.5,-134.5"/>
<text text-anchor="start" x="526.5" y="-152.5" font-family="Helvetica,sans-Serif" font-size="10.00">/github/workspace/src</text>
<text text-anchor="middle" x="575" y="-141.5" font-family="Helvetica,sans-Serif" font-size="10.00">/renderer/scene.h</text>
</a>
</g>
</g>
<!-- Node6&#45;&gt;Node8 -->
<g id="edge9" class="edge">
<title>Node6&#45;&gt;Node8</title>
<path fill="none" stroke="midnightblue" d="M429.48,-197.96C459.23,-187.48 497.91,-174.37 527.96,-164.58"/>
<polygon fill="midnightblue" stroke="midnightblue" points="428.02,-194.76 419.77,-201.4 430.36,-201.36 428.02,-194.76"/>
</g>
<!-- Node13 -->
<g id="node13" class="node">
<title>Node13</title>
<g id="a_node13"><a xlink:href="vulkan__voxel__rasterizer__4_8cpp.html" target="_top" xlink:title=" ">
<polygon fill="none" stroke="black" points="478,-0.5 478,-30.5 652,-30.5 652,-0.5 478,-0.5"/>
<text text-anchor="start" x="486" y="-18.5" font-family="Helvetica,sans-Serif" font-size="10.00">/github/workspace/src</text>
<text text-anchor="middle" x="565" y="-7.5" font-family="Helvetica,sans-Serif" font-size="10.00">/tests/vulkan_voxel_rasterizer_4.cpp</text>
</a>
</g>
</g>
<!-- Node6&#45;&gt;Node13 -->
<g id="edge31" class="edge">
<title>Node6&#45;&gt;Node13</title>
<path fill="none" stroke="midnightblue" d="M325.66,-198.28C250.94,-173.4 136.75,-124.07 187,-67 228.75,-19.58 406.43,-39.72 469,-31 471.92,-30.59 474.89,-30.17 477.89,-29.75"/>
<polygon fill="midnightblue" stroke="midnightblue" points="324.87,-201.71 335.46,-201.48 327.04,-195.05 324.87,-201.71"/>
</g>
<!-- Node19 -->
<g id="node19" class="node">
<title>Node19</title>
<g id="a_node19"><a xlink:href="scenewriter_8h.html" target="_top" xlink:title=" ">
<polygon fill="none" stroke="black" points="326,-134.5 326,-164.5 442,-164.5 442,-134.5 326,-134.5"/>
<text text-anchor="start" x="334" y="-152.5" font-family="Helvetica,sans-Serif" font-size="10.00">/github/workspace/src</text>
<text text-anchor="middle" x="384" y="-141.5" font-family="Helvetica,sans-Serif" font-size="10.00">/renderer/scenewriter.h</text>
</a>
</g>
</g>
<!-- Node6&#45;&gt;Node19 -->
<g id="edge27" class="edge">
<title>Node6&#45;&gt;Node19</title>
<path fill="none" stroke="midnightblue" d="M377.45,-191.4C377.01,-182.37 377.3,-172.41 378.33,-164.58"/>
<polygon fill="midnightblue" stroke="midnightblue" points="373.97,-191.74 378.32,-201.4 380.94,-191.13 373.97,-191.74"/>
</g>
<!-- Node8&#45;&gt;Node6 -->
<g id="edge10" class="edge">
<title>Node8&#45;&gt;Node6</title>
<path fill="none" stroke="midnightblue" d="M529.6,-168.02C499.87,-178.48 461.19,-191.6 431.12,-201.4"/>
<polygon fill="midnightblue" stroke="midnightblue" points="531.05,-171.21 539.31,-164.58 528.72,-164.61 531.05,-171.21"/>
</g>
<!-- Node9 -->
<g id="node9" class="node">
<title>Node9</title>
<g id="a_node9"><a xlink:href="scene_8cpp.html" target="_top" xlink:title=" ">
<polygon fill="none" stroke="black" points="518.5,-67.5 518.5,-97.5 631.5,-97.5 631.5,-67.5 518.5,-67.5"/>
<text text-anchor="start" x="526.5" y="-85.5" font-family="Helvetica,sans-Serif" font-size="10.00">/github/workspace/src</text>
<text text-anchor="middle" x="575" y="-74.5" font-family="Helvetica,sans-Serif" font-size="10.00">/renderer/scene.cpp</text>
</a>
</g>
</g>
<!-- Node8&#45;&gt;Node9 -->
<g id="edge11" class="edge">
<title>Node8&#45;&gt;Node9</title>
<path fill="none" stroke="midnightblue" d="M575,-124.11C575,-115.15 575,-105.32 575,-97.58"/>
<polygon fill="midnightblue" stroke="midnightblue" points="571.5,-124.4 575,-134.4 578.5,-124.4 571.5,-124.4"/>
</g>
<!-- Node10 -->
<g id="node10" class="node">
<title>Node10</title>
<g id="a_node10"><a xlink:href="mainmenu_8h.html" target="_top" xlink:title=" ">
<polygon fill="none" stroke="black" points="340.5,-67.5 340.5,-97.5 461.5,-97.5 461.5,-67.5 340.5,-67.5"/>
<text text-anchor="start" x="348.5" y="-85.5" font-family="Helvetica,sans-Serif" font-size="10.00">/github/workspace/src</text>
<text text-anchor="middle" x="401" y="-74.5" font-family="Helvetica,sans-Serif" font-size="10.00">/renderer/ui/mainmenu.h</text>
</a>
</g>
</g>
<!-- Node8&#45;&gt;Node10 -->
<g id="edge12" class="edge">
<title>Node8&#45;&gt;Node10</title>
<path fill="none" stroke="midnightblue" d="M527.67,-130.82C499.7,-120.37 464.77,-107.32 438.68,-97.58"/>
<polygon fill="midnightblue" stroke="midnightblue" points="526.65,-134.18 537.24,-134.4 529.1,-127.62 526.65,-134.18"/>
</g>
<!-- Node12 -->
<g id="node12" class="node">
<title>Node12</title>
<g id="a_node12"><a xlink:href="vulkan__voxel__rasterizer__3_8cpp.html" target="_top" xlink:title=" ">
<polygon fill="none" stroke="black" points="814,-0.5 814,-30.5 988,-30.5 988,-0.5 814,-0.5"/>
<text text-anchor="start" x="822" y="-18.5" font-family="Helvetica,sans-Serif" font-size="10.00">/github/workspace/src</text>
<text text-anchor="middle" x="901" y="-7.5" font-family="Helvetica,sans-Serif" font-size="10.00">/tests/vulkan_voxel_rasterizer_3.cpp</text>
</a>
</g>
</g>
<!-- Node8&#45;&gt;Node12 -->
<g id="edge25" class="edge">
<title>Node8&#45;&gt;Node12</title>
<path fill="none" stroke="midnightblue" d="M642.02,-144.83C750.4,-138.2 954.31,-122.6 976,-98 997.18,-73.99 959.08,-46.74 929.86,-30.61"/>
<polygon fill="midnightblue" stroke="midnightblue" points="641.61,-141.35 631.83,-145.44 642.03,-148.34 641.61,-141.35"/>
</g>
<!-- Node8&#45;&gt;Node13 -->
<g id="edge26" class="edge">
<title>Node8&#45;&gt;Node13</title>
<path fill="none" stroke="midnightblue" d="M538.05,-128.72C526.95,-120.76 516.11,-110.48 510,-98 503.94,-85.62 504.46,-79.61 510,-67 516.62,-51.93 530.21,-39.38 542.22,-30.56"/>
<polygon fill="midnightblue" stroke="midnightblue" points="536.25,-131.72 546.52,-134.35 540.13,-125.9 536.25,-131.72"/>
</g>
<!-- Node14 -->
<g id="node14" class="node">
<title>Node14</title>
<g id="a_node14"><a xlink:href="objectlist_8h.html" target="_top" xlink:title=" ">
<polygon fill="none" stroke="black" points="688.5,-67.5 688.5,-97.5 803.5,-97.5 803.5,-67.5 688.5,-67.5"/>
<text text-anchor="start" x="696.5" y="-85.5" font-family="Helvetica,sans-Serif" font-size="10.00">/github/workspace/src</text>
<text text-anchor="middle" x="746" y="-74.5" font-family="Helvetica,sans-Serif" font-size="10.00">/renderer/ui/objectlist.h</text>
</a>
</g>
</g>
<!-- Node8&#45;&gt;Node14 -->
<g id="edge16" class="edge">
<title>Node8&#45;&gt;Node14</title>
<path fill="none" stroke="midnightblue" d="M621.52,-130.82C649,-120.37 683.33,-107.32 708.97,-97.58"/>
<polygon fill="midnightblue" stroke="midnightblue" points="620.21,-127.57 612.1,-134.4 622.7,-134.11 620.21,-127.57"/>
</g>
<!-- Node16 -->
<g id="node16" class="node">
<title>Node16</title>
<g id="a_node16"><a xlink:href="objectproperties_8h.html" target="_top" xlink:title=" ">
<polygon fill="none" stroke="black" points="821.5,-67.5 821.5,-97.5 966.5,-97.5 966.5,-67.5 821.5,-67.5"/>
<text text-anchor="start" x="829.5" y="-85.5" font-family="Helvetica,sans-Serif" font-size="10.00">/github/workspace/src</text>
<text text-anchor="middle" x="894" y="-74.5" font-family="Helvetica,sans-Serif" font-size="10.00">/renderer/ui/objectproperties.h</text>
</a>
</g>
</g>
<!-- Node8&#45;&gt;Node16 -->
<g id="edge20" class="edge">
<title>Node8&#45;&gt;Node16</title>
<path fill="none" stroke="midnightblue" d="M641.78,-134.89C695.52,-123.94 770.79,-108.61 825.09,-97.54"/>
<polygon fill="midnightblue" stroke="midnightblue" points="640.76,-131.53 631.66,-136.95 642.16,-138.39 640.76,-131.53"/>
</g>
<!-- Node18 -->
<g id="node18" class="node">
<title>Node18</title>
<g id="a_node18"><a xlink:href="vulkan__voxel__rasterizer__2_8cpp.html" target="_top" xlink:title=" ">
<polygon fill="none" stroke="black" points="1023,-67.5 1023,-97.5 1197,-97.5 1197,-67.5 1023,-67.5"/>
<text text-anchor="start" x="1031" y="-85.5" font-family="Helvetica,sans-Serif" font-size="10.00">/github/workspace/src</text>
<text text-anchor="middle" x="1110" y="-74.5" font-family="Helvetica,sans-Serif" font-size="10.00">/tests/vulkan_voxel_rasterizer_2.cpp</text>
</a>
</g>
</g>
<!-- Node8&#45;&gt;Node18 -->
<g id="edge24" class="edge">
<title>Node8&#45;&gt;Node18</title>
<path fill="none" stroke="midnightblue" d="M641.64,-141.31C726.89,-131.97 879.07,-114.88 1009,-98 1013.57,-97.41 1018.25,-96.78 1022.97,-96.14"/>
<polygon fill="midnightblue" stroke="midnightblue" points="641.15,-137.84 631.58,-142.4 641.91,-144.8 641.15,-137.84"/>
</g>
<!-- Node11 -->
<g id="node11" class="node">
<title>Node11</title>
<g id="a_node11"><a xlink:href="mainmenu_8cpp.html" target="_top" xlink:title=" ">
<polygon fill="none" stroke="black" points="328.5,-0.5 328.5,-30.5 459.5,-30.5 459.5,-0.5 328.5,-0.5"/>
<text text-anchor="start" x="336.5" y="-18.5" font-family="Helvetica,sans-Serif" font-size="10.00">/github/workspace/src</text>
<text text-anchor="middle" x="394" y="-7.5" font-family="Helvetica,sans-Serif" font-size="10.00">/renderer/ui/mainmenu.cpp</text>
</a>
</g>
</g>
<!-- Node10&#45;&gt;Node11 -->
<g id="edge13" class="edge">
<title>Node10&#45;&gt;Node11</title>
<path fill="none" stroke="midnightblue" d="M398.4,-57.4C397.43,-48.37 396.36,-38.41 395.52,-30.58"/>
<polygon fill="midnightblue" stroke="midnightblue" points="394.93,-57.83 399.48,-67.4 401.89,-57.08 394.93,-57.83"/>
</g>
<!-- Node10&#45;&gt;Node12 -->
<g id="edge14" class="edge">
<title>Node10&#45;&gt;Node12</title>
<path fill="none" stroke="midnightblue" d="M471.64,-71.99C484.41,-70.3 497.6,-68.58 510,-67 641.02,-50.29 674.13,-48.87 805,-31 807.92,-30.6 810.89,-30.19 813.89,-29.77"/>
<polygon fill="midnightblue" stroke="midnightblue" points="470.98,-68.55 461.52,-73.33 471.9,-75.49 470.98,-68.55"/>
</g>
<!-- Node10&#45;&gt;Node13 -->
<g id="edge15" class="edge">
<title>Node10&#45;&gt;Node13</title>
<path fill="none" stroke="midnightblue" d="M445.96,-63.68C472.26,-53.26 505,-40.28 529.48,-30.58"/>
<polygon fill="midnightblue" stroke="midnightblue" points="444.59,-60.46 436.59,-67.4 447.17,-66.97 444.59,-60.46"/>
</g>
<!-- Node14&#45;&gt;Node12 -->
<g id="edge18" class="edge">
<title>Node14&#45;&gt;Node12</title>
<path fill="none" stroke="midnightblue" d="M789.15,-63.41C813.89,-53.03 844.5,-40.2 867.43,-30.58"/>
<polygon fill="midnightblue" stroke="midnightblue" points="787.5,-60.3 779.63,-67.4 790.21,-66.76 787.5,-60.3"/>
</g>
<!-- Node14&#45;&gt;Node13 -->
<g id="edge19" class="edge">
<title>Node14&#45;&gt;Node13</title>
<path fill="none" stroke="midnightblue" d="M697.14,-63.96C667.99,-53.48 631.46,-40.37 604.2,-30.58"/>
<polygon fill="midnightblue" stroke="midnightblue" points="696.13,-67.31 706.73,-67.4 698.5,-60.72 696.13,-67.31"/>
</g>
<!-- Node15 -->
<g id="node15" class="node">
<title>Node15</title>
<g id="a_node15"><a xlink:href="objectlist_8cpp.html" target="_top" xlink:title=" ">
<polygon fill="none" stroke="black" points="670.5,-0.5 670.5,-30.5 795.5,-30.5 795.5,-0.5 670.5,-0.5"/>
<text text-anchor="start" x="678.5" y="-18.5" font-family="Helvetica,sans-Serif" font-size="10.00">/github/workspace/src</text>
<text text-anchor="middle" x="733" y="-7.5" font-family="Helvetica,sans-Serif" font-size="10.00">/renderer/ui/objectlist.cpp</text>
</a>
</g>
</g>
<!-- Node14&#45;&gt;Node15 -->
<g id="edge17" class="edge">
<title>Node14&#45;&gt;Node15</title>
<path fill="none" stroke="midnightblue" d="M741.18,-57.4C739.37,-48.37 737.38,-38.41 735.82,-30.58"/>
<polygon fill="midnightblue" stroke="midnightblue" points="737.79,-58.28 743.18,-67.4 744.65,-56.9 737.79,-58.28"/>
</g>
<!-- Node16&#45;&gt;Node12 -->
<g id="edge22" class="edge">
<title>Node16&#45;&gt;Node12</title>
<path fill="none" stroke="midnightblue" d="M896.6,-57.4C897.57,-48.37 898.64,-38.41 899.48,-30.58"/>
<polygon fill="midnightblue" stroke="midnightblue" points="893.11,-57.08 895.52,-67.4 900.07,-57.83 893.11,-57.08"/>
</g>
<!-- Node16&#45;&gt;Node13 -->
<g id="edge23" class="edge">
<title>Node16&#45;&gt;Node13</title>
<path fill="none" stroke="midnightblue" d="M813.1,-65.52C758.89,-54.81 688.19,-40.84 636.14,-30.55"/>
<polygon fill="midnightblue" stroke="midnightblue" points="812.53,-68.97 823.02,-67.48 813.88,-62.1 812.53,-68.97"/>
</g>
<!-- Node17 -->
<g id="node17" class="node">
<title>Node17</title>
<g id="a_node17"><a xlink:href="objectproperties_8cpp.html" target="_top" xlink:title=" ">
<polygon fill="none" stroke="black" points="1006.5,-0.5 1006.5,-30.5 1161.5,-30.5 1161.5,-0.5 1006.5,-0.5"/>
<text text-anchor="start" x="1014.5" y="-18.5" font-family="Helvetica,sans-Serif" font-size="10.00">/github/workspace/src</text>
<text text-anchor="middle" x="1084" y="-7.5" font-family="Helvetica,sans-Serif" font-size="10.00">/renderer/ui/objectproperties.cpp</text>
</a>
</g>
</g>
<!-- Node16&#45;&gt;Node17 -->
<g id="edge21" class="edge">
<title>Node16&#45;&gt;Node17</title>
<path fill="none" stroke="midnightblue" d="M944.89,-64.09C975.56,-53.6 1014.11,-40.41 1042.85,-30.58"/>
<polygon fill="midnightblue" stroke="midnightblue" points="943.56,-60.85 935.23,-67.4 945.82,-67.47 943.56,-60.85"/>
</g>
<!-- Node19&#45;&gt;Node6 -->
<g id="edge28" class="edge">
<title>Node19&#45;&gt;Node6</title>
<path fill="none" stroke="midnightblue" d="M390.54,-174.57C390.99,-183.6 390.71,-193.56 389.68,-201.4"/>
<polygon fill="midnightblue" stroke="midnightblue" points="394.03,-174.24 389.67,-164.58 387.05,-174.84 394.03,-174.24"/>
</g>
<!-- Node19&#45;&gt;Node10 -->
<g id="edge30" class="edge">
<title>Node19&#45;&gt;Node10</title>
<path fill="none" stroke="midnightblue" d="M390.23,-124.7C392.61,-115.59 395.25,-105.49 397.32,-97.58"/>
<polygon fill="midnightblue" stroke="midnightblue" points="386.83,-123.84 387.69,-134.4 393.61,-125.61 386.83,-123.84"/>
</g>
<!-- Node20 -->
<g id="node20" class="node">
<title>Node20</title>
<g id="a_node20"><a xlink:href="scenewriter_8cpp.html" target="_top" xlink:title=" ">
<polygon fill="none" stroke="black" points="196,-67.5 196,-97.5 322,-97.5 322,-67.5 196,-67.5"/>
<text text-anchor="start" x="204" y="-85.5" font-family="Helvetica,sans-Serif" font-size="10.00">/github/workspace/src</text>
<text text-anchor="middle" x="259" y="-74.5" font-family="Helvetica,sans-Serif" font-size="10.00">/renderer/scenewriter.cpp</text>
</a>
</g>
</g>
<!-- Node19&#45;&gt;Node20 -->
<g id="edge29" class="edge">
<title>Node19&#45;&gt;Node20</title>
<path fill="none" stroke="midnightblue" d="M347.87,-129.71C328.16,-119.46 304.16,-106.98 286.07,-97.58"/>
<polygon fill="midnightblue" stroke="midnightblue" points="346.39,-132.89 356.88,-134.4 349.62,-126.68 346.39,-132.89"/>
</g>
<!-- Node22&#45;&gt;Node2 -->
<g id="edge35" class="edge">
<title>Node22&#45;&gt;Node2</title>
<path fill="none" stroke="midnightblue" d="M474.08,-465.55C454.56,-457.13 432.32,-446.06 414,-433 386.4,-413.33 360.22,-383.3 346.02,-365.71"/>
<polygon fill="midnightblue" stroke="midnightblue" points="472.84,-468.83 483.42,-469.47 475.55,-462.38 472.84,-468.83"/>
</g>
<!-- Node23 -->
<g id="node23" class="node">
<title>Node23</title>
<g id="a_node23"><a xlink:href="mesh_8cpp.html" target="_top" xlink:title=" ">
<polygon fill="none" stroke="black" points="641.5,-402.5 641.5,-432.5 754.5,-432.5 754.5,-402.5 641.5,-402.5"/>
<text text-anchor="start" x="649.5" y="-420.5" font-family="Helvetica,sans-Serif" font-size="10.00">/github/workspace/src</text>
<text text-anchor="middle" x="698" y="-409.5" font-family="Helvetica,sans-Serif" font-size="10.00">/renderer/mesh.cpp</text>
</a>
</g>
</g>
<!-- Node22&#45;&gt;Node23 -->
<g id="edge36" class="edge">
<title>Node22&#45;&gt;Node23</title>
<path fill="none" stroke="midnightblue" d="M569.88,-465.82C598.17,-455.37 633.49,-442.32 659.89,-432.58"/>
<polygon fill="midnightblue" stroke="midnightblue" points="568.36,-462.65 560.19,-469.4 570.78,-469.21 568.36,-462.65"/>
</g>
<!-- Node24 -->
<g id="node24" class="node">
<title>Node24</title>
<g id="a_node24"><a xlink:href="meshinstance_8h.html" target="_top" xlink:title=" ">
<polygon fill="none" stroke="black" points="459,-402.5 459,-432.5 585,-432.5 585,-402.5 459,-402.5"/>
<text text-anchor="start" x="467" y="-420.5" font-family="Helvetica,sans-Serif" font-size="10.00">/github/workspace/src</text>
<text text-anchor="middle" x="522" y="-409.5" font-family="Helvetica,sans-Serif" font-size="10.00">/renderer/meshinstance.h</text>
</a>
</g>
</g>
<!-- Node22&#45;&gt;Node24 -->
<g id="edge37" class="edge">
<title>Node22&#45;&gt;Node24</title>
<path fill="none" stroke="midnightblue" d="M522,-459.11C522,-450.15 522,-440.32 522,-432.58"/>
<polygon fill="midnightblue" stroke="midnightblue" points="518.5,-459.4 522,-469.4 525.5,-459.4 518.5,-459.4"/>
</g>
<!-- Node26 -->
<g id="node26" class="node">
<title>Node26</title>
<g id="a_node26"><a xlink:href="meshlibrary_8h.html" target="_top" xlink:title=" ">
<polygon fill="none" stroke="black" points="472.5,-268.5 472.5,-298.5 587.5,-298.5 587.5,-268.5 472.5,-268.5"/>
<text text-anchor="start" x="480.5" y="-286.5" font-family="Helvetica,sans-Serif" font-size="10.00">/github/workspace/src</text>
<text text-anchor="middle" x="530" y="-275.5" font-family="Helvetica,sans-Serif" font-size="10.00">/renderer/meshlibrary.h</text>
</a>
</g>
</g>
<!-- Node22&#45;&gt;Node26 -->
<g id="edge41" class="edge">
<title>Node22&#45;&gt;Node26</title>
<path fill="none" stroke="midnightblue" d="M480.84,-464.04C468.76,-456.18 456.94,-445.87 450,-433 429.32,-394.65 426.76,-373.03 448,-335 457.29,-318.36 474.57,-306.53 490.88,-298.52"/>
<polygon fill="midnightblue" stroke="midnightblue" points="479.25,-467.16 489.62,-469.33 482.86,-461.17 479.25,-467.16"/>
</g>
<!-- Node28 -->
<g id="node28" class="node">
<title>Node28</title>
<g id="a_node28"><a xlink:href="modelloader_8h.html" target="_top" xlink:title=" ">
<polygon fill="none" stroke="black" points="850,-335.5 850,-365.5 968,-365.5 968,-335.5 850,-335.5"/>
<text text-anchor="start" x="858" y="-353.5" font-family="Helvetica,sans-Serif" font-size="10.00">/github/workspace/src</text>
<text text-anchor="middle" x="909" y="-342.5" font-family="Helvetica,sans-Serif" font-size="10.00">/renderer/modelloader.h</text>
</a>
</g>
</g>
<!-- Node22&#45;&gt;Node28 -->
<g id="edge44" class="edge">
<title>Node22&#45;&gt;Node28</title>
<path fill="none" stroke="midnightblue" d="M551,-463.75C564.25,-454.58 580.05,-443.42 594,-433 611.74,-419.75 612.84,-411.16 633,-402 703.3,-370.07 792.35,-358.32 849.98,-354"/>
<polygon fill="midnightblue" stroke="midnightblue" points="548.96,-460.9 542.72,-469.46 552.94,-466.66 548.96,-460.9"/>
</g>
<!-- Node24&#45;&gt;Node2 -->
<g id="edge38" class="edge">
<title>Node24&#45;&gt;Node2</title>
<path fill="none" stroke="midnightblue" d="M471.92,-399.09C441.73,-388.6 403.78,-375.41 375.5,-365.58"/>
<polygon fill="midnightblue" stroke="midnightblue" points="470.83,-402.42 481.42,-402.4 473.13,-395.81 470.83,-402.42"/>
</g>
<!-- Node24&#45;&gt;Node8 -->
<g id="edge40" class="edge">
<title>Node24&#45;&gt;Node8</title>
<path fill="none" stroke="midnightblue" d="M569.76,-397.45C582.89,-389.74 595.55,-379.42 603,-366 613.06,-347.87 644.07,-366.29 602,-201 598.67,-187.9 591.25,-174.46 585.04,-164.75"/>
<polygon fill="midnightblue" stroke="midnightblue" points="567.79,-394.54 560.66,-402.37 571.12,-400.69 567.79,-394.54"/>
</g>
<!-- Node25 -->
<g id="node25" class="node">
<title>Node25</title>
<g id="a_node25"><a xlink:href="meshinstance_8cpp.html" target="_top" xlink:title=" ">
<polygon fill="none" stroke="black" points="456.5,-335.5 456.5,-365.5 593.5,-365.5 593.5,-335.5 456.5,-335.5"/>
<text text-anchor="start" x="464.5" y="-353.5" font-family="Helvetica,sans-Serif" font-size="10.00">/github/workspace/src</text>
<text text-anchor="middle" x="525" y="-342.5" font-family="Helvetica,sans-Serif" font-size="10.00">/renderer/meshinstance.cpp</text>
</a>
</g>
</g>
<!-- Node24&#45;&gt;Node25 -->
<g id="edge39" class="edge">
<title>Node24&#45;&gt;Node25</title>
<path fill="none" stroke="midnightblue" d="M523.11,-392.4C523.53,-383.37 523.99,-373.41 524.35,-365.58"/>
<polygon fill="midnightblue" stroke="midnightblue" points="519.62,-392.25 522.65,-402.4 526.61,-392.57 519.62,-392.25"/>
</g>
<!-- Node26&#45;&gt;Node6 -->
<g id="edge43" class="edge">
<title>Node26&#45;&gt;Node6</title>
<path fill="none" stroke="midnightblue" d="M489.05,-264.27C465.8,-253.92 437.13,-241.15 415.62,-231.58"/>
<polygon fill="midnightblue" stroke="midnightblue" points="487.76,-267.53 498.32,-268.4 490.61,-261.13 487.76,-267.53"/>
</g>
<!-- Node27 -->
<g id="node27" class="node">
<title>Node27</title>
<g id="a_node27"><a xlink:href="meshlibrary_8cpp.html" target="_top" xlink:title=" ">
<polygon fill="none" stroke="black" points="467.5,-201.5 467.5,-231.5 592.5,-231.5 592.5,-201.5 467.5,-201.5"/>
<text text-anchor="start" x="475.5" y="-219.5" font-family="Helvetica,sans-Serif" font-size="10.00">/github/workspace/src</text>
<text text-anchor="middle" x="530" y="-208.5" font-family="Helvetica,sans-Serif" font-size="10.00">/renderer/meshlibrary.cpp</text>
</a>
</g>
</g>
<!-- Node26&#45;&gt;Node27 -->
<g id="edge42" class="edge">
<title>Node26&#45;&gt;Node27</title>
<path fill="none" stroke="midnightblue" d="M530,-258.11C530,-249.15 530,-239.32 530,-231.58"/>
<polygon fill="midnightblue" stroke="midnightblue" points="526.5,-258.4 530,-268.4 533.5,-258.4 526.5,-258.4"/>
</g>
<!-- Node28&#45;&gt;Node12 -->
<g id="edge48" class="edge">
<title>Node28&#45;&gt;Node12</title>
<path fill="none" stroke="midnightblue" d="M978.26,-349.71C1071.27,-345.95 1225,-323.66 1225,-217.5 1225,-217.5 1225,-217.5 1225,-148.5 1225,-111.31 1233.14,-92.43 1206,-67 1201.97,-63.22 1076.81,-43.39 988.09,-29.73"/>
<polygon fill="midnightblue" stroke="midnightblue" points="977.94,-346.22 968.07,-350.06 978.18,-353.22 977.94,-346.22"/>
</g>
<!-- Node28&#45;&gt;Node13 -->
<g id="edge49" class="edge">
<title>Node28&#45;&gt;Node13</title>
<path fill="none" stroke="midnightblue" d="M839.82,-342.39C766.14,-330.54 660,-299.28 660,-217.5 660,-217.5 660,-217.5 660,-148.5 660,-111.31 662.21,-97.56 641,-67 630.07,-51.25 612.49,-39.11 597,-30.68"/>
<polygon fill="midnightblue" stroke="midnightblue" points="839.58,-345.89 849.99,-343.93 840.63,-338.97 839.58,-345.89"/>
</g>
<!-- Node28&#45;&gt;Node18 -->
<g id="edge47" class="edge">
<title>Node28&#45;&gt;Node18</title>
<path fill="none" stroke="midnightblue" d="M925.94,-327.08C966.17,-273.84 1066.51,-141.06 1099.38,-97.55"/>
<polygon fill="midnightblue" stroke="midnightblue" points="923.04,-325.11 919.81,-335.2 928.63,-329.33 923.04,-325.11"/>
</g>
<!-- Node28&#45;&gt;Node26 -->
<g id="edge45" class="edge">
<title>Node28&#45;&gt;Node26</title>
<path fill="none" stroke="midnightblue" d="M839.85,-337.64C767.5,-325.23 655.24,-305.98 587.56,-294.37"/>
<polygon fill="midnightblue" stroke="midnightblue" points="839.33,-341.1 849.78,-339.34 840.52,-334.2 839.33,-341.1"/>
</g>
<!-- Node29 -->
<g id="node29" class="node">
<title>Node29</title>
<g id="a_node29"><a xlink:href="modelloader_8cpp.html" target="_top" xlink:title=" ">
<polygon fill="none" stroke="black" points="1253,-268.5 1253,-298.5 1381,-298.5 1381,-268.5 1253,-268.5"/>
<text text-anchor="start" x="1261" y="-286.5" font-family="Helvetica,sans-Serif" font-size="10.00">/github/workspace/src</text>
<text text-anchor="middle" x="1317" y="-275.5" font-family="Helvetica,sans-Serif" font-size="10.00">/renderer/modelloader.cpp</text>
</a>
</g>
</g>
<!-- Node28&#45;&gt;Node29 -->
<g id="edge46" class="edge">
<title>Node28&#45;&gt;Node29</title>
<path fill="none" stroke="midnightblue" d="M978.1,-339.58C1044.94,-329.83 1149.04,-314.24 1239,-299 1243.48,-298.24 1248.1,-297.44 1252.76,-296.61"/>
<polygon fill="midnightblue" stroke="midnightblue" points="977.5,-336.13 968.11,-341.04 978.51,-343.06 977.5,-336.13"/>
</g>
</g>
</svg>
