<?xml version="1.0" encoding="UTF-8" standalone="no"?>
<!DOCTYPE svg PUBLIC "-//W3C//DTD SVG 1.1//EN"
 "http://www.w3.org/Graphics/SVG/1.1/DTD/svg11.dtd">
<!-- Generated by graphviz version 2.49.3 (20211215.1918)
 -->
<!-- Title: /github/workspace/src/renderer/material.cpp Pages: 1 -->
<svg width="3532pt" height="935pt"
 viewBox="0.00 0.00 3532.00 935.00" xmlns="http://www.w3.org/2000/svg" xmlns:xlink="http://www.w3.org/1999/xlink">
<g id="graph0" class="graph" transform="scale(1 1) rotate(0) translate(4 931)">
<title>/github/workspace/src/renderer/material.cpp</title>
<!-- Node1 -->
<g id="node1" class="node">
<title>Node1</title>
<g id="a_node1"><a xlink:title=" ">
<polygon fill="#bfbfbf" stroke="black" points="112.5,-896.5 112.5,-926.5 225.5,-926.5 225.5,-896.5 112.5,-896.5"/>
<text text-anchor="start" x="120.5" y="-914.5" font-family="Helvetica,sans-Serif" font-size="10.00">/github/workspace/src</text>
<text text-anchor="middle" x="169" y="-903.5" font-family="Helvetica,sans-Serif" font-size="10.00">/renderer/material.cpp</text>
</a>
</g>
</g>
<!-- Node2 -->
<g id="node2" class="node">
<title>Node2</title>
<g id="a_node2"><a xlink:href="material_8h.html" target="_top" xlink:title=" ">
<polygon fill="none" stroke="black" points="271.5,-840.5 271.5,-859.5 330.5,-859.5 330.5,-840.5 271.5,-840.5"/>
<text text-anchor="middle" x="301" y="-847.5" font-family="Helvetica,sans-Serif" font-size="10.00">material.h</text>
</a>
</g>
</g>
<!-- Node1&#45;&gt;Node2 -->
<g id="edge1" class="edge">
<title>Node1&#45;&gt;Node2</title>
<path fill="none" stroke="midnightblue" d="M200.28,-896.4C222.23,-886.51 251.34,-873.38 272.62,-863.79"/>
<polygon fill="midnightblue" stroke="midnightblue" points="274.11,-866.96 281.79,-859.66 271.24,-860.58 274.11,-866.96"/>
</g>
<!-- Node39 -->
<g id="node39" class="node">
<title>Node39</title>
<g id="a_node39"><a xlink:title=" ">
<polygon fill="none" stroke="#bfbfbf" points="75.5,-280.5 75.5,-299.5 114.5,-299.5 114.5,-280.5 75.5,-280.5"/>
<text text-anchor="middle" x="95" y="-287.5" font-family="Helvetica,sans-Serif" font-size="10.00">utility</text>
</a>
</g>
</g>
<!-- Node1&#45;&gt;Node39 -->
<g id="edge197" class="edge">
<title>Node1&#45;&gt;Node39</title>
<path fill="none" stroke="midnightblue" d="M131.81,-896.37C93.08,-878.95 38,-845.33 38,-795 38,-795 38,-795 38,-401 38,-364.3 63.32,-327.66 80.21,-307.3"/>
<polygon fill="midnightblue" stroke="midnightblue" points="82.95,-309.48 86.83,-299.62 77.65,-304.9 82.95,-309.48"/>
</g>
<!-- Node3 -->
<g id="node3" class="node">
<title>Node3</title>
<g id="a_node3"><a xlink:href="materiallibrary_8h.html" target="_top" xlink:title=" ">
<polygon fill="none" stroke="black" points="180,-784.5 180,-803.5 264,-803.5 264,-784.5 180,-784.5"/>
<text text-anchor="middle" x="222" y="-791.5" font-family="Helvetica,sans-Serif" font-size="10.00">materiallibrary.h</text>
</a>
</g>
</g>
<!-- Node2&#45;&gt;Node3 -->
<g id="edge2" class="edge">
<title>Node2&#45;&gt;Node3</title>
<path fill="none" stroke="midnightblue" d="M283.19,-840.32C269.52,-832.18 251.12,-819.84 237.94,-810.09"/>
<polygon fill="midnightblue" stroke="midnightblue" points="239.84,-807.13 229.77,-803.83 235.59,-812.69 239.84,-807.13"/>
</g>
<!-- Node6 -->
<g id="node6" class="node">
<title>Node6</title>
<g id="a_node6"><a xlink:href="mastermaterial_8h.html" target="_top" xlink:title=" ">
<polygon fill="none" stroke="black" points="256.5,-616.5 256.5,-635.5 345.5,-635.5 345.5,-616.5 256.5,-616.5"/>
<text text-anchor="middle" x="301" y="-623.5" font-family="Helvetica,sans-Serif" font-size="10.00">mastermaterial.h</text>
</a>
</g>
</g>
<!-- Node2&#45;&gt;Node6 -->
<g id="edge195" class="edge">
<title>Node2&#45;&gt;Node6</title>
<path fill="none" stroke="midnightblue" d="M298.17,-840.3C293.36,-807.63 292.98,-691.87 297.02,-645.96"/>
<polygon fill="midnightblue" stroke="midnightblue" points="300.51,-646.21 298.14,-635.88 293.55,-645.43 300.51,-646.21"/>
</g>
<!-- Node7 -->
<g id="node7" class="node">
<title>Node7</title>
<g id="a_node7"><a xlink:href="graphicspipeline_8h.html" target="_top" xlink:title=" ">
<polygon fill="none" stroke="black" points="1340.5,-560.5 1340.5,-579.5 1465.5,-579.5 1465.5,-560.5 1340.5,-560.5"/>
<text text-anchor="middle" x="1403" y="-567.5" font-family="Helvetica,sans-Serif" font-size="10.00">vulkan/graphicspipeline.h</text>
</a>
</g>
</g>
<!-- Node2&#45;&gt;Node7 -->
<g id="edge196" class="edge">
<title>Node2&#45;&gt;Node7</title>
<path fill="none" stroke="midnightblue" d="M330.72,-848.94C496.83,-848.2 1303,-839.46 1303,-739 1303,-739 1303,-739 1303,-681 1303,-650.2 1307.28,-639.65 1327,-616 1338.71,-601.96 1356,-591.23 1371.13,-583.78"/>
<polygon fill="midnightblue" stroke="midnightblue" points="1372.61,-586.95 1380.21,-579.56 1369.66,-580.6 1372.61,-586.95"/>
</g>
<!-- Node3&#45;&gt;Node2 -->
<g id="edge193" class="edge">
<title>Node3&#45;&gt;Node2</title>
<path fill="none" stroke="midnightblue" d="M239.77,-803.65C253.51,-811.83 272.05,-824.28 285.26,-834.06"/>
<polygon fill="midnightblue" stroke="midnightblue" points="283.36,-837.02 293.42,-840.32 287.62,-831.46 283.36,-837.02"/>
</g>
<!-- Node4 -->
<g id="node4" class="node">
<title>Node4</title>
<g id="a_node4"><a xlink:title=" ">
<polygon fill="none" stroke="#bfbfbf" points="493,-0.5 493,-19.5 537,-19.5 537,-0.5 493,-0.5"/>
<text text-anchor="middle" x="515" y="-7.5" font-family="Helvetica,sans-Serif" font-size="10.00">vector</text>
</a>
</g>
</g>
<!-- Node3&#45;&gt;Node4 -->
<g id="edge3" class="edge">
<title>Node3&#45;&gt;Node4</title>
<path fill="none" stroke="midnightblue" d="M207.09,-784.32C157.31,-754.11 0,-648.1 0,-515 0,-515 0,-515 0,-121 0,-21.8 370.04,-11.74 482.78,-10.97"/>
<polygon fill="midnightblue" stroke="midnightblue" points="482.89,-14.47 492.87,-10.93 482.85,-7.47 482.89,-14.47"/>
</g>
<!-- Node5 -->
<g id="node5" class="node">
<title>Node5</title>
<g id="a_node5"><a xlink:title=" ">
<polygon fill="none" stroke="#bfbfbf" points="180.5,-448.5 180.5,-467.5 249.5,-467.5 249.5,-448.5 180.5,-448.5"/>
<text text-anchor="middle" x="215" y="-455.5" font-family="Helvetica,sans-Serif" font-size="10.00">glm/glm.hpp</text>
</a>
</g>
</g>
<!-- Node3&#45;&gt;Node5 -->
<g id="edge4" class="edge">
<title>Node3&#45;&gt;Node5</title>
<path fill="none" stroke="midnightblue" d="M217.68,-784.41C208.95,-766.2 190,-722.18 190,-683 190,-683 190,-683 190,-569 190,-536 200.83,-498.77 208.24,-477.19"/>
<polygon fill="midnightblue" stroke="midnightblue" points="211.57,-478.28 211.63,-467.69 204.97,-475.93 211.57,-478.28"/>
</g>
<!-- Node3&#45;&gt;Node6 -->
<g id="edge5" class="edge">
<title>Node3&#45;&gt;Node6</title>
<path fill="none" stroke="midnightblue" d="M225.82,-784.44C234.73,-764.57 257.64,-713.83 278,-672 282.42,-662.91 287.52,-652.9 291.79,-644.62"/>
<polygon fill="midnightblue" stroke="midnightblue" points="294.99,-646.06 296.49,-635.58 288.77,-642.84 294.99,-646.06"/>
</g>
<!-- Node55 -->
<g id="node55" class="node">
<title>Node55</title>
<g id="a_node55"><a xlink:href="uniformbuffer_8h.html" target="_top" xlink:title=" ">
<polygon fill="none" stroke="black" points="1331,-728.5 1331,-747.5 1411,-747.5 1411,-728.5 1331,-728.5"/>
<text text-anchor="middle" x="1371" y="-735.5" font-family="Helvetica,sans-Serif" font-size="10.00">uniformbuffer.h</text>
</a>
</g>
</g>
<!-- Node3&#45;&gt;Node55 -->
<g id="edge194" class="edge">
<title>Node3&#45;&gt;Node55</title>
<path fill="none" stroke="midnightblue" d="M264.26,-791.01C441.96,-782.66 1128.35,-750.4 1320.66,-741.37"/>
<polygon fill="midnightblue" stroke="midnightblue" points="1320.94,-744.86 1330.77,-740.89 1320.61,-737.86 1320.94,-744.86"/>
</g>
<!-- Node6&#45;&gt;Node2 -->
<g id="edge181" class="edge">
<title>Node6&#45;&gt;Node2</title>
<path fill="none" stroke="midnightblue" d="M303.86,-635.88C308.65,-668.85 309.02,-784.64 304.96,-830.3"/>
<polygon fill="midnightblue" stroke="midnightblue" points="301.47,-829.97 303.83,-840.3 308.43,-830.75 301.47,-829.97"/>
</g>
<!-- Node6&#45;&gt;Node7 -->
<g id="edge6" class="edge">
<title>Node6&#45;&gt;Node7</title>
<path fill="none" stroke="midnightblue" d="M345.56,-622.82C514.93,-614.52 1119.66,-584.88 1330.15,-574.57"/>
<polygon fill="midnightblue" stroke="midnightblue" points="1330.35,-578.06 1340.17,-574.08 1330.01,-571.07 1330.35,-578.06"/>
</g>
<!-- Node6&#45;&gt;Node39 -->
<g id="edge192" class="edge">
<title>Node6&#45;&gt;Node39</title>
<path fill="none" stroke="midnightblue" d="M256.21,-618.64C200.89,-607.96 114,-580.73 114,-515 114,-515 114,-515 114,-401 114,-368.49 105.84,-331.35 100.22,-309.61"/>
<polygon fill="midnightblue" stroke="midnightblue" points="103.54,-308.5 97.56,-299.75 96.78,-310.32 103.54,-308.5"/>
</g>
<!-- Node57 -->
<g id="node57" class="node">
<title>Node57</title>
<g id="a_node57"><a xlink:href="mesh_8h.html" target="_top" xlink:title=" ">
<polygon fill="none" stroke="black" points="346,-504.5 346,-523.5 394,-523.5 394,-504.5 346,-504.5"/>
<text text-anchor="middle" x="370" y="-511.5" font-family="Helvetica,sans-Serif" font-size="10.00">mesh.h</text>
</a>
</g>
</g>
<!-- Node6&#45;&gt;Node57 -->
<g id="edge182" class="edge">
<title>Node6&#45;&gt;Node57</title>
<path fill="none" stroke="midnightblue" d="M306.41,-616.37C317.75,-598.3 344.17,-556.18 359.14,-532.31"/>
<polygon fill="midnightblue" stroke="midnightblue" points="362.26,-533.92 364.61,-523.59 356.33,-530.2 362.26,-533.92"/>
</g>
<!-- Node58 -->
<g id="node58" class="node">
<title>Node58</title>
<g id="a_node58"><a xlink:href="objectinstance_8h.html" target="_top" xlink:title=" ">
<polygon fill="none" stroke="black" points="220.5,-560.5 220.5,-579.5 307.5,-579.5 307.5,-560.5 220.5,-560.5"/>
<text text-anchor="middle" x="264" y="-567.5" font-family="Helvetica,sans-Serif" font-size="10.00">objectinstance.h</text>
</a>
</g>
</g>
<!-- Node6&#45;&gt;Node58 -->
<g id="edge188" class="edge">
<title>Node6&#45;&gt;Node58</title>
<path fill="none" stroke="midnightblue" d="M294.89,-616.08C289.72,-608.53 282.15,-597.49 275.81,-588.23"/>
<polygon fill="midnightblue" stroke="midnightblue" points="278.54,-586.02 270,-579.75 272.76,-589.98 278.54,-586.02"/>
</g>
<!-- Node7&#45;&gt;Node4 -->
<g id="edge180" class="edge">
<title>Node7&#45;&gt;Node4</title>
<path fill="none" stroke="midnightblue" d="M1340.27,-562.89C1188.01,-547.11 787.57,-499.97 464,-412 334.37,-376.76 219,-369.33 219,-235 219,-235 219,-235 219,-121 219,-84 239.25,-75 271,-56 338.32,-15.72 433.36,-9.98 482.6,-10.02"/>
<polygon fill="midnightblue" stroke="midnightblue" points="482.64,-13.52 492.67,-10.11 482.7,-6.52 482.64,-13.52"/>
</g>
<!-- Node8 -->
<g id="node8" class="node">
<title>Node8</title>
<g id="a_node8"><a xlink:href="device_8h.html" target="_top" xlink:title=" ">
<polygon fill="none" stroke="black" points="1574.5,-280.5 1574.5,-299.5 1627.5,-299.5 1627.5,-280.5 1574.5,-280.5"/>
<text text-anchor="middle" x="1601" y="-287.5" font-family="Helvetica,sans-Serif" font-size="10.00">device.h</text>
</a>
</g>
</g>
<!-- Node7&#45;&gt;Node8 -->
<g id="edge7" class="edge">
<title>Node7&#45;&gt;Node8</title>
<path fill="none" stroke="midnightblue" d="M1354.91,-560.4C1302.8,-547.99 1227,-519.53 1227,-459 1227,-459 1227,-459 1227,-401 1227,-383.53 1470.37,-322.67 1564.47,-299.79"/>
<polygon fill="midnightblue" stroke="midnightblue" points="1565.51,-303.13 1574.4,-297.38 1563.86,-296.33 1565.51,-303.13"/>
</g>
<!-- Node9 -->
<g id="node9" class="node">
<title>Node9</title>
<g id="a_node9"><a xlink:title=" ">
<polygon fill="none" stroke="#bfbfbf" points="2044,-0.5 2044,-19.5 2128,-19.5 2128,-0.5 2044,-0.5"/>
<text text-anchor="middle" x="2086" y="-7.5" font-family="Helvetica,sans-Serif" font-size="10.00">vulkan/vulkan.h</text>
</a>
</g>
</g>
<!-- Node7&#45;&gt;Node9 -->
<g id="edge179" class="edge">
<title>Node7&#45;&gt;Node9</title>
<path fill="none" stroke="midnightblue" d="M1465.69,-567.85C1790.91,-560.27 3277.88,-505.31 3462,-132 3499.87,-55.21 3417.35,-75.41 3330,-56 3212.67,-29.92 2359.8,-15.19 2138.4,-11.77"/>
<polygon fill="midnightblue" stroke="midnightblue" points="2138.39,-8.27 2128.34,-11.62 2138.28,-15.27 2138.39,-8.27"/>
</g>
<!-- Node32 -->
<g id="node32" class="node">
<title>Node32</title>
<g id="a_node32"><a xlink:href="pipelinebase_8h.html" target="_top" xlink:title=" ">
<polygon fill="none" stroke="black" points="2286,-448.5 2286,-467.5 2364,-467.5 2364,-448.5 2286,-448.5"/>
<text text-anchor="middle" x="2325" y="-455.5" font-family="Helvetica,sans-Serif" font-size="10.00">pipelinebase.h</text>
</a>
</g>
</g>
<!-- Node7&#45;&gt;Node32 -->
<g id="edge62" class="edge">
<title>Node7&#45;&gt;Node32</title>
<path fill="none" stroke="midnightblue" d="M1465.64,-566.68C1595.2,-561.46 1888.65,-547.4 1986,-524 2008.47,-518.6 2011.75,-510.26 2034,-504 2117.1,-480.63 2217.18,-468.51 2275.69,-462.97"/>
<polygon fill="midnightblue" stroke="midnightblue" points="2276.13,-466.44 2285.77,-462.04 2275.49,-459.47 2276.13,-466.44"/>
</g>
<!-- Node37 -->
<g id="node37" class="node">
<title>Node37</title>
<g id="a_node37"><a xlink:href="shader_8h.html" target="_top" xlink:title=" ">
<polygon fill="none" stroke="black" points="762.5,-336.5 762.5,-355.5 815.5,-355.5 815.5,-336.5 762.5,-336.5"/>
<text text-anchor="middle" x="789" y="-343.5" font-family="Helvetica,sans-Serif" font-size="10.00">shader.h</text>
</a>
</g>
</g>
<!-- Node7&#45;&gt;Node37 -->
<g id="edge84" class="edge">
<title>Node7&#45;&gt;Node37</title>
<path fill="none" stroke="midnightblue" d="M1357.9,-560.48C1319.04,-552.63 1261.68,-539.81 1213,-524 1058.93,-473.97 882.49,-391.93 816.12,-360.15"/>
<polygon fill="midnightblue" stroke="midnightblue" points="817.31,-356.84 806.78,-355.67 814.28,-363.15 817.31,-356.84"/>
</g>
<!-- Node42 -->
<g id="node42" class="node">
<title>Node42</title>
<g id="a_node42"><a xlink:href="swapchain_8h.html" target="_top" xlink:title=" ">
<polygon fill="none" stroke="black" points="1632.5,-504.5 1632.5,-523.5 1703.5,-523.5 1703.5,-504.5 1632.5,-504.5"/>
<text text-anchor="middle" x="1668" y="-511.5" font-family="Helvetica,sans-Serif" font-size="10.00">swapchain.h</text>
</a>
</g>
</g>
<!-- Node7&#45;&gt;Node42 -->
<g id="edge95" class="edge">
<title>Node7&#45;&gt;Node42</title>
<path fill="none" stroke="midnightblue" d="M1444.99,-560.44C1493.32,-550.59 1572.44,-534.47 1622.29,-524.31"/>
<polygon fill="midnightblue" stroke="midnightblue" points="1623.06,-527.73 1632.16,-522.3 1621.66,-520.87 1623.06,-527.73"/>
</g>
<!-- Node45 -->
<g id="node45" class="node">
<title>Node45</title>
<g id="a_node45"><a xlink:href="renderpass_8h.html" target="_top" xlink:title=" ">
<polygon fill="none" stroke="black" points="2012,-392.5 2012,-411.5 2084,-411.5 2084,-392.5 2012,-392.5"/>
<text text-anchor="middle" x="2048" y="-399.5" font-family="Helvetica,sans-Serif" font-size="10.00">renderpass.h</text>
</a>
</g>
</g>
<!-- Node7&#45;&gt;Node45 -->
<g id="edge178" class="edge">
<title>Node7&#45;&gt;Node45</title>
<path fill="none" stroke="midnightblue" d="M1465.54,-566.86C1570.54,-561.26 1787.06,-541.04 1953,-468 1982.24,-455.13 2012,-432.99 2030.23,-418.18"/>
<polygon fill="midnightblue" stroke="midnightblue" points="2032.74,-420.64 2038.21,-411.56 2028.28,-415.25 2032.74,-420.64"/>
</g>
<!-- Node8&#45;&gt;Node4 -->
<g id="edge10" class="edge">
<title>Node8&#45;&gt;Node4</title>
<path fill="none" stroke="midnightblue" d="M1574.24,-289.74C1509.16,-290.75 1338.2,-288.57 1205,-244 1133.09,-219.94 932.8,-57.85 928,-56 858.38,-29.16 631.52,-16.31 547.07,-12.37"/>
<polygon fill="midnightblue" stroke="midnightblue" points="547.18,-8.87 537.03,-11.91 546.86,-15.86 547.18,-8.87"/>
</g>
<!-- Node8&#45;&gt;Node9 -->
<g id="edge8" class="edge">
<title>Node8&#45;&gt;Node9</title>
<path fill="none" stroke="midnightblue" d="M1627.78,-288.94C1665.79,-287.51 1735.77,-279.76 1781,-244 1852.51,-187.47 1792.93,-114.31 1863,-56 1888.42,-34.85 1975.99,-22.11 2033.53,-15.84"/>
<polygon fill="midnightblue" stroke="midnightblue" points="2033.98,-19.31 2043.55,-14.77 2033.24,-12.35 2033.98,-19.31"/>
</g>
<!-- Node10 -->
<g id="node10" class="node">
<title>Node10</title>
<g id="a_node10"><a xlink:title=" ">
<polygon fill="none" stroke="#bfbfbf" points="2063.5,-56.5 2063.5,-75.5 2150.5,-75.5 2150.5,-56.5 2063.5,-56.5"/>
<text text-anchor="middle" x="2107" y="-63.5" font-family="Helvetica,sans-Serif" font-size="10.00">vk_mem_alloc.h</text>
</a>
</g>
</g>
<!-- Node8&#45;&gt;Node10 -->
<g id="edge9" class="edge">
<title>Node8&#45;&gt;Node10</title>
<path fill="none" stroke="midnightblue" d="M1627.67,-287.14C1671.81,-283.33 1762.2,-272.49 1833,-244 1938.45,-201.57 2046.99,-116.86 2088.94,-82.26"/>
<polygon fill="midnightblue" stroke="midnightblue" points="2091.41,-84.76 2096.86,-75.67 2086.93,-79.38 2091.41,-84.76"/>
</g>
<!-- Node11 -->
<g id="node11" class="node">
<title>Node11</title>
<g id="a_node11"><a xlink:title=" ">
<polygon fill="none" stroke="#bfbfbf" points="694.5,-56.5 694.5,-75.5 753.5,-75.5 753.5,-56.5 694.5,-56.5"/>
<text text-anchor="middle" x="724" y="-63.5" font-family="Helvetica,sans-Serif" font-size="10.00">stdexcept</text>
</a>
</g>
</g>
<!-- Node8&#45;&gt;Node11 -->
<g id="edge11" class="edge">
<title>Node8&#45;&gt;Node11</title>
<path fill="none" stroke="midnightblue" d="M1574.31,-289.54C1503.32,-290.3 1304.53,-288.01 1147,-244 1016.04,-207.41 997.69,-161.37 871,-112 835.25,-98.07 793.3,-85.59 763.38,-77.33"/>
<polygon fill="midnightblue" stroke="midnightblue" points="764.29,-73.95 753.73,-74.7 762.45,-80.71 764.29,-73.95"/>
</g>
<!-- Node12 -->
<g id="node12" class="node">
<title>Node12</title>
<g id="a_node12"><a xlink:title=" ">
<polygon fill="none" stroke="#bfbfbf" points="1018.5,-56.5 1018.5,-75.5 1059.5,-75.5 1059.5,-56.5 1018.5,-56.5"/>
<text text-anchor="middle" x="1039" y="-63.5" font-family="Helvetica,sans-Serif" font-size="10.00">string</text>
</a>
</g>
</g>
<!-- Node8&#45;&gt;Node12 -->
<g id="edge12" class="edge">
<title>Node8&#45;&gt;Node12</title>
<path fill="none" stroke="midnightblue" d="M1574.37,-288.39C1516.23,-286.45 1374.12,-278.26 1261,-244 1206.97,-227.64 1195.06,-217.61 1147,-188 1111.89,-166.36 1099.65,-163.48 1073,-132 1061.07,-117.9 1051.74,-98.92 1045.9,-85.11"/>
<polygon fill="midnightblue" stroke="midnightblue" points="1049.1,-83.69 1042.13,-75.72 1042.61,-86.3 1049.1,-83.69"/>
</g>
<!-- Node13 -->
<g id="node13" class="node">
<title>Node13</title>
<g id="a_node13"><a xlink:title=" ">
<polygon fill="none" stroke="#bfbfbf" points="1335,-168.5 1335,-187.5 1365,-187.5 1365,-168.5 1335,-168.5"/>
<text text-anchor="middle" x="1350" y="-175.5" font-family="Helvetica,sans-Serif" font-size="10.00">set</text>
</a>
</g>
</g>
<!-- Node8&#45;&gt;Node13 -->
<g id="edge13" class="edge">
<title>Node8&#45;&gt;Node13</title>
<path fill="none" stroke="midnightblue" d="M1574.49,-281.54C1547.26,-273.54 1503.92,-259.82 1468,-244 1433.57,-228.84 1395.83,-207.07 1372.52,-192.98"/>
<polygon fill="midnightblue" stroke="midnightblue" points="1374.12,-189.85 1363.76,-187.63 1370.47,-195.83 1374.12,-189.85"/>
</g>
<!-- Node14 -->
<g id="node14" class="node">
<title>Node14</title>
<g id="a_node14"><a xlink:title=" ">
<polygon fill="none" stroke="#bfbfbf" points="1247,-0.5 1247,-19.5 1293,-19.5 1293,-0.5 1247,-0.5"/>
<text text-anchor="middle" x="1270" y="-7.5" font-family="Helvetica,sans-Serif" font-size="10.00">cstring</text>
</a>
</g>
</g>
<!-- Node8&#45;&gt;Node14 -->
<g id="edge14" class="edge">
<title>Node8&#45;&gt;Node14</title>
<path fill="none" stroke="midnightblue" d="M1574.49,-289.21C1519.35,-288.78 1389.1,-283.3 1289,-244 1268.63,-236 1218.16,-207.38 1208,-188 1178.84,-132.38 1228.81,-60.11 1255.23,-27.84"/>
<polygon fill="midnightblue" stroke="midnightblue" points="1258.2,-29.75 1261.97,-19.84 1252.85,-25.23 1258.2,-29.75"/>
</g>
<!-- Node15 -->
<g id="node15" class="node">
<title>Node15</title>
<g id="a_node15"><a xlink:title=" ">
<polygon fill="none" stroke="#bfbfbf" points="1335,-0.5 1335,-19.5 1389,-19.5 1389,-0.5 1335,-0.5"/>
<text text-anchor="middle" x="1362" y="-7.5" font-family="Helvetica,sans-Serif" font-size="10.00">iostream</text>
</a>
</g>
</g>
<!-- Node8&#45;&gt;Node15 -->
<g id="edge15" class="edge">
<title>Node8&#45;&gt;Node15</title>
<path fill="none" stroke="midnightblue" d="M1574.2,-284.52C1538.9,-278.11 1475.3,-264.73 1424,-244 1400.74,-234.6 1338.59,-209.69 1326,-188 1309.09,-158.86 1350.34,-167.77 1372,-76 1375.65,-60.55 1372.38,-42.7 1368.64,-29.62"/>
<polygon fill="midnightblue" stroke="midnightblue" points="1371.91,-28.37 1365.52,-19.92 1365.24,-30.51 1371.91,-28.37"/>
</g>
<!-- Node16 -->
<g id="node16" class="node">
<title>Node16</title>
<g id="a_node16"><a xlink:title=" ">
<polygon fill="none" stroke="#bfbfbf" points="1769.5,-112.5 1769.5,-131.5 1810.5,-131.5 1810.5,-112.5 1769.5,-112.5"/>
<text text-anchor="middle" x="1790" y="-119.5" font-family="Helvetica,sans-Serif" font-size="10.00">bitset</text>
</a>
</g>
</g>
<!-- Node8&#45;&gt;Node16 -->
<g id="edge16" class="edge">
<title>Node8&#45;&gt;Node16</title>
<path fill="none" stroke="midnightblue" d="M1627.69,-286.84C1660.83,-283 1717.76,-272.47 1757,-244 1781.34,-226.34 1786.17,-216.75 1795,-188 1799.67,-172.79 1797.7,-154.67 1794.98,-141.44"/>
<polygon fill="midnightblue" stroke="midnightblue" points="1798.37,-140.55 1792.64,-131.64 1791.56,-142.17 1798.37,-140.55"/>
</g>
<!-- Node17 -->
<g id="node17" class="node">
<title>Node17</title>
<g id="a_node17"><a xlink:title=" ">
<polygon fill="none" stroke="#bfbfbf" points="1227.5,-168.5 1227.5,-187.5 1278.5,-187.5 1278.5,-168.5 1227.5,-168.5"/>
<text text-anchor="middle" x="1253" y="-175.5" font-family="Helvetica,sans-Serif" font-size="10.00">memory</text>
</a>
</g>
</g>
<!-- Node8&#45;&gt;Node17 -->
<g id="edge17" class="edge">
<title>Node8&#45;&gt;Node17</title>
<path fill="none" stroke="midnightblue" d="M1574.23,-286.24C1531.22,-281.24 1444.51,-268.83 1375,-244 1337.89,-230.75 1298.19,-207.75 1274.5,-192.97"/>
<polygon fill="midnightblue" stroke="midnightblue" points="1276.27,-189.95 1265.95,-187.55 1272.52,-195.86 1276.27,-189.95"/>
</g>
<!-- Node18 -->
<g id="node18" class="node">
<title>Node18</title>
<g id="a_node18"><a xlink:href="physicaldevice_8h.html" target="_top" xlink:title=" ">
<polygon fill="none" stroke="black" points="1557,-224.5 1557,-243.5 1645,-243.5 1645,-224.5 1557,-224.5"/>
<text text-anchor="middle" x="1601" y="-231.5" font-family="Helvetica,sans-Serif" font-size="10.00">physicaldevice.h</text>
</a>
</g>
</g>
<!-- Node8&#45;&gt;Node18 -->
<g id="edge18" class="edge">
<title>Node8&#45;&gt;Node18</title>
<path fill="none" stroke="midnightblue" d="M1601,-280.08C1601,-273.01 1601,-262.86 1601,-253.99"/>
<polygon fill="midnightblue" stroke="midnightblue" points="1604.5,-253.75 1601,-243.75 1597.5,-253.75 1604.5,-253.75"/>
</g>
<!-- Node23 -->
<g id="node23" class="node">
<title>Node23</title>
<g id="a_node23"><a xlink:href="instance_8h.html" target="_top" xlink:title=" ">
<polygon fill="none" stroke="black" points="1268.5,-56.5 1268.5,-75.5 1329.5,-75.5 1329.5,-56.5 1268.5,-56.5"/>
<text text-anchor="middle" x="1299" y="-63.5" font-family="Helvetica,sans-Serif" font-size="10.00">instance.h</text>
</a>
</g>
</g>
<!-- Node8&#45;&gt;Node23 -->
<g id="edge61" class="edge">
<title>Node8&#45;&gt;Node23</title>
<path fill="none" stroke="midnightblue" d="M1574.25,-287.46C1524.43,-283.97 1414.52,-273.36 1327,-244 1308.91,-237.93 1305.96,-232.76 1289,-224 1257.57,-207.76 1236.52,-218.15 1218,-188 1193.81,-148.62 1245.48,-103.78 1276.99,-81.36"/>
<polygon fill="midnightblue" stroke="midnightblue" points="1279.02,-84.21 1285.27,-75.65 1275.05,-78.45 1279.02,-84.21"/>
</g>
<!-- Node18&#45;&gt;Node4 -->
<g id="edge24" class="edge">
<title>Node18&#45;&gt;Node4</title>
<path fill="none" stroke="midnightblue" d="M1585.88,-224.29C1563.59,-211.53 1520.47,-187.19 1483,-168 1431.33,-141.54 1419.66,-131.55 1365,-112 1267.97,-77.29 1241.77,-72.2 1140,-56 914.97,-20.17 639.78,-12.85 547.15,-11.37"/>
<polygon fill="midnightblue" stroke="midnightblue" points="547.07,-7.87 537.02,-11.22 546.97,-14.87 547.07,-7.87"/>
</g>
<!-- Node18&#45;&gt;Node12 -->
<g id="edge20" class="edge">
<title>Node18&#45;&gt;Node12</title>
<path fill="none" stroke="midnightblue" d="M1575.77,-224.46C1534.19,-210.68 1448.44,-183.53 1374,-168 1255.49,-143.27 1212.53,-185.63 1104,-132 1081.52,-120.89 1062.14,-98.92 1050.53,-83.62"/>
<polygon fill="midnightblue" stroke="midnightblue" points="1053.34,-81.53 1044.63,-75.51 1047.68,-85.65 1053.34,-81.53"/>
</g>
<!-- Node18&#45;&gt;Node13 -->
<g id="edge21" class="edge">
<title>Node18&#45;&gt;Node13</title>
<path fill="none" stroke="midnightblue" d="M1561.23,-224.44C1508.98,-213.2 1418.76,-193.79 1375.11,-184.4"/>
<polygon fill="midnightblue" stroke="midnightblue" points="1375.57,-180.92 1365.06,-182.24 1374.1,-187.77 1375.57,-180.92"/>
</g>
<!-- Node18&#45;&gt;Node15 -->
<g id="edge22" class="edge">
<title>Node18&#45;&gt;Node15</title>
<path fill="none" stroke="midnightblue" d="M1596.15,-224.44C1588.57,-211.44 1572.99,-186.31 1556,-168 1500.58,-108.27 1421.89,-51.57 1384.03,-25.68"/>
<polygon fill="midnightblue" stroke="midnightblue" points="1385.56,-22.49 1375.32,-19.78 1381.63,-28.29 1385.56,-22.49"/>
</g>
<!-- Node18&#45;&gt;Node16 -->
<g id="edge23" class="edge">
<title>Node18&#45;&gt;Node16</title>
<path fill="none" stroke="midnightblue" d="M1618.13,-224.39C1635.44,-215.58 1662.85,-201.34 1686,-188 1715.09,-171.24 1747.79,-150.47 1768.63,-136.98"/>
<polygon fill="midnightblue" stroke="midnightblue" points="1770.57,-139.9 1777.05,-131.51 1766.76,-134.03 1770.57,-139.9"/>
</g>
<!-- Node18&#45;&gt;Node17 -->
<g id="edge25" class="edge">
<title>Node18&#45;&gt;Node17</title>
<path fill="none" stroke="midnightblue" d="M1556.93,-226.16C1487.28,-215.35 1353.11,-194.53 1288.92,-184.57"/>
<polygon fill="midnightblue" stroke="midnightblue" points="1289.3,-181.09 1278.88,-183.02 1288.22,-188.01 1289.3,-181.09"/>
</g>
<!-- Node19 -->
<g id="node19" class="node">
<title>Node19</title>
<g id="a_node19"><a xlink:title=" ">
<polygon fill="none" stroke="#bfbfbf" points="2906,-112.5 2906,-131.5 3014,-131.5 3014,-112.5 2906,-112.5"/>
<text text-anchor="middle" x="2960" y="-119.5" font-family="Helvetica,sans-Serif" font-size="10.00">vulkan/vulkan_core.h</text>
</a>
</g>
</g>
<!-- Node18&#45;&gt;Node19 -->
<g id="edge19" class="edge">
<title>Node18&#45;&gt;Node19</title>
<path fill="none" stroke="midnightblue" d="M1645.26,-232.65C1781.18,-231.22 2204.48,-223.95 2553,-188 2680.72,-174.82 2829.36,-148.18 2906.84,-133.43"/>
<polygon fill="midnightblue" stroke="midnightblue" points="2907.68,-136.83 2916.84,-131.51 2906.36,-129.96 2907.68,-136.83"/>
</g>
<!-- Node20 -->
<g id="node20" class="node">
<title>Node20</title>
<g id="a_node20"><a xlink:href="types_8h.html" target="_top" xlink:title=" ">
<polygon fill="none" stroke="black" points="1629.5,-168.5 1629.5,-187.5 1676.5,-187.5 1676.5,-168.5 1629.5,-168.5"/>
<text text-anchor="middle" x="1653" y="-175.5" font-family="Helvetica,sans-Serif" font-size="10.00">types.h</text>
</a>
</g>
</g>
<!-- Node18&#45;&gt;Node20 -->
<g id="edge26" class="edge">
<title>Node18&#45;&gt;Node20</title>
<path fill="none" stroke="midnightblue" d="M1609.59,-224.08C1617.16,-216.22 1628.38,-204.57 1637.51,-195.08"/>
<polygon fill="midnightblue" stroke="midnightblue" points="1640.16,-197.38 1644.57,-187.75 1635.12,-192.53 1640.16,-197.38"/>
</g>
<!-- Node22 -->
<g id="node22" class="node">
<title>Node22</title>
<g id="a_node22"><a xlink:href="vulkanclass_8h.html" target="_top" xlink:title=" ">
<polygon fill="none" stroke="black" points="2840,-56.5 2840,-75.5 2916,-75.5 2916,-56.5 2840,-56.5"/>
<text text-anchor="middle" x="2878" y="-63.5" font-family="Helvetica,sans-Serif" font-size="10.00">vulkanclass.h</text>
</a>
</g>
</g>
<!-- Node18&#45;&gt;Node22 -->
<g id="edge30" class="edge">
<title>Node18&#45;&gt;Node22</title>
<path fill="none" stroke="midnightblue" d="M1645.09,-231.92C1800.2,-227.95 2320.26,-213.06 2485,-188 2520.38,-182.62 2528.33,-176.87 2563,-168 2625.66,-151.97 2642.81,-152.96 2704,-132 2725.09,-124.77 2729.25,-120.15 2750,-112 2780.78,-99.92 2816.29,-87.56 2842.08,-78.85"/>
<polygon fill="midnightblue" stroke="midnightblue" points="2843.44,-82.09 2851.81,-75.59 2841.22,-75.45 2843.44,-82.09"/>
</g>
<!-- Node18&#45;&gt;Node23 -->
<g id="edge32" class="edge">
<title>Node18&#45;&gt;Node23</title>
<path fill="none" stroke="midnightblue" d="M1584.96,-224.35C1566.82,-211.66 1537.71,-187.4 1512,-168 1477.36,-141.85 1470.91,-131.22 1432,-112 1401.98,-97.17 1366.01,-85.83 1338.95,-78.25"/>
<polygon fill="midnightblue" stroke="midnightblue" points="1339.61,-74.8 1329.04,-75.52 1337.76,-81.55 1339.61,-74.8"/>
</g>
<!-- Node25 -->
<g id="node25" class="node">
<title>Node25</title>
<g id="a_node25"><a xlink:href="queues_8h.html" target="_top" xlink:title=" ">
<polygon fill="none" stroke="black" points="2420,-168.5 2420,-187.5 2476,-187.5 2476,-168.5 2420,-168.5"/>
<text text-anchor="middle" x="2448" y="-175.5" font-family="Helvetica,sans-Serif" font-size="10.00">queues.h</text>
</a>
</g>
</g>
<!-- Node18&#45;&gt;Node25 -->
<g id="edge39" class="edge">
<title>Node18&#45;&gt;Node25</title>
<path fill="none" stroke="midnightblue" d="M1645.03,-229.98C1792.96,-220.25 2269.96,-189.85 2409.43,-181.27"/>
<polygon fill="midnightblue" stroke="midnightblue" points="2409.87,-184.75 2419.63,-180.65 2409.44,-177.77 2409.87,-184.75"/>
</g>
<!-- Node20&#45;&gt;Node4 -->
<g id="edge28" class="edge">
<title>Node20&#45;&gt;Node4</title>
<path fill="none" stroke="midnightblue" d="M1636.22,-168.35C1590.21,-145.12 1457.53,-81.41 1339,-56 1183.84,-22.74 680.21,-13.35 547.37,-11.42"/>
<polygon fill="midnightblue" stroke="midnightblue" points="547.11,-7.91 537.06,-11.27 547.01,-14.91 547.11,-7.91"/>
</g>
<!-- Node20&#45;&gt;Node9 -->
<g id="edge27" class="edge">
<title>Node20&#45;&gt;Node9</title>
<path fill="none" stroke="midnightblue" d="M1641.94,-168.35C1627.66,-156.06 1605.78,-132.73 1616,-112 1634.09,-75.33 1651.08,-71.3 1689,-56 1750.38,-31.23 1940.88,-18.38 2033.87,-13.45"/>
<polygon fill="midnightblue" stroke="midnightblue" points="2034.1,-16.94 2043.91,-12.93 2033.74,-9.95 2034.1,-16.94"/>
</g>
<!-- Node21 -->
<g id="node21" class="node">
<title>Node21</title>
<g id="a_node21"><a xlink:title=" ">
<polygon fill="none" stroke="#bfbfbf" points="1625,-112.5 1625,-131.5 1675,-131.5 1675,-112.5 1625,-112.5"/>
<text text-anchor="middle" x="1650" y="-119.5" font-family="Helvetica,sans-Serif" font-size="10.00">optional</text>
</a>
</g>
</g>
<!-- Node20&#45;&gt;Node21 -->
<g id="edge29" class="edge">
<title>Node20&#45;&gt;Node21</title>
<path fill="none" stroke="midnightblue" d="M1652.5,-168.08C1652.11,-161.01 1651.55,-150.86 1651.05,-141.99"/>
<polygon fill="midnightblue" stroke="midnightblue" points="1654.54,-141.54 1650.49,-131.75 1647.55,-141.93 1654.54,-141.54"/>
</g>
<!-- Node22&#45;&gt;Node9 -->
<g id="edge31" class="edge">
<title>Node22&#45;&gt;Node9</title>
<path fill="none" stroke="midnightblue" d="M2839.8,-62.4C2710.2,-53.56 2287.06,-24.71 2138.3,-14.57"/>
<polygon fill="midnightblue" stroke="midnightblue" points="2138.29,-11.06 2128.07,-13.87 2137.81,-18.04 2138.29,-11.06"/>
</g>
<!-- Node23&#45;&gt;Node4 -->
<g id="edge35" class="edge">
<title>Node23&#45;&gt;Node4</title>
<path fill="none" stroke="midnightblue" d="M1268.29,-61.34C1252.65,-59.57 1233.33,-57.49 1216,-56 958.39,-33.78 646.65,-17.5 547.14,-12.56"/>
<polygon fill="midnightblue" stroke="midnightblue" points="547.29,-9.06 537.13,-12.07 546.94,-16.05 547.29,-9.06"/>
</g>
<!-- Node23&#45;&gt;Node9 -->
<g id="edge33" class="edge">
<title>Node23&#45;&gt;Node9</title>
<path fill="none" stroke="midnightblue" d="M1329.85,-62.88C1449.33,-54.69 1882.41,-24.97 2033.54,-14.6"/>
<polygon fill="midnightblue" stroke="midnightblue" points="2034.18,-18.06 2043.92,-13.89 2033.71,-11.08 2034.18,-18.06"/>
</g>
<!-- Node23&#45;&gt;Node14 -->
<g id="edge36" class="edge">
<title>Node23&#45;&gt;Node14</title>
<path fill="none" stroke="midnightblue" d="M1294.21,-56.08C1290.24,-48.69 1284.47,-37.95 1279.57,-28.81"/>
<polygon fill="midnightblue" stroke="midnightblue" points="1282.51,-26.91 1274.7,-19.75 1276.35,-30.22 1282.51,-26.91"/>
</g>
<!-- Node23&#45;&gt;Node15 -->
<g id="edge37" class="edge">
<title>Node23&#45;&gt;Node15</title>
<path fill="none" stroke="midnightblue" d="M1309.12,-56.32C1318.53,-48.26 1332.74,-36.08 1344.07,-26.37"/>
<polygon fill="midnightblue" stroke="midnightblue" points="1346.38,-29 1351.69,-19.83 1341.82,-23.68 1346.38,-29"/>
</g>
<!-- Node23&#45;&gt;Node18 -->
<g id="edge38" class="edge">
<title>Node23&#45;&gt;Node18</title>
<path fill="none" stroke="midnightblue" d="M1329.61,-72.29C1361.19,-79.15 1410.7,-92.59 1450,-112 1488.91,-131.22 1495.36,-141.85 1530,-168 1551.49,-184.22 1575.36,-203.83 1589.55,-217.24"/>
<polygon fill="midnightblue" stroke="midnightblue" points="1587.14,-219.78 1596.7,-224.35 1592.08,-214.81 1587.14,-219.78"/>
</g>
<!-- Node24 -->
<g id="node24" class="node">
<title>Node24</title>
<g id="a_node24"><a xlink:title=" ">
<polygon fill="none" stroke="#bfbfbf" points="1124.5,-0.5 1124.5,-19.5 1203.5,-19.5 1203.5,-0.5 1124.5,-0.5"/>
<text text-anchor="middle" x="1164" y="-7.5" font-family="Helvetica,sans-Serif" font-size="10.00">GLFW/glfw3.h</text>
</a>
</g>
</g>
<!-- Node23&#45;&gt;Node24 -->
<g id="edge34" class="edge">
<title>Node23&#45;&gt;Node24</title>
<path fill="none" stroke="midnightblue" d="M1277.61,-56.44C1255.29,-47.52 1220.1,-33.44 1194.79,-23.32"/>
<polygon fill="midnightblue" stroke="midnightblue" points="1195.88,-19.98 1185.29,-19.52 1193.28,-26.48 1195.88,-19.98"/>
</g>
<!-- Node25&#45;&gt;Node4 -->
<g id="edge41" class="edge">
<title>Node25&#45;&gt;Node4</title>
<path fill="none" stroke="midnightblue" d="M2433.38,-168.36C2392.17,-144.56 2270.84,-78.37 2160,-56 2078.03,-39.46 769.66,-15.53 547.07,-11.57"/>
<polygon fill="midnightblue" stroke="midnightblue" points="547.08,-8.06 537.02,-11.39 546.95,-15.06 547.08,-8.06"/>
</g>
<!-- Node25&#45;&gt;Node8 -->
<g id="edge49" class="edge">
<title>Node25&#45;&gt;Node8</title>
<path fill="none" stroke="midnightblue" d="M2419.98,-184.52C2357.2,-196.72 2200.35,-226.33 2068,-244 1908.58,-265.29 1717.25,-280.51 1638.08,-286.36"/>
<polygon fill="midnightblue" stroke="midnightblue" points="1637.39,-282.9 1627.67,-287.12 1637.9,-289.88 1637.39,-282.9"/>
</g>
<!-- Node25&#45;&gt;Node16 -->
<g id="edge45" class="edge">
<title>Node25&#45;&gt;Node16</title>
<path fill="none" stroke="midnightblue" d="M2419.73,-174.68C2312.6,-165.89 1932.11,-134.66 1820.8,-125.53"/>
<polygon fill="midnightblue" stroke="midnightblue" points="1820.85,-122.02 1810.6,-124.69 1820.28,-129 1820.85,-122.02"/>
</g>
<!-- Node25&#45;&gt;Node18 -->
<g id="edge50" class="edge">
<title>Node25&#45;&gt;Node18</title>
<path fill="none" stroke="midnightblue" d="M2419.67,-180.98C2297.86,-189.07 1818.53,-219.65 1655.53,-229.74"/>
<polygon fill="midnightblue" stroke="midnightblue" points="1655.02,-226.27 1645.26,-230.38 1655.46,-233.25 1655.02,-226.27"/>
</g>
<!-- Node25&#45;&gt;Node19 -->
<g id="edge40" class="edge">
<title>Node25&#45;&gt;Node19</title>
<path fill="none" stroke="midnightblue" d="M2476.26,-174.02C2555.85,-165.63 2783.38,-141.63 2895.69,-129.78"/>
<polygon fill="midnightblue" stroke="midnightblue" points="2896.29,-133.24 2905.87,-128.71 2895.55,-126.28 2896.29,-133.24"/>
</g>
<!-- Node25&#45;&gt;Node21 -->
<g id="edge44" class="edge">
<title>Node25&#45;&gt;Node21</title>
<path fill="none" stroke="midnightblue" d="M2419.85,-175.31C2326.22,-169.67 2016.7,-150.74 1761,-132 1735.65,-130.14 1707.06,-127.82 1685.24,-126"/>
<polygon fill="midnightblue" stroke="midnightblue" points="1685.38,-122.5 1675.12,-125.15 1684.79,-129.47 1685.38,-122.5"/>
</g>
<!-- Node25&#45;&gt;Node22 -->
<g id="edge48" class="edge">
<title>Node25&#45;&gt;Node22</title>
<path fill="none" stroke="midnightblue" d="M2476.11,-173.43C2518.62,-167.56 2601.5,-154.23 2669,-132 2689.02,-125.41 2692.2,-119.23 2712,-112 2750.89,-97.8 2796.35,-85.78 2829.86,-77.75"/>
<polygon fill="midnightblue" stroke="midnightblue" points="2830.92,-81.09 2839.85,-75.38 2829.31,-74.28 2830.92,-81.09"/>
</g>
<!-- Node26 -->
<g id="node26" class="node">
<title>Node26</title>
<g id="a_node26"><a xlink:title=" ">
<polygon fill="none" stroke="#bfbfbf" points="2550.5,-112.5 2550.5,-131.5 2585.5,-131.5 2585.5,-112.5 2550.5,-112.5"/>
<text text-anchor="middle" x="2568" y="-119.5" font-family="Helvetica,sans-Serif" font-size="10.00">map</text>
</a>
</g>
</g>
<!-- Node25&#45;&gt;Node26 -->
<g id="edge42" class="edge">
<title>Node25&#45;&gt;Node26</title>
<path fill="none" stroke="midnightblue" d="M2467.01,-168.44C2486.93,-159.48 2518.4,-145.32 2540.91,-135.19"/>
<polygon fill="midnightblue" stroke="midnightblue" points="2542.57,-138.28 2550.25,-130.99 2539.69,-131.9 2542.57,-138.28"/>
</g>
<!-- Node27 -->
<g id="node27" class="node">
<title>Node27</title>
<g id="a_node27"><a xlink:title=" ">
<polygon fill="none" stroke="#bfbfbf" points="2604,-112.5 2604,-131.5 2660,-131.5 2660,-112.5 2604,-112.5"/>
<text text-anchor="middle" x="2632" y="-119.5" font-family="Helvetica,sans-Serif" font-size="10.00">algorithm</text>
</a>
</g>
</g>
<!-- Node25&#45;&gt;Node27 -->
<g id="edge43" class="edge">
<title>Node25&#45;&gt;Node27</title>
<path fill="none" stroke="midnightblue" d="M2476.35,-168.68C2507.91,-159.42 2559.08,-144.4 2594.07,-134.13"/>
<polygon fill="midnightblue" stroke="midnightblue" points="2595.31,-137.41 2603.92,-131.24 2593.34,-130.7 2595.31,-137.41"/>
</g>
<!-- Node28 -->
<g id="node28" class="node">
<title>Node28</title>
<g id="a_node28"><a xlink:title=" ">
<polygon fill="none" stroke="#bfbfbf" points="2427,-112.5 2427,-131.5 2471,-131.5 2471,-112.5 2427,-112.5"/>
<text text-anchor="middle" x="2449" y="-119.5" font-family="Helvetica,sans-Serif" font-size="10.00">thread</text>
</a>
</g>
</g>
<!-- Node25&#45;&gt;Node28 -->
<g id="edge46" class="edge">
<title>Node25&#45;&gt;Node28</title>
<path fill="none" stroke="midnightblue" d="M2448.17,-168.08C2448.3,-161.01 2448.48,-150.86 2448.65,-141.99"/>
<polygon fill="midnightblue" stroke="midnightblue" points="2452.15,-141.81 2448.84,-131.75 2445.15,-141.68 2452.15,-141.81"/>
</g>
<!-- Node29 -->
<g id="node29" class="node">
<title>Node29</title>
<g id="a_node29"><a xlink:title=" ">
<polygon fill="none" stroke="#bfbfbf" points="2489.5,-112.5 2489.5,-131.5 2532.5,-131.5 2532.5,-112.5 2489.5,-112.5"/>
<text text-anchor="middle" x="2511" y="-119.5" font-family="Helvetica,sans-Serif" font-size="10.00">mutex</text>
</a>
</g>
</g>
<!-- Node25&#45;&gt;Node29 -->
<g id="edge47" class="edge">
<title>Node25&#45;&gt;Node29</title>
<path fill="none" stroke="midnightblue" d="M2458.12,-168.32C2467.53,-160.26 2481.74,-148.08 2493.07,-138.37"/>
<polygon fill="midnightblue" stroke="midnightblue" points="2495.38,-141 2500.69,-131.83 2490.82,-135.68 2495.38,-141"/>
</g>
<!-- Node30 -->
<g id="node30" class="node">
<title>Node30</title>
<g id="a_node30"><a xlink:href="window_8h.html" target="_top" xlink:title=" ">
<polygon fill="none" stroke="black" points="1113.5,-112.5 1113.5,-131.5 1170.5,-131.5 1170.5,-112.5 1113.5,-112.5"/>
<text text-anchor="middle" x="1142" y="-119.5" font-family="Helvetica,sans-Serif" font-size="10.00">window.h</text>
</a>
</g>
</g>
<!-- Node25&#45;&gt;Node30 -->
<g id="edge51" class="edge">
<title>Node25&#45;&gt;Node30</title>
<path fill="none" stroke="midnightblue" d="M2419.81,-175.83C2251.17,-168.86 1376.35,-132.69 1180.8,-124.6"/>
<polygon fill="midnightblue" stroke="midnightblue" points="1180.84,-121.1 1170.71,-124.19 1180.55,-128.1 1180.84,-121.1"/>
</g>
<!-- Node31 -->
<g id="node31" class="node">
<title>Node31</title>
<g id="a_node31"><a xlink:href="fence_8h.html" target="_top" xlink:title=" ">
<polygon fill="none" stroke="black" points="2247,-112.5 2247,-131.5 2295,-131.5 2295,-112.5 2247,-112.5"/>
<text text-anchor="middle" x="2271" y="-119.5" font-family="Helvetica,sans-Serif" font-size="10.00">fence.h</text>
</a>
</g>
</g>
<!-- Node25&#45;&gt;Node31 -->
<g id="edge56" class="edge">
<title>Node25&#45;&gt;Node31</title>
<path fill="none" stroke="midnightblue" d="M2419.95,-168.44C2388.77,-158.93 2338.4,-143.56 2305,-133.37"/>
<polygon fill="midnightblue" stroke="midnightblue" points="2305.8,-129.96 2295.22,-130.39 2303.76,-136.65 2305.8,-129.96"/>
</g>
<!-- Node30&#45;&gt;Node11 -->
<g id="edge54" class="edge">
<title>Node30&#45;&gt;Node11</title>
<path fill="none" stroke="midnightblue" d="M1113.27,-117.29C1040.3,-107.86 847.72,-82.98 763.91,-72.16"/>
<polygon fill="midnightblue" stroke="midnightblue" points="764.14,-68.66 753.77,-70.85 763.24,-75.6 764.14,-68.66"/>
</g>
<!-- Node30&#45;&gt;Node12 -->
<g id="edge53" class="edge">
<title>Node30&#45;&gt;Node12</title>
<path fill="none" stroke="midnightblue" d="M1125.45,-112.32C1109.01,-103.7 1083.57,-90.36 1064.53,-80.39"/>
<polygon fill="midnightblue" stroke="midnightblue" points="1065.99,-77.2 1055.51,-75.65 1062.74,-83.4 1065.99,-77.2"/>
</g>
<!-- Node30&#45;&gt;Node23 -->
<g id="edge55" class="edge">
<title>Node30&#45;&gt;Node23</title>
<path fill="none" stroke="midnightblue" d="M1166.88,-112.44C1193.29,-103.36 1235.22,-88.94 1264.74,-78.78"/>
<polygon fill="midnightblue" stroke="midnightblue" points="1265.92,-82.08 1274.24,-75.52 1263.64,-75.46 1265.92,-82.08"/>
</g>
<!-- Node30&#45;&gt;Node24 -->
<g id="edge52" class="edge">
<title>Node30&#45;&gt;Node24</title>
<path fill="none" stroke="midnightblue" d="M1143.73,-112.37C1147.28,-94.62 1155.47,-53.67 1160.28,-29.6"/>
<polygon fill="midnightblue" stroke="midnightblue" points="1163.75,-30.08 1162.28,-19.59 1156.89,-28.71 1163.75,-30.08"/>
</g>
<!-- Node31&#45;&gt;Node8 -->
<g id="edge60" class="edge">
<title>Node31&#45;&gt;Node8</title>
<path fill="none" stroke="midnightblue" d="M2246.94,-131.47C2185.21,-152.93 2015.83,-210.17 1871,-244 1788.53,-263.26 1690.03,-277.51 1637.79,-284.4"/>
<polygon fill="midnightblue" stroke="midnightblue" points="1637.13,-280.95 1627.67,-285.71 1638.04,-287.89 1637.13,-280.95"/>
</g>
<!-- Node31&#45;&gt;Node9 -->
<g id="edge57" class="edge">
<title>Node31&#45;&gt;Node9</title>
<path fill="none" stroke="midnightblue" d="M2262.81,-112.43C2249.59,-98.96 2222.24,-72.69 2195,-56 2172.29,-42.09 2144.52,-30.7 2122.69,-22.86"/>
<polygon fill="midnightblue" stroke="midnightblue" points="2123.71,-19.51 2113.12,-19.51 2121.4,-26.11 2123.71,-19.51"/>
</g>
<!-- Node31&#45;&gt;Node10 -->
<g id="edge58" class="edge">
<title>Node31&#45;&gt;Node10</title>
<path fill="none" stroke="midnightblue" d="M2246.8,-113.03C2219.3,-103.98 2174.17,-89.12 2142.64,-78.74"/>
<polygon fill="midnightblue" stroke="midnightblue" points="2143.52,-75.34 2132.92,-75.54 2141.33,-81.99 2143.52,-75.34"/>
</g>
<!-- Node31&#45;&gt;Node22 -->
<g id="edge59" class="edge">
<title>Node31&#45;&gt;Node22</title>
<path fill="none" stroke="midnightblue" d="M2295.17,-118.85C2385.8,-110.79 2706.52,-82.26 2829.51,-71.31"/>
<polygon fill="midnightblue" stroke="midnightblue" points="2830.09,-74.78 2839.74,-70.4 2829.47,-67.8 2830.09,-74.78"/>
</g>
<!-- Node32&#45;&gt;Node4 -->
<g id="edge83" class="edge">
<title>Node32&#45;&gt;Node4</title>
<path fill="none" stroke="midnightblue" d="M2285.92,-454.4C2206.15,-448.83 2018.95,-434.4 1863,-412 1815.98,-405.25 1805.21,-397.31 1758,-392 1313.85,-342.04 1194.05,-428.38 753,-356 666.97,-341.88 627.47,-360.81 565,-300 491.39,-228.34 509.83,-178.71 508,-76 507.84,-67.11 507.31,-64.86 508,-56 508.68,-47.22 510.09,-37.56 511.47,-29.45"/>
<polygon fill="midnightblue" stroke="midnightblue" points="514.92,-30.04 513.26,-19.58 508.03,-28.8 514.92,-30.04"/>
</g>
<!-- Node32&#45;&gt;Node8 -->
<g id="edge64" class="edge">
<title>Node32&#45;&gt;Node8</title>
<path fill="none" stroke="midnightblue" d="M2294.61,-448.49C2224.07,-428.61 2050.95,-379.05 1995,-356 1977.35,-348.73 1975.2,-341.73 1957,-336 1844.43,-300.55 1703.5,-292.92 1637.84,-291.35"/>
<polygon fill="midnightblue" stroke="midnightblue" points="1637.66,-287.85 1627.59,-291.14 1637.52,-294.85 1637.66,-287.85"/>
</g>
<!-- Node32&#45;&gt;Node19 -->
<g id="edge63" class="edge">
<title>Node32&#45;&gt;Node19</title>
<path fill="none" stroke="midnightblue" d="M2364.04,-457.2C2444.76,-455.74 2632.85,-442.56 2757,-356 2814.64,-315.81 2798.89,-277.87 2844,-224 2867.21,-196.28 2875.67,-191.67 2903,-168 2915.03,-157.58 2929.06,-146.49 2940.19,-137.93"/>
<polygon fill="midnightblue" stroke="midnightblue" points="2942.57,-140.51 2948.4,-131.67 2938.32,-134.95 2942.57,-140.51"/>
</g>
<!-- Node32&#45;&gt;Node22 -->
<g id="edge65" class="edge">
<title>Node32&#45;&gt;Node22</title>
<path fill="none" stroke="midnightblue" d="M2364.07,-454.45C2430.31,-449.6 2568.61,-437.22 2683,-412 2899.22,-364.34 3003.46,-408.2 3152,-244 3191.36,-200.49 3197.76,-149.93 3153,-112 3119.6,-83.7 2996.01,-72.93 2926.42,-69.04"/>
<polygon fill="midnightblue" stroke="midnightblue" points="2926.33,-65.53 2916.15,-68.49 2925.95,-72.52 2926.33,-65.53"/>
</g>
<!-- Node33 -->
<g id="node33" class="node">
<title>Node33</title>
<g id="a_node33"><a xlink:href="pipelinelayout_8h.html" target="_top" xlink:title=" ">
<polygon fill="none" stroke="black" points="2380.5,-392.5 2380.5,-411.5 2463.5,-411.5 2463.5,-392.5 2380.5,-392.5"/>
<text text-anchor="middle" x="2422" y="-399.5" font-family="Helvetica,sans-Serif" font-size="10.00">pipelinelayout.h</text>
</a>
</g>
</g>
<!-- Node32&#45;&gt;Node33 -->
<g id="edge66" class="edge">
<title>Node32&#45;&gt;Node33</title>
<path fill="none" stroke="midnightblue" d="M2340.58,-448.32C2356,-439.74 2379.81,-426.49 2397.71,-416.52"/>
<polygon fill="midnightblue" stroke="midnightblue" points="2399.42,-419.58 2406.45,-411.65 2396.01,-413.46 2399.42,-419.58"/>
</g>
<!-- Node35 -->
<g id="node35" class="node">
<title>Node35</title>
<g id="a_node35"><a xlink:href="descriptorlayout_8h.html" target="_top" xlink:title=" ">
<polygon fill="none" stroke="black" points="2004,-336.5 2004,-355.5 2096,-355.5 2096,-336.5 2004,-336.5"/>
<text text-anchor="middle" x="2050" y="-343.5" font-family="Helvetica,sans-Serif" font-size="10.00">descriptorlayout.h</text>
</a>
</g>
</g>
<!-- Node32&#45;&gt;Node35 -->
<g id="edge82" class="edge">
<title>Node32&#45;&gt;Node35</title>
<path fill="none" stroke="midnightblue" d="M2317.91,-448.31C2305.9,-434.18 2280.09,-406.39 2252,-392 2206.21,-368.55 2148.44,-357.25 2106.43,-351.85"/>
<polygon fill="midnightblue" stroke="midnightblue" points="2106.72,-348.36 2096.37,-350.63 2105.88,-355.31 2106.72,-348.36"/>
</g>
<!-- Node33&#45;&gt;Node4 -->
<g id="edge69" class="edge">
<title>Node33&#45;&gt;Node4</title>
<path fill="none" stroke="midnightblue" d="M2391.23,-392.41C2334.81,-376.73 2216.74,-344.34 2175,-336 2028.27,-306.69 1649.72,-291.99 1508,-244 1443.15,-222.04 1436.49,-195.98 1374,-168 1257.53,-115.84 1218.06,-129.08 1102,-76 1086.06,-68.71 1084.71,-61.29 1068,-56 969.88,-24.95 650.26,-14.38 547.29,-11.74"/>
<polygon fill="midnightblue" stroke="midnightblue" points="547.27,-8.24 537.19,-11.49 547.1,-15.23 547.27,-8.24"/>
</g>
<!-- Node33&#45;&gt;Node8 -->
<g id="edge80" class="edge">
<title>Node33&#45;&gt;Node8</title>
<path fill="none" stroke="midnightblue" d="M2387.05,-392.48C2328.88,-378.61 2208.39,-351.17 2105,-336 1931.18,-310.5 1721.36,-297.38 1637.87,-292.86"/>
<polygon fill="midnightblue" stroke="midnightblue" points="1637.8,-289.35 1627.63,-292.31 1637.43,-296.34 1637.8,-289.35"/>
</g>
<!-- Node33&#45;&gt;Node9 -->
<g id="edge67" class="edge">
<title>Node33&#45;&gt;Node9</title>
<path fill="none" stroke="midnightblue" d="M2463.66,-401.43C2554.14,-401.51 2774.89,-397.06 2954,-356 3071.09,-329.16 3095.77,-303.73 3200,-244 3289.53,-192.69 3445.25,-199.78 3391,-112 3361.74,-64.66 3332.91,-69.81 3279,-56 3167.69,-27.5 2354.13,-14.61 2138.39,-11.67"/>
<polygon fill="midnightblue" stroke="midnightblue" points="2138.32,-8.17 2128.28,-11.53 2138.23,-15.17 2138.32,-8.17"/>
</g>
<!-- Node33&#45;&gt;Node11 -->
<g id="edge68" class="edge">
<title>Node33&#45;&gt;Node11</title>
<path fill="none" stroke="midnightblue" d="M2380.43,-399.84C2150.5,-393.37 1044.29,-361.99 1028,-356 882.62,-302.54 854.92,-255.18 761,-132 749.71,-117.19 739.45,-98.57 732.62,-85.06"/>
<polygon fill="midnightblue" stroke="midnightblue" points="735.65,-83.3 728.1,-75.87 729.37,-86.39 735.65,-83.3"/>
</g>
<!-- Node33&#45;&gt;Node22 -->
<g id="edge81" class="edge">
<title>Node33&#45;&gt;Node22</title>
<path fill="none" stroke="midnightblue" d="M2463.62,-397.52C2527.32,-391.73 2652.59,-378.46 2757,-356 2799.51,-346.86 3106.02,-278.87 3132,-244 3167.05,-196.95 3169.83,-156.84 3132,-112 3103.18,-77.85 2983.53,-83.92 2926.61,-76.7"/>
<polygon fill="midnightblue" stroke="midnightblue" points="2926.85,-73.19 2916.43,-75.12 2925.78,-80.11 2926.85,-73.19"/>
</g>
<!-- Node34 -->
<g id="node34" class="node">
<title>Node34</title>
<g id="a_node34"><a xlink:title=" ">
<polygon fill="none" stroke="#bfbfbf" points="2688.5,-336.5 2688.5,-355.5 2747.5,-355.5 2747.5,-336.5 2688.5,-336.5"/>
<text text-anchor="middle" x="2718" y="-343.5" font-family="Helvetica,sans-Serif" font-size="10.00">functional</text>
</a>
</g>
</g>
<!-- Node33&#45;&gt;Node34 -->
<g id="edge70" class="edge">
<title>Node33&#45;&gt;Node34</title>
<path fill="none" stroke="midnightblue" d="M2463.53,-393.91C2513.53,-385.3 2600.02,-370.17 2674,-356 2675.44,-355.72 2676.9,-355.44 2678.37,-355.15"/>
<polygon fill="midnightblue" stroke="midnightblue" points="2679.07,-358.58 2688.2,-353.2 2677.71,-351.72 2679.07,-358.58"/>
</g>
<!-- Node33&#45;&gt;Node35 -->
<g id="edge71" class="edge">
<title>Node33&#45;&gt;Node35</title>
<path fill="none" stroke="midnightblue" d="M2380.41,-394.96C2313.5,-385.25 2181.86,-366.14 2106.5,-355.2"/>
<polygon fill="midnightblue" stroke="midnightblue" points="2106.66,-351.69 2096.26,-353.71 2105.65,-358.61 2106.66,-351.69"/>
</g>
<!-- Node36 -->
<g id="node36" class="node">
<title>Node36</title>
<g id="a_node36"><a xlink:href="pushconstant_8h.html" target="_top" xlink:title=" ">
<polygon fill="none" stroke="black" points="3298.5,-112.5 3298.5,-131.5 3381.5,-131.5 3381.5,-112.5 3298.5,-112.5"/>
<text text-anchor="middle" x="3340" y="-119.5" font-family="Helvetica,sans-Serif" font-size="10.00">pushconstant.h</text>
</a>
</g>
</g>
<!-- Node33&#45;&gt;Node36 -->
<g id="edge77" class="edge">
<title>Node33&#45;&gt;Node36</title>
<path fill="none" stroke="midnightblue" d="M2463.66,-401.35C2548.08,-401.13 2744.84,-395.93 2904,-356 3028.42,-324.79 3057.96,-306.46 3170,-244 3228.46,-211.41 3291.09,-162.83 3321.42,-138.32"/>
<polygon fill="midnightblue" stroke="midnightblue" points="3323.87,-140.84 3329.42,-131.81 3319.45,-135.41 3323.87,-140.84"/>
</g>
<!-- Node35&#45;&gt;Node4 -->
<g id="edge74" class="edge">
<title>Node35&#45;&gt;Node4</title>
<path fill="none" stroke="midnightblue" d="M2003.65,-340.47C1988.75,-339.03 1972.18,-337.43 1957,-336 1783.26,-319.6 1739.37,-319.93 1566,-300 1385.04,-279.2 1334.59,-295.94 1160,-244 972.49,-188.21 948.26,-115.82 762,-56 687.15,-31.96 595.17,-19.46 547.34,-14.17"/>
<polygon fill="midnightblue" stroke="midnightblue" points="547.59,-10.68 537.28,-13.09 546.85,-17.64 547.59,-10.68"/>
</g>
<!-- Node35&#45;&gt;Node8 -->
<g id="edge76" class="edge">
<title>Node35&#45;&gt;Node8</title>
<path fill="none" stroke="midnightblue" d="M2003.83,-337.91C1999.16,-337.25 1994.49,-336.6 1990,-336 1860.83,-318.85 1707.03,-302.15 1637.89,-294.85"/>
<polygon fill="midnightblue" stroke="midnightblue" points="1638.23,-291.37 1627.92,-293.8 1637.5,-298.33 1638.23,-291.37"/>
</g>
<!-- Node35&#45;&gt;Node9 -->
<g id="edge72" class="edge">
<title>Node35&#45;&gt;Node9</title>
<path fill="none" stroke="midnightblue" d="M2096.26,-343.25C2260.84,-336.51 2816.91,-309.3 2981,-244 3044.31,-218.8 3096.77,-168.72 3059,-112 3023.22,-58.27 2987.92,-70.38 2925,-56 2774.2,-21.53 2297.39,-13.29 2138.27,-11.48"/>
<polygon fill="midnightblue" stroke="midnightblue" points="2138.29,-7.98 2128.25,-11.36 2138.21,-14.97 2138.29,-7.98"/>
</g>
<!-- Node35&#45;&gt;Node11 -->
<g id="edge73" class="edge">
<title>Node35&#45;&gt;Node11</title>
<path fill="none" stroke="midnightblue" d="M2003.68,-340.06C1988.79,-338.59 1972.21,-337.09 1957,-336 1614.39,-311.45 1521.65,-368.17 1185,-300 1114.44,-285.71 1098.24,-274.44 1033,-244 920.89,-191.69 795.25,-113.01 745.73,-81.15"/>
<polygon fill="midnightblue" stroke="midnightblue" points="747.42,-78.08 737.12,-75.59 743.63,-83.96 747.42,-78.08"/>
</g>
<!-- Node35&#45;&gt;Node22 -->
<g id="edge75" class="edge">
<title>Node35&#45;&gt;Node22</title>
<path fill="none" stroke="midnightblue" d="M2096.03,-338.83C2186.93,-326.73 2395.9,-299.41 2572,-280 2738.42,-261.65 2792.06,-307.46 2947,-244 3013.41,-216.8 3083.43,-169.13 3040,-112 3026.18,-93.82 2968.74,-81.05 2926.17,-73.87"/>
<polygon fill="midnightblue" stroke="midnightblue" points="2926.67,-70.41 2916.24,-72.26 2925.55,-77.32 2926.67,-70.41"/>
</g>
<!-- Node36&#45;&gt;Node9 -->
<g id="edge78" class="edge">
<title>Node36&#45;&gt;Node9</title>
<path fill="none" stroke="midnightblue" d="M3331.12,-112.18C3315.49,-97.32 3281.39,-67.8 3246,-56 3140.24,-20.73 2350.73,-12.81 2138.43,-11.31"/>
<polygon fill="midnightblue" stroke="midnightblue" points="2138.2,-7.81 2128.18,-11.24 2138.15,-14.81 2138.2,-7.81"/>
</g>
<!-- Node36&#45;&gt;Node22 -->
<g id="edge79" class="edge">
<title>Node36&#45;&gt;Node22</title>
<path fill="none" stroke="midnightblue" d="M3298.44,-114.09C3293.58,-113.35 3288.68,-112.64 3284,-112 3155.14,-94.51 3002.57,-78.99 2926.37,-71.59"/>
<polygon fill="midnightblue" stroke="midnightblue" points="2926.43,-68.08 2916.14,-70.6 2925.76,-75.04 2926.43,-68.08"/>
</g>
<!-- Node37&#45;&gt;Node4 -->
<g id="edge89" class="edge">
<title>Node37&#45;&gt;Node4</title>
<path fill="none" stroke="midnightblue" d="M762.24,-342.51C712.9,-337.38 610.29,-324.06 585,-300 507.1,-225.91 509.62,-81.12 513.27,-29.68"/>
<polygon fill="midnightblue" stroke="midnightblue" points="516.76,-29.93 514.08,-19.68 509.78,-29.37 516.76,-29.93"/>
</g>
<!-- Node37&#45;&gt;Node8 -->
<g id="edge91" class="edge">
<title>Node37&#45;&gt;Node8</title>
<path fill="none" stroke="midnightblue" d="M815.56,-343.23C935.3,-335.27 1425.16,-302.69 1564.11,-293.45"/>
<polygon fill="midnightblue" stroke="midnightblue" points="1564.49,-296.94 1574.24,-292.78 1564.03,-289.95 1564.49,-296.94"/>
</g>
<!-- Node37&#45;&gt;Node9 -->
<g id="edge85" class="edge">
<title>Node37&#45;&gt;Node9</title>
<path fill="none" stroke="midnightblue" d="M815.68,-341.96C960.86,-325.41 1649.37,-246.8 1654,-244 1743.35,-189.92 1702.98,-105.41 1795,-56 1835.3,-34.36 1961.45,-20.99 2033.74,-14.9"/>
<polygon fill="midnightblue" stroke="midnightblue" points="2034.32,-18.36 2043.99,-14.05 2033.74,-11.38 2034.32,-18.36"/>
</g>
<!-- Node37&#45;&gt;Node11 -->
<g id="edge87" class="edge">
<title>Node37&#45;&gt;Node11</title>
<path fill="none" stroke="midnightblue" d="M785.97,-336.47C782.88,-327.49 778.09,-312.89 775,-300 767,-266.68 782.34,-251.58 762,-224 741,-195.53 709.52,-218.15 691,-188 673.32,-159.22 680.49,-144.1 691,-112 694.49,-101.34 701.57,-91.12 708.29,-83.12"/>
<polygon fill="midnightblue" stroke="midnightblue" points="710.9,-85.44 714.98,-75.66 705.7,-80.76 710.9,-85.44"/>
</g>
<!-- Node37&#45;&gt;Node12 -->
<g id="edge90" class="edge">
<title>Node37&#45;&gt;Node12</title>
<path fill="none" stroke="midnightblue" d="M790.12,-336.47C792.11,-323.51 797.13,-298.43 808,-280 862.54,-187.48 969.81,-111.29 1016.45,-81.03"/>
<polygon fill="midnightblue" stroke="midnightblue" points="1018.4,-83.94 1024.94,-75.6 1014.63,-78.04 1018.4,-83.94"/>
</g>
<!-- Node38 -->
<g id="node38" class="node">
<title>Node38</title>
<g id="a_node38"><a xlink:title=" ">
<polygon fill="none" stroke="#bfbfbf" points="817.5,-280.5 817.5,-299.5 866.5,-299.5 866.5,-280.5 817.5,-280.5"/>
<text text-anchor="middle" x="842" y="-287.5" font-family="Helvetica,sans-Serif" font-size="10.00">cassert</text>
</a>
</g>
</g>
<!-- Node37&#45;&gt;Node38 -->
<g id="edge86" class="edge">
<title>Node37&#45;&gt;Node38</title>
<path fill="none" stroke="midnightblue" d="M797.75,-336.08C805.47,-328.22 816.9,-316.57 826.22,-307.08"/>
<polygon fill="midnightblue" stroke="midnightblue" points="828.9,-309.34 833.41,-299.75 823.91,-304.44 828.9,-309.34"/>
</g>
<!-- Node37&#45;&gt;Node39 -->
<g id="edge88" class="edge">
<title>Node37&#45;&gt;Node39</title>
<path fill="none" stroke="midnightblue" d="M762.22,-342.92C652.78,-334.4 239.9,-302.27 124.9,-293.33"/>
<polygon fill="midnightblue" stroke="midnightblue" points="124.96,-289.82 114.72,-292.53 124.41,-296.8 124.96,-289.82"/>
</g>
<!-- Node40 -->
<g id="node40" class="node">
<title>Node40</title>
<g id="a_node40"><a xlink:href="utils_8h.html" target="_top" xlink:title=" ">
<polygon fill="none" stroke="black" points="645,-280.5 645,-299.5 723,-299.5 723,-280.5 645,-280.5"/>
<text text-anchor="middle" x="684" y="-287.5" font-family="Helvetica,sans-Serif" font-size="10.00">../../utils/utils.h</text>
</a>
</g>
</g>
<!-- Node37&#45;&gt;Node40 -->
<g id="edge92" class="edge">
<title>Node37&#45;&gt;Node40</title>
<path fill="none" stroke="midnightblue" d="M772.13,-336.32C755.29,-327.66 729.19,-314.24 709.76,-304.25"/>
<polygon fill="midnightblue" stroke="midnightblue" points="711.32,-301.12 700.83,-299.65 708.12,-307.34 711.32,-301.12"/>
</g>
<!-- Node40&#45;&gt;Node4 -->
<g id="edge93" class="edge">
<title>Node40&#45;&gt;Node4</title>
<path fill="none" stroke="midnightblue" d="M678.11,-280.21C672.23,-271.27 663.05,-256.92 656,-244 611.73,-162.84 622.93,-129.61 567,-56 558.31,-44.56 546.3,-33.94 536.02,-25.89"/>
<polygon fill="midnightblue" stroke="midnightblue" points="537.98,-22.99 527.89,-19.77 533.77,-28.58 537.98,-22.99"/>
</g>
<!-- Node41 -->
<g id="node41" class="node">
<title>Node41</title>
<g id="a_node41"><a xlink:title=" ">
<polygon fill="none" stroke="#bfbfbf" points="665,-224.5 665,-243.5 753,-243.5 753,-224.5 665,-224.5"/>
<text text-anchor="middle" x="709" y="-231.5" font-family="Helvetica,sans-Serif" font-size="10.00">boost/bimap.hpp</text>
</a>
</g>
</g>
<!-- Node40&#45;&gt;Node41 -->
<g id="edge94" class="edge">
<title>Node40&#45;&gt;Node41</title>
<path fill="none" stroke="midnightblue" d="M688.13,-280.08C691.51,-272.77 696.42,-262.18 700.62,-253.1"/>
<polygon fill="midnightblue" stroke="midnightblue" points="703.92,-254.3 704.95,-243.75 697.57,-251.36 703.92,-254.3"/>
</g>
<!-- Node42&#45;&gt;Node4 -->
<g id="edge99" class="edge">
<title>Node42&#45;&gt;Node4</title>
<path fill="none" stroke="midnightblue" d="M1632.13,-512.93C1517.15,-512.32 1147.62,-507.21 845,-468 722.6,-452.14 692.94,-441.1 573,-412 416.56,-374.04 257,-395.98 257,-235 257,-235 257,-235 257,-121 257,-24.17 412.68,-11.4 482.18,-10.52"/>
<polygon fill="midnightblue" stroke="midnightblue" points="482.57,-14.02 492.56,-10.47 482.54,-7.02 482.57,-14.02"/>
</g>
<!-- Node42&#45;&gt;Node9 -->
<g id="edge96" class="edge">
<title>Node42&#45;&gt;Node9</title>
<path fill="none" stroke="midnightblue" d="M1673.97,-504.42C1707.08,-457.06 1872.57,-223.7 2034,-56 2044.22,-45.38 2056.67,-34.54 2066.83,-26.16"/>
<polygon fill="midnightblue" stroke="midnightblue" points="2069.16,-28.78 2074.72,-19.76 2064.75,-23.34 2069.16,-28.78"/>
</g>
<!-- Node42&#45;&gt;Node11 -->
<g id="edge100" class="edge">
<title>Node42&#45;&gt;Node11</title>
<path fill="none" stroke="midnightblue" d="M1632.22,-511.78C1456.56,-505.3 685.7,-470.63 480,-356 445.31,-336.67 416.4,-316.08 433,-280 483.64,-169.9 624.07,-104.52 689.55,-79.18"/>
<polygon fill="midnightblue" stroke="midnightblue" points="690.91,-82.41 699.02,-75.6 688.43,-75.86 690.91,-82.41"/>
</g>
<!-- Node42&#45;&gt;Node24 -->
<g id="edge97" class="edge">
<title>Node42&#45;&gt;Node24</title>
<path fill="none" stroke="midnightblue" d="M1632.49,-511.17C1499.18,-503.45 1032.03,-468.6 949,-356 935.28,-337.39 832.99,-245.06 1009,-56 1035.82,-27.19 1079.87,-16.45 1114.18,-12.62"/>
<polygon fill="midnightblue" stroke="midnightblue" points="1114.85,-16.07 1124.48,-11.64 1114.19,-9.1 1114.85,-16.07"/>
</g>
<!-- Node42&#45;&gt;Node30 -->
<g id="edge101" class="edge">
<title>Node42&#45;&gt;Node30</title>
<path fill="none" stroke="midnightblue" d="M1632.31,-507.7C1583.75,-500.23 1494.3,-485.54 1419,-468 1396.99,-462.87 1041.6,-374.04 1028,-356 996.05,-313.62 853.52,-467.39 1071,-168 1081.13,-154.05 1097.03,-143.4 1111.22,-135.96"/>
<polygon fill="midnightblue" stroke="midnightblue" points="1112.78,-139.09 1120.21,-131.54 1109.7,-132.81 1112.78,-139.09"/>
</g>
<!-- Node43 -->
<g id="node43" class="node">
<title>Node43</title>
<g id="a_node43"><a xlink:title=" ">
<polygon fill="none" stroke="#bfbfbf" points="1591,-392.5 1591,-411.5 1701,-411.5 1701,-392.5 1591,-392.5"/>
<text text-anchor="middle" x="1646" y="-399.5" font-family="Helvetica,sans-Serif" font-size="10.00">dexode/EventBus.hpp</text>
</a>
</g>
</g>
<!-- Node42&#45;&gt;Node43 -->
<g id="edge98" class="edge">
<title>Node42&#45;&gt;Node43</title>
<path fill="none" stroke="midnightblue" d="M1666.27,-504.37C1662.72,-486.62 1654.53,-445.67 1649.72,-421.6"/>
<polygon fill="midnightblue" stroke="midnightblue" points="1653.11,-420.71 1647.72,-411.59 1646.25,-422.08 1653.11,-420.71"/>
</g>
<!-- Node44 -->
<g id="node44" class="node">
<title>Node44</title>
<g id="a_node44"><a xlink:href="framebuffer_8h.html" target="_top" xlink:title=" ">
<polygon fill="none" stroke="black" points="1870.5,-448.5 1870.5,-467.5 1943.5,-467.5 1943.5,-448.5 1870.5,-448.5"/>
<text text-anchor="middle" x="1907" y="-455.5" font-family="Helvetica,sans-Serif" font-size="10.00">framebuffer.h</text>
</a>
</g>
</g>
<!-- Node42&#45;&gt;Node44 -->
<g id="edge102" class="edge">
<title>Node42&#45;&gt;Node44</title>
<path fill="none" stroke="midnightblue" d="M1700.78,-504.44C1742.16,-494.61 1813.32,-478.52 1860.33,-468.36"/>
<polygon fill="midnightblue" stroke="midnightblue" points="1861.23,-471.74 1870.27,-466.22 1859.76,-464.9 1861.23,-471.74"/>
</g>
<!-- Node51 -->
<g id="node51" class="node">
<title>Node51</title>
<g id="a_node51"><a xlink:href="commandbuffer_8h.html" target="_top" xlink:title=" ">
<polygon fill="none" stroke="black" points="2344.5,-616.5 2344.5,-635.5 2435.5,-635.5 2435.5,-616.5 2344.5,-616.5"/>
<text text-anchor="middle" x="2390" y="-623.5" font-family="Helvetica,sans-Serif" font-size="10.00">commandbuffer.h</text>
</a>
</g>
</g>
<!-- Node42&#45;&gt;Node51 -->
<g id="edge177" class="edge">
<title>Node42&#45;&gt;Node51</title>
<path fill="none" stroke="midnightblue" d="M1703.63,-520.97C1773.98,-532.69 1935.73,-559.4 2072,-580 2163.78,-593.88 2270.68,-608.74 2334.21,-617.43"/>
<polygon fill="midnightblue" stroke="midnightblue" points="2334.03,-620.94 2344.41,-618.82 2334.98,-614 2334.03,-620.94"/>
</g>
<!-- Node52 -->
<g id="node52" class="node">
<title>Node52</title>
<g id="a_node52"><a xlink:href="semaphore_8h.html" target="_top" xlink:title=" ">
<polygon fill="none" stroke="black" points="2266,-336.5 2266,-355.5 2338,-355.5 2338,-336.5 2266,-336.5"/>
<text text-anchor="middle" x="2302" y="-343.5" font-family="Helvetica,sans-Serif" font-size="10.00">semaphore.h</text>
</a>
</g>
</g>
<!-- Node42&#45;&gt;Node52 -->
<g id="edge176" class="edge">
<title>Node42&#45;&gt;Node52</title>
<path fill="none" stroke="midnightblue" d="M1703.85,-508.94C1758.16,-502.44 1864.38,-488.31 1953,-468 2036.74,-448.81 2056.89,-440.3 2138,-412 2185.7,-395.36 2240.01,-373.18 2272.61,-359.51"/>
<polygon fill="midnightblue" stroke="midnightblue" points="2274.15,-362.66 2282.01,-355.55 2271.43,-356.21 2274.15,-362.66"/>
</g>
<!-- Node56 -->
<g id="node56" class="node">
<title>Node56</title>
<g id="a_node56"><a xlink:href="eventbus_8h.html" target="_top" xlink:title=" ">
<polygon fill="none" stroke="black" points="1568.5,-448.5 1568.5,-467.5 1639.5,-467.5 1639.5,-448.5 1568.5,-448.5"/>
<text text-anchor="middle" x="1604" y="-455.5" font-family="Helvetica,sans-Serif" font-size="10.00">../eventbus.h</text>
</a>
</g>
</g>
<!-- Node42&#45;&gt;Node56 -->
<g id="edge173" class="edge">
<title>Node42&#45;&gt;Node56</title>
<path fill="none" stroke="midnightblue" d="M1657.72,-504.32C1648.16,-496.26 1633.72,-484.08 1622.22,-474.37"/>
<polygon fill="midnightblue" stroke="midnightblue" points="1624.37,-471.61 1614.47,-467.83 1619.86,-476.96 1624.37,-471.61"/>
</g>
<!-- Node44&#45;&gt;Node4 -->
<g id="edge104" class="edge">
<title>Node44&#45;&gt;Node4</title>
<path fill="none" stroke="midnightblue" d="M1883.99,-448.47C1839.8,-432.26 1744.41,-398.05 1710,-392 1575.34,-368.33 608.01,-404.03 480,-356 440.39,-341.14 333,-277.31 333,-235 333,-235 333,-235 333,-121 333,-51.92 430.23,-25.06 482.55,-15.6"/>
<polygon fill="midnightblue" stroke="midnightblue" points="483.41,-19.01 492.68,-13.89 482.24,-12.11 483.41,-19.01"/>
</g>
<!-- Node44&#45;&gt;Node8 -->
<g id="edge106" class="edge">
<title>Node44&#45;&gt;Node8</title>
<path fill="none" stroke="midnightblue" d="M1890.98,-448.31C1840.79,-421.08 1686.33,-337.29 1625.75,-304.43"/>
<polygon fill="midnightblue" stroke="midnightblue" points="1627.32,-301.3 1616.86,-299.61 1623.98,-307.45 1627.32,-301.3"/>
</g>
<!-- Node44&#45;&gt;Node9 -->
<g id="edge103" class="edge">
<title>Node44&#45;&gt;Node9</title>
<path fill="none" stroke="midnightblue" d="M1943.56,-450.63C1989.23,-442.51 2069.69,-427.62 2138,-412 2172.05,-404.21 2179.89,-399.53 2214,-392 2258.31,-382.22 2385.88,-390.8 2415,-356 2420.7,-349.18 2418.21,-344.29 2415,-336 2399.81,-296.76 2192.47,-82.76 2160,-56 2145.25,-43.84 2126.89,-32.66 2112.16,-24.48"/>
<polygon fill="midnightblue" stroke="midnightblue" points="2113.53,-21.25 2103.07,-19.57 2110.2,-27.4 2113.53,-21.25"/>
</g>
<!-- Node44&#45;&gt;Node22 -->
<g id="edge105" class="edge">
<title>Node44&#45;&gt;Node22</title>
<path fill="none" stroke="midnightblue" d="M1943.97,-452.28C2001.75,-444.74 2116.91,-429.09 2214,-412 2405.95,-378.2 2467.61,-394.64 2638,-300 2744.32,-240.95 2782.18,-230.15 2854,-132 2864.2,-118.06 2870.51,-99.3 2874.08,-85.52"/>
<polygon fill="midnightblue" stroke="midnightblue" points="2877.51,-86.26 2876.38,-75.72 2870.69,-84.66 2877.51,-86.26"/>
</g>
<!-- Node44&#45;&gt;Node42 -->
<g id="edge171" class="edge">
<title>Node44&#45;&gt;Node42</title>
<path fill="none" stroke="midnightblue" d="M1874.44,-467.5C1832.8,-477.4 1760.74,-493.7 1713.66,-503.86"/>
<polygon fill="midnightblue" stroke="midnightblue" points="1712.76,-500.47 1703.72,-506 1714.23,-507.32 1712.76,-500.47"/>
</g>
<!-- Node44&#45;&gt;Node45 -->
<g id="edge107" class="edge">
<title>Node44&#45;&gt;Node45</title>
<path fill="none" stroke="midnightblue" d="M1929.34,-448.44C1952.75,-439.48 1989.74,-425.31 2016.19,-415.18"/>
<polygon fill="midnightblue" stroke="midnightblue" points="2017.68,-418.36 2025.76,-411.52 2015.17,-411.82 2017.68,-418.36"/>
</g>
<!-- Node47 -->
<g id="node47" class="node">
<title>Node47</title>
<g id="a_node47"><a xlink:href="imageview_8h.html" target="_top" xlink:title=" ">
<polygon fill="none" stroke="black" points="1871.5,-392.5 1871.5,-411.5 1942.5,-411.5 1942.5,-392.5 1871.5,-392.5"/>
<text text-anchor="middle" x="1907" y="-399.5" font-family="Helvetica,sans-Serif" font-size="10.00">imageview.h</text>
</a>
</g>
</g>
<!-- Node44&#45;&gt;Node47 -->
<g id="edge114" class="edge">
<title>Node44&#45;&gt;Node47</title>
<path fill="none" stroke="midnightblue" d="M1907,-448.08C1907,-441.01 1907,-430.86 1907,-421.99"/>
<polygon fill="midnightblue" stroke="midnightblue" points="1910.5,-421.75 1907,-411.75 1903.5,-421.75 1910.5,-421.75"/>
</g>
<!-- Node44&#45;&gt;Node52 -->
<g id="edge172" class="edge">
<title>Node44&#45;&gt;Node52</title>
<path fill="none" stroke="midnightblue" d="M1943.53,-448.89C1981.17,-440.37 2041.44,-426.24 2093,-412 2154.59,-394.99 2225.43,-372.29 2266.8,-358.7"/>
<polygon fill="midnightblue" stroke="midnightblue" points="2268.01,-361.99 2276.42,-355.54 2265.82,-355.34 2268.01,-361.99"/>
</g>
<!-- Node45&#45;&gt;Node4 -->
<g id="edge109" class="edge">
<title>Node45&#45;&gt;Node4</title>
<path fill="none" stroke="midnightblue" d="M2011.57,-397.04C1993.65,-395.23 1971.72,-393.22 1952,-392 1685.94,-375.55 1016.17,-398.41 753,-356 578.72,-327.92 485.09,-297.99 425,-132 413.5,-100.24 407.24,-84.73 425,-56 437.57,-35.66 462.43,-24.21 482.84,-17.95"/>
<polygon fill="midnightblue" stroke="midnightblue" points="484.02,-21.25 492.72,-15.21 482.15,-14.51 484.02,-21.25"/>
</g>
<!-- Node45&#45;&gt;Node8 -->
<g id="edge111" class="edge">
<title>Node45&#45;&gt;Node8</title>
<path fill="none" stroke="midnightblue" d="M2013.3,-392.46C1930.49,-372.08 1721.98,-320.77 1637.44,-299.97"/>
<polygon fill="midnightblue" stroke="midnightblue" points="1638.08,-296.52 1627.53,-297.53 1636.41,-303.32 1638.08,-296.52"/>
</g>
<!-- Node45&#45;&gt;Node9 -->
<g id="edge108" class="edge">
<title>Node45&#45;&gt;Node9</title>
<path fill="none" stroke="midnightblue" d="M2061.81,-392.48C2107.66,-363.24 2254.76,-261.57 2304,-132 2331.87,-58.67 2211.03,-28.52 2138.06,-17.17"/>
<polygon fill="midnightblue" stroke="midnightblue" points="2138.51,-13.7 2128.11,-15.69 2137.48,-20.62 2138.51,-13.7"/>
</g>
<!-- Node45&#45;&gt;Node22 -->
<g id="edge112" class="edge">
<title>Node45&#45;&gt;Node22</title>
<path fill="none" stroke="midnightblue" d="M2084.01,-398.11C2154.28,-392.2 2314.5,-377.49 2448,-356 2686.99,-317.54 2760.4,-343.64 2981,-244 3043.1,-215.95 3100.97,-165.68 3059,-112 3054.82,-106.65 2978.34,-88.98 2926.15,-77.44"/>
<polygon fill="midnightblue" stroke="midnightblue" points="2926.58,-73.95 2916.06,-75.22 2925.08,-80.78 2926.58,-73.95"/>
</g>
<!-- Node45&#45;&gt;Node42 -->
<g id="edge113" class="edge">
<title>Node45&#45;&gt;Node42</title>
<path fill="none" stroke="midnightblue" d="M2011.75,-410.8C1974.09,-419.13 1913.56,-433.15 1862,-448 1804.82,-464.46 1739.39,-487.22 1701.01,-500.98"/>
<polygon fill="midnightblue" stroke="midnightblue" points="1699.61,-497.76 1691.39,-504.44 1701.98,-504.34 1699.61,-497.76"/>
</g>
<!-- Node46 -->
<g id="node46" class="node">
<title>Node46</title>
<g id="a_node46"><a xlink:title=" ">
<polygon fill="none" stroke="#bfbfbf" points="1910,-336.5 1910,-355.5 1948,-355.5 1948,-336.5 1910,-336.5"/>
<text text-anchor="middle" x="1929" y="-343.5" font-family="Helvetica,sans-Serif" font-size="10.00">array</text>
</a>
</g>
</g>
<!-- Node45&#45;&gt;Node46 -->
<g id="edge110" class="edge">
<title>Node45&#45;&gt;Node46</title>
<path fill="none" stroke="midnightblue" d="M2029.14,-392.44C2009.73,-383.64 1979.27,-369.81 1957.04,-359.72"/>
<polygon fill="midnightblue" stroke="midnightblue" points="1958.32,-356.46 1947.77,-355.52 1955.43,-362.84 1958.32,-356.46"/>
</g>
<!-- Node47&#45;&gt;Node9 -->
<g id="edge115" class="edge">
<title>Node47&#45;&gt;Node9</title>
<path fill="none" stroke="midnightblue" d="M1904.43,-392.45C1901.05,-379.89 1896.09,-355.8 1901,-336 1905.24,-318.92 2039.25,-70.65 2049,-56 2055.65,-46 2064.1,-35.6 2071.24,-27.31"/>
<polygon fill="midnightblue" stroke="midnightblue" points="2074.09,-29.37 2078.08,-19.55 2068.84,-24.74 2074.09,-29.37"/>
</g>
<!-- Node47&#45;&gt;Node15 -->
<g id="edge170" class="edge">
<title>Node47&#45;&gt;Node15</title>
<path fill="none" stroke="midnightblue" d="M1871.25,-394.16C1755.33,-371.65 1391.28,-298.22 1285,-244 1244.89,-223.54 1197.99,-208.34 1218,-168 1248.01,-107.48 1299.18,-130.57 1339,-76 1349.13,-62.11 1355.14,-43.35 1358.45,-29.55"/>
<polygon fill="midnightblue" stroke="midnightblue" points="1361.88,-30.25 1360.56,-19.74 1355.04,-28.78 1361.88,-30.25"/>
</g>
<!-- Node48 -->
<g id="node48" class="node">
<title>Node48</title>
<g id="a_node48"><a xlink:href="image_8h.html" target="_top" xlink:title=" ">
<polygon fill="none" stroke="black" points="2356,-336.5 2356,-355.5 2406,-355.5 2406,-336.5 2356,-336.5"/>
<text text-anchor="middle" x="2381" y="-343.5" font-family="Helvetica,sans-Serif" font-size="10.00">image.h</text>
</a>
</g>
</g>
<!-- Node47&#45;&gt;Node48 -->
<g id="edge116" class="edge">
<title>Node47&#45;&gt;Node48</title>
<path fill="none" stroke="midnightblue" d="M1942.79,-394.35C1948.85,-393.51 1955.08,-392.71 1961,-392 2128.14,-372.09 2172.31,-385.63 2338,-356 2340.61,-355.53 2343.32,-354.96 2346.06,-354.34"/>
<polygon fill="midnightblue" stroke="midnightblue" points="2347.1,-357.69 2355.99,-351.94 2345.45,-350.89 2347.1,-357.69"/>
</g>
<!-- Node48&#45;&gt;Node4 -->
<g id="edge169" class="edge">
<title>Node48&#45;&gt;Node4</title>
<path fill="none" stroke="midnightblue" d="M2355.82,-338.03C2352.86,-337.3 2349.87,-336.61 2347,-336 2191.57,-303.19 2151.73,-298.85 1994,-280 1796.54,-256.4 1737.42,-304.57 1548,-244 1520.76,-235.29 1353.73,-122.19 1327,-112 1247.92,-81.84 1219.87,-104.01 1140,-76 1121.99,-69.68 1120.34,-61.28 1102,-56 996.48,-25.6 654.56,-14.53 547.42,-11.76"/>
<polygon fill="midnightblue" stroke="midnightblue" points="547.31,-8.25 537.23,-11.5 547.14,-15.25 547.31,-8.25"/>
</g>
<!-- Node48&#45;&gt;Node8 -->
<g id="edge119" class="edge">
<title>Node48&#45;&gt;Node8</title>
<path fill="none" stroke="midnightblue" d="M2355.87,-337.75C2352.9,-337.07 2349.89,-336.47 2347,-336 2077.36,-292.62 1746.79,-290.15 1637.78,-290.65"/>
<polygon fill="midnightblue" stroke="midnightblue" points="1637.62,-287.15 1627.64,-290.71 1637.66,-294.15 1637.62,-287.15"/>
</g>
<!-- Node48&#45;&gt;Node10 -->
<g id="edge118" class="edge">
<title>Node48&#45;&gt;Node10</title>
<path fill="none" stroke="midnightblue" d="M2371.89,-336.21C2342.07,-307.36 2244.81,-212.8 2167,-132 2151.27,-115.67 2133.72,-96.55 2121.69,-83.3"/>
<polygon fill="midnightblue" stroke="midnightblue" points="2123.96,-80.59 2114.65,-75.52 2118.77,-85.28 2123.96,-80.59"/>
</g>
<!-- Node48&#45;&gt;Node19 -->
<g id="edge117" class="edge">
<title>Node48&#45;&gt;Node19</title>
<path fill="none" stroke="midnightblue" d="M2406.13,-338.14C2434.95,-330.04 2483.46,-315.66 2524,-300 2654.59,-249.55 2679.07,-217.57 2810,-168 2845.41,-154.59 2886.68,-142.46 2916.96,-134.18"/>
<polygon fill="midnightblue" stroke="midnightblue" points="2918.04,-137.51 2926.78,-131.52 2916.22,-130.75 2918.04,-137.51"/>
</g>
<!-- Node48&#45;&gt;Node22 -->
<g id="edge120" class="edge">
<title>Node48&#45;&gt;Node22</title>
<path fill="none" stroke="midnightblue" d="M2393.21,-336.49C2432.73,-309.21 2561.38,-222.53 2677,-168 2720.1,-147.67 2735.29,-153.13 2778,-132 2807.61,-117.35 2839.16,-95.71 2858.73,-81.49"/>
<polygon fill="midnightblue" stroke="midnightblue" points="2860.85,-84.27 2866.82,-75.52 2856.7,-78.64 2860.85,-84.27"/>
</g>
<!-- Node48&#45;&gt;Node25 -->
<g id="edge121" class="edge">
<title>Node48&#45;&gt;Node25</title>
<path fill="none" stroke="midnightblue" d="M2384.6,-336.08C2395.19,-309.83 2426.39,-232.55 2440.69,-197.12"/>
<polygon fill="midnightblue" stroke="midnightblue" points="2444.04,-198.15 2444.54,-187.57 2437.55,-195.53 2444.04,-198.15"/>
</g>
<!-- Node48&#45;&gt;Node47 -->
<g id="edge122" class="edge">
<title>Node48&#45;&gt;Node47</title>
<path fill="none" stroke="midnightblue" d="M2358.55,-355.52C2357.69,-355.69 2356.84,-355.85 2356,-356 2190.31,-385.63 2146.14,-372.09 1979,-392 1970.56,-393 1961.51,-394.22 1952.73,-395.42"/>
<polygon fill="midnightblue" stroke="midnightblue" points="1952.02,-391.99 1942.6,-396.82 1952.98,-398.92 1952.02,-391.99"/>
</g>
<!-- Node49 -->
<g id="node49" class="node">
<title>Node49</title>
<g id="a_node49"><a xlink:href="commandpool_8h.html" target="_top" xlink:title=" ">
<polygon fill="none" stroke="black" points="2852.5,-224.5 2852.5,-243.5 2937.5,-243.5 2937.5,-224.5 2852.5,-224.5"/>
<text text-anchor="middle" x="2895" y="-231.5" font-family="Helvetica,sans-Serif" font-size="10.00">commandpool.h</text>
</a>
</g>
</g>
<!-- Node48&#45;&gt;Node49 -->
<g id="edge123" class="edge">
<title>Node48&#45;&gt;Node49</title>
<path fill="none" stroke="midnightblue" d="M2406.14,-339.62C2486.39,-322.45 2737.46,-268.71 2845.14,-245.67"/>
<polygon fill="midnightblue" stroke="midnightblue" points="2846.06,-249.05 2855.11,-243.54 2844.59,-242.21 2846.06,-249.05"/>
</g>
<!-- Node50 -->
<g id="node50" class="node">
<title>Node50</title>
<g id="a_node50"><a xlink:href="buffer_8h.html" target="_top" xlink:title=" ">
<polygon fill="none" stroke="black" points="2866,-672.5 2866,-691.5 2914,-691.5 2914,-672.5 2866,-672.5"/>
<text text-anchor="middle" x="2890" y="-679.5" font-family="Helvetica,sans-Serif" font-size="10.00">buffer.h</text>
</a>
</g>
</g>
<!-- Node48&#45;&gt;Node50 -->
<g id="edge127" class="edge">
<title>Node48&#45;&gt;Node50</title>
<path fill="none" stroke="midnightblue" d="M2406.24,-349.62C2508.95,-360.98 2890,-410.06 2890,-513 2890,-571 2890,-571 2890,-571 2890,-603.05 2890,-640.36 2890,-662.25"/>
<polygon fill="midnightblue" stroke="midnightblue" points="2886.5,-662.44 2890,-672.44 2893.5,-662.44 2886.5,-662.44"/>
</g>
<!-- Node49&#45;&gt;Node19 -->
<g id="edge124" class="edge">
<title>Node49&#45;&gt;Node19</title>
<path fill="none" stroke="midnightblue" d="M2896.64,-224.5C2899.39,-211.58 2905.77,-186.55 2917,-168 2923.62,-157.07 2933.29,-146.64 2941.79,-138.58"/>
<polygon fill="midnightblue" stroke="midnightblue" points="2944.39,-140.95 2949.44,-131.63 2939.68,-135.76 2944.39,-140.95"/>
</g>
<!-- Node49&#45;&gt;Node22 -->
<g id="edge125" class="edge">
<title>Node49&#45;&gt;Node22</title>
<path fill="none" stroke="midnightblue" d="M2917.96,-224.41C2963.67,-206.01 3058.73,-160.5 3023,-112 3001.06,-82.22 2959.61,-71.57 2926.63,-68.02"/>
<polygon fill="midnightblue" stroke="midnightblue" points="2926.52,-64.5 2916.26,-67.1 2925.91,-71.47 2926.52,-64.5"/>
</g>
<!-- Node49&#45;&gt;Node25 -->
<g id="edge126" class="edge">
<title>Node49&#45;&gt;Node25</title>
<path fill="none" stroke="midnightblue" d="M2852.14,-227.82C2765.17,-217.32 2569.23,-193.64 2486.26,-183.62"/>
<polygon fill="midnightblue" stroke="midnightblue" points="2486.6,-180.14 2476.26,-182.41 2485.76,-187.09 2486.6,-180.14"/>
</g>
<!-- Node50&#45;&gt;Node4 -->
<g id="edge168" class="edge">
<title>Node50&#45;&gt;Node4</title>
<path fill="none" stroke="midnightblue" d="M2865.95,-680.72C2704.94,-678.77 1781.68,-666.42 1502,-636 1231.88,-606.62 1167.86,-575.08 901,-524 774.21,-499.73 742.13,-495.47 616,-468 401.7,-421.32 181,-454.32 181,-235 181,-235 181,-235 181,-121 181,-82.87 203.72,-74.62 237,-56 278.65,-32.7 418.42,-18.77 482.46,-13.47"/>
<polygon fill="midnightblue" stroke="midnightblue" points="483.09,-16.93 492.78,-12.63 482.53,-9.95 483.09,-16.93"/>
</g>
<!-- Node50&#45;&gt;Node8 -->
<g id="edge130" class="edge">
<title>Node50&#45;&gt;Node8</title>
<path fill="none" stroke="midnightblue" d="M2865.84,-681.04C2692.37,-681.07 1634.92,-677.26 1332,-580 1287.14,-565.6 1271.28,-560.91 1242,-524 1204.67,-476.94 1179.98,-442.18 1213,-392 1252.02,-332.7 1475.15,-303.78 1564.25,-294.47"/>
<polygon fill="midnightblue" stroke="midnightblue" points="1564.84,-297.93 1574.44,-293.43 1564.13,-290.97 1564.84,-297.93"/>
</g>
<!-- Node50&#45;&gt;Node10 -->
<g id="edge129" class="edge">
<title>Node50&#45;&gt;Node10</title>
<path fill="none" stroke="midnightblue" d="M2893.6,-672.22C2897.06,-663.28 2902.03,-648.94 2904,-636 2912.81,-578 2922.23,-559.76 2904,-504 2888.13,-455.47 2770.63,-345.2 2757,-336 2551.57,-197.34 2464.55,-232.51 2238,-132 2200.59,-115.4 2158.35,-93.93 2132.2,-80.31"/>
<polygon fill="midnightblue" stroke="midnightblue" points="2133.81,-77.2 2123.33,-75.67 2130.56,-83.41 2133.81,-77.2"/>
</g>
<!-- Node50&#45;&gt;Node19 -->
<g id="edge128" class="edge">
<title>Node50&#45;&gt;Node19</title>
<path fill="none" stroke="midnightblue" d="M2914.28,-679.89C3003.49,-675.15 3308,-652.98 3308,-571 3308,-571 3308,-571 3308,-401 3308,-245.6 3093.54,-162.86 3001.33,-134.47"/>
<polygon fill="midnightblue" stroke="midnightblue" points="3002.08,-131.04 2991.5,-131.51 3000.06,-137.75 3002.08,-131.04"/>
</g>
<!-- Node50&#45;&gt;Node22 -->
<g id="edge131" class="edge">
<title>Node50&#45;&gt;Node22</title>
<path fill="none" stroke="midnightblue" d="M2914.02,-679.99C2985.85,-676.67 3197.85,-664.64 3260,-636 3293.42,-620.6 3303.63,-612.45 3321,-580 3420.27,-394.59 3533.07,-267.08 3391,-112 3359.97,-78.13 3048.16,-69.64 2926.37,-67.61"/>
<polygon fill="midnightblue" stroke="midnightblue" points="2926.27,-64.11 2916.22,-67.45 2926.16,-71.11 2926.27,-64.11"/>
</g>
<!-- Node50&#45;&gt;Node25 -->
<g id="edge132" class="edge">
<title>Node50&#45;&gt;Node25</title>
<path fill="none" stroke="midnightblue" d="M2914.21,-680.36C2944.27,-678.11 2994.44,-669.25 3018,-636 3069.95,-562.67 2952.78,-404.01 2942,-392 2815.25,-250.79 2578.54,-199.56 2486.24,-184.43"/>
<polygon fill="midnightblue" stroke="midnightblue" points="2486.65,-180.95 2476.22,-182.84 2485.55,-187.86 2486.65,-180.95"/>
</g>
<!-- Node50&#45;&gt;Node51 -->
<g id="edge133" class="edge">
<title>Node50&#45;&gt;Node51</title>
<path fill="none" stroke="midnightblue" d="M2865.88,-678.4C2789.92,-670.19 2554.19,-644.73 2445.69,-633.01"/>
<polygon fill="midnightblue" stroke="midnightblue" points="2445.92,-629.52 2435.6,-631.92 2445.17,-636.48 2445.92,-629.52"/>
</g>
<!-- Node51&#45;&gt;Node7 -->
<g id="edge144" class="edge">
<title>Node51&#45;&gt;Node7</title>
<path fill="none" stroke="midnightblue" d="M2344.14,-622.73C2217.02,-616.41 1849.41,-597.87 1544,-580 1521.91,-578.71 1497.88,-577.21 1476.02,-575.81"/>
<polygon fill="midnightblue" stroke="midnightblue" points="1476.02,-572.3 1465.81,-575.15 1475.57,-579.29 1476.02,-572.3"/>
</g>
<!-- Node51&#45;&gt;Node19 -->
<g id="edge134" class="edge">
<title>Node51&#45;&gt;Node19</title>
<path fill="none" stroke="midnightblue" d="M2435.53,-622.82C2526.9,-617.96 2729.4,-604.71 2794,-580 2857.24,-555.81 3042,-470.71 3042,-403 3042,-403 3042,-403 3042,-345 3042,-264.29 2993.71,-176.72 2971.25,-140.35"/>
<polygon fill="midnightblue" stroke="midnightblue" points="2974.19,-138.46 2965.9,-131.87 2968.27,-142.19 2974.19,-138.46"/>
</g>
<!-- Node51&#45;&gt;Node22 -->
<g id="edge135" class="edge">
<title>Node51&#45;&gt;Node22</title>
<path fill="none" stroke="midnightblue" d="M2435.77,-625.65C2517.02,-625.65 2691.06,-620.38 2831,-580 3035.73,-520.93 3071.31,-431.26 3173,-244 3201,-192.43 3221.59,-148.94 3176,-112 3138.53,-81.64 3000.52,-71.67 2926.18,-68.47"/>
<polygon fill="midnightblue" stroke="midnightblue" points="2926.27,-64.97 2916.13,-68.06 2925.98,-71.96 2926.27,-64.97"/>
</g>
<!-- Node51&#45;&gt;Node32 -->
<g id="edge145" class="edge">
<title>Node51&#45;&gt;Node32</title>
<path fill="none" stroke="midnightblue" d="M2386.51,-616.08C2376.23,-589.83 2345.97,-512.55 2332.09,-477.12"/>
<polygon fill="midnightblue" stroke="midnightblue" points="2335.26,-475.6 2328.35,-467.57 2328.74,-478.16 2335.26,-475.6"/>
</g>
<!-- Node51&#45;&gt;Node33 -->
<g id="edge146" class="edge">
<title>Node51&#45;&gt;Node33</title>
<path fill="none" stroke="midnightblue" d="M2391.25,-616.3C2395.96,-583.63 2412.65,-467.87 2419.27,-421.96"/>
<polygon fill="midnightblue" stroke="midnightblue" points="2422.76,-422.28 2420.72,-411.88 2415.83,-421.28 2422.76,-422.28"/>
</g>
<!-- Node51&#45;&gt;Node44 -->
<g id="edge143" class="edge">
<title>Node51&#45;&gt;Node44</title>
<path fill="none" stroke="midnightblue" d="M2344.44,-620.4C2295.06,-614.53 2214.42,-602.35 2148,-580 2063.2,-551.47 1970.7,-498.1 1929.26,-472.88"/>
<polygon fill="midnightblue" stroke="midnightblue" points="1930.88,-469.77 1920.53,-467.52 1927.22,-475.74 1930.88,-469.77"/>
</g>
<!-- Node51&#45;&gt;Node45 -->
<g id="edge142" class="edge">
<title>Node51&#45;&gt;Node45</title>
<path fill="none" stroke="midnightblue" d="M2376.59,-616.3C2324.45,-582.45 2134.84,-459.37 2069.95,-417.25"/>
<polygon fill="midnightblue" stroke="midnightblue" points="2071.61,-414.15 2061.31,-411.64 2067.8,-420.02 2071.61,-414.15"/>
</g>
<!-- Node51&#45;&gt;Node49 -->
<g id="edge136" class="edge">
<title>Node51&#45;&gt;Node49</title>
<path fill="none" stroke="midnightblue" d="M2435.82,-622.96C2522.56,-618.54 2707.26,-606.27 2765,-580 2890.6,-522.85 2896.85,-317.29 2895.69,-253.81"/>
<polygon fill="midnightblue" stroke="midnightblue" points="2899.19,-253.58 2895.42,-243.68 2892.19,-253.77 2899.19,-253.58"/>
</g>
<!-- Node51&#45;&gt;Node52 -->
<g id="edge137" class="edge">
<title>Node51&#45;&gt;Node52</title>
<path fill="none" stroke="midnightblue" d="M2435.78,-622.81C2545.42,-616.31 2814,-592.47 2814,-515 2814,-515 2814,-515 2814,-457 2814,-451.07 2473.93,-381.75 2348.1,-356.29"/>
<polygon fill="midnightblue" stroke="midnightblue" points="2348.5,-352.81 2338,-354.25 2347.11,-359.67 2348.5,-352.81"/>
</g>
<!-- Node53 -->
<g id="node53" class="node">
<title>Node53</title>
<g id="a_node53"><a xlink:href="descriptorset_8h.html" target="_top" xlink:title=" ">
<polygon fill="none" stroke="black" points="1428,-448.5 1428,-467.5 1508,-467.5 1508,-448.5 1428,-448.5"/>
<text text-anchor="middle" x="1468" y="-455.5" font-family="Helvetica,sans-Serif" font-size="10.00">descriptorset.h</text>
</a>
</g>
</g>
<!-- Node51&#45;&gt;Node53 -->
<g id="edge147" class="edge">
<title>Node51&#45;&gt;Node53</title>
<path fill="none" stroke="midnightblue" d="M2344.11,-623.8C2223.62,-619.62 1889.27,-601.36 1624,-524 1576.98,-510.29 1524.95,-486.82 1494.44,-472.15"/>
<polygon fill="midnightblue" stroke="midnightblue" points="1495.84,-468.94 1485.32,-467.72 1492.78,-475.24 1495.84,-468.94"/>
</g>
<!-- Node52&#45;&gt;Node8 -->
<g id="edge141" class="edge">
<title>Node52&#45;&gt;Node8</title>
<path fill="none" stroke="midnightblue" d="M2265.63,-341.04C2249.78,-339.38 2230.98,-337.49 2214,-336 1995.73,-316.83 1733.23,-299.46 1637.88,-293.34"/>
<polygon fill="midnightblue" stroke="midnightblue" points="1637.81,-289.83 1627.61,-292.68 1637.37,-296.81 1637.81,-289.83"/>
</g>
<!-- Node52&#45;&gt;Node9 -->
<g id="edge138" class="edge">
<title>Node52&#45;&gt;Node9</title>
<path fill="none" stroke="midnightblue" d="M2286.76,-336.45C2272.58,-328.12 2251.26,-314.61 2235,-300 2184.43,-254.56 2072.39,-125.99 2055,-76 2049,-58.76 2059.93,-40.04 2070.43,-27.14"/>
<polygon fill="midnightblue" stroke="midnightblue" points="2073.11,-29.39 2077.08,-19.57 2067.85,-24.77 2073.11,-29.39"/>
</g>
<!-- Node52&#45;&gt;Node10 -->
<g id="edge139" class="edge">
<title>Node52&#45;&gt;Node10</title>
<path fill="none" stroke="midnightblue" d="M2292.75,-336.12C2264.42,-308.47 2177.8,-220.43 2129,-132 2120.91,-117.33 2115.07,-99.16 2111.45,-85.77"/>
<polygon fill="midnightblue" stroke="midnightblue" points="2114.77,-84.66 2108.93,-75.82 2107.99,-86.37 2114.77,-84.66"/>
</g>
<!-- Node52&#45;&gt;Node22 -->
<g id="edge140" class="edge">
<title>Node52&#45;&gt;Node22</title>
<path fill="none" stroke="midnightblue" d="M2316.14,-336.36C2361.25,-309.04 2506.25,-223.1 2634,-168 2680.07,-148.13 2694.98,-152 2741,-132 2758.14,-124.55 2761.24,-120.29 2778,-112 2801.47,-100.4 2828.57,-88.28 2848.64,-79.54"/>
<polygon fill="midnightblue" stroke="midnightblue" points="2850.09,-82.73 2857.88,-75.54 2847.31,-76.3 2850.09,-82.73"/>
</g>
<!-- Node53&#45;&gt;Node4 -->
<g id="edge150" class="edge">
<title>Node53&#45;&gt;Node4</title>
<path fill="none" stroke="midnightblue" d="M1427.81,-454.88C1262.31,-445.86 633.2,-408.74 442,-356 360.43,-333.5 295,-319.62 295,-235 295,-235 295,-235 295,-121 295,-90.2 295.88,-76.34 319,-56 343.06,-34.84 433.36,-20.89 482.56,-14.69"/>
<polygon fill="midnightblue" stroke="midnightblue" points="483.18,-18.14 492.68,-13.45 482.33,-11.19 483.18,-18.14"/>
</g>
<!-- Node53&#45;&gt;Node8 -->
<g id="edge152" class="edge">
<title>Node53&#45;&gt;Node8</title>
<path fill="none" stroke="midnightblue" d="M1466.58,-448.4C1464.87,-435.36 1463.31,-410.18 1473,-392 1495.11,-350.53 1542.38,-320.37 1572.88,-304.29"/>
<polygon fill="midnightblue" stroke="midnightblue" points="1574.82,-307.23 1582.13,-299.57 1571.64,-300.99 1574.82,-307.23"/>
</g>
<!-- Node53&#45;&gt;Node9 -->
<g id="edge148" class="edge">
<title>Node53&#45;&gt;Node9</title>
<path fill="none" stroke="midnightblue" d="M1475.61,-448.24C1487.42,-434.99 1511.28,-409.53 1535,-392 1644.73,-310.88 1708.73,-341.69 1804,-244 1869.64,-176.69 1827.12,-114.15 1901,-56 1938.87,-26.19 1993.62,-15.74 2033.73,-12.27"/>
<polygon fill="midnightblue" stroke="midnightblue" points="2034.14,-15.74 2043.85,-11.51 2033.62,-8.76 2034.14,-15.74"/>
</g>
<!-- Node53&#45;&gt;Node11 -->
<g id="edge149" class="edge">
<title>Node53&#45;&gt;Node11</title>
<path fill="none" stroke="midnightblue" d="M1427.71,-453.44C1318.29,-443.3 1006.84,-411.41 753,-356 667.82,-337.41 617.11,-369.9 565,-300 504.83,-219.29 643.8,-117.97 700.9,-81.17"/>
<polygon fill="midnightblue" stroke="midnightblue" points="703.06,-83.95 709.63,-75.64 699.31,-78.04 703.06,-83.95"/>
</g>
<!-- Node53&#45;&gt;Node22 -->
<g id="edge151" class="edge">
<title>Node53&#45;&gt;Node22</title>
<path fill="none" stroke="midnightblue" d="M1508.3,-453.01C1524.38,-451.43 1543.06,-449.61 1560,-448 1734.17,-431.48 1781.76,-452.34 1952,-412 1975.69,-406.39 1979.3,-397.56 2003,-392 2181.95,-350.02 2240.29,-413.12 2415,-356 2431.3,-350.67 2433.2,-344.66 2448,-336 2607.04,-242.9 2660.63,-241.31 2809,-132 2829.16,-117.15 2849.73,-96.99 2863.1,-83.08"/>
<polygon fill="midnightblue" stroke="midnightblue" points="2865.75,-85.37 2870.08,-75.7 2860.67,-80.56 2865.75,-85.37"/>
</g>
<!-- Node53&#45;&gt;Node35 -->
<g id="edge153" class="edge">
<title>Node53&#45;&gt;Node35</title>
<path fill="none" stroke="midnightblue" d="M1479.21,-448.42C1498.83,-433.93 1541.17,-404.94 1582,-392 1741.61,-341.41 1790.34,-372.06 1957,-356 1968.86,-354.86 1981.57,-353.63 1993.66,-352.46"/>
<polygon fill="midnightblue" stroke="midnightblue" points="1994.03,-355.94 2003.64,-351.49 1993.35,-348.97 1994.03,-355.94"/>
</g>
<!-- Node53&#45;&gt;Node47 -->
<g id="edge160" class="edge">
<title>Node53&#45;&gt;Node47</title>
<path fill="none" stroke="midnightblue" d="M1508.12,-452.06C1589.89,-442.01 1775.33,-419.2 1861.46,-408.6"/>
<polygon fill="midnightblue" stroke="midnightblue" points="1861.96,-412.07 1871.46,-407.37 1861.11,-405.12 1861.96,-412.07"/>
</g>
<!-- Node54 -->
<g id="node54" class="node">
<title>Node54</title>
<g id="a_node54"><a xlink:href="descriptorpool_8h.html" target="_top" xlink:title=" ">
<polygon fill="none" stroke="black" points="1037.5,-336.5 1037.5,-355.5 1122.5,-355.5 1122.5,-336.5 1037.5,-336.5"/>
<text text-anchor="middle" x="1080" y="-343.5" font-family="Helvetica,sans-Serif" font-size="10.00">descriptorpool.h</text>
</a>
</g>
</g>
<!-- Node53&#45;&gt;Node54 -->
<g id="edge154" class="edge">
<title>Node53&#45;&gt;Node54</title>
<path fill="none" stroke="midnightblue" d="M1437.88,-448.46C1368.61,-428.82 1197.99,-380.45 1120.03,-358.35"/>
<polygon fill="midnightblue" stroke="midnightblue" points="1120.68,-354.89 1110.1,-355.53 1118.77,-361.63 1120.68,-354.89"/>
</g>
<!-- Node53&#45;&gt;Node55 -->
<g id="edge161" class="edge">
<title>Node53&#45;&gt;Node55</title>
<path fill="none" stroke="midnightblue" d="M1427.89,-462.84C1368.73,-470.95 1265,-495.65 1265,-569 1265,-627 1265,-627 1265,-627 1265,-672.19 1311.95,-705.95 1343.36,-723.48"/>
<polygon fill="midnightblue" stroke="midnightblue" points="1342.07,-726.76 1352.54,-728.39 1345.37,-720.59 1342.07,-726.76"/>
</g>
<!-- Node54&#45;&gt;Node4 -->
<g id="edge157" class="edge">
<title>Node54&#45;&gt;Node4</title>
<path fill="none" stroke="midnightblue" d="M1037.19,-343.13C932.13,-338.2 667.83,-323.58 636,-300 589.39,-265.47 536.46,-87.88 520.09,-29.57"/>
<polygon fill="midnightblue" stroke="midnightblue" points="523.36,-28.28 517.32,-19.58 516.62,-30.15 523.36,-28.28"/>
</g>
<!-- Node54&#45;&gt;Node8 -->
<g id="edge159" class="edge">
<title>Node54&#45;&gt;Node8</title>
<path fill="none" stroke="midnightblue" d="M1122.59,-337.93C1127.45,-337.23 1132.33,-336.57 1137,-336 1324.31,-313.27 1373.45,-328.29 1560,-300 1561.3,-299.8 1562.61,-299.59 1563.94,-299.36"/>
<polygon fill="midnightblue" stroke="midnightblue" points="1565.02,-302.72 1574.19,-297.41 1563.71,-295.84 1565.02,-302.72"/>
</g>
<!-- Node54&#45;&gt;Node9 -->
<g id="edge155" class="edge">
<title>Node54&#45;&gt;Node9</title>
<path fill="none" stroke="midnightblue" d="M1122.6,-338.23C1262.64,-315.96 1700.09,-246.25 1703,-244 1753.67,-204.77 1720.5,-161.66 1761,-112 1788.2,-78.65 1800.34,-72.71 1840,-56 1903.45,-29.27 1982.68,-18.39 2033.8,-13.98"/>
<polygon fill="midnightblue" stroke="midnightblue" points="2034.27,-17.45 2043.95,-13.15 2033.7,-10.47 2034.27,-17.45"/>
</g>
<!-- Node54&#45;&gt;Node11 -->
<g id="edge156" class="edge">
<title>Node54&#45;&gt;Node11</title>
<path fill="none" stroke="midnightblue" d="M1067.77,-336.49C1049.74,-323.97 1014.94,-299.94 985,-280 922.41,-238.32 901.27,-235.54 843,-188 801.54,-154.18 759.02,-107.46 737.81,-83.15"/>
<polygon fill="midnightblue" stroke="midnightblue" points="740.42,-80.82 731.23,-75.55 735.13,-85.4 740.42,-80.82"/>
</g>
<!-- Node54&#45;&gt;Node22 -->
<g id="edge158" class="edge">
<title>Node54&#45;&gt;Node22</title>
<path fill="none" stroke="midnightblue" d="M1122.81,-343.22C1216.43,-338.95 1446.25,-326.49 1637,-300 1764,-282.36 1795.08,-272.88 1920,-244 2143.09,-192.42 2192.65,-152.61 2418,-112 2566.77,-85.19 2745.7,-73.47 2829.83,-69.15"/>
<polygon fill="midnightblue" stroke="midnightblue" points="2830.04,-72.64 2839.85,-68.65 2829.69,-65.65 2830.04,-72.64"/>
</g>
<!-- Node55&#45;&gt;Node8 -->
<g id="edge165" class="edge">
<title>Node55&#45;&gt;Node8</title>
<path fill="none" stroke="midnightblue" d="M1330.77,-730.72C1249.84,-716.94 1075,-680.93 1075,-627 1075,-627 1075,-627 1075,-457 1075,-357.63 1169.73,-370.27 1263,-336 1317.79,-315.87 1488.77,-300.05 1564.39,-293.84"/>
<polygon fill="midnightblue" stroke="midnightblue" points="1564.73,-297.33 1574.41,-293.03 1564.16,-290.35 1564.73,-297.33"/>
</g>
<!-- Node55&#45;&gt;Node9 -->
<g id="edge162" class="edge">
<title>Node55&#45;&gt;Node9</title>
<path fill="none" stroke="midnightblue" d="M1411.14,-737.12C1705.88,-737.73 3524,-737.06 3524,-627 3524,-627 3524,-627 3524,-121 3524,-60.74 3463.13,-71.9 3405,-56 3281.48,-22.21 2367.77,-13.12 2138.21,-11.36"/>
<polygon fill="midnightblue" stroke="midnightblue" points="2138.14,-7.86 2128.12,-11.28 2138.09,-14.86 2138.14,-7.86"/>
</g>
<!-- Node55&#45;&gt;Node10 -->
<g id="edge163" class="edge">
<title>Node55&#45;&gt;Node10</title>
<path fill="none" stroke="midnightblue" d="M1411.22,-731.19C1567.26,-707.53 2124,-612.38 2124,-459 2124,-459 2124,-459 2124,-401 2124,-280.61 2112.85,-136.13 2108.61,-85.56"/>
<polygon fill="midnightblue" stroke="midnightblue" points="2112.09,-85.17 2107.75,-75.51 2105.11,-85.77 2112.09,-85.17"/>
</g>
<!-- Node55&#45;&gt;Node25 -->
<g id="edge167" class="edge">
<title>Node55&#45;&gt;Node25</title>
<path fill="none" stroke="midnightblue" d="M1411.21,-736.97C1694.92,-736.53 3384,-729.59 3384,-627 3384,-627 3384,-627 3384,-569 3384,-226.14 3022.03,-323.76 2694,-224 2622.21,-202.17 2535.24,-189.3 2486.3,-183.25"/>
<polygon fill="midnightblue" stroke="midnightblue" points="2486.51,-179.75 2476.16,-182.03 2485.67,-186.7 2486.51,-179.75"/>
</g>
<!-- Node55&#45;&gt;Node39 -->
<g id="edge164" class="edge">
<title>Node55&#45;&gt;Node39</title>
<path fill="none" stroke="midnightblue" d="M1330.87,-735.31C1155.77,-727.63 457.89,-693.92 247,-636 157.22,-611.35 76,-608.1 76,-515 76,-515 76,-515 76,-401 76,-368.49 84.16,-331.35 89.78,-309.61"/>
<polygon fill="midnightblue" stroke="midnightblue" points="93.22,-310.32 92.44,-299.75 86.46,-308.5 93.22,-310.32"/>
</g>
<!-- Node55&#45;&gt;Node50 -->
<g id="edge166" class="edge">
<title>Node55&#45;&gt;Node50</title>
<path fill="none" stroke="midnightblue" d="M1411.24,-735.57C1628.01,-727.86 2654.41,-691.38 2855.7,-684.22"/>
<polygon fill="midnightblue" stroke="midnightblue" points="2856.09,-687.71 2865.96,-683.85 2855.84,-680.71 2856.09,-687.71"/>
</g>
<!-- Node56&#45;&gt;Node8 -->
<g id="edge175" class="edge">
<title>Node56&#45;&gt;Node8</title>
<path fill="none" stroke="midnightblue" d="M1598.36,-448.48C1592.95,-439.74 1585.14,-425.56 1582,-412 1573.65,-375.89 1585.48,-332.86 1593.88,-309.07"/>
<polygon fill="midnightblue" stroke="midnightblue" points="1597.2,-310.18 1597.41,-299.59 1590.64,-307.74 1597.2,-310.18"/>
</g>
<!-- Node56&#45;&gt;Node43 -->
<g id="edge174" class="edge">
<title>Node56&#45;&gt;Node43</title>
<path fill="none" stroke="midnightblue" d="M1610.94,-448.08C1616.93,-440.38 1625.75,-429.03 1633.05,-419.65"/>
<polygon fill="midnightblue" stroke="midnightblue" points="1635.82,-421.79 1639.19,-411.75 1630.29,-417.5 1635.82,-421.79"/>
</g>
<!-- Node57&#45;&gt;Node2 -->
<g id="edge187" class="edge">
<title>Node57&#45;&gt;Node2</title>
<path fill="none" stroke="midnightblue" d="M369.66,-523.76C368.07,-559.52 359.81,-697.58 324,-804 320.82,-813.46 315.92,-823.4 311.46,-831.52"/>
<polygon fill="midnightblue" stroke="midnightblue" points="308.33,-829.96 306.39,-840.37 314.4,-833.44 308.33,-829.96"/>
</g>
<!-- Node57&#45;&gt;Node4 -->
<g id="edge185" class="edge">
<title>Node57&#45;&gt;Node4</title>
<path fill="none" stroke="midnightblue" d="M354.75,-504.41C303.86,-474.48 143,-369.28 143,-235 143,-235 143,-235 143,-121 143,-90.2 142.92,-75.19 167,-56 215.35,-17.47 405.76,-11.75 482.59,-11.03"/>
<polygon fill="midnightblue" stroke="midnightblue" points="482.68,-14.53 492.66,-10.96 482.63,-7.53 482.68,-14.53"/>
</g>
<!-- Node57&#45;&gt;Node5 -->
<g id="edge184" class="edge">
<title>Node57&#45;&gt;Node5</title>
<path fill="none" stroke="midnightblue" d="M345.78,-504.56C319.89,-495.54 278.61,-481.16 249.36,-470.97"/>
<polygon fill="midnightblue" stroke="midnightblue" points="250.16,-467.54 239.56,-467.56 247.85,-474.15 250.16,-467.54"/>
</g>
<!-- Node57&#45;&gt;Node12 -->
<g id="edge186" class="edge">
<title>Node57&#45;&gt;Node12</title>
<path fill="none" stroke="midnightblue" d="M376.32,-504.45C404.72,-466.56 524.89,-311.75 656,-224 775.05,-144.32 940.91,-93.54 1008.51,-74.96"/>
<polygon fill="midnightblue" stroke="midnightblue" points="1009.76,-78.25 1018.49,-72.26 1007.93,-71.49 1009.76,-78.25"/>
</g>
<!-- Node57&#45;&gt;Node17 -->
<g id="edge183" class="edge">
<title>Node57&#45;&gt;Node17</title>
<path fill="none" stroke="midnightblue" d="M394.3,-505.15C462.5,-483 661.39,-417.6 824,-356 976.24,-298.33 1155.42,-221.42 1224.17,-191.58"/>
<polygon fill="midnightblue" stroke="midnightblue" points="1225.72,-194.72 1233.49,-187.53 1222.93,-188.3 1225.72,-194.72"/>
</g>
<!-- Node58&#45;&gt;Node39 -->
<g id="edge190" class="edge">
<title>Node58&#45;&gt;Node39</title>
<path fill="none" stroke="midnightblue" d="M243.98,-560.44C211.76,-545.17 152,-509.97 152,-459 152,-459 152,-459 152,-401 152,-364.3 126.68,-327.66 109.79,-307.3"/>
<polygon fill="midnightblue" stroke="midnightblue" points="112.35,-304.9 103.17,-299.62 107.05,-309.48 112.35,-304.9"/>
</g>
<!-- Node58&#45;&gt;Node57 -->
<g id="edge191" class="edge">
<title>Node58&#45;&gt;Node57</title>
<path fill="none" stroke="midnightblue" d="M281.03,-560.32C298.03,-551.66 324.38,-538.24 343.99,-528.25"/>
<polygon fill="midnightblue" stroke="midnightblue" points="345.69,-531.31 353.01,-523.65 342.51,-525.08 345.69,-531.31"/>
</g>
<!-- Node59 -->
<g id="node59" class="node">
<title>Node59</title>
<g id="a_node59"><a xlink:title=" ">
<polygon fill="none" stroke="#bfbfbf" points="218,-504.5 218,-523.5 328,-523.5 328,-504.5 218,-504.5"/>
<text text-anchor="middle" x="273" y="-511.5" font-family="Helvetica,sans-Serif" font-size="10.00">glm/gtx/transform.hpp</text>
</a>
</g>
</g>
<!-- Node58&#45;&gt;Node59 -->
<g id="edge189" class="edge">
<title>Node58&#45;&gt;Node59</title>
<path fill="none" stroke="midnightblue" d="M265.49,-560.08C266.68,-552.93 268.39,-542.64 269.88,-533.69"/>
<polygon fill="midnightblue" stroke="midnightblue" points="273.35,-534.19 271.54,-523.75 266.45,-533.04 273.35,-534.19"/>
</g>
</g>
</svg>
