<?xml version="1.0" encoding="UTF-8" standalone="no"?>
<!DOCTYPE svg PUBLIC "-//W3C//DTD SVG 1.1//EN"
 "http://www.w3.org/Graphics/SVG/1.1/DTD/svg11.dtd">
<!-- Generated by graphviz version 2.50.0 (20220203.2022)
 -->
<!-- Title: /github/workspace/src/renderer/materiallibrary.h Pages: 1 -->
<!--zoomable 575 -->
<svg id="main" version="1.1" xmlns="http://www.w3.org/2000/svg" xmlns:xlink="http://www.w3.org/1999/xlink" xml:space="preserve" onload="init(evt)">
<style type="text/css"><![CDATA[
.edge:hover path { stroke: red; }
.edge:hover polygon { stroke: red; fill: red; }
]]></style>
<script type="text/javascript"><![CDATA[
var edges = document.getElementsByTagName('g');
if (edges && edges.length) {
  for (var i=0;i<edges.length;i++) {
    if (edges[i].id.substr(0,4)=='edge') {
      edges[i].setAttribute('class','edge');
    }
  }
}
]]></script>
        <defs>
                <circle id="rim" cx="0" cy="0" r="7"/>
                <circle id="rim2" cx="0" cy="0" r="3.5"/>
                <g id="zoomPlus">
                        <use xlink:href="#rim" fill="#404040">
                                <set attributeName="fill" to="#808080" begin="zoomplus.mouseover" end="zoomplus.mouseout"/>
                        </use>
                        <path d="M-4,0h8M0,-4v8" fill="none" stroke="white" stroke-width="1.5" pointer-events="none"/>
                </g>
                <g id="zoomMin">
                        <use xlink:href="#rim" fill="#404040">
                                <set attributeName="fill" to="#808080" begin="zoomminus.mouseover" end="zoomminus.mouseout"/>
                        </use>
                        <path d="M-4,0h8" fill="none" stroke="white" stroke-width="1.5" pointer-events="none"/>
                </g>
                <g id="dirArrow">
                        <path fill="none" stroke="white" stroke-width="1.5" d="M0,-3.0v7 M-2.5,-0.5L0,-3.0L2.5,-0.5"/>
                </g>
               <g id="resetDef">
                       <use xlink:href="#rim2" fill="#404040">
                               <set attributeName="fill" to="#808080" begin="reset.mouseover" end="reset.mouseout"/>
                       </use>
               </g>
        </defs>

<script type="text/javascript">
var viewWidth = 1051;
var viewHeight = 575;
var sectionId = 'dynsection-1';
</script>
<script xlink:href="svgpan.js"/>
<svg id="graph" class="graph">
<g id="viewport">
<title>/github/workspace/src/renderer/materiallibrary.h</title>
<!-- Node1 -->
<g id="node1" class="node">
<title>Node1</title>
<g id="a_node1"><a xlink:title=" ">
<polygon fill="#bfbfbf" stroke="black" points="684.17,-536.5 684.17,-566.5 809.17,-566.5 809.17,-536.5 684.17,-536.5"/>
<text text-anchor="start" x="692.17" y="-554.5" font-family="Helvetica,sans-Serif" font-size="10.00">/github/workspace/src</text>
<text text-anchor="middle" x="746.67" y="-543.5" font-family="Helvetica,sans-Serif" font-size="10.00">/renderer/materiallibrary.h</text>
</a>
</g>
</g>
<!-- Node2 -->
<g id="node2" class="node">
<title>Node2</title>
<g id="a_node2"><a xlink:href="material_8h.html" target="_top" xlink:title=" ">
<polygon fill="none" stroke="black" points="690.17,-469.5 690.17,-499.5 803.17,-499.5 803.17,-469.5 690.17,-469.5"/>
<text text-anchor="start" x="698.17" y="-487.5" font-family="Helvetica,sans-Serif" font-size="10.00">/github/workspace/src</text>
<text text-anchor="middle" x="746.67" y="-476.5" font-family="Helvetica,sans-Serif" font-size="10.00">/renderer/material.h</text>
</a>
</g>
</g>
<!-- Node1&#45;&gt;Node2 -->
<g id="edge1" class="edge">
<title>Node1&#45;&gt;Node2</title>
<path fill="none" stroke="midnightblue" d="M740.12,-526.4C739.67,-517.37 739.96,-507.41 740.99,-499.58"/>
<polygon fill="midnightblue" stroke="midnightblue" points="736.64,-526.74 740.99,-536.4 743.61,-526.13 736.64,-526.74"/>
</g>
<!-- Node10 -->
<g id="node10" class="node">
<title>Node10</title>
<g id="a_node10"><a xlink:href="rendermanager_8h.html" target="_top" xlink:title=" ">
<polygon fill="none" stroke="black" points="20.67,-201.5 20.67,-231.5 150.67,-231.5 150.67,-201.5 20.67,-201.5"/>
<text text-anchor="start" x="28.67" y="-219.5" font-family="Helvetica,sans-Serif" font-size="10.00">/github/workspace/src</text>
<text text-anchor="middle" x="85.67" y="-208.5" font-family="Helvetica,sans-Serif" font-size="10.00">/renderer/rendermanager.h</text>
</a>
</g>
</g>
<!-- Node1&#45;&gt;Node10 -->
<g id="edge48" class="edge">
<title>Node1&#45;&gt;Node10</title>
<path fill="none" stroke="midnightblue" d="M673.85,-550.42C508.05,-548.26 116.67,-531.24 116.67,-418.5 116.67,-418.5 116.67,-418.5 116.67,-349.5 116.67,-305.48 100.13,-255.34 91.21,-231.51"/>
<polygon fill="midnightblue" stroke="midnightblue" points="673.92,-553.92 683.96,-550.53 674,-546.92 673.92,-553.92"/>
</g>
<!-- Node29 -->
<g id="node29" class="node">
<title>Node29</title>
<g id="a_node29"><a xlink:href="materiallibrary_8cpp.html" target="_top" xlink:title=" ">
<polygon fill="none" stroke="black" points="821.67,-469.5 821.67,-499.5 957.67,-499.5 957.67,-469.5 821.67,-469.5"/>
<text text-anchor="start" x="829.67" y="-487.5" font-family="Helvetica,sans-Serif" font-size="10.00">/github/workspace/src</text>
<text text-anchor="middle" x="889.67" y="-476.5" font-family="Helvetica,sans-Serif" font-size="10.00">/renderer/materiallibrary.cpp</text>
</a>
</g>
</g>
<!-- Node1&#45;&gt;Node29 -->
<g id="edge47" class="edge">
<title>Node1&#45;&gt;Node29</title>
<path fill="none" stroke="midnightblue" d="M787.08,-532.13C809.8,-521.8 837.73,-509.11 858.7,-499.58"/>
<polygon fill="midnightblue" stroke="midnightblue" points="785.35,-529.07 777.7,-536.4 788.25,-535.44 785.35,-529.07"/>
</g>
<!-- Node2&#45;&gt;Node1 -->
<g id="edge7" class="edge">
<title>Node2&#45;&gt;Node1</title>
<path fill="none" stroke="midnightblue" d="M753.21,-509.57C753.66,-518.6 753.37,-528.56 752.35,-536.4"/>
<polygon fill="midnightblue" stroke="midnightblue" points="756.7,-509.24 752.34,-499.58 749.72,-509.84 756.7,-509.24"/>
</g>
<!-- Node3 -->
<g id="node3" class="node">
<title>Node3</title>
<g id="a_node3"><a xlink:href="mastermaterial_8h.html" target="_top" xlink:title=" ">
<polygon fill="none" stroke="black" points="905.67,-268.5 905.67,-298.5 1035.67,-298.5 1035.67,-268.5 905.67,-268.5"/>
<text text-anchor="start" x="913.67" y="-286.5" font-family="Helvetica,sans-Serif" font-size="10.00">/github/workspace/src</text>
<text text-anchor="middle" x="970.67" y="-275.5" font-family="Helvetica,sans-Serif" font-size="10.00">/renderer/mastermaterial.h</text>
</a>
</g>
</g>
<!-- Node2&#45;&gt;Node3 -->
<g id="edge2" class="edge">
<title>Node2&#45;&gt;Node3</title>
<path fill="none" stroke="midnightblue" d="M778.83,-464.74C794.6,-456.2 813.32,-445.25 828.67,-433 881.42,-390.9 930.98,-326.78 955.58,-298.61"/>
<polygon fill="midnightblue" stroke="midnightblue" points="777.11,-461.69 769.94,-469.49 780.41,-467.87 777.11,-461.69"/>
</g>
<!-- Node5 -->
<g id="node5" class="node">
<title>Node5</title>
<g id="a_node5"><a xlink:href="material_8cpp.html" target="_top" xlink:title=" ">
<polygon fill="none" stroke="black" points="715.17,-402.5 715.17,-432.5 828.17,-432.5 828.17,-402.5 715.17,-402.5"/>
<text text-anchor="start" x="723.17" y="-420.5" font-family="Helvetica,sans-Serif" font-size="10.00">/github/workspace/src</text>
<text text-anchor="middle" x="771.67" y="-409.5" font-family="Helvetica,sans-Serif" font-size="10.00">/renderer/material.cpp</text>
</a>
</g>
</g>
<!-- Node2&#45;&gt;Node5 -->
<g id="edge6" class="edge">
<title>Node2&#45;&gt;Node5</title>
<path fill="none" stroke="midnightblue" d="M755.71,-459.99C759.24,-450.8 763.18,-440.58 766.25,-432.58"/>
<polygon fill="midnightblue" stroke="midnightblue" points="752.42,-458.81 752.09,-469.4 758.95,-461.32 752.42,-458.81"/>
</g>
<!-- Node6 -->
<g id="node6" class="node">
<title>Node6</title>
<g id="a_node6"><a xlink:href="mesh_8h.html" target="_top" xlink:title=" ">
<polygon fill="none" stroke="black" points="584.17,-402.5 584.17,-432.5 697.17,-432.5 697.17,-402.5 584.17,-402.5"/>
<text text-anchor="start" x="592.17" y="-420.5" font-family="Helvetica,sans-Serif" font-size="10.00">/github/workspace/src</text>
<text text-anchor="middle" x="640.67" y="-409.5" font-family="Helvetica,sans-Serif" font-size="10.00">/renderer/mesh.h</text>
</a>
</g>
</g>
<!-- Node2&#45;&gt;Node6 -->
<g id="edge8" class="edge">
<title>Node2&#45;&gt;Node6</title>
<path fill="none" stroke="midnightblue" d="M714.89,-464.02C698.4,-453.9 678.62,-441.77 663.62,-432.58"/>
<polygon fill="midnightblue" stroke="midnightblue" points="713.31,-467.15 723.67,-469.4 716.97,-461.18 713.31,-467.15"/>
</g>
<!-- Node3&#45;&gt;Node1 -->
<g id="edge5" class="edge">
<title>Node3&#45;&gt;Node1</title>
<path fill="none" stroke="midnightblue" d="M978.69,-308.23C991.72,-351.64 1011.77,-444.44 966.67,-500 947.06,-524.15 867.17,-537.77 809.3,-544.63"/>
<polygon fill="midnightblue" stroke="midnightblue" points="981.99,-307.05 975.65,-298.55 975.31,-309.14 981.99,-307.05"/>
</g>
<!-- Node3&#45;&gt;Node2 -->
<g id="edge4" class="edge">
<title>Node3&#45;&gt;Node2</title>
<path fill="none" stroke="midnightblue" d="M960.1,-307.43C939.66,-338.61 894.47,-394.85 846.67,-433 828.31,-447.65 805.13,-460.44 785.58,-469.49"/>
<polygon fill="midnightblue" stroke="midnightblue" points="963.28,-308.94 965.62,-298.61 957.35,-305.22 963.28,-308.94"/>
</g>
<!-- Node4 -->
<g id="node4" class="node">
<title>Node4</title>
<g id="a_node4"><a xlink:href="mastermaterial_8cpp.html" target="_top" xlink:title=" ">
<polygon fill="none" stroke="black" points="902.67,-201.5 902.67,-231.5 1042.67,-231.5 1042.67,-201.5 902.67,-201.5"/>
<text text-anchor="start" x="910.67" y="-219.5" font-family="Helvetica,sans-Serif" font-size="10.00">/github/workspace/src</text>
<text text-anchor="middle" x="972.67" y="-208.5" font-family="Helvetica,sans-Serif" font-size="10.00">/renderer/mastermaterial.cpp</text>
</a>
</g>
</g>
<!-- Node3&#45;&gt;Node4 -->
<g id="edge3" class="edge">
<title>Node3&#45;&gt;Node4</title>
<path fill="none" stroke="midnightblue" d="M971.42,-258.11C971.69,-249.15 972,-239.32 972.23,-231.58"/>
<polygon fill="midnightblue" stroke="midnightblue" points="967.91,-258.29 971.1,-268.4 974.91,-258.51 967.91,-258.29"/>
</g>
<!-- Node6&#45;&gt;Node3 -->
<g id="edge9" class="edge">
<title>Node6&#45;&gt;Node3</title>
<path fill="none" stroke="midnightblue" d="M707.3,-401.26C762.11,-388.53 832.81,-371.58 845.67,-366 887.02,-348.05 929.9,-316.85 953.14,-298.7"/>
<polygon fill="midnightblue" stroke="midnightblue" points="706.22,-397.92 697.27,-403.58 707.8,-404.74 706.22,-397.92"/>
</g>
<!-- Node7 -->
<g id="node7" class="node">
<title>Node7</title>
<g id="a_node7"><a xlink:href="mesh_8cpp.html" target="_top" xlink:title=" ">
<polygon fill="none" stroke="black" points="723.17,-335.5 723.17,-365.5 836.17,-365.5 836.17,-335.5 723.17,-335.5"/>
<text text-anchor="start" x="731.17" y="-353.5" font-family="Helvetica,sans-Serif" font-size="10.00">/github/workspace/src</text>
<text text-anchor="middle" x="779.67" y="-342.5" font-family="Helvetica,sans-Serif" font-size="10.00">/renderer/mesh.cpp</text>
</a>
</g>
</g>
<!-- Node6&#45;&gt;Node7 -->
<g id="edge10" class="edge">
<title>Node6&#45;&gt;Node7</title>
<path fill="none" stroke="midnightblue" d="M679.95,-398.13C702.04,-387.8 729.18,-375.11 749.57,-365.58"/>
<polygon fill="midnightblue" stroke="midnightblue" points="678.4,-394.99 670.83,-402.4 681.37,-401.33 678.4,-394.99"/>
</g>
<!-- Node8 -->
<g id="node8" class="node">
<title>Node8</title>
<g id="a_node8"><a xlink:href="meshlibrary_8h.html" target="_top" xlink:title=" ">
<polygon fill="none" stroke="black" points="177.17,-268.5 177.17,-298.5 292.17,-298.5 292.17,-268.5 177.17,-268.5"/>
<text text-anchor="start" x="185.17" y="-286.5" font-family="Helvetica,sans-Serif" font-size="10.00">/github/workspace/src</text>
<text text-anchor="middle" x="234.67" y="-275.5" font-family="Helvetica,sans-Serif" font-size="10.00">/renderer/meshlibrary.h</text>
</a>
</g>
</g>
<!-- Node6&#45;&gt;Node8 -->
<g id="edge11" class="edge">
<title>Node6&#45;&gt;Node8</title>
<path fill="none" stroke="midnightblue" d="M573.89,-409.93C519.5,-403.13 441.41,-390 376.67,-366 330.03,-348.71 280.8,-316.97 254.31,-298.62"/>
<polygon fill="midnightblue" stroke="midnightblue" points="573.75,-413.44 584.1,-411.17 574.59,-406.49 573.75,-413.44"/>
</g>
<!-- Node18 -->
<g id="node18" class="node">
<title>Node18</title>
<g id="a_node18"><a xlink:href="modelloader_8h.html" target="_top" xlink:title=" ">
<polygon fill="none" stroke="black" points="385.67,-335.5 385.67,-365.5 503.67,-365.5 503.67,-335.5 385.67,-335.5"/>
<text text-anchor="start" x="393.67" y="-353.5" font-family="Helvetica,sans-Serif" font-size="10.00">/github/workspace/src</text>
<text text-anchor="middle" x="444.67" y="-342.5" font-family="Helvetica,sans-Serif" font-size="10.00">/renderer/modelloader.h</text>
</a>
</g>
</g>
<!-- Node6&#45;&gt;Node18 -->
<g id="edge23" class="edge">
<title>Node6&#45;&gt;Node18</title>
<path fill="none" stroke="midnightblue" d="M588.59,-399.23C556.88,-388.71 516.89,-375.45 487.11,-365.58"/>
<polygon fill="midnightblue" stroke="midnightblue" points="587.55,-402.57 598.14,-402.4 589.75,-395.93 587.55,-402.57"/>
</g>
<!-- Node21 -->
<g id="node21" class="node">
<title>Node21</title>
<g id="a_node21"><a xlink:href="objectinstance_8h.html" target="_top" xlink:title=" ">
<polygon fill="none" stroke="black" points="576.67,-335.5 576.67,-365.5 704.67,-365.5 704.67,-335.5 576.67,-335.5"/>
<text text-anchor="start" x="584.67" y="-353.5" font-family="Helvetica,sans-Serif" font-size="10.00">/github/workspace/src</text>
<text text-anchor="middle" x="640.67" y="-342.5" font-family="Helvetica,sans-Serif" font-size="10.00">/renderer/objectinstance.h</text>
</a>
</g>
</g>
<!-- Node6&#45;&gt;Node21 -->
<g id="edge29" class="edge">
<title>Node6&#45;&gt;Node21</title>
<path fill="none" stroke="midnightblue" d="M640.67,-392.11C640.67,-383.15 640.67,-373.32 640.67,-365.58"/>
<polygon fill="midnightblue" stroke="midnightblue" points="637.17,-392.4 640.67,-402.4 644.17,-392.4 637.17,-392.4"/>
</g>
<!-- Node9 -->
<g id="node9" class="node">
<title>Node9</title>
<g id="a_node9"><a xlink:href="meshlibrary_8cpp.html" target="_top" xlink:title=" ">
<polygon fill="none" stroke="black" points="169.17,-201.5 169.17,-231.5 294.17,-231.5 294.17,-201.5 169.17,-201.5"/>
<text text-anchor="start" x="177.17" y="-219.5" font-family="Helvetica,sans-Serif" font-size="10.00">/github/workspace/src</text>
<text text-anchor="middle" x="231.67" y="-208.5" font-family="Helvetica,sans-Serif" font-size="10.00">/renderer/meshlibrary.cpp</text>
</a>
</g>
</g>
<!-- Node8&#45;&gt;Node9 -->
<g id="edge12" class="edge">
<title>Node8&#45;&gt;Node9</title>
<path fill="none" stroke="midnightblue" d="M233.56,-258.4C233.14,-249.37 232.68,-239.41 232.32,-231.58"/>
<polygon fill="midnightblue" stroke="midnightblue" points="230.06,-258.57 234.02,-268.4 237.05,-258.25 230.06,-258.57"/>
</g>
<!-- Node8&#45;&gt;Node10 -->
<g id="edge13" class="edge">
<title>Node8&#45;&gt;Node10</title>
<path fill="none" stroke="midnightblue" d="M192.88,-264.27C169.14,-253.92 139.89,-241.15 117.94,-231.58"/>
<polygon fill="midnightblue" stroke="midnightblue" points="191.77,-267.61 202.34,-268.4 194.57,-261.19 191.77,-267.61"/>
</g>
<!-- Node11 -->
<g id="node11" class="node">
<title>Node11</title>
<g id="a_node11"><a xlink:href="rendermanager_8cpp.html" target="_top" xlink:title=" ">
<polygon fill="none" stroke="black" points="161.67,-134.5 161.67,-164.5 301.67,-164.5 301.67,-134.5 161.67,-134.5"/>
<text text-anchor="start" x="169.67" y="-152.5" font-family="Helvetica,sans-Serif" font-size="10.00">/github/workspace/src</text>
<text text-anchor="middle" x="231.67" y="-141.5" font-family="Helvetica,sans-Serif" font-size="10.00">/renderer/rendermanager.cpp</text>
</a>
</g>
</g>
<!-- Node10&#45;&gt;Node11 -->
<g id="edge14" class="edge">
<title>Node10&#45;&gt;Node11</title>
<path fill="none" stroke="midnightblue" d="M126.62,-197.27C149.87,-186.92 178.54,-174.15 200.05,-164.58"/>
<polygon fill="midnightblue" stroke="midnightblue" points="125.06,-194.13 117.35,-201.4 127.91,-200.53 125.06,-194.13"/>
</g>
<!-- Node12 -->
<g id="node12" class="node">
<title>Node12</title>
<g id="a_node12"><a xlink:href="scenewriter_8h.html" target="_top" xlink:title=" ">
<polygon fill="none" stroke="black" points="27.67,-134.5 27.67,-164.5 143.67,-164.5 143.67,-134.5 27.67,-134.5"/>
<text text-anchor="start" x="35.67" y="-152.5" font-family="Helvetica,sans-Serif" font-size="10.00">/github/workspace/src</text>
<text text-anchor="middle" x="85.67" y="-141.5" font-family="Helvetica,sans-Serif" font-size="10.00">/renderer/scenewriter.h</text>
</a>
</g>
</g>
<!-- Node10&#45;&gt;Node12 -->
<g id="edge15" class="edge">
<title>Node10&#45;&gt;Node12</title>
<path fill="none" stroke="midnightblue" d="M79.12,-191.4C78.67,-182.37 78.96,-172.41 79.99,-164.58"/>
<polygon fill="midnightblue" stroke="midnightblue" points="75.64,-191.74 79.99,-201.4 82.61,-191.13 75.64,-191.74"/>
</g>
<!-- Node17 -->
<g id="node17" class="node">
<title>Node17</title>
<g id="a_node17"><a xlink:href="vulkan__voxel__rasterizer__4_8cpp.html" target="_top" xlink:title=" ">
<polygon fill="none" stroke="black" points="311.67,-0.5 311.67,-30.5 485.67,-30.5 485.67,-0.5 311.67,-0.5"/>
<text text-anchor="start" x="319.67" y="-18.5" font-family="Helvetica,sans-Serif" font-size="10.00">/github/workspace/src</text>
<text text-anchor="middle" x="398.67" y="-7.5" font-family="Helvetica,sans-Serif" font-size="10.00">/tests/vulkan_voxel_rasterizer_4.cpp</text>
</a>
</g>
</g>
<!-- Node10&#45;&gt;Node17 -->
<g id="edge22" class="edge">
<title>Node10&#45;&gt;Node17</title>
<path fill="none" stroke="midnightblue" d="M47.33,-195.75C35.98,-187.83 24.93,-177.57 18.67,-165 -0.76,-126.02 -10.12,-99.68 18.67,-67 60.57,-19.43 238.87,-39.69 301.67,-31 304.87,-30.56 308.14,-30.1 311.43,-29.63"/>
<polygon fill="midnightblue" stroke="midnightblue" points="45.68,-198.85 55.98,-201.34 49.48,-192.97 45.68,-198.85"/>
</g>
<!-- Node12&#45;&gt;Node10 -->
<g id="edge16" class="edge">
<title>Node12&#45;&gt;Node10</title>
<path fill="none" stroke="midnightblue" d="M92.21,-174.57C92.66,-183.6 92.37,-193.56 91.35,-201.4"/>
<polygon fill="midnightblue" stroke="midnightblue" points="95.7,-174.24 91.34,-164.58 88.72,-174.84 95.7,-174.24"/>
</g>
<!-- Node13 -->
<g id="node13" class="node">
<title>Node13</title>
<g id="a_node13"><a xlink:href="scenewriter_8cpp.html" target="_top" xlink:title=" ">
<polygon fill="none" stroke="black" points="27.67,-67.5 27.67,-97.5 153.67,-97.5 153.67,-67.5 27.67,-67.5"/>
<text text-anchor="start" x="35.67" y="-85.5" font-family="Helvetica,sans-Serif" font-size="10.00">/github/workspace/src</text>
<text text-anchor="middle" x="90.67" y="-74.5" font-family="Helvetica,sans-Serif" font-size="10.00">/renderer/scenewriter.cpp</text>
</a>
</g>
</g>
<!-- Node12&#45;&gt;Node13 -->
<g id="edge17" class="edge">
<title>Node12&#45;&gt;Node13</title>
<path fill="none" stroke="midnightblue" d="M87.52,-124.4C88.22,-115.37 88.98,-105.41 89.59,-97.58"/>
<polygon fill="midnightblue" stroke="midnightblue" points="84.03,-124.16 86.75,-134.4 91.01,-124.69 84.03,-124.16"/>
</g>
<!-- Node14 -->
<g id="node14" class="node">
<title>Node14</title>
<g id="a_node14"><a xlink:href="mainmenu_8h.html" target="_top" xlink:title=" ">
<polygon fill="none" stroke="black" points="180.17,-67.5 180.17,-97.5 301.17,-97.5 301.17,-67.5 180.17,-67.5"/>
<text text-anchor="start" x="188.17" y="-85.5" font-family="Helvetica,sans-Serif" font-size="10.00">/github/workspace/src</text>
<text text-anchor="middle" x="240.67" y="-74.5" font-family="Helvetica,sans-Serif" font-size="10.00">/renderer/ui/mainmenu.h</text>
</a>
</g>
</g>
<!-- Node12&#45;&gt;Node14 -->
<g id="edge18" class="edge">
<title>Node12&#45;&gt;Node14</title>
<path fill="none" stroke="midnightblue" d="M128.81,-130.41C153.56,-120.03 184.16,-107.2 207.1,-97.58"/>
<polygon fill="midnightblue" stroke="midnightblue" points="127.17,-127.3 119.3,-134.4 129.88,-133.76 127.17,-127.3"/>
</g>
<!-- Node15 -->
<g id="node15" class="node">
<title>Node15</title>
<g id="a_node15"><a xlink:href="mainmenu_8cpp.html" target="_top" xlink:title=" ">
<polygon fill="none" stroke="black" points="162.17,-0.5 162.17,-30.5 293.17,-30.5 293.17,-0.5 162.17,-0.5"/>
<text text-anchor="start" x="170.17" y="-18.5" font-family="Helvetica,sans-Serif" font-size="10.00">/github/workspace/src</text>
<text text-anchor="middle" x="227.67" y="-7.5" font-family="Helvetica,sans-Serif" font-size="10.00">/renderer/ui/mainmenu.cpp</text>
</a>
</g>
</g>
<!-- Node14&#45;&gt;Node15 -->
<g id="edge19" class="edge">
<title>Node14&#45;&gt;Node15</title>
<path fill="none" stroke="midnightblue" d="M235.85,-57.4C234.04,-48.37 232.05,-38.41 230.48,-30.58"/>
<polygon fill="midnightblue" stroke="midnightblue" points="232.45,-58.28 237.85,-67.4 239.32,-56.9 232.45,-58.28"/>
</g>
<!-- Node16 -->
<g id="node16" class="node">
<title>Node16</title>
<g id="a_node16"><a xlink:href="vulkan__voxel__rasterizer__3_8cpp.html" target="_top" xlink:title=" ">
<polygon fill="none" stroke="black" points="677.67,-0.5 677.67,-30.5 851.67,-30.5 851.67,-0.5 677.67,-0.5"/>
<text text-anchor="start" x="685.67" y="-18.5" font-family="Helvetica,sans-Serif" font-size="10.00">/github/workspace/src</text>
<text text-anchor="middle" x="764.67" y="-7.5" font-family="Helvetica,sans-Serif" font-size="10.00">/tests/vulkan_voxel_rasterizer_3.cpp</text>
</a>
</g>
</g>
<!-- Node14&#45;&gt;Node16 -->
<g id="edge20" class="edge">
<title>Node14&#45;&gt;Node16</title>
<path fill="none" stroke="midnightblue" d="M311.39,-73.87C396.33,-64.53 543.08,-47.89 668.67,-31 671.59,-30.61 674.56,-30.2 677.56,-29.78"/>
<polygon fill="midnightblue" stroke="midnightblue" points="310.91,-70.4 301.35,-74.97 311.67,-77.36 310.91,-70.4"/>
</g>
<!-- Node14&#45;&gt;Node17 -->
<g id="edge21" class="edge">
<title>Node14&#45;&gt;Node17</title>
<path fill="none" stroke="midnightblue" d="M284.31,-63.54C309.6,-53.14 340.97,-40.24 364.45,-30.58"/>
<polygon fill="midnightblue" stroke="midnightblue" points="282.87,-60.35 274.95,-67.4 285.53,-66.83 282.87,-60.35"/>
</g>
<!-- Node18&#45;&gt;Node8 -->
<g id="edge24" class="edge">
<title>Node18&#45;&gt;Node8</title>
<path fill="none" stroke="midnightblue" d="M389.56,-332.44C355.52,-321.91 312.37,-308.55 280.26,-298.61"/>
<polygon fill="midnightblue" stroke="midnightblue" points="388.77,-335.86 399.36,-335.48 390.84,-329.18 388.77,-335.86"/>
</g>
<!-- Node18&#45;&gt;Node16 -->
<g id="edge27" class="edge">
<title>Node18&#45;&gt;Node16</title>
<path fill="none" stroke="midnightblue" d="M514.16,-338.97C577.04,-328.82 664.56,-313 696.67,-299 718.26,-289.58 718.92,-279.16 739.67,-268 779.43,-246.61 800.98,-262.07 834.67,-232 893.97,-179.07 949.28,-132.1 903.67,-67 891.29,-49.34 872.07,-37.83 851.83,-30.34"/>
<polygon fill="midnightblue" stroke="midnightblue" points="513.23,-335.57 503.91,-340.61 514.33,-342.48 513.23,-335.57"/>
</g>
<!-- Node18&#45;&gt;Node17 -->
<g id="edge28" class="edge">
<title>Node18&#45;&gt;Node17</title>
<path fill="none" stroke="midnightblue" d="M417.96,-328.99C392.83,-307.84 356.84,-272.32 341.67,-232 313.93,-158.29 366.31,-65.59 388.96,-30.67"/>
<polygon fill="midnightblue" stroke="midnightblue" points="415.75,-331.7 425.7,-335.34 420.19,-326.29 415.75,-331.7"/>
</g>
<!-- Node19 -->
<g id="node19" class="node">
<title>Node19</title>
<g id="a_node19"><a xlink:href="modelloader_8cpp.html" target="_top" xlink:title=" ">
<polygon fill="none" stroke="black" points="427.67,-268.5 427.67,-298.5 555.67,-298.5 555.67,-268.5 427.67,-268.5"/>
<text text-anchor="start" x="435.67" y="-286.5" font-family="Helvetica,sans-Serif" font-size="10.00">/github/workspace/src</text>
<text text-anchor="middle" x="491.67" y="-275.5" font-family="Helvetica,sans-Serif" font-size="10.00">/renderer/modelloader.cpp</text>
</a>
</g>
</g>
<!-- Node18&#45;&gt;Node19 -->
<g id="edge25" class="edge">
<title>Node18&#45;&gt;Node19</title>
<path fill="none" stroke="midnightblue" d="M460.82,-327.16C467.68,-317.68 475.46,-306.92 481.49,-298.58"/>
<polygon fill="midnightblue" stroke="midnightblue" points="457.89,-325.24 454.87,-335.4 463.56,-329.34 457.89,-325.24"/>
</g>
<!-- Node20 -->
<g id="node20" class="node">
<title>Node20</title>
<g id="a_node20"><a xlink:href="vulkan__voxel__rasterizer__2_8cpp.html" target="_top" xlink:title=" ">
<polygon fill="none" stroke="black" points="350.67,-201.5 350.67,-231.5 524.67,-231.5 524.67,-201.5 350.67,-201.5"/>
<text text-anchor="start" x="358.67" y="-219.5" font-family="Helvetica,sans-Serif" font-size="10.00">/github/workspace/src</text>
<text text-anchor="middle" x="437.67" y="-208.5" font-family="Helvetica,sans-Serif" font-size="10.00">/tests/vulkan_voxel_rasterizer_2.cpp</text>
</a>
</g>
</g>
<!-- Node18&#45;&gt;Node20 -->
<g id="edge26" class="edge">
<title>Node18&#45;&gt;Node20</title>
<path fill="none" stroke="midnightblue" d="M429.89,-326.47C425.36,-318.15 420.96,-308.47 418.67,-299 412.95,-275.42 422.78,-247.92 430.3,-231.65"/>
<polygon fill="midnightblue" stroke="midnightblue" points="426.92,-328.32 434.97,-335.21 432.97,-324.8 426.92,-328.32"/>
</g>
<!-- Node21&#45;&gt;Node3 -->
<g id="edge30" class="edge">
<title>Node21&#45;&gt;Node3</title>
<path fill="none" stroke="midnightblue" d="M714.76,-334.91C772.02,-323.63 850.51,-308.17 905.42,-297.35"/>
<polygon fill="midnightblue" stroke="midnightblue" points="713.82,-331.52 704.69,-336.89 715.17,-338.39 713.82,-331.52"/>
</g>
<!-- Node22 -->
<g id="node22" class="node">
<title>Node22</title>
<g id="a_node22"><a xlink:href="objectinstance_8cpp.html" target="_top" xlink:title=" ">
<polygon fill="none" stroke="black" points="748.17,-268.5 748.17,-298.5 887.17,-298.5 887.17,-268.5 748.17,-268.5"/>
<text text-anchor="start" x="756.17" y="-286.5" font-family="Helvetica,sans-Serif" font-size="10.00">/github/workspace/src</text>
<text text-anchor="middle" x="817.67" y="-275.5" font-family="Helvetica,sans-Serif" font-size="10.00">/renderer/objectinstance.cpp</text>
</a>
</g>
</g>
<!-- Node21&#45;&gt;Node22 -->
<g id="edge31" class="edge">
<title>Node21&#45;&gt;Node22</title>
<path fill="none" stroke="midnightblue" d="M688.82,-331.82C717.27,-321.37 752.8,-308.32 779.34,-298.58"/>
<polygon fill="midnightblue" stroke="midnightblue" points="687.25,-328.66 679.07,-335.4 689.67,-335.23 687.25,-328.66"/>
</g>
<!-- Node23 -->
<g id="node23" class="node">
<title>Node23</title>
<g id="a_node23"><a xlink:href="scene_8h.html" target="_top" xlink:title=" ">
<polygon fill="none" stroke="black" points="574.17,-268.5 574.17,-298.5 687.17,-298.5 687.17,-268.5 574.17,-268.5"/>
<text text-anchor="start" x="582.17" y="-286.5" font-family="Helvetica,sans-Serif" font-size="10.00">/github/workspace/src</text>
<text text-anchor="middle" x="630.67" y="-275.5" font-family="Helvetica,sans-Serif" font-size="10.00">/renderer/scene.h</text>
</a>
</g>
</g>
<!-- Node21&#45;&gt;Node23 -->
<g id="edge32" class="edge">
<title>Node21&#45;&gt;Node23</title>
<path fill="none" stroke="midnightblue" d="M636.96,-325.4C635.57,-316.37 634.04,-306.41 632.83,-298.58"/>
<polygon fill="midnightblue" stroke="midnightblue" points="633.52,-326.04 638.5,-335.4 640.44,-324.98 633.52,-326.04"/>
</g>
<!-- Node23&#45;&gt;Node10 -->
<g id="edge33" class="edge">
<title>Node23&#45;&gt;Node10</title>
<path fill="none" stroke="midnightblue" d="M563.83,-268.01C384.3,-241.15 335.35,-256.95 159.67,-232 156.82,-231.6 153.91,-231.15 150.98,-230.68"/>
<polygon fill="midnightblue" stroke="midnightblue" points="563.46,-271.5 573.87,-269.54 564.51,-264.58 563.46,-271.5"/>
</g>
<!-- Node23&#45;&gt;Node14 -->
<g id="edge35" class="edge">
<title>Node23&#45;&gt;Node14</title>
<path fill="none" stroke="midnightblue" d="M609.29,-261.06C590.59,-243.2 562.06,-218.02 533.67,-201 452.94,-152.6 348.65,-116.25 288.75,-97.58"/>
<polygon fill="midnightblue" stroke="midnightblue" points="607.06,-263.77 616.67,-268.22 611.93,-258.74 607.06,-263.77"/>
</g>
<!-- Node23&#45;&gt;Node16 -->
<g id="edge45" class="edge">
<title>Node23&#45;&gt;Node16</title>
<path fill="none" stroke="midnightblue" d="M697.18,-268C731.98,-258.92 769.45,-246.25 779.67,-232 786.27,-222.8 779.47,-207.37 770.67,-98 768.77,-74.38 766.79,-46.9 765.65,-30.64"/>
<polygon fill="midnightblue" stroke="midnightblue" points="696.3,-264.61 687.46,-270.46 698.02,-271.39 696.3,-264.61"/>
</g>
<!-- Node23&#45;&gt;Node17 -->
<g id="edge46" class="edge">
<title>Node23&#45;&gt;Node17</title>
<path fill="none" stroke="midnightblue" d="M614.31,-259.83C602.12,-243.23 584.85,-220.32 568.67,-201 513.56,-135.23 442.6,-61.43 412.81,-30.9"/>
<polygon fill="midnightblue" stroke="midnightblue" points="611.8,-262.33 620.53,-268.35 617.46,-258.2 611.8,-262.33"/>
</g>
<!-- Node23&#45;&gt;Node20 -->
<g id="edge44" class="edge">
<title>Node23&#45;&gt;Node20</title>
<path fill="none" stroke="midnightblue" d="M578.98,-265.09C547.82,-254.6 508.66,-241.41 479.46,-231.58"/>
<polygon fill="midnightblue" stroke="midnightblue" points="578.2,-268.52 588.79,-268.4 580.43,-261.89 578.2,-268.52"/>
</g>
<!-- Node24 -->
<g id="node24" class="node">
<title>Node24</title>
<g id="a_node24"><a xlink:href="scene_8cpp.html" target="_top" xlink:title=" ">
<polygon fill="none" stroke="black" points="657.17,-201.5 657.17,-231.5 770.17,-231.5 770.17,-201.5 657.17,-201.5"/>
<text text-anchor="start" x="665.17" y="-219.5" font-family="Helvetica,sans-Serif" font-size="10.00">/github/workspace/src</text>
<text text-anchor="middle" x="713.67" y="-208.5" font-family="Helvetica,sans-Serif" font-size="10.00">/renderer/scene.cpp</text>
</a>
</g>
</g>
<!-- Node23&#45;&gt;Node24 -->
<g id="edge34" class="edge">
<title>Node23&#45;&gt;Node24</title>
<path fill="none" stroke="midnightblue" d="M656.63,-262.17C669.32,-252.23 684.28,-240.51 695.69,-231.58"/>
<polygon fill="midnightblue" stroke="midnightblue" points="654.39,-259.47 648.68,-268.4 658.71,-264.99 654.39,-259.47"/>
</g>
<!-- Node25 -->
<g id="node25" class="node">
<title>Node25</title>
<g id="a_node25"><a xlink:href="objectlist_8h.html" target="_top" xlink:title=" ">
<polygon fill="none" stroke="black" points="779.17,-67.5 779.17,-97.5 894.17,-97.5 894.17,-67.5 779.17,-67.5"/>
<text text-anchor="start" x="787.17" y="-85.5" font-family="Helvetica,sans-Serif" font-size="10.00">/github/workspace/src</text>
<text text-anchor="middle" x="836.67" y="-74.5" font-family="Helvetica,sans-Serif" font-size="10.00">/renderer/ui/objectlist.h</text>
</a>
</g>
</g>
<!-- Node23&#45;&gt;Node25 -->
<g id="edge36" class="edge">
<title>Node23&#45;&gt;Node25</title>
<path fill="none" stroke="midnightblue" d="M697.3,-267.69C745.91,-256.27 804.64,-240.97 812.67,-232 846.81,-193.86 842.74,-127.08 838.96,-97.86"/>
<polygon fill="midnightblue" stroke="midnightblue" points="696.37,-264.31 687.42,-269.99 697.95,-271.13 696.37,-264.31"/>
</g>
<!-- Node27 -->
<g id="node27" class="node">
<title>Node27</title>
<g id="a_node27"><a xlink:href="objectproperties_8h.html" target="_top" xlink:title=" ">
<polygon fill="none" stroke="black" points="577.17,-67.5 577.17,-97.5 722.17,-97.5 722.17,-67.5 577.17,-67.5"/>
<text text-anchor="start" x="585.17" y="-85.5" font-family="Helvetica,sans-Serif" font-size="10.00">/github/workspace/src</text>
<text text-anchor="middle" x="649.67" y="-74.5" font-family="Helvetica,sans-Serif" font-size="10.00">/renderer/ui/objectproperties.h</text>
</a>
</g>
</g>
<!-- Node23&#45;&gt;Node27 -->
<g id="edge40" class="edge">
<title>Node23&#45;&gt;Node27</title>
<path fill="none" stroke="midnightblue" d="M633.01,-258C637.02,-215.93 645.11,-131.26 648.31,-97.68"/>
<polygon fill="midnightblue" stroke="midnightblue" points="629.5,-257.9 632.03,-268.19 636.47,-258.57 629.5,-257.9"/>
</g>
<!-- Node25&#45;&gt;Node16 -->
<g id="edge38" class="edge">
<title>Node25&#45;&gt;Node16</title>
<path fill="none" stroke="midnightblue" d="M813.51,-60.6C802.64,-50.78 789.97,-39.34 780.26,-30.58"/>
<polygon fill="midnightblue" stroke="midnightblue" points="811.28,-63.29 821.05,-67.4 815.97,-58.1 811.28,-63.29"/>
</g>
<!-- Node25&#45;&gt;Node17 -->
<g id="edge39" class="edge">
<title>Node25&#45;&gt;Node17</title>
<path fill="none" stroke="midnightblue" d="M768.78,-71.47C699.95,-61.3 590.4,-45.1 495.67,-31 492.47,-30.52 489.21,-30.04 485.92,-29.55"/>
<polygon fill="midnightblue" stroke="midnightblue" points="768.64,-74.99 779.04,-72.99 769.66,-68.07 768.64,-74.99"/>
</g>
<!-- Node26 -->
<g id="node26" class="node">
<title>Node26</title>
<g id="a_node26"><a xlink:href="objectlist_8cpp.html" target="_top" xlink:title=" ">
<polygon fill="none" stroke="black" points="870.17,-0.5 870.17,-30.5 995.17,-30.5 995.17,-0.5 870.17,-0.5"/>
<text text-anchor="start" x="878.17" y="-18.5" font-family="Helvetica,sans-Serif" font-size="10.00">/github/workspace/src</text>
<text text-anchor="middle" x="932.67" y="-7.5" font-family="Helvetica,sans-Serif" font-size="10.00">/renderer/ui/objectlist.cpp</text>
</a>
</g>
</g>
<!-- Node25&#45;&gt;Node26 -->
<g id="edge37" class="edge">
<title>Node25&#45;&gt;Node26</title>
<path fill="none" stroke="midnightblue" d="M865.86,-61.73C880.72,-51.68 898.43,-39.68 911.88,-30.58"/>
<polygon fill="midnightblue" stroke="midnightblue" points="863.82,-58.89 857.5,-67.4 867.74,-64.69 863.82,-58.89"/>
</g>
<!-- Node27&#45;&gt;Node16 -->
<g id="edge42" class="edge">
<title>Node27&#45;&gt;Node16</title>
<path fill="none" stroke="midnightblue" d="M683.65,-62.3C701.64,-52.12 723.35,-39.85 739.76,-30.58"/>
<polygon fill="midnightblue" stroke="midnightblue" points="681.6,-59.43 674.62,-67.4 685.05,-65.52 681.6,-59.43"/>
</g>
<!-- Node27&#45;&gt;Node17 -->
<g id="edge43" class="edge">
<title>Node27&#45;&gt;Node17</title>
<path fill="none" stroke="midnightblue" d="M585.63,-64.92C544.67,-54.31 492.11,-40.7 453.16,-30.61"/>
<polygon fill="midnightblue" stroke="midnightblue" points="584.96,-68.36 595.51,-67.48 586.71,-61.58 584.96,-68.36"/>
</g>
<!-- Node28 -->
<g id="node28" class="node">
<title>Node28</title>
<g id="a_node28"><a xlink:href="objectproperties_8cpp.html" target="_top" xlink:title=" ">
<polygon fill="none" stroke="black" points="504.17,-0.5 504.17,-30.5 659.17,-30.5 659.17,-0.5 504.17,-0.5"/>
<text text-anchor="start" x="512.17" y="-18.5" font-family="Helvetica,sans-Serif" font-size="10.00">/github/workspace/src</text>
<text text-anchor="middle" x="581.67" y="-7.5" font-family="Helvetica,sans-Serif" font-size="10.00">/renderer/ui/objectproperties.cpp</text>
</a>
</g>
</g>
<!-- Node27&#45;&gt;Node28 -->
<g id="edge41" class="edge">
<title>Node27&#45;&gt;Node28</title>
<path fill="none" stroke="midnightblue" d="M627.5,-60.31C617.3,-50.56 605.48,-39.26 596.39,-30.58"/>
<polygon fill="midnightblue" stroke="midnightblue" points="625.27,-63.02 634.91,-67.4 630.1,-57.96 625.27,-63.02"/>
</g>
</g>
</svg>
        <g id="navigator" transform="translate(0 0)" fill="#404254">
                <rect fill="#f2f5e9" fill-opacity="0.5" stroke="#606060" stroke-width=".5" x="0" y="0" width="60" height="60"/>
                <use id="zoomplus" xlink:href="#zoomPlus" x="17" y="9" onmousedown="handleZoom(evt,'in')"/>
                <use id="zoomminus" xlink:href="#zoomMin" x="42" y="9" onmousedown="handleZoom(evt,'out')"/>
                <use id="reset" xlink:href="#resetDef" x="30" y="36" onmousedown="handleReset()"/>
                <g id="arrowUp" xlink:href="#dirArrow" transform="translate(30 24)" onmousedown="handlePan(0,-1)">
                  <use xlink:href="#rim" fill="#404040">
                        <set attributeName="fill" to="#808080" begin="arrowUp.mouseover" end="arrowUp.mouseout"/>
                  </use>
                  <path fill="none" stroke="white" stroke-width="1.5" d="M0,-3.0v7 M-2.5,-0.5L0,-3.0L2.5,-0.5"/>
                </g>
                <g id="arrowRight" xlink:href="#dirArrow" transform="rotate(90) translate(36 -43)" onmousedown="handlePan(1,0)">
                  <use xlink:href="#rim" fill="#404040">
                        <set attributeName="fill" to="#808080" begin="arrowRight.mouseover" end="arrowRight.mouseout"/>
                  </use>
                  <path fill="none" stroke="white" stroke-width="1.5" d="M0,-3.0v7 M-2.5,-0.5L0,-3.0L2.5,-0.5"/>
                </g>
                <g id="arrowDown" xlink:href="#dirArrow" transform="rotate(180) translate(-30 -48)" onmousedown="handlePan(0,1)">
                  <use xlink:href="#rim" fill="#404040">
                        <set attributeName="fill" to="#808080" begin="arrowDown.mouseover" end="arrowDown.mouseout"/>
                  </use>
                  <path fill="none" stroke="white" stroke-width="1.5" d="M0,-3.0v7 M-2.5,-0.5L0,-3.0L2.5,-0.5"/>
                </g>
                <g id="arrowLeft" xlink:href="#dirArrow" transform="rotate(270) translate(-36 17)" onmousedown="handlePan(-1,0)">
                  <use xlink:href="#rim" fill="#404040">
                        <set attributeName="fill" to="#808080" begin="arrowLeft.mouseover" end="arrowLeft.mouseout"/>
                  </use>
                  <path fill="none" stroke="white" stroke-width="1.5" d="M0,-3.0v7 M-2.5,-0.5L0,-3.0L2.5,-0.5"/>
                </g>
        </g>
        <svg viewBox="0 0 15 15" width="100%" height="30px" preserveAspectRatio="xMaxYMin meet">
         <g id="arrow_out" transform="scale(0.3 0.3)">
          <a xlink:href="materiallibrary_8h__dep__incl_org.svg" target="_base">
           <rect id="button" ry="5" rx="5" y="6" x="6" height="38" width="38"
                fill="#f2f5e9" fill-opacity="0.5" stroke="#606060" stroke-width="1.0"/>
           <path id="arrow"
             d="M 11.500037,31.436501 C 11.940474,20.09759 22.043105,11.32322 32.158766,21.979434 L 37.068811,17.246167 C 37.068811,17.246167 37.088388,32 37.088388,32 L 22.160133,31.978069 C 22.160133,31.978069 26.997745,27.140456 26.997745,27.140456 C 18.528582,18.264221 13.291696,25.230495 11.500037,31.436501 z"
             style="fill:#404040;"/>
          </a>
         </g>
        </svg>
</svg>
