<?xml version="1.0" encoding="UTF-8" standalone="no"?>
<!DOCTYPE svg PUBLIC "-//W3C//DTD SVG 1.1//EN"
 "http://www.w3.org/Graphics/SVG/1.1/DTD/svg11.dtd">
<!-- Generated by graphviz version 2.50.0 (20220203.2022)
 -->
<!-- Title: /github/workspace/src/renderer/materialparameters.h Pages: 1 -->
<svg width="1219pt" height="642pt"
 viewBox="0.00 0.00 1218.50 642.00" xmlns="http://www.w3.org/2000/svg" xmlns:xlink="http://www.w3.org/1999/xlink">
<g id="graph0" class="graph" transform="scale(1 1) rotate(0) translate(4 638)">
<title>/github/workspace/src/renderer/materialparameters.h</title>
<!-- Node1 -->
<g id="node1" class="node">
<title>Node1</title>
<g id="a_node1"><a xlink:title=" ">
<polygon fill="#bfbfbf" stroke="black" points="811,-603.5 811,-633.5 960,-633.5 960,-603.5 811,-603.5"/>
<text text-anchor="start" x="819" y="-621.5" font-family="Helvetica,sans-Serif" font-size="10.00">/github/workspace/src</text>
<text text-anchor="middle" x="885.5" y="-610.5" font-family="Helvetica,sans-Serif" font-size="10.00">/renderer/materialparameters.h</text>
</a>
</g>
</g>
<!-- Node2 -->
<g id="node2" class="node">
<title>Node2</title>
<g id="a_node2"><a xlink:href="mastermaterial_8h.html" target="_top" xlink:title=" ">
<polygon fill="none" stroke="black" points="563.5,-536.5 563.5,-566.5 693.5,-566.5 693.5,-536.5 563.5,-536.5"/>
<text text-anchor="start" x="571.5" y="-554.5" font-family="Helvetica,sans-Serif" font-size="10.00">/github/workspace/src</text>
<text text-anchor="middle" x="628.5" y="-543.5" font-family="Helvetica,sans-Serif" font-size="10.00">/renderer/mastermaterial.h</text>
</a>
</g>
</g>
<!-- Node1&#45;&gt;Node2 -->
<g id="edge1" class="edge">
<title>Node1&#45;&gt;Node2</title>
<path fill="none" stroke="midnightblue" d="M820.2,-600.98C778.22,-590.37 724.26,-576.72 684.29,-566.61"/>
<polygon fill="midnightblue" stroke="midnightblue" points="819.5,-604.42 830.05,-603.48 821.21,-597.63 819.5,-604.42"/>
</g>
<!-- Node31 -->
<g id="node31" class="node">
<title>Node31</title>
<g id="a_node31"><a xlink:href="mastermaterialtemplate_8h.html" target="_top" xlink:title=" ">
<polygon fill="none" stroke="black" points="712,-536.5 712,-566.5 879,-566.5 879,-536.5 712,-536.5"/>
<text text-anchor="start" x="720" y="-554.5" font-family="Helvetica,sans-Serif" font-size="10.00">/github/workspace/src</text>
<text text-anchor="middle" x="795.5" y="-543.5" font-family="Helvetica,sans-Serif" font-size="10.00">/renderer/mastermaterialtemplate.h</text>
</a>
</g>
</g>
<!-- Node1&#45;&gt;Node31 -->
<g id="edge50" class="edge">
<title>Node1&#45;&gt;Node31</title>
<path fill="none" stroke="midnightblue" d="M857.74,-597.45C843.89,-587.45 827.48,-575.6 814.99,-566.58"/>
<polygon fill="midnightblue" stroke="midnightblue" points="855.82,-600.38 865.97,-603.4 859.91,-594.7 855.82,-600.38"/>
</g>
<!-- Node33 -->
<g id="node33" class="node">
<title>Node33</title>
<g id="a_node33"><a xlink:href="materialparameters_8cpp.html" target="_top" xlink:title=" ">
<polygon fill="none" stroke="black" points="897,-536.5 897,-566.5 1056,-566.5 1056,-536.5 897,-536.5"/>
<text text-anchor="start" x="905" y="-554.5" font-family="Helvetica,sans-Serif" font-size="10.00">/github/workspace/src</text>
<text text-anchor="middle" x="976.5" y="-543.5" font-family="Helvetica,sans-Serif" font-size="10.00">/renderer/materialparameters.cpp</text>
</a>
</g>
</g>
<!-- Node1&#45;&gt;Node33 -->
<g id="edge53" class="edge">
<title>Node1&#45;&gt;Node33</title>
<path fill="none" stroke="midnightblue" d="M913.57,-597.45C927.57,-587.45 944.16,-575.6 956.79,-566.58"/>
<polygon fill="midnightblue" stroke="midnightblue" points="911.35,-594.74 905.25,-603.4 915.42,-600.43 911.35,-594.74"/>
</g>
<!-- Node34 -->
<g id="node34" class="node">
<title>Node34</title>
<g id="a_node34"><a xlink:href="texture_8h.html" target="_top" xlink:title=" ">
<polygon fill="none" stroke="black" points="1074,-536.5 1074,-566.5 1187,-566.5 1187,-536.5 1074,-536.5"/>
<text text-anchor="start" x="1082" y="-554.5" font-family="Helvetica,sans-Serif" font-size="10.00">/github/workspace/src</text>
<text text-anchor="middle" x="1130.5" y="-543.5" font-family="Helvetica,sans-Serif" font-size="10.00">/renderer/texture.h</text>
</a>
</g>
</g>
<!-- Node1&#45;&gt;Node34 -->
<g id="edge54" class="edge">
<title>Node1&#45;&gt;Node34</title>
<path fill="none" stroke="midnightblue" d="M948.26,-600.85C988.2,-590.25 1039.37,-576.68 1077.31,-566.61"/>
<polygon fill="midnightblue" stroke="midnightblue" points="947.13,-597.53 938.36,-603.48 948.92,-604.29 947.13,-597.53"/>
</g>
<!-- Node3 -->
<g id="node3" class="node">
<title>Node3</title>
<g id="a_node3"><a xlink:href="mastermaterial_8cpp.html" target="_top" xlink:title=" ">
<polygon fill="none" stroke="black" points="259.5,-469.5 259.5,-499.5 399.5,-499.5 399.5,-469.5 259.5,-469.5"/>
<text text-anchor="start" x="267.5" y="-487.5" font-family="Helvetica,sans-Serif" font-size="10.00">/github/workspace/src</text>
<text text-anchor="middle" x="329.5" y="-476.5" font-family="Helvetica,sans-Serif" font-size="10.00">/renderer/mastermaterial.cpp</text>
</a>
</g>
</g>
<!-- Node2&#45;&gt;Node3 -->
<g id="edge2" class="edge">
<title>Node2&#45;&gt;Node3</title>
<path fill="none" stroke="midnightblue" d="M554.05,-534.32C504.91,-523.63 441.16,-509.77 394.15,-499.55"/>
<polygon fill="midnightblue" stroke="midnightblue" points="553.47,-537.77 563.99,-536.48 554.96,-530.93 553.47,-537.77"/>
</g>
<!-- Node4 -->
<g id="node4" class="node">
<title>Node4</title>
<g id="a_node4"><a xlink:href="material_8h.html" target="_top" xlink:title=" ">
<polygon fill="none" stroke="black" points="576,-469.5 576,-499.5 689,-499.5 689,-469.5 576,-469.5"/>
<text text-anchor="start" x="584" y="-487.5" font-family="Helvetica,sans-Serif" font-size="10.00">/github/workspace/src</text>
<text text-anchor="middle" x="632.5" y="-476.5" font-family="Helvetica,sans-Serif" font-size="10.00">/renderer/material.h</text>
</a>
</g>
</g>
<!-- Node2&#45;&gt;Node4 -->
<g id="edge3" class="edge">
<title>Node2&#45;&gt;Node4</title>
<path fill="none" stroke="midnightblue" d="M623.44,-526.11C623.56,-517.15 624.46,-507.32 625.96,-499.58"/>
<polygon fill="midnightblue" stroke="midnightblue" points="619.95,-526.48 623.69,-536.4 626.95,-526.31 619.95,-526.48"/>
</g>
<!-- Node6 -->
<g id="node6" class="node">
<title>Node6</title>
<g id="a_node6"><a xlink:href="materiallibrary_8h.html" target="_top" xlink:title=" ">
<polygon fill="none" stroke="black" points="718,-402.5 718,-432.5 843,-432.5 843,-402.5 718,-402.5"/>
<text text-anchor="start" x="726" y="-420.5" font-family="Helvetica,sans-Serif" font-size="10.00">/github/workspace/src</text>
<text text-anchor="middle" x="780.5" y="-409.5" font-family="Helvetica,sans-Serif" font-size="10.00">/renderer/materiallibrary.h</text>
</a>
</g>
</g>
<!-- Node2&#45;&gt;Node6 -->
<g id="edge49" class="edge">
<title>Node2&#45;&gt;Node6</title>
<path fill="none" stroke="midnightblue" d="M657.64,-530.59C670.22,-521.64 684.9,-510.7 697.5,-500 723.51,-477.91 751.35,-449.47 767.27,-432.69"/>
<polygon fill="midnightblue" stroke="midnightblue" points="655.48,-527.83 649.32,-536.44 659.51,-533.55 655.48,-527.83"/>
</g>
<!-- Node4&#45;&gt;Node2 -->
<g id="edge4" class="edge">
<title>Node4&#45;&gt;Node2</title>
<path fill="none" stroke="midnightblue" d="M637.56,-509.86C637.44,-518.81 636.54,-528.64 635.05,-536.4"/>
<polygon fill="midnightblue" stroke="midnightblue" points="641.05,-509.49 637.31,-499.58 634.05,-509.66 641.05,-509.49"/>
</g>
<!-- Node5 -->
<g id="node5" class="node">
<title>Node5</title>
<g id="a_node5"><a xlink:href="material_8cpp.html" target="_top" xlink:title=" ">
<polygon fill="none" stroke="black" points="587,-402.5 587,-432.5 700,-432.5 700,-402.5 587,-402.5"/>
<text text-anchor="start" x="595" y="-420.5" font-family="Helvetica,sans-Serif" font-size="10.00">/github/workspace/src</text>
<text text-anchor="middle" x="643.5" y="-409.5" font-family="Helvetica,sans-Serif" font-size="10.00">/renderer/material.cpp</text>
</a>
</g>
</g>
<!-- Node4&#45;&gt;Node5 -->
<g id="edge5" class="edge">
<title>Node4&#45;&gt;Node5</title>
<path fill="none" stroke="midnightblue" d="M636.58,-459.4C638.11,-450.37 639.79,-440.41 641.12,-432.58"/>
<polygon fill="midnightblue" stroke="midnightblue" points="633.1,-458.95 634.89,-469.4 640.01,-460.12 633.1,-458.95"/>
</g>
<!-- Node4&#45;&gt;Node6 -->
<g id="edge6" class="edge">
<title>Node4&#45;&gt;Node6</title>
<path fill="none" stroke="midnightblue" d="M668.18,-465.13C690.76,-454.8 719.81,-442.11 742.77,-432.58"/>
<polygon fill="midnightblue" stroke="midnightblue" points="666.55,-462.03 658.94,-469.4 669.48,-468.38 666.55,-462.03"/>
</g>
<!-- Node16 -->
<g id="node16" class="node">
<title>Node16</title>
<g id="a_node16"><a xlink:href="mesh_8h.html" target="_top" xlink:title=" ">
<polygon fill="none" stroke="black" points="456,-402.5 456,-432.5 569,-432.5 569,-402.5 456,-402.5"/>
<text text-anchor="start" x="464" y="-420.5" font-family="Helvetica,sans-Serif" font-size="10.00">/github/workspace/src</text>
<text text-anchor="middle" x="512.5" y="-409.5" font-family="Helvetica,sans-Serif" font-size="10.00">/renderer/mesh.h</text>
</a>
</g>
</g>
<!-- Node4&#45;&gt;Node16 -->
<g id="edge19" class="edge">
<title>Node4&#45;&gt;Node16</title>
<path fill="none" stroke="midnightblue" d="M597.56,-464.57C578.68,-454.35 555.77,-441.94 538.49,-432.58"/>
<polygon fill="midnightblue" stroke="midnightblue" points="596,-467.71 606.46,-469.4 599.34,-461.56 596,-467.71"/>
</g>
<!-- Node6&#45;&gt;Node4 -->
<g id="edge7" class="edge">
<title>Node6&#45;&gt;Node4</title>
<path fill="none" stroke="midnightblue" d="M744.89,-436.84C722.32,-447.16 693.26,-459.86 670.29,-469.4"/>
<polygon fill="midnightblue" stroke="midnightblue" points="746.51,-439.95 754.12,-432.58 743.58,-433.59 746.51,-439.95"/>
</g>
<!-- Node7 -->
<g id="node7" class="node">
<title>Node7</title>
<g id="a_node7"><a xlink:href="materiallibrary_8cpp.html" target="_top" xlink:title=" ">
<polygon fill="none" stroke="black" points="727.5,-335.5 727.5,-365.5 863.5,-365.5 863.5,-335.5 727.5,-335.5"/>
<text text-anchor="start" x="735.5" y="-353.5" font-family="Helvetica,sans-Serif" font-size="10.00">/github/workspace/src</text>
<text text-anchor="middle" x="795.5" y="-342.5" font-family="Helvetica,sans-Serif" font-size="10.00">/renderer/materiallibrary.cpp</text>
</a>
</g>
</g>
<!-- Node6&#45;&gt;Node7 -->
<g id="edge8" class="edge">
<title>Node6&#45;&gt;Node7</title>
<path fill="none" stroke="midnightblue" d="M786.06,-392.4C788.15,-383.37 790.44,-373.41 792.25,-365.58"/>
<polygon fill="midnightblue" stroke="midnightblue" points="782.59,-391.87 783.75,-402.4 789.41,-393.44 782.59,-391.87"/>
</g>
<!-- Node8 -->
<g id="node8" class="node">
<title>Node8</title>
<g id="a_node8"><a xlink:href="rendermanager_8h.html" target="_top" xlink:title=" ">
<polygon fill="none" stroke="black" points="826.5,-201.5 826.5,-231.5 956.5,-231.5 956.5,-201.5 826.5,-201.5"/>
<text text-anchor="start" x="834.5" y="-219.5" font-family="Helvetica,sans-Serif" font-size="10.00">/github/workspace/src</text>
<text text-anchor="middle" x="891.5" y="-208.5" font-family="Helvetica,sans-Serif" font-size="10.00">/renderer/rendermanager.h</text>
</a>
</g>
</g>
<!-- Node6&#45;&gt;Node8 -->
<g id="edge9" class="edge">
<title>Node6&#45;&gt;Node8</title>
<path fill="none" stroke="midnightblue" d="M833.81,-397.92C848.55,-390.25 863.07,-379.84 872.5,-366 901.04,-324.11 897.12,-259.88 893.64,-231.64"/>
<polygon fill="midnightblue" stroke="midnightblue" points="832.14,-394.84 824.65,-402.34 835.18,-401.14 832.14,-394.84"/>
</g>
<!-- Node9 -->
<g id="node9" class="node">
<title>Node9</title>
<g id="a_node9"><a xlink:href="rendermanager_8cpp.html" target="_top" xlink:title=" ">
<polygon fill="none" stroke="black" points="778.5,-134.5 778.5,-164.5 918.5,-164.5 918.5,-134.5 778.5,-134.5"/>
<text text-anchor="start" x="786.5" y="-152.5" font-family="Helvetica,sans-Serif" font-size="10.00">/github/workspace/src</text>
<text text-anchor="middle" x="848.5" y="-141.5" font-family="Helvetica,sans-Serif" font-size="10.00">/renderer/rendermanager.cpp</text>
</a>
</g>
</g>
<!-- Node8&#45;&gt;Node9 -->
<g id="edge10" class="edge">
<title>Node8&#45;&gt;Node9</title>
<path fill="none" stroke="midnightblue" d="M876.53,-192.87C870.3,-183.46 863.27,-172.83 857.81,-164.58"/>
<polygon fill="midnightblue" stroke="midnightblue" points="873.73,-194.99 882.17,-201.4 879.57,-191.12 873.73,-194.99"/>
</g>
<!-- Node10 -->
<g id="node10" class="node">
<title>Node10</title>
<g id="a_node10"><a xlink:href="scenewriter_8h.html" target="_top" xlink:title=" ">
<polygon fill="none" stroke="black" points="644.5,-134.5 644.5,-164.5 760.5,-164.5 760.5,-134.5 644.5,-134.5"/>
<text text-anchor="start" x="652.5" y="-152.5" font-family="Helvetica,sans-Serif" font-size="10.00">/github/workspace/src</text>
<text text-anchor="middle" x="702.5" y="-141.5" font-family="Helvetica,sans-Serif" font-size="10.00">/renderer/scenewriter.h</text>
</a>
</g>
</g>
<!-- Node8&#45;&gt;Node10 -->
<g id="edge11" class="edge">
<title>Node8&#45;&gt;Node10</title>
<path fill="none" stroke="midnightblue" d="M835.23,-198.23C803.61,-187.71 765.17,-174.45 737.76,-164.58"/>
<polygon fill="midnightblue" stroke="midnightblue" points="834.22,-201.58 844.81,-201.4 836.42,-194.93 834.22,-201.58"/>
</g>
<!-- Node15 -->
<g id="node15" class="node">
<title>Node15</title>
<g id="a_node15"><a xlink:href="vulkan__voxel__rasterizer__4_8cpp.html" target="_top" xlink:title=" ">
<polygon fill="none" stroke="black" points="508.5,-0.5 508.5,-30.5 682.5,-30.5 682.5,-0.5 508.5,-0.5"/>
<text text-anchor="start" x="516.5" y="-18.5" font-family="Helvetica,sans-Serif" font-size="10.00">/github/workspace/src</text>
<text text-anchor="middle" x="595.5" y="-7.5" font-family="Helvetica,sans-Serif" font-size="10.00">/tests/vulkan_voxel_rasterizer_4.cpp</text>
</a>
</g>
</g>
<!-- Node8&#45;&gt;Node15 -->
<g id="edge18" class="edge">
<title>Node8&#45;&gt;Node15</title>
<path fill="none" stroke="midnightblue" d="M911.76,-193.38C918.08,-185.1 924.24,-175.2 927.5,-165 940.77,-123.52 955.89,-100.03 927.5,-67 911.66,-48.57 775.59,-32.72 682.65,-23.91"/>
<polygon fill="midnightblue" stroke="midnightblue" points="908.84,-191.42 905.24,-201.39 914.27,-195.85 908.84,-191.42"/>
</g>
<!-- Node10&#45;&gt;Node8 -->
<g id="edge12" class="edge">
<title>Node10&#45;&gt;Node8</title>
<path fill="none" stroke="midnightblue" d="M758.68,-167.74C790.29,-178.25 828.73,-191.52 856.17,-201.4"/>
<polygon fill="midnightblue" stroke="midnightblue" points="759.7,-164.39 749.1,-164.58 757.5,-171.04 759.7,-164.39"/>
</g>
<!-- Node11 -->
<g id="node11" class="node">
<title>Node11</title>
<g id="a_node11"><a xlink:href="scenewriter_8cpp.html" target="_top" xlink:title=" ">
<polygon fill="none" stroke="black" points="614.5,-67.5 614.5,-97.5 740.5,-97.5 740.5,-67.5 614.5,-67.5"/>
<text text-anchor="start" x="622.5" y="-85.5" font-family="Helvetica,sans-Serif" font-size="10.00">/github/workspace/src</text>
<text text-anchor="middle" x="677.5" y="-74.5" font-family="Helvetica,sans-Serif" font-size="10.00">/renderer/scenewriter.cpp</text>
</a>
</g>
</g>
<!-- Node10&#45;&gt;Node11 -->
<g id="edge13" class="edge">
<title>Node10&#45;&gt;Node11</title>
<path fill="none" stroke="midnightblue" d="M693.46,-124.99C689.92,-115.8 685.99,-105.58 682.91,-97.58"/>
<polygon fill="midnightblue" stroke="midnightblue" points="690.22,-126.32 697.08,-134.4 696.75,-123.81 690.22,-126.32"/>
</g>
<!-- Node12 -->
<g id="node12" class="node">
<title>Node12</title>
<g id="a_node12"><a xlink:href="mainmenu_8h.html" target="_top" xlink:title=" ">
<polygon fill="none" stroke="black" points="797,-67.5 797,-97.5 918,-97.5 918,-67.5 797,-67.5"/>
<text text-anchor="start" x="805" y="-85.5" font-family="Helvetica,sans-Serif" font-size="10.00">/github/workspace/src</text>
<text text-anchor="middle" x="857.5" y="-74.5" font-family="Helvetica,sans-Serif" font-size="10.00">/renderer/ui/mainmenu.h</text>
</a>
</g>
</g>
<!-- Node10&#45;&gt;Node12 -->
<g id="edge14" class="edge">
<title>Node10&#45;&gt;Node12</title>
<path fill="none" stroke="midnightblue" d="M745.65,-130.41C770.39,-120.03 801,-107.2 823.93,-97.58"/>
<polygon fill="midnightblue" stroke="midnightblue" points="744,-127.3 736.13,-134.4 746.71,-133.76 744,-127.3"/>
</g>
<!-- Node13 -->
<g id="node13" class="node">
<title>Node13</title>
<g id="a_node13"><a xlink:href="mainmenu_8cpp.html" target="_top" xlink:title=" ">
<polygon fill="none" stroke="black" points="792,-0.5 792,-30.5 923,-30.5 923,-0.5 792,-0.5"/>
<text text-anchor="start" x="800" y="-18.5" font-family="Helvetica,sans-Serif" font-size="10.00">/github/workspace/src</text>
<text text-anchor="middle" x="857.5" y="-7.5" font-family="Helvetica,sans-Serif" font-size="10.00">/renderer/ui/mainmenu.cpp</text>
</a>
</g>
</g>
<!-- Node12&#45;&gt;Node13 -->
<g id="edge15" class="edge">
<title>Node12&#45;&gt;Node13</title>
<path fill="none" stroke="midnightblue" d="M857.5,-57.11C857.5,-48.15 857.5,-38.32 857.5,-30.58"/>
<polygon fill="midnightblue" stroke="midnightblue" points="854,-57.4 857.5,-67.4 861,-57.4 854,-57.4"/>
</g>
<!-- Node14 -->
<g id="node14" class="node">
<title>Node14</title>
<g id="a_node14"><a xlink:href="vulkan__voxel__rasterizer__3_8cpp.html" target="_top" xlink:title=" ">
<polygon fill="none" stroke="black" points="316.5,-0.5 316.5,-30.5 490.5,-30.5 490.5,-0.5 316.5,-0.5"/>
<text text-anchor="start" x="324.5" y="-18.5" font-family="Helvetica,sans-Serif" font-size="10.00">/github/workspace/src</text>
<text text-anchor="middle" x="403.5" y="-7.5" font-family="Helvetica,sans-Serif" font-size="10.00">/tests/vulkan_voxel_rasterizer_3.cpp</text>
</a>
</g>
</g>
<!-- Node12&#45;&gt;Node14 -->
<g id="edge16" class="edge">
<title>Node12&#45;&gt;Node14</title>
<path fill="none" stroke="midnightblue" d="M786.96,-67.73C785.46,-67.48 783.97,-67.24 782.5,-67 657.3,-46.96 625.08,-48.47 499.5,-31 496.58,-30.59 493.61,-30.17 490.61,-29.75"/>
<polygon fill="midnightblue" stroke="midnightblue" points="786.53,-71.21 796.98,-69.45 787.72,-64.31 786.53,-71.21"/>
</g>
<!-- Node12&#45;&gt;Node15 -->
<g id="edge17" class="edge">
<title>Node12&#45;&gt;Node15</title>
<path fill="none" stroke="midnightblue" d="M791.2,-65.05C748.37,-54.43 693.21,-40.74 652.38,-30.61"/>
<polygon fill="midnightblue" stroke="midnightblue" points="790.42,-68.47 800.97,-67.48 792.11,-61.67 790.42,-68.47"/>
</g>
<!-- Node16&#45;&gt;Node2 -->
<g id="edge20" class="edge">
<title>Node16&#45;&gt;Node2</title>
<path fill="none" stroke="midnightblue" d="M525.16,-441.45C535.17,-458.55 550.15,-481.96 566.5,-500 578.99,-513.78 595.39,-526.98 608.19,-536.42"/>
<polygon fill="midnightblue" stroke="midnightblue" points="528.14,-439.61 520.13,-432.67 522.06,-443.09 528.14,-439.61"/>
</g>
<!-- Node17 -->
<g id="node17" class="node">
<title>Node17</title>
<g id="a_node17"><a xlink:href="mesh_8cpp.html" target="_top" xlink:title=" ">
<polygon fill="none" stroke="black" points="422,-335.5 422,-365.5 535,-365.5 535,-335.5 422,-335.5"/>
<text text-anchor="start" x="430" y="-353.5" font-family="Helvetica,sans-Serif" font-size="10.00">/github/workspace/src</text>
<text text-anchor="middle" x="478.5" y="-342.5" font-family="Helvetica,sans-Serif" font-size="10.00">/renderer/mesh.cpp</text>
</a>
</g>
</g>
<!-- Node16&#45;&gt;Node17 -->
<g id="edge21" class="edge">
<title>Node16&#45;&gt;Node17</title>
<path fill="none" stroke="midnightblue" d="M500.36,-393.28C495.51,-384.02 490.09,-373.66 485.86,-365.58"/>
<polygon fill="midnightblue" stroke="midnightblue" points="497.39,-395.16 505.12,-402.4 503.59,-391.91 497.39,-395.16"/>
</g>
<!-- Node18 -->
<g id="node18" class="node">
<title>Node18</title>
<g id="a_node18"><a xlink:href="meshlibrary_8h.html" target="_top" xlink:title=" ">
<polygon fill="none" stroke="black" points="733,-268.5 733,-298.5 848,-298.5 848,-268.5 733,-268.5"/>
<text text-anchor="start" x="741" y="-286.5" font-family="Helvetica,sans-Serif" font-size="10.00">/github/workspace/src</text>
<text text-anchor="middle" x="790.5" y="-275.5" font-family="Helvetica,sans-Serif" font-size="10.00">/renderer/meshlibrary.h</text>
</a>
</g>
</g>
<!-- Node16&#45;&gt;Node18 -->
<g id="edge22" class="edge">
<title>Node16&#45;&gt;Node18</title>
<path fill="none" stroke="midnightblue" d="M577.4,-399.79C616.58,-389.17 662.34,-375.65 680.5,-366 699.75,-355.78 701.12,-348.16 718.5,-335 735.3,-322.28 754.91,-308.6 769.42,-298.69"/>
<polygon fill="midnightblue" stroke="midnightblue" points="576.35,-396.45 567.6,-402.43 578.17,-403.21 576.35,-396.45"/>
</g>
<!-- Node20 -->
<g id="node20" class="node">
<title>Node20</title>
<g id="a_node20"><a xlink:href="modelloader_8h.html" target="_top" xlink:title=" ">
<polygon fill="none" stroke="black" points="553.5,-335.5 553.5,-365.5 671.5,-365.5 671.5,-335.5 553.5,-335.5"/>
<text text-anchor="start" x="561.5" y="-353.5" font-family="Helvetica,sans-Serif" font-size="10.00">/github/workspace/src</text>
<text text-anchor="middle" x="612.5" y="-342.5" font-family="Helvetica,sans-Serif" font-size="10.00">/renderer/modelloader.h</text>
</a>
</g>
</g>
<!-- Node16&#45;&gt;Node20 -->
<g id="edge25" class="edge">
<title>Node16&#45;&gt;Node20</title>
<path fill="none" stroke="midnightblue" d="M542.91,-396.73C558.38,-386.68 576.83,-374.68 590.84,-365.58"/>
<polygon fill="midnightblue" stroke="midnightblue" points="540.68,-394.01 534.2,-402.4 544.49,-399.88 540.68,-394.01"/>
</g>
<!-- Node23 -->
<g id="node23" class="node">
<title>Node23</title>
<g id="a_node23"><a xlink:href="objectinstance_8h.html" target="_top" xlink:title=" ">
<polygon fill="none" stroke="black" points="275.5,-335.5 275.5,-365.5 403.5,-365.5 403.5,-335.5 275.5,-335.5"/>
<text text-anchor="start" x="283.5" y="-353.5" font-family="Helvetica,sans-Serif" font-size="10.00">/github/workspace/src</text>
<text text-anchor="middle" x="339.5" y="-342.5" font-family="Helvetica,sans-Serif" font-size="10.00">/renderer/objectinstance.h</text>
</a>
</g>
</g>
<!-- Node16&#45;&gt;Node23 -->
<g id="edge31" class="edge">
<title>Node16&#45;&gt;Node23</title>
<path fill="none" stroke="midnightblue" d="M465.44,-398.82C437.63,-388.37 402.91,-375.32 376.97,-365.58"/>
<polygon fill="midnightblue" stroke="midnightblue" points="464.37,-402.16 474.96,-402.4 466.83,-395.6 464.37,-402.16"/>
</g>
<!-- Node18&#45;&gt;Node8 -->
<g id="edge24" class="edge">
<title>Node18&#45;&gt;Node8</title>
<path fill="none" stroke="midnightblue" d="M821.21,-262.73C836.84,-252.68 855.47,-240.68 869.63,-231.58"/>
<polygon fill="midnightblue" stroke="midnightblue" points="818.93,-260.04 812.42,-268.4 822.72,-265.93 818.93,-260.04"/>
</g>
<!-- Node19 -->
<g id="node19" class="node">
<title>Node19</title>
<g id="a_node19"><a xlink:href="meshlibrary_8cpp.html" target="_top" xlink:title=" ">
<polygon fill="none" stroke="black" points="683,-201.5 683,-231.5 808,-231.5 808,-201.5 683,-201.5"/>
<text text-anchor="start" x="691" y="-219.5" font-family="Helvetica,sans-Serif" font-size="10.00">/github/workspace/src</text>
<text text-anchor="middle" x="745.5" y="-208.5" font-family="Helvetica,sans-Serif" font-size="10.00">/renderer/meshlibrary.cpp</text>
</a>
</g>
</g>
<!-- Node18&#45;&gt;Node19 -->
<g id="edge23" class="edge">
<title>Node18&#45;&gt;Node19</title>
<path fill="none" stroke="midnightblue" d="M775.03,-260.16C768.47,-250.68 761.02,-239.92 755.25,-231.58"/>
<polygon fill="midnightblue" stroke="midnightblue" points="772.17,-262.17 780.74,-268.4 777.92,-258.18 772.17,-262.17"/>
</g>
<!-- Node20&#45;&gt;Node14 -->
<g id="edge29" class="edge">
<title>Node20&#45;&gt;Node14</title>
<path fill="none" stroke="midnightblue" d="M570.24,-330.08C558.09,-322.25 546.29,-311.96 539.5,-299 533.1,-286.8 532.8,-280.04 539.5,-268 554.25,-241.49 582.75,-258.51 597.5,-232 604.2,-219.96 602.93,-213.66 597.5,-201 562.59,-119.63 472.21,-57.19 428.25,-30.57"/>
<polygon fill="midnightblue" stroke="midnightblue" points="568.71,-333.23 579.09,-335.34 572.29,-327.22 568.71,-333.23"/>
</g>
<!-- Node20&#45;&gt;Node15 -->
<g id="edge30" class="edge">
<title>Node20&#45;&gt;Node15</title>
<path fill="none" stroke="midnightblue" d="M654.76,-330.08C666.91,-322.25 678.71,-311.96 685.5,-299 691.9,-286.8 688.59,-281.43 685.5,-268 674.1,-218.41 657.01,-211.12 635.5,-165 621.71,-135.43 614.25,-129.43 605.5,-98 599.08,-74.93 596.78,-47.04 595.96,-30.59"/>
<polygon fill="midnightblue" stroke="midnightblue" points="652.71,-327.22 645.91,-335.34 656.29,-333.23 652.71,-327.22"/>
</g>
<!-- Node20&#45;&gt;Node18 -->
<g id="edge26" class="edge">
<title>Node20&#45;&gt;Node18</title>
<path fill="none" stroke="midnightblue" d="M660.55,-331.96C689.22,-321.48 725.14,-308.37 751.95,-298.58"/>
<polygon fill="midnightblue" stroke="midnightblue" points="659.32,-328.68 651.12,-335.4 661.72,-335.25 659.32,-328.68"/>
</g>
<!-- Node21 -->
<g id="node21" class="node">
<title>Node21</title>
<g id="a_node21"><a xlink:href="modelloader_8cpp.html" target="_top" xlink:title=" ">
<polygon fill="none" stroke="black" points="548.5,-268.5 548.5,-298.5 676.5,-298.5 676.5,-268.5 548.5,-268.5"/>
<text text-anchor="start" x="556.5" y="-286.5" font-family="Helvetica,sans-Serif" font-size="10.00">/github/workspace/src</text>
<text text-anchor="middle" x="612.5" y="-275.5" font-family="Helvetica,sans-Serif" font-size="10.00">/renderer/modelloader.cpp</text>
</a>
</g>
</g>
<!-- Node20&#45;&gt;Node21 -->
<g id="edge27" class="edge">
<title>Node20&#45;&gt;Node21</title>
<path fill="none" stroke="midnightblue" d="M612.5,-325.11C612.5,-316.15 612.5,-306.32 612.5,-298.58"/>
<polygon fill="midnightblue" stroke="midnightblue" points="609,-325.4 612.5,-335.4 616,-325.4 609,-325.4"/>
</g>
<!-- Node22 -->
<g id="node22" class="node">
<title>Node22</title>
<g id="a_node22"><a xlink:href="vulkan__voxel__rasterizer__2_8cpp.html" target="_top" xlink:title=" ">
<polygon fill="none" stroke="black" points="414.5,-201.5 414.5,-231.5 588.5,-231.5 588.5,-201.5 414.5,-201.5"/>
<text text-anchor="start" x="422.5" y="-219.5" font-family="Helvetica,sans-Serif" font-size="10.00">/github/workspace/src</text>
<text text-anchor="middle" x="501.5" y="-208.5" font-family="Helvetica,sans-Serif" font-size="10.00">/tests/vulkan_voxel_rasterizer_2.cpp</text>
</a>
</g>
</g>
<!-- Node20&#45;&gt;Node22 -->
<g id="edge28" class="edge">
<title>Node20&#45;&gt;Node22</title>
<path fill="none" stroke="midnightblue" d="M547.15,-331.41C531.38,-323.92 516.27,-313.48 506.5,-299 492.86,-278.79 495.29,-248.95 498.36,-231.54"/>
<polygon fill="midnightblue" stroke="midnightblue" points="545.91,-334.69 556.48,-335.48 548.72,-328.27 545.91,-334.69"/>
</g>
<!-- Node23&#45;&gt;Node2 -->
<g id="edge32" class="edge">
<title>Node23&#45;&gt;Node2</title>
<path fill="none" stroke="midnightblue" d="M364.65,-371.93C401.8,-401.7 474.01,-458 539.5,-500 559.99,-513.14 584.04,-526.68 601.97,-536.43"/>
<polygon fill="midnightblue" stroke="midnightblue" points="366.83,-369.19 356.85,-365.65 362.44,-374.65 366.83,-369.19"/>
</g>
<!-- Node24 -->
<g id="node24" class="node">
<title>Node24</title>
<g id="a_node24"><a xlink:href="objectinstance_8cpp.html" target="_top" xlink:title=" ">
<polygon fill="none" stroke="black" points="131,-268.5 131,-298.5 270,-298.5 270,-268.5 131,-268.5"/>
<text text-anchor="start" x="139" y="-286.5" font-family="Helvetica,sans-Serif" font-size="10.00">/github/workspace/src</text>
<text text-anchor="middle" x="200.5" y="-275.5" font-family="Helvetica,sans-Serif" font-size="10.00">/renderer/objectinstance.cpp</text>
</a>
</g>
</g>
<!-- Node23&#45;&gt;Node24 -->
<g id="edge33" class="edge">
<title>Node23&#45;&gt;Node24</title>
<path fill="none" stroke="midnightblue" d="M300.22,-331.13C278.13,-320.8 250.99,-308.11 230.6,-298.58"/>
<polygon fill="midnightblue" stroke="midnightblue" points="298.8,-334.33 309.34,-335.4 301.76,-327.99 298.8,-334.33"/>
</g>
<!-- Node25 -->
<g id="node25" class="node">
<title>Node25</title>
<g id="a_node25"><a xlink:href="scene_8h.html" target="_top" xlink:title=" ">
<polygon fill="none" stroke="black" points="288,-268.5 288,-298.5 401,-298.5 401,-268.5 288,-268.5"/>
<text text-anchor="start" x="296" y="-286.5" font-family="Helvetica,sans-Serif" font-size="10.00">/github/workspace/src</text>
<text text-anchor="middle" x="344.5" y="-275.5" font-family="Helvetica,sans-Serif" font-size="10.00">/renderer/scene.h</text>
</a>
</g>
</g>
<!-- Node23&#45;&gt;Node25 -->
<g id="edge34" class="edge">
<title>Node23&#45;&gt;Node25</title>
<path fill="none" stroke="midnightblue" d="M341.35,-325.4C342.05,-316.37 342.81,-306.41 343.42,-298.58"/>
<polygon fill="midnightblue" stroke="midnightblue" points="337.86,-325.16 340.58,-335.4 344.84,-325.69 337.86,-325.16"/>
</g>
<!-- Node25&#45;&gt;Node8 -->
<g id="edge35" class="edge">
<title>Node25&#45;&gt;Node8</title>
<path fill="none" stroke="midnightblue" d="M411.25,-277.15C502.89,-269.39 672.69,-253.56 816.5,-232 819.65,-231.53 822.86,-231.02 826.11,-230.48"/>
<polygon fill="midnightblue" stroke="midnightblue" points="410.68,-273.68 401,-278.01 411.26,-280.66 410.68,-273.68"/>
</g>
<!-- Node25&#45;&gt;Node12 -->
<g id="edge37" class="edge">
<title>Node25&#45;&gt;Node12</title>
<path fill="none" stroke="midnightblue" d="M356.21,-259.56C366.74,-241.15 383.85,-216 405.5,-201 469.07,-156.96 688.85,-113.32 796.76,-93.93"/>
<polygon fill="midnightblue" stroke="midnightblue" points="353.06,-258.02 351.32,-268.48 359.2,-261.39 353.06,-258.02"/>
</g>
<!-- Node25&#45;&gt;Node14 -->
<g id="edge47" class="edge">
<title>Node25&#45;&gt;Node14</title>
<path fill="none" stroke="midnightblue" d="M277.7,-267.57C243.69,-258.48 207.45,-245.94 197.5,-232 189.5,-220.79 191.88,-213.58 197.5,-201 207.73,-178.1 338.56,-69.62 386.25,-30.56"/>
<polygon fill="midnightblue" stroke="midnightblue" points="277.11,-271.04 287.67,-270.16 278.87,-264.26 277.11,-271.04"/>
</g>
<!-- Node25&#45;&gt;Node15 -->
<g id="edge48" class="edge">
<title>Node25&#45;&gt;Node15</title>
<path fill="none" stroke="midnightblue" d="M348.71,-258.65C352.57,-241.5 359.57,-218.41 371.5,-201 426.05,-121.42 524.33,-57.66 570.39,-30.58"/>
<polygon fill="midnightblue" stroke="midnightblue" points="345.28,-257.96 346.69,-268.47 352.13,-259.38 345.28,-257.96"/>
</g>
<!-- Node25&#45;&gt;Node22 -->
<g id="edge46" class="edge">
<title>Node25&#45;&gt;Node22</title>
<path fill="none" stroke="midnightblue" d="M387.87,-264.54C412.99,-254.14 444.16,-241.24 467.5,-231.58"/>
<polygon fill="midnightblue" stroke="midnightblue" points="386.47,-261.34 378.57,-268.4 389.14,-267.8 386.47,-261.34"/>
</g>
<!-- Node26 -->
<g id="node26" class="node">
<title>Node26</title>
<g id="a_node26"><a xlink:href="scene_8cpp.html" target="_top" xlink:title=" ">
<polygon fill="none" stroke="black" points="207,-201.5 207,-231.5 320,-231.5 320,-201.5 207,-201.5"/>
<text text-anchor="start" x="215" y="-219.5" font-family="Helvetica,sans-Serif" font-size="10.00">/github/workspace/src</text>
<text text-anchor="middle" x="263.5" y="-208.5" font-family="Helvetica,sans-Serif" font-size="10.00">/renderer/scene.cpp</text>
</a>
</g>
</g>
<!-- Node25&#45;&gt;Node26 -->
<g id="edge36" class="edge">
<title>Node25&#45;&gt;Node26</title>
<path fill="none" stroke="midnightblue" d="M318.81,-261.88C306.5,-252.01 292.07,-240.43 281.04,-231.58"/>
<polygon fill="midnightblue" stroke="midnightblue" points="316.93,-264.87 326.92,-268.4 321.32,-259.41 316.93,-264.87"/>
</g>
<!-- Node27 -->
<g id="node27" class="node">
<title>Node27</title>
<g id="a_node27"><a xlink:href="objectlist_8h.html" target="_top" xlink:title=" ">
<polygon fill="none" stroke="black" points="15,-67.5 15,-97.5 130,-97.5 130,-67.5 15,-67.5"/>
<text text-anchor="start" x="23" y="-85.5" font-family="Helvetica,sans-Serif" font-size="10.00">/github/workspace/src</text>
<text text-anchor="middle" x="72.5" y="-74.5" font-family="Helvetica,sans-Serif" font-size="10.00">/renderer/ui/objectlist.h</text>
</a>
</g>
</g>
<!-- Node25&#45;&gt;Node27 -->
<g id="edge38" class="edge">
<title>Node25&#45;&gt;Node27</title>
<path fill="none" stroke="midnightblue" d="M278.07,-266.56C223.97,-253.36 155.71,-236.14 150.5,-232 105.57,-196.33 83.6,-127.62 75.86,-97.84"/>
<polygon fill="midnightblue" stroke="midnightblue" points="277.44,-270.01 287.98,-268.97 279.09,-263.21 277.44,-270.01"/>
</g>
<!-- Node29 -->
<g id="node29" class="node">
<title>Node29</title>
<g id="a_node29"><a xlink:href="objectproperties_8h.html" target="_top" xlink:title=" ">
<polygon fill="none" stroke="black" points="148,-67.5 148,-97.5 293,-97.5 293,-67.5 148,-67.5"/>
<text text-anchor="start" x="156" y="-85.5" font-family="Helvetica,sans-Serif" font-size="10.00">/github/workspace/src</text>
<text text-anchor="middle" x="220.5" y="-74.5" font-family="Helvetica,sans-Serif" font-size="10.00">/renderer/ui/objectproperties.h</text>
</a>
</g>
</g>
<!-- Node25&#45;&gt;Node29 -->
<g id="edge42" class="edge">
<title>Node25&#45;&gt;Node29</title>
<path fill="none" stroke="midnightblue" d="M278.43,-265.95C228.58,-253.15 168.15,-236.82 164.5,-232 132.21,-189.4 181.02,-126.09 206.55,-97.92"/>
<polygon fill="midnightblue" stroke="midnightblue" points="277.68,-269.37 288.23,-268.46 279.41,-262.59 277.68,-269.37"/>
</g>
<!-- Node27&#45;&gt;Node14 -->
<g id="edge40" class="edge">
<title>Node27&#45;&gt;Node14</title>
<path fill="none" stroke="midnightblue" d="M140.16,-66.69C208.53,-52.74 276.36,-39.89 326.85,-30.52"/>
<polygon fill="midnightblue" stroke="midnightblue" points="139.17,-63.32 130.07,-68.75 140.57,-70.18 139.17,-63.32"/>
</g>
<!-- Node27&#45;&gt;Node15 -->
<g id="edge41" class="edge">
<title>Node27&#45;&gt;Node15</title>
<path fill="none" stroke="midnightblue" d="M140.18,-66.85C299.5,-42.03 342.79,-50.64 499.5,-31 502.43,-30.63 505.4,-30.25 508.41,-29.85"/>
<polygon fill="midnightblue" stroke="midnightblue" points="139.35,-63.43 130.02,-68.45 140.44,-70.35 139.35,-63.43"/>
</g>
<!-- Node28 -->
<g id="node28" class="node">
<title>Node28</title>
<g id="a_node28"><a xlink:href="objectlist_8cpp.html" target="_top" xlink:title=" ">
<polygon fill="none" stroke="black" points="0,-0.5 0,-30.5 125,-30.5 125,-0.5 0,-0.5"/>
<text text-anchor="start" x="8" y="-18.5" font-family="Helvetica,sans-Serif" font-size="10.00">/github/workspace/src</text>
<text text-anchor="middle" x="62.5" y="-7.5" font-family="Helvetica,sans-Serif" font-size="10.00">/renderer/ui/objectlist.cpp</text>
</a>
</g>
</g>
<!-- Node27&#45;&gt;Node28 -->
<g id="edge39" class="edge">
<title>Node27&#45;&gt;Node28</title>
<path fill="none" stroke="midnightblue" d="M68.79,-57.4C67.4,-48.37 65.87,-38.41 64.67,-30.58"/>
<polygon fill="midnightblue" stroke="midnightblue" points="65.35,-58.04 70.33,-67.4 72.27,-56.98 65.35,-58.04"/>
</g>
<!-- Node29&#45;&gt;Node14 -->
<g id="edge44" class="edge">
<title>Node29&#45;&gt;Node14</title>
<path fill="none" stroke="midnightblue" d="M269.9,-63.96C299.37,-53.48 336.31,-40.37 363.87,-30.58"/>
<polygon fill="midnightblue" stroke="midnightblue" points="268.46,-60.75 260.21,-67.4 270.8,-67.35 268.46,-60.75"/>
</g>
<!-- Node29&#45;&gt;Node15 -->
<g id="edge45" class="edge">
<title>Node29&#45;&gt;Node15</title>
<path fill="none" stroke="midnightblue" d="M303.13,-67.18C365.99,-56.28 452.04,-41.37 514.5,-30.54"/>
<polygon fill="midnightblue" stroke="midnightblue" points="302.5,-63.73 293.25,-68.89 303.7,-70.63 302.5,-63.73"/>
</g>
<!-- Node30 -->
<g id="node30" class="node">
<title>Node30</title>
<g id="a_node30"><a xlink:href="objectproperties_8cpp.html" target="_top" xlink:title=" ">
<polygon fill="none" stroke="black" points="143,-0.5 143,-30.5 298,-30.5 298,-0.5 143,-0.5"/>
<text text-anchor="start" x="151" y="-18.5" font-family="Helvetica,sans-Serif" font-size="10.00">/github/workspace/src</text>
<text text-anchor="middle" x="220.5" y="-7.5" font-family="Helvetica,sans-Serif" font-size="10.00">/renderer/ui/objectproperties.cpp</text>
</a>
</g>
</g>
<!-- Node29&#45;&gt;Node30 -->
<g id="edge43" class="edge">
<title>Node29&#45;&gt;Node30</title>
<path fill="none" stroke="midnightblue" d="M220.5,-57.11C220.5,-48.15 220.5,-38.32 220.5,-30.58"/>
<polygon fill="midnightblue" stroke="midnightblue" points="217,-57.4 220.5,-67.4 224,-57.4 217,-57.4"/>
</g>
<!-- Node31&#45;&gt;Node6 -->
<g id="edge52" class="edge">
<title>Node31&#45;&gt;Node6</title>
<path fill="none" stroke="midnightblue" d="M783.59,-527.26C779.91,-518.9 776.34,-509.24 774.5,-500 769.86,-476.77 773.83,-449.16 777.15,-432.78"/>
<polygon fill="midnightblue" stroke="midnightblue" points="780.45,-528.82 787.86,-536.39 786.79,-525.85 780.45,-528.82"/>
</g>
<!-- Node32 -->
<g id="node32" class="node">
<title>Node32</title>
<g id="a_node32"><a xlink:href="mastermaterialtemplate_8cpp.html" target="_top" xlink:title=" ">
<polygon fill="none" stroke="black" points="783.5,-469.5 783.5,-499.5 961.5,-499.5 961.5,-469.5 783.5,-469.5"/>
<text text-anchor="start" x="791.5" y="-487.5" font-family="Helvetica,sans-Serif" font-size="10.00">/github/workspace/src</text>
<text text-anchor="middle" x="872.5" y="-476.5" font-family="Helvetica,sans-Serif" font-size="10.00">/renderer/mastermaterialtemplate.cpp</text>
</a>
</g>
</g>
<!-- Node31&#45;&gt;Node32 -->
<g id="edge51" class="edge">
<title>Node31&#45;&gt;Node32</title>
<path fill="none" stroke="midnightblue" d="M819.92,-529.88C831.62,-520.01 845.34,-508.43 855.82,-499.58"/>
<polygon fill="midnightblue" stroke="midnightblue" points="817.59,-527.27 812.21,-536.4 822.11,-532.62 817.59,-527.27"/>
</g>
<!-- Node34&#45;&gt;Node4 -->
<g id="edge55" class="edge">
<title>Node34&#45;&gt;Node4</title>
<path fill="none" stroke="midnightblue" d="M1063.98,-535.88C978.56,-522.25 785.44,-501.46 689.07,-491.36"/>
<polygon fill="midnightblue" stroke="midnightblue" points="1063.41,-539.33 1073.85,-537.5 1064.55,-532.42 1063.41,-539.33"/>
</g>
<!-- Node34&#45;&gt;Node12 -->
<g id="edge63" class="edge">
<title>Node34&#45;&gt;Node12</title>
<path fill="none" stroke="midnightblue" d="M1153.58,-529.14C1177.21,-504.84 1210.5,-462.75 1210.5,-418.5 1210.5,-418.5 1210.5,-418.5 1210.5,-282.5 1210.5,-149.89 1019.11,-104.67 918.18,-90.05"/>
<polygon fill="midnightblue" stroke="midnightblue" points="1150.92,-526.85 1146.31,-536.38 1155.86,-531.81 1150.92,-526.85"/>
</g>
<!-- Node35 -->
<g id="node35" class="node">
<title>Node35</title>
<g id="a_node35"><a xlink:href="texture_8cpp.html" target="_top" xlink:title=" ">
<polygon fill="none" stroke="black" points="980,-469.5 980,-499.5 1093,-499.5 1093,-469.5 980,-469.5"/>
<text text-anchor="start" x="988" y="-487.5" font-family="Helvetica,sans-Serif" font-size="10.00">/github/workspace/src</text>
<text text-anchor="middle" x="1036.5" y="-476.5" font-family="Helvetica,sans-Serif" font-size="10.00">/renderer/texture.cpp</text>
</a>
</g>
</g>
<!-- Node34&#45;&gt;Node35 -->
<g id="edge56" class="edge">
<title>Node34&#45;&gt;Node35</title>
<path fill="none" stroke="midnightblue" d="M1101.51,-530.45C1087.05,-520.45 1069.91,-508.6 1056.86,-499.58"/>
<polygon fill="midnightblue" stroke="midnightblue" points="1099.89,-533.59 1110.1,-536.4 1103.87,-527.83 1099.89,-533.59"/>
</g>
<!-- Node36 -->
<g id="node36" class="node">
<title>Node36</title>
<g id="a_node36"><a xlink:href="texturelibrary_8h.html" target="_top" xlink:title=" ">
<polygon fill="none" stroke="black" points="1055.5,-268.5 1055.5,-298.5 1175.5,-298.5 1175.5,-268.5 1055.5,-268.5"/>
<text text-anchor="start" x="1063.5" y="-286.5" font-family="Helvetica,sans-Serif" font-size="10.00">/github/workspace/src</text>
<text text-anchor="middle" x="1115.5" y="-275.5" font-family="Helvetica,sans-Serif" font-size="10.00">/renderer/texturelibrary.h</text>
</a>
</g>
</g>
<!-- Node34&#45;&gt;Node36 -->
<g id="edge57" class="edge">
<title>Node34&#45;&gt;Node36</title>
<path fill="none" stroke="midnightblue" d="M1125.02,-526.07C1118.15,-471.57 1111.1,-341.52 1113.05,-298.55"/>
<polygon fill="midnightblue" stroke="midnightblue" points="1121.58,-526.78 1126.43,-536.2 1128.52,-525.81 1121.58,-526.78"/>
</g>
<!-- Node36&#45;&gt;Node8 -->
<g id="edge58" class="edge">
<title>Node36&#45;&gt;Node8</title>
<path fill="none" stroke="midnightblue" d="M1057.19,-265.58C1020.81,-255.02 974.53,-241.59 940.13,-231.61"/>
<polygon fill="midnightblue" stroke="midnightblue" points="1056.59,-269.05 1067.17,-268.48 1058.54,-262.33 1056.59,-269.05"/>
</g>
<!-- Node36&#45;&gt;Node14 -->
<g id="edge61" class="edge">
<title>Node36&#45;&gt;Node14</title>
<path fill="none" stroke="midnightblue" d="M1063.12,-264.71C1043.55,-256.57 1021.88,-245.66 1004.5,-232 960.94,-197.78 973.86,-164.32 927.5,-134 874.09,-99.07 845.61,-126.47 788.5,-98 768.68,-88.12 769.83,-75.77 749.5,-67 646.43,-22.53 610.56,-47.38 499.5,-31 496.58,-30.57 493.61,-30.13 490.62,-29.69"/>
<polygon fill="midnightblue" stroke="midnightblue" points="1061.94,-268.01 1072.53,-268.49 1064.55,-261.52 1061.94,-268.01"/>
</g>
<!-- Node36&#45;&gt;Node15 -->
<g id="edge62" class="edge">
<title>Node36&#45;&gt;Node15</title>
<path fill="none" stroke="midnightblue" d="M1136.99,-260.83C1150.77,-244.21 1164.23,-220.82 1153.5,-201 1101.7,-105.26 1050.35,-105.4 948.5,-67 901.29,-49.2 771.09,-33.59 682.72,-24.6"/>
<polygon fill="midnightblue" stroke="midnightblue" points="1134.3,-258.59 1130.31,-268.41 1139.55,-263.23 1134.3,-258.59"/>
</g>
<!-- Node36&#45;&gt;Node34 -->
<g id="edge59" class="edge">
<title>Node36&#45;&gt;Node34</title>
<path fill="none" stroke="midnightblue" d="M1120.94,-308.62C1127.81,-362.82 1134.87,-492.89 1132.96,-536.2"/>
<polygon fill="midnightblue" stroke="midnightblue" points="1124.39,-307.97 1119.53,-298.55 1117.45,-308.94 1124.39,-307.97"/>
</g>
<!-- Node37 -->
<g id="node37" class="node">
<title>Node37</title>
<g id="a_node37"><a xlink:href="texturelibrary_8cpp.html" target="_top" xlink:title=" ">
<polygon fill="none" stroke="black" points="1013,-201.5 1013,-231.5 1144,-231.5 1144,-201.5 1013,-201.5"/>
<text text-anchor="start" x="1021" y="-219.5" font-family="Helvetica,sans-Serif" font-size="10.00">/github/workspace/src</text>
<text text-anchor="middle" x="1078.5" y="-208.5" font-family="Helvetica,sans-Serif" font-size="10.00">/renderer/texturelibrary.cpp</text>
</a>
</g>
</g>
<!-- Node36&#45;&gt;Node37 -->
<g id="edge60" class="edge">
<title>Node36&#45;&gt;Node37</title>
<path fill="none" stroke="midnightblue" d="M1102.45,-259.58C1097.14,-250.24 1091.16,-239.75 1086.51,-231.58"/>
<polygon fill="midnightblue" stroke="midnightblue" points="1099.48,-261.44 1107.47,-268.4 1105.57,-257.97 1099.48,-261.44"/>
</g>
</g>
</svg>
