<?xml version="1.0" encoding="UTF-8" standalone="no"?>
<!DOCTYPE svg PUBLIC "-//W3C//DTD SVG 1.1//EN"
 "http://www.w3.org/Graphics/SVG/1.1/DTD/svg11.dtd">
<!-- Generated by graphviz version 2.49.3 (20211215.1918)
 -->
<!-- Title: /github/workspace/src/renderer/mesh.h Pages: 1 -->
<svg width="1229pt" height="374pt"
 viewBox="0.00 0.00 1228.50 374.00" xmlns="http://www.w3.org/2000/svg" xmlns:xlink="http://www.w3.org/1999/xlink">
<g id="graph0" class="graph" transform="scale(1 1) rotate(0) translate(4 370)">
<title>/github/workspace/src/renderer/mesh.h</title>
<!-- Node1 -->
<g id="node1" class="node">
<title>Node1</title>
<g id="a_node1"><a xlink:title=" ">
<polygon fill="#bfbfbf" stroke="black" points="350,-335.5 350,-365.5 463,-365.5 463,-335.5 350,-335.5"/>
<text text-anchor="start" x="358" y="-353.5" font-family="Helvetica,sans-Serif" font-size="10.00">/github/workspace/src</text>
<text text-anchor="middle" x="406.5" y="-342.5" font-family="Helvetica,sans-Serif" font-size="10.00">/renderer/mesh.h</text>
</a>
</g>
</g>
<!-- Node2 -->
<g id="node2" class="node">
<title>Node2</title>
<g id="a_node2"><a xlink:href="mastermaterial_8h.html" target="_top" xlink:title=" ">
<polygon fill="none" stroke="black" points="204.5,-201.5 204.5,-231.5 334.5,-231.5 334.5,-201.5 204.5,-201.5"/>
<text text-anchor="start" x="212.5" y="-219.5" font-family="Helvetica,sans-Serif" font-size="10.00">/github/workspace/src</text>
<text text-anchor="middle" x="269.5" y="-208.5" font-family="Helvetica,sans-Serif" font-size="10.00">/renderer/mastermaterial.h</text>
</a>
</g>
</g>
<!-- Node1&#45;&gt;Node2 -->
<g id="edge1" class="edge">
<title>Node1&#45;&gt;Node2</title>
<path fill="none" stroke="midnightblue" d="M373.69,-329.83C360.52,-321.19 345.63,-310.41 333.5,-299 311.1,-277.91 290.07,-248.63 278.57,-231.51"/>
<polygon fill="midnightblue" stroke="midnightblue" points="372.16,-333.01 382.47,-335.46 375.94,-327.12 372.16,-333.01"/>
</g>
<!-- Node8 -->
<g id="node8" class="node">
<title>Node8</title>
<g id="a_node8"><a xlink:href="mesh_8cpp.html" target="_top" xlink:title=" ">
<polygon fill="none" stroke="black" points="527,-268.5 527,-298.5 640,-298.5 640,-268.5 527,-268.5"/>
<text text-anchor="start" x="535" y="-286.5" font-family="Helvetica,sans-Serif" font-size="10.00">/github/workspace/src</text>
<text text-anchor="middle" x="583.5" y="-275.5" font-family="Helvetica,sans-Serif" font-size="10.00">/renderer/mesh.cpp</text>
</a>
</g>
</g>
<!-- Node1&#45;&gt;Node8 -->
<g id="edge11" class="edge">
<title>Node1&#45;&gt;Node8</title>
<path fill="none" stroke="midnightblue" d="M454.65,-331.82C483.1,-321.37 518.63,-308.32 545.17,-298.58"/>
<polygon fill="midnightblue" stroke="midnightblue" points="453.09,-328.66 444.91,-335.4 455.5,-335.23 453.09,-328.66"/>
</g>
<!-- Node9 -->
<g id="node9" class="node">
<title>Node9</title>
<g id="a_node9"><a xlink:href="modelloader_8h.html" target="_top" xlink:title=" ">
<polygon fill="none" stroke="black" points="947.5,-201.5 947.5,-231.5 1065.5,-231.5 1065.5,-201.5 947.5,-201.5"/>
<text text-anchor="start" x="955.5" y="-219.5" font-family="Helvetica,sans-Serif" font-size="10.00">/github/workspace/src</text>
<text text-anchor="middle" x="1006.5" y="-208.5" font-family="Helvetica,sans-Serif" font-size="10.00">/renderer/modelloader.h</text>
</a>
</g>
</g>
<!-- Node1&#45;&gt;Node9 -->
<g id="edge12" class="edge">
<title>Node1&#45;&gt;Node9</title>
<path fill="none" stroke="midnightblue" d="M436.29,-329.68C449.67,-320.57 465.56,-309.48 479.5,-299 496.92,-285.9 497.37,-276.36 517.5,-268 593.86,-236.29 834.73,-223.65 947.36,-219.38"/>
<polygon fill="midnightblue" stroke="midnightblue" points="434.22,-326.85 427.9,-335.35 438.14,-332.65 434.22,-326.85"/>
</g>
<!-- Node13 -->
<g id="node13" class="node">
<title>Node13</title>
<g id="a_node13"><a xlink:href="objectinstance_8h.html" target="_top" xlink:title=" ">
<polygon fill="none" stroke="black" points="342.5,-268.5 342.5,-298.5 470.5,-298.5 470.5,-268.5 342.5,-268.5"/>
<text text-anchor="start" x="350.5" y="-286.5" font-family="Helvetica,sans-Serif" font-size="10.00">/github/workspace/src</text>
<text text-anchor="middle" x="406.5" y="-275.5" font-family="Helvetica,sans-Serif" font-size="10.00">/renderer/objectinstance.h</text>
</a>
</g>
</g>
<!-- Node1&#45;&gt;Node13 -->
<g id="edge16" class="edge">
<title>Node1&#45;&gt;Node13</title>
<path fill="none" stroke="midnightblue" d="M406.5,-325.11C406.5,-316.15 406.5,-306.32 406.5,-298.58"/>
<polygon fill="midnightblue" stroke="midnightblue" points="403,-325.4 406.5,-335.4 410,-325.4 403,-325.4"/>
</g>
<!-- Node3 -->
<g id="node3" class="node">
<title>Node3</title>
<g id="a_node3"><a xlink:href="mastermaterial_8cpp.html" target="_top" xlink:title=" ">
<polygon fill="none" stroke="black" points="199.5,-134.5 199.5,-164.5 339.5,-164.5 339.5,-134.5 199.5,-134.5"/>
<text text-anchor="start" x="207.5" y="-152.5" font-family="Helvetica,sans-Serif" font-size="10.00">/github/workspace/src</text>
<text text-anchor="middle" x="269.5" y="-141.5" font-family="Helvetica,sans-Serif" font-size="10.00">/renderer/mastermaterial.cpp</text>
</a>
</g>
</g>
<!-- Node2&#45;&gt;Node3 -->
<g id="edge2" class="edge">
<title>Node2&#45;&gt;Node3</title>
<path fill="none" stroke="midnightblue" d="M269.5,-191.11C269.5,-182.15 269.5,-172.32 269.5,-164.58"/>
<polygon fill="midnightblue" stroke="midnightblue" points="266,-191.4 269.5,-201.4 273,-191.4 266,-191.4"/>
</g>
<!-- Node4 -->
<g id="node4" class="node">
<title>Node4</title>
<g id="a_node4"><a xlink:href="material_8h.html" target="_top" xlink:title=" ">
<polygon fill="none" stroke="black" points="68,-134.5 68,-164.5 181,-164.5 181,-134.5 68,-134.5"/>
<text text-anchor="start" x="76" y="-152.5" font-family="Helvetica,sans-Serif" font-size="10.00">/github/workspace/src</text>
<text text-anchor="middle" x="124.5" y="-141.5" font-family="Helvetica,sans-Serif" font-size="10.00">/renderer/material.h</text>
</a>
</g>
</g>
<!-- Node2&#45;&gt;Node4 -->
<g id="edge3" class="edge">
<title>Node2&#45;&gt;Node4</title>
<path fill="none" stroke="midnightblue" d="M223.02,-197.41C198.9,-187.03 170.42,-174.2 150.23,-164.58"/>
<polygon fill="midnightblue" stroke="midnightblue" points="221.79,-200.69 232.36,-201.4 224.54,-194.25 221.79,-200.69"/>
</g>
<!-- Node6 -->
<g id="node6" class="node">
<title>Node6</title>
<g id="a_node6"><a xlink:href="materiallibrary_8h.html" target="_top" xlink:title=" ">
<polygon fill="none" stroke="black" points="131,-67.5 131,-97.5 256,-97.5 256,-67.5 131,-67.5"/>
<text text-anchor="start" x="139" y="-85.5" font-family="Helvetica,sans-Serif" font-size="10.00">/github/workspace/src</text>
<text text-anchor="middle" x="193.5" y="-74.5" font-family="Helvetica,sans-Serif" font-size="10.00">/renderer/materiallibrary.h</text>
</a>
</g>
</g>
<!-- Node2&#45;&gt;Node6 -->
<g id="edge10" class="edge">
<title>Node2&#45;&gt;Node6</title>
<path fill="none" stroke="midnightblue" d="M315.77,-196.41C328.7,-188.67 341.19,-178.34 348.5,-165 355.12,-152.92 356.59,-145.15 348.5,-134 327.47,-105.03 289.37,-92.36 256.22,-86.95"/>
<polygon fill="midnightblue" stroke="midnightblue" points="313.87,-193.46 306.81,-201.36 317.26,-199.59 313.87,-193.46"/>
</g>
<!-- Node4&#45;&gt;Node1 -->
<g id="edge9" class="edge">
<title>Node4&#45;&gt;Node1</title>
<path fill="none" stroke="midnightblue" d="M141.11,-173.02C154.58,-190.36 174.68,-214.3 195.5,-232 250.92,-279.13 328.14,-316.34 372.15,-335.44"/>
<polygon fill="midnightblue" stroke="midnightblue" points="143.55,-170.44 134.7,-164.61 137.98,-174.69 143.55,-170.44"/>
</g>
<!-- Node4&#45;&gt;Node2 -->
<g id="edge4" class="edge">
<title>Node4&#45;&gt;Node2</title>
<path fill="none" stroke="midnightblue" d="M170.92,-168.56C195.02,-178.94 223.51,-191.77 243.72,-201.4"/>
<polygon fill="midnightblue" stroke="midnightblue" points="172.15,-165.28 161.58,-164.58 169.4,-171.72 172.15,-165.28"/>
</g>
<!-- Node5 -->
<g id="node5" class="node">
<title>Node5</title>
<g id="a_node5"><a xlink:href="material_8cpp.html" target="_top" xlink:title=" ">
<polygon fill="none" stroke="black" points="0,-67.5 0,-97.5 113,-97.5 113,-67.5 0,-67.5"/>
<text text-anchor="start" x="8" y="-85.5" font-family="Helvetica,sans-Serif" font-size="10.00">/github/workspace/src</text>
<text text-anchor="middle" x="56.5" y="-74.5" font-family="Helvetica,sans-Serif" font-size="10.00">/renderer/material.cpp</text>
</a>
</g>
</g>
<!-- Node4&#45;&gt;Node5 -->
<g id="edge5" class="edge">
<title>Node4&#45;&gt;Node5</title>
<path fill="none" stroke="midnightblue" d="M102.33,-127.31C92.13,-117.56 80.31,-106.26 71.23,-97.58"/>
<polygon fill="midnightblue" stroke="midnightblue" points="100.1,-130.02 109.75,-134.4 104.93,-124.96 100.1,-130.02"/>
</g>
<!-- Node4&#45;&gt;Node6 -->
<g id="edge6" class="edge">
<title>Node4&#45;&gt;Node6</title>
<path fill="none" stroke="midnightblue" d="M140.91,-127.02C150.53,-117.34 162.63,-106.17 172.88,-97.58"/>
<polygon fill="midnightblue" stroke="midnightblue" points="138.22,-124.77 133.79,-134.4 143.26,-129.63 138.22,-124.77"/>
</g>
<!-- Node6&#45;&gt;Node4 -->
<g id="edge7" class="edge">
<title>Node6&#45;&gt;Node4</title>
<path fill="none" stroke="midnightblue" d="M177.13,-104.94C167.5,-114.63 155.41,-125.79 145.15,-134.4"/>
<polygon fill="midnightblue" stroke="midnightblue" points="179.81,-107.2 184.23,-97.58 174.77,-102.34 179.81,-107.2"/>
</g>
<!-- Node7 -->
<g id="node7" class="node">
<title>Node7</title>
<g id="a_node7"><a xlink:href="materiallibrary_8cpp.html" target="_top" xlink:title=" ">
<polygon fill="none" stroke="black" points="125.5,-0.5 125.5,-30.5 261.5,-30.5 261.5,-0.5 125.5,-0.5"/>
<text text-anchor="start" x="133.5" y="-18.5" font-family="Helvetica,sans-Serif" font-size="10.00">/github/workspace/src</text>
<text text-anchor="middle" x="193.5" y="-7.5" font-family="Helvetica,sans-Serif" font-size="10.00">/renderer/materiallibrary.cpp</text>
</a>
</g>
</g>
<!-- Node6&#45;&gt;Node7 -->
<g id="edge8" class="edge">
<title>Node6&#45;&gt;Node7</title>
<path fill="none" stroke="midnightblue" d="M193.5,-57.11C193.5,-48.15 193.5,-38.32 193.5,-30.58"/>
<polygon fill="midnightblue" stroke="midnightblue" points="190,-57.4 193.5,-67.4 197,-57.4 190,-57.4"/>
</g>
<!-- Node10 -->
<g id="node10" class="node">
<title>Node10</title>
<g id="a_node10"><a xlink:href="modelloader_8cpp.html" target="_top" xlink:title=" ">
<polygon fill="none" stroke="black" points="1092.5,-134.5 1092.5,-164.5 1220.5,-164.5 1220.5,-134.5 1092.5,-134.5"/>
<text text-anchor="start" x="1100.5" y="-152.5" font-family="Helvetica,sans-Serif" font-size="10.00">/github/workspace/src</text>
<text text-anchor="middle" x="1156.5" y="-141.5" font-family="Helvetica,sans-Serif" font-size="10.00">/renderer/modelloader.cpp</text>
</a>
</g>
</g>
<!-- Node9&#45;&gt;Node10 -->
<g id="edge13" class="edge">
<title>Node9&#45;&gt;Node10</title>
<path fill="none" stroke="midnightblue" d="M1048.25,-197.41C1072.2,-187.03 1101.82,-174.2 1124.02,-164.58"/>
<polygon fill="midnightblue" stroke="midnightblue" points="1046.83,-194.21 1039.05,-201.4 1049.61,-200.63 1046.83,-194.21"/>
</g>
<!-- Node11 -->
<g id="node11" class="node">
<title>Node11</title>
<g id="a_node11"><a xlink:href="vulkan__voxel__rasterizer__2_8cpp.html" target="_top" xlink:title=" ">
<polygon fill="none" stroke="black" points="862.5,-134.5 862.5,-164.5 1036.5,-164.5 1036.5,-134.5 862.5,-134.5"/>
<text text-anchor="start" x="870.5" y="-152.5" font-family="Helvetica,sans-Serif" font-size="10.00">/github/workspace/src</text>
<text text-anchor="middle" x="949.5" y="-141.5" font-family="Helvetica,sans-Serif" font-size="10.00">/tests/vulkan_voxel_rasterizer_2.cpp</text>
</a>
</g>
</g>
<!-- Node9&#45;&gt;Node11 -->
<g id="edge14" class="edge">
<title>Node9&#45;&gt;Node11</title>
<path fill="none" stroke="midnightblue" d="M987.41,-193.74C978.98,-184.12 969.31,-173.09 961.84,-164.58"/>
<polygon fill="midnightblue" stroke="midnightblue" points="984.91,-196.18 994.13,-201.4 990.17,-191.57 984.91,-196.18"/>
</g>
<!-- Node12 -->
<g id="node12" class="node">
<title>Node12</title>
<g id="a_node12"><a xlink:href="vulkan__voxel__rasterizer__3_8cpp.html" target="_top" xlink:title=" ">
<polygon fill="none" stroke="black" points="517.5,-67.5 517.5,-97.5 691.5,-97.5 691.5,-67.5 517.5,-67.5"/>
<text text-anchor="start" x="525.5" y="-85.5" font-family="Helvetica,sans-Serif" font-size="10.00">/github/workspace/src</text>
<text text-anchor="middle" x="604.5" y="-74.5" font-family="Helvetica,sans-Serif" font-size="10.00">/tests/vulkan_voxel_rasterizer_3.cpp</text>
</a>
</g>
</g>
<!-- Node9&#45;&gt;Node12 -->
<g id="edge15" class="edge">
<title>Node9&#45;&gt;Node12</title>
<path fill="none" stroke="midnightblue" d="M1029.39,-193.84C1045.33,-176.18 1061.16,-151.38 1045.5,-134 993.9,-76.74 776.96,-107.76 700.5,-98 697.57,-97.63 694.6,-97.24 691.6,-96.83"/>
<polygon fill="midnightblue" stroke="midnightblue" points="1026.55,-191.76 1022.17,-201.41 1031.61,-196.59 1026.55,-191.76"/>
</g>
<!-- Node13&#45;&gt;Node2 -->
<g id="edge17" class="edge">
<title>Node13&#45;&gt;Node2</title>
<path fill="none" stroke="midnightblue" d="M367.49,-263.99C345.78,-253.69 319.17,-241.07 299.17,-231.58"/>
<polygon fill="midnightblue" stroke="midnightblue" points="366.24,-267.27 376.77,-268.4 369.24,-260.95 366.24,-267.27"/>
</g>
<!-- Node14 -->
<g id="node14" class="node">
<title>Node14</title>
<g id="a_node14"><a xlink:href="objectinstance_8cpp.html" target="_top" xlink:title=" ">
<polygon fill="none" stroke="black" points="353,-201.5 353,-231.5 492,-231.5 492,-201.5 353,-201.5"/>
<text text-anchor="start" x="361" y="-219.5" font-family="Helvetica,sans-Serif" font-size="10.00">/github/workspace/src</text>
<text text-anchor="middle" x="422.5" y="-208.5" font-family="Helvetica,sans-Serif" font-size="10.00">/renderer/objectinstance.cpp</text>
</a>
</g>
</g>
<!-- Node13&#45;&gt;Node14 -->
<g id="edge18" class="edge">
<title>Node13&#45;&gt;Node14</title>
<path fill="none" stroke="midnightblue" d="M412.43,-258.4C414.66,-249.37 417.11,-239.41 419.04,-231.58"/>
<polygon fill="midnightblue" stroke="midnightblue" points="408.96,-257.85 409.97,-268.4 415.76,-259.52 408.96,-257.85"/>
</g>
<!-- Node15 -->
<g id="node15" class="node">
<title>Node15</title>
<g id="a_node15"><a xlink:href="scene_8h.html" target="_top" xlink:title=" ">
<polygon fill="none" stroke="black" points="539,-201.5 539,-231.5 652,-231.5 652,-201.5 539,-201.5"/>
<text text-anchor="start" x="547" y="-219.5" font-family="Helvetica,sans-Serif" font-size="10.00">/github/workspace/src</text>
<text text-anchor="middle" x="595.5" y="-208.5" font-family="Helvetica,sans-Serif" font-size="10.00">/renderer/scene.h</text>
</a>
</g>
</g>
<!-- Node13&#45;&gt;Node15 -->
<g id="edge19" class="edge">
<title>Node13&#45;&gt;Node15</title>
<path fill="none" stroke="midnightblue" d="M457.12,-265.09C487.63,-254.6 525.98,-241.41 554.57,-231.58"/>
<polygon fill="midnightblue" stroke="midnightblue" points="455.83,-261.83 447.51,-268.4 458.1,-268.45 455.83,-261.83"/>
</g>
<!-- Node15&#45;&gt;Node11 -->
<g id="edge27" class="edge">
<title>Node15&#45;&gt;Node11</title>
<path fill="none" stroke="midnightblue" d="M662.49,-203.2C722.43,-192.19 810.26,-176.07 872.95,-164.56"/>
<polygon fill="midnightblue" stroke="midnightblue" points="661.58,-199.81 652.38,-205.06 662.84,-206.69 661.58,-199.81"/>
</g>
<!-- Node15&#45;&gt;Node12 -->
<g id="edge28" class="edge">
<title>Node15&#45;&gt;Node12</title>
<path fill="none" stroke="midnightblue" d="M574.89,-193.73C568.33,-185.4 561.9,-175.38 558.5,-165 554.22,-151.91 553.53,-146.85 558.5,-134 564.07,-119.62 575.84,-106.82 586.08,-97.71"/>
<polygon fill="midnightblue" stroke="midnightblue" points="572.27,-196.05 581.39,-201.46 577.63,-191.55 572.27,-196.05"/>
</g>
<!-- Node16 -->
<g id="node16" class="node">
<title>Node16</title>
<g id="a_node16"><a xlink:href="scene_8cpp.html" target="_top" xlink:title=" ">
<polygon fill="none" stroke="black" points="568,-134.5 568,-164.5 681,-164.5 681,-134.5 568,-134.5"/>
<text text-anchor="start" x="576" y="-152.5" font-family="Helvetica,sans-Serif" font-size="10.00">/github/workspace/src</text>
<text text-anchor="middle" x="624.5" y="-141.5" font-family="Helvetica,sans-Serif" font-size="10.00">/renderer/scene.cpp</text>
</a>
</g>
</g>
<!-- Node15&#45;&gt;Node16 -->
<g id="edge20" class="edge">
<title>Node15&#45;&gt;Node16</title>
<path fill="none" stroke="midnightblue" d="M605.99,-191.99C610.09,-182.8 614.65,-172.58 618.22,-164.58"/>
<polygon fill="midnightblue" stroke="midnightblue" points="602.67,-190.84 601.79,-201.4 609.06,-193.69 602.67,-190.84"/>
</g>
<!-- Node17 -->
<g id="node17" class="node">
<title>Node17</title>
<g id="a_node17"><a xlink:href="objectlist_8h.html" target="_top" xlink:title=" ">
<polygon fill="none" stroke="black" points="396,-134.5 396,-164.5 511,-164.5 511,-134.5 396,-134.5"/>
<text text-anchor="start" x="404" y="-152.5" font-family="Helvetica,sans-Serif" font-size="10.00">/github/workspace/src</text>
<text text-anchor="middle" x="453.5" y="-141.5" font-family="Helvetica,sans-Serif" font-size="10.00">/renderer/ui/objectlist.h</text>
</a>
</g>
</g>
<!-- Node15&#45;&gt;Node17 -->
<g id="edge21" class="edge">
<title>Node15&#45;&gt;Node17</title>
<path fill="none" stroke="midnightblue" d="M555.37,-197.13C532.81,-186.8 505.08,-174.11 484.25,-164.58"/>
<polygon fill="midnightblue" stroke="midnightblue" points="554.14,-200.42 564.69,-201.4 557.05,-194.05 554.14,-200.42"/>
</g>
<!-- Node19 -->
<g id="node19" class="node">
<title>Node19</title>
<g id="a_node19"><a xlink:href="objectproperties_8h.html" target="_top" xlink:title=" ">
<polygon fill="none" stroke="black" points="699,-134.5 699,-164.5 844,-164.5 844,-134.5 699,-134.5"/>
<text text-anchor="start" x="707" y="-152.5" font-family="Helvetica,sans-Serif" font-size="10.00">/github/workspace/src</text>
<text text-anchor="middle" x="771.5" y="-141.5" font-family="Helvetica,sans-Serif" font-size="10.00">/renderer/ui/objectproperties.h</text>
</a>
</g>
</g>
<!-- Node15&#45;&gt;Node19 -->
<g id="edge24" class="edge">
<title>Node15&#45;&gt;Node19</title>
<path fill="none" stroke="midnightblue" d="M643.38,-197.82C671.67,-187.37 706.99,-174.32 733.39,-164.58"/>
<polygon fill="midnightblue" stroke="midnightblue" points="641.86,-194.65 633.69,-201.4 644.28,-201.21 641.86,-194.65"/>
</g>
<!-- Node17&#45;&gt;Node12 -->
<g id="edge23" class="edge">
<title>Node17&#45;&gt;Node12</title>
<path fill="none" stroke="midnightblue" d="M495.53,-130.41C519.64,-120.03 549.45,-107.2 571.8,-97.58"/>
<polygon fill="midnightblue" stroke="midnightblue" points="494.07,-127.23 486.26,-134.4 496.83,-133.66 494.07,-127.23"/>
</g>
<!-- Node18 -->
<g id="node18" class="node">
<title>Node18</title>
<g id="a_node18"><a xlink:href="objectlist_8cpp.html" target="_top" xlink:title=" ">
<polygon fill="none" stroke="black" points="374,-67.5 374,-97.5 499,-97.5 499,-67.5 374,-67.5"/>
<text text-anchor="start" x="382" y="-85.5" font-family="Helvetica,sans-Serif" font-size="10.00">/github/workspace/src</text>
<text text-anchor="middle" x="436.5" y="-74.5" font-family="Helvetica,sans-Serif" font-size="10.00">/renderer/ui/objectlist.cpp</text>
</a>
</g>
</g>
<!-- Node17&#45;&gt;Node18 -->
<g id="edge22" class="edge">
<title>Node17&#45;&gt;Node18</title>
<path fill="none" stroke="midnightblue" d="M447.27,-124.7C444.89,-115.59 442.25,-105.49 440.18,-97.58"/>
<polygon fill="midnightblue" stroke="midnightblue" points="443.89,-125.61 449.81,-134.4 450.67,-123.84 443.89,-125.61"/>
</g>
<!-- Node19&#45;&gt;Node12 -->
<g id="edge26" class="edge">
<title>Node19&#45;&gt;Node12</title>
<path fill="none" stroke="midnightblue" d="M725.72,-130.68C698.94,-120.26 665.6,-107.28 640.67,-97.58"/>
<polygon fill="midnightblue" stroke="midnightblue" points="724.67,-134.03 735.26,-134.4 727.21,-127.51 724.67,-134.03"/>
</g>
<!-- Node20 -->
<g id="node20" class="node">
<title>Node20</title>
<g id="a_node20"><a xlink:href="objectproperties_8cpp.html" target="_top" xlink:title=" ">
<polygon fill="none" stroke="black" points="710,-67.5 710,-97.5 865,-97.5 865,-67.5 710,-67.5"/>
<text text-anchor="start" x="718" y="-85.5" font-family="Helvetica,sans-Serif" font-size="10.00">/github/workspace/src</text>
<text text-anchor="middle" x="787.5" y="-74.5" font-family="Helvetica,sans-Serif" font-size="10.00">/renderer/ui/objectproperties.cpp</text>
</a>
</g>
</g>
<!-- Node19&#45;&gt;Node20 -->
<g id="edge25" class="edge">
<title>Node19&#45;&gt;Node20</title>
<path fill="none" stroke="midnightblue" d="M777.43,-124.4C779.66,-115.37 782.11,-105.41 784.04,-97.58"/>
<polygon fill="midnightblue" stroke="midnightblue" points="773.96,-123.85 774.97,-134.4 780.76,-125.52 773.96,-123.85"/>
</g>
</g>
</svg>
