<?xml version="1.0" encoding="UTF-8" standalone="no"?>
<!DOCTYPE svg PUBLIC "-//W3C//DTD SVG 1.1//EN"
 "http://www.w3.org/Graphics/SVG/1.1/DTD/svg11.dtd">
<!-- Generated by graphviz version 2.49.3 (20211215.1918)
 -->
<!-- Title: /github/workspace/src/renderer/modelloader.h Pages: 1 -->
<svg width="732pt" height="240pt"
 viewBox="0.00 0.00 731.50 240.00" xmlns="http://www.w3.org/2000/svg" xmlns:xlink="http://www.w3.org/1999/xlink">
<g id="graph0" class="graph" transform="scale(1 1) rotate(0) translate(4 236)">
<title>/github/workspace/src/renderer/modelloader.h</title>
<!-- Node1 -->
<g id="node1" class="node">
<title>Node1</title>
<g id="a_node1"><a xlink:title=" ">
<polygon fill="#bfbfbf" stroke="black" points="300.5,-201.5 300.5,-231.5 418.5,-231.5 418.5,-201.5 300.5,-201.5"/>
<text text-anchor="start" x="308.5" y="-219.5" font-family="Helvetica,sans-Serif" font-size="10.00">/github/workspace/src</text>
<text text-anchor="middle" x="359.5" y="-208.5" font-family="Helvetica,sans-Serif" font-size="10.00">/renderer/modelloader.h</text>
</a>
</g>
</g>
<!-- Node2 -->
<g id="node2" class="node">
<title>Node2</title>
<g id="a_node2"><a xlink:href="meshlibrary_8h.html" target="_top" xlink:title=" ">
<polygon fill="none" stroke="black" points="78,-134.5 78,-164.5 193,-164.5 193,-134.5 78,-134.5"/>
<text text-anchor="start" x="86" y="-152.5" font-family="Helvetica,sans-Serif" font-size="10.00">/github/workspace/src</text>
<text text-anchor="middle" x="135.5" y="-141.5" font-family="Helvetica,sans-Serif" font-size="10.00">/renderer/meshlibrary.h</text>
</a>
</g>
</g>
<!-- Node1&#45;&gt;Node2 -->
<g id="edge1" class="edge">
<title>Node1&#45;&gt;Node2</title>
<path fill="none" stroke="midnightblue" d="M301.19,-198.58C264.81,-188.02 218.53,-174.59 184.13,-164.61"/>
<polygon fill="midnightblue" stroke="midnightblue" points="300.59,-202.05 311.17,-201.48 302.54,-195.33 300.59,-202.05"/>
</g>
<!-- Node6 -->
<g id="node6" class="node">
<title>Node6</title>
<g id="a_node6"><a xlink:href="modelloader_8cpp.html" target="_top" xlink:title=" ">
<polygon fill="none" stroke="black" points="211.5,-134.5 211.5,-164.5 339.5,-164.5 339.5,-134.5 211.5,-134.5"/>
<text text-anchor="start" x="219.5" y="-152.5" font-family="Helvetica,sans-Serif" font-size="10.00">/github/workspace/src</text>
<text text-anchor="middle" x="275.5" y="-141.5" font-family="Helvetica,sans-Serif" font-size="10.00">/renderer/modelloader.cpp</text>
</a>
</g>
</g>
<!-- Node1&#45;&gt;Node6 -->
<g id="edge5" class="edge">
<title>Node1&#45;&gt;Node6</title>
<path fill="none" stroke="midnightblue" d="M333.22,-195.17C320.38,-185.23 305.24,-173.51 293.69,-164.58"/>
<polygon fill="midnightblue" stroke="midnightblue" points="331.22,-198.04 341.27,-201.4 335.51,-192.51 331.22,-198.04"/>
</g>
<!-- Node7 -->
<g id="node7" class="node">
<title>Node7</title>
<g id="a_node7"><a xlink:href="vulkan__voxel__rasterizer__2_8cpp.html" target="_top" xlink:title=" ">
<polygon fill="none" stroke="black" points="357.5,-134.5 357.5,-164.5 531.5,-164.5 531.5,-134.5 357.5,-134.5"/>
<text text-anchor="start" x="365.5" y="-152.5" font-family="Helvetica,sans-Serif" font-size="10.00">/github/workspace/src</text>
<text text-anchor="middle" x="444.5" y="-141.5" font-family="Helvetica,sans-Serif" font-size="10.00">/tests/vulkan_voxel_rasterizer_2.cpp</text>
</a>
</g>
</g>
<!-- Node1&#45;&gt;Node7 -->
<g id="edge6" class="edge">
<title>Node1&#45;&gt;Node7</title>
<path fill="none" stroke="midnightblue" d="M386.09,-195.17C399.09,-185.23 414.4,-173.51 426.09,-164.58"/>
<polygon fill="midnightblue" stroke="midnightblue" points="383.76,-192.54 377.94,-201.4 388.01,-198.1 383.76,-192.54"/>
</g>
<!-- Node8 -->
<g id="node8" class="node">
<title>Node8</title>
<g id="a_node8"><a xlink:href="vulkan__voxel__rasterizer__3_8cpp.html" target="_top" xlink:title=" ">
<polygon fill="none" stroke="black" points="549.5,-134.5 549.5,-164.5 723.5,-164.5 723.5,-134.5 549.5,-134.5"/>
<text text-anchor="start" x="557.5" y="-152.5" font-family="Helvetica,sans-Serif" font-size="10.00">/github/workspace/src</text>
<text text-anchor="middle" x="636.5" y="-141.5" font-family="Helvetica,sans-Serif" font-size="10.00">/tests/vulkan_voxel_rasterizer_3.cpp</text>
</a>
</g>
</g>
<!-- Node1&#45;&gt;Node8 -->
<g id="edge7" class="edge">
<title>Node1&#45;&gt;Node8</title>
<path fill="none" stroke="midnightblue" d="M428.37,-199.34C473.89,-188.66 532.97,-174.79 576.55,-164.57"/>
<polygon fill="midnightblue" stroke="midnightblue" points="427.52,-195.94 418.58,-201.64 429.12,-202.76 427.52,-195.94"/>
</g>
<!-- Node3 -->
<g id="node3" class="node">
<title>Node3</title>
<g id="a_node3"><a xlink:href="meshlibrary_8cpp.html" target="_top" xlink:title=" ">
<polygon fill="none" stroke="black" points="0,-67.5 0,-97.5 125,-97.5 125,-67.5 0,-67.5"/>
<text text-anchor="start" x="8" y="-85.5" font-family="Helvetica,sans-Serif" font-size="10.00">/github/workspace/src</text>
<text text-anchor="middle" x="62.5" y="-74.5" font-family="Helvetica,sans-Serif" font-size="10.00">/renderer/meshlibrary.cpp</text>
</a>
</g>
</g>
<!-- Node2&#45;&gt;Node3 -->
<g id="edge2" class="edge">
<title>Node2&#45;&gt;Node3</title>
<path fill="none" stroke="midnightblue" d="M112.03,-127.6C101,-117.78 88.16,-106.34 78.31,-97.58"/>
<polygon fill="midnightblue" stroke="midnightblue" points="109.86,-130.36 119.66,-134.4 114.52,-125.13 109.86,-130.36"/>
</g>
<!-- Node4 -->
<g id="node4" class="node">
<title>Node4</title>
<g id="a_node4"><a xlink:href="rendermanager_8h.html" target="_top" xlink:title=" ">
<polygon fill="none" stroke="black" points="143.5,-67.5 143.5,-97.5 273.5,-97.5 273.5,-67.5 143.5,-67.5"/>
<text text-anchor="start" x="151.5" y="-85.5" font-family="Helvetica,sans-Serif" font-size="10.00">/github/workspace/src</text>
<text text-anchor="middle" x="208.5" y="-74.5" font-family="Helvetica,sans-Serif" font-size="10.00">/renderer/rendermanager.h</text>
</a>
</g>
</g>
<!-- Node2&#45;&gt;Node4 -->
<g id="edge3" class="edge">
<title>Node2&#45;&gt;Node4</title>
<path fill="none" stroke="midnightblue" d="M158.97,-127.6C170,-117.78 182.84,-106.34 192.69,-97.58"/>
<polygon fill="midnightblue" stroke="midnightblue" points="156.48,-125.13 151.34,-134.4 161.14,-130.36 156.48,-125.13"/>
</g>
<!-- Node5 -->
<g id="node5" class="node">
<title>Node5</title>
<g id="a_node5"><a xlink:href="rendermanager_8cpp.html" target="_top" xlink:title=" ">
<polygon fill="none" stroke="black" points="138.5,-0.5 138.5,-30.5 278.5,-30.5 278.5,-0.5 138.5,-0.5"/>
<text text-anchor="start" x="146.5" y="-18.5" font-family="Helvetica,sans-Serif" font-size="10.00">/github/workspace/src</text>
<text text-anchor="middle" x="208.5" y="-7.5" font-family="Helvetica,sans-Serif" font-size="10.00">/renderer/rendermanager.cpp</text>
</a>
</g>
</g>
<!-- Node4&#45;&gt;Node5 -->
<g id="edge4" class="edge">
<title>Node4&#45;&gt;Node5</title>
<path fill="none" stroke="midnightblue" d="M208.5,-57.11C208.5,-48.15 208.5,-38.32 208.5,-30.58"/>
<polygon fill="midnightblue" stroke="midnightblue" points="205,-57.4 208.5,-67.4 212,-57.4 205,-57.4"/>
</g>
</g>
</svg>
