<?xml version="1.0" encoding="UTF-8" standalone="no"?>
<!DOCTYPE svg PUBLIC "-//W3C//DTD SVG 1.1//EN"
 "http://www.w3.org/Graphics/SVG/1.1/DTD/svg11.dtd">
<!-- Generated by graphviz version 2.49.3 (20211215.1918)
 -->
<!-- Title: /github/workspace/src/renderer/modelloader.h Pages: 1 -->
<svg width="799pt" height="374pt"
 viewBox="0.00 0.00 799.00 374.00" xmlns="http://www.w3.org/2000/svg" xmlns:xlink="http://www.w3.org/1999/xlink">
<g id="graph0" class="graph" transform="scale(1 1) rotate(0) translate(4 370)">
<title>/github/workspace/src/renderer/modelloader.h</title>
<!-- Node1 -->
<g id="node1" class="node">
<title>Node1</title>
<g id="a_node1"><a xlink:title=" ">
<polygon fill="#bfbfbf" stroke="black" points="384,-335.5 384,-365.5 502,-365.5 502,-335.5 384,-335.5"/>
<text text-anchor="start" x="392" y="-353.5" font-family="Helvetica,sans-Serif" font-size="10.00">/github/workspace/src</text>
<text text-anchor="middle" x="443" y="-342.5" font-family="Helvetica,sans-Serif" font-size="10.00">/renderer/modelloader.h</text>
</a>
</g>
</g>
<!-- Node2 -->
<g id="node2" class="node">
<title>Node2</title>
<g id="a_node2"><a xlink:href="meshlibrary_8h.html" target="_top" xlink:title=" ">
<polygon fill="none" stroke="black" points="253.5,-268.5 253.5,-298.5 368.5,-298.5 368.5,-268.5 253.5,-268.5"/>
<text text-anchor="start" x="261.5" y="-286.5" font-family="Helvetica,sans-Serif" font-size="10.00">/github/workspace/src</text>
<text text-anchor="middle" x="311" y="-275.5" font-family="Helvetica,sans-Serif" font-size="10.00">/renderer/meshlibrary.h</text>
</a>
</g>
</g>
<!-- Node1&#45;&gt;Node2 -->
<g id="edge1" class="edge">
<title>Node1&#45;&gt;Node2</title>
<path fill="none" stroke="midnightblue" d="M405.13,-330.85C384.26,-320.58 358.77,-308.03 339.59,-298.58"/>
<polygon fill="midnightblue" stroke="midnightblue" points="403.84,-334.12 414.36,-335.4 406.93,-327.84 403.84,-334.12"/>
</g>
<!-- Node10 -->
<g id="node10" class="node">
<title>Node10</title>
<g id="a_node10"><a xlink:href="vulkan__voxel__rasterizer__3_8cpp.html" target="_top" xlink:title=" ">
<polygon fill="none" stroke="black" points="349,-0.5 349,-30.5 523,-30.5 523,-0.5 349,-0.5"/>
<text text-anchor="start" x="357" y="-18.5" font-family="Helvetica,sans-Serif" font-size="10.00">/github/workspace/src</text>
<text text-anchor="middle" x="436" y="-7.5" font-family="Helvetica,sans-Serif" font-size="10.00">/tests/vulkan_voxel_rasterizer_3.cpp</text>
</a>
</g>
</g>
<!-- Node1&#45;&gt;Node10 -->
<g id="edge15" class="edge">
<title>Node1&#45;&gt;Node10</title>
<path fill="none" stroke="midnightblue" d="M443,-324.99C443,-298.49 443,-255 443,-217.5 443,-217.5 443,-217.5 443,-148.5 443,-105.59 439.26,-54.93 437.25,-30.75"/>
<polygon fill="midnightblue" stroke="midnightblue" points="439.5,-325.24 443,-335.24 446.5,-325.24 439.5,-325.24"/>
</g>
<!-- Node11 -->
<g id="node11" class="node">
<title>Node11</title>
<g id="a_node11"><a xlink:href="vulkan__voxel__rasterizer__4_8cpp.html" target="_top" xlink:title=" ">
<polygon fill="none" stroke="black" points="0,-0.5 0,-30.5 174,-30.5 174,-0.5 0,-0.5"/>
<text text-anchor="start" x="8" y="-18.5" font-family="Helvetica,sans-Serif" font-size="10.00">/github/workspace/src</text>
<text text-anchor="middle" x="87" y="-7.5" font-family="Helvetica,sans-Serif" font-size="10.00">/tests/vulkan_voxel_rasterizer_4.cpp</text>
</a>
</g>
</g>
<!-- Node1&#45;&gt;Node11 -->
<g id="edge16" class="edge">
<title>Node1&#45;&gt;Node11</title>
<path fill="none" stroke="midnightblue" d="M373.65,-339.2C266.77,-321.36 74,-280.45 74,-217.5 74,-217.5 74,-217.5 74,-148.5 74,-105.44 80.94,-54.85 84.68,-30.71"/>
<polygon fill="midnightblue" stroke="midnightblue" points="373.28,-342.69 383.71,-340.86 374.41,-335.78 373.28,-342.69"/>
</g>
<!-- Node12 -->
<g id="node12" class="node">
<title>Node12</title>
<g id="a_node12"><a xlink:href="modelloader_8cpp.html" target="_top" xlink:title=" ">
<polygon fill="none" stroke="black" points="471,-268.5 471,-298.5 599,-298.5 599,-268.5 471,-268.5"/>
<text text-anchor="start" x="479" y="-286.5" font-family="Helvetica,sans-Serif" font-size="10.00">/github/workspace/src</text>
<text text-anchor="middle" x="535" y="-275.5" font-family="Helvetica,sans-Serif" font-size="10.00">/renderer/modelloader.cpp</text>
</a>
</g>
</g>
<!-- Node1&#45;&gt;Node12 -->
<g id="edge13" class="edge">
<title>Node1&#45;&gt;Node12</title>
<path fill="none" stroke="midnightblue" d="M471.38,-329.45C485.53,-319.45 502.31,-307.6 515.08,-298.58"/>
<polygon fill="midnightblue" stroke="midnightblue" points="469.11,-326.77 462.96,-335.4 473.15,-332.48 469.11,-326.77"/>
</g>
<!-- Node13 -->
<g id="node13" class="node">
<title>Node13</title>
<g id="a_node13"><a xlink:href="vulkan__voxel__rasterizer__2_8cpp.html" target="_top" xlink:title=" ">
<polygon fill="none" stroke="black" points="617,-268.5 617,-298.5 791,-298.5 791,-268.5 617,-268.5"/>
<text text-anchor="start" x="625" y="-286.5" font-family="Helvetica,sans-Serif" font-size="10.00">/github/workspace/src</text>
<text text-anchor="middle" x="704" y="-275.5" font-family="Helvetica,sans-Serif" font-size="10.00">/tests/vulkan_voxel_rasterizer_2.cpp</text>
</a>
</g>
</g>
<!-- Node1&#45;&gt;Node13 -->
<g id="edge14" class="edge">
<title>Node1&#45;&gt;Node13</title>
<path fill="none" stroke="midnightblue" d="M509.05,-333.05C551.72,-322.43 606.66,-308.74 647.34,-298.61"/>
<polygon fill="midnightblue" stroke="midnightblue" points="508.17,-329.66 499.31,-335.48 509.86,-336.46 508.17,-329.66"/>
</g>
<!-- Node3 -->
<g id="node3" class="node">
<title>Node3</title>
<g id="a_node3"><a xlink:href="meshlibrary_8cpp.html" target="_top" xlink:title=" ">
<polygon fill="none" stroke="black" points="102.5,-201.5 102.5,-231.5 227.5,-231.5 227.5,-201.5 102.5,-201.5"/>
<text text-anchor="start" x="110.5" y="-219.5" font-family="Helvetica,sans-Serif" font-size="10.00">/github/workspace/src</text>
<text text-anchor="middle" x="165" y="-208.5" font-family="Helvetica,sans-Serif" font-size="10.00">/renderer/meshlibrary.cpp</text>
</a>
</g>
</g>
<!-- Node2&#45;&gt;Node3 -->
<g id="edge2" class="edge">
<title>Node2&#45;&gt;Node3</title>
<path fill="none" stroke="midnightblue" d="M270.05,-264.27C246.8,-253.92 218.13,-241.15 196.62,-231.58"/>
<polygon fill="midnightblue" stroke="midnightblue" points="268.76,-267.53 279.32,-268.4 271.61,-261.13 268.76,-267.53"/>
</g>
<!-- Node4 -->
<g id="node4" class="node">
<title>Node4</title>
<g id="a_node4"><a xlink:href="rendermanager_8h.html" target="_top" xlink:title=" ">
<polygon fill="none" stroke="black" points="246,-201.5 246,-231.5 376,-231.5 376,-201.5 246,-201.5"/>
<text text-anchor="start" x="254" y="-219.5" font-family="Helvetica,sans-Serif" font-size="10.00">/github/workspace/src</text>
<text text-anchor="middle" x="311" y="-208.5" font-family="Helvetica,sans-Serif" font-size="10.00">/renderer/rendermanager.h</text>
</a>
</g>
</g>
<!-- Node2&#45;&gt;Node4 -->
<g id="edge3" class="edge">
<title>Node2&#45;&gt;Node4</title>
<path fill="none" stroke="midnightblue" d="M311,-258.11C311,-249.15 311,-239.32 311,-231.58"/>
<polygon fill="midnightblue" stroke="midnightblue" points="307.5,-258.4 311,-268.4 314.5,-258.4 307.5,-258.4"/>
</g>
<!-- Node5 -->
<g id="node5" class="node">
<title>Node5</title>
<g id="a_node5"><a xlink:href="rendermanager_8cpp.html" target="_top" xlink:title=" ">
<polygon fill="none" stroke="black" points="275,-134.5 275,-164.5 415,-164.5 415,-134.5 275,-134.5"/>
<text text-anchor="start" x="283" y="-152.5" font-family="Helvetica,sans-Serif" font-size="10.00">/github/workspace/src</text>
<text text-anchor="middle" x="345" y="-141.5" font-family="Helvetica,sans-Serif" font-size="10.00">/renderer/rendermanager.cpp</text>
</a>
</g>
</g>
<!-- Node4&#45;&gt;Node5 -->
<g id="edge4" class="edge">
<title>Node4&#45;&gt;Node5</title>
<path fill="none" stroke="midnightblue" d="M323.14,-192.28C327.99,-183.02 333.41,-172.66 337.64,-164.58"/>
<polygon fill="midnightblue" stroke="midnightblue" points="319.91,-190.91 318.38,-201.4 326.11,-194.16 319.91,-190.91"/>
</g>
<!-- Node6 -->
<g id="node6" class="node">
<title>Node6</title>
<g id="a_node6"><a xlink:href="scenewriter_8h.html" target="_top" xlink:title=" ">
<polygon fill="none" stroke="black" points="141,-134.5 141,-164.5 257,-164.5 257,-134.5 141,-134.5"/>
<text text-anchor="start" x="149" y="-152.5" font-family="Helvetica,sans-Serif" font-size="10.00">/github/workspace/src</text>
<text text-anchor="middle" x="199" y="-141.5" font-family="Helvetica,sans-Serif" font-size="10.00">/renderer/scenewriter.h</text>
</a>
</g>
</g>
<!-- Node4&#45;&gt;Node6 -->
<g id="edge5" class="edge">
<title>Node4&#45;&gt;Node6</title>
<path fill="none" stroke="midnightblue" d="M272.19,-196.57C253.69,-186.35 232.48,-173.94 217.58,-164.58"/>
<polygon fill="midnightblue" stroke="midnightblue" points="270.57,-199.67 281.02,-201.4 273.92,-193.53 270.57,-199.67"/>
</g>
<!-- Node4&#45;&gt;Node11 -->
<g id="edge12" class="edge">
<title>Node4&#45;&gt;Node11</title>
<path fill="none" stroke="midnightblue" d="M240.44,-199.02C193.94,-187.57 140.15,-173 132,-165 94.11,-127.84 87.89,-59.93 87.03,-30.61"/>
<polygon fill="midnightblue" stroke="midnightblue" points="239.69,-202.43 250.23,-201.41 241.35,-195.63 239.69,-202.43"/>
</g>
<!-- Node6&#45;&gt;Node4 -->
<g id="edge6" class="edge">
<title>Node6&#45;&gt;Node4</title>
<path fill="none" stroke="midnightblue" d="M237.75,-169.39C256.25,-179.62 277.46,-192.03 292.38,-201.4"/>
<polygon fill="midnightblue" stroke="midnightblue" points="239.38,-166.3 228.93,-164.58 236.03,-172.44 239.38,-166.3"/>
</g>
<!-- Node7 -->
<g id="node7" class="node">
<title>Node7</title>
<g id="a_node7"><a xlink:href="scenewriter_8cpp.html" target="_top" xlink:title=" ">
<polygon fill="none" stroke="black" points="280,-67.5 280,-97.5 406,-97.5 406,-67.5 280,-67.5"/>
<text text-anchor="start" x="288" y="-85.5" font-family="Helvetica,sans-Serif" font-size="10.00">/github/workspace/src</text>
<text text-anchor="middle" x="343" y="-74.5" font-family="Helvetica,sans-Serif" font-size="10.00">/renderer/scenewriter.cpp</text>
</a>
</g>
</g>
<!-- Node6&#45;&gt;Node7 -->
<g id="edge7" class="edge">
<title>Node6&#45;&gt;Node7</title>
<path fill="none" stroke="midnightblue" d="M239.39,-130.27C262.32,-119.92 290.6,-107.15 311.82,-97.58"/>
<polygon fill="midnightblue" stroke="midnightblue" points="237.92,-127.09 230.25,-134.4 240.8,-133.47 237.92,-127.09"/>
</g>
<!-- Node8 -->
<g id="node8" class="node">
<title>Node8</title>
<g id="a_node8"><a xlink:href="mainmenu_8h.html" target="_top" xlink:title=" ">
<polygon fill="none" stroke="black" points="140.5,-67.5 140.5,-97.5 261.5,-97.5 261.5,-67.5 140.5,-67.5"/>
<text text-anchor="start" x="148.5" y="-85.5" font-family="Helvetica,sans-Serif" font-size="10.00">/github/workspace/src</text>
<text text-anchor="middle" x="201" y="-74.5" font-family="Helvetica,sans-Serif" font-size="10.00">/renderer/ui/mainmenu.h</text>
</a>
</g>
</g>
<!-- Node6&#45;&gt;Node8 -->
<g id="edge8" class="edge">
<title>Node6&#45;&gt;Node8</title>
<path fill="none" stroke="midnightblue" d="M199.75,-124.11C200.03,-115.15 200.33,-105.32 200.57,-97.58"/>
<polygon fill="midnightblue" stroke="midnightblue" points="196.24,-124.29 199.43,-134.4 203.24,-124.51 196.24,-124.29"/>
</g>
<!-- Node9 -->
<g id="node9" class="node">
<title>Node9</title>
<g id="a_node9"><a xlink:href="mainmenu_8cpp.html" target="_top" xlink:title=" ">
<polygon fill="none" stroke="black" points="192.5,-0.5 192.5,-30.5 323.5,-30.5 323.5,-0.5 192.5,-0.5"/>
<text text-anchor="start" x="200.5" y="-18.5" font-family="Helvetica,sans-Serif" font-size="10.00">/github/workspace/src</text>
<text text-anchor="middle" x="258" y="-7.5" font-family="Helvetica,sans-Serif" font-size="10.00">/renderer/ui/mainmenu.cpp</text>
</a>
</g>
</g>
<!-- Node8&#45;&gt;Node9 -->
<g id="edge9" class="edge">
<title>Node8&#45;&gt;Node9</title>
<path fill="none" stroke="midnightblue" d="M220.09,-59.74C228.52,-50.12 238.19,-39.09 245.66,-30.58"/>
<polygon fill="midnightblue" stroke="midnightblue" points="217.33,-57.57 213.37,-67.4 222.59,-62.18 217.33,-57.57"/>
</g>
<!-- Node8&#45;&gt;Node10 -->
<g id="edge10" class="edge">
<title>Node8&#45;&gt;Node10</title>
<path fill="none" stroke="midnightblue" d="M261.68,-64.71C299.93,-54.14 348.74,-40.63 384.98,-30.61"/>
<polygon fill="midnightblue" stroke="midnightblue" points="260.41,-61.44 251.7,-67.48 262.27,-68.18 260.41,-61.44"/>
</g>
<!-- Node8&#45;&gt;Node11 -->
<g id="edge11" class="edge">
<title>Node8&#45;&gt;Node11</title>
<path fill="none" stroke="midnightblue" d="M167.32,-62.3C149.48,-52.12 127.96,-39.85 111.69,-30.58"/>
<polygon fill="midnightblue" stroke="midnightblue" points="165.84,-65.48 176.26,-67.4 169.31,-59.4 165.84,-65.48"/>
</g>
</g>
</svg>
