<?xml version="1.0" encoding="UTF-8" standalone="no"?>
<!DOCTYPE svg PUBLIC "-//W3C//DTD SVG 1.1//EN"
 "http://www.w3.org/Graphics/SVG/1.1/DTD/svg11.dtd">
<!-- Generated by graphviz version 2.49.3 (20211215.1918)
 -->
<!-- Title: /github/workspace/src/renderer/modelloader.cpp Pages: 1 -->
<svg width="268pt" height="207pt"
 viewBox="0.00 0.00 268.00 207.00" xmlns="http://www.w3.org/2000/svg" xmlns:xlink="http://www.w3.org/1999/xlink">
<g id="graph0" class="graph" transform="scale(1 1) rotate(0) translate(4 203)">
<title>/github/workspace/src/renderer/modelloader.cpp</title>
<!-- Node1 -->
<g id="node1" class="node">
<title>Node1</title>
<g id="a_node1"><a xlink:title=" ">
<polygon fill="#bfbfbf" stroke="black" points="32.5,-168.5 32.5,-198.5 160.5,-198.5 160.5,-168.5 32.5,-168.5"/>
<text text-anchor="start" x="40.5" y="-186.5" font-family="Helvetica,sans-Serif" font-size="10.00">/github/workspace/src</text>
<text text-anchor="middle" x="96.5" y="-175.5" font-family="Helvetica,sans-Serif" font-size="10.00">/renderer/modelloader.cpp</text>
</a>
</g>
</g>
<!-- Node2 -->
<g id="node2" class="node">
<title>Node2</title>
<g id="a_node2"><a xlink:href="modelloader_8h.html" target="_top" xlink:title=" ">
<polygon fill="none" stroke="black" points="58,-112.5 58,-131.5 135,-131.5 135,-112.5 58,-112.5"/>
<text text-anchor="middle" x="96.5" y="-119.5" font-family="Helvetica,sans-Serif" font-size="10.00">modelloader.h</text>
</a>
</g>
</g>
<!-- Node1&#45;&gt;Node2 -->
<g id="edge1" class="edge">
<title>Node1&#45;&gt;Node2</title>
<path fill="none" stroke="midnightblue" d="M96.5,-168.4C96.5,-160.47 96.5,-150.46 96.5,-141.86"/>
<polygon fill="midnightblue" stroke="midnightblue" points="100,-141.66 96.5,-131.66 93,-141.66 100,-141.66"/>
</g>
<!-- Node3 -->
<g id="node3" class="node">
<title>Node3</title>
<g id="a_node3"><a xlink:title=" ">
<polygon fill="none" stroke="#bfbfbf" points="9,-56.5 9,-75.5 98,-75.5 98,-56.5 9,-56.5"/>
<text text-anchor="middle" x="53.5" y="-63.5" font-family="Helvetica,sans-Serif" font-size="10.00">tiny_obj_loader.h</text>
</a>
</g>
</g>
<!-- Node2&#45;&gt;Node3 -->
<g id="edge2" class="edge">
<title>Node2&#45;&gt;Node3</title>
<path fill="none" stroke="midnightblue" d="M89.4,-112.08C83.26,-104.38 74.23,-93.03 66.76,-83.65"/>
<polygon fill="midnightblue" stroke="midnightblue" points="69.44,-81.39 60.47,-75.75 63.96,-85.75 69.44,-81.39"/>
</g>
<!-- Node4 -->
<g id="node4" class="node">
<title>Node4</title>
<g id="a_node4"><a xlink:href="mesh_8h.html" target="_top" xlink:title=" ">
<polygon fill="none" stroke="black" points="116.5,-56.5 116.5,-75.5 164.5,-75.5 164.5,-56.5 116.5,-56.5"/>
<text text-anchor="middle" x="140.5" y="-63.5" font-family="Helvetica,sans-Serif" font-size="10.00">mesh.h</text>
</a>
</g>
</g>
<!-- Node2&#45;&gt;Node4 -->
<g id="edge3" class="edge">
<title>Node2&#45;&gt;Node4</title>
<path fill="none" stroke="midnightblue" d="M103.77,-112.08C110.04,-104.38 119.29,-93.03 126.93,-83.65"/>
<polygon fill="midnightblue" stroke="midnightblue" points="129.77,-85.71 133.37,-75.75 124.34,-81.29 129.77,-85.71"/>
</g>
<!-- Node5 -->
<g id="node5" class="node">
<title>Node5</title>
<g id="a_node5"><a xlink:title=" ">
<polygon fill="none" stroke="#bfbfbf" points="0,-0.5 0,-19.5 51,-19.5 51,-0.5 0,-0.5"/>
<text text-anchor="middle" x="25.5" y="-7.5" font-family="Helvetica,sans-Serif" font-size="10.00">memory</text>
</a>
</g>
</g>
<!-- Node4&#45;&gt;Node5 -->
<g id="edge4" class="edge">
<title>Node4&#45;&gt;Node5</title>
<path fill="none" stroke="midnightblue" d="M122.28,-56.44C103.6,-47.68 74.34,-33.94 52.88,-23.86"/>
<polygon fill="midnightblue" stroke="midnightblue" points="54.18,-20.6 43.64,-19.52 51.2,-26.93 54.18,-20.6"/>
</g>
<!-- Node6 -->
<g id="node6" class="node">
<title>Node6</title>
<g id="a_node6"><a xlink:title=" ">
<polygon fill="none" stroke="#bfbfbf" points="69,-0.5 69,-19.5 138,-19.5 138,-0.5 69,-0.5"/>
<text text-anchor="middle" x="103.5" y="-7.5" font-family="Helvetica,sans-Serif" font-size="10.00">glm/glm.hpp</text>
</a>
</g>
</g>
<!-- Node4&#45;&gt;Node6 -->
<g id="edge5" class="edge">
<title>Node4&#45;&gt;Node6</title>
<path fill="none" stroke="midnightblue" d="M134.39,-56.08C129.22,-48.53 121.65,-37.49 115.31,-28.23"/>
<polygon fill="midnightblue" stroke="midnightblue" points="118.04,-26.02 109.5,-19.75 112.26,-29.98 118.04,-26.02"/>
</g>
<!-- Node7 -->
<g id="node7" class="node">
<title>Node7</title>
<g id="a_node7"><a xlink:title=" ">
<polygon fill="none" stroke="#bfbfbf" points="156.5,-0.5 156.5,-19.5 200.5,-19.5 200.5,-0.5 156.5,-0.5"/>
<text text-anchor="middle" x="178.5" y="-7.5" font-family="Helvetica,sans-Serif" font-size="10.00">vector</text>
</a>
</g>
</g>
<!-- Node4&#45;&gt;Node7 -->
<g id="edge6" class="edge">
<title>Node4&#45;&gt;Node7</title>
<path fill="none" stroke="midnightblue" d="M146.77,-56.08C152.14,-48.46 160.02,-37.26 166.58,-27.94"/>
<polygon fill="midnightblue" stroke="midnightblue" points="169.45,-29.94 172.34,-19.75 163.72,-25.91 169.45,-29.94"/>
</g>
<!-- Node8 -->
<g id="node8" class="node">
<title>Node8</title>
<g id="a_node8"><a xlink:title=" ">
<polygon fill="none" stroke="#bfbfbf" points="219,-0.5 219,-19.5 260,-19.5 260,-0.5 219,-0.5"/>
<text text-anchor="middle" x="239.5" y="-7.5" font-family="Helvetica,sans-Serif" font-size="10.00">string</text>
</a>
</g>
</g>
<!-- Node4&#45;&gt;Node8 -->
<g id="edge7" class="edge">
<title>Node4&#45;&gt;Node8</title>
<path fill="none" stroke="midnightblue" d="M156.41,-56.32C172.14,-47.74 196.44,-34.49 214.71,-24.52"/>
<polygon fill="midnightblue" stroke="midnightblue" points="216.53,-27.52 223.63,-19.65 213.18,-21.37 216.53,-27.52"/>
</g>
</g>
</svg>
