<?xml version="1.0" encoding="UTF-8" standalone="no"?>
<!DOCTYPE svg PUBLIC "-//W3C//DTD SVG 1.1//EN"
 "http://www.w3.org/Graphics/SVG/1.1/DTD/svg11.dtd">
<!-- Generated by graphviz version 3.0.0 (20220413.0106)
 -->
<!-- Title: libmorton::morton3D_64_encode Pages: 1 -->
<svg width="438pt" height="39pt"
 viewBox="0.00 0.00 438.00 39.00" xmlns="http://www.w3.org/2000/svg" xmlns:xlink="http://www.w3.org/1999/xlink">
<g id="graph0" class="graph" transform="scale(1 1) rotate(0) translate(4 35)">
<title>libmorton::morton3D_64_encode</title>
<!-- Node1 -->
<g id="node1" class="node">
<title>Node1</title>
<g id="a_node1"><a xlink:title=" ">
<polygon fill="#bfbfbf" stroke="black" points="327,-0.5 327,-30.5 430,-30.5 430,-0.5 327,-0.5"/>
<text text-anchor="start" x="335" y="-18.5" font-family="Helvetica,sans-Serif" font-size="10.00">libmorton::morton3D</text>
<text text-anchor="middle" x="378.5" y="-7.5" font-family="Helvetica,sans-Serif" font-size="10.00">_64_encode</text>
</a>
</g>
</g>
<!-- Node2 -->
<g id="node2" class="node">
<title>Node2</title>
<g id="a_node2"><a xlink:href="namespacelibmorton.html#afb4fdae007f02c9414e67939544f66a8" target="_top" xlink:title=" ">
<polygon fill="none" stroke="black" points="188,-0.5 188,-30.5 291,-30.5 291,-0.5 188,-0.5"/>
<text text-anchor="start" x="196" y="-18.5" font-family="Helvetica,sans-Serif" font-size="10.00">libmorton::morton3D</text>
<text text-anchor="middle" x="239.5" y="-7.5" font-family="Helvetica,sans-Serif" font-size="10.00">_encode</text>
</a>
</g>
</g>
<!-- Node1&#45;&gt;Node2 -->
<g id="edge1" class="edge">
<title>Node1&#45;&gt;Node2</title>
<path fill="none" stroke="midnightblue" d="M316.68,-15.5C308.23,-15.5 299.62,-15.5 291.37,-15.5"/>
<polygon fill="midnightblue" stroke="midnightblue" points="316.88,-19 326.88,-15.5 316.88,-12 316.88,-19"/>
</g>
<!-- Node3 -->
<g id="node3" class="node">
<title>Node3</title>
<g id="a_node3"><a xlink:href="class_voxel_codec_base.html#aec53dd6d3446c5f5cc5a7480b86d6e03" target="_top" xlink:title="jumps to voxel with specified index">
<polygon fill="none" stroke="black" points="0,-6 0,-25 152,-25 152,-6 0,-6"/>
<text text-anchor="middle" x="76" y="-13" font-family="Helvetica,sans-Serif" font-size="10.00">VoxelCodecBase::jumpToVoxel</text>
</a>
</g>
</g>
<!-- Node2&#45;&gt;Node3 -->
<g id="edge2" class="edge">
<title>Node2&#45;&gt;Node3</title>
<path fill="none" stroke="midnightblue" d="M177.77,-15.5C169.36,-15.5 160.65,-15.5 152.02,-15.5"/>
<polygon fill="midnightblue" stroke="midnightblue" points="177.84,-19 187.84,-15.5 177.84,-12 177.84,-19"/>
</g>
</g>
</svg>
