<?xml version="1.0" encoding="UTF-8" standalone="no"?>
<!DOCTYPE svg PUBLIC "-//W3C//DTD SVG 1.1//EN"
 "http://www.w3.org/Graphics/SVG/1.1/DTD/svg11.dtd">
<!-- Generated by graphviz version 2.49.3 (20211215.1918)
 -->
<!-- Title: /github/workspace/src/renderer/objectinstance.h Pages: 1 -->
<svg width="3372pt" height="991pt"
 viewBox="0.00 0.00 3372.00 991.00" xmlns="http://www.w3.org/2000/svg" xmlns:xlink="http://www.w3.org/1999/xlink">
<g id="graph0" class="graph" transform="scale(1 1) rotate(0) translate(4 987)">
<title>/github/workspace/src/renderer/objectinstance.h</title>
<!-- Node1 -->
<g id="node1" class="node">
<title>Node1</title>
<g id="a_node1"><a xlink:title=" ">
<polygon fill="#bfbfbf" stroke="black" points="1812,-952.5 1812,-982.5 1940,-982.5 1940,-952.5 1812,-952.5"/>
<text text-anchor="start" x="1820" y="-970.5" font-family="Helvetica,sans-Serif" font-size="10.00">/github/workspace/src</text>
<text text-anchor="middle" x="1876" y="-959.5" font-family="Helvetica,sans-Serif" font-size="10.00">/renderer/objectinstance.h</text>
</a>
</g>
</g>
<!-- Node2 -->
<g id="node2" class="node">
<title>Node2</title>
<g id="a_node2"><a xlink:href="mesh_8h.html" target="_top" xlink:title=" ">
<polygon fill="none" stroke="black" points="1852,-896.5 1852,-915.5 1900,-915.5 1900,-896.5 1852,-896.5"/>
<text text-anchor="middle" x="1876" y="-903.5" font-family="Helvetica,sans-Serif" font-size="10.00">mesh.h</text>
</a>
</g>
</g>
<!-- Node1&#45;&gt;Node2 -->
<g id="edge1" class="edge">
<title>Node1&#45;&gt;Node2</title>
<path fill="none" stroke="midnightblue" d="M1876,-952.4C1876,-944.47 1876,-934.46 1876,-925.86"/>
<polygon fill="midnightblue" stroke="midnightblue" points="1879.5,-925.66 1876,-915.66 1872.5,-925.66 1879.5,-925.66"/>
</g>
<!-- Node3 -->
<g id="node3" class="node">
<title>Node3</title>
<g id="a_node3"><a xlink:title=" ">
<polygon fill="none" stroke="#bfbfbf" points="1396.5,-168.5 1396.5,-187.5 1447.5,-187.5 1447.5,-168.5 1396.5,-168.5"/>
<text text-anchor="middle" x="1422" y="-175.5" font-family="Helvetica,sans-Serif" font-size="10.00">memory</text>
</a>
</g>
</g>
<!-- Node2&#45;&gt;Node3 -->
<g id="edge2" class="edge">
<title>Node2&#45;&gt;Node3</title>
<path fill="none" stroke="midnightblue" d="M1851.96,-904.77C1643.65,-902.64 152,-884.27 152,-795 152,-795 152,-795 152,-625 152,-432.37 301.3,-419.28 475,-336 642.11,-255.87 1233.66,-196.47 1386,-182.26"/>
<polygon fill="midnightblue" stroke="midnightblue" points="1386.57,-185.72 1396.2,-181.32 1385.92,-178.75 1386.57,-185.72"/>
</g>
<!-- Node4 -->
<g id="node4" class="node">
<title>Node4</title>
<g id="a_node4"><a xlink:title=" ">
<polygon fill="none" stroke="#bfbfbf" points="1806.5,-728.5 1806.5,-747.5 1875.5,-747.5 1875.5,-728.5 1806.5,-728.5"/>
<text text-anchor="middle" x="1841" y="-735.5" font-family="Helvetica,sans-Serif" font-size="10.00">glm/glm.hpp</text>
</a>
</g>
</g>
<!-- Node2&#45;&gt;Node4 -->
<g id="edge3" class="edge">
<title>Node2&#45;&gt;Node4</title>
<path fill="none" stroke="midnightblue" d="M1874.12,-896.08C1868.61,-869.95 1852.43,-793.21 1844.92,-757.58"/>
<polygon fill="midnightblue" stroke="midnightblue" points="1848.29,-756.63 1842.81,-747.57 1841.44,-758.08 1848.29,-756.63"/>
</g>
<!-- Node5 -->
<g id="node5" class="node">
<title>Node5</title>
<g id="a_node5"><a xlink:title=" ">
<polygon fill="none" stroke="#bfbfbf" points="2760,-0.5 2760,-19.5 2804,-19.5 2804,-0.5 2760,-0.5"/>
<text text-anchor="middle" x="2782" y="-7.5" font-family="Helvetica,sans-Serif" font-size="10.00">vector</text>
</a>
</g>
</g>
<!-- Node2&#45;&gt;Node5 -->
<g id="edge4" class="edge">
<title>Node2&#45;&gt;Node5</title>
<path fill="none" stroke="midnightblue" d="M1900.28,-904.52C2092.71,-900.58 3364,-871.62 3364,-795 3364,-795 3364,-795 3364,-121 3364,-64.6 2936.6,-24.08 2814.32,-13.65"/>
<polygon fill="midnightblue" stroke="midnightblue" points="2814.36,-10.14 2804.1,-12.78 2813.77,-17.11 2814.36,-10.14"/>
</g>
<!-- Node6 -->
<g id="node6" class="node">
<title>Node6</title>
<g id="a_node6"><a xlink:title=" ">
<polygon fill="none" stroke="#bfbfbf" points="2178.5,-56.5 2178.5,-75.5 2219.5,-75.5 2219.5,-56.5 2178.5,-56.5"/>
<text text-anchor="middle" x="2199" y="-63.5" font-family="Helvetica,sans-Serif" font-size="10.00">string</text>
</a>
</g>
</g>
<!-- Node2&#45;&gt;Node6 -->
<g id="edge5" class="edge">
<title>Node2&#45;&gt;Node6</title>
<path fill="none" stroke="midnightblue" d="M1900.04,-904.32C2080.2,-899.1 3212,-863.55 3212,-795 3212,-795 3212,-795 3212,-401 3212,-243.26 3156.63,-158.8 3006,-112 2857.24,-65.78 2359.49,-65.88 2230,-66.73"/>
<polygon fill="midnightblue" stroke="midnightblue" points="2229.61,-63.23 2219.64,-66.8 2229.66,-70.23 2229.61,-63.23"/>
</g>
<!-- Node7 -->
<g id="node7" class="node">
<title>Node7</title>
<g id="a_node7"><a xlink:href="material_8h.html" target="_top" xlink:title=" ">
<polygon fill="none" stroke="black" points="1881.5,-840.5 1881.5,-859.5 1940.5,-859.5 1940.5,-840.5 1881.5,-840.5"/>
<text text-anchor="middle" x="1911" y="-847.5" font-family="Helvetica,sans-Serif" font-size="10.00">material.h</text>
</a>
</g>
</g>
<!-- Node2&#45;&gt;Node7 -->
<g id="edge6" class="edge">
<title>Node2&#45;&gt;Node7</title>
<path fill="none" stroke="midnightblue" d="M1881.78,-896.08C1886.67,-888.53 1893.83,-877.49 1899.83,-868.23"/>
<polygon fill="midnightblue" stroke="midnightblue" points="1902.83,-870.05 1905.33,-859.75 1896.95,-866.24 1902.83,-870.05"/>
</g>
<!-- Node8 -->
<g id="node8" class="node">
<title>Node8</title>
<g id="a_node8"><a xlink:href="materiallibrary_8h.html" target="_top" xlink:title=" ">
<polygon fill="none" stroke="black" points="1869,-784.5 1869,-803.5 1953,-803.5 1953,-784.5 1869,-784.5"/>
<text text-anchor="middle" x="1911" y="-791.5" font-family="Helvetica,sans-Serif" font-size="10.00">materiallibrary.h</text>
</a>
</g>
</g>
<!-- Node7&#45;&gt;Node8 -->
<g id="edge7" class="edge">
<title>Node7&#45;&gt;Node8</title>
<path fill="none" stroke="midnightblue" d="M1905.83,-840.08C1904.32,-832.93 1903.89,-822.64 1904.54,-813.69"/>
<polygon fill="midnightblue" stroke="midnightblue" points="1908.02,-814.13 1905.87,-803.75 1901.08,-813.2 1908.02,-814.13"/>
</g>
<!-- Node10 -->
<g id="node10" class="node">
<title>Node10</title>
<g id="a_node10"><a xlink:href="graphicspipeline_8h.html" target="_top" xlink:title=" ">
<polygon fill="none" stroke="black" points="1492.5,-560.5 1492.5,-579.5 1617.5,-579.5 1617.5,-560.5 1492.5,-560.5"/>
<text text-anchor="middle" x="1555" y="-567.5" font-family="Helvetica,sans-Serif" font-size="10.00">vulkan/graphicspipeline.h</text>
</a>
</g>
</g>
<!-- Node7&#45;&gt;Node10 -->
<g id="edge186" class="edge">
<title>Node7&#45;&gt;Node10</title>
<path fill="none" stroke="midnightblue" d="M1940.67,-847.94C2082,-842.53 2680,-815.11 2680,-739 2680,-739 2680,-739 2680,-681 2680,-574.9 1877.22,-569.56 1627.94,-570.46"/>
<polygon fill="midnightblue" stroke="midnightblue" points="1627.88,-566.96 1617.9,-570.5 1627.91,-573.96 1627.88,-566.96"/>
</g>
<!-- Node8&#45;&gt;Node4 -->
<g id="edge9" class="edge">
<title>Node8&#45;&gt;Node4</title>
<path fill="none" stroke="midnightblue" d="M1899.75,-784.32C1889.2,-776.18 1873.2,-763.84 1860.56,-754.09"/>
<polygon fill="midnightblue" stroke="midnightblue" points="1862.51,-751.17 1852.45,-747.83 1858.23,-756.71 1862.51,-751.17"/>
</g>
<!-- Node8&#45;&gt;Node5 -->
<g id="edge8" class="edge">
<title>Node8&#45;&gt;Node5</title>
<path fill="none" stroke="midnightblue" d="M1953.02,-792C2172.17,-786.25 3174,-753.06 3174,-627 3174,-627 3174,-627 3174,-457 3174,-327.82 3253.86,-287.59 3205,-168 3179.08,-104.55 3159.89,-87.46 3099,-56 3049.68,-30.51 2884.33,-17.4 2814.05,-12.87"/>
<polygon fill="midnightblue" stroke="midnightblue" points="2814.2,-9.37 2804,-12.24 2813.77,-16.36 2814.2,-9.37"/>
</g>
<!-- Node8&#45;&gt;Node7 -->
<g id="edge184" class="edge">
<title>Node8&#45;&gt;Node7</title>
<path fill="none" stroke="midnightblue" d="M1916.13,-803.75C1917.66,-810.86 1918.1,-821.14 1917.47,-830.1"/>
<polygon fill="midnightblue" stroke="midnightblue" points="1913.99,-829.71 1916.17,-840.08 1920.93,-830.62 1913.99,-829.71"/>
</g>
<!-- Node9 -->
<g id="node9" class="node">
<title>Node9</title>
<g id="a_node9"><a xlink:href="mastermaterial_8h.html" target="_top" xlink:title=" ">
<polygon fill="none" stroke="black" points="1699.5,-728.5 1699.5,-747.5 1788.5,-747.5 1788.5,-728.5 1699.5,-728.5"/>
<text text-anchor="middle" x="1744" y="-735.5" font-family="Helvetica,sans-Serif" font-size="10.00">mastermaterial.h</text>
</a>
</g>
</g>
<!-- Node8&#45;&gt;Node9 -->
<g id="edge10" class="edge">
<title>Node8&#45;&gt;Node9</title>
<path fill="none" stroke="midnightblue" d="M1884.54,-784.44C1856.32,-775.32 1811.46,-760.81 1780.03,-750.65"/>
<polygon fill="midnightblue" stroke="midnightblue" points="1780.93,-747.26 1770.34,-747.52 1778.78,-753.92 1780.93,-747.26"/>
</g>
<!-- Node54 -->
<g id="node54" class="node">
<title>Node54</title>
<g id="a_node54"><a xlink:href="uniformbuffer_8h.html" target="_top" xlink:title=" ">
<polygon fill="none" stroke="black" points="1894,-728.5 1894,-747.5 1974,-747.5 1974,-728.5 1894,-728.5"/>
<text text-anchor="middle" x="1934" y="-735.5" font-family="Helvetica,sans-Serif" font-size="10.00">uniformbuffer.h</text>
</a>
</g>
</g>
<!-- Node8&#45;&gt;Node54 -->
<g id="edge185" class="edge">
<title>Node8&#45;&gt;Node54</title>
<path fill="none" stroke="midnightblue" d="M1914.8,-784.08C1917.91,-776.77 1922.42,-766.18 1926.29,-757.1"/>
<polygon fill="midnightblue" stroke="midnightblue" points="1929.57,-758.32 1930.27,-747.75 1923.13,-755.58 1929.57,-758.32"/>
</g>
<!-- Node9&#45;&gt;Node2 -->
<g id="edge182" class="edge">
<title>Node9&#45;&gt;Node2</title>
<path fill="none" stroke="midnightblue" d="M1750.81,-747.57C1771.66,-773.79 1834.86,-853.26 1862.65,-888.21"/>
<polygon fill="midnightblue" stroke="midnightblue" points="1859.94,-890.43 1868.9,-896.08 1865.42,-886.07 1859.94,-890.43"/>
</g>
<!-- Node9&#45;&gt;Node7 -->
<g id="edge181" class="edge">
<title>Node9&#45;&gt;Node7</title>
<path fill="none" stroke="midnightblue" d="M1757.04,-747.59C1785.64,-766.43 1854.12,-811.53 1889.31,-834.71"/>
<polygon fill="midnightblue" stroke="midnightblue" points="1887.62,-837.79 1897.9,-840.37 1891.47,-831.94 1887.62,-837.79"/>
</g>
<!-- Node9&#45;&gt;Node10 -->
<g id="edge11" class="edge">
<title>Node9&#45;&gt;Node10</title>
<path fill="none" stroke="midnightblue" d="M1734.1,-728.31C1703.74,-701.64 1611.6,-620.72 1572.67,-586.52"/>
<polygon fill="midnightblue" stroke="midnightblue" points="1574.62,-583.57 1564.8,-579.61 1570,-588.83 1574.62,-583.57"/>
</g>
<!-- Node40 -->
<g id="node40" class="node">
<title>Node40</title>
<g id="a_node40"><a xlink:title=" ">
<polygon fill="none" stroke="#bfbfbf" points="46.5,-280.5 46.5,-299.5 85.5,-299.5 85.5,-280.5 46.5,-280.5"/>
<text text-anchor="middle" x="66" y="-287.5" font-family="Helvetica,sans-Serif" font-size="10.00">utility</text>
</a>
</g>
</g>
<!-- Node9&#45;&gt;Node40 -->
<g id="edge183" class="edge">
<title>Node9&#45;&gt;Node40</title>
<path fill="none" stroke="midnightblue" d="M1699.29,-737.21C1439.23,-738.25 130.41,-741.04 62,-692 36.97,-674.06 38,-657.8 38,-627 38,-627 38,-627 38,-401 38,-367.79 50.13,-330.63 58.43,-309.12"/>
<polygon fill="midnightblue" stroke="midnightblue" points="61.75,-310.23 62.22,-299.65 55.25,-307.63 61.75,-310.23"/>
</g>
<!-- Node10&#45;&gt;Node5 -->
<g id="edge180" class="edge">
<title>Node10&#45;&gt;Node5</title>
<path fill="none" stroke="midnightblue" d="M1617.54,-566.83C1810.84,-559.51 2396.33,-532.44 2574,-468 2696.57,-423.55 3009.31,-254.12 3055,-132 3066.84,-100.36 3077.87,-81.75 3056,-56 3025.33,-19.89 2880.23,-12.7 2814.5,-11.31"/>
<polygon fill="midnightblue" stroke="midnightblue" points="2814.35,-7.81 2804.29,-11.13 2814.23,-14.81 2814.35,-7.81"/>
</g>
<!-- Node11 -->
<g id="node11" class="node">
<title>Node11</title>
<g id="a_node11"><a xlink:href="device_8h.html" target="_top" xlink:title=" ">
<polygon fill="none" stroke="black" points="1465.5,-280.5 1465.5,-299.5 1518.5,-299.5 1518.5,-280.5 1465.5,-280.5"/>
<text text-anchor="middle" x="1492" y="-287.5" font-family="Helvetica,sans-Serif" font-size="10.00">device.h</text>
</a>
</g>
</g>
<!-- Node10&#45;&gt;Node11 -->
<g id="edge12" class="edge">
<title>Node10&#45;&gt;Node11</title>
<path fill="none" stroke="midnightblue" d="M1567.97,-560.43C1591.31,-543.84 1638,-504.93 1638,-459 1638,-459 1638,-459 1638,-401 1638,-346.24 1571.66,-315.32 1528.42,-300.99"/>
<polygon fill="midnightblue" stroke="midnightblue" points="1529.37,-297.62 1518.78,-297.94 1527.26,-304.29 1529.37,-297.62"/>
</g>
<!-- Node12 -->
<g id="node12" class="node">
<title>Node12</title>
<g id="a_node12"><a xlink:title=" ">
<polygon fill="none" stroke="#bfbfbf" points="609,-0.5 609,-19.5 693,-19.5 693,-0.5 609,-0.5"/>
<text text-anchor="middle" x="651" y="-7.5" font-family="Helvetica,sans-Serif" font-size="10.00">vulkan/vulkan.h</text>
</a>
</g>
</g>
<!-- Node10&#45;&gt;Node12 -->
<g id="edge179" class="edge">
<title>Node10&#45;&gt;Node12</title>
<path fill="none" stroke="midnightblue" d="M1492.38,-567.43C1262.42,-560.75 466.44,-529.44 246,-412 212.35,-394.07 190,-385.13 190,-347 190,-347 190,-347 190,-289 190,-184.22 78.02,-128.16 154,-56 185.78,-25.82 477.84,-15.23 598.86,-12.12"/>
<polygon fill="midnightblue" stroke="midnightblue" points="599.08,-15.62 608.99,-11.87 598.91,-8.62 599.08,-15.62"/>
</g>
<!-- Node33 -->
<g id="node33" class="node">
<title>Node33</title>
<g id="a_node33"><a xlink:href="pipelinebase_8h.html" target="_top" xlink:title=" ">
<polygon fill="none" stroke="black" points="1313,-448.5 1313,-467.5 1391,-467.5 1391,-448.5 1313,-448.5"/>
<text text-anchor="middle" x="1352" y="-455.5" font-family="Helvetica,sans-Serif" font-size="10.00">pipelinebase.h</text>
</a>
</g>
</g>
<!-- Node10&#45;&gt;Node33 -->
<g id="edge67" class="edge">
<title>Node10&#45;&gt;Node33</title>
<path fill="none" stroke="midnightblue" d="M1513.66,-560.47C1485.58,-553.48 1448.35,-541.79 1419,-524 1397.68,-511.08 1377.79,-490.22 1365.31,-475.63"/>
<polygon fill="midnightblue" stroke="midnightblue" points="1367.95,-473.32 1358.87,-467.86 1362.56,-477.79 1367.95,-473.32"/>
</g>
<!-- Node38 -->
<g id="node38" class="node">
<title>Node38</title>
<g id="a_node38"><a xlink:href="shader_8h.html" target="_top" xlink:title=" ">
<polygon fill="none" stroke="black" points="1995.5,-336.5 1995.5,-355.5 2048.5,-355.5 2048.5,-336.5 1995.5,-336.5"/>
<text text-anchor="middle" x="2022" y="-343.5" font-family="Helvetica,sans-Serif" font-size="10.00">shader.h</text>
</a>
</g>
</g>
<!-- Node10&#45;&gt;Node38 -->
<g id="edge89" class="edge">
<title>Node10&#45;&gt;Node38</title>
<path fill="none" stroke="midnightblue" d="M1573.63,-560.44C1593.18,-551.43 1624.79,-536.82 1652,-524 1780.75,-463.34 1934,-389.51 1995.01,-360.05"/>
<polygon fill="midnightblue" stroke="midnightblue" points="1996.84,-363.05 2004.32,-355.55 1993.79,-356.75 1996.84,-363.05"/>
</g>
<!-- Node41 -->
<g id="node41" class="node">
<title>Node41</title>
<g id="a_node41"><a xlink:href="swapchain_8h.html" target="_top" xlink:title=" ">
<polygon fill="none" stroke="black" points="2117.5,-504.5 2117.5,-523.5 2188.5,-523.5 2188.5,-504.5 2117.5,-504.5"/>
<text text-anchor="middle" x="2153" y="-511.5" font-family="Helvetica,sans-Serif" font-size="10.00">swapchain.h</text>
</a>
</g>
</g>
<!-- Node10&#45;&gt;Node41 -->
<g id="edge97" class="edge">
<title>Node10&#45;&gt;Node41</title>
<path fill="none" stroke="midnightblue" d="M1617.67,-565.82C1719.69,-560.2 1927.89,-546.9 2103,-524 2104.45,-523.81 2105.92,-523.61 2107.4,-523.39"/>
<polygon fill="midnightblue" stroke="midnightblue" points="2107.94,-526.85 2117.29,-521.86 2106.87,-519.94 2107.94,-526.85"/>
</g>
<!-- Node44 -->
<g id="node44" class="node">
<title>Node44</title>
<g id="a_node44"><a xlink:href="renderpass_8h.html" target="_top" xlink:title=" ">
<polygon fill="none" stroke="black" points="1258,-392.5 1258,-411.5 1330,-411.5 1330,-392.5 1258,-392.5"/>
<text text-anchor="middle" x="1294" y="-399.5" font-family="Helvetica,sans-Serif" font-size="10.00">renderpass.h</text>
</a>
</g>
</g>
<!-- Node10&#45;&gt;Node44 -->
<g id="edge178" class="edge">
<title>Node10&#45;&gt;Node44</title>
<path fill="none" stroke="midnightblue" d="M1545.84,-560.42C1522.81,-539.19 1460.01,-483.34 1400,-448 1377.39,-434.69 1350.11,-423.2 1328.89,-415.16"/>
<polygon fill="midnightblue" stroke="midnightblue" points="1329.9,-411.81 1319.3,-411.61 1327.46,-418.37 1329.9,-411.81"/>
</g>
<!-- Node11&#45;&gt;Node3 -->
<g id="edge22" class="edge">
<title>Node11&#45;&gt;Node3</title>
<path fill="none" stroke="midnightblue" d="M1488.1,-280.29C1482.25,-267.53 1470.53,-243.2 1458,-224 1451.51,-214.05 1443.29,-203.65 1436.35,-195.36"/>
<polygon fill="midnightblue" stroke="midnightblue" points="1438.86,-192.91 1429.7,-187.58 1433.54,-197.46 1438.86,-192.91"/>
</g>
<!-- Node11&#45;&gt;Node5 -->
<g id="edge15" class="edge">
<title>Node11&#45;&gt;Node5</title>
<path fill="none" stroke="midnightblue" d="M1518.88,-288.68C1636.61,-286.79 2117.93,-273.92 2501,-188 2545.62,-177.99 2659.36,-154.79 2699,-132 2730.06,-114.14 2737.21,-105.87 2757,-76 2766.59,-61.52 2773.29,-42.83 2777.32,-29.21"/>
<polygon fill="midnightblue" stroke="midnightblue" points="2780.7,-30.13 2779.99,-19.56 2773.95,-28.26 2780.7,-30.13"/>
</g>
<!-- Node11&#45;&gt;Node6 -->
<g id="edge17" class="edge">
<title>Node11&#45;&gt;Node6</title>
<path fill="none" stroke="midnightblue" d="M1518.65,-289.33C1614.96,-290.16 1944.2,-289.52 2037,-244 2110.84,-207.78 2167.14,-122.15 2189.04,-84.86"/>
<polygon fill="midnightblue" stroke="midnightblue" points="2192.35,-86.13 2194.29,-75.71 2186.28,-82.64 2192.35,-86.13"/>
</g>
<!-- Node11&#45;&gt;Node12 -->
<g id="edge13" class="edge">
<title>Node11&#45;&gt;Node12</title>
<path fill="none" stroke="midnightblue" d="M1465.33,-286.83C1430.13,-282.92 1367.33,-272.27 1322,-244 1228.17,-185.48 1257.47,-106.32 1159,-56 1080.44,-15.86 816.36,-10.94 703.2,-10.74"/>
<polygon fill="midnightblue" stroke="midnightblue" points="703.05,-7.24 693.05,-10.73 703.05,-14.24 703.05,-7.24"/>
</g>
<!-- Node13 -->
<g id="node13" class="node">
<title>Node13</title>
<g id="a_node13"><a xlink:title=" ">
<polygon fill="none" stroke="#bfbfbf" points="2034.5,-56.5 2034.5,-75.5 2121.5,-75.5 2121.5,-56.5 2034.5,-56.5"/>
<text text-anchor="middle" x="2078" y="-63.5" font-family="Helvetica,sans-Serif" font-size="10.00">vk_mem_alloc.h</text>
</a>
</g>
</g>
<!-- Node11&#45;&gt;Node13 -->
<g id="edge14" class="edge">
<title>Node11&#45;&gt;Node13</title>
<path fill="none" stroke="midnightblue" d="M1518.72,-288.27C1619.69,-285.32 1974.3,-272.96 2015,-244 2037.21,-228.2 2034.32,-214.66 2040,-188 2045.27,-163.27 2033.41,-157.05 2030,-132 2028.8,-123.19 2026.47,-120.16 2030,-112 2035.27,-99.84 2045.62,-89.46 2055.36,-81.74"/>
<polygon fill="midnightblue" stroke="midnightblue" points="2057.64,-84.41 2063.63,-75.67 2053.5,-78.77 2057.64,-84.41"/>
</g>
<!-- Node14 -->
<g id="node14" class="node">
<title>Node14</title>
<g id="a_node14"><a xlink:title=" ">
<polygon fill="none" stroke="#bfbfbf" points="1091.5,-56.5 1091.5,-75.5 1150.5,-75.5 1150.5,-56.5 1091.5,-56.5"/>
<text text-anchor="middle" x="1121" y="-63.5" font-family="Helvetica,sans-Serif" font-size="10.00">stdexcept</text>
</a>
</g>
</g>
<!-- Node11&#45;&gt;Node14 -->
<g id="edge16" class="edge">
<title>Node11&#45;&gt;Node14</title>
<path fill="none" stroke="midnightblue" d="M1465.48,-288.2C1418.28,-285.93 1317.38,-277.25 1240,-244 1201.45,-227.43 1189.01,-221.69 1164,-188 1140.61,-156.49 1129.05,-111.1 1124.12,-85.82"/>
<polygon fill="midnightblue" stroke="midnightblue" points="1127.52,-84.96 1122.3,-75.74 1120.63,-86.2 1127.52,-84.96"/>
</g>
<!-- Node15 -->
<g id="node15" class="node">
<title>Node15</title>
<g id="a_node15"><a xlink:title=" ">
<polygon fill="none" stroke="#bfbfbf" points="1618,-168.5 1618,-187.5 1648,-187.5 1648,-168.5 1618,-168.5"/>
<text text-anchor="middle" x="1633" y="-175.5" font-family="Helvetica,sans-Serif" font-size="10.00">set</text>
</a>
</g>
</g>
<!-- Node11&#45;&gt;Node15 -->
<g id="edge18" class="edge">
<title>Node11&#45;&gt;Node15</title>
<path fill="none" stroke="midnightblue" d="M1503.06,-280.37C1527.05,-261.65 1584.1,-217.15 1613.99,-193.83"/>
<polygon fill="midnightblue" stroke="midnightblue" points="1616.26,-196.5 1621.99,-187.59 1611.95,-190.98 1616.26,-196.5"/>
</g>
<!-- Node16 -->
<g id="node16" class="node">
<title>Node16</title>
<g id="a_node16"><a xlink:title=" ">
<polygon fill="none" stroke="#bfbfbf" points="1663,-0.5 1663,-19.5 1709,-19.5 1709,-0.5 1663,-0.5"/>
<text text-anchor="middle" x="1686" y="-7.5" font-family="Helvetica,sans-Serif" font-size="10.00">cstring</text>
</a>
</g>
</g>
<!-- Node11&#45;&gt;Node16 -->
<g id="edge19" class="edge">
<title>Node11&#45;&gt;Node16</title>
<path fill="none" stroke="midnightblue" d="M1472.88,-280.48C1432.43,-261.29 1344.68,-212.87 1380,-168 1422.14,-114.47 1467.56,-161.44 1529,-132 1586.94,-104.24 1643.87,-52.62 1670.45,-26.7"/>
<polygon fill="midnightblue" stroke="midnightblue" points="1673.04,-29.06 1677.69,-19.54 1668.12,-24.08 1673.04,-29.06"/>
</g>
<!-- Node17 -->
<g id="node17" class="node">
<title>Node17</title>
<g id="a_node17"><a xlink:title=" ">
<polygon fill="none" stroke="#bfbfbf" points="1797,-0.5 1797,-19.5 1851,-19.5 1851,-0.5 1797,-0.5"/>
<text text-anchor="middle" x="1824" y="-7.5" font-family="Helvetica,sans-Serif" font-size="10.00">iostream</text>
</a>
</g>
</g>
<!-- Node11&#45;&gt;Node17 -->
<g id="edge20" class="edge">
<title>Node11&#45;&gt;Node17</title>
<path fill="none" stroke="midnightblue" d="M1518.52,-288.45C1599.54,-286.43 1842.62,-277.65 1913,-244 1950.85,-225.9 1984.28,-207.07 1969,-168 1943.94,-103.93 1879.11,-50.3 1845.27,-25.61"/>
<polygon fill="midnightblue" stroke="midnightblue" points="1847.16,-22.66 1836.99,-19.69 1843.09,-28.35 1847.16,-22.66"/>
</g>
<!-- Node18 -->
<g id="node18" class="node">
<title>Node18</title>
<g id="a_node18"><a xlink:title=" ">
<polygon fill="none" stroke="#bfbfbf" points="1728.5,-112.5 1728.5,-131.5 1769.5,-131.5 1769.5,-112.5 1728.5,-112.5"/>
<text text-anchor="middle" x="1749" y="-119.5" font-family="Helvetica,sans-Serif" font-size="10.00">bitset</text>
</a>
</g>
</g>
<!-- Node11&#45;&gt;Node18 -->
<g id="edge21" class="edge">
<title>Node11&#45;&gt;Node18</title>
<path fill="none" stroke="midnightblue" d="M1482.13,-280.32C1456.98,-258.08 1392.1,-199.99 1387,-188 1383.52,-179.82 1381.12,-174.66 1387,-168 1408.84,-143.28 1634.95,-128.99 1718.33,-124.53"/>
<polygon fill="midnightblue" stroke="midnightblue" points="1718.64,-128.01 1728.45,-124 1718.28,-121.02 1718.64,-128.01"/>
</g>
<!-- Node19 -->
<g id="node19" class="node">
<title>Node19</title>
<g id="a_node19"><a xlink:href="physicaldevice_8h.html" target="_top" xlink:title=" ">
<polygon fill="none" stroke="black" points="1816,-224.5 1816,-243.5 1904,-243.5 1904,-224.5 1816,-224.5"/>
<text text-anchor="middle" x="1860" y="-231.5" font-family="Helvetica,sans-Serif" font-size="10.00">physicaldevice.h</text>
</a>
</g>
</g>
<!-- Node11&#45;&gt;Node19 -->
<g id="edge23" class="edge">
<title>Node11&#45;&gt;Node19</title>
<path fill="none" stroke="midnightblue" d="M1518.76,-285.07C1578.83,-276.26 1725.39,-254.75 1805.5,-243"/>
<polygon fill="midnightblue" stroke="midnightblue" points="1806.49,-246.39 1815.88,-241.47 1805.48,-239.46 1806.49,-246.39"/>
</g>
<!-- Node24 -->
<g id="node24" class="node">
<title>Node24</title>
<g id="a_node24"><a xlink:href="instance_8h.html" target="_top" xlink:title=" ">
<polygon fill="none" stroke="black" points="1764.5,-56.5 1764.5,-75.5 1825.5,-75.5 1825.5,-56.5 1764.5,-56.5"/>
<text text-anchor="middle" x="1795" y="-63.5" font-family="Helvetica,sans-Serif" font-size="10.00">instance.h</text>
</a>
</g>
</g>
<!-- Node11&#45;&gt;Node24 -->
<g id="edge66" class="edge">
<title>Node11&#45;&gt;Node24</title>
<path fill="none" stroke="midnightblue" d="M1498.6,-280.23C1508.4,-267.41 1527.64,-242.98 1546,-224 1572.04,-197.07 1578.34,-189.52 1609,-168 1661.59,-131.08 1729.13,-97.47 1766.65,-79.88"/>
<polygon fill="midnightblue" stroke="midnightblue" points="1768.36,-82.94 1775.95,-75.55 1765.41,-76.59 1768.36,-82.94"/>
</g>
<!-- Node19&#45;&gt;Node3 -->
<g id="edge30" class="edge">
<title>Node19&#45;&gt;Node3</title>
<path fill="none" stroke="midnightblue" d="M1816,-227.58C1729.11,-216.86 1537.06,-193.19 1457.55,-183.38"/>
<polygon fill="midnightblue" stroke="midnightblue" points="1457.89,-179.9 1447.54,-182.15 1457.03,-186.85 1457.89,-179.9"/>
</g>
<!-- Node19&#45;&gt;Node5 -->
<g id="edge29" class="edge">
<title>Node19&#45;&gt;Node5</title>
<path fill="none" stroke="midnightblue" d="M1904.39,-232.41C2026.51,-230.37 2365.37,-221.74 2471,-188 2487.34,-182.78 2488.06,-174.34 2504,-168 2574.55,-139.94 2605.12,-169.75 2671,-132 2716.38,-105.99 2753.73,-55.12 2771.25,-28.37"/>
<polygon fill="midnightblue" stroke="midnightblue" points="2774.35,-30.01 2776.78,-19.7 2768.45,-26.25 2774.35,-30.01"/>
</g>
<!-- Node19&#45;&gt;Node6 -->
<g id="edge25" class="edge">
<title>Node19&#45;&gt;Node6</title>
<path fill="none" stroke="midnightblue" d="M1882.39,-224.46C1904.61,-215.82 1939.52,-201.8 1969,-188 2045.77,-152.06 2133.73,-103.7 2175.11,-80.51"/>
<polygon fill="midnightblue" stroke="midnightblue" points="2176.9,-83.52 2183.9,-75.57 2173.47,-77.42 2176.9,-83.52"/>
</g>
<!-- Node19&#45;&gt;Node15 -->
<g id="edge26" class="edge">
<title>Node19&#45;&gt;Node15</title>
<path fill="none" stroke="midnightblue" d="M1824.03,-224.44C1777.67,-213.41 1698.24,-194.52 1657.98,-184.94"/>
<polygon fill="midnightblue" stroke="midnightblue" points="1658.71,-181.52 1648.17,-182.61 1657.09,-188.33 1658.71,-181.52"/>
</g>
<!-- Node19&#45;&gt;Node17 -->
<g id="edge27" class="edge">
<title>Node19&#45;&gt;Node17</title>
<path fill="none" stroke="midnightblue" d="M1860.5,-224.38C1860.99,-215.32 1861.72,-200.67 1862,-188 1862.2,-179.11 1863.05,-176.83 1862,-168 1855.96,-117.15 1847.08,-105.76 1835,-56 1832.89,-47.3 1830.53,-37.65 1828.54,-29.52"/>
<polygon fill="midnightblue" stroke="midnightblue" points="1831.9,-28.5 1826.12,-19.62 1825.1,-30.17 1831.9,-28.5"/>
</g>
<!-- Node19&#45;&gt;Node18 -->
<g id="edge28" class="edge">
<title>Node19&#45;&gt;Node18</title>
<path fill="none" stroke="midnightblue" d="M1851.15,-224.4C1841.87,-215.37 1826.87,-200.73 1814,-188 1797.27,-171.46 1778.26,-152.41 1765.14,-139.24"/>
<polygon fill="midnightblue" stroke="midnightblue" points="1767.34,-136.48 1757.8,-131.86 1762.37,-141.42 1767.34,-136.48"/>
</g>
<!-- Node20 -->
<g id="node20" class="node">
<title>Node20</title>
<g id="a_node20"><a xlink:title=" ">
<polygon fill="none" stroke="#bfbfbf" points="2810,-112.5 2810,-131.5 2918,-131.5 2918,-112.5 2810,-112.5"/>
<text text-anchor="middle" x="2864" y="-119.5" font-family="Helvetica,sans-Serif" font-size="10.00">vulkan/vulkan_core.h</text>
</a>
</g>
</g>
<!-- Node19&#45;&gt;Node20 -->
<g id="edge24" class="edge">
<title>Node19&#45;&gt;Node20</title>
<path fill="none" stroke="midnightblue" d="M1904.28,-231.57C2008.93,-227.82 2279.62,-216.01 2504,-188 2518.97,-186.13 2710.07,-151.22 2807.58,-133.35"/>
<polygon fill="midnightblue" stroke="midnightblue" points="2808.36,-136.77 2817.56,-131.52 2807.1,-129.88 2808.36,-136.77"/>
</g>
<!-- Node21 -->
<g id="node21" class="node">
<title>Node21</title>
<g id="a_node21"><a xlink:href="types_8h.html" target="_top" xlink:title=" ">
<polygon fill="none" stroke="black" points="1912.5,-168.5 1912.5,-187.5 1959.5,-187.5 1959.5,-168.5 1912.5,-168.5"/>
<text text-anchor="middle" x="1936" y="-175.5" font-family="Helvetica,sans-Serif" font-size="10.00">types.h</text>
</a>
</g>
</g>
<!-- Node19&#45;&gt;Node21 -->
<g id="edge31" class="edge">
<title>Node19&#45;&gt;Node21</title>
<path fill="none" stroke="midnightblue" d="M1872.21,-224.32C1883.78,-216.11 1901.38,-203.6 1915.16,-193.81"/>
<polygon fill="midnightblue" stroke="midnightblue" points="1917.44,-196.48 1923.57,-187.83 1913.39,-190.77 1917.44,-196.48"/>
</g>
<!-- Node23 -->
<g id="node23" class="node">
<title>Node23</title>
<g id="a_node23"><a xlink:href="vulkanclass_8h.html" target="_top" xlink:title=" ">
<polygon fill="none" stroke="black" points="580,-56.5 580,-75.5 656,-75.5 656,-56.5 580,-56.5"/>
<text text-anchor="middle" x="618" y="-63.5" font-family="Helvetica,sans-Serif" font-size="10.00">vulkanclass.h</text>
</a>
</g>
</g>
<!-- Node19&#45;&gt;Node23 -->
<g id="edge35" class="edge">
<title>Node19&#45;&gt;Node23</title>
<path fill="none" stroke="midnightblue" d="M1838.79,-224.46C1802.3,-210.17 1725.03,-181.65 1657,-168 1474.61,-131.41 1425.18,-149.67 1240,-132 1026.05,-111.59 771.07,-83.88 666.44,-72.36"/>
<polygon fill="midnightblue" stroke="midnightblue" points="666.52,-68.85 656.2,-71.23 665.75,-75.81 666.52,-68.85"/>
</g>
<!-- Node19&#45;&gt;Node24 -->
<g id="edge37" class="edge">
<title>Node19&#45;&gt;Node24</title>
<path fill="none" stroke="midnightblue" d="M1853.24,-224.08C1838.8,-197.95 1808.36,-121.21 1797.82,-85.58"/>
<polygon fill="midnightblue" stroke="midnightblue" points="1801.11,-84.33 1795.15,-75.57 1794.35,-86.13 1801.11,-84.33"/>
</g>
<!-- Node26 -->
<g id="node26" class="node">
<title>Node26</title>
<g id="a_node26"><a xlink:href="queues_8h.html" target="_top" xlink:title=" ">
<polygon fill="none" stroke="black" points="2406,-168.5 2406,-187.5 2462,-187.5 2462,-168.5 2406,-168.5"/>
<text text-anchor="middle" x="2434" y="-175.5" font-family="Helvetica,sans-Serif" font-size="10.00">queues.h</text>
</a>
</g>
</g>
<!-- Node19&#45;&gt;Node26 -->
<g id="edge44" class="edge">
<title>Node19&#45;&gt;Node26</title>
<path fill="none" stroke="midnightblue" d="M1904.01,-228.49C2012.92,-217.88 2293.16,-191.53 2395.75,-182.27"/>
<polygon fill="midnightblue" stroke="midnightblue" points="2396.31,-185.74 2405.96,-181.36 2395.68,-178.77 2396.31,-185.74"/>
</g>
<!-- Node21&#45;&gt;Node5 -->
<g id="edge33" class="edge">
<title>Node21&#45;&gt;Node5</title>
<path fill="none" stroke="midnightblue" d="M1936.75,-168.34C1939.32,-144.78 1950.12,-79.75 1992,-56 2025.45,-37.04 2604.78,-16.82 2749.46,-12.05"/>
<polygon fill="midnightblue" stroke="midnightblue" points="2749.99,-15.53 2759.87,-11.71 2749.76,-8.54 2749.99,-15.53"/>
</g>
<!-- Node21&#45;&gt;Node12 -->
<g id="edge32" class="edge">
<title>Node21&#45;&gt;Node12</title>
<path fill="none" stroke="midnightblue" d="M1912.23,-175.43C1828.92,-169.84 1550.52,-150.2 1463,-132 1356.36,-109.82 1336.83,-77.26 1230,-56 1038.56,-17.9 805.53,-11.69 703.31,-10.93"/>
<polygon fill="midnightblue" stroke="midnightblue" points="703.27,-7.43 693.24,-10.87 703.22,-14.43 703.27,-7.43"/>
</g>
<!-- Node22 -->
<g id="node22" class="node">
<title>Node22</title>
<g id="a_node22"><a xlink:title=" ">
<polygon fill="none" stroke="#bfbfbf" points="2224,-112.5 2224,-131.5 2274,-131.5 2274,-112.5 2224,-112.5"/>
<text text-anchor="middle" x="2249" y="-119.5" font-family="Helvetica,sans-Serif" font-size="10.00">optional</text>
</a>
</g>
</g>
<!-- Node21&#45;&gt;Node22 -->
<g id="edge34" class="edge">
<title>Node21&#45;&gt;Node22</title>
<path fill="none" stroke="midnightblue" d="M1959.53,-172.94C2014.07,-163.53 2149.4,-140.18 2213.83,-129.07"/>
<polygon fill="midnightblue" stroke="midnightblue" points="2214.64,-132.48 2223.9,-127.33 2213.45,-125.58 2214.64,-132.48"/>
</g>
<!-- Node23&#45;&gt;Node12 -->
<g id="edge36" class="edge">
<title>Node23&#45;&gt;Node12</title>
<path fill="none" stroke="midnightblue" d="M623.45,-56.08C628.01,-48.61 634.67,-37.72 640.29,-28.52"/>
<polygon fill="midnightblue" stroke="midnightblue" points="643.42,-30.11 645.65,-19.75 637.45,-26.46 643.42,-30.11"/>
</g>
<!-- Node24&#45;&gt;Node5 -->
<g id="edge40" class="edge">
<title>Node24&#45;&gt;Node5</title>
<path fill="none" stroke="midnightblue" d="M1825.71,-61.24C1841.34,-59.43 1860.66,-57.37 1878,-56 2218.65,-29.08 2632.87,-15.42 2749.87,-11.92"/>
<polygon fill="midnightblue" stroke="midnightblue" points="2750.05,-15.42 2759.94,-11.62 2749.84,-8.42 2750.05,-15.42"/>
</g>
<!-- Node24&#45;&gt;Node12 -->
<g id="edge38" class="edge">
<title>Node24&#45;&gt;Node12</title>
<path fill="none" stroke="midnightblue" d="M1764.4,-63.56C1608.54,-56.2 902.5,-22.87 703.41,-13.47"/>
<polygon fill="midnightblue" stroke="midnightblue" points="703.37,-9.97 693.21,-12.99 703.04,-16.96 703.37,-9.97"/>
</g>
<!-- Node24&#45;&gt;Node16 -->
<g id="edge41" class="edge">
<title>Node24&#45;&gt;Node16</title>
<path fill="none" stroke="midnightblue" d="M1777.49,-56.32C1759.93,-47.62 1732.67,-34.12 1712.47,-24.11"/>
<polygon fill="midnightblue" stroke="midnightblue" points="1713.98,-20.96 1703.47,-19.65 1710.88,-27.23 1713.98,-20.96"/>
</g>
<!-- Node24&#45;&gt;Node17 -->
<g id="edge42" class="edge">
<title>Node24&#45;&gt;Node17</title>
<path fill="none" stroke="midnightblue" d="M1799.79,-56.08C1803.76,-48.69 1809.53,-37.95 1814.43,-28.81"/>
<polygon fill="midnightblue" stroke="midnightblue" points="1817.65,-30.22 1819.3,-19.75 1811.49,-26.91 1817.65,-30.22"/>
</g>
<!-- Node24&#45;&gt;Node19 -->
<g id="edge43" class="edge">
<title>Node24&#45;&gt;Node19</title>
<path fill="none" stroke="midnightblue" d="M1801.56,-75.57C1815.92,-101.34 1846.58,-178.59 1857.17,-214.39"/>
<polygon fill="midnightblue" stroke="midnightblue" points="1853.79,-215.33 1859.77,-224.08 1860.55,-213.51 1853.79,-215.33"/>
</g>
<!-- Node25 -->
<g id="node25" class="node">
<title>Node25</title>
<g id="a_node25"><a xlink:title=" ">
<polygon fill="none" stroke="#bfbfbf" points="2281.5,-0.5 2281.5,-19.5 2360.5,-19.5 2360.5,-0.5 2281.5,-0.5"/>
<text text-anchor="middle" x="2321" y="-7.5" font-family="Helvetica,sans-Serif" font-size="10.00">GLFW/glfw3.h</text>
</a>
</g>
</g>
<!-- Node24&#45;&gt;Node25 -->
<g id="edge39" class="edge">
<title>Node24&#45;&gt;Node25</title>
<path fill="none" stroke="midnightblue" d="M1825.74,-61.62C1841.38,-59.91 1860.7,-57.82 1878,-56 2020.67,-41.02 2189.27,-24.11 2271.25,-15.94"/>
<polygon fill="midnightblue" stroke="midnightblue" points="2271.68,-19.42 2281.28,-14.94 2270.98,-12.45 2271.68,-19.42"/>
</g>
<!-- Node26&#45;&gt;Node5 -->
<g id="edge46" class="edge">
<title>Node26&#45;&gt;Node5</title>
<path fill="none" stroke="midnightblue" d="M2462.01,-170.97C2466.68,-169.98 2471.48,-168.96 2476,-168 2552.84,-151.77 2585.57,-178.3 2649,-132 2680.35,-109.12 2663.86,-82.73 2692,-56 2708.53,-40.29 2731.61,-28.9 2750.25,-21.51"/>
<polygon fill="midnightblue" stroke="midnightblue" points="2751.69,-24.71 2759.81,-17.91 2749.22,-18.16 2751.69,-24.71"/>
</g>
<!-- Node26&#45;&gt;Node11 -->
<g id="edge54" class="edge">
<title>Node26&#45;&gt;Node11</title>
<path fill="none" stroke="midnightblue" d="M2405.72,-185.48C2347.27,-198.62 2208.77,-228.47 2091,-244 1879.2,-271.93 1622.8,-283.98 1528.81,-287.67"/>
<polygon fill="midnightblue" stroke="midnightblue" points="1528.54,-284.18 1518.68,-288.06 1528.81,-291.18 1528.54,-284.18"/>
</g>
<!-- Node26&#45;&gt;Node18 -->
<g id="edge50" class="edge">
<title>Node26&#45;&gt;Node18</title>
<path fill="none" stroke="midnightblue" d="M2405.87,-174.78C2295.75,-166.1 1894.4,-134.46 1779.77,-125.43"/>
<polygon fill="midnightblue" stroke="midnightblue" points="1779.83,-121.92 1769.59,-124.62 1779.28,-128.9 1779.83,-121.92"/>
</g>
<!-- Node26&#45;&gt;Node19 -->
<g id="edge55" class="edge">
<title>Node26&#45;&gt;Node19</title>
<path fill="none" stroke="midnightblue" d="M2405.7,-181.97C2315.32,-190.88 2033.31,-217.44 1914.04,-228.29"/>
<polygon fill="midnightblue" stroke="midnightblue" points="1913.67,-224.81 1904.03,-229.2 1914.31,-231.78 1913.67,-224.81"/>
</g>
<!-- Node26&#45;&gt;Node20 -->
<g id="edge45" class="edge">
<title>Node26&#45;&gt;Node20</title>
<path fill="none" stroke="midnightblue" d="M2462.21,-173.46C2530.27,-164.91 2704.83,-142.99 2799.92,-131.05"/>
<polygon fill="midnightblue" stroke="midnightblue" points="2800.5,-134.5 2809.99,-129.78 2799.63,-127.56 2800.5,-134.5"/>
</g>
<!-- Node26&#45;&gt;Node22 -->
<g id="edge49" class="edge">
<title>Node26&#45;&gt;Node22</title>
<path fill="none" stroke="midnightblue" d="M2405.9,-168.8C2373.24,-159.27 2319.32,-143.53 2283.97,-133.21"/>
<polygon fill="midnightblue" stroke="midnightblue" points="2284.67,-129.77 2274.09,-130.32 2282.71,-136.49 2284.67,-129.77"/>
</g>
<!-- Node26&#45;&gt;Node23 -->
<g id="edge53" class="edge">
<title>Node26&#45;&gt;Node23</title>
<path fill="none" stroke="midnightblue" d="M2405.77,-176.27C2289.37,-173.13 1835.35,-159.7 1463,-132 1376.12,-125.54 1354.8,-119.45 1268,-112 1043.31,-92.71 774.38,-76.17 666.38,-69.8"/>
<polygon fill="midnightblue" stroke="midnightblue" points="666.32,-66.29 656.13,-69.2 665.91,-73.28 666.32,-66.29"/>
</g>
<!-- Node27 -->
<g id="node27" class="node">
<title>Node27</title>
<g id="a_node27"><a xlink:title=" ">
<polygon fill="none" stroke="#bfbfbf" points="2406.5,-112.5 2406.5,-131.5 2441.5,-131.5 2441.5,-112.5 2406.5,-112.5"/>
<text text-anchor="middle" x="2424" y="-119.5" font-family="Helvetica,sans-Serif" font-size="10.00">map</text>
</a>
</g>
</g>
<!-- Node26&#45;&gt;Node27 -->
<g id="edge47" class="edge">
<title>Node26&#45;&gt;Node27</title>
<path fill="none" stroke="midnightblue" d="M2432.35,-168.08C2431.02,-160.93 2429.12,-150.64 2427.46,-141.69"/>
<polygon fill="midnightblue" stroke="midnightblue" points="2430.88,-140.95 2425.62,-131.75 2424,-142.22 2430.88,-140.95"/>
</g>
<!-- Node28 -->
<g id="node28" class="node">
<title>Node28</title>
<g id="a_node28"><a xlink:title=" ">
<polygon fill="none" stroke="#bfbfbf" points="2460,-112.5 2460,-131.5 2516,-131.5 2516,-112.5 2460,-112.5"/>
<text text-anchor="middle" x="2488" y="-119.5" font-family="Helvetica,sans-Serif" font-size="10.00">algorithm</text>
</a>
</g>
</g>
<!-- Node26&#45;&gt;Node28 -->
<g id="edge48" class="edge">
<title>Node26&#45;&gt;Node28</title>
<path fill="none" stroke="midnightblue" d="M2442.92,-168.08C2450.78,-160.22 2462.43,-148.57 2471.92,-139.08"/>
<polygon fill="midnightblue" stroke="midnightblue" points="2474.65,-141.3 2479.25,-131.75 2469.7,-136.35 2474.65,-141.3"/>
</g>
<!-- Node29 -->
<g id="node29" class="node">
<title>Node29</title>
<g id="a_node29"><a xlink:title=" ">
<polygon fill="none" stroke="#bfbfbf" points="2534,-112.5 2534,-131.5 2578,-131.5 2578,-112.5 2534,-112.5"/>
<text text-anchor="middle" x="2556" y="-119.5" font-family="Helvetica,sans-Serif" font-size="10.00">thread</text>
</a>
</g>
</g>
<!-- Node26&#45;&gt;Node29 -->
<g id="edge51" class="edge">
<title>Node26&#45;&gt;Node29</title>
<path fill="none" stroke="midnightblue" d="M2453.33,-168.44C2473.32,-159.6 2504.74,-145.69 2527.56,-135.59"/>
<polygon fill="midnightblue" stroke="midnightblue" points="2529.03,-138.76 2536.76,-131.52 2526.2,-132.36 2529.03,-138.76"/>
</g>
<!-- Node30 -->
<g id="node30" class="node">
<title>Node30</title>
<g id="a_node30"><a xlink:title=" ">
<polygon fill="none" stroke="#bfbfbf" points="2596.5,-112.5 2596.5,-131.5 2639.5,-131.5 2639.5,-112.5 2596.5,-112.5"/>
<text text-anchor="middle" x="2618" y="-119.5" font-family="Helvetica,sans-Serif" font-size="10.00">mutex</text>
</a>
</g>
</g>
<!-- Node26&#45;&gt;Node30 -->
<g id="edge52" class="edge">
<title>Node26&#45;&gt;Node30</title>
<path fill="none" stroke="midnightblue" d="M2462.35,-168.68C2495.93,-158.83 2551.7,-142.46 2586.57,-132.22"/>
<polygon fill="midnightblue" stroke="midnightblue" points="2587.64,-135.56 2596.25,-129.38 2585.67,-128.84 2587.64,-135.56"/>
</g>
<!-- Node31 -->
<g id="node31" class="node">
<title>Node31</title>
<g id="a_node31"><a xlink:href="window_8h.html" target="_top" xlink:title=" ">
<polygon fill="none" stroke="black" points="2292.5,-112.5 2292.5,-131.5 2349.5,-131.5 2349.5,-112.5 2292.5,-112.5"/>
<text text-anchor="middle" x="2321" y="-119.5" font-family="Helvetica,sans-Serif" font-size="10.00">window.h</text>
</a>
</g>
</g>
<!-- Node26&#45;&gt;Node31 -->
<g id="edge56" class="edge">
<title>Node26&#45;&gt;Node31</title>
<path fill="none" stroke="midnightblue" d="M2416.09,-168.44C2397.75,-159.68 2368.99,-145.94 2347.91,-135.86"/>
<polygon fill="midnightblue" stroke="midnightblue" points="2349.35,-132.67 2338.82,-131.52 2346.33,-138.99 2349.35,-132.67"/>
</g>
<!-- Node32 -->
<g id="node32" class="node">
<title>Node32</title>
<g id="a_node32"><a xlink:href="fence_8h.html" target="_top" xlink:title=" ">
<polygon fill="none" stroke="black" points="1472,-112.5 1472,-131.5 1520,-131.5 1520,-112.5 1472,-112.5"/>
<text text-anchor="middle" x="1496" y="-119.5" font-family="Helvetica,sans-Serif" font-size="10.00">fence.h</text>
</a>
</g>
</g>
<!-- Node26&#45;&gt;Node32 -->
<g id="edge61" class="edge">
<title>Node26&#45;&gt;Node32</title>
<path fill="none" stroke="midnightblue" d="M2405.93,-175.38C2270.02,-167.56 1680.84,-133.64 1530.84,-125.01"/>
<polygon fill="midnightblue" stroke="midnightblue" points="1530.61,-121.49 1520.42,-124.41 1530.2,-128.47 1530.61,-121.49"/>
</g>
<!-- Node31&#45;&gt;Node6 -->
<g id="edge58" class="edge">
<title>Node31&#45;&gt;Node6</title>
<path fill="none" stroke="midnightblue" d="M2301.67,-112.44C2281.68,-103.6 2250.26,-89.69 2227.44,-79.59"/>
<polygon fill="midnightblue" stroke="midnightblue" points="2228.8,-76.36 2218.24,-75.52 2225.97,-82.76 2228.8,-76.36"/>
</g>
<!-- Node31&#45;&gt;Node14 -->
<g id="edge59" class="edge">
<title>Node31&#45;&gt;Node14</title>
<path fill="none" stroke="midnightblue" d="M2292.48,-113.62C2289.3,-112.98 2286.09,-112.42 2283,-112 2059.16,-81.45 1338.6,-69.92 1160.9,-67.51"/>
<polygon fill="midnightblue" stroke="midnightblue" points="1160.74,-64 1150.69,-67.37 1160.65,-71 1160.74,-64"/>
</g>
<!-- Node31&#45;&gt;Node24 -->
<g id="edge60" class="edge">
<title>Node31&#45;&gt;Node24</title>
<path fill="none" stroke="midnightblue" d="M2292.45,-113.78C2289.28,-113.12 2286.08,-112.5 2283,-112 2118.54,-85.08 1920.06,-73.01 1835.9,-68.83"/>
<polygon fill="midnightblue" stroke="midnightblue" points="1835.9,-65.32 1825.74,-68.33 1835.56,-72.31 1835.9,-65.32"/>
</g>
<!-- Node31&#45;&gt;Node25 -->
<g id="edge57" class="edge">
<title>Node31&#45;&gt;Node25</title>
<path fill="none" stroke="midnightblue" d="M2321,-112.37C2321,-94.62 2321,-53.67 2321,-29.6"/>
<polygon fill="midnightblue" stroke="midnightblue" points="2324.5,-29.59 2321,-19.59 2317.5,-29.59 2324.5,-29.59"/>
</g>
<!-- Node32&#45;&gt;Node11 -->
<g id="edge65" class="edge">
<title>Node32&#45;&gt;Node11</title>
<path fill="none" stroke="midnightblue" d="M1471.79,-125.42C1427.24,-130.43 1335.08,-143.56 1316,-168 1272.44,-223.79 1391.68,-263.65 1455.17,-280.32"/>
<polygon fill="midnightblue" stroke="midnightblue" points="1454.66,-283.81 1465.21,-282.89 1456.39,-277.02 1454.66,-283.81"/>
</g>
<!-- Node32&#45;&gt;Node12 -->
<g id="edge62" class="edge">
<title>Node32&#45;&gt;Node12</title>
<path fill="none" stroke="midnightblue" d="M1489.17,-112.26C1477.07,-97.54 1450.28,-68.2 1420,-56 1353.96,-29.39 865.68,-15.91 703.32,-12.13"/>
<polygon fill="midnightblue" stroke="midnightblue" points="703.19,-8.63 693.11,-11.9 703.03,-15.63 703.19,-8.63"/>
</g>
<!-- Node32&#45;&gt;Node13 -->
<g id="edge63" class="edge">
<title>Node32&#45;&gt;Node13</title>
<path fill="none" stroke="midnightblue" d="M1520.27,-118.75C1606.81,-110.72 1901.66,-83.36 2024.06,-72"/>
<polygon fill="midnightblue" stroke="midnightblue" points="2024.68,-75.46 2034.31,-71.05 2024.03,-68.49 2024.68,-75.46"/>
</g>
<!-- Node32&#45;&gt;Node23 -->
<g id="edge64" class="edge">
<title>Node32&#45;&gt;Node23</title>
<path fill="none" stroke="midnightblue" d="M1471.59,-114.54C1467.1,-113.55 1462.43,-112.64 1458,-112 1159.58,-69.02 796.19,-66.1 666.69,-66.57"/>
<polygon fill="midnightblue" stroke="midnightblue" points="666.32,-63.08 656.33,-66.62 666.35,-70.08 666.32,-63.08"/>
</g>
<!-- Node33&#45;&gt;Node5 -->
<g id="edge88" class="edge">
<title>Node33&#45;&gt;Node5</title>
<path fill="none" stroke="midnightblue" d="M1391.08,-454.22C1501.66,-446.3 1815.38,-423.45 1918,-412 1959.21,-407.4 2616.41,-312.36 2656,-300 2785.8,-259.48 2808.03,-223.86 2932,-168 2969.4,-151.15 2994.34,-166.2 3017,-132 3035.65,-103.84 3038.52,-82.03 3017,-56 2991.65,-25.33 2872.64,-15.36 2814.34,-12.29"/>
<polygon fill="midnightblue" stroke="midnightblue" points="2814.36,-8.79 2804.2,-11.79 2814.02,-15.78 2814.36,-8.79"/>
</g>
<!-- Node33&#45;&gt;Node11 -->
<g id="edge69" class="edge">
<title>Node33&#45;&gt;Node11</title>
<path fill="none" stroke="midnightblue" d="M1359.53,-448.08C1382.04,-421.38 1449.1,-341.87 1478.23,-307.32"/>
<polygon fill="midnightblue" stroke="midnightblue" points="1481,-309.47 1484.77,-299.57 1475.65,-304.96 1481,-309.47"/>
</g>
<!-- Node33&#45;&gt;Node20 -->
<g id="edge68" class="edge">
<title>Node33&#45;&gt;Node20</title>
<path fill="none" stroke="midnightblue" d="M1391.04,-453.45C1541.21,-439.68 2081.69,-388.88 2251,-356 2342.04,-338.32 2363.52,-327.78 2452,-300 2523.88,-277.43 2543.61,-275.6 2612,-244 2672.75,-215.93 2681.48,-196.58 2742,-168 2769.81,-154.87 2802.57,-142.97 2827.14,-134.71"/>
<polygon fill="midnightblue" stroke="midnightblue" points="2828.4,-137.98 2836.79,-131.51 2826.2,-131.33 2828.4,-137.98"/>
</g>
<!-- Node33&#45;&gt;Node23 -->
<g id="edge70" class="edge">
<title>Node33&#45;&gt;Node23</title>
<path fill="none" stroke="midnightblue" d="M1312.9,-455.57C1149.17,-449.16 524.49,-420.62 468,-356 393.67,-270.97 459.63,-192.35 539,-112 552.5,-98.33 571.03,-87.49 586.75,-79.87"/>
<polygon fill="midnightblue" stroke="midnightblue" points="588.49,-82.92 596.1,-75.55 585.55,-76.57 588.49,-82.92"/>
</g>
<!-- Node34 -->
<g id="node34" class="node">
<title>Node34</title>
<g id="a_node34"><a xlink:href="pipelinelayout_8h.html" target="_top" xlink:title=" ">
<polygon fill="none" stroke="black" points="892.5,-392.5 892.5,-411.5 975.5,-411.5 975.5,-392.5 892.5,-392.5"/>
<text text-anchor="middle" x="934" y="-399.5" font-family="Helvetica,sans-Serif" font-size="10.00">pipelinelayout.h</text>
</a>
</g>
</g>
<!-- Node33&#45;&gt;Node34 -->
<g id="edge71" class="edge">
<title>Node33&#45;&gt;Node34</title>
<path fill="none" stroke="midnightblue" d="M1312.68,-451.92C1236.88,-442.13 1070.59,-420.65 985.85,-409.7"/>
<polygon fill="midnightblue" stroke="midnightblue" points="986.05,-406.2 975.69,-408.39 985.16,-413.14 986.05,-406.2"/>
</g>
<!-- Node36 -->
<g id="node36" class="node">
<title>Node36</title>
<g id="a_node36"><a xlink:href="descriptorlayout_8h.html" target="_top" xlink:title=" ">
<polygon fill="none" stroke="black" points="1034,-336.5 1034,-355.5 1126,-355.5 1126,-336.5 1034,-336.5"/>
<text text-anchor="middle" x="1080" y="-343.5" font-family="Helvetica,sans-Serif" font-size="10.00">descriptorlayout.h</text>
</a>
</g>
</g>
<!-- Node33&#45;&gt;Node36 -->
<g id="edge87" class="edge">
<title>Node33&#45;&gt;Node36</title>
<path fill="none" stroke="midnightblue" d="M1330.66,-448.37C1282.69,-428.97 1166.22,-381.87 1110.58,-359.37"/>
<polygon fill="midnightblue" stroke="midnightblue" points="1111.83,-356.1 1101.24,-355.59 1109.2,-362.59 1111.83,-356.1"/>
</g>
<!-- Node34&#45;&gt;Node5 -->
<g id="edge74" class="edge">
<title>Node34&#45;&gt;Node5</title>
<path fill="none" stroke="midnightblue" d="M975.62,-399.72C1177.84,-393.46 2048.43,-365.96 2058,-356 2150.9,-259.31 1934.04,-153.59 2026,-56 2051.18,-29.27 2608.27,-14.92 2749.62,-11.7"/>
<polygon fill="midnightblue" stroke="midnightblue" points="2749.89,-15.2 2759.81,-11.47 2749.73,-8.2 2749.89,-15.2"/>
</g>
<!-- Node34&#45;&gt;Node11 -->
<g id="edge85" class="edge">
<title>Node34&#45;&gt;Node11</title>
<path fill="none" stroke="midnightblue" d="M975.52,-394.4C1016.67,-387.23 1081.17,-374.31 1135,-356 1154.95,-349.21 1157.8,-342 1178,-336 1275.61,-307 1396.02,-296.41 1455.38,-292.77"/>
<polygon fill="midnightblue" stroke="midnightblue" points="1455.61,-296.27 1465.39,-292.19 1455.2,-289.28 1455.61,-296.27"/>
</g>
<!-- Node34&#45;&gt;Node12 -->
<g id="edge72" class="edge">
<title>Node34&#45;&gt;Node12</title>
<path fill="none" stroke="midnightblue" d="M892.37,-396.84C876.05,-395.26 857.15,-393.48 840,-392 735.86,-383.02 465.36,-400.97 371,-356 358.81,-350.19 179.56,-159.82 169,-132 155.93,-97.57 170.98,-75.84 202,-56 266.52,-14.73 494.43,-10.25 598.49,-10.44"/>
<polygon fill="midnightblue" stroke="midnightblue" points="598.75,-13.94 608.76,-10.47 598.77,-6.94 598.75,-13.94"/>
</g>
<!-- Node34&#45;&gt;Node14 -->
<g id="edge73" class="edge">
<title>Node34&#45;&gt;Node14</title>
<path fill="none" stroke="midnightblue" d="M918.27,-392.24C906.11,-384.48 890.19,-371.93 883,-356 862.78,-311.19 885.2,-295.44 936,-224 977.16,-166.11 994.36,-156.15 1050,-112 1064.72,-100.32 1082.6,-89 1096.74,-80.64"/>
<polygon fill="midnightblue" stroke="midnightblue" points="1098.52,-83.65 1105.41,-75.6 1095.01,-77.59 1098.52,-83.65"/>
</g>
<!-- Node34&#45;&gt;Node23 -->
<g id="edge86" class="edge">
<title>Node34&#45;&gt;Node23</title>
<path fill="none" stroke="midnightblue" d="M892.46,-393.99C887.59,-393.27 882.69,-392.59 878,-392 833.39,-386.43 505.34,-389.17 475,-356 469,-349.44 473.47,-344.76 475,-336 493.27,-231.72 492.36,-196.6 556,-112 565.65,-99.17 579.98,-88.44 592.44,-80.67"/>
<polygon fill="midnightblue" stroke="midnightblue" points="594.26,-83.66 601.08,-75.56 590.69,-77.64 594.26,-83.66"/>
</g>
<!-- Node35 -->
<g id="node35" class="node">
<title>Node35</title>
<g id="a_node35"><a xlink:title=" ">
<polygon fill="none" stroke="#bfbfbf" points="484.5,-336.5 484.5,-355.5 543.5,-355.5 543.5,-336.5 484.5,-336.5"/>
<text text-anchor="middle" x="514" y="-343.5" font-family="Helvetica,sans-Serif" font-size="10.00">functional</text>
</a>
</g>
</g>
<!-- Node34&#45;&gt;Node35 -->
<g id="edge75" class="edge">
<title>Node34&#45;&gt;Node35</title>
<path fill="none" stroke="midnightblue" d="M892.44,-394.1C887.58,-393.36 882.68,-392.64 878,-392 736.2,-372.64 699.36,-378.36 558,-356 556.56,-355.77 555.09,-355.53 553.61,-355.27"/>
<polygon fill="midnightblue" stroke="midnightblue" points="554.22,-351.83 543.76,-353.46 552.96,-358.71 554.22,-351.83"/>
</g>
<!-- Node34&#45;&gt;Node36 -->
<g id="edge76" class="edge">
<title>Node34&#45;&gt;Node36</title>
<path fill="none" stroke="midnightblue" d="M957.13,-392.44C981.48,-383.44 1020.01,-369.19 1047.42,-359.05"/>
<polygon fill="midnightblue" stroke="midnightblue" points="1048.81,-362.27 1056.97,-355.52 1046.38,-355.7 1048.81,-362.27"/>
</g>
<!-- Node37 -->
<g id="node37" class="node">
<title>Node37</title>
<g id="a_node37"><a xlink:href="pushconstant_8h.html" target="_top" xlink:title=" ">
<polygon fill="none" stroke="black" points="192.5,-112.5 192.5,-131.5 275.5,-131.5 275.5,-112.5 192.5,-112.5"/>
<text text-anchor="middle" x="234" y="-119.5" font-family="Helvetica,sans-Serif" font-size="10.00">pushconstant.h</text>
</a>
</g>
</g>
<!-- Node34&#45;&gt;Node37 -->
<g id="edge82" class="edge">
<title>Node34&#45;&gt;Node37</title>
<path fill="none" stroke="midnightblue" d="M892.36,-396.9C876.04,-395.32 857.15,-393.53 840,-392 743.17,-383.37 488.78,-403.58 404,-356 314.66,-305.86 259.54,-187.04 241,-141.34"/>
<polygon fill="midnightblue" stroke="midnightblue" points="244.18,-139.86 237.25,-131.84 237.67,-142.42 244.18,-139.86"/>
</g>
<!-- Node36&#45;&gt;Node5 -->
<g id="edge79" class="edge">
<title>Node36&#45;&gt;Node5</title>
<path fill="none" stroke="midnightblue" d="M1091.62,-336.39C1130.41,-308.06 1259.78,-216.72 1380,-168 1443.14,-142.41 1463.53,-150.83 1529,-132 1631.25,-102.59 1651.39,-75.41 1756,-56 1855.5,-37.54 2585.47,-16.43 2749.39,-11.89"/>
<polygon fill="midnightblue" stroke="midnightblue" points="2749.87,-15.38 2759.77,-11.6 2749.68,-8.38 2749.87,-15.38"/>
</g>
<!-- Node36&#45;&gt;Node11 -->
<g id="edge81" class="edge">
<title>Node36&#45;&gt;Node11</title>
<path fill="none" stroke="midnightblue" d="M1126.17,-337.97C1130.84,-337.29 1135.51,-336.62 1140,-336 1255.03,-320.02 1391.51,-303.18 1455.49,-295.4"/>
<polygon fill="midnightblue" stroke="midnightblue" points="1455.97,-298.87 1465.48,-294.19 1455.13,-291.92 1455.97,-298.87"/>
</g>
<!-- Node36&#45;&gt;Node12 -->
<g id="edge77" class="edge">
<title>Node36&#45;&gt;Node12</title>
<path fill="none" stroke="midnightblue" d="M1064.18,-336.48C1015.94,-309.96 874,-227.8 874,-179 874,-179 874,-179 874,-121 874,-90.2 873.16,-76.3 850,-56 828.46,-37.12 754.72,-24.14 703.33,-17.13"/>
<polygon fill="midnightblue" stroke="midnightblue" points="703.74,-13.66 693.37,-15.81 702.82,-20.6 703.74,-13.66"/>
</g>
<!-- Node36&#45;&gt;Node14 -->
<g id="edge78" class="edge">
<title>Node36&#45;&gt;Node14</title>
<path fill="none" stroke="midnightblue" d="M1081.27,-336.38C1086.98,-297.7 1110.26,-139.79 1118.28,-85.47"/>
<polygon fill="midnightblue" stroke="midnightblue" points="1121.75,-85.93 1119.74,-75.52 1114.82,-84.91 1121.75,-85.93"/>
</g>
<!-- Node36&#45;&gt;Node23 -->
<g id="edge80" class="edge">
<title>Node36&#45;&gt;Node23</title>
<path fill="none" stroke="midnightblue" d="M1056.96,-336.46C1015.92,-320.8 928.09,-285.31 860,-244 778.22,-194.38 768.44,-166.75 690,-112 674.14,-100.93 655.61,-89.38 641.33,-80.75"/>
<polygon fill="midnightblue" stroke="midnightblue" points="643,-77.68 632.62,-75.54 639.4,-83.68 643,-77.68"/>
</g>
<!-- Node37&#45;&gt;Node12 -->
<g id="edge83" class="edge">
<title>Node37&#45;&gt;Node12</title>
<path fill="none" stroke="midnightblue" d="M238.53,-112.48C246.69,-98.08 265.32,-69.22 290,-56 342.23,-28.02 511.81,-16.88 598.67,-12.93"/>
<polygon fill="midnightblue" stroke="midnightblue" points="599.01,-16.42 608.84,-12.48 598.7,-9.42 599.01,-16.42"/>
</g>
<!-- Node37&#45;&gt;Node23 -->
<g id="edge84" class="edge">
<title>Node37&#45;&gt;Node23</title>
<path fill="none" stroke="midnightblue" d="M275.83,-115.12C347.58,-105.03 493.73,-84.48 569.7,-73.79"/>
<polygon fill="midnightblue" stroke="midnightblue" points="570.53,-77.21 579.94,-72.35 569.55,-70.28 570.53,-77.21"/>
</g>
<!-- Node38&#45;&gt;Node5 -->
<g id="edge94" class="edge">
<title>Node38&#45;&gt;Node5</title>
<path fill="none" stroke="midnightblue" d="M2048.53,-337.55C2126.68,-315.52 2362.68,-248.5 2557,-188 2557.59,-187.82 2726.48,-132.34 2727,-132 2754.57,-113.74 2762.96,-106.39 2776,-76 2782.22,-61.5 2783.45,-43.55 2783.28,-30.19"/>
<polygon fill="midnightblue" stroke="midnightblue" points="2786.76,-29.68 2782.85,-19.83 2779.77,-29.96 2786.76,-29.68"/>
</g>
<!-- Node38&#45;&gt;Node6 -->
<g id="edge95" class="edge">
<title>Node38&#45;&gt;Node6</title>
<path fill="none" stroke="midnightblue" d="M2030.68,-336.49C2053.32,-313.95 2115.06,-250.17 2154,-188 2168.47,-164.9 2169.42,-157.52 2179,-132 2184.84,-116.46 2190.3,-98.38 2194.03,-85.24"/>
<polygon fill="midnightblue" stroke="midnightblue" points="2197.42,-86.1 2196.73,-75.52 2190.68,-84.22 2197.42,-86.1"/>
</g>
<!-- Node38&#45;&gt;Node11 -->
<g id="edge96" class="edge">
<title>Node38&#45;&gt;Node11</title>
<path fill="none" stroke="midnightblue" d="M1995.19,-338.58C1990.48,-337.6 1985.61,-336.69 1981,-336 1788.28,-307.04 1737.32,-324.64 1544,-300 1539.09,-299.37 1533.94,-298.61 1528.86,-297.8"/>
<polygon fill="midnightblue" stroke="midnightblue" points="1529.09,-294.29 1518.65,-296.08 1527.93,-301.19 1529.09,-294.29"/>
</g>
<!-- Node38&#45;&gt;Node12 -->
<g id="edge90" class="edge">
<title>Node38&#45;&gt;Node12</title>
<path fill="none" stroke="midnightblue" d="M1995.34,-344.14C1914.04,-341.24 1662.27,-330.28 1456,-300 1339.05,-282.83 1304.4,-291.14 1196,-244 1061.91,-185.69 1061.51,-110.95 926,-56 852.35,-26.14 759.98,-16.07 703.25,-12.69"/>
<polygon fill="midnightblue" stroke="midnightblue" points="703.26,-9.19 693.08,-12.13 702.88,-16.17 703.26,-9.19"/>
</g>
<!-- Node38&#45;&gt;Node14 -->
<g id="edge92" class="edge">
<title>Node38&#45;&gt;Node14</title>
<path fill="none" stroke="midnightblue" d="M1995.32,-339.19C1932.69,-325.29 1771.69,-287.96 1641,-244 1556.75,-215.66 1540.36,-196.02 1456,-168 1395.03,-147.75 1377.62,-150.17 1316,-132 1258.81,-115.14 1193.22,-92.6 1154.54,-78.98"/>
<polygon fill="midnightblue" stroke="midnightblue" points="1155.44,-75.58 1144.85,-75.55 1153.11,-82.18 1155.44,-75.58"/>
</g>
<!-- Node39 -->
<g id="node39" class="node">
<title>Node39</title>
<g id="a_node39"><a xlink:title=" ">
<polygon fill="none" stroke="#bfbfbf" points="1997.5,-280.5 1997.5,-299.5 2046.5,-299.5 2046.5,-280.5 1997.5,-280.5"/>
<text text-anchor="middle" x="2022" y="-287.5" font-family="Helvetica,sans-Serif" font-size="10.00">cassert</text>
</a>
</g>
</g>
<!-- Node38&#45;&gt;Node39 -->
<g id="edge91" class="edge">
<title>Node38&#45;&gt;Node39</title>
<path fill="none" stroke="midnightblue" d="M2022,-336.08C2022,-329.01 2022,-318.86 2022,-309.99"/>
<polygon fill="midnightblue" stroke="midnightblue" points="2025.5,-309.75 2022,-299.75 2018.5,-309.75 2025.5,-309.75"/>
</g>
<!-- Node38&#45;&gt;Node40 -->
<g id="edge93" class="edge">
<title>Node38&#45;&gt;Node40</title>
<path fill="none" stroke="midnightblue" d="M1995.46,-344.27C1780.29,-338.33 323.46,-298.11 95.87,-291.82"/>
<polygon fill="midnightblue" stroke="midnightblue" points="95.79,-288.32 85.69,-291.54 95.59,-295.32 95.79,-288.32"/>
</g>
<!-- Node41&#45;&gt;Node5 -->
<g id="edge101" class="edge">
<title>Node41&#45;&gt;Node5</title>
<path fill="none" stroke="midnightblue" d="M2188.51,-511.39C2243.25,-508.03 2350.93,-497.88 2437,-468 2581.18,-417.94 2957.7,-263.01 3036,-132 3053.33,-103 3058.71,-81.88 3037,-56 3008.93,-22.55 2876.63,-13.95 2814.44,-11.75"/>
<polygon fill="midnightblue" stroke="midnightblue" points="2814.49,-8.25 2804.39,-11.43 2814.27,-15.25 2814.49,-8.25"/>
</g>
<!-- Node41&#45;&gt;Node12 -->
<g id="edge98" class="edge">
<title>Node41&#45;&gt;Node12</title>
<path fill="none" stroke="midnightblue" d="M2117.27,-513.36C1948.44,-514.78 1229.79,-517.73 1012,-468 951.07,-454.09 929.13,-454.18 883,-412 750.02,-290.41 790.76,-204.71 689,-56 682.07,-45.87 673.29,-35.35 665.91,-27.03"/>
<polygon fill="midnightblue" stroke="midnightblue" points="668.43,-24.6 659.13,-19.54 663.25,-29.3 668.43,-24.6"/>
</g>
<!-- Node41&#45;&gt;Node14 -->
<g id="edge102" class="edge">
<title>Node41&#45;&gt;Node14</title>
<path fill="none" stroke="midnightblue" d="M2173.52,-504.3C2203.89,-490.12 2259.53,-458.83 2281,-412 2296.13,-378.99 2279.25,-358.81 2251,-336 2180.85,-279.35 2144.16,-298.94 2056,-280 1946.68,-256.51 1916.61,-266.09 1807,-244 1578.32,-197.91 1524.97,-169.92 1299,-112 1251.51,-99.83 1196.82,-86.04 1160.74,-76.97"/>
<polygon fill="midnightblue" stroke="midnightblue" points="1161.17,-73.47 1150.62,-74.42 1159.47,-80.26 1161.17,-73.47"/>
</g>
<!-- Node41&#45;&gt;Node25 -->
<g id="edge99" class="edge">
<title>Node41&#45;&gt;Node25</title>
<path fill="none" stroke="midnightblue" d="M2188.62,-511.57C2272.29,-507.79 2479.05,-495.84 2542,-468 2645.85,-422.07 2880.01,-235.38 2927,-132 2974.25,-28.05 2523.96,-13.31 2370.85,-11.29"/>
<polygon fill="midnightblue" stroke="midnightblue" points="2370.82,-7.79 2360.78,-11.17 2370.74,-14.79 2370.82,-7.79"/>
</g>
<!-- Node41&#45;&gt;Node31 -->
<g id="edge103" class="edge">
<title>Node41&#45;&gt;Node31</title>
<path fill="none" stroke="midnightblue" d="M2188.75,-509.04C2275.48,-498.43 2490,-465.85 2490,-403 2490,-403 2490,-403 2490,-345 2490,-294.94 2379.85,-181.01 2337.4,-138.97"/>
<polygon fill="midnightblue" stroke="midnightblue" points="2339.67,-136.29 2330.09,-131.77 2334.76,-141.28 2339.67,-136.29"/>
</g>
<!-- Node42 -->
<g id="node42" class="node">
<title>Node42</title>
<g id="a_node42"><a xlink:title=" ">
<polygon fill="none" stroke="#bfbfbf" points="2162,-392.5 2162,-411.5 2272,-411.5 2272,-392.5 2162,-392.5"/>
<text text-anchor="middle" x="2217" y="-399.5" font-family="Helvetica,sans-Serif" font-size="10.00">dexode/EventBus.hpp</text>
</a>
</g>
</g>
<!-- Node41&#45;&gt;Node42 -->
<g id="edge100" class="edge">
<title>Node41&#45;&gt;Node42</title>
<path fill="none" stroke="midnightblue" d="M2164.61,-504.23C2174.8,-495.95 2189.33,-482.64 2198,-468 2206.52,-453.62 2211.44,-435.16 2214.13,-421.59"/>
<polygon fill="midnightblue" stroke="midnightblue" points="2217.61,-421.99 2215.89,-411.54 2210.71,-420.78 2217.61,-421.99"/>
</g>
<!-- Node43 -->
<g id="node43" class="node">
<title>Node43</title>
<g id="a_node43"><a xlink:href="framebuffer_8h.html" target="_top" xlink:title=" ">
<polygon fill="none" stroke="black" points="1499.5,-448.5 1499.5,-467.5 1572.5,-467.5 1572.5,-448.5 1499.5,-448.5"/>
<text text-anchor="middle" x="1536" y="-455.5" font-family="Helvetica,sans-Serif" font-size="10.00">framebuffer.h</text>
</a>
</g>
</g>
<!-- Node41&#45;&gt;Node43 -->
<g id="edge104" class="edge">
<title>Node41&#45;&gt;Node43</title>
<path fill="none" stroke="midnightblue" d="M2117.47,-510.17C2012.05,-501.34 1701.6,-474.19 1582.84,-463.44"/>
<polygon fill="midnightblue" stroke="midnightblue" points="1582.9,-459.93 1572.62,-462.52 1582.27,-466.91 1582.9,-459.93"/>
</g>
<!-- Node48 -->
<g id="node48" class="node">
<title>Node48</title>
<g id="a_node48"><a xlink:href="semaphore_8h.html" target="_top" xlink:title=" ">
<polygon fill="none" stroke="black" points="714,-336.5 714,-355.5 786,-355.5 786,-336.5 714,-336.5"/>
<text text-anchor="middle" x="750" y="-343.5" font-family="Helvetica,sans-Serif" font-size="10.00">semaphore.h</text>
</a>
</g>
</g>
<!-- Node41&#45;&gt;Node48 -->
<g id="edge136" class="edge">
<title>Node41&#45;&gt;Node48</title>
<path fill="none" stroke="midnightblue" d="M2117.28,-513.08C1905.95,-513.38 826.7,-512.73 774,-468 744.57,-443.02 744.69,-393.23 747.33,-365.95"/>
<polygon fill="midnightblue" stroke="midnightblue" points="750.83,-366.12 748.54,-355.78 743.88,-365.29 750.83,-366.12"/>
</g>
<!-- Node49 -->
<g id="node49" class="node">
<title>Node49</title>
<g id="a_node49"><a xlink:href="eventbus_8h.html" target="_top" xlink:title=" ">
<polygon fill="none" stroke="black" points="2117.5,-448.5 2117.5,-467.5 2188.5,-467.5 2188.5,-448.5 2117.5,-448.5"/>
<text text-anchor="middle" x="2153" y="-455.5" font-family="Helvetica,sans-Serif" font-size="10.00">../eventbus.h</text>
</a>
</g>
</g>
<!-- Node41&#45;&gt;Node49 -->
<g id="edge133" class="edge">
<title>Node41&#45;&gt;Node49</title>
<path fill="none" stroke="midnightblue" d="M2153,-504.08C2153,-497.01 2153,-486.86 2153,-477.99"/>
<polygon fill="midnightblue" stroke="midnightblue" points="2156.5,-477.75 2153,-467.75 2149.5,-477.75 2156.5,-477.75"/>
</g>
<!-- Node50 -->
<g id="node50" class="node">
<title>Node50</title>
<g id="a_node50"><a xlink:href="commandbuffer_8h.html" target="_top" xlink:title=" ">
<polygon fill="none" stroke="black" points="1235.5,-616.5 1235.5,-635.5 1326.5,-635.5 1326.5,-616.5 1235.5,-616.5"/>
<text text-anchor="middle" x="1281" y="-623.5" font-family="Helvetica,sans-Serif" font-size="10.00">commandbuffer.h</text>
</a>
</g>
</g>
<!-- Node41&#45;&gt;Node50 -->
<g id="edge137" class="edge">
<title>Node41&#45;&gt;Node50</title>
<path fill="none" stroke="midnightblue" d="M2117.26,-521.68C2112.47,-522.51 2107.62,-523.3 2103,-524 1815.79,-567.46 1469.96,-605.23 1336.9,-619.22"/>
<polygon fill="midnightblue" stroke="midnightblue" points="1336.15,-615.78 1326.57,-620.3 1336.88,-622.74 1336.15,-615.78"/>
</g>
<!-- Node43&#45;&gt;Node5 -->
<g id="edge106" class="edge">
<title>Node43&#45;&gt;Node5</title>
<path fill="none" stroke="midnightblue" d="M1572.64,-455.92C1659.75,-452.93 1885.86,-442.6 2072,-412 2108.59,-405.99 2116.75,-399.78 2153,-392 2375.2,-344.29 2440.18,-371.22 2656,-300 2666.05,-296.68 2992.4,-140.98 2998,-132 3015.86,-103.33 3019.31,-82.21 2998,-56 2975.23,-28 2868.95,-16.84 2814.44,-12.9"/>
<polygon fill="midnightblue" stroke="midnightblue" points="2814.48,-9.39 2804.26,-12.2 2814,-16.38 2814.48,-9.39"/>
</g>
<!-- Node43&#45;&gt;Node11 -->
<g id="edge108" class="edge">
<title>Node43&#45;&gt;Node11</title>
<path fill="none" stroke="midnightblue" d="M1533.63,-448.08C1526.71,-421.95 1506.37,-345.21 1496.92,-309.58"/>
<polygon fill="midnightblue" stroke="midnightblue" points="1500.22,-308.34 1494.27,-299.57 1493.45,-310.13 1500.22,-308.34"/>
</g>
<!-- Node43&#45;&gt;Node12 -->
<g id="edge105" class="edge">
<title>Node43&#45;&gt;Node12</title>
<path fill="none" stroke="midnightblue" d="M1520.35,-448.4C1452.95,-411.34 1189.17,-266.15 1153,-244 1025.17,-165.73 1011.31,-113.77 873,-56 817.67,-32.89 749.5,-21.35 703.41,-15.79"/>
<polygon fill="midnightblue" stroke="midnightblue" points="703.68,-12.3 693.35,-14.63 702.88,-19.25 703.68,-12.3"/>
</g>
<!-- Node43&#45;&gt;Node23 -->
<g id="edge107" class="edge">
<title>Node43&#45;&gt;Node23</title>
<path fill="none" stroke="midnightblue" d="M1499.19,-449.96C1465.29,-442.77 1414.04,-430.09 1372,-412 1356.25,-405.22 1355.38,-397.08 1339,-392 1204.22,-350.19 830.44,-420.65 705,-356 643.73,-324.42 608,-303.92 608,-235 608,-235 608,-235 608,-177 608,-144.82 612.3,-107.55 615.26,-85.7"/>
<polygon fill="midnightblue" stroke="midnightblue" points="618.76,-85.92 616.69,-75.53 611.83,-84.95 618.76,-85.92"/>
</g>
<!-- Node43&#45;&gt;Node41 -->
<g id="edge127" class="edge">
<title>Node43&#45;&gt;Node41</title>
<path fill="none" stroke="midnightblue" d="M1572.79,-461.93C1679.77,-470.91 1989.95,-498.04 2107.35,-508.67"/>
<polygon fill="midnightblue" stroke="midnightblue" points="2107.17,-512.16 2117.44,-509.58 2107.8,-505.19 2107.17,-512.16"/>
</g>
<!-- Node43&#45;&gt;Node44 -->
<g id="edge109" class="edge">
<title>Node43&#45;&gt;Node44</title>
<path fill="none" stroke="midnightblue" d="M1499.25,-448.8C1456.62,-439.29 1386.31,-423.6 1340.08,-413.28"/>
<polygon fill="midnightblue" stroke="midnightblue" points="1340.83,-409.86 1330.31,-411.1 1339.31,-416.7 1340.83,-409.86"/>
</g>
<!-- Node46 -->
<g id="node46" class="node">
<title>Node46</title>
<g id="a_node46"><a xlink:href="imageview_8h.html" target="_top" xlink:title=" ">
<polygon fill="none" stroke="black" points="1538.5,-392.5 1538.5,-411.5 1609.5,-411.5 1609.5,-392.5 1538.5,-392.5"/>
<text text-anchor="middle" x="1574" y="-399.5" font-family="Helvetica,sans-Serif" font-size="10.00">imageview.h</text>
</a>
</g>
</g>
<!-- Node43&#45;&gt;Node46 -->
<g id="edge116" class="edge">
<title>Node43&#45;&gt;Node46</title>
<path fill="none" stroke="midnightblue" d="M1542.27,-448.08C1547.64,-440.46 1555.52,-429.26 1562.08,-419.94"/>
<polygon fill="midnightblue" stroke="midnightblue" points="1564.95,-421.94 1567.84,-411.75 1559.22,-417.91 1564.95,-421.94"/>
</g>
<!-- Node43&#45;&gt;Node48 -->
<g id="edge128" class="edge">
<title>Node43&#45;&gt;Node48</title>
<path fill="none" stroke="midnightblue" d="M1519.31,-448.39C1490.27,-433.87 1428.13,-404.83 1372,-392 1357.97,-388.79 937.96,-359.86 796.2,-350.15"/>
<polygon fill="midnightblue" stroke="midnightblue" points="796.31,-346.65 786.1,-349.46 795.83,-353.64 796.31,-346.65"/>
</g>
<!-- Node44&#45;&gt;Node5 -->
<g id="edge111" class="edge">
<title>Node44&#45;&gt;Node5</title>
<path fill="none" stroke="midnightblue" d="M1330.06,-399.5C1483.55,-393.04 2075.46,-367.43 2091,-356 2155.24,-308.75 2135.07,-265.46 2154,-188 2168.03,-130.59 2127.24,-96.79 2170,-56 2212.19,-15.76 2629.67,-11.43 2749.81,-11.03"/>
<polygon fill="midnightblue" stroke="midnightblue" points="2749.87,-14.53 2759.86,-11 2749.85,-7.53 2749.87,-14.53"/>
</g>
<!-- Node44&#45;&gt;Node11 -->
<g id="edge113" class="edge">
<title>Node44&#45;&gt;Node11</title>
<path fill="none" stroke="midnightblue" d="M1304.55,-392.41C1321.16,-379.15 1354.74,-353.42 1386,-336 1409.22,-323.06 1436.91,-311.43 1458.16,-303.23"/>
<polygon fill="midnightblue" stroke="midnightblue" points="1459.63,-306.42 1467.74,-299.6 1457.14,-299.87 1459.63,-306.42"/>
</g>
<!-- Node44&#45;&gt;Node12 -->
<g id="edge110" class="edge">
<title>Node44&#45;&gt;Node12</title>
<path fill="none" stroke="midnightblue" d="M1257.78,-400.01C1136.67,-396.49 746.47,-383.26 624,-356 556.97,-341.08 540.17,-333.1 480,-300 443.24,-279.78 433.09,-274.24 404,-244 344.9,-182.56 310.62,-120.81 366,-56 395.37,-21.63 525.02,-13.36 598.93,-11.46"/>
<polygon fill="midnightblue" stroke="midnightblue" points="599.05,-14.96 608.97,-11.24 598.9,-7.96 599.05,-14.96"/>
</g>
<!-- Node44&#45;&gt;Node23 -->
<g id="edge114" class="edge">
<title>Node44&#45;&gt;Node23</title>
<path fill="none" stroke="midnightblue" d="M1257.65,-399.52C1132.93,-394.3 727.03,-375.93 672,-356 605.87,-332.05 570,-305.34 570,-235 570,-235 570,-235 570,-177 570,-141.58 591.16,-104.71 605.38,-83.92"/>
<polygon fill="midnightblue" stroke="midnightblue" points="608.38,-85.74 611.33,-75.56 602.68,-81.68 608.38,-85.74"/>
</g>
<!-- Node44&#45;&gt;Node41 -->
<g id="edge115" class="edge">
<title>Node44&#45;&gt;Node41</title>
<path fill="none" stroke="midnightblue" d="M1328.51,-411.57C1359.84,-419.72 1407.1,-432.95 1447,-448 1466.72,-455.44 1469.59,-462.75 1490,-468 1607.09,-498.09 1976.8,-509.07 2107.05,-512.07"/>
<polygon fill="midnightblue" stroke="midnightblue" points="2107.02,-515.57 2117.09,-512.29 2107.17,-508.57 2107.02,-515.57"/>
</g>
<!-- Node45 -->
<g id="node45" class="node">
<title>Node45</title>
<g id="a_node45"><a xlink:title=" ">
<polygon fill="none" stroke="#bfbfbf" points="1258,-336.5 1258,-355.5 1296,-355.5 1296,-336.5 1258,-336.5"/>
<text text-anchor="middle" x="1277" y="-343.5" font-family="Helvetica,sans-Serif" font-size="10.00">array</text>
</a>
</g>
</g>
<!-- Node44&#45;&gt;Node45 -->
<g id="edge112" class="edge">
<title>Node44&#45;&gt;Node45</title>
<path fill="none" stroke="midnightblue" d="M1291.19,-392.08C1288.92,-384.85 1285.63,-374.41 1282.79,-365.4"/>
<polygon fill="midnightblue" stroke="midnightblue" points="1286.1,-364.24 1279.75,-355.75 1279.42,-366.34 1286.1,-364.24"/>
</g>
<!-- Node46&#45;&gt;Node12 -->
<g id="edge117" class="edge">
<title>Node46&#45;&gt;Node12</title>
<path fill="none" stroke="midnightblue" d="M1538.34,-399.44C1379.99,-392.47 746.47,-364.2 705,-356 668.25,-348.73 570.18,-328.61 546,-300 491.44,-235.42 485.36,-190.4 517,-112 534.86,-67.74 584.74,-38.77 618.34,-23.64"/>
<polygon fill="midnightblue" stroke="midnightblue" points="619.98,-26.74 627.77,-19.56 617.2,-20.32 619.98,-26.74"/>
</g>
<!-- Node46&#45;&gt;Node17 -->
<g id="edge126" class="edge">
<title>Node46&#45;&gt;Node17</title>
<path fill="none" stroke="midnightblue" d="M1609.69,-400.39C1716.46,-398.2 2027.91,-389.02 2058,-356 2068.37,-344.62 2082.08,-309.05 2056,-280 1981.31,-196.79 1903.8,-299.97 1807,-244 1752.2,-212.31 1739.69,-191.83 1719,-132 1702.73,-84.95 1760.55,-44.54 1796.8,-24.48"/>
<polygon fill="midnightblue" stroke="midnightblue" points="1798.76,-27.4 1805.94,-19.61 1795.47,-21.23 1798.76,-27.4"/>
</g>
<!-- Node47 -->
<g id="node47" class="node">
<title>Node47</title>
<g id="a_node47"><a xlink:href="image_8h.html" target="_top" xlink:title=" ">
<polygon fill="none" stroke="black" points="2192,-336.5 2192,-355.5 2242,-355.5 2242,-336.5 2192,-336.5"/>
<text text-anchor="middle" x="2217" y="-343.5" font-family="Helvetica,sans-Serif" font-size="10.00">image.h</text>
</a>
</g>
</g>
<!-- Node46&#45;&gt;Node47 -->
<g id="edge118" class="edge">
<title>Node46&#45;&gt;Node47</title>
<path fill="none" stroke="midnightblue" d="M1609.83,-399.36C1701.51,-395.15 1951.12,-382.4 2158,-356 2165.6,-355.03 2173.81,-353.68 2181.68,-352.32"/>
<polygon fill="midnightblue" stroke="midnightblue" points="2182.51,-355.73 2191.76,-350.56 2181.31,-348.83 2182.51,-355.73"/>
</g>
<!-- Node47&#45;&gt;Node5 -->
<g id="edge125" class="edge">
<title>Node47&#45;&gt;Node5</title>
<path fill="none" stroke="midnightblue" d="M2221.15,-336.16C2237.88,-301.55 2303.97,-174.11 2398,-112 2511.83,-36.8 2679.17,-17.51 2749.24,-12.63"/>
<polygon fill="midnightblue" stroke="midnightblue" points="2749.88,-16.09 2759.63,-11.96 2749.43,-9.11 2749.88,-16.09"/>
</g>
<!-- Node47&#45;&gt;Node11 -->
<g id="edge121" class="edge">
<title>Node47&#45;&gt;Node11</title>
<path fill="none" stroke="midnightblue" d="M2191.62,-343.11C2083.02,-335.02 1657.13,-303.3 1528.79,-293.74"/>
<polygon fill="midnightblue" stroke="midnightblue" points="1528.92,-290.24 1518.69,-292.99 1528.4,-297.22 1528.92,-290.24"/>
</g>
<!-- Node47&#45;&gt;Node13 -->
<g id="edge120" class="edge">
<title>Node47&#45;&gt;Node13</title>
<path fill="none" stroke="midnightblue" d="M2217.78,-336.39C2219.3,-315.98 2221.19,-263.45 2205,-224 2180.28,-163.78 2124.61,-108.33 2095.89,-82.4"/>
<polygon fill="midnightblue" stroke="midnightblue" points="2098.04,-79.63 2088.23,-75.61 2093.39,-84.86 2098.04,-79.63"/>
</g>
<!-- Node47&#45;&gt;Node20 -->
<g id="edge119" class="edge">
<title>Node47&#45;&gt;Node20</title>
<path fill="none" stroke="midnightblue" d="M2242.29,-339.29C2277.71,-331.18 2344.05,-315.57 2400,-300 2480.72,-277.54 2503.7,-278.6 2580,-244 2638.87,-217.3 2644.77,-193.88 2704,-168 2738.71,-152.83 2779.91,-141.38 2811.8,-133.83"/>
<polygon fill="midnightblue" stroke="midnightblue" points="2812.85,-137.18 2821.81,-131.52 2811.28,-130.36 2812.85,-137.18"/>
</g>
<!-- Node47&#45;&gt;Node23 -->
<g id="edge122" class="edge">
<title>Node47&#45;&gt;Node23</title>
<path fill="none" stroke="midnightblue" d="M2191.93,-343.57C2062.43,-336.18 1474.67,-302.55 1456,-300 1338.88,-284.02 1310.39,-273.78 1196,-244 987.7,-189.78 742.17,-108.83 652.76,-78.78"/>
<polygon fill="midnightblue" stroke="midnightblue" points="653.73,-75.41 643.13,-75.54 651.49,-82.05 653.73,-75.41"/>
</g>
<!-- Node47&#45;&gt;Node26 -->
<g id="edge123" class="edge">
<title>Node47&#45;&gt;Node26</title>
<path fill="none" stroke="midnightblue" d="M2242.04,-341.92C2289.18,-334.62 2390.24,-311.49 2433,-244 2441.68,-230.31 2440.93,-211.52 2438.61,-197.67"/>
<polygon fill="midnightblue" stroke="midnightblue" points="2442.02,-196.88 2436.55,-187.8 2435.17,-198.31 2442.02,-196.88"/>
</g>
<!-- Node47&#45;&gt;Node46 -->
<g id="edge124" class="edge">
<title>Node47&#45;&gt;Node46</title>
<path fill="none" stroke="midnightblue" d="M2191.8,-353.62C2186.6,-354.51 2181.16,-355.34 2176,-356 1969.76,-382.32 1721.06,-395.08 1619.93,-399.32"/>
<polygon fill="midnightblue" stroke="midnightblue" points="1619.6,-395.83 1609.75,-399.74 1619.89,-402.83 1619.6,-395.83"/>
</g>
<!-- Node48&#45;&gt;Node11 -->
<g id="edge132" class="edge">
<title>Node48&#45;&gt;Node11</title>
<path fill="none" stroke="midnightblue" d="M786.04,-342.38C911.52,-333.25 1328.47,-302.9 1455.17,-293.68"/>
<polygon fill="midnightblue" stroke="midnightblue" points="1455.43,-297.17 1465.15,-292.95 1454.92,-290.19 1455.43,-297.17"/>
</g>
<!-- Node48&#45;&gt;Node12 -->
<g id="edge129" class="edge">
<title>Node48&#45;&gt;Node12</title>
<path fill="none" stroke="midnightblue" d="M743.91,-336.48C727.57,-312.78 684,-243.51 684,-179 684,-179 684,-179 684,-121 684,-87.25 669.57,-50.03 659.79,-28.69"/>
<polygon fill="midnightblue" stroke="midnightblue" points="662.91,-27.1 655.45,-19.58 656.59,-30.11 662.91,-27.1"/>
</g>
<!-- Node48&#45;&gt;Node13 -->
<g id="edge130" class="edge">
<title>Node48&#45;&gt;Node13</title>
<path fill="none" stroke="midnightblue" d="M786.19,-337.79C890.59,-316.79 1201.13,-253.1 1456,-188 1573.89,-157.89 1599.83,-136.53 1719,-112 1826.17,-89.94 1953.7,-77.07 2024.27,-71.09"/>
<polygon fill="midnightblue" stroke="midnightblue" points="2024.58,-74.58 2034.26,-70.26 2024,-67.6 2024.58,-74.58"/>
</g>
<!-- Node48&#45;&gt;Node23 -->
<g id="edge131" class="edge">
<title>Node48&#45;&gt;Node23</title>
<path fill="none" stroke="midnightblue" d="M741.21,-336.4C732.41,-327.6 718.67,-313.36 708,-300 689.24,-276.49 682.84,-271.2 670,-244 644.2,-189.33 628.18,-119.06 621.54,-85.91"/>
<polygon fill="midnightblue" stroke="midnightblue" points="624.92,-84.97 619.58,-75.82 618.05,-86.3 624.92,-84.97"/>
</g>
<!-- Node49&#45;&gt;Node11 -->
<g id="edge135" class="edge">
<title>Node49&#45;&gt;Node11</title>
<path fill="none" stroke="midnightblue" d="M2118.85,-448.42C2005.94,-420.07 1645.19,-329.47 1528.67,-300.21"/>
<polygon fill="midnightblue" stroke="midnightblue" points="1529.35,-296.77 1518.8,-297.73 1527.65,-303.56 1529.35,-296.77"/>
</g>
<!-- Node49&#45;&gt;Node42 -->
<g id="edge134" class="edge">
<title>Node49&#45;&gt;Node42</title>
<path fill="none" stroke="midnightblue" d="M2163.28,-448.32C2172.84,-440.26 2187.28,-428.08 2198.78,-418.37"/>
<polygon fill="midnightblue" stroke="midnightblue" points="2201.14,-420.96 2206.53,-411.83 2196.63,-415.61 2201.14,-420.96"/>
</g>
<!-- Node50&#45;&gt;Node10 -->
<g id="edge147" class="edge">
<title>Node50&#45;&gt;Node10</title>
<path fill="none" stroke="midnightblue" d="M1324.42,-616.44C1372.52,-606.96 1450.09,-591.67 1501.81,-581.48"/>
<polygon fill="midnightblue" stroke="midnightblue" points="1502.65,-584.88 1511.79,-579.52 1501.3,-578.02 1502.65,-584.88"/>
</g>
<!-- Node50&#45;&gt;Node20 -->
<g id="edge138" class="edge">
<title>Node50&#45;&gt;Node20</title>
<path fill="none" stroke="midnightblue" d="M1326.85,-624.49C1553.39,-621.61 2546.82,-604.44 2656,-524 2792.7,-423.29 2846.95,-206.12 2860.44,-141.5"/>
<polygon fill="midnightblue" stroke="midnightblue" points="2863.89,-142.06 2862.43,-131.57 2857.03,-140.68 2863.89,-142.06"/>
</g>
<!-- Node50&#45;&gt;Node23 -->
<g id="edge139" class="edge">
<title>Node50&#45;&gt;Node23</title>
<path fill="none" stroke="midnightblue" d="M1235.21,-620.61C1161.79,-613.37 1013.25,-597.95 888,-580 597.82,-538.42 501.63,-596.2 238,-468 178.67,-439.15 152,-412.98 152,-347 152,-347 152,-347 152,-289 152,-212.17 378.2,-141.84 449,-112 488.34,-95.42 535.46,-83.48 569.93,-76.08"/>
<polygon fill="midnightblue" stroke="midnightblue" points="570.68,-79.5 579.75,-74.02 569.25,-72.65 570.68,-79.5"/>
</g>
<!-- Node50&#45;&gt;Node33 -->
<g id="edge148" class="edge">
<title>Node50&#45;&gt;Node33</title>
<path fill="none" stroke="midnightblue" d="M1284.82,-616.08C1296.04,-589.83 1329.1,-512.55 1344.25,-477.12"/>
<polygon fill="midnightblue" stroke="midnightblue" points="1347.62,-478.14 1348.34,-467.57 1341.18,-475.39 1347.62,-478.14"/>
</g>
<!-- Node50&#45;&gt;Node34 -->
<g id="edge149" class="edge">
<title>Node50&#45;&gt;Node34</title>
<path fill="none" stroke="midnightblue" d="M1264.03,-616.37C1220.66,-594.03 1102.76,-531.64 1012,-468 989.84,-452.46 966.2,-432.17 950.83,-418.43"/>
<polygon fill="midnightblue" stroke="midnightblue" points="952.97,-415.64 943.2,-411.54 948.27,-420.84 952.97,-415.64"/>
</g>
<!-- Node50&#45;&gt;Node43 -->
<g id="edge146" class="edge">
<title>Node50&#45;&gt;Node43</title>
<path fill="none" stroke="midnightblue" d="M1294.35,-616.31C1335.83,-589.3 1462.78,-506.67 1514.11,-473.25"/>
<polygon fill="midnightblue" stroke="midnightblue" points="1516.31,-475.99 1522.78,-467.61 1512.49,-470.13 1516.31,-475.99"/>
</g>
<!-- Node50&#45;&gt;Node44 -->
<g id="edge145" class="edge">
<title>Node50&#45;&gt;Node44</title>
<path fill="none" stroke="midnightblue" d="M1281.51,-616.3C1283.42,-583.63 1290.2,-467.87 1292.89,-421.96"/>
<polygon fill="midnightblue" stroke="midnightblue" points="1296.39,-422.07 1293.48,-411.88 1289.4,-421.66 1296.39,-422.07"/>
</g>
<!-- Node50&#45;&gt;Node48 -->
<g id="edge144" class="edge">
<title>Node50&#45;&gt;Node48</title>
<path fill="none" stroke="midnightblue" d="M1235.45,-625.85C1133.26,-625.11 884.51,-608.17 755,-468 729.41,-440.3 737.22,-392.01 744.2,-365.59"/>
<polygon fill="midnightblue" stroke="midnightblue" points="747.63,-366.3 747.03,-355.72 740.91,-364.37 747.63,-366.3"/>
</g>
<!-- Node51 -->
<g id="node51" class="node">
<title>Node51</title>
<g id="a_node51"><a xlink:href="commandpool_8h.html" target="_top" xlink:title=" ">
<polygon fill="none" stroke="black" points="2485.5,-224.5 2485.5,-243.5 2570.5,-243.5 2570.5,-224.5 2485.5,-224.5"/>
<text text-anchor="middle" x="2528" y="-231.5" font-family="Helvetica,sans-Serif" font-size="10.00">commandpool.h</text>
</a>
</g>
</g>
<!-- Node50&#45;&gt;Node51 -->
<g id="edge140" class="edge">
<title>Node50&#45;&gt;Node51</title>
<path fill="none" stroke="midnightblue" d="M1326.54,-623.65C1559.18,-616.46 2604,-580.54 2604,-515 2604,-515 2604,-515 2604,-457 2604,-376.94 2559.21,-288.97 2538.4,-252.42"/>
<polygon fill="midnightblue" stroke="midnightblue" points="2541.28,-250.4 2533.22,-243.52 2535.23,-253.92 2541.28,-250.4"/>
</g>
<!-- Node52 -->
<g id="node52" class="node">
<title>Node52</title>
<g id="a_node52"><a xlink:href="descriptorset_8h.html" target="_top" xlink:title=" ">
<polygon fill="none" stroke="black" points="1021,-448.5 1021,-467.5 1101,-467.5 1101,-448.5 1021,-448.5"/>
<text text-anchor="middle" x="1061" y="-455.5" font-family="Helvetica,sans-Serif" font-size="10.00">descriptorset.h</text>
</a>
</g>
</g>
<!-- Node50&#45;&gt;Node52 -->
<g id="edge150" class="edge">
<title>Node50&#45;&gt;Node52</title>
<path fill="none" stroke="midnightblue" d="M1273.95,-616.37C1263,-603.28 1240.91,-578.04 1219,-560 1175.31,-524.02 1118.1,-490.33 1085.88,-472.41"/>
<polygon fill="midnightblue" stroke="midnightblue" points="1087.55,-469.34 1077.1,-467.58 1084.17,-475.47 1087.55,-469.34"/>
</g>
<!-- Node51&#45;&gt;Node20 -->
<g id="edge141" class="edge">
<title>Node51&#45;&gt;Node20</title>
<path fill="none" stroke="midnightblue" d="M2545.06,-224.4C2576.36,-208.7 2641.96,-176.28 2666,-168 2710.61,-152.63 2762.7,-141.03 2802.25,-133.46"/>
<polygon fill="midnightblue" stroke="midnightblue" points="2803.1,-136.86 2812.28,-131.57 2801.81,-129.98 2803.1,-136.86"/>
</g>
<!-- Node51&#45;&gt;Node23 -->
<g id="edge142" class="edge">
<title>Node51&#45;&gt;Node23</title>
<path fill="none" stroke="midnightblue" d="M2485.22,-230.37C2384.07,-224.05 2122.29,-207.12 1904,-188 1817.65,-180.44 1796.23,-176.81 1710,-168 1464.24,-142.89 1402.99,-134.72 1157,-112 976.07,-95.29 760.72,-78.13 666.35,-70.75"/>
<polygon fill="midnightblue" stroke="midnightblue" points="666.49,-67.25 656.25,-69.96 665.95,-74.23 666.49,-67.25"/>
</g>
<!-- Node51&#45;&gt;Node26 -->
<g id="edge143" class="edge">
<title>Node51&#45;&gt;Node26</title>
<path fill="none" stroke="midnightblue" d="M2512.9,-224.32C2498.1,-215.82 2475.31,-202.73 2458.02,-192.8"/>
<polygon fill="midnightblue" stroke="midnightblue" points="2459.48,-189.6 2449.07,-187.65 2455.99,-195.67 2459.48,-189.6"/>
</g>
<!-- Node52&#45;&gt;Node5 -->
<g id="edge153" class="edge">
<title>Node52&#45;&gt;Node5</title>
<path fill="none" stroke="midnightblue" d="M1101.2,-453.86C1192.87,-446.67 1424.42,-428.38 1618,-412 1758.71,-400.09 2112.06,-381.28 2251,-356 2342.24,-339.4 2363.52,-327.78 2452,-300 2523.88,-277.43 2540.95,-269.06 2612,-244 2682.06,-219.28 2884.16,-192.7 2927,-132 2962.79,-81.29 2866.36,-39.41 2813.69,-21.03"/>
<polygon fill="midnightblue" stroke="midnightblue" points="2814.69,-17.68 2804.1,-17.78 2812.44,-24.31 2814.69,-17.68"/>
</g>
<!-- Node52&#45;&gt;Node11 -->
<g id="edge155" class="edge">
<title>Node52&#45;&gt;Node11</title>
<path fill="none" stroke="midnightblue" d="M1069.05,-448.18C1090.46,-425.36 1151.57,-364.18 1216,-336 1296.28,-300.9 1400.53,-292.92 1455.06,-291.27"/>
<polygon fill="midnightblue" stroke="midnightblue" points="1455.37,-294.77 1465.29,-291.02 1455.2,-287.77 1455.37,-294.77"/>
</g>
<!-- Node52&#45;&gt;Node12 -->
<g id="edge151" class="edge">
<title>Node52&#45;&gt;Node12</title>
<path fill="none" stroke="midnightblue" d="M1020.64,-455.89C895.37,-452.19 514.48,-438.98 394,-412 316.68,-394.69 228,-426.23 228,-347 228,-347 228,-347 228,-289 228,-182.7 93.97,-125.96 174,-56 205.46,-28.5 481.4,-16.45 598.65,-12.53"/>
<polygon fill="midnightblue" stroke="midnightblue" points="598.94,-16.03 608.83,-12.2 598.72,-9.03 598.94,-16.03"/>
</g>
<!-- Node52&#45;&gt;Node14 -->
<g id="edge152" class="edge">
<title>Node52&#45;&gt;Node14</title>
<path fill="none" stroke="midnightblue" d="M1055.51,-448.36C1043.7,-428.75 1017.52,-379.19 1025,-336 1042.07,-237.36 1091.92,-127 1112.23,-84.75"/>
<polygon fill="midnightblue" stroke="midnightblue" points="1115.5,-86.05 1116.72,-75.53 1109.2,-82.99 1115.5,-86.05"/>
</g>
<!-- Node52&#45;&gt;Node23 -->
<g id="edge154" class="edge">
<title>Node52&#45;&gt;Node23</title>
<path fill="none" stroke="midnightblue" d="M1020.91,-454.79C869.54,-446.05 338.81,-411.62 290,-356 269.53,-332.68 244.18,-270.33 480,-112 507.02,-93.86 541.9,-82.57 569.83,-75.84"/>
<polygon fill="midnightblue" stroke="midnightblue" points="570.81,-79.2 579.78,-73.56 569.25,-72.38 570.81,-79.2"/>
</g>
<!-- Node52&#45;&gt;Node36 -->
<g id="edge156" class="edge">
<title>Node52&#45;&gt;Node36</title>
<path fill="none" stroke="midnightblue" d="M1062.49,-448.37C1065.56,-430.62 1072.63,-389.67 1076.79,-365.6"/>
<polygon fill="midnightblue" stroke="midnightblue" points="1080.26,-366.04 1078.52,-355.59 1073.36,-364.85 1080.26,-366.04"/>
</g>
<!-- Node52&#45;&gt;Node46 -->
<g id="edge163" class="edge">
<title>Node52&#45;&gt;Node46</title>
<path fill="none" stroke="midnightblue" d="M1101.25,-452.76C1195.36,-442.86 1429.25,-418.24 1528.41,-407.8"/>
<polygon fill="midnightblue" stroke="midnightblue" points="1528.84,-411.27 1538.42,-406.75 1528.11,-404.31 1528.84,-411.27"/>
</g>
<!-- Node53 -->
<g id="node53" class="node">
<title>Node53</title>
<g id="a_node53"><a xlink:href="descriptorpool_8h.html" target="_top" xlink:title=" ">
<polygon fill="none" stroke="black" points="892.5,-336.5 892.5,-355.5 977.5,-355.5 977.5,-336.5 892.5,-336.5"/>
<text text-anchor="middle" x="935" y="-343.5" font-family="Helvetica,sans-Serif" font-size="10.00">descriptorpool.h</text>
</a>
</g>
</g>
<!-- Node52&#45;&gt;Node53 -->
<g id="edge157" class="edge">
<title>Node52&#45;&gt;Node53</title>
<path fill="none" stroke="midnightblue" d="M1051.11,-448.37C1029.86,-429.81 979.57,-385.91 952.68,-362.44"/>
<polygon fill="midnightblue" stroke="midnightblue" points="954.68,-359.53 944.84,-355.59 950.07,-364.8 954.68,-359.53"/>
</g>
<!-- Node52&#45;&gt;Node54 -->
<g id="edge164" class="edge">
<title>Node52&#45;&gt;Node54</title>
<path fill="none" stroke="midnightblue" d="M1061.31,-467.73C1063.08,-503.04 1074.88,-636 1153,-692 1217.05,-737.91 1766.95,-719.9 1883.76,-728.27"/>
<polygon fill="midnightblue" stroke="midnightblue" points="1883.68,-731.78 1893.95,-729.2 1884.31,-724.81 1883.68,-731.78"/>
</g>
<!-- Node53&#45;&gt;Node5 -->
<g id="edge160" class="edge">
<title>Node53&#45;&gt;Node5</title>
<path fill="none" stroke="midnightblue" d="M951.26,-336.41C1002.35,-309.61 1164.52,-225.81 1304,-168 1463.11,-102.05 1504.68,-81.64 1675,-56 1783.58,-39.65 2579.26,-16.66 2749.85,-11.89"/>
<polygon fill="midnightblue" stroke="midnightblue" points="2750.06,-15.38 2759.95,-11.61 2749.86,-8.39 2750.06,-15.38"/>
</g>
<!-- Node53&#45;&gt;Node11 -->
<g id="edge162" class="edge">
<title>Node53&#45;&gt;Node11</title>
<path fill="none" stroke="midnightblue" d="M977.57,-340.71C992.56,-339.21 1009.53,-337.52 1025,-336 1185.07,-320.28 1376.05,-302.04 1455.02,-294.52"/>
<polygon fill="midnightblue" stroke="midnightblue" points="1455.78,-297.96 1465.41,-293.53 1455.12,-290.99 1455.78,-297.96"/>
</g>
<!-- Node53&#45;&gt;Node12 -->
<g id="edge158" class="edge">
<title>Node53&#45;&gt;Node12</title>
<path fill="none" stroke="midnightblue" d="M892.39,-339.62C746.53,-320.25 271.43,-248.96 183,-132 146.23,-83.37 197.42,-80.91 263,-56 323.2,-33.13 507.64,-19.42 598.84,-13.87"/>
<polygon fill="midnightblue" stroke="midnightblue" points="599.18,-17.36 608.95,-13.27 598.76,-10.37 599.18,-17.36"/>
</g>
<!-- Node53&#45;&gt;Node14 -->
<g id="edge159" class="edge">
<title>Node53&#45;&gt;Node14</title>
<path fill="none" stroke="midnightblue" d="M933.38,-336.23C929.98,-315.91 923.43,-264.31 936,-224 953.91,-166.57 965.34,-149.97 1012,-112 1032.24,-95.53 1059.35,-84.3 1081.47,-77.18"/>
<polygon fill="midnightblue" stroke="midnightblue" points="1082.7,-80.47 1091.24,-74.2 1080.65,-73.77 1082.7,-80.47"/>
</g>
<!-- Node53&#45;&gt;Node23 -->
<g id="edge161" class="edge">
<title>Node53&#45;&gt;Node23</title>
<path fill="none" stroke="midnightblue" d="M924.14,-336.38C894.87,-313.07 812.08,-246.57 746,-188 704.67,-151.37 657.96,-106.21 634.02,-82.78"/>
<polygon fill="midnightblue" stroke="midnightblue" points="636.41,-80.22 626.82,-75.71 631.5,-85.21 636.41,-80.22"/>
</g>
<!-- Node54&#45;&gt;Node11 -->
<g id="edge168" class="edge">
<title>Node54&#45;&gt;Node11</title>
<path fill="none" stroke="midnightblue" d="M1893.91,-729.49C1890.9,-728.97 1887.9,-728.47 1885,-728 1739.03,-704.42 1323.06,-747.55 1226,-636 1220.17,-629.29 1225.89,-624.89 1226,-616 1226.89,-546.21 1230,-528.8 1230,-459 1230,-459 1230,-459 1230,-401 1230,-370.9 1226.67,-356.18 1249,-336 1278.73,-309.14 1394.44,-297.52 1454.84,-293.2"/>
<polygon fill="midnightblue" stroke="midnightblue" points="1455.35,-296.67 1465.09,-292.5 1454.87,-289.69 1455.35,-296.67"/>
</g>
<!-- Node54&#45;&gt;Node12 -->
<g id="edge165" class="edge">
<title>Node54&#45;&gt;Node12</title>
<path fill="none" stroke="midnightblue" d="M1893.96,-729.11C1890.94,-728.68 1887.93,-728.3 1885,-728 1699.36,-709.08 387.14,-736.82 206,-692 143.29,-676.49 76,-691.6 76,-627 76,-627 76,-627 76,-513 76,-431.86 0,-428.14 0,-347 0,-347 0,-347 0,-121 0,-54.81 70.19,-73.61 134,-56 220.43,-32.15 484.98,-18.18 598.44,-13.15"/>
<polygon fill="midnightblue" stroke="midnightblue" points="598.77,-16.64 608.61,-12.7 598.47,-9.65 598.77,-16.64"/>
</g>
<!-- Node54&#45;&gt;Node13 -->
<g id="edge166" class="edge">
<title>Node54&#45;&gt;Node13</title>
<path fill="none" stroke="midnightblue" d="M1974.22,-736.11C2123.31,-732.64 2644.19,-718.81 2808,-692 2899.1,-677.09 2926.64,-679.61 3008,-636 3085.78,-594.3 3098,-547.25 3098,-459 3098,-459 3098,-459 3098,-233 3098,-152.76 3040.81,-135.23 2964,-112 2794.94,-60.88 2346.18,-88.6 2170,-76 2157.74,-75.12 2144.59,-73.97 2132.17,-72.77"/>
<polygon fill="midnightblue" stroke="midnightblue" points="2132.24,-69.26 2121.95,-71.77 2131.56,-76.23 2132.24,-69.26"/>
</g>
<!-- Node54&#45;&gt;Node26 -->
<g id="edge177" class="edge">
<title>Node54&#45;&gt;Node26</title>
<path fill="none" stroke="midnightblue" d="M1974.23,-736.71C2132.17,-735.34 2704.68,-727.92 2777,-692 2810.89,-675.17 2832,-664.84 2832,-627 2832,-627 2832,-627 2832,-345 2832,-267.54 2571.96,-206.85 2472.27,-186.42"/>
<polygon fill="midnightblue" stroke="midnightblue" points="2472.8,-182.96 2462.3,-184.41 2471.41,-189.82 2472.8,-182.96"/>
</g>
<!-- Node54&#45;&gt;Node40 -->
<g id="edge167" class="edge">
<title>Node54&#45;&gt;Node40</title>
<path fill="none" stroke="midnightblue" d="M1893.95,-729.19C1890.93,-728.74 1887.92,-728.34 1885,-728 1550.83,-689.53 1464.24,-719.65 1129,-692 902.62,-673.33 114,-798.15 114,-571 114,-571 114,-571 114,-513 114,-472.75 83.47,-355.5 71.11,-309.67"/>
<polygon fill="midnightblue" stroke="midnightblue" points="74.44,-308.6 68.45,-299.87 67.69,-310.44 74.44,-308.6"/>
</g>
<!-- Node55 -->
<g id="node55" class="node">
<title>Node55</title>
<g id="a_node55"><a xlink:href="buffer_8h.html" target="_top" xlink:title=" ">
<polygon fill="none" stroke="black" points="2720,-672.5 2720,-691.5 2768,-691.5 2768,-672.5 2720,-672.5"/>
<text text-anchor="middle" x="2744" y="-679.5" font-family="Helvetica,sans-Serif" font-size="10.00">buffer.h</text>
</a>
</g>
</g>
<!-- Node54&#45;&gt;Node55 -->
<g id="edge169" class="edge">
<title>Node54&#45;&gt;Node55</title>
<path fill="none" stroke="midnightblue" d="M1974.17,-734.32C2114.2,-724.99 2579.38,-693.97 2709.76,-685.28"/>
<polygon fill="midnightblue" stroke="midnightblue" points="2710.21,-688.76 2719.95,-684.6 2709.74,-681.78 2710.21,-688.76"/>
</g>
<!-- Node55&#45;&gt;Node5 -->
<g id="edge176" class="edge">
<title>Node55&#45;&gt;Node5</title>
<path fill="none" stroke="midnightblue" d="M2768.22,-681.13C2816.3,-680.48 2926.18,-674.52 3008,-636 3107.31,-589.25 3099.51,-521.05 3112,-412 3130.1,-253.96 3196.46,-158.73 3075,-56 3036.12,-23.11 2882.24,-14.18 2814.4,-11.82"/>
<polygon fill="midnightblue" stroke="midnightblue" points="2814.39,-8.32 2804.29,-11.49 2814.17,-15.31 2814.39,-8.32"/>
</g>
<!-- Node55&#45;&gt;Node11 -->
<g id="edge172" class="edge">
<title>Node55&#45;&gt;Node11</title>
<path fill="none" stroke="midnightblue" d="M2734.12,-672.44C2687.34,-632.46 2482,-463.09 2281,-392 2156.89,-348.11 2117.6,-372.57 1987,-356 1815.45,-334.23 1610.65,-306.92 1528.62,-295.92"/>
<polygon fill="midnightblue" stroke="midnightblue" points="1528.93,-292.43 1518.55,-294.57 1528,-299.37 1528.93,-292.43"/>
</g>
<!-- Node55&#45;&gt;Node13 -->
<g id="edge171" class="edge">
<title>Node55&#45;&gt;Node13</title>
<path fill="none" stroke="midnightblue" d="M2768.01,-677.93C2841.75,-667.85 3060,-632.79 3060,-571 3060,-571 3060,-571 3060,-233 3060,-153.09 3000.83,-142.59 2927,-112 2849.21,-79.76 2253.98,-82.1 2170,-76 2157.75,-75.11 2144.59,-73.95 2132.17,-72.75"/>
<polygon fill="midnightblue" stroke="midnightblue" points="2132.24,-69.24 2121.95,-71.75 2131.56,-76.21 2132.24,-69.24"/>
</g>
<!-- Node55&#45;&gt;Node20 -->
<g id="edge170" class="edge">
<title>Node55&#45;&gt;Node20</title>
<path fill="none" stroke="midnightblue" d="M2749.78,-672.14C2767.91,-643.82 2823.73,-552.44 2846,-468 2877.85,-347.23 2869.79,-194.64 2865.68,-141.93"/>
<polygon fill="midnightblue" stroke="midnightblue" points="2869.15,-141.41 2864.83,-131.73 2862.17,-141.99 2869.15,-141.41"/>
</g>
<!-- Node55&#45;&gt;Node23 -->
<g id="edge173" class="edge">
<title>Node55&#45;&gt;Node23</title>
<path fill="none" stroke="midnightblue" d="M2719.87,-680.85C2577.49,-679.87 1832.6,-673.07 1226,-636 956.91,-619.55 889.01,-617.22 622,-580 375.98,-545.71 114,-595.39 114,-347 114,-347 114,-347 114,-289 114,-141.4 253.94,-155.45 395,-112 454.13,-93.79 524.4,-81.01 570.03,-73.84"/>
<polygon fill="midnightblue" stroke="midnightblue" points="570.59,-77.3 579.94,-72.31 569.53,-70.38 570.59,-77.3"/>
</g>
<!-- Node55&#45;&gt;Node26 -->
<g id="edge174" class="edge">
<title>Node55&#45;&gt;Node26</title>
<path fill="none" stroke="midnightblue" d="M2745.57,-672.48C2748.82,-654.04 2756,-609.04 2756,-571 2756,-571 2756,-571 2756,-513 2756,-362.61 2698.68,-316.37 2580,-224 2548.69,-199.63 2504.12,-188.38 2472.48,-183.23"/>
<polygon fill="midnightblue" stroke="midnightblue" points="2472.69,-179.72 2462.28,-181.71 2471.65,-186.65 2472.69,-179.72"/>
</g>
<!-- Node55&#45;&gt;Node50 -->
<g id="edge175" class="edge">
<title>Node55&#45;&gt;Node50</title>
<path fill="none" stroke="midnightblue" d="M2719.83,-680.11C2553.82,-673.98 1581.7,-638.1 1336.93,-629.06"/>
<polygon fill="midnightblue" stroke="midnightblue" points="1336.96,-625.56 1326.83,-628.69 1336.7,-632.56 1336.96,-625.56"/>
</g>
</g>
</svg>
