<?xml version="1.0" encoding="UTF-8" standalone="no"?>
<!DOCTYPE svg PUBLIC "-//W3C//DTD SVG 1.1//EN"
 "http://www.w3.org/Graphics/SVG/1.1/DTD/svg11.dtd">
<!-- Generated by graphviz version 2.49.3 (20211215.1918)
 -->
<!-- Title: /github/workspace/src/renderer/objectinstance.h Pages: 1 -->
<svg width="1487pt" height="508pt"
 viewBox="0.00 0.00 1487.00 508.00" xmlns="http://www.w3.org/2000/svg" xmlns:xlink="http://www.w3.org/1999/xlink">
<g id="graph0" class="graph" transform="scale(1 1) rotate(0) translate(4 504)">
<title>/github/workspace/src/renderer/objectinstance.h</title>
<!-- Node1 -->
<g id="node1" class="node">
<title>Node1</title>
<g id="a_node1"><a xlink:title=" ">
<polygon fill="#bfbfbf" stroke="black" points="387,-469.5 387,-499.5 515,-499.5 515,-469.5 387,-469.5"/>
<text text-anchor="start" x="395" y="-487.5" font-family="Helvetica,sans-Serif" font-size="10.00">/github/workspace/src</text>
<text text-anchor="middle" x="451" y="-476.5" font-family="Helvetica,sans-Serif" font-size="10.00">/renderer/objectinstance.h</text>
</a>
</g>
</g>
<!-- Node2 -->
<g id="node2" class="node">
<title>Node2</title>
<g id="a_node2"><a xlink:href="mastermaterial_8h.html" target="_top" xlink:title=" ">
<polygon fill="none" stroke="black" points="169,-402.5 169,-432.5 299,-432.5 299,-402.5 169,-402.5"/>
<text text-anchor="start" x="177" y="-420.5" font-family="Helvetica,sans-Serif" font-size="10.00">/github/workspace/src</text>
<text text-anchor="middle" x="234" y="-409.5" font-family="Helvetica,sans-Serif" font-size="10.00">/renderer/mastermaterial.h</text>
</a>
</g>
</g>
<!-- Node1&#45;&gt;Node2 -->
<g id="edge1" class="edge">
<title>Node1&#45;&gt;Node2</title>
<path fill="none" stroke="midnightblue" d="M394.51,-466.58C359.27,-456.02 314.43,-442.59 281.11,-432.61"/>
<polygon fill="midnightblue" stroke="midnightblue" points="393.6,-469.96 404.18,-469.48 395.61,-463.25 393.6,-469.96"/>
</g>
<!-- Node18 -->
<g id="node18" class="node">
<title>Node18</title>
<g id="a_node18"><a xlink:href="objectinstance_8cpp.html" target="_top" xlink:title=" ">
<polygon fill="none" stroke="black" points="332.5,-402.5 332.5,-432.5 471.5,-432.5 471.5,-402.5 332.5,-402.5"/>
<text text-anchor="start" x="340.5" y="-420.5" font-family="Helvetica,sans-Serif" font-size="10.00">/github/workspace/src</text>
<text text-anchor="middle" x="402" y="-409.5" font-family="Helvetica,sans-Serif" font-size="10.00">/renderer/objectinstance.cpp</text>
</a>
</g>
</g>
<!-- Node1&#45;&gt;Node18 -->
<g id="edge24" class="edge">
<title>Node1&#45;&gt;Node18</title>
<path fill="none" stroke="midnightblue" d="M434.16,-461.16C427.01,-451.68 418.9,-440.92 412.61,-432.58"/>
<polygon fill="midnightblue" stroke="midnightblue" points="431.55,-463.52 440.37,-469.4 437.14,-459.3 431.55,-463.52"/>
</g>
<!-- Node19 -->
<g id="node19" class="node">
<title>Node19</title>
<g id="a_node19"><a xlink:href="scene_8h.html" target="_top" xlink:title=" ">
<polygon fill="none" stroke="black" points="845.5,-268.5 845.5,-298.5 958.5,-298.5 958.5,-268.5 845.5,-268.5"/>
<text text-anchor="start" x="853.5" y="-286.5" font-family="Helvetica,sans-Serif" font-size="10.00">/github/workspace/src</text>
<text text-anchor="middle" x="902" y="-275.5" font-family="Helvetica,sans-Serif" font-size="10.00">/renderer/scene.h</text>
</a>
</g>
</g>
<!-- Node1&#45;&gt;Node19 -->
<g id="edge25" class="edge">
<title>Node1&#45;&gt;Node19</title>
<path fill="none" stroke="midnightblue" d="M492.33,-465.26C581.47,-425.93 790.17,-333.84 870.09,-298.58"/>
<polygon fill="midnightblue" stroke="midnightblue" points="490.81,-462.11 483.07,-469.35 493.64,-468.51 490.81,-462.11"/>
</g>
<!-- Node3 -->
<g id="node3" class="node">
<title>Node3</title>
<g id="a_node3"><a xlink:href="mastermaterial_8cpp.html" target="_top" xlink:title=" ">
<polygon fill="none" stroke="black" points="294,-335.5 294,-365.5 434,-365.5 434,-335.5 294,-335.5"/>
<text text-anchor="start" x="302" y="-353.5" font-family="Helvetica,sans-Serif" font-size="10.00">/github/workspace/src</text>
<text text-anchor="middle" x="364" y="-342.5" font-family="Helvetica,sans-Serif" font-size="10.00">/renderer/mastermaterial.cpp</text>
</a>
</g>
</g>
<!-- Node2&#45;&gt;Node3 -->
<g id="edge2" class="edge">
<title>Node2&#45;&gt;Node3</title>
<path fill="none" stroke="midnightblue" d="M271.29,-397.85C291.85,-387.58 316.95,-375.03 335.85,-365.58"/>
<polygon fill="midnightblue" stroke="midnightblue" points="269.59,-394.79 262.21,-402.4 272.72,-401.05 269.59,-394.79"/>
</g>
<!-- Node4 -->
<g id="node4" class="node">
<title>Node4</title>
<g id="a_node4"><a xlink:href="material_8h.html" target="_top" xlink:title=" ">
<polygon fill="none" stroke="black" points="162.5,-335.5 162.5,-365.5 275.5,-365.5 275.5,-335.5 162.5,-335.5"/>
<text text-anchor="start" x="170.5" y="-353.5" font-family="Helvetica,sans-Serif" font-size="10.00">/github/workspace/src</text>
<text text-anchor="middle" x="219" y="-342.5" font-family="Helvetica,sans-Serif" font-size="10.00">/renderer/material.h</text>
</a>
</g>
</g>
<!-- Node2&#45;&gt;Node4 -->
<g id="edge3" class="edge">
<title>Node2&#45;&gt;Node4</title>
<path fill="none" stroke="midnightblue" d="M221.98,-392.7C219.4,-383.59 217.36,-373.49 216.57,-365.58"/>
<polygon fill="midnightblue" stroke="midnightblue" points="218.7,-393.93 225.07,-402.4 225.37,-391.81 218.7,-393.93"/>
</g>
<!-- Node6 -->
<g id="node6" class="node">
<title>Node6</title>
<g id="a_node6"><a xlink:href="materiallibrary_8h.html" target="_top" xlink:title=" ">
<polygon fill="none" stroke="black" points="83.5,-268.5 83.5,-298.5 208.5,-298.5 208.5,-268.5 83.5,-268.5"/>
<text text-anchor="start" x="91.5" y="-286.5" font-family="Helvetica,sans-Serif" font-size="10.00">/github/workspace/src</text>
<text text-anchor="middle" x="146" y="-275.5" font-family="Helvetica,sans-Serif" font-size="10.00">/renderer/materiallibrary.h</text>
</a>
</g>
</g>
<!-- Node2&#45;&gt;Node6 -->
<g id="edge23" class="edge">
<title>Node2&#45;&gt;Node6</title>
<path fill="none" stroke="midnightblue" d="M188.01,-397.67C174.54,-389.88 161.24,-379.45 153,-366 140.32,-345.29 141.45,-315.88 143.61,-298.64"/>
<polygon fill="midnightblue" stroke="midnightblue" points="186.36,-400.76 196.83,-402.42 189.68,-394.6 186.36,-400.76"/>
</g>
<!-- Node4&#45;&gt;Node2 -->
<g id="edge4" class="edge">
<title>Node4&#45;&gt;Node2</title>
<path fill="none" stroke="midnightblue" d="M231.01,-375.27C233.59,-384.38 235.63,-394.47 236.42,-402.4"/>
<polygon fill="midnightblue" stroke="midnightblue" points="234.3,-374.04 227.92,-365.58 227.63,-376.17 234.3,-374.04"/>
</g>
<!-- Node5 -->
<g id="node5" class="node">
<title>Node5</title>
<g id="a_node5"><a xlink:href="material_8cpp.html" target="_top" xlink:title=" ">
<polygon fill="none" stroke="black" points="226.5,-268.5 226.5,-298.5 339.5,-298.5 339.5,-268.5 226.5,-268.5"/>
<text text-anchor="start" x="234.5" y="-286.5" font-family="Helvetica,sans-Serif" font-size="10.00">/github/workspace/src</text>
<text text-anchor="middle" x="283" y="-275.5" font-family="Helvetica,sans-Serif" font-size="10.00">/renderer/material.cpp</text>
</a>
</g>
</g>
<!-- Node4&#45;&gt;Node5 -->
<g id="edge5" class="edge">
<title>Node4&#45;&gt;Node5</title>
<path fill="none" stroke="midnightblue" d="M240.15,-328.02C249.68,-318.34 260.67,-307.17 269.14,-298.58"/>
<polygon fill="midnightblue" stroke="midnightblue" points="237.41,-325.81 232.89,-335.4 242.4,-330.73 237.41,-325.81"/>
</g>
<!-- Node4&#45;&gt;Node6 -->
<g id="edge6" class="edge">
<title>Node4&#45;&gt;Node6</title>
<path fill="none" stroke="midnightblue" d="M189.51,-328.88C177.69,-319.01 164.91,-307.43 156.13,-298.58"/>
<polygon fill="midnightblue" stroke="midnightblue" points="187.52,-331.78 197.48,-335.4 191.95,-326.36 187.52,-331.78"/>
</g>
<!-- Node10 -->
<g id="node10" class="node">
<title>Node10</title>
<g id="a_node10"><a xlink:href="mesh_8h.html" target="_top" xlink:title=" ">
<polygon fill="none" stroke="black" points="399.5,-268.5 399.5,-298.5 512.5,-298.5 512.5,-268.5 399.5,-268.5"/>
<text text-anchor="start" x="407.5" y="-286.5" font-family="Helvetica,sans-Serif" font-size="10.00">/github/workspace/src</text>
<text text-anchor="middle" x="456" y="-275.5" font-family="Helvetica,sans-Serif" font-size="10.00">/renderer/mesh.h</text>
</a>
</g>
</g>
<!-- Node4&#45;&gt;Node10 -->
<g id="edge11" class="edge">
<title>Node4&#45;&gt;Node10</title>
<path fill="none" stroke="midnightblue" d="M280.2,-332.71C318.77,-322.14 368,-308.63 404.55,-298.61"/>
<polygon fill="midnightblue" stroke="midnightblue" points="278.85,-329.46 270.13,-335.48 280.7,-336.21 278.85,-329.46"/>
</g>
<!-- Node6&#45;&gt;Node4 -->
<g id="edge7" class="edge">
<title>Node6&#45;&gt;Node4</title>
<path fill="none" stroke="midnightblue" d="M175.45,-305.09C187.27,-314.96 200.05,-326.54 208.84,-335.4"/>
<polygon fill="midnightblue" stroke="midnightblue" points="177.44,-302.19 167.48,-298.58 173.01,-307.61 177.44,-302.19"/>
</g>
<!-- Node7 -->
<g id="node7" class="node">
<title>Node7</title>
<g id="a_node7"><a xlink:href="materiallibrary_8cpp.html" target="_top" xlink:title=" ">
<polygon fill="none" stroke="black" points="0,-201.5 0,-231.5 136,-231.5 136,-201.5 0,-201.5"/>
<text text-anchor="start" x="8" y="-219.5" font-family="Helvetica,sans-Serif" font-size="10.00">/github/workspace/src</text>
<text text-anchor="middle" x="68" y="-208.5" font-family="Helvetica,sans-Serif" font-size="10.00">/renderer/materiallibrary.cpp</text>
</a>
</g>
</g>
<!-- Node6&#45;&gt;Node7 -->
<g id="edge8" class="edge">
<title>Node6&#45;&gt;Node7</title>
<path fill="none" stroke="midnightblue" d="M121.26,-261.88C109.41,-252.01 95.52,-240.43 84.89,-231.58"/>
<polygon fill="midnightblue" stroke="midnightblue" points="119.15,-264.68 129.08,-268.4 123.63,-259.31 119.15,-264.68"/>
</g>
<!-- Node8 -->
<g id="node8" class="node">
<title>Node8</title>
<g id="a_node8"><a xlink:href="rendermanager_8h.html" target="_top" xlink:title=" ">
<polygon fill="none" stroke="black" points="99,-67.5 99,-97.5 229,-97.5 229,-67.5 99,-67.5"/>
<text text-anchor="start" x="107" y="-85.5" font-family="Helvetica,sans-Serif" font-size="10.00">/github/workspace/src</text>
<text text-anchor="middle" x="164" y="-74.5" font-family="Helvetica,sans-Serif" font-size="10.00">/renderer/rendermanager.h</text>
</a>
</g>
</g>
<!-- Node6&#45;&gt;Node8 -->
<g id="edge9" class="edge">
<title>Node6&#45;&gt;Node8</title>
<path fill="none" stroke="midnightblue" d="M148.22,-258C152.02,-215.93 159.68,-131.26 162.72,-97.68"/>
<polygon fill="midnightblue" stroke="midnightblue" points="144.71,-257.91 147.29,-268.19 151.68,-258.54 144.71,-257.91"/>
</g>
<!-- Node9 -->
<g id="node9" class="node">
<title>Node9</title>
<g id="a_node9"><a xlink:href="rendermanager_8cpp.html" target="_top" xlink:title=" ">
<polygon fill="none" stroke="black" points="94,-0.5 94,-30.5 234,-30.5 234,-0.5 94,-0.5"/>
<text text-anchor="start" x="102" y="-18.5" font-family="Helvetica,sans-Serif" font-size="10.00">/github/workspace/src</text>
<text text-anchor="middle" x="164" y="-7.5" font-family="Helvetica,sans-Serif" font-size="10.00">/renderer/rendermanager.cpp</text>
</a>
</g>
</g>
<!-- Node8&#45;&gt;Node9 -->
<g id="edge10" class="edge">
<title>Node8&#45;&gt;Node9</title>
<path fill="none" stroke="midnightblue" d="M164,-57.11C164,-48.15 164,-38.32 164,-30.58"/>
<polygon fill="midnightblue" stroke="midnightblue" points="160.5,-57.4 164,-67.4 167.5,-57.4 160.5,-57.4"/>
</g>
<!-- Node10&#45;&gt;Node1 -->
<g id="edge22" class="edge">
<title>Node10&#45;&gt;Node1</title>
<path fill="none" stroke="midnightblue" d="M466.2,-308.1C477.57,-337.66 492.89,-389.7 481,-433 477.33,-446.37 469.09,-459.79 462.17,-469.43"/>
<polygon fill="midnightblue" stroke="midnightblue" points="469.38,-306.6 462.4,-298.63 462.88,-309.21 469.38,-306.6"/>
</g>
<!-- Node10&#45;&gt;Node2 -->
<g id="edge12" class="edge">
<title>Node10&#45;&gt;Node2</title>
<path fill="none" stroke="midnightblue" d="M458.74,-308.66C459.39,-326.7 457.08,-350.77 443,-366 433.06,-376.76 356.7,-393.32 299.13,-404.51"/>
<polygon fill="midnightblue" stroke="midnightblue" points="462.23,-308.33 458.06,-298.59 455.24,-308.81 462.23,-308.33"/>
</g>
<!-- Node11 -->
<g id="node11" class="node">
<title>Node11</title>
<g id="a_node11"><a xlink:href="mesh_8cpp.html" target="_top" xlink:title=" ">
<polygon fill="none" stroke="black" points="304.5,-201.5 304.5,-231.5 417.5,-231.5 417.5,-201.5 304.5,-201.5"/>
<text text-anchor="start" x="312.5" y="-219.5" font-family="Helvetica,sans-Serif" font-size="10.00">/github/workspace/src</text>
<text text-anchor="middle" x="361" y="-208.5" font-family="Helvetica,sans-Serif" font-size="10.00">/renderer/mesh.cpp</text>
</a>
</g>
</g>
<!-- Node10&#45;&gt;Node11 -->
<g id="edge13" class="edge">
<title>Node10&#45;&gt;Node11</title>
<path fill="none" stroke="midnightblue" d="M427.11,-262.73C412.41,-252.68 394.89,-240.68 381.57,-231.58"/>
<polygon fill="midnightblue" stroke="midnightblue" points="425.16,-265.64 435.39,-268.4 429.11,-259.86 425.16,-265.64"/>
</g>
<!-- Node12 -->
<g id="node12" class="node">
<title>Node12</title>
<g id="a_node12"><a xlink:href="meshlibrary_8h.html" target="_top" xlink:title=" ">
<polygon fill="none" stroke="black" points="222.5,-134.5 222.5,-164.5 337.5,-164.5 337.5,-134.5 222.5,-134.5"/>
<text text-anchor="start" x="230.5" y="-152.5" font-family="Helvetica,sans-Serif" font-size="10.00">/github/workspace/src</text>
<text text-anchor="middle" x="280" y="-141.5" font-family="Helvetica,sans-Serif" font-size="10.00">/renderer/meshlibrary.h</text>
</a>
</g>
</g>
<!-- Node10&#45;&gt;Node12 -->
<g id="edge14" class="edge">
<title>Node10&#45;&gt;Node12</title>
<path fill="none" stroke="midnightblue" d="M453.09,-258.37C449.71,-240.35 442.46,-216.29 427,-201 413.81,-187.95 372.38,-174.35 336.85,-164.56"/>
<polygon fill="midnightblue" stroke="midnightblue" points="449.66,-259.11 454.7,-268.43 456.57,-258 449.66,-259.11"/>
</g>
<!-- Node14 -->
<g id="node14" class="node">
<title>Node14</title>
<g id="a_node14"><a xlink:href="modelloader_8h.html" target="_top" xlink:title=" ">
<polygon fill="none" stroke="black" points="474,-201.5 474,-231.5 592,-231.5 592,-201.5 474,-201.5"/>
<text text-anchor="start" x="482" y="-219.5" font-family="Helvetica,sans-Serif" font-size="10.00">/github/workspace/src</text>
<text text-anchor="middle" x="533" y="-208.5" font-family="Helvetica,sans-Serif" font-size="10.00">/renderer/modelloader.h</text>
</a>
</g>
</g>
<!-- Node10&#45;&gt;Node14 -->
<g id="edge17" class="edge">
<title>Node10&#45;&gt;Node14</title>
<path fill="none" stroke="midnightblue" d="M480.42,-261.88C492.12,-252.01 505.84,-240.43 516.32,-231.58"/>
<polygon fill="midnightblue" stroke="midnightblue" points="478.09,-259.27 472.71,-268.4 482.61,-264.62 478.09,-259.27"/>
</g>
<!-- Node12&#45;&gt;Node8 -->
<g id="edge16" class="edge">
<title>Node12&#45;&gt;Node8</title>
<path fill="none" stroke="midnightblue" d="M245.73,-129.3C227.58,-119.12 205.68,-106.85 189.12,-97.58"/>
<polygon fill="midnightblue" stroke="midnightblue" points="244.4,-132.56 254.83,-134.4 247.82,-126.45 244.4,-132.56"/>
</g>
<!-- Node13 -->
<g id="node13" class="node">
<title>Node13</title>
<g id="a_node13"><a xlink:href="meshlibrary_8cpp.html" target="_top" xlink:title=" ">
<polygon fill="none" stroke="black" points="247.5,-67.5 247.5,-97.5 372.5,-97.5 372.5,-67.5 247.5,-67.5"/>
<text text-anchor="start" x="255.5" y="-85.5" font-family="Helvetica,sans-Serif" font-size="10.00">/github/workspace/src</text>
<text text-anchor="middle" x="310" y="-74.5" font-family="Helvetica,sans-Serif" font-size="10.00">/renderer/meshlibrary.cpp</text>
</a>
</g>
</g>
<!-- Node12&#45;&gt;Node13 -->
<g id="edge15" class="edge">
<title>Node12&#45;&gt;Node13</title>
<path fill="none" stroke="midnightblue" d="M290.72,-125.28C294.99,-116.02 299.77,-105.66 303.5,-97.58"/>
<polygon fill="midnightblue" stroke="midnightblue" points="287.52,-123.85 286.51,-134.4 293.88,-126.78 287.52,-123.85"/>
</g>
<!-- Node14&#45;&gt;Node12 -->
<g id="edge18" class="edge">
<title>Node14&#45;&gt;Node12</title>
<path fill="none" stroke="midnightblue" d="M468.72,-198.98C427.39,-188.37 374.27,-174.72 334.92,-164.61"/>
<polygon fill="midnightblue" stroke="midnightblue" points="467.86,-202.38 478.41,-201.48 469.6,-195.6 467.86,-202.38"/>
</g>
<!-- Node15 -->
<g id="node15" class="node">
<title>Node15</title>
<g id="a_node15"><a xlink:href="modelloader_8cpp.html" target="_top" xlink:title=" ">
<polygon fill="none" stroke="black" points="356,-134.5 356,-164.5 484,-164.5 484,-134.5 356,-134.5"/>
<text text-anchor="start" x="364" y="-152.5" font-family="Helvetica,sans-Serif" font-size="10.00">/github/workspace/src</text>
<text text-anchor="middle" x="420" y="-141.5" font-family="Helvetica,sans-Serif" font-size="10.00">/renderer/modelloader.cpp</text>
</a>
</g>
</g>
<!-- Node14&#45;&gt;Node15 -->
<g id="edge19" class="edge">
<title>Node14&#45;&gt;Node15</title>
<path fill="none" stroke="midnightblue" d="M499.61,-196.3C481.93,-186.12 460.6,-173.85 444.47,-164.58"/>
<polygon fill="midnightblue" stroke="midnightblue" points="498.07,-199.44 508.48,-201.4 501.56,-193.38 498.07,-199.44"/>
</g>
<!-- Node16 -->
<g id="node16" class="node">
<title>Node16</title>
<g id="a_node16"><a xlink:href="vulkan__voxel__rasterizer__2_8cpp.html" target="_top" xlink:title=" ">
<polygon fill="none" stroke="black" points="502,-134.5 502,-164.5 676,-164.5 676,-134.5 502,-134.5"/>
<text text-anchor="start" x="510" y="-152.5" font-family="Helvetica,sans-Serif" font-size="10.00">/github/workspace/src</text>
<text text-anchor="middle" x="589" y="-141.5" font-family="Helvetica,sans-Serif" font-size="10.00">/tests/vulkan_voxel_rasterizer_2.cpp</text>
</a>
</g>
</g>
<!-- Node14&#45;&gt;Node16 -->
<g id="edge20" class="edge">
<title>Node14&#45;&gt;Node16</title>
<path fill="none" stroke="midnightblue" d="M551.75,-193.74C560.04,-184.12 569.54,-173.09 576.87,-164.58"/>
<polygon fill="midnightblue" stroke="midnightblue" points="549.03,-191.54 545.15,-201.4 554.33,-196.1 549.03,-191.54"/>
</g>
<!-- Node17 -->
<g id="node17" class="node">
<title>Node17</title>
<g id="a_node17"><a xlink:href="vulkan__voxel__rasterizer__3_8cpp.html" target="_top" xlink:title=" ">
<polygon fill="none" stroke="black" points="838,-134.5 838,-164.5 1012,-164.5 1012,-134.5 838,-134.5"/>
<text text-anchor="start" x="846" y="-152.5" font-family="Helvetica,sans-Serif" font-size="10.00">/github/workspace/src</text>
<text text-anchor="middle" x="925" y="-141.5" font-family="Helvetica,sans-Serif" font-size="10.00">/tests/vulkan_voxel_rasterizer_3.cpp</text>
</a>
</g>
</g>
<!-- Node14&#45;&gt;Node17 -->
<g id="edge21" class="edge">
<title>Node14&#45;&gt;Node17</title>
<path fill="none" stroke="midnightblue" d="M602.06,-204.05C668.5,-193.03 769.08,-176.35 840.31,-164.54"/>
<polygon fill="midnightblue" stroke="midnightblue" points="601.4,-200.61 592.11,-205.7 602.55,-207.52 601.4,-200.61"/>
</g>
<!-- Node19&#45;&gt;Node16 -->
<g id="edge38" class="edge">
<title>Node19&#45;&gt;Node16</title>
<path fill="none" stroke="midnightblue" d="M835.12,-272.52C794.68,-264.87 742.83,-252.12 700,-232 662.35,-214.31 624.6,-183.02 604.28,-164.78"/>
<polygon fill="midnightblue" stroke="midnightblue" points="834.68,-276 845.14,-274.36 835.94,-269.11 834.68,-276"/>
</g>
<!-- Node19&#45;&gt;Node17 -->
<g id="edge39" class="edge">
<title>Node19&#45;&gt;Node17</title>
<path fill="none" stroke="midnightblue" d="M884.38,-260.03C873.69,-243.52 863.58,-220.65 872,-201 878.41,-186.05 891.66,-173.42 903.3,-164.53"/>
<polygon fill="midnightblue" stroke="midnightblue" points="881.68,-262.28 890.27,-268.48 887.42,-258.28 881.68,-262.28"/>
</g>
<!-- Node20 -->
<g id="node20" class="node">
<title>Node20</title>
<g id="a_node20"><a xlink:href="scene_8cpp.html" target="_top" xlink:title=" ">
<polygon fill="none" stroke="black" points="1043.5,-201.5 1043.5,-231.5 1156.5,-231.5 1156.5,-201.5 1043.5,-201.5"/>
<text text-anchor="start" x="1051.5" y="-219.5" font-family="Helvetica,sans-Serif" font-size="10.00">/github/workspace/src</text>
<text text-anchor="middle" x="1100" y="-208.5" font-family="Helvetica,sans-Serif" font-size="10.00">/renderer/scene.cpp</text>
</a>
</g>
</g>
<!-- Node19&#45;&gt;Node20 -->
<g id="edge26" class="edge">
<title>Node19&#45;&gt;Node20</title>
<path fill="none" stroke="midnightblue" d="M954.61,-265.23C986.64,-254.71 1027.04,-241.45 1057.12,-231.58"/>
<polygon fill="midnightblue" stroke="midnightblue" points="953.37,-261.95 944.96,-268.4 955.56,-268.6 953.37,-261.95"/>
</g>
<!-- Node21 -->
<g id="node21" class="node">
<title>Node21</title>
<g id="a_node21"><a xlink:href="scenewriter_8h.html" target="_top" xlink:title=" ">
<polygon fill="none" stroke="black" points="1340,-201.5 1340,-231.5 1456,-231.5 1456,-201.5 1340,-201.5"/>
<text text-anchor="start" x="1348" y="-219.5" font-family="Helvetica,sans-Serif" font-size="10.00">/github/workspace/src</text>
<text text-anchor="middle" x="1398" y="-208.5" font-family="Helvetica,sans-Serif" font-size="10.00">/renderer/scenewriter.h</text>
</a>
</g>
</g>
<!-- Node19&#45;&gt;Node21 -->
<g id="edge27" class="edge">
<title>Node19&#45;&gt;Node21</title>
<path fill="none" stroke="midnightblue" d="M968.74,-274.76C1048.74,-265.34 1186.81,-248.61 1305,-232 1316.33,-230.41 1328.41,-228.6 1340,-226.82"/>
<polygon fill="midnightblue" stroke="midnightblue" points="968.32,-271.28 958.8,-275.93 969.14,-278.24 968.32,-271.28"/>
</g>
<!-- Node23 -->
<g id="node23" class="node">
<title>Node23</title>
<g id="a_node23"><a xlink:href="mainmenu_8h.html" target="_top" xlink:title=" ">
<polygon fill="none" stroke="black" points="1174.5,-201.5 1174.5,-231.5 1295.5,-231.5 1295.5,-201.5 1174.5,-201.5"/>
<text text-anchor="start" x="1182.5" y="-219.5" font-family="Helvetica,sans-Serif" font-size="10.00">/github/workspace/src</text>
<text text-anchor="middle" x="1235" y="-208.5" font-family="Helvetica,sans-Serif" font-size="10.00">/renderer/ui/mainmenu.h</text>
</a>
</g>
</g>
<!-- Node19&#45;&gt;Node23 -->
<g id="edge29" class="edge">
<title>Node19&#45;&gt;Node23</title>
<path fill="none" stroke="midnightblue" d="M968.73,-270.08C1022.15,-260.06 1098.95,-245.46 1166,-232 1168.76,-231.45 1171.58,-230.87 1174.43,-230.29"/>
<polygon fill="midnightblue" stroke="midnightblue" points="967.89,-266.68 958.71,-271.96 969.18,-273.56 967.89,-266.68"/>
</g>
<!-- Node25 -->
<g id="node25" class="node">
<title>Node25</title>
<g id="a_node25"><a xlink:href="objectlist_8h.html" target="_top" xlink:title=" ">
<polygon fill="none" stroke="black" points="708.5,-201.5 708.5,-231.5 823.5,-231.5 823.5,-201.5 708.5,-201.5"/>
<text text-anchor="start" x="716.5" y="-219.5" font-family="Helvetica,sans-Serif" font-size="10.00">/github/workspace/src</text>
<text text-anchor="middle" x="766" y="-208.5" font-family="Helvetica,sans-Serif" font-size="10.00">/renderer/ui/objectlist.h</text>
</a>
</g>
</g>
<!-- Node19&#45;&gt;Node25 -->
<g id="edge32" class="edge">
<title>Node19&#45;&gt;Node25</title>
<path fill="none" stroke="midnightblue" d="M863.28,-263.99C841.72,-253.69 815.31,-241.07 795.45,-231.58"/>
<polygon fill="midnightblue" stroke="midnightblue" points="861.96,-267.24 872.49,-268.4 864.98,-260.93 861.96,-267.24"/>
</g>
<!-- Node27 -->
<g id="node27" class="node">
<title>Node27</title>
<g id="a_node27"><a xlink:href="objectproperties_8h.html" target="_top" xlink:title=" ">
<polygon fill="none" stroke="black" points="880.5,-201.5 880.5,-231.5 1025.5,-231.5 1025.5,-201.5 880.5,-201.5"/>
<text text-anchor="start" x="888.5" y="-219.5" font-family="Helvetica,sans-Serif" font-size="10.00">/github/workspace/src</text>
<text text-anchor="middle" x="953" y="-208.5" font-family="Helvetica,sans-Serif" font-size="10.00">/renderer/ui/objectproperties.h</text>
</a>
</g>
</g>
<!-- Node19&#45;&gt;Node27 -->
<g id="edge35" class="edge">
<title>Node19&#45;&gt;Node27</title>
<path fill="none" stroke="midnightblue" d="M919.3,-260.45C926.79,-250.9 935.34,-240 941.96,-231.58"/>
<polygon fill="midnightblue" stroke="midnightblue" points="916.49,-258.37 913.07,-268.4 921.99,-262.69 916.49,-258.37"/>
</g>
<!-- Node22 -->
<g id="node22" class="node">
<title>Node22</title>
<g id="a_node22"><a xlink:href="scenewriter_8cpp.html" target="_top" xlink:title=" ">
<polygon fill="none" stroke="black" points="1353,-134.5 1353,-164.5 1479,-164.5 1479,-134.5 1353,-134.5"/>
<text text-anchor="start" x="1361" y="-152.5" font-family="Helvetica,sans-Serif" font-size="10.00">/github/workspace/src</text>
<text text-anchor="middle" x="1416" y="-141.5" font-family="Helvetica,sans-Serif" font-size="10.00">/renderer/scenewriter.cpp</text>
</a>
</g>
</g>
<!-- Node21&#45;&gt;Node22 -->
<g id="edge28" class="edge">
<title>Node21&#45;&gt;Node22</title>
<path fill="none" stroke="midnightblue" d="M1404.59,-191.7C1407.11,-182.59 1409.91,-172.49 1412.1,-164.58"/>
<polygon fill="midnightblue" stroke="midnightblue" points="1401.2,-190.82 1401.91,-201.4 1407.95,-192.69 1401.2,-190.82"/>
</g>
<!-- Node23&#45;&gt;Node17 -->
<g id="edge31" class="edge">
<title>Node23&#45;&gt;Node17</title>
<path fill="none" stroke="midnightblue" d="M1164.58,-200.7C1100.73,-187.31 1038.01,-174.16 992.01,-164.53"/>
<polygon fill="midnightblue" stroke="midnightblue" points="1163.91,-204.14 1174.42,-202.77 1165.35,-197.29 1163.91,-204.14"/>
</g>
<!-- Node24 -->
<g id="node24" class="node">
<title>Node24</title>
<g id="a_node24"><a xlink:href="mainmenu_8cpp.html" target="_top" xlink:title=" ">
<polygon fill="none" stroke="black" points="1203.5,-134.5 1203.5,-164.5 1334.5,-164.5 1334.5,-134.5 1203.5,-134.5"/>
<text text-anchor="start" x="1211.5" y="-152.5" font-family="Helvetica,sans-Serif" font-size="10.00">/github/workspace/src</text>
<text text-anchor="middle" x="1269" y="-141.5" font-family="Helvetica,sans-Serif" font-size="10.00">/renderer/ui/mainmenu.cpp</text>
</a>
</g>
</g>
<!-- Node23&#45;&gt;Node24 -->
<g id="edge30" class="edge">
<title>Node23&#45;&gt;Node24</title>
<path fill="none" stroke="midnightblue" d="M1247.14,-192.28C1251.99,-183.02 1257.41,-172.66 1261.64,-164.58"/>
<polygon fill="midnightblue" stroke="midnightblue" points="1243.91,-190.91 1242.38,-201.4 1250.11,-194.16 1243.91,-190.91"/>
</g>
<!-- Node25&#45;&gt;Node17 -->
<g id="edge34" class="edge">
<title>Node25&#45;&gt;Node17</title>
<path fill="none" stroke="midnightblue" d="M809.92,-197.54C835.37,-187.14 866.93,-174.24 890.57,-164.58"/>
<polygon fill="midnightblue" stroke="midnightblue" points="808.43,-194.37 800.5,-201.4 811.08,-200.85 808.43,-194.37"/>
</g>
<!-- Node26 -->
<g id="node26" class="node">
<title>Node26</title>
<g id="a_node26"><a xlink:href="objectlist_8cpp.html" target="_top" xlink:title=" ">
<polygon fill="none" stroke="black" points="694.5,-134.5 694.5,-164.5 819.5,-164.5 819.5,-134.5 694.5,-134.5"/>
<text text-anchor="start" x="702.5" y="-152.5" font-family="Helvetica,sans-Serif" font-size="10.00">/github/workspace/src</text>
<text text-anchor="middle" x="757" y="-141.5" font-family="Helvetica,sans-Serif" font-size="10.00">/renderer/ui/objectlist.cpp</text>
</a>
</g>
</g>
<!-- Node25&#45;&gt;Node26 -->
<g id="edge33" class="edge">
<title>Node25&#45;&gt;Node26</title>
<path fill="none" stroke="midnightblue" d="M762.66,-191.4C761.41,-182.37 760.03,-172.41 758.95,-164.58"/>
<polygon fill="midnightblue" stroke="midnightblue" points="759.21,-191.97 764.05,-201.4 766.14,-191.01 759.21,-191.97"/>
</g>
<!-- Node27&#45;&gt;Node17 -->
<g id="edge37" class="edge">
<title>Node27&#45;&gt;Node17</title>
<path fill="none" stroke="midnightblue" d="M942.87,-191.99C938.92,-182.8 934.51,-172.58 931.06,-164.58"/>
<polygon fill="midnightblue" stroke="midnightblue" points="939.75,-193.6 946.92,-201.4 946.18,-190.83 939.75,-193.6"/>
</g>
<!-- Node28 -->
<g id="node28" class="node">
<title>Node28</title>
<g id="a_node28"><a xlink:href="objectproperties_8cpp.html" target="_top" xlink:title=" ">
<polygon fill="none" stroke="black" points="1030.5,-134.5 1030.5,-164.5 1185.5,-164.5 1185.5,-134.5 1030.5,-134.5"/>
<text text-anchor="start" x="1038.5" y="-152.5" font-family="Helvetica,sans-Serif" font-size="10.00">/github/workspace/src</text>
<text text-anchor="middle" x="1108" y="-141.5" font-family="Helvetica,sans-Serif" font-size="10.00">/renderer/ui/objectproperties.cpp</text>
</a>
</g>
</g>
<!-- Node27&#45;&gt;Node28 -->
<g id="edge36" class="edge">
<title>Node27&#45;&gt;Node28</title>
<path fill="none" stroke="midnightblue" d="M996.15,-197.41C1020.89,-187.03 1051.5,-174.2 1074.43,-164.58"/>
<polygon fill="midnightblue" stroke="midnightblue" points="994.5,-194.3 986.63,-201.4 997.21,-200.76 994.5,-194.3"/>
</g>
</g>
</svg>
