<?xml version="1.0" encoding="UTF-8" standalone="no"?>
<!DOCTYPE svg PUBLIC "-//W3C//DTD SVG 1.1//EN"
 "http://www.w3.org/Graphics/SVG/1.1/DTD/svg11.dtd">
<!-- Generated by graphviz version 2.49.3 (20211215.1918)
 -->
<!-- Title: /github/workspace/src/renderer/vulkan/pipelinebase.h Pages: 1 -->
<svg width="1435pt" height="642pt"
 viewBox="0.00 0.00 1435.00 642.00" xmlns="http://www.w3.org/2000/svg" xmlns:xlink="http://www.w3.org/1999/xlink">
<g id="graph0" class="graph" transform="scale(1 1) rotate(0) translate(4 638)">
<title>/github/workspace/src/renderer/vulkan/pipelinebase.h</title>
<!-- Node1 -->
<g id="node1" class="node">
<title>Node1</title>
<g id="a_node1"><a xlink:title=" ">
<polygon fill="#bfbfbf" stroke="black" points="517.5,-603.5 517.5,-633.5 668.5,-633.5 668.5,-603.5 517.5,-603.5"/>
<text text-anchor="start" x="525.5" y="-621.5" font-family="Helvetica,sans-Serif" font-size="10.00">/github/workspace/src</text>
<text text-anchor="middle" x="593" y="-610.5" font-family="Helvetica,sans-Serif" font-size="10.00">/renderer/vulkan/pipelinebase.h</text>
</a>
</g>
</g>
<!-- Node2 -->
<g id="node2" class="node">
<title>Node2</title>
<g id="a_node2"><a xlink:href="commandbuffer_8h.html" target="_top" xlink:title=" ">
<polygon fill="none" stroke="black" points="511,-536.5 511,-566.5 675,-566.5 675,-536.5 511,-536.5"/>
<text text-anchor="start" x="519" y="-554.5" font-family="Helvetica,sans-Serif" font-size="10.00">/github/workspace/src</text>
<text text-anchor="middle" x="593" y="-543.5" font-family="Helvetica,sans-Serif" font-size="10.00">/renderer/vulkan/commandbuffer.h</text>
</a>
</g>
</g>
<!-- Node1&#45;&gt;Node2 -->
<g id="edge1" class="edge">
<title>Node1&#45;&gt;Node2</title>
<path fill="none" stroke="midnightblue" d="M593,-593.11C593,-584.15 593,-574.32 593,-566.58"/>
<polygon fill="midnightblue" stroke="midnightblue" points="589.5,-593.4 593,-603.4 596.5,-593.4 589.5,-593.4"/>
</g>
<!-- Node33 -->
<g id="node33" class="node">
<title>Node33</title>
<g id="a_node33"><a xlink:href="graphicspipeline_8h.html" target="_top" xlink:title=" ">
<polygon fill="none" stroke="black" points="75.5,-335.5 75.5,-365.5 242.5,-365.5 242.5,-335.5 75.5,-335.5"/>
<text text-anchor="start" x="83.5" y="-353.5" font-family="Helvetica,sans-Serif" font-size="10.00">/github/workspace/src</text>
<text text-anchor="middle" x="159" y="-342.5" font-family="Helvetica,sans-Serif" font-size="10.00">/renderer/vulkan/graphicspipeline.h</text>
</a>
</g>
</g>
<!-- Node1&#45;&gt;Node33 -->
<g id="edge56" class="edge">
<title>Node1&#45;&gt;Node33</title>
<path fill="none" stroke="midnightblue" d="M507.21,-615.81C406,-609.69 237.2,-586.09 124,-500 86.82,-471.72 64.31,-443.38 86,-402 94.44,-385.89 110.61,-373.91 125.59,-365.66"/>
<polygon fill="midnightblue" stroke="midnightblue" points="507.22,-619.32 517.4,-616.38 507.61,-612.33 507.22,-619.32"/>
</g>
<!-- Node38 -->
<g id="node38" class="node">
<title>Node38</title>
<g id="a_node38"><a xlink:href="pipelinebase_8cpp.html" target="_top" xlink:title=" ">
<polygon fill="none" stroke="black" points="693.5,-536.5 693.5,-566.5 854.5,-566.5 854.5,-536.5 693.5,-536.5"/>
<text text-anchor="start" x="701.5" y="-554.5" font-family="Helvetica,sans-Serif" font-size="10.00">/github/workspace/src</text>
<text text-anchor="middle" x="774" y="-543.5" font-family="Helvetica,sans-Serif" font-size="10.00">/renderer/vulkan/pipelinebase.cpp</text>
</a>
</g>
</g>
<!-- Node1&#45;&gt;Node38 -->
<g id="edge57" class="edge">
<title>Node1&#45;&gt;Node38</title>
<path fill="none" stroke="midnightblue" d="M641.86,-599.96C671.01,-589.48 707.54,-576.37 734.8,-566.58"/>
<polygon fill="midnightblue" stroke="midnightblue" points="640.5,-596.72 632.27,-603.4 642.87,-603.31 640.5,-596.72"/>
</g>
<!-- Node3 -->
<g id="node3" class="node">
<title>Node3</title>
<g id="a_node3"><a xlink:href="buffer_8h.html" target="_top" xlink:title=" ">
<polygon fill="none" stroke="black" points="821.5,-469.5 821.5,-499.5 942.5,-499.5 942.5,-469.5 821.5,-469.5"/>
<text text-anchor="start" x="829.5" y="-487.5" font-family="Helvetica,sans-Serif" font-size="10.00">/github/workspace/src</text>
<text text-anchor="middle" x="882" y="-476.5" font-family="Helvetica,sans-Serif" font-size="10.00">/renderer/vulkan/buffer.h</text>
</a>
</g>
</g>
<!-- Node2&#45;&gt;Node3 -->
<g id="edge2" class="edge">
<title>Node2&#45;&gt;Node3</title>
<path fill="none" stroke="midnightblue" d="M665.38,-534.22C713.43,-523.41 775.78,-509.39 821.25,-499.16"/>
<polygon fill="midnightblue" stroke="midnightblue" points="664.34,-530.87 655.35,-536.48 665.88,-537.7 664.34,-530.87"/>
</g>
<!-- Node28 -->
<g id="node28" class="node">
<title>Node28</title>
<g id="a_node28"><a xlink:href="vulkan__voxel__rasterizer_8cpp.html" target="_top" xlink:title=" ">
<polygon fill="none" stroke="black" points="518,-268.5 518,-298.5 682,-298.5 682,-268.5 518,-268.5"/>
<text text-anchor="start" x="526" y="-286.5" font-family="Helvetica,sans-Serif" font-size="10.00">/github/workspace/src</text>
<text text-anchor="middle" x="600" y="-275.5" font-family="Helvetica,sans-Serif" font-size="10.00">/tests/vulkan_voxel_rasterizer.cpp</text>
</a>
</g>
</g>
<!-- Node2&#45;&gt;Node28 -->
<g id="edge55" class="edge">
<title>Node2&#45;&gt;Node28</title>
<path fill="none" stroke="midnightblue" d="M609.64,-527.85C615.03,-519.48 620.52,-509.67 624,-500 649.01,-430.55 668.5,-404.27 643,-335 637.75,-320.74 626.48,-307.76 616.8,-298.53"/>
<polygon fill="midnightblue" stroke="midnightblue" points="606.63,-526.05 603.92,-536.29 612.43,-529.97 606.63,-526.05"/>
</g>
<!-- Node29 -->
<g id="node29" class="node">
<title>Node29</title>
<g id="a_node29"><a xlink:href="commandbuffer_8cpp.html" target="_top" xlink:title=" ">
<polygon fill="none" stroke="black" points="391,-469.5 391,-499.5 565,-499.5 565,-469.5 391,-469.5"/>
<text text-anchor="start" x="399" y="-487.5" font-family="Helvetica,sans-Serif" font-size="10.00">/github/workspace/src</text>
<text text-anchor="middle" x="478" y="-476.5" font-family="Helvetica,sans-Serif" font-size="10.00">/renderer/vulkan/commandbuffer.cpp</text>
</a>
</g>
</g>
<!-- Node2&#45;&gt;Node29 -->
<g id="edge33" class="edge">
<title>Node2&#45;&gt;Node29</title>
<path fill="none" stroke="midnightblue" d="M559.02,-531.3C541.03,-521.12 519.32,-508.85 502.9,-499.58"/>
<polygon fill="midnightblue" stroke="midnightblue" points="557.62,-534.52 568.05,-536.4 561.06,-528.43 557.62,-534.52"/>
</g>
<!-- Node30 -->
<g id="node30" class="node">
<title>Node30</title>
<g id="a_node30"><a xlink:href="swapchain_8h.html" target="_top" xlink:title=" ">
<polygon fill="none" stroke="black" points="229.5,-469.5 229.5,-499.5 372.5,-499.5 372.5,-469.5 229.5,-469.5"/>
<text text-anchor="start" x="237.5" y="-487.5" font-family="Helvetica,sans-Serif" font-size="10.00">/github/workspace/src</text>
<text text-anchor="middle" x="301" y="-476.5" font-family="Helvetica,sans-Serif" font-size="10.00">/renderer/vulkan/swapchain.h</text>
</a>
</g>
</g>
<!-- Node2&#45;&gt;Node30 -->
<g id="edge34" class="edge">
<title>Node2&#45;&gt;Node30</title>
<path fill="none" stroke="midnightblue" d="M519.99,-534.25C472.05,-523.58 409.95,-509.75 364.14,-499.55"/>
<polygon fill="midnightblue" stroke="midnightblue" points="519.48,-537.72 530,-536.48 521,-530.89 519.48,-537.72"/>
</g>
<!-- Node4 -->
<g id="node4" class="node">
<title>Node4</title>
<g id="a_node4"><a xlink:href="buffer_8cpp.html" target="_top" xlink:title=" ">
<polygon fill="none" stroke="black" points="736.5,-402.5 736.5,-432.5 867.5,-432.5 867.5,-402.5 736.5,-402.5"/>
<text text-anchor="start" x="744.5" y="-420.5" font-family="Helvetica,sans-Serif" font-size="10.00">/github/workspace/src</text>
<text text-anchor="middle" x="802" y="-409.5" font-family="Helvetica,sans-Serif" font-size="10.00">/renderer/vulkan/buffer.cpp</text>
</a>
</g>
</g>
<!-- Node3&#45;&gt;Node4 -->
<g id="edge3" class="edge">
<title>Node3&#45;&gt;Node4</title>
<path fill="none" stroke="midnightblue" d="M856.63,-462.88C844.47,-453.01 830.22,-441.43 819.32,-432.58"/>
<polygon fill="midnightblue" stroke="midnightblue" points="854.67,-465.81 864.64,-469.4 859.09,-460.37 854.67,-465.81"/>
</g>
<!-- Node5 -->
<g id="node5" class="node">
<title>Node5</title>
<g id="a_node5"><a xlink:href="bufferview_8h.html" target="_top" xlink:title=" ">
<polygon fill="none" stroke="black" points="1068.5,-402.5 1068.5,-432.5 1209.5,-432.5 1209.5,-402.5 1068.5,-402.5"/>
<text text-anchor="start" x="1076.5" y="-420.5" font-family="Helvetica,sans-Serif" font-size="10.00">/github/workspace/src</text>
<text text-anchor="middle" x="1139" y="-409.5" font-family="Helvetica,sans-Serif" font-size="10.00">/renderer/vulkan/bufferview.h</text>
</a>
</g>
</g>
<!-- Node3&#45;&gt;Node5 -->
<g id="edge4" class="edge">
<title>Node3&#45;&gt;Node5</title>
<path fill="none" stroke="midnightblue" d="M947.3,-466.98C989.28,-456.37 1043.24,-442.72 1083.21,-432.61"/>
<polygon fill="midnightblue" stroke="midnightblue" points="946.29,-463.63 937.45,-469.48 948,-470.42 946.29,-463.63"/>
</g>
<!-- Node7 -->
<g id="node7" class="node">
<title>Node7</title>
<g id="a_node7"><a xlink:href="uniformbuffer_8h.html" target="_top" xlink:title=" ">
<polygon fill="none" stroke="black" points="885.5,-402.5 885.5,-432.5 1038.5,-432.5 1038.5,-402.5 885.5,-402.5"/>
<text text-anchor="start" x="893.5" y="-420.5" font-family="Helvetica,sans-Serif" font-size="10.00">/github/workspace/src</text>
<text text-anchor="middle" x="962" y="-409.5" font-family="Helvetica,sans-Serif" font-size="10.00">/renderer/vulkan/uniformbuffer.h</text>
</a>
</g>
</g>
<!-- Node3&#45;&gt;Node7 -->
<g id="edge6" class="edge">
<title>Node3&#45;&gt;Node7</title>
<path fill="none" stroke="midnightblue" d="M907.37,-462.88C919.53,-453.01 933.78,-441.43 944.68,-432.58"/>
<polygon fill="midnightblue" stroke="midnightblue" points="904.91,-460.37 899.36,-469.4 909.33,-465.81 904.91,-460.37"/>
</g>
<!-- Node6 -->
<g id="node6" class="node">
<title>Node6</title>
<g id="a_node6"><a xlink:href="bufferview_8cpp.html" target="_top" xlink:title=" ">
<polygon fill="none" stroke="black" points="1076,-335.5 1076,-365.5 1228,-365.5 1228,-335.5 1076,-335.5"/>
<text text-anchor="start" x="1084" y="-353.5" font-family="Helvetica,sans-Serif" font-size="10.00">/github/workspace/src</text>
<text text-anchor="middle" x="1152" y="-342.5" font-family="Helvetica,sans-Serif" font-size="10.00">/renderer/vulkan/bufferview.cpp</text>
</a>
</g>
</g>
<!-- Node5&#45;&gt;Node6 -->
<g id="edge5" class="edge">
<title>Node5&#45;&gt;Node6</title>
<path fill="none" stroke="midnightblue" d="M1143.82,-392.4C1145.63,-383.37 1147.62,-373.41 1149.18,-365.58"/>
<polygon fill="midnightblue" stroke="midnightblue" points="1140.35,-391.9 1141.82,-402.4 1147.21,-393.28 1140.35,-391.9"/>
</g>
<!-- Node8 -->
<g id="node8" class="node">
<title>Node8</title>
<g id="a_node8"><a xlink:href="materiallibrary_8h.html" target="_top" xlink:title=" ">
<polygon fill="none" stroke="black" points="932.5,-335.5 932.5,-365.5 1057.5,-365.5 1057.5,-335.5 932.5,-335.5"/>
<text text-anchor="start" x="940.5" y="-353.5" font-family="Helvetica,sans-Serif" font-size="10.00">/github/workspace/src</text>
<text text-anchor="middle" x="995" y="-342.5" font-family="Helvetica,sans-Serif" font-size="10.00">/renderer/materiallibrary.h</text>
</a>
</g>
</g>
<!-- Node7&#45;&gt;Node8 -->
<g id="edge7" class="edge">
<title>Node7&#45;&gt;Node8</title>
<path fill="none" stroke="midnightblue" d="M973.79,-393.28C978.49,-384.02 983.75,-373.66 987.85,-365.58"/>
<polygon fill="midnightblue" stroke="midnightblue" points="970.57,-391.89 969.16,-402.4 976.81,-395.06 970.57,-391.89"/>
</g>
<!-- Node23 -->
<g id="node23" class="node">
<title>Node23</title>
<g id="a_node23"><a xlink:href="descriptorset_8h.html" target="_top" xlink:title=" ">
<polygon fill="none" stroke="black" points="1246.5,-335.5 1246.5,-365.5 1399.5,-365.5 1399.5,-335.5 1246.5,-335.5"/>
<text text-anchor="start" x="1254.5" y="-353.5" font-family="Helvetica,sans-Serif" font-size="10.00">/github/workspace/src</text>
<text text-anchor="middle" x="1323" y="-342.5" font-family="Helvetica,sans-Serif" font-size="10.00">/renderer/vulkan/descriptorset.h</text>
</a>
</g>
</g>
<!-- Node7&#45;&gt;Node23 -->
<g id="edge25" class="edge">
<title>Node7&#45;&gt;Node23</title>
<path fill="none" stroke="midnightblue" d="M1048.43,-400.94C1108.65,-390.1 1188.26,-375.76 1246.24,-365.32"/>
<polygon fill="midnightblue" stroke="midnightblue" points="1047.78,-397.5 1038.56,-402.72 1049.02,-404.39 1047.78,-397.5"/>
</g>
<!-- Node27 -->
<g id="node27" class="node">
<title>Node27</title>
<g id="a_node27"><a xlink:href="uniformbuffer_8cpp.html" target="_top" xlink:title=" ">
<polygon fill="none" stroke="black" points="712,-335.5 712,-365.5 876,-365.5 876,-335.5 712,-335.5"/>
<text text-anchor="start" x="720" y="-353.5" font-family="Helvetica,sans-Serif" font-size="10.00">/github/workspace/src</text>
<text text-anchor="middle" x="794" y="-342.5" font-family="Helvetica,sans-Serif" font-size="10.00">/renderer/vulkan/uniformbuffer.cpp</text>
</a>
</g>
</g>
<!-- Node7&#45;&gt;Node27 -->
<g id="edge31" class="edge">
<title>Node7&#45;&gt;Node27</title>
<path fill="none" stroke="midnightblue" d="M915.95,-398.68C889,-388.26 855.46,-375.28 830.38,-365.58"/>
<polygon fill="midnightblue" stroke="midnightblue" points="914.96,-402.05 925.55,-402.4 917.48,-395.52 914.96,-402.05"/>
</g>
<!-- Node7&#45;&gt;Node28 -->
<g id="edge32" class="edge">
<title>Node7&#45;&gt;Node28</title>
<path fill="none" stroke="midnightblue" d="M947.08,-394.01C933.29,-375.12 911.03,-349.04 885,-335 850.72,-316.52 753.47,-301.9 682.07,-293.25"/>
<polygon fill="midnightblue" stroke="midnightblue" points="944.35,-396.21 952.98,-402.36 950.07,-392.17 944.35,-396.21"/>
</g>
<!-- Node9 -->
<g id="node9" class="node">
<title>Node9</title>
<g id="a_node9"><a xlink:href="material_8h.html" target="_top" xlink:title=" ">
<polygon fill="none" stroke="black" points="757.5,-268.5 757.5,-298.5 870.5,-298.5 870.5,-268.5 757.5,-268.5"/>
<text text-anchor="start" x="765.5" y="-286.5" font-family="Helvetica,sans-Serif" font-size="10.00">/github/workspace/src</text>
<text text-anchor="middle" x="814" y="-275.5" font-family="Helvetica,sans-Serif" font-size="10.00">/renderer/material.h</text>
</a>
</g>
</g>
<!-- Node8&#45;&gt;Node9 -->
<g id="edge8" class="edge">
<title>Node8&#45;&gt;Node9</title>
<path fill="none" stroke="midnightblue" d="M940.47,-332.09C910.21,-321.6 873.61,-308.41 847.52,-298.58"/>
<polygon fill="midnightblue" stroke="midnightblue" points="939.45,-335.44 950.05,-335.4 941.74,-328.83 939.45,-335.44"/>
</g>
<!-- Node22 -->
<g id="node22" class="node">
<title>Node22</title>
<g id="a_node22"><a xlink:href="materiallibrary_8cpp.html" target="_top" xlink:title=" ">
<polygon fill="none" stroke="black" points="927,-268.5 927,-298.5 1063,-298.5 1063,-268.5 927,-268.5"/>
<text text-anchor="start" x="935" y="-286.5" font-family="Helvetica,sans-Serif" font-size="10.00">/github/workspace/src</text>
<text text-anchor="middle" x="995" y="-275.5" font-family="Helvetica,sans-Serif" font-size="10.00">/renderer/materiallibrary.cpp</text>
</a>
</g>
</g>
<!-- Node8&#45;&gt;Node22 -->
<g id="edge24" class="edge">
<title>Node8&#45;&gt;Node22</title>
<path fill="none" stroke="midnightblue" d="M995,-325.11C995,-316.15 995,-306.32 995,-298.58"/>
<polygon fill="midnightblue" stroke="midnightblue" points="991.5,-325.4 995,-335.4 998.5,-325.4 991.5,-325.4"/>
</g>
<!-- Node9&#45;&gt;Node8 -->
<g id="edge13" class="edge">
<title>Node9&#45;&gt;Node8</title>
<path fill="none" stroke="midnightblue" d="M868.45,-301.88C898.69,-312.37 935.3,-325.56 961.4,-335.4"/>
<polygon fill="midnightblue" stroke="midnightblue" points="869.47,-298.53 858.87,-298.58 867.18,-305.15 869.47,-298.53"/>
</g>
<!-- Node10 -->
<g id="node10" class="node">
<title>Node10</title>
<g id="a_node10"><a xlink:href="mastermaterial_8h.html" target="_top" xlink:title=" ">
<polygon fill="none" stroke="black" points="749,-201.5 749,-231.5 879,-231.5 879,-201.5 749,-201.5"/>
<text text-anchor="start" x="757" y="-219.5" font-family="Helvetica,sans-Serif" font-size="10.00">/github/workspace/src</text>
<text text-anchor="middle" x="814" y="-208.5" font-family="Helvetica,sans-Serif" font-size="10.00">/renderer/mastermaterial.h</text>
</a>
</g>
</g>
<!-- Node9&#45;&gt;Node10 -->
<g id="edge9" class="edge">
<title>Node9&#45;&gt;Node10</title>
<path fill="none" stroke="midnightblue" d="M814,-258.11C814,-249.15 814,-239.32 814,-231.58"/>
<polygon fill="midnightblue" stroke="midnightblue" points="810.5,-258.4 814,-268.4 817.5,-258.4 810.5,-258.4"/>
</g>
<!-- Node12 -->
<g id="node12" class="node">
<title>Node12</title>
<g id="a_node12"><a xlink:href="material_8cpp.html" target="_top" xlink:title=" ">
<polygon fill="none" stroke="black" points="897.5,-201.5 897.5,-231.5 1010.5,-231.5 1010.5,-201.5 897.5,-201.5"/>
<text text-anchor="start" x="905.5" y="-219.5" font-family="Helvetica,sans-Serif" font-size="10.00">/github/workspace/src</text>
<text text-anchor="middle" x="954" y="-208.5" font-family="Helvetica,sans-Serif" font-size="10.00">/renderer/material.cpp</text>
</a>
</g>
</g>
<!-- Node9&#45;&gt;Node12 -->
<g id="edge12" class="edge">
<title>Node9&#45;&gt;Node12</title>
<path fill="none" stroke="midnightblue" d="M853.57,-264.13C875.81,-253.8 903.15,-241.11 923.68,-231.58"/>
<polygon fill="midnightblue" stroke="midnightblue" points="851.97,-261.01 844.38,-268.4 854.92,-267.36 851.97,-261.01"/>
</g>
<!-- Node13 -->
<g id="node13" class="node">
<title>Node13</title>
<g id="a_node13"><a xlink:href="mesh_8h.html" target="_top" xlink:title=" ">
<polygon fill="none" stroke="black" points="579.5,-201.5 579.5,-231.5 692.5,-231.5 692.5,-201.5 579.5,-201.5"/>
<text text-anchor="start" x="587.5" y="-219.5" font-family="Helvetica,sans-Serif" font-size="10.00">/github/workspace/src</text>
<text text-anchor="middle" x="636" y="-208.5" font-family="Helvetica,sans-Serif" font-size="10.00">/renderer/mesh.h</text>
</a>
</g>
</g>
<!-- Node9&#45;&gt;Node13 -->
<g id="edge14" class="edge">
<title>Node9&#45;&gt;Node13</title>
<path fill="none" stroke="midnightblue" d="M765.95,-264.96C737.28,-254.48 701.36,-241.37 674.55,-231.58"/>
<polygon fill="midnightblue" stroke="midnightblue" points="764.78,-268.25 775.38,-268.4 767.18,-261.68 764.78,-268.25"/>
</g>
<!-- Node10&#45;&gt;Node8 -->
<g id="edge11" class="edge">
<title>Node10&#45;&gt;Node8</title>
<path fill="none" stroke="midnightblue" d="M841.17,-237.99C853.14,-247.09 867.34,-258 880,-268 897.1,-281.51 900.42,-286.12 918,-299 935.67,-311.95 956.48,-325.5 972.01,-335.3"/>
<polygon fill="midnightblue" stroke="midnightblue" points="842.98,-234.97 832.9,-231.71 838.75,-240.54 842.98,-234.97"/>
</g>
<!-- Node11 -->
<g id="node11" class="node">
<title>Node11</title>
<g id="a_node11"><a xlink:href="mastermaterial_8cpp.html" target="_top" xlink:title=" ">
<polygon fill="none" stroke="black" points="819,-134.5 819,-164.5 959,-164.5 959,-134.5 819,-134.5"/>
<text text-anchor="start" x="827" y="-152.5" font-family="Helvetica,sans-Serif" font-size="10.00">/github/workspace/src</text>
<text text-anchor="middle" x="889" y="-141.5" font-family="Helvetica,sans-Serif" font-size="10.00">/renderer/mastermaterial.cpp</text>
</a>
</g>
</g>
<!-- Node10&#45;&gt;Node11 -->
<g id="edge10" class="edge">
<title>Node10&#45;&gt;Node11</title>
<path fill="none" stroke="midnightblue" d="M838.12,-194.6C849.44,-184.78 862.64,-173.34 872.76,-164.58"/>
<polygon fill="midnightblue" stroke="midnightblue" points="835.54,-192.2 830.27,-201.4 840.12,-197.49 835.54,-192.2"/>
</g>
<!-- Node14 -->
<g id="node14" class="node">
<title>Node14</title>
<g id="a_node14"><a xlink:href="mesh_8cpp.html" target="_top" xlink:title=" ">
<polygon fill="none" stroke="black" points="541.5,-134.5 541.5,-164.5 654.5,-164.5 654.5,-134.5 541.5,-134.5"/>
<text text-anchor="start" x="549.5" y="-152.5" font-family="Helvetica,sans-Serif" font-size="10.00">/github/workspace/src</text>
<text text-anchor="middle" x="598" y="-141.5" font-family="Helvetica,sans-Serif" font-size="10.00">/renderer/mesh.cpp</text>
</a>
</g>
</g>
<!-- Node13&#45;&gt;Node14 -->
<g id="edge15" class="edge">
<title>Node13&#45;&gt;Node14</title>
<path fill="none" stroke="midnightblue" d="M622.6,-192.58C617.14,-183.24 611.01,-172.75 606.23,-164.58"/>
<polygon fill="midnightblue" stroke="midnightblue" points="619.69,-194.53 627.75,-201.4 625.73,-191 619.69,-194.53"/>
</g>
<!-- Node15 -->
<g id="node15" class="node">
<title>Node15</title>
<g id="a_node15"><a xlink:href="modelloader_8h.html" target="_top" xlink:title=" ">
<polygon fill="none" stroke="black" points="405,-134.5 405,-164.5 523,-164.5 523,-134.5 405,-134.5"/>
<text text-anchor="start" x="413" y="-152.5" font-family="Helvetica,sans-Serif" font-size="10.00">/github/workspace/src</text>
<text text-anchor="middle" x="464" y="-141.5" font-family="Helvetica,sans-Serif" font-size="10.00">/renderer/modelloader.h</text>
</a>
</g>
</g>
<!-- Node13&#45;&gt;Node15 -->
<g id="edge16" class="edge">
<title>Node13&#45;&gt;Node15</title>
<path fill="none" stroke="midnightblue" d="M589.21,-197.82C561.57,-187.37 527.04,-174.32 501.25,-164.58"/>
<polygon fill="midnightblue" stroke="midnightblue" points="588.09,-201.13 598.68,-201.4 590.56,-194.59 588.09,-201.13"/>
</g>
<!-- Node18 -->
<g id="node18" class="node">
<title>Node18</title>
<g id="a_node18"><a xlink:href="objectinstance_8h.html" target="_top" xlink:title=" ">
<polygon fill="none" stroke="black" points="673,-134.5 673,-164.5 801,-164.5 801,-134.5 673,-134.5"/>
<text text-anchor="start" x="681" y="-152.5" font-family="Helvetica,sans-Serif" font-size="10.00">/github/workspace/src</text>
<text text-anchor="middle" x="737" y="-141.5" font-family="Helvetica,sans-Serif" font-size="10.00">/renderer/objectinstance.h</text>
</a>
</g>
</g>
<!-- Node13&#45;&gt;Node18 -->
<g id="edge19" class="edge">
<title>Node13&#45;&gt;Node18</title>
<path fill="none" stroke="midnightblue" d="M666.71,-195.73C682.34,-185.68 700.97,-173.68 715.13,-164.58"/>
<polygon fill="midnightblue" stroke="midnightblue" points="664.43,-193.04 657.92,-201.4 668.22,-198.93 664.43,-193.04"/>
</g>
<!-- Node16 -->
<g id="node16" class="node">
<title>Node16</title>
<g id="a_node16"><a xlink:href="modelloader_8cpp.html" target="_top" xlink:title=" ">
<polygon fill="none" stroke="black" points="430,-67.5 430,-97.5 558,-97.5 558,-67.5 430,-67.5"/>
<text text-anchor="start" x="438" y="-85.5" font-family="Helvetica,sans-Serif" font-size="10.00">/github/workspace/src</text>
<text text-anchor="middle" x="494" y="-74.5" font-family="Helvetica,sans-Serif" font-size="10.00">/renderer/modelloader.cpp</text>
</a>
</g>
</g>
<!-- Node15&#45;&gt;Node16 -->
<g id="edge17" class="edge">
<title>Node15&#45;&gt;Node16</title>
<path fill="none" stroke="midnightblue" d="M474.72,-125.28C478.99,-116.02 483.77,-105.66 487.5,-97.58"/>
<polygon fill="midnightblue" stroke="midnightblue" points="471.52,-123.85 470.51,-134.4 477.88,-126.78 471.52,-123.85"/>
</g>
<!-- Node17 -->
<g id="node17" class="node">
<title>Node17</title>
<g id="a_node17"><a xlink:href="vulkan__voxel__rasterizer__2_8cpp.html" target="_top" xlink:title=" ">
<polygon fill="none" stroke="black" points="315,-0.5 315,-30.5 489,-30.5 489,-0.5 315,-0.5"/>
<text text-anchor="start" x="323" y="-18.5" font-family="Helvetica,sans-Serif" font-size="10.00">/github/workspace/src</text>
<text text-anchor="middle" x="402" y="-7.5" font-family="Helvetica,sans-Serif" font-size="10.00">/tests/vulkan_voxel_rasterizer_2.cpp</text>
</a>
</g>
</g>
<!-- Node15&#45;&gt;Node17 -->
<g id="edge18" class="edge">
<title>Node15&#45;&gt;Node17</title>
<path fill="none" stroke="midnightblue" d="M441.68,-126.93C434.12,-118.54 426.27,-108.44 421,-98 409.94,-76.08 405.2,-47.58 403.26,-30.74"/>
<polygon fill="midnightblue" stroke="midnightblue" points="439.33,-129.55 448.75,-134.41 444.42,-124.74 439.33,-129.55"/>
</g>
<!-- Node19 -->
<g id="node19" class="node">
<title>Node19</title>
<g id="a_node19"><a xlink:href="objectinstance_8cpp.html" target="_top" xlink:title=" ">
<polygon fill="none" stroke="black" points="636.5,-67.5 636.5,-97.5 775.5,-97.5 775.5,-67.5 636.5,-67.5"/>
<text text-anchor="start" x="644.5" y="-85.5" font-family="Helvetica,sans-Serif" font-size="10.00">/github/workspace/src</text>
<text text-anchor="middle" x="706" y="-74.5" font-family="Helvetica,sans-Serif" font-size="10.00">/renderer/objectinstance.cpp</text>
</a>
</g>
</g>
<!-- Node18&#45;&gt;Node19 -->
<g id="edge20" class="edge">
<title>Node18&#45;&gt;Node19</title>
<path fill="none" stroke="midnightblue" d="M725.93,-125.28C721.51,-116.02 716.57,-105.66 712.71,-97.58"/>
<polygon fill="midnightblue" stroke="midnightblue" points="722.81,-126.88 730.27,-134.4 729.13,-123.86 722.81,-126.88"/>
</g>
<!-- Node20 -->
<g id="node20" class="node">
<title>Node20</title>
<g id="a_node20"><a xlink:href="scene_8h.html" target="_top" xlink:title=" ">
<polygon fill="none" stroke="black" points="793.5,-67.5 793.5,-97.5 906.5,-97.5 906.5,-67.5 793.5,-67.5"/>
<text text-anchor="start" x="801.5" y="-85.5" font-family="Helvetica,sans-Serif" font-size="10.00">/github/workspace/src</text>
<text text-anchor="middle" x="850" y="-74.5" font-family="Helvetica,sans-Serif" font-size="10.00">/renderer/scene.h</text>
</a>
</g>
</g>
<!-- Node18&#45;&gt;Node20 -->
<g id="edge21" class="edge">
<title>Node18&#45;&gt;Node20</title>
<path fill="none" stroke="midnightblue" d="M770.39,-129.3C788.07,-119.12 809.4,-106.85 825.53,-97.58"/>
<polygon fill="midnightblue" stroke="midnightblue" points="768.44,-126.38 761.52,-134.4 771.93,-132.44 768.44,-126.38"/>
</g>
<!-- Node20&#45;&gt;Node17 -->
<g id="edge23" class="edge">
<title>Node20&#45;&gt;Node17</title>
<path fill="none" stroke="midnightblue" d="M783.39,-66.8C676.91,-48.23 564.53,-34.29 489.04,-25.76"/>
<polygon fill="midnightblue" stroke="midnightblue" points="782.88,-70.26 793.34,-68.55 784.1,-63.37 782.88,-70.26"/>
</g>
<!-- Node21 -->
<g id="node21" class="node">
<title>Node21</title>
<g id="a_node21"><a xlink:href="scene_8cpp.html" target="_top" xlink:title=" ">
<polygon fill="none" stroke="black" points="793.5,-0.5 793.5,-30.5 906.5,-30.5 906.5,-0.5 793.5,-0.5"/>
<text text-anchor="start" x="801.5" y="-18.5" font-family="Helvetica,sans-Serif" font-size="10.00">/github/workspace/src</text>
<text text-anchor="middle" x="850" y="-7.5" font-family="Helvetica,sans-Serif" font-size="10.00">/renderer/scene.cpp</text>
</a>
</g>
</g>
<!-- Node20&#45;&gt;Node21 -->
<g id="edge22" class="edge">
<title>Node20&#45;&gt;Node21</title>
<path fill="none" stroke="midnightblue" d="M850,-57.11C850,-48.15 850,-38.32 850,-30.58"/>
<polygon fill="midnightblue" stroke="midnightblue" points="846.5,-57.4 850,-67.4 853.5,-57.4 846.5,-57.4"/>
</g>
<!-- Node23&#45;&gt;Node2 -->
<g id="edge29" class="edge">
<title>Node23&#45;&gt;Node2</title>
<path fill="none" stroke="midnightblue" d="M1301.93,-372.43C1282.12,-390.96 1250.83,-417.42 1219,-433 1001.91,-539.28 924.17,-501.03 685,-536 681.8,-536.47 678.54,-536.95 675.24,-537.44"/>
<polygon fill="midnightblue" stroke="midnightblue" points="1304.36,-374.95 1309.18,-365.51 1299.53,-369.88 1304.36,-374.95"/>
</g>
<!-- Node24 -->
<g id="node24" class="node">
<title>Node24</title>
<g id="a_node24"><a xlink:href="descriptorpoolmanager_8h.html" target="_top" xlink:title=" ">
<polygon fill="none" stroke="black" points="1263,-268.5 1263,-298.5 1427,-298.5 1427,-268.5 1263,-268.5"/>
<text text-anchor="start" x="1271" y="-286.5" font-family="Helvetica,sans-Serif" font-size="10.00">/github/workspace/src</text>
<text text-anchor="middle" x="1345" y="-275.5" font-family="Helvetica,sans-Serif" font-size="10.00">/renderer/descriptorpoolmanager.h</text>
</a>
</g>
</g>
<!-- Node23&#45;&gt;Node24 -->
<g id="edge26" class="edge">
<title>Node23&#45;&gt;Node24</title>
<path fill="none" stroke="midnightblue" d="M1331.06,-325.7C1334.14,-316.59 1337.56,-306.49 1340.24,-298.58"/>
<polygon fill="midnightblue" stroke="midnightblue" points="1327.66,-324.8 1327.77,-335.4 1334.29,-327.05 1327.66,-324.8"/>
</g>
<!-- Node26 -->
<g id="node26" class="node">
<title>Node26</title>
<g id="a_node26"><a xlink:href="descriptorset_8cpp.html" target="_top" xlink:title=" ">
<polygon fill="none" stroke="black" points="1081,-268.5 1081,-298.5 1245,-298.5 1245,-268.5 1081,-268.5"/>
<text text-anchor="start" x="1089" y="-286.5" font-family="Helvetica,sans-Serif" font-size="10.00">/github/workspace/src</text>
<text text-anchor="middle" x="1163" y="-275.5" font-family="Helvetica,sans-Serif" font-size="10.00">/renderer/vulkan/descriptorset.cpp</text>
</a>
</g>
</g>
<!-- Node23&#45;&gt;Node26 -->
<g id="edge30" class="edge">
<title>Node23&#45;&gt;Node26</title>
<path fill="none" stroke="midnightblue" d="M1278.8,-331.54C1253.2,-321.14 1221.43,-308.24 1197.65,-298.58"/>
<polygon fill="midnightblue" stroke="midnightblue" points="1277.7,-334.87 1288.28,-335.4 1280.34,-328.39 1277.7,-334.87"/>
</g>
<!-- Node24&#45;&gt;Node20 -->
<g id="edge28" class="edge">
<title>Node24&#45;&gt;Node20</title>
<path fill="none" stroke="midnightblue" d="M1345.72,-258.19C1344.92,-240.07 1340.78,-215.97 1326,-201 1267.4,-141.63 1019.51,-104.3 906.53,-90.05"/>
<polygon fill="midnightblue" stroke="midnightblue" points="1342.23,-258.36 1345.87,-268.31 1349.23,-258.26 1342.23,-258.36"/>
</g>
<!-- Node25 -->
<g id="node25" class="node">
<title>Node25</title>
<g id="a_node25"><a xlink:href="descriptorpoolmanager_8cpp.html" target="_top" xlink:title=" ">
<polygon fill="none" stroke="black" points="1143,-201.5 1143,-231.5 1317,-231.5 1317,-201.5 1143,-201.5"/>
<text text-anchor="start" x="1151" y="-219.5" font-family="Helvetica,sans-Serif" font-size="10.00">/github/workspace/src</text>
<text text-anchor="middle" x="1230" y="-208.5" font-family="Helvetica,sans-Serif" font-size="10.00">/renderer/descriptorpoolmanager.cpp</text>
</a>
</g>
</g>
<!-- Node24&#45;&gt;Node25 -->
<g id="edge27" class="edge">
<title>Node24&#45;&gt;Node25</title>
<path fill="none" stroke="midnightblue" d="M1311.02,-263.3C1293.03,-253.12 1271.32,-240.85 1254.9,-231.58"/>
<polygon fill="midnightblue" stroke="midnightblue" points="1309.62,-266.52 1320.05,-268.4 1313.06,-260.43 1309.62,-266.52"/>
</g>
<!-- Node30&#45;&gt;Node17 -->
<g id="edge54" class="edge">
<title>Node30&#45;&gt;Node17</title>
<path fill="none" stroke="midnightblue" d="M219.17,-481.45C130.04,-474.34 0,-447.51 0,-351.5 0,-351.5 0,-351.5 0,-148.5 0,-82.76 196.54,-44.41 314.77,-27.3"/>
<polygon fill="midnightblue" stroke="midnightblue" points="219.06,-484.95 229.29,-482.18 219.57,-477.97 219.06,-484.95"/>
</g>
<!-- Node30&#45;&gt;Node28 -->
<g id="edge53" class="edge">
<title>Node30&#45;&gt;Node28</title>
<path fill="none" stroke="midnightblue" d="M298.16,-459.33C293.48,-418.46 285.04,-339.66 289,-335 296.44,-326.25 428.05,-307.24 517.66,-295.2"/>
<polygon fill="midnightblue" stroke="midnightblue" points="294.69,-459.77 299.31,-469.3 301.64,-458.96 294.69,-459.77"/>
</g>
<!-- Node31 -->
<g id="node31" class="node">
<title>Node31</title>
<g id="a_node31"><a xlink:href="framebuffer_8h.html" target="_top" xlink:title=" ">
<polygon fill="none" stroke="black" points="298,-335.5 298,-365.5 444,-365.5 444,-335.5 298,-335.5"/>
<text text-anchor="start" x="306" y="-353.5" font-family="Helvetica,sans-Serif" font-size="10.00">/github/workspace/src</text>
<text text-anchor="middle" x="371" y="-342.5" font-family="Helvetica,sans-Serif" font-size="10.00">/renderer/vulkan/framebuffer.h</text>
</a>
</g>
</g>
<!-- Node30&#45;&gt;Node31 -->
<g id="edge35" class="edge">
<title>Node30&#45;&gt;Node31</title>
<path fill="none" stroke="midnightblue" d="M311.14,-460.64C316.92,-452.25 323.71,-442.48 329,-433 341.56,-410.47 351.92,-382.17 360.1,-365.53"/>
<polygon fill="midnightblue" stroke="midnightblue" points="308.1,-458.89 305.37,-469.12 313.89,-462.82 308.1,-458.89"/>
</g>
<!-- Node30&#45;&gt;Node33 -->
<g id="edge40" class="edge">
<title>Node30&#45;&gt;Node33</title>
<path fill="none" stroke="midnightblue" d="M295.94,-459.48C291.12,-441.71 282.27,-417.93 267,-402 250.96,-385.27 228.28,-373.51 207.84,-365.58"/>
<polygon fill="midnightblue" stroke="midnightblue" points="292.59,-460.52 298.38,-469.39 299.39,-458.84 292.59,-460.52"/>
</g>
<!-- Node35 -->
<g id="node35" class="node">
<title>Node35</title>
<g id="a_node35"><a xlink:href="renderpass_8h.html" target="_top" xlink:title=" ">
<polygon fill="none" stroke="black" points="440.5,-402.5 440.5,-432.5 585.5,-432.5 585.5,-402.5 440.5,-402.5"/>
<text text-anchor="start" x="448.5" y="-420.5" font-family="Helvetica,sans-Serif" font-size="10.00">/github/workspace/src</text>
<text text-anchor="middle" x="513" y="-409.5" font-family="Helvetica,sans-Serif" font-size="10.00">/renderer/vulkan/renderpass.h</text>
</a>
</g>
</g>
<!-- Node30&#45;&gt;Node35 -->
<g id="edge46" class="edge">
<title>Node30&#45;&gt;Node35</title>
<path fill="none" stroke="midnightblue" d="M356.63,-466.44C390.99,-455.91 434.56,-442.55 466.98,-432.61"/>
<polygon fill="midnightblue" stroke="midnightblue" points="355.27,-463.2 346.74,-469.48 357.33,-469.89 355.27,-463.2"/>
</g>
<!-- Node37 -->
<g id="node37" class="node">
<title>Node37</title>
<g id="a_node37"><a xlink:href="swapchain_8cpp.html" target="_top" xlink:title=" ">
<polygon fill="none" stroke="black" points="104,-402.5 104,-432.5 258,-432.5 258,-402.5 104,-402.5"/>
<text text-anchor="start" x="112" y="-420.5" font-family="Helvetica,sans-Serif" font-size="10.00">/github/workspace/src</text>
<text text-anchor="middle" x="181" y="-409.5" font-family="Helvetica,sans-Serif" font-size="10.00">/renderer/vulkan/swapchain.cpp</text>
</a>
</g>
</g>
<!-- Node30&#45;&gt;Node37 -->
<g id="edge52" class="edge">
<title>Node30&#45;&gt;Node37</title>
<path fill="none" stroke="midnightblue" d="M266.06,-464.57C247.18,-454.35 224.27,-441.94 206.99,-432.58"/>
<polygon fill="midnightblue" stroke="midnightblue" points="264.5,-467.71 274.96,-469.4 267.84,-461.56 264.5,-467.71"/>
</g>
<!-- Node31&#45;&gt;Node2 -->
<g id="edge36" class="edge">
<title>Node31&#45;&gt;Node2</title>
<path fill="none" stroke="midnightblue" d="M452.92,-367.49C514.97,-379.99 590.35,-396.19 595,-402 626.56,-441.47 608.62,-507.55 598.48,-536.36"/>
<polygon fill="midnightblue" stroke="midnightblue" points="453.59,-364.05 443.09,-365.51 452.21,-370.91 453.59,-364.05"/>
</g>
<!-- Node31&#45;&gt;Node28 -->
<g id="edge39" class="edge">
<title>Node31&#45;&gt;Node28</title>
<path fill="none" stroke="midnightblue" d="M430.14,-332.71C467.4,-322.14 514.97,-308.63 550.29,-298.61"/>
<polygon fill="midnightblue" stroke="midnightblue" points="429.07,-329.38 420.41,-335.48 430.98,-336.11 429.07,-329.38"/>
</g>
<!-- Node31&#45;&gt;Node30 -->
<g id="edge38" class="edge">
<title>Node31&#45;&gt;Node30</title>
<path fill="none" stroke="midnightblue" d="M370.62,-375.53C366.13,-392.15 357.3,-414.52 347,-433 339.8,-445.91 329.81,-459.36 320.67,-469.12"/>
<polygon fill="midnightblue" stroke="midnightblue" points="374.09,-376.06 372.92,-365.53 367.27,-374.49 374.09,-376.06"/>
</g>
<!-- Node32 -->
<g id="node32" class="node">
<title>Node32</title>
<g id="a_node32"><a xlink:href="framebuffer_8cpp.html" target="_top" xlink:title=" ">
<polygon fill="none" stroke="black" points="298,-268.5 298,-298.5 454,-298.5 454,-268.5 298,-268.5"/>
<text text-anchor="start" x="306" y="-286.5" font-family="Helvetica,sans-Serif" font-size="10.00">/github/workspace/src</text>
<text text-anchor="middle" x="376" y="-275.5" font-family="Helvetica,sans-Serif" font-size="10.00">/renderer/vulkan/framebuffer.cpp</text>
</a>
</g>
</g>
<!-- Node31&#45;&gt;Node32 -->
<g id="edge37" class="edge">
<title>Node31&#45;&gt;Node32</title>
<path fill="none" stroke="midnightblue" d="M372.85,-325.4C373.55,-316.37 374.31,-306.41 374.92,-298.58"/>
<polygon fill="midnightblue" stroke="midnightblue" points="369.36,-325.16 372.08,-335.4 376.34,-325.69 369.36,-325.16"/>
</g>
<!-- Node33&#45;&gt;Node2 -->
<g id="edge43" class="edge">
<title>Node33&#45;&gt;Node2</title>
<path fill="none" stroke="midnightblue" d="M122.88,-371.2C111.85,-379.19 101.05,-389.52 95,-402 88.99,-414.4 87.9,-421.19 95,-433 127.67,-487.37 160.63,-480.54 221,-500 317.62,-531.14 434.37,-543.08 510.99,-547.66"/>
<polygon fill="midnightblue" stroke="midnightblue" points="124.93,-374.03 131.28,-365.54 121.02,-368.22 124.93,-374.03"/>
</g>
<!-- Node33&#45;&gt;Node9 -->
<g id="edge42" class="edge">
<title>Node33&#45;&gt;Node9</title>
<path fill="none" stroke="midnightblue" d="M252.74,-338.8C264.93,-337.48 277.26,-336.18 289,-335 467.48,-317.06 512.58,-317.5 691,-299 712.71,-296.75 736.54,-294 757.39,-291.51"/>
<polygon fill="midnightblue" stroke="midnightblue" points="252.1,-335.35 242.54,-339.91 252.86,-342.31 252.1,-335.35"/>
</g>
<!-- Node33&#45;&gt;Node10 -->
<g id="edge41" class="edge">
<title>Node33&#45;&gt;Node10</title>
<path fill="none" stroke="midnightblue" d="M197.54,-330.78C214.68,-321.9 234.83,-310.68 252,-299 269.74,-286.93 269.18,-276.2 289,-268 374.13,-232.79 610.41,-241.92 702,-232 717.2,-230.35 733.54,-228.36 748.91,-226.39"/>
<polygon fill="midnightblue" stroke="midnightblue" points="195.68,-327.8 188.36,-335.46 198.86,-334.03 195.68,-327.8"/>
</g>
<!-- Node33&#45;&gt;Node28 -->
<g id="edge45" class="edge">
<title>Node33&#45;&gt;Node28</title>
<path fill="none" stroke="midnightblue" d="M252.7,-335.49C253.8,-335.33 254.91,-335.16 256,-335 345.57,-321.73 448.27,-306.67 517.97,-296.48"/>
<polygon fill="midnightblue" stroke="midnightblue" points="251.97,-332.06 242.6,-336.99 253,-338.98 251.97,-332.06"/>
</g>
<!-- Node34 -->
<g id="node34" class="node">
<title>Node34</title>
<g id="a_node34"><a xlink:href="graphicspipeline_8cpp.html" target="_top" xlink:title=" ">
<polygon fill="none" stroke="black" points="65.5,-268.5 65.5,-298.5 242.5,-298.5 242.5,-268.5 65.5,-268.5"/>
<text text-anchor="start" x="73.5" y="-286.5" font-family="Helvetica,sans-Serif" font-size="10.00">/github/workspace/src</text>
<text text-anchor="middle" x="154" y="-275.5" font-family="Helvetica,sans-Serif" font-size="10.00">/renderer/vulkan/graphicspipeline.cpp</text>
</a>
</g>
</g>
<!-- Node33&#45;&gt;Node34 -->
<g id="edge44" class="edge">
<title>Node33&#45;&gt;Node34</title>
<path fill="none" stroke="midnightblue" d="M157.15,-325.4C156.45,-316.37 155.69,-306.41 155.08,-298.58"/>
<polygon fill="midnightblue" stroke="midnightblue" points="153.66,-325.69 157.92,-335.4 160.64,-325.16 153.66,-325.69"/>
</g>
<!-- Node35&#45;&gt;Node2 -->
<g id="edge47" class="edge">
<title>Node35&#45;&gt;Node2</title>
<path fill="none" stroke="midnightblue" d="M544.97,-438.63C555.66,-446.84 566.69,-457.19 574,-469 587.07,-490.13 591.16,-519.39 592.43,-536.5"/>
<polygon fill="midnightblue" stroke="midnightblue" points="546.7,-435.57 536.55,-432.53 542.59,-441.23 546.7,-435.57"/>
</g>
<!-- Node35&#45;&gt;Node28 -->
<g id="edge51" class="edge">
<title>Node35&#45;&gt;Node28</title>
<path fill="none" stroke="midnightblue" d="M587.02,-398.36C602.79,-390.95 617.53,-380.56 627,-366 640.82,-344.76 624.38,-315.79 611.77,-298.72"/>
<polygon fill="midnightblue" stroke="midnightblue" points="585.45,-395.23 577.65,-402.39 588.22,-401.66 585.45,-395.23"/>
</g>
<!-- Node35&#45;&gt;Node31 -->
<g id="edge48" class="edge">
<title>Node35&#45;&gt;Node31</title>
<path fill="none" stroke="midnightblue" d="M472.87,-398.13C450.31,-387.8 422.58,-375.11 401.75,-365.58"/>
<polygon fill="midnightblue" stroke="midnightblue" points="471.64,-401.42 482.19,-402.4 474.55,-395.05 471.64,-401.42"/>
</g>
<!-- Node35&#45;&gt;Node33 -->
<g id="edge49" class="edge">
<title>Node35&#45;&gt;Node33</title>
<path fill="none" stroke="midnightblue" d="M430.07,-401.27C371.23,-390.47 292.84,-376.08 235.5,-365.55"/>
<polygon fill="midnightblue" stroke="midnightblue" points="429.61,-404.75 440.08,-403.11 430.88,-397.86 429.61,-404.75"/>
</g>
<!-- Node36 -->
<g id="node36" class="node">
<title>Node36</title>
<g id="a_node36"><a xlink:href="renderpass_8cpp.html" target="_top" xlink:title=" ">
<polygon fill="none" stroke="black" points="462.5,-335.5 462.5,-365.5 617.5,-365.5 617.5,-335.5 462.5,-335.5"/>
<text text-anchor="start" x="470.5" y="-353.5" font-family="Helvetica,sans-Serif" font-size="10.00">/github/workspace/src</text>
<text text-anchor="middle" x="540" y="-342.5" font-family="Helvetica,sans-Serif" font-size="10.00">/renderer/vulkan/renderpass.cpp</text>
</a>
</g>
</g>
<!-- Node35&#45;&gt;Node36 -->
<g id="edge50" class="edge">
<title>Node35&#45;&gt;Node36</title>
<path fill="none" stroke="midnightblue" d="M522.77,-392.99C526.58,-383.8 530.83,-373.58 534.15,-365.58"/>
<polygon fill="midnightblue" stroke="midnightblue" points="519.46,-391.82 518.86,-402.4 525.93,-394.5 519.46,-391.82"/>
</g>
</g>
</svg>
