<?xml version="1.0" encoding="UTF-8" standalone="no"?>
<!DOCTYPE svg PUBLIC "-//W3C//DTD SVG 1.1//EN"
 "http://www.w3.org/Graphics/SVG/1.1/DTD/svg11.dtd">
<!-- Generated by graphviz version 2.49.3 (20211215.1918)
 -->
<!-- Title: /github/workspace/src/renderer/vulkan/pushconstant.h Pages: 1 -->
<!--zoomable 776 -->
<svg id="main" version="1.1" xmlns="http://www.w3.org/2000/svg" xmlns:xlink="http://www.w3.org/1999/xlink" xml:space="preserve" onload="init(evt)">
<style type="text/css"><![CDATA[
.edge:hover path { stroke: red; }
.edge:hover polygon { stroke: red; fill: red; }
]]></style>
<script type="text/javascript"><![CDATA[
var edges = document.getElementsByTagName('g');
if (edges && edges.length) {
  for (var i=0;i<edges.length;i++) {
    if (edges[i].id.substr(0,4)=='edge') {
      edges[i].setAttribute('class','edge');
    }
  }
}
]]></script>
        <defs>
                <circle id="rim" cx="0" cy="0" r="7"/>
                <circle id="rim2" cx="0" cy="0" r="3.5"/>
                <g id="zoomPlus">
                        <use xlink:href="#rim" fill="#404040">
                                <set attributeName="fill" to="#808080" begin="zoomplus.mouseover" end="zoomplus.mouseout"/>
                        </use>
                        <path d="M-4,0h8M0,-4v8" fill="none" stroke="white" stroke-width="1.5" pointer-events="none"/>
                </g>
                <g id="zoomMin">
                        <use xlink:href="#rim" fill="#404040">
                                <set attributeName="fill" to="#808080" begin="zoomminus.mouseover" end="zoomminus.mouseout"/>
                        </use>
                        <path d="M-4,0h8" fill="none" stroke="white" stroke-width="1.5" pointer-events="none"/>
                </g>
                <g id="dirArrow">
                        <path fill="none" stroke="white" stroke-width="1.5" d="M0,-3.0v7 M-2.5,-0.5L0,-3.0L2.5,-0.5"/>
                </g>
               <g id="resetDef">
                       <use xlink:href="#rim2" fill="#404040">
                               <set attributeName="fill" to="#808080" begin="reset.mouseover" end="reset.mouseout"/>
                       </use>
               </g>
        </defs>

<script type="text/javascript">
var viewWidth = 1416;
var viewHeight = 776;
var sectionId = 'dynsection-1';
</script>
<script xlink:href="svgpan.js"/>
<svg id="graph" class="graph">
<g id="viewport">
<title>/github/workspace/src/renderer/vulkan/pushconstant.h</title>
<!-- Node1 -->
<g id="node1" class="node">
<title>Node1</title>
<g id="a_node1"><a xlink:title=" ">
<polygon fill="#bfbfbf" stroke="black" points="961.5,-737.5 961.5,-767.5 1116.5,-767.5 1116.5,-737.5 961.5,-737.5"/>
<text text-anchor="start" x="969.5" y="-755.5" font-family="Helvetica,sans-Serif" font-size="10.00">/github/workspace/src</text>
<text text-anchor="middle" x="1039" y="-744.5" font-family="Helvetica,sans-Serif" font-size="10.00">/renderer/vulkan/pushconstant.h</text>
</a>
</g>
</g>
<!-- Node2 -->
<g id="node2" class="node">
<title>Node2</title>
<g id="a_node2"><a xlink:href="pipelinelayout_8h.html" target="_top" xlink:title=" ">
<polygon fill="none" stroke="black" points="872.5,-670.5 872.5,-700.5 1027.5,-700.5 1027.5,-670.5 872.5,-670.5"/>
<text text-anchor="start" x="880.5" y="-688.5" font-family="Helvetica,sans-Serif" font-size="10.00">/github/workspace/src</text>
<text text-anchor="middle" x="950" y="-677.5" font-family="Helvetica,sans-Serif" font-size="10.00">/renderer/vulkan/pipelinelayout.h</text>
</a>
</g>
</g>
<!-- Node1&#45;&gt;Node2 -->
<g id="edge1" class="edge">
<title>Node1&#45;&gt;Node2</title>
<path fill="none" stroke="midnightblue" d="M1011.55,-731.45C997.86,-721.45 981.63,-709.6 969.27,-700.58"/>
<polygon fill="midnightblue" stroke="midnightblue" points="1009.55,-734.32 1019.69,-737.4 1013.68,-728.67 1009.55,-734.32"/>
</g>
<!-- Node42 -->
<g id="node42" class="node">
<title>Node42</title>
<g id="a_node42"><a xlink:href="pushconstant_8cpp.html" target="_top" xlink:title=" ">
<polygon fill="none" stroke="black" points="1046,-670.5 1046,-700.5 1212,-700.5 1212,-670.5 1046,-670.5"/>
<text text-anchor="start" x="1054" y="-688.5" font-family="Helvetica,sans-Serif" font-size="10.00">/github/workspace/src</text>
<text text-anchor="middle" x="1129" y="-677.5" font-family="Helvetica,sans-Serif" font-size="10.00">/renderer/vulkan/pushconstant.cpp</text>
</a>
</g>
</g>
<!-- Node1&#45;&gt;Node42 -->
<g id="edge63" class="edge">
<title>Node1&#45;&gt;Node42</title>
<path fill="none" stroke="midnightblue" d="M1066.76,-731.45C1080.61,-721.45 1097.02,-709.6 1109.51,-700.58"/>
<polygon fill="midnightblue" stroke="midnightblue" points="1064.59,-728.7 1058.53,-737.4 1068.68,-734.38 1064.59,-728.7"/>
</g>
<!-- Node3 -->
<g id="node3" class="node">
<title>Node3</title>
<g id="a_node3"><a xlink:href="commandbuffer_8h.html" target="_top" xlink:title=" ">
<polygon fill="none" stroke="black" points="888,-536.5 888,-566.5 1052,-566.5 1052,-536.5 888,-536.5"/>
<text text-anchor="start" x="896" y="-554.5" font-family="Helvetica,sans-Serif" font-size="10.00">/github/workspace/src</text>
<text text-anchor="middle" x="970" y="-543.5" font-family="Helvetica,sans-Serif" font-size="10.00">/renderer/vulkan/commandbuffer.h</text>
</a>
</g>
</g>
<!-- Node2&#45;&gt;Node3 -->
<g id="edge2" class="edge">
<title>Node2&#45;&gt;Node3</title>
<path fill="none" stroke="midnightblue" d="M953.65,-660.39C957.82,-632.9 964.49,-588.89 967.88,-566.52"/>
<polygon fill="midnightblue" stroke="midnightblue" points="950.18,-659.96 952.14,-670.37 957.1,-661.01 950.18,-659.96"/>
</g>
<!-- Node39 -->
<g id="node39" class="node">
<title>Node39</title>
<g id="a_node39"><a xlink:href="pipelinebase_8h.html" target="_top" xlink:title=" ">
<polygon fill="none" stroke="black" points="751.5,-603.5 751.5,-633.5 902.5,-633.5 902.5,-603.5 751.5,-603.5"/>
<text text-anchor="start" x="759.5" y="-621.5" font-family="Helvetica,sans-Serif" font-size="10.00">/github/workspace/src</text>
<text text-anchor="middle" x="827" y="-610.5" font-family="Helvetica,sans-Serif" font-size="10.00">/renderer/vulkan/pipelinebase.h</text>
</a>
</g>
</g>
<!-- Node2&#45;&gt;Node39 -->
<g id="edge58" class="edge">
<title>Node2&#45;&gt;Node39</title>
<path fill="none" stroke="midnightblue" d="M914.45,-665.71C895.05,-655.46 871.44,-642.98 853.64,-633.58"/>
<polygon fill="midnightblue" stroke="midnightblue" points="912.83,-668.82 923.31,-670.4 916.1,-662.63 912.83,-668.82"/>
</g>
<!-- Node41 -->
<g id="node41" class="node">
<title>Node41</title>
<g id="a_node41"><a xlink:href="pipelinelayout_8cpp.html" target="_top" xlink:title=" ">
<polygon fill="none" stroke="black" points="978,-603.5 978,-633.5 1144,-633.5 1144,-603.5 978,-603.5"/>
<text text-anchor="start" x="986" y="-621.5" font-family="Helvetica,sans-Serif" font-size="10.00">/github/workspace/src</text>
<text text-anchor="middle" x="1061" y="-610.5" font-family="Helvetica,sans-Serif" font-size="10.00">/renderer/vulkan/pipelinelayout.cpp</text>
</a>
</g>
</g>
<!-- Node2&#45;&gt;Node41 -->
<g id="edge62" class="edge">
<title>Node2&#45;&gt;Node41</title>
<path fill="none" stroke="midnightblue" d="M982.8,-665.3C1000.16,-655.12 1021.12,-642.85 1036.96,-633.58"/>
<polygon fill="midnightblue" stroke="midnightblue" points="980.95,-662.32 974.09,-670.4 984.48,-668.36 980.95,-662.32"/>
</g>
<!-- Node4 -->
<g id="node4" class="node">
<title>Node4</title>
<g id="a_node4"><a xlink:href="buffer_8h.html" target="_top" xlink:title=" ">
<polygon fill="none" stroke="black" points="285.5,-469.5 285.5,-499.5 406.5,-499.5 406.5,-469.5 285.5,-469.5"/>
<text text-anchor="start" x="293.5" y="-487.5" font-family="Helvetica,sans-Serif" font-size="10.00">/github/workspace/src</text>
<text text-anchor="middle" x="346" y="-476.5" font-family="Helvetica,sans-Serif" font-size="10.00">/renderer/vulkan/buffer.h</text>
</a>
</g>
</g>
<!-- Node3&#45;&gt;Node4 -->
<g id="edge3" class="edge">
<title>Node3&#45;&gt;Node4</title>
<path fill="none" stroke="midnightblue" d="M877.64,-535.9C675.39,-512.45 621.27,-526.42 423,-500 417.74,-499.3 412.3,-498.48 406.85,-497.58"/>
<polygon fill="midnightblue" stroke="midnightblue" points="877.36,-539.4 887.7,-537.09 878.18,-532.44 877.36,-539.4"/>
</g>
<!-- Node29 -->
<g id="node29" class="node">
<title>Node29</title>
<g id="a_node29"><a xlink:href="vulkan__voxel__rasterizer_8cpp.html" target="_top" xlink:title=" ">
<polygon fill="none" stroke="black" points="994,-268.5 994,-298.5 1158,-298.5 1158,-268.5 994,-268.5"/>
<text text-anchor="start" x="1002" y="-286.5" font-family="Helvetica,sans-Serif" font-size="10.00">/github/workspace/src</text>
<text text-anchor="middle" x="1076" y="-275.5" font-family="Helvetica,sans-Serif" font-size="10.00">/tests/vulkan_voxel_rasterizer.cpp</text>
</a>
</g>
</g>
<!-- Node3&#45;&gt;Node29 -->
<g id="edge57" class="edge">
<title>Node3&#45;&gt;Node29</title>
<path fill="none" stroke="midnightblue" d="M950.21,-528.27C927.41,-499.92 894.48,-448.95 906,-402 914.01,-369.37 915.82,-357.25 941,-335 960.5,-317.77 986.44,-306.2 1010.36,-298.54"/>
<polygon fill="midnightblue" stroke="midnightblue" points="947.81,-530.86 956.9,-536.31 953.19,-526.38 947.81,-530.86"/>
</g>
<!-- Node30 -->
<g id="node30" class="node">
<title>Node30</title>
<g id="a_node30"><a xlink:href="commandbuffer_8cpp.html" target="_top" xlink:title=" ">
<polygon fill="none" stroke="black" points="1160,-469.5 1160,-499.5 1334,-499.5 1334,-469.5 1160,-469.5"/>
<text text-anchor="start" x="1168" y="-487.5" font-family="Helvetica,sans-Serif" font-size="10.00">/github/workspace/src</text>
<text text-anchor="middle" x="1247" y="-476.5" font-family="Helvetica,sans-Serif" font-size="10.00">/renderer/vulkan/commandbuffer.cpp</text>
</a>
</g>
</g>
<!-- Node3&#45;&gt;Node30 -->
<g id="edge35" class="edge">
<title>Node3&#45;&gt;Node30</title>
<path fill="none" stroke="midnightblue" d="M1039.52,-534.19C1084.89,-523.54 1143.51,-509.78 1186.87,-499.61"/>
<polygon fill="midnightblue" stroke="midnightblue" points="1038.7,-530.78 1029.76,-536.48 1040.3,-537.6 1038.7,-530.78"/>
</g>
<!-- Node31 -->
<g id="node31" class="node">
<title>Node31</title>
<g id="a_node31"><a xlink:href="swapchain_8h.html" target="_top" xlink:title=" ">
<polygon fill="none" stroke="black" points="998.5,-469.5 998.5,-499.5 1141.5,-499.5 1141.5,-469.5 998.5,-469.5"/>
<text text-anchor="start" x="1006.5" y="-487.5" font-family="Helvetica,sans-Serif" font-size="10.00">/github/workspace/src</text>
<text text-anchor="middle" x="1070" y="-476.5" font-family="Helvetica,sans-Serif" font-size="10.00">/renderer/vulkan/swapchain.h</text>
</a>
</g>
</g>
<!-- Node3&#45;&gt;Node31 -->
<g id="edge36" class="edge">
<title>Node3&#45;&gt;Node31</title>
<path fill="none" stroke="midnightblue" d="M1000.41,-530.73C1015.88,-520.68 1034.33,-508.68 1048.34,-499.58"/>
<polygon fill="midnightblue" stroke="midnightblue" points="998.18,-528.01 991.7,-536.4 1001.99,-533.88 998.18,-528.01"/>
</g>
<!-- Node5 -->
<g id="node5" class="node">
<title>Node5</title>
<g id="a_node5"><a xlink:href="buffer_8cpp.html" target="_top" xlink:title=" ">
<polygon fill="none" stroke="black" points="277.5,-402.5 277.5,-432.5 408.5,-432.5 408.5,-402.5 277.5,-402.5"/>
<text text-anchor="start" x="285.5" y="-420.5" font-family="Helvetica,sans-Serif" font-size="10.00">/github/workspace/src</text>
<text text-anchor="middle" x="343" y="-409.5" font-family="Helvetica,sans-Serif" font-size="10.00">/renderer/vulkan/buffer.cpp</text>
</a>
</g>
</g>
<!-- Node4&#45;&gt;Node5 -->
<g id="edge4" class="edge">
<title>Node4&#45;&gt;Node5</title>
<path fill="none" stroke="midnightblue" d="M344.89,-459.4C344.47,-450.37 344.01,-440.41 343.65,-432.58"/>
<polygon fill="midnightblue" stroke="midnightblue" points="341.39,-459.57 345.35,-469.4 348.38,-459.25 341.39,-459.57"/>
</g>
<!-- Node6 -->
<g id="node6" class="node">
<title>Node6</title>
<g id="a_node6"><a xlink:href="bufferview_8h.html" target="_top" xlink:title=" ">
<polygon fill="none" stroke="black" points="93.5,-402.5 93.5,-432.5 234.5,-432.5 234.5,-402.5 93.5,-402.5"/>
<text text-anchor="start" x="101.5" y="-420.5" font-family="Helvetica,sans-Serif" font-size="10.00">/github/workspace/src</text>
<text text-anchor="middle" x="164" y="-409.5" font-family="Helvetica,sans-Serif" font-size="10.00">/renderer/vulkan/bufferview.h</text>
</a>
</g>
</g>
<!-- Node4&#45;&gt;Node6 -->
<g id="edge5" class="edge">
<title>Node4&#45;&gt;Node6</title>
<path fill="none" stroke="midnightblue" d="M296.87,-465.96C267.56,-455.48 230.82,-442.37 203.41,-432.58"/>
<polygon fill="midnightblue" stroke="midnightblue" points="295.91,-469.33 306.51,-469.4 298.27,-462.74 295.91,-469.33"/>
</g>
<!-- Node8 -->
<g id="node8" class="node">
<title>Node8</title>
<g id="a_node8"><a xlink:href="uniformbuffer_8h.html" target="_top" xlink:title=" ">
<polygon fill="none" stroke="black" points="465.5,-402.5 465.5,-432.5 618.5,-432.5 618.5,-402.5 465.5,-402.5"/>
<text text-anchor="start" x="473.5" y="-420.5" font-family="Helvetica,sans-Serif" font-size="10.00">/github/workspace/src</text>
<text text-anchor="middle" x="542" y="-409.5" font-family="Helvetica,sans-Serif" font-size="10.00">/renderer/vulkan/uniformbuffer.h</text>
</a>
</g>
</g>
<!-- Node4&#45;&gt;Node8 -->
<g id="edge7" class="edge">
<title>Node4&#45;&gt;Node8</title>
<path fill="none" stroke="midnightblue" d="M398.08,-466.23C429.79,-455.71 469.78,-442.45 499.55,-432.58"/>
<polygon fill="midnightblue" stroke="midnightblue" points="396.92,-462.93 388.53,-469.4 399.12,-469.57 396.92,-462.93"/>
</g>
<!-- Node7 -->
<g id="node7" class="node">
<title>Node7</title>
<g id="a_node7"><a xlink:href="bufferview_8cpp.html" target="_top" xlink:title=" ">
<polygon fill="none" stroke="black" points="22,-335.5 22,-365.5 174,-365.5 174,-335.5 22,-335.5"/>
<text text-anchor="start" x="30" y="-353.5" font-family="Helvetica,sans-Serif" font-size="10.00">/github/workspace/src</text>
<text text-anchor="middle" x="98" y="-342.5" font-family="Helvetica,sans-Serif" font-size="10.00">/renderer/vulkan/bufferview.cpp</text>
</a>
</g>
</g>
<!-- Node6&#45;&gt;Node7 -->
<g id="edge6" class="edge">
<title>Node6&#45;&gt;Node7</title>
<path fill="none" stroke="midnightblue" d="M142.49,-395.31C132.59,-385.56 121.11,-374.26 112.29,-365.58"/>
<polygon fill="midnightblue" stroke="midnightblue" points="140.1,-397.87 149.68,-402.4 145.01,-392.89 140.1,-397.87"/>
</g>
<!-- Node9 -->
<g id="node9" class="node">
<title>Node9</title>
<g id="a_node9"><a xlink:href="materiallibrary_8h.html" target="_top" xlink:title=" ">
<polygon fill="none" stroke="black" points="363.5,-335.5 363.5,-365.5 488.5,-365.5 488.5,-335.5 363.5,-335.5"/>
<text text-anchor="start" x="371.5" y="-353.5" font-family="Helvetica,sans-Serif" font-size="10.00">/github/workspace/src</text>
<text text-anchor="middle" x="426" y="-342.5" font-family="Helvetica,sans-Serif" font-size="10.00">/renderer/materiallibrary.h</text>
</a>
</g>
</g>
<!-- Node8&#45;&gt;Node9 -->
<g id="edge8" class="edge">
<title>Node8&#45;&gt;Node9</title>
<path fill="none" stroke="midnightblue" d="M507.73,-397.3C489.58,-387.12 467.68,-374.85 451.12,-365.58"/>
<polygon fill="midnightblue" stroke="midnightblue" points="506.4,-400.56 516.83,-402.4 509.82,-394.45 506.4,-400.56"/>
</g>
<!-- Node24 -->
<g id="node24" class="node">
<title>Node24</title>
<g id="a_node24"><a xlink:href="descriptorset_8h.html" target="_top" xlink:title=" ">
<polygon fill="none" stroke="black" points="192.5,-335.5 192.5,-365.5 345.5,-365.5 345.5,-335.5 192.5,-335.5"/>
<text text-anchor="start" x="200.5" y="-353.5" font-family="Helvetica,sans-Serif" font-size="10.00">/github/workspace/src</text>
<text text-anchor="middle" x="269" y="-342.5" font-family="Helvetica,sans-Serif" font-size="10.00">/renderer/vulkan/descriptorset.h</text>
</a>
</g>
</g>
<!-- Node8&#45;&gt;Node24 -->
<g id="edge27" class="edge">
<title>Node8&#45;&gt;Node24</title>
<path fill="none" stroke="midnightblue" d="M473.2,-400.12C428.53,-389.48 370.9,-375.76 328.27,-365.61"/>
<polygon fill="midnightblue" stroke="midnightblue" points="472.56,-403.56 483.1,-402.48 474.18,-396.75 472.56,-403.56"/>
</g>
<!-- Node28 -->
<g id="node28" class="node">
<title>Node28</title>
<g id="a_node28"><a xlink:href="uniformbuffer_8cpp.html" target="_top" xlink:title=" ">
<polygon fill="none" stroke="black" points="507,-335.5 507,-365.5 671,-365.5 671,-335.5 507,-335.5"/>
<text text-anchor="start" x="515" y="-353.5" font-family="Helvetica,sans-Serif" font-size="10.00">/github/workspace/src</text>
<text text-anchor="middle" x="589" y="-342.5" font-family="Helvetica,sans-Serif" font-size="10.00">/renderer/vulkan/uniformbuffer.cpp</text>
</a>
</g>
</g>
<!-- Node8&#45;&gt;Node28 -->
<g id="edge33" class="edge">
<title>Node8&#45;&gt;Node28</title>
<path fill="none" stroke="midnightblue" d="M558.16,-394.16C565.01,-384.68 572.79,-373.92 578.82,-365.58"/>
<polygon fill="midnightblue" stroke="midnightblue" points="555.22,-392.24 552.2,-402.4 560.89,-396.34 555.22,-392.24"/>
</g>
<!-- Node8&#45;&gt;Node29 -->
<g id="edge34" class="edge">
<title>Node8&#45;&gt;Node29</title>
<path fill="none" stroke="midnightblue" d="M602.33,-399.28C627.21,-390.96 655.83,-379.76 680,-366 698.94,-355.22 698.03,-343.73 718,-335 742.73,-324.19 895.84,-305.11 993.65,-293.75"/>
<polygon fill="midnightblue" stroke="midnightblue" points="601.05,-396.02 592.63,-402.45 603.22,-402.67 601.05,-396.02"/>
</g>
<!-- Node10 -->
<g id="node10" class="node">
<title>Node10</title>
<g id="a_node10"><a xlink:href="material_8h.html" target="_top" xlink:title=" ">
<polygon fill="none" stroke="black" points="518.5,-268.5 518.5,-298.5 631.5,-298.5 631.5,-268.5 518.5,-268.5"/>
<text text-anchor="start" x="526.5" y="-286.5" font-family="Helvetica,sans-Serif" font-size="10.00">/github/workspace/src</text>
<text text-anchor="middle" x="575" y="-275.5" font-family="Helvetica,sans-Serif" font-size="10.00">/renderer/material.h</text>
</a>
</g>
</g>
<!-- Node9&#45;&gt;Node10 -->
<g id="edge9" class="edge">
<title>Node9&#45;&gt;Node10</title>
<path fill="none" stroke="midnightblue" d="M461.96,-331.13C484.7,-320.8 513.95,-308.11 537.06,-298.58"/>
<polygon fill="midnightblue" stroke="midnightblue" points="460.29,-328.05 452.65,-335.4 463.2,-334.41 460.29,-328.05"/>
</g>
<!-- Node23 -->
<g id="node23" class="node">
<title>Node23</title>
<g id="a_node23"><a xlink:href="materiallibrary_8cpp.html" target="_top" xlink:title=" ">
<polygon fill="none" stroke="black" points="364,-268.5 364,-298.5 500,-298.5 500,-268.5 364,-268.5"/>
<text text-anchor="start" x="372" y="-286.5" font-family="Helvetica,sans-Serif" font-size="10.00">/github/workspace/src</text>
<text text-anchor="middle" x="432" y="-275.5" font-family="Helvetica,sans-Serif" font-size="10.00">/renderer/materiallibrary.cpp</text>
</a>
</g>
</g>
<!-- Node9&#45;&gt;Node23 -->
<g id="edge26" class="edge">
<title>Node9&#45;&gt;Node23</title>
<path fill="none" stroke="midnightblue" d="M428.22,-325.4C429.06,-316.37 429.98,-306.41 430.7,-298.58"/>
<polygon fill="midnightblue" stroke="midnightblue" points="424.74,-325.12 427.3,-335.4 431.71,-325.76 424.74,-325.12"/>
</g>
<!-- Node10&#45;&gt;Node9 -->
<g id="edge14" class="edge">
<title>Node10&#45;&gt;Node9</title>
<path fill="none" stroke="midnightblue" d="M539.1,-302.84C516.38,-313.16 487.13,-325.86 464.01,-335.4"/>
<polygon fill="midnightblue" stroke="midnightblue" points="540.77,-305.92 548.41,-298.58 537.86,-299.56 540.77,-305.92"/>
</g>
<!-- Node11 -->
<g id="node11" class="node">
<title>Node11</title>
<g id="a_node11"><a xlink:href="mastermaterial_8h.html" target="_top" xlink:title=" ">
<polygon fill="none" stroke="black" points="614,-134.5 614,-164.5 744,-164.5 744,-134.5 614,-134.5"/>
<text text-anchor="start" x="622" y="-152.5" font-family="Helvetica,sans-Serif" font-size="10.00">/github/workspace/src</text>
<text text-anchor="middle" x="679" y="-141.5" font-family="Helvetica,sans-Serif" font-size="10.00">/renderer/mastermaterial.h</text>
</a>
</g>
</g>
<!-- Node10&#45;&gt;Node11 -->
<g id="edge10" class="edge">
<title>Node10&#45;&gt;Node11</title>
<path fill="none" stroke="midnightblue" d="M595.82,-260.8C603.93,-252.06 613.13,-241.75 621,-232 639.31,-209.29 658.57,-181.29 669.64,-164.72"/>
<polygon fill="midnightblue" stroke="midnightblue" points="593.05,-258.64 588.76,-268.32 598.16,-263.43 593.05,-258.64"/>
</g>
<!-- Node13 -->
<g id="node13" class="node">
<title>Node13</title>
<g id="a_node13"><a xlink:href="material_8cpp.html" target="_top" xlink:title=" ">
<polygon fill="none" stroke="black" points="499.5,-201.5 499.5,-231.5 612.5,-231.5 612.5,-201.5 499.5,-201.5"/>
<text text-anchor="start" x="507.5" y="-219.5" font-family="Helvetica,sans-Serif" font-size="10.00">/github/workspace/src</text>
<text text-anchor="middle" x="556" y="-208.5" font-family="Helvetica,sans-Serif" font-size="10.00">/renderer/material.cpp</text>
</a>
</g>
</g>
<!-- Node10&#45;&gt;Node13 -->
<g id="edge13" class="edge">
<title>Node10&#45;&gt;Node13</title>
<path fill="none" stroke="midnightblue" d="M568.04,-258.7C565.38,-249.59 562.43,-239.49 560.11,-231.58"/>
<polygon fill="midnightblue" stroke="midnightblue" points="564.71,-259.78 570.88,-268.4 571.43,-257.82 564.71,-259.78"/>
</g>
<!-- Node14 -->
<g id="node14" class="node">
<title>Node14</title>
<g id="a_node14"><a xlink:href="mesh_8h.html" target="_top" xlink:title=" ">
<polygon fill="none" stroke="black" points="368.5,-201.5 368.5,-231.5 481.5,-231.5 481.5,-201.5 368.5,-201.5"/>
<text text-anchor="start" x="376.5" y="-219.5" font-family="Helvetica,sans-Serif" font-size="10.00">/github/workspace/src</text>
<text text-anchor="middle" x="425" y="-208.5" font-family="Helvetica,sans-Serif" font-size="10.00">/renderer/mesh.h</text>
</a>
</g>
</g>
<!-- Node10&#45;&gt;Node14 -->
<g id="edge15" class="edge">
<title>Node10&#45;&gt;Node14</title>
<path fill="none" stroke="midnightblue" d="M533.25,-264.41C509.3,-254.03 479.68,-241.2 457.48,-231.58"/>
<polygon fill="midnightblue" stroke="midnightblue" points="531.89,-267.63 542.45,-268.4 534.67,-261.21 531.89,-267.63"/>
</g>
<!-- Node11&#45;&gt;Node9 -->
<g id="edge12" class="edge">
<title>Node11&#45;&gt;Node9</title>
<path fill="none" stroke="midnightblue" d="M679.8,-174.79C679.49,-207.69 673.78,-266.06 640,-299 634.45,-304.41 549.72,-323.3 488.57,-336.38"/>
<polygon fill="midnightblue" stroke="midnightblue" points="683.3,-174.66 679.73,-164.69 676.3,-174.71 683.3,-174.66"/>
</g>
<!-- Node12 -->
<g id="node12" class="node">
<title>Node12</title>
<g id="a_node12"><a xlink:href="mastermaterial_8cpp.html" target="_top" xlink:title=" ">
<polygon fill="none" stroke="black" points="614,-67.5 614,-97.5 754,-97.5 754,-67.5 614,-67.5"/>
<text text-anchor="start" x="622" y="-85.5" font-family="Helvetica,sans-Serif" font-size="10.00">/github/workspace/src</text>
<text text-anchor="middle" x="684" y="-74.5" font-family="Helvetica,sans-Serif" font-size="10.00">/renderer/mastermaterial.cpp</text>
</a>
</g>
</g>
<!-- Node11&#45;&gt;Node12 -->
<g id="edge11" class="edge">
<title>Node11&#45;&gt;Node12</title>
<path fill="none" stroke="midnightblue" d="M680.85,-124.4C681.55,-115.37 682.31,-105.41 682.92,-97.58"/>
<polygon fill="midnightblue" stroke="midnightblue" points="677.36,-124.16 680.08,-134.4 684.34,-124.69 677.36,-124.16"/>
</g>
<!-- Node14&#45;&gt;Node11 -->
<g id="edge16" class="edge">
<title>Node14&#45;&gt;Node11</title>
<path fill="none" stroke="midnightblue" d="M489.54,-198.98C531.03,-188.37 584.36,-174.72 623.86,-164.61"/>
<polygon fill="midnightblue" stroke="midnightblue" points="488.62,-195.61 479.8,-201.48 490.36,-202.39 488.62,-195.61"/>
</g>
<!-- Node15 -->
<g id="node15" class="node">
<title>Node15</title>
<g id="a_node15"><a xlink:href="mesh_8cpp.html" target="_top" xlink:title=" ">
<polygon fill="none" stroke="black" points="341.5,-134.5 341.5,-164.5 454.5,-164.5 454.5,-134.5 341.5,-134.5"/>
<text text-anchor="start" x="349.5" y="-152.5" font-family="Helvetica,sans-Serif" font-size="10.00">/github/workspace/src</text>
<text text-anchor="middle" x="398" y="-141.5" font-family="Helvetica,sans-Serif" font-size="10.00">/renderer/mesh.cpp</text>
</a>
</g>
</g>
<!-- Node14&#45;&gt;Node15 -->
<g id="edge17" class="edge">
<title>Node14&#45;&gt;Node15</title>
<path fill="none" stroke="midnightblue" d="M415.23,-191.99C411.42,-182.8 407.17,-172.58 403.85,-164.58"/>
<polygon fill="midnightblue" stroke="midnightblue" points="412.07,-193.5 419.14,-201.4 418.54,-190.82 412.07,-193.5"/>
</g>
<!-- Node16 -->
<g id="node16" class="node">
<title>Node16</title>
<g id="a_node16"><a xlink:href="modelloader_8h.html" target="_top" xlink:title=" ">
<polygon fill="none" stroke="black" points="473,-134.5 473,-164.5 591,-164.5 591,-134.5 473,-134.5"/>
<text text-anchor="start" x="481" y="-152.5" font-family="Helvetica,sans-Serif" font-size="10.00">/github/workspace/src</text>
<text text-anchor="middle" x="532" y="-141.5" font-family="Helvetica,sans-Serif" font-size="10.00">/renderer/modelloader.h</text>
</a>
</g>
</g>
<!-- Node14&#45;&gt;Node16 -->
<g id="edge18" class="edge">
<title>Node14&#45;&gt;Node16</title>
<path fill="none" stroke="midnightblue" d="M457.08,-196.02C473.73,-185.9 493.69,-173.77 508.83,-164.58"/>
<polygon fill="midnightblue" stroke="midnightblue" points="454.95,-193.21 448.22,-201.4 458.58,-199.2 454.95,-193.21"/>
</g>
<!-- Node19 -->
<g id="node19" class="node">
<title>Node19</title>
<g id="a_node19"><a xlink:href="objectinstance_8h.html" target="_top" xlink:title=" ">
<polygon fill="none" stroke="black" points="195,-134.5 195,-164.5 323,-164.5 323,-134.5 195,-134.5"/>
<text text-anchor="start" x="203" y="-152.5" font-family="Helvetica,sans-Serif" font-size="10.00">/github/workspace/src</text>
<text text-anchor="middle" x="259" y="-141.5" font-family="Helvetica,sans-Serif" font-size="10.00">/renderer/objectinstance.h</text>
</a>
</g>
</g>
<!-- Node14&#45;&gt;Node19 -->
<g id="edge21" class="edge">
<title>Node14&#45;&gt;Node19</title>
<path fill="none" stroke="midnightblue" d="M379.49,-197.68C352.87,-187.26 319.73,-174.28 294.95,-164.58"/>
<polygon fill="midnightblue" stroke="midnightblue" points="378.39,-201.01 388.98,-201.4 380.95,-194.49 378.39,-201.01"/>
</g>
<!-- Node17 -->
<g id="node17" class="node">
<title>Node17</title>
<g id="a_node17"><a xlink:href="modelloader_8cpp.html" target="_top" xlink:title=" ">
<polygon fill="none" stroke="black" points="468,-67.5 468,-97.5 596,-97.5 596,-67.5 468,-67.5"/>
<text text-anchor="start" x="476" y="-85.5" font-family="Helvetica,sans-Serif" font-size="10.00">/github/workspace/src</text>
<text text-anchor="middle" x="532" y="-74.5" font-family="Helvetica,sans-Serif" font-size="10.00">/renderer/modelloader.cpp</text>
</a>
</g>
</g>
<!-- Node16&#45;&gt;Node17 -->
<g id="edge19" class="edge">
<title>Node16&#45;&gt;Node17</title>
<path fill="none" stroke="midnightblue" d="M532,-124.11C532,-115.15 532,-105.32 532,-97.58"/>
<polygon fill="midnightblue" stroke="midnightblue" points="528.5,-124.4 532,-134.4 535.5,-124.4 528.5,-124.4"/>
</g>
<!-- Node18 -->
<g id="node18" class="node">
<title>Node18</title>
<g id="a_node18"><a xlink:href="vulkan__voxel__rasterizer__2_8cpp.html" target="_top" xlink:title=" ">
<polygon fill="none" stroke="black" points="353,-0.5 353,-30.5 527,-30.5 527,-0.5 353,-0.5"/>
<text text-anchor="start" x="361" y="-18.5" font-family="Helvetica,sans-Serif" font-size="10.00">/github/workspace/src</text>
<text text-anchor="middle" x="440" y="-7.5" font-family="Helvetica,sans-Serif" font-size="10.00">/tests/vulkan_voxel_rasterizer_2.cpp</text>
</a>
</g>
</g>
<!-- Node16&#45;&gt;Node18 -->
<g id="edge20" class="edge">
<title>Node16&#45;&gt;Node18</title>
<path fill="none" stroke="midnightblue" d="M493.35,-129.28C480.69,-121.22 467.66,-110.73 459,-98 445.03,-77.46 441.24,-47.99 440.27,-30.69"/>
<polygon fill="midnightblue" stroke="midnightblue" points="491.62,-132.32 501.99,-134.46 495.22,-126.32 491.62,-132.32"/>
</g>
<!-- Node20 -->
<g id="node20" class="node">
<title>Node20</title>
<g id="a_node20"><a xlink:href="objectinstance_8cpp.html" target="_top" xlink:title=" ">
<polygon fill="none" stroke="black" points="231.5,-67.5 231.5,-97.5 370.5,-97.5 370.5,-67.5 231.5,-67.5"/>
<text text-anchor="start" x="239.5" y="-85.5" font-family="Helvetica,sans-Serif" font-size="10.00">/github/workspace/src</text>
<text text-anchor="middle" x="301" y="-74.5" font-family="Helvetica,sans-Serif" font-size="10.00">/renderer/objectinstance.cpp</text>
</a>
</g>
</g>
<!-- Node19&#45;&gt;Node20 -->
<g id="edge22" class="edge">
<title>Node19&#45;&gt;Node20</title>
<path fill="none" stroke="midnightblue" d="M273.62,-125.87C279.7,-116.46 286.57,-105.83 291.9,-97.58"/>
<polygon fill="midnightblue" stroke="midnightblue" points="270.6,-124.1 268.11,-134.4 276.48,-127.9 270.6,-124.1"/>
</g>
<!-- Node21 -->
<g id="node21" class="node">
<title>Node21</title>
<g id="a_node21"><a xlink:href="scene_8h.html" target="_top" xlink:title=" ">
<polygon fill="none" stroke="black" points="100.5,-67.5 100.5,-97.5 213.5,-97.5 213.5,-67.5 100.5,-67.5"/>
<text text-anchor="start" x="108.5" y="-85.5" font-family="Helvetica,sans-Serif" font-size="10.00">/github/workspace/src</text>
<text text-anchor="middle" x="157" y="-74.5" font-family="Helvetica,sans-Serif" font-size="10.00">/renderer/scene.h</text>
</a>
</g>
</g>
<!-- Node19&#45;&gt;Node21 -->
<g id="edge23" class="edge">
<title>Node19&#45;&gt;Node21</title>
<path fill="none" stroke="midnightblue" d="M228.42,-129.02C212.55,-118.9 193.52,-106.77 179.09,-97.58"/>
<polygon fill="midnightblue" stroke="midnightblue" points="226.55,-131.97 236.87,-134.4 230.32,-126.07 226.55,-131.97"/>
</g>
<!-- Node21&#45;&gt;Node18 -->
<g id="edge25" class="edge">
<title>Node21&#45;&gt;Node18</title>
<path fill="none" stroke="midnightblue" d="M223.36,-66.26C270.31,-55.47 332.8,-41.12 378.6,-30.6"/>
<polygon fill="midnightblue" stroke="midnightblue" points="222.55,-62.85 213.59,-68.5 224.12,-69.68 222.55,-62.85"/>
</g>
<!-- Node22 -->
<g id="node22" class="node">
<title>Node22</title>
<g id="a_node22"><a xlink:href="scene_8cpp.html" target="_top" xlink:title=" ">
<polygon fill="none" stroke="black" points="100.5,-0.5 100.5,-30.5 213.5,-30.5 213.5,-0.5 100.5,-0.5"/>
<text text-anchor="start" x="108.5" y="-18.5" font-family="Helvetica,sans-Serif" font-size="10.00">/github/workspace/src</text>
<text text-anchor="middle" x="157" y="-7.5" font-family="Helvetica,sans-Serif" font-size="10.00">/renderer/scene.cpp</text>
</a>
</g>
</g>
<!-- Node21&#45;&gt;Node22 -->
<g id="edge24" class="edge">
<title>Node21&#45;&gt;Node22</title>
<path fill="none" stroke="midnightblue" d="M157,-57.11C157,-48.15 157,-38.32 157,-30.58"/>
<polygon fill="midnightblue" stroke="midnightblue" points="153.5,-57.4 157,-67.4 160.5,-57.4 153.5,-57.4"/>
</g>
<!-- Node24&#45;&gt;Node3 -->
<g id="edge31" class="edge">
<title>Node24&#45;&gt;Node3</title>
<path fill="none" stroke="midnightblue" d="M334.25,-368.47C360.79,-376.71 391.22,-387.91 417,-402 436.43,-412.62 436.04,-423.41 456,-433 531.85,-469.47 763.91,-514.17 888.65,-536.46"/>
<polygon fill="midnightblue" stroke="midnightblue" points="335.25,-365.12 324.66,-365.57 333.22,-371.82 335.25,-365.12"/>
</g>
<!-- Node25 -->
<g id="node25" class="node">
<title>Node25</title>
<g id="a_node25"><a xlink:href="descriptorpoolmanager_8h.html" target="_top" xlink:title=" ">
<polygon fill="none" stroke="black" points="0,-268.5 0,-298.5 164,-298.5 164,-268.5 0,-268.5"/>
<text text-anchor="start" x="8" y="-286.5" font-family="Helvetica,sans-Serif" font-size="10.00">/github/workspace/src</text>
<text text-anchor="middle" x="82" y="-275.5" font-family="Helvetica,sans-Serif" font-size="10.00">/renderer/descriptorpoolmanager.h</text>
</a>
</g>
</g>
<!-- Node24&#45;&gt;Node25 -->
<g id="edge28" class="edge">
<title>Node24&#45;&gt;Node25</title>
<path fill="none" stroke="midnightblue" d="M218.92,-332.09C188.73,-321.6 150.78,-308.41 122.5,-298.58"/>
<polygon fill="midnightblue" stroke="midnightblue" points="217.83,-335.42 228.42,-335.4 220.13,-328.81 217.83,-335.42"/>
</g>
<!-- Node27 -->
<g id="node27" class="node">
<title>Node27</title>
<g id="a_node27"><a xlink:href="descriptorset_8cpp.html" target="_top" xlink:title=" ">
<polygon fill="none" stroke="black" points="182,-268.5 182,-298.5 346,-298.5 346,-268.5 182,-268.5"/>
<text text-anchor="start" x="190" y="-286.5" font-family="Helvetica,sans-Serif" font-size="10.00">/github/workspace/src</text>
<text text-anchor="middle" x="264" y="-275.5" font-family="Helvetica,sans-Serif" font-size="10.00">/renderer/vulkan/descriptorset.cpp</text>
</a>
</g>
</g>
<!-- Node24&#45;&gt;Node27 -->
<g id="edge32" class="edge">
<title>Node24&#45;&gt;Node27</title>
<path fill="none" stroke="midnightblue" d="M267.15,-325.4C266.45,-316.37 265.69,-306.41 265.08,-298.58"/>
<polygon fill="midnightblue" stroke="midnightblue" points="263.66,-325.69 267.92,-335.4 270.64,-325.16 263.66,-325.69"/>
</g>
<!-- Node25&#45;&gt;Node21 -->
<g id="edge30" class="edge">
<title>Node25&#45;&gt;Node21</title>
<path fill="none" stroke="midnightblue" d="M86.18,-258.51C89.38,-242.07 94.38,-219.9 101,-201 114.6,-162.18 137.16,-119.17 149.08,-97.55"/>
<polygon fill="midnightblue" stroke="midnightblue" points="82.73,-257.92 84.33,-268.4 89.61,-259.21 82.73,-257.92"/>
</g>
<!-- Node26 -->
<g id="node26" class="node">
<title>Node26</title>
<g id="a_node26"><a xlink:href="descriptorpoolmanager_8cpp.html" target="_top" xlink:title=" ">
<polygon fill="none" stroke="black" points="110,-201.5 110,-231.5 284,-231.5 284,-201.5 110,-201.5"/>
<text text-anchor="start" x="118" y="-219.5" font-family="Helvetica,sans-Serif" font-size="10.00">/github/workspace/src</text>
<text text-anchor="middle" x="197" y="-208.5" font-family="Helvetica,sans-Serif" font-size="10.00">/renderer/descriptorpoolmanager.cpp</text>
</a>
</g>
</g>
<!-- Node25&#45;&gt;Node26 -->
<g id="edge29" class="edge">
<title>Node25&#45;&gt;Node26</title>
<path fill="none" stroke="midnightblue" d="M115.98,-263.3C133.97,-253.12 155.68,-240.85 172.1,-231.58"/>
<polygon fill="midnightblue" stroke="midnightblue" points="113.94,-260.43 106.95,-268.4 117.38,-266.52 113.94,-260.43"/>
</g>
<!-- Node31&#45;&gt;Node18 -->
<g id="edge56" class="edge">
<title>Node31&#45;&gt;Node18</title>
<path fill="none" stroke="midnightblue" d="M1151.55,-468.06C1214.36,-455.85 1292.8,-439.76 1307,-433 1359.08,-408.2 1408,-409.18 1408,-351.5 1408,-351.5 1408,-351.5 1408,-148.5 1408,-60.04 765.12,-28.09 527.18,-19.3"/>
<polygon fill="midnightblue" stroke="midnightblue" points="1150.77,-464.65 1141.62,-469.99 1152.1,-471.52 1150.77,-464.65"/>
</g>
<!-- Node31&#45;&gt;Node29 -->
<g id="edge55" class="edge">
<title>Node31&#45;&gt;Node29</title>
<path fill="none" stroke="midnightblue" d="M1140.04,-467C1184.37,-455.86 1234.54,-441.64 1241,-433 1249.25,-421.96 1247.31,-414.25 1241,-402 1214.25,-350.11 1152.81,-316.11 1112.92,-298.62"/>
<polygon fill="midnightblue" stroke="midnightblue" points="1138.96,-463.67 1130.1,-469.48 1140.65,-470.46 1138.96,-463.67"/>
</g>
<!-- Node32 -->
<g id="node32" class="node">
<title>Node32</title>
<g id="a_node32"><a xlink:href="framebuffer_8h.html" target="_top" xlink:title=" ">
<polygon fill="none" stroke="black" points="1234,-335.5 1234,-365.5 1380,-365.5 1380,-335.5 1234,-335.5"/>
<text text-anchor="start" x="1242" y="-353.5" font-family="Helvetica,sans-Serif" font-size="10.00">/github/workspace/src</text>
<text text-anchor="middle" x="1307" y="-342.5" font-family="Helvetica,sans-Serif" font-size="10.00">/renderer/vulkan/framebuffer.h</text>
</a>
</g>
</g>
<!-- Node31&#45;&gt;Node32 -->
<g id="edge37" class="edge">
<title>Node31&#45;&gt;Node32</title>
<path fill="none" stroke="midnightblue" d="M1142.46,-467.33C1193.85,-456.02 1255.24,-441.46 1265,-433 1285.18,-415.5 1293.19,-383.84 1299.12,-365.56"/>
<polygon fill="midnightblue" stroke="midnightblue" points="1141.68,-463.92 1132.66,-469.48 1143.18,-470.76 1141.68,-463.92"/>
</g>
<!-- Node34 -->
<g id="node34" class="node">
<title>Node34</title>
<g id="a_node34"><a xlink:href="graphicspipeline_8h.html" target="_top" xlink:title=" ">
<polygon fill="none" stroke="black" points="726.5,-335.5 726.5,-365.5 893.5,-365.5 893.5,-335.5 726.5,-335.5"/>
<text text-anchor="start" x="734.5" y="-353.5" font-family="Helvetica,sans-Serif" font-size="10.00">/github/workspace/src</text>
<text text-anchor="middle" x="810" y="-342.5" font-family="Helvetica,sans-Serif" font-size="10.00">/renderer/vulkan/graphicspipeline.h</text>
</a>
</g>
</g>
<!-- Node31&#45;&gt;Node34 -->
<g id="edge42" class="edge">
<title>Node31&#45;&gt;Node34</title>
<path fill="none" stroke="midnightblue" d="M993.01,-466.72C964.63,-458.77 932.88,-447.73 906,-433 872.64,-414.72 840.28,-383.64 822.97,-365.6"/>
<polygon fill="midnightblue" stroke="midnightblue" points="992.33,-470.16 1002.89,-469.4 994.16,-463.4 992.33,-470.16"/>
</g>
<!-- Node36 -->
<g id="node36" class="node">
<title>Node36</title>
<g id="a_node36"><a xlink:href="renderpass_8h.html" target="_top" xlink:title=" ">
<polygon fill="none" stroke="black" points="914.5,-402.5 914.5,-432.5 1059.5,-432.5 1059.5,-402.5 914.5,-402.5"/>
<text text-anchor="start" x="922.5" y="-420.5" font-family="Helvetica,sans-Serif" font-size="10.00">/github/workspace/src</text>
<text text-anchor="middle" x="987" y="-409.5" font-family="Helvetica,sans-Serif" font-size="10.00">/renderer/vulkan/renderpass.h</text>
</a>
</g>
</g>
<!-- Node31&#45;&gt;Node36 -->
<g id="edge48" class="edge">
<title>Node31&#45;&gt;Node36</title>
<path fill="none" stroke="midnightblue" d="M1044.04,-463.17C1031.35,-453.23 1016.39,-441.51 1004.97,-432.58"/>
<polygon fill="midnightblue" stroke="midnightblue" points="1041.96,-465.99 1051.99,-469.4 1046.28,-460.47 1041.96,-465.99"/>
</g>
<!-- Node38 -->
<g id="node38" class="node">
<title>Node38</title>
<g id="a_node38"><a xlink:href="swapchain_8cpp.html" target="_top" xlink:title=" ">
<polygon fill="none" stroke="black" points="1078,-402.5 1078,-432.5 1232,-432.5 1232,-402.5 1078,-402.5"/>
<text text-anchor="start" x="1086" y="-420.5" font-family="Helvetica,sans-Serif" font-size="10.00">/github/workspace/src</text>
<text text-anchor="middle" x="1155" y="-409.5" font-family="Helvetica,sans-Serif" font-size="10.00">/renderer/vulkan/swapchain.cpp</text>
</a>
</g>
</g>
<!-- Node31&#45;&gt;Node38 -->
<g id="edge54" class="edge">
<title>Node31&#45;&gt;Node38</title>
<path fill="none" stroke="midnightblue" d="M1096.59,-463.17C1109.59,-453.23 1124.9,-441.51 1136.59,-432.58"/>
<polygon fill="midnightblue" stroke="midnightblue" points="1094.26,-460.54 1088.44,-469.4 1098.51,-466.1 1094.26,-460.54"/>
</g>
<!-- Node32&#45;&gt;Node3 -->
<g id="edge38" class="edge">
<title>Node32&#45;&gt;Node3</title>
<path fill="none" stroke="midnightblue" d="M1323.51,-374.34C1344.4,-406.28 1374.14,-464.36 1343,-500 1324.16,-521.56 1156.31,-537.27 1052.3,-545.03"/>
<polygon fill="midnightblue" stroke="midnightblue" points="1326.15,-372.01 1317.64,-365.7 1320.36,-375.94 1326.15,-372.01"/>
</g>
<!-- Node32&#45;&gt;Node29 -->
<g id="edge41" class="edge">
<title>Node32&#45;&gt;Node29</title>
<path fill="none" stroke="midnightblue" d="M1247.35,-332.71C1209.76,-322.14 1161.77,-308.63 1126.15,-298.61"/>
<polygon fill="midnightblue" stroke="midnightblue" points="1246.59,-336.14 1257.16,-335.48 1248.48,-329.4 1246.59,-336.14"/>
</g>
<!-- Node32&#45;&gt;Node31 -->
<g id="edge40" class="edge">
<title>Node32&#45;&gt;Node31</title>
<path fill="none" stroke="midnightblue" d="M1310.59,-375.77C1308.16,-394.08 1299.79,-418.44 1283,-433 1272.28,-442.29 1199.32,-458.93 1141.66,-470.56"/>
<polygon fill="midnightblue" stroke="midnightblue" points="1314.1,-375.79 1311.37,-365.56 1307.12,-375.27 1314.1,-375.79"/>
</g>
<!-- Node33 -->
<g id="node33" class="node">
<title>Node33</title>
<g id="a_node33"><a xlink:href="framebuffer_8cpp.html" target="_top" xlink:title=" ">
<polygon fill="none" stroke="black" points="1224,-268.5 1224,-298.5 1380,-298.5 1380,-268.5 1224,-268.5"/>
<text text-anchor="start" x="1232" y="-286.5" font-family="Helvetica,sans-Serif" font-size="10.00">/github/workspace/src</text>
<text text-anchor="middle" x="1302" y="-275.5" font-family="Helvetica,sans-Serif" font-size="10.00">/renderer/vulkan/framebuffer.cpp</text>
</a>
</g>
</g>
<!-- Node32&#45;&gt;Node33 -->
<g id="edge39" class="edge">
<title>Node32&#45;&gt;Node33</title>
<path fill="none" stroke="midnightblue" d="M1305.15,-325.4C1304.45,-316.37 1303.69,-306.41 1303.08,-298.58"/>
<polygon fill="midnightblue" stroke="midnightblue" points="1301.66,-325.69 1305.92,-335.4 1308.64,-325.16 1301.66,-325.69"/>
</g>
<!-- Node34&#45;&gt;Node3 -->
<g id="edge45" class="edge">
<title>Node34&#45;&gt;Node3</title>
<path fill="none" stroke="midnightblue" d="M814.6,-375.3C821.84,-407.16 838.64,-463.84 872,-500 887.06,-516.32 908.59,-528.22 927.64,-536.35"/>
<polygon fill="midnightblue" stroke="midnightblue" points="818.02,-374.56 812.5,-365.52 811.17,-376.03 818.02,-374.56"/>
</g>
<!-- Node34&#45;&gt;Node10 -->
<g id="edge44" class="edge">
<title>Node34&#45;&gt;Node10</title>
<path fill="none" stroke="midnightblue" d="M749.32,-332.71C711.07,-322.14 662.26,-308.63 626.02,-298.61"/>
<polygon fill="midnightblue" stroke="midnightblue" points="748.73,-336.18 759.3,-335.48 750.59,-329.44 748.73,-336.18"/>
</g>
<!-- Node34&#45;&gt;Node11 -->
<g id="edge43" class="edge">
<title>Node34&#45;&gt;Node11</title>
<path fill="none" stroke="midnightblue" d="M772.4,-330.07C759.47,-321.9 745.8,-311.39 736,-299 702.59,-256.77 687.01,-192.71 681.48,-164.58"/>
<polygon fill="midnightblue" stroke="midnightblue" points="770.8,-333.19 781.17,-335.34 774.41,-327.19 770.8,-333.19"/>
</g>
<!-- Node34&#45;&gt;Node29 -->
<g id="edge47" class="edge">
<title>Node34&#45;&gt;Node29</title>
<path fill="none" stroke="midnightblue" d="M877.31,-333.05C920.8,-322.43 976.8,-308.74 1018.25,-298.61"/>
<polygon fill="midnightblue" stroke="midnightblue" points="876.27,-329.7 867.39,-335.48 877.94,-336.5 876.27,-329.7"/>
</g>
<!-- Node35 -->
<g id="node35" class="node">
<title>Node35</title>
<g id="a_node35"><a xlink:href="graphicspipeline_8cpp.html" target="_top" xlink:title=" ">
<polygon fill="none" stroke="black" points="744.5,-268.5 744.5,-298.5 921.5,-298.5 921.5,-268.5 744.5,-268.5"/>
<text text-anchor="start" x="752.5" y="-286.5" font-family="Helvetica,sans-Serif" font-size="10.00">/github/workspace/src</text>
<text text-anchor="middle" x="833" y="-275.5" font-family="Helvetica,sans-Serif" font-size="10.00">/renderer/vulkan/graphicspipeline.cpp</text>
</a>
</g>
</g>
<!-- Node34&#45;&gt;Node35 -->
<g id="edge46" class="edge">
<title>Node34&#45;&gt;Node35</title>
<path fill="none" stroke="midnightblue" d="M818.42,-325.7C821.65,-316.59 825.22,-306.49 828.02,-298.58"/>
<polygon fill="midnightblue" stroke="midnightblue" points="815.03,-324.8 814.99,-335.4 821.63,-327.14 815.03,-324.8"/>
</g>
<!-- Node36&#45;&gt;Node3 -->
<g id="edge49" class="edge">
<title>Node36&#45;&gt;Node3</title>
<path fill="none" stroke="midnightblue" d="M983.91,-442.49C980.38,-469.92 974.71,-513.94 971.82,-536.37"/>
<polygon fill="midnightblue" stroke="midnightblue" points="987.39,-442.89 985.19,-432.52 980.45,-442 987.39,-442.89"/>
</g>
<!-- Node36&#45;&gt;Node29 -->
<g id="edge53" class="edge">
<title>Node36&#45;&gt;Node29</title>
<path fill="none" stroke="midnightblue" d="M1069.61,-399.91C1087.05,-392.46 1103.38,-381.66 1114,-366 1128.81,-344.17 1107.51,-315.64 1091.32,-298.78"/>
<polygon fill="midnightblue" stroke="midnightblue" points="1067.88,-396.83 1059.83,-403.72 1070.42,-403.35 1067.88,-396.83"/>
</g>
<!-- Node36&#45;&gt;Node32 -->
<g id="edge50" class="edge">
<title>Node36&#45;&gt;Node32</title>
<path fill="none" stroke="midnightblue" d="M1066.02,-400.45C1118.7,-389.75 1187.28,-375.82 1237.81,-365.55"/>
<polygon fill="midnightblue" stroke="midnightblue" points="1065.14,-397.06 1056.04,-402.48 1066.54,-403.92 1065.14,-397.06"/>
</g>
<!-- Node36&#45;&gt;Node34 -->
<g id="edge51" class="edge">
<title>Node36&#45;&gt;Node34</title>
<path fill="none" stroke="midnightblue" d="M938.85,-398.82C910.4,-388.37 874.87,-375.32 848.33,-365.58"/>
<polygon fill="midnightblue" stroke="midnightblue" points="938,-402.23 948.59,-402.4 940.41,-395.66 938,-402.23"/>
</g>
<!-- Node37 -->
<g id="node37" class="node">
<title>Node37</title>
<g id="a_node37"><a xlink:href="renderpass_8cpp.html" target="_top" xlink:title=" ">
<polygon fill="none" stroke="black" points="949.5,-335.5 949.5,-365.5 1104.5,-365.5 1104.5,-335.5 949.5,-335.5"/>
<text text-anchor="start" x="957.5" y="-353.5" font-family="Helvetica,sans-Serif" font-size="10.00">/github/workspace/src</text>
<text text-anchor="middle" x="1027" y="-342.5" font-family="Helvetica,sans-Serif" font-size="10.00">/renderer/vulkan/renderpass.cpp</text>
</a>
</g>
</g>
<!-- Node36&#45;&gt;Node37 -->
<g id="edge52" class="edge">
<title>Node36&#45;&gt;Node37</title>
<path fill="none" stroke="midnightblue" d="M1000.93,-393.87C1006.72,-384.46 1013.26,-373.83 1018.34,-365.58"/>
<polygon fill="midnightblue" stroke="midnightblue" points="997.94,-392.05 995.68,-402.4 1003.9,-395.71 997.94,-392.05"/>
</g>
<!-- Node39&#45;&gt;Node3 -->
<g id="edge59" class="edge">
<title>Node39&#45;&gt;Node3</title>
<path fill="none" stroke="midnightblue" d="M867.41,-599.13C890.13,-588.8 918.06,-576.11 939.03,-566.58"/>
<polygon fill="midnightblue" stroke="midnightblue" points="865.68,-596.07 858.03,-603.4 868.58,-602.44 865.68,-596.07"/>
</g>
<!-- Node39&#45;&gt;Node34 -->
<g id="edge60" class="edge">
<title>Node39&#45;&gt;Node34</title>
<path fill="none" stroke="midnightblue" d="M741.91,-599.82C725.41,-592.42 710.12,-581.91 700,-567 651.77,-495.92 750.79,-400.88 792.58,-365.52"/>
<polygon fill="midnightblue" stroke="midnightblue" points="740.6,-603.07 751.18,-603.63 743.26,-596.59 740.6,-603.07"/>
</g>
<!-- Node40 -->
<g id="node40" class="node">
<title>Node40</title>
<g id="a_node40"><a xlink:href="pipelinebase_8cpp.html" target="_top" xlink:title=" ">
<polygon fill="none" stroke="black" points="708.5,-536.5 708.5,-566.5 869.5,-566.5 869.5,-536.5 708.5,-536.5"/>
<text text-anchor="start" x="716.5" y="-554.5" font-family="Helvetica,sans-Serif" font-size="10.00">/github/workspace/src</text>
<text text-anchor="middle" x="789" y="-543.5" font-family="Helvetica,sans-Serif" font-size="10.00">/renderer/vulkan/pipelinebase.cpp</text>
</a>
</g>
</g>
<!-- Node39&#45;&gt;Node40 -->
<g id="edge61" class="edge">
<title>Node39&#45;&gt;Node40</title>
<path fill="none" stroke="midnightblue" d="M813.6,-594.58C808.14,-585.24 802.01,-574.75 797.23,-566.58"/>
<polygon fill="midnightblue" stroke="midnightblue" points="810.69,-596.53 818.75,-603.4 816.73,-593 810.69,-596.53"/>
</g>
</g>
</svg>
        <g id="navigator" transform="translate(0 0)" fill="#404254">
                <rect fill="#f2f5e9" fill-opacity="0.5" stroke="#606060" stroke-width=".5" x="0" y="0" width="60" height="60"/>
                <use id="zoomplus" xlink:href="#zoomPlus" x="17" y="9" onmousedown="handleZoom(evt,'in')"/>
                <use id="zoomminus" xlink:href="#zoomMin" x="42" y="9" onmousedown="handleZoom(evt,'out')"/>
                <use id="reset" xlink:href="#resetDef" x="30" y="36" onmousedown="handleReset()"/>
                <g id="arrowUp" xlink:href="#dirArrow" transform="translate(30 24)" onmousedown="handlePan(0,-1)">
                  <use xlink:href="#rim" fill="#404040">
                        <set attributeName="fill" to="#808080" begin="arrowUp.mouseover" end="arrowUp.mouseout"/>
                  </use>
                  <path fill="none" stroke="white" stroke-width="1.5" d="M0,-3.0v7 M-2.5,-0.5L0,-3.0L2.5,-0.5"/>
                </g>
                <g id="arrowRight" xlink:href="#dirArrow" transform="rotate(90) translate(36 -43)" onmousedown="handlePan(1,0)">
                  <use xlink:href="#rim" fill="#404040">
                        <set attributeName="fill" to="#808080" begin="arrowRight.mouseover" end="arrowRight.mouseout"/>
                  </use>
                  <path fill="none" stroke="white" stroke-width="1.5" d="M0,-3.0v7 M-2.5,-0.5L0,-3.0L2.5,-0.5"/>
                </g>
                <g id="arrowDown" xlink:href="#dirArrow" transform="rotate(180) translate(-30 -48)" onmousedown="handlePan(0,1)">
                  <use xlink:href="#rim" fill="#404040">
                        <set attributeName="fill" to="#808080" begin="arrowDown.mouseover" end="arrowDown.mouseout"/>
                  </use>
                  <path fill="none" stroke="white" stroke-width="1.5" d="M0,-3.0v7 M-2.5,-0.5L0,-3.0L2.5,-0.5"/>
                </g>
                <g id="arrowLeft" xlink:href="#dirArrow" transform="rotate(270) translate(-36 17)" onmousedown="handlePan(-1,0)">
                  <use xlink:href="#rim" fill="#404040">
                        <set attributeName="fill" to="#808080" begin="arrowLeft.mouseover" end="arrowLeft.mouseout"/>
                  </use>
                  <path fill="none" stroke="white" stroke-width="1.5" d="M0,-3.0v7 M-2.5,-0.5L0,-3.0L2.5,-0.5"/>
                </g>
        </g>
        <svg viewBox="0 0 15 15" width="100%" height="30px" preserveAspectRatio="xMaxYMin meet">
         <g id="arrow_out" transform="scale(0.3 0.3)">
          <a xlink:href="pushconstant_8h__dep__incl_org.svg" target="_base">
           <rect id="button" ry="5" rx="5" y="6" x="6" height="38" width="38"
                fill="#f2f5e9" fill-opacity="0.5" stroke="#606060" stroke-width="1.0"/>
           <path id="arrow"
             d="M 11.500037,31.436501 C 11.940474,20.09759 22.043105,11.32322 32.158766,21.979434 L 37.068811,17.246167 C 37.068811,17.246167 37.088388,32 37.088388,32 L 22.160133,31.978069 C 22.160133,31.978069 26.997745,27.140456 26.997745,27.140456 C 18.528582,18.264221 13.291696,25.230495 11.500037,31.436501 z"
             style="fill:#404040;"/>
          </a>
         </g>
        </svg>
</svg>
