<?xml version="1.0" encoding="UTF-8" standalone="no"?>
<!DOCTYPE svg PUBLIC "-//W3C//DTD SVG 1.1//EN"
 "http://www.w3.org/Graphics/SVG/1.1/DTD/svg11.dtd">
<!-- Generated by graphviz version 2.49.3 (20211215.1918)
 -->
<!-- Title: /github/workspace/src/renderer/vulkan/pushconstant.h Pages: 1 -->
<svg width="1587pt" height="776pt"
 viewBox="0.00 0.00 1586.50 776.00" xmlns="http://www.w3.org/2000/svg" xmlns:xlink="http://www.w3.org/1999/xlink">
<g id="graph0" class="graph" transform="scale(1 1) rotate(0) translate(4 772)">
<title>/github/workspace/src/renderer/vulkan/pushconstant.h</title>
<!-- Node1 -->
<g id="node1" class="node">
<title>Node1</title>
<g id="a_node1"><a xlink:title=" ">
<polygon fill="#bfbfbf" stroke="black" points="545,-737.5 545,-767.5 700,-767.5 700,-737.5 545,-737.5"/>
<text text-anchor="start" x="553" y="-755.5" font-family="Helvetica,sans-Serif" font-size="10.00">/github/workspace/src</text>
<text text-anchor="middle" x="622.5" y="-744.5" font-family="Helvetica,sans-Serif" font-size="10.00">/renderer/vulkan/pushconstant.h</text>
</a>
</g>
</g>
<!-- Node2 -->
<g id="node2" class="node">
<title>Node2</title>
<g id="a_node2"><a xlink:href="pipelinelayout_8h.html" target="_top" xlink:title=" ">
<polygon fill="none" stroke="black" points="456,-670.5 456,-700.5 611,-700.5 611,-670.5 456,-670.5"/>
<text text-anchor="start" x="464" y="-688.5" font-family="Helvetica,sans-Serif" font-size="10.00">/github/workspace/src</text>
<text text-anchor="middle" x="533.5" y="-677.5" font-family="Helvetica,sans-Serif" font-size="10.00">/renderer/vulkan/pipelinelayout.h</text>
</a>
</g>
</g>
<!-- Node1&#45;&gt;Node2 -->
<g id="edge1" class="edge">
<title>Node1&#45;&gt;Node2</title>
<path fill="none" stroke="midnightblue" d="M595.05,-731.45C581.36,-721.45 565.13,-709.6 552.77,-700.58"/>
<polygon fill="midnightblue" stroke="midnightblue" points="593.05,-734.32 603.19,-737.4 597.18,-728.67 593.05,-734.32"/>
</g>
<!-- Node42 -->
<g id="node42" class="node">
<title>Node42</title>
<g id="a_node42"><a xlink:href="pushconstant_8cpp.html" target="_top" xlink:title=" ">
<polygon fill="none" stroke="black" points="629.5,-670.5 629.5,-700.5 795.5,-700.5 795.5,-670.5 629.5,-670.5"/>
<text text-anchor="start" x="637.5" y="-688.5" font-family="Helvetica,sans-Serif" font-size="10.00">/github/workspace/src</text>
<text text-anchor="middle" x="712.5" y="-677.5" font-family="Helvetica,sans-Serif" font-size="10.00">/renderer/vulkan/pushconstant.cpp</text>
</a>
</g>
</g>
<!-- Node1&#45;&gt;Node42 -->
<g id="edge62" class="edge">
<title>Node1&#45;&gt;Node42</title>
<path fill="none" stroke="midnightblue" d="M650.26,-731.45C664.11,-721.45 680.52,-709.6 693.01,-700.58"/>
<polygon fill="midnightblue" stroke="midnightblue" points="648.09,-728.7 642.03,-737.4 652.18,-734.38 648.09,-728.7"/>
</g>
<!-- Node3 -->
<g id="node3" class="node">
<title>Node3</title>
<g id="a_node3"><a xlink:href="commandbuffer_8h.html" target="_top" xlink:title=" ">
<polygon fill="none" stroke="black" points="589.5,-536.5 589.5,-566.5 753.5,-566.5 753.5,-536.5 589.5,-536.5"/>
<text text-anchor="start" x="597.5" y="-554.5" font-family="Helvetica,sans-Serif" font-size="10.00">/github/workspace/src</text>
<text text-anchor="middle" x="671.5" y="-543.5" font-family="Helvetica,sans-Serif" font-size="10.00">/renderer/vulkan/commandbuffer.h</text>
</a>
</g>
</g>
<!-- Node2&#45;&gt;Node3 -->
<g id="edge2" class="edge">
<title>Node2&#45;&gt;Node3</title>
<path fill="none" stroke="midnightblue" d="M533.51,-660.27C534.75,-642.55 539.1,-618.93 552.5,-603 567.09,-585.65 588.69,-574.13 609.5,-566.54"/>
<polygon fill="midnightblue" stroke="midnightblue" points="530.01,-660.28 533.09,-670.42 537.01,-660.57 530.01,-660.28"/>
</g>
<!-- Node39 -->
<g id="node39" class="node">
<title>Node39</title>
<g id="a_node39"><a xlink:href="pipelinebase_8h.html" target="_top" xlink:title=" ">
<polygon fill="none" stroke="black" points="274,-603.5 274,-633.5 425,-633.5 425,-603.5 274,-603.5"/>
<text text-anchor="start" x="282" y="-621.5" font-family="Helvetica,sans-Serif" font-size="10.00">/github/workspace/src</text>
<text text-anchor="middle" x="349.5" y="-610.5" font-family="Helvetica,sans-Serif" font-size="10.00">/renderer/vulkan/pipelinebase.h</text>
</a>
</g>
</g>
<!-- Node2&#45;&gt;Node39 -->
<g id="edge57" class="edge">
<title>Node2&#45;&gt;Node39</title>
<path fill="none" stroke="midnightblue" d="M483.83,-666.96C454.2,-656.48 417.06,-643.37 389.35,-633.58"/>
<polygon fill="midnightblue" stroke="midnightblue" points="482.98,-670.37 493.57,-670.4 485.31,-663.76 482.98,-670.37"/>
</g>
<!-- Node41 -->
<g id="node41" class="node">
<title>Node41</title>
<g id="a_node41"><a xlink:href="pipelinelayout_8cpp.html" target="_top" xlink:title=" ">
<polygon fill="none" stroke="black" points="561.5,-603.5 561.5,-633.5 727.5,-633.5 727.5,-603.5 561.5,-603.5"/>
<text text-anchor="start" x="569.5" y="-621.5" font-family="Helvetica,sans-Serif" font-size="10.00">/github/workspace/src</text>
<text text-anchor="middle" x="644.5" y="-610.5" font-family="Helvetica,sans-Serif" font-size="10.00">/renderer/vulkan/pipelinelayout.cpp</text>
</a>
</g>
</g>
<!-- Node2&#45;&gt;Node41 -->
<g id="edge61" class="edge">
<title>Node2&#45;&gt;Node41</title>
<path fill="none" stroke="midnightblue" d="M566.3,-665.3C583.66,-655.12 604.62,-642.85 620.46,-633.58"/>
<polygon fill="midnightblue" stroke="midnightblue" points="564.45,-662.32 557.59,-670.4 567.98,-668.36 564.45,-662.32"/>
</g>
<!-- Node4 -->
<g id="node4" class="node">
<title>Node4</title>
<g id="a_node4"><a xlink:href="buffer_8h.html" target="_top" xlink:title=" ">
<polygon fill="none" stroke="black" points="973,-469.5 973,-499.5 1094,-499.5 1094,-469.5 973,-469.5"/>
<text text-anchor="start" x="981" y="-487.5" font-family="Helvetica,sans-Serif" font-size="10.00">/github/workspace/src</text>
<text text-anchor="middle" x="1033.5" y="-476.5" font-family="Helvetica,sans-Serif" font-size="10.00">/renderer/vulkan/buffer.h</text>
</a>
</g>
</g>
<!-- Node3&#45;&gt;Node4 -->
<g id="edge3" class="edge">
<title>Node3&#45;&gt;Node4</title>
<path fill="none" stroke="midnightblue" d="M759.6,-534.68C825.73,-522.81 914.56,-506.86 972.88,-496.38"/>
<polygon fill="midnightblue" stroke="midnightblue" points="758.83,-531.26 749.6,-536.48 760.06,-538.15 758.83,-531.26"/>
</g>
<!-- Node29 -->
<g id="node29" class="node">
<title>Node29</title>
<g id="a_node29"><a xlink:href="vulkan__voxel__rasterizer_8cpp.html" target="_top" xlink:title=" ">
<polygon fill="none" stroke="black" points="669.5,-268.5 669.5,-298.5 833.5,-298.5 833.5,-268.5 669.5,-268.5"/>
<text text-anchor="start" x="677.5" y="-286.5" font-family="Helvetica,sans-Serif" font-size="10.00">/github/workspace/src</text>
<text text-anchor="middle" x="751.5" y="-275.5" font-family="Helvetica,sans-Serif" font-size="10.00">/tests/vulkan_voxel_rasterizer.cpp</text>
</a>
</g>
</g>
<!-- Node3&#45;&gt;Node29 -->
<g id="edge56" class="edge">
<title>Node3&#45;&gt;Node29</title>
<path fill="none" stroke="midnightblue" d="M710.08,-531.08C723.11,-522.96 736.79,-512.48 746.5,-500 785.34,-450.07 783.67,-428.33 794.5,-366 796.86,-352.43 799.26,-347.93 794.5,-335 789.25,-320.74 777.98,-307.76 768.3,-298.53"/>
<polygon fill="midnightblue" stroke="midnightblue" points="708.05,-528.22 701.23,-536.32 711.61,-534.24 708.05,-528.22"/>
</g>
<!-- Node30 -->
<g id="node30" class="node">
<title>Node30</title>
<g id="a_node30"><a xlink:href="commandbuffer_8cpp.html" target="_top" xlink:title=" ">
<polygon fill="none" stroke="black" points="527.5,-469.5 527.5,-499.5 701.5,-499.5 701.5,-469.5 527.5,-469.5"/>
<text text-anchor="start" x="535.5" y="-487.5" font-family="Helvetica,sans-Serif" font-size="10.00">/github/workspace/src</text>
<text text-anchor="middle" x="614.5" y="-476.5" font-family="Helvetica,sans-Serif" font-size="10.00">/renderer/vulkan/commandbuffer.cpp</text>
</a>
</g>
</g>
<!-- Node3&#45;&gt;Node30 -->
<g id="edge34" class="edge">
<title>Node3&#45;&gt;Node30</title>
<path fill="none" stroke="midnightblue" d="M652.41,-528.74C643.98,-519.12 634.31,-508.09 626.84,-499.58"/>
<polygon fill="midnightblue" stroke="midnightblue" points="649.91,-531.18 659.13,-536.4 655.17,-526.57 649.91,-531.18"/>
</g>
<!-- Node31 -->
<g id="node31" class="node">
<title>Node31</title>
<g id="a_node31"><a xlink:href="swapchain_8h.html" target="_top" xlink:title=" ">
<polygon fill="none" stroke="black" points="366,-469.5 366,-499.5 509,-499.5 509,-469.5 366,-469.5"/>
<text text-anchor="start" x="374" y="-487.5" font-family="Helvetica,sans-Serif" font-size="10.00">/github/workspace/src</text>
<text text-anchor="middle" x="437.5" y="-476.5" font-family="Helvetica,sans-Serif" font-size="10.00">/renderer/vulkan/swapchain.h</text>
</a>
</g>
</g>
<!-- Node3&#45;&gt;Node31 -->
<g id="edge35" class="edge">
<title>Node3&#45;&gt;Node31</title>
<path fill="none" stroke="midnightblue" d="M611.07,-533.71C572.99,-523.14 524.39,-509.63 488.3,-499.61"/>
<polygon fill="midnightblue" stroke="midnightblue" points="610.44,-537.17 621.01,-536.48 612.32,-530.43 610.44,-537.17"/>
</g>
<!-- Node5 -->
<g id="node5" class="node">
<title>Node5</title>
<g id="a_node5"><a xlink:href="buffer_8cpp.html" target="_top" xlink:title=" ">
<polygon fill="none" stroke="black" points="888,-402.5 888,-432.5 1019,-432.5 1019,-402.5 888,-402.5"/>
<text text-anchor="start" x="896" y="-420.5" font-family="Helvetica,sans-Serif" font-size="10.00">/github/workspace/src</text>
<text text-anchor="middle" x="953.5" y="-409.5" font-family="Helvetica,sans-Serif" font-size="10.00">/renderer/vulkan/buffer.cpp</text>
</a>
</g>
</g>
<!-- Node4&#45;&gt;Node5 -->
<g id="edge4" class="edge">
<title>Node4&#45;&gt;Node5</title>
<path fill="none" stroke="midnightblue" d="M1008.13,-462.88C995.97,-453.01 981.72,-441.43 970.82,-432.58"/>
<polygon fill="midnightblue" stroke="midnightblue" points="1006.17,-465.81 1016.14,-469.4 1010.59,-460.37 1006.17,-465.81"/>
</g>
<!-- Node6 -->
<g id="node6" class="node">
<title>Node6</title>
<g id="a_node6"><a xlink:href="bufferview_8h.html" target="_top" xlink:title=" ">
<polygon fill="none" stroke="black" points="1220,-402.5 1220,-432.5 1361,-432.5 1361,-402.5 1220,-402.5"/>
<text text-anchor="start" x="1228" y="-420.5" font-family="Helvetica,sans-Serif" font-size="10.00">/github/workspace/src</text>
<text text-anchor="middle" x="1290.5" y="-409.5" font-family="Helvetica,sans-Serif" font-size="10.00">/renderer/vulkan/bufferview.h</text>
</a>
</g>
</g>
<!-- Node4&#45;&gt;Node6 -->
<g id="edge5" class="edge">
<title>Node4&#45;&gt;Node6</title>
<path fill="none" stroke="midnightblue" d="M1098.8,-466.98C1140.78,-456.37 1194.74,-442.72 1234.71,-432.61"/>
<polygon fill="midnightblue" stroke="midnightblue" points="1097.79,-463.63 1088.95,-469.48 1099.5,-470.42 1097.79,-463.63"/>
</g>
<!-- Node8 -->
<g id="node8" class="node">
<title>Node8</title>
<g id="a_node8"><a xlink:href="uniformbuffer_8h.html" target="_top" xlink:title=" ">
<polygon fill="none" stroke="black" points="1037,-402.5 1037,-432.5 1190,-432.5 1190,-402.5 1037,-402.5"/>
<text text-anchor="start" x="1045" y="-420.5" font-family="Helvetica,sans-Serif" font-size="10.00">/github/workspace/src</text>
<text text-anchor="middle" x="1113.5" y="-409.5" font-family="Helvetica,sans-Serif" font-size="10.00">/renderer/vulkan/uniformbuffer.h</text>
</a>
</g>
</g>
<!-- Node4&#45;&gt;Node8 -->
<g id="edge7" class="edge">
<title>Node4&#45;&gt;Node8</title>
<path fill="none" stroke="midnightblue" d="M1058.87,-462.88C1071.03,-453.01 1085.28,-441.43 1096.18,-432.58"/>
<polygon fill="midnightblue" stroke="midnightblue" points="1056.41,-460.37 1050.86,-469.4 1060.83,-465.81 1056.41,-460.37"/>
</g>
<!-- Node7 -->
<g id="node7" class="node">
<title>Node7</title>
<g id="a_node7"><a xlink:href="bufferview_8cpp.html" target="_top" xlink:title=" ">
<polygon fill="none" stroke="black" points="1227.5,-335.5 1227.5,-365.5 1379.5,-365.5 1379.5,-335.5 1227.5,-335.5"/>
<text text-anchor="start" x="1235.5" y="-353.5" font-family="Helvetica,sans-Serif" font-size="10.00">/github/workspace/src</text>
<text text-anchor="middle" x="1303.5" y="-342.5" font-family="Helvetica,sans-Serif" font-size="10.00">/renderer/vulkan/bufferview.cpp</text>
</a>
</g>
</g>
<!-- Node6&#45;&gt;Node7 -->
<g id="edge6" class="edge">
<title>Node6&#45;&gt;Node7</title>
<path fill="none" stroke="midnightblue" d="M1295.32,-392.4C1297.13,-383.37 1299.12,-373.41 1300.68,-365.58"/>
<polygon fill="midnightblue" stroke="midnightblue" points="1291.85,-391.9 1293.32,-402.4 1298.71,-393.28 1291.85,-391.9"/>
</g>
<!-- Node9 -->
<g id="node9" class="node">
<title>Node9</title>
<g id="a_node9"><a xlink:href="materiallibrary_8h.html" target="_top" xlink:title=" ">
<polygon fill="none" stroke="black" points="1084,-335.5 1084,-365.5 1209,-365.5 1209,-335.5 1084,-335.5"/>
<text text-anchor="start" x="1092" y="-353.5" font-family="Helvetica,sans-Serif" font-size="10.00">/github/workspace/src</text>
<text text-anchor="middle" x="1146.5" y="-342.5" font-family="Helvetica,sans-Serif" font-size="10.00">/renderer/materiallibrary.h</text>
</a>
</g>
</g>
<!-- Node8&#45;&gt;Node9 -->
<g id="edge8" class="edge">
<title>Node8&#45;&gt;Node9</title>
<path fill="none" stroke="midnightblue" d="M1125.29,-393.28C1129.99,-384.02 1135.25,-373.66 1139.35,-365.58"/>
<polygon fill="midnightblue" stroke="midnightblue" points="1122.07,-391.89 1120.66,-402.4 1128.31,-395.06 1122.07,-391.89"/>
</g>
<!-- Node24 -->
<g id="node24" class="node">
<title>Node24</title>
<g id="a_node24"><a xlink:href="descriptorset_8h.html" target="_top" xlink:title=" ">
<polygon fill="none" stroke="black" points="1398,-335.5 1398,-365.5 1551,-365.5 1551,-335.5 1398,-335.5"/>
<text text-anchor="start" x="1406" y="-353.5" font-family="Helvetica,sans-Serif" font-size="10.00">/github/workspace/src</text>
<text text-anchor="middle" x="1474.5" y="-342.5" font-family="Helvetica,sans-Serif" font-size="10.00">/renderer/vulkan/descriptorset.h</text>
</a>
</g>
</g>
<!-- Node8&#45;&gt;Node24 -->
<g id="edge26" class="edge">
<title>Node8&#45;&gt;Node24</title>
<path fill="none" stroke="midnightblue" d="M1199.93,-400.94C1260.15,-390.1 1339.76,-375.76 1397.74,-365.32"/>
<polygon fill="midnightblue" stroke="midnightblue" points="1199.28,-397.5 1190.06,-402.72 1200.52,-404.39 1199.28,-397.5"/>
</g>
<!-- Node28 -->
<g id="node28" class="node">
<title>Node28</title>
<g id="a_node28"><a xlink:href="uniformbuffer_8cpp.html" target="_top" xlink:title=" ">
<polygon fill="none" stroke="black" points="863.5,-335.5 863.5,-365.5 1027.5,-365.5 1027.5,-335.5 863.5,-335.5"/>
<text text-anchor="start" x="871.5" y="-353.5" font-family="Helvetica,sans-Serif" font-size="10.00">/github/workspace/src</text>
<text text-anchor="middle" x="945.5" y="-342.5" font-family="Helvetica,sans-Serif" font-size="10.00">/renderer/vulkan/uniformbuffer.cpp</text>
</a>
</g>
</g>
<!-- Node8&#45;&gt;Node28 -->
<g id="edge32" class="edge">
<title>Node8&#45;&gt;Node28</title>
<path fill="none" stroke="midnightblue" d="M1067.45,-398.68C1040.5,-388.26 1006.96,-375.28 981.88,-365.58"/>
<polygon fill="midnightblue" stroke="midnightblue" points="1066.46,-402.05 1077.05,-402.4 1068.98,-395.52 1066.46,-402.05"/>
</g>
<!-- Node8&#45;&gt;Node29 -->
<g id="edge33" class="edge">
<title>Node8&#45;&gt;Node29</title>
<path fill="none" stroke="midnightblue" d="M1098.58,-394.01C1084.79,-375.12 1062.53,-349.04 1036.5,-335 1002.22,-316.52 904.97,-301.9 833.57,-293.25"/>
<polygon fill="midnightblue" stroke="midnightblue" points="1095.85,-396.21 1104.48,-402.36 1101.57,-392.17 1095.85,-396.21"/>
</g>
<!-- Node10 -->
<g id="node10" class="node">
<title>Node10</title>
<g id="a_node10"><a xlink:href="material_8h.html" target="_top" xlink:title=" ">
<polygon fill="none" stroke="black" points="909,-268.5 909,-298.5 1022,-298.5 1022,-268.5 909,-268.5"/>
<text text-anchor="start" x="917" y="-286.5" font-family="Helvetica,sans-Serif" font-size="10.00">/github/workspace/src</text>
<text text-anchor="middle" x="965.5" y="-275.5" font-family="Helvetica,sans-Serif" font-size="10.00">/renderer/material.h</text>
</a>
</g>
</g>
<!-- Node9&#45;&gt;Node10 -->
<g id="edge9" class="edge">
<title>Node9&#45;&gt;Node10</title>
<path fill="none" stroke="midnightblue" d="M1091.97,-332.09C1061.71,-321.6 1025.11,-308.41 999.02,-298.58"/>
<polygon fill="midnightblue" stroke="midnightblue" points="1090.95,-335.44 1101.55,-335.4 1093.24,-328.83 1090.95,-335.44"/>
</g>
<!-- Node23 -->
<g id="node23" class="node">
<title>Node23</title>
<g id="a_node23"><a xlink:href="materiallibrary_8cpp.html" target="_top" xlink:title=" ">
<polygon fill="none" stroke="black" points="1078.5,-268.5 1078.5,-298.5 1214.5,-298.5 1214.5,-268.5 1078.5,-268.5"/>
<text text-anchor="start" x="1086.5" y="-286.5" font-family="Helvetica,sans-Serif" font-size="10.00">/github/workspace/src</text>
<text text-anchor="middle" x="1146.5" y="-275.5" font-family="Helvetica,sans-Serif" font-size="10.00">/renderer/materiallibrary.cpp</text>
</a>
</g>
</g>
<!-- Node9&#45;&gt;Node23 -->
<g id="edge25" class="edge">
<title>Node9&#45;&gt;Node23</title>
<path fill="none" stroke="midnightblue" d="M1146.5,-325.11C1146.5,-316.15 1146.5,-306.32 1146.5,-298.58"/>
<polygon fill="midnightblue" stroke="midnightblue" points="1143,-325.4 1146.5,-335.4 1150,-325.4 1143,-325.4"/>
</g>
<!-- Node10&#45;&gt;Node9 -->
<g id="edge14" class="edge">
<title>Node10&#45;&gt;Node9</title>
<path fill="none" stroke="midnightblue" d="M1019.95,-301.88C1050.19,-312.37 1086.8,-325.56 1112.9,-335.4"/>
<polygon fill="midnightblue" stroke="midnightblue" points="1020.97,-298.53 1010.37,-298.58 1018.68,-305.15 1020.97,-298.53"/>
</g>
<!-- Node11 -->
<g id="node11" class="node">
<title>Node11</title>
<g id="a_node11"><a xlink:href="mastermaterial_8h.html" target="_top" xlink:title=" ">
<polygon fill="none" stroke="black" points="900.5,-201.5 900.5,-231.5 1030.5,-231.5 1030.5,-201.5 900.5,-201.5"/>
<text text-anchor="start" x="908.5" y="-219.5" font-family="Helvetica,sans-Serif" font-size="10.00">/github/workspace/src</text>
<text text-anchor="middle" x="965.5" y="-208.5" font-family="Helvetica,sans-Serif" font-size="10.00">/renderer/mastermaterial.h</text>
</a>
</g>
</g>
<!-- Node10&#45;&gt;Node11 -->
<g id="edge10" class="edge">
<title>Node10&#45;&gt;Node11</title>
<path fill="none" stroke="midnightblue" d="M965.5,-258.11C965.5,-249.15 965.5,-239.32 965.5,-231.58"/>
<polygon fill="midnightblue" stroke="midnightblue" points="962,-258.4 965.5,-268.4 969,-258.4 962,-258.4"/>
</g>
<!-- Node13 -->
<g id="node13" class="node">
<title>Node13</title>
<g id="a_node13"><a xlink:href="material_8cpp.html" target="_top" xlink:title=" ">
<polygon fill="none" stroke="black" points="1049,-201.5 1049,-231.5 1162,-231.5 1162,-201.5 1049,-201.5"/>
<text text-anchor="start" x="1057" y="-219.5" font-family="Helvetica,sans-Serif" font-size="10.00">/github/workspace/src</text>
<text text-anchor="middle" x="1105.5" y="-208.5" font-family="Helvetica,sans-Serif" font-size="10.00">/renderer/material.cpp</text>
</a>
</g>
</g>
<!-- Node10&#45;&gt;Node13 -->
<g id="edge13" class="edge">
<title>Node10&#45;&gt;Node13</title>
<path fill="none" stroke="midnightblue" d="M1005.07,-264.13C1027.31,-253.8 1054.65,-241.11 1075.18,-231.58"/>
<polygon fill="midnightblue" stroke="midnightblue" points="1003.47,-261.01 995.88,-268.4 1006.42,-267.36 1003.47,-261.01"/>
</g>
<!-- Node14 -->
<g id="node14" class="node">
<title>Node14</title>
<g id="a_node14"><a xlink:href="mesh_8h.html" target="_top" xlink:title=" ">
<polygon fill="none" stroke="black" points="731,-201.5 731,-231.5 844,-231.5 844,-201.5 731,-201.5"/>
<text text-anchor="start" x="739" y="-219.5" font-family="Helvetica,sans-Serif" font-size="10.00">/github/workspace/src</text>
<text text-anchor="middle" x="787.5" y="-208.5" font-family="Helvetica,sans-Serif" font-size="10.00">/renderer/mesh.h</text>
</a>
</g>
</g>
<!-- Node10&#45;&gt;Node14 -->
<g id="edge15" class="edge">
<title>Node10&#45;&gt;Node14</title>
<path fill="none" stroke="midnightblue" d="M917.45,-264.96C888.78,-254.48 852.86,-241.37 826.05,-231.58"/>
<polygon fill="midnightblue" stroke="midnightblue" points="916.28,-268.25 926.88,-268.4 918.68,-261.68 916.28,-268.25"/>
</g>
<!-- Node11&#45;&gt;Node9 -->
<g id="edge12" class="edge">
<title>Node11&#45;&gt;Node9</title>
<path fill="none" stroke="midnightblue" d="M992.67,-237.99C1004.64,-247.09 1018.84,-258 1031.5,-268 1048.6,-281.51 1051.92,-286.12 1069.5,-299 1087.17,-311.95 1107.98,-325.5 1123.51,-335.3"/>
<polygon fill="midnightblue" stroke="midnightblue" points="994.48,-234.97 984.4,-231.71 990.25,-240.54 994.48,-234.97"/>
</g>
<!-- Node12 -->
<g id="node12" class="node">
<title>Node12</title>
<g id="a_node12"><a xlink:href="mastermaterial_8cpp.html" target="_top" xlink:title=" ">
<polygon fill="none" stroke="black" points="970.5,-134.5 970.5,-164.5 1110.5,-164.5 1110.5,-134.5 970.5,-134.5"/>
<text text-anchor="start" x="978.5" y="-152.5" font-family="Helvetica,sans-Serif" font-size="10.00">/github/workspace/src</text>
<text text-anchor="middle" x="1040.5" y="-141.5" font-family="Helvetica,sans-Serif" font-size="10.00">/renderer/mastermaterial.cpp</text>
</a>
</g>
</g>
<!-- Node11&#45;&gt;Node12 -->
<g id="edge11" class="edge">
<title>Node11&#45;&gt;Node12</title>
<path fill="none" stroke="midnightblue" d="M989.62,-194.6C1000.94,-184.78 1014.14,-173.34 1024.26,-164.58"/>
<polygon fill="midnightblue" stroke="midnightblue" points="987.04,-192.2 981.77,-201.4 991.62,-197.49 987.04,-192.2"/>
</g>
<!-- Node15 -->
<g id="node15" class="node">
<title>Node15</title>
<g id="a_node15"><a xlink:href="mesh_8cpp.html" target="_top" xlink:title=" ">
<polygon fill="none" stroke="black" points="693,-134.5 693,-164.5 806,-164.5 806,-134.5 693,-134.5"/>
<text text-anchor="start" x="701" y="-152.5" font-family="Helvetica,sans-Serif" font-size="10.00">/github/workspace/src</text>
<text text-anchor="middle" x="749.5" y="-141.5" font-family="Helvetica,sans-Serif" font-size="10.00">/renderer/mesh.cpp</text>
</a>
</g>
</g>
<!-- Node14&#45;&gt;Node15 -->
<g id="edge16" class="edge">
<title>Node14&#45;&gt;Node15</title>
<path fill="none" stroke="midnightblue" d="M774.1,-192.58C768.64,-183.24 762.51,-172.75 757.73,-164.58"/>
<polygon fill="midnightblue" stroke="midnightblue" points="771.19,-194.53 779.25,-201.4 777.23,-191 771.19,-194.53"/>
</g>
<!-- Node16 -->
<g id="node16" class="node">
<title>Node16</title>
<g id="a_node16"><a xlink:href="modelloader_8h.html" target="_top" xlink:title=" ">
<polygon fill="none" stroke="black" points="556.5,-134.5 556.5,-164.5 674.5,-164.5 674.5,-134.5 556.5,-134.5"/>
<text text-anchor="start" x="564.5" y="-152.5" font-family="Helvetica,sans-Serif" font-size="10.00">/github/workspace/src</text>
<text text-anchor="middle" x="615.5" y="-141.5" font-family="Helvetica,sans-Serif" font-size="10.00">/renderer/modelloader.h</text>
</a>
</g>
</g>
<!-- Node14&#45;&gt;Node16 -->
<g id="edge17" class="edge">
<title>Node14&#45;&gt;Node16</title>
<path fill="none" stroke="midnightblue" d="M740.71,-197.82C713.07,-187.37 678.54,-174.32 652.75,-164.58"/>
<polygon fill="midnightblue" stroke="midnightblue" points="739.59,-201.13 750.18,-201.4 742.06,-194.59 739.59,-201.13"/>
</g>
<!-- Node19 -->
<g id="node19" class="node">
<title>Node19</title>
<g id="a_node19"><a xlink:href="objectinstance_8h.html" target="_top" xlink:title=" ">
<polygon fill="none" stroke="black" points="824.5,-134.5 824.5,-164.5 952.5,-164.5 952.5,-134.5 824.5,-134.5"/>
<text text-anchor="start" x="832.5" y="-152.5" font-family="Helvetica,sans-Serif" font-size="10.00">/github/workspace/src</text>
<text text-anchor="middle" x="888.5" y="-141.5" font-family="Helvetica,sans-Serif" font-size="10.00">/renderer/objectinstance.h</text>
</a>
</g>
</g>
<!-- Node14&#45;&gt;Node19 -->
<g id="edge20" class="edge">
<title>Node14&#45;&gt;Node19</title>
<path fill="none" stroke="midnightblue" d="M818.21,-195.73C833.84,-185.68 852.47,-173.68 866.63,-164.58"/>
<polygon fill="midnightblue" stroke="midnightblue" points="815.93,-193.04 809.42,-201.4 819.72,-198.93 815.93,-193.04"/>
</g>
<!-- Node17 -->
<g id="node17" class="node">
<title>Node17</title>
<g id="a_node17"><a xlink:href="modelloader_8cpp.html" target="_top" xlink:title=" ">
<polygon fill="none" stroke="black" points="581.5,-67.5 581.5,-97.5 709.5,-97.5 709.5,-67.5 581.5,-67.5"/>
<text text-anchor="start" x="589.5" y="-85.5" font-family="Helvetica,sans-Serif" font-size="10.00">/github/workspace/src</text>
<text text-anchor="middle" x="645.5" y="-74.5" font-family="Helvetica,sans-Serif" font-size="10.00">/renderer/modelloader.cpp</text>
</a>
</g>
</g>
<!-- Node16&#45;&gt;Node17 -->
<g id="edge18" class="edge">
<title>Node16&#45;&gt;Node17</title>
<path fill="none" stroke="midnightblue" d="M626.22,-125.28C630.49,-116.02 635.27,-105.66 639,-97.58"/>
<polygon fill="midnightblue" stroke="midnightblue" points="623.02,-123.85 622.01,-134.4 629.38,-126.78 623.02,-123.85"/>
</g>
<!-- Node18 -->
<g id="node18" class="node">
<title>Node18</title>
<g id="a_node18"><a xlink:href="vulkan__voxel__rasterizer__2_8cpp.html" target="_top" xlink:title=" ">
<polygon fill="none" stroke="black" points="466.5,-0.5 466.5,-30.5 640.5,-30.5 640.5,-0.5 466.5,-0.5"/>
<text text-anchor="start" x="474.5" y="-18.5" font-family="Helvetica,sans-Serif" font-size="10.00">/github/workspace/src</text>
<text text-anchor="middle" x="553.5" y="-7.5" font-family="Helvetica,sans-Serif" font-size="10.00">/tests/vulkan_voxel_rasterizer_2.cpp</text>
</a>
</g>
</g>
<!-- Node16&#45;&gt;Node18 -->
<g id="edge19" class="edge">
<title>Node16&#45;&gt;Node18</title>
<path fill="none" stroke="midnightblue" d="M593.18,-126.93C585.62,-118.54 577.77,-108.44 572.5,-98 561.44,-76.08 556.7,-47.58 554.76,-30.74"/>
<polygon fill="midnightblue" stroke="midnightblue" points="590.83,-129.55 600.25,-134.41 595.92,-124.74 590.83,-129.55"/>
</g>
<!-- Node20 -->
<g id="node20" class="node">
<title>Node20</title>
<g id="a_node20"><a xlink:href="objectinstance_8cpp.html" target="_top" xlink:title=" ">
<polygon fill="none" stroke="black" points="788,-67.5 788,-97.5 927,-97.5 927,-67.5 788,-67.5"/>
<text text-anchor="start" x="796" y="-85.5" font-family="Helvetica,sans-Serif" font-size="10.00">/github/workspace/src</text>
<text text-anchor="middle" x="857.5" y="-74.5" font-family="Helvetica,sans-Serif" font-size="10.00">/renderer/objectinstance.cpp</text>
</a>
</g>
</g>
<!-- Node19&#45;&gt;Node20 -->
<g id="edge21" class="edge">
<title>Node19&#45;&gt;Node20</title>
<path fill="none" stroke="midnightblue" d="M877.43,-125.28C873.01,-116.02 868.07,-105.66 864.21,-97.58"/>
<polygon fill="midnightblue" stroke="midnightblue" points="874.31,-126.88 881.77,-134.4 880.63,-123.86 874.31,-126.88"/>
</g>
<!-- Node21 -->
<g id="node21" class="node">
<title>Node21</title>
<g id="a_node21"><a xlink:href="scene_8h.html" target="_top" xlink:title=" ">
<polygon fill="none" stroke="black" points="945,-67.5 945,-97.5 1058,-97.5 1058,-67.5 945,-67.5"/>
<text text-anchor="start" x="953" y="-85.5" font-family="Helvetica,sans-Serif" font-size="10.00">/github/workspace/src</text>
<text text-anchor="middle" x="1001.5" y="-74.5" font-family="Helvetica,sans-Serif" font-size="10.00">/renderer/scene.h</text>
</a>
</g>
</g>
<!-- Node19&#45;&gt;Node21 -->
<g id="edge22" class="edge">
<title>Node19&#45;&gt;Node21</title>
<path fill="none" stroke="midnightblue" d="M921.89,-129.3C939.57,-119.12 960.9,-106.85 977.03,-97.58"/>
<polygon fill="midnightblue" stroke="midnightblue" points="919.94,-126.38 913.02,-134.4 923.43,-132.44 919.94,-126.38"/>
</g>
<!-- Node21&#45;&gt;Node18 -->
<g id="edge24" class="edge">
<title>Node21&#45;&gt;Node18</title>
<path fill="none" stroke="midnightblue" d="M934.89,-66.8C828.41,-48.23 716.03,-34.29 640.54,-25.76"/>
<polygon fill="midnightblue" stroke="midnightblue" points="934.38,-70.26 944.84,-68.55 935.6,-63.37 934.38,-70.26"/>
</g>
<!-- Node22 -->
<g id="node22" class="node">
<title>Node22</title>
<g id="a_node22"><a xlink:href="scene_8cpp.html" target="_top" xlink:title=" ">
<polygon fill="none" stroke="black" points="945,-0.5 945,-30.5 1058,-30.5 1058,-0.5 945,-0.5"/>
<text text-anchor="start" x="953" y="-18.5" font-family="Helvetica,sans-Serif" font-size="10.00">/github/workspace/src</text>
<text text-anchor="middle" x="1001.5" y="-7.5" font-family="Helvetica,sans-Serif" font-size="10.00">/renderer/scene.cpp</text>
</a>
</g>
</g>
<!-- Node21&#45;&gt;Node22 -->
<g id="edge23" class="edge">
<title>Node21&#45;&gt;Node22</title>
<path fill="none" stroke="midnightblue" d="M1001.5,-57.11C1001.5,-48.15 1001.5,-38.32 1001.5,-30.58"/>
<polygon fill="midnightblue" stroke="midnightblue" points="998,-57.4 1001.5,-67.4 1005,-57.4 998,-57.4"/>
</g>
<!-- Node24&#45;&gt;Node3 -->
<g id="edge30" class="edge">
<title>Node24&#45;&gt;Node3</title>
<path fill="none" stroke="midnightblue" d="M1453.43,-372.43C1433.62,-390.96 1402.33,-417.42 1370.5,-433 1260.62,-486.8 1223.84,-477.96 1103.5,-500 982.62,-522.14 840.83,-536.54 753.58,-544.09"/>
<polygon fill="midnightblue" stroke="midnightblue" points="1455.86,-374.95 1460.68,-365.51 1451.03,-369.88 1455.86,-374.95"/>
</g>
<!-- Node25 -->
<g id="node25" class="node">
<title>Node25</title>
<g id="a_node25"><a xlink:href="descriptorpoolmanager_8h.html" target="_top" xlink:title=" ">
<polygon fill="none" stroke="black" points="1414.5,-268.5 1414.5,-298.5 1578.5,-298.5 1578.5,-268.5 1414.5,-268.5"/>
<text text-anchor="start" x="1422.5" y="-286.5" font-family="Helvetica,sans-Serif" font-size="10.00">/github/workspace/src</text>
<text text-anchor="middle" x="1496.5" y="-275.5" font-family="Helvetica,sans-Serif" font-size="10.00">/renderer/descriptorpoolmanager.h</text>
</a>
</g>
</g>
<!-- Node24&#45;&gt;Node25 -->
<g id="edge27" class="edge">
<title>Node24&#45;&gt;Node25</title>
<path fill="none" stroke="midnightblue" d="M1482.56,-325.7C1485.64,-316.59 1489.06,-306.49 1491.74,-298.58"/>
<polygon fill="midnightblue" stroke="midnightblue" points="1479.16,-324.8 1479.27,-335.4 1485.79,-327.05 1479.16,-324.8"/>
</g>
<!-- Node27 -->
<g id="node27" class="node">
<title>Node27</title>
<g id="a_node27"><a xlink:href="descriptorset_8cpp.html" target="_top" xlink:title=" ">
<polygon fill="none" stroke="black" points="1232.5,-268.5 1232.5,-298.5 1396.5,-298.5 1396.5,-268.5 1232.5,-268.5"/>
<text text-anchor="start" x="1240.5" y="-286.5" font-family="Helvetica,sans-Serif" font-size="10.00">/github/workspace/src</text>
<text text-anchor="middle" x="1314.5" y="-275.5" font-family="Helvetica,sans-Serif" font-size="10.00">/renderer/vulkan/descriptorset.cpp</text>
</a>
</g>
</g>
<!-- Node24&#45;&gt;Node27 -->
<g id="edge31" class="edge">
<title>Node24&#45;&gt;Node27</title>
<path fill="none" stroke="midnightblue" d="M1430.3,-331.54C1404.7,-321.14 1372.93,-308.24 1349.15,-298.58"/>
<polygon fill="midnightblue" stroke="midnightblue" points="1429.2,-334.87 1439.78,-335.4 1431.84,-328.39 1429.2,-334.87"/>
</g>
<!-- Node25&#45;&gt;Node21 -->
<g id="edge29" class="edge">
<title>Node25&#45;&gt;Node21</title>
<path fill="none" stroke="midnightblue" d="M1497.22,-258.19C1496.42,-240.07 1492.28,-215.97 1477.5,-201 1418.9,-141.63 1171.01,-104.3 1058.03,-90.05"/>
<polygon fill="midnightblue" stroke="midnightblue" points="1493.73,-258.36 1497.37,-268.31 1500.73,-258.26 1493.73,-258.36"/>
</g>
<!-- Node26 -->
<g id="node26" class="node">
<title>Node26</title>
<g id="a_node26"><a xlink:href="descriptorpoolmanager_8cpp.html" target="_top" xlink:title=" ">
<polygon fill="none" stroke="black" points="1294.5,-201.5 1294.5,-231.5 1468.5,-231.5 1468.5,-201.5 1294.5,-201.5"/>
<text text-anchor="start" x="1302.5" y="-219.5" font-family="Helvetica,sans-Serif" font-size="10.00">/github/workspace/src</text>
<text text-anchor="middle" x="1381.5" y="-208.5" font-family="Helvetica,sans-Serif" font-size="10.00">/renderer/descriptorpoolmanager.cpp</text>
</a>
</g>
</g>
<!-- Node25&#45;&gt;Node26 -->
<g id="edge28" class="edge">
<title>Node25&#45;&gt;Node26</title>
<path fill="none" stroke="midnightblue" d="M1462.52,-263.3C1444.53,-253.12 1422.82,-240.85 1406.4,-231.58"/>
<polygon fill="midnightblue" stroke="midnightblue" points="1461.12,-266.52 1471.55,-268.4 1464.56,-260.43 1461.12,-266.52"/>
</g>
<!-- Node31&#45;&gt;Node18 -->
<g id="edge55" class="edge">
<title>Node31&#45;&gt;Node18</title>
<path fill="none" stroke="midnightblue" d="M355.58,-479.61C271.06,-470.67 151.5,-442.02 151.5,-351.5 151.5,-351.5 151.5,-351.5 151.5,-148.5 151.5,-82.76 348.04,-44.41 466.27,-27.3"/>
<polygon fill="midnightblue" stroke="midnightblue" points="355.4,-483.11 365.7,-480.61 356.09,-476.14 355.4,-483.11"/>
</g>
<!-- Node31&#45;&gt;Node29 -->
<g id="edge54" class="edge">
<title>Node31&#45;&gt;Node29</title>
<path fill="none" stroke="midnightblue" d="M438.61,-459.19C438.95,-450.89 439.29,-441.54 439.5,-433 439.53,-431.64 439.61,-336.03 440.5,-335 447.99,-326.29 579.58,-307.26 669.17,-295.21"/>
<polygon fill="midnightblue" stroke="midnightblue" points="435.1,-459.21 438.17,-469.35 442.1,-459.51 435.1,-459.21"/>
</g>
<!-- Node32 -->
<g id="node32" class="node">
<title>Node32</title>
<g id="a_node32"><a xlink:href="framebuffer_8h.html" target="_top" xlink:title=" ">
<polygon fill="none" stroke="black" points="449.5,-335.5 449.5,-365.5 595.5,-365.5 595.5,-335.5 449.5,-335.5"/>
<text text-anchor="start" x="457.5" y="-353.5" font-family="Helvetica,sans-Serif" font-size="10.00">/github/workspace/src</text>
<text text-anchor="middle" x="522.5" y="-342.5" font-family="Helvetica,sans-Serif" font-size="10.00">/renderer/vulkan/framebuffer.h</text>
</a>
</g>
</g>
<!-- Node31&#45;&gt;Node32 -->
<g id="edge36" class="edge">
<title>Node31&#45;&gt;Node32</title>
<path fill="none" stroke="midnightblue" d="M455.34,-461.99C463.8,-453.64 473.4,-443.55 480.5,-433 494.99,-411.47 504.79,-382.6 512.37,-365.62"/>
<polygon fill="midnightblue" stroke="midnightblue" points="452.72,-459.65 447.99,-469.13 457.6,-464.67 452.72,-459.65"/>
</g>
<!-- Node34 -->
<g id="node34" class="node">
<title>Node34</title>
<g id="a_node34"><a xlink:href="graphicspipeline_8h.html" target="_top" xlink:title=" ">
<polygon fill="none" stroke="black" points="227,-335.5 227,-365.5 394,-365.5 394,-335.5 227,-335.5"/>
<text text-anchor="start" x="235" y="-353.5" font-family="Helvetica,sans-Serif" font-size="10.00">/github/workspace/src</text>
<text text-anchor="middle" x="310.5" y="-342.5" font-family="Helvetica,sans-Serif" font-size="10.00">/renderer/vulkan/graphicspipeline.h</text>
</a>
</g>
</g>
<!-- Node31&#45;&gt;Node34 -->
<g id="edge41" class="edge">
<title>Node31&#45;&gt;Node34</title>
<path fill="none" stroke="midnightblue" d="M437.29,-459.11C435.94,-441.49 431.53,-418.08 418.5,-402 404.62,-384.88 383.59,-373.26 363.77,-365.53"/>
<polygon fill="midnightblue" stroke="midnightblue" points="433.8,-459.39 437.79,-469.2 440.8,-459.04 433.8,-459.39"/>
</g>
<!-- Node36 -->
<g id="node36" class="node">
<title>Node36</title>
<g id="a_node36"><a xlink:href="renderpass_8h.html" target="_top" xlink:title=" ">
<polygon fill="none" stroke="black" points="577,-402.5 577,-432.5 722,-432.5 722,-402.5 577,-402.5"/>
<text text-anchor="start" x="585" y="-420.5" font-family="Helvetica,sans-Serif" font-size="10.00">/github/workspace/src</text>
<text text-anchor="middle" x="649.5" y="-409.5" font-family="Helvetica,sans-Serif" font-size="10.00">/renderer/vulkan/renderpass.h</text>
</a>
</g>
</g>
<!-- Node31&#45;&gt;Node36 -->
<g id="edge47" class="edge">
<title>Node31&#45;&gt;Node36</title>
<path fill="none" stroke="midnightblue" d="M493.13,-466.44C527.49,-455.91 571.06,-442.55 603.48,-432.61"/>
<polygon fill="midnightblue" stroke="midnightblue" points="491.77,-463.2 483.24,-469.48 493.83,-469.89 491.77,-463.2"/>
</g>
<!-- Node38 -->
<g id="node38" class="node">
<title>Node38</title>
<g id="a_node38"><a xlink:href="swapchain_8cpp.html" target="_top" xlink:title=" ">
<polygon fill="none" stroke="black" points="255.5,-402.5 255.5,-432.5 409.5,-432.5 409.5,-402.5 255.5,-402.5"/>
<text text-anchor="start" x="263.5" y="-420.5" font-family="Helvetica,sans-Serif" font-size="10.00">/github/workspace/src</text>
<text text-anchor="middle" x="332.5" y="-409.5" font-family="Helvetica,sans-Serif" font-size="10.00">/renderer/vulkan/swapchain.cpp</text>
</a>
</g>
</g>
<!-- Node31&#45;&gt;Node38 -->
<g id="edge53" class="edge">
<title>Node31&#45;&gt;Node38</title>
<path fill="none" stroke="midnightblue" d="M406.02,-464.02C389.68,-453.9 370.09,-441.77 355.24,-432.58"/>
<polygon fill="midnightblue" stroke="midnightblue" points="404.37,-467.11 414.72,-469.4 408.06,-461.16 404.37,-467.11"/>
</g>
<!-- Node32&#45;&gt;Node3 -->
<g id="edge37" class="edge">
<title>Node32&#45;&gt;Node3</title>
<path fill="none" stroke="midnightblue" d="M605.69,-366.56C660.39,-377.3 723.34,-391.63 731.5,-402 758.49,-436.29 744.64,-460.79 725.5,-500 718.29,-514.76 704.79,-527.39 693.09,-536.32"/>
<polygon fill="midnightblue" stroke="midnightblue" points="606.07,-363.06 595.59,-364.59 604.74,-369.94 606.07,-363.06"/>
</g>
<!-- Node32&#45;&gt;Node29 -->
<g id="edge40" class="edge">
<title>Node32&#45;&gt;Node29</title>
<path fill="none" stroke="midnightblue" d="M581.64,-332.71C618.9,-322.14 666.47,-308.63 701.79,-298.61"/>
<polygon fill="midnightblue" stroke="midnightblue" points="580.57,-329.38 571.91,-335.48 582.48,-336.11 580.57,-329.38"/>
</g>
<!-- Node32&#45;&gt;Node31 -->
<g id="edge39" class="edge">
<title>Node32&#45;&gt;Node31</title>
<path fill="none" stroke="midnightblue" d="M523.14,-375.81C519.11,-392.74 510.39,-415.34 498.5,-433 489.15,-446.89 475.48,-459.97 463.24,-469.35"/>
<polygon fill="midnightblue" stroke="midnightblue" points="526.65,-376.1 525.1,-365.62 519.78,-374.79 526.65,-376.1"/>
</g>
<!-- Node33 -->
<g id="node33" class="node">
<title>Node33</title>
<g id="a_node33"><a xlink:href="framebuffer_8cpp.html" target="_top" xlink:title=" ">
<polygon fill="none" stroke="black" points="449.5,-268.5 449.5,-298.5 605.5,-298.5 605.5,-268.5 449.5,-268.5"/>
<text text-anchor="start" x="457.5" y="-286.5" font-family="Helvetica,sans-Serif" font-size="10.00">/github/workspace/src</text>
<text text-anchor="middle" x="527.5" y="-275.5" font-family="Helvetica,sans-Serif" font-size="10.00">/renderer/vulkan/framebuffer.cpp</text>
</a>
</g>
</g>
<!-- Node32&#45;&gt;Node33 -->
<g id="edge38" class="edge">
<title>Node32&#45;&gt;Node33</title>
<path fill="none" stroke="midnightblue" d="M524.35,-325.4C525.05,-316.37 525.81,-306.41 526.42,-298.58"/>
<polygon fill="midnightblue" stroke="midnightblue" points="520.86,-325.16 523.58,-335.4 527.84,-325.69 520.86,-325.16"/>
</g>
<!-- Node34&#45;&gt;Node3 -->
<g id="edge44" class="edge">
<title>Node34&#45;&gt;Node3</title>
<path fill="none" stroke="midnightblue" d="M274.38,-371.2C263.35,-379.19 252.55,-389.52 246.5,-402 240.49,-414.4 239.73,-421 246.5,-433 274.82,-483.18 303.39,-480.17 357.5,-500 433.19,-527.74 524.68,-540.26 589.32,-545.9"/>
<polygon fill="midnightblue" stroke="midnightblue" points="276.43,-374.03 282.78,-365.54 272.52,-368.22 276.43,-374.03"/>
</g>
<!-- Node34&#45;&gt;Node10 -->
<g id="edge43" class="edge">
<title>Node34&#45;&gt;Node10</title>
<path fill="none" stroke="midnightblue" d="M404.24,-338.8C416.43,-337.48 428.76,-336.18 440.5,-335 618.98,-317.06 664.08,-317.5 842.5,-299 864.21,-296.75 888.04,-294 908.89,-291.51"/>
<polygon fill="midnightblue" stroke="midnightblue" points="403.6,-335.35 394.04,-339.91 404.36,-342.31 403.6,-335.35"/>
</g>
<!-- Node34&#45;&gt;Node11 -->
<g id="edge42" class="edge">
<title>Node34&#45;&gt;Node11</title>
<path fill="none" stroke="midnightblue" d="M349.04,-330.78C366.18,-321.9 386.33,-310.68 403.5,-299 421.24,-286.93 420.68,-276.2 440.5,-268 525.63,-232.79 761.91,-241.92 853.5,-232 868.7,-230.35 885.04,-228.36 900.41,-226.39"/>
<polygon fill="midnightblue" stroke="midnightblue" points="347.18,-327.8 339.86,-335.46 350.36,-334.03 347.18,-327.8"/>
</g>
<!-- Node34&#45;&gt;Node29 -->
<g id="edge46" class="edge">
<title>Node34&#45;&gt;Node29</title>
<path fill="none" stroke="midnightblue" d="M404.2,-335.49C405.3,-335.33 406.41,-335.16 407.5,-335 497.07,-321.73 599.77,-306.67 669.47,-296.48"/>
<polygon fill="midnightblue" stroke="midnightblue" points="403.47,-332.06 394.1,-336.99 404.5,-338.98 403.47,-332.06"/>
</g>
<!-- Node35 -->
<g id="node35" class="node">
<title>Node35</title>
<g id="a_node35"><a xlink:href="graphicspipeline_8cpp.html" target="_top" xlink:title=" ">
<polygon fill="none" stroke="black" points="217,-268.5 217,-298.5 394,-298.5 394,-268.5 217,-268.5"/>
<text text-anchor="start" x="225" y="-286.5" font-family="Helvetica,sans-Serif" font-size="10.00">/github/workspace/src</text>
<text text-anchor="middle" x="305.5" y="-275.5" font-family="Helvetica,sans-Serif" font-size="10.00">/renderer/vulkan/graphicspipeline.cpp</text>
</a>
</g>
</g>
<!-- Node34&#45;&gt;Node35 -->
<g id="edge45" class="edge">
<title>Node34&#45;&gt;Node35</title>
<path fill="none" stroke="midnightblue" d="M308.65,-325.4C307.95,-316.37 307.19,-306.41 306.58,-298.58"/>
<polygon fill="midnightblue" stroke="midnightblue" points="305.16,-325.69 309.42,-335.4 312.14,-325.16 305.16,-325.69"/>
</g>
<!-- Node36&#45;&gt;Node3 -->
<g id="edge48" class="edge">
<title>Node36&#45;&gt;Node3</title>
<path fill="none" stroke="midnightblue" d="M684.02,-438.57C694.51,-446.58 704.77,-456.83 710.5,-469 721.65,-492.7 701.66,-520.16 686.41,-536.39"/>
<polygon fill="midnightblue" stroke="midnightblue" points="685.82,-435.56 675.64,-432.63 681.78,-441.27 685.82,-435.56"/>
</g>
<!-- Node36&#45;&gt;Node29 -->
<g id="edge52" class="edge">
<title>Node36&#45;&gt;Node29</title>
<path fill="none" stroke="midnightblue" d="M731.5,-400.95C749.92,-393.47 767.31,-382.4 778.5,-366 792.87,-344.95 775.99,-315.66 763.2,-298.53"/>
<polygon fill="midnightblue" stroke="midnightblue" points="730.25,-397.68 722.09,-404.44 732.69,-404.24 730.25,-397.68"/>
</g>
<!-- Node36&#45;&gt;Node32 -->
<g id="edge49" class="edge">
<title>Node36&#45;&gt;Node32</title>
<path fill="none" stroke="midnightblue" d="M612.8,-397.71C592.77,-387.46 568.38,-374.98 550,-365.58"/>
<polygon fill="midnightblue" stroke="midnightblue" points="611.45,-400.96 621.94,-402.4 614.64,-394.72 611.45,-400.96"/>
</g>
<!-- Node36&#45;&gt;Node34 -->
<g id="edge50" class="edge">
<title>Node36&#45;&gt;Node34</title>
<path fill="none" stroke="midnightblue" d="M566.89,-400.66C510.9,-389.92 437.57,-375.87 383.69,-365.53"/>
<polygon fill="midnightblue" stroke="midnightblue" points="566.3,-404.11 576.78,-402.56 567.61,-397.24 566.3,-404.11"/>
</g>
<!-- Node37 -->
<g id="node37" class="node">
<title>Node37</title>
<g id="a_node37"><a xlink:href="renderpass_8cpp.html" target="_top" xlink:title=" ">
<polygon fill="none" stroke="black" points="614,-335.5 614,-365.5 769,-365.5 769,-335.5 614,-335.5"/>
<text text-anchor="start" x="622" y="-353.5" font-family="Helvetica,sans-Serif" font-size="10.00">/github/workspace/src</text>
<text text-anchor="middle" x="691.5" y="-342.5" font-family="Helvetica,sans-Serif" font-size="10.00">/renderer/vulkan/renderpass.cpp</text>
</a>
</g>
</g>
<!-- Node36&#45;&gt;Node37 -->
<g id="edge51" class="edge">
<title>Node36&#45;&gt;Node37</title>
<path fill="none" stroke="midnightblue" d="M664.12,-393.87C670.2,-384.46 677.07,-373.83 682.4,-365.58"/>
<polygon fill="midnightblue" stroke="midnightblue" points="661.1,-392.1 658.61,-402.4 666.98,-395.9 661.1,-392.1"/>
</g>
<!-- Node39&#45;&gt;Node3 -->
<g id="edge58" class="edge">
<title>Node39&#45;&gt;Node3</title>
<path fill="none" stroke="midnightblue" d="M429.01,-601.45C482.02,-590.75 551.03,-576.82 601.87,-566.55"/>
<polygon fill="midnightblue" stroke="midnightblue" points="428.08,-598.07 418.97,-603.48 429.47,-604.93 428.08,-598.07"/>
</g>
<!-- Node39&#45;&gt;Node34 -->
<g id="edge59" class="edge">
<title>Node39&#45;&gt;Node34</title>
<path fill="none" stroke="midnightblue" d="M329.64,-595.12C302.11,-562.34 253.87,-498.05 237.5,-433 234.14,-419.64 231.1,-414.2 237.5,-402 245.94,-385.89 262.11,-373.91 277.09,-365.66"/>
<polygon fill="midnightblue" stroke="midnightblue" points="327.33,-597.81 336.49,-603.14 332.65,-593.26 327.33,-597.81"/>
</g>
<!-- Node40 -->
<g id="node40" class="node">
<title>Node40</title>
<g id="a_node40"><a xlink:href="pipelinebase_8cpp.html" target="_top" xlink:title=" ">
<polygon fill="none" stroke="black" points="0,-536.5 0,-566.5 161,-566.5 161,-536.5 0,-536.5"/>
<text text-anchor="start" x="8" y="-554.5" font-family="Helvetica,sans-Serif" font-size="10.00">/github/workspace/src</text>
<text text-anchor="middle" x="80.5" y="-543.5" font-family="Helvetica,sans-Serif" font-size="10.00">/renderer/vulkan/pipelinebase.cpp</text>
</a>
</g>
</g>
<!-- Node39&#45;&gt;Node40 -->
<g id="edge60" class="edge">
<title>Node39&#45;&gt;Node40</title>
<path fill="none" stroke="midnightblue" d="M281.71,-601.12C237.69,-590.48 180.91,-576.76 138.9,-566.61"/>
<polygon fill="midnightblue" stroke="midnightblue" points="280.92,-604.53 291.46,-603.48 282.56,-597.73 280.92,-604.53"/>
</g>
</g>
</svg>
