<?xml version="1.0" encoding="UTF-8" standalone="no"?>
<!DOCTYPE svg PUBLIC "-//W3C//DTD SVG 1.1//EN"
 "http://www.w3.org/Graphics/SVG/1.1/DTD/svg11.dtd">
<!-- Generated by graphviz version 2.49.3 (20211215.1918)
 -->
<!-- Title: /github/workspace/src/renderer/vulkan/renderpass.h Pages: 1 -->
<!--zoomable 642 -->
<svg id="main" version="1.1" xmlns="http://www.w3.org/2000/svg" xmlns:xlink="http://www.w3.org/1999/xlink" xml:space="preserve" onload="init(evt)">
<style type="text/css"><![CDATA[
.edge:hover path { stroke: red; }
.edge:hover polygon { stroke: red; fill: red; }
]]></style>
<script type="text/javascript"><![CDATA[
var edges = document.getElementsByTagName('g');
if (edges && edges.length) {
  for (var i=0;i<edges.length;i++) {
    if (edges[i].id.substr(0,4)=='edge') {
      edges[i].setAttribute('class','edge');
    }
  }
}
]]></script>
        <defs>
                <circle id="rim" cx="0" cy="0" r="7"/>
                <circle id="rim2" cx="0" cy="0" r="3.5"/>
                <g id="zoomPlus">
                        <use xlink:href="#rim" fill="#404040">
                                <set attributeName="fill" to="#808080" begin="zoomplus.mouseover" end="zoomplus.mouseout"/>
                        </use>
                        <path d="M-4,0h8M0,-4v8" fill="none" stroke="white" stroke-width="1.5" pointer-events="none"/>
                </g>
                <g id="zoomMin">
                        <use xlink:href="#rim" fill="#404040">
                                <set attributeName="fill" to="#808080" begin="zoomminus.mouseover" end="zoomminus.mouseout"/>
                        </use>
                        <path d="M-4,0h8" fill="none" stroke="white" stroke-width="1.5" pointer-events="none"/>
                </g>
                <g id="dirArrow">
                        <path fill="none" stroke="white" stroke-width="1.5" d="M0,-3.0v7 M-2.5,-0.5L0,-3.0L2.5,-0.5"/>
                </g>
               <g id="resetDef">
                       <use xlink:href="#rim2" fill="#404040">
                               <set attributeName="fill" to="#808080" begin="reset.mouseover" end="reset.mouseout"/>
                       </use>
               </g>
        </defs>

<script type="text/javascript">
var viewWidth = 1328;
var viewHeight = 642;
var sectionId = 'dynsection-1';
</script>
<script xlink:href="svgpan.js"/>
<svg id="graph" class="graph">
<g id="viewport">
<title>/github/workspace/src/renderer/vulkan/renderpass.h</title>
<!-- Node1 -->
<g id="node1" class="node">
<title>Node1</title>
<g id="a_node1"><a xlink:title=" ">
<polygon fill="#bfbfbf" stroke="black" points="417.55,-603.5 417.55,-633.5 562.55,-633.5 562.55,-603.5 417.55,-603.5"/>
<text text-anchor="start" x="425.55" y="-621.5" font-family="Helvetica,sans-Serif" font-size="10.00">/github/workspace/src</text>
<text text-anchor="middle" x="490.05" y="-610.5" font-family="Helvetica,sans-Serif" font-size="10.00">/renderer/vulkan/renderpass.h</text>
</a>
</g>
</g>
<!-- Node2 -->
<g id="node2" class="node">
<title>Node2</title>
<g id="a_node2"><a xlink:href="commandbuffer_8h.html" target="_top" xlink:title=" ">
<polygon fill="none" stroke="black" points="463.05,-536.5 463.05,-566.5 627.05,-566.5 627.05,-536.5 463.05,-536.5"/>
<text text-anchor="start" x="471.05" y="-554.5" font-family="Helvetica,sans-Serif" font-size="10.00">/github/workspace/src</text>
<text text-anchor="middle" x="545.05" y="-543.5" font-family="Helvetica,sans-Serif" font-size="10.00">/renderer/vulkan/commandbuffer.h</text>
</a>
</g>
</g>
<!-- Node1&#45;&gt;Node2 -->
<g id="edge1" class="edge">
<title>Node1&#45;&gt;Node2</title>
<path fill="none" stroke="midnightblue" d="M508.47,-595.74C516.6,-586.12 525.94,-575.09 533.14,-566.58"/>
<polygon fill="midnightblue" stroke="midnightblue" points="505.77,-593.5 501.98,-603.4 511.12,-598.02 505.77,-593.5"/>
</g>
<!-- Node28 -->
<g id="node28" class="node">
<title>Node28</title>
<g id="a_node28"><a xlink:href="vulkan__voxel__rasterizer_8cpp.html" target="_top" xlink:title=" ">
<polygon fill="none" stroke="black" points="314.05,-335.5 314.05,-365.5 478.05,-365.5 478.05,-335.5 314.05,-335.5"/>
<text text-anchor="start" x="322.05" y="-353.5" font-family="Helvetica,sans-Serif" font-size="10.00">/github/workspace/src</text>
<text text-anchor="middle" x="396.05" y="-342.5" font-family="Helvetica,sans-Serif" font-size="10.00">/tests/vulkan_voxel_rasterizer.cpp</text>
</a>
</g>
</g>
<!-- Node1&#45;&gt;Node28 -->
<g id="edge54" class="edge">
<title>Node1&#45;&gt;Node28</title>
<path fill="none" stroke="midnightblue" d="M471.53,-595.18C465.27,-586.76 458.69,-576.83 454.05,-567 420.3,-495.53 403.51,-401.12 398.08,-365.72"/>
<polygon fill="midnightblue" stroke="midnightblue" points="468.97,-597.58 477.86,-603.34 474.5,-593.29 468.97,-597.58"/>
</g>
<!-- Node31 -->
<g id="node31" class="node">
<title>Node31</title>
<g id="a_node31"><a xlink:href="framebuffer_8h.html" target="_top" xlink:title=" ">
<polygon fill="none" stroke="black" points="501.05,-402.5 501.05,-432.5 647.05,-432.5 647.05,-402.5 501.05,-402.5"/>
<text text-anchor="start" x="509.05" y="-420.5" font-family="Helvetica,sans-Serif" font-size="10.00">/github/workspace/src</text>
<text text-anchor="middle" x="574.05" y="-409.5" font-family="Helvetica,sans-Serif" font-size="10.00">/renderer/vulkan/framebuffer.h</text>
</a>
</g>
</g>
<!-- Node1&#45;&gt;Node31 -->
<g id="edge51" class="edge">
<title>Node1&#45;&gt;Node31</title>
<path fill="none" stroke="midnightblue" d="M572.31,-602.08C627.21,-586.75 694.24,-556.92 722.05,-500 728.1,-487.62 730.07,-480.21 722.05,-469 711.7,-454.54 673.19,-441.65 638.05,-432.52"/>
<polygon fill="midnightblue" stroke="midnightblue" points="571.32,-598.72 562.57,-604.68 573.13,-605.48 571.32,-598.72"/>
</g>
<!-- Node33 -->
<g id="node33" class="node">
<title>Node33</title>
<g id="a_node33"><a xlink:href="graphicspipeline_8h.html" target="_top" xlink:title=" ">
<polygon fill="none" stroke="black" points="29.55,-402.5 29.55,-432.5 196.55,-432.5 196.55,-402.5 29.55,-402.5"/>
<text text-anchor="start" x="37.55" y="-420.5" font-family="Helvetica,sans-Serif" font-size="10.00">/github/workspace/src</text>
<text text-anchor="middle" x="113.05" y="-409.5" font-family="Helvetica,sans-Serif" font-size="10.00">/renderer/vulkan/graphicspipeline.h</text>
</a>
</g>
</g>
<!-- Node1&#45;&gt;Node33 -->
<g id="edge52" class="edge">
<title>Node1&#45;&gt;Node33</title>
<path fill="none" stroke="midnightblue" d="M420.95,-600.85C356.25,-583.03 258.89,-550.33 186.05,-500 159.01,-481.32 135.18,-450.67 122.57,-432.76"/>
<polygon fill="midnightblue" stroke="midnightblue" points="420.08,-604.24 430.65,-603.48 421.92,-597.48 420.08,-604.24"/>
</g>
<!-- Node36 -->
<g id="node36" class="node">
<title>Node36</title>
<g id="a_node36"><a xlink:href="renderpass_8cpp.html" target="_top" xlink:title=" ">
<polygon fill="none" stroke="black" points="769.55,-536.5 769.55,-566.5 924.55,-566.5 924.55,-536.5 769.55,-536.5"/>
<text text-anchor="start" x="777.55" y="-554.5" font-family="Helvetica,sans-Serif" font-size="10.00">/github/workspace/src</text>
<text text-anchor="middle" x="847.05" y="-543.5" font-family="Helvetica,sans-Serif" font-size="10.00">/renderer/vulkan/renderpass.cpp</text>
</a>
</g>
</g>
<!-- Node1&#45;&gt;Node36 -->
<g id="edge53" class="edge">
<title>Node1&#45;&gt;Node36</title>
<path fill="none" stroke="midnightblue" d="M572.84,-602.43C632.36,-591.59 712.03,-577.08 770.16,-566.5"/>
<polygon fill="midnightblue" stroke="midnightblue" points="571.94,-599.03 562.72,-604.27 573.19,-605.92 571.94,-599.03"/>
</g>
<!-- Node3 -->
<g id="node3" class="node">
<title>Node3</title>
<g id="a_node3"><a xlink:href="buffer_8h.html" target="_top" xlink:title=" ">
<polygon fill="none" stroke="black" points="800.55,-469.5 800.55,-499.5 921.55,-499.5 921.55,-469.5 800.55,-469.5"/>
<text text-anchor="start" x="808.55" y="-487.5" font-family="Helvetica,sans-Serif" font-size="10.00">/github/workspace/src</text>
<text text-anchor="middle" x="861.05" y="-476.5" font-family="Helvetica,sans-Serif" font-size="10.00">/renderer/vulkan/buffer.h</text>
</a>
</g>
</g>
<!-- Node2&#45;&gt;Node3 -->
<g id="edge2" class="edge">
<title>Node2&#45;&gt;Node3</title>
<path fill="none" stroke="midnightblue" d="M623.24,-534.42C677.99,-523.16 750.07,-508.33 800.47,-497.96"/>
<polygon fill="midnightblue" stroke="midnightblue" points="622.32,-531.03 613.23,-536.48 623.73,-537.89 622.32,-531.03"/>
</g>
<!-- Node2&#45;&gt;Node28 -->
<g id="edge50" class="edge">
<title>Node2&#45;&gt;Node28</title>
<path fill="none" stroke="midnightblue" d="M532.34,-527.29C515.28,-497.05 483.15,-443.18 449.05,-402 438.02,-388.69 423.76,-375.27 412.8,-365.61"/>
<polygon fill="midnightblue" stroke="midnightblue" points="529.4,-529.21 537.34,-536.24 535.52,-525.8 529.4,-529.21"/>
</g>
<!-- Node29 -->
<g id="node29" class="node">
<title>Node29</title>
<g id="a_node29"><a xlink:href="commandbuffer_8cpp.html" target="_top" xlink:title=" ">
<polygon fill="none" stroke="black" points="539.05,-469.5 539.05,-499.5 713.05,-499.5 713.05,-469.5 539.05,-469.5"/>
<text text-anchor="start" x="547.05" y="-487.5" font-family="Helvetica,sans-Serif" font-size="10.00">/github/workspace/src</text>
<text text-anchor="middle" x="626.05" y="-476.5" font-family="Helvetica,sans-Serif" font-size="10.00">/renderer/vulkan/commandbuffer.cpp</text>
</a>
</g>
</g>
<!-- Node2&#45;&gt;Node29 -->
<g id="edge33" class="edge">
<title>Node2&#45;&gt;Node29</title>
<path fill="none" stroke="midnightblue" d="M570.74,-529.88C583.05,-520.01 597.48,-508.43 608.51,-499.58"/>
<polygon fill="midnightblue" stroke="midnightblue" points="568.23,-527.41 562.63,-536.4 572.62,-532.87 568.23,-527.41"/>
</g>
<!-- Node30 -->
<g id="node30" class="node">
<title>Node30</title>
<g id="a_node30"><a xlink:href="swapchain_8h.html" target="_top" xlink:title=" ">
<polygon fill="none" stroke="black" points="263.55,-469.5 263.55,-499.5 406.55,-499.5 406.55,-469.5 263.55,-469.5"/>
<text text-anchor="start" x="271.55" y="-487.5" font-family="Helvetica,sans-Serif" font-size="10.00">/github/workspace/src</text>
<text text-anchor="middle" x="335.05" y="-476.5" font-family="Helvetica,sans-Serif" font-size="10.00">/renderer/vulkan/swapchain.h</text>
</a>
</g>
</g>
<!-- Node2&#45;&gt;Node30 -->
<g id="edge34" class="edge">
<title>Node2&#45;&gt;Node30</title>
<path fill="none" stroke="midnightblue" d="M489.95,-533.44C455.91,-522.91 412.75,-509.55 380.64,-499.61"/>
<polygon fill="midnightblue" stroke="midnightblue" points="489.15,-536.86 499.74,-536.48 491.22,-530.18 489.15,-536.86"/>
</g>
<!-- Node4 -->
<g id="node4" class="node">
<title>Node4</title>
<g id="a_node4"><a xlink:href="buffer_8cpp.html" target="_top" xlink:title=" ">
<polygon fill="none" stroke="black" points="665.55,-402.5 665.55,-432.5 796.55,-432.5 796.55,-402.5 665.55,-402.5"/>
<text text-anchor="start" x="673.55" y="-420.5" font-family="Helvetica,sans-Serif" font-size="10.00">/github/workspace/src</text>
<text text-anchor="middle" x="731.05" y="-409.5" font-family="Helvetica,sans-Serif" font-size="10.00">/renderer/vulkan/buffer.cpp</text>
</a>
</g>
</g>
<!-- Node3&#45;&gt;Node4 -->
<g id="edge3" class="edge">
<title>Node3&#45;&gt;Node4</title>
<path fill="none" stroke="midnightblue" d="M823.76,-464.85C803.2,-454.58 778.1,-442.03 759.2,-432.58"/>
<polygon fill="midnightblue" stroke="midnightblue" points="822.33,-468.05 832.84,-469.4 825.46,-461.79 822.33,-468.05"/>
</g>
<!-- Node5 -->
<g id="node5" class="node">
<title>Node5</title>
<g id="a_node5"><a xlink:href="bufferview_8h.html" target="_top" xlink:title=" ">
<polygon fill="none" stroke="black" points="985.55,-402.5 985.55,-432.5 1126.55,-432.5 1126.55,-402.5 985.55,-402.5"/>
<text text-anchor="start" x="993.55" y="-420.5" font-family="Helvetica,sans-Serif" font-size="10.00">/github/workspace/src</text>
<text text-anchor="middle" x="1056.05" y="-409.5" font-family="Helvetica,sans-Serif" font-size="10.00">/renderer/vulkan/bufferview.h</text>
</a>
</g>
</g>
<!-- Node3&#45;&gt;Node5 -->
<g id="edge4" class="edge">
<title>Node3&#45;&gt;Node5</title>
<path fill="none" stroke="midnightblue" d="M912.87,-466.23C944.41,-455.71 984.2,-442.45 1013.82,-432.58"/>
<polygon fill="midnightblue" stroke="midnightblue" points="911.74,-462.91 903.36,-469.4 913.96,-469.55 911.74,-462.91"/>
</g>
<!-- Node7 -->
<g id="node7" class="node">
<title>Node7</title>
<g id="a_node7"><a xlink:href="uniformbuffer_8h.html" target="_top" xlink:title=" ">
<polygon fill="none" stroke="black" points="814.55,-402.5 814.55,-432.5 967.55,-432.5 967.55,-402.5 814.55,-402.5"/>
<text text-anchor="start" x="822.55" y="-420.5" font-family="Helvetica,sans-Serif" font-size="10.00">/github/workspace/src</text>
<text text-anchor="middle" x="891.05" y="-409.5" font-family="Helvetica,sans-Serif" font-size="10.00">/renderer/vulkan/uniformbuffer.h</text>
</a>
</g>
</g>
<!-- Node3&#45;&gt;Node7 -->
<g id="edge6" class="edge">
<title>Node3&#45;&gt;Node7</title>
<path fill="none" stroke="midnightblue" d="M871.76,-460.28C876.04,-451.02 880.82,-440.66 884.55,-432.58"/>
<polygon fill="midnightblue" stroke="midnightblue" points="868.57,-458.85 867.56,-469.4 874.93,-461.78 868.57,-458.85"/>
</g>
<!-- Node6 -->
<g id="node6" class="node">
<title>Node6</title>
<g id="a_node6"><a xlink:href="bufferview_8cpp.html" target="_top" xlink:title=" ">
<polygon fill="none" stroke="black" points="1168.05,-335.5 1168.05,-365.5 1320.05,-365.5 1320.05,-335.5 1168.05,-335.5"/>
<text text-anchor="start" x="1176.05" y="-353.5" font-family="Helvetica,sans-Serif" font-size="10.00">/github/workspace/src</text>
<text text-anchor="middle" x="1244.05" y="-342.5" font-family="Helvetica,sans-Serif" font-size="10.00">/renderer/vulkan/bufferview.cpp</text>
</a>
</g>
</g>
<!-- Node5&#45;&gt;Node6 -->
<g id="edge5" class="edge">
<title>Node5&#45;&gt;Node6</title>
<path fill="none" stroke="midnightblue" d="M1106.4,-399.09C1136.75,-388.6 1174.9,-375.41 1203.34,-365.58"/>
<polygon fill="midnightblue" stroke="midnightblue" points="1105.15,-395.82 1096.84,-402.4 1107.44,-402.44 1105.15,-395.82"/>
</g>
<!-- Node8 -->
<g id="node8" class="node">
<title>Node8</title>
<g id="a_node8"><a xlink:href="materiallibrary_8h.html" target="_top" xlink:title=" ">
<polygon fill="none" stroke="black" points="670.55,-335.5 670.55,-365.5 795.55,-365.5 795.55,-335.5 670.55,-335.5"/>
<text text-anchor="start" x="678.55" y="-353.5" font-family="Helvetica,sans-Serif" font-size="10.00">/github/workspace/src</text>
<text text-anchor="middle" x="733.05" y="-342.5" font-family="Helvetica,sans-Serif" font-size="10.00">/renderer/materiallibrary.h</text>
</a>
</g>
</g>
<!-- Node7&#45;&gt;Node8 -->
<g id="edge7" class="edge">
<title>Node7&#45;&gt;Node8</title>
<path fill="none" stroke="midnightblue" d="M847.4,-398.54C822.12,-388.14 790.75,-375.24 767.27,-365.58"/>
<polygon fill="midnightblue" stroke="midnightblue" points="846.19,-401.83 856.77,-402.4 848.85,-395.35 846.19,-401.83"/>
</g>
<!-- Node23 -->
<g id="node23" class="node">
<title>Node23</title>
<g id="a_node23"><a xlink:href="descriptorset_8h.html" target="_top" xlink:title=" ">
<polygon fill="none" stroke="black" points="996.55,-335.5 996.55,-365.5 1149.55,-365.5 1149.55,-335.5 996.55,-335.5"/>
<text text-anchor="start" x="1004.55" y="-353.5" font-family="Helvetica,sans-Serif" font-size="10.00">/github/workspace/src</text>
<text text-anchor="middle" x="1073.05" y="-342.5" font-family="Helvetica,sans-Serif" font-size="10.00">/renderer/vulkan/descriptorset.h</text>
</a>
</g>
</g>
<!-- Node7&#45;&gt;Node23 -->
<g id="edge25" class="edge">
<title>Node7&#45;&gt;Node23</title>
<path fill="none" stroke="midnightblue" d="M940.17,-398.96C969.49,-388.48 1006.23,-375.37 1033.64,-365.58"/>
<polygon fill="midnightblue" stroke="midnightblue" points="938.78,-395.74 930.54,-402.4 941.14,-402.33 938.78,-395.74"/>
</g>
<!-- Node27 -->
<g id="node27" class="node">
<title>Node27</title>
<g id="a_node27"><a xlink:href="uniformbuffer_8cpp.html" target="_top" xlink:title=" ">
<polygon fill="none" stroke="black" points="814.05,-335.5 814.05,-365.5 978.05,-365.5 978.05,-335.5 814.05,-335.5"/>
<text text-anchor="start" x="822.05" y="-353.5" font-family="Helvetica,sans-Serif" font-size="10.00">/github/workspace/src</text>
<text text-anchor="middle" x="896.05" y="-342.5" font-family="Helvetica,sans-Serif" font-size="10.00">/renderer/vulkan/uniformbuffer.cpp</text>
</a>
</g>
</g>
<!-- Node7&#45;&gt;Node27 -->
<g id="edge31" class="edge">
<title>Node7&#45;&gt;Node27</title>
<path fill="none" stroke="midnightblue" d="M892.9,-392.4C893.6,-383.37 894.36,-373.41 894.97,-365.58"/>
<polygon fill="midnightblue" stroke="midnightblue" points="889.41,-392.16 892.13,-402.4 896.39,-392.69 889.41,-392.16"/>
</g>
<!-- Node7&#45;&gt;Node28 -->
<g id="edge32" class="edge">
<title>Node7&#45;&gt;Node28</title>
<path fill="none" stroke="midnightblue" d="M803.85,-401.73C663.02,-382.14 625.11,-384.78 487.05,-366 484.2,-365.61 481.29,-365.21 478.36,-364.79"/>
<polygon fill="midnightblue" stroke="midnightblue" points="803.78,-405.26 814.17,-403.18 804.75,-398.33 803.78,-405.26"/>
</g>
<!-- Node9 -->
<g id="node9" class="node">
<title>Node9</title>
<g id="a_node9"><a xlink:href="material_8h.html" target="_top" xlink:title=" ">
<polygon fill="none" stroke="black" points="533.55,-268.5 533.55,-298.5 646.55,-298.5 646.55,-268.5 533.55,-268.5"/>
<text text-anchor="start" x="541.55" y="-286.5" font-family="Helvetica,sans-Serif" font-size="10.00">/github/workspace/src</text>
<text text-anchor="middle" x="590.05" y="-275.5" font-family="Helvetica,sans-Serif" font-size="10.00">/renderer/material.h</text>
</a>
</g>
</g>
<!-- Node8&#45;&gt;Node9 -->
<g id="edge8" class="edge">
<title>Node8&#45;&gt;Node9</title>
<path fill="none" stroke="midnightblue" d="M687.12,-331.41C663.33,-321.03 635.24,-308.2 615.34,-298.58"/>
<polygon fill="midnightblue" stroke="midnightblue" points="685.77,-334.64 696.34,-335.4 688.55,-328.21 685.77,-334.64"/>
</g>
<!-- Node22 -->
<g id="node22" class="node">
<title>Node22</title>
<g id="a_node22"><a xlink:href="materiallibrary_8cpp.html" target="_top" xlink:title=" ">
<polygon fill="none" stroke="black" points="665.05,-268.5 665.05,-298.5 801.05,-298.5 801.05,-268.5 665.05,-268.5"/>
<text text-anchor="start" x="673.05" y="-286.5" font-family="Helvetica,sans-Serif" font-size="10.00">/github/workspace/src</text>
<text text-anchor="middle" x="733.05" y="-275.5" font-family="Helvetica,sans-Serif" font-size="10.00">/renderer/materiallibrary.cpp</text>
</a>
</g>
</g>
<!-- Node8&#45;&gt;Node22 -->
<g id="edge24" class="edge">
<title>Node8&#45;&gt;Node22</title>
<path fill="none" stroke="midnightblue" d="M733.05,-325.11C733.05,-316.15 733.05,-306.32 733.05,-298.58"/>
<polygon fill="midnightblue" stroke="midnightblue" points="729.55,-325.4 733.05,-335.4 736.55,-325.4 729.55,-325.4"/>
</g>
<!-- Node9&#45;&gt;Node8 -->
<g id="edge13" class="edge">
<title>Node9&#45;&gt;Node8</title>
<path fill="none" stroke="midnightblue" d="M635.91,-302.56C659.7,-312.94 687.79,-325.77 707.7,-335.4"/>
<polygon fill="midnightblue" stroke="midnightblue" points="637.26,-299.33 626.69,-298.58 634.48,-305.76 637.26,-299.33"/>
</g>
<!-- Node10 -->
<g id="node10" class="node">
<title>Node10</title>
<g id="a_node10"><a xlink:href="mastermaterial_8h.html" target="_top" xlink:title=" ">
<polygon fill="none" stroke="black" points="311.05,-201.5 311.05,-231.5 441.05,-231.5 441.05,-201.5 311.05,-201.5"/>
<text text-anchor="start" x="319.05" y="-219.5" font-family="Helvetica,sans-Serif" font-size="10.00">/github/workspace/src</text>
<text text-anchor="middle" x="376.05" y="-208.5" font-family="Helvetica,sans-Serif" font-size="10.00">/renderer/mastermaterial.h</text>
</a>
</g>
</g>
<!-- Node9&#45;&gt;Node10 -->
<g id="edge9" class="edge">
<title>Node9&#45;&gt;Node10</title>
<path fill="none" stroke="midnightblue" d="M533.9,-265.44C499.21,-254.91 455.23,-241.55 422.51,-231.61"/>
<polygon fill="midnightblue" stroke="midnightblue" points="533.29,-268.92 543.88,-268.48 535.33,-262.22 533.29,-268.92"/>
</g>
<!-- Node12 -->
<g id="node12" class="node">
<title>Node12</title>
<g id="a_node12"><a xlink:href="material_8cpp.html" target="_top" xlink:title=" ">
<polygon fill="none" stroke="black" points="664.55,-201.5 664.55,-231.5 777.55,-231.5 777.55,-201.5 664.55,-201.5"/>
<text text-anchor="start" x="672.55" y="-219.5" font-family="Helvetica,sans-Serif" font-size="10.00">/github/workspace/src</text>
<text text-anchor="middle" x="721.05" y="-208.5" font-family="Helvetica,sans-Serif" font-size="10.00">/renderer/material.cpp</text>
</a>
</g>
</g>
<!-- Node9&#45;&gt;Node12 -->
<g id="edge12" class="edge">
<title>Node9&#45;&gt;Node12</title>
<path fill="none" stroke="midnightblue" d="M627.63,-263.85C648.34,-253.58 673.64,-241.03 692.68,-231.58"/>
<polygon fill="midnightblue" stroke="midnightblue" points="625.88,-260.82 618.47,-268.4 628.99,-267.09 625.88,-260.82"/>
</g>
<!-- Node13 -->
<g id="node13" class="node">
<title>Node13</title>
<g id="a_node13"><a xlink:href="mesh_8h.html" target="_top" xlink:title=" ">
<polygon fill="none" stroke="black" points="533.55,-201.5 533.55,-231.5 646.55,-231.5 646.55,-201.5 533.55,-201.5"/>
<text text-anchor="start" x="541.55" y="-219.5" font-family="Helvetica,sans-Serif" font-size="10.00">/github/workspace/src</text>
<text text-anchor="middle" x="590.05" y="-208.5" font-family="Helvetica,sans-Serif" font-size="10.00">/renderer/mesh.h</text>
</a>
</g>
</g>
<!-- Node9&#45;&gt;Node13 -->
<g id="edge14" class="edge">
<title>Node9&#45;&gt;Node13</title>
<path fill="none" stroke="midnightblue" d="M590.05,-258.11C590.05,-249.15 590.05,-239.32 590.05,-231.58"/>
<polygon fill="midnightblue" stroke="midnightblue" points="586.55,-258.4 590.05,-268.4 593.55,-258.4 586.55,-258.4"/>
</g>
<!-- Node10&#45;&gt;Node8 -->
<g id="edge11" class="edge">
<title>Node10&#45;&gt;Node8</title>
<path fill="none" stroke="midnightblue" d="M405.91,-236.9C435.21,-255.19 481.69,-282.22 525.05,-299 551.3,-309.16 619.33,-324.98 670.49,-336.21"/>
<polygon fill="midnightblue" stroke="midnightblue" points="407.72,-233.9 397.39,-231.53 403.98,-239.82 407.72,-233.9"/>
</g>
<!-- Node11 -->
<g id="node11" class="node">
<title>Node11</title>
<g id="a_node11"><a xlink:href="mastermaterial_8cpp.html" target="_top" xlink:title=" ">
<polygon fill="none" stroke="black" points="265.05,-134.5 265.05,-164.5 405.05,-164.5 405.05,-134.5 265.05,-134.5"/>
<text text-anchor="start" x="273.05" y="-152.5" font-family="Helvetica,sans-Serif" font-size="10.00">/github/workspace/src</text>
<text text-anchor="middle" x="335.05" y="-141.5" font-family="Helvetica,sans-Serif" font-size="10.00">/renderer/mastermaterial.cpp</text>
</a>
</g>
</g>
<!-- Node10&#45;&gt;Node11 -->
<g id="edge10" class="edge">
<title>Node10&#45;&gt;Node11</title>
<path fill="none" stroke="midnightblue" d="M361.77,-192.87C355.84,-183.46 349.14,-172.83 343.93,-164.58"/>
<polygon fill="midnightblue" stroke="midnightblue" points="358.86,-194.81 367.15,-201.4 364.78,-191.07 358.86,-194.81"/>
</g>
<!-- Node14 -->
<g id="node14" class="node">
<title>Node14</title>
<g id="a_node14"><a xlink:href="mesh_8cpp.html" target="_top" xlink:title=" ">
<polygon fill="none" stroke="black" points="710.55,-134.5 710.55,-164.5 823.55,-164.5 823.55,-134.5 710.55,-134.5"/>
<text text-anchor="start" x="718.55" y="-152.5" font-family="Helvetica,sans-Serif" font-size="10.00">/github/workspace/src</text>
<text text-anchor="middle" x="767.05" y="-141.5" font-family="Helvetica,sans-Serif" font-size="10.00">/renderer/mesh.cpp</text>
</a>
</g>
</g>
<!-- Node13&#45;&gt;Node14 -->
<g id="edge15" class="edge">
<title>Node13&#45;&gt;Node14</title>
<path fill="none" stroke="midnightblue" d="M638.2,-197.82C666.65,-187.37 702.18,-174.32 728.72,-164.58"/>
<polygon fill="midnightblue" stroke="midnightblue" points="636.64,-194.66 628.46,-201.4 639.05,-201.23 636.64,-194.66"/>
</g>
<!-- Node15 -->
<g id="node15" class="node">
<title>Node15</title>
<g id="a_node15"><a xlink:href="modelloader_8h.html" target="_top" xlink:title=" ">
<polygon fill="none" stroke="black" points="423.05,-134.5 423.05,-164.5 541.05,-164.5 541.05,-134.5 423.05,-134.5"/>
<text text-anchor="start" x="431.05" y="-152.5" font-family="Helvetica,sans-Serif" font-size="10.00">/github/workspace/src</text>
<text text-anchor="middle" x="482.05" y="-141.5" font-family="Helvetica,sans-Serif" font-size="10.00">/renderer/modelloader.h</text>
</a>
</g>
</g>
<!-- Node13&#45;&gt;Node15 -->
<g id="edge16" class="edge">
<title>Node13&#45;&gt;Node15</title>
<path fill="none" stroke="midnightblue" d="M557.67,-196.02C540.87,-185.9 520.71,-173.77 505.44,-164.58"/>
<polygon fill="midnightblue" stroke="midnightblue" points="556.24,-199.24 566.62,-201.4 559.85,-193.24 556.24,-199.24"/>
</g>
<!-- Node18 -->
<g id="node18" class="node">
<title>Node18</title>
<g id="a_node18"><a xlink:href="objectinstance_8h.html" target="_top" xlink:title=" ">
<polygon fill="none" stroke="black" points="564.05,-134.5 564.05,-164.5 692.05,-164.5 692.05,-134.5 564.05,-134.5"/>
<text text-anchor="start" x="572.05" y="-152.5" font-family="Helvetica,sans-Serif" font-size="10.00">/github/workspace/src</text>
<text text-anchor="middle" x="628.05" y="-141.5" font-family="Helvetica,sans-Serif" font-size="10.00">/renderer/objectinstance.h</text>
</a>
</g>
</g>
<!-- Node13&#45;&gt;Node18 -->
<g id="edge19" class="edge">
<title>Node13&#45;&gt;Node18</title>
<path fill="none" stroke="midnightblue" d="M603.45,-192.58C608.91,-183.24 615.04,-172.75 619.82,-164.58"/>
<polygon fill="midnightblue" stroke="midnightblue" points="600.32,-191 598.3,-201.4 606.36,-194.53 600.32,-191"/>
</g>
<!-- Node16 -->
<g id="node16" class="node">
<title>Node16</title>
<g id="a_node16"><a xlink:href="modelloader_8cpp.html" target="_top" xlink:title=" ">
<polygon fill="none" stroke="black" points="415.05,-67.5 415.05,-97.5 543.05,-97.5 543.05,-67.5 415.05,-67.5"/>
<text text-anchor="start" x="423.05" y="-85.5" font-family="Helvetica,sans-Serif" font-size="10.00">/github/workspace/src</text>
<text text-anchor="middle" x="479.05" y="-74.5" font-family="Helvetica,sans-Serif" font-size="10.00">/renderer/modelloader.cpp</text>
</a>
</g>
</g>
<!-- Node15&#45;&gt;Node16 -->
<g id="edge17" class="edge">
<title>Node15&#45;&gt;Node16</title>
<path fill="none" stroke="midnightblue" d="M480.94,-124.4C480.52,-115.37 480.06,-105.41 479.7,-97.58"/>
<polygon fill="midnightblue" stroke="midnightblue" points="477.44,-124.57 481.4,-134.4 484.43,-124.25 477.44,-124.57"/>
</g>
<!-- Node17 -->
<g id="node17" class="node">
<title>Node17</title>
<g id="a_node17"><a xlink:href="vulkan__voxel__rasterizer__2_8cpp.html" target="_top" xlink:title=" ">
<polygon fill="none" stroke="black" points="300.05,-0.5 300.05,-30.5 474.05,-30.5 474.05,-0.5 300.05,-0.5"/>
<text text-anchor="start" x="308.05" y="-18.5" font-family="Helvetica,sans-Serif" font-size="10.00">/github/workspace/src</text>
<text text-anchor="middle" x="387.05" y="-7.5" font-family="Helvetica,sans-Serif" font-size="10.00">/tests/vulkan_voxel_rasterizer_2.cpp</text>
</a>
</g>
</g>
<!-- Node15&#45;&gt;Node17 -->
<g id="edge18" class="edge">
<title>Node15&#45;&gt;Node17</title>
<path fill="none" stroke="midnightblue" d="M441.17,-129.19C428.2,-121.21 414.93,-110.8 406.05,-98 391.89,-77.59 388.17,-48.08 387.26,-30.74"/>
<polygon fill="midnightblue" stroke="midnightblue" points="439.64,-132.35 450.05,-134.32 443.15,-126.28 439.64,-132.35"/>
</g>
<!-- Node19 -->
<g id="node19" class="node">
<title>Node19</title>
<g id="a_node19"><a xlink:href="objectinstance_8cpp.html" target="_top" xlink:title=" ">
<polygon fill="none" stroke="black" points="561.55,-67.5 561.55,-97.5 700.55,-97.5 700.55,-67.5 561.55,-67.5"/>
<text text-anchor="start" x="569.55" y="-85.5" font-family="Helvetica,sans-Serif" font-size="10.00">/github/workspace/src</text>
<text text-anchor="middle" x="631.05" y="-74.5" font-family="Helvetica,sans-Serif" font-size="10.00">/renderer/objectinstance.cpp</text>
</a>
</g>
</g>
<!-- Node18&#45;&gt;Node19 -->
<g id="edge20" class="edge">
<title>Node18&#45;&gt;Node19</title>
<path fill="none" stroke="midnightblue" d="M629.16,-124.4C629.58,-115.37 630.04,-105.41 630.4,-97.58"/>
<polygon fill="midnightblue" stroke="midnightblue" points="625.67,-124.25 628.7,-134.4 632.66,-124.57 625.67,-124.25"/>
</g>
<!-- Node20 -->
<g id="node20" class="node">
<title>Node20</title>
<g id="a_node20"><a xlink:href="scene_8h.html" target="_top" xlink:title=" ">
<polygon fill="none" stroke="black" points="718.55,-67.5 718.55,-97.5 831.55,-97.5 831.55,-67.5 718.55,-67.5"/>
<text text-anchor="start" x="726.55" y="-85.5" font-family="Helvetica,sans-Serif" font-size="10.00">/github/workspace/src</text>
<text text-anchor="middle" x="775.05" y="-74.5" font-family="Helvetica,sans-Serif" font-size="10.00">/renderer/scene.h</text>
</a>
</g>
</g>
<!-- Node18&#45;&gt;Node20 -->
<g id="edge21" class="edge">
<title>Node18&#45;&gt;Node20</title>
<path fill="none" stroke="midnightblue" d="M669.28,-130.27C692.69,-119.92 721.56,-107.15 743.22,-97.58"/>
<polygon fill="midnightblue" stroke="midnightblue" points="667.68,-127.15 659.95,-134.4 670.51,-133.55 667.68,-127.15"/>
</g>
<!-- Node20&#45;&gt;Node17 -->
<g id="edge23" class="edge">
<title>Node20&#45;&gt;Node17</title>
<path fill="none" stroke="midnightblue" d="M708.33,-66.74C623.68,-50.89 537.02,-37.64 474.36,-28.6"/>
<polygon fill="midnightblue" stroke="midnightblue" points="707.9,-70.22 718.37,-68.63 709.2,-63.34 707.9,-70.22"/>
</g>
<!-- Node21 -->
<g id="node21" class="node">
<title>Node21</title>
<g id="a_node21"><a xlink:href="scene_8cpp.html" target="_top" xlink:title=" ">
<polygon fill="none" stroke="black" points="718.55,-0.5 718.55,-30.5 831.55,-30.5 831.55,-0.5 718.55,-0.5"/>
<text text-anchor="start" x="726.55" y="-18.5" font-family="Helvetica,sans-Serif" font-size="10.00">/github/workspace/src</text>
<text text-anchor="middle" x="775.05" y="-7.5" font-family="Helvetica,sans-Serif" font-size="10.00">/renderer/scene.cpp</text>
</a>
</g>
</g>
<!-- Node20&#45;&gt;Node21 -->
<g id="edge22" class="edge">
<title>Node20&#45;&gt;Node21</title>
<path fill="none" stroke="midnightblue" d="M775.05,-57.11C775.05,-48.15 775.05,-38.32 775.05,-30.58"/>
<polygon fill="midnightblue" stroke="midnightblue" points="771.55,-57.4 775.05,-67.4 778.55,-57.4 771.55,-57.4"/>
</g>
<!-- Node23&#45;&gt;Node2 -->
<g id="edge29" class="edge">
<title>Node23&#45;&gt;Node2</title>
<path fill="none" stroke="midnightblue" d="M1105.89,-371.6C1128.36,-387.94 1151.5,-411.69 1136.05,-433 1079.78,-510.6 1024.53,-478.8 931.05,-500 827.57,-523.47 705.83,-537.14 627.15,-544.21"/>
<polygon fill="midnightblue" stroke="midnightblue" points="1107.61,-368.54 1097.4,-365.73 1103.63,-374.29 1107.61,-368.54"/>
</g>
<!-- Node24 -->
<g id="node24" class="node">
<title>Node24</title>
<g id="a_node24"><a xlink:href="descriptorpoolmanager_8h.html" target="_top" xlink:title=" ">
<polygon fill="none" stroke="black" points="1001.05,-268.5 1001.05,-298.5 1165.05,-298.5 1165.05,-268.5 1001.05,-268.5"/>
<text text-anchor="start" x="1009.05" y="-286.5" font-family="Helvetica,sans-Serif" font-size="10.00">/github/workspace/src</text>
<text text-anchor="middle" x="1083.05" y="-275.5" font-family="Helvetica,sans-Serif" font-size="10.00">/renderer/descriptorpoolmanager.h</text>
</a>
</g>
</g>
<!-- Node23&#45;&gt;Node24 -->
<g id="edge26" class="edge">
<title>Node23&#45;&gt;Node24</title>
<path fill="none" stroke="midnightblue" d="M1076.76,-325.4C1078.15,-316.37 1079.68,-306.41 1080.88,-298.58"/>
<polygon fill="midnightblue" stroke="midnightblue" points="1073.28,-324.98 1075.22,-335.4 1080.2,-326.04 1073.28,-324.98"/>
</g>
<!-- Node26 -->
<g id="node26" class="node">
<title>Node26</title>
<g id="a_node26"><a xlink:href="descriptorset_8cpp.html" target="_top" xlink:title=" ">
<polygon fill="none" stroke="black" points="819.05,-268.5 819.05,-298.5 983.05,-298.5 983.05,-268.5 819.05,-268.5"/>
<text text-anchor="start" x="827.05" y="-286.5" font-family="Helvetica,sans-Serif" font-size="10.00">/github/workspace/src</text>
<text text-anchor="middle" x="901.05" y="-275.5" font-family="Helvetica,sans-Serif" font-size="10.00">/renderer/vulkan/descriptorset.cpp</text>
</a>
</g>
</g>
<!-- Node23&#45;&gt;Node26 -->
<g id="edge30" class="edge">
<title>Node23&#45;&gt;Node26</title>
<path fill="none" stroke="midnightblue" d="M1026.26,-331.82C998.62,-321.37 964.09,-308.32 938.3,-298.58"/>
<polygon fill="midnightblue" stroke="midnightblue" points="1025.14,-335.13 1035.73,-335.4 1027.61,-328.59 1025.14,-335.13"/>
</g>
<!-- Node24&#45;&gt;Node20 -->
<g id="edge28" class="edge">
<title>Node24&#45;&gt;Node20</title>
<path fill="none" stroke="midnightblue" d="M1044.97,-263.87C1027.09,-254.77 1005.67,-243.36 987.05,-232 912.81,-186.72 829.68,-125.05 793.51,-97.64"/>
<polygon fill="midnightblue" stroke="midnightblue" points="1043.45,-267.03 1053.96,-268.4 1046.6,-260.78 1043.45,-267.03"/>
</g>
<!-- Node25 -->
<g id="node25" class="node">
<title>Node25</title>
<g id="a_node25"><a xlink:href="descriptorpoolmanager_8cpp.html" target="_top" xlink:title=" ">
<polygon fill="none" stroke="black" points="996.05,-201.5 996.05,-231.5 1170.05,-231.5 1170.05,-201.5 996.05,-201.5"/>
<text text-anchor="start" x="1004.05" y="-219.5" font-family="Helvetica,sans-Serif" font-size="10.00">/github/workspace/src</text>
<text text-anchor="middle" x="1083.05" y="-208.5" font-family="Helvetica,sans-Serif" font-size="10.00">/renderer/descriptorpoolmanager.cpp</text>
</a>
</g>
</g>
<!-- Node24&#45;&gt;Node25 -->
<g id="edge27" class="edge">
<title>Node24&#45;&gt;Node25</title>
<path fill="none" stroke="midnightblue" d="M1083.05,-258.11C1083.05,-249.15 1083.05,-239.32 1083.05,-231.58"/>
<polygon fill="midnightblue" stroke="midnightblue" points="1079.55,-258.4 1083.05,-268.4 1086.55,-258.4 1079.55,-258.4"/>
</g>
<!-- Node30&#45;&gt;Node1 -->
<g id="edge46" class="edge">
<title>Node30&#45;&gt;Node1</title>
<path fill="none" stroke="midnightblue" d="M356.07,-506.86C373.07,-523.78 397.9,-547.69 421.05,-567 436.67,-580.03 455.33,-593.57 469.31,-603.35"/>
<polygon fill="midnightblue" stroke="midnightblue" points="358.39,-504.23 348.85,-499.63 353.43,-509.18 358.39,-504.23"/>
</g>
<!-- Node30&#45;&gt;Node17 -->
<g id="edge49" class="edge">
<title>Node30&#45;&gt;Node17</title>
<path fill="none" stroke="midnightblue" d="M253.19,-480.46C171.6,-475.71 53.87,-463.61 21.05,-433 -6.15,-407.63 2.05,-388.69 2.05,-351.5 2.05,-351.5 2.05,-351.5 2.05,-148.5 2.05,-85.97 186.1,-46.8 299.69,-28.59"/>
<polygon fill="midnightblue" stroke="midnightblue" points="253.27,-483.97 263.45,-481.03 253.66,-476.98 253.27,-483.97"/>
</g>
<!-- Node30&#45;&gt;Node28 -->
<g id="edge48" class="edge">
<title>Node30&#45;&gt;Node28</title>
<path fill="none" stroke="midnightblue" d="M357.44,-461.97C365,-453.58 372.84,-443.47 378.05,-433 388.95,-411.07 393.3,-382.58 395,-365.74"/>
<polygon fill="midnightblue" stroke="midnightblue" points="354.7,-459.77 350.36,-469.44 359.78,-464.59 354.7,-459.77"/>
</g>
<!-- Node30&#45;&gt;Node31 -->
<g id="edge35" class="edge">
<title>Node30&#45;&gt;Node31</title>
<path fill="none" stroke="midnightblue" d="M390.77,-466.71C428.56,-456.14 478.31,-442.63 516.49,-432.61"/>
<polygon fill="midnightblue" stroke="midnightblue" points="389.63,-463.4 380.95,-469.48 391.52,-470.14 389.63,-463.4"/>
</g>
<!-- Node30&#45;&gt;Node33 -->
<g id="edge40" class="edge">
<title>Node30&#45;&gt;Node33</title>
<path fill="none" stroke="midnightblue" d="M277.26,-466.58C241.2,-456.02 195.33,-442.59 161.24,-432.61"/>
<polygon fill="midnightblue" stroke="midnightblue" points="276.57,-470.02 287.15,-469.48 278.54,-463.31 276.57,-470.02"/>
</g>
<!-- Node35 -->
<g id="node35" class="node">
<title>Node35</title>
<g id="a_node35"><a xlink:href="swapchain_8cpp.html" target="_top" xlink:title=" ">
<polygon fill="none" stroke="black" points="215.05,-402.5 215.05,-432.5 369.05,-432.5 369.05,-402.5 215.05,-402.5"/>
<text text-anchor="start" x="223.05" y="-420.5" font-family="Helvetica,sans-Serif" font-size="10.00">/github/workspace/src</text>
<text text-anchor="middle" x="292.05" y="-409.5" font-family="Helvetica,sans-Serif" font-size="10.00">/renderer/vulkan/swapchain.cpp</text>
</a>
</g>
</g>
<!-- Node30&#45;&gt;Node35 -->
<g id="edge47" class="edge">
<title>Node30&#45;&gt;Node35</title>
<path fill="none" stroke="midnightblue" d="M320.08,-460.87C313.85,-451.46 306.82,-440.83 301.36,-432.58"/>
<polygon fill="midnightblue" stroke="midnightblue" points="317.28,-462.99 325.72,-469.4 323.12,-459.12 317.28,-462.99"/>
</g>
<!-- Node31&#45;&gt;Node2 -->
<g id="edge36" class="edge">
<title>Node31&#45;&gt;Node2</title>
<path fill="none" stroke="midnightblue" d="M549.14,-440.14C541.51,-448.32 534.07,-458.27 530.05,-469 521.57,-491.63 530.68,-519.66 537.95,-536.25"/>
<polygon fill="midnightblue" stroke="midnightblue" points="551.82,-442.41 556.42,-432.87 546.87,-437.46 551.82,-442.41"/>
</g>
<!-- Node31&#45;&gt;Node28 -->
<g id="edge39" class="edge">
<title>Node31&#45;&gt;Node28</title>
<path fill="none" stroke="midnightblue" d="M526,-398.96C497.33,-388.48 461.4,-375.37 434.6,-365.58"/>
<polygon fill="midnightblue" stroke="midnightblue" points="524.83,-402.25 535.43,-402.4 527.23,-395.68 524.83,-402.25"/>
</g>
<!-- Node31&#45;&gt;Node30 -->
<g id="edge38" class="edge">
<title>Node31&#45;&gt;Node30</title>
<path fill="none" stroke="midnightblue" d="M518,-435.38C480.14,-445.97 430.39,-459.47 392.28,-469.48"/>
<polygon fill="midnightblue" stroke="midnightblue" points="519.16,-438.68 527.84,-432.61 517.27,-431.95 519.16,-438.68"/>
</g>
<!-- Node32 -->
<g id="node32" class="node">
<title>Node32</title>
<g id="a_node32"><a xlink:href="framebuffer_8cpp.html" target="_top" xlink:title=" ">
<polygon fill="none" stroke="black" points="496.05,-335.5 496.05,-365.5 652.05,-365.5 652.05,-335.5 496.05,-335.5"/>
<text text-anchor="start" x="504.05" y="-353.5" font-family="Helvetica,sans-Serif" font-size="10.00">/github/workspace/src</text>
<text text-anchor="middle" x="574.05" y="-342.5" font-family="Helvetica,sans-Serif" font-size="10.00">/renderer/vulkan/framebuffer.cpp</text>
</a>
</g>
</g>
<!-- Node31&#45;&gt;Node32 -->
<g id="edge37" class="edge">
<title>Node31&#45;&gt;Node32</title>
<path fill="none" stroke="midnightblue" d="M574.05,-392.11C574.05,-383.15 574.05,-373.32 574.05,-365.58"/>
<polygon fill="midnightblue" stroke="midnightblue" points="570.55,-392.4 574.05,-402.4 577.55,-392.4 570.55,-392.4"/>
</g>
<!-- Node33&#45;&gt;Node2 -->
<g id="edge43" class="edge">
<title>Node33&#45;&gt;Node2</title>
<path fill="none" stroke="midnightblue" d="M141.02,-438.51C168.67,-457.3 212.84,-484.75 255.05,-500 322.7,-524.44 403.62,-537.27 462.78,-543.87"/>
<polygon fill="midnightblue" stroke="midnightblue" points="142.87,-435.53 132.65,-432.74 138.9,-441.29 142.87,-435.53"/>
</g>
<!-- Node33&#45;&gt;Node9 -->
<g id="edge42" class="edge">
<title>Node33&#45;&gt;Node9</title>
<path fill="none" stroke="midnightblue" d="M184.01,-399.58C211.26,-391.51 242.04,-380.42 268.05,-366 286.81,-355.6 285.61,-344.07 305.05,-335 379.05,-300.49 473.94,-289.44 533.38,-285.98"/>
<polygon fill="midnightblue" stroke="midnightblue" points="182.79,-396.29 174.15,-402.41 184.73,-403.01 182.79,-396.29"/>
</g>
<!-- Node33&#45;&gt;Node10 -->
<g id="edge41" class="edge">
<title>Node33&#45;&gt;Node10</title>
<path fill="none" stroke="midnightblue" d="M90.21,-395C75,-378.01 60,-354.06 73.05,-335 126.29,-257.26 239.01,-230.94 310.95,-222.04"/>
<polygon fill="midnightblue" stroke="midnightblue" points="87.69,-397.43 97.12,-402.27 92.77,-392.61 87.69,-397.43"/>
</g>
<!-- Node33&#45;&gt;Node28 -->
<g id="edge45" class="edge">
<title>Node33&#45;&gt;Node28</title>
<path fill="none" stroke="midnightblue" d="M184.08,-400.19C230.43,-389.54 290.32,-375.78 334.61,-365.61"/>
<polygon fill="midnightblue" stroke="midnightblue" points="183.07,-396.83 174.11,-402.48 184.64,-403.65 183.07,-396.83"/>
</g>
<!-- Node34 -->
<g id="node34" class="node">
<title>Node34</title>
<g id="a_node34"><a xlink:href="graphicspipeline_8cpp.html" target="_top" xlink:title=" ">
<polygon fill="none" stroke="black" points="81.55,-335.5 81.55,-365.5 258.55,-365.5 258.55,-335.5 81.55,-335.5"/>
<text text-anchor="start" x="89.55" y="-353.5" font-family="Helvetica,sans-Serif" font-size="10.00">/github/workspace/src</text>
<text text-anchor="middle" x="170.05" y="-342.5" font-family="Helvetica,sans-Serif" font-size="10.00">/renderer/vulkan/graphicspipeline.cpp</text>
</a>
</g>
</g>
<!-- Node33&#45;&gt;Node34 -->
<g id="edge44" class="edge">
<title>Node33&#45;&gt;Node34</title>
<path fill="none" stroke="midnightblue" d="M132.13,-394.74C140.57,-385.12 150.24,-374.09 157.71,-365.58"/>
<polygon fill="midnightblue" stroke="midnightblue" points="129.38,-392.57 125.42,-402.4 134.64,-397.18 129.38,-392.57"/>
</g>
</g>
</svg>
        <g id="navigator" transform="translate(0 0)" fill="#404254">
                <rect fill="#f2f5e9" fill-opacity="0.5" stroke="#606060" stroke-width=".5" x="0" y="0" width="60" height="60"/>
                <use id="zoomplus" xlink:href="#zoomPlus" x="17" y="9" onmousedown="handleZoom(evt,'in')"/>
                <use id="zoomminus" xlink:href="#zoomMin" x="42" y="9" onmousedown="handleZoom(evt,'out')"/>
                <use id="reset" xlink:href="#resetDef" x="30" y="36" onmousedown="handleReset()"/>
                <g id="arrowUp" xlink:href="#dirArrow" transform="translate(30 24)" onmousedown="handlePan(0,-1)">
                  <use xlink:href="#rim" fill="#404040">
                        <set attributeName="fill" to="#808080" begin="arrowUp.mouseover" end="arrowUp.mouseout"/>
                  </use>
                  <path fill="none" stroke="white" stroke-width="1.5" d="M0,-3.0v7 M-2.5,-0.5L0,-3.0L2.5,-0.5"/>
                </g>
                <g id="arrowRight" xlink:href="#dirArrow" transform="rotate(90) translate(36 -43)" onmousedown="handlePan(1,0)">
                  <use xlink:href="#rim" fill="#404040">
                        <set attributeName="fill" to="#808080" begin="arrowRight.mouseover" end="arrowRight.mouseout"/>
                  </use>
                  <path fill="none" stroke="white" stroke-width="1.5" d="M0,-3.0v7 M-2.5,-0.5L0,-3.0L2.5,-0.5"/>
                </g>
                <g id="arrowDown" xlink:href="#dirArrow" transform="rotate(180) translate(-30 -48)" onmousedown="handlePan(0,1)">
                  <use xlink:href="#rim" fill="#404040">
                        <set attributeName="fill" to="#808080" begin="arrowDown.mouseover" end="arrowDown.mouseout"/>
                  </use>
                  <path fill="none" stroke="white" stroke-width="1.5" d="M0,-3.0v7 M-2.5,-0.5L0,-3.0L2.5,-0.5"/>
                </g>
                <g id="arrowLeft" xlink:href="#dirArrow" transform="rotate(270) translate(-36 17)" onmousedown="handlePan(-1,0)">
                  <use xlink:href="#rim" fill="#404040">
                        <set attributeName="fill" to="#808080" begin="arrowLeft.mouseover" end="arrowLeft.mouseout"/>
                  </use>
                  <path fill="none" stroke="white" stroke-width="1.5" d="M0,-3.0v7 M-2.5,-0.5L0,-3.0L2.5,-0.5"/>
                </g>
        </g>
        <svg viewBox="0 0 15 15" width="100%" height="30px" preserveAspectRatio="xMaxYMin meet">
         <g id="arrow_out" transform="scale(0.3 0.3)">
          <a xlink:href="renderpass_8h__dep__incl_org.svg" target="_base">
           <rect id="button" ry="5" rx="5" y="6" x="6" height="38" width="38"
                fill="#f2f5e9" fill-opacity="0.5" stroke="#606060" stroke-width="1.0"/>
           <path id="arrow"
             d="M 11.500037,31.436501 C 11.940474,20.09759 22.043105,11.32322 32.158766,21.979434 L 37.068811,17.246167 C 37.068811,17.246167 37.088388,32 37.088388,32 L 22.160133,31.978069 C 22.160133,31.978069 26.997745,27.140456 26.997745,27.140456 C 18.528582,18.264221 13.291696,25.230495 11.500037,31.436501 z"
             style="fill:#404040;"/>
          </a>
         </g>
        </svg>
</svg>
