<?xml version="1.0" encoding="UTF-8" standalone="no"?>
<!DOCTYPE svg PUBLIC "-//W3C//DTD SVG 1.1//EN"
 "http://www.w3.org/Graphics/SVG/1.1/DTD/svg11.dtd">
<!-- Generated by graphviz version 3.0.0 (20220413.0106)
 -->
<!-- Title: /github/workspace/src/renderer/rendermanager.h Pages: 1 -->
<!--zoomable 240 -->
<svg id="main" version="1.1" xmlns="http://www.w3.org/2000/svg" xmlns:xlink="http://www.w3.org/1999/xlink" xml:space="preserve" onload="init(evt)">
<style type="text/css"><![CDATA[
.edge:hover path { stroke: red; }
.edge:hover polygon { stroke: red; fill: red; }
]]></style>
<script type="text/javascript"><![CDATA[
var edges = document.getElementsByTagName('g');
if (edges && edges.length) {
  for (var i=0;i<edges.length;i++) {
    if (edges[i].id.substr(0,4)=='edge') {
      edges[i].setAttribute('class','edge');
    }
  }
}
]]></script>
        <defs>
                <circle id="rim" cx="0" cy="0" r="7"/>
                <circle id="rim2" cx="0" cy="0" r="3.5"/>
                <g id="zoomPlus">
                        <use xlink:href="#rim" fill="#404040">
                                <set attributeName="fill" to="#808080" begin="zoomplus.mouseover" end="zoomplus.mouseout"/>
                        </use>
                        <path d="M-4,0h8M0,-4v8" fill="none" stroke="white" stroke-width="1.5" pointer-events="none"/>
                </g>
                <g id="zoomMin">
                        <use xlink:href="#rim" fill="#404040">
                                <set attributeName="fill" to="#808080" begin="zoomminus.mouseover" end="zoomminus.mouseout"/>
                        </use>
                        <path d="M-4,0h8" fill="none" stroke="white" stroke-width="1.5" pointer-events="none"/>
                </g>
                <g id="dirArrow">
                        <path fill="none" stroke="white" stroke-width="1.5" d="M0,-3.0v7 M-2.5,-0.5L0,-3.0L2.5,-0.5"/>
                </g>
               <g id="resetDef">
                       <use xlink:href="#rim2" fill="#404040">
                               <set attributeName="fill" to="#808080" begin="reset.mouseover" end="reset.mouseout"/>
                       </use>
               </g>
        </defs>

<script type="text/javascript">
var viewWidth = 1040;
var viewHeight = 240;
var sectionId = 'dynsection-1';
</script>
<script xlink:href="svgpan.js"/>
<svg id="graph" class="graph">
<g id="viewport">
<title>/github/workspace/src/renderer/rendermanager.h</title>
<!-- Node1 -->
<g id="node1" class="node">
<title>Node1</title>
<g id="a_node1"><a xlink:title=" ">
<polygon fill="#bfbfbf" stroke="black" points="619.86,-201.5 619.86,-231.5 749.86,-231.5 749.86,-201.5 619.86,-201.5"/>
<text text-anchor="start" x="627.86" y="-219.5" font-family="Helvetica,sans-Serif" font-size="10.00">/github/workspace/src</text>
<text text-anchor="middle" x="684.86" y="-208.5" font-family="Helvetica,sans-Serif" font-size="10.00">/renderer/rendermanager.h</text>
</a>
</g>
</g>
<!-- Node2 -->
<g id="node2" class="node">
<title>Node2</title>
<g id="a_node2"><a xlink:href="rendermanager_8cpp.html" target="_top" xlink:title=" ">
<polygon fill="none" stroke="black" points="384.86,-134.5 384.86,-164.5 524.86,-164.5 524.86,-134.5 384.86,-134.5"/>
<text text-anchor="start" x="392.86" y="-152.5" font-family="Helvetica,sans-Serif" font-size="10.00">/github/workspace/src</text>
<text text-anchor="middle" x="454.86" y="-141.5" font-family="Helvetica,sans-Serif" font-size="10.00">/renderer/rendermanager.cpp</text>
</a>
</g>
</g>
<!-- Node1&#45;&gt;Node2 -->
<g id="edge1" class="edge">
<title>Node1&#45;&gt;Node2</title>
<path fill="none" stroke="midnightblue" d="M625.47,-198.71C588.04,-188.14 540.26,-174.63 504.8,-164.61"/>
<polygon fill="midnightblue" stroke="midnightblue" points="624.67,-202.12 635.24,-201.48 626.57,-195.39 624.67,-202.12"/>
</g>
<!-- Node3 -->
<g id="node3" class="node">
<title>Node3</title>
<g id="a_node3"><a xlink:href="scene_8h.html" target="_top" xlink:title=" ">
<polygon fill="none" stroke="black" points="543.36,-134.5 543.36,-164.5 656.36,-164.5 656.36,-134.5 543.36,-134.5"/>
<text text-anchor="start" x="551.36" y="-152.5" font-family="Helvetica,sans-Serif" font-size="10.00">/github/workspace/src</text>
<text text-anchor="middle" x="599.86" y="-141.5" font-family="Helvetica,sans-Serif" font-size="10.00">/renderer/scene.h</text>
</a>
</g>
</g>
<!-- Node1&#45;&gt;Node3 -->
<g id="edge2" class="edge">
<title>Node1&#45;&gt;Node3</title>
<path fill="none" stroke="midnightblue" d="M652.36,-195.45C638.51,-185.45 623.21,-173.6 612.6,-164.58"/>
<polygon fill="midnightblue" stroke="midnightblue" points="650.56,-198.47 660.74,-201.4 654.61,-192.76 650.56,-198.47"/>
</g>
<!-- Node7 -->
<g id="node7" class="node">
<title>Node7</title>
<g id="a_node7"><a xlink:href="main_8cpp.html" target="_top" xlink:title=" ">
<polygon fill="none" stroke="black" points="572.36,-0.5 572.36,-30.5 685.36,-30.5 685.36,-0.5 572.36,-0.5"/>
<text text-anchor="start" x="580.36" y="-18.5" font-family="Helvetica,sans-Serif" font-size="10.00">/github/workspace/src</text>
<text text-anchor="middle" x="628.86" y="-7.5" font-family="Helvetica,sans-Serif" font-size="10.00">/tests/main.cpp</text>
</a>
</g>
</g>
<!-- Node1&#45;&gt;Node7 -->
<g id="edge28" class="edge">
<title>Node1&#45;&gt;Node7</title>
<path fill="none" stroke="midnightblue" d="M679.36,-191.51C675.52,-175.23 670.17,-153.24 664.86,-134 654.49,-96.36 640.55,-52.49 633.45,-30.53"/>
<polygon fill="midnightblue" stroke="midnightblue" points="675.96,-192.36 681.64,-201.3 682.78,-190.77 675.96,-192.36"/>
</g>
<!-- Node9 -->
<g id="node9" class="node">
<title>Node9</title>
<g id="a_node9"><a xlink:href="vulkan__voxel__rasterizer__4_8cpp.html" target="_top" xlink:title=" ">
<polygon fill="none" stroke="black" points="703.86,-0.5 703.86,-30.5 877.86,-30.5 877.86,-0.5 703.86,-0.5"/>
<text text-anchor="start" x="711.86" y="-18.5" font-family="Helvetica,sans-Serif" font-size="10.00">/github/workspace/src</text>
<text text-anchor="middle" x="790.86" y="-7.5" font-family="Helvetica,sans-Serif" font-size="10.00">/tests/vulkan_voxel_rasterizer_4.cpp</text>
</a>
</g>
</g>
<!-- Node1&#45;&gt;Node9 -->
<g id="edge29" class="edge">
<title>Node1&#45;&gt;Node9</title>
<path fill="none" stroke="midnightblue" d="M760.22,-214.06C841.69,-207.92 967.67,-184.05 1025.86,-98 1033.58,-86.59 1034.52,-77.72 1025.86,-67 1016.28,-55.13 940.95,-40.34 878.12,-29.84"/>
<polygon fill="midnightblue" stroke="midnightblue" points="759.76,-210.58 750.02,-214.75 760.23,-217.57 759.76,-210.58"/>
</g>
<!-- Node15 -->
<g id="node15" class="node">
<title>Node15</title>
<g id="a_node15"><a xlink:href="scenewriter_8h.html" target="_top" xlink:title=" ">
<polygon fill="none" stroke="black" points="733.86,-134.5 733.86,-164.5 849.86,-164.5 849.86,-134.5 733.86,-134.5"/>
<text text-anchor="start" x="741.86" y="-152.5" font-family="Helvetica,sans-Serif" font-size="10.00">/github/workspace/src</text>
<text text-anchor="middle" x="791.86" y="-141.5" font-family="Helvetica,sans-Serif" font-size="10.00">/renderer/scenewriter.h</text>
</a>
</g>
</g>
<!-- Node1&#45;&gt;Node15 -->
<g id="edge24" class="edge">
<title>Node1&#45;&gt;Node15</title>
<path fill="none" stroke="midnightblue" d="M711.14,-195.73C726.89,-185.68 746.83,-173.68 763.02,-164.58"/>
<polygon fill="midnightblue" stroke="midnightblue" points="708.89,-193.02 702.4,-201.4 712.7,-198.89 708.89,-193.02"/>
</g>
<!-- Node3&#45;&gt;Node1 -->
<g id="edge3" class="edge">
<title>Node3&#45;&gt;Node1</title>
<path fill="none" stroke="midnightblue" d="M632.33,-170.52C646.18,-180.51 661.48,-192.37 672.1,-201.4"/>
<polygon fill="midnightblue" stroke="midnightblue" points="634.13,-167.5 623.95,-164.58 630.08,-173.22 634.13,-167.5"/>
</g>
<!-- Node4 -->
<g id="node4" class="node">
<title>Node4</title>
<g id="a_node4"><a xlink:href="scene_8cpp.html" target="_top" xlink:title=" ">
<polygon fill="none" stroke="black" points="342.36,-67.5 342.36,-97.5 455.36,-97.5 455.36,-67.5 342.36,-67.5"/>
<text text-anchor="start" x="350.36" y="-85.5" font-family="Helvetica,sans-Serif" font-size="10.00">/github/workspace/src</text>
<text text-anchor="middle" x="398.86" y="-74.5" font-family="Helvetica,sans-Serif" font-size="10.00">/renderer/scene.cpp</text>
</a>
</g>
</g>
<!-- Node3&#45;&gt;Node4 -->
<g id="edge4" class="edge">
<title>Node3&#45;&gt;Node4</title>
<path fill="none" stroke="midnightblue" d="M546.45,-131.23C513.94,-120.71 472.93,-107.45 442.39,-97.58"/>
<polygon fill="midnightblue" stroke="midnightblue" points="545.66,-134.65 556.25,-134.4 547.81,-127.99 545.66,-134.65"/>
</g>
<!-- Node5 -->
<g id="node5" class="node">
<title>Node5</title>
<g id="a_node5"><a xlink:href="mainmenu_8h.html" target="_top" xlink:title=" ">
<polygon fill="none" stroke="black" points="751.36,-67.5 751.36,-97.5 872.36,-97.5 872.36,-67.5 751.36,-67.5"/>
<text text-anchor="start" x="759.36" y="-85.5" font-family="Helvetica,sans-Serif" font-size="10.00">/github/workspace/src</text>
<text text-anchor="middle" x="811.86" y="-74.5" font-family="Helvetica,sans-Serif" font-size="10.00">/renderer/ui/mainmenu.h</text>
</a>
</g>
</g>
<!-- Node3&#45;&gt;Node5 -->
<g id="edge5" class="edge">
<title>Node3&#45;&gt;Node5</title>
<path fill="none" stroke="midnightblue" d="M655.49,-131.44C689.86,-120.91 733.43,-107.55 765.84,-97.61"/>
<polygon fill="midnightblue" stroke="midnightblue" points="654.14,-128.2 645.6,-134.48 656.19,-134.89 654.14,-128.2"/>
</g>
<!-- Node3&#45;&gt;Node7 -->
<g id="edge20" class="edge">
<title>Node3&#45;&gt;Node7</title>
<path fill="none" stroke="midnightblue" d="M615.07,-125.51C619.77,-117.19 624.36,-107.5 626.86,-98 632.93,-75.01 631.89,-47.09 630.47,-30.62"/>
<polygon fill="midnightblue" stroke="midnightblue" points="611.98,-123.86 609.83,-134.23 617.98,-127.46 611.98,-123.86"/>
</g>
<!-- Node8 -->
<g id="node8" class="node">
<title>Node8</title>
<g id="a_node8"><a xlink:href="vulkan__voxel__rasterizer__3_8cpp.html" target="_top" xlink:title=" ">
<polygon fill="none" stroke="black" points="189.86,-0.5 189.86,-30.5 363.86,-30.5 363.86,-0.5 189.86,-0.5"/>
<text text-anchor="start" x="197.86" y="-18.5" font-family="Helvetica,sans-Serif" font-size="10.00">/github/workspace/src</text>
<text text-anchor="middle" x="276.86" y="-7.5" font-family="Helvetica,sans-Serif" font-size="10.00">/tests/vulkan_voxel_rasterizer_3.cpp</text>
</a>
</g>
</g>
<!-- Node3&#45;&gt;Node8 -->
<g id="edge22" class="edge">
<title>Node3&#45;&gt;Node8</title>
<path fill="none" stroke="midnightblue" d="M533.03,-134.38C441.24,-126.83 45.28,-139.13 6.86,-98 -2.54,-87.93 -1.94,-77.6 6.86,-67 18.69,-52.76 115.47,-37.22 189.82,-27.19"/>
<polygon fill="midnightblue" stroke="midnightblue" points="532.76,-137.87 543.08,-135.47 533.51,-130.91 532.76,-137.87"/>
</g>
<!-- Node3&#45;&gt;Node9 -->
<g id="edge23" class="edge">
<title>Node3&#45;&gt;Node9</title>
<path fill="none" stroke="midnightblue" d="M628.63,-128.62C667.68,-101.64 736.49,-54.08 770.57,-30.52"/>
<polygon fill="midnightblue" stroke="midnightblue" points="626.54,-125.81 620.31,-134.37 630.52,-131.57 626.54,-125.81"/>
</g>
<!-- Node10 -->
<g id="node10" class="node">
<title>Node10</title>
<g id="a_node10"><a xlink:href="objectlist_8h.html" target="_top" xlink:title=" ">
<polygon fill="none" stroke="black" points="16.36,-67.5 16.36,-97.5 131.36,-97.5 131.36,-67.5 16.36,-67.5"/>
<text text-anchor="start" x="24.36" y="-85.5" font-family="Helvetica,sans-Serif" font-size="10.00">/github/workspace/src</text>
<text text-anchor="middle" x="73.86" y="-74.5" font-family="Helvetica,sans-Serif" font-size="10.00">/renderer/ui/objectlist.h</text>
</a>
</g>
</g>
<!-- Node3&#45;&gt;Node10 -->
<g id="edge10" class="edge">
<title>Node3&#45;&gt;Node10</title>
<path fill="none" stroke="midnightblue" d="M533.05,-134.01C358.78,-107.76 311.02,-124.11 140.86,-98 137.81,-97.53 134.68,-97.01 131.53,-96.45"/>
<polygon fill="midnightblue" stroke="midnightblue" points="532.65,-137.5 543.07,-135.55 533.71,-130.58 532.65,-137.5"/>
</g>
<!-- Node12 -->
<g id="node12" class="node">
<title>Node12</title>
<g id="a_node12"><a xlink:href="objectproperties_8h.html" target="_top" xlink:title=" ">
<polygon fill="none" stroke="black" points="473.36,-67.5 473.36,-97.5 618.36,-97.5 618.36,-67.5 473.36,-67.5"/>
<text text-anchor="start" x="481.36" y="-85.5" font-family="Helvetica,sans-Serif" font-size="10.00">/github/workspace/src</text>
<text text-anchor="middle" x="545.86" y="-74.5" font-family="Helvetica,sans-Serif" font-size="10.00">/renderer/ui/objectproperties.h</text>
</a>
</g>
</g>
<!-- Node3&#45;&gt;Node12 -->
<g id="edge15" class="edge">
<title>Node3&#45;&gt;Node12</title>
<path fill="none" stroke="midnightblue" d="M581.54,-126.45C573.61,-116.9 564.56,-106 557.56,-97.58"/>
<polygon fill="midnightblue" stroke="midnightblue" points="579.07,-128.94 588.15,-134.4 584.45,-124.47 579.07,-128.94"/>
</g>
<!-- Node14 -->
<g id="node14" class="node">
<title>Node14</title>
<g id="a_node14"><a xlink:href="vulkan__voxel__rasterizer__2_8cpp.html" target="_top" xlink:title=" ">
<polygon fill="none" stroke="black" points="149.86,-67.5 149.86,-97.5 323.86,-97.5 323.86,-67.5 149.86,-67.5"/>
<text text-anchor="start" x="157.86" y="-85.5" font-family="Helvetica,sans-Serif" font-size="10.00">/github/workspace/src</text>
<text text-anchor="middle" x="236.86" y="-74.5" font-family="Helvetica,sans-Serif" font-size="10.00">/tests/vulkan_voxel_rasterizer_2.cpp</text>
</a>
</g>
</g>
<!-- Node3&#45;&gt;Node14 -->
<g id="edge21" class="edge">
<title>Node3&#45;&gt;Node14</title>
<path fill="none" stroke="midnightblue" d="M532.77,-133.84C456.69,-119.15 380.87,-106.39 324.14,-97.21"/>
<polygon fill="midnightblue" stroke="midnightblue" points="532.54,-137.36 543.02,-135.83 533.87,-130.49 532.54,-137.36"/>
</g>
<!-- Node6 -->
<g id="node6" class="node">
<title>Node6</title>
<g id="a_node6"><a xlink:href="mainmenu_8cpp.html" target="_top" xlink:title=" ">
<polygon fill="none" stroke="black" points="896.36,-0.5 896.36,-30.5 1027.36,-30.5 1027.36,-0.5 896.36,-0.5"/>
<text text-anchor="start" x="904.36" y="-18.5" font-family="Helvetica,sans-Serif" font-size="10.00">/github/workspace/src</text>
<text text-anchor="middle" x="961.86" y="-7.5" font-family="Helvetica,sans-Serif" font-size="10.00">/renderer/ui/mainmenu.cpp</text>
</a>
</g>
</g>
<!-- Node5&#45;&gt;Node6 -->
<g id="edge6" class="edge">
<title>Node5&#45;&gt;Node6</title>
<path fill="none" stroke="midnightblue" d="M853.62,-63.41C877.57,-53.03 907.18,-40.2 929.38,-30.58"/>
<polygon fill="midnightblue" stroke="midnightblue" points="852.2,-60.21 844.41,-67.4 854.98,-66.63 852.2,-60.21"/>
</g>
<!-- Node5&#45;&gt;Node7 -->
<g id="edge7" class="edge">
<title>Node5&#45;&gt;Node7</title>
<path fill="none" stroke="midnightblue" d="M762.47,-63.96C732.99,-53.48 696.06,-40.37 668.5,-30.58"/>
<polygon fill="midnightblue" stroke="midnightblue" points="761.56,-67.35 772.16,-67.4 763.9,-60.75 761.56,-67.35"/>
</g>
<!-- Node5&#45;&gt;Node8 -->
<g id="edge8" class="edge">
<title>Node5&#45;&gt;Node8</title>
<path fill="none" stroke="midnightblue" d="M740.87,-73.19C656.99,-63.33 513.23,-46.3 389.86,-31 381.52,-29.97 372.84,-28.88 364.15,-27.78"/>
<polygon fill="midnightblue" stroke="midnightblue" points="740.71,-76.7 751.05,-74.39 741.52,-69.74 740.71,-76.7"/>
</g>
<!-- Node5&#45;&gt;Node9 -->
<g id="edge9" class="edge">
<title>Node5&#45;&gt;Node9</title>
<path fill="none" stroke="midnightblue" d="M804.17,-57.7C801.23,-48.59 797.97,-38.49 795.41,-30.58"/>
<polygon fill="midnightblue" stroke="midnightblue" points="800.9,-58.96 807.31,-67.4 807.56,-56.8 800.9,-58.96"/>
</g>
<!-- Node10&#45;&gt;Node7 -->
<g id="edge12" class="edge">
<title>Node10&#45;&gt;Node7</title>
<path fill="none" stroke="midnightblue" d="M141.42,-67.06C328.75,-39.71 379.94,-58.77 562.86,-31 565.88,-30.54 568.96,-30.03 572.07,-29.47"/>
<polygon fill="midnightblue" stroke="midnightblue" points="140.9,-63.6 131.52,-68.53 141.93,-70.53 140.9,-63.6"/>
</g>
<!-- Node10&#45;&gt;Node8 -->
<g id="edge13" class="edge">
<title>Node10&#45;&gt;Node8</title>
<path fill="none" stroke="midnightblue" d="M127.81,-64.23C160.65,-53.71 202.06,-40.45 232.9,-30.58"/>
<polygon fill="midnightblue" stroke="midnightblue" points="126.37,-61.01 117.91,-67.4 128.5,-67.68 126.37,-61.01"/>
</g>
<!-- Node10&#45;&gt;Node9 -->
<g id="edge14" class="edge">
<title>Node10&#45;&gt;Node9</title>
<path fill="none" stroke="midnightblue" d="M141.43,-67.08C386.51,-33.49 452.2,-56.88 693.86,-31 697.08,-30.66 700.36,-30.28 703.66,-29.89"/>
<polygon fill="midnightblue" stroke="midnightblue" points="140.93,-63.62 131.51,-68.46 141.9,-70.55 140.93,-63.62"/>
</g>
<!-- Node11 -->
<g id="node11" class="node">
<title>Node11</title>
<g id="a_node11"><a xlink:href="objectlist_8cpp.html" target="_top" xlink:title=" ">
<polygon fill="none" stroke="black" points="11.36,-0.5 11.36,-30.5 136.36,-30.5 136.36,-0.5 11.36,-0.5"/>
<text text-anchor="start" x="19.36" y="-18.5" font-family="Helvetica,sans-Serif" font-size="10.00">/github/workspace/src</text>
<text text-anchor="middle" x="73.86" y="-7.5" font-family="Helvetica,sans-Serif" font-size="10.00">/renderer/ui/objectlist.cpp</text>
</a>
</g>
</g>
<!-- Node10&#45;&gt;Node11 -->
<g id="edge11" class="edge">
<title>Node10&#45;&gt;Node11</title>
<path fill="none" stroke="midnightblue" d="M73.86,-57.11C73.86,-48.15 73.86,-38.32 73.86,-30.58"/>
<polygon fill="midnightblue" stroke="midnightblue" points="70.36,-57.4 73.86,-67.4 77.36,-57.4 70.36,-57.4"/>
</g>
<!-- Node12&#45;&gt;Node7 -->
<g id="edge17" class="edge">
<title>Node12&#45;&gt;Node7</title>
<path fill="none" stroke="midnightblue" d="M571.83,-61.17C584.52,-51.23 599.48,-39.51 610.89,-30.58"/>
<polygon fill="midnightblue" stroke="midnightblue" points="569.59,-58.47 563.87,-67.4 573.91,-63.99 569.59,-58.47"/>
</g>
<!-- Node12&#45;&gt;Node8 -->
<g id="edge18" class="edge">
<title>Node12&#45;&gt;Node8</title>
<path fill="none" stroke="midnightblue" d="M478.07,-65.12C434.05,-54.48 377.28,-40.76 335.26,-30.61"/>
<polygon fill="midnightblue" stroke="midnightblue" points="477.28,-68.53 487.83,-67.48 478.93,-61.73 477.28,-68.53"/>
</g>
<!-- Node12&#45;&gt;Node9 -->
<g id="edge19" class="edge">
<title>Node12&#45;&gt;Node9</title>
<path fill="none" stroke="midnightblue" d="M608.62,-64.85C648.57,-54.25 699.73,-40.68 737.68,-30.61"/>
<polygon fill="midnightblue" stroke="midnightblue" points="607.49,-61.53 598.72,-67.48 609.29,-68.29 607.49,-61.53"/>
</g>
<!-- Node13 -->
<g id="node13" class="node">
<title>Node13</title>
<g id="a_node13"><a xlink:href="objectproperties_8cpp.html" target="_top" xlink:title=" ">
<polygon fill="none" stroke="black" points="399.36,-0.5 399.36,-30.5 554.36,-30.5 554.36,-0.5 399.36,-0.5"/>
<text text-anchor="start" x="407.36" y="-18.5" font-family="Helvetica,sans-Serif" font-size="10.00">/github/workspace/src</text>
<text text-anchor="middle" x="476.86" y="-7.5" font-family="Helvetica,sans-Serif" font-size="10.00">/renderer/ui/objectproperties.cpp</text>
</a>
</g>
</g>
<!-- Node12&#45;&gt;Node13 -->
<g id="edge16" class="edge">
<title>Node12&#45;&gt;Node13</title>
<path fill="none" stroke="midnightblue" d="M523.37,-60.31C513.02,-50.56 501.02,-39.26 491.81,-30.58"/>
<polygon fill="midnightblue" stroke="midnightblue" points="521.21,-63.09 530.89,-67.4 526.01,-57.99 521.21,-63.09"/>
</g>
<!-- Node15&#45;&gt;Node1 -->
<g id="edge25" class="edge">
<title>Node15&#45;&gt;Node1</title>
<path fill="none" stroke="midnightblue" d="M765.64,-170.24C749.89,-180.29 729.96,-192.28 713.76,-201.4"/>
<polygon fill="midnightblue" stroke="midnightblue" points="767.88,-172.95 774.37,-164.58 764.07,-167.08 767.88,-172.95"/>
</g>
<!-- Node15&#45;&gt;Node5 -->
<g id="edge27" class="edge">
<title>Node15&#45;&gt;Node5</title>
<path fill="none" stroke="midnightblue" d="M799.19,-124.7C801.99,-115.59 805.1,-105.49 807.53,-97.58"/>
<polygon fill="midnightblue" stroke="midnightblue" points="795.8,-123.81 796.2,-134.4 802.49,-125.87 795.8,-123.81"/>
</g>
<!-- Node16 -->
<g id="node16" class="node">
<title>Node16</title>
<g id="a_node16"><a xlink:href="scenewriter_8cpp.html" target="_top" xlink:title=" ">
<polygon fill="none" stroke="black" points="890.86,-67.5 890.86,-97.5 1016.86,-97.5 1016.86,-67.5 890.86,-67.5"/>
<text text-anchor="start" x="898.86" y="-85.5" font-family="Helvetica,sans-Serif" font-size="10.00">/github/workspace/src</text>
<text text-anchor="middle" x="953.86" y="-74.5" font-family="Helvetica,sans-Serif" font-size="10.00">/renderer/scenewriter.cpp</text>
</a>
</g>
</g>
<!-- Node15&#45;&gt;Node16 -->
<g id="edge26" class="edge">
<title>Node15&#45;&gt;Node16</title>
<path fill="none" stroke="midnightblue" d="M836.62,-130.54C862.54,-120.14 894.7,-107.24 918.78,-97.58"/>
<polygon fill="midnightblue" stroke="midnightblue" points="834.99,-127.42 827.02,-134.4 837.6,-133.92 834.99,-127.42"/>
</g>
</g>
</svg>
        <g id="navigator" transform="translate(0 0)" fill="#404254">
                <rect fill="#f2f5e9" fill-opacity="0.5" stroke="#606060" stroke-width=".5" x="0" y="0" width="60" height="60"/>
                <use id="zoomplus" xlink:href="#zoomPlus" x="17" y="9" onmousedown="handleZoom(evt,'in')"/>
                <use id="zoomminus" xlink:href="#zoomMin" x="42" y="9" onmousedown="handleZoom(evt,'out')"/>
                <use id="reset" xlink:href="#resetDef" x="30" y="36" onmousedown="handleReset()"/>
                <g id="arrowUp" xlink:href="#dirArrow" transform="translate(30 24)" onmousedown="handlePan(0,-1)">
                  <use xlink:href="#rim" fill="#404040">
                        <set attributeName="fill" to="#808080" begin="arrowUp.mouseover" end="arrowUp.mouseout"/>
                  </use>
                  <path fill="none" stroke="white" stroke-width="1.5" d="M0,-3.0v7 M-2.5,-0.5L0,-3.0L2.5,-0.5"/>
                </g>
                <g id="arrowRight" xlink:href="#dirArrow" transform="rotate(90) translate(36 -43)" onmousedown="handlePan(1,0)">
                  <use xlink:href="#rim" fill="#404040">
                        <set attributeName="fill" to="#808080" begin="arrowRight.mouseover" end="arrowRight.mouseout"/>
                  </use>
                  <path fill="none" stroke="white" stroke-width="1.5" d="M0,-3.0v7 M-2.5,-0.5L0,-3.0L2.5,-0.5"/>
                </g>
                <g id="arrowDown" xlink:href="#dirArrow" transform="rotate(180) translate(-30 -48)" onmousedown="handlePan(0,1)">
                  <use xlink:href="#rim" fill="#404040">
                        <set attributeName="fill" to="#808080" begin="arrowDown.mouseover" end="arrowDown.mouseout"/>
                  </use>
                  <path fill="none" stroke="white" stroke-width="1.5" d="M0,-3.0v7 M-2.5,-0.5L0,-3.0L2.5,-0.5"/>
                </g>
                <g id="arrowLeft" xlink:href="#dirArrow" transform="rotate(270) translate(-36 17)" onmousedown="handlePan(-1,0)">
                  <use xlink:href="#rim" fill="#404040">
                        <set attributeName="fill" to="#808080" begin="arrowLeft.mouseover" end="arrowLeft.mouseout"/>
                  </use>
                  <path fill="none" stroke="white" stroke-width="1.5" d="M0,-3.0v7 M-2.5,-0.5L0,-3.0L2.5,-0.5"/>
                </g>
        </g>
        <svg viewBox="0 0 15 15" width="100%" height="30px" preserveAspectRatio="xMaxYMin meet">
         <g id="arrow_out" transform="scale(0.3 0.3)">
          <a xlink:href="rendermanager_8h__dep__incl_org.svg" target="_base">
           <rect id="button" ry="5" rx="5" y="6" x="6" height="38" width="38"
                fill="#f2f5e9" fill-opacity="0.5" stroke="#606060" stroke-width="1.0"/>
           <path id="arrow"
             d="M 11.500037,31.436501 C 11.940474,20.09759 22.043105,11.32322 32.158766,21.979434 L 37.068811,17.246167 C 37.068811,17.246167 37.088388,32 37.088388,32 L 22.160133,31.978069 C 22.160133,31.978069 26.997745,27.140456 26.997745,27.140456 C 18.528582,18.264221 13.291696,25.230495 11.500037,31.436501 z"
             style="fill:#404040;"/>
          </a>
         </g>
        </svg>
</svg>
