<?xml version="1.0" encoding="UTF-8" standalone="no"?>
<!DOCTYPE svg PUBLIC "-//W3C//DTD SVG 1.1//EN"
 "http://www.w3.org/Graphics/SVG/1.1/DTD/svg11.dtd">
<!-- Generated by graphviz version 2.49.3 (20211027.1501)
 -->
<!-- Title: /github/workspace/src/renderer/vulkan/renderpass.h Pages: 1 -->
<!--zoomable 374 -->
<svg id="main" version="1.1" xmlns="http://www.w3.org/2000/svg" xmlns:xlink="http://www.w3.org/1999/xlink" xml:space="preserve" onload="init(evt)">
<style type="text/css"><![CDATA[
.edge:hover path { stroke: red; }
.edge:hover polygon { stroke: red; fill: red; }
]]></style>
<script type="text/javascript"><![CDATA[
var edges = document.getElementsByTagName('g');
if (edges && edges.length) {
  for (var i=0;i<edges.length;i++) {
    if (edges[i].id.substr(0,4)=='edge') {
      edges[i].setAttribute('class','edge');
    }
  }
}
]]></script>
        <defs>
                <circle id="rim" cx="0" cy="0" r="7"/>
                <circle id="rim2" cx="0" cy="0" r="3.5"/>
                <g id="zoomPlus">
                        <use xlink:href="#rim" fill="#404040">
                                <set attributeName="fill" to="#808080" begin="zoomplus.mouseover" end="zoomplus.mouseout"/>
                        </use>
                        <path d="M-4,0h8M0,-4v8" fill="none" stroke="white" stroke-width="1.5" pointer-events="none"/>
                </g>
                <g id="zoomMin">
                        <use xlink:href="#rim" fill="#404040">
                                <set attributeName="fill" to="#808080" begin="zoomminus.mouseover" end="zoomminus.mouseout"/>
                        </use>
                        <path d="M-4,0h8" fill="none" stroke="white" stroke-width="1.5" pointer-events="none"/>
                </g>
                <g id="dirArrow">
                        <path fill="none" stroke="white" stroke-width="1.5" d="M0,-3.0v7 M-2.5,-0.5L0,-3.0L2.5,-0.5"/>
                </g>
               <g id="resetDef">
                       <use xlink:href="#rim2" fill="#404040">
                               <set attributeName="fill" to="#808080" begin="reset.mouseover" end="reset.mouseout"/>
                       </use>
               </g>
        </defs>

<script type="text/javascript">
var viewWidth = 860;
var viewHeight = 374;
var sectionId = 'dynsection-1';
</script>
<script xlink:href="svgpan.js"/>
<svg id="graph" class="graph">
<g id="viewport">
<title>/github/workspace/src/renderer/vulkan/renderpass.h</title>
<!-- Node1 -->
<g id="node1" class="node">
<title>Node1</title>
<g id="a_node1"><a xlink:title=" ">
<polygon fill="#bfbfbf" stroke="black" points="302.5,-335.5 302.5,-365.5 447.5,-365.5 447.5,-335.5 302.5,-335.5"/>
<text text-anchor="start" x="310.5" y="-353.5" font-family="Helvetica,sans-Serif" font-size="10.00">/github/workspace/src</text>
<text text-anchor="middle" x="375" y="-342.5" font-family="Helvetica,sans-Serif" font-size="10.00">/renderer/vulkan/renderpass.h</text>
</a>
</g>
</g>
<!-- Node2 -->
<g id="node2" class="node">
<title>Node2</title>
<g id="a_node2"><a xlink:href="commandbuffer_8h.html" target="_top" xlink:title=" ">
<polygon fill="none" stroke="black" points="5,-67.5 5,-97.5 169,-97.5 169,-67.5 5,-67.5"/>
<text text-anchor="start" x="13" y="-85.5" font-family="Helvetica,sans-Serif" font-size="10.00">/github/workspace/src</text>
<text text-anchor="middle" x="87" y="-74.5" font-family="Helvetica,sans-Serif" font-size="10.00">/renderer/vulkan/commandbuffer.h</text>
</a>
</g>
</g>
<!-- Node1&#45;&gt;Node2 -->
<g id="edge1" class="edge">
<title>Node1&#45;&gt;Node2</title>
<path fill="none" stroke="midnightblue" d="M339.18,-330.52C286.74,-301.18 188.72,-240.25 128,-165 110.99,-143.92 98.41,-114.64 91.93,-97.52"/>
<polygon fill="midnightblue" stroke="midnightblue" points="337.67,-333.68 348.12,-335.46 341.06,-327.56 337.67,-333.68"/>
</g>
<!-- Node4 -->
<g id="node4" class="node">
<title>Node4</title>
<g id="a_node4"><a xlink:href="vulkan__voxel__rasterizer_8cpp.html" target="_top" xlink:title=" ">
<polygon fill="none" stroke="black" points="529,-0.5 529,-30.5 693,-30.5 693,-0.5 529,-0.5"/>
<text text-anchor="start" x="537" y="-18.5" font-family="Helvetica,sans-Serif" font-size="10.00">/github/workspace/src</text>
<text text-anchor="middle" x="611" y="-7.5" font-family="Helvetica,sans-Serif" font-size="10.00">/tests/vulkan_voxel_rasterizer.cpp</text>
</a>
</g>
</g>
<!-- Node1&#45;&gt;Node4 -->
<g id="edge22" class="edge">
<title>Node1&#45;&gt;Node4</title>
<path fill="none" stroke="midnightblue" d="M457.91,-346.39C544.55,-338.18 668,-310.21 668,-217.5 668,-217.5 668,-217.5 668,-148.5 668,-102.32 638.23,-53.95 621.72,-30.67"/>
<polygon fill="midnightblue" stroke="midnightblue" points="457.46,-342.92 447.8,-347.28 458.07,-349.89 457.46,-342.92"/>
</g>
<!-- Node5 -->
<g id="node5" class="node">
<title>Node5</title>
<g id="a_node5"><a xlink:href="framebuffer_8h.html" target="_top" xlink:title=" ">
<polygon fill="none" stroke="black" points="353,-268.5 353,-298.5 499,-298.5 499,-268.5 353,-268.5"/>
<text text-anchor="start" x="361" y="-286.5" font-family="Helvetica,sans-Serif" font-size="10.00">/github/workspace/src</text>
<text text-anchor="middle" x="426" y="-275.5" font-family="Helvetica,sans-Serif" font-size="10.00">/renderer/vulkan/framebuffer.h</text>
</a>
</g>
</g>
<!-- Node1&#45;&gt;Node5 -->
<g id="edge4" class="edge">
<title>Node1&#45;&gt;Node5</title>
<path fill="none" stroke="midnightblue" d="M392.3,-327.45C399.79,-317.9 408.34,-307 414.96,-298.58"/>
<polygon fill="midnightblue" stroke="midnightblue" points="389.49,-325.37 386.07,-335.4 394.99,-329.69 389.49,-325.37"/>
</g>
<!-- Node10 -->
<g id="node10" class="node">
<title>Node10</title>
<g id="a_node10"><a xlink:href="graphicspipeline_8h.html" target="_top" xlink:title=" ">
<polygon fill="none" stroke="black" points="172.5,-134.5 172.5,-164.5 339.5,-164.5 339.5,-134.5 172.5,-134.5"/>
<text text-anchor="start" x="180.5" y="-152.5" font-family="Helvetica,sans-Serif" font-size="10.00">/github/workspace/src</text>
<text text-anchor="middle" x="256" y="-141.5" font-family="Helvetica,sans-Serif" font-size="10.00">/renderer/vulkan/graphicspipeline.h</text>
</a>
</g>
</g>
<!-- Node1&#45;&gt;Node10 -->
<g id="edge20" class="edge">
<title>Node1&#45;&gt;Node10</title>
<path fill="none" stroke="midnightblue" d="M351.47,-328.43C328.5,-306.56 294.29,-270.25 275,-232 263.94,-210.08 259.21,-181.58 257.26,-164.74"/>
<polygon fill="midnightblue" stroke="midnightblue" points="349.09,-331.01 358.79,-335.28 353.87,-325.89 349.09,-331.01"/>
</g>
<!-- Node13 -->
<g id="node13" class="node">
<title>Node13</title>
<g id="a_node13"><a xlink:href="renderpass_8cpp.html" target="_top" xlink:title=" ">
<polygon fill="none" stroke="black" points="696.5,-268.5 696.5,-298.5 851.5,-298.5 851.5,-268.5 696.5,-268.5"/>
<text text-anchor="start" x="704.5" y="-286.5" font-family="Helvetica,sans-Serif" font-size="10.00">/github/workspace/src</text>
<text text-anchor="middle" x="774" y="-275.5" font-family="Helvetica,sans-Serif" font-size="10.00">/renderer/vulkan/renderpass.cpp</text>
</a>
</g>
</g>
<!-- Node1&#45;&gt;Node13 -->
<g id="edge21" class="edge">
<title>Node1&#45;&gt;Node13</title>
<path fill="none" stroke="midnightblue" d="M457.84,-336C527.96,-324.58 627.72,-308.33 696.33,-297.15"/>
<polygon fill="midnightblue" stroke="midnightblue" points="457.03,-332.59 447.72,-337.65 458.15,-339.5 457.03,-332.59"/>
</g>
<!-- Node3 -->
<g id="node3" class="node">
<title>Node3</title>
<g id="a_node3"><a xlink:href="commandbuffer_8cpp.html" target="_top" xlink:title=" ">
<polygon fill="none" stroke="black" points="0,-0.5 0,-30.5 174,-30.5 174,-0.5 0,-0.5"/>
<text text-anchor="start" x="8" y="-18.5" font-family="Helvetica,sans-Serif" font-size="10.00">/github/workspace/src</text>
<text text-anchor="middle" x="87" y="-7.5" font-family="Helvetica,sans-Serif" font-size="10.00">/renderer/vulkan/commandbuffer.cpp</text>
</a>
</g>
</g>
<!-- Node2&#45;&gt;Node3 -->
<g id="edge2" class="edge">
<title>Node2&#45;&gt;Node3</title>
<path fill="none" stroke="midnightblue" d="M87,-57.11C87,-48.15 87,-38.32 87,-30.58"/>
<polygon fill="midnightblue" stroke="midnightblue" points="83.5,-57.4 87,-67.4 90.5,-57.4 83.5,-57.4"/>
</g>
<!-- Node2&#45;&gt;Node4 -->
<g id="edge3" class="edge">
<title>Node2&#45;&gt;Node4</title>
<path fill="none" stroke="midnightblue" d="M179.43,-66.99C331.82,-47.29 372.17,-50.57 520,-31 522.85,-30.62 525.76,-30.23 528.69,-29.82"/>
<polygon fill="midnightblue" stroke="midnightblue" points="178.69,-63.56 169.23,-68.33 179.6,-70.5 178.69,-63.56"/>
</g>
<!-- Node5&#45;&gt;Node2 -->
<g id="edge5" class="edge">
<title>Node5&#45;&gt;Node2</title>
<path fill="none" stroke="midnightblue" d="M365.26,-265.54C337.23,-256.87 303.84,-245.33 275,-232 222.69,-207.83 208.86,-201.16 164,-165 138.08,-144.11 112.43,-114.76 98.26,-97.58"/>
<polygon fill="midnightblue" stroke="midnightblue" points="364.35,-268.92 374.94,-268.49 366.39,-262.23 364.35,-268.92"/>
</g>
<!-- Node5&#45;&gt;Node4 -->
<g id="edge19" class="edge">
<title>Node5&#45;&gt;Node4</title>
<path fill="none" stroke="midnightblue" d="M509.24,-269.87C552.13,-261.47 598.11,-248.88 611,-232 657.89,-170.6 629.13,-68.04 616.26,-30.67"/>
<polygon fill="midnightblue" stroke="midnightblue" points="508.47,-266.45 499.29,-271.75 509.77,-273.33 508.47,-266.45"/>
</g>
<!-- Node6 -->
<g id="node6" class="node">
<title>Node6</title>
<g id="a_node6"><a xlink:href="framebuffer_8cpp.html" target="_top" xlink:title=" ">
<polygon fill="none" stroke="black" points="446,-201.5 446,-231.5 602,-231.5 602,-201.5 446,-201.5"/>
<text text-anchor="start" x="454" y="-219.5" font-family="Helvetica,sans-Serif" font-size="10.00">/github/workspace/src</text>
<text text-anchor="middle" x="524" y="-208.5" font-family="Helvetica,sans-Serif" font-size="10.00">/renderer/vulkan/framebuffer.cpp</text>
</a>
</g>
</g>
<!-- Node5&#45;&gt;Node6 -->
<g id="edge6" class="edge">
<title>Node5&#45;&gt;Node6</title>
<path fill="none" stroke="midnightblue" d="M455.8,-262.73C470.97,-252.68 489.04,-240.68 502.78,-231.58"/>
<polygon fill="midnightblue" stroke="midnightblue" points="453.66,-259.95 447.26,-268.4 457.53,-265.79 453.66,-259.95"/>
</g>
<!-- Node7 -->
<g id="node7" class="node">
<title>Node7</title>
<g id="a_node7"><a xlink:href="swapchain_8h.html" target="_top" xlink:title=" ">
<polygon fill="none" stroke="black" points="284.5,-201.5 284.5,-231.5 427.5,-231.5 427.5,-201.5 284.5,-201.5"/>
<text text-anchor="start" x="292.5" y="-219.5" font-family="Helvetica,sans-Serif" font-size="10.00">/github/workspace/src</text>
<text text-anchor="middle" x="356" y="-208.5" font-family="Helvetica,sans-Serif" font-size="10.00">/renderer/vulkan/swapchain.h</text>
</a>
</g>
</g>
<!-- Node5&#45;&gt;Node7 -->
<g id="edge7" class="edge">
<title>Node5&#45;&gt;Node7</title>
<path fill="none" stroke="midnightblue" d="M397.47,-261.88C386.1,-252.01 373.85,-240.43 365.48,-231.58"/>
<polygon fill="midnightblue" stroke="midnightblue" points="395.25,-264.59 405.13,-268.4 399.78,-259.25 395.25,-264.59"/>
</g>
<!-- Node7&#45;&gt;Node1 -->
<g id="edge16" class="edge">
<title>Node7&#45;&gt;Node1</title>
<path fill="none" stroke="midnightblue" d="M347.26,-241.45C342.53,-257.87 338.64,-280.03 344,-299 347.8,-312.46 356.31,-325.88 363.46,-335.49"/>
<polygon fill="midnightblue" stroke="midnightblue" points="350.71,-242.16 350.41,-231.57 344.04,-240.04 350.71,-242.16"/>
</g>
<!-- Node7&#45;&gt;Node4 -->
<g id="edge18" class="edge">
<title>Node7&#45;&gt;Node4</title>
<path fill="none" stroke="midnightblue" d="M437.61,-199.5C477.95,-190.27 521.31,-177.95 537,-165 580.75,-128.87 600.99,-60.41 607.99,-30.77"/>
<polygon fill="midnightblue" stroke="midnightblue" points="436.7,-196.12 427.7,-201.72 438.23,-202.95 436.7,-196.12"/>
</g>
<!-- Node7&#45;&gt;Node5 -->
<g id="edge10" class="edge">
<title>Node7&#45;&gt;Node5</title>
<path fill="none" stroke="midnightblue" d="M384.5,-238.09C395.86,-247.96 408.11,-259.54 416.49,-268.4"/>
<polygon fill="midnightblue" stroke="midnightblue" points="386.72,-235.38 376.83,-231.58 382.19,-240.72 386.72,-235.38"/>
</g>
<!-- Node8 -->
<g id="node8" class="node">
<title>Node8</title>
<g id="a_node8"><a xlink:href="application_8h.html" target="_top" xlink:title=" ">
<polygon fill="none" stroke="black" points="382.5,-67.5 382.5,-97.5 525.5,-97.5 525.5,-67.5 382.5,-67.5"/>
<text text-anchor="start" x="390.5" y="-85.5" font-family="Helvetica,sans-Serif" font-size="10.00">/github/workspace/src</text>
<text text-anchor="middle" x="454" y="-74.5" font-family="Helvetica,sans-Serif" font-size="10.00">/renderer/vulkan/application.h</text>
</a>
</g>
</g>
<!-- Node7&#45;&gt;Node8 -->
<g id="edge8" class="edge">
<title>Node7&#45;&gt;Node8</title>
<path fill="none" stroke="midnightblue" d="M437.82,-199.97C473.83,-191.31 510.37,-179.36 521,-165 529.19,-153.92 527.15,-146.33 521,-134 513.14,-118.23 497.74,-106.08 483.69,-97.66"/>
<polygon fill="midnightblue" stroke="midnightblue" points="436.65,-196.64 427.7,-202.32 438.24,-203.46 436.65,-196.64"/>
</g>
<!-- Node7&#45;&gt;Node10 -->
<g id="edge11" class="edge">
<title>Node7&#45;&gt;Node10</title>
<path fill="none" stroke="midnightblue" d="M325.59,-195.73C310.12,-185.68 291.67,-173.68 277.66,-164.58"/>
<polygon fill="midnightblue" stroke="midnightblue" points="324.01,-198.88 334.3,-201.4 327.82,-193.01 324.01,-198.88"/>
</g>
<!-- Node12 -->
<g id="node12" class="node">
<title>Node12</title>
<g id="a_node12"><a xlink:href="swapchain_8cpp.html" target="_top" xlink:title=" ">
<polygon fill="none" stroke="black" points="358,-134.5 358,-164.5 512,-164.5 512,-134.5 358,-134.5"/>
<text text-anchor="start" x="366" y="-152.5" font-family="Helvetica,sans-Serif" font-size="10.00">/github/workspace/src</text>
<text text-anchor="middle" x="435" y="-141.5" font-family="Helvetica,sans-Serif" font-size="10.00">/renderer/vulkan/swapchain.cpp</text>
</a>
</g>
</g>
<!-- Node7&#45;&gt;Node12 -->
<g id="edge17" class="edge">
<title>Node7&#45;&gt;Node12</title>
<path fill="none" stroke="midnightblue" d="M381.06,-194.88C393.06,-185.01 407.13,-173.43 417.89,-164.58"/>
<polygon fill="midnightblue" stroke="midnightblue" points="378.64,-192.34 373.14,-201.4 383.09,-197.75 378.64,-192.34"/>
</g>
<!-- Node9 -->
<g id="node9" class="node">
<title>Node9</title>
<g id="a_node9"><a xlink:href="application_8cpp.html" target="_top" xlink:title=" ">
<polygon fill="none" stroke="black" points="357,-0.5 357,-30.5 511,-30.5 511,-0.5 357,-0.5"/>
<text text-anchor="start" x="365" y="-18.5" font-family="Helvetica,sans-Serif" font-size="10.00">/github/workspace/src</text>
<text text-anchor="middle" x="434" y="-7.5" font-family="Helvetica,sans-Serif" font-size="10.00">/renderer/vulkan/application.cpp</text>
</a>
</g>
</g>
<!-- Node8&#45;&gt;Node9 -->
<g id="edge9" class="edge">
<title>Node8&#45;&gt;Node9</title>
<path fill="none" stroke="midnightblue" d="M446.68,-57.7C443.87,-48.59 440.77,-38.49 438.33,-30.58"/>
<polygon fill="midnightblue" stroke="midnightblue" points="443.37,-58.87 449.66,-67.4 450.06,-56.81 443.37,-58.87"/>
</g>
<!-- Node10&#45;&gt;Node2 -->
<g id="edge13" class="edge">
<title>Node10&#45;&gt;Node2</title>
<path fill="none" stroke="midnightblue" d="M209.67,-130.68C182.57,-120.26 148.83,-107.28 123.6,-97.58"/>
<polygon fill="midnightblue" stroke="midnightblue" points="208.74,-134.07 219.33,-134.4 211.25,-127.54 208.74,-134.07"/>
</g>
<!-- Node10&#45;&gt;Node4 -->
<g id="edge15" class="edge">
<title>Node10&#45;&gt;Node4</title>
<path fill="none" stroke="midnightblue" d="M349.86,-132.96C427.61,-119.86 526.69,-102.54 535,-98 564.89,-81.68 589.6,-49.28 602.13,-30.62"/>
<polygon fill="midnightblue" stroke="midnightblue" points="348.81,-129.59 339.52,-134.7 349.97,-136.49 348.81,-129.59"/>
</g>
<!-- Node10&#45;&gt;Node8 -->
<g id="edge12" class="edge">
<title>Node10&#45;&gt;Node8</title>
<path fill="none" stroke="midnightblue" d="M308.61,-131.23C340.64,-120.71 381.04,-107.45 411.12,-97.58"/>
<polygon fill="midnightblue" stroke="midnightblue" points="307.37,-127.95 298.96,-134.4 309.56,-134.6 307.37,-127.95"/>
</g>
<!-- Node11 -->
<g id="node11" class="node">
<title>Node11</title>
<g id="a_node11"><a xlink:href="graphicspipeline_8cpp.html" target="_top" xlink:title=" ">
<polygon fill="none" stroke="black" points="187.5,-67.5 187.5,-97.5 364.5,-97.5 364.5,-67.5 187.5,-67.5"/>
<text text-anchor="start" x="195.5" y="-85.5" font-family="Helvetica,sans-Serif" font-size="10.00">/github/workspace/src</text>
<text text-anchor="middle" x="276" y="-74.5" font-family="Helvetica,sans-Serif" font-size="10.00">/renderer/vulkan/graphicspipeline.cpp</text>
</a>
</g>
</g>
<!-- Node10&#45;&gt;Node11 -->
<g id="edge14" class="edge">
<title>Node10&#45;&gt;Node11</title>
<path fill="none" stroke="midnightblue" d="M263.32,-124.7C266.13,-115.59 269.23,-105.49 271.67,-97.58"/>
<polygon fill="midnightblue" stroke="midnightblue" points="259.94,-123.81 260.34,-134.4 266.63,-125.87 259.94,-123.81"/>
</g>
</g>
</svg>
        <g id="navigator" transform="translate(0 0)" fill="#404254">
                <rect fill="#f2f5e9" fill-opacity="0.5" stroke="#606060" stroke-width=".5" x="0" y="0" width="60" height="60"/>
                <use id="zoomplus" xlink:href="#zoomPlus" x="17" y="9" onmousedown="handleZoom(evt,'in')"/>
                <use id="zoomminus" xlink:href="#zoomMin" x="42" y="9" onmousedown="handleZoom(evt,'out')"/>
                <use id="reset" xlink:href="#resetDef" x="30" y="36" onmousedown="handleReset()"/>
                <g id="arrowUp" xlink:href="#dirArrow" transform="translate(30 24)" onmousedown="handlePan(0,-1)">
                  <use xlink:href="#rim" fill="#404040">
                        <set attributeName="fill" to="#808080" begin="arrowUp.mouseover" end="arrowUp.mouseout"/>
                  </use>
                  <path fill="none" stroke="white" stroke-width="1.5" d="M0,-3.0v7 M-2.5,-0.5L0,-3.0L2.5,-0.5"/>
                </g>
                <g id="arrowRight" xlink:href="#dirArrow" transform="rotate(90) translate(36 -43)" onmousedown="handlePan(1,0)">
                  <use xlink:href="#rim" fill="#404040">
                        <set attributeName="fill" to="#808080" begin="arrowRight.mouseover" end="arrowRight.mouseout"/>
                  </use>
                  <path fill="none" stroke="white" stroke-width="1.5" d="M0,-3.0v7 M-2.5,-0.5L0,-3.0L2.5,-0.5"/>
                </g>
                <g id="arrowDown" xlink:href="#dirArrow" transform="rotate(180) translate(-30 -48)" onmousedown="handlePan(0,1)">
                  <use xlink:href="#rim" fill="#404040">
                        <set attributeName="fill" to="#808080" begin="arrowDown.mouseover" end="arrowDown.mouseout"/>
                  </use>
                  <path fill="none" stroke="white" stroke-width="1.5" d="M0,-3.0v7 M-2.5,-0.5L0,-3.0L2.5,-0.5"/>
                </g>
                <g id="arrowLeft" xlink:href="#dirArrow" transform="rotate(270) translate(-36 17)" onmousedown="handlePan(-1,0)">
                  <use xlink:href="#rim" fill="#404040">
                        <set attributeName="fill" to="#808080" begin="arrowLeft.mouseover" end="arrowLeft.mouseout"/>
                  </use>
                  <path fill="none" stroke="white" stroke-width="1.5" d="M0,-3.0v7 M-2.5,-0.5L0,-3.0L2.5,-0.5"/>
                </g>
        </g>
        <svg viewBox="0 0 15 15" width="100%" height="30px" preserveAspectRatio="xMaxYMin meet">
         <g id="arrow_out" transform="scale(0.3 0.3)">
          <a xlink:href="renderpass_8h__dep__incl_org.svg" target="_base">
           <rect id="button" ry="5" rx="5" y="6" x="6" height="38" width="38"
                fill="#f2f5e9" fill-opacity="0.5" stroke="#606060" stroke-width="1.0"/>
           <path id="arrow"
             d="M 11.500037,31.436501 C 11.940474,20.09759 22.043105,11.32322 32.158766,21.979434 L 37.068811,17.246167 C 37.068811,17.246167 37.088388,32 37.088388,32 L 22.160133,31.978069 C 22.160133,31.978069 26.997745,27.140456 26.997745,27.140456 C 18.528582,18.264221 13.291696,25.230495 11.500037,31.436501 z"
             style="fill:#404040;"/>
          </a>
         </g>
        </svg>
</svg>
