<?xml version="1.0" encoding="UTF-8" standalone="no"?>
<!DOCTYPE svg PUBLIC "-//W3C//DTD SVG 1.1//EN"
 "http://www.w3.org/Graphics/SVG/1.1/DTD/svg11.dtd">
<!-- Generated by graphviz version 3.0.0 (20220413.0106)
 -->
<!-- Title: /github/workspace/src/renderer/vulkan/sampler.cpp Pages: 1 -->
<!--zoomable 431 -->
<svg id="main" version="1.1" xmlns="http://www.w3.org/2000/svg" xmlns:xlink="http://www.w3.org/1999/xlink" xml:space="preserve" onload="init(evt)">
<style type="text/css"><![CDATA[
.edge:hover path { stroke: red; }
.edge:hover polygon { stroke: red; fill: red; }
]]></style>
<script type="text/javascript"><![CDATA[
var edges = document.getElementsByTagName('g');
if (edges && edges.length) {
  for (var i=0;i<edges.length;i++) {
    if (edges[i].id.substr(0,4)=='edge') {
      edges[i].setAttribute('class','edge');
    }
  }
}
]]></script>
        <defs>
                <circle id="rim" cx="0" cy="0" r="7"/>
                <circle id="rim2" cx="0" cy="0" r="3.5"/>
                <g id="zoomPlus">
                        <use xlink:href="#rim" fill="#404040">
                                <set attributeName="fill" to="#808080" begin="zoomplus.mouseover" end="zoomplus.mouseout"/>
                        </use>
                        <path d="M-4,0h8M0,-4v8" fill="none" stroke="white" stroke-width="1.5" pointer-events="none"/>
                </g>
                <g id="zoomMin">
                        <use xlink:href="#rim" fill="#404040">
                                <set attributeName="fill" to="#808080" begin="zoomminus.mouseover" end="zoomminus.mouseout"/>
                        </use>
                        <path d="M-4,0h8" fill="none" stroke="white" stroke-width="1.5" pointer-events="none"/>
                </g>
                <g id="dirArrow">
                        <path fill="none" stroke="white" stroke-width="1.5" d="M0,-3.0v7 M-2.5,-0.5L0,-3.0L2.5,-0.5"/>
                </g>
               <g id="resetDef">
                       <use xlink:href="#rim2" fill="#404040">
                               <set attributeName="fill" to="#808080" begin="reset.mouseover" end="reset.mouseout"/>
                       </use>
               </g>
        </defs>

<script type="text/javascript">
var viewWidth = 1412;
var viewHeight = 431;
var sectionId = 'dynsection-0';
</script>
<script xlink:href="svgpan.js"/>
<svg id="graph" class="graph">
<g id="viewport">
<title>/github/workspace/src/renderer/vulkan/sampler.cpp</title>
<!-- Node1 -->
<g id="node1" class="node">
<title>Node1</title>
<g id="a_node1"><a xlink:title=" ">
<polygon fill="#bfbfbf" stroke="black" points="1071,-392.5 1071,-422.5 1213,-422.5 1213,-392.5 1071,-392.5"/>
<text text-anchor="start" x="1079" y="-410.5" font-family="Helvetica,sans-Serif" font-size="10.00">/github/workspace/src</text>
<text text-anchor="middle" x="1142" y="-399.5" font-family="Helvetica,sans-Serif" font-size="10.00">/renderer/vulkan/sampler.cpp</text>
</a>
</g>
</g>
<!-- Node2 -->
<g id="node2" class="node">
<title>Node2</title>
<g id="a_node2"><a xlink:href="sampler_8h.html" target="_top" xlink:title=" ">
<polygon fill="none" stroke="black" points="1112.5,-336.5 1112.5,-355.5 1171.5,-355.5 1171.5,-336.5 1112.5,-336.5"/>
<text text-anchor="middle" x="1142" y="-343.5" font-family="Helvetica,sans-Serif" font-size="10.00">sampler.h</text>
</a>
</g>
</g>
<!-- Node1&#45;&gt;Node2 -->
<g id="edge1" class="edge">
<title>Node1&#45;&gt;Node2</title>
<path fill="none" stroke="midnightblue" d="M1142,-392.4C1142,-384.47 1142,-374.46 1142,-365.86"/>
<polygon fill="midnightblue" stroke="midnightblue" points="1145.5,-365.66 1142,-355.66 1138.5,-365.66 1145.5,-365.66"/>
</g>
<!-- Node3 -->
<g id="node3" class="node">
<title>Node3</title>
<g id="a_node3"><a xlink:title=" ">
<polygon fill="none" stroke="#bfbfbf" points="1088,-112.5 1088,-131.5 1196,-131.5 1196,-112.5 1088,-112.5"/>
<text text-anchor="middle" x="1142" y="-119.5" font-family="Helvetica,sans-Serif" font-size="10.00">vulkan/vulkan_core.h</text>
</a>
</g>
</g>
<!-- Node2&#45;&gt;Node3 -->
<g id="edge2" class="edge">
<title>Node2&#45;&gt;Node3</title>
<path fill="none" stroke="midnightblue" d="M1142,-336.3C1142,-303.63 1142,-187.87 1142,-141.96"/>
<polygon fill="midnightblue" stroke="midnightblue" points="1145.5,-141.88 1142,-131.88 1138.5,-141.88 1145.5,-141.88"/>
</g>
<!-- Node4 -->
<g id="node4" class="node">
<title>Node4</title>
<g id="a_node4"><a xlink:href="device_8h.html" target="_top" xlink:title=" ">
<polygon fill="none" stroke="black" points="403.5,-280.5 403.5,-299.5 456.5,-299.5 456.5,-280.5 403.5,-280.5"/>
<text text-anchor="middle" x="430" y="-287.5" font-family="Helvetica,sans-Serif" font-size="10.00">device.h</text>
</a>
</g>
</g>
<!-- Node2&#45;&gt;Node4 -->
<g id="edge3" class="edge">
<title>Node2&#45;&gt;Node4</title>
<path fill="none" stroke="midnightblue" d="M1112.31,-342.75C998.77,-334.14 592.12,-303.3 466.94,-293.8"/>
<polygon fill="midnightblue" stroke="midnightblue" points="466.96,-290.29 456.73,-293.03 466.43,-297.27 466.96,-290.29"/>
</g>
<!-- Node18 -->
<g id="node18" class="node">
<title>Node18</title>
<g id="a_node18"><a xlink:href="vulkanclass_8h.html" target="_top" xlink:title=" ">
<polygon fill="none" stroke="black" points="955,-56.5 955,-75.5 1031,-75.5 1031,-56.5 955,-56.5"/>
<text text-anchor="middle" x="993" y="-63.5" font-family="Helvetica,sans-Serif" font-size="10.00">vulkanclass.h</text>
</a>
</g>
</g>
<!-- Node2&#45;&gt;Node18 -->
<g id="edge58" class="edge">
<title>Node2&#45;&gt;Node18</title>
<path fill="none" stroke="midnightblue" d="M1164.29,-336.5C1198.99,-321.63 1262,-287.43 1262,-235 1262,-235 1262,-235 1262,-177 1262,-142.84 1249.16,-131.33 1221,-112 1192.36,-92.35 1099.13,-78.78 1041.13,-71.99"/>
<polygon fill="midnightblue" stroke="midnightblue" points="1041.42,-68.5 1031.08,-70.85 1040.62,-75.46 1041.42,-68.5"/>
</g>
<!-- Node5 -->
<g id="node5" class="node">
<title>Node5</title>
<g id="a_node5"><a xlink:title=" ">
<polygon fill="none" stroke="#bfbfbf" points="951,-0.5 951,-19.5 1035,-19.5 1035,-0.5 951,-0.5"/>
<text text-anchor="middle" x="993" y="-7.5" font-family="Helvetica,sans-Serif" font-size="10.00">vulkan/vulkan.h</text>
</a>
</g>
</g>
<!-- Node4&#45;&gt;Node5 -->
<g id="edge4" class="edge">
<title>Node4&#45;&gt;Node5</title>
<path fill="none" stroke="midnightblue" d="M456.89,-289.29C584.57,-290.39 1130.04,-292.15 1292,-244 1347.17,-227.6 1404,-236.55 1404,-179 1404,-179 1404,-179 1404,-121 1404,-89.54 1401.22,-74.8 1376,-56 1324.89,-17.91 1137.92,-11.59 1045.47,-10.85"/>
<polygon fill="midnightblue" stroke="midnightblue" points="1045.24,-7.35 1035.22,-10.78 1045.2,-14.35 1045.24,-7.35"/>
</g>
<!-- Node6 -->
<g id="node6" class="node">
<title>Node6</title>
<g id="a_node6"><a xlink:title=" ">
<polygon fill="none" stroke="#bfbfbf" points="1279.5,-56.5 1279.5,-75.5 1366.5,-75.5 1366.5,-56.5 1279.5,-56.5"/>
<text text-anchor="middle" x="1323" y="-63.5" font-family="Helvetica,sans-Serif" font-size="10.00">vk_mem_alloc.h</text>
</a>
</g>
</g>
<!-- Node4&#45;&gt;Node6 -->
<g id="edge5" class="edge">
<title>Node4&#45;&gt;Node6</title>
<path fill="none" stroke="midnightblue" d="M456.85,-288.87C591.56,-288.06 1190.29,-282.32 1263,-244 1318.05,-214.99 1327.66,-191.14 1347,-132 1352.35,-115.62 1344.2,-97.22 1335.98,-84.19"/>
<polygon fill="midnightblue" stroke="midnightblue" points="1338.73,-82.01 1330.18,-75.76 1332.97,-85.98 1338.73,-82.01"/>
</g>
<!-- Node7 -->
<g id="node7" class="node">
<title>Node7</title>
<g id="a_node7"><a xlink:title=" ">
<polygon fill="none" stroke="#bfbfbf" points="453,-0.5 453,-19.5 497,-19.5 497,-0.5 453,-0.5"/>
<text text-anchor="middle" x="475" y="-7.5" font-family="Helvetica,sans-Serif" font-size="10.00">vector</text>
</a>
</g>
</g>
<!-- Node4&#45;&gt;Node7 -->
<g id="edge6" class="edge">
<title>Node4&#45;&gt;Node7</title>
<path fill="none" stroke="midnightblue" d="M403.39,-286.53C321.07,-278.18 76,-247.54 76,-179 76,-179 76,-179 76,-121 76,-82.99 348.52,-32.68 443.12,-16.36"/>
<polygon fill="midnightblue" stroke="midnightblue" points="443.71,-19.8 452.98,-14.67 442.53,-12.9 443.71,-19.8"/>
</g>
<!-- Node8 -->
<g id="node8" class="node">
<title>Node8</title>
<g id="a_node8"><a xlink:title=" ">
<polygon fill="none" stroke="#bfbfbf" points="387.5,-56.5 387.5,-75.5 446.5,-75.5 446.5,-56.5 387.5,-56.5"/>
<text text-anchor="middle" x="417" y="-63.5" font-family="Helvetica,sans-Serif" font-size="10.00">stdexcept</text>
</a>
</g>
</g>
<!-- Node4&#45;&gt;Node8 -->
<g id="edge7" class="edge">
<title>Node4&#45;&gt;Node8</title>
<path fill="none" stroke="midnightblue" d="M403.34,-288.36C347.71,-285.38 220.36,-269.54 171,-188 166.4,-180.4 166.05,-175.38 171,-168 217.35,-98.87 320.41,-77.02 377.33,-70.14"/>
<polygon fill="midnightblue" stroke="midnightblue" points="377.84,-73.6 387.4,-69.02 377.07,-66.64 377.84,-73.6"/>
</g>
<!-- Node9 -->
<g id="node9" class="node">
<title>Node9</title>
<g id="a_node9"><a xlink:title=" ">
<polygon fill="none" stroke="#bfbfbf" points="289.5,-56.5 289.5,-75.5 330.5,-75.5 330.5,-56.5 289.5,-56.5"/>
<text text-anchor="middle" x="310" y="-63.5" font-family="Helvetica,sans-Serif" font-size="10.00">string</text>
</a>
</g>
</g>
<!-- Node4&#45;&gt;Node9 -->
<g id="edge8" class="edge">
<title>Node4&#45;&gt;Node9</title>
<path fill="none" stroke="midnightblue" d="M403.32,-286.48C349.87,-281.01 232,-266.68 199,-244 174.81,-227.37 172.09,-216.21 164,-188 153.59,-151.7 172.75,-135.88 202,-112 224.89,-93.31 256.64,-81.33 279.79,-74.47"/>
<polygon fill="midnightblue" stroke="midnightblue" points="280.76,-77.83 289.44,-71.76 278.87,-71.09 280.76,-77.83"/>
</g>
<!-- Node10 -->
<g id="node10" class="node">
<title>Node10</title>
<g id="a_node10"><a xlink:title=" ">
<polygon fill="none" stroke="#bfbfbf" points="180,-168.5 180,-187.5 210,-187.5 210,-168.5 180,-168.5"/>
<text text-anchor="middle" x="195" y="-175.5" font-family="Helvetica,sans-Serif" font-size="10.00">set</text>
</a>
</g>
</g>
<!-- Node4&#45;&gt;Node10 -->
<g id="edge9" class="edge">
<title>Node4&#45;&gt;Node10</title>
<path fill="none" stroke="midnightblue" d="M407.63,-280.41C385.43,-271.73 350.54,-257.69 321,-244 284.96,-227.3 244.28,-205.82 219.14,-192.23"/>
<polygon fill="midnightblue" stroke="midnightblue" points="220.77,-189.13 210.31,-187.43 217.43,-195.28 220.77,-189.13"/>
</g>
<!-- Node11 -->
<g id="node11" class="node">
<title>Node11</title>
<g id="a_node11"><a xlink:title=" ">
<polygon fill="none" stroke="#bfbfbf" points="123,-0.5 123,-19.5 169,-19.5 169,-0.5 123,-0.5"/>
<text text-anchor="middle" x="146" y="-7.5" font-family="Helvetica,sans-Serif" font-size="10.00">cstring</text>
</a>
</g>
</g>
<!-- Node4&#45;&gt;Node11 -->
<g id="edge10" class="edge">
<title>Node4&#45;&gt;Node11</title>
<path fill="none" stroke="midnightblue" d="M403.24,-288.02C329.17,-284.94 122.99,-273.84 63,-244 26.98,-226.08 0,-219.23 0,-179 0,-179 0,-179 0,-121 0,-64.74 70.02,-33.65 113.08,-19.85"/>
<polygon fill="midnightblue" stroke="midnightblue" points="114.32,-23.12 122.87,-16.86 112.28,-16.43 114.32,-23.12"/>
</g>
<!-- Node12 -->
<g id="node12" class="node">
<title>Node12</title>
<g id="a_node12"><a xlink:title=" ">
<polygon fill="none" stroke="#bfbfbf" points="332,-0.5 332,-19.5 386,-19.5 386,-0.5 332,-0.5"/>
<text text-anchor="middle" x="359" y="-7.5" font-family="Helvetica,sans-Serif" font-size="10.00">iostream</text>
</a>
</g>
</g>
<!-- Node4&#45;&gt;Node12 -->
<g id="edge11" class="edge">
<title>Node4&#45;&gt;Node12</title>
<path fill="none" stroke="midnightblue" d="M403.24,-287.05C337.07,-281.92 167.45,-266.89 116,-244 74.77,-225.66 38,-224.13 38,-179 38,-179 38,-179 38,-121 38,-61.55 237.53,-27.47 321.97,-15.71"/>
<polygon fill="midnightblue" stroke="midnightblue" points="322.47,-19.17 331.91,-14.35 321.53,-12.23 322.47,-19.17"/>
</g>
<!-- Node13 -->
<g id="node13" class="node">
<title>Node13</title>
<g id="a_node13"><a xlink:title=" ">
<polygon fill="none" stroke="#bfbfbf" points="625.5,-112.5 625.5,-131.5 666.5,-131.5 666.5,-112.5 625.5,-112.5"/>
<text text-anchor="middle" x="646" y="-119.5" font-family="Helvetica,sans-Serif" font-size="10.00">bitset</text>
</a>
</g>
</g>
<!-- Node4&#45;&gt;Node13 -->
<g id="edge12" class="edge">
<title>Node4&#45;&gt;Node13</title>
<path fill="none" stroke="midnightblue" d="M456.54,-283.68C500.57,-273.4 588.26,-246.46 633,-188 643.05,-174.86 645.92,-155.98 646.49,-141.95"/>
<polygon fill="midnightblue" stroke="midnightblue" points="649.99,-141.56 646.55,-131.54 643,-141.52 649.99,-141.56"/>
</g>
<!-- Node14 -->
<g id="node14" class="node">
<title>Node14</title>
<g id="a_node14"><a xlink:title=" ">
<polygon fill="none" stroke="#bfbfbf" points="227.5,-168.5 227.5,-187.5 278.5,-187.5 278.5,-168.5 227.5,-168.5"/>
<text text-anchor="middle" x="253" y="-175.5" font-family="Helvetica,sans-Serif" font-size="10.00">memory</text>
</a>
</g>
</g>
<!-- Node4&#45;&gt;Node14 -->
<g id="edge13" class="edge">
<title>Node4&#45;&gt;Node14</title>
<path fill="none" stroke="midnightblue" d="M416.11,-280.37C385.61,-261.41 312.54,-216 275.43,-192.94"/>
<polygon fill="midnightblue" stroke="midnightblue" points="277.17,-189.9 266.82,-187.59 273.47,-195.84 277.17,-189.9"/>
</g>
<!-- Node15 -->
<g id="node15" class="node">
<title>Node15</title>
<g id="a_node15"><a xlink:href="physicaldevice_8h.html" target="_top" xlink:title=" ">
<polygon fill="none" stroke="black" points="386,-224.5 386,-243.5 474,-243.5 474,-224.5 386,-224.5"/>
<text text-anchor="middle" x="430" y="-231.5" font-family="Helvetica,sans-Serif" font-size="10.00">physicaldevice.h</text>
</a>
</g>
</g>
<!-- Node4&#45;&gt;Node15 -->
<g id="edge14" class="edge">
<title>Node4&#45;&gt;Node15</title>
<path fill="none" stroke="midnightblue" d="M430,-280.08C430,-273.01 430,-262.86 430,-253.99"/>
<polygon fill="midnightblue" stroke="midnightblue" points="433.5,-253.75 430,-243.75 426.5,-253.75 433.5,-253.75"/>
</g>
<!-- Node19 -->
<g id="node19" class="node">
<title>Node19</title>
<g id="a_node19"><a xlink:href="instance_8h.html" target="_top" xlink:title=" ">
<polygon fill="none" stroke="black" points="503.5,-56.5 503.5,-75.5 564.5,-75.5 564.5,-56.5 503.5,-56.5"/>
<text text-anchor="middle" x="534" y="-63.5" font-family="Helvetica,sans-Serif" font-size="10.00">instance.h</text>
</a>
</g>
</g>
<!-- Node4&#45;&gt;Node19 -->
<g id="edge57" class="edge">
<title>Node4&#45;&gt;Node19</title>
<path fill="none" stroke="midnightblue" d="M456.69,-287.99C581.88,-282.62 1108.78,-253.03 1205,-132 1210.53,-125.04 1211.07,-118.49 1205,-112 1183.39,-88.89 717.04,-72.65 574.81,-68.22"/>
<polygon fill="midnightblue" stroke="midnightblue" points="574.86,-64.72 564.76,-67.9 574.64,-71.71 574.86,-64.72"/>
</g>
<!-- Node15&#45;&gt;Node3 -->
<g id="edge15" class="edge">
<title>Node15&#45;&gt;Node3</title>
<path fill="none" stroke="midnightblue" d="M474.2,-229.44C548.43,-223.15 702.68,-208.75 832,-188 926.95,-172.77 1036.84,-148.01 1096.95,-133.85"/>
<polygon fill="midnightblue" stroke="midnightblue" points="1097.94,-137.22 1106.87,-131.51 1096.33,-130.4 1097.94,-137.22"/>
</g>
<!-- Node15&#45;&gt;Node7 -->
<g id="edge20" class="edge">
<title>Node15&#45;&gt;Node7</title>
<path fill="none" stroke="midnightblue" d="M412.57,-224.49C363.04,-199.21 228.4,-122.2 281,-56 291.06,-43.34 390.05,-25.15 442.6,-16.27"/>
<polygon fill="midnightblue" stroke="midnightblue" points="443.47,-19.67 452.76,-14.57 442.32,-12.77 443.47,-19.67"/>
</g>
<!-- Node15&#45;&gt;Node9 -->
<g id="edge16" class="edge">
<title>Node15&#45;&gt;Node9</title>
<path fill="none" stroke="midnightblue" d="M414.32,-224.36C400.91,-216.35 381.8,-203.37 369,-188 342.55,-156.24 324.49,-110.63 315.85,-85.45"/>
<polygon fill="midnightblue" stroke="midnightblue" points="319.1,-84.12 312.64,-75.72 312.45,-86.32 319.1,-84.12"/>
</g>
<!-- Node15&#45;&gt;Node10 -->
<g id="edge17" class="edge">
<title>Node15&#45;&gt;Node10</title>
<path fill="none" stroke="midnightblue" d="M385.88,-225.57C344.96,-218.23 282.29,-205.89 219.75,-187.88"/>
<polygon fill="midnightblue" stroke="midnightblue" points="220.7,-184.51 210.12,-185.06 218.73,-191.23 220.7,-184.51"/>
</g>
<!-- Node15&#45;&gt;Node12 -->
<g id="edge18" class="edge">
<title>Node15&#45;&gt;Node12</title>
<path fill="none" stroke="midnightblue" d="M427.08,-224.16C419.19,-200.3 396.89,-132.56 379,-76 374.05,-60.35 368.58,-42.52 364.61,-29.5"/>
<polygon fill="midnightblue" stroke="midnightblue" points="367.93,-28.39 361.67,-19.84 361.23,-30.43 367.93,-28.39"/>
</g>
<!-- Node15&#45;&gt;Node13 -->
<g id="edge19" class="edge">
<title>Node15&#45;&gt;Node13</title>
<path fill="none" stroke="midnightblue" d="M474.16,-231.86C513.74,-228.72 571.49,-218.68 611,-188 626.15,-176.23 635.55,-156.01 640.74,-141.24"/>
<polygon fill="midnightblue" stroke="midnightblue" points="644.1,-142.23 643.8,-131.64 637.43,-140.11 644.1,-142.23"/>
</g>
<!-- Node15&#45;&gt;Node14 -->
<g id="edge21" class="edge">
<title>Node15&#45;&gt;Node14</title>
<path fill="none" stroke="midnightblue" d="M401.95,-224.44C371.21,-215.06 321.83,-200 288.43,-189.81"/>
<polygon fill="midnightblue" stroke="midnightblue" points="289.2,-186.39 278.62,-186.82 287.16,-193.08 289.2,-186.39"/>
</g>
<!-- Node16 -->
<g id="node16" class="node">
<title>Node16</title>
<g id="a_node16"><a xlink:href="types_8h.html" target="_top" xlink:title=" ">
<polygon fill="none" stroke="black" points="467.5,-168.5 467.5,-187.5 514.5,-187.5 514.5,-168.5 467.5,-168.5"/>
<text text-anchor="middle" x="491" y="-175.5" font-family="Helvetica,sans-Serif" font-size="10.00">types.h</text>
</a>
</g>
</g>
<!-- Node15&#45;&gt;Node16 -->
<g id="edge22" class="edge">
<title>Node15&#45;&gt;Node16</title>
<path fill="none" stroke="midnightblue" d="M439.8,-224.32C448.82,-216.34 462.41,-204.31 473.32,-194.65"/>
<polygon fill="midnightblue" stroke="midnightblue" points="475.85,-197.08 481.02,-187.83 471.21,-191.84 475.85,-197.08"/>
</g>
<!-- Node15&#45;&gt;Node18 -->
<g id="edge26" class="edge">
<title>Node15&#45;&gt;Node18</title>
<path fill="none" stroke="midnightblue" d="M451.67,-224.38C471.24,-216.19 500.48,-202.94 524,-188 569.06,-159.38 567.88,-132.89 617,-112 674.99,-87.34 856.98,-74.38 944.74,-69.42"/>
<polygon fill="midnightblue" stroke="midnightblue" points="945.17,-72.9 954.96,-68.86 944.78,-65.91 945.17,-72.9"/>
</g>
<!-- Node15&#45;&gt;Node19 -->
<g id="edge28" class="edge">
<title>Node15&#45;&gt;Node19</title>
<path fill="none" stroke="midnightblue" d="M427.2,-224.32C427.19,-203.32 440.81,-148.79 468,-112 477.17,-99.6 490.59,-88.78 503.08,-80.85"/>
<polygon fill="midnightblue" stroke="midnightblue" points="505.12,-83.72 511.95,-75.62 501.56,-77.69 505.12,-83.72"/>
</g>
<!-- Node21 -->
<g id="node21" class="node">
<title>Node21</title>
<g id="a_node21"><a xlink:href="queues_8h.html" target="_top" xlink:title=" ">
<polygon fill="none" stroke="black" points="767,-168.5 767,-187.5 823,-187.5 823,-168.5 767,-168.5"/>
<text text-anchor="middle" x="795" y="-175.5" font-family="Helvetica,sans-Serif" font-size="10.00">queues.h</text>
</a>
</g>
</g>
<!-- Node15&#45;&gt;Node21 -->
<g id="edge35" class="edge">
<title>Node15&#45;&gt;Node21</title>
<path fill="none" stroke="midnightblue" d="M474.07,-225.77C546.29,-214.67 688.3,-193.69 756.63,-184.06"/>
<polygon fill="midnightblue" stroke="midnightblue" points="757.53,-187.47 766.95,-182.62 756.56,-180.54 757.53,-187.47"/>
</g>
<!-- Node16&#45;&gt;Node5 -->
<g id="edge23" class="edge">
<title>Node16&#45;&gt;Node5</title>
<path fill="none" stroke="midnightblue" d="M490.88,-168.41C491.19,-154.43 493.94,-126.85 510,-112 572.52,-54.19 829.2,-25.26 940.79,-15.22"/>
<polygon fill="midnightblue" stroke="midnightblue" points="941.15,-18.7 950.81,-14.33 940.54,-11.72 941.15,-18.7"/>
</g>
<!-- Node16&#45;&gt;Node7 -->
<g id="edge24" class="edge">
<title>Node16&#45;&gt;Node7</title>
<path fill="none" stroke="midnightblue" d="M487.45,-168.21C484.02,-159.27 479.07,-144.93 477,-132 471.25,-96.17 472.35,-53.6 473.67,-29.7"/>
<polygon fill="midnightblue" stroke="midnightblue" points="477.17,-29.78 474.31,-19.58 470.19,-29.34 477.17,-29.78"/>
</g>
<!-- Node17 -->
<g id="node17" class="node">
<title>Node17</title>
<g id="a_node17"><a xlink:title=" ">
<polygon fill="none" stroke="#bfbfbf" points="519,-112.5 519,-131.5 569,-131.5 569,-112.5 519,-112.5"/>
<text text-anchor="middle" x="544" y="-119.5" font-family="Helvetica,sans-Serif" font-size="10.00">optional</text>
</a>
</g>
</g>
<!-- Node16&#45;&gt;Node17 -->
<g id="edge25" class="edge">
<title>Node16&#45;&gt;Node17</title>
<path fill="none" stroke="midnightblue" d="M499.75,-168.08C507.47,-160.22 518.9,-148.57 528.22,-139.08"/>
<polygon fill="midnightblue" stroke="midnightblue" points="530.9,-141.34 535.41,-131.75 525.91,-136.44 530.9,-141.34"/>
</g>
<!-- Node18&#45;&gt;Node5 -->
<g id="edge27" class="edge">
<title>Node18&#45;&gt;Node5</title>
<path fill="none" stroke="midnightblue" d="M993,-56.08C993,-49.01 993,-38.86 993,-29.99"/>
<polygon fill="midnightblue" stroke="midnightblue" points="996.5,-29.75 993,-19.75 989.5,-29.75 996.5,-29.75"/>
</g>
<!-- Node19&#45;&gt;Node5 -->
<g id="edge29" class="edge">
<title>Node19&#45;&gt;Node5</title>
<path fill="none" stroke="midnightblue" d="M564.83,-61.37C642.02,-52.29 844.28,-28.5 940.58,-17.17"/>
<polygon fill="midnightblue" stroke="midnightblue" points="941.15,-20.62 950.67,-15.98 940.33,-13.67 941.15,-20.62"/>
</g>
<!-- Node19&#45;&gt;Node7 -->
<g id="edge31" class="edge">
<title>Node19&#45;&gt;Node7</title>
<path fill="none" stroke="midnightblue" d="M524.52,-56.32C515.8,-48.34 502.66,-36.31 492.1,-26.65"/>
<polygon fill="midnightblue" stroke="midnightblue" points="494.39,-24 484.65,-19.83 489.67,-29.17 494.39,-24"/>
</g>
<!-- Node19&#45;&gt;Node11 -->
<g id="edge32" class="edge">
<title>Node19&#45;&gt;Node11</title>
<path fill="none" stroke="midnightblue" d="M503.23,-60.72C431.48,-50.73 253.55,-25.97 179.34,-15.64"/>
<polygon fill="midnightblue" stroke="midnightblue" points="179.55,-12.14 169.17,-14.22 178.59,-19.07 179.55,-12.14"/>
</g>
<!-- Node19&#45;&gt;Node12 -->
<g id="edge33" class="edge">
<title>Node19&#45;&gt;Node12</title>
<path fill="none" stroke="midnightblue" d="M506.27,-56.44C476.4,-47.23 428.73,-32.52 395.75,-22.34"/>
<polygon fill="midnightblue" stroke="midnightblue" points="396.61,-18.94 386.02,-19.34 394.55,-25.63 396.61,-18.94"/>
</g>
<!-- Node19&#45;&gt;Node15 -->
<g id="edge34" class="edge">
<title>Node19&#45;&gt;Node15</title>
<path fill="none" stroke="midnightblue" d="M526.18,-75.62C515.35,-83.61 497.39,-96.59 486,-112 462.21,-144.19 448.8,-189.96 439.82,-214.97"/>
<polygon fill="midnightblue" stroke="midnightblue" points="436.55,-213.73 436.23,-224.32 443.08,-216.24 436.55,-213.73"/>
</g>
<!-- Node20 -->
<g id="node20" class="node">
<title>Node20</title>
<g id="a_node20"><a xlink:title=" ">
<polygon fill="none" stroke="#bfbfbf" points="593.5,-0.5 593.5,-19.5 672.5,-19.5 672.5,-0.5 593.5,-0.5"/>
<text text-anchor="middle" x="633" y="-7.5" font-family="Helvetica,sans-Serif" font-size="10.00">GLFW/glfw3.h</text>
</a>
</g>
</g>
<!-- Node19&#45;&gt;Node20 -->
<g id="edge30" class="edge">
<title>Node19&#45;&gt;Node20</title>
<path fill="none" stroke="midnightblue" d="M549.91,-56.32C565.64,-47.74 589.94,-34.49 608.21,-24.52"/>
<polygon fill="midnightblue" stroke="midnightblue" points="610.03,-27.52 617.13,-19.65 606.68,-21.37 610.03,-27.52"/>
</g>
<!-- Node21&#45;&gt;Node3 -->
<g id="edge36" class="edge">
<title>Node21&#45;&gt;Node3</title>
<path fill="none" stroke="midnightblue" d="M823.1,-172.63C878.23,-164.05 1001.79,-144.82 1077.9,-132.98"/>
<polygon fill="midnightblue" stroke="midnightblue" points="1078.51,-136.42 1087.85,-131.43 1077.43,-129.51 1078.51,-136.42"/>
</g>
<!-- Node21&#45;&gt;Node4 -->
<g id="edge45" class="edge">
<title>Node21&#45;&gt;Node4</title>
<path fill="none" stroke="midnightblue" d="M783.74,-187.73C764.86,-201.9 725.13,-229.75 687,-244 611.93,-272.05 517.88,-282.82 466.93,-286.8"/>
<polygon fill="midnightblue" stroke="midnightblue" points="466.45,-283.33 456.74,-287.55 466.97,-290.31 466.45,-283.33"/>
</g>
<!-- Node21&#45;&gt;Node7 -->
<g id="edge37" class="edge">
<title>Node21&#45;&gt;Node7</title>
<path fill="none" stroke="midnightblue" d="M791.2,-168.13C784.84,-154.26 770.76,-127.44 751,-112 675.46,-52.97 562.13,-26.19 507.17,-16.11"/>
<polygon fill="midnightblue" stroke="midnightblue" points="507.76,-12.66 497.3,-14.36 506.54,-19.55 507.76,-12.66"/>
</g>
<!-- Node21&#45;&gt;Node13 -->
<g id="edge41" class="edge">
<title>Node21&#45;&gt;Node13</title>
<path fill="none" stroke="midnightblue" d="M771.39,-168.44C745.67,-159.12 704.43,-144.18 676.33,-133.99"/>
<polygon fill="midnightblue" stroke="midnightblue" points="677.21,-130.59 666.62,-130.47 674.83,-137.17 677.21,-130.59"/>
</g>
<!-- Node21&#45;&gt;Node15 -->
<g id="edge46" class="edge">
<title>Node21&#45;&gt;Node15</title>
<path fill="none" stroke="midnightblue" d="M766.78,-183.77C706.16,-193.23 563.21,-214.42 484.37,-225.67"/>
<polygon fill="midnightblue" stroke="midnightblue" points="483.57,-222.25 474.16,-227.12 484.55,-229.18 483.57,-222.25"/>
</g>
<!-- Node21&#45;&gt;Node17 -->
<g id="edge40" class="edge">
<title>Node21&#45;&gt;Node17</title>
<path fill="none" stroke="midnightblue" d="M766.7,-170.91C720.61,-161 629.48,-141.39 579.26,-130.59"/>
<polygon fill="midnightblue" stroke="midnightblue" points="579.71,-127.1 569.2,-128.42 578.24,-133.95 579.71,-127.1"/>
</g>
<!-- Node21&#45;&gt;Node18 -->
<g id="edge44" class="edge">
<title>Node21&#45;&gt;Node18</title>
<path fill="none" stroke="midnightblue" d="M823.31,-169C847.95,-161.4 884.13,-148.66 913,-132 937.06,-118.12 961.36,-97.17 976.76,-82.83"/>
<polygon fill="midnightblue" stroke="midnightblue" points="979.5,-85.05 984.34,-75.63 974.68,-79.98 979.5,-85.05"/>
</g>
<!-- Node22 -->
<g id="node22" class="node">
<title>Node22</title>
<g id="a_node22"><a xlink:title=" ">
<polygon fill="none" stroke="#bfbfbf" points="960.5,-112.5 960.5,-131.5 995.5,-131.5 995.5,-112.5 960.5,-112.5"/>
<text text-anchor="middle" x="978" y="-119.5" font-family="Helvetica,sans-Serif" font-size="10.00">map</text>
</a>
</g>
</g>
<!-- Node21&#45;&gt;Node22 -->
<g id="edge38" class="edge">
<title>Node21&#45;&gt;Node22</title>
<path fill="none" stroke="midnightblue" d="M823.19,-168.68C857.81,-158.47 916.14,-141.25 950.46,-131.13"/>
<polygon fill="midnightblue" stroke="midnightblue" points="951.68,-134.41 960.28,-128.23 949.7,-127.7 951.68,-134.41"/>
</g>
<!-- Node23 -->
<g id="node23" class="node">
<title>Node23</title>
<g id="a_node23"><a xlink:title=" ">
<polygon fill="none" stroke="#bfbfbf" points="1014,-112.5 1014,-131.5 1070,-131.5 1070,-112.5 1014,-112.5"/>
<text text-anchor="middle" x="1042" y="-119.5" font-family="Helvetica,sans-Serif" font-size="10.00">algorithm</text>
</a>
</g>
</g>
<!-- Node21&#45;&gt;Node23 -->
<g id="edge39" class="edge">
<title>Node21&#45;&gt;Node23</title>
<path fill="none" stroke="midnightblue" d="M823.25,-171.2C861.81,-163.24 933.32,-148.26 1003.8,-132.23"/>
<polygon fill="midnightblue" stroke="midnightblue" points="1004.77,-135.6 1013.74,-129.96 1003.21,-128.77 1004.77,-135.6"/>
</g>
<!-- Node24 -->
<g id="node24" class="node">
<title>Node24</title>
<g id="a_node24"><a xlink:title=" ">
<polygon fill="none" stroke="#bfbfbf" points="798,-112.5 798,-131.5 842,-131.5 842,-112.5 798,-112.5"/>
<text text-anchor="middle" x="820" y="-119.5" font-family="Helvetica,sans-Serif" font-size="10.00">thread</text>
</a>
</g>
</g>
<!-- Node21&#45;&gt;Node24 -->
<g id="edge42" class="edge">
<title>Node21&#45;&gt;Node24</title>
<path fill="none" stroke="midnightblue" d="M799.13,-168.08C802.51,-160.77 807.42,-150.18 811.62,-141.1"/>
<polygon fill="midnightblue" stroke="midnightblue" points="814.92,-142.3 815.95,-131.75 808.57,-139.36 814.92,-142.3"/>
</g>
<!-- Node25 -->
<g id="node25" class="node">
<title>Node25</title>
<g id="a_node25"><a xlink:title=" ">
<polygon fill="none" stroke="#bfbfbf" points="860.5,-112.5 860.5,-131.5 903.5,-131.5 903.5,-112.5 860.5,-112.5"/>
<text text-anchor="middle" x="882" y="-119.5" font-family="Helvetica,sans-Serif" font-size="10.00">mutex</text>
</a>
</g>
</g>
<!-- Node21&#45;&gt;Node25 -->
<g id="edge43" class="edge">
<title>Node21&#45;&gt;Node25</title>
<path fill="none" stroke="midnightblue" d="M808.98,-168.32C822.55,-159.9 843.38,-146.97 859.32,-137.07"/>
<polygon fill="midnightblue" stroke="midnightblue" points="861.41,-139.9 868.06,-131.65 857.71,-133.95 861.41,-139.9"/>
</g>
<!-- Node26 -->
<g id="node26" class="node">
<title>Node26</title>
<g id="a_node26"><a xlink:href="window_8h.html" target="_top" xlink:title=" ">
<polygon fill="none" stroke="black" points="684.5,-112.5 684.5,-131.5 741.5,-131.5 741.5,-112.5 684.5,-112.5"/>
<text text-anchor="middle" x="713" y="-119.5" font-family="Helvetica,sans-Serif" font-size="10.00">window.h</text>
</a>
</g>
</g>
<!-- Node21&#45;&gt;Node26 -->
<g id="edge47" class="edge">
<title>Node21&#45;&gt;Node26</title>
<path fill="none" stroke="midnightblue" d="M781.83,-168.32C769.15,-159.98 749.77,-147.21 734.79,-137.35"/>
<polygon fill="midnightblue" stroke="midnightblue" points="736.42,-134.23 726.14,-131.65 732.57,-140.08 736.42,-134.23"/>
</g>
<!-- Node27 -->
<g id="node27" class="node">
<title>Node27</title>
<g id="a_node27"><a xlink:href="fence_8h.html" target="_top" xlink:title=" ">
<polygon fill="none" stroke="black" points="1290,-112.5 1290,-131.5 1338,-131.5 1338,-112.5 1290,-112.5"/>
<text text-anchor="middle" x="1314" y="-119.5" font-family="Helvetica,sans-Serif" font-size="10.00">fence.h</text>
</a>
</g>
</g>
<!-- Node21&#45;&gt;Node27 -->
<g id="edge52" class="edge">
<title>Node21&#45;&gt;Node27</title>
<path fill="none" stroke="midnightblue" d="M823.27,-174.06C911.86,-164.84 1183.86,-136.54 1279.94,-126.54"/>
<polygon fill="midnightblue" stroke="midnightblue" points="1280.41,-130.01 1289.99,-125.5 1279.68,-123.05 1280.41,-130.01"/>
</g>
<!-- Node26&#45;&gt;Node8 -->
<g id="edge50" class="edge">
<title>Node26&#45;&gt;Node8</title>
<path fill="none" stroke="midnightblue" d="M684.36,-113.83C681.54,-113.19 678.72,-112.57 676,-112 598.67,-95.9 507.52,-81 456.58,-73.04"/>
<polygon fill="midnightblue" stroke="midnightblue" points="457.06,-69.57 446.64,-71.49 455.99,-76.49 457.06,-69.57"/>
</g>
<!-- Node26&#45;&gt;Node9 -->
<g id="edge49" class="edge">
<title>Node26&#45;&gt;Node9</title>
<path fill="none" stroke="midnightblue" d="M684.39,-113.69C681.56,-113.07 678.73,-112.5 676,-112 545.17,-88.25 510.93,-92.6 379,-76 366.39,-74.41 352.5,-72.61 340.5,-71.04"/>
<polygon fill="midnightblue" stroke="midnightblue" points="340.9,-67.56 330.52,-69.73 339.98,-74.5 340.9,-67.56"/>
</g>
<!-- Node26&#45;&gt;Node19 -->
<g id="edge51" class="edge">
<title>Node26&#45;&gt;Node19</title>
<path fill="none" stroke="midnightblue" d="M684.64,-112.44C654.26,-103.28 605.89,-88.69 572.18,-78.52"/>
<polygon fill="midnightblue" stroke="midnightblue" points="572.82,-75.05 562.23,-75.52 570.79,-81.76 572.82,-75.05"/>
</g>
<!-- Node26&#45;&gt;Node20 -->
<g id="edge48" class="edge">
<title>Node26&#45;&gt;Node20</title>
<path fill="none" stroke="midnightblue" d="M706.72,-112.37C693.52,-94.22 662.67,-51.8 645.36,-27.99"/>
<polygon fill="midnightblue" stroke="midnightblue" points="647.96,-25.62 639.25,-19.59 642.3,-29.74 647.96,-25.62"/>
</g>
<!-- Node27&#45;&gt;Node4 -->
<g id="edge56" class="edge">
<title>Node27&#45;&gt;Node4</title>
<path fill="none" stroke="midnightblue" d="M1311.57,-131.74C1304.62,-154.9 1282.23,-217.92 1238,-244 1171.07,-283.47 616.48,-288.33 467,-288.92"/>
<polygon fill="midnightblue" stroke="midnightblue" points="466.54,-285.42 456.55,-288.96 466.56,-292.42 466.54,-285.42"/>
</g>
<!-- Node27&#45;&gt;Node5 -->
<g id="edge53" class="edge">
<title>Node27&#45;&gt;Node5</title>
<path fill="none" stroke="midnightblue" d="M1289.87,-112.73C1233.54,-93.43 1093.2,-45.34 1027.69,-22.89"/>
<polygon fill="midnightblue" stroke="midnightblue" points="1028.44,-19.45 1017.85,-19.52 1026.17,-26.07 1028.44,-19.45"/>
</g>
<!-- Node27&#45;&gt;Node6 -->
<g id="edge54" class="edge">
<title>Node27&#45;&gt;Node6</title>
<path fill="none" stroke="midnightblue" d="M1315.49,-112.08C1316.68,-104.93 1318.39,-94.64 1319.88,-85.69"/>
<polygon fill="midnightblue" stroke="midnightblue" points="1323.35,-86.19 1321.54,-75.75 1316.45,-85.04 1323.35,-86.19"/>
</g>
<!-- Node27&#45;&gt;Node18 -->
<g id="edge55" class="edge">
<title>Node27&#45;&gt;Node18</title>
<path fill="none" stroke="midnightblue" d="M1289.94,-115.01C1285.32,-113.95 1280.52,-112.89 1276,-112 1193.99,-95.79 1097.71,-81.47 1041.22,-73.55"/>
<polygon fill="midnightblue" stroke="midnightblue" points="1041.54,-70.06 1031.15,-72.14 1040.57,-76.99 1041.54,-70.06"/>
</g>
</g>
</svg>
        <g id="navigator" transform="translate(0 0)" fill="#404254">
                <rect fill="#f2f5e9" fill-opacity="0.5" stroke="#606060" stroke-width=".5" x="0" y="0" width="60" height="60"/>
                <use id="zoomplus" xlink:href="#zoomPlus" x="17" y="9" onmousedown="handleZoom(evt,'in')"/>
                <use id="zoomminus" xlink:href="#zoomMin" x="42" y="9" onmousedown="handleZoom(evt,'out')"/>
                <use id="reset" xlink:href="#resetDef" x="30" y="36" onmousedown="handleReset()"/>
                <g id="arrowUp" xlink:href="#dirArrow" transform="translate(30 24)" onmousedown="handlePan(0,-1)">
                  <use xlink:href="#rim" fill="#404040">
                        <set attributeName="fill" to="#808080" begin="arrowUp.mouseover" end="arrowUp.mouseout"/>
                  </use>
                  <path fill="none" stroke="white" stroke-width="1.5" d="M0,-3.0v7 M-2.5,-0.5L0,-3.0L2.5,-0.5"/>
                </g>
                <g id="arrowRight" xlink:href="#dirArrow" transform="rotate(90) translate(36 -43)" onmousedown="handlePan(1,0)">
                  <use xlink:href="#rim" fill="#404040">
                        <set attributeName="fill" to="#808080" begin="arrowRight.mouseover" end="arrowRight.mouseout"/>
                  </use>
                  <path fill="none" stroke="white" stroke-width="1.5" d="M0,-3.0v7 M-2.5,-0.5L0,-3.0L2.5,-0.5"/>
                </g>
                <g id="arrowDown" xlink:href="#dirArrow" transform="rotate(180) translate(-30 -48)" onmousedown="handlePan(0,1)">
                  <use xlink:href="#rim" fill="#404040">
                        <set attributeName="fill" to="#808080" begin="arrowDown.mouseover" end="arrowDown.mouseout"/>
                  </use>
                  <path fill="none" stroke="white" stroke-width="1.5" d="M0,-3.0v7 M-2.5,-0.5L0,-3.0L2.5,-0.5"/>
                </g>
                <g id="arrowLeft" xlink:href="#dirArrow" transform="rotate(270) translate(-36 17)" onmousedown="handlePan(-1,0)">
                  <use xlink:href="#rim" fill="#404040">
                        <set attributeName="fill" to="#808080" begin="arrowLeft.mouseover" end="arrowLeft.mouseout"/>
                  </use>
                  <path fill="none" stroke="white" stroke-width="1.5" d="M0,-3.0v7 M-2.5,-0.5L0,-3.0L2.5,-0.5"/>
                </g>
        </g>
        <svg viewBox="0 0 15 15" width="100%" height="30px" preserveAspectRatio="xMaxYMin meet">
         <g id="arrow_out" transform="scale(0.3 0.3)">
          <a xlink:href="sampler_8cpp__incl_org.svg" target="_base">
           <rect id="button" ry="5" rx="5" y="6" x="6" height="38" width="38"
                fill="#f2f5e9" fill-opacity="0.5" stroke="#606060" stroke-width="1.0"/>
           <path id="arrow"
             d="M 11.500037,31.436501 C 11.940474,20.09759 22.043105,11.32322 32.158766,21.979434 L 37.068811,17.246167 C 37.068811,17.246167 37.088388,32 37.088388,32 L 22.160133,31.978069 C 22.160133,31.978069 26.997745,27.140456 26.997745,27.140456 C 18.528582,18.264221 13.291696,25.230495 11.500037,31.436501 z"
             style="fill:#404040;"/>
          </a>
         </g>
        </svg>
</svg>
