<?xml version="1.0" encoding="UTF-8" standalone="no"?>
<!DOCTYPE svg PUBLIC "-//W3C//DTD SVG 1.1//EN"
 "http://www.w3.org/Graphics/SVG/1.1/DTD/svg11.dtd">
<!-- Generated by graphviz version 2.49.3 (20211215.1918)
 -->
<!-- Title: /github/workspace/src/renderer/vulkan/semaphore.h Pages: 1 -->
<svg width="892pt" height="374pt"
 viewBox="0.00 0.00 892.01 374.00" xmlns="http://www.w3.org/2000/svg" xmlns:xlink="http://www.w3.org/1999/xlink">
<g id="graph0" class="graph" transform="scale(1 1) rotate(0) translate(4 370)">
<title>/github/workspace/src/renderer/vulkan/semaphore.h</title>
<!-- Node1 -->
<g id="node1" class="node">
<title>Node1</title>
<g id="a_node1"><a xlink:title=" ">
<polygon fill="#bfbfbf" stroke="black" points="343.32,-335.5 343.32,-365.5 488.32,-365.5 488.32,-335.5 343.32,-335.5"/>
<text text-anchor="start" x="351.32" y="-353.5" font-family="Helvetica,sans-Serif" font-size="10.00">/github/workspace/src</text>
<text text-anchor="middle" x="415.82" y="-342.5" font-family="Helvetica,sans-Serif" font-size="10.00">/renderer/vulkan/semaphore.h</text>
</a>
</g>
</g>
<!-- Node2 -->
<g id="node2" class="node">
<title>Node2</title>
<g id="a_node2"><a xlink:href="commandbuffer_8h.html" target="_top" xlink:title=" ">
<polygon fill="none" stroke="black" points="433.82,-268.5 433.82,-298.5 597.82,-298.5 597.82,-268.5 433.82,-268.5"/>
<text text-anchor="start" x="441.82" y="-286.5" font-family="Helvetica,sans-Serif" font-size="10.00">/github/workspace/src</text>
<text text-anchor="middle" x="515.82" y="-275.5" font-family="Helvetica,sans-Serif" font-size="10.00">/renderer/vulkan/commandbuffer.h</text>
</a>
</g>
</g>
<!-- Node1&#45;&gt;Node2 -->
<g id="edge1" class="edge">
<title>Node1&#45;&gt;Node2</title>
<path fill="none" stroke="midnightblue" d="M446.23,-329.73C461.7,-319.68 480.15,-307.68 494.16,-298.58"/>
<polygon fill="midnightblue" stroke="midnightblue" points="443.99,-327.01 437.52,-335.4 447.81,-332.88 443.99,-327.01"/>
</g>
<!-- Node4 -->
<g id="node4" class="node">
<title>Node4</title>
<g id="a_node4"><a xlink:href="swapchain_8h.html" target="_top" xlink:title=" ">
<polygon fill="none" stroke="black" points="266.32,-201.5 266.32,-231.5 409.32,-231.5 409.32,-201.5 266.32,-201.5"/>
<text text-anchor="start" x="274.32" y="-219.5" font-family="Helvetica,sans-Serif" font-size="10.00">/github/workspace/src</text>
<text text-anchor="middle" x="337.82" y="-208.5" font-family="Helvetica,sans-Serif" font-size="10.00">/renderer/vulkan/swapchain.h</text>
</a>
</g>
</g>
<!-- Node1&#45;&gt;Node4 -->
<g id="edge25" class="edge">
<title>Node1&#45;&gt;Node4</title>
<path fill="none" stroke="midnightblue" d="M402.21,-326.48C386.02,-299.07 359.5,-254.19 346.11,-231.52"/>
<polygon fill="midnightblue" stroke="midnightblue" points="399.37,-328.54 407.47,-335.37 405.4,-324.98 399.37,-328.54"/>
</g>
<!-- Node5 -->
<g id="node5" class="node">
<title>Node5</title>
<g id="a_node5"><a xlink:href="framebuffer_8h.html" target="_top" xlink:title=" ">
<polygon fill="none" stroke="black" points="70.82,-67.5 70.82,-97.5 216.82,-97.5 216.82,-67.5 70.82,-67.5"/>
<text text-anchor="start" x="78.82" y="-85.5" font-family="Helvetica,sans-Serif" font-size="10.00">/github/workspace/src</text>
<text text-anchor="middle" x="143.82" y="-74.5" font-family="Helvetica,sans-Serif" font-size="10.00">/renderer/vulkan/framebuffer.h</text>
</a>
</g>
</g>
<!-- Node1&#45;&gt;Node5 -->
<g id="edge23" class="edge">
<title>Node1&#45;&gt;Node5</title>
<path fill="none" stroke="midnightblue" d="M332.88,-338.82C235.45,-321.35 77.96,-276.58 5.82,-165 -15.78,-131.59 29.81,-110.07 74.26,-97.59"/>
<polygon fill="midnightblue" stroke="midnightblue" points="332.54,-342.31 342.99,-340.57 333.74,-335.42 332.54,-342.31"/>
</g>
<!-- Node14 -->
<g id="node14" class="node">
<title>Node14</title>
<g id="a_node14"><a xlink:href="semaphore_8cpp.html" target="_top" xlink:title=" ">
<polygon fill="none" stroke="black" points="616.32,-268.5 616.32,-298.5 771.32,-298.5 771.32,-268.5 616.32,-268.5"/>
<text text-anchor="start" x="624.32" y="-286.5" font-family="Helvetica,sans-Serif" font-size="10.00">/github/workspace/src</text>
<text text-anchor="middle" x="693.82" y="-275.5" font-family="Helvetica,sans-Serif" font-size="10.00">/renderer/vulkan/semaphore.cpp</text>
</a>
</g>
</g>
<!-- Node1&#45;&gt;Node14 -->
<g id="edge24" class="edge">
<title>Node1&#45;&gt;Node14</title>
<path fill="none" stroke="midnightblue" d="M485.59,-333.19C531.12,-322.54 589.96,-308.78 633.47,-298.61"/>
<polygon fill="midnightblue" stroke="midnightblue" points="484.74,-329.79 475.8,-335.48 486.33,-336.61 484.74,-329.79"/>
</g>
<!-- Node3 -->
<g id="node3" class="node">
<title>Node3</title>
<g id="a_node3"><a xlink:href="commandbuffer_8cpp.html" target="_top" xlink:title=" ">
<polygon fill="none" stroke="black" points="668.82,-201.5 668.82,-231.5 842.82,-231.5 842.82,-201.5 668.82,-201.5"/>
<text text-anchor="start" x="676.82" y="-219.5" font-family="Helvetica,sans-Serif" font-size="10.00">/github/workspace/src</text>
<text text-anchor="middle" x="755.82" y="-208.5" font-family="Helvetica,sans-Serif" font-size="10.00">/renderer/vulkan/commandbuffer.cpp</text>
</a>
</g>
</g>
<!-- Node2&#45;&gt;Node3 -->
<g id="edge2" class="edge">
<title>Node2&#45;&gt;Node3</title>
<path fill="none" stroke="midnightblue" d="M577.3,-265.85C616.43,-255.25 666.55,-241.68 703.72,-231.61"/>
<polygon fill="midnightblue" stroke="midnightblue" points="576.34,-262.48 567.6,-268.48 578.17,-269.24 576.34,-262.48"/>
</g>
<!-- Node2&#45;&gt;Node4 -->
<g id="edge3" class="edge">
<title>Node2&#45;&gt;Node4</title>
<path fill="none" stroke="midnightblue" d="M467.77,-264.96C439.1,-254.48 403.17,-241.37 376.37,-231.58"/>
<polygon fill="midnightblue" stroke="midnightblue" points="466.6,-268.25 477.2,-268.4 469,-261.68 466.6,-268.25"/>
</g>
<!-- Node7 -->
<g id="node7" class="node">
<title>Node7</title>
<g id="a_node7"><a xlink:href="vulkan__voxel__rasterizer_8cpp.html" target="_top" xlink:title=" ">
<polygon fill="none" stroke="black" points="490.82,-0.5 490.82,-30.5 654.82,-30.5 654.82,-0.5 490.82,-0.5"/>
<text text-anchor="start" x="498.82" y="-18.5" font-family="Helvetica,sans-Serif" font-size="10.00">/github/workspace/src</text>
<text text-anchor="middle" x="572.82" y="-7.5" font-family="Helvetica,sans-Serif" font-size="10.00">/tests/vulkan_voxel_rasterizer.cpp</text>
</a>
</g>
</g>
<!-- Node2&#45;&gt;Node7 -->
<g id="edge22" class="edge">
<title>Node2&#45;&gt;Node7</title>
<path fill="none" stroke="midnightblue" d="M608.06,-268.22C676.76,-260.94 817.75,-271.46 851.82,-232 885.58,-192.89 915.37,-160.98 815.82,-67 809.64,-61.17 718.81,-43.35 649.99,-30.53"/>
<polygon fill="midnightblue" stroke="midnightblue" points="607.55,-264.76 598.07,-269.5 608.43,-271.7 607.55,-264.76"/>
</g>
<!-- Node4&#45;&gt;Node5 -->
<g id="edge4" class="edge">
<title>Node4&#45;&gt;Node5</title>
<path fill="none" stroke="midnightblue" d="M255.83,-214.51C168.49,-211.61 38.76,-201.19 7.82,-165 -18.31,-134.43 32.55,-111.22 79.42,-97.53"/>
<polygon fill="midnightblue" stroke="midnightblue" points="255.9,-218.01 266,-214.82 256.11,-211.02 255.9,-218.01"/>
</g>
<!-- Node4&#45;&gt;Node7 -->
<g id="edge20" class="edge">
<title>Node4&#45;&gt;Node7</title>
<path fill="none" stroke="midnightblue" d="M359.02,-193.88C366.59,-185.36 374.74,-175.19 380.82,-165 404.74,-124.88 384.92,-99.15 418.82,-67 438.42,-48.41 464.98,-36.66 490.51,-29.24"/>
<polygon fill="midnightblue" stroke="midnightblue" points="356.22,-191.75 352.02,-201.48 361.37,-196.49 356.22,-191.75"/>
</g>
<!-- Node8 -->
<g id="node8" class="node">
<title>Node8</title>
<g id="a_node8"><a xlink:href="graphicspipeline_8h.html" target="_top" xlink:title=" ">
<polygon fill="none" stroke="black" points="639.32,-67.5 639.32,-97.5 806.32,-97.5 806.32,-67.5 639.32,-67.5"/>
<text text-anchor="start" x="647.32" y="-85.5" font-family="Helvetica,sans-Serif" font-size="10.00">/github/workspace/src</text>
<text text-anchor="middle" x="722.82" y="-74.5" font-family="Helvetica,sans-Serif" font-size="10.00">/renderer/vulkan/graphicspipeline.h</text>
</a>
</g>
</g>
<!-- Node4&#45;&gt;Node8 -->
<g id="edge9" class="edge">
<title>Node4&#45;&gt;Node8</title>
<path fill="none" stroke="midnightblue" d="M419.87,-211.59C478.14,-206.29 557.03,-193.9 620.82,-165 630.37,-160.67 679.38,-120.04 705.84,-97.83"/>
<polygon fill="midnightblue" stroke="midnightblue" points="419.27,-208.13 409.61,-212.47 419.87,-215.1 419.27,-208.13"/>
</g>
<!-- Node10 -->
<g id="node10" class="node">
<title>Node10</title>
<g id="a_node10"><a xlink:href="renderpass_8h.html" target="_top" xlink:title=" ">
<polygon fill="none" stroke="black" points="466.32,-134.5 466.32,-164.5 611.32,-164.5 611.32,-134.5 466.32,-134.5"/>
<text text-anchor="start" x="474.32" y="-152.5" font-family="Helvetica,sans-Serif" font-size="10.00">/github/workspace/src</text>
<text text-anchor="middle" x="538.82" y="-141.5" font-family="Helvetica,sans-Serif" font-size="10.00">/renderer/vulkan/renderpass.h</text>
</a>
</g>
</g>
<!-- Node4&#45;&gt;Node10 -->
<g id="edge13" class="edge">
<title>Node4&#45;&gt;Node10</title>
<path fill="none" stroke="midnightblue" d="M391.23,-198.23C423.75,-187.71 464.76,-174.45 495.29,-164.58"/>
<polygon fill="midnightblue" stroke="midnightblue" points="389.87,-194.99 381.43,-201.4 392.03,-201.65 389.87,-194.99"/>
</g>
<!-- Node12 -->
<g id="node12" class="node">
<title>Node12</title>
<g id="a_node12"><a xlink:href="swapchain_8cpp.html" target="_top" xlink:title=" ">
<polygon fill="none" stroke="black" points="25.82,-134.5 25.82,-164.5 179.82,-164.5 179.82,-134.5 25.82,-134.5"/>
<text text-anchor="start" x="33.82" y="-152.5" font-family="Helvetica,sans-Serif" font-size="10.00">/github/workspace/src</text>
<text text-anchor="middle" x="102.82" y="-141.5" font-family="Helvetica,sans-Serif" font-size="10.00">/renderer/vulkan/swapchain.cpp</text>
</a>
</g>
</g>
<!-- Node4&#45;&gt;Node12 -->
<g id="edge19" class="edge">
<title>Node4&#45;&gt;Node12</title>
<path fill="none" stroke="midnightblue" d="M277.13,-198.71C238.89,-188.14 190.08,-174.63 153.84,-164.61"/>
<polygon fill="midnightblue" stroke="midnightblue" points="276.55,-202.18 287.12,-201.48 278.41,-195.44 276.55,-202.18"/>
</g>
<!-- Node13 -->
<g id="node13" class="node">
<title>Node13</title>
<g id="a_node13"><a xlink:href="vulkan__voxel__rasterizer__2_8cpp.html" target="_top" xlink:title=" ">
<polygon fill="none" stroke="black" points="197.82,-134.5 197.82,-164.5 371.82,-164.5 371.82,-134.5 197.82,-134.5"/>
<text text-anchor="start" x="205.82" y="-152.5" font-family="Helvetica,sans-Serif" font-size="10.00">/github/workspace/src</text>
<text text-anchor="middle" x="284.82" y="-141.5" font-family="Helvetica,sans-Serif" font-size="10.00">/tests/vulkan_voxel_rasterizer_2.cpp</text>
</a>
</g>
</g>
<!-- Node4&#45;&gt;Node13 -->
<g id="edge21" class="edge">
<title>Node4&#45;&gt;Node13</title>
<path fill="none" stroke="midnightblue" d="M319.84,-193.45C312.05,-183.9 303.17,-173 296.3,-164.58"/>
<polygon fill="midnightblue" stroke="midnightblue" points="317.29,-195.86 326.32,-201.4 322.71,-191.43 317.29,-195.86"/>
</g>
<!-- Node5&#45;&gt;Node2 -->
<g id="edge5" class="edge">
<title>Node5&#45;&gt;Node2</title>
<path fill="none" stroke="midnightblue" d="M226.89,-88.58C274.54,-94.48 333.99,-107.1 380.82,-134 440.64,-168.37 488.68,-238.41 507.38,-268.38"/>
<polygon fill="midnightblue" stroke="midnightblue" points="227.25,-85.1 216.91,-87.42 226.44,-92.05 227.25,-85.1"/>
</g>
<!-- Node5&#45;&gt;Node4 -->
<g id="edge7" class="edge">
<title>Node5&#45;&gt;Node4</title>
<path fill="none" stroke="midnightblue" d="M83.87,-100.74C43.43,-114.71 1.63,-136.7 25.82,-165 56.43,-200.8 183.71,-211.39 266,-214.42"/>
<polygon fill="midnightblue" stroke="midnightblue" points="85.14,-104 93.54,-97.53 82.94,-97.36 85.14,-104"/>
</g>
<!-- Node6 -->
<g id="node6" class="node">
<title>Node6</title>
<g id="a_node6"><a xlink:href="framebuffer_8cpp.html" target="_top" xlink:title=" ">
<polygon fill="none" stroke="black" points="65.82,-0.5 65.82,-30.5 221.82,-30.5 221.82,-0.5 65.82,-0.5"/>
<text text-anchor="start" x="73.82" y="-18.5" font-family="Helvetica,sans-Serif" font-size="10.00">/github/workspace/src</text>
<text text-anchor="middle" x="143.82" y="-7.5" font-family="Helvetica,sans-Serif" font-size="10.00">/renderer/vulkan/framebuffer.cpp</text>
</a>
</g>
</g>
<!-- Node5&#45;&gt;Node6 -->
<g id="edge6" class="edge">
<title>Node5&#45;&gt;Node6</title>
<path fill="none" stroke="midnightblue" d="M143.82,-57.11C143.82,-48.15 143.82,-38.32 143.82,-30.58"/>
<polygon fill="midnightblue" stroke="midnightblue" points="140.32,-57.4 143.82,-67.4 147.32,-57.4 140.32,-57.4"/>
</g>
<!-- Node5&#45;&gt;Node7 -->
<g id="edge8" class="edge">
<title>Node5&#45;&gt;Node7</title>
<path fill="none" stroke="midnightblue" d="M227.1,-68.88C303.18,-57.36 415,-40.41 490.71,-28.94"/>
<polygon fill="midnightblue" stroke="midnightblue" points="226.44,-65.44 217.08,-70.4 227.49,-72.36 226.44,-65.44"/>
</g>
<!-- Node8&#45;&gt;Node2 -->
<g id="edge10" class="edge">
<title>Node8&#45;&gt;Node2</title>
<path fill="none" stroke="midnightblue" d="M705.55,-105.82C692.12,-122.7 672.66,-146.11 653.82,-165 613.83,-205.11 561.85,-246.9 534.51,-268.19"/>
<polygon fill="midnightblue" stroke="midnightblue" points="708.55,-107.67 711.99,-97.65 703.06,-103.34 708.55,-107.67"/>
</g>
<!-- Node8&#45;&gt;Node7 -->
<g id="edge12" class="edge">
<title>Node8&#45;&gt;Node7</title>
<path fill="none" stroke="midnightblue" d="M681.07,-63.41C657.12,-53.03 627.5,-40.2 605.3,-30.58"/>
<polygon fill="midnightblue" stroke="midnightblue" points="679.7,-66.63 690.27,-67.4 682.49,-60.21 679.7,-66.63"/>
</g>
<!-- Node9 -->
<g id="node9" class="node">
<title>Node9</title>
<g id="a_node9"><a xlink:href="graphicspipeline_8cpp.html" target="_top" xlink:title=" ">
<polygon fill="none" stroke="black" points="673.32,-0.5 673.32,-30.5 850.32,-30.5 850.32,-0.5 673.32,-0.5"/>
<text text-anchor="start" x="681.32" y="-18.5" font-family="Helvetica,sans-Serif" font-size="10.00">/github/workspace/src</text>
<text text-anchor="middle" x="761.82" y="-7.5" font-family="Helvetica,sans-Serif" font-size="10.00">/renderer/vulkan/graphicspipeline.cpp</text>
</a>
</g>
</g>
<!-- Node8&#45;&gt;Node9 -->
<g id="edge11" class="edge">
<title>Node8&#45;&gt;Node9</title>
<path fill="none" stroke="midnightblue" d="M736.57,-58.58C742.18,-49.24 748.47,-38.75 753.37,-30.58"/>
<polygon fill="midnightblue" stroke="midnightblue" points="733.43,-57.02 731.28,-67.4 739.43,-60.62 733.43,-57.02"/>
</g>
<!-- Node10&#45;&gt;Node2 -->
<g id="edge14" class="edge">
<title>Node10&#45;&gt;Node2</title>
<path fill="none" stroke="midnightblue" d="M534.64,-174.49C529.86,-201.92 522.19,-245.94 518.28,-268.37"/>
<polygon fill="midnightblue" stroke="midnightblue" points="538.11,-174.98 536.38,-164.52 531.21,-173.78 538.11,-174.98"/>
</g>
<!-- Node10&#45;&gt;Node5 -->
<g id="edge15" class="edge">
<title>Node10&#45;&gt;Node5</title>
<path fill="none" stroke="midnightblue" d="M456.25,-134.73C454.76,-134.49 453.28,-134.24 451.82,-134 371.49,-120.72 279.36,-105.63 216.95,-95.43"/>
<polygon fill="midnightblue" stroke="midnightblue" points="455.75,-138.2 466.19,-136.38 456.9,-131.29 455.75,-138.2"/>
</g>
<!-- Node10&#45;&gt;Node7 -->
<g id="edge18" class="edge">
<title>Node10&#45;&gt;Node7</title>
<path fill="none" stroke="midnightblue" d="M569.07,-128.02C578.5,-119.9 587.75,-109.68 592.82,-98 602.62,-75.41 590.77,-47.13 581.58,-30.51"/>
<polygon fill="midnightblue" stroke="midnightblue" points="566.8,-125.36 561.19,-134.35 571.18,-130.81 566.8,-125.36"/>
</g>
<!-- Node10&#45;&gt;Node8 -->
<g id="edge16" class="edge">
<title>Node10&#45;&gt;Node8</title>
<path fill="none" stroke="midnightblue" d="M588.48,-130.96C618.12,-120.48 655.26,-107.37 682.97,-97.58"/>
<polygon fill="midnightblue" stroke="midnightblue" points="587.01,-127.76 578.74,-134.4 589.34,-134.37 587.01,-127.76"/>
</g>
<!-- Node11 -->
<g id="node11" class="node">
<title>Node11</title>
<g id="a_node11"><a xlink:href="renderpass_8cpp.html" target="_top" xlink:title=" ">
<polygon fill="none" stroke="black" points="428.32,-67.5 428.32,-97.5 583.32,-97.5 583.32,-67.5 428.32,-67.5"/>
<text text-anchor="start" x="436.32" y="-85.5" font-family="Helvetica,sans-Serif" font-size="10.00">/github/workspace/src</text>
<text text-anchor="middle" x="505.82" y="-74.5" font-family="Helvetica,sans-Serif" font-size="10.00">/renderer/vulkan/renderpass.cpp</text>
</a>
</g>
</g>
<!-- Node10&#45;&gt;Node11 -->
<g id="edge17" class="edge">
<title>Node10&#45;&gt;Node11</title>
<path fill="none" stroke="midnightblue" d="M527.03,-125.28C522.33,-116.02 517.07,-105.66 512.97,-97.58"/>
<polygon fill="midnightblue" stroke="midnightblue" points="524.01,-127.06 531.66,-134.4 530.25,-123.89 524.01,-127.06"/>
</g>
</g>
</svg>
