<?xml version="1.0" encoding="UTF-8" standalone="no"?>
<!DOCTYPE svg PUBLIC "-//W3C//DTD SVG 1.1//EN"
 "http://www.w3.org/Graphics/SVG/1.1/DTD/svg11.dtd">
<!-- Generated by graphviz version 2.49.3 (20211215.1918)
 -->
<!-- Title: /github/workspace/src/renderer/vulkan/semaphore.h Pages: 1 -->
<svg width="1801pt" height="642pt"
 viewBox="0.00 0.00 1801.00 642.00" xmlns="http://www.w3.org/2000/svg" xmlns:xlink="http://www.w3.org/1999/xlink">
<g id="graph0" class="graph" transform="scale(1 1) rotate(0) translate(4 638)">
<title>/github/workspace/src/renderer/vulkan/semaphore.h</title>
<!-- Node1 -->
<g id="node1" class="node">
<title>Node1</title>
<g id="a_node1"><a xlink:title=" ">
<polygon fill="#bfbfbf" stroke="black" points="1302.5,-603.5 1302.5,-633.5 1447.5,-633.5 1447.5,-603.5 1302.5,-603.5"/>
<text text-anchor="start" x="1310.5" y="-621.5" font-family="Helvetica,sans-Serif" font-size="10.00">/github/workspace/src</text>
<text text-anchor="middle" x="1375" y="-610.5" font-family="Helvetica,sans-Serif" font-size="10.00">/renderer/vulkan/semaphore.h</text>
</a>
</g>
</g>
<!-- Node2 -->
<g id="node2" class="node">
<title>Node2</title>
<g id="a_node2"><a xlink:href="commandbuffer_8h.html" target="_top" xlink:title=" ">
<polygon fill="none" stroke="black" points="880,-536.5 880,-566.5 1044,-566.5 1044,-536.5 880,-536.5"/>
<text text-anchor="start" x="888" y="-554.5" font-family="Helvetica,sans-Serif" font-size="10.00">/github/workspace/src</text>
<text text-anchor="middle" x="962" y="-543.5" font-family="Helvetica,sans-Serif" font-size="10.00">/renderer/vulkan/commandbuffer.h</text>
</a>
</g>
</g>
<!-- Node1&#45;&gt;Node2 -->
<g id="edge1" class="edge">
<title>Node1&#45;&gt;Node2</title>
<path fill="none" stroke="midnightblue" d="M1292.15,-604.46C1220.01,-593.11 1115.99,-576.74 1044.07,-565.42"/>
<polygon fill="midnightblue" stroke="midnightblue" points="1291.69,-607.93 1302.11,-606.03 1292.78,-601.02 1291.69,-607.93"/>
</g>
<!-- Node31 -->
<g id="node31" class="node">
<title>Node31</title>
<g id="a_node31"><a xlink:href="swapchain_8h.html" target="_top" xlink:title=" ">
<polygon fill="none" stroke="black" points="1220.5,-469.5 1220.5,-499.5 1363.5,-499.5 1363.5,-469.5 1220.5,-469.5"/>
<text text-anchor="start" x="1228.5" y="-487.5" font-family="Helvetica,sans-Serif" font-size="10.00">/github/workspace/src</text>
<text text-anchor="middle" x="1292" y="-476.5" font-family="Helvetica,sans-Serif" font-size="10.00">/renderer/vulkan/swapchain.h</text>
</a>
</g>
</g>
<!-- Node1&#45;&gt;Node31 -->
<g id="edge64" class="edge">
<title>Node1&#45;&gt;Node31</title>
<path fill="none" stroke="midnightblue" d="M1360.75,-594.83C1343.54,-567.47 1315.13,-522.28 1300.82,-499.52"/>
<polygon fill="midnightblue" stroke="midnightblue" points="1357.83,-596.77 1366.12,-603.37 1363.76,-593.05 1357.83,-596.77"/>
</g>
<!-- Node32 -->
<g id="node32" class="node">
<title>Node32</title>
<g id="a_node32"><a xlink:href="framebuffer_8h.html" target="_top" xlink:title=" ">
<polygon fill="none" stroke="black" points="1182,-335.5 1182,-365.5 1328,-365.5 1328,-335.5 1182,-335.5"/>
<text text-anchor="start" x="1190" y="-353.5" font-family="Helvetica,sans-Serif" font-size="10.00">/github/workspace/src</text>
<text text-anchor="middle" x="1255" y="-342.5" font-family="Helvetica,sans-Serif" font-size="10.00">/renderer/vulkan/framebuffer.h</text>
</a>
</g>
</g>
<!-- Node1&#45;&gt;Node32 -->
<g id="edge62" class="edge">
<title>Node1&#45;&gt;Node32</title>
<path fill="none" stroke="midnightblue" d="M1393.16,-595.47C1425.27,-553.7 1484.61,-461.81 1439,-402 1425.24,-383.96 1373.51,-370.76 1328.39,-362.39"/>
<polygon fill="midnightblue" stroke="midnightblue" points="1390.38,-593.34 1386.95,-603.37 1395.88,-597.67 1390.38,-593.34"/>
</g>
<!-- Node39 -->
<g id="node39" class="node">
<title>Node39</title>
<g id="a_node39"><a xlink:href="semaphore_8cpp.html" target="_top" xlink:title=" ">
<polygon fill="none" stroke="black" points="1486.5,-536.5 1486.5,-566.5 1641.5,-566.5 1641.5,-536.5 1486.5,-536.5"/>
<text text-anchor="start" x="1494.5" y="-554.5" font-family="Helvetica,sans-Serif" font-size="10.00">/github/workspace/src</text>
<text text-anchor="middle" x="1564" y="-543.5" font-family="Helvetica,sans-Serif" font-size="10.00">/renderer/vulkan/semaphore.cpp</text>
</a>
</g>
</g>
<!-- Node1&#45;&gt;Node39 -->
<g id="edge63" class="edge">
<title>Node1&#45;&gt;Node39</title>
<path fill="none" stroke="midnightblue" d="M1425.62,-600.09C1456.13,-589.6 1494.48,-576.41 1523.07,-566.58"/>
<polygon fill="midnightblue" stroke="midnightblue" points="1424.33,-596.83 1416.01,-603.4 1426.6,-603.45 1424.33,-596.83"/>
</g>
<!-- Node3 -->
<g id="node3" class="node">
<title>Node3</title>
<g id="a_node3"><a xlink:href="buffer_8h.html" target="_top" xlink:title=" ">
<polygon fill="none" stroke="black" points="488.5,-469.5 488.5,-499.5 609.5,-499.5 609.5,-469.5 488.5,-469.5"/>
<text text-anchor="start" x="496.5" y="-487.5" font-family="Helvetica,sans-Serif" font-size="10.00">/github/workspace/src</text>
<text text-anchor="middle" x="549" y="-476.5" font-family="Helvetica,sans-Serif" font-size="10.00">/renderer/vulkan/buffer.h</text>
</a>
</g>
</g>
<!-- Node2&#45;&gt;Node3 -->
<g id="edge2" class="edge">
<title>Node2&#45;&gt;Node3</title>
<path fill="none" stroke="midnightblue" d="M869.92,-536.01C790.6,-523.52 678.37,-505.86 609.81,-495.07"/>
<polygon fill="midnightblue" stroke="midnightblue" points="869.49,-539.48 879.91,-537.58 870.58,-532.57 869.49,-539.48"/>
</g>
<!-- Node29 -->
<g id="node29" class="node">
<title>Node29</title>
<g id="a_node29"><a xlink:href="vulkan__voxel__rasterizer_8cpp.html" target="_top" xlink:title=" ">
<polygon fill="none" stroke="black" points="749,-268.5 749,-298.5 913,-298.5 913,-268.5 749,-268.5"/>
<text text-anchor="start" x="757" y="-286.5" font-family="Helvetica,sans-Serif" font-size="10.00">/github/workspace/src</text>
<text text-anchor="middle" x="831" y="-275.5" font-family="Helvetica,sans-Serif" font-size="10.00">/tests/vulkan_voxel_rasterizer.cpp</text>
</a>
</g>
</g>
<!-- Node2&#45;&gt;Node29 -->
<g id="edge61" class="edge">
<title>Node2&#45;&gt;Node29</title>
<path fill="none" stroke="midnightblue" d="M915.49,-532.28C874.16,-513.62 815.42,-480.6 783,-433 758.23,-396.64 750.12,-374.74 769,-335 776.39,-319.45 791.17,-307.12 804.44,-298.53"/>
<polygon fill="midnightblue" stroke="midnightblue" points="914.25,-535.55 924.81,-536.37 917.06,-529.14 914.25,-535.55"/>
</g>
<!-- Node30 -->
<g id="node30" class="node">
<title>Node30</title>
<g id="a_node30"><a xlink:href="commandbuffer_8cpp.html" target="_top" xlink:title=" ">
<polygon fill="none" stroke="black" points="990,-469.5 990,-499.5 1164,-499.5 1164,-469.5 990,-469.5"/>
<text text-anchor="start" x="998" y="-487.5" font-family="Helvetica,sans-Serif" font-size="10.00">/github/workspace/src</text>
<text text-anchor="middle" x="1077" y="-476.5" font-family="Helvetica,sans-Serif" font-size="10.00">/renderer/vulkan/commandbuffer.cpp</text>
</a>
</g>
</g>
<!-- Node2&#45;&gt;Node30 -->
<g id="edge38" class="edge">
<title>Node2&#45;&gt;Node30</title>
<path fill="none" stroke="midnightblue" d="M995.98,-531.3C1013.97,-521.12 1035.68,-508.85 1052.1,-499.58"/>
<polygon fill="midnightblue" stroke="midnightblue" points="993.94,-528.43 986.95,-536.4 997.38,-534.52 993.94,-528.43"/>
</g>
<!-- Node2&#45;&gt;Node31 -->
<g id="edge39" class="edge">
<title>Node2&#45;&gt;Node31</title>
<path fill="none" stroke="midnightblue" d="M1043.15,-534.52C1097.52,-523.81 1168.43,-509.84 1220.64,-499.55"/>
<polygon fill="midnightblue" stroke="midnightblue" points="1042.33,-531.11 1033.2,-536.48 1043.69,-537.98 1042.33,-531.11"/>
</g>
<!-- Node4 -->
<g id="node4" class="node">
<title>Node4</title>
<g id="a_node4"><a xlink:href="buffer_8cpp.html" target="_top" xlink:title=" ">
<polygon fill="none" stroke="black" points="560.5,-402.5 560.5,-432.5 691.5,-432.5 691.5,-402.5 560.5,-402.5"/>
<text text-anchor="start" x="568.5" y="-420.5" font-family="Helvetica,sans-Serif" font-size="10.00">/github/workspace/src</text>
<text text-anchor="middle" x="626" y="-409.5" font-family="Helvetica,sans-Serif" font-size="10.00">/renderer/vulkan/buffer.cpp</text>
</a>
</g>
</g>
<!-- Node3&#45;&gt;Node4 -->
<g id="edge3" class="edge">
<title>Node3&#45;&gt;Node4</title>
<path fill="none" stroke="midnightblue" d="M573.42,-462.88C585.12,-453.01 598.84,-441.43 609.32,-432.58"/>
<polygon fill="midnightblue" stroke="midnightblue" points="571.09,-460.27 565.71,-469.4 575.61,-465.62 571.09,-460.27"/>
</g>
<!-- Node5 -->
<g id="node5" class="node">
<title>Node5</title>
<g id="a_node5"><a xlink:href="bufferview_8h.html" target="_top" xlink:title=" ">
<polygon fill="none" stroke="black" points="401.5,-402.5 401.5,-432.5 542.5,-432.5 542.5,-402.5 401.5,-402.5"/>
<text text-anchor="start" x="409.5" y="-420.5" font-family="Helvetica,sans-Serif" font-size="10.00">/github/workspace/src</text>
<text text-anchor="middle" x="472" y="-409.5" font-family="Helvetica,sans-Serif" font-size="10.00">/renderer/vulkan/bufferview.h</text>
</a>
</g>
</g>
<!-- Node3&#45;&gt;Node5 -->
<g id="edge4" class="edge">
<title>Node3&#45;&gt;Node5</title>
<path fill="none" stroke="midnightblue" d="M524.58,-462.88C512.88,-453.01 499.16,-441.43 488.68,-432.58"/>
<polygon fill="midnightblue" stroke="midnightblue" points="522.39,-465.62 532.29,-469.4 526.91,-460.27 522.39,-465.62"/>
</g>
<!-- Node7 -->
<g id="node7" class="node">
<title>Node7</title>
<g id="a_node7"><a xlink:href="uniformbuffer_8h.html" target="_top" xlink:title=" ">
<polygon fill="none" stroke="black" points="230.5,-402.5 230.5,-432.5 383.5,-432.5 383.5,-402.5 230.5,-402.5"/>
<text text-anchor="start" x="238.5" y="-420.5" font-family="Helvetica,sans-Serif" font-size="10.00">/github/workspace/src</text>
<text text-anchor="middle" x="307" y="-409.5" font-family="Helvetica,sans-Serif" font-size="10.00">/renderer/vulkan/uniformbuffer.h</text>
</a>
</g>
</g>
<!-- Node3&#45;&gt;Node7 -->
<g id="edge6" class="edge">
<title>Node3&#45;&gt;Node7</title>
<path fill="none" stroke="midnightblue" d="M487.01,-466.85C447.55,-456.25 397.01,-442.68 359.54,-432.61"/>
<polygon fill="midnightblue" stroke="midnightblue" points="486.22,-470.26 496.79,-469.48 488.04,-463.5 486.22,-470.26"/>
</g>
<!-- Node6 -->
<g id="node6" class="node">
<title>Node6</title>
<g id="a_node6"><a xlink:href="bufferview_8cpp.html" target="_top" xlink:title=" ">
<polygon fill="none" stroke="black" points="540,-335.5 540,-365.5 692,-365.5 692,-335.5 540,-335.5"/>
<text text-anchor="start" x="548" y="-353.5" font-family="Helvetica,sans-Serif" font-size="10.00">/github/workspace/src</text>
<text text-anchor="middle" x="616" y="-342.5" font-family="Helvetica,sans-Serif" font-size="10.00">/renderer/vulkan/bufferview.cpp</text>
</a>
</g>
</g>
<!-- Node5&#45;&gt;Node6 -->
<g id="edge5" class="edge">
<title>Node5&#45;&gt;Node6</title>
<path fill="none" stroke="midnightblue" d="M512.39,-398.27C535.32,-387.92 563.6,-375.15 584.82,-365.58"/>
<polygon fill="midnightblue" stroke="midnightblue" points="510.92,-395.09 503.25,-402.4 513.8,-401.47 510.92,-395.09"/>
</g>
<!-- Node8 -->
<g id="node8" class="node">
<title>Node8</title>
<g id="a_node8"><a xlink:href="materiallibrary_8h.html" target="_top" xlink:title=" ">
<polygon fill="none" stroke="black" points="176.5,-335.5 176.5,-365.5 301.5,-365.5 301.5,-335.5 176.5,-335.5"/>
<text text-anchor="start" x="184.5" y="-353.5" font-family="Helvetica,sans-Serif" font-size="10.00">/github/workspace/src</text>
<text text-anchor="middle" x="239" y="-342.5" font-family="Helvetica,sans-Serif" font-size="10.00">/renderer/materiallibrary.h</text>
</a>
</g>
</g>
<!-- Node7&#45;&gt;Node8 -->
<g id="edge7" class="edge">
<title>Node7&#45;&gt;Node8</title>
<path fill="none" stroke="midnightblue" d="M284.83,-395.31C274.63,-385.56 262.81,-374.26 253.73,-365.58"/>
<polygon fill="midnightblue" stroke="midnightblue" points="282.6,-398.02 292.25,-402.4 287.43,-392.96 282.6,-398.02"/>
</g>
<!-- Node24 -->
<g id="node24" class="node">
<title>Node24</title>
<g id="a_node24"><a xlink:href="descriptorset_8h.html" target="_top" xlink:title=" ">
<polygon fill="none" stroke="black" points="5.5,-335.5 5.5,-365.5 158.5,-365.5 158.5,-335.5 5.5,-335.5"/>
<text text-anchor="start" x="13.5" y="-353.5" font-family="Helvetica,sans-Serif" font-size="10.00">/github/workspace/src</text>
<text text-anchor="middle" x="82" y="-342.5" font-family="Helvetica,sans-Serif" font-size="10.00">/renderer/vulkan/descriptorset.h</text>
</a>
</g>
</g>
<!-- Node7&#45;&gt;Node24 -->
<g id="edge30" class="edge">
<title>Node7&#45;&gt;Node24</title>
<path fill="none" stroke="midnightblue" d="M248.43,-399.58C211.89,-389.02 165.4,-375.59 130.85,-365.61"/>
<polygon fill="midnightblue" stroke="midnightblue" points="247.88,-403.06 258.46,-402.48 249.82,-396.34 247.88,-403.06"/>
</g>
<!-- Node28 -->
<g id="node28" class="node">
<title>Node28</title>
<g id="a_node28"><a xlink:href="uniformbuffer_8cpp.html" target="_top" xlink:title=" ">
<polygon fill="none" stroke="black" points="320,-335.5 320,-365.5 484,-365.5 484,-335.5 320,-335.5"/>
<text text-anchor="start" x="328" y="-353.5" font-family="Helvetica,sans-Serif" font-size="10.00">/github/workspace/src</text>
<text text-anchor="middle" x="402" y="-342.5" font-family="Helvetica,sans-Serif" font-size="10.00">/renderer/vulkan/uniformbuffer.cpp</text>
</a>
</g>
</g>
<!-- Node7&#45;&gt;Node28 -->
<g id="edge36" class="edge">
<title>Node7&#45;&gt;Node28</title>
<path fill="none" stroke="midnightblue" d="M335.89,-396.73C350.59,-386.68 368.11,-374.68 381.43,-365.58"/>
<polygon fill="midnightblue" stroke="midnightblue" points="333.89,-393.86 327.61,-402.4 337.84,-399.64 333.89,-393.86"/>
</g>
<!-- Node7&#45;&gt;Node29 -->
<g id="edge37" class="edge">
<title>Node7&#45;&gt;Node29</title>
<path fill="none" stroke="midnightblue" d="M393.76,-400.9C426.03,-393.07 462.25,-381.8 493,-366 512.39,-356.04 511.15,-344 531,-335 536.01,-332.73 661.78,-311.99 748.86,-297.81"/>
<polygon fill="midnightblue" stroke="midnightblue" points="392.82,-397.52 383.88,-403.22 394.42,-404.34 392.82,-397.52"/>
</g>
<!-- Node9 -->
<g id="node9" class="node">
<title>Node9</title>
<g id="a_node9"><a xlink:href="material_8h.html" target="_top" xlink:title=" ">
<polygon fill="none" stroke="black" points="617.5,-268.5 617.5,-298.5 730.5,-298.5 730.5,-268.5 617.5,-268.5"/>
<text text-anchor="start" x="625.5" y="-286.5" font-family="Helvetica,sans-Serif" font-size="10.00">/github/workspace/src</text>
<text text-anchor="middle" x="674" y="-275.5" font-family="Helvetica,sans-Serif" font-size="10.00">/renderer/material.h</text>
</a>
</g>
</g>
<!-- Node8&#45;&gt;Node9 -->
<g id="edge8" class="edge">
<title>Node8&#45;&gt;Node9</title>
<path fill="none" stroke="midnightblue" d="M309.32,-333.83C429.8,-314.59 464.18,-318.16 587,-299 596.8,-297.47 607.26,-295.66 617.43,-293.84"/>
<polygon fill="midnightblue" stroke="midnightblue" points="308.65,-330.39 299.34,-335.44 309.77,-337.3 308.65,-330.39"/>
</g>
<!-- Node23 -->
<g id="node23" class="node">
<title>Node23</title>
<g id="a_node23"><a xlink:href="materiallibrary_8cpp.html" target="_top" xlink:title=" ">
<polygon fill="none" stroke="black" points="451,-268.5 451,-298.5 587,-298.5 587,-268.5 451,-268.5"/>
<text text-anchor="start" x="459" y="-286.5" font-family="Helvetica,sans-Serif" font-size="10.00">/github/workspace/src</text>
<text text-anchor="middle" x="519" y="-275.5" font-family="Helvetica,sans-Serif" font-size="10.00">/renderer/materiallibrary.cpp</text>
</a>
</g>
</g>
<!-- Node8&#45;&gt;Node23 -->
<g id="edge29" class="edge">
<title>Node8&#45;&gt;Node23</title>
<path fill="none" stroke="midnightblue" d="M309.28,-333.19C355.13,-322.54 414.39,-308.78 458.21,-298.61"/>
<polygon fill="midnightblue" stroke="midnightblue" points="308.36,-329.81 299.41,-335.48 309.94,-336.62 308.36,-329.81"/>
</g>
<!-- Node9&#45;&gt;Node8 -->
<g id="edge14" class="edge">
<title>Node9&#45;&gt;Node8</title>
<path fill="none" stroke="midnightblue" d="M607.31,-298.64C606.54,-298.76 605.77,-298.88 605,-299 478.85,-318.68 446,-314.38 320,-335 314.09,-335.97 307.92,-337.07 301.73,-338.22"/>
<polygon fill="midnightblue" stroke="midnightblue" points="608.19,-302.04 617.49,-296.96 607.06,-295.13 608.19,-302.04"/>
</g>
<!-- Node10 -->
<g id="node10" class="node">
<title>Node10</title>
<g id="a_node10"><a xlink:href="mastermaterial_8h.html" target="_top" xlink:title=" ">
<polygon fill="none" stroke="black" points="742,-67.5 742,-97.5 872,-97.5 872,-67.5 742,-67.5"/>
<text text-anchor="start" x="750" y="-85.5" font-family="Helvetica,sans-Serif" font-size="10.00">/github/workspace/src</text>
<text text-anchor="middle" x="807" y="-74.5" font-family="Helvetica,sans-Serif" font-size="10.00">/renderer/mastermaterial.h</text>
</a>
</g>
</g>
<!-- Node9&#45;&gt;Node10 -->
<g id="edge9" class="edge">
<title>Node9&#45;&gt;Node10</title>
<path fill="none" stroke="midnightblue" d="M672.45,-258.12C675.79,-241.34 683.42,-218.93 694,-201 718.79,-159.01 759.76,-118.29 785.24,-97.6"/>
<polygon fill="midnightblue" stroke="midnightblue" points="668.96,-257.82 670.89,-268.23 675.88,-258.88 668.96,-257.82"/>
</g>
<!-- Node12 -->
<g id="node12" class="node">
<title>Node12</title>
<g id="a_node12"><a xlink:href="material_8cpp.html" target="_top" xlink:title=" ">
<polygon fill="none" stroke="black" points="711.5,-201.5 711.5,-231.5 824.5,-231.5 824.5,-201.5 711.5,-201.5"/>
<text text-anchor="start" x="719.5" y="-219.5" font-family="Helvetica,sans-Serif" font-size="10.00">/github/workspace/src</text>
<text text-anchor="middle" x="768" y="-208.5" font-family="Helvetica,sans-Serif" font-size="10.00">/renderer/material.cpp</text>
</a>
</g>
</g>
<!-- Node9&#45;&gt;Node12 -->
<g id="edge13" class="edge">
<title>Node9&#45;&gt;Node12</title>
<path fill="none" stroke="midnightblue" d="M702.99,-262.45C717.45,-252.45 734.59,-240.6 747.64,-231.58"/>
<polygon fill="midnightblue" stroke="midnightblue" points="700.63,-259.83 694.4,-268.4 704.61,-265.59 700.63,-259.83"/>
</g>
<!-- Node13 -->
<g id="node13" class="node">
<title>Node13</title>
<g id="a_node13"><a xlink:href="mesh_8h.html" target="_top" xlink:title=" ">
<polygon fill="none" stroke="black" points="1007.5,-201.5 1007.5,-231.5 1120.5,-231.5 1120.5,-201.5 1007.5,-201.5"/>
<text text-anchor="start" x="1015.5" y="-219.5" font-family="Helvetica,sans-Serif" font-size="10.00">/github/workspace/src</text>
<text text-anchor="middle" x="1064" y="-208.5" font-family="Helvetica,sans-Serif" font-size="10.00">/renderer/mesh.h</text>
</a>
</g>
</g>
<!-- Node9&#45;&gt;Node13 -->
<g id="edge15" class="edge">
<title>Node9&#45;&gt;Node13</title>
<path fill="none" stroke="midnightblue" d="M740.76,-267.93C840.3,-249.46 944.61,-234.08 1007.34,-225.25"/>
<polygon fill="midnightblue" stroke="midnightblue" points="740.02,-264.5 730.84,-269.78 741.31,-271.38 740.02,-264.5"/>
</g>
<!-- Node10&#45;&gt;Node8 -->
<g id="edge12" class="edge">
<title>Node10&#45;&gt;Node8</title>
<path fill="none" stroke="midnightblue" d="M731.55,-89.08C596.37,-100.71 321.1,-132.39 258,-201 223.34,-238.69 230.77,-306.31 236.04,-335.48"/>
<polygon fill="midnightblue" stroke="midnightblue" points="732.15,-92.54 741.82,-88.21 731.56,-85.57 732.15,-92.54"/>
</g>
<!-- Node10&#45;&gt;Node9 -->
<g id="edge11" class="edge">
<title>Node10&#45;&gt;Node9</title>
<path fill="none" stroke="midnightblue" d="M790.01,-105.08C768.99,-127.21 734.07,-163.6 712,-201 699.1,-222.86 690.59,-251.37 683.71,-268.23"/>
<polygon fill="midnightblue" stroke="midnightblue" points="792.76,-107.27 797.08,-97.6 787.67,-102.46 792.76,-107.27"/>
</g>
<!-- Node11 -->
<g id="node11" class="node">
<title>Node11</title>
<g id="a_node11"><a xlink:href="mastermaterial_8cpp.html" target="_top" xlink:title=" ">
<polygon fill="none" stroke="black" points="737,-0.5 737,-30.5 877,-30.5 877,-0.5 737,-0.5"/>
<text text-anchor="start" x="745" y="-18.5" font-family="Helvetica,sans-Serif" font-size="10.00">/github/workspace/src</text>
<text text-anchor="middle" x="807" y="-7.5" font-family="Helvetica,sans-Serif" font-size="10.00">/renderer/mastermaterial.cpp</text>
</a>
</g>
</g>
<!-- Node10&#45;&gt;Node11 -->
<g id="edge10" class="edge">
<title>Node10&#45;&gt;Node11</title>
<path fill="none" stroke="midnightblue" d="M807,-57.11C807,-48.15 807,-38.32 807,-30.58"/>
<polygon fill="midnightblue" stroke="midnightblue" points="803.5,-57.4 807,-67.4 810.5,-57.4 803.5,-57.4"/>
</g>
<!-- Node13&#45;&gt;Node10 -->
<g id="edge16" class="edge">
<title>Node13&#45;&gt;Node10</title>
<path fill="none" stroke="midnightblue" d="M1037.53,-195.02C1008.18,-172.43 963.8,-138.64 955,-134 925.34,-118.36 889.86,-106.05 861.07,-97.51"/>
<polygon fill="midnightblue" stroke="midnightblue" points="1035.67,-198.01 1045.73,-201.35 1039.94,-192.47 1035.67,-198.01"/>
</g>
<!-- Node14 -->
<g id="node14" class="node">
<title>Node14</title>
<g id="a_node14"><a xlink:href="mesh_8cpp.html" target="_top" xlink:title=" ">
<polygon fill="none" stroke="black" points="1007.5,-134.5 1007.5,-164.5 1120.5,-164.5 1120.5,-134.5 1007.5,-134.5"/>
<text text-anchor="start" x="1015.5" y="-152.5" font-family="Helvetica,sans-Serif" font-size="10.00">/github/workspace/src</text>
<text text-anchor="middle" x="1064" y="-141.5" font-family="Helvetica,sans-Serif" font-size="10.00">/renderer/mesh.cpp</text>
</a>
</g>
</g>
<!-- Node13&#45;&gt;Node14 -->
<g id="edge17" class="edge">
<title>Node13&#45;&gt;Node14</title>
<path fill="none" stroke="midnightblue" d="M1064,-191.11C1064,-182.15 1064,-172.32 1064,-164.58"/>
<polygon fill="midnightblue" stroke="midnightblue" points="1060.5,-191.4 1064,-201.4 1067.5,-191.4 1060.5,-191.4"/>
</g>
<!-- Node15 -->
<g id="node15" class="node">
<title>Node15</title>
<g id="a_node15"><a xlink:href="modelloader_8h.html" target="_top" xlink:title=" ">
<polygon fill="none" stroke="black" points="1501,-67.5 1501,-97.5 1619,-97.5 1619,-67.5 1501,-67.5"/>
<text text-anchor="start" x="1509" y="-85.5" font-family="Helvetica,sans-Serif" font-size="10.00">/github/workspace/src</text>
<text text-anchor="middle" x="1560" y="-74.5" font-family="Helvetica,sans-Serif" font-size="10.00">/renderer/modelloader.h</text>
</a>
</g>
</g>
<!-- Node13&#45;&gt;Node15 -->
<g id="edge18" class="edge">
<title>Node13&#45;&gt;Node15</title>
<path fill="none" stroke="midnightblue" d="M1130.66,-200.44C1172.52,-190.78 1227.55,-177.71 1276,-165 1360.1,-142.93 1457.33,-114.36 1513.44,-97.57"/>
<polygon fill="midnightblue" stroke="midnightblue" points="1129.82,-197.04 1120.86,-202.7 1131.39,-203.87 1129.82,-197.04"/>
</g>
<!-- Node19 -->
<g id="node19" class="node">
<title>Node19</title>
<g id="a_node19"><a xlink:href="objectinstance_8h.html" target="_top" xlink:title=" ">
<polygon fill="none" stroke="black" points="1139,-134.5 1139,-164.5 1267,-164.5 1267,-134.5 1139,-134.5"/>
<text text-anchor="start" x="1147" y="-152.5" font-family="Helvetica,sans-Serif" font-size="10.00">/github/workspace/src</text>
<text text-anchor="middle" x="1203" y="-141.5" font-family="Helvetica,sans-Serif" font-size="10.00">/renderer/objectinstance.h</text>
</a>
</g>
</g>
<!-- Node13&#45;&gt;Node19 -->
<g id="edge22" class="edge">
<title>Node13&#45;&gt;Node19</title>
<path fill="none" stroke="midnightblue" d="M1103.28,-197.13C1125.37,-186.8 1152.51,-174.11 1172.9,-164.58"/>
<polygon fill="midnightblue" stroke="midnightblue" points="1101.74,-193.99 1094.16,-201.4 1104.7,-200.33 1101.74,-193.99"/>
</g>
<!-- Node16 -->
<g id="node16" class="node">
<title>Node16</title>
<g id="a_node16"><a xlink:href="modelloader_8cpp.html" target="_top" xlink:title=" ">
<polygon fill="none" stroke="black" points="1665,-0.5 1665,-30.5 1793,-30.5 1793,-0.5 1665,-0.5"/>
<text text-anchor="start" x="1673" y="-18.5" font-family="Helvetica,sans-Serif" font-size="10.00">/github/workspace/src</text>
<text text-anchor="middle" x="1729" y="-7.5" font-family="Helvetica,sans-Serif" font-size="10.00">/renderer/modelloader.cpp</text>
</a>
</g>
</g>
<!-- Node15&#45;&gt;Node16 -->
<g id="edge19" class="edge">
<title>Node15&#45;&gt;Node16</title>
<path fill="none" stroke="midnightblue" d="M1606.33,-63.68C1633.43,-53.26 1667.17,-40.28 1692.4,-30.58"/>
<polygon fill="midnightblue" stroke="midnightblue" points="1604.75,-60.54 1596.67,-67.4 1607.26,-67.07 1604.75,-60.54"/>
</g>
<!-- Node17 -->
<g id="node17" class="node">
<title>Node17</title>
<g id="a_node17"><a xlink:href="vulkan__voxel__rasterizer__2_8cpp.html" target="_top" xlink:title=" ">
<polygon fill="none" stroke="black" points="1473,-0.5 1473,-30.5 1647,-30.5 1647,-0.5 1473,-0.5"/>
<text text-anchor="start" x="1481" y="-18.5" font-family="Helvetica,sans-Serif" font-size="10.00">/github/workspace/src</text>
<text text-anchor="middle" x="1560" y="-7.5" font-family="Helvetica,sans-Serif" font-size="10.00">/tests/vulkan_voxel_rasterizer_2.cpp</text>
</a>
</g>
</g>
<!-- Node15&#45;&gt;Node17 -->
<g id="edge20" class="edge">
<title>Node15&#45;&gt;Node17</title>
<path fill="none" stroke="midnightblue" d="M1560,-57.11C1560,-48.15 1560,-38.32 1560,-30.58"/>
<polygon fill="midnightblue" stroke="midnightblue" points="1556.5,-57.4 1560,-67.4 1563.5,-57.4 1556.5,-57.4"/>
</g>
<!-- Node18 -->
<g id="node18" class="node">
<title>Node18</title>
<g id="a_node18"><a xlink:href="vulkan__voxel__rasterizer__3_8cpp.html" target="_top" xlink:title=" ">
<polygon fill="none" stroke="black" points="1281,-0.5 1281,-30.5 1455,-30.5 1455,-0.5 1281,-0.5"/>
<text text-anchor="start" x="1289" y="-18.5" font-family="Helvetica,sans-Serif" font-size="10.00">/github/workspace/src</text>
<text text-anchor="middle" x="1368" y="-7.5" font-family="Helvetica,sans-Serif" font-size="10.00">/tests/vulkan_voxel_rasterizer_3.cpp</text>
</a>
</g>
</g>
<!-- Node15&#45;&gt;Node18 -->
<g id="edge21" class="edge">
<title>Node15&#45;&gt;Node18</title>
<path fill="none" stroke="midnightblue" d="M1508.58,-64.09C1477.58,-53.6 1438.62,-40.41 1409.58,-30.58"/>
<polygon fill="midnightblue" stroke="midnightblue" points="1507.74,-67.5 1518.34,-67.4 1509.99,-60.87 1507.74,-67.5"/>
</g>
<!-- Node19&#45;&gt;Node10 -->
<g id="edge23" class="edge">
<title>Node19&#45;&gt;Node10</title>
<path fill="none" stroke="midnightblue" d="M1128.86,-133.84C1033.84,-117.12 935.18,-102.15 872.09,-92.88"/>
<polygon fill="midnightblue" stroke="midnightblue" points="1128.48,-137.33 1138.93,-135.62 1129.7,-130.43 1128.48,-137.33"/>
</g>
<!-- Node20 -->
<g id="node20" class="node">
<title>Node20</title>
<g id="a_node20"><a xlink:href="objectinstance_8cpp.html" target="_top" xlink:title=" ">
<polygon fill="none" stroke="black" points="1277.5,-67.5 1277.5,-97.5 1416.5,-97.5 1416.5,-67.5 1277.5,-67.5"/>
<text text-anchor="start" x="1285.5" y="-85.5" font-family="Helvetica,sans-Serif" font-size="10.00">/github/workspace/src</text>
<text text-anchor="middle" x="1347" y="-74.5" font-family="Helvetica,sans-Serif" font-size="10.00">/renderer/objectinstance.cpp</text>
</a>
</g>
</g>
<!-- Node19&#45;&gt;Node20 -->
<g id="edge24" class="edge">
<title>Node19&#45;&gt;Node20</title>
<path fill="none" stroke="midnightblue" d="M1243.39,-130.27C1266.32,-119.92 1294.6,-107.15 1315.82,-97.58"/>
<polygon fill="midnightblue" stroke="midnightblue" points="1241.92,-127.09 1234.25,-134.4 1244.8,-133.47 1241.92,-127.09"/>
</g>
<!-- Node21 -->
<g id="node21" class="node">
<title>Node21</title>
<g id="a_node21"><a xlink:href="scene_8h.html" target="_top" xlink:title=" ">
<polygon fill="none" stroke="black" points="1146.5,-67.5 1146.5,-97.5 1259.5,-97.5 1259.5,-67.5 1146.5,-67.5"/>
<text text-anchor="start" x="1154.5" y="-85.5" font-family="Helvetica,sans-Serif" font-size="10.00">/github/workspace/src</text>
<text text-anchor="middle" x="1203" y="-74.5" font-family="Helvetica,sans-Serif" font-size="10.00">/renderer/scene.h</text>
</a>
</g>
</g>
<!-- Node19&#45;&gt;Node21 -->
<g id="edge25" class="edge">
<title>Node19&#45;&gt;Node21</title>
<path fill="none" stroke="midnightblue" d="M1203,-124.11C1203,-115.15 1203,-105.32 1203,-97.58"/>
<polygon fill="midnightblue" stroke="midnightblue" points="1199.5,-124.4 1203,-134.4 1206.5,-124.4 1199.5,-124.4"/>
</g>
<!-- Node21&#45;&gt;Node17 -->
<g id="edge27" class="edge">
<title>Node21&#45;&gt;Node17</title>
<path fill="none" stroke="midnightblue" d="M1269.85,-66.88C1344.08,-52.41 1417.77,-39.73 1473.23,-30.52"/>
<polygon fill="midnightblue" stroke="midnightblue" points="1268.99,-63.48 1259.85,-68.84 1270.33,-70.35 1268.99,-63.48"/>
</g>
<!-- Node21&#45;&gt;Node18 -->
<g id="edge28" class="edge">
<title>Node21&#45;&gt;Node18</title>
<path fill="none" stroke="midnightblue" d="M1248.23,-63.68C1274.69,-53.26 1307.63,-40.28 1332.27,-30.58"/>
<polygon fill="midnightblue" stroke="midnightblue" points="1246.82,-60.47 1238.8,-67.4 1249.39,-66.99 1246.82,-60.47"/>
</g>
<!-- Node22 -->
<g id="node22" class="node">
<title>Node22</title>
<g id="a_node22"><a xlink:href="scene_8cpp.html" target="_top" xlink:title=" ">
<polygon fill="none" stroke="black" points="1146.5,-0.5 1146.5,-30.5 1259.5,-30.5 1259.5,-0.5 1146.5,-0.5"/>
<text text-anchor="start" x="1154.5" y="-18.5" font-family="Helvetica,sans-Serif" font-size="10.00">/github/workspace/src</text>
<text text-anchor="middle" x="1203" y="-7.5" font-family="Helvetica,sans-Serif" font-size="10.00">/renderer/scene.cpp</text>
</a>
</g>
</g>
<!-- Node21&#45;&gt;Node22 -->
<g id="edge26" class="edge">
<title>Node21&#45;&gt;Node22</title>
<path fill="none" stroke="midnightblue" d="M1203,-57.11C1203,-48.15 1203,-38.32 1203,-30.58"/>
<polygon fill="midnightblue" stroke="midnightblue" points="1199.5,-57.4 1203,-67.4 1206.5,-57.4 1199.5,-57.4"/>
</g>
<!-- Node24&#45;&gt;Node2 -->
<g id="edge34" class="edge">
<title>Node24&#45;&gt;Node2</title>
<path fill="none" stroke="midnightblue" d="M110.42,-371.35C137.69,-389.61 180.58,-416.3 221,-433 446.88,-526.3 739.69,-545.96 879.99,-549.8"/>
<polygon fill="midnightblue" stroke="midnightblue" points="112.04,-368.22 101.8,-365.51 108.12,-374.02 112.04,-368.22"/>
</g>
<!-- Node25 -->
<g id="node25" class="node">
<title>Node25</title>
<g id="a_node25"><a xlink:href="descriptorpoolmanager_8h.html" target="_top" xlink:title=" ">
<polygon fill="none" stroke="black" points="269,-268.5 269,-298.5 433,-298.5 433,-268.5 269,-268.5"/>
<text text-anchor="start" x="277" y="-286.5" font-family="Helvetica,sans-Serif" font-size="10.00">/github/workspace/src</text>
<text text-anchor="middle" x="351" y="-275.5" font-family="Helvetica,sans-Serif" font-size="10.00">/renderer/descriptorpoolmanager.h</text>
</a>
</g>
</g>
<!-- Node24&#45;&gt;Node25 -->
<g id="edge31" class="edge">
<title>Node24&#45;&gt;Node25</title>
<path fill="none" stroke="midnightblue" d="M149.79,-333.12C193.81,-322.48 250.59,-308.76 292.6,-298.61"/>
<polygon fill="midnightblue" stroke="midnightblue" points="148.94,-329.73 140.04,-335.48 150.58,-336.53 148.94,-329.73"/>
</g>
<!-- Node27 -->
<g id="node27" class="node">
<title>Node27</title>
<g id="a_node27"><a xlink:href="descriptorset_8cpp.html" target="_top" xlink:title=" ">
<polygon fill="none" stroke="black" points="0,-268.5 0,-298.5 164,-298.5 164,-268.5 0,-268.5"/>
<text text-anchor="start" x="8" y="-286.5" font-family="Helvetica,sans-Serif" font-size="10.00">/github/workspace/src</text>
<text text-anchor="middle" x="82" y="-275.5" font-family="Helvetica,sans-Serif" font-size="10.00">/renderer/vulkan/descriptorset.cpp</text>
</a>
</g>
</g>
<!-- Node24&#45;&gt;Node27 -->
<g id="edge35" class="edge">
<title>Node24&#45;&gt;Node27</title>
<path fill="none" stroke="midnightblue" d="M82,-325.11C82,-316.15 82,-306.32 82,-298.58"/>
<polygon fill="midnightblue" stroke="midnightblue" points="78.5,-325.4 82,-335.4 85.5,-325.4 78.5,-325.4"/>
</g>
<!-- Node25&#45;&gt;Node21 -->
<g id="edge33" class="edge">
<title>Node25&#45;&gt;Node21</title>
<path fill="none" stroke="midnightblue" d="M421.29,-266.08C586.28,-227.55 995.77,-131.9 1146.31,-96.74"/>
<polygon fill="midnightblue" stroke="midnightblue" points="420.19,-262.74 411.25,-268.43 421.78,-269.56 420.19,-262.74"/>
</g>
<!-- Node26 -->
<g id="node26" class="node">
<title>Node26</title>
<g id="a_node26"><a xlink:href="descriptorpoolmanager_8cpp.html" target="_top" xlink:title=" ">
<polygon fill="none" stroke="black" points="267,-201.5 267,-231.5 441,-231.5 441,-201.5 267,-201.5"/>
<text text-anchor="start" x="275" y="-219.5" font-family="Helvetica,sans-Serif" font-size="10.00">/github/workspace/src</text>
<text text-anchor="middle" x="354" y="-208.5" font-family="Helvetica,sans-Serif" font-size="10.00">/renderer/descriptorpoolmanager.cpp</text>
</a>
</g>
</g>
<!-- Node25&#45;&gt;Node26 -->
<g id="edge32" class="edge">
<title>Node25&#45;&gt;Node26</title>
<path fill="none" stroke="midnightblue" d="M352.11,-258.4C352.53,-249.37 352.99,-239.41 353.35,-231.58"/>
<polygon fill="midnightblue" stroke="midnightblue" points="348.62,-258.25 351.65,-268.4 355.61,-258.57 348.62,-258.25"/>
</g>
<!-- Node31&#45;&gt;Node17 -->
<g id="edge59" class="edge">
<title>Node31&#45;&gt;Node17</title>
<path fill="none" stroke="midnightblue" d="M1373.78,-469.94C1478.61,-450.2 1647,-409.47 1647,-351.5 1647,-351.5 1647,-351.5 1647,-148.5 1647,-111.31 1648.4,-98.1 1628,-67 1617.92,-51.63 1601.47,-39.23 1587.28,-30.56"/>
<polygon fill="midnightblue" stroke="midnightblue" points="1373.03,-466.52 1363.84,-471.79 1374.31,-473.4 1373.03,-466.52"/>
</g>
<!-- Node31&#45;&gt;Node18 -->
<g id="edge60" class="edge">
<title>Node31&#45;&gt;Node18</title>
<path fill="none" stroke="midnightblue" d="M1373.66,-474.03C1398.72,-466.85 1423.71,-454.43 1439,-433 1460.67,-402.64 1651.4,-537.7 1426,-67 1418.73,-51.83 1404.57,-39.36 1392.06,-30.6"/>
<polygon fill="midnightblue" stroke="midnightblue" points="1372.49,-470.72 1363.69,-476.62 1374.25,-477.5 1372.49,-470.72"/>
</g>
<!-- Node31&#45;&gt;Node29 -->
<g id="edge58" class="edge">
<title>Node31&#45;&gt;Node29</title>
<path fill="none" stroke="midnightblue" d="M1271.03,-462.2C1232.33,-423.08 1152.12,-343.03 1136,-335 1116.31,-325.18 996.67,-307.22 913.23,-295.57"/>
<polygon fill="midnightblue" stroke="midnightblue" points="1268.67,-464.79 1278.19,-469.44 1273.65,-459.87 1268.67,-464.79"/>
</g>
<!-- Node31&#45;&gt;Node32 -->
<g id="edge40" class="edge">
<title>Node31&#45;&gt;Node32</title>
<path fill="none" stroke="midnightblue" d="M1270.45,-460.84C1265.49,-452.35 1260.96,-442.46 1258,-433 1250.83,-410.07 1247.9,-382.13 1249.28,-365.64"/>
<polygon fill="midnightblue" stroke="midnightblue" points="1267.6,-462.88 1275.94,-469.42 1273.5,-459.11 1267.6,-462.88"/>
</g>
<!-- Node34 -->
<g id="node34" class="node">
<title>Node34</title>
<g id="a_node34"><a xlink:href="graphicspipeline_8h.html" target="_top" xlink:title=" ">
<polygon fill="none" stroke="black" points="959.5,-335.5 959.5,-365.5 1126.5,-365.5 1126.5,-335.5 959.5,-335.5"/>
<text text-anchor="start" x="967.5" y="-353.5" font-family="Helvetica,sans-Serif" font-size="10.00">/github/workspace/src</text>
<text text-anchor="middle" x="1043" y="-342.5" font-family="Helvetica,sans-Serif" font-size="10.00">/renderer/vulkan/graphicspipeline.h</text>
</a>
</g>
</g>
<!-- Node31&#45;&gt;Node34 -->
<g id="edge45" class="edge">
<title>Node31&#45;&gt;Node34</title>
<path fill="none" stroke="midnightblue" d="M1223.09,-466.62C1196.2,-458.51 1165.72,-447.38 1140,-433 1106.79,-414.43 1074.16,-383.74 1056.5,-365.79"/>
<polygon fill="midnightblue" stroke="midnightblue" points="1222.23,-470.01 1232.81,-469.46 1224.2,-463.29 1222.23,-470.01"/>
</g>
<!-- Node36 -->
<g id="node36" class="node">
<title>Node36</title>
<g id="a_node36"><a xlink:href="renderpass_8h.html" target="_top" xlink:title=" ">
<polygon fill="none" stroke="black" points="791.5,-402.5 791.5,-432.5 936.5,-432.5 936.5,-402.5 791.5,-402.5"/>
<text text-anchor="start" x="799.5" y="-420.5" font-family="Helvetica,sans-Serif" font-size="10.00">/github/workspace/src</text>
<text text-anchor="middle" x="864" y="-409.5" font-family="Helvetica,sans-Serif" font-size="10.00">/renderer/vulkan/renderpass.h</text>
</a>
</g>
</g>
<!-- Node31&#45;&gt;Node36 -->
<g id="edge51" class="edge">
<title>Node31&#45;&gt;Node36</title>
<path fill="none" stroke="midnightblue" d="M1210.44,-471.11C1131.35,-459.1 1012.49,-441.05 936.59,-429.52"/>
<polygon fill="midnightblue" stroke="midnightblue" points="1209.95,-474.58 1220.36,-472.62 1211,-467.66 1209.95,-474.58"/>
</g>
<!-- Node38 -->
<g id="node38" class="node">
<title>Node38</title>
<g id="a_node38"><a xlink:href="swapchain_8cpp.html" target="_top" xlink:title=" ">
<polygon fill="none" stroke="black" points="1276,-402.5 1276,-432.5 1430,-432.5 1430,-402.5 1276,-402.5"/>
<text text-anchor="start" x="1284" y="-420.5" font-family="Helvetica,sans-Serif" font-size="10.00">/github/workspace/src</text>
<text text-anchor="middle" x="1353" y="-409.5" font-family="Helvetica,sans-Serif" font-size="10.00">/renderer/vulkan/swapchain.cpp</text>
</a>
</g>
</g>
<!-- Node31&#45;&gt;Node38 -->
<g id="edge57" class="edge">
<title>Node31&#45;&gt;Node38</title>
<path fill="none" stroke="midnightblue" d="M1312.15,-462.02C1321.24,-452.34 1331.72,-441.17 1339.79,-432.58"/>
<polygon fill="midnightblue" stroke="midnightblue" points="1309.53,-459.71 1305.24,-469.4 1314.63,-464.5 1309.53,-459.71"/>
</g>
<!-- Node32&#45;&gt;Node2 -->
<g id="edge41" class="edge">
<title>Node32&#45;&gt;Node2</title>
<path fill="none" stroke="midnightblue" d="M1248.38,-375.75C1238,-409.02 1214.66,-468.29 1173,-500 1136.21,-528 1086.19,-540.76 1044.08,-546.46"/>
<polygon fill="midnightblue" stroke="midnightblue" points="1251.8,-376.51 1251.3,-365.93 1245.09,-374.52 1251.8,-376.51"/>
</g>
<!-- Node32&#45;&gt;Node29 -->
<g id="edge44" class="edge">
<title>Node32&#45;&gt;Node29</title>
<path fill="none" stroke="midnightblue" d="M1171.86,-335.61C1170.56,-335.41 1169.28,-335.2 1168,-335 1081.08,-321.25 981.39,-306.42 913.12,-296.42"/>
<polygon fill="midnightblue" stroke="midnightblue" points="1171.48,-339.1 1181.91,-337.23 1172.6,-332.19 1171.48,-339.1"/>
</g>
<!-- Node32&#45;&gt;Node31 -->
<g id="edge43" class="edge">
<title>Node32&#45;&gt;Node31</title>
<path fill="none" stroke="midnightblue" d="M1264.15,-375.54C1267.09,-392.01 1270.12,-414.19 1276,-433 1280.03,-445.89 1286.98,-459.55 1291.12,-469.42"/>
<polygon fill="midnightblue" stroke="midnightblue" points="1267.56,-374.77 1262.19,-365.64 1260.7,-376.13 1267.56,-374.77"/>
</g>
<!-- Node33 -->
<g id="node33" class="node">
<title>Node33</title>
<g id="a_node33"><a xlink:href="framebuffer_8cpp.html" target="_top" xlink:title=" ">
<polygon fill="none" stroke="black" points="1177,-268.5 1177,-298.5 1333,-298.5 1333,-268.5 1177,-268.5"/>
<text text-anchor="start" x="1185" y="-286.5" font-family="Helvetica,sans-Serif" font-size="10.00">/github/workspace/src</text>
<text text-anchor="middle" x="1255" y="-275.5" font-family="Helvetica,sans-Serif" font-size="10.00">/renderer/vulkan/framebuffer.cpp</text>
</a>
</g>
</g>
<!-- Node32&#45;&gt;Node33 -->
<g id="edge42" class="edge">
<title>Node32&#45;&gt;Node33</title>
<path fill="none" stroke="midnightblue" d="M1255,-325.11C1255,-316.15 1255,-306.32 1255,-298.58"/>
<polygon fill="midnightblue" stroke="midnightblue" points="1251.5,-325.4 1255,-335.4 1258.5,-325.4 1251.5,-325.4"/>
</g>
<!-- Node34&#45;&gt;Node2 -->
<g id="edge48" class="edge">
<title>Node34&#45;&gt;Node2</title>
<path fill="none" stroke="midnightblue" d="M1028.59,-374.49C1014.66,-397.6 993.83,-434.62 981,-469 972.46,-491.87 966.95,-519.82 964.17,-536.34"/>
<polygon fill="midnightblue" stroke="midnightblue" points="1031.69,-376.13 1033.91,-365.78 1025.71,-372.48 1031.69,-376.13"/>
</g>
<!-- Node34&#45;&gt;Node9 -->
<g id="edge47" class="edge">
<title>Node34&#45;&gt;Node9</title>
<path fill="none" stroke="midnightblue" d="M949.24,-334.41C875.55,-322.45 779.07,-306.54 740,-299 737.01,-298.42 733.94,-297.81 730.84,-297.18"/>
<polygon fill="midnightblue" stroke="midnightblue" points="949.04,-337.92 959.47,-336.07 950.16,-331.02 949.04,-337.92"/>
</g>
<!-- Node34&#45;&gt;Node10 -->
<g id="edge46" class="edge">
<title>Node34&#45;&gt;Node10</title>
<path fill="none" stroke="midnightblue" d="M1004.73,-330.55C989.82,-322.11 973.18,-311.28 960,-299 890.84,-234.57 833.91,-134.29 814.31,-97.58"/>
<polygon fill="midnightblue" stroke="midnightblue" points="1003.29,-333.76 1013.74,-335.5 1006.66,-327.62 1003.29,-333.76"/>
</g>
<!-- Node34&#45;&gt;Node29 -->
<g id="edge50" class="edge">
<title>Node34&#45;&gt;Node29</title>
<path fill="none" stroke="midnightblue" d="M987.37,-332.44C953.01,-321.91 909.44,-308.55 877.02,-298.61"/>
<polygon fill="midnightblue" stroke="midnightblue" points="986.67,-335.89 997.26,-335.48 988.73,-329.2 986.67,-335.89"/>
</g>
<!-- Node35 -->
<g id="node35" class="node">
<title>Node35</title>
<g id="a_node35"><a xlink:href="graphicspipeline_8cpp.html" target="_top" xlink:title=" ">
<polygon fill="none" stroke="black" points="968.5,-268.5 968.5,-298.5 1145.5,-298.5 1145.5,-268.5 968.5,-268.5"/>
<text text-anchor="start" x="976.5" y="-286.5" font-family="Helvetica,sans-Serif" font-size="10.00">/github/workspace/src</text>
<text text-anchor="middle" x="1057" y="-275.5" font-family="Helvetica,sans-Serif" font-size="10.00">/renderer/vulkan/graphicspipeline.cpp</text>
</a>
</g>
</g>
<!-- Node34&#45;&gt;Node35 -->
<g id="edge49" class="edge">
<title>Node34&#45;&gt;Node35</title>
<path fill="none" stroke="midnightblue" d="M1048.19,-325.4C1050.14,-316.37 1052.28,-306.41 1053.97,-298.58"/>
<polygon fill="midnightblue" stroke="midnightblue" points="1044.72,-324.88 1046.04,-335.4 1051.56,-326.36 1044.72,-324.88"/>
</g>
<!-- Node36&#45;&gt;Node2 -->
<g id="edge52" class="edge">
<title>Node36&#45;&gt;Node2</title>
<path fill="none" stroke="midnightblue" d="M880.47,-440.69C900.72,-467.97 934.49,-513.45 951.51,-536.37"/>
<polygon fill="midnightblue" stroke="midnightblue" points="883.18,-438.47 874.41,-432.52 877.56,-442.64 883.18,-438.47"/>
</g>
<!-- Node36&#45;&gt;Node29 -->
<g id="edge56" class="edge">
<title>Node36&#45;&gt;Node29</title>
<path fill="none" stroke="midnightblue" d="M812.65,-397.66C798.97,-390.02 785.83,-379.68 778,-366 771.16,-354.04 772.57,-347.66 778,-335 784.41,-320.05 797.66,-307.42 809.3,-298.53"/>
<polygon fill="midnightblue" stroke="midnightblue" points="811.18,-400.84 821.67,-402.3 814.38,-394.61 811.18,-400.84"/>
</g>
<!-- Node36&#45;&gt;Node32 -->
<g id="edge53" class="edge">
<title>Node36&#45;&gt;Node32</title>
<path fill="none" stroke="midnightblue" d="M946.68,-402.75C1016.31,-391.18 1114.95,-374.78 1181.77,-363.67"/>
<polygon fill="midnightblue" stroke="midnightblue" points="945.92,-399.33 936.63,-404.43 947.07,-406.24 945.92,-399.33"/>
</g>
<!-- Node36&#45;&gt;Node34 -->
<g id="edge54" class="edge">
<title>Node36&#45;&gt;Node34</title>
<path fill="none" stroke="midnightblue" d="M912.32,-398.96C941.15,-388.48 977.28,-375.37 1004.24,-365.58"/>
<polygon fill="midnightblue" stroke="midnightblue" points="911.05,-395.69 902.84,-402.4 913.43,-402.27 911.05,-395.69"/>
</g>
<!-- Node37 -->
<g id="node37" class="node">
<title>Node37</title>
<g id="a_node37"><a xlink:href="renderpass_8cpp.html" target="_top" xlink:title=" ">
<polygon fill="none" stroke="black" points="786.5,-335.5 786.5,-365.5 941.5,-365.5 941.5,-335.5 786.5,-335.5"/>
<text text-anchor="start" x="794.5" y="-353.5" font-family="Helvetica,sans-Serif" font-size="10.00">/github/workspace/src</text>
<text text-anchor="middle" x="864" y="-342.5" font-family="Helvetica,sans-Serif" font-size="10.00">/renderer/vulkan/renderpass.cpp</text>
</a>
</g>
</g>
<!-- Node36&#45;&gt;Node37 -->
<g id="edge55" class="edge">
<title>Node36&#45;&gt;Node37</title>
<path fill="none" stroke="midnightblue" d="M864,-392.11C864,-383.15 864,-373.32 864,-365.58"/>
<polygon fill="midnightblue" stroke="midnightblue" points="860.5,-392.4 864,-402.4 867.5,-392.4 860.5,-392.4"/>
</g>
</g>
</svg>
