<?xml version="1.0" encoding="UTF-8" standalone="no"?>
<!DOCTYPE svg PUBLIC "-//W3C//DTD SVG 1.1//EN"
 "http://www.w3.org/Graphics/SVG/1.1/DTD/svg11.dtd">
<!-- Generated by graphviz version 2.49.3 (20211215.1918)
 -->
<!-- Title: /github/workspace/src/renderer/vulkan/semaphore.h Pages: 1 -->
<svg width="1684pt" height="575pt"
 viewBox="0.00 0.00 1683.50 575.00" xmlns="http://www.w3.org/2000/svg" xmlns:xlink="http://www.w3.org/1999/xlink">
<g id="graph0" class="graph" transform="scale(1 1) rotate(0) translate(4 571)">
<title>/github/workspace/src/renderer/vulkan/semaphore.h</title>
<!-- Node1 -->
<g id="node1" class="node">
<title>Node1</title>
<g id="a_node1"><a xlink:title=" ">
<polygon fill="#bfbfbf" stroke="black" points="1353.5,-536.5 1353.5,-566.5 1498.5,-566.5 1498.5,-536.5 1353.5,-536.5"/>
<text text-anchor="start" x="1361.5" y="-554.5" font-family="Helvetica,sans-Serif" font-size="10.00">/github/workspace/src</text>
<text text-anchor="middle" x="1426" y="-543.5" font-family="Helvetica,sans-Serif" font-size="10.00">/renderer/vulkan/semaphore.h</text>
</a>
</g>
</g>
<!-- Node2 -->
<g id="node2" class="node">
<title>Node2</title>
<g id="a_node2"><a xlink:href="commandbuffer_8h.html" target="_top" xlink:title=" ">
<polygon fill="none" stroke="black" points="856,-469.5 856,-499.5 1020,-499.5 1020,-469.5 856,-469.5"/>
<text text-anchor="start" x="864" y="-487.5" font-family="Helvetica,sans-Serif" font-size="10.00">/github/workspace/src</text>
<text text-anchor="middle" x="938" y="-476.5" font-family="Helvetica,sans-Serif" font-size="10.00">/renderer/vulkan/commandbuffer.h</text>
</a>
</g>
</g>
<!-- Node1&#45;&gt;Node2 -->
<g id="edge1" class="edge">
<title>Node1&#45;&gt;Node2</title>
<path fill="none" stroke="midnightblue" d="M1343.3,-539.49C1253.28,-527.49 1110.19,-508.44 1020.32,-496.46"/>
<polygon fill="midnightblue" stroke="midnightblue" points="1343.09,-542.99 1353.47,-540.84 1344.02,-536.05 1343.09,-542.99"/>
</g>
<!-- Node24 -->
<g id="node24" class="node">
<title>Node24</title>
<g id="a_node24"><a xlink:href="swapchain_8h.html" target="_top" xlink:title=" ">
<polygon fill="none" stroke="black" points="1158.5,-402.5 1158.5,-432.5 1301.5,-432.5 1301.5,-402.5 1158.5,-402.5"/>
<text text-anchor="start" x="1166.5" y="-420.5" font-family="Helvetica,sans-Serif" font-size="10.00">/github/workspace/src</text>
<text text-anchor="middle" x="1230" y="-409.5" font-family="Helvetica,sans-Serif" font-size="10.00">/renderer/vulkan/swapchain.h</text>
</a>
</g>
</g>
<!-- Node1&#45;&gt;Node24 -->
<g id="edge52" class="edge">
<title>Node1&#45;&gt;Node24</title>
<path fill="none" stroke="midnightblue" d="M1396.49,-530.62C1356.41,-503.64 1285.79,-456.08 1250.82,-432.52"/>
<polygon fill="midnightblue" stroke="midnightblue" points="1394.78,-533.69 1405.02,-536.37 1398.69,-527.88 1394.78,-533.69"/>
</g>
<!-- Node25 -->
<g id="node25" class="node">
<title>Node25</title>
<g id="a_node25"><a xlink:href="framebuffer_8h.html" target="_top" xlink:title=" ">
<polygon fill="none" stroke="black" points="1334,-268.5 1334,-298.5 1480,-298.5 1480,-268.5 1334,-268.5"/>
<text text-anchor="start" x="1342" y="-286.5" font-family="Helvetica,sans-Serif" font-size="10.00">/github/workspace/src</text>
<text text-anchor="middle" x="1407" y="-275.5" font-family="Helvetica,sans-Serif" font-size="10.00">/renderer/vulkan/framebuffer.h</text>
</a>
</g>
</g>
<!-- Node1&#45;&gt;Node25 -->
<g id="edge50" class="edge">
<title>Node1&#45;&gt;Node25</title>
<path fill="none" stroke="midnightblue" d="M1429.42,-526.29C1434.39,-486.09 1441.62,-403.25 1428,-335 1425.43,-322.15 1419.53,-308.48 1414.64,-298.61"/>
<polygon fill="midnightblue" stroke="midnightblue" points="1425.92,-526.08 1428.1,-536.45 1432.86,-526.98 1425.92,-526.08"/>
</g>
<!-- Node32 -->
<g id="node32" class="node">
<title>Node32</title>
<g id="a_node32"><a xlink:href="semaphore_8cpp.html" target="_top" xlink:title=" ">
<polygon fill="none" stroke="black" points="1520.5,-469.5 1520.5,-499.5 1675.5,-499.5 1675.5,-469.5 1520.5,-469.5"/>
<text text-anchor="start" x="1528.5" y="-487.5" font-family="Helvetica,sans-Serif" font-size="10.00">/github/workspace/src</text>
<text text-anchor="middle" x="1598" y="-476.5" font-family="Helvetica,sans-Serif" font-size="10.00">/renderer/vulkan/semaphore.cpp</text>
</a>
</g>
</g>
<!-- Node1&#45;&gt;Node32 -->
<g id="edge51" class="edge">
<title>Node1&#45;&gt;Node32</title>
<path fill="none" stroke="midnightblue" d="M1472.79,-532.82C1500.43,-522.37 1534.96,-509.32 1560.75,-499.58"/>
<polygon fill="midnightblue" stroke="midnightblue" points="1471.44,-529.59 1463.32,-536.4 1473.91,-536.13 1471.44,-529.59"/>
</g>
<!-- Node3 -->
<g id="node3" class="node">
<title>Node3</title>
<g id="a_node3"><a xlink:href="buffer_8h.html" target="_top" xlink:title=" ">
<polygon fill="none" stroke="black" points="351.5,-402.5 351.5,-432.5 472.5,-432.5 472.5,-402.5 351.5,-402.5"/>
<text text-anchor="start" x="359.5" y="-420.5" font-family="Helvetica,sans-Serif" font-size="10.00">/github/workspace/src</text>
<text text-anchor="middle" x="412" y="-409.5" font-family="Helvetica,sans-Serif" font-size="10.00">/renderer/vulkan/buffer.h</text>
</a>
</g>
</g>
<!-- Node2&#45;&gt;Node3 -->
<g id="edge2" class="edge">
<title>Node2&#45;&gt;Node3</title>
<path fill="none" stroke="midnightblue" d="M845.64,-472.09C738.31,-458.82 564.27,-437.32 472.72,-426"/>
<polygon fill="midnightblue" stroke="midnightblue" points="845.46,-475.59 855.81,-473.34 846.32,-468.64 845.46,-475.59"/>
</g>
<!-- Node22 -->
<g id="node22" class="node">
<title>Node22</title>
<g id="a_node22"><a xlink:href="vulkan__voxel__rasterizer_8cpp.html" target="_top" xlink:title=" ">
<polygon fill="none" stroke="black" points="951,-201.5 951,-231.5 1115,-231.5 1115,-201.5 951,-201.5"/>
<text text-anchor="start" x="959" y="-219.5" font-family="Helvetica,sans-Serif" font-size="10.00">/github/workspace/src</text>
<text text-anchor="middle" x="1033" y="-208.5" font-family="Helvetica,sans-Serif" font-size="10.00">/tests/vulkan_voxel_rasterizer.cpp</text>
</a>
</g>
</g>
<!-- Node2&#45;&gt;Node22 -->
<g id="edge49" class="edge">
<title>Node2&#45;&gt;Node22</title>
<path fill="none" stroke="midnightblue" d="M927.19,-460.05C909.49,-417.84 880.01,-327.91 919,-268 930.33,-250.58 949.2,-239.13 968.35,-231.61"/>
<polygon fill="midnightblue" stroke="midnightblue" points="924.09,-461.69 931.28,-469.47 930.51,-458.9 924.09,-461.69"/>
</g>
<!-- Node23 -->
<g id="node23" class="node">
<title>Node23</title>
<g id="a_node23"><a xlink:href="commandbuffer_8cpp.html" target="_top" xlink:title=" ">
<polygon fill="none" stroke="black" points="966,-402.5 966,-432.5 1140,-432.5 1140,-402.5 966,-402.5"/>
<text text-anchor="start" x="974" y="-420.5" font-family="Helvetica,sans-Serif" font-size="10.00">/github/workspace/src</text>
<text text-anchor="middle" x="1053" y="-409.5" font-family="Helvetica,sans-Serif" font-size="10.00">/renderer/vulkan/commandbuffer.cpp</text>
</a>
</g>
</g>
<!-- Node2&#45;&gt;Node23 -->
<g id="edge27" class="edge">
<title>Node2&#45;&gt;Node23</title>
<path fill="none" stroke="midnightblue" d="M971.98,-464.3C989.97,-454.12 1011.68,-441.85 1028.1,-432.58"/>
<polygon fill="midnightblue" stroke="midnightblue" points="969.94,-461.43 962.95,-469.4 973.38,-467.52 969.94,-461.43"/>
</g>
<!-- Node2&#45;&gt;Node24 -->
<g id="edge28" class="edge">
<title>Node2&#45;&gt;Node24</title>
<path fill="none" stroke="midnightblue" d="M1011.01,-467.25C1058.95,-456.58 1121.05,-442.75 1166.86,-432.55"/>
<polygon fill="midnightblue" stroke="midnightblue" points="1010,-463.89 1001,-469.48 1011.52,-470.72 1010,-463.89"/>
</g>
<!-- Node4 -->
<g id="node4" class="node">
<title>Node4</title>
<g id="a_node4"><a xlink:href="buffer_8cpp.html" target="_top" xlink:title=" ">
<polygon fill="none" stroke="black" points="109.5,-335.5 109.5,-365.5 240.5,-365.5 240.5,-335.5 109.5,-335.5"/>
<text text-anchor="start" x="117.5" y="-353.5" font-family="Helvetica,sans-Serif" font-size="10.00">/github/workspace/src</text>
<text text-anchor="middle" x="175" y="-342.5" font-family="Helvetica,sans-Serif" font-size="10.00">/renderer/vulkan/buffer.cpp</text>
</a>
</g>
</g>
<!-- Node3&#45;&gt;Node4 -->
<g id="edge3" class="edge">
<title>Node3&#45;&gt;Node4</title>
<path fill="none" stroke="midnightblue" d="M350.8,-399.71C312.23,-389.14 263,-375.63 226.45,-365.61"/>
<polygon fill="midnightblue" stroke="midnightblue" points="350.3,-403.21 360.87,-402.48 352.15,-396.46 350.3,-403.21"/>
</g>
<!-- Node5 -->
<g id="node5" class="node">
<title>Node5</title>
<g id="a_node5"><a xlink:href="bufferview_8h.html" target="_top" xlink:title=" ">
<polygon fill="none" stroke="black" points="258.5,-335.5 258.5,-365.5 399.5,-365.5 399.5,-335.5 258.5,-335.5"/>
<text text-anchor="start" x="266.5" y="-353.5" font-family="Helvetica,sans-Serif" font-size="10.00">/github/workspace/src</text>
<text text-anchor="middle" x="329" y="-342.5" font-family="Helvetica,sans-Serif" font-size="10.00">/renderer/vulkan/bufferview.h</text>
</a>
</g>
</g>
<!-- Node3&#45;&gt;Node5 -->
<g id="edge4" class="edge">
<title>Node3&#45;&gt;Node5</title>
<path fill="none" stroke="midnightblue" d="M386.04,-396.17C373.35,-386.23 358.39,-374.51 346.97,-365.58"/>
<polygon fill="midnightblue" stroke="midnightblue" points="383.96,-398.99 393.99,-402.4 388.28,-393.47 383.96,-398.99"/>
</g>
<!-- Node7 -->
<g id="node7" class="node">
<title>Node7</title>
<g id="a_node7"><a xlink:href="uniformbuffer_8h.html" target="_top" xlink:title=" ">
<polygon fill="none" stroke="black" points="417.5,-335.5 417.5,-365.5 570.5,-365.5 570.5,-335.5 417.5,-335.5"/>
<text text-anchor="start" x="425.5" y="-353.5" font-family="Helvetica,sans-Serif" font-size="10.00">/github/workspace/src</text>
<text text-anchor="middle" x="494" y="-342.5" font-family="Helvetica,sans-Serif" font-size="10.00">/renderer/vulkan/uniformbuffer.h</text>
</a>
</g>
</g>
<!-- Node3&#45;&gt;Node7 -->
<g id="edge6" class="edge">
<title>Node3&#45;&gt;Node7</title>
<path fill="none" stroke="midnightblue" d="M437.65,-396.17C450.19,-386.23 464.97,-374.51 476.24,-365.58"/>
<polygon fill="midnightblue" stroke="midnightblue" points="435.46,-393.44 429.79,-402.4 439.8,-398.93 435.46,-393.44"/>
</g>
<!-- Node6 -->
<g id="node6" class="node">
<title>Node6</title>
<g id="a_node6"><a xlink:href="bufferview_8cpp.html" target="_top" xlink:title=" ">
<polygon fill="none" stroke="black" points="0,-268.5 0,-298.5 152,-298.5 152,-268.5 0,-268.5"/>
<text text-anchor="start" x="8" y="-286.5" font-family="Helvetica,sans-Serif" font-size="10.00">/github/workspace/src</text>
<text text-anchor="middle" x="76" y="-275.5" font-family="Helvetica,sans-Serif" font-size="10.00">/renderer/vulkan/bufferview.cpp</text>
</a>
</g>
</g>
<!-- Node5&#45;&gt;Node6 -->
<g id="edge5" class="edge">
<title>Node5&#45;&gt;Node6</title>
<path fill="none" stroke="midnightblue" d="M264.72,-332.98C223.39,-322.37 170.27,-308.72 130.92,-298.61"/>
<polygon fill="midnightblue" stroke="midnightblue" points="263.86,-336.38 274.41,-335.48 265.6,-329.6 263.86,-336.38"/>
</g>
<!-- Node8 -->
<g id="node8" class="node">
<title>Node8</title>
<g id="a_node8"><a xlink:href="materiallibrary_8h.html" target="_top" xlink:title=" ">
<polygon fill="none" stroke="black" points="170.5,-268.5 170.5,-298.5 295.5,-298.5 295.5,-268.5 170.5,-268.5"/>
<text text-anchor="start" x="178.5" y="-286.5" font-family="Helvetica,sans-Serif" font-size="10.00">/github/workspace/src</text>
<text text-anchor="middle" x="233" y="-275.5" font-family="Helvetica,sans-Serif" font-size="10.00">/renderer/materiallibrary.h</text>
</a>
</g>
</g>
<!-- Node7&#45;&gt;Node8 -->
<g id="edge7" class="edge">
<title>Node7&#45;&gt;Node8</title>
<path fill="none" stroke="midnightblue" d="M427.95,-333.05C385.28,-322.43 330.34,-308.74 289.66,-298.61"/>
<polygon fill="midnightblue" stroke="midnightblue" points="427.14,-336.46 437.69,-335.48 428.83,-329.66 427.14,-336.46"/>
</g>
<!-- Node19 -->
<g id="node19" class="node">
<title>Node19</title>
<g id="a_node19"><a xlink:href="descriptorset_8h.html" target="_top" xlink:title=" ">
<polygon fill="none" stroke="black" points="496.5,-268.5 496.5,-298.5 649.5,-298.5 649.5,-268.5 496.5,-268.5"/>
<text text-anchor="start" x="504.5" y="-286.5" font-family="Helvetica,sans-Serif" font-size="10.00">/github/workspace/src</text>
<text text-anchor="middle" x="573" y="-275.5" font-family="Helvetica,sans-Serif" font-size="10.00">/renderer/vulkan/descriptorset.h</text>
</a>
</g>
</g>
<!-- Node7&#45;&gt;Node19 -->
<g id="edge22" class="edge">
<title>Node7&#45;&gt;Node19</title>
<path fill="none" stroke="midnightblue" d="M519.06,-328.88C531.06,-319.01 545.13,-307.43 555.89,-298.58"/>
<polygon fill="midnightblue" stroke="midnightblue" points="516.64,-326.34 511.14,-335.4 521.09,-331.75 516.64,-326.34"/>
</g>
<!-- Node21 -->
<g id="node21" class="node">
<title>Node21</title>
<g id="a_node21"><a xlink:href="uniformbuffer_8cpp.html" target="_top" xlink:title=" ">
<polygon fill="none" stroke="black" points="314,-268.5 314,-298.5 478,-298.5 478,-268.5 314,-268.5"/>
<text text-anchor="start" x="322" y="-286.5" font-family="Helvetica,sans-Serif" font-size="10.00">/github/workspace/src</text>
<text text-anchor="middle" x="396" y="-275.5" font-family="Helvetica,sans-Serif" font-size="10.00">/renderer/vulkan/uniformbuffer.cpp</text>
</a>
</g>
</g>
<!-- Node7&#45;&gt;Node21 -->
<g id="edge25" class="edge">
<title>Node7&#45;&gt;Node21</title>
<path fill="none" stroke="midnightblue" d="M464.2,-329.73C449.03,-319.68 430.96,-307.68 417.22,-298.58"/>
<polygon fill="midnightblue" stroke="midnightblue" points="462.47,-332.79 472.74,-335.4 466.34,-326.95 462.47,-332.79"/>
</g>
<!-- Node7&#45;&gt;Node22 -->
<g id="edge26" class="edge">
<title>Node7&#45;&gt;Node22</title>
<path fill="none" stroke="midnightblue" d="M580.59,-348.38C653.08,-344.8 758.03,-333.35 843,-299 864.84,-290.17 865.08,-278.83 886,-268 915.83,-252.55 951.42,-240.19 980.1,-231.56"/>
<polygon fill="midnightblue" stroke="midnightblue" points="580.41,-344.88 570.58,-348.83 580.73,-351.87 580.41,-344.88"/>
</g>
<!-- Node9 -->
<g id="node9" class="node">
<title>Node9</title>
<g id="a_node9"><a xlink:href="material_8h.html" target="_top" xlink:title=" ">
<polygon fill="none" stroke="black" points="359.5,-201.5 359.5,-231.5 472.5,-231.5 472.5,-201.5 359.5,-201.5"/>
<text text-anchor="start" x="367.5" y="-219.5" font-family="Helvetica,sans-Serif" font-size="10.00">/github/workspace/src</text>
<text text-anchor="middle" x="416" y="-208.5" font-family="Helvetica,sans-Serif" font-size="10.00">/renderer/material.h</text>
</a>
</g>
</g>
<!-- Node8&#45;&gt;Node9 -->
<g id="edge8" class="edge">
<title>Node8&#45;&gt;Node9</title>
<path fill="none" stroke="midnightblue" d="M276.7,-264.82C305.1,-254.37 341.97,-241.32 370.69,-231.58"/>
<polygon fill="midnightblue" stroke="midnightblue" points="275.19,-261.64 267.03,-268.4 277.62,-268.21 275.19,-261.64"/>
</g>
<!-- Node18 -->
<g id="node18" class="node">
<title>Node18</title>
<g id="a_node18"><a xlink:href="materiallibrary_8cpp.html" target="_top" xlink:title=" ">
<polygon fill="none" stroke="black" points="205,-201.5 205,-231.5 341,-231.5 341,-201.5 205,-201.5"/>
<text text-anchor="start" x="213" y="-219.5" font-family="Helvetica,sans-Serif" font-size="10.00">/github/workspace/src</text>
<text text-anchor="middle" x="273" y="-208.5" font-family="Helvetica,sans-Serif" font-size="10.00">/renderer/materiallibrary.cpp</text>
</a>
</g>
</g>
<!-- Node8&#45;&gt;Node18 -->
<g id="edge21" class="edge">
<title>Node8&#45;&gt;Node18</title>
<path fill="none" stroke="midnightblue" d="M246.93,-259.87C252.72,-250.46 259.26,-239.83 264.34,-231.58"/>
<polygon fill="midnightblue" stroke="midnightblue" points="243.94,-258.05 241.68,-268.4 249.9,-261.71 243.94,-258.05"/>
</g>
<!-- Node9&#45;&gt;Node8 -->
<g id="edge17" class="edge">
<title>Node9&#45;&gt;Node8</title>
<path fill="none" stroke="midnightblue" d="M372.38,-235.15C343.99,-245.59 307.12,-258.64 278.39,-268.4"/>
<polygon fill="midnightblue" stroke="midnightblue" points="373.88,-238.33 382.04,-231.58 371.45,-231.77 373.88,-238.33"/>
</g>
<!-- Node10 -->
<g id="node10" class="node">
<title>Node10</title>
<g id="a_node10"><a xlink:href="mastermaterial_8h.html" target="_top" xlink:title=" ">
<polygon fill="none" stroke="black" points="281,-134.5 281,-164.5 411,-164.5 411,-134.5 281,-134.5"/>
<text text-anchor="start" x="289" y="-152.5" font-family="Helvetica,sans-Serif" font-size="10.00">/github/workspace/src</text>
<text text-anchor="middle" x="346" y="-141.5" font-family="Helvetica,sans-Serif" font-size="10.00">/renderer/mastermaterial.h</text>
</a>
</g>
</g>
<!-- Node9&#45;&gt;Node10 -->
<g id="edge9" class="edge">
<title>Node9&#45;&gt;Node10</title>
<path fill="none" stroke="midnightblue" d="M393.18,-194.31C382.68,-184.56 370.51,-173.26 361.16,-164.58"/>
<polygon fill="midnightblue" stroke="midnightblue" points="391.1,-197.16 400.81,-201.4 395.86,-192.03 391.1,-197.16"/>
</g>
<!-- Node15 -->
<g id="node15" class="node">
<title>Node15</title>
<g id="a_node15"><a xlink:href="material_8cpp.html" target="_top" xlink:title=" ">
<polygon fill="none" stroke="black" points="429.5,-134.5 429.5,-164.5 542.5,-164.5 542.5,-134.5 429.5,-134.5"/>
<text text-anchor="start" x="437.5" y="-152.5" font-family="Helvetica,sans-Serif" font-size="10.00">/github/workspace/src</text>
<text text-anchor="middle" x="486" y="-141.5" font-family="Helvetica,sans-Serif" font-size="10.00">/renderer/material.cpp</text>
</a>
</g>
</g>
<!-- Node9&#45;&gt;Node15 -->
<g id="edge16" class="edge">
<title>Node9&#45;&gt;Node15</title>
<path fill="none" stroke="midnightblue" d="M438.82,-194.31C449.32,-184.56 461.49,-173.26 470.84,-164.58"/>
<polygon fill="midnightblue" stroke="midnightblue" points="436.14,-192.03 431.19,-201.4 440.9,-197.16 436.14,-192.03"/>
</g>
<!-- Node16 -->
<g id="node16" class="node">
<title>Node16</title>
<g id="a_node16"><a xlink:href="mesh_8h.html" target="_top" xlink:title=" ">
<polygon fill="none" stroke="black" points="560.5,-134.5 560.5,-164.5 673.5,-164.5 673.5,-134.5 560.5,-134.5"/>
<text text-anchor="start" x="568.5" y="-152.5" font-family="Helvetica,sans-Serif" font-size="10.00">/github/workspace/src</text>
<text text-anchor="middle" x="617" y="-141.5" font-family="Helvetica,sans-Serif" font-size="10.00">/renderer/mesh.h</text>
</a>
</g>
</g>
<!-- Node9&#45;&gt;Node16 -->
<g id="edge18" class="edge">
<title>Node9&#45;&gt;Node16</title>
<path fill="none" stroke="midnightblue" d="M469.41,-198.23C501.93,-187.71 542.94,-174.45 573.47,-164.58"/>
<polygon fill="midnightblue" stroke="midnightblue" points="468.05,-194.99 459.61,-201.4 470.21,-201.65 468.05,-194.99"/>
</g>
<!-- Node10&#45;&gt;Node8 -->
<g id="edge11" class="edge">
<title>Node10&#45;&gt;Node8</title>
<path fill="none" stroke="midnightblue" d="M270.76,-157.49C242.6,-164.2 213.28,-176.95 196,-201 180.59,-222.45 201.96,-251.35 218.06,-268.35"/>
<polygon fill="midnightblue" stroke="midnightblue" points="271.61,-160.89 280.65,-155.37 270.14,-154.05 271.61,-160.89"/>
</g>
<!-- Node11 -->
<g id="node11" class="node">
<title>Node11</title>
<g id="a_node11"><a xlink:href="mastermaterial_8cpp.html" target="_top" xlink:title=" ">
<polygon fill="none" stroke="black" points="325,-67.5 325,-97.5 465,-97.5 465,-67.5 325,-67.5"/>
<text text-anchor="start" x="333" y="-85.5" font-family="Helvetica,sans-Serif" font-size="10.00">/github/workspace/src</text>
<text text-anchor="middle" x="395" y="-74.5" font-family="Helvetica,sans-Serif" font-size="10.00">/renderer/mastermaterial.cpp</text>
</a>
</g>
</g>
<!-- Node10&#45;&gt;Node11 -->
<g id="edge10" class="edge">
<title>Node10&#45;&gt;Node11</title>
<path fill="none" stroke="midnightblue" d="M362.84,-126.16C369.99,-116.68 378.1,-105.92 384.39,-97.58"/>
<polygon fill="midnightblue" stroke="midnightblue" points="359.86,-124.3 356.63,-134.4 365.45,-128.52 359.86,-124.3"/>
</g>
<!-- Node12 -->
<g id="node12" class="node">
<title>Node12</title>
<g id="a_node12"><a xlink:href="modelloader_8h.html" target="_top" xlink:title=" ">
<polygon fill="none" stroke="black" points="483,-67.5 483,-97.5 601,-97.5 601,-67.5 483,-67.5"/>
<text text-anchor="start" x="491" y="-85.5" font-family="Helvetica,sans-Serif" font-size="10.00">/github/workspace/src</text>
<text text-anchor="middle" x="542" y="-74.5" font-family="Helvetica,sans-Serif" font-size="10.00">/renderer/modelloader.h</text>
</a>
</g>
</g>
<!-- Node10&#45;&gt;Node12 -->
<g id="edge12" class="edge">
<title>Node10&#45;&gt;Node12</title>
<path fill="none" stroke="midnightblue" d="M398.08,-131.23C429.79,-120.71 469.78,-107.45 499.55,-97.58"/>
<polygon fill="midnightblue" stroke="midnightblue" points="396.92,-127.93 388.53,-134.4 399.12,-134.57 396.92,-127.93"/>
</g>
<!-- Node14 -->
<g id="node14" class="node">
<title>Node14</title>
<g id="a_node14"><a xlink:href="vulkan__voxel__rasterizer__2_8cpp.html" target="_top" xlink:title=" ">
<polygon fill="none" stroke="black" points="370,-0.5 370,-30.5 544,-30.5 544,-0.5 370,-0.5"/>
<text text-anchor="start" x="378" y="-18.5" font-family="Helvetica,sans-Serif" font-size="10.00">/github/workspace/src</text>
<text text-anchor="middle" x="457" y="-7.5" font-family="Helvetica,sans-Serif" font-size="10.00">/tests/vulkan_voxel_rasterizer_2.cpp</text>
</a>
</g>
</g>
<!-- Node10&#45;&gt;Node14 -->
<g id="edge15" class="edge">
<title>Node10&#45;&gt;Node14</title>
<path fill="none" stroke="midnightblue" d="M327.03,-126.12C314.81,-108.85 303.36,-84.95 316,-67 328.8,-48.82 348.78,-37.15 369.71,-29.67"/>
<polygon fill="midnightblue" stroke="midnightblue" points="324.54,-128.63 333.37,-134.48 330.11,-124.4 324.54,-128.63"/>
</g>
<!-- Node13 -->
<g id="node13" class="node">
<title>Node13</title>
<g id="a_node13"><a xlink:href="modelloader_8cpp.html" target="_top" xlink:title=" ">
<polygon fill="none" stroke="black" points="562,-0.5 562,-30.5 690,-30.5 690,-0.5 562,-0.5"/>
<text text-anchor="start" x="570" y="-18.5" font-family="Helvetica,sans-Serif" font-size="10.00">/github/workspace/src</text>
<text text-anchor="middle" x="626" y="-7.5" font-family="Helvetica,sans-Serif" font-size="10.00">/renderer/modelloader.cpp</text>
</a>
</g>
</g>
<!-- Node12&#45;&gt;Node13 -->
<g id="edge13" class="edge">
<title>Node12&#45;&gt;Node13</title>
<path fill="none" stroke="midnightblue" d="M568.28,-61.17C581.12,-51.23 596.26,-39.51 607.81,-30.58"/>
<polygon fill="midnightblue" stroke="midnightblue" points="565.99,-58.51 560.23,-67.4 570.28,-64.04 565.99,-58.51"/>
</g>
<!-- Node12&#45;&gt;Node14 -->
<g id="edge14" class="edge">
<title>Node12&#45;&gt;Node14</title>
<path fill="none" stroke="midnightblue" d="M515.41,-61.17C502.41,-51.23 487.1,-39.51 475.41,-30.58"/>
<polygon fill="midnightblue" stroke="midnightblue" points="513.49,-64.1 523.56,-67.4 517.74,-58.54 513.49,-64.1"/>
</g>
<!-- Node16&#45;&gt;Node12 -->
<g id="edge20" class="edge">
<title>Node16&#45;&gt;Node12</title>
<path fill="none" stroke="midnightblue" d="M592.88,-127.6C581.56,-117.78 568.36,-106.34 558.24,-97.58"/>
<polygon fill="midnightblue" stroke="midnightblue" points="590.88,-130.49 600.73,-134.4 595.46,-125.2 590.88,-130.49"/>
</g>
<!-- Node17 -->
<g id="node17" class="node">
<title>Node17</title>
<g id="a_node17"><a xlink:href="mesh_8cpp.html" target="_top" xlink:title=" ">
<polygon fill="none" stroke="black" points="619.5,-67.5 619.5,-97.5 732.5,-97.5 732.5,-67.5 619.5,-67.5"/>
<text text-anchor="start" x="627.5" y="-85.5" font-family="Helvetica,sans-Serif" font-size="10.00">/github/workspace/src</text>
<text text-anchor="middle" x="676" y="-74.5" font-family="Helvetica,sans-Serif" font-size="10.00">/renderer/mesh.cpp</text>
</a>
</g>
</g>
<!-- Node16&#45;&gt;Node17 -->
<g id="edge19" class="edge">
<title>Node16&#45;&gt;Node17</title>
<path fill="none" stroke="midnightblue" d="M636.75,-126.74C645.48,-117.12 655.5,-106.09 663.22,-97.58"/>
<polygon fill="midnightblue" stroke="midnightblue" points="633.93,-124.64 629.8,-134.4 639.11,-129.34 633.93,-124.64"/>
</g>
<!-- Node19&#45;&gt;Node2 -->
<g id="edge23" class="edge">
<title>Node19&#45;&gt;Node2</title>
<path fill="none" stroke="midnightblue" d="M607.89,-303.52C680.76,-343.25 847.69,-434.26 912.04,-469.35"/>
<polygon fill="midnightblue" stroke="midnightblue" points="609.52,-300.43 599.07,-298.71 606.17,-306.57 609.52,-300.43"/>
</g>
<!-- Node20 -->
<g id="node20" class="node">
<title>Node20</title>
<g id="a_node20"><a xlink:href="descriptorset_8cpp.html" target="_top" xlink:title=" ">
<polygon fill="none" stroke="black" points="491,-201.5 491,-231.5 655,-231.5 655,-201.5 491,-201.5"/>
<text text-anchor="start" x="499" y="-219.5" font-family="Helvetica,sans-Serif" font-size="10.00">/github/workspace/src</text>
<text text-anchor="middle" x="573" y="-208.5" font-family="Helvetica,sans-Serif" font-size="10.00">/renderer/vulkan/descriptorset.cpp</text>
</a>
</g>
</g>
<!-- Node19&#45;&gt;Node20 -->
<g id="edge24" class="edge">
<title>Node19&#45;&gt;Node20</title>
<path fill="none" stroke="midnightblue" d="M573,-258.11C573,-249.15 573,-239.32 573,-231.58"/>
<polygon fill="midnightblue" stroke="midnightblue" points="569.5,-258.4 573,-268.4 576.5,-258.4 569.5,-258.4"/>
</g>
<!-- Node24&#45;&gt;Node14 -->
<g id="edge48" class="edge">
<title>Node24&#45;&gt;Node14</title>
<path fill="none" stroke="midnightblue" d="M1217.84,-393.33C1205.43,-367.51 1188,-324.16 1188,-284.5 1188,-284.5 1188,-284.5 1188,-148.5 1188,-132.31 737.92,-60.25 544.09,-29.97"/>
<polygon fill="midnightblue" stroke="midnightblue" points="1214.72,-394.92 1222.3,-402.32 1220.99,-391.81 1214.72,-394.92"/>
</g>
<!-- Node24&#45;&gt;Node22 -->
<g id="edge47" class="edge">
<title>Node24&#45;&gt;Node22</title>
<path fill="none" stroke="midnightblue" d="M1204.33,-395.76C1194.33,-387.08 1183.1,-376.56 1174,-366 1139.88,-326.41 1145.94,-304.97 1109,-268 1094.44,-253.43 1075.07,-240.64 1059.53,-231.57"/>
<polygon fill="midnightblue" stroke="midnightblue" points="1202.14,-398.49 1212.03,-402.29 1206.67,-393.15 1202.14,-398.49"/>
</g>
<!-- Node24&#45;&gt;Node25 -->
<g id="edge29" class="edge">
<title>Node24&#45;&gt;Node25</title>
<path fill="none" stroke="midnightblue" d="M1311.28,-400.47C1332.5,-393 1353.89,-382.05 1370,-366 1388.45,-347.63 1394.75,-316.58 1399.73,-298.57"/>
<polygon fill="midnightblue" stroke="midnightblue" points="1309.96,-397.21 1301.56,-403.66 1312.15,-403.86 1309.96,-397.21"/>
</g>
<!-- Node27 -->
<g id="node27" class="node">
<title>Node27</title>
<g id="a_node27"><a xlink:href="graphicspipeline_8h.html" target="_top" xlink:title=" ">
<polygon fill="none" stroke="black" points="667.5,-268.5 667.5,-298.5 834.5,-298.5 834.5,-268.5 667.5,-268.5"/>
<text text-anchor="start" x="675.5" y="-286.5" font-family="Helvetica,sans-Serif" font-size="10.00">/github/workspace/src</text>
<text text-anchor="middle" x="751" y="-275.5" font-family="Helvetica,sans-Serif" font-size="10.00">/renderer/vulkan/graphicspipeline.h</text>
</a>
</g>
</g>
<!-- Node24&#45;&gt;Node27 -->
<g id="edge34" class="edge">
<title>Node24&#45;&gt;Node27</title>
<path fill="none" stroke="midnightblue" d="M1148.44,-401.94C1056.57,-386.27 1030.3,-391.1 945,-366 883.84,-348 815.92,-316.67 778.87,-298.55"/>
<polygon fill="midnightblue" stroke="midnightblue" points="1148,-405.41 1158.45,-403.68 1149.2,-398.52 1148,-405.41"/>
</g>
<!-- Node29 -->
<g id="node29" class="node">
<title>Node29</title>
<g id="a_node29"><a xlink:href="renderpass_8h.html" target="_top" xlink:title=" ">
<polygon fill="none" stroke="black" points="954.5,-335.5 954.5,-365.5 1099.5,-365.5 1099.5,-335.5 954.5,-335.5"/>
<text text-anchor="start" x="962.5" y="-353.5" font-family="Helvetica,sans-Serif" font-size="10.00">/github/workspace/src</text>
<text text-anchor="middle" x="1027" y="-342.5" font-family="Helvetica,sans-Serif" font-size="10.00">/renderer/vulkan/renderpass.h</text>
</a>
</g>
</g>
<!-- Node24&#45;&gt;Node29 -->
<g id="edge40" class="edge">
<title>Node24&#45;&gt;Node29</title>
<path fill="none" stroke="midnightblue" d="M1176.06,-399.23C1143.22,-388.71 1101.8,-375.45 1070.96,-365.58"/>
<polygon fill="midnightblue" stroke="midnightblue" points="1175.36,-402.68 1185.95,-402.4 1177.5,-396.01 1175.36,-402.68"/>
</g>
<!-- Node31 -->
<g id="node31" class="node">
<title>Node31</title>
<g id="a_node31"><a xlink:href="swapchain_8cpp.html" target="_top" xlink:title=" ">
<polygon fill="none" stroke="black" points="1216,-335.5 1216,-365.5 1370,-365.5 1370,-335.5 1216,-335.5"/>
<text text-anchor="start" x="1224" y="-353.5" font-family="Helvetica,sans-Serif" font-size="10.00">/github/workspace/src</text>
<text text-anchor="middle" x="1293" y="-342.5" font-family="Helvetica,sans-Serif" font-size="10.00">/renderer/vulkan/swapchain.cpp</text>
</a>
</g>
</g>
<!-- Node24&#45;&gt;Node31 -->
<g id="edge46" class="edge">
<title>Node24&#45;&gt;Node31</title>
<path fill="none" stroke="midnightblue" d="M1250.81,-395.02C1260.2,-385.34 1271.02,-374.17 1279.36,-365.58"/>
<polygon fill="midnightblue" stroke="midnightblue" points="1248.12,-392.78 1243.67,-402.4 1253.14,-397.65 1248.12,-392.78"/>
</g>
<!-- Node25&#45;&gt;Node2 -->
<g id="edge30" class="edge">
<title>Node25&#45;&gt;Node2</title>
<path fill="none" stroke="midnightblue" d="M1414.41,-308.47C1418.24,-325.52 1420.39,-348.41 1411,-366 1385.81,-413.2 1361.02,-414.03 1311,-433 1215.53,-469.2 1097.65,-480.02 1020.28,-482.96"/>
<polygon fill="midnightblue" stroke="midnightblue" points="1417.78,-307.53 1411.89,-298.72 1411,-309.28 1417.78,-307.53"/>
</g>
<!-- Node25&#45;&gt;Node22 -->
<g id="edge33" class="edge">
<title>Node25&#45;&gt;Node22</title>
<path fill="none" stroke="midnightblue" d="M1323.32,-267.96C1260.72,-257.08 1175.61,-242.28 1113.73,-231.53"/>
<polygon fill="midnightblue" stroke="midnightblue" points="1323.1,-271.47 1333.56,-269.74 1324.3,-264.57 1323.1,-271.47"/>
</g>
<!-- Node25&#45;&gt;Node24 -->
<g id="edge32" class="edge">
<title>Node25&#45;&gt;Node24</title>
<path fill="none" stroke="midnightblue" d="M1411.8,-308.63C1410.29,-326.65 1403.35,-350.72 1388,-366 1365.26,-388.65 1332,-401.14 1301.81,-408.04"/>
<polygon fill="midnightblue" stroke="midnightblue" points="1415.3,-308.67 1412.07,-298.57 1408.3,-308.48 1415.3,-308.67"/>
</g>
<!-- Node26 -->
<g id="node26" class="node">
<title>Node26</title>
<g id="a_node26"><a xlink:href="framebuffer_8cpp.html" target="_top" xlink:title=" ">
<polygon fill="none" stroke="black" points="1329,-201.5 1329,-231.5 1485,-231.5 1485,-201.5 1329,-201.5"/>
<text text-anchor="start" x="1337" y="-219.5" font-family="Helvetica,sans-Serif" font-size="10.00">/github/workspace/src</text>
<text text-anchor="middle" x="1407" y="-208.5" font-family="Helvetica,sans-Serif" font-size="10.00">/renderer/vulkan/framebuffer.cpp</text>
</a>
</g>
</g>
<!-- Node25&#45;&gt;Node26 -->
<g id="edge31" class="edge">
<title>Node25&#45;&gt;Node26</title>
<path fill="none" stroke="midnightblue" d="M1407,-258.11C1407,-249.15 1407,-239.32 1407,-231.58"/>
<polygon fill="midnightblue" stroke="midnightblue" points="1403.5,-258.4 1407,-268.4 1410.5,-258.4 1403.5,-258.4"/>
</g>
<!-- Node27&#45;&gt;Node2 -->
<g id="edge37" class="edge">
<title>Node27&#45;&gt;Node2</title>
<path fill="none" stroke="midnightblue" d="M770.04,-306.28C795.81,-335.57 843.48,-389.06 886,-433 898.08,-445.48 912.24,-459.18 922.74,-469.16"/>
<polygon fill="midnightblue" stroke="midnightblue" points="772.6,-303.89 763.37,-298.69 767.34,-308.51 772.6,-303.89"/>
</g>
<!-- Node27&#45;&gt;Node9 -->
<g id="edge36" class="edge">
<title>Node27&#45;&gt;Node9</title>
<path fill="none" stroke="midnightblue" d="M662.92,-266.67C610.33,-257.04 542.25,-244.27 482,-232 478.9,-231.37 475.71,-230.71 472.5,-230.03"/>
<polygon fill="midnightblue" stroke="midnightblue" points="662.43,-270.14 672.89,-268.49 663.68,-263.25 662.43,-270.14"/>
</g>
<!-- Node27&#45;&gt;Node10 -->
<g id="edge35" class="edge">
<title>Node27&#45;&gt;Node10</title>
<path fill="none" stroke="midnightblue" d="M729.63,-261.2C706.48,-238.34 671.79,-204.76 664,-201 565.28,-153.36 528.04,-183.54 420,-165 417.16,-164.51 414.26,-164 411.34,-163.48"/>
<polygon fill="midnightblue" stroke="midnightblue" points="727.42,-263.94 736.99,-268.49 732.35,-258.97 727.42,-263.94"/>
</g>
<!-- Node27&#45;&gt;Node22 -->
<g id="edge39" class="edge">
<title>Node27&#45;&gt;Node22</title>
<path fill="none" stroke="midnightblue" d="M821.78,-266.19C867.96,-255.54 927.64,-241.78 971.78,-231.61"/>
<polygon fill="midnightblue" stroke="midnightblue" points="820.8,-262.82 811.84,-268.48 822.37,-269.64 820.8,-262.82"/>
</g>
<!-- Node28 -->
<g id="node28" class="node">
<title>Node28</title>
<g id="a_node28"><a xlink:href="graphicspipeline_8cpp.html" target="_top" xlink:title=" ">
<polygon fill="none" stroke="black" points="710.5,-201.5 710.5,-231.5 887.5,-231.5 887.5,-201.5 710.5,-201.5"/>
<text text-anchor="start" x="718.5" y="-219.5" font-family="Helvetica,sans-Serif" font-size="10.00">/github/workspace/src</text>
<text text-anchor="middle" x="799" y="-208.5" font-family="Helvetica,sans-Serif" font-size="10.00">/renderer/vulkan/graphicspipeline.cpp</text>
</a>
</g>
</g>
<!-- Node27&#45;&gt;Node28 -->
<g id="edge38" class="edge">
<title>Node27&#45;&gt;Node28</title>
<path fill="none" stroke="midnightblue" d="M767.5,-260.16C774.5,-250.68 782.44,-239.92 788.61,-231.58"/>
<polygon fill="midnightblue" stroke="midnightblue" points="764.54,-258.27 761.42,-268.4 770.17,-262.43 764.54,-258.27"/>
</g>
<!-- Node29&#45;&gt;Node2 -->
<g id="edge41" class="edge">
<title>Node29&#45;&gt;Node2</title>
<path fill="none" stroke="midnightblue" d="M989.87,-371.06C977.75,-379.14 965.29,-389.55 957,-402 943.23,-422.68 939.38,-452.1 938.34,-469.35"/>
<polygon fill="midnightblue" stroke="midnightblue" points="991.97,-373.88 998.57,-365.6 988.24,-367.95 991.97,-373.88"/>
</g>
<!-- Node29&#45;&gt;Node22 -->
<g id="edge45" class="edge">
<title>Node29&#45;&gt;Node22</title>
<path fill="none" stroke="midnightblue" d="M1064.5,-329.83C1075.78,-321.88 1086.79,-311.58 1093,-299 1099.1,-286.65 1098.81,-280.49 1093,-268 1085.82,-252.57 1071.35,-240.17 1058.41,-231.52"/>
<polygon fill="midnightblue" stroke="midnightblue" points="1062.37,-327.05 1055.91,-335.45 1066.2,-332.91 1062.37,-327.05"/>
</g>
<!-- Node29&#45;&gt;Node25 -->
<g id="edge42" class="edge">
<title>Node29&#45;&gt;Node25</title>
<path fill="none" stroke="midnightblue" d="M1109.89,-335.32C1176.68,-323.9 1269.71,-307.98 1333.78,-297.02"/>
<polygon fill="midnightblue" stroke="midnightblue" points="1109.08,-331.91 1099.82,-337.04 1110.27,-338.81 1109.08,-331.91"/>
</g>
<!-- Node29&#45;&gt;Node27 -->
<g id="edge43" class="edge">
<title>Node29&#45;&gt;Node27</title>
<path fill="none" stroke="midnightblue" d="M957.44,-333.12C912.28,-322.48 854.02,-308.76 810.92,-298.61"/>
<polygon fill="midnightblue" stroke="midnightblue" points="956.92,-336.59 967.45,-335.48 958.52,-329.78 956.92,-336.59"/>
</g>
<!-- Node30 -->
<g id="node30" class="node">
<title>Node30</title>
<g id="a_node30"><a xlink:href="renderpass_8cpp.html" target="_top" xlink:title=" ">
<polygon fill="none" stroke="black" points="928.5,-268.5 928.5,-298.5 1083.5,-298.5 1083.5,-268.5 928.5,-268.5"/>
<text text-anchor="start" x="936.5" y="-286.5" font-family="Helvetica,sans-Serif" font-size="10.00">/github/workspace/src</text>
<text text-anchor="middle" x="1006" y="-275.5" font-family="Helvetica,sans-Serif" font-size="10.00">/renderer/vulkan/renderpass.cpp</text>
</a>
</g>
</g>
<!-- Node29&#45;&gt;Node30 -->
<g id="edge44" class="edge">
<title>Node29&#45;&gt;Node30</title>
<path fill="none" stroke="midnightblue" d="M1019.31,-325.7C1016.37,-316.59 1013.11,-306.49 1010.55,-298.58"/>
<polygon fill="midnightblue" stroke="midnightblue" points="1016.04,-326.96 1022.44,-335.4 1022.7,-324.8 1016.04,-326.96"/>
</g>
</g>
</svg>
