<?xml version="1.0" encoding="UTF-8" standalone="no"?>
<!DOCTYPE svg PUBLIC "-//W3C//DTD SVG 1.1//EN"
 "http://www.w3.org/Graphics/SVG/1.1/DTD/svg11.dtd">
<!-- Generated by graphviz version 2.49.3 (20211215.1918)
 -->
<!-- Title: /github/workspace/src/renderer/vulkan/shader.cpp Pages: 1 -->
<svg width="1617pt" height="431pt"
 viewBox="0.00 0.00 1616.50 431.00" xmlns="http://www.w3.org/2000/svg" xmlns:xlink="http://www.w3.org/1999/xlink">
<g id="graph0" class="graph" transform="scale(1 1) rotate(0) translate(4 427)">
<title>/github/workspace/src/renderer/vulkan/shader.cpp</title>
<!-- Node1 -->
<g id="node1" class="node">
<title>Node1</title>
<g id="a_node1"><a xlink:title=" ">
<polygon fill="#bfbfbf" stroke="black" points="1393.5,-392.5 1393.5,-422.5 1530.5,-422.5 1530.5,-392.5 1393.5,-392.5"/>
<text text-anchor="start" x="1401.5" y="-410.5" font-family="Helvetica,sans-Serif" font-size="10.00">/github/workspace/src</text>
<text text-anchor="middle" x="1462" y="-399.5" font-family="Helvetica,sans-Serif" font-size="10.00">/renderer/vulkan/shader.cpp</text>
</a>
</g>
</g>
<!-- Node2 -->
<g id="node2" class="node">
<title>Node2</title>
<g id="a_node2"><a xlink:href="shader_8h.html" target="_top" xlink:title=" ">
<polygon fill="none" stroke="black" points="1408.5,-336.5 1408.5,-355.5 1461.5,-355.5 1461.5,-336.5 1408.5,-336.5"/>
<text text-anchor="middle" x="1435" y="-343.5" font-family="Helvetica,sans-Serif" font-size="10.00">shader.h</text>
</a>
</g>
</g>
<!-- Node1&#45;&gt;Node2 -->
<g id="edge1" class="edge">
<title>Node1&#45;&gt;Node2</title>
<path fill="none" stroke="midnightblue" d="M1455.6,-392.4C1451.88,-384.2 1447.15,-373.78 1443.17,-364.99"/>
<polygon fill="midnightblue" stroke="midnightblue" points="1446.25,-363.32 1438.93,-355.66 1439.87,-366.21 1446.25,-363.32"/>
</g>
<!-- Node6 -->
<g id="node6" class="node">
<title>Node6</title>
<g id="a_node6"><a xlink:title=" ">
<polygon fill="none" stroke="#bfbfbf" points="1569.5,-280.5 1569.5,-299.5 1608.5,-299.5 1608.5,-280.5 1569.5,-280.5"/>
<text text-anchor="middle" x="1589" y="-287.5" font-family="Helvetica,sans-Serif" font-size="10.00">utility</text>
</a>
</g>
</g>
<!-- Node1&#45;&gt;Node6 -->
<g id="edge67" class="edge">
<title>Node1&#45;&gt;Node6</title>
<path fill="none" stroke="midnightblue" d="M1477.57,-392.34C1501.5,-370.58 1547.11,-329.09 1571.92,-306.54"/>
<polygon fill="midnightblue" stroke="midnightblue" points="1574.42,-308.99 1579.47,-299.67 1569.71,-303.81 1574.42,-308.99"/>
</g>
<!-- Node3 -->
<g id="node3" class="node">
<title>Node3</title>
<g id="a_node3"><a xlink:title=" ">
<polygon fill="none" stroke="#bfbfbf" points="1227,-0.5 1227,-19.5 1311,-19.5 1311,-0.5 1227,-0.5"/>
<text text-anchor="middle" x="1269" y="-7.5" font-family="Helvetica,sans-Serif" font-size="10.00">vulkan/vulkan.h</text>
</a>
</g>
</g>
<!-- Node2&#45;&gt;Node3 -->
<g id="edge2" class="edge">
<title>Node2&#45;&gt;Node3</title>
<path fill="none" stroke="midnightblue" d="M1461.87,-337.12C1480.92,-330.23 1505.7,-318.4 1521,-300 1540.32,-276.76 1541,-265.23 1541,-235 1541,-235 1541,-235 1541,-121 1541,-85.61 1524.69,-75.27 1495,-56 1442.52,-21.94 1369.83,-12.7 1321.2,-10.67"/>
<polygon fill="midnightblue" stroke="midnightblue" points="1321.31,-7.17 1311.2,-10.33 1321.08,-14.16 1321.31,-7.17"/>
</g>
<!-- Node4 -->
<g id="node4" class="node">
<title>Node4</title>
<g id="a_node4"><a xlink:title=" ">
<polygon fill="none" stroke="#bfbfbf" points="1463.5,-280.5 1463.5,-299.5 1512.5,-299.5 1512.5,-280.5 1463.5,-280.5"/>
<text text-anchor="middle" x="1488" y="-287.5" font-family="Helvetica,sans-Serif" font-size="10.00">cassert</text>
</a>
</g>
</g>
<!-- Node2&#45;&gt;Node4 -->
<g id="edge3" class="edge">
<title>Node2&#45;&gt;Node4</title>
<path fill="none" stroke="midnightblue" d="M1443.75,-336.08C1451.47,-328.22 1462.9,-316.57 1472.22,-307.08"/>
<polygon fill="midnightblue" stroke="midnightblue" points="1474.9,-309.34 1479.41,-299.75 1469.91,-304.44 1474.9,-309.34"/>
</g>
<!-- Node5 -->
<g id="node5" class="node">
<title>Node5</title>
<g id="a_node5"><a xlink:title=" ">
<polygon fill="none" stroke="#bfbfbf" points="84.5,-56.5 84.5,-75.5 143.5,-75.5 143.5,-56.5 84.5,-56.5"/>
<text text-anchor="middle" x="114" y="-63.5" font-family="Helvetica,sans-Serif" font-size="10.00">stdexcept</text>
</a>
</g>
</g>
<!-- Node2&#45;&gt;Node5 -->
<g id="edge4" class="edge">
<title>Node2&#45;&gt;Node5</title>
<path fill="none" stroke="midnightblue" d="M1408.26,-344.83C1253.76,-343.73 473.83,-336.43 237,-300 129.05,-283.4 0,-344.22 0,-235 0,-235 0,-235 0,-177 0,-130.11 50.55,-96.89 84.33,-79.93"/>
<polygon fill="midnightblue" stroke="midnightblue" points="85.87,-83.07 93.36,-75.58 82.83,-76.77 85.87,-83.07"/>
</g>
<!-- Node2&#45;&gt;Node6 -->
<g id="edge5" class="edge">
<title>Node2&#45;&gt;Node6</title>
<path fill="none" stroke="midnightblue" d="M1459.4,-336.44C1486.56,-326.92 1530.45,-311.53 1559.51,-301.34"/>
<polygon fill="midnightblue" stroke="midnightblue" points="1560.84,-304.58 1569.12,-297.97 1558.52,-297.98 1560.84,-304.58"/>
</g>
<!-- Node7 -->
<g id="node7" class="node">
<title>Node7</title>
<g id="a_node7"><a xlink:title=" ">
<polygon fill="none" stroke="#bfbfbf" points="548,-0.5 548,-19.5 592,-19.5 592,-0.5 548,-0.5"/>
<text text-anchor="middle" x="570" y="-7.5" font-family="Helvetica,sans-Serif" font-size="10.00">vector</text>
</a>
</g>
</g>
<!-- Node2&#45;&gt;Node7 -->
<g id="edge6" class="edge">
<title>Node2&#45;&gt;Node7</title>
<path fill="none" stroke="midnightblue" d="M1437.66,-336.46C1445,-312.12 1465,-240.21 1465,-179 1465,-179 1465,-179 1465,-121 1465,-90.77 1468.84,-74.58 1445,-56 1428.05,-42.79 758.65,-17.82 602.38,-12.16"/>
<polygon fill="midnightblue" stroke="midnightblue" points="602.15,-8.65 592.03,-11.79 601.9,-15.64 602.15,-8.65"/>
</g>
<!-- Node8 -->
<g id="node8" class="node">
<title>Node8</title>
<g id="a_node8"><a xlink:title=" ">
<polygon fill="none" stroke="#bfbfbf" points="218.5,-56.5 218.5,-75.5 259.5,-75.5 259.5,-56.5 218.5,-56.5"/>
<text text-anchor="middle" x="239" y="-63.5" font-family="Helvetica,sans-Serif" font-size="10.00">string</text>
</a>
</g>
</g>
<!-- Node2&#45;&gt;Node8 -->
<g id="edge7" class="edge">
<title>Node2&#45;&gt;Node8</title>
<path fill="none" stroke="midnightblue" d="M1408.34,-344.34C1215.21,-339.42 38,-306.47 38,-235 38,-235 38,-235 38,-177 38,-100.39 151.76,-76.79 208.11,-69.8"/>
<polygon fill="midnightblue" stroke="midnightblue" points="208.71,-73.26 218.25,-68.65 207.91,-66.3 208.71,-73.26"/>
</g>
<!-- Node9 -->
<g id="node9" class="node">
<title>Node9</title>
<g id="a_node9"><a xlink:href="device_8h.html" target="_top" xlink:title=" ">
<polygon fill="none" stroke="black" points="1053.5,-280.5 1053.5,-299.5 1106.5,-299.5 1106.5,-280.5 1053.5,-280.5"/>
<text text-anchor="middle" x="1080" y="-287.5" font-family="Helvetica,sans-Serif" font-size="10.00">device.h</text>
</a>
</g>
</g>
<!-- Node2&#45;&gt;Node9 -->
<g id="edge8" class="edge">
<title>Node2&#45;&gt;Node9</title>
<path fill="none" stroke="midnightblue" d="M1408.32,-340.94C1345.46,-331.38 1187.99,-307.43 1116.42,-296.54"/>
<polygon fill="midnightblue" stroke="midnightblue" points="1116.92,-293.08 1106.51,-295.03 1115.87,-300 1116.92,-293.08"/>
</g>
<!-- Node30 -->
<g id="node30" class="node">
<title>Node30</title>
<g id="a_node30"><a xlink:href="utils_8h.html" target="_top" xlink:title=" ">
<polygon fill="none" stroke="black" points="332,-112.5 332,-131.5 410,-131.5 410,-112.5 332,-112.5"/>
<text text-anchor="middle" x="371" y="-119.5" font-family="Helvetica,sans-Serif" font-size="10.00">../../utils/utils.h</text>
</a>
</g>
</g>
<!-- Node2&#45;&gt;Node30 -->
<g id="edge63" class="edge">
<title>Node2&#45;&gt;Node30</title>
<path fill="none" stroke="midnightblue" d="M1408.37,-343.93C1256.73,-337.64 506.03,-303.65 424,-244 390.41,-219.57 377.82,-169.14 373.33,-141.73"/>
<polygon fill="midnightblue" stroke="midnightblue" points="376.75,-140.93 371.86,-131.53 369.82,-141.93 376.75,-140.93"/>
</g>
<!-- Node9&#45;&gt;Node3 -->
<g id="edge9" class="edge">
<title>Node9&#45;&gt;Node3</title>
<path fill="none" stroke="midnightblue" d="M1106.79,-287.41C1168.86,-283.32 1320.48,-270.78 1363,-244 1439.78,-195.64 1452,-162.63 1479,-76 1481.65,-67.51 1484.59,-62.91 1479,-56 1459.53,-31.91 1376.86,-20.13 1321.24,-14.84"/>
<polygon fill="midnightblue" stroke="midnightblue" points="1321.47,-11.34 1311.19,-13.92 1320.83,-18.31 1321.47,-11.34"/>
</g>
<!-- Node9&#45;&gt;Node5 -->
<g id="edge12" class="edge">
<title>Node9&#45;&gt;Node5</title>
<path fill="none" stroke="midnightblue" d="M1053.17,-289.01C938.2,-288.8 486.85,-285.3 352,-244 252.67,-213.58 162.09,-121.18 128.16,-83.38"/>
<polygon fill="midnightblue" stroke="midnightblue" points="130.69,-80.97 121.45,-75.79 125.45,-85.6 130.69,-80.97"/>
</g>
<!-- Node9&#45;&gt;Node7 -->
<g id="edge11" class="edge">
<title>Node9&#45;&gt;Node7</title>
<path fill="none" stroke="midnightblue" d="M1053.23,-287.3C931.73,-279.21 438,-242.47 438,-179 438,-179 438,-179 438,-121 438,-88.6 447.6,-78.41 471,-56 489.75,-38.04 516.92,-26.39 538.05,-19.46"/>
<polygon fill="midnightblue" stroke="midnightblue" points="539.36,-22.72 547.88,-16.42 537.29,-16.03 539.36,-22.72"/>
</g>
<!-- Node9&#45;&gt;Node8 -->
<g id="edge13" class="edge">
<title>Node9&#45;&gt;Node8</title>
<path fill="none" stroke="midnightblue" d="M1053.32,-288.8C945.83,-287.75 544.49,-281.35 424,-244 330.37,-214.98 282.63,-217.11 234,-132 225.94,-117.89 228.49,-99.15 232.29,-85.42"/>
<polygon fill="midnightblue" stroke="midnightblue" points="235.7,-86.26 235.43,-75.67 229.04,-84.12 235.7,-86.26"/>
</g>
<!-- Node10 -->
<g id="node10" class="node">
<title>Node10</title>
<g id="a_node10"><a xlink:title=" ">
<polygon fill="none" stroke="#bfbfbf" points="1349.5,-56.5 1349.5,-75.5 1436.5,-75.5 1436.5,-56.5 1349.5,-56.5"/>
<text text-anchor="middle" x="1393" y="-63.5" font-family="Helvetica,sans-Serif" font-size="10.00">vk_mem_alloc.h</text>
</a>
</g>
</g>
<!-- Node9&#45;&gt;Node10 -->
<g id="edge10" class="edge">
<title>Node9&#45;&gt;Node10</title>
<path fill="none" stroke="midnightblue" d="M1106.59,-287.51C1165.16,-283.73 1302.99,-272.04 1339,-244 1388.18,-205.71 1393.83,-123.8 1393.69,-86.38"/>
<polygon fill="midnightblue" stroke="midnightblue" points="1397.18,-85.83 1393.48,-75.9 1390.18,-85.97 1397.18,-85.83"/>
</g>
<!-- Node11 -->
<g id="node11" class="node">
<title>Node11</title>
<g id="a_node11"><a xlink:title=" ">
<polygon fill="none" stroke="#bfbfbf" points="1065,-168.5 1065,-187.5 1095,-187.5 1095,-168.5 1065,-168.5"/>
<text text-anchor="middle" x="1080" y="-175.5" font-family="Helvetica,sans-Serif" font-size="10.00">set</text>
</a>
</g>
</g>
<!-- Node9&#45;&gt;Node11 -->
<g id="edge14" class="edge">
<title>Node9&#45;&gt;Node11</title>
<path fill="none" stroke="midnightblue" d="M1080,-280.37C1080,-262.62 1080,-221.67 1080,-197.6"/>
<polygon fill="midnightblue" stroke="midnightblue" points="1083.5,-197.59 1080,-187.59 1076.5,-197.59 1083.5,-197.59"/>
</g>
<!-- Node12 -->
<g id="node12" class="node">
<title>Node12</title>
<g id="a_node12"><a xlink:title=" ">
<polygon fill="none" stroke="#bfbfbf" points="918,-0.5 918,-19.5 964,-19.5 964,-0.5 918,-0.5"/>
<text text-anchor="middle" x="941" y="-7.5" font-family="Helvetica,sans-Serif" font-size="10.00">cstring</text>
</a>
</g>
</g>
<!-- Node9&#45;&gt;Node12 -->
<g id="edge15" class="edge">
<title>Node9&#45;&gt;Node12</title>
<path fill="none" stroke="midnightblue" d="M1096.62,-280.3C1154.17,-249.12 1337.43,-140.37 1264,-56 1226.71,-13.16 1049.48,-9.83 974.56,-10.39"/>
<polygon fill="midnightblue" stroke="midnightblue" points="974.24,-6.9 964.28,-10.5 974.31,-13.89 974.24,-6.9"/>
</g>
<!-- Node13 -->
<g id="node13" class="node">
<title>Node13</title>
<g id="a_node13"><a xlink:title=" ">
<polygon fill="none" stroke="#bfbfbf" points="163,-0.5 163,-19.5 217,-19.5 217,-0.5 163,-0.5"/>
<text text-anchor="middle" x="190" y="-7.5" font-family="Helvetica,sans-Serif" font-size="10.00">iostream</text>
</a>
</g>
</g>
<!-- Node9&#45;&gt;Node13 -->
<g id="edge16" class="edge">
<title>Node9&#45;&gt;Node13</title>
<path fill="none" stroke="midnightblue" d="M1053.35,-289.28C933.83,-290.27 446.77,-291.25 303,-244 183.42,-204.7 129.92,-189.26 75,-76 58.16,-41.26 113.2,-24.1 152.86,-16.42"/>
<polygon fill="midnightblue" stroke="midnightblue" points="153.59,-19.85 162.81,-14.63 152.35,-12.96 153.59,-19.85"/>
</g>
<!-- Node14 -->
<g id="node14" class="node">
<title>Node14</title>
<g id="a_node14"><a xlink:title=" ">
<polygon fill="none" stroke="#bfbfbf" points="1195.5,-112.5 1195.5,-131.5 1236.5,-131.5 1236.5,-112.5 1195.5,-112.5"/>
<text text-anchor="middle" x="1216" y="-119.5" font-family="Helvetica,sans-Serif" font-size="10.00">bitset</text>
</a>
</g>
</g>
<!-- Node9&#45;&gt;Node14 -->
<g id="edge17" class="edge">
<title>Node9&#45;&gt;Node14</title>
<path fill="none" stroke="midnightblue" d="M1088.36,-280.48C1097.11,-271.51 1111.19,-256.92 1123,-244 1145.32,-219.59 1151.8,-214.19 1172,-188 1184.05,-172.37 1196.55,-153.62 1205.14,-140.28"/>
<polygon fill="midnightblue" stroke="midnightblue" points="1208.21,-141.96 1210.63,-131.65 1202.31,-138.21 1208.21,-141.96"/>
</g>
<!-- Node15 -->
<g id="node15" class="node">
<title>Node15</title>
<g id="a_node15"><a xlink:title=" ">
<polygon fill="none" stroke="#bfbfbf" points="1112.5,-168.5 1112.5,-187.5 1163.5,-187.5 1163.5,-168.5 1112.5,-168.5"/>
<text text-anchor="middle" x="1138" y="-175.5" font-family="Helvetica,sans-Serif" font-size="10.00">memory</text>
</a>
</g>
</g>
<!-- Node9&#45;&gt;Node15 -->
<g id="edge18" class="edge">
<title>Node9&#45;&gt;Node15</title>
<path fill="none" stroke="midnightblue" d="M1084.55,-280.37C1094.04,-262.38 1116.09,-220.55 1128.71,-196.63"/>
<polygon fill="midnightblue" stroke="midnightblue" points="1131.9,-198.07 1133.47,-187.59 1125.71,-194.8 1131.9,-198.07"/>
</g>
<!-- Node16 -->
<g id="node16" class="node">
<title>Node16</title>
<g id="a_node16"><a xlink:href="physicaldevice_8h.html" target="_top" xlink:title=" ">
<polygon fill="none" stroke="black" points="798,-224.5 798,-243.5 886,-243.5 886,-224.5 798,-224.5"/>
<text text-anchor="middle" x="842" y="-231.5" font-family="Helvetica,sans-Serif" font-size="10.00">physicaldevice.h</text>
</a>
</g>
</g>
<!-- Node9&#45;&gt;Node16 -->
<g id="edge19" class="edge">
<title>Node9&#45;&gt;Node16</title>
<path fill="none" stroke="midnightblue" d="M1053.16,-282.91C1013.47,-273.9 938.53,-256.9 889.44,-245.76"/>
<polygon fill="midnightblue" stroke="midnightblue" points="890.2,-242.35 879.68,-243.55 888.66,-249.17 890.2,-242.35"/>
</g>
<!-- Node21 -->
<g id="node21" class="node">
<title>Node21</title>
<g id="a_node21"><a xlink:href="instance_8h.html" target="_top" xlink:title=" ">
<polygon fill="none" stroke="black" points="480.5,-56.5 480.5,-75.5 541.5,-75.5 541.5,-56.5 480.5,-56.5"/>
<text text-anchor="middle" x="511" y="-63.5" font-family="Helvetica,sans-Serif" font-size="10.00">instance.h</text>
</a>
</g>
</g>
<!-- Node9&#45;&gt;Node21 -->
<g id="edge62" class="edge">
<title>Node9&#45;&gt;Node21</title>
<path fill="none" stroke="midnightblue" d="M1053.25,-286.52C959.67,-277.41 648.26,-243.45 567,-188 532.21,-164.26 518.59,-113.15 513.61,-85.56"/>
<polygon fill="midnightblue" stroke="midnightblue" points="517.06,-84.95 512.02,-75.63 510.15,-86.06 517.06,-84.95"/>
</g>
<!-- Node16&#45;&gt;Node7 -->
<g id="edge25" class="edge">
<title>Node16&#45;&gt;Node7</title>
<path fill="none" stroke="midnightblue" d="M797.6,-232.88C754.81,-230.61 690.21,-221.29 646,-188 593.95,-148.8 577.1,-66.74 572.03,-29.77"/>
<polygon fill="midnightblue" stroke="midnightblue" points="575.5,-29.33 570.8,-19.84 568.55,-30.19 575.5,-29.33"/>
</g>
<!-- Node16&#45;&gt;Node8 -->
<g id="edge21" class="edge">
<title>Node16&#45;&gt;Node8</title>
<path fill="none" stroke="midnightblue" d="M797.72,-232.09C672.95,-228.54 322.61,-211.55 247,-132 235.63,-120.03 234.58,-100.73 235.81,-86.27"/>
<polygon fill="midnightblue" stroke="midnightblue" points="239.33,-86.3 237.12,-75.93 232.39,-85.41 239.33,-86.3"/>
</g>
<!-- Node16&#45;&gt;Node11 -->
<g id="edge22" class="edge">
<title>Node16&#45;&gt;Node11</title>
<path fill="none" stroke="midnightblue" d="M886.31,-224.65C928.8,-216.36 994.63,-202.78 1051,-188 1052.26,-187.67 1053.55,-187.32 1054.85,-186.95"/>
<polygon fill="midnightblue" stroke="midnightblue" points="1056.13,-190.22 1064.72,-184.02 1054.14,-183.51 1056.13,-190.22"/>
</g>
<!-- Node16&#45;&gt;Node13 -->
<g id="edge23" class="edge">
<title>Node16&#45;&gt;Node13</title>
<path fill="none" stroke="midnightblue" d="M797.68,-232.51C685.94,-230.75 395.27,-222.87 306,-188 244.66,-164.04 231.71,-137.81 209,-76 203.3,-60.48 198.13,-42.4 194.62,-29.25"/>
<polygon fill="midnightblue" stroke="midnightblue" points="198,-28.33 192.1,-19.53 191.23,-30.09 198,-28.33"/>
</g>
<!-- Node16&#45;&gt;Node14 -->
<g id="edge24" class="edge">
<title>Node16&#45;&gt;Node14</title>
<path fill="none" stroke="midnightblue" d="M865.73,-224.46C914.37,-206.95 1021.02,-168.58 1023,-168 1038.48,-163.43 1134.97,-141.38 1185.39,-129.93"/>
<polygon fill="midnightblue" stroke="midnightblue" points="1186.42,-133.29 1195.4,-127.66 1184.87,-126.46 1186.42,-133.29"/>
</g>
<!-- Node16&#45;&gt;Node15 -->
<g id="edge26" class="edge">
<title>Node16&#45;&gt;Node15</title>
<path fill="none" stroke="midnightblue" d="M886.27,-226.62C936.51,-219.11 1021.08,-205.65 1102.53,-188.18"/>
<polygon fill="midnightblue" stroke="midnightblue" points="1103.41,-191.57 1112.44,-186.03 1101.92,-184.73 1103.41,-191.57"/>
</g>
<!-- Node17 -->
<g id="node17" class="node">
<title>Node17</title>
<g id="a_node17"><a xlink:title=" ">
<polygon fill="none" stroke="#bfbfbf" points="742,-112.5 742,-131.5 850,-131.5 850,-112.5 742,-112.5"/>
<text text-anchor="middle" x="796" y="-119.5" font-family="Helvetica,sans-Serif" font-size="10.00">vulkan/vulkan_core.h</text>
</a>
</g>
</g>
<!-- Node16&#45;&gt;Node17 -->
<g id="edge20" class="edge">
<title>Node16&#45;&gt;Node17</title>
<path fill="none" stroke="midnightblue" d="M838.39,-224.37C830.9,-206.46 813.53,-164.92 803.51,-140.95"/>
<polygon fill="midnightblue" stroke="midnightblue" points="806.68,-139.47 799.59,-131.59 800.22,-142.17 806.68,-139.47"/>
</g>
<!-- Node18 -->
<g id="node18" class="node">
<title>Node18</title>
<g id="a_node18"><a xlink:href="types_8h.html" target="_top" xlink:title=" ">
<polygon fill="none" stroke="black" points="655.5,-168.5 655.5,-187.5 702.5,-187.5 702.5,-168.5 655.5,-168.5"/>
<text text-anchor="middle" x="679" y="-175.5" font-family="Helvetica,sans-Serif" font-size="10.00">types.h</text>
</a>
</g>
</g>
<!-- Node16&#45;&gt;Node18 -->
<g id="edge27" class="edge">
<title>Node16&#45;&gt;Node18</title>
<path fill="none" stroke="midnightblue" d="M816.17,-224.44C788.11,-215.15 743.17,-200.26 712.43,-190.07"/>
<polygon fill="midnightblue" stroke="midnightblue" points="713.18,-186.64 702.59,-186.82 710.98,-193.28 713.18,-186.64"/>
</g>
<!-- Node20 -->
<g id="node20" class="node">
<title>Node20</title>
<g id="a_node20"><a xlink:href="vulkanclass_8h.html" target="_top" xlink:title=" ">
<polygon fill="none" stroke="black" points="1179,-56.5 1179,-75.5 1255,-75.5 1255,-56.5 1179,-56.5"/>
<text text-anchor="middle" x="1217" y="-63.5" font-family="Helvetica,sans-Serif" font-size="10.00">vulkanclass.h</text>
</a>
</g>
</g>
<!-- Node16&#45;&gt;Node20 -->
<g id="edge31" class="edge">
<title>Node16&#45;&gt;Node20</title>
<path fill="none" stroke="midnightblue" d="M880.19,-224.48C914.56,-216.41 966.24,-203.28 1010,-188 1031.05,-180.65 1034.7,-174.57 1056,-168 1137.71,-142.8 1190.48,-197.88 1245,-132 1256.92,-117.6 1244.78,-97.36 1232.97,-83.3"/>
<polygon fill="midnightblue" stroke="midnightblue" points="1235.53,-80.92 1226.24,-75.83 1230.34,-85.61 1235.53,-80.92"/>
</g>
<!-- Node16&#45;&gt;Node21 -->
<g id="edge33" class="edge">
<title>Node16&#45;&gt;Node21</title>
<path fill="none" stroke="midnightblue" d="M797.85,-229.64C733.67,-223.74 619.02,-210.03 585,-188 546.28,-162.94 520.81,-112.8 512.4,-85.59"/>
<polygon fill="midnightblue" stroke="midnightblue" points="515.77,-84.61 509.91,-75.78 508.98,-86.33 515.77,-84.61"/>
</g>
<!-- Node23 -->
<g id="node23" class="node">
<title>Node23</title>
<g id="a_node23"><a xlink:href="queues_8h.html" target="_top" xlink:title=" ">
<polygon fill="none" stroke="black" points="902,-168.5 902,-187.5 958,-187.5 958,-168.5 902,-168.5"/>
<text text-anchor="middle" x="930" y="-175.5" font-family="Helvetica,sans-Serif" font-size="10.00">queues.h</text>
</a>
</g>
</g>
<!-- Node16&#45;&gt;Node23 -->
<g id="edge40" class="edge">
<title>Node16&#45;&gt;Node23</title>
<path fill="none" stroke="midnightblue" d="M851.02,-224.32C863.15,-215.74 884.48,-202.49 902.02,-192.52"/>
<polygon fill="midnightblue" stroke="midnightblue" points="903.74,-195.57 910.79,-187.65 900.34,-189.45 903.74,-195.57"/>
</g>
<!-- Node18&#45;&gt;Node3 -->
<g id="edge28" class="edge">
<title>Node18&#45;&gt;Node3</title>
<path fill="none" stroke="midnightblue" d="M673.04,-168.31C664.51,-154.7 651.28,-128.21 665,-112 735.65,-28.56 1082.66,-14 1216.35,-11.5"/>
<polygon fill="midnightblue" stroke="midnightblue" points="1216.8,-14.99 1226.74,-11.32 1216.68,-7.99 1216.8,-14.99"/>
</g>
<!-- Node18&#45;&gt;Node7 -->
<g id="edge29" class="edge">
<title>Node18&#45;&gt;Node7</title>
<path fill="none" stroke="midnightblue" d="M667.91,-168.23C657.68,-159.75 642.53,-146.13 632,-132 607.19,-98.69 587.19,-54.01 577.12,-29.32"/>
<polygon fill="midnightblue" stroke="midnightblue" points="580.26,-27.77 573.31,-19.78 573.76,-30.36 580.26,-27.77"/>
</g>
<!-- Node19 -->
<g id="node19" class="node">
<title>Node19</title>
<g id="a_node19"><a xlink:title=" ">
<polygon fill="none" stroke="#bfbfbf" points="674,-112.5 674,-131.5 724,-131.5 724,-112.5 674,-112.5"/>
<text text-anchor="middle" x="699" y="-119.5" font-family="Helvetica,sans-Serif" font-size="10.00">optional</text>
</a>
</g>
</g>
<!-- Node18&#45;&gt;Node19 -->
<g id="edge30" class="edge">
<title>Node18&#45;&gt;Node19</title>
<path fill="none" stroke="midnightblue" d="M682.3,-168.08C684.98,-160.85 688.85,-150.41 692.19,-141.4"/>
<polygon fill="midnightblue" stroke="midnightblue" points="695.57,-142.34 695.76,-131.75 689,-139.91 695.57,-142.34"/>
</g>
<!-- Node20&#45;&gt;Node3 -->
<g id="edge32" class="edge">
<title>Node20&#45;&gt;Node3</title>
<path fill="none" stroke="midnightblue" d="M1225.59,-56.08C1233.16,-48.22 1244.38,-36.57 1253.51,-27.08"/>
<polygon fill="midnightblue" stroke="midnightblue" points="1256.16,-29.38 1260.57,-19.75 1251.12,-24.53 1256.16,-29.38"/>
</g>
<!-- Node21&#45;&gt;Node3 -->
<g id="edge34" class="edge">
<title>Node21&#45;&gt;Node3</title>
<path fill="none" stroke="midnightblue" d="M541.65,-62.82C657.55,-54.56 1069.85,-25.19 1216.64,-14.73"/>
<polygon fill="midnightblue" stroke="midnightblue" points="1217.02,-18.21 1226.74,-14.01 1216.52,-11.23 1217.02,-18.21"/>
</g>
<!-- Node21&#45;&gt;Node7 -->
<g id="edge36" class="edge">
<title>Node21&#45;&gt;Node7</title>
<path fill="none" stroke="midnightblue" d="M520.48,-56.32C529.2,-48.34 542.34,-36.31 552.9,-26.65"/>
<polygon fill="midnightblue" stroke="midnightblue" points="555.33,-29.17 560.35,-19.83 550.61,-24 555.33,-29.17"/>
</g>
<!-- Node21&#45;&gt;Node12 -->
<g id="edge37" class="edge">
<title>Node21&#45;&gt;Node12</title>
<path fill="none" stroke="midnightblue" d="M541.58,-61.16C619.8,-51.34 826.71,-25.35 907.76,-15.17"/>
<polygon fill="midnightblue" stroke="midnightblue" points="908.41,-18.62 917.9,-13.9 907.54,-11.67 908.41,-18.62"/>
</g>
<!-- Node21&#45;&gt;Node13 -->
<g id="edge38" class="edge">
<title>Node21&#45;&gt;Node13</title>
<path fill="none" stroke="midnightblue" d="M480.22,-59.82C420.91,-49.84 291.01,-27.99 227.06,-17.24"/>
<polygon fill="midnightblue" stroke="midnightblue" points="227.46,-13.75 217.02,-15.55 226.3,-20.66 227.46,-13.75"/>
</g>
<!-- Node21&#45;&gt;Node16 -->
<g id="edge39" class="edge">
<title>Node21&#45;&gt;Node16</title>
<path fill="none" stroke="midnightblue" d="M518.53,-75.78C532.05,-98.51 558.95,-159.48 603,-188 633.21,-207.56 726.98,-220.56 787.78,-227.36"/>
<polygon fill="midnightblue" stroke="midnightblue" points="787.66,-230.86 797.98,-228.47 788.42,-223.91 787.66,-230.86"/>
</g>
<!-- Node22 -->
<g id="node22" class="node">
<title>Node22</title>
<g id="a_node22"><a xlink:title=" ">
<polygon fill="none" stroke="#bfbfbf" points="351.5,-0.5 351.5,-19.5 430.5,-19.5 430.5,-0.5 351.5,-0.5"/>
<text text-anchor="middle" x="391" y="-7.5" font-family="Helvetica,sans-Serif" font-size="10.00">GLFW/glfw3.h</text>
</a>
</g>
</g>
<!-- Node21&#45;&gt;Node22 -->
<g id="edge35" class="edge">
<title>Node21&#45;&gt;Node22</title>
<path fill="none" stroke="midnightblue" d="M491.99,-56.44C472.41,-47.64 441.69,-33.81 419.27,-23.72"/>
<polygon fill="midnightblue" stroke="midnightblue" points="420.48,-20.43 409.93,-19.52 417.61,-26.81 420.48,-20.43"/>
</g>
<!-- Node23&#45;&gt;Node7 -->
<g id="edge42" class="edge">
<title>Node23&#45;&gt;Node7</title>
<path fill="none" stroke="midnightblue" d="M922.57,-168.21C910.53,-154.45 885.39,-127.78 859,-112 773.28,-60.76 657.71,-30.33 602.28,-17.76"/>
<polygon fill="midnightblue" stroke="midnightblue" points="602.86,-14.31 592.34,-15.56 601.34,-21.14 602.86,-14.31"/>
</g>
<!-- Node23&#45;&gt;Node9 -->
<g id="edge50" class="edge">
<title>Node23&#45;&gt;Node9</title>
<path fill="none" stroke="midnightblue" d="M941.72,-187.59C967.3,-206.35 1028.39,-251.15 1060.11,-274.42"/>
<polygon fill="midnightblue" stroke="midnightblue" points="1058.1,-277.28 1068.23,-280.37 1062.24,-271.63 1058.1,-277.28"/>
</g>
<!-- Node23&#45;&gt;Node14 -->
<g id="edge46" class="edge">
<title>Node23&#45;&gt;Node14</title>
<path fill="none" stroke="midnightblue" d="M958.07,-171.28C963.67,-170.17 969.52,-169.03 975,-168 1066.35,-150.88 1090.14,-151.59 1181,-132 1182.46,-131.69 1183.94,-131.35 1185.44,-131.01"/>
<polygon fill="midnightblue" stroke="midnightblue" points="1186.45,-134.37 1195.34,-128.6 1184.79,-127.56 1186.45,-134.37"/>
</g>
<!-- Node23&#45;&gt;Node16 -->
<g id="edge51" class="edge">
<title>Node23&#45;&gt;Node16</title>
<path fill="none" stroke="midnightblue" d="M920.75,-187.83C908.7,-196.34 887.79,-209.34 870.45,-219.21"/>
<polygon fill="midnightblue" stroke="midnightblue" points="868.29,-216.4 861.25,-224.32 871.69,-222.52 868.29,-216.4"/>
</g>
<!-- Node23&#45;&gt;Node17 -->
<g id="edge41" class="edge">
<title>Node23&#45;&gt;Node17</title>
<path fill="none" stroke="midnightblue" d="M908.77,-168.44C886.62,-159.52 851.68,-145.44 826.56,-135.32"/>
<polygon fill="midnightblue" stroke="midnightblue" points="827.72,-132.01 817.13,-131.52 825.1,-138.5 827.72,-132.01"/>
</g>
<!-- Node23&#45;&gt;Node19 -->
<g id="edge45" class="edge">
<title>Node23&#45;&gt;Node19</title>
<path fill="none" stroke="midnightblue" d="M901.87,-170.89C865.45,-162.91 799.77,-148.3 734.3,-132.26"/>
<polygon fill="midnightblue" stroke="midnightblue" points="734.77,-128.77 724.23,-129.78 733.1,-135.57 734.77,-128.77"/>
</g>
<!-- Node23&#45;&gt;Node20 -->
<g id="edge49" class="edge">
<title>Node23&#45;&gt;Node20</title>
<path fill="none" stroke="midnightblue" d="M958.17,-171.29C1016.63,-159.42 1145.88,-133.1 1148,-132 1170.7,-120.19 1191.28,-98.75 1203.94,-83.73"/>
<polygon fill="midnightblue" stroke="midnightblue" points="1206.84,-85.72 1210.44,-75.75 1201.41,-81.3 1206.84,-85.72"/>
</g>
<!-- Node24 -->
<g id="node24" class="node">
<title>Node24</title>
<g id="a_node24"><a xlink:title=" ">
<polygon fill="none" stroke="#bfbfbf" points="967.5,-112.5 967.5,-131.5 1002.5,-131.5 1002.5,-112.5 967.5,-112.5"/>
<text text-anchor="middle" x="985" y="-119.5" font-family="Helvetica,sans-Serif" font-size="10.00">map</text>
</a>
</g>
</g>
<!-- Node23&#45;&gt;Node24 -->
<g id="edge43" class="edge">
<title>Node23&#45;&gt;Node24</title>
<path fill="none" stroke="midnightblue" d="M939.08,-168.08C947.17,-160.14 959.2,-148.34 968.91,-138.8"/>
<polygon fill="midnightblue" stroke="midnightblue" points="971.4,-141.25 976.09,-131.75 966.5,-136.26 971.4,-141.25"/>
</g>
<!-- Node25 -->
<g id="node25" class="node">
<title>Node25</title>
<g id="a_node25"><a xlink:title=" ">
<polygon fill="none" stroke="#bfbfbf" points="1021,-112.5 1021,-131.5 1077,-131.5 1077,-112.5 1021,-112.5"/>
<text text-anchor="middle" x="1049" y="-119.5" font-family="Helvetica,sans-Serif" font-size="10.00">algorithm</text>
</a>
</g>
</g>
<!-- Node23&#45;&gt;Node25 -->
<g id="edge44" class="edge">
<title>Node23&#45;&gt;Node25</title>
<path fill="none" stroke="midnightblue" d="M948.86,-168.44C968.27,-159.64 998.73,-145.81 1020.96,-135.72"/>
<polygon fill="midnightblue" stroke="midnightblue" points="1022.57,-138.84 1030.23,-131.52 1019.68,-132.46 1022.57,-138.84"/>
</g>
<!-- Node26 -->
<g id="node26" class="node">
<title>Node26</title>
<g id="a_node26"><a xlink:title=" ">
<polygon fill="none" stroke="#bfbfbf" points="1095,-112.5 1095,-131.5 1139,-131.5 1139,-112.5 1095,-112.5"/>
<text text-anchor="middle" x="1117" y="-119.5" font-family="Helvetica,sans-Serif" font-size="10.00">thread</text>
</a>
</g>
</g>
<!-- Node23&#45;&gt;Node26 -->
<g id="edge47" class="edge">
<title>Node23&#45;&gt;Node26</title>
<path fill="none" stroke="midnightblue" d="M958.19,-168.89C987.54,-160.43 1035.12,-146.72 1085.26,-132.21"/>
<polygon fill="midnightblue" stroke="midnightblue" points="1086.35,-135.54 1094.99,-129.4 1084.41,-128.81 1086.35,-135.54"/>
</g>
<!-- Node27 -->
<g id="node27" class="node">
<title>Node27</title>
<g id="a_node27"><a xlink:title=" ">
<polygon fill="none" stroke="#bfbfbf" points="906.5,-112.5 906.5,-131.5 949.5,-131.5 949.5,-112.5 906.5,-112.5"/>
<text text-anchor="middle" x="928" y="-119.5" font-family="Helvetica,sans-Serif" font-size="10.00">mutex</text>
</a>
</g>
</g>
<!-- Node23&#45;&gt;Node27 -->
<g id="edge48" class="edge">
<title>Node23&#45;&gt;Node27</title>
<path fill="none" stroke="midnightblue" d="M929.67,-168.08C929.41,-161.01 929.03,-150.86 928.7,-141.99"/>
<polygon fill="midnightblue" stroke="midnightblue" points="932.19,-141.61 928.32,-131.75 925.2,-141.87 932.19,-141.61"/>
</g>
<!-- Node28 -->
<g id="node28" class="node">
<title>Node28</title>
<g id="a_node28"><a xlink:href="window_8h.html" target="_top" xlink:title=" ">
<polygon fill="none" stroke="black" points="256.5,-112.5 256.5,-131.5 313.5,-131.5 313.5,-112.5 256.5,-112.5"/>
<text text-anchor="middle" x="285" y="-119.5" font-family="Helvetica,sans-Serif" font-size="10.00">window.h</text>
</a>
</g>
</g>
<!-- Node23&#45;&gt;Node28 -->
<g id="edge52" class="edge">
<title>Node23&#45;&gt;Node28</title>
<path fill="none" stroke="midnightblue" d="M901.73,-175.5C800.53,-170.05 455.81,-150.67 323.79,-131.8"/>
<polygon fill="midnightblue" stroke="midnightblue" points="323.95,-128.29 313.54,-130.27 322.91,-135.21 323.95,-128.29"/>
</g>
<!-- Node29 -->
<g id="node29" class="node">
<title>Node29</title>
<g id="a_node29"><a xlink:href="fence_8h.html" target="_top" xlink:title=" ">
<polygon fill="none" stroke="black" points="1331,-112.5 1331,-131.5 1379,-131.5 1379,-112.5 1331,-112.5"/>
<text text-anchor="middle" x="1355" y="-119.5" font-family="Helvetica,sans-Serif" font-size="10.00">fence.h</text>
</a>
</g>
</g>
<!-- Node23&#45;&gt;Node29 -->
<g id="edge57" class="edge">
<title>Node23&#45;&gt;Node29</title>
<path fill="none" stroke="midnightblue" d="M958.21,-173.42C1033.44,-163.86 1238.66,-137.78 1320.57,-127.37"/>
<polygon fill="midnightblue" stroke="midnightblue" points="1321.35,-130.8 1330.83,-126.07 1320.47,-123.86 1321.35,-130.8"/>
</g>
<!-- Node28&#45;&gt;Node5 -->
<g id="edge55" class="edge">
<title>Node28&#45;&gt;Node5</title>
<path fill="none" stroke="midnightblue" d="M257.9,-112.44C229.01,-103.32 183.08,-88.81 150.89,-78.65"/>
<polygon fill="midnightblue" stroke="midnightblue" points="151.56,-75.19 140.97,-75.52 149.45,-81.87 151.56,-75.19"/>
</g>
<!-- Node28&#45;&gt;Node8 -->
<g id="edge54" class="edge">
<title>Node28&#45;&gt;Node8</title>
<path fill="none" stroke="midnightblue" d="M277.4,-112.08C270.77,-104.3 260.98,-92.8 252.94,-83.37"/>
<polygon fill="midnightblue" stroke="midnightblue" points="255.6,-81.09 246.45,-75.75 250.27,-85.63 255.6,-81.09"/>
</g>
<!-- Node28&#45;&gt;Node21 -->
<g id="edge56" class="edge">
<title>Node28&#45;&gt;Node21</title>
<path fill="none" stroke="midnightblue" d="M313.62,-114.16C353.38,-104.66 425.5,-87.43 470.68,-76.63"/>
<polygon fill="midnightblue" stroke="midnightblue" points="471.53,-80.03 480.45,-74.3 469.91,-73.22 471.53,-80.03"/>
</g>
<!-- Node28&#45;&gt;Node22 -->
<g id="edge53" class="edge">
<title>Node28&#45;&gt;Node22</title>
<path fill="none" stroke="midnightblue" d="M287.77,-112.09C292.3,-98.65 302.4,-72.95 318,-56 330.24,-42.7 347.29,-31.9 361.83,-24.21"/>
<polygon fill="midnightblue" stroke="midnightblue" points="363.6,-27.24 370.95,-19.61 360.45,-20.99 363.6,-27.24"/>
</g>
<!-- Node29&#45;&gt;Node3 -->
<g id="edge58" class="edge">
<title>Node29&#45;&gt;Node3</title>
<path fill="none" stroke="midnightblue" d="M1348.25,-112.37C1334,-94.14 1300.61,-51.43 1282.04,-27.68"/>
<polygon fill="midnightblue" stroke="midnightblue" points="1284.63,-25.31 1275.72,-19.59 1279.12,-29.63 1284.63,-25.31"/>
</g>
<!-- Node29&#45;&gt;Node9 -->
<g id="edge61" class="edge">
<title>Node29&#45;&gt;Node9</title>
<path fill="none" stroke="midnightblue" d="M1355.1,-131.59C1354.84,-153.87 1350.89,-213.85 1317,-244 1287.85,-269.93 1175.6,-281.95 1116.64,-286.58"/>
<polygon fill="midnightblue" stroke="midnightblue" points="1116.34,-283.09 1106.63,-287.33 1116.87,-290.07 1116.34,-283.09"/>
</g>
<!-- Node29&#45;&gt;Node10 -->
<g id="edge59" class="edge">
<title>Node29&#45;&gt;Node10</title>
<path fill="none" stroke="midnightblue" d="M1361.27,-112.08C1366.64,-104.46 1374.52,-93.26 1381.08,-83.94"/>
<polygon fill="midnightblue" stroke="midnightblue" points="1383.95,-85.94 1386.84,-75.75 1378.22,-81.91 1383.95,-85.94"/>
</g>
<!-- Node29&#45;&gt;Node20 -->
<g id="edge60" class="edge">
<title>Node29&#45;&gt;Node20</title>
<path fill="none" stroke="midnightblue" d="M1333.13,-112.44C1310.22,-103.48 1274.02,-89.31 1248.13,-79.18"/>
<polygon fill="midnightblue" stroke="midnightblue" points="1249.35,-75.9 1238.76,-75.52 1246.8,-82.42 1249.35,-75.9"/>
</g>
<!-- Node30&#45;&gt;Node7 -->
<g id="edge64" class="edge">
<title>Node30&#45;&gt;Node7</title>
<path fill="none" stroke="midnightblue" d="M363.89,-112.46C353.61,-99.05 337.27,-72.84 351,-56 374.17,-27.59 482.39,-16.6 537.53,-12.8"/>
<polygon fill="midnightblue" stroke="midnightblue" points="538.06,-16.27 547.81,-12.13 537.6,-9.29 538.06,-16.27"/>
</g>
<!-- Node30&#45;&gt;Node8 -->
<g id="edge65" class="edge">
<title>Node30&#45;&gt;Node8</title>
<path fill="none" stroke="midnightblue" d="M350.08,-112.44C328.26,-103.52 293.85,-89.44 269.11,-79.32"/>
<polygon fill="midnightblue" stroke="midnightblue" points="270.4,-76.06 259.82,-75.52 267.75,-82.54 270.4,-76.06"/>
</g>
<!-- Node31 -->
<g id="node31" class="node">
<title>Node31</title>
<g id="a_node31"><a xlink:title=" ">
<polygon fill="none" stroke="#bfbfbf" points="360,-56.5 360,-75.5 410,-75.5 410,-56.5 360,-56.5"/>
<text text-anchor="middle" x="385" y="-63.5" font-family="Helvetica,sans-Serif" font-size="10.00">fstream</text>
</a>
</g>
</g>
<!-- Node30&#45;&gt;Node31 -->
<g id="edge66" class="edge">
<title>Node30&#45;&gt;Node31</title>
<path fill="none" stroke="midnightblue" d="M373.31,-112.08C375.17,-104.93 377.84,-94.64 380.15,-85.69"/>
<polygon fill="midnightblue" stroke="midnightblue" points="383.61,-86.31 382.73,-75.75 376.83,-84.55 383.61,-86.31"/>
</g>
</g>
</svg>
