<?xml version="1.0" encoding="UTF-8" standalone="no"?>
<!DOCTYPE svg PUBLIC "-//W3C//DTD SVG 1.1//EN"
 "http://www.w3.org/Graphics/SVG/1.1/DTD/svg11.dtd">
<!-- Generated by graphviz version 2.49.3 (20211027.1501)
 -->
<!-- Title: /github/workspace/src/renderer/vulkan/shader.h Pages: 1 -->
<!--zoomable 375 -->
<svg id="main" version="1.1" xmlns="http://www.w3.org/2000/svg" xmlns:xlink="http://www.w3.org/1999/xlink" xml:space="preserve" onload="init(evt)">
<style type="text/css"><![CDATA[
.edge:hover path { stroke: red; }
.edge:hover polygon { stroke: red; fill: red; }
]]></style>
<script type="text/javascript"><![CDATA[
var edges = document.getElementsByTagName('g');
if (edges && edges.length) {
  for (var i=0;i<edges.length;i++) {
    if (edges[i].id.substr(0,4)=='edge') {
      edges[i].setAttribute('class','edge');
    }
  }
}
]]></script>
        <defs>
                <circle id="rim" cx="0" cy="0" r="7"/>
                <circle id="rim2" cx="0" cy="0" r="3.5"/>
                <g id="zoomPlus">
                        <use xlink:href="#rim" fill="#404040">
                                <set attributeName="fill" to="#808080" begin="zoomplus.mouseover" end="zoomplus.mouseout"/>
                        </use>
                        <path d="M-4,0h8M0,-4v8" fill="none" stroke="white" stroke-width="1.5" pointer-events="none"/>
                </g>
                <g id="zoomMin">
                        <use xlink:href="#rim" fill="#404040">
                                <set attributeName="fill" to="#808080" begin="zoomminus.mouseover" end="zoomminus.mouseout"/>
                        </use>
                        <path d="M-4,0h8" fill="none" stroke="white" stroke-width="1.5" pointer-events="none"/>
                </g>
                <g id="dirArrow">
                        <path fill="none" stroke="white" stroke-width="1.5" d="M0,-3.0v7 M-2.5,-0.5L0,-3.0L2.5,-0.5"/>
                </g>
               <g id="resetDef">
                       <use xlink:href="#rim2" fill="#404040">
                               <set attributeName="fill" to="#808080" begin="reset.mouseover" end="reset.mouseout"/>
                       </use>
               </g>
        </defs>

<script type="text/javascript">
var viewWidth = 1554;
var viewHeight = 375;
var sectionId = 'dynsection-0';
</script>
<script xlink:href="svgpan.js"/>
<svg id="graph" class="graph">
<g id="viewport">
<title>/github/workspace/src/renderer/vulkan/shader.h</title>
<!-- Node1 -->
<g id="node1" class="node">
<title>Node1</title>
<g id="a_node1"><a xlink:title=" ">
<polygon fill="#bfbfbf" stroke="black" points="1235,-336.5 1235,-366.5 1361,-366.5 1361,-336.5 1235,-336.5"/>
<text text-anchor="start" x="1243" y="-354.5" font-family="Helvetica,sans-Serif" font-size="10.00">/github/workspace/src</text>
<text text-anchor="middle" x="1298" y="-343.5" font-family="Helvetica,sans-Serif" font-size="10.00">/renderer/vulkan/shader.h</text>
</a>
</g>
</g>
<!-- Node2 -->
<g id="node2" class="node">
<title>Node2</title>
<g id="a_node2"><a xlink:title=" ">
<polygon fill="none" stroke="#bfbfbf" points="1070,-0.5 1070,-19.5 1154,-19.5 1154,-0.5 1070,-0.5"/>
<text text-anchor="middle" x="1112" y="-7.5" font-family="Helvetica,sans-Serif" font-size="10.00">vulkan/vulkan.h</text>
</a>
</g>
</g>
<!-- Node1&#45;&gt;Node2 -->
<g id="edge1" class="edge">
<title>Node1&#45;&gt;Node2</title>
<path fill="none" stroke="midnightblue" d="M1361.22,-347.68C1434.7,-340.61 1546,-316.46 1546,-235 1546,-235 1546,-235 1546,-121 1546,-43 1279.27,-19.69 1164.02,-13.26"/>
<polygon fill="midnightblue" stroke="midnightblue" points="1164.18,-9.77 1154.01,-12.73 1163.81,-16.76 1164.18,-9.77"/>
</g>
<!-- Node3 -->
<g id="node3" class="node">
<title>Node3</title>
<g id="a_node3"><a xlink:title=" ">
<polygon fill="none" stroke="#bfbfbf" points="967.5,-280.5 967.5,-299.5 1016.5,-299.5 1016.5,-280.5 967.5,-280.5"/>
<text text-anchor="middle" x="992" y="-287.5" font-family="Helvetica,sans-Serif" font-size="10.00">cassert</text>
</a>
</g>
</g>
<!-- Node1&#45;&gt;Node3 -->
<g id="edge2" class="edge">
<title>Node1&#45;&gt;Node3</title>
<path fill="none" stroke="midnightblue" d="M1234.79,-340.15C1181.76,-331.15 1103.82,-317.19 1026.72,-300.02"/>
<polygon fill="midnightblue" stroke="midnightblue" points="1027.35,-296.58 1016.83,-297.8 1025.82,-303.41 1027.35,-296.58"/>
</g>
<!-- Node4 -->
<g id="node4" class="node">
<title>Node4</title>
<g id="a_node4"><a xlink:title=" ">
<polygon fill="none" stroke="#bfbfbf" points="963.5,-56.5 963.5,-75.5 1022.5,-75.5 1022.5,-56.5 963.5,-56.5"/>
<text text-anchor="middle" x="993" y="-63.5" font-family="Helvetica,sans-Serif" font-size="10.00">stdexcept</text>
</a>
</g>
</g>
<!-- Node1&#45;&gt;Node4 -->
<g id="edge3" class="edge">
<title>Node1&#45;&gt;Node4</title>
<path fill="none" stroke="midnightblue" d="M1282.88,-336.44C1231.43,-288.62 1063.41,-132.45 1009.68,-82.51"/>
<polygon fill="midnightblue" stroke="midnightblue" points="1012.05,-79.93 1002.34,-75.68 1007.28,-85.06 1012.05,-79.93"/>
</g>
<!-- Node5 -->
<g id="node5" class="node">
<title>Node5</title>
<g id="a_node5"><a xlink:title=" ">
<polygon fill="none" stroke="#bfbfbf" points="288,-0.5 288,-19.5 332,-19.5 332,-0.5 288,-0.5"/>
<text text-anchor="middle" x="310" y="-7.5" font-family="Helvetica,sans-Serif" font-size="10.00">vector</text>
</a>
</g>
</g>
<!-- Node1&#45;&gt;Node5 -->
<g id="edge4" class="edge">
<title>Node1&#45;&gt;Node5</title>
<path fill="none" stroke="midnightblue" d="M1234.87,-348.54C1001.24,-340.81 194.31,-309.55 101,-244 71.79,-223.48 65.84,-202.5 75,-168 82.36,-140.29 88.94,-134.26 107,-112 130.6,-82.91 137.47,-74.58 170,-56 204.36,-36.38 248.42,-24.03 277.85,-17.33"/>
<polygon fill="midnightblue" stroke="midnightblue" points="278.96,-20.67 287.98,-15.11 277.47,-13.83 278.96,-20.67"/>
</g>
<!-- Node6 -->
<g id="node6" class="node">
<title>Node6</title>
<g id="a_node6"><a xlink:title=" ">
<polygon fill="none" stroke="#bfbfbf" points="1278.5,-56.5 1278.5,-75.5 1319.5,-75.5 1319.5,-56.5 1278.5,-56.5"/>
<text text-anchor="middle" x="1299" y="-63.5" font-family="Helvetica,sans-Serif" font-size="10.00">string</text>
</a>
</g>
</g>
<!-- Node1&#45;&gt;Node6 -->
<g id="edge5" class="edge">
<title>Node1&#45;&gt;Node6</title>
<path fill="none" stroke="midnightblue" d="M1305.87,-336.41C1317,-315.13 1336,-273.21 1336,-235 1336,-235 1336,-235 1336,-177 1336,-142.89 1319.82,-105.79 1308.86,-84.57"/>
<polygon fill="midnightblue" stroke="midnightblue" points="1311.81,-82.66 1303.99,-75.51 1305.64,-85.98 1311.81,-82.66"/>
</g>
<!-- Node7 -->
<g id="node7" class="node">
<title>Node7</title>
<g id="a_node7"><a xlink:href="device_8h.html" target="_top" xlink:title=" ">
<polygon fill="none" stroke="black" points="1034.5,-280.5 1034.5,-299.5 1087.5,-299.5 1087.5,-280.5 1034.5,-280.5"/>
<text text-anchor="middle" x="1061" y="-287.5" font-family="Helvetica,sans-Serif" font-size="10.00">device.h</text>
</a>
</g>
</g>
<!-- Node1&#45;&gt;Node7 -->
<g id="edge6" class="edge">
<title>Node1&#45;&gt;Node7</title>
<path fill="none" stroke="midnightblue" d="M1242.13,-336.47C1197.41,-325.25 1135.99,-309.83 1097.4,-300.14"/>
<polygon fill="midnightblue" stroke="midnightblue" points="1098.18,-296.73 1087.63,-297.69 1096.48,-303.52 1098.18,-296.73"/>
</g>
<!-- Node28 -->
<g id="node28" class="node">
<title>Node28</title>
<g id="a_node28"><a xlink:href="utils_8h.html" target="_top" xlink:title=" ">
<polygon fill="none" stroke="black" points="1364,-112.5 1364,-131.5 1442,-131.5 1442,-112.5 1364,-112.5"/>
<text text-anchor="middle" x="1403" y="-119.5" font-family="Helvetica,sans-Serif" font-size="10.00">../../utils/utils.h</text>
</a>
</g>
</g>
<!-- Node1&#45;&gt;Node28 -->
<g id="edge61" class="edge">
<title>Node1&#45;&gt;Node28</title>
<path fill="none" stroke="midnightblue" d="M1316.72,-336.43C1327.83,-327.18 1341.38,-314.2 1350,-300 1381.56,-248 1395.45,-175.91 1400.52,-142.03"/>
<polygon fill="midnightblue" stroke="midnightblue" points="1404.05,-142.13 1401.97,-131.74 1397.11,-141.15 1404.05,-142.13"/>
</g>
<!-- Node7&#45;&gt;Node2 -->
<g id="edge7" class="edge">
<title>Node7&#45;&gt;Node2</title>
<path fill="none" stroke="midnightblue" d="M1087.5,-287.82C1160.69,-282.94 1365.82,-258.11 1451,-132 1463.59,-113.36 1452.51,-69.93 1437,-56 1397.83,-20.83 1245.79,-12.99 1164.29,-11.34"/>
<polygon fill="midnightblue" stroke="midnightblue" points="1164.29,-7.84 1154.23,-11.17 1164.17,-14.84 1164.29,-7.84"/>
</g>
<!-- Node7&#45;&gt;Node4 -->
<g id="edge10" class="edge">
<title>Node7&#45;&gt;Node4</title>
<path fill="none" stroke="midnightblue" d="M1060.45,-280.49C1058.5,-254.25 1050.46,-172.71 1023,-112 1018.56,-102.18 1012.07,-92.12 1006.26,-84.01"/>
<polygon fill="midnightblue" stroke="midnightblue" points="1008.92,-81.72 1000.13,-75.79 1003.31,-85.9 1008.92,-81.72"/>
</g>
<!-- Node7&#45;&gt;Node5 -->
<g id="edge9" class="edge">
<title>Node7&#45;&gt;Node5</title>
<path fill="none" stroke="midnightblue" d="M1034.37,-281.53C1031.56,-280.93 1028.73,-280.4 1026,-280 929.08,-265.72 235.55,-281.41 145,-244 104.97,-227.46 63.93,-206.38 84,-168 125.3,-89.02 226.43,-41.77 278.25,-21.95"/>
<polygon fill="midnightblue" stroke="midnightblue" points="279.78,-25.12 287.93,-18.35 277.34,-18.56 279.78,-25.12"/>
</g>
<!-- Node7&#45;&gt;Node6 -->
<g id="edge11" class="edge">
<title>Node7&#45;&gt;Node6</title>
<path fill="none" stroke="midnightblue" d="M1079.94,-280.37C1096.65,-272.27 1121.2,-259.15 1140,-244 1202.62,-193.53 1261.96,-117.45 1286.79,-83.91"/>
<polygon fill="midnightblue" stroke="midnightblue" points="1289.76,-85.77 1292.85,-75.63 1284.11,-81.63 1289.76,-85.77"/>
</g>
<!-- Node8 -->
<g id="node8" class="node">
<title>Node8</title>
<g id="a_node8"><a xlink:title=" ">
<polygon fill="none" stroke="#bfbfbf" points="1173.5,-56.5 1173.5,-75.5 1260.5,-75.5 1260.5,-56.5 1173.5,-56.5"/>
<text text-anchor="middle" x="1217" y="-63.5" font-family="Helvetica,sans-Serif" font-size="10.00">vk_mem_alloc.h</text>
</a>
</g>
</g>
<!-- Node7&#45;&gt;Node8 -->
<g id="edge8" class="edge">
<title>Node7&#45;&gt;Node8</title>
<path fill="none" stroke="midnightblue" d="M1072.64,-280.27C1100.5,-258.65 1171.1,-199.44 1203,-132 1209.94,-117.33 1213.48,-99.16 1215.26,-85.77"/>
<polygon fill="midnightblue" stroke="midnightblue" points="1218.74,-86.15 1216.38,-75.82 1211.78,-85.36 1218.74,-86.15"/>
</g>
<!-- Node9 -->
<g id="node9" class="node">
<title>Node9</title>
<g id="a_node9"><a xlink:title=" ">
<polygon fill="none" stroke="#bfbfbf" points="93,-168.5 93,-187.5 123,-187.5 123,-168.5 93,-168.5"/>
<text text-anchor="middle" x="108" y="-175.5" font-family="Helvetica,sans-Serif" font-size="10.00">set</text>
</a>
</g>
</g>
<!-- Node7&#45;&gt;Node9 -->
<g id="edge12" class="edge">
<title>Node7&#45;&gt;Node9</title>
<path fill="none" stroke="midnightblue" d="M1034.36,-281.54C1031.56,-280.94 1028.73,-280.4 1026,-280 840.08,-252.45 355.19,-314.59 181,-244 156.05,-233.89 133.99,-211.35 120.82,-195.67"/>
<polygon fill="midnightblue" stroke="midnightblue" points="123.46,-193.37 114.46,-187.79 118.02,-197.77 123.46,-193.37"/>
</g>
<!-- Node10 -->
<g id="node10" class="node">
<title>Node10</title>
<g id="a_node10"><a xlink:title=" ">
<polygon fill="none" stroke="#bfbfbf" points="806,-0.5 806,-19.5 852,-19.5 852,-0.5 806,-0.5"/>
<text text-anchor="middle" x="829" y="-7.5" font-family="Helvetica,sans-Serif" font-size="10.00">cstring</text>
</a>
</g>
</g>
<!-- Node7&#45;&gt;Node10 -->
<g id="edge13" class="edge">
<title>Node7&#45;&gt;Node10</title>
<path fill="none" stroke="midnightblue" d="M1087.52,-287.62C1178.15,-282.18 1470,-258.5 1470,-179 1470,-179 1470,-179 1470,-121 1470,-88.6 1463.97,-73.96 1437,-56 1412.9,-39.95 985.58,-18.45 862.14,-12.55"/>
<polygon fill="midnightblue" stroke="midnightblue" points="862.29,-9.06 852.14,-12.08 861.96,-16.05 862.29,-9.06"/>
</g>
<!-- Node11 -->
<g id="node11" class="node">
<title>Node11</title>
<g id="a_node11"><a xlink:title=" ">
<polygon fill="none" stroke="#bfbfbf" points="0,-0.5 0,-19.5 54,-19.5 54,-0.5 0,-0.5"/>
<text text-anchor="middle" x="27" y="-7.5" font-family="Helvetica,sans-Serif" font-size="10.00">iostream</text>
</a>
</g>
</g>
<!-- Node7&#45;&gt;Node11 -->
<g id="edge14" class="edge">
<title>Node7&#45;&gt;Node11</title>
<path fill="none" stroke="midnightblue" d="M1034.37,-281.53C1031.56,-280.93 1028.73,-280.4 1026,-280 924.23,-265.11 186.61,-301.01 101,-244 29.03,-196.07 24.74,-76.86 25.99,-30.18"/>
<polygon fill="midnightblue" stroke="midnightblue" points="29.5,-30.09 26.39,-19.96 22.51,-29.82 29.5,-30.09"/>
</g>
<!-- Node12 -->
<g id="node12" class="node">
<title>Node12</title>
<g id="a_node12"><a xlink:title=" ">
<polygon fill="none" stroke="#bfbfbf" points="972.5,-112.5 972.5,-131.5 1013.5,-131.5 1013.5,-112.5 972.5,-112.5"/>
<text text-anchor="middle" x="993" y="-119.5" font-family="Helvetica,sans-Serif" font-size="10.00">bitset</text>
</a>
</g>
</g>
<!-- Node7&#45;&gt;Node12 -->
<g id="edge15" class="edge">
<title>Node7&#45;&gt;Node12</title>
<path fill="none" stroke="midnightblue" d="M1057.34,-280.08C1046.59,-253.83 1014.93,-176.55 1000.42,-141.12"/>
<polygon fill="midnightblue" stroke="midnightblue" points="1003.54,-139.5 996.51,-131.57 997.06,-142.15 1003.54,-139.5"/>
</g>
<!-- Node13 -->
<g id="node13" class="node">
<title>Node13</title>
<g id="a_node13"><a xlink:title=" ">
<polygon fill="none" stroke="#bfbfbf" points="140.5,-168.5 140.5,-187.5 191.5,-187.5 191.5,-168.5 140.5,-168.5"/>
<text text-anchor="middle" x="166" y="-175.5" font-family="Helvetica,sans-Serif" font-size="10.00">memory</text>
</a>
</g>
</g>
<!-- Node7&#45;&gt;Node13 -->
<g id="edge16" class="edge">
<title>Node7&#45;&gt;Node13</title>
<path fill="none" stroke="midnightblue" d="M1034.36,-281.54C1031.56,-280.94 1028.73,-280.41 1026,-280 935.8,-266.57 284.62,-290.22 206,-244 188.55,-233.74 177.68,-212.58 171.76,-197.19"/>
<polygon fill="midnightblue" stroke="midnightblue" points="175.03,-195.93 168.42,-187.65 168.42,-198.24 175.03,-195.93"/>
</g>
<!-- Node14 -->
<g id="node14" class="node">
<title>Node14</title>
<g id="a_node14"><a xlink:href="physicaldevice_8h.html" target="_top" xlink:title=" ">
<polygon fill="none" stroke="black" points="387,-224.5 387,-243.5 475,-243.5 475,-224.5 387,-224.5"/>
<text text-anchor="middle" x="431" y="-231.5" font-family="Helvetica,sans-Serif" font-size="10.00">physicaldevice.h</text>
</a>
</g>
</g>
<!-- Node7&#45;&gt;Node14 -->
<g id="edge17" class="edge">
<title>Node7&#45;&gt;Node14</title>
<path fill="none" stroke="midnightblue" d="M1034.35,-281.63C1031.55,-281.01 1028.72,-280.45 1026,-280 828.66,-247.43 590.55,-238.39 485.41,-235.92"/>
<polygon fill="midnightblue" stroke="midnightblue" points="485.43,-232.42 475.36,-235.69 485.28,-239.41 485.43,-232.42"/>
</g>
<!-- Node19 -->
<g id="node19" class="node">
<title>Node19</title>
<g id="a_node19"><a xlink:href="instance_8h.html" target="_top" xlink:title=" ">
<polygon fill="none" stroke="black" points="338.5,-56.5 338.5,-75.5 399.5,-75.5 399.5,-56.5 338.5,-56.5"/>
<text text-anchor="middle" x="369" y="-63.5" font-family="Helvetica,sans-Serif" font-size="10.00">instance.h</text>
</a>
</g>
</g>
<!-- Node7&#45;&gt;Node19 -->
<g id="edge60" class="edge">
<title>Node7&#45;&gt;Node19</title>
<path fill="none" stroke="midnightblue" d="M1034.36,-281.58C1031.55,-280.97 1028.73,-280.42 1026,-280 954.74,-268.97 438.27,-283.6 378,-244 325.44,-209.46 303.94,-170.51 327,-112 331.51,-100.55 340.47,-90.29 348.95,-82.47"/>
<polygon fill="midnightblue" stroke="midnightblue" points="351.47,-84.93 356.79,-75.76 346.91,-79.61 351.47,-84.93"/>
</g>
<!-- Node14&#45;&gt;Node5 -->
<g id="edge23" class="edge">
<title>Node14&#45;&gt;Node5</title>
<path fill="none" stroke="midnightblue" d="M406.52,-224.49C388.77,-217.22 365.28,-205.19 350,-188 308.91,-141.78 303.26,-117.78 306,-56 306.38,-47.37 307.18,-37.84 307.96,-29.78"/>
<polygon fill="midnightblue" stroke="midnightblue" points="311.46,-29.92 309.01,-19.61 304.5,-29.2 311.46,-29.92"/>
</g>
<!-- Node14&#45;&gt;Node6 -->
<g id="edge19" class="edge">
<title>Node14&#45;&gt;Node6</title>
<path fill="none" stroke="midnightblue" d="M475.2,-230.17C618.52,-220.53 1068.86,-186.53 1203,-132 1232.96,-119.82 1263.14,-97.32 1281.45,-82.25"/>
<polygon fill="midnightblue" stroke="midnightblue" points="1284.04,-84.65 1289.44,-75.53 1279.53,-79.29 1284.04,-84.65"/>
</g>
<!-- Node14&#45;&gt;Node9 -->
<g id="edge20" class="edge">
<title>Node14&#45;&gt;Node9</title>
<path fill="none" stroke="midnightblue" d="M386.85,-229.27C329.94,-223.83 227.97,-211.92 132.85,-187.74"/>
<polygon fill="midnightblue" stroke="midnightblue" points="133.64,-184.32 123.08,-185.2 131.88,-191.1 133.64,-184.32"/>
</g>
<!-- Node14&#45;&gt;Node11 -->
<g id="edge21" class="edge">
<title>Node14&#45;&gt;Node11</title>
<path fill="none" stroke="midnightblue" d="M409.79,-224.35C389.14,-215.74 356.99,-201.84 330,-188 222.04,-132.63 98.67,-56.28 49.21,-25.11"/>
<polygon fill="midnightblue" stroke="midnightblue" points="50.91,-22.05 40.59,-19.67 47.18,-27.97 50.91,-22.05"/>
</g>
<!-- Node14&#45;&gt;Node12 -->
<g id="edge22" class="edge">
<title>Node14&#45;&gt;Node12</title>
<path fill="none" stroke="midnightblue" d="M475.24,-229.29C540.32,-223.34 665.43,-210.05 770,-188 839.99,-173.24 920.05,-147.73 962.62,-133.45"/>
<polygon fill="midnightblue" stroke="midnightblue" points="964.01,-136.68 972.36,-130.16 961.77,-130.05 964.01,-136.68"/>
</g>
<!-- Node14&#45;&gt;Node13 -->
<g id="edge24" class="edge">
<title>Node14&#45;&gt;Node13</title>
<path fill="none" stroke="midnightblue" d="M389.01,-224.44C337.34,-213.92 250.5,-196.22 201.83,-186.3"/>
<polygon fill="midnightblue" stroke="midnightblue" points="202.26,-182.82 191.77,-184.25 200.87,-189.68 202.26,-182.82"/>
</g>
<!-- Node15 -->
<g id="node15" class="node">
<title>Node15</title>
<g id="a_node15"><a xlink:title=" ">
<polygon fill="none" stroke="#bfbfbf" points="444,-112.5 444,-131.5 552,-131.5 552,-112.5 444,-112.5"/>
<text text-anchor="middle" x="498" y="-119.5" font-family="Helvetica,sans-Serif" font-size="10.00">vulkan/vulkan_core.h</text>
</a>
</g>
</g>
<!-- Node14&#45;&gt;Node15 -->
<g id="edge18" class="edge">
<title>Node14&#45;&gt;Node15</title>
<path fill="none" stroke="midnightblue" d="M436.26,-224.37C447.27,-206.3 472.92,-164.18 487.46,-140.31"/>
<polygon fill="midnightblue" stroke="midnightblue" points="490.55,-141.95 492.77,-131.59 484.58,-138.31 490.55,-141.95"/>
</g>
<!-- Node16 -->
<g id="node16" class="node">
<title>Node16</title>
<g id="a_node16"><a xlink:href="types_8h.html" target="_top" xlink:title=" ">
<polygon fill="none" stroke="black" points="380.5,-168.5 380.5,-187.5 427.5,-187.5 427.5,-168.5 380.5,-168.5"/>
<text text-anchor="middle" x="404" y="-175.5" font-family="Helvetica,sans-Serif" font-size="10.00">types.h</text>
</a>
</g>
</g>
<!-- Node14&#45;&gt;Node16 -->
<g id="edge25" class="edge">
<title>Node14&#45;&gt;Node16</title>
<path fill="none" stroke="midnightblue" d="M426.54,-224.08C422.85,-216.69 417.48,-205.95 412.91,-196.81"/>
<polygon fill="midnightblue" stroke="midnightblue" points="415.98,-195.13 408.38,-187.75 409.72,-198.26 415.98,-195.13"/>
</g>
<!-- Node18 -->
<g id="node18" class="node">
<title>Node18</title>
<g id="a_node18"><a xlink:href="vulkanclass_8h.html" target="_top" xlink:title=" ">
<polygon fill="none" stroke="black" points="1041,-56.5 1041,-75.5 1117,-75.5 1117,-56.5 1041,-56.5"/>
<text text-anchor="middle" x="1079" y="-63.5" font-family="Helvetica,sans-Serif" font-size="10.00">vulkanclass.h</text>
</a>
</g>
</g>
<!-- Node14&#45;&gt;Node18 -->
<g id="edge29" class="edge">
<title>Node14&#45;&gt;Node18</title>
<path fill="none" stroke="midnightblue" d="M475.11,-229.89C596.28,-220.66 931.31,-190.38 1023,-132 1042.17,-119.79 1058.38,-99.05 1068.35,-84.28"/>
<polygon fill="midnightblue" stroke="midnightblue" points="1071.48,-85.88 1073.97,-75.58 1065.6,-82.08 1071.48,-85.88"/>
</g>
<!-- Node14&#45;&gt;Node19 -->
<g id="edge31" class="edge">
<title>Node14&#45;&gt;Node19</title>
<path fill="none" stroke="midnightblue" d="M411.08,-224.41C383.96,-209.32 338.35,-175.46 325,-132 322.39,-123.5 322.12,-120.41 325,-112 328.84,-100.82 336.71,-90.28 344.94,-82.21"/>
<polygon fill="midnightblue" stroke="midnightblue" points="347.3,-84.79 352.48,-75.55 342.67,-79.54 347.3,-84.79"/>
</g>
<!-- Node21 -->
<g id="node21" class="node">
<title>Node21</title>
<g id="a_node21"><a xlink:href="queues_8h.html" target="_top" xlink:title=" ">
<polygon fill="none" stroke="black" points="705,-168.5 705,-187.5 761,-187.5 761,-168.5 705,-168.5"/>
<text text-anchor="middle" x="733" y="-175.5" font-family="Helvetica,sans-Serif" font-size="10.00">queues.h</text>
</a>
</g>
</g>
<!-- Node14&#45;&gt;Node21 -->
<g id="edge38" class="edge">
<title>Node14&#45;&gt;Node21</title>
<path fill="none" stroke="midnightblue" d="M473.76,-224.44C532.88,-213.44 638.41,-194.61 694.95,-185.01"/>
<polygon fill="midnightblue" stroke="midnightblue" points="695.63,-188.44 704.91,-183.33 694.47,-181.54 695.63,-188.44"/>
</g>
<!-- Node16&#45;&gt;Node2 -->
<g id="edge26" class="edge">
<title>Node16&#45;&gt;Node2</title>
<path fill="none" stroke="midnightblue" d="M392.62,-168.31C376.71,-155.14 351.45,-129.8 367,-112 412.72,-59.67 897.88,-24.51 1059.76,-14.17"/>
<polygon fill="midnightblue" stroke="midnightblue" points="1060.19,-17.65 1069.95,-13.52 1059.75,-10.66 1060.19,-17.65"/>
</g>
<!-- Node16&#45;&gt;Node5 -->
<g id="edge27" class="edge">
<title>Node16&#45;&gt;Node5</title>
<path fill="none" stroke="midnightblue" d="M381.92,-168.42C366.1,-161.12 345.62,-149.08 334,-132 312.79,-100.83 309.4,-55.31 309.35,-29.92"/>
<polygon fill="midnightblue" stroke="midnightblue" points="312.85,-29.84 309.51,-19.79 305.86,-29.73 312.85,-29.84"/>
</g>
<!-- Node17 -->
<g id="node17" class="node">
<title>Node17</title>
<g id="a_node17"><a xlink:title=" ">
<polygon fill="none" stroke="#bfbfbf" points="376,-112.5 376,-131.5 426,-131.5 426,-112.5 376,-112.5"/>
<text text-anchor="middle" x="401" y="-119.5" font-family="Helvetica,sans-Serif" font-size="10.00">optional</text>
</a>
</g>
</g>
<!-- Node16&#45;&gt;Node17 -->
<g id="edge28" class="edge">
<title>Node16&#45;&gt;Node17</title>
<path fill="none" stroke="midnightblue" d="M403.5,-168.08C403.11,-161.01 402.55,-150.86 402.05,-141.99"/>
<polygon fill="midnightblue" stroke="midnightblue" points="405.54,-141.54 401.49,-131.75 398.55,-141.93 405.54,-141.54"/>
</g>
<!-- Node18&#45;&gt;Node2 -->
<g id="edge30" class="edge">
<title>Node18&#45;&gt;Node2</title>
<path fill="none" stroke="midnightblue" d="M1084.45,-56.08C1089.01,-48.61 1095.67,-37.72 1101.29,-28.52"/>
<polygon fill="midnightblue" stroke="midnightblue" points="1104.42,-30.11 1106.65,-19.75 1098.45,-26.46 1104.42,-30.11"/>
</g>
<!-- Node19&#45;&gt;Node2 -->
<g id="edge32" class="edge">
<title>Node19&#45;&gt;Node2</title>
<path fill="none" stroke="midnightblue" d="M399.51,-62.78C513.4,-54.51 914.51,-25.35 1059.34,-14.83"/>
<polygon fill="midnightblue" stroke="midnightblue" points="1060,-18.29 1069.72,-14.07 1059.5,-11.31 1060,-18.29"/>
</g>
<!-- Node19&#45;&gt;Node5 -->
<g id="edge34" class="edge">
<title>Node19&#45;&gt;Node5</title>
<path fill="none" stroke="midnightblue" d="M359.52,-56.32C350.8,-48.34 337.66,-36.31 327.1,-26.65"/>
<polygon fill="midnightblue" stroke="midnightblue" points="329.39,-24 319.65,-19.83 324.67,-29.17 329.39,-24"/>
</g>
<!-- Node19&#45;&gt;Node10 -->
<g id="edge35" class="edge">
<title>Node19&#45;&gt;Node10</title>
<path fill="none" stroke="midnightblue" d="M399.54,-61.42C482.27,-51.7 710.25,-24.94 795.9,-14.89"/>
<polygon fill="midnightblue" stroke="midnightblue" points="796.33,-18.36 805.86,-13.72 795.52,-11.41 796.33,-18.36"/>
</g>
<!-- Node19&#45;&gt;Node11 -->
<g id="edge36" class="edge">
<title>Node19&#45;&gt;Node11</title>
<path fill="none" stroke="midnightblue" d="M338.35,-60.16C275.63,-50.26 132.83,-27.71 64.62,-16.94"/>
<polygon fill="midnightblue" stroke="midnightblue" points="64.76,-13.42 54.34,-15.32 63.67,-20.33 64.76,-13.42"/>
</g>
<!-- Node19&#45;&gt;Node14 -->
<g id="edge37" class="edge">
<title>Node19&#45;&gt;Node14</title>
<path fill="none" stroke="midnightblue" d="M366.41,-75.55C359.91,-83.88 348.01,-97.4 343,-112 340.12,-120.41 340.39,-123.5 343,-132 354.79,-170.37 391.71,-201.25 414.03,-218.35"/>
<polygon fill="midnightblue" stroke="midnightblue" points="411.97,-221.18 422.06,-224.41 416.19,-215.59 411.97,-221.18"/>
</g>
<!-- Node20 -->
<g id="node20" class="node">
<title>Node20</title>
<g id="a_node20"><a xlink:title=" ">
<polygon fill="none" stroke="#bfbfbf" points="440.5,-0.5 440.5,-19.5 519.5,-19.5 519.5,-0.5 440.5,-0.5"/>
<text text-anchor="middle" x="480" y="-7.5" font-family="Helvetica,sans-Serif" font-size="10.00">GLFW/glfw3.h</text>
</a>
</g>
</g>
<!-- Node19&#45;&gt;Node20 -->
<g id="edge33" class="edge">
<title>Node19&#45;&gt;Node20</title>
<path fill="none" stroke="midnightblue" d="M386.83,-56.32C404.72,-47.62 432.48,-34.12 453.05,-24.11"/>
<polygon fill="midnightblue" stroke="midnightblue" points="454.75,-27.18 462.21,-19.65 451.69,-20.88 454.75,-27.18"/>
</g>
<!-- Node21&#45;&gt;Node5 -->
<g id="edge40" class="edge">
<title>Node21&#45;&gt;Node5</title>
<path fill="none" stroke="midnightblue" d="M704.79,-168.78C677.55,-160.54 635.36,-146.95 600,-132 582.06,-124.41 578.72,-120.09 561,-112 483.41,-76.58 389.61,-40.59 341.63,-22.66"/>
<polygon fill="midnightblue" stroke="midnightblue" points="342.7,-19.33 332.11,-19.12 340.26,-25.89 342.7,-19.33"/>
</g>
<!-- Node21&#45;&gt;Node7 -->
<g id="edge48" class="edge">
<title>Node21&#45;&gt;Node7</title>
<path fill="none" stroke="midnightblue" d="M758.67,-187.61C817,-207.17 959.57,-254.98 1025.94,-277.24"/>
<polygon fill="midnightblue" stroke="midnightblue" points="1024.94,-280.6 1035.54,-280.46 1027.17,-273.96 1024.94,-280.6"/>
</g>
<!-- Node21&#45;&gt;Node12 -->
<g id="edge44" class="edge">
<title>Node21&#45;&gt;Node12</title>
<path fill="none" stroke="midnightblue" d="M761.17,-171.88C803.88,-163.99 887.51,-148.1 958,-132 959.45,-131.67 960.94,-131.32 962.43,-130.96"/>
<polygon fill="midnightblue" stroke="midnightblue" points="963.45,-134.32 972.32,-128.52 961.77,-127.52 963.45,-134.32"/>
</g>
<!-- Node21&#45;&gt;Node14 -->
<g id="edge49" class="edge">
<title>Node21&#45;&gt;Node14</title>
<path fill="none" stroke="midnightblue" d="M704.83,-184.82C654.7,-194.3 549.69,-213.12 485.2,-224.23"/>
<polygon fill="midnightblue" stroke="midnightblue" points="484.48,-220.8 475.21,-225.94 485.66,-227.7 484.48,-220.8"/>
</g>
<!-- Node21&#45;&gt;Node15 -->
<g id="edge39" class="edge">
<title>Node21&#45;&gt;Node15</title>
<path fill="none" stroke="midnightblue" d="M704.65,-170.49C665.11,-161.4 592.87,-144.8 545.15,-133.83"/>
<polygon fill="midnightblue" stroke="midnightblue" points="545.88,-130.41 535.36,-131.58 544.32,-137.23 545.88,-130.41"/>
</g>
<!-- Node21&#45;&gt;Node17 -->
<g id="edge43" class="edge">
<title>Node21&#45;&gt;Node17</title>
<path fill="none" stroke="midnightblue" d="M704.88,-173.79C653.47,-167.7 540.71,-153.32 436.26,-132.07"/>
<polygon fill="midnightblue" stroke="midnightblue" points="436.68,-128.58 426.18,-129.99 435.27,-135.44 436.68,-128.58"/>
</g>
<!-- Node21&#45;&gt;Node18 -->
<g id="edge47" class="edge">
<title>Node21&#45;&gt;Node18</title>
<path fill="none" stroke="midnightblue" d="M761.28,-172.6C799.29,-166.18 868.6,-152.72 925,-132 943.29,-125.28 946.24,-120 964,-112 990.9,-99.88 1022.12,-87.78 1045.23,-79.19"/>
<polygon fill="midnightblue" stroke="midnightblue" points="1046.75,-82.36 1054.92,-75.62 1044.33,-75.79 1046.75,-82.36"/>
</g>
<!-- Node22 -->
<g id="node22" class="node">
<title>Node22</title>
<g id="a_node22"><a xlink:title=" ">
<polygon fill="none" stroke="#bfbfbf" points="744.5,-112.5 744.5,-131.5 779.5,-131.5 779.5,-112.5 744.5,-112.5"/>
<text text-anchor="middle" x="762" y="-119.5" font-family="Helvetica,sans-Serif" font-size="10.00">map</text>
</a>
</g>
</g>
<!-- Node21&#45;&gt;Node22 -->
<g id="edge41" class="edge">
<title>Node21&#45;&gt;Node22</title>
<path fill="none" stroke="midnightblue" d="M737.79,-168.08C741.76,-160.69 747.53,-149.95 752.43,-140.81"/>
<polygon fill="midnightblue" stroke="midnightblue" points="755.65,-142.22 757.3,-131.75 749.49,-138.91 755.65,-142.22"/>
</g>
<!-- Node23 -->
<g id="node23" class="node">
<title>Node23</title>
<g id="a_node23"><a xlink:title=" ">
<polygon fill="none" stroke="#bfbfbf" points="798,-112.5 798,-131.5 854,-131.5 854,-112.5 798,-112.5"/>
<text text-anchor="middle" x="826" y="-119.5" font-family="Helvetica,sans-Serif" font-size="10.00">algorithm</text>
</a>
</g>
</g>
<!-- Node21&#45;&gt;Node23 -->
<g id="edge42" class="edge">
<title>Node21&#45;&gt;Node23</title>
<path fill="none" stroke="midnightblue" d="M747.94,-168.32C762.59,-159.82 785.13,-146.73 802.24,-136.8"/>
<polygon fill="midnightblue" stroke="midnightblue" points="804.2,-139.7 811.1,-131.65 800.69,-133.65 804.2,-139.7"/>
</g>
<!-- Node24 -->
<g id="node24" class="node">
<title>Node24</title>
<g id="a_node24"><a xlink:title=" ">
<polygon fill="none" stroke="#bfbfbf" points="872,-112.5 872,-131.5 916,-131.5 916,-112.5 872,-112.5"/>
<text text-anchor="middle" x="894" y="-119.5" font-family="Helvetica,sans-Serif" font-size="10.00">thread</text>
</a>
</g>
</g>
<!-- Node21&#45;&gt;Node24 -->
<g id="edge45" class="edge">
<title>Node21&#45;&gt;Node24</title>
<path fill="none" stroke="midnightblue" d="M758.51,-168.44C786.55,-159.04 831.64,-143.91 862.03,-133.72"/>
<polygon fill="midnightblue" stroke="midnightblue" points="863.35,-136.97 871.72,-130.47 861.13,-130.33 863.35,-136.97"/>
</g>
<!-- Node25 -->
<g id="node25" class="node">
<title>Node25</title>
<g id="a_node25"><a xlink:title=" ">
<polygon fill="none" stroke="#bfbfbf" points="683.5,-112.5 683.5,-131.5 726.5,-131.5 726.5,-112.5 683.5,-112.5"/>
<text text-anchor="middle" x="705" y="-119.5" font-family="Helvetica,sans-Serif" font-size="10.00">mutex</text>
</a>
</g>
</g>
<!-- Node21&#45;&gt;Node25 -->
<g id="edge46" class="edge">
<title>Node21&#45;&gt;Node25</title>
<path fill="none" stroke="midnightblue" d="M728.38,-168.08C724.54,-160.69 718.98,-149.95 714.24,-140.81"/>
<polygon fill="midnightblue" stroke="midnightblue" points="717.25,-139.02 709.54,-131.75 711.03,-142.24 717.25,-139.02"/>
</g>
<!-- Node26 -->
<g id="node26" class="node">
<title>Node26</title>
<g id="a_node26"><a xlink:href="window_8h.html" target="_top" xlink:title=" ">
<polygon fill="none" stroke="black" points="608.5,-112.5 608.5,-131.5 665.5,-131.5 665.5,-112.5 608.5,-112.5"/>
<text text-anchor="middle" x="637" y="-119.5" font-family="Helvetica,sans-Serif" font-size="10.00">window.h</text>
</a>
</g>
</g>
<!-- Node21&#45;&gt;Node26 -->
<g id="edge50" class="edge">
<title>Node21&#45;&gt;Node26</title>
<path fill="none" stroke="midnightblue" d="M717.58,-168.32C702.46,-159.82 679.18,-146.73 661.53,-136.8"/>
<polygon fill="midnightblue" stroke="midnightblue" points="662.82,-133.51 652.39,-131.65 659.39,-139.61 662.82,-133.51"/>
</g>
<!-- Node27 -->
<g id="node27" class="node">
<title>Node27</title>
<g id="a_node27"><a xlink:href="fence_8h.html" target="_top" xlink:title=" ">
<polygon fill="none" stroke="black" points="1146,-112.5 1146,-131.5 1194,-131.5 1194,-112.5 1146,-112.5"/>
<text text-anchor="middle" x="1170" y="-119.5" font-family="Helvetica,sans-Serif" font-size="10.00">fence.h</text>
</a>
</g>
</g>
<!-- Node21&#45;&gt;Node27 -->
<g id="edge55" class="edge">
<title>Node21&#45;&gt;Node27</title>
<path fill="none" stroke="midnightblue" d="M761,-173.54C837.87,-164.04 1051.99,-137.58 1135.77,-127.23"/>
<polygon fill="midnightblue" stroke="midnightblue" points="1136.29,-130.69 1145.79,-125.99 1135.43,-123.74 1136.29,-130.69"/>
</g>
<!-- Node26&#45;&gt;Node4 -->
<g id="edge53" class="edge">
<title>Node26&#45;&gt;Node4</title>
<path fill="none" stroke="midnightblue" d="M665.57,-113.94C668.75,-113.24 671.94,-112.58 675,-112 774.5,-93.22 892.85,-78.44 953.24,-71.43"/>
<polygon fill="midnightblue" stroke="midnightblue" points="953.94,-74.88 963.48,-70.26 953.14,-67.92 953.94,-74.88"/>
</g>
<!-- Node26&#45;&gt;Node6 -->
<g id="edge52" class="edge">
<title>Node26&#45;&gt;Node6</title>
<path fill="none" stroke="midnightblue" d="M665.53,-113.69C668.71,-113.04 671.91,-112.46 675,-112 933.76,-73.82 1007.52,-122.34 1268.1,-75.94"/>
<polygon fill="midnightblue" stroke="midnightblue" points="1269.02,-79.32 1278.24,-74.1 1267.78,-72.44 1269.02,-79.32"/>
</g>
<!-- Node26&#45;&gt;Node19 -->
<g id="edge54" class="edge">
<title>Node26&#45;&gt;Node19</title>
<path fill="none" stroke="midnightblue" d="M608.32,-115.22C560.49,-105.58 464.32,-86.21 409.57,-75.17"/>
<polygon fill="midnightblue" stroke="midnightblue" points="410.02,-71.69 399.52,-73.15 408.63,-78.56 410.02,-71.69"/>
</g>
<!-- Node26&#45;&gt;Node20 -->
<g id="edge51" class="edge">
<title>Node26&#45;&gt;Node20</title>
<path fill="none" stroke="midnightblue" d="M624.68,-112.37C597.85,-93.57 533.91,-48.77 500.74,-25.53"/>
<polygon fill="midnightblue" stroke="midnightblue" points="502.46,-22.46 492.26,-19.59 498.44,-28.2 502.46,-22.46"/>
</g>
<!-- Node27&#45;&gt;Node2 -->
<g id="edge56" class="edge">
<title>Node27&#45;&gt;Node2</title>
<path fill="none" stroke="midnightblue" d="M1165.45,-112.37C1155.96,-94.38 1133.91,-52.55 1121.29,-28.63"/>
<polygon fill="midnightblue" stroke="midnightblue" points="1124.29,-26.8 1116.53,-19.59 1118.1,-30.07 1124.29,-26.8"/>
</g>
<!-- Node27&#45;&gt;Node7 -->
<g id="edge59" class="edge">
<title>Node27&#45;&gt;Node7</title>
<path fill="none" stroke="midnightblue" d="M1164.86,-131.64C1152.89,-151.69 1122.02,-202.76 1094,-244 1087.6,-253.42 1080.13,-263.67 1073.91,-272.01"/>
<polygon fill="midnightblue" stroke="midnightblue" points="1070.98,-270.08 1067.77,-280.17 1076.57,-274.28 1070.98,-270.08"/>
</g>
<!-- Node27&#45;&gt;Node8 -->
<g id="edge57" class="edge">
<title>Node27&#45;&gt;Node8</title>
<path fill="none" stroke="midnightblue" d="M1177.76,-112.08C1184.54,-104.3 1194.54,-92.8 1202.76,-83.37"/>
<polygon fill="midnightblue" stroke="midnightblue" points="1205.46,-85.59 1209.38,-75.75 1200.18,-81 1205.46,-85.59"/>
</g>
<!-- Node27&#45;&gt;Node18 -->
<g id="edge58" class="edge">
<title>Node27&#45;&gt;Node18</title>
<path fill="none" stroke="midnightblue" d="M1155.38,-112.32C1141.05,-103.82 1118.99,-90.73 1102.25,-80.8"/>
<polygon fill="midnightblue" stroke="midnightblue" points="1103.97,-77.75 1093.58,-75.65 1100.4,-83.77 1103.97,-77.75"/>
</g>
<!-- Node28&#45;&gt;Node5 -->
<g id="edge62" class="edge">
<title>Node28&#45;&gt;Node5</title>
<path fill="none" stroke="midnightblue" d="M1396.43,-112.2C1384.77,-97.4 1358.85,-67.94 1329,-56 1236.38,-18.96 531.59,-25.67 432,-20 401.52,-18.26 366.81,-15.64 342.23,-13.67"/>
<polygon fill="midnightblue" stroke="midnightblue" points="342.27,-10.17 332.03,-12.85 341.71,-17.14 342.27,-10.17"/>
</g>
<!-- Node28&#45;&gt;Node6 -->
<g id="edge63" class="edge">
<title>Node28&#45;&gt;Node6</title>
<path fill="none" stroke="midnightblue" d="M1386.29,-112.32C1369.69,-103.7 1344,-90.36 1324.78,-80.39"/>
<polygon fill="midnightblue" stroke="midnightblue" points="1326.16,-77.16 1315.67,-75.65 1322.93,-83.37 1326.16,-77.16"/>
</g>
<!-- Node29 -->
<g id="node29" class="node">
<title>Node29</title>
<g id="a_node29"><a xlink:title=" ">
<polygon fill="none" stroke="#bfbfbf" points="1378,-56.5 1378,-75.5 1428,-75.5 1428,-56.5 1378,-56.5"/>
<text text-anchor="middle" x="1403" y="-63.5" font-family="Helvetica,sans-Serif" font-size="10.00">fstream</text>
</a>
</g>
</g>
<!-- Node28&#45;&gt;Node29 -->
<g id="edge64" class="edge">
<title>Node28&#45;&gt;Node29</title>
<path fill="none" stroke="midnightblue" d="M1403,-112.08C1403,-105.01 1403,-94.86 1403,-85.99"/>
<polygon fill="midnightblue" stroke="midnightblue" points="1406.5,-85.75 1403,-75.75 1399.5,-85.75 1406.5,-85.75"/>
</g>
</g>
</svg>
        <g id="navigator" transform="translate(0 0)" fill="#404254">
                <rect fill="#f2f5e9" fill-opacity="0.5" stroke="#606060" stroke-width=".5" x="0" y="0" width="60" height="60"/>
                <use id="zoomplus" xlink:href="#zoomPlus" x="17" y="9" onmousedown="handleZoom(evt,'in')"/>
                <use id="zoomminus" xlink:href="#zoomMin" x="42" y="9" onmousedown="handleZoom(evt,'out')"/>
                <use id="reset" xlink:href="#resetDef" x="30" y="36" onmousedown="handleReset()"/>
                <g id="arrowUp" xlink:href="#dirArrow" transform="translate(30 24)" onmousedown="handlePan(0,-1)">
                  <use xlink:href="#rim" fill="#404040">
                        <set attributeName="fill" to="#808080" begin="arrowUp.mouseover" end="arrowUp.mouseout"/>
                  </use>
                  <path fill="none" stroke="white" stroke-width="1.5" d="M0,-3.0v7 M-2.5,-0.5L0,-3.0L2.5,-0.5"/>
                </g>
                <g id="arrowRight" xlink:href="#dirArrow" transform="rotate(90) translate(36 -43)" onmousedown="handlePan(1,0)">
                  <use xlink:href="#rim" fill="#404040">
                        <set attributeName="fill" to="#808080" begin="arrowRight.mouseover" end="arrowRight.mouseout"/>
                  </use>
                  <path fill="none" stroke="white" stroke-width="1.5" d="M0,-3.0v7 M-2.5,-0.5L0,-3.0L2.5,-0.5"/>
                </g>
                <g id="arrowDown" xlink:href="#dirArrow" transform="rotate(180) translate(-30 -48)" onmousedown="handlePan(0,1)">
                  <use xlink:href="#rim" fill="#404040">
                        <set attributeName="fill" to="#808080" begin="arrowDown.mouseover" end="arrowDown.mouseout"/>
                  </use>
                  <path fill="none" stroke="white" stroke-width="1.5" d="M0,-3.0v7 M-2.5,-0.5L0,-3.0L2.5,-0.5"/>
                </g>
                <g id="arrowLeft" xlink:href="#dirArrow" transform="rotate(270) translate(-36 17)" onmousedown="handlePan(-1,0)">
                  <use xlink:href="#rim" fill="#404040">
                        <set attributeName="fill" to="#808080" begin="arrowLeft.mouseover" end="arrowLeft.mouseout"/>
                  </use>
                  <path fill="none" stroke="white" stroke-width="1.5" d="M0,-3.0v7 M-2.5,-0.5L0,-3.0L2.5,-0.5"/>
                </g>
        </g>
        <svg viewBox="0 0 15 15" width="100%" height="30px" preserveAspectRatio="xMaxYMin meet">
         <g id="arrow_out" transform="scale(0.3 0.3)">
          <a xlink:href="shader_8h__incl_org.svg" target="_base">
           <rect id="button" ry="5" rx="5" y="6" x="6" height="38" width="38"
                fill="#f2f5e9" fill-opacity="0.5" stroke="#606060" stroke-width="1.0"/>
           <path id="arrow"
             d="M 11.500037,31.436501 C 11.940474,20.09759 22.043105,11.32322 32.158766,21.979434 L 37.068811,17.246167 C 37.068811,17.246167 37.088388,32 37.088388,32 L 22.160133,31.978069 C 22.160133,31.978069 26.997745,27.140456 26.997745,27.140456 C 18.528582,18.264221 13.291696,25.230495 11.500037,31.436501 z"
             style="fill:#404040;"/>
          </a>
         </g>
        </svg>
</svg>
