<?xml version="1.0" encoding="UTF-8" standalone="no"?>
<!DOCTYPE svg PUBLIC "-//W3C//DTD SVG 1.1//EN"
 "http://www.w3.org/Graphics/SVG/1.1/DTD/svg11.dtd">
<!-- Generated by graphviz version 2.49.3 (20211215.1918)
 -->
<!-- Title: /github/workspace/src/renderer/vulkan/shader.h Pages: 1 -->
<svg width="1095pt" height="441pt"
 viewBox="0.00 0.00 1094.50 441.00" xmlns="http://www.w3.org/2000/svg" xmlns:xlink="http://www.w3.org/1999/xlink">
<g id="graph0" class="graph" transform="scale(1 1) rotate(0) translate(4 437)">
<title>/github/workspace/src/renderer/vulkan/shader.h</title>
<!-- Node1 -->
<g id="node1" class="node">
<title>Node1</title>
<g id="a_node1"><a xlink:title=" ">
<polygon fill="#bfbfbf" stroke="black" points="650,-402.5 650,-432.5 776,-432.5 776,-402.5 650,-402.5"/>
<text text-anchor="start" x="658" y="-420.5" font-family="Helvetica,sans-Serif" font-size="10.00">/github/workspace/src</text>
<text text-anchor="middle" x="713" y="-409.5" font-family="Helvetica,sans-Serif" font-size="10.00">/renderer/vulkan/shader.h</text>
</a>
</g>
</g>
<!-- Node2 -->
<g id="node2" class="node">
<title>Node2</title>
<g id="a_node2"><a xlink:href="mastermaterial_8h.html" target="_top" xlink:title=" ">
<polygon fill="none" stroke="black" points="196,-335.5 196,-365.5 326,-365.5 326,-335.5 196,-335.5"/>
<text text-anchor="start" x="204" y="-353.5" font-family="Helvetica,sans-Serif" font-size="10.00">/github/workspace/src</text>
<text text-anchor="middle" x="261" y="-342.5" font-family="Helvetica,sans-Serif" font-size="10.00">/renderer/mastermaterial.h</text>
</a>
</g>
</g>
<!-- Node1&#45;&gt;Node2 -->
<g id="edge1" class="edge">
<title>Node1&#45;&gt;Node2</title>
<path fill="none" stroke="midnightblue" d="M639.62,-405.95C552.7,-393.45 409.22,-372.82 326.09,-360.86"/>
<polygon fill="midnightblue" stroke="midnightblue" points="639.28,-409.43 649.68,-407.39 640.28,-402.51 639.28,-409.43"/>
</g>
<!-- Node7 -->
<g id="node7" class="node">
<title>Node7</title>
<g id="a_node7"><a xlink:href="graphicspipeline_8h.html" target="_top" xlink:title=" ">
<polygon fill="none" stroke="black" points="629.5,-335.5 629.5,-365.5 796.5,-365.5 796.5,-335.5 629.5,-335.5"/>
<text text-anchor="start" x="637.5" y="-353.5" font-family="Helvetica,sans-Serif" font-size="10.00">/github/workspace/src</text>
<text text-anchor="middle" x="713" y="-342.5" font-family="Helvetica,sans-Serif" font-size="10.00">/renderer/vulkan/graphicspipeline.h</text>
</a>
</g>
</g>
<!-- Node1&#45;&gt;Node7 -->
<g id="edge6" class="edge">
<title>Node1&#45;&gt;Node7</title>
<path fill="none" stroke="midnightblue" d="M713,-392.11C713,-383.15 713,-373.32 713,-365.58"/>
<polygon fill="midnightblue" stroke="midnightblue" points="709.5,-392.4 713,-402.4 716.5,-392.4 709.5,-392.4"/>
</g>
<!-- Node18 -->
<g id="node18" class="node">
<title>Node18</title>
<g id="a_node18"><a xlink:href="shader_8cpp.html" target="_top" xlink:title=" ">
<polygon fill="none" stroke="black" points="814.5,-335.5 814.5,-365.5 951.5,-365.5 951.5,-335.5 814.5,-335.5"/>
<text text-anchor="start" x="822.5" y="-353.5" font-family="Helvetica,sans-Serif" font-size="10.00">/github/workspace/src</text>
<text text-anchor="middle" x="883" y="-342.5" font-family="Helvetica,sans-Serif" font-size="10.00">/renderer/vulkan/shader.cpp</text>
</a>
</g>
</g>
<!-- Node1&#45;&gt;Node18 -->
<g id="edge28" class="edge">
<title>Node1&#45;&gt;Node18</title>
<path fill="none" stroke="midnightblue" d="M759.24,-398.82C786.57,-388.37 820.69,-375.32 846.18,-365.58"/>
<polygon fill="midnightblue" stroke="midnightblue" points="757.98,-395.56 749.89,-402.4 760.48,-402.09 757.98,-395.56"/>
</g>
<!-- Node3 -->
<g id="node3" class="node">
<title>Node3</title>
<g id="a_node3"><a xlink:href="mastermaterial_8cpp.html" target="_top" xlink:title=" ">
<polygon fill="none" stroke="black" points="115,-268.5 115,-298.5 255,-298.5 255,-268.5 115,-268.5"/>
<text text-anchor="start" x="123" y="-286.5" font-family="Helvetica,sans-Serif" font-size="10.00">/github/workspace/src</text>
<text text-anchor="middle" x="185" y="-275.5" font-family="Helvetica,sans-Serif" font-size="10.00">/renderer/mastermaterial.cpp</text>
</a>
</g>
</g>
<!-- Node2&#45;&gt;Node3 -->
<g id="edge2" class="edge">
<title>Node2&#45;&gt;Node3</title>
<path fill="none" stroke="midnightblue" d="M236.89,-328.88C225.34,-319.01 211.81,-307.43 201.46,-298.58"/>
<polygon fill="midnightblue" stroke="midnightblue" points="234.63,-331.56 244.51,-335.4 239.18,-326.24 234.63,-331.56"/>
</g>
<!-- Node4 -->
<g id="node4" class="node">
<title>Node4</title>
<g id="a_node4"><a xlink:href="materiallibrary_8h.html" target="_top" xlink:title=" ">
<polygon fill="none" stroke="black" points="273.5,-268.5 273.5,-298.5 398.5,-298.5 398.5,-268.5 273.5,-268.5"/>
<text text-anchor="start" x="281.5" y="-286.5" font-family="Helvetica,sans-Serif" font-size="10.00">/github/workspace/src</text>
<text text-anchor="middle" x="336" y="-275.5" font-family="Helvetica,sans-Serif" font-size="10.00">/renderer/materiallibrary.h</text>
</a>
</g>
</g>
<!-- Node2&#45;&gt;Node4 -->
<g id="edge3" class="edge">
<title>Node2&#45;&gt;Node4</title>
<path fill="none" stroke="midnightblue" d="M285.12,-328.6C296.44,-318.78 309.64,-307.34 319.76,-298.58"/>
<polygon fill="midnightblue" stroke="midnightblue" points="282.54,-326.2 277.27,-335.4 287.12,-331.49 282.54,-326.2"/>
</g>
<!-- Node6 -->
<g id="node6" class="node">
<title>Node6</title>
<g id="a_node6"><a xlink:href="vulkan__voxel__rasterizer__2_8cpp.html" target="_top" xlink:title=" ">
<polygon fill="none" stroke="black" points="0,-134.5 0,-164.5 174,-164.5 174,-134.5 0,-134.5"/>
<text text-anchor="start" x="8" y="-152.5" font-family="Helvetica,sans-Serif" font-size="10.00">/github/workspace/src</text>
<text text-anchor="middle" x="87" y="-141.5" font-family="Helvetica,sans-Serif" font-size="10.00">/tests/vulkan_voxel_rasterizer_2.cpp</text>
</a>
</g>
</g>
<!-- Node2&#45;&gt;Node6 -->
<g id="edge5" class="edge">
<title>Node2&#45;&gt;Node6</title>
<path fill="none" stroke="midnightblue" d="M185.96,-342.2C156.78,-335.48 125.7,-322.8 106,-299 73.51,-259.76 79.63,-193.56 84.29,-164.68"/>
<polygon fill="midnightblue" stroke="midnightblue" points="185.26,-345.63 195.76,-344.26 186.69,-338.78 185.26,-345.63"/>
</g>
<!-- Node5 -->
<g id="node5" class="node">
<title>Node5</title>
<g id="a_node5"><a xlink:href="materiallibrary_8cpp.html" target="_top" xlink:title=" ">
<polygon fill="none" stroke="black" points="212,-201.5 212,-231.5 348,-231.5 348,-201.5 212,-201.5"/>
<text text-anchor="start" x="220" y="-219.5" font-family="Helvetica,sans-Serif" font-size="10.00">/github/workspace/src</text>
<text text-anchor="middle" x="280" y="-208.5" font-family="Helvetica,sans-Serif" font-size="10.00">/renderer/materiallibrary.cpp</text>
</a>
</g>
</g>
<!-- Node4&#45;&gt;Node5 -->
<g id="edge4" class="edge">
<title>Node4&#45;&gt;Node5</title>
<path fill="none" stroke="midnightblue" d="M317.25,-260.74C308.96,-251.12 299.46,-240.09 292.13,-231.58"/>
<polygon fill="midnightblue" stroke="midnightblue" points="314.67,-263.1 323.85,-268.4 319.97,-258.54 314.67,-263.1"/>
</g>
<!-- Node8 -->
<g id="node8" class="node">
<title>Node8</title>
<g id="a_node8"><a xlink:href="commandbuffer_8h.html" target="_top" xlink:title=" ">
<polygon fill="none" stroke="black" points="516,-268.5 516,-298.5 680,-298.5 680,-268.5 516,-268.5"/>
<text text-anchor="start" x="524" y="-286.5" font-family="Helvetica,sans-Serif" font-size="10.00">/github/workspace/src</text>
<text text-anchor="middle" x="598" y="-275.5" font-family="Helvetica,sans-Serif" font-size="10.00">/renderer/vulkan/commandbuffer.h</text>
</a>
</g>
</g>
<!-- Node7&#45;&gt;Node8 -->
<g id="edge7" class="edge">
<title>Node7&#45;&gt;Node8</title>
<path fill="none" stroke="midnightblue" d="M679.02,-330.3C661.03,-320.12 639.32,-307.85 622.9,-298.58"/>
<polygon fill="midnightblue" stroke="midnightblue" points="677.62,-333.52 688.05,-335.4 681.06,-327.43 677.62,-333.52"/>
</g>
<!-- Node13 -->
<g id="node13" class="node">
<title>Node13</title>
<g id="a_node13"><a xlink:href="vulkan__voxel__rasterizer_8cpp.html" target="_top" xlink:title=" ">
<polygon fill="none" stroke="black" points="533,-0.5 533,-30.5 697,-30.5 697,-0.5 533,-0.5"/>
<text text-anchor="start" x="541" y="-18.5" font-family="Helvetica,sans-Serif" font-size="10.00">/github/workspace/src</text>
<text text-anchor="middle" x="615" y="-7.5" font-family="Helvetica,sans-Serif" font-size="10.00">/tests/vulkan_voxel_rasterizer.cpp</text>
</a>
</g>
</g>
<!-- Node7&#45;&gt;Node13 -->
<g id="edge27" class="edge">
<title>Node7&#45;&gt;Node13</title>
<path fill="none" stroke="midnightblue" d="M769.25,-331.78C818.41,-312.37 882,-275.96 882,-217.5 882,-217.5 882,-217.5 882,-148.5 882,-64.99 775.74,-34.31 697.29,-23.04"/>
<polygon fill="midnightblue" stroke="midnightblue" points="767.73,-328.61 759.63,-335.44 770.22,-335.16 767.73,-328.61"/>
</g>
<!-- Node17 -->
<g id="node17" class="node">
<title>Node17</title>
<g id="a_node17"><a xlink:href="graphicspipeline_8cpp.html" target="_top" xlink:title=" ">
<polygon fill="none" stroke="black" points="909.5,-268.5 909.5,-298.5 1086.5,-298.5 1086.5,-268.5 909.5,-268.5"/>
<text text-anchor="start" x="917.5" y="-286.5" font-family="Helvetica,sans-Serif" font-size="10.00">/github/workspace/src</text>
<text text-anchor="middle" x="998" y="-275.5" font-family="Helvetica,sans-Serif" font-size="10.00">/renderer/vulkan/graphicspipeline.cpp</text>
</a>
</g>
</g>
<!-- Node7&#45;&gt;Node17 -->
<g id="edge26" class="edge">
<title>Node7&#45;&gt;Node17</title>
<path fill="none" stroke="midnightblue" d="M784.53,-333.19C831.21,-322.54 891.52,-308.78 936.13,-298.61"/>
<polygon fill="midnightblue" stroke="midnightblue" points="783.46,-329.84 774.49,-335.48 785.02,-336.66 783.46,-329.84"/>
</g>
<!-- Node9 -->
<g id="node9" class="node">
<title>Node9</title>
<g id="a_node9"><a xlink:href="commandbuffer_8cpp.html" target="_top" xlink:title=" ">
<polygon fill="none" stroke="black" points="642,-201.5 642,-231.5 816,-231.5 816,-201.5 642,-201.5"/>
<text text-anchor="start" x="650" y="-219.5" font-family="Helvetica,sans-Serif" font-size="10.00">/github/workspace/src</text>
<text text-anchor="middle" x="729" y="-208.5" font-family="Helvetica,sans-Serif" font-size="10.00">/renderer/vulkan/commandbuffer.cpp</text>
</a>
</g>
</g>
<!-- Node8&#45;&gt;Node9 -->
<g id="edge8" class="edge">
<title>Node8&#45;&gt;Node9</title>
<path fill="none" stroke="midnightblue" d="M635.58,-263.85C656.29,-253.58 681.59,-241.03 700.63,-231.58"/>
<polygon fill="midnightblue" stroke="midnightblue" points="633.83,-260.82 626.43,-268.4 636.94,-267.09 633.83,-260.82"/>
</g>
<!-- Node10 -->
<g id="node10" class="node">
<title>Node10</title>
<g id="a_node10"><a xlink:href="swapchain_8h.html" target="_top" xlink:title=" ">
<polygon fill="none" stroke="black" points="366.5,-201.5 366.5,-231.5 509.5,-231.5 509.5,-201.5 366.5,-201.5"/>
<text text-anchor="start" x="374.5" y="-219.5" font-family="Helvetica,sans-Serif" font-size="10.00">/github/workspace/src</text>
<text text-anchor="middle" x="438" y="-208.5" font-family="Helvetica,sans-Serif" font-size="10.00">/renderer/vulkan/swapchain.h</text>
</a>
</g>
</g>
<!-- Node8&#45;&gt;Node10 -->
<g id="edge9" class="edge">
<title>Node8&#45;&gt;Node10</title>
<path fill="none" stroke="midnightblue" d="M553.8,-264.54C528.2,-254.14 496.43,-241.24 472.65,-231.58"/>
<polygon fill="midnightblue" stroke="midnightblue" points="552.7,-267.87 563.28,-268.4 555.34,-261.39 552.7,-267.87"/>
</g>
<!-- Node8&#45;&gt;Node13 -->
<g id="edge25" class="edge">
<title>Node8&#45;&gt;Node13</title>
<path fill="none" stroke="midnightblue" d="M594.84,-258.34C590.25,-218.21 583.55,-135.47 596,-67 598.31,-54.28 603.65,-40.6 608.09,-30.69"/>
<polygon fill="midnightblue" stroke="midnightblue" points="591.39,-258.97 596.06,-268.48 598.34,-258.13 591.39,-258.97"/>
</g>
<!-- Node10&#45;&gt;Node6 -->
<g id="edge24" class="edge">
<title>Node10&#45;&gt;Node6</title>
<path fill="none" stroke="midnightblue" d="M356.19,-200.35C297.76,-189.53 219.73,-175.08 162.73,-164.52"/>
<polygon fill="midnightblue" stroke="midnightblue" points="355.65,-203.81 366.12,-202.19 356.93,-196.93 355.65,-203.81"/>
</g>
<!-- Node10&#45;&gt;Node7 -->
<g id="edge15" class="edge">
<title>Node10&#45;&gt;Node7</title>
<path fill="none" stroke="midnightblue" d="M451.44,-240.17C463.63,-258.76 483.29,-284.32 507,-299 543.71,-321.73 590.01,-334.23 629.41,-341.1"/>
<polygon fill="midnightblue" stroke="midnightblue" points="454.37,-238.27 446.07,-231.69 448.46,-242.01 454.37,-238.27"/>
</g>
<!-- Node11 -->
<g id="node11" class="node">
<title>Node11</title>
<g id="a_node11"><a xlink:href="framebuffer_8h.html" target="_top" xlink:title=" ">
<polygon fill="none" stroke="black" points="402,-67.5 402,-97.5 548,-97.5 548,-67.5 402,-67.5"/>
<text text-anchor="start" x="410" y="-85.5" font-family="Helvetica,sans-Serif" font-size="10.00">/github/workspace/src</text>
<text text-anchor="middle" x="475" y="-74.5" font-family="Helvetica,sans-Serif" font-size="10.00">/renderer/vulkan/framebuffer.h</text>
</a>
</g>
</g>
<!-- Node10&#45;&gt;Node11 -->
<g id="edge10" class="edge">
<title>Node10&#45;&gt;Node11</title>
<path fill="none" stroke="midnightblue" d="M439.4,-191.39C444.96,-163.9 457.63,-119.89 466.71,-97.52"/>
<polygon fill="midnightblue" stroke="midnightblue" points="435.93,-190.91 437.59,-201.37 442.82,-192.16 435.93,-190.91"/>
</g>
<!-- Node10&#45;&gt;Node13 -->
<g id="edge23" class="edge">
<title>Node10&#45;&gt;Node13</title>
<path fill="none" stroke="midnightblue" d="M419.78,-193.11C396.62,-161.79 363.05,-104.53 393,-67 402.03,-55.69 473.43,-40.78 532.85,-30.1"/>
<polygon fill="midnightblue" stroke="midnightblue" points="417.12,-195.4 425.97,-201.22 422.68,-191.15 417.12,-195.4"/>
</g>
<!-- Node14 -->
<g id="node14" class="node">
<title>Node14</title>
<g id="a_node14"><a xlink:href="renderpass_8h.html" target="_top" xlink:title=" ">
<polygon fill="none" stroke="black" points="607.5,-134.5 607.5,-164.5 752.5,-164.5 752.5,-134.5 607.5,-134.5"/>
<text text-anchor="start" x="615.5" y="-152.5" font-family="Helvetica,sans-Serif" font-size="10.00">/github/workspace/src</text>
<text text-anchor="middle" x="680" y="-141.5" font-family="Helvetica,sans-Serif" font-size="10.00">/renderer/vulkan/renderpass.h</text>
</a>
</g>
</g>
<!-- Node10&#45;&gt;Node14 -->
<g id="edge16" class="edge">
<title>Node10&#45;&gt;Node14</title>
<path fill="none" stroke="midnightblue" d="M499.99,-198.85C539.45,-188.25 589.99,-174.68 627.46,-164.61"/>
<polygon fill="midnightblue" stroke="midnightblue" points="498.96,-195.5 490.21,-201.48 500.78,-202.26 498.96,-195.5"/>
</g>
<!-- Node16 -->
<g id="node16" class="node">
<title>Node16</title>
<g id="a_node16"><a xlink:href="swapchain_8cpp.html" target="_top" xlink:title=" ">
<polygon fill="none" stroke="black" points="192,-134.5 192,-164.5 346,-164.5 346,-134.5 192,-134.5"/>
<text text-anchor="start" x="200" y="-152.5" font-family="Helvetica,sans-Serif" font-size="10.00">/github/workspace/src</text>
<text text-anchor="middle" x="269" y="-141.5" font-family="Helvetica,sans-Serif" font-size="10.00">/renderer/vulkan/swapchain.cpp</text>
</a>
</g>
</g>
<!-- Node10&#45;&gt;Node16 -->
<g id="edge22" class="edge">
<title>Node10&#45;&gt;Node16</title>
<path fill="none" stroke="midnightblue" d="M391.67,-197.68C364.57,-187.26 330.83,-174.28 305.6,-164.58"/>
<polygon fill="midnightblue" stroke="midnightblue" points="390.74,-201.07 401.33,-201.4 393.25,-194.54 390.74,-201.07"/>
</g>
<!-- Node11&#45;&gt;Node8 -->
<g id="edge11" class="edge">
<title>Node11&#45;&gt;Node8</title>
<path fill="none" stroke="midnightblue" d="M487.79,-106.78C504.22,-136.35 533.99,-188.74 562,-232 570.08,-244.47 579.91,-258.17 587.25,-268.15"/>
<polygon fill="midnightblue" stroke="midnightblue" points="490.65,-104.73 482.75,-97.67 484.53,-108.12 490.65,-104.73"/>
</g>
<!-- Node11&#45;&gt;Node10 -->
<g id="edge13" class="edge">
<title>Node11&#45;&gt;Node10</title>
<path fill="none" stroke="midnightblue" d="M473.62,-107.49C468.09,-134.92 455.42,-178.94 446.33,-201.37"/>
<polygon fill="midnightblue" stroke="midnightblue" points="477.09,-107.99 475.43,-97.52 470.2,-106.74 477.09,-107.99"/>
</g>
<!-- Node12 -->
<g id="node12" class="node">
<title>Node12</title>
<g id="a_node12"><a xlink:href="framebuffer_8cpp.html" target="_top" xlink:title=" ">
<polygon fill="none" stroke="black" points="359,-0.5 359,-30.5 515,-30.5 515,-0.5 359,-0.5"/>
<text text-anchor="start" x="367" y="-18.5" font-family="Helvetica,sans-Serif" font-size="10.00">/github/workspace/src</text>
<text text-anchor="middle" x="437" y="-7.5" font-family="Helvetica,sans-Serif" font-size="10.00">/renderer/vulkan/framebuffer.cpp</text>
</a>
</g>
</g>
<!-- Node11&#45;&gt;Node12 -->
<g id="edge12" class="edge">
<title>Node11&#45;&gt;Node12</title>
<path fill="none" stroke="midnightblue" d="M461.6,-58.58C456.14,-49.24 450.01,-38.75 445.23,-30.58"/>
<polygon fill="midnightblue" stroke="midnightblue" points="458.69,-60.53 466.75,-67.4 464.73,-57 458.69,-60.53"/>
</g>
<!-- Node11&#45;&gt;Node13 -->
<g id="edge14" class="edge">
<title>Node11&#45;&gt;Node13</title>
<path fill="none" stroke="midnightblue" d="M514.57,-63.13C536.81,-52.8 564.15,-40.11 584.68,-30.58"/>
<polygon fill="midnightblue" stroke="midnightblue" points="512.97,-60.01 505.38,-67.4 515.92,-66.36 512.97,-60.01"/>
</g>
<!-- Node14&#45;&gt;Node7 -->
<g id="edge19" class="edge">
<title>Node14&#45;&gt;Node7</title>
<path fill="none" stroke="midnightblue" d="M762.57,-160.82C786.62,-168.1 810.34,-180.37 825,-201 860.73,-251.28 780.8,-309.19 737.9,-335.36"/>
<polygon fill="midnightblue" stroke="midnightblue" points="763.2,-157.37 752.63,-158.09 761.35,-164.12 763.2,-157.37"/>
</g>
<!-- Node14&#45;&gt;Node8 -->
<g id="edge17" class="edge">
<title>Node14&#45;&gt;Node8</title>
<path fill="none" stroke="midnightblue" d="M656.82,-172.08C648.59,-180.55 639.71,-190.71 633,-201 618.79,-222.8 608.09,-251.34 602.46,-268.21"/>
<polygon fill="midnightblue" stroke="midnightblue" points="659.5,-174.35 664.12,-164.81 654.56,-169.39 659.5,-174.35"/>
</g>
<!-- Node14&#45;&gt;Node11 -->
<g id="edge18" class="edge">
<title>Node14&#45;&gt;Node11</title>
<path fill="none" stroke="midnightblue" d="M626.21,-131.44C592.98,-120.91 550.85,-107.55 519.5,-97.61"/>
<polygon fill="midnightblue" stroke="midnightblue" points="625.18,-134.79 635.77,-134.48 627.3,-128.12 625.18,-134.79"/>
</g>
<!-- Node14&#45;&gt;Node13 -->
<g id="edge21" class="edge">
<title>Node14&#45;&gt;Node13</title>
<path fill="none" stroke="midnightblue" d="M733.48,-129.82C747.5,-122.21 760.93,-111.85 769,-98 775.93,-86.09 777.08,-78.16 769,-67 752.24,-43.87 724.57,-31.15 697.26,-24.21"/>
<polygon fill="midnightblue" stroke="midnightblue" points="731.61,-126.84 724.23,-134.44 734.74,-133.1 731.61,-126.84"/>
</g>
<!-- Node15 -->
<g id="node15" class="node">
<title>Node15</title>
<g id="a_node15"><a xlink:href="renderpass_8cpp.html" target="_top" xlink:title=" ">
<polygon fill="none" stroke="black" points="604.5,-67.5 604.5,-97.5 759.5,-97.5 759.5,-67.5 604.5,-67.5"/>
<text text-anchor="start" x="612.5" y="-85.5" font-family="Helvetica,sans-Serif" font-size="10.00">/github/workspace/src</text>
<text text-anchor="middle" x="682" y="-74.5" font-family="Helvetica,sans-Serif" font-size="10.00">/renderer/vulkan/renderpass.cpp</text>
</a>
</g>
</g>
<!-- Node14&#45;&gt;Node15 -->
<g id="edge20" class="edge">
<title>Node14&#45;&gt;Node15</title>
<path fill="none" stroke="midnightblue" d="M680.75,-124.11C681.03,-115.15 681.33,-105.32 681.57,-97.58"/>
<polygon fill="midnightblue" stroke="midnightblue" points="677.24,-124.29 680.43,-134.4 684.24,-124.51 677.24,-124.29"/>
</g>
</g>
</svg>
