<?xml version="1.0" encoding="UTF-8" standalone="no"?>
<!DOCTYPE svg PUBLIC "-//W3C//DTD SVG 1.1//EN"
 "http://www.w3.org/Graphics/SVG/1.1/DTD/svg11.dtd">
<!-- Generated by graphviz version 2.49.3 (20211215.1918)
 -->
<!-- Title: /github/workspace/src/renderer/vulkan/shader.h Pages: 1 -->
<!--zoomable 642 -->
<svg id="main" version="1.1" xmlns="http://www.w3.org/2000/svg" xmlns:xlink="http://www.w3.org/1999/xlink" xml:space="preserve" onload="init(evt)">
<style type="text/css"><![CDATA[
.edge:hover path { stroke: red; }
.edge:hover polygon { stroke: red; fill: red; }
]]></style>
<script type="text/javascript"><![CDATA[
var edges = document.getElementsByTagName('g');
if (edges && edges.length) {
  for (var i=0;i<edges.length;i++) {
    if (edges[i].id.substr(0,4)=='edge') {
      edges[i].setAttribute('class','edge');
    }
  }
}
]]></script>
        <defs>
                <circle id="rim" cx="0" cy="0" r="7"/>
                <circle id="rim2" cx="0" cy="0" r="3.5"/>
                <g id="zoomPlus">
                        <use xlink:href="#rim" fill="#404040">
                                <set attributeName="fill" to="#808080" begin="zoomplus.mouseover" end="zoomplus.mouseout"/>
                        </use>
                        <path d="M-4,0h8M0,-4v8" fill="none" stroke="white" stroke-width="1.5" pointer-events="none"/>
                </g>
                <g id="zoomMin">
                        <use xlink:href="#rim" fill="#404040">
                                <set attributeName="fill" to="#808080" begin="zoomminus.mouseover" end="zoomminus.mouseout"/>
                        </use>
                        <path d="M-4,0h8" fill="none" stroke="white" stroke-width="1.5" pointer-events="none"/>
                </g>
                <g id="dirArrow">
                        <path fill="none" stroke="white" stroke-width="1.5" d="M0,-3.0v7 M-2.5,-0.5L0,-3.0L2.5,-0.5"/>
                </g>
               <g id="resetDef">
                       <use xlink:href="#rim2" fill="#404040">
                               <set attributeName="fill" to="#808080" begin="reset.mouseover" end="reset.mouseout"/>
                       </use>
               </g>
        </defs>

<script type="text/javascript">
var viewWidth = 1711;
var viewHeight = 642;
var sectionId = 'dynsection-1';
</script>
<script xlink:href="svgpan.js"/>
<svg id="graph" class="graph">
<g id="viewport">
<title>/github/workspace/src/renderer/vulkan/shader.h</title>
<!-- Node1 -->
<g id="node1" class="node">
<title>Node1</title>
<g id="a_node1"><a xlink:title=" ">
<polygon fill="#bfbfbf" stroke="black" points="964,-603.5 964,-633.5 1090,-633.5 1090,-603.5 964,-603.5"/>
<text text-anchor="start" x="972" y="-621.5" font-family="Helvetica,sans-Serif" font-size="10.00">/github/workspace/src</text>
<text text-anchor="middle" x="1027" y="-610.5" font-family="Helvetica,sans-Serif" font-size="10.00">/renderer/vulkan/shader.h</text>
</a>
</g>
</g>
<!-- Node2 -->
<g id="node2" class="node">
<title>Node2</title>
<g id="a_node2"><a xlink:href="graphicspipeline_8h.html" target="_top" xlink:title=" ">
<polygon fill="none" stroke="black" points="858.5,-536.5 858.5,-566.5 1025.5,-566.5 1025.5,-536.5 858.5,-536.5"/>
<text text-anchor="start" x="866.5" y="-554.5" font-family="Helvetica,sans-Serif" font-size="10.00">/github/workspace/src</text>
<text text-anchor="middle" x="942" y="-543.5" font-family="Helvetica,sans-Serif" font-size="10.00">/renderer/vulkan/graphicspipeline.h</text>
</a>
</g>
</g>
<!-- Node1&#45;&gt;Node2 -->
<g id="edge1" class="edge">
<title>Node1&#45;&gt;Node2</title>
<path fill="none" stroke="midnightblue" d="M1000.41,-597.17C987.41,-587.23 972.1,-575.51 960.41,-566.58"/>
<polygon fill="midnightblue" stroke="midnightblue" points="998.49,-600.1 1008.56,-603.4 1002.74,-594.54 998.49,-600.1"/>
</g>
<!-- Node32 -->
<g id="node32" class="node">
<title>Node32</title>
<g id="a_node32"><a xlink:href="shader_8cpp.html" target="_top" xlink:title=" ">
<polygon fill="none" stroke="black" points="1043.5,-536.5 1043.5,-566.5 1180.5,-566.5 1180.5,-536.5 1043.5,-536.5"/>
<text text-anchor="start" x="1051.5" y="-554.5" font-family="Helvetica,sans-Serif" font-size="10.00">/github/workspace/src</text>
<text text-anchor="middle" x="1112" y="-543.5" font-family="Helvetica,sans-Serif" font-size="10.00">/renderer/vulkan/shader.cpp</text>
</a>
</g>
</g>
<!-- Node1&#45;&gt;Node32 -->
<g id="edge50" class="edge">
<title>Node1&#45;&gt;Node32</title>
<path fill="none" stroke="midnightblue" d="M1053.59,-597.17C1066.59,-587.23 1081.9,-575.51 1093.59,-566.58"/>
<polygon fill="midnightblue" stroke="midnightblue" points="1051.26,-594.54 1045.44,-603.4 1055.51,-600.1 1051.26,-594.54"/>
</g>
<!-- Node3 -->
<g id="node3" class="node">
<title>Node3</title>
<g id="a_node3"><a xlink:href="mastermaterial_8h.html" target="_top" xlink:title=" ">
<polygon fill="none" stroke="black" points="129,-335.5 129,-365.5 259,-365.5 259,-335.5 129,-335.5"/>
<text text-anchor="start" x="137" y="-353.5" font-family="Helvetica,sans-Serif" font-size="10.00">/github/workspace/src</text>
<text text-anchor="middle" x="194" y="-342.5" font-family="Helvetica,sans-Serif" font-size="10.00">/renderer/mastermaterial.h</text>
</a>
</g>
</g>
<!-- Node2&#45;&gt;Node3 -->
<g id="edge2" class="edge">
<title>Node2&#45;&gt;Node3</title>
<path fill="none" stroke="midnightblue" d="M848.36,-548.4C675.61,-543.8 320,-530.7 273,-500 224.35,-468.22 203.6,-396.11 196.77,-365.58"/>
<polygon fill="midnightblue" stroke="midnightblue" points="848.38,-551.9 858.47,-548.66 848.56,-544.9 848.38,-551.9"/>
</g>
<!-- Node6 -->
<g id="node6" class="node">
<title>Node6</title>
<g id="a_node6"><a xlink:href="material_8h.html" target="_top" xlink:title=" ">
<polygon fill="none" stroke="black" points="234.5,-201.5 234.5,-231.5 347.5,-231.5 347.5,-201.5 234.5,-201.5"/>
<text text-anchor="start" x="242.5" y="-219.5" font-family="Helvetica,sans-Serif" font-size="10.00">/github/workspace/src</text>
<text text-anchor="middle" x="291" y="-208.5" font-family="Helvetica,sans-Serif" font-size="10.00">/renderer/material.h</text>
</a>
</g>
</g>
<!-- Node2&#45;&gt;Node6 -->
<g id="edge17" class="edge">
<title>Node2&#45;&gt;Node6</title>
<path fill="none" stroke="midnightblue" d="M848.33,-550.85C667.28,-549 287,-531.64 287,-418.5 287,-418.5 287,-418.5 287,-349.5 287,-306.63 289.13,-255.96 290.28,-231.75"/>
<polygon fill="midnightblue" stroke="midnightblue" points="848.35,-554.35 858.38,-550.94 848.41,-547.35 848.35,-554.35"/>
</g>
<!-- Node14 -->
<g id="node14" class="node">
<title>Node14</title>
<g id="a_node14"><a xlink:href="commandbuffer_8h.html" target="_top" xlink:title=" ">
<polygon fill="none" stroke="black" points="860,-469.5 860,-499.5 1024,-499.5 1024,-469.5 860,-469.5"/>
<text text-anchor="start" x="868" y="-487.5" font-family="Helvetica,sans-Serif" font-size="10.00">/github/workspace/src</text>
<text text-anchor="middle" x="942" y="-476.5" font-family="Helvetica,sans-Serif" font-size="10.00">/renderer/vulkan/commandbuffer.h</text>
</a>
</g>
</g>
<!-- Node2&#45;&gt;Node14 -->
<g id="edge18" class="edge">
<title>Node2&#45;&gt;Node14</title>
<path fill="none" stroke="midnightblue" d="M942,-526.11C942,-517.15 942,-507.32 942,-499.58"/>
<polygon fill="midnightblue" stroke="midnightblue" points="938.5,-526.4 942,-536.4 945.5,-526.4 938.5,-526.4"/>
</g>
<!-- Node23 -->
<g id="node23" class="node">
<title>Node23</title>
<g id="a_node23"><a xlink:href="vulkan__voxel__rasterizer_8cpp.html" target="_top" xlink:title=" ">
<polygon fill="none" stroke="black" points="1006,-201.5 1006,-231.5 1170,-231.5 1170,-201.5 1006,-201.5"/>
<text text-anchor="start" x="1014" y="-219.5" font-family="Helvetica,sans-Serif" font-size="10.00">/github/workspace/src</text>
<text text-anchor="middle" x="1088" y="-208.5" font-family="Helvetica,sans-Serif" font-size="10.00">/tests/vulkan_voxel_rasterizer.cpp</text>
</a>
</g>
</g>
<!-- Node2&#45;&gt;Node23 -->
<g id="edge49" class="edge">
<title>Node2&#45;&gt;Node23</title>
<path fill="none" stroke="midnightblue" d="M848.1,-543.41C710.18,-530.37 469,-496.42 469,-418.5 469,-418.5 469,-418.5 469,-349.5 469,-312.2 460.65,-292.23 489,-268 527.43,-235.16 850.8,-223.1 1005.79,-219.18"/>
<polygon fill="midnightblue" stroke="midnightblue" points="847.97,-546.91 858.25,-544.35 848.62,-539.94 847.97,-546.91"/>
</g>
<!-- Node31 -->
<g id="node31" class="node">
<title>Node31</title>
<g id="a_node31"><a xlink:href="graphicspipeline_8cpp.html" target="_top" xlink:title=" ">
<polygon fill="none" stroke="black" points="1042.5,-469.5 1042.5,-499.5 1219.5,-499.5 1219.5,-469.5 1042.5,-469.5"/>
<text text-anchor="start" x="1050.5" y="-487.5" font-family="Helvetica,sans-Serif" font-size="10.00">/github/workspace/src</text>
<text text-anchor="middle" x="1131" y="-476.5" font-family="Helvetica,sans-Serif" font-size="10.00">/renderer/vulkan/graphicspipeline.cpp</text>
</a>
</g>
</g>
<!-- Node2&#45;&gt;Node31 -->
<g id="edge48" class="edge">
<title>Node2&#45;&gt;Node31</title>
<path fill="none" stroke="midnightblue" d="M992.62,-533.09C1023.13,-522.6 1061.48,-509.41 1090.07,-499.58"/>
<polygon fill="midnightblue" stroke="midnightblue" points="991.33,-529.83 983.01,-536.4 993.6,-536.45 991.33,-529.83"/>
</g>
<!-- Node4 -->
<g id="node4" class="node">
<title>Node4</title>
<g id="a_node4"><a xlink:href="mastermaterial_8cpp.html" target="_top" xlink:title=" ">
<polygon fill="none" stroke="black" points="0,-268.5 0,-298.5 140,-298.5 140,-268.5 0,-268.5"/>
<text text-anchor="start" x="8" y="-286.5" font-family="Helvetica,sans-Serif" font-size="10.00">/github/workspace/src</text>
<text text-anchor="middle" x="70" y="-275.5" font-family="Helvetica,sans-Serif" font-size="10.00">/renderer/mastermaterial.cpp</text>
</a>
</g>
</g>
<!-- Node3&#45;&gt;Node4 -->
<g id="edge3" class="edge">
<title>Node3&#45;&gt;Node4</title>
<path fill="none" stroke="midnightblue" d="M158.16,-330.71C138.61,-320.46 114.8,-307.98 96.85,-298.58"/>
<polygon fill="midnightblue" stroke="midnightblue" points="156.61,-333.85 167.09,-335.4 159.86,-327.65 156.61,-333.85"/>
</g>
<!-- Node5 -->
<g id="node5" class="node">
<title>Node5</title>
<g id="a_node5"><a xlink:href="materiallibrary_8h.html" target="_top" xlink:title=" ">
<polygon fill="none" stroke="black" points="315.5,-268.5 315.5,-298.5 440.5,-298.5 440.5,-268.5 315.5,-268.5"/>
<text text-anchor="start" x="323.5" y="-286.5" font-family="Helvetica,sans-Serif" font-size="10.00">/github/workspace/src</text>
<text text-anchor="middle" x="378" y="-275.5" font-family="Helvetica,sans-Serif" font-size="10.00">/renderer/materiallibrary.h</text>
</a>
</g>
</g>
<!-- Node3&#45;&gt;Node5 -->
<g id="edge4" class="edge">
<title>Node3&#45;&gt;Node5</title>
<path fill="none" stroke="midnightblue" d="M243.67,-331.96C273.3,-321.48 310.44,-308.37 338.15,-298.58"/>
<polygon fill="midnightblue" stroke="midnightblue" points="242.19,-328.76 233.93,-335.4 244.52,-335.37 242.19,-328.76"/>
</g>
<!-- Node10 -->
<g id="node10" class="node">
<title>Node10</title>
<g id="a_node10"><a xlink:href="modelloader_8h.html" target="_top" xlink:title=" ">
<polygon fill="none" stroke="black" points="60,-67.5 60,-97.5 178,-97.5 178,-67.5 60,-67.5"/>
<text text-anchor="start" x="68" y="-85.5" font-family="Helvetica,sans-Serif" font-size="10.00">/github/workspace/src</text>
<text text-anchor="middle" x="119" y="-74.5" font-family="Helvetica,sans-Serif" font-size="10.00">/renderer/modelloader.h</text>
</a>
</g>
</g>
<!-- Node3&#45;&gt;Node10 -->
<g id="edge15" class="edge">
<title>Node3&#45;&gt;Node10</title>
<path fill="none" stroke="midnightblue" d="M187.21,-325.41C171.9,-271.12 135.1,-140.61 122.96,-97.55"/>
<polygon fill="midnightblue" stroke="midnightblue" points="183.89,-326.52 189.97,-335.2 190.62,-324.62 183.89,-326.52"/>
</g>
<!-- Node12 -->
<g id="node12" class="node">
<title>Node12</title>
<g id="a_node12"><a xlink:href="vulkan__voxel__rasterizer__2_8cpp.html" target="_top" xlink:title=" ">
<polygon fill="none" stroke="black" points="160,-0.5 160,-30.5 334,-30.5 334,-0.5 160,-0.5"/>
<text text-anchor="start" x="168" y="-18.5" font-family="Helvetica,sans-Serif" font-size="10.00">/github/workspace/src</text>
<text text-anchor="middle" x="247" y="-7.5" font-family="Helvetica,sans-Serif" font-size="10.00">/tests/vulkan_voxel_rasterizer_2.cpp</text>
</a>
</g>
</g>
<!-- Node3&#45;&gt;Node12 -->
<g id="edge16" class="edge">
<title>Node3&#45;&gt;Node12</title>
<path fill="none" stroke="midnightblue" d="M197.56,-325.05C201.1,-298.6 206,-255.15 206,-217.5 206,-217.5 206,-217.5 206,-148.5 206,-103.87 227.64,-54.41 239.48,-30.7"/>
<polygon fill="midnightblue" stroke="midnightblue" points="194.05,-324.89 196.15,-335.28 200.98,-325.85 194.05,-324.89"/>
</g>
<!-- Node5&#45;&gt;Node6 -->
<g id="edge5" class="edge">
<title>Node5&#45;&gt;Node6</title>
<path fill="none" stroke="midnightblue" d="M344.88,-262.45C330.72,-252.45 315.06,-240.6 304.17,-231.58"/>
<polygon fill="midnightblue" stroke="midnightblue" points="343.23,-265.57 353.44,-268.4 347.22,-259.82 343.23,-265.57"/>
</g>
<!-- Node13 -->
<g id="node13" class="node">
<title>Node13</title>
<g id="a_node13"><a xlink:href="materiallibrary_8cpp.html" target="_top" xlink:title=" ">
<polygon fill="none" stroke="black" points="366,-201.5 366,-231.5 502,-231.5 502,-201.5 366,-201.5"/>
<text text-anchor="start" x="374" y="-219.5" font-family="Helvetica,sans-Serif" font-size="10.00">/github/workspace/src</text>
<text text-anchor="middle" x="434" y="-208.5" font-family="Helvetica,sans-Serif" font-size="10.00">/renderer/materiallibrary.cpp</text>
</a>
</g>
</g>
<!-- Node5&#45;&gt;Node13 -->
<g id="edge14" class="edge">
<title>Node5&#45;&gt;Node13</title>
<path fill="none" stroke="midnightblue" d="M396.75,-260.74C405.04,-251.12 414.54,-240.09 421.87,-231.58"/>
<polygon fill="midnightblue" stroke="midnightblue" points="394.03,-258.54 390.15,-268.4 399.33,-263.1 394.03,-258.54"/>
</g>
<!-- Node6&#45;&gt;Node3 -->
<g id="edge6" class="edge">
<title>Node6&#45;&gt;Node3</title>
<path fill="none" stroke="midnightblue" d="M274.69,-239.69C254.65,-266.97 221.23,-312.45 204.38,-335.37"/>
<polygon fill="midnightblue" stroke="midnightblue" points="277.59,-241.66 280.69,-231.52 271.95,-237.51 277.59,-241.66"/>
</g>
<!-- Node6&#45;&gt;Node5 -->
<g id="edge8" class="edge">
<title>Node6&#45;&gt;Node5</title>
<path fill="none" stroke="midnightblue" d="M324.08,-237.52C338.24,-247.51 353.9,-259.37 364.8,-268.4"/>
<polygon fill="midnightblue" stroke="midnightblue" points="325.73,-234.4 315.52,-231.58 321.74,-240.15 325.73,-234.4"/>
</g>
<!-- Node7 -->
<g id="node7" class="node">
<title>Node7</title>
<g id="a_node7"><a xlink:href="material_8cpp.html" target="_top" xlink:title=" ">
<polygon fill="none" stroke="black" points="365.5,-134.5 365.5,-164.5 478.5,-164.5 478.5,-134.5 365.5,-134.5"/>
<text text-anchor="start" x="373.5" y="-152.5" font-family="Helvetica,sans-Serif" font-size="10.00">/github/workspace/src</text>
<text text-anchor="middle" x="422" y="-141.5" font-family="Helvetica,sans-Serif" font-size="10.00">/renderer/material.cpp</text>
</a>
</g>
</g>
<!-- Node6&#45;&gt;Node7 -->
<g id="edge7" class="edge">
<title>Node6&#45;&gt;Node7</title>
<path fill="none" stroke="midnightblue" d="M328.58,-196.85C349.29,-186.58 374.59,-174.03 393.63,-164.58"/>
<polygon fill="midnightblue" stroke="midnightblue" points="326.83,-193.82 319.43,-201.4 329.94,-200.09 326.83,-193.82"/>
</g>
<!-- Node8 -->
<g id="node8" class="node">
<title>Node8</title>
<g id="a_node8"><a xlink:href="mesh_8h.html" target="_top" xlink:title=" ">
<polygon fill="none" stroke="black" points="234.5,-134.5 234.5,-164.5 347.5,-164.5 347.5,-134.5 234.5,-134.5"/>
<text text-anchor="start" x="242.5" y="-152.5" font-family="Helvetica,sans-Serif" font-size="10.00">/github/workspace/src</text>
<text text-anchor="middle" x="291" y="-141.5" font-family="Helvetica,sans-Serif" font-size="10.00">/renderer/mesh.h</text>
</a>
</g>
</g>
<!-- Node6&#45;&gt;Node8 -->
<g id="edge9" class="edge">
<title>Node6&#45;&gt;Node8</title>
<path fill="none" stroke="midnightblue" d="M291,-191.11C291,-182.15 291,-172.32 291,-164.58"/>
<polygon fill="midnightblue" stroke="midnightblue" points="287.5,-191.4 291,-201.4 294.5,-191.4 287.5,-191.4"/>
</g>
<!-- Node9 -->
<g id="node9" class="node">
<title>Node9</title>
<g id="a_node9"><a xlink:href="mesh_8cpp.html" target="_top" xlink:title=" ">
<polygon fill="none" stroke="black" points="234.5,-67.5 234.5,-97.5 347.5,-97.5 347.5,-67.5 234.5,-67.5"/>
<text text-anchor="start" x="242.5" y="-85.5" font-family="Helvetica,sans-Serif" font-size="10.00">/github/workspace/src</text>
<text text-anchor="middle" x="291" y="-74.5" font-family="Helvetica,sans-Serif" font-size="10.00">/renderer/mesh.cpp</text>
</a>
</g>
</g>
<!-- Node8&#45;&gt;Node9 -->
<g id="edge10" class="edge">
<title>Node8&#45;&gt;Node9</title>
<path fill="none" stroke="midnightblue" d="M291,-124.11C291,-115.15 291,-105.32 291,-97.58"/>
<polygon fill="midnightblue" stroke="midnightblue" points="287.5,-124.4 291,-134.4 294.5,-124.4 287.5,-124.4"/>
</g>
<!-- Node8&#45;&gt;Node10 -->
<g id="edge11" class="edge">
<title>Node8&#45;&gt;Node10</title>
<path fill="none" stroke="midnightblue" d="M244.21,-130.82C216.57,-120.37 182.04,-107.32 156.25,-97.58"/>
<polygon fill="midnightblue" stroke="midnightblue" points="243.09,-134.13 253.68,-134.4 245.56,-127.59 243.09,-134.13"/>
</g>
<!-- Node11 -->
<g id="node11" class="node">
<title>Node11</title>
<g id="a_node11"><a xlink:href="modelloader_8cpp.html" target="_top" xlink:title=" ">
<polygon fill="none" stroke="black" points="14,-0.5 14,-30.5 142,-30.5 142,-0.5 14,-0.5"/>
<text text-anchor="start" x="22" y="-18.5" font-family="Helvetica,sans-Serif" font-size="10.00">/github/workspace/src</text>
<text text-anchor="middle" x="78" y="-7.5" font-family="Helvetica,sans-Serif" font-size="10.00">/renderer/modelloader.cpp</text>
</a>
</g>
</g>
<!-- Node10&#45;&gt;Node11 -->
<g id="edge12" class="edge">
<title>Node10&#45;&gt;Node11</title>
<path fill="none" stroke="midnightblue" d="M104.72,-58.87C98.79,-49.46 92.09,-38.83 86.88,-30.58"/>
<polygon fill="midnightblue" stroke="midnightblue" points="101.81,-60.81 110.1,-67.4 107.73,-57.07 101.81,-60.81"/>
</g>
<!-- Node10&#45;&gt;Node12 -->
<g id="edge13" class="edge">
<title>Node10&#45;&gt;Node12</title>
<path fill="none" stroke="midnightblue" d="M155.72,-62.85C175.96,-52.58 200.67,-40.03 219.28,-30.58"/>
<polygon fill="midnightblue" stroke="midnightblue" points="154.11,-59.75 146.77,-67.4 157.28,-65.99 154.11,-59.75"/>
</g>
<!-- Node15 -->
<g id="node15" class="node">
<title>Node15</title>
<g id="a_node15"><a xlink:href="buffer_8h.html" target="_top" xlink:title=" ">
<polygon fill="none" stroke="black" points="727.5,-402.5 727.5,-432.5 848.5,-432.5 848.5,-402.5 727.5,-402.5"/>
<text text-anchor="start" x="735.5" y="-420.5" font-family="Helvetica,sans-Serif" font-size="10.00">/github/workspace/src</text>
<text text-anchor="middle" x="788" y="-409.5" font-family="Helvetica,sans-Serif" font-size="10.00">/renderer/vulkan/buffer.h</text>
</a>
</g>
</g>
<!-- Node14&#45;&gt;Node15 -->
<g id="edge19" class="edge">
<title>Node14&#45;&gt;Node15</title>
<path fill="none" stroke="midnightblue" d="M899.13,-465.41C874.55,-455.03 844.14,-442.2 821.35,-432.58"/>
<polygon fill="midnightblue" stroke="midnightblue" points="898.01,-468.73 908.58,-469.4 900.73,-462.28 898.01,-468.73"/>
</g>
<!-- Node14&#45;&gt;Node23 -->
<g id="edge47" class="edge">
<title>Node14&#45;&gt;Node23</title>
<path fill="none" stroke="midnightblue" d="M1006.54,-465.31C1022.93,-457.79 1039,-447.35 1050,-433 1097.72,-370.74 1093.18,-268.7 1089.64,-231.57"/>
<polygon fill="midnightblue" stroke="midnightblue" points="1004.72,-462.28 996.88,-469.41 1007.45,-468.72 1004.72,-462.28"/>
</g>
<!-- Node24 -->
<g id="node24" class="node">
<title>Node24</title>
<g id="a_node24"><a xlink:href="commandbuffer_8cpp.html" target="_top" xlink:title=" ">
<polygon fill="none" stroke="black" points="867,-402.5 867,-432.5 1041,-432.5 1041,-402.5 867,-402.5"/>
<text text-anchor="start" x="875" y="-420.5" font-family="Helvetica,sans-Serif" font-size="10.00">/github/workspace/src</text>
<text text-anchor="middle" x="954" y="-409.5" font-family="Helvetica,sans-Serif" font-size="10.00">/renderer/vulkan/commandbuffer.cpp</text>
</a>
</g>
</g>
<!-- Node14&#45;&gt;Node24 -->
<g id="edge30" class="edge">
<title>Node14&#45;&gt;Node24</title>
<path fill="none" stroke="midnightblue" d="M946.45,-459.4C948.12,-450.37 949.96,-440.41 951.4,-432.58"/>
<polygon fill="midnightblue" stroke="midnightblue" points="942.98,-458.93 944.6,-469.4 949.86,-460.2 942.98,-458.93"/>
</g>
<!-- Node25 -->
<g id="node25" class="node">
<title>Node25</title>
<g id="a_node25"><a xlink:href="swapchain_8h.html" target="_top" xlink:title=" ">
<polygon fill="none" stroke="black" points="1310.5,-402.5 1310.5,-432.5 1453.5,-432.5 1453.5,-402.5 1310.5,-402.5"/>
<text text-anchor="start" x="1318.5" y="-420.5" font-family="Helvetica,sans-Serif" font-size="10.00">/github/workspace/src</text>
<text text-anchor="middle" x="1382" y="-409.5" font-family="Helvetica,sans-Serif" font-size="10.00">/renderer/vulkan/swapchain.h</text>
</a>
</g>
</g>
<!-- Node14&#45;&gt;Node25 -->
<g id="edge31" class="edge">
<title>Node14&#45;&gt;Node25</title>
<path fill="none" stroke="midnightblue" d="M1034.44,-468.94C1136.6,-453.52 1242.2,-438.34 1310.31,-428.64"/>
<polygon fill="midnightblue" stroke="midnightblue" points="1033.62,-465.53 1024.25,-470.49 1034.66,-472.45 1033.62,-465.53"/>
</g>
<!-- Node16 -->
<g id="node16" class="node">
<title>Node16</title>
<g id="a_node16"><a xlink:href="buffer_8cpp.html" target="_top" xlink:title=" ">
<polygon fill="none" stroke="black" points="747.5,-335.5 747.5,-365.5 878.5,-365.5 878.5,-335.5 747.5,-335.5"/>
<text text-anchor="start" x="755.5" y="-353.5" font-family="Helvetica,sans-Serif" font-size="10.00">/github/workspace/src</text>
<text text-anchor="middle" x="813" y="-342.5" font-family="Helvetica,sans-Serif" font-size="10.00">/renderer/vulkan/buffer.cpp</text>
</a>
</g>
</g>
<!-- Node15&#45;&gt;Node16 -->
<g id="edge20" class="edge">
<title>Node15&#45;&gt;Node16</title>
<path fill="none" stroke="midnightblue" d="M797.04,-392.99C800.58,-383.8 804.51,-373.58 807.59,-365.58"/>
<polygon fill="midnightblue" stroke="midnightblue" points="793.75,-391.81 793.42,-402.4 800.28,-394.32 793.75,-391.81"/>
</g>
<!-- Node17 -->
<g id="node17" class="node">
<title>Node17</title>
<g id="a_node17"><a xlink:href="bufferview_8h.html" target="_top" xlink:title=" ">
<polygon fill="none" stroke="black" points="896.5,-335.5 896.5,-365.5 1037.5,-365.5 1037.5,-335.5 896.5,-335.5"/>
<text text-anchor="start" x="904.5" y="-353.5" font-family="Helvetica,sans-Serif" font-size="10.00">/github/workspace/src</text>
<text text-anchor="middle" x="967" y="-342.5" font-family="Helvetica,sans-Serif" font-size="10.00">/renderer/vulkan/bufferview.h</text>
</a>
</g>
</g>
<!-- Node15&#45;&gt;Node17 -->
<g id="edge21" class="edge">
<title>Node15&#45;&gt;Node17</title>
<path fill="none" stroke="midnightblue" d="M836.32,-398.96C865.15,-388.48 901.28,-375.37 928.24,-365.58"/>
<polygon fill="midnightblue" stroke="midnightblue" points="835.05,-395.69 826.84,-402.4 837.43,-402.27 835.05,-395.69"/>
</g>
<!-- Node19 -->
<g id="node19" class="node">
<title>Node19</title>
<g id="a_node19"><a xlink:href="uniformbuffer_8h.html" target="_top" xlink:title=" ">
<polygon fill="none" stroke="black" points="576.5,-335.5 576.5,-365.5 729.5,-365.5 729.5,-335.5 576.5,-335.5"/>
<text text-anchor="start" x="584.5" y="-353.5" font-family="Helvetica,sans-Serif" font-size="10.00">/github/workspace/src</text>
<text text-anchor="middle" x="653" y="-342.5" font-family="Helvetica,sans-Serif" font-size="10.00">/renderer/vulkan/uniformbuffer.h</text>
</a>
</g>
</g>
<!-- Node15&#45;&gt;Node19 -->
<g id="edge23" class="edge">
<title>Node15&#45;&gt;Node19</title>
<path fill="none" stroke="midnightblue" d="M749.56,-397.99C728.16,-387.69 701.95,-375.07 682.24,-365.58"/>
<polygon fill="midnightblue" stroke="midnightblue" points="748.18,-401.21 758.71,-402.4 751.22,-394.9 748.18,-401.21"/>
</g>
<!-- Node18 -->
<g id="node18" class="node">
<title>Node18</title>
<g id="a_node18"><a xlink:href="bufferview_8cpp.html" target="_top" xlink:title=" ">
<polygon fill="none" stroke="black" points="889,-268.5 889,-298.5 1041,-298.5 1041,-268.5 889,-268.5"/>
<text text-anchor="start" x="897" y="-286.5" font-family="Helvetica,sans-Serif" font-size="10.00">/github/workspace/src</text>
<text text-anchor="middle" x="965" y="-275.5" font-family="Helvetica,sans-Serif" font-size="10.00">/renderer/vulkan/bufferview.cpp</text>
</a>
</g>
</g>
<!-- Node17&#45;&gt;Node18 -->
<g id="edge22" class="edge">
<title>Node17&#45;&gt;Node18</title>
<path fill="none" stroke="midnightblue" d="M966.25,-325.11C965.97,-316.15 965.67,-306.32 965.43,-298.58"/>
<polygon fill="midnightblue" stroke="midnightblue" points="962.76,-325.51 966.57,-335.4 969.76,-325.29 962.76,-325.51"/>
</g>
<!-- Node19&#45;&gt;Node5 -->
<g id="edge24" class="edge">
<title>Node19&#45;&gt;Node5</title>
<path fill="none" stroke="midnightblue" d="M583.69,-333.12C538.7,-322.48 480.65,-308.76 437.7,-298.61"/>
<polygon fill="midnightblue" stroke="midnightblue" points="583.13,-336.58 593.67,-335.48 584.74,-329.77 583.13,-336.58"/>
</g>
<!-- Node20 -->
<g id="node20" class="node">
<title>Node20</title>
<g id="a_node20"><a xlink:href="descriptorset_8h.html" target="_top" xlink:title=" ">
<polygon fill="none" stroke="black" points="497.5,-268.5 497.5,-298.5 650.5,-298.5 650.5,-268.5 497.5,-268.5"/>
<text text-anchor="start" x="505.5" y="-286.5" font-family="Helvetica,sans-Serif" font-size="10.00">/github/workspace/src</text>
<text text-anchor="middle" x="574" y="-275.5" font-family="Helvetica,sans-Serif" font-size="10.00">/renderer/vulkan/descriptorset.h</text>
</a>
</g>
</g>
<!-- Node19&#45;&gt;Node20 -->
<g id="edge25" class="edge">
<title>Node19&#45;&gt;Node20</title>
<path fill="none" stroke="midnightblue" d="M627.94,-328.88C615.94,-319.01 601.87,-307.43 591.11,-298.58"/>
<polygon fill="midnightblue" stroke="midnightblue" points="625.91,-331.75 635.86,-335.4 630.36,-326.34 625.91,-331.75"/>
</g>
<!-- Node22 -->
<g id="node22" class="node">
<title>Node22</title>
<g id="a_node22"><a xlink:href="uniformbuffer_8cpp.html" target="_top" xlink:title=" ">
<polygon fill="none" stroke="black" points="669,-268.5 669,-298.5 833,-298.5 833,-268.5 669,-268.5"/>
<text text-anchor="start" x="677" y="-286.5" font-family="Helvetica,sans-Serif" font-size="10.00">/github/workspace/src</text>
<text text-anchor="middle" x="751" y="-275.5" font-family="Helvetica,sans-Serif" font-size="10.00">/renderer/vulkan/uniformbuffer.cpp</text>
</a>
</g>
</g>
<!-- Node19&#45;&gt;Node22 -->
<g id="edge28" class="edge">
<title>Node19&#45;&gt;Node22</title>
<path fill="none" stroke="midnightblue" d="M682.8,-329.73C697.97,-319.68 716.04,-307.68 729.78,-298.58"/>
<polygon fill="midnightblue" stroke="midnightblue" points="680.66,-326.95 674.26,-335.4 684.53,-332.79 680.66,-326.95"/>
</g>
<!-- Node19&#45;&gt;Node23 -->
<g id="edge29" class="edge">
<title>Node19&#45;&gt;Node23</title>
<path fill="none" stroke="midnightblue" d="M739.87,-334.39C772.98,-326.58 810.35,-315.19 842,-299 861.41,-289.08 860.48,-277.7 880,-268 919.18,-248.53 966.33,-236.28 1005.82,-228.74"/>
<polygon fill="midnightblue" stroke="midnightblue" points="738.71,-331.07 729.74,-336.7 740.27,-337.89 738.71,-331.07"/>
</g>
<!-- Node20&#45;&gt;Node14 -->
<g id="edge26" class="edge">
<title>Node20&#45;&gt;Node14</title>
<path fill="none" stroke="midnightblue" d="M564.92,-308.69C560.05,-326.01 557.05,-349.16 568,-366 600.1,-415.35 759.61,-451.66 859.67,-470.02"/>
<polygon fill="midnightblue" stroke="midnightblue" points="568.38,-309.35 568.08,-298.76 561.71,-307.23 568.38,-309.35"/>
</g>
<!-- Node21 -->
<g id="node21" class="node">
<title>Node21</title>
<g id="a_node21"><a xlink:href="descriptorset_8cpp.html" target="_top" xlink:title=" ">
<polygon fill="none" stroke="black" points="520,-201.5 520,-231.5 684,-231.5 684,-201.5 520,-201.5"/>
<text text-anchor="start" x="528" y="-219.5" font-family="Helvetica,sans-Serif" font-size="10.00">/github/workspace/src</text>
<text text-anchor="middle" x="602" y="-208.5" font-family="Helvetica,sans-Serif" font-size="10.00">/renderer/vulkan/descriptorset.cpp</text>
</a>
</g>
</g>
<!-- Node20&#45;&gt;Node21 -->
<g id="edge27" class="edge">
<title>Node20&#45;&gt;Node21</title>
<path fill="none" stroke="midnightblue" d="M584.13,-258.99C588.08,-249.8 592.49,-239.58 595.94,-231.58"/>
<polygon fill="midnightblue" stroke="midnightblue" points="580.82,-257.83 580.08,-268.4 587.25,-260.6 580.82,-257.83"/>
</g>
<!-- Node25&#45;&gt;Node2 -->
<g id="edge37" class="edge">
<title>Node25&#45;&gt;Node2</title>
<path fill="none" stroke="midnightblue" d="M1358.2,-439.2C1335.01,-458.17 1297.94,-485.46 1261,-500 1259.62,-500.54 1119.81,-522.57 1025.76,-537.35"/>
<polygon fill="midnightblue" stroke="midnightblue" points="1360.65,-441.71 1366.09,-432.62 1356.17,-436.33 1360.65,-441.71"/>
</g>
<!-- Node25&#45;&gt;Node12 -->
<g id="edge46" class="edge">
<title>Node25&#45;&gt;Node12</title>
<path fill="none" stroke="midnightblue" d="M1424.64,-397.89C1465.5,-376.84 1521,-338.33 1521,-284.5 1521,-284.5 1521,-284.5 1521,-148.5 1521,-28.91 621.35,-17.1 334.07,-16.37"/>
<polygon fill="midnightblue" stroke="midnightblue" points="1423.04,-394.78 1415.65,-402.37 1426.16,-401.05 1423.04,-394.78"/>
</g>
<!-- Node25&#45;&gt;Node23 -->
<g id="edge45" class="edge">
<title>Node25&#45;&gt;Node23</title>
<path fill="none" stroke="midnightblue" d="M1408.58,-395.59C1444.14,-365.15 1498.91,-307.92 1464,-268 1444.95,-246.22 1274.84,-230.54 1170.06,-222.85"/>
<polygon fill="midnightblue" stroke="midnightblue" points="1405.89,-393.28 1400.45,-402.37 1410.37,-398.65 1405.89,-393.28"/>
</g>
<!-- Node26 -->
<g id="node26" class="node">
<title>Node26</title>
<g id="a_node26"><a xlink:href="framebuffer_8h.html" target="_top" xlink:title=" ">
<polygon fill="none" stroke="black" points="1309,-268.5 1309,-298.5 1455,-298.5 1455,-268.5 1309,-268.5"/>
<text text-anchor="start" x="1317" y="-286.5" font-family="Helvetica,sans-Serif" font-size="10.00">/github/workspace/src</text>
<text text-anchor="middle" x="1382" y="-275.5" font-family="Helvetica,sans-Serif" font-size="10.00">/renderer/vulkan/framebuffer.h</text>
</a>
</g>
</g>
<!-- Node25&#45;&gt;Node26 -->
<g id="edge32" class="edge">
<title>Node25&#45;&gt;Node26</title>
<path fill="none" stroke="midnightblue" d="M1376.64,-392.39C1374.5,-364.9 1374.83,-320.89 1377.64,-298.52"/>
<polygon fill="midnightblue" stroke="midnightblue" points="1373.16,-392.77 1377.63,-402.37 1380.13,-392.08 1373.16,-392.77"/>
</g>
<!-- Node28 -->
<g id="node28" class="node">
<title>Node28</title>
<g id="a_node28"><a xlink:href="renderpass_8h.html" target="_top" xlink:title=" ">
<polygon fill="none" stroke="black" points="1163.5,-335.5 1163.5,-365.5 1308.5,-365.5 1308.5,-335.5 1163.5,-335.5"/>
<text text-anchor="start" x="1171.5" y="-353.5" font-family="Helvetica,sans-Serif" font-size="10.00">/github/workspace/src</text>
<text text-anchor="middle" x="1236" y="-342.5" font-family="Helvetica,sans-Serif" font-size="10.00">/renderer/vulkan/renderpass.h</text>
</a>
</g>
</g>
<!-- Node25&#45;&gt;Node28 -->
<g id="edge38" class="edge">
<title>Node25&#45;&gt;Node28</title>
<path fill="none" stroke="midnightblue" d="M1341.05,-398.27C1317.8,-387.92 1289.13,-375.15 1267.62,-365.58"/>
<polygon fill="midnightblue" stroke="midnightblue" points="1339.76,-401.53 1350.32,-402.4 1342.61,-395.13 1339.76,-401.53"/>
</g>
<!-- Node30 -->
<g id="node30" class="node">
<title>Node30</title>
<g id="a_node30"><a xlink:href="swapchain_8cpp.html" target="_top" xlink:title=" ">
<polygon fill="none" stroke="black" points="1549,-335.5 1549,-365.5 1703,-365.5 1703,-335.5 1549,-335.5"/>
<text text-anchor="start" x="1557" y="-353.5" font-family="Helvetica,sans-Serif" font-size="10.00">/github/workspace/src</text>
<text text-anchor="middle" x="1626" y="-342.5" font-family="Helvetica,sans-Serif" font-size="10.00">/renderer/vulkan/swapchain.cpp</text>
</a>
</g>
</g>
<!-- Node25&#45;&gt;Node30 -->
<g id="edge44" class="edge">
<title>Node25&#45;&gt;Node30</title>
<path fill="none" stroke="midnightblue" d="M1444.5,-399.85C1484.28,-389.25 1535.24,-375.68 1573.03,-365.61"/>
<polygon fill="midnightblue" stroke="midnightblue" points="1443.41,-396.52 1434.64,-402.48 1445.21,-403.28 1443.41,-396.52"/>
</g>
<!-- Node26&#45;&gt;Node14 -->
<g id="edge33" class="edge">
<title>Node26&#45;&gt;Node14</title>
<path fill="none" stroke="midnightblue" d="M1298.97,-300.03C1239.32,-311.68 1167.33,-326.96 1155,-335 1109.73,-364.53 1126.33,-400.7 1083,-433 1060.28,-449.94 1031.34,-461.61 1005.6,-469.42"/>
<polygon fill="midnightblue" stroke="midnightblue" points="1299.66,-303.46 1308.81,-298.12 1298.32,-296.59 1299.66,-303.46"/>
</g>
<!-- Node26&#45;&gt;Node23 -->
<g id="edge36" class="edge">
<title>Node26&#45;&gt;Node23</title>
<path fill="none" stroke="midnightblue" d="M1308.8,-266.32C1260.48,-255.63 1197.8,-241.77 1151.57,-231.55"/>
<polygon fill="midnightblue" stroke="midnightblue" points="1308.05,-269.73 1318.57,-268.48 1309.56,-262.9 1308.05,-269.73"/>
</g>
<!-- Node26&#45;&gt;Node25 -->
<g id="edge35" class="edge">
<title>Node26&#45;&gt;Node25</title>
<path fill="none" stroke="midnightblue" d="M1387.35,-308.49C1389.5,-335.92 1389.18,-379.94 1386.37,-402.37"/>
<polygon fill="midnightblue" stroke="midnightblue" points="1390.83,-308.13 1386.36,-298.52 1383.86,-308.82 1390.83,-308.13"/>
</g>
<!-- Node27 -->
<g id="node27" class="node">
<title>Node27</title>
<g id="a_node27"><a xlink:href="framebuffer_8cpp.html" target="_top" xlink:title=" ">
<polygon fill="none" stroke="black" points="1304,-201.5 1304,-231.5 1460,-231.5 1460,-201.5 1304,-201.5"/>
<text text-anchor="start" x="1312" y="-219.5" font-family="Helvetica,sans-Serif" font-size="10.00">/github/workspace/src</text>
<text text-anchor="middle" x="1382" y="-208.5" font-family="Helvetica,sans-Serif" font-size="10.00">/renderer/vulkan/framebuffer.cpp</text>
</a>
</g>
</g>
<!-- Node26&#45;&gt;Node27 -->
<g id="edge34" class="edge">
<title>Node26&#45;&gt;Node27</title>
<path fill="none" stroke="midnightblue" d="M1382,-258.11C1382,-249.15 1382,-239.32 1382,-231.58"/>
<polygon fill="midnightblue" stroke="midnightblue" points="1378.5,-258.4 1382,-268.4 1385.5,-258.4 1378.5,-258.4"/>
</g>
<!-- Node28&#45;&gt;Node2 -->
<g id="edge41" class="edge">
<title>Node28&#45;&gt;Node2</title>
<path fill="none" stroke="midnightblue" d="M1243.16,-375.9C1251.06,-408.44 1259.03,-465.89 1229,-500 1225.58,-503.89 1109.11,-523.46 1025.61,-537.07"/>
<polygon fill="midnightblue" stroke="midnightblue" points="1246.46,-374.68 1240.54,-365.89 1239.68,-376.45 1246.46,-374.68"/>
</g>
<!-- Node28&#45;&gt;Node14 -->
<g id="edge39" class="edge">
<title>Node28&#45;&gt;Node14</title>
<path fill="none" stroke="midnightblue" d="M1214.77,-372.93C1195.34,-391.38 1164.97,-417.43 1134,-433 1099.82,-450.18 1059.18,-461.95 1024.11,-469.78"/>
<polygon fill="midnightblue" stroke="midnightblue" points="1217.41,-375.25 1222.16,-365.78 1212.54,-370.22 1217.41,-375.25"/>
</g>
<!-- Node28&#45;&gt;Node23 -->
<g id="edge43" class="edge">
<title>Node28&#45;&gt;Node23</title>
<path fill="none" stroke="midnightblue" d="M1178.55,-331.62C1160.39,-323.83 1141.34,-313.16 1127,-299 1107.69,-279.93 1096.67,-249.42 1091.55,-231.63"/>
<polygon fill="midnightblue" stroke="midnightblue" points="1177.35,-334.92 1187.93,-335.44 1179.99,-328.43 1177.35,-334.92"/>
</g>
<!-- Node28&#45;&gt;Node26 -->
<g id="edge40" class="edge">
<title>Node28&#45;&gt;Node26</title>
<path fill="none" stroke="midnightblue" d="M1276.95,-331.27C1300.2,-320.92 1328.87,-308.15 1350.38,-298.58"/>
<polygon fill="midnightblue" stroke="midnightblue" points="1275.39,-328.13 1267.68,-335.4 1278.24,-334.53 1275.39,-328.13"/>
</g>
<!-- Node29 -->
<g id="node29" class="node">
<title>Node29</title>
<g id="a_node29"><a xlink:href="renderpass_8cpp.html" target="_top" xlink:title=" ">
<polygon fill="none" stroke="black" points="1135.5,-268.5 1135.5,-298.5 1290.5,-298.5 1290.5,-268.5 1135.5,-268.5"/>
<text text-anchor="start" x="1143.5" y="-286.5" font-family="Helvetica,sans-Serif" font-size="10.00">/github/workspace/src</text>
<text text-anchor="middle" x="1213" y="-275.5" font-family="Helvetica,sans-Serif" font-size="10.00">/renderer/vulkan/renderpass.cpp</text>
</a>
</g>
</g>
<!-- Node28&#45;&gt;Node29 -->
<g id="edge42" class="edge">
<title>Node28&#45;&gt;Node29</title>
<path fill="none" stroke="midnightblue" d="M1227.58,-325.7C1224.35,-316.59 1220.78,-306.49 1217.98,-298.58"/>
<polygon fill="midnightblue" stroke="midnightblue" points="1224.37,-327.14 1231.01,-335.4 1230.97,-324.8 1224.37,-327.14"/>
</g>
</g>
</svg>
        <g id="navigator" transform="translate(0 0)" fill="#404254">
                <rect fill="#f2f5e9" fill-opacity="0.5" stroke="#606060" stroke-width=".5" x="0" y="0" width="60" height="60"/>
                <use id="zoomplus" xlink:href="#zoomPlus" x="17" y="9" onmousedown="handleZoom(evt,'in')"/>
                <use id="zoomminus" xlink:href="#zoomMin" x="42" y="9" onmousedown="handleZoom(evt,'out')"/>
                <use id="reset" xlink:href="#resetDef" x="30" y="36" onmousedown="handleReset()"/>
                <g id="arrowUp" xlink:href="#dirArrow" transform="translate(30 24)" onmousedown="handlePan(0,-1)">
                  <use xlink:href="#rim" fill="#404040">
                        <set attributeName="fill" to="#808080" begin="arrowUp.mouseover" end="arrowUp.mouseout"/>
                  </use>
                  <path fill="none" stroke="white" stroke-width="1.5" d="M0,-3.0v7 M-2.5,-0.5L0,-3.0L2.5,-0.5"/>
                </g>
                <g id="arrowRight" xlink:href="#dirArrow" transform="rotate(90) translate(36 -43)" onmousedown="handlePan(1,0)">
                  <use xlink:href="#rim" fill="#404040">
                        <set attributeName="fill" to="#808080" begin="arrowRight.mouseover" end="arrowRight.mouseout"/>
                  </use>
                  <path fill="none" stroke="white" stroke-width="1.5" d="M0,-3.0v7 M-2.5,-0.5L0,-3.0L2.5,-0.5"/>
                </g>
                <g id="arrowDown" xlink:href="#dirArrow" transform="rotate(180) translate(-30 -48)" onmousedown="handlePan(0,1)">
                  <use xlink:href="#rim" fill="#404040">
                        <set attributeName="fill" to="#808080" begin="arrowDown.mouseover" end="arrowDown.mouseout"/>
                  </use>
                  <path fill="none" stroke="white" stroke-width="1.5" d="M0,-3.0v7 M-2.5,-0.5L0,-3.0L2.5,-0.5"/>
                </g>
                <g id="arrowLeft" xlink:href="#dirArrow" transform="rotate(270) translate(-36 17)" onmousedown="handlePan(-1,0)">
                  <use xlink:href="#rim" fill="#404040">
                        <set attributeName="fill" to="#808080" begin="arrowLeft.mouseover" end="arrowLeft.mouseout"/>
                  </use>
                  <path fill="none" stroke="white" stroke-width="1.5" d="M0,-3.0v7 M-2.5,-0.5L0,-3.0L2.5,-0.5"/>
                </g>
        </g>
        <svg viewBox="0 0 15 15" width="100%" height="30px" preserveAspectRatio="xMaxYMin meet">
         <g id="arrow_out" transform="scale(0.3 0.3)">
          <a xlink:href="shader_8h__dep__incl_org.svg" target="_base">
           <rect id="button" ry="5" rx="5" y="6" x="6" height="38" width="38"
                fill="#f2f5e9" fill-opacity="0.5" stroke="#606060" stroke-width="1.0"/>
           <path id="arrow"
             d="M 11.500037,31.436501 C 11.940474,20.09759 22.043105,11.32322 32.158766,21.979434 L 37.068811,17.246167 C 37.068811,17.246167 37.088388,32 37.088388,32 L 22.160133,31.978069 C 22.160133,31.978069 26.997745,27.140456 26.997745,27.140456 C 18.528582,18.264221 13.291696,25.230495 11.500037,31.436501 z"
             style="fill:#404040;"/>
          </a>
         </g>
        </svg>
</svg>
