<?xml version="1.0" encoding="UTF-8" standalone="no"?>
<!DOCTYPE svg PUBLIC "-//W3C//DTD SVG 1.1//EN"
 "http://www.w3.org/Graphics/SVG/1.1/DTD/svg11.dtd">
<!-- Generated by graphviz version 2.49.3 (20211215.1918)
 -->
<!-- Title: /github/workspace/src/renderer/vulkan/shader.h Pages: 1 -->
<svg width="1649pt" height="375pt"
 viewBox="0.00 0.00 1648.50 375.00" xmlns="http://www.w3.org/2000/svg" xmlns:xlink="http://www.w3.org/1999/xlink">
<g id="graph0" class="graph" transform="scale(1 1) rotate(0) translate(4 371)">
<title>/github/workspace/src/renderer/vulkan/shader.h</title>
<!-- Node1 -->
<g id="node1" class="node">
<title>Node1</title>
<g id="a_node1"><a xlink:title=" ">
<polygon fill="#bfbfbf" stroke="black" points="1309,-336.5 1309,-366.5 1435,-366.5 1435,-336.5 1309,-336.5"/>
<text text-anchor="start" x="1317" y="-354.5" font-family="Helvetica,sans-Serif" font-size="10.00">/github/workspace/src</text>
<text text-anchor="middle" x="1372" y="-343.5" font-family="Helvetica,sans-Serif" font-size="10.00">/renderer/vulkan/shader.h</text>
</a>
</g>
</g>
<!-- Node2 -->
<g id="node2" class="node">
<title>Node2</title>
<g id="a_node2"><a xlink:title=" ">
<polygon fill="none" stroke="#bfbfbf" points="173,-0.5 173,-19.5 257,-19.5 257,-0.5 173,-0.5"/>
<text text-anchor="middle" x="215" y="-7.5" font-family="Helvetica,sans-Serif" font-size="10.00">vulkan/vulkan.h</text>
</a>
</g>
</g>
<!-- Node1&#45;&gt;Node2 -->
<g id="edge1" class="edge">
<title>Node1&#45;&gt;Node2</title>
<path fill="none" stroke="midnightblue" d="M1308.58,-348.53C1038.75,-339.73 0,-301.56 0,-235 0,-235 0,-235 0,-121 0,-48.22 98.85,-23.56 162.5,-15.23"/>
<polygon fill="midnightblue" stroke="midnightblue" points="163.27,-18.66 172.78,-13.99 162.43,-11.71 163.27,-18.66"/>
</g>
<!-- Node3 -->
<g id="node3" class="node">
<title>Node3</title>
<g id="a_node3"><a xlink:title=" ">
<polygon fill="none" stroke="#bfbfbf" points="1534.5,-280.5 1534.5,-299.5 1583.5,-299.5 1583.5,-280.5 1534.5,-280.5"/>
<text text-anchor="middle" x="1559" y="-287.5" font-family="Helvetica,sans-Serif" font-size="10.00">cassert</text>
</a>
</g>
</g>
<!-- Node1&#45;&gt;Node3 -->
<g id="edge2" class="edge">
<title>Node1&#45;&gt;Node3</title>
<path fill="none" stroke="midnightblue" d="M1416.32,-336.4C1449.5,-325.84 1494.24,-311.6 1524.72,-301.91"/>
<polygon fill="midnightblue" stroke="midnightblue" points="1526,-305.17 1534.47,-298.8 1523.88,-298.5 1526,-305.17"/>
</g>
<!-- Node4 -->
<g id="node4" class="node">
<title>Node4</title>
<g id="a_node4"><a xlink:title=" ">
<polygon fill="none" stroke="#bfbfbf" points="304.5,-56.5 304.5,-75.5 363.5,-75.5 363.5,-56.5 304.5,-56.5"/>
<text text-anchor="middle" x="334" y="-63.5" font-family="Helvetica,sans-Serif" font-size="10.00">stdexcept</text>
</a>
</g>
</g>
<!-- Node1&#45;&gt;Node4 -->
<g id="edge3" class="edge">
<title>Node1&#45;&gt;Node4</title>
<path fill="none" stroke="midnightblue" d="M1309,-349.67C1112.24,-346.2 512.09,-328.76 340,-244 280.24,-214.57 238.08,-171.01 269,-112 276.28,-98.11 290.01,-87.65 302.98,-80.33"/>
<polygon fill="midnightblue" stroke="midnightblue" points="304.93,-83.27 312.19,-75.55 301.7,-77.05 304.93,-83.27"/>
</g>
<!-- Node5 -->
<g id="node5" class="node">
<title>Node5</title>
<g id="a_node5"><a xlink:title=" ">
<polygon fill="none" stroke="#bfbfbf" points="1601.5,-280.5 1601.5,-299.5 1640.5,-299.5 1640.5,-280.5 1601.5,-280.5"/>
<text text-anchor="middle" x="1621" y="-287.5" font-family="Helvetica,sans-Serif" font-size="10.00">utility</text>
</a>
</g>
</g>
<!-- Node1&#45;&gt;Node5 -->
<g id="edge4" class="edge">
<title>Node1&#45;&gt;Node5</title>
<path fill="none" stroke="midnightblue" d="M1435.23,-337.57C1477.28,-328.62 1533.9,-315.9 1591.8,-300.17"/>
<polygon fill="midnightblue" stroke="midnightblue" points="1592.76,-303.53 1601.48,-297.51 1590.91,-296.78 1592.76,-303.53"/>
</g>
<!-- Node6 -->
<g id="node6" class="node">
<title>Node6</title>
<g id="a_node6"><a xlink:title=" ">
<polygon fill="none" stroke="#bfbfbf" points="1175,-0.5 1175,-19.5 1219,-19.5 1219,-0.5 1175,-0.5"/>
<text text-anchor="middle" x="1197" y="-7.5" font-family="Helvetica,sans-Serif" font-size="10.00">vector</text>
</a>
</g>
</g>
<!-- Node1&#45;&gt;Node6 -->
<g id="edge5" class="edge">
<title>Node1&#45;&gt;Node6</title>
<path fill="none" stroke="midnightblue" d="M1379.59,-336.28C1394.25,-307.47 1425,-239.77 1425,-179 1425,-179 1425,-179 1425,-121 1425,-35.21 1292.43,-16.29 1229.47,-12.15"/>
<polygon fill="midnightblue" stroke="midnightblue" points="1229.46,-8.64 1219.28,-11.57 1229.06,-15.63 1229.46,-8.64"/>
</g>
<!-- Node7 -->
<g id="node7" class="node">
<title>Node7</title>
<g id="a_node7"><a xlink:title=" ">
<polygon fill="none" stroke="#bfbfbf" points="1239.5,-56.5 1239.5,-75.5 1280.5,-75.5 1280.5,-56.5 1239.5,-56.5"/>
<text text-anchor="middle" x="1260" y="-63.5" font-family="Helvetica,sans-Serif" font-size="10.00">string</text>
</a>
</g>
</g>
<!-- Node1&#45;&gt;Node7 -->
<g id="edge6" class="edge">
<title>Node1&#45;&gt;Node7</title>
<path fill="none" stroke="midnightblue" d="M1366.45,-336.44C1347.86,-289.4 1287.87,-137.55 1267.13,-85.05"/>
<polygon fill="midnightblue" stroke="midnightblue" points="1270.36,-83.7 1263.43,-75.68 1263.85,-86.27 1270.36,-83.7"/>
</g>
<!-- Node8 -->
<g id="node8" class="node">
<title>Node8</title>
<g id="a_node8"><a xlink:href="device_8h.html" target="_top" xlink:title=" ">
<polygon fill="none" stroke="black" points="810.5,-280.5 810.5,-299.5 863.5,-299.5 863.5,-280.5 810.5,-280.5"/>
<text text-anchor="middle" x="837" y="-287.5" font-family="Helvetica,sans-Serif" font-size="10.00">device.h</text>
</a>
</g>
</g>
<!-- Node1&#45;&gt;Node8 -->
<g id="edge7" class="edge">
<title>Node1&#45;&gt;Node8</title>
<path fill="none" stroke="midnightblue" d="M1308.79,-343.47C1196.02,-330.93 963.54,-305.07 873.62,-295.07"/>
<polygon fill="midnightblue" stroke="midnightblue" points="873.96,-291.59 863.63,-293.96 873.18,-298.55 873.96,-291.59"/>
</g>
<!-- Node29 -->
<g id="node29" class="node">
<title>Node29</title>
<g id="a_node29"><a xlink:href="utils_8h.html" target="_top" xlink:title=" ">
<polygon fill="none" stroke="black" points="1438,-280.5 1438,-299.5 1516,-299.5 1516,-280.5 1438,-280.5"/>
<text text-anchor="middle" x="1477" y="-287.5" font-family="Helvetica,sans-Serif" font-size="10.00">../../utils/utils.h</text>
</a>
</g>
</g>
<!-- Node1&#45;&gt;Node29 -->
<g id="edge62" class="edge">
<title>Node1&#45;&gt;Node29</title>
<path fill="none" stroke="midnightblue" d="M1396.88,-336.4C1413.71,-326.86 1435.84,-314.32 1452.57,-304.84"/>
<polygon fill="midnightblue" stroke="midnightblue" points="1454.75,-307.63 1461.72,-299.66 1451.3,-301.54 1454.75,-307.63"/>
</g>
<!-- Node8&#45;&gt;Node2 -->
<g id="edge8" class="edge">
<title>Node8&#45;&gt;Node2</title>
<path fill="none" stroke="midnightblue" d="M810.32,-288.97C699.03,-288.6 271.55,-284.5 144,-244 91.33,-227.28 38,-234.26 38,-179 38,-179 38,-179 38,-121 38,-90.9 35.64,-77.21 57,-56 84.79,-28.41 128.21,-17.47 162.51,-13.25"/>
<polygon fill="midnightblue" stroke="midnightblue" points="163.27,-16.69 172.84,-12.15 162.52,-9.73 163.27,-16.69"/>
</g>
<!-- Node8&#45;&gt;Node4 -->
<g id="edge11" class="edge">
<title>Node8&#45;&gt;Node4</title>
<path fill="none" stroke="midnightblue" d="M810.3,-288.04C726.27,-284.74 468.13,-272.5 390,-244 322.97,-219.55 293.77,-200.83 275,-132 272.66,-123.42 271.06,-119.97 275,-112 281.6,-98.66 294.26,-88.19 306.17,-80.73"/>
<polygon fill="midnightblue" stroke="midnightblue" points="308.12,-83.64 315.02,-75.6 304.61,-77.59 308.12,-83.64"/>
</g>
<!-- Node8&#45;&gt;Node6 -->
<g id="edge10" class="edge">
<title>Node8&#45;&gt;Node6</title>
<path fill="none" stroke="midnightblue" d="M863.53,-289.41C973.39,-290.43 1387,-287.09 1387,-179 1387,-179 1387,-179 1387,-121 1387,-49 1283.54,-23.36 1229.31,-14.87"/>
<polygon fill="midnightblue" stroke="midnightblue" points="1229.57,-11.37 1219.17,-13.39 1228.56,-18.3 1229.57,-11.37"/>
</g>
<!-- Node8&#45;&gt;Node7 -->
<g id="edge12" class="edge">
<title>Node8&#45;&gt;Node7</title>
<path fill="none" stroke="midnightblue" d="M863.76,-289.17C938.21,-289.13 1145.68,-285.21 1197,-244 1246.34,-204.38 1257.08,-123.16 1259.39,-86.14"/>
<polygon fill="midnightblue" stroke="midnightblue" points="1262.9,-85.94 1259.88,-75.79 1255.91,-85.61 1262.9,-85.94"/>
</g>
<!-- Node9 -->
<g id="node9" class="node">
<title>Node9</title>
<g id="a_node9"><a xlink:title=" ">
<polygon fill="none" stroke="#bfbfbf" points="66.5,-56.5 66.5,-75.5 153.5,-75.5 153.5,-56.5 66.5,-56.5"/>
<text text-anchor="middle" x="110" y="-63.5" font-family="Helvetica,sans-Serif" font-size="10.00">vk_mem_alloc.h</text>
</a>
</g>
</g>
<!-- Node8&#45;&gt;Node9 -->
<g id="edge9" class="edge">
<title>Node8&#45;&gt;Node9</title>
<path fill="none" stroke="midnightblue" d="M810.12,-288.5C693.3,-286.14 233.15,-274.93 177,-244 122.96,-214.24 114.17,-190.64 95,-132 89.89,-116.37 95.07,-98.07 100.69,-84.88"/>
<polygon fill="midnightblue" stroke="midnightblue" points="103.99,-86.08 105.11,-75.55 97.67,-83.09 103.99,-86.08"/>
</g>
<!-- Node10 -->
<g id="node10" class="node">
<title>Node10</title>
<g id="a_node10"><a xlink:title=" ">
<polygon fill="none" stroke="#bfbfbf" points="333,-168.5 333,-187.5 363,-187.5 363,-168.5 333,-168.5"/>
<text text-anchor="middle" x="348" y="-175.5" font-family="Helvetica,sans-Serif" font-size="10.00">set</text>
</a>
</g>
</g>
<!-- Node8&#45;&gt;Node10 -->
<g id="edge13" class="edge">
<title>Node8&#45;&gt;Node10</title>
<path fill="none" stroke="midnightblue" d="M810.36,-283.97C739.43,-270.41 540.23,-231.17 377,-188 375.74,-187.67 374.45,-187.31 373.15,-186.95"/>
<polygon fill="midnightblue" stroke="midnightblue" points="373.86,-183.51 363.28,-184.01 371.87,-190.22 373.86,-183.51"/>
</g>
<!-- Node11 -->
<g id="node11" class="node">
<title>Node11</title>
<g id="a_node11"><a xlink:title=" ">
<polygon fill="none" stroke="#bfbfbf" points="854,-0.5 854,-19.5 900,-19.5 900,-0.5 854,-0.5"/>
<text text-anchor="middle" x="877" y="-7.5" font-family="Helvetica,sans-Serif" font-size="10.00">cstring</text>
</a>
</g>
</g>
<!-- Node8&#45;&gt;Node11 -->
<g id="edge14" class="edge">
<title>Node8&#45;&gt;Node11</title>
<path fill="none" stroke="midnightblue" d="M863.96,-289.78C926.06,-289.92 1078.85,-280.4 1144,-188 1149.12,-180.74 1149.82,-174.72 1144,-168 1070.81,-83.47 974.23,-210.9 895,-132 867.88,-104.99 870.02,-56.03 873.67,-29.42"/>
<polygon fill="midnightblue" stroke="midnightblue" points="877.13,-29.94 875.24,-19.51 870.22,-28.84 877.13,-29.94"/>
</g>
<!-- Node12 -->
<g id="node12" class="node">
<title>Node12</title>
<g id="a_node12"><a xlink:title=" ">
<polygon fill="none" stroke="#bfbfbf" points="1023,-0.5 1023,-19.5 1077,-19.5 1077,-0.5 1023,-0.5"/>
<text text-anchor="middle" x="1050" y="-7.5" font-family="Helvetica,sans-Serif" font-size="10.00">iostream</text>
</a>
</g>
</g>
<!-- Node8&#45;&gt;Node12 -->
<g id="edge15" class="edge">
<title>Node8&#45;&gt;Node12</title>
<path fill="none" stroke="midnightblue" d="M863.65,-288.85C940.5,-287.95 1160.79,-282.04 1220,-244 1244.5,-228.26 1241.91,-214.49 1254,-188 1279.26,-132.68 1328.84,-102.79 1290,-56 1277.15,-40.51 1151.26,-23.24 1087.14,-15.35"/>
<polygon fill="midnightblue" stroke="midnightblue" points="1087.39,-11.85 1077.04,-14.12 1086.54,-18.8 1087.39,-11.85"/>
</g>
<!-- Node13 -->
<g id="node13" class="node">
<title>Node13</title>
<g id="a_node13"><a xlink:title=" ">
<polygon fill="none" stroke="#bfbfbf" points="284.5,-112.5 284.5,-131.5 325.5,-131.5 325.5,-112.5 284.5,-112.5"/>
<text text-anchor="middle" x="305" y="-119.5" font-family="Helvetica,sans-Serif" font-size="10.00">bitset</text>
</a>
</g>
</g>
<!-- Node8&#45;&gt;Node13 -->
<g id="edge16" class="edge">
<title>Node8&#45;&gt;Node13</title>
<path fill="none" stroke="midnightblue" d="M810.44,-287.54C715.42,-281.78 394.2,-257.4 324,-188 311.86,-176 307.38,-156.7 305.77,-142.25"/>
<polygon fill="midnightblue" stroke="midnightblue" points="309.24,-141.64 305.01,-131.92 302.26,-142.15 309.24,-141.64"/>
</g>
<!-- Node14 -->
<g id="node14" class="node">
<title>Node14</title>
<g id="a_node14"><a xlink:title=" ">
<polygon fill="none" stroke="#bfbfbf" points="1083.5,-168.5 1083.5,-187.5 1134.5,-187.5 1134.5,-168.5 1083.5,-168.5"/>
<text text-anchor="middle" x="1109" y="-175.5" font-family="Helvetica,sans-Serif" font-size="10.00">memory</text>
</a>
</g>
</g>
<!-- Node8&#45;&gt;Node14 -->
<g id="edge17" class="edge">
<title>Node8&#45;&gt;Node14</title>
<path fill="none" stroke="midnightblue" d="M858.34,-280.37C906.31,-260.97 1022.78,-213.87 1078.42,-191.37"/>
<polygon fill="midnightblue" stroke="midnightblue" points="1079.8,-194.59 1087.76,-187.59 1077.17,-188.1 1079.8,-194.59"/>
</g>
<!-- Node15 -->
<g id="node15" class="node">
<title>Node15</title>
<g id="a_node15"><a xlink:href="physicaldevice_8h.html" target="_top" xlink:title=" ">
<polygon fill="none" stroke="black" points="793,-224.5 793,-243.5 881,-243.5 881,-224.5 793,-224.5"/>
<text text-anchor="middle" x="837" y="-231.5" font-family="Helvetica,sans-Serif" font-size="10.00">physicaldevice.h</text>
</a>
</g>
</g>
<!-- Node8&#45;&gt;Node15 -->
<g id="edge18" class="edge">
<title>Node8&#45;&gt;Node15</title>
<path fill="none" stroke="midnightblue" d="M837,-280.08C837,-273.01 837,-262.86 837,-253.99"/>
<polygon fill="midnightblue" stroke="midnightblue" points="840.5,-253.75 837,-243.75 833.5,-253.75 840.5,-253.75"/>
</g>
<!-- Node20 -->
<g id="node20" class="node">
<title>Node20</title>
<g id="a_node20"><a xlink:href="instance_8h.html" target="_top" xlink:title=" ">
<polygon fill="none" stroke="black" points="960.5,-56.5 960.5,-75.5 1021.5,-75.5 1021.5,-56.5 960.5,-56.5"/>
<text text-anchor="middle" x="991" y="-63.5" font-family="Helvetica,sans-Serif" font-size="10.00">instance.h</text>
</a>
</g>
</g>
<!-- Node8&#45;&gt;Node20 -->
<g id="edge61" class="edge">
<title>Node8&#45;&gt;Node20</title>
<path fill="none" stroke="midnightblue" d="M863.72,-287.46C940.29,-282.77 1156.37,-267.54 1177,-244 1199.26,-218.6 1194.27,-197.03 1177,-168 1145.63,-115.26 1076.04,-88.35 1031.44,-76.01"/>
<polygon fill="midnightblue" stroke="midnightblue" points="1032.07,-72.56 1021.5,-73.39 1030.28,-79.33 1032.07,-72.56"/>
</g>
<!-- Node15&#45;&gt;Node6 -->
<g id="edge24" class="edge">
<title>Node15&#45;&gt;Node6</title>
<path fill="none" stroke="midnightblue" d="M872.23,-224.44C900.37,-216.88 940.37,-204.49 973,-188 1049.82,-149.16 1065.01,-131.27 1131,-76 1149.38,-60.61 1168.73,-41.1 1181.69,-27.49"/>
<polygon fill="midnightblue" stroke="midnightblue" points="1184.56,-29.55 1188.87,-19.87 1179.47,-24.75 1184.56,-29.55"/>
</g>
<!-- Node15&#45;&gt;Node7 -->
<g id="edge20" class="edge">
<title>Node15&#45;&gt;Node7</title>
<path fill="none" stroke="midnightblue" d="M881.23,-225.34C921.01,-217.84 980.74,-205.06 1031,-188 1051.34,-181.09 1054.77,-175.22 1075,-168 1133.89,-146.99 1159.11,-166.88 1211,-132 1228.72,-120.09 1242.6,-99.59 1250.99,-84.79"/>
<polygon fill="midnightblue" stroke="midnightblue" points="1254.26,-86.1 1255.91,-75.63 1248.09,-82.79 1254.26,-86.1"/>
</g>
<!-- Node15&#45;&gt;Node10 -->
<g id="edge21" class="edge">
<title>Node15&#45;&gt;Node10</title>
<path fill="none" stroke="midnightblue" d="M792.8,-231.66C710.3,-228.5 527.62,-218.41 377,-188 375.72,-187.74 374.42,-187.45 373.11,-187.13"/>
<polygon fill="midnightblue" stroke="midnightblue" points="373.77,-183.68 363.2,-184.35 371.88,-190.42 373.77,-183.68"/>
</g>
<!-- Node15&#45;&gt;Node12 -->
<g id="edge22" class="edge">
<title>Node15&#45;&gt;Node12</title>
<path fill="none" stroke="midnightblue" d="M867.76,-224.47C890.89,-217.14 922.65,-205.03 947,-188 997.99,-152.34 1006.29,-133.1 1031,-76 1037.57,-60.83 1042.65,-42.71 1045.9,-29.46"/>
<polygon fill="midnightblue" stroke="midnightblue" points="1049.33,-30.18 1048.19,-19.65 1042.51,-28.59 1049.33,-30.18"/>
</g>
<!-- Node15&#45;&gt;Node13 -->
<g id="edge23" class="edge">
<title>Node15&#45;&gt;Node13</title>
<path fill="none" stroke="midnightblue" d="M792.99,-226.17C706.37,-212.3 507.73,-178.4 335.31,-132.74"/>
<polygon fill="midnightblue" stroke="midnightblue" points="336.13,-129.33 325.56,-130.14 334.32,-136.1 336.13,-129.33"/>
</g>
<!-- Node15&#45;&gt;Node14 -->
<g id="edge25" class="edge">
<title>Node15&#45;&gt;Node14</title>
<path fill="none" stroke="midnightblue" d="M881.12,-224.85C927.85,-216.11 1003.74,-201.67 1069,-188 1070.44,-187.7 1071.9,-187.39 1073.38,-187.07"/>
<polygon fill="midnightblue" stroke="midnightblue" points="1074.18,-190.48 1083.2,-184.92 1072.69,-183.64 1074.18,-190.48"/>
</g>
<!-- Node16 -->
<g id="node16" class="node">
<title>Node16</title>
<g id="a_node16"><a xlink:title=" ">
<polygon fill="none" stroke="#bfbfbf" points="633,-112.5 633,-131.5 741,-131.5 741,-112.5 633,-112.5"/>
<text text-anchor="middle" x="687" y="-119.5" font-family="Helvetica,sans-Serif" font-size="10.00">vulkan/vulkan_core.h</text>
</a>
</g>
</g>
<!-- Node15&#45;&gt;Node16 -->
<g id="edge19" class="edge">
<title>Node15&#45;&gt;Node16</title>
<path fill="none" stroke="midnightblue" d="M825.23,-224.37C799.6,-205.57 738.5,-160.77 706.82,-137.53"/>
<polygon fill="midnightblue" stroke="midnightblue" points="708.85,-134.68 698.72,-131.59 704.71,-140.33 708.85,-134.68"/>
</g>
<!-- Node17 -->
<g id="node17" class="node">
<title>Node17</title>
<g id="a_node17"><a xlink:href="types_8h.html" target="_top" xlink:title=" ">
<polygon fill="none" stroke="black" points="813.5,-168.5 813.5,-187.5 860.5,-187.5 860.5,-168.5 813.5,-168.5"/>
<text text-anchor="middle" x="837" y="-175.5" font-family="Helvetica,sans-Serif" font-size="10.00">types.h</text>
</a>
</g>
</g>
<!-- Node15&#45;&gt;Node17 -->
<g id="edge26" class="edge">
<title>Node15&#45;&gt;Node17</title>
<path fill="none" stroke="midnightblue" d="M837,-224.08C837,-217.01 837,-206.86 837,-197.99"/>
<polygon fill="midnightblue" stroke="midnightblue" points="840.5,-197.75 837,-187.75 833.5,-197.75 840.5,-197.75"/>
</g>
<!-- Node19 -->
<g id="node19" class="node">
<title>Node19</title>
<g id="a_node19"><a xlink:href="vulkanclass_8h.html" target="_top" xlink:title=" ">
<polygon fill="none" stroke="black" points="210,-56.5 210,-75.5 286,-75.5 286,-56.5 210,-56.5"/>
<text text-anchor="middle" x="248" y="-63.5" font-family="Helvetica,sans-Serif" font-size="10.00">vulkanclass.h</text>
</a>
</g>
</g>
<!-- Node15&#45;&gt;Node19 -->
<g id="edge30" class="edge">
<title>Node15&#45;&gt;Node19</title>
<path fill="none" stroke="midnightblue" d="M792.99,-229.47C725.28,-223.58 591.67,-210.18 480,-188 433.68,-178.8 310.45,-163.21 275,-132 261.41,-120.03 254.5,-100.13 251.1,-85.5"/>
<polygon fill="midnightblue" stroke="midnightblue" points="254.5,-84.68 249.13,-75.55 247.64,-86.04 254.5,-84.68"/>
</g>
<!-- Node15&#45;&gt;Node20 -->
<g id="edge32" class="edge">
<title>Node15&#45;&gt;Node20</title>
<path fill="none" stroke="midnightblue" d="M848.85,-224.34C873.73,-209.37 929.8,-175.99 961,-132 970.85,-118.11 976.26,-99.35 980.7,-85.55"/>
<polygon fill="midnightblue" stroke="midnightblue" points="984.13,-86.34 984.11,-75.74 977.52,-84.03 984.13,-86.34"/>
</g>
<!-- Node22 -->
<g id="node22" class="node">
<title>Node22</title>
<g id="a_node22"><a xlink:href="queues_8h.html" target="_top" xlink:title=" ">
<polygon fill="none" stroke="black" points="614,-168.5 614,-187.5 670,-187.5 670,-168.5 614,-168.5"/>
<text text-anchor="middle" x="642" y="-175.5" font-family="Helvetica,sans-Serif" font-size="10.00">queues.h</text>
</a>
</g>
</g>
<!-- Node15&#45;&gt;Node22 -->
<g id="edge39" class="edge">
<title>Node15&#45;&gt;Node22</title>
<path fill="none" stroke="midnightblue" d="M801.01,-224.44C765.76,-215.24 712.58,-200.56 677.5,-190.39"/>
<polygon fill="midnightblue" stroke="midnightblue" points="678.25,-186.96 667.67,-187.52 676.29,-193.68 678.25,-186.96"/>
</g>
<!-- Node17&#45;&gt;Node2 -->
<g id="edge27" class="edge">
<title>Node17&#45;&gt;Node2</title>
<path fill="none" stroke="midnightblue" d="M837.18,-168.34C836.97,-154.25 834.35,-126.52 818,-112 736.57,-39.69 398.28,-18.41 267.2,-12.81"/>
<polygon fill="midnightblue" stroke="midnightblue" points="267.16,-9.31 257.02,-12.39 266.87,-16.3 267.16,-9.31"/>
</g>
<!-- Node17&#45;&gt;Node6 -->
<g id="edge28" class="edge">
<title>Node17&#45;&gt;Node6</title>
<path fill="none" stroke="midnightblue" d="M860.7,-172.53C893.47,-165.91 954.11,-152.08 1003,-132 1049.76,-112.79 1059.1,-102.74 1102,-76 1128.5,-59.48 1158.04,-38.91 1177.04,-25.39"/>
<polygon fill="midnightblue" stroke="midnightblue" points="1179.12,-28.21 1185.22,-19.54 1175.05,-22.51 1179.12,-28.21"/>
</g>
<!-- Node18 -->
<g id="node18" class="node">
<title>Node18</title>
<g id="a_node18"><a xlink:title=" ">
<polygon fill="none" stroke="#bfbfbf" points="759,-112.5 759,-131.5 809,-131.5 809,-112.5 759,-112.5"/>
<text text-anchor="middle" x="784" y="-119.5" font-family="Helvetica,sans-Serif" font-size="10.00">optional</text>
</a>
</g>
</g>
<!-- Node17&#45;&gt;Node18 -->
<g id="edge29" class="edge">
<title>Node17&#45;&gt;Node18</title>
<path fill="none" stroke="midnightblue" d="M828.25,-168.08C820.53,-160.22 809.1,-148.57 799.78,-139.08"/>
<polygon fill="midnightblue" stroke="midnightblue" points="802.09,-136.44 792.59,-131.75 797.1,-141.34 802.09,-136.44"/>
</g>
<!-- Node19&#45;&gt;Node2 -->
<g id="edge31" class="edge">
<title>Node19&#45;&gt;Node2</title>
<path fill="none" stroke="midnightblue" d="M242.55,-56.08C237.99,-48.61 231.33,-37.72 225.71,-28.52"/>
<polygon fill="midnightblue" stroke="midnightblue" points="228.55,-26.46 220.35,-19.75 222.58,-30.11 228.55,-26.46"/>
</g>
<!-- Node20&#45;&gt;Node2 -->
<g id="edge33" class="edge">
<title>Node20&#45;&gt;Node2</title>
<path fill="none" stroke="midnightblue" d="M960.1,-62.85C841.87,-54.62 417.31,-25.08 267.66,-14.66"/>
<polygon fill="midnightblue" stroke="midnightblue" points="267.59,-11.15 257.37,-13.95 267.1,-18.13 267.59,-11.15"/>
</g>
<!-- Node20&#45;&gt;Node6 -->
<g id="edge35" class="edge">
<title>Node20&#45;&gt;Node6</title>
<path fill="none" stroke="midnightblue" d="M1021.84,-56.92C1060.37,-46.81 1125.99,-29.61 1165.04,-19.38"/>
<polygon fill="midnightblue" stroke="midnightblue" points="1166.05,-22.73 1174.83,-16.81 1164.27,-15.96 1166.05,-22.73"/>
</g>
<!-- Node20&#45;&gt;Node11 -->
<g id="edge36" class="edge">
<title>Node20&#45;&gt;Node11</title>
<path fill="none" stroke="midnightblue" d="M972.94,-56.44C954.43,-47.68 925.42,-33.94 904.14,-23.86"/>
<polygon fill="midnightblue" stroke="midnightblue" points="905.51,-20.63 894.98,-19.52 902.52,-26.96 905.51,-20.63"/>
</g>
<!-- Node20&#45;&gt;Node12 -->
<g id="edge37" class="edge">
<title>Node20&#45;&gt;Node12</title>
<path fill="none" stroke="midnightblue" d="M1000.48,-56.32C1009.2,-48.34 1022.34,-36.31 1032.9,-26.65"/>
<polygon fill="midnightblue" stroke="midnightblue" points="1035.33,-29.17 1040.35,-19.83 1030.61,-24 1035.33,-29.17"/>
</g>
<!-- Node20&#45;&gt;Node15 -->
<g id="edge38" class="edge">
<title>Node20&#45;&gt;Node15</title>
<path fill="none" stroke="midnightblue" d="M995.65,-75.74C996.83,-88.97 991.49,-114.39 979,-132 950.53,-172.14 901.34,-203.46 868.8,-220"/>
<polygon fill="midnightblue" stroke="midnightblue" points="867.13,-216.92 859.69,-224.46 870.21,-223.21 867.13,-216.92"/>
</g>
<!-- Node21 -->
<g id="node21" class="node">
<title>Node21</title>
<g id="a_node21"><a xlink:title=" ">
<polygon fill="none" stroke="#bfbfbf" points="921.5,-0.5 921.5,-19.5 1000.5,-19.5 1000.5,-0.5 921.5,-0.5"/>
<text text-anchor="middle" x="961" y="-7.5" font-family="Helvetica,sans-Serif" font-size="10.00">GLFW/glfw3.h</text>
</a>
</g>
</g>
<!-- Node20&#45;&gt;Node21 -->
<g id="edge34" class="edge">
<title>Node20&#45;&gt;Node21</title>
<path fill="none" stroke="midnightblue" d="M986.05,-56.08C981.9,-48.61 975.85,-37.72 970.73,-28.52"/>
<polygon fill="midnightblue" stroke="midnightblue" points="973.78,-26.79 965.86,-19.75 967.66,-30.19 973.78,-26.79"/>
</g>
<!-- Node22&#45;&gt;Node6 -->
<g id="edge41" class="edge">
<title>Node22&#45;&gt;Node6</title>
<path fill="none" stroke="midnightblue" d="M670.11,-176.94C727.96,-176.02 863.82,-169.63 970,-132 986.16,-126.27 988.2,-120.67 1003,-112 1046.62,-86.45 1057.13,-79.28 1102,-56 1124.07,-44.55 1149.56,-32.54 1168.57,-23.81"/>
<polygon fill="midnightblue" stroke="midnightblue" points="1170.23,-26.9 1177.88,-19.57 1167.33,-20.53 1170.23,-26.9"/>
</g>
<!-- Node22&#45;&gt;Node8 -->
<g id="edge49" class="edge">
<title>Node22&#45;&gt;Node8</title>
<path fill="none" stroke="midnightblue" d="M657.23,-187.59C690.98,-206.63 772.29,-252.5 812.97,-275.45"/>
<polygon fill="midnightblue" stroke="midnightblue" points="811.27,-278.5 821.7,-280.37 814.71,-272.41 811.27,-278.5"/>
</g>
<!-- Node22&#45;&gt;Node13 -->
<g id="edge45" class="edge">
<title>Node22&#45;&gt;Node13</title>
<path fill="none" stroke="midnightblue" d="M613.93,-173.81C560.38,-167.49 440.01,-152.25 340,-132 338.54,-131.7 337.05,-131.39 335.55,-131.05"/>
<polygon fill="midnightblue" stroke="midnightblue" points="336.19,-127.61 325.65,-128.69 334.56,-134.41 336.19,-127.61"/>
</g>
<!-- Node22&#45;&gt;Node15 -->
<g id="edge50" class="edge">
<title>Node22&#45;&gt;Node15</title>
<path fill="none" stroke="midnightblue" d="M670.3,-185.56C704.96,-194.48 763.38,-210.56 801.13,-221.5"/>
<polygon fill="midnightblue" stroke="midnightblue" points="800.61,-225 811.19,-224.44 802.57,-218.28 800.61,-225"/>
</g>
<!-- Node22&#45;&gt;Node16 -->
<g id="edge40" class="edge">
<title>Node22&#45;&gt;Node16</title>
<path fill="none" stroke="midnightblue" d="M649.43,-168.08C655.85,-160.38 665.31,-149.03 673.12,-139.65"/>
<polygon fill="midnightblue" stroke="midnightblue" points="675.99,-141.67 679.71,-131.75 670.62,-137.19 675.99,-141.67"/>
</g>
<!-- Node22&#45;&gt;Node18 -->
<g id="edge44" class="edge">
<title>Node22&#45;&gt;Node18</title>
<path fill="none" stroke="midnightblue" d="M664.5,-168.44C688.08,-159.48 725.32,-145.31 751.96,-135.18"/>
<polygon fill="midnightblue" stroke="midnightblue" points="753.5,-138.34 761.6,-131.52 751.01,-131.8 753.5,-138.34"/>
</g>
<!-- Node22&#45;&gt;Node19 -->
<g id="edge48" class="edge">
<title>Node22&#45;&gt;Node19</title>
<path fill="none" stroke="midnightblue" d="M613.81,-175.2C564.05,-171.38 457.87,-160.38 373,-132 371.69,-131.56 309.54,-99.14 273.38,-80.26"/>
<polygon fill="midnightblue" stroke="midnightblue" points="274.86,-77.08 264.37,-75.56 271.62,-83.29 274.86,-77.08"/>
</g>
<!-- Node23 -->
<g id="node23" class="node">
<title>Node23</title>
<g id="a_node23"><a xlink:title=" ">
<polygon fill="none" stroke="#bfbfbf" points="579.5,-112.5 579.5,-131.5 614.5,-131.5 614.5,-112.5 579.5,-112.5"/>
<text text-anchor="middle" x="597" y="-119.5" font-family="Helvetica,sans-Serif" font-size="10.00">map</text>
</a>
</g>
</g>
<!-- Node22&#45;&gt;Node23 -->
<g id="edge42" class="edge">
<title>Node22&#45;&gt;Node23</title>
<path fill="none" stroke="midnightblue" d="M634.57,-168.08C628.15,-160.38 618.69,-149.03 610.88,-139.65"/>
<polygon fill="midnightblue" stroke="midnightblue" points="613.38,-137.19 604.29,-131.75 608.01,-141.67 613.38,-137.19"/>
</g>
<!-- Node24 -->
<g id="node24" class="node">
<title>Node24</title>
<g id="a_node24"><a xlink:title=" ">
<polygon fill="none" stroke="#bfbfbf" points="382,-112.5 382,-131.5 438,-131.5 438,-112.5 382,-112.5"/>
<text text-anchor="middle" x="410" y="-119.5" font-family="Helvetica,sans-Serif" font-size="10.00">algorithm</text>
</a>
</g>
</g>
<!-- Node22&#45;&gt;Node24 -->
<g id="edge43" class="edge">
<title>Node22&#45;&gt;Node24</title>
<path fill="none" stroke="midnightblue" d="M613.88,-170.62C577.81,-162.41 513.06,-147.6 448.25,-132.28"/>
<polygon fill="midnightblue" stroke="midnightblue" points="448.81,-128.81 438.27,-129.91 447.2,-135.62 448.81,-128.81"/>
</g>
<!-- Node25 -->
<g id="node25" class="node">
<title>Node25</title>
<g id="a_node25"><a xlink:title=" ">
<polygon fill="none" stroke="#bfbfbf" points="456,-112.5 456,-131.5 500,-131.5 500,-112.5 456,-112.5"/>
<text text-anchor="middle" x="478" y="-119.5" font-family="Helvetica,sans-Serif" font-size="10.00">thread</text>
</a>
</g>
</g>
<!-- Node22&#45;&gt;Node25 -->
<g id="edge46" class="edge">
<title>Node22&#45;&gt;Node25</title>
<path fill="none" stroke="midnightblue" d="M616.01,-168.44C587.29,-158.99 540.99,-143.74 510.04,-133.55"/>
<polygon fill="midnightblue" stroke="midnightblue" points="510.78,-130.11 500.18,-130.3 508.59,-136.76 510.78,-130.11"/>
</g>
<!-- Node26 -->
<g id="node26" class="node">
<title>Node26</title>
<g id="a_node26"><a xlink:title=" ">
<polygon fill="none" stroke="#bfbfbf" points="518.5,-112.5 518.5,-131.5 561.5,-131.5 561.5,-112.5 518.5,-112.5"/>
<text text-anchor="middle" x="540" y="-119.5" font-family="Helvetica,sans-Serif" font-size="10.00">mutex</text>
</a>
</g>
</g>
<!-- Node22&#45;&gt;Node26 -->
<g id="edge47" class="edge">
<title>Node22&#45;&gt;Node26</title>
<path fill="none" stroke="midnightblue" d="M625.61,-168.32C609.33,-159.7 584.13,-146.36 565.28,-136.39"/>
<polygon fill="midnightblue" stroke="midnightblue" points="566.82,-133.24 556.35,-131.65 563.55,-139.43 566.82,-133.24"/>
</g>
<!-- Node27 -->
<g id="node27" class="node">
<title>Node27</title>
<g id="a_node27"><a xlink:href="window_8h.html" target="_top" xlink:title=" ">
<polygon fill="none" stroke="black" points="903.5,-112.5 903.5,-131.5 960.5,-131.5 960.5,-112.5 903.5,-112.5"/>
<text text-anchor="middle" x="932" y="-119.5" font-family="Helvetica,sans-Serif" font-size="10.00">window.h</text>
</a>
</g>
</g>
<!-- Node22&#45;&gt;Node27 -->
<g id="edge51" class="edge">
<title>Node22&#45;&gt;Node27</title>
<path fill="none" stroke="midnightblue" d="M670.07,-171.77C722.23,-162.06 834.18,-141.22 893.41,-130.19"/>
<polygon fill="midnightblue" stroke="midnightblue" points="894.3,-133.58 903.49,-128.31 893.01,-126.7 894.3,-133.58"/>
</g>
<!-- Node28 -->
<g id="node28" class="node">
<title>Node28</title>
<g id="a_node28"><a xlink:href="fence_8h.html" target="_top" xlink:title=" ">
<polygon fill="none" stroke="black" points="104,-112.5 104,-131.5 152,-131.5 152,-112.5 104,-112.5"/>
<text text-anchor="middle" x="128" y="-119.5" font-family="Helvetica,sans-Serif" font-size="10.00">fence.h</text>
</a>
</g>
</g>
<!-- Node22&#45;&gt;Node28 -->
<g id="edge56" class="edge">
<title>Node22&#45;&gt;Node28</title>
<path fill="none" stroke="midnightblue" d="M613.63,-174.02C525.59,-164.77 257.24,-136.58 161.98,-126.57"/>
<polygon fill="midnightblue" stroke="midnightblue" points="162.33,-123.09 152.02,-125.52 161.6,-130.05 162.33,-123.09"/>
</g>
<!-- Node27&#45;&gt;Node4 -->
<g id="edge54" class="edge">
<title>Node27&#45;&gt;Node4</title>
<path fill="none" stroke="midnightblue" d="M903.16,-118.4C805.41,-109.57 486.5,-80.77 373.85,-70.6"/>
<polygon fill="midnightblue" stroke="midnightblue" points="373.88,-67.09 363.61,-69.67 373.25,-74.06 373.88,-67.09"/>
</g>
<!-- Node27&#45;&gt;Node7 -->
<g id="edge53" class="edge">
<title>Node27&#45;&gt;Node7</title>
<path fill="none" stroke="midnightblue" d="M960.53,-116.3C1021.83,-106.21 1165.63,-82.54 1229.04,-72.1"/>
<polygon fill="midnightblue" stroke="midnightblue" points="1229.9,-75.5 1239.2,-70.42 1228.77,-68.6 1229.9,-75.5"/>
</g>
<!-- Node27&#45;&gt;Node20 -->
<g id="edge55" class="edge">
<title>Node27&#45;&gt;Node20</title>
<path fill="none" stroke="midnightblue" d="M941.48,-112.32C950.2,-104.34 963.34,-92.31 973.9,-82.65"/>
<polygon fill="midnightblue" stroke="midnightblue" points="976.33,-85.17 981.35,-75.83 971.61,-80 976.33,-85.17"/>
</g>
<!-- Node27&#45;&gt;Node21 -->
<g id="edge52" class="edge">
<title>Node27&#45;&gt;Node21</title>
<path fill="none" stroke="midnightblue" d="M934.28,-112.37C938.98,-94.54 949.85,-53.3 956.18,-29.27"/>
<polygon fill="midnightblue" stroke="midnightblue" points="959.57,-30.15 958.73,-19.59 952.8,-28.37 959.57,-30.15"/>
</g>
<!-- Node28&#45;&gt;Node2 -->
<g id="edge57" class="edge">
<title>Node28&#45;&gt;Node2</title>
<path fill="none" stroke="midnightblue" d="M134.83,-112.37C149.25,-94.14 183.03,-51.43 201.81,-27.68"/>
<polygon fill="midnightblue" stroke="midnightblue" points="204.75,-29.61 208.2,-19.59 199.26,-25.26 204.75,-29.61"/>
</g>
<!-- Node28&#45;&gt;Node8 -->
<g id="edge60" class="edge">
<title>Node28&#45;&gt;Node8</title>
<path fill="none" stroke="midnightblue" d="M130.45,-131.7C137.45,-154.77 159.97,-217.58 204,-244 255.17,-274.71 673.12,-285.67 800.37,-288.31"/>
<polygon fill="midnightblue" stroke="midnightblue" points="800.33,-291.81 810.4,-288.52 800.47,-284.82 800.33,-291.81"/>
</g>
<!-- Node28&#45;&gt;Node9 -->
<g id="edge58" class="edge">
<title>Node28&#45;&gt;Node9</title>
<path fill="none" stroke="midnightblue" d="M125.03,-112.08C122.62,-104.85 119.14,-94.41 116.13,-85.4"/>
<polygon fill="midnightblue" stroke="midnightblue" points="119.4,-84.13 112.92,-75.75 112.76,-86.34 119.4,-84.13"/>
</g>
<!-- Node28&#45;&gt;Node19 -->
<g id="edge59" class="edge">
<title>Node28&#45;&gt;Node19</title>
<path fill="none" stroke="midnightblue" d="M147.01,-112.44C166.59,-103.64 197.31,-89.81 219.73,-79.72"/>
<polygon fill="midnightblue" stroke="midnightblue" points="221.39,-82.81 229.07,-75.52 218.52,-76.43 221.39,-82.81"/>
</g>
<!-- Node29&#45;&gt;Node6 -->
<g id="edge63" class="edge">
<title>Node29&#45;&gt;Node6</title>
<path fill="none" stroke="midnightblue" d="M1475.17,-280.49C1471.37,-262.07 1463,-217.12 1463,-179 1463,-179 1463,-179 1463,-121 1463,-90.2 1462.54,-75.85 1439,-56 1407.7,-29.61 1287.72,-17.52 1229.32,-13.1"/>
<polygon fill="midnightblue" stroke="midnightblue" points="1229.39,-9.6 1219.16,-12.37 1228.88,-16.58 1229.39,-9.6"/>
</g>
<!-- Node30 -->
<g id="node30" class="node">
<title>Node30</title>
<g id="a_node30"><a xlink:title=" ">
<polygon fill="none" stroke="#bfbfbf" points="1491,-224.5 1491,-243.5 1579,-243.5 1579,-224.5 1491,-224.5"/>
<text text-anchor="middle" x="1535" y="-231.5" font-family="Helvetica,sans-Serif" font-size="10.00">boost/bimap.hpp</text>
</a>
</g>
</g>
<!-- Node29&#45;&gt;Node30 -->
<g id="edge64" class="edge">
<title>Node29&#45;&gt;Node30</title>
<path fill="none" stroke="midnightblue" d="M1486.32,-280.32C1494.89,-272.34 1507.81,-260.31 1518.19,-250.65"/>
<polygon fill="midnightblue" stroke="midnightblue" points="1520.58,-253.21 1525.51,-243.83 1515.81,-248.09 1520.58,-253.21"/>
</g>
</g>
</svg>
