<?xml version="1.0" encoding="UTF-8" standalone="no"?>
<!DOCTYPE svg PUBLIC "-//W3C//DTD SVG 1.1//EN"
 "http://www.w3.org/Graphics/SVG/1.1/DTD/svg11.dtd">
<!-- Generated by graphviz version 2.50.0 (20220203.2022)
 -->
<!-- Title: optional&lt; T &gt; Pages: 1 -->
<svg width="113pt" height="281pt"
 viewBox="0.00 0.00 112.50 281.00" xmlns="http://www.w3.org/2000/svg" xmlns:xlink="http://www.w3.org/1999/xlink">
<g id="graph0" class="graph" transform="scale(1 1) rotate(0) translate(4 277)">
<title>optional&lt; T &gt;</title>
<!-- Node1 -->
<g id="node1" class="node">
<title>Node1</title>
<g id="a_node1"><a xlink:title=" ">
<polygon fill="#bfbfbf" stroke="black" points="13,-160.5 13,-272.5 88,-272.5 88,-160.5 13,-160.5"/>
<text text-anchor="middle" x="50.5" y="-260.5" font-family="Helvetica,sans-Serif" font-size="10.00">optional&lt; T &gt;</text>
<polyline fill="none" stroke="black" points="13,-253.5 88,-253.5 "/>
<text text-anchor="start" x="21" y="-241.5" font-family="Helvetica,sans-Serif" font-size="10.00">&#45; data</text>
<text text-anchor="start" x="21" y="-230.5" font-family="Helvetica,sans-Serif" font-size="10.00">&#45; valid</text>
<polyline fill="none" stroke="black" points="13,-223.5 88,-223.5 "/>
<text text-anchor="start" x="21" y="-211.5" font-family="Helvetica,sans-Serif" font-size="10.00">+ optional()</text>
<text text-anchor="start" x="21" y="-200.5" font-family="Helvetica,sans-Serif" font-size="10.00">+ optional()</text>
<text text-anchor="start" x="21" y="-189.5" font-family="Helvetica,sans-Serif" font-size="10.00">+ has_value()</text>
<text text-anchor="start" x="21" y="-178.5" font-family="Helvetica,sans-Serif" font-size="10.00">+ value()</text>
<text text-anchor="start" x="21" y="-167.5" font-family="Helvetica,sans-Serif" font-size="10.00">+ operator=()</text>
</a>
</g>
</g>
<!-- Node2 -->
<g id="node2" class="node">
<title>Node2</title>
<g id="a_node2"><a xlink:href="structoptional.html" target="_top" xlink:title=" ">
<polygon fill="none" stroke="black" points="0,-0.5 0,-112.5 101,-112.5 101,-0.5 0,-0.5"/>
<text text-anchor="middle" x="50.5" y="-100.5" font-family="Helvetica,sans-Serif" font-size="10.00">optional&lt; uint32_t &gt;</text>
<polyline fill="none" stroke="black" points="0,-93.5 101,-93.5 "/>
<text text-anchor="start" x="8" y="-81.5" font-family="Helvetica,sans-Serif" font-size="10.00">&#45; data</text>
<text text-anchor="start" x="8" y="-70.5" font-family="Helvetica,sans-Serif" font-size="10.00">&#45; valid</text>
<polyline fill="none" stroke="black" points="0,-63.5 101,-63.5 "/>
<text text-anchor="start" x="8" y="-51.5" font-family="Helvetica,sans-Serif" font-size="10.00">+ optional()</text>
<text text-anchor="start" x="8" y="-40.5" font-family="Helvetica,sans-Serif" font-size="10.00">+ optional()</text>
<text text-anchor="start" x="8" y="-29.5" font-family="Helvetica,sans-Serif" font-size="10.00">+ has_value()</text>
<text text-anchor="start" x="8" y="-18.5" font-family="Helvetica,sans-Serif" font-size="10.00">+ value()</text>
<text text-anchor="start" x="8" y="-7.5" font-family="Helvetica,sans-Serif" font-size="10.00">+ operator=()</text>
</a>
</g>
</g>
<!-- Node1&#45;&gt;Node2 -->
<g id="edge1" class="edge">
<title>Node1&#45;&gt;Node2</title>
<path fill="none" stroke="orange" d="M50.5,-149.97C50.5,-137.59 50.5,-124.76 50.5,-112.73"/>
<polygon fill="orange" stroke="orange" points="47,-150.24 50.5,-160.24 54,-150.24 47,-150.24"/>
<text text-anchor="middle" x="77.5" y="-134" font-family="Helvetica,sans-Serif" font-size="10.00"> &lt; uint32_t &gt;</text>
</g>
</g>
</svg>
