<?xml version="1.0" encoding="UTF-8" standalone="no"?>
<!DOCTYPE svg PUBLIC "-//W3C//DTD SVG 1.1//EN"
 "http://www.w3.org/Graphics/SVG/1.1/DTD/svg11.dtd">
<!-- Generated by graphviz version 2.50.0 (20220203.2022)
 -->
<!-- Title: MaterialPropertyBuiltGeneric Pages: 1 -->
<svg width="168pt" height="248pt"
 viewBox="0.00 0.00 168.00 248.00" xmlns="http://www.w3.org/2000/svg" xmlns:xlink="http://www.w3.org/1999/xlink">
<g id="graph0" class="graph" transform="scale(1 1) rotate(0) translate(4 244)">
<title>MaterialPropertyBuiltGeneric</title>
<!-- Node1 -->
<g id="node1" class="node">
<title>Node1</title>
<g id="a_node1"><a xlink:title="Built version of MaterialProperty that has no type associated.">
<polygon fill="#bfbfbf" stroke="black" points="0,-116.5 0,-239.5 160,-239.5 160,-116.5 0,-116.5"/>
<text text-anchor="middle" x="80" y="-227.5" font-family="Helvetica,sans-Serif" font-size="10.00">MaterialPropertyBuiltGeneric</text>
<polyline fill="none" stroke="black" points="0,-220.5 160,-220.5 "/>
<text text-anchor="start" x="8" y="-208.5" font-family="Helvetica,sans-Serif" font-size="10.00">+ input</text>
<text text-anchor="start" x="8" y="-197.5" font-family="Helvetica,sans-Serif" font-size="10.00">+ pixelFormat</text>
<text text-anchor="start" x="8" y="-186.5" font-family="Helvetica,sans-Serif" font-size="10.00">+ size</text>
<text text-anchor="start" x="8" y="-175.5" font-family="Helvetica,sans-Serif" font-size="10.00">+ attributeName</text>
<polyline fill="none" stroke="black" points="0,-168.5 160,-168.5 "/>
<text text-anchor="start" x="8" y="-156.5" font-family="Helvetica,sans-Serif" font-size="10.00">+ allocate()</text>
<text text-anchor="start" x="8" y="-145.5" font-family="Helvetica,sans-Serif" font-size="10.00">+ cast()</text>
<text text-anchor="start" x="8" y="-134.5" font-family="Helvetica,sans-Serif" font-size="10.00">+ getSize()</text>
<text text-anchor="start" x="8" y="-123.5" font-family="Helvetica,sans-Serif" font-size="10.00">+ ~MaterialPropertyBuiltGeneric()</text>
</a>
</g>
</g>
<!-- Node2 -->
<g id="node2" class="node">
<title>Node2</title>
<g id="a_node2"><a xlink:href="struct_material_property_built.html" target="_top" xlink:title="Built version of MaterialProperty that has a type associated.">
<polygon fill="none" stroke="black" points="15.5,-0.5 15.5,-79.5 144.5,-79.5 144.5,-0.5 15.5,-0.5"/>
<text text-anchor="middle" x="80" y="-67.5" font-family="Helvetica,sans-Serif" font-size="10.00">MaterialPropertyBuilt&lt; T &gt;</text>
<polyline fill="none" stroke="black" points="15.5,-60.5 144.5,-60.5 "/>
<text text-anchor="middle" x="80" y="-48.5" font-family="Helvetica,sans-Serif" font-size="10.00"> </text>
<polyline fill="none" stroke="black" points="15.5,-41.5 144.5,-41.5 "/>
<text text-anchor="start" x="23.5" y="-29.5" font-family="Helvetica,sans-Serif" font-size="10.00">+ MaterialPropertyBuilt()</text>
<text text-anchor="start" x="23.5" y="-18.5" font-family="Helvetica,sans-Serif" font-size="10.00">+ allocate()</text>
<text text-anchor="start" x="23.5" y="-7.5" font-family="Helvetica,sans-Serif" font-size="10.00">+ cast()</text>
</a>
</g>
</g>
<!-- Node1&#45;&gt;Node2 -->
<g id="edge1" class="edge">
<title>Node1&#45;&gt;Node2</title>
<path fill="none" stroke="midnightblue" d="M80,-105.91C80,-96.83 80,-87.82 80,-79.54"/>
<polygon fill="none" stroke="midnightblue" points="76.5,-106.16 80,-116.16 83.5,-106.16 76.5,-106.16"/>
</g>
</g>
</svg>
