<?xml version="1.0" encoding="UTF-8" standalone="no"?>
<!DOCTYPE svg PUBLIC "-//W3C//DTD SVG 1.1//EN"
 "http://www.w3.org/Graphics/SVG/1.1/DTD/svg11.dtd">
<!-- Generated by graphviz version 2.49.3 (20211027.1501)
 -->
<!-- Title: PostRenderPresentImageEvent Pages: 1 -->
<svg width="161pt" height="521pt"
 viewBox="0.00 0.00 161.00 521.00" xmlns="http://www.w3.org/2000/svg" xmlns:xlink="http://www.w3.org/1999/xlink">
<g id="graph0" class="graph" transform="scale(1 1) rotate(0) translate(4 517)">
<title>PostRenderPresentImageEvent</title>
<!-- Node1 -->
<g id="node1" class="node">
<title>Node1</title>
<g id="a_node1"><a xlink:title=" ">
<polygon fill="#bfbfbf" stroke="black" points="0,-0.5 0,-57.5 153,-57.5 153,-0.5 0,-0.5"/>
<text text-anchor="middle" x="76.5" y="-45.5" font-family="Helvetica,sans-Serif" font-size="10.00">PostRenderPresentImageEvent</text>
<polyline fill="none" stroke="black" points="0,-38.5 153,-38.5 "/>
<text text-anchor="middle" x="76.5" y="-26.5" font-family="Helvetica,sans-Serif" font-size="10.00"> </text>
<polyline fill="none" stroke="black" points="0,-19.5 153,-19.5 "/>
<text text-anchor="middle" x="76.5" y="-7.5" font-family="Helvetica,sans-Serif" font-size="10.00"> </text>
</a>
</g>
</g>
<!-- Node2 -->
<g id="node2" class="node">
<title>Node2</title>
<g id="a_node2"><a xlink:href="struct_render_event.html" target="_top" xlink:title=" ">
<polygon fill="none" stroke="black" points="40.5,-95.5 40.5,-152.5 112.5,-152.5 112.5,-95.5 40.5,-95.5"/>
<text text-anchor="middle" x="76.5" y="-140.5" font-family="Helvetica,sans-Serif" font-size="10.00">RenderEvent</text>
<polyline fill="none" stroke="black" points="40.5,-133.5 112.5,-133.5 "/>
<text text-anchor="middle" x="76.5" y="-121.5" font-family="Helvetica,sans-Serif" font-size="10.00"> </text>
<polyline fill="none" stroke="black" points="40.5,-114.5 112.5,-114.5 "/>
<text text-anchor="middle" x="76.5" y="-102.5" font-family="Helvetica,sans-Serif" font-size="10.00"> </text>
</a>
</g>
</g>
<!-- Node2&#45;&gt;Node1 -->
<g id="edge1" class="edge">
<title>Node2&#45;&gt;Node1</title>
<path fill="none" stroke="midnightblue" d="M76.5,-85.24C76.5,-76.03 76.5,-66.35 76.5,-57.71"/>
<polygon fill="none" stroke="midnightblue" points="73,-85.35 76.5,-95.35 80,-85.35 73,-85.35"/>
</g>
<!-- Node3 -->
<g id="node3" class="node">
<title>Node3</title>
<g id="a_node3"><a xlink:href="class_device.html" target="_top" xlink:title=" ">
<polygon fill="none" stroke="black" points="21,-200.5 21,-290.5 132,-290.5 132,-200.5 21,-200.5"/>
<text text-anchor="middle" x="76.5" y="-278.5" font-family="Helvetica,sans-Serif" font-size="10.00">Device</text>
<polyline fill="none" stroke="black" points="21,-271.5 132,-271.5 "/>
<text text-anchor="middle" x="76.5" y="-259.5" font-family="Helvetica,sans-Serif" font-size="10.00"> </text>
<polyline fill="none" stroke="black" points="21,-252.5 132,-252.5 "/>
<text text-anchor="start" x="29" y="-240.5" font-family="Helvetica,sans-Serif" font-size="10.00">+ Device()</text>
<text text-anchor="start" x="29" y="-229.5" font-family="Helvetica,sans-Serif" font-size="10.00">+ getPhysicalDevice()</text>
<text text-anchor="start" x="29" y="-218.5" font-family="Helvetica,sans-Serif" font-size="10.00">+ getAllocator()</text>
<text text-anchor="start" x="29" y="-207.5" font-family="Helvetica,sans-Serif" font-size="10.00">+ cleanup()</text>
</a>
</g>
</g>
<!-- Node3&#45;&gt;Node2 -->
<g id="edge2" class="edge">
<title>Node3&#45;&gt;Node2</title>
<path fill="none" stroke="#404040" d="M76.5,-200.34C76.5,-188.75 76.5,-176.31 76.5,-164.95"/>
<polygon fill="none" stroke="#404040" points="76.5,-164.69 72.5,-158.69 76.5,-152.69 80.5,-158.69 76.5,-164.69"/>
<text text-anchor="middle" x="95" y="-174" font-family="Helvetica,sans-Serif" font-size="10.00"> +device</text>
</g>
<!-- Node4 -->
<g id="node4" class="node">
<title>Node4</title>
<g id="a_node4"><a xlink:href="class_vulkan_class.html" target="_top" xlink:title=" ">
<polygon fill="none" stroke="black" points="11.5,-328.5 11.5,-396.5 141.5,-396.5 141.5,-328.5 11.5,-328.5"/>
<text text-anchor="middle" x="76.5" y="-384.5" font-family="Helvetica,sans-Serif" font-size="10.00">VulkanClass&lt; VkDevice &gt;</text>
<polyline fill="none" stroke="black" points="11.5,-377.5 141.5,-377.5 "/>
<text text-anchor="start" x="19.5" y="-365.5" font-family="Helvetica,sans-Serif" font-size="10.00"># handle</text>
<polyline fill="none" stroke="black" points="11.5,-358.5 141.5,-358.5 "/>
<text text-anchor="start" x="19.5" y="-346.5" font-family="Helvetica,sans-Serif" font-size="10.00">+ getHandle()</text>
<text text-anchor="start" x="19.5" y="-335.5" font-family="Helvetica,sans-Serif" font-size="10.00">+ getHandlePtr()</text>
</a>
</g>
</g>
<!-- Node4&#45;&gt;Node3 -->
<g id="edge3" class="edge">
<title>Node4&#45;&gt;Node3</title>
<path fill="none" stroke="midnightblue" d="M76.5,-318.05C76.5,-309.15 76.5,-299.76 76.5,-290.82"/>
<polygon fill="none" stroke="midnightblue" points="73,-318.24 76.5,-328.24 80,-318.24 73,-318.24"/>
</g>
<!-- Node5 -->
<g id="node5" class="node">
<title>Node5</title>
<g id="a_node5"><a xlink:href="class_vulkan_class.html" target="_top" xlink:title=" ">
<polygon fill="none" stroke="black" points="29.5,-444.5 29.5,-512.5 123.5,-512.5 123.5,-444.5 29.5,-444.5"/>
<text text-anchor="middle" x="76.5" y="-500.5" font-family="Helvetica,sans-Serif" font-size="10.00">VulkanClass&lt; T &gt;</text>
<polyline fill="none" stroke="black" points="29.5,-493.5 123.5,-493.5 "/>
<text text-anchor="start" x="37.5" y="-481.5" font-family="Helvetica,sans-Serif" font-size="10.00"># handle</text>
<polyline fill="none" stroke="black" points="29.5,-474.5 123.5,-474.5 "/>
<text text-anchor="start" x="37.5" y="-462.5" font-family="Helvetica,sans-Serif" font-size="10.00">+ getHandle()</text>
<text text-anchor="start" x="37.5" y="-451.5" font-family="Helvetica,sans-Serif" font-size="10.00">+ getHandlePtr()</text>
</a>
</g>
</g>
<!-- Node5&#45;&gt;Node4 -->
<g id="edge4" class="edge">
<title>Node5&#45;&gt;Node4</title>
<path fill="none" stroke="orange" d="M76.5,-434.06C76.5,-421.64 76.5,-408.32 76.5,-396.62"/>
<polygon fill="orange" stroke="orange" points="73,-434.22 76.5,-444.22 80,-434.22 73,-434.22"/>
<text text-anchor="middle" x="107" y="-418" font-family="Helvetica,sans-Serif" font-size="10.00"> &lt; VkDevice &gt;</text>
</g>
</g>
</svg>
