<?xml version="1.0" encoding="UTF-8" standalone="no"?>
<!DOCTYPE svg PUBLIC "-//W3C//DTD SVG 1.1//EN"
 "http://www.w3.org/Graphics/SVG/1.1/DTD/svg11.dtd">
<!-- Generated by graphviz version 2.50.0 (20220203.2022)
 -->
<!-- Title: CCAD_OT::OtSurfaceInfo Pages: 1 -->
<!--zoomable 534 -->
<svg id="main" version="1.1" xmlns="http://www.w3.org/2000/svg" xmlns:xlink="http://www.w3.org/1999/xlink" xml:space="preserve" onload="init(evt)">
<style type="text/css"><![CDATA[
.edge:hover path { stroke: red; }
.edge:hover polygon { stroke: red; fill: red; }
]]></style>
<script type="text/javascript"><![CDATA[
var edges = document.getElementsByTagName('g');
if (edges && edges.length) {
  for (var i=0;i<edges.length;i++) {
    if (edges[i].id.substr(0,4)=='edge') {
      edges[i].setAttribute('class','edge');
    }
  }
}
]]></script>
        <defs>
                <circle id="rim" cx="0" cy="0" r="7"/>
                <circle id="rim2" cx="0" cy="0" r="3.5"/>
                <g id="zoomPlus">
                        <use xlink:href="#rim" fill="#404040">
                                <set attributeName="fill" to="#808080" begin="zoomplus.mouseover" end="zoomplus.mouseout"/>
                        </use>
                        <path d="M-4,0h8M0,-4v8" fill="none" stroke="white" stroke-width="1.5" pointer-events="none"/>
                </g>
                <g id="zoomMin">
                        <use xlink:href="#rim" fill="#404040">
                                <set attributeName="fill" to="#808080" begin="zoomminus.mouseover" end="zoomminus.mouseout"/>
                        </use>
                        <path d="M-4,0h8" fill="none" stroke="white" stroke-width="1.5" pointer-events="none"/>
                </g>
                <g id="dirArrow">
                        <path fill="none" stroke="white" stroke-width="1.5" d="M0,-3.0v7 M-2.5,-0.5L0,-3.0L2.5,-0.5"/>
                </g>
               <g id="resetDef">
                       <use xlink:href="#rim2" fill="#404040">
                               <set attributeName="fill" to="#808080" begin="reset.mouseover" end="reset.mouseout"/>
                       </use>
               </g>
        </defs>

<script type="text/javascript">
var viewWidth = 475;
var viewHeight = 534;
var sectionId = 'dynsection-0';
</script>
<script xlink:href="svgpan.js"/>
<svg id="graph" class="graph">
<g id="viewport">
<title>CCAD_OT::OtSurfaceInfo</title>
<!-- Node1 -->
<g id="node1" class="node">
<title>Node1</title>
<g id="a_node1"><a xlink:title=" ">
<polygon fill="#bfbfbf" stroke="black" points="131.34,-0.5 131.34,-57.5 259.34,-57.5 259.34,-0.5 131.34,-0.5"/>
<text text-anchor="middle" x="195.34" y="-45.5" font-family="Helvetica,sans-Serif" font-size="10.00">CCAD_OT::OtSurfaceInfo</text>
<polyline fill="none" stroke="black" points="131.34,-38.5 259.34,-38.5 "/>
<text text-anchor="start" x="139.34" y="-26.5" font-family="Helvetica,sans-Serif" font-size="10.00">+ drawMode</text>
<polyline fill="none" stroke="black" points="131.34,-19.5 259.34,-19.5 "/>
<text text-anchor="middle" x="195.34" y="-7.5" font-family="Helvetica,sans-Serif" font-size="10.00"> </text>
</a>
</g>
</g>
<!-- Node2 -->
<g id="node2" class="node">
<title>Node2</title>
<g id="a_node2"><a xlink:href="union_c_c_a_d___o_t_1_1_ot_mat_info_union.html" target="_top" xlink:title=" ">
<polygon fill="none" stroke="black" points="127.34,-105.5 127.34,-162.5 263.34,-162.5 263.34,-105.5 127.34,-105.5"/>
<text text-anchor="middle" x="195.34" y="-150.5" font-family="Helvetica,sans-Serif" font-size="10.00">CCAD_OT::OtMatInfoUnion</text>
<polyline fill="none" stroke="black" points="127.34,-143.5 263.34,-143.5 "/>
<text text-anchor="middle" x="195.34" y="-131.5" font-family="Helvetica,sans-Serif" font-size="10.00"> </text>
<polyline fill="none" stroke="black" points="127.34,-124.5 263.34,-124.5 "/>
<text text-anchor="middle" x="195.34" y="-112.5" font-family="Helvetica,sans-Serif" font-size="10.00"> </text>
</a>
</g>
</g>
<!-- Node2&#45;&gt;Node1 -->
<g id="edge1" class="edge">
<title>Node2&#45;&gt;Node1</title>
<path fill="none" stroke="#404040" d="M195.34,-105.4C195.34,-94.55 195.34,-81.87 195.34,-70.05"/>
<polygon fill="none" stroke="#404040" points="195.34,-69.68 191.34,-63.68 195.34,-57.68 199.34,-63.68 195.34,-69.68"/>
<text text-anchor="middle" x="225.34" y="-79" font-family="Helvetica,sans-Serif" font-size="10.00"> +materialInfo</text>
</g>
<!-- Node3 -->
<g id="node3" class="node">
<title>Node3</title>
<g id="a_node3"><a xlink:href="struct_c_c_a_d___o_t_1_1_ot_mat_info.html" target="_top" xlink:title=" ">
<polygon fill="none" stroke="black" points="114.34,-468.5 114.34,-525.5 224.34,-525.5 224.34,-468.5 114.34,-468.5"/>
<text text-anchor="middle" x="169.34" y="-513.5" font-family="Helvetica,sans-Serif" font-size="10.00">CCAD_OT::OtMatInfo</text>
<polyline fill="none" stroke="black" points="114.34,-506.5 224.34,-506.5 "/>
<text text-anchor="middle" x="169.34" y="-494.5" font-family="Helvetica,sans-Serif" font-size="10.00"> </text>
<polyline fill="none" stroke="black" points="114.34,-487.5 224.34,-487.5 "/>
<text text-anchor="middle" x="169.34" y="-475.5" font-family="Helvetica,sans-Serif" font-size="10.00"> </text>
</a>
</g>
</g>
<!-- Node3&#45;&gt;Node2 -->
<g id="edge2" class="edge">
<title>Node3&#45;&gt;Node2</title>
<path fill="none" stroke="#404040" d="M121.28,-468.34C62.15,-430.45 -26.42,-358.75 8.34,-286 33.11,-234.17 85.3,-194.42 128.27,-168.75"/>
<polygon fill="none" stroke="#404040" points="128.32,-168.72 131.5,-162.25 138.69,-162.69 135.52,-169.16 128.32,-168.72"/>
<text text-anchor="middle" x="25.84" y="-312.5" font-family="Helvetica,sans-Serif" font-size="10.00"> +empty</text>
</g>
<!-- Node4 -->
<g id="node4" class="node">
<title>Node4</title>
<g id="a_node4"><a xlink:href="struct_c_c_a_d___o_t_1_1_ot_mat_info_solid.html" target="_top" xlink:title=" ">
<polygon fill="none" stroke="black" points="52.34,-286.5 52.34,-343.5 184.34,-343.5 184.34,-286.5 52.34,-286.5"/>
<text text-anchor="middle" x="118.34" y="-331.5" font-family="Helvetica,sans-Serif" font-size="10.00">CCAD_OT::OtMatInfoSolid</text>
<polyline fill="none" stroke="black" points="52.34,-324.5 184.34,-324.5 "/>
<text text-anchor="start" x="60.34" y="-312.5" font-family="Helvetica,sans-Serif" font-size="10.00">+ color</text>
<polyline fill="none" stroke="black" points="52.34,-305.5 184.34,-305.5 "/>
<text text-anchor="middle" x="118.34" y="-293.5" font-family="Helvetica,sans-Serif" font-size="10.00"> </text>
</a>
</g>
</g>
<!-- Node3&#45;&gt;Node4 -->
<g id="edge4" class="edge">
<title>Node3&#45;&gt;Node4</title>
<path fill="none" stroke="midnightblue" d="M148.9,-459.21C144.55,-450.19 140.37,-440.42 137.34,-431 128.06,-402.1 123.14,-367.58 120.65,-343.96"/>
<polygon fill="none" stroke="midnightblue" points="145.84,-460.91 153.45,-468.28 152.1,-457.77 145.84,-460.91"/>
</g>
<!-- Node5 -->
<g id="node5" class="node">
<title>Node5</title>
<g id="a_node5"><a xlink:href="struct_c_c_a_d___o_t_1_1_ot_mat_info_textured.html" target="_top" xlink:title=" ">
<polygon fill="none" stroke="black" points="146.34,-362.5 146.34,-430.5 294.34,-430.5 294.34,-362.5 146.34,-362.5"/>
<text text-anchor="middle" x="220.34" y="-418.5" font-family="Helvetica,sans-Serif" font-size="10.00">CCAD_OT::OtMatInfoTextured</text>
<polyline fill="none" stroke="black" points="146.34,-411.5 294.34,-411.5 "/>
<text text-anchor="start" x="154.34" y="-399.5" font-family="Helvetica,sans-Serif" font-size="10.00">+ tex_index</text>
<text text-anchor="start" x="154.34" y="-388.5" font-family="Helvetica,sans-Serif" font-size="10.00">+ uv</text>
<polyline fill="none" stroke="black" points="146.34,-381.5 294.34,-381.5 "/>
<text text-anchor="middle" x="220.34" y="-369.5" font-family="Helvetica,sans-Serif" font-size="10.00"> </text>
</a>
</g>
</g>
<!-- Node3&#45;&gt;Node5 -->
<g id="edge6" class="edge">
<title>Node3&#45;&gt;Node5</title>
<path fill="none" stroke="midnightblue" d="M188.4,-459.18C193.26,-449.8 198.46,-439.77 203.22,-430.58"/>
<polygon fill="none" stroke="midnightblue" points="185.17,-457.81 183.68,-468.3 191.39,-461.03 185.17,-457.81"/>
</g>
<!-- Node7 -->
<g id="node7" class="node">
<title>Node7</title>
<g id="a_node7"><a xlink:href="struct_c_c_a_d___o_t_1_1_ot_mat_info_debug.html" target="_top" xlink:title=" ">
<polygon fill="none" stroke="black" points="329.34,-286.5 329.34,-343.5 467.34,-343.5 467.34,-286.5 329.34,-286.5"/>
<text text-anchor="middle" x="398.34" y="-331.5" font-family="Helvetica,sans-Serif" font-size="10.00">CCAD_OT::OtMatInfoDebug</text>
<polyline fill="none" stroke="black" points="329.34,-324.5 467.34,-324.5 "/>
<text text-anchor="start" x="337.34" y="-312.5" font-family="Helvetica,sans-Serif" font-size="10.00">+ channel</text>
<polyline fill="none" stroke="black" points="329.34,-305.5 467.34,-305.5 "/>
<text text-anchor="middle" x="398.34" y="-293.5" font-family="Helvetica,sans-Serif" font-size="10.00"> </text>
</a>
</g>
</g>
<!-- Node3&#45;&gt;Node7 -->
<g id="edge10" class="edge">
<title>Node3&#45;&gt;Node7</title>
<path fill="none" stroke="midnightblue" d="M233.99,-471.41C257.14,-460.91 282.61,-447.29 303.34,-431 335.11,-406.04 363.44,-368.8 380.72,-343.51"/>
<polygon fill="none" stroke="midnightblue" points="232.31,-468.33 224.58,-475.57 235.14,-474.73 232.31,-468.33"/>
</g>
<!-- Node4&#45;&gt;Node2 -->
<g id="edge3" class="edge">
<title>Node4&#45;&gt;Node2</title>
<path fill="none" stroke="#404040" d="M122.55,-286.19C126.44,-264.72 133.31,-234.63 144.34,-210 150.06,-197.24 157.95,-184.3 165.81,-172.85"/>
<polygon fill="none" stroke="#404040" points="166.01,-172.58 166.23,-165.37 172.97,-162.8 172.74,-170.01 166.01,-172.58"/>
<text text-anchor="middle" x="158.84" y="-236.5" font-family="Helvetica,sans-Serif" font-size="10.00"> +solid</text>
</g>
<!-- Node5&#45;&gt;Node2 -->
<g id="edge5" class="edge">
<title>Node5&#45;&gt;Node2</title>
<path fill="none" stroke="#404040" d="M215.64,-362.27C212.14,-336.57 207.44,-300.09 204.34,-268 201.32,-236.72 198.98,-201.21 197.44,-174.75"/>
<polygon fill="none" stroke="#404040" points="197.42,-174.53 193.09,-168.76 196.74,-162.55 201.08,-168.31 197.42,-174.53"/>
<text text-anchor="middle" x="225.84" y="-236.5" font-family="Helvetica,sans-Serif" font-size="10.00"> +textured</text>
</g>
<!-- Node6 -->
<g id="node6" class="node">
<title>Node6</title>
<g id="a_node6"><a xlink:href="struct_c_c_a_d___o_t_1_1_ot_mat_info_shaded.html" target="_top" xlink:title=" ">
<polygon fill="none" stroke="black" points="256.84,-210.5 256.84,-267.5 399.84,-267.5 399.84,-210.5 256.84,-210.5"/>
<text text-anchor="middle" x="328.34" y="-255.5" font-family="Helvetica,sans-Serif" font-size="10.00">CCAD_OT::OtMatInfoShaded</text>
<polyline fill="none" stroke="black" points="256.84,-248.5 399.84,-248.5 "/>
<text text-anchor="start" x="264.84" y="-236.5" font-family="Helvetica,sans-Serif" font-size="10.00">+ mat_type</text>
<polyline fill="none" stroke="black" points="256.84,-229.5 399.84,-229.5 "/>
<text text-anchor="middle" x="328.34" y="-217.5" font-family="Helvetica,sans-Serif" font-size="10.00"> </text>
</a>
</g>
</g>
<!-- Node5&#45;&gt;Node6 -->
<g id="edge8" class="edge">
<title>Node5&#45;&gt;Node6</title>
<path fill="none" stroke="midnightblue" d="M249.22,-353.92C268.21,-326.58 292.54,-291.55 309.18,-267.6"/>
<polygon fill="none" stroke="midnightblue" points="246.34,-351.93 243.51,-362.14 252.09,-355.92 246.34,-351.93"/>
</g>
<!-- Node6&#45;&gt;Node2 -->
<g id="edge7" class="edge">
<title>Node6&#45;&gt;Node2</title>
<path fill="none" stroke="#404040" d="M292.7,-210.4C276.75,-198.04 257.75,-183.33 240.79,-170.2"/>
<polygon fill="none" stroke="#404040" points="240.57,-170.03 233.38,-169.51 231.08,-162.68 238.28,-163.19 240.57,-170.03"/>
<text text-anchor="middle" x="286.34" y="-184" font-family="Helvetica,sans-Serif" font-size="10.00"> +shaded</text>
</g>
<!-- Node7&#45;&gt;Node2 -->
<g id="edge9" class="edge">
<title>Node7&#45;&gt;Node2</title>
<path fill="none" stroke="#404040" d="M410.7,-286.25C418.7,-263.68 424.99,-232.07 409.34,-210 379.17,-167.46 322.93,-148.86 275.67,-140.82"/>
<polygon fill="none" stroke="#404040" points="275.41,-140.78 268.87,-143.82 263.55,-138.95 270.09,-135.91 275.41,-140.78"/>
<text text-anchor="middle" x="435.84" y="-236.5" font-family="Helvetica,sans-Serif" font-size="10.00"> +debug</text>
</g>
</g>
</svg>
        <g id="navigator" transform="translate(0 0)" fill="#404254">
                <rect fill="#f2f5e9" fill-opacity="0.5" stroke="#606060" stroke-width=".5" x="0" y="0" width="60" height="60"/>
                <use id="zoomplus" xlink:href="#zoomPlus" x="17" y="9" onmousedown="handleZoom(evt,'in')"/>
                <use id="zoomminus" xlink:href="#zoomMin" x="42" y="9" onmousedown="handleZoom(evt,'out')"/>
                <use id="reset" xlink:href="#resetDef" x="30" y="36" onmousedown="handleReset()"/>
                <g id="arrowUp" xlink:href="#dirArrow" transform="translate(30 24)" onmousedown="handlePan(0,-1)">
                  <use xlink:href="#rim" fill="#404040">
                        <set attributeName="fill" to="#808080" begin="arrowUp.mouseover" end="arrowUp.mouseout"/>
                  </use>
                  <path fill="none" stroke="white" stroke-width="1.5" d="M0,-3.0v7 M-2.5,-0.5L0,-3.0L2.5,-0.5"/>
                </g>
                <g id="arrowRight" xlink:href="#dirArrow" transform="rotate(90) translate(36 -43)" onmousedown="handlePan(1,0)">
                  <use xlink:href="#rim" fill="#404040">
                        <set attributeName="fill" to="#808080" begin="arrowRight.mouseover" end="arrowRight.mouseout"/>
                  </use>
                  <path fill="none" stroke="white" stroke-width="1.5" d="M0,-3.0v7 M-2.5,-0.5L0,-3.0L2.5,-0.5"/>
                </g>
                <g id="arrowDown" xlink:href="#dirArrow" transform="rotate(180) translate(-30 -48)" onmousedown="handlePan(0,1)">
                  <use xlink:href="#rim" fill="#404040">
                        <set attributeName="fill" to="#808080" begin="arrowDown.mouseover" end="arrowDown.mouseout"/>
                  </use>
                  <path fill="none" stroke="white" stroke-width="1.5" d="M0,-3.0v7 M-2.5,-0.5L0,-3.0L2.5,-0.5"/>
                </g>
                <g id="arrowLeft" xlink:href="#dirArrow" transform="rotate(270) translate(-36 17)" onmousedown="handlePan(-1,0)">
                  <use xlink:href="#rim" fill="#404040">
                        <set attributeName="fill" to="#808080" begin="arrowLeft.mouseover" end="arrowLeft.mouseout"/>
                  </use>
                  <path fill="none" stroke="white" stroke-width="1.5" d="M0,-3.0v7 M-2.5,-0.5L0,-3.0L2.5,-0.5"/>
                </g>
        </g>
        <svg viewBox="0 0 15 15" width="100%" height="30px" preserveAspectRatio="xMaxYMin meet">
         <g id="arrow_out" transform="scale(0.3 0.3)">
          <a xlink:href="struct_c_c_a_d___o_t_1_1_ot_surface_info__coll__graph_org.svg" target="_base">
           <rect id="button" ry="5" rx="5" y="6" x="6" height="38" width="38"
                fill="#f2f5e9" fill-opacity="0.5" stroke="#606060" stroke-width="1.0"/>
           <path id="arrow"
             d="M 11.500037,31.436501 C 11.940474,20.09759 22.043105,11.32322 32.158766,21.979434 L 37.068811,17.246167 C 37.068811,17.246167 37.088388,32 37.088388,32 L 22.160133,31.978069 C 22.160133,31.978069 26.997745,27.140456 26.997745,27.140456 C 18.528582,18.264221 13.291696,25.230495 11.500037,31.436501 z"
             style="fill:#404040;"/>
          </a>
         </g>
        </svg>
</svg>
