<?xml version="1.0" encoding="UTF-8" standalone="no"?>
<!DOCTYPE svg PUBLIC "-//W3C//DTD SVG 1.1//EN"
 "http://www.w3.org/Graphics/SVG/1.1/DTD/svg11.dtd">
<!-- Generated by graphviz version 3.0.0 (20220413.0106)
 -->
<!-- Title: CCAD_OT::OtNode Pages: 1 -->
<svg width="254pt" height="408pt"
 viewBox="0.00 0.00 254.00 408.00" xmlns="http://www.w3.org/2000/svg" xmlns:xlink="http://www.w3.org/1999/xlink">
<g id="graph0" class="graph" transform="scale(1 1) rotate(0) translate(4 404)">
<title>CCAD_OT::OtNode</title>
<!-- Node1 -->
<g id="node1" class="node">
<title>Node1</title>
<g id="a_node1"><a xlink:title=" ">
<polygon fill="#bfbfbf" stroke="black" points="93,-0.5 93,-123.5 194,-123.5 194,-0.5 93,-0.5"/>
<text text-anchor="middle" x="143.5" y="-111.5" font-family="Helvetica,sans-Serif" font-size="10.00">CCAD_OT::OtNode</text>
<polyline fill="none" stroke="black" points="93,-104.5 194,-104.5 "/>
<text text-anchor="start" x="101" y="-92.5" font-family="Helvetica,sans-Serif" font-size="10.00">+ type</text>
<polyline fill="none" stroke="black" points="93,-85.5 194,-85.5 "/>
<text text-anchor="start" x="101" y="-73.5" font-family="Helvetica,sans-Serif" font-size="10.00">+ OtNode()</text>
<text text-anchor="start" x="101" y="-62.5" font-family="Helvetica,sans-Serif" font-size="10.00">+ OtNode()</text>
<text text-anchor="start" x="101" y="-51.5" font-family="Helvetica,sans-Serif" font-size="10.00">+ getChild()</text>
<text text-anchor="start" x="101" y="-40.5" font-family="Helvetica,sans-Serif" font-size="10.00">+ getChild()</text>
<text text-anchor="start" x="101" y="-29.5" font-family="Helvetica,sans-Serif" font-size="10.00">+ setChild()</text>
<text text-anchor="start" x="101" y="-18.5" font-family="Helvetica,sans-Serif" font-size="10.00">+ setChild()</text>
<text text-anchor="start" x="101" y="-7.5" font-family="Helvetica,sans-Serif" font-size="10.00">+ getType()</text>
</a>
</g>
</g>
<!-- Node2 -->
<g id="node2" class="node">
<title>Node2</title>
<g id="a_node2"><a xlink:href="struct_c_c_a_d___o_t_1_1_ot_node_primitive.html" target="_top" xlink:title=" ">
<polygon fill="none" stroke="black" points="107,-171.5 107,-294.5 246,-294.5 246,-171.5 107,-171.5"/>
<text text-anchor="middle" x="176.5" y="-282.5" font-family="Helvetica,sans-Serif" font-size="10.00">CCAD_OT::OtNodePrimitive</text>
<polyline fill="none" stroke="black" points="107,-275.5 246,-275.5 "/>
<text text-anchor="start" x="115" y="-263.5" font-family="Helvetica,sans-Serif" font-size="10.00">+ type</text>
<polyline fill="none" stroke="black" points="107,-256.5 246,-256.5 "/>
<text text-anchor="start" x="115" y="-244.5" font-family="Helvetica,sans-Serif" font-size="10.00">+ getChild()</text>
<text text-anchor="start" x="115" y="-233.5" font-family="Helvetica,sans-Serif" font-size="10.00">+ getChild()</text>
<text text-anchor="start" x="115" y="-222.5" font-family="Helvetica,sans-Serif" font-size="10.00">+ setChild()</text>
<text text-anchor="start" x="115" y="-211.5" font-family="Helvetica,sans-Serif" font-size="10.00">+ setChild()</text>
<text text-anchor="start" x="115" y="-200.5" font-family="Helvetica,sans-Serif" font-size="10.00">+ getInfo()</text>
<text text-anchor="start" x="115" y="-189.5" font-family="Helvetica,sans-Serif" font-size="10.00">+ setInfo()</text>
<text text-anchor="start" x="115" y="-178.5" font-family="Helvetica,sans-Serif" font-size="10.00">+ getType()</text>
</a>
</g>
</g>
<!-- Node2&#45;&gt;Node1 -->
<g id="edge1" class="edge">
<title>Node2&#45;&gt;Node1</title>
<path fill="none" stroke="midnightblue" d="M159.24,-161.49C158.63,-158.63 158.05,-155.79 157.5,-153 155.63,-143.54 153.86,-133.47 152.24,-123.63"/>
<polygon fill="none" stroke="midnightblue" points="155.83,-162.27 161.37,-171.3 162.67,-160.78 155.83,-162.27"/>
</g>
<!-- Node2&#45;&gt;Node1 -->
<g id="edge3" class="edge">
<title>Node2&#45;&gt;Node1</title>
<path fill="none" stroke="#404040" d="M164.68,-171.46C162.4,-159.81 160,-147.5 157.66,-135.52"/>
<polygon fill="none" stroke="#404040" points="157.65,-135.46 152.57,-130.34 155.35,-123.68 160.42,-128.8 157.65,-135.46"/>
<text text-anchor="middle" x="182" y="-145" font-family="Helvetica,sans-Serif" font-size="10.00"> +children</text>
</g>
<!-- Node3 -->
<g id="node3" class="node">
<title>Node3</title>
<g id="a_node3"><a xlink:href="struct_c_c_a_d___o_t_1_1_ot_node_info.html" target="_top" xlink:title=" ">
<polygon fill="none" stroke="black" points="0,-342.5 0,-399.5 117,-399.5 117,-342.5 0,-342.5"/>
<text text-anchor="middle" x="58.5" y="-387.5" font-family="Helvetica,sans-Serif" font-size="10.00">CCAD_OT::OtNodeInfo</text>
<polyline fill="none" stroke="black" points="0,-380.5 117,-380.5 "/>
<text text-anchor="start" x="8" y="-368.5" font-family="Helvetica,sans-Serif" font-size="10.00">+ type</text>
<polyline fill="none" stroke="black" points="0,-361.5 117,-361.5 "/>
<text text-anchor="start" x="8" y="-349.5" font-family="Helvetica,sans-Serif" font-size="10.00">+ getType()</text>
</a>
</g>
</g>
<!-- Node3&#45;&gt;Node1 -->
<g id="edge4" class="edge">
<title>Node3&#45;&gt;Node1</title>
<path fill="none" stroke="#404040" d="M51.37,-342.26C42.6,-302.84 31.34,-228.95 52.5,-171 59.5,-151.83 71.57,-133.71 84.66,-117.99"/>
<polygon fill="none" stroke="#404040" points="85.03,-117.56 85.96,-110.41 92.92,-108.51 91.99,-115.67 85.03,-117.56"/>
<text text-anchor="middle" x="75.5" y="-230.5" font-family="Helvetica,sans-Serif" font-size="10.00"> +nodeInfo</text>
</g>
<!-- Node3&#45;&gt;Node2 -->
<g id="edge2" class="edge">
<title>Node3&#45;&gt;Node2</title>
<path fill="none" stroke="#404040" d="M82.38,-342.48C92.12,-331.25 103.87,-317.71 115.71,-304.06"/>
<polygon fill="none" stroke="#404040" points="116.04,-303.69 116.95,-296.53 123.9,-294.62 122.99,-301.78 116.04,-303.69"/>
<text text-anchor="middle" x="129.5" y="-316" font-family="Helvetica,sans-Serif" font-size="10.00"> +nodeInfo</text>
</g>
</g>
</svg>
