<?xml version="1.0" encoding="UTF-8" standalone="no"?>
<!DOCTYPE svg PUBLIC "-//W3C//DTD SVG 1.1//EN"
 "http://www.w3.org/Graphics/SVG/1.1/DTD/svg11.dtd">
<!-- Generated by graphviz version 2.49.3 (20211027.1501)
 -->
<!-- Title: PreRenderUpdateBuffersEvent Pages: 1 -->
<svg width="157pt" height="521pt"
 viewBox="0.00 0.00 157.00 521.00" xmlns="http://www.w3.org/2000/svg" xmlns:xlink="http://www.w3.org/1999/xlink">
<g id="graph0" class="graph" transform="scale(1 1) rotate(0) translate(4 517)">
<title>PreRenderUpdateBuffersEvent</title>
<!-- Node1 -->
<g id="node1" class="node">
<title>Node1</title>
<g id="a_node1"><a xlink:title=" ">
<polygon fill="#bfbfbf" stroke="black" points="0,-0.5 0,-57.5 149,-57.5 149,-0.5 0,-0.5"/>
<text text-anchor="middle" x="74.5" y="-45.5" font-family="Helvetica,sans-Serif" font-size="10.00">PreRenderUpdateBuffersEvent</text>
<polyline fill="none" stroke="black" points="0,-38.5 149,-38.5 "/>
<text text-anchor="middle" x="74.5" y="-26.5" font-family="Helvetica,sans-Serif" font-size="10.00"> </text>
<polyline fill="none" stroke="black" points="0,-19.5 149,-19.5 "/>
<text text-anchor="middle" x="74.5" y="-7.5" font-family="Helvetica,sans-Serif" font-size="10.00"> </text>
</a>
</g>
</g>
<!-- Node2 -->
<g id="node2" class="node">
<title>Node2</title>
<g id="a_node2"><a xlink:href="struct_render_event.html" target="_top" xlink:title=" ">
<polygon fill="none" stroke="black" points="38.5,-95.5 38.5,-152.5 110.5,-152.5 110.5,-95.5 38.5,-95.5"/>
<text text-anchor="middle" x="74.5" y="-140.5" font-family="Helvetica,sans-Serif" font-size="10.00">RenderEvent</text>
<polyline fill="none" stroke="black" points="38.5,-133.5 110.5,-133.5 "/>
<text text-anchor="middle" x="74.5" y="-121.5" font-family="Helvetica,sans-Serif" font-size="10.00"> </text>
<polyline fill="none" stroke="black" points="38.5,-114.5 110.5,-114.5 "/>
<text text-anchor="middle" x="74.5" y="-102.5" font-family="Helvetica,sans-Serif" font-size="10.00"> </text>
</a>
</g>
</g>
<!-- Node2&#45;&gt;Node1 -->
<g id="edge1" class="edge">
<title>Node2&#45;&gt;Node1</title>
<path fill="none" stroke="midnightblue" d="M74.5,-85.24C74.5,-76.03 74.5,-66.35 74.5,-57.71"/>
<polygon fill="none" stroke="midnightblue" points="71,-85.35 74.5,-95.35 78,-85.35 71,-85.35"/>
</g>
<!-- Node3 -->
<g id="node3" class="node">
<title>Node3</title>
<g id="a_node3"><a xlink:href="class_device.html" target="_top" xlink:title=" ">
<polygon fill="none" stroke="black" points="19,-200.5 19,-290.5 130,-290.5 130,-200.5 19,-200.5"/>
<text text-anchor="middle" x="74.5" y="-278.5" font-family="Helvetica,sans-Serif" font-size="10.00">Device</text>
<polyline fill="none" stroke="black" points="19,-271.5 130,-271.5 "/>
<text text-anchor="middle" x="74.5" y="-259.5" font-family="Helvetica,sans-Serif" font-size="10.00"> </text>
<polyline fill="none" stroke="black" points="19,-252.5 130,-252.5 "/>
<text text-anchor="start" x="27" y="-240.5" font-family="Helvetica,sans-Serif" font-size="10.00">+ Device()</text>
<text text-anchor="start" x="27" y="-229.5" font-family="Helvetica,sans-Serif" font-size="10.00">+ getPhysicalDevice()</text>
<text text-anchor="start" x="27" y="-218.5" font-family="Helvetica,sans-Serif" font-size="10.00">+ getAllocator()</text>
<text text-anchor="start" x="27" y="-207.5" font-family="Helvetica,sans-Serif" font-size="10.00">+ cleanup()</text>
</a>
</g>
</g>
<!-- Node3&#45;&gt;Node2 -->
<g id="edge2" class="edge">
<title>Node3&#45;&gt;Node2</title>
<path fill="none" stroke="#404040" d="M74.5,-200.34C74.5,-188.75 74.5,-176.31 74.5,-164.95"/>
<polygon fill="none" stroke="#404040" points="74.5,-164.69 70.5,-158.69 74.5,-152.69 78.5,-158.69 74.5,-164.69"/>
<text text-anchor="middle" x="93" y="-174" font-family="Helvetica,sans-Serif" font-size="10.00"> +device</text>
</g>
<!-- Node4 -->
<g id="node4" class="node">
<title>Node4</title>
<g id="a_node4"><a xlink:href="class_vulkan_class.html" target="_top" xlink:title=" ">
<polygon fill="none" stroke="black" points="9.5,-328.5 9.5,-396.5 139.5,-396.5 139.5,-328.5 9.5,-328.5"/>
<text text-anchor="middle" x="74.5" y="-384.5" font-family="Helvetica,sans-Serif" font-size="10.00">VulkanClass&lt; VkDevice &gt;</text>
<polyline fill="none" stroke="black" points="9.5,-377.5 139.5,-377.5 "/>
<text text-anchor="start" x="17.5" y="-365.5" font-family="Helvetica,sans-Serif" font-size="10.00"># handle</text>
<polyline fill="none" stroke="black" points="9.5,-358.5 139.5,-358.5 "/>
<text text-anchor="start" x="17.5" y="-346.5" font-family="Helvetica,sans-Serif" font-size="10.00">+ getHandle()</text>
<text text-anchor="start" x="17.5" y="-335.5" font-family="Helvetica,sans-Serif" font-size="10.00">+ getHandlePtr()</text>
</a>
</g>
</g>
<!-- Node4&#45;&gt;Node3 -->
<g id="edge3" class="edge">
<title>Node4&#45;&gt;Node3</title>
<path fill="none" stroke="midnightblue" d="M74.5,-318.05C74.5,-309.15 74.5,-299.76 74.5,-290.82"/>
<polygon fill="none" stroke="midnightblue" points="71,-318.24 74.5,-328.24 78,-318.24 71,-318.24"/>
</g>
<!-- Node5 -->
<g id="node5" class="node">
<title>Node5</title>
<g id="a_node5"><a xlink:href="class_vulkan_class.html" target="_top" xlink:title=" ">
<polygon fill="none" stroke="black" points="27.5,-444.5 27.5,-512.5 121.5,-512.5 121.5,-444.5 27.5,-444.5"/>
<text text-anchor="middle" x="74.5" y="-500.5" font-family="Helvetica,sans-Serif" font-size="10.00">VulkanClass&lt; T &gt;</text>
<polyline fill="none" stroke="black" points="27.5,-493.5 121.5,-493.5 "/>
<text text-anchor="start" x="35.5" y="-481.5" font-family="Helvetica,sans-Serif" font-size="10.00"># handle</text>
<polyline fill="none" stroke="black" points="27.5,-474.5 121.5,-474.5 "/>
<text text-anchor="start" x="35.5" y="-462.5" font-family="Helvetica,sans-Serif" font-size="10.00">+ getHandle()</text>
<text text-anchor="start" x="35.5" y="-451.5" font-family="Helvetica,sans-Serif" font-size="10.00">+ getHandlePtr()</text>
</a>
</g>
</g>
<!-- Node5&#45;&gt;Node4 -->
<g id="edge4" class="edge">
<title>Node5&#45;&gt;Node4</title>
<path fill="none" stroke="orange" d="M74.5,-434.06C74.5,-421.64 74.5,-408.32 74.5,-396.62"/>
<polygon fill="orange" stroke="orange" points="71,-434.22 74.5,-444.22 78,-434.22 71,-434.22"/>
<text text-anchor="middle" x="105" y="-418" font-family="Helvetica,sans-Serif" font-size="10.00"> &lt; VkDevice &gt;</text>
</g>
</g>
</svg>
