<?xml version="1.0" encoding="UTF-8" standalone="no"?>
<!DOCTYPE svg PUBLIC "-//W3C//DTD SVG 1.1//EN"
 "http://www.w3.org/Graphics/SVG/1.1/DTD/svg11.dtd">
<!-- Generated by graphviz version 2.50.0 (20220203.2022)
 -->
<!-- Title: CCAD_OT::OtNodePrimitive::getChild Pages: 1 -->
<svg width="572pt" height="307pt"
 viewBox="0.00 0.00 572.00 307.00" xmlns="http://www.w3.org/2000/svg" xmlns:xlink="http://www.w3.org/1999/xlink">
<g id="graph0" class="graph" transform="scale(1 1) rotate(0) translate(4 303)">
<title>CCAD_OT::OtNodePrimitive::getChild</title>
<!-- Node1 -->
<g id="node1" class="node">
<title>Node1</title>
<g id="a_node1"><a xlink:title=" ">
<polygon fill="#bfbfbf" stroke="black" points="425,-116.5 425,-146.5 564,-146.5 564,-116.5 425,-116.5"/>
<text text-anchor="start" x="433" y="-134.5" font-family="Helvetica,sans-Serif" font-size="10.00">CCAD_OT::OtNodePrimitive</text>
<text text-anchor="middle" x="494.5" y="-123.5" font-family="Helvetica,sans-Serif" font-size="10.00">::getChild</text>
</a>
</g>
</g>
<!-- Node2 -->
<g id="node2" class="node">
<title>Node2</title>
<g id="a_node2"><a xlink:href="class_c_c_a_d___o_t_1_1_ot_octree.html#af03ecfa8e04704c4f890668d8398ad9b" target="_top" xlink:title=" ">
<polygon fill="none" stroke="black" points="252.5,-250.5 252.5,-280.5 367.5,-280.5 367.5,-250.5 252.5,-250.5"/>
<text text-anchor="start" x="260.5" y="-268.5" font-family="Helvetica,sans-Serif" font-size="10.00">CCAD_OT::OtOctree::</text>
<text text-anchor="middle" x="310" y="-257.5" font-family="Helvetica,sans-Serif" font-size="10.00">recursive_create_leaf_</text>
</a>
</g>
</g>
<!-- Node1&#45;&gt;Node2 -->
<g id="edge1" class="edge">
<title>Node1&#45;&gt;Node2</title>
<path fill="none" stroke="midnightblue" d="M477.14,-154.82C458.52,-179.72 425.85,-218.66 389,-241.5 382.5,-245.53 375.27,-248.93 367.91,-251.78"/>
<polygon fill="midnightblue" stroke="midnightblue" points="480.04,-156.79 483.13,-146.65 474.39,-152.65 480.04,-156.79"/>
</g>
<!-- Node5 -->
<g id="node5" class="node">
<title>Node5</title>
<g id="a_node5"><a xlink:href="class_c_c_a_d___o_t_1_1_ot_octree.html#afe7647556ff80406d93244eda0947548" target="_top" xlink:title=" ">
<polygon fill="none" stroke="black" points="254.5,-183.5 254.5,-213.5 365.5,-213.5 365.5,-183.5 254.5,-183.5"/>
<text text-anchor="start" x="262.5" y="-201.5" font-family="Helvetica,sans-Serif" font-size="10.00">CCAD_OT::OtOctree::</text>
<text text-anchor="middle" x="310" y="-190.5" font-family="Helvetica,sans-Serif" font-size="10.00">recursive_erase_</text>
</a>
</g>
</g>
<!-- Node1&#45;&gt;Node5 -->
<g id="edge5" class="edge">
<title>Node1&#45;&gt;Node5</title>
<path fill="none" stroke="midnightblue" d="M449.61,-150.61C431.06,-158.41 409.13,-167.28 389,-174.5 380.46,-177.56 371.32,-180.59 362.41,-183.42"/>
<polygon fill="midnightblue" stroke="midnightblue" points="451.14,-153.77 458.98,-146.64 448.4,-147.32 451.14,-153.77"/>
</g>
<!-- Node7 -->
<g id="node7" class="node">
<title>Node7</title>
<g id="a_node7"><a xlink:href="class_c_c_a_d___o_t_1_1_ot_octree.html#ab7fbd28a7734f9595369d91cd6be7165" target="_top" xlink:title=" ">
<polygon fill="none" stroke="black" points="250.5,-116.5 250.5,-146.5 369.5,-146.5 369.5,-116.5 250.5,-116.5"/>
<text text-anchor="start" x="258.5" y="-134.5" font-family="Helvetica,sans-Serif" font-size="10.00">CCAD_OT::OtOctree::</text>
<text text-anchor="middle" x="310" y="-123.5" font-family="Helvetica,sans-Serif" font-size="10.00">recursive_find_closest_</text>
</a>
</g>
</g>
<!-- Node1&#45;&gt;Node7 -->
<g id="edge9" class="edge">
<title>Node1&#45;&gt;Node7</title>
<path fill="none" stroke="midnightblue" d="M414.42,-131.5C399.35,-131.5 383.82,-131.5 369.53,-131.5"/>
<polygon fill="midnightblue" stroke="midnightblue" points="414.76,-135 424.76,-131.5 414.76,-128 414.76,-135"/>
</g>
<!-- Node9 -->
<g id="node9" class="node">
<title>Node9</title>
<g id="a_node9"><a xlink:href="class_c_c_a_d___o_t_1_1_ot_octree.html#a42ad94c9403c2672d0ad010e1f863d43" target="_top" xlink:title=" ">
<polygon fill="none" stroke="black" points="247.5,-49.5 247.5,-79.5 372.5,-79.5 372.5,-49.5 247.5,-49.5"/>
<text text-anchor="start" x="255.5" y="-67.5" font-family="Helvetica,sans-Serif" font-size="10.00">CCAD_OT::OtOctree::</text>
<text text-anchor="middle" x="310" y="-56.5" font-family="Helvetica,sans-Serif" font-size="10.00">recursive_full_construct_</text>
</a>
</g>
</g>
<!-- Node1&#45;&gt;Node9 -->
<g id="edge12" class="edge">
<title>Node1&#45;&gt;Node9</title>
<path fill="none" stroke="midnightblue" d="M443.11,-113C414.48,-102.49 379.08,-89.49 352.14,-79.6"/>
<polygon fill="midnightblue" stroke="midnightblue" points="441.95,-116.3 452.54,-116.46 444.36,-109.73 441.95,-116.3"/>
</g>
<!-- Node11 -->
<g id="node11" class="node">
<title>Node11</title>
<g id="a_node11"><a xlink:href="class_c_c_a_d___o_t_1_1_ot_geometry_compiler.html#a1b41486a5bbb8509281bd7bca5088ed9" target="_top" xlink:title=" ">
<polygon fill="none" stroke="black" points="231,-0.5 231,-30.5 389,-30.5 389,-0.5 231,-0.5"/>
<text text-anchor="start" x="239" y="-18.5" font-family="Helvetica,sans-Serif" font-size="10.00">CCAD_OT::OtGeometryCompiler</text>
<text text-anchor="middle" x="310" y="-7.5" font-family="Helvetica,sans-Serif" font-size="10.00">::recursive_iterate_nodes_</text>
</a>
</g>
</g>
<!-- Node1&#45;&gt;Node11 -->
<g id="edge15" class="edge">
<title>Node1&#45;&gt;Node11</title>
<path fill="none" stroke="midnightblue" d="M473.21,-108.81C453.54,-88.07 421.92,-57.92 389,-39.5 382.94,-36.11 376.34,-33.14 369.64,-30.55"/>
<polygon fill="midnightblue" stroke="midnightblue" points="470.76,-111.32 480.14,-116.25 475.88,-106.55 470.76,-111.32"/>
</g>
<!-- Node2&#45;&gt;Node2 -->
<g id="edge4" class="edge">
<title>Node2&#45;&gt;Node2</title>
<path fill="none" stroke="midnightblue" d="M340.92,-290.96C337.08,-295.68 326.77,-299 310,-299 282.47,-299 272.36,-290.06 279.68,-280.66"/>
<polygon fill="midnightblue" stroke="midnightblue" points="344.39,-290.44 340.32,-280.66 337.41,-290.84 344.39,-290.44"/>
</g>
<!-- Node3 -->
<g id="node3" class="node">
<title>Node3</title>
<g id="a_node3"><a xlink:href="class_c_c_a_d___o_t_1_1_ot_octree.html#affdeb3fd886f3158e29744f2a2608338" target="_top" xlink:title=" ">
<polygon fill="none" stroke="black" points="79,-245.5 79,-275.5 190,-275.5 190,-245.5 79,-245.5"/>
<text text-anchor="start" x="87" y="-263.5" font-family="Helvetica,sans-Serif" font-size="10.00">CCAD_OT::OtOctree::</text>
<text text-anchor="middle" x="134.5" y="-252.5" font-family="Helvetica,sans-Serif" font-size="10.00">ot_create_leaf</text>
</a>
</g>
</g>
<!-- Node2&#45;&gt;Node3 -->
<g id="edge2" class="edge">
<title>Node2&#45;&gt;Node3</title>
<path fill="none" stroke="midnightblue" d="M242.19,-263.57C224.95,-263.08 206.61,-262.55 190.08,-262.07"/>
<polygon fill="midnightblue" stroke="midnightblue" points="242.09,-267.07 252.19,-263.86 242.29,-260.08 242.09,-267.07"/>
</g>
<!-- Node4 -->
<g id="node4" class="node">
<title>Node4</title>
<g id="a_node4"><a xlink:href="octrees_8cpp.html#ae66f6b31b5ad750f1fe042a706a4e3d4" target="_top" xlink:title=" ">
<polygon fill="none" stroke="black" points="0,-224 0,-243 38,-243 38,-224 0,-224"/>
<text text-anchor="middle" x="19" y="-231" font-family="Helvetica,sans-Serif" font-size="10.00">main</text>
</a>
</g>
</g>
<!-- Node3&#45;&gt;Node4 -->
<g id="edge3" class="edge">
<title>Node3&#45;&gt;Node4</title>
<path fill="none" stroke="midnightblue" d="M68.82,-245.11C57.6,-242.45 46.81,-239.88 38.23,-237.84"/>
<polygon fill="midnightblue" stroke="midnightblue" points="68.21,-248.57 78.74,-247.47 69.83,-241.76 68.21,-248.57"/>
</g>
<!-- Node5&#45;&gt;Node5 -->
<g id="edge8" class="edge">
<title>Node5&#45;&gt;Node5</title>
<path fill="none" stroke="midnightblue" d="M340.92,-223.96C337.08,-228.68 326.77,-232 310,-232 282.47,-232 272.36,-223.06 279.68,-213.66"/>
<polygon fill="midnightblue" stroke="midnightblue" points="344.39,-223.44 340.32,-213.66 337.41,-223.84 344.39,-223.44"/>
</g>
<!-- Node6 -->
<g id="node6" class="node">
<title>Node6</title>
<g id="a_node6"><a xlink:href="class_c_c_a_d___o_t_1_1_ot_octree.html#a17f002facea3c5b28cdf176b2faf16ae" target="_top" xlink:title=" ">
<polygon fill="none" stroke="black" points="79,-192.5 79,-222.5 190,-222.5 190,-192.5 79,-192.5"/>
<text text-anchor="start" x="87" y="-210.5" font-family="Helvetica,sans-Serif" font-size="10.00">CCAD_OT::OtOctree::</text>
<text text-anchor="middle" x="134.5" y="-199.5" font-family="Helvetica,sans-Serif" font-size="10.00">ot_erase_recursive</text>
</a>
</g>
</g>
<!-- Node5&#45;&gt;Node6 -->
<g id="edge6" class="edge">
<title>Node5&#45;&gt;Node6</title>
<path fill="none" stroke="midnightblue" d="M243.84,-201.88C226.12,-202.8 207.11,-203.79 190.04,-204.67"/>
<polygon fill="midnightblue" stroke="midnightblue" points="244.3,-205.36 254.1,-201.35 243.94,-198.37 244.3,-205.36"/>
</g>
<!-- Node6&#45;&gt;Node4 -->
<g id="edge7" class="edge">
<title>Node6&#45;&gt;Node4</title>
<path fill="none" stroke="midnightblue" d="M68.82,-222.32C57.6,-224.89 46.81,-227.36 38.23,-229.32"/>
<polygon fill="midnightblue" stroke="midnightblue" points="69.78,-225.69 78.74,-220.04 68.22,-218.86 69.78,-225.69"/>
</g>
<!-- Node7&#45;&gt;Node7 -->
<g id="edge11" class="edge">
<title>Node7&#45;&gt;Node7</title>
<path fill="none" stroke="midnightblue" d="M340.92,-156.96C337.08,-161.68 326.77,-165 310,-165 282.47,-165 272.36,-156.06 279.68,-146.66"/>
<polygon fill="midnightblue" stroke="midnightblue" points="344.39,-156.44 340.32,-146.66 337.41,-156.84 344.39,-156.44"/>
</g>
<!-- Node8 -->
<g id="node8" class="node">
<title>Node8</title>
<g id="a_node8"><a xlink:href="class_c_c_a_d___o_t_1_1_ot_octree.html#acf4a1d1c22a312e2a46a8d947b09844e" target="_top" xlink:title=" ">
<polygon fill="none" stroke="black" points="79,-116.5 79,-146.5 190,-146.5 190,-116.5 79,-116.5"/>
<text text-anchor="start" x="87" y="-134.5" font-family="Helvetica,sans-Serif" font-size="10.00">CCAD_OT::OtOctree::</text>
<text text-anchor="middle" x="134.5" y="-123.5" font-family="Helvetica,sans-Serif" font-size="10.00">ot_find_closest</text>
</a>
</g>
</g>
<!-- Node7&#45;&gt;Node8 -->
<g id="edge10" class="edge">
<title>Node7&#45;&gt;Node8</title>
<path fill="none" stroke="midnightblue" d="M240.06,-131.5C223.45,-131.5 205.93,-131.5 190.08,-131.5"/>
<polygon fill="midnightblue" stroke="midnightblue" points="240.26,-135 250.26,-131.5 240.26,-128 240.26,-135"/>
</g>
<!-- Node9&#45;&gt;Node9 -->
<g id="edge14" class="edge">
<title>Node9&#45;&gt;Node9</title>
<path fill="none" stroke="midnightblue" d="M340.92,-89.96C337.08,-94.68 326.77,-98 310,-98 282.47,-98 272.36,-89.06 279.68,-79.66"/>
<polygon fill="midnightblue" stroke="midnightblue" points="344.39,-89.44 340.32,-79.66 337.41,-89.84 344.39,-89.44"/>
</g>
<!-- Node10 -->
<g id="node10" class="node">
<title>Node10</title>
<g id="a_node10"><a xlink:href="class_c_c_a_d___o_t_1_1_ot_octree.html#ad79691122296514c3d5e73ca7c7f4c43" target="_top" xlink:title=" ">
<polygon fill="none" stroke="black" points="74,-49.5 74,-79.5 195,-79.5 195,-49.5 74,-49.5"/>
<text text-anchor="start" x="82" y="-67.5" font-family="Helvetica,sans-Serif" font-size="10.00">CCAD_OT::OtOctree::</text>
<text text-anchor="middle" x="134.5" y="-56.5" font-family="Helvetica,sans-Serif" font-size="10.00">ot_construct_full_octree</text>
</a>
</g>
</g>
<!-- Node9&#45;&gt;Node10 -->
<g id="edge13" class="edge">
<title>Node9&#45;&gt;Node10</title>
<path fill="none" stroke="midnightblue" d="M237.27,-64.5C223.29,-64.5 208.76,-64.5 195.21,-64.5"/>
<polygon fill="midnightblue" stroke="midnightblue" points="237.34,-68 247.34,-64.5 237.34,-61 237.34,-68"/>
</g>
</g>
</svg>
