<?xml version="1.0" encoding="UTF-8" standalone="no"?>
<!DOCTYPE svg PUBLIC "-//W3C//DTD SVG 1.1//EN"
 "http://www.w3.org/Graphics/SVG/1.1/DTD/svg11.dtd">
<!-- Generated by graphviz version 2.50.0 (20220203.2022)
 -->
<!-- Title: CCAD_OT::OtNodeLeaf Pages: 1 -->
<svg width="254pt" height="332pt"
 viewBox="0.00 0.00 254.00 332.00" xmlns="http://www.w3.org/2000/svg" xmlns:xlink="http://www.w3.org/1999/xlink">
<g id="graph0" class="graph" transform="scale(1 1) rotate(0) translate(4 328)">
<title>CCAD_OT::OtNodeLeaf</title>
<!-- Node1 -->
<g id="node1" class="node">
<title>Node1</title>
<g id="a_node1"><a xlink:title=" ">
<polygon fill="#bfbfbf" stroke="black" points="21.5,-0.5 21.5,-57.5 141.5,-57.5 141.5,-0.5 21.5,-0.5"/>
<text text-anchor="middle" x="81.5" y="-45.5" font-family="Helvetica,sans-Serif" font-size="10.00">CCAD_OT::OtNodeLeaf</text>
<polyline fill="none" stroke="black" points="21.5,-38.5 141.5,-38.5 "/>
<text text-anchor="start" x="29.5" y="-26.5" font-family="Helvetica,sans-Serif" font-size="10.00">+ type</text>
<polyline fill="none" stroke="black" points="21.5,-19.5 141.5,-19.5 "/>
<text text-anchor="start" x="29.5" y="-7.5" font-family="Helvetica,sans-Serif" font-size="10.00">+ getType()</text>
</a>
</g>
</g>
<!-- Node2 -->
<g id="node2" class="node">
<title>Node2</title>
<g id="a_node2"><a xlink:href="struct_c_c_a_d___o_t_1_1_ot_node_primitive.html" target="_top" xlink:title=" ">
<polygon fill="none" stroke="black" points="107,-95.5 107,-218.5 246,-218.5 246,-95.5 107,-95.5"/>
<text text-anchor="middle" x="176.5" y="-206.5" font-family="Helvetica,sans-Serif" font-size="10.00">CCAD_OT::OtNodePrimitive</text>
<polyline fill="none" stroke="black" points="107,-199.5 246,-199.5 "/>
<text text-anchor="start" x="115" y="-187.5" font-family="Helvetica,sans-Serif" font-size="10.00">+ type</text>
<polyline fill="none" stroke="black" points="107,-180.5 246,-180.5 "/>
<text text-anchor="start" x="115" y="-168.5" font-family="Helvetica,sans-Serif" font-size="10.00">+ getChild()</text>
<text text-anchor="start" x="115" y="-157.5" font-family="Helvetica,sans-Serif" font-size="10.00">+ getChild()</text>
<text text-anchor="start" x="115" y="-146.5" font-family="Helvetica,sans-Serif" font-size="10.00">+ setChild()</text>
<text text-anchor="start" x="115" y="-135.5" font-family="Helvetica,sans-Serif" font-size="10.00">+ setChild()</text>
<text text-anchor="start" x="115" y="-124.5" font-family="Helvetica,sans-Serif" font-size="10.00">+ getInfo()</text>
<text text-anchor="start" x="115" y="-113.5" font-family="Helvetica,sans-Serif" font-size="10.00">+ setInfo()</text>
<text text-anchor="start" x="115" y="-102.5" font-family="Helvetica,sans-Serif" font-size="10.00">+ getType()</text>
</a>
</g>
</g>
<!-- Node2&#45;&gt;Node1 -->
<g id="edge1" class="edge">
<title>Node2&#45;&gt;Node1</title>
<path fill="none" stroke="midnightblue" d="M124.6,-87.16C116.69,-76.67 108.94,-66.39 102.24,-57.51"/>
<polygon fill="none" stroke="midnightblue" points="121.85,-89.34 130.67,-95.21 127.44,-85.12 121.85,-89.34"/>
</g>
<!-- Node3 -->
<g id="node3" class="node">
<title>Node3</title>
<g id="a_node3"><a xlink:href="struct_c_c_a_d___o_t_1_1_ot_node_info.html" target="_top" xlink:title=" ">
<polygon fill="none" stroke="black" points="0,-266.5 0,-323.5 117,-323.5 117,-266.5 0,-266.5"/>
<text text-anchor="middle" x="58.5" y="-311.5" font-family="Helvetica,sans-Serif" font-size="10.00">CCAD_OT::OtNodeInfo</text>
<polyline fill="none" stroke="black" points="0,-304.5 117,-304.5 "/>
<text text-anchor="start" x="8" y="-292.5" font-family="Helvetica,sans-Serif" font-size="10.00">+ type</text>
<polyline fill="none" stroke="black" points="0,-285.5 117,-285.5 "/>
<text text-anchor="start" x="8" y="-273.5" font-family="Helvetica,sans-Serif" font-size="10.00">+ getType()</text>
</a>
</g>
</g>
<!-- Node3&#45;&gt;Node1 -->
<g id="edge3" class="edge">
<title>Node3&#45;&gt;Node1</title>
<path fill="none" stroke="#404040" d="M53.55,-266.27C47.55,-227.47 39.72,-155.01 52.5,-95 54.38,-86.19 57.53,-77.13 61.09,-68.68"/>
<polygon fill="none" stroke="#404040" points="61.16,-68.53 59.99,-61.42 66.11,-57.6 67.28,-64.72 61.16,-68.53"/>
<text text-anchor="middle" x="75.5" y="-154.5" font-family="Helvetica,sans-Serif" font-size="10.00"> +nodeInfo</text>
</g>
<!-- Node3&#45;&gt;Node2 -->
<g id="edge2" class="edge">
<title>Node3&#45;&gt;Node2</title>
<path fill="none" stroke="#404040" d="M82.38,-266.48C92.12,-255.25 103.87,-241.71 115.71,-228.06"/>
<polygon fill="none" stroke="#404040" points="116.04,-227.69 116.95,-220.53 123.9,-218.62 122.99,-225.78 116.04,-227.69"/>
<text text-anchor="middle" x="129.5" y="-240" font-family="Helvetica,sans-Serif" font-size="10.00"> +nodeInfo</text>
</g>
</g>
</svg>
