<?xml version="1.0" encoding="UTF-8" standalone="no"?>
<!DOCTYPE svg PUBLIC "-//W3C//DTD SVG 1.1//EN"
 "http://www.w3.org/Graphics/SVG/1.1/DTD/svg11.dtd">
<!-- Generated by graphviz version 2.49.3 (20211215.1918)
 -->
<!-- Title: CCAD_OT::OtNodePrimitive::getType Pages: 1 -->
<!--zoomable 173 -->
<svg id="main" version="1.1" xmlns="http://www.w3.org/2000/svg" xmlns:xlink="http://www.w3.org/1999/xlink" xml:space="preserve" onload="init(evt)">
<style type="text/css"><![CDATA[
.edge:hover path { stroke: red; }
.edge:hover polygon { stroke: red; fill: red; }
]]></style>
<script type="text/javascript"><![CDATA[
var edges = document.getElementsByTagName('g');
if (edges && edges.length) {
  for (var i=0;i<edges.length;i++) {
    if (edges[i].id.substr(0,4)=='edge') {
      edges[i].setAttribute('class','edge');
    }
  }
}
]]></script>
        <defs>
                <circle id="rim" cx="0" cy="0" r="7"/>
                <circle id="rim2" cx="0" cy="0" r="3.5"/>
                <g id="zoomPlus">
                        <use xlink:href="#rim" fill="#404040">
                                <set attributeName="fill" to="#808080" begin="zoomplus.mouseover" end="zoomplus.mouseout"/>
                        </use>
                        <path d="M-4,0h8M0,-4v8" fill="none" stroke="white" stroke-width="1.5" pointer-events="none"/>
                </g>
                <g id="zoomMin">
                        <use xlink:href="#rim" fill="#404040">
                                <set attributeName="fill" to="#808080" begin="zoomminus.mouseover" end="zoomminus.mouseout"/>
                        </use>
                        <path d="M-4,0h8" fill="none" stroke="white" stroke-width="1.5" pointer-events="none"/>
                </g>
                <g id="dirArrow">
                        <path fill="none" stroke="white" stroke-width="1.5" d="M0,-3.0v7 M-2.5,-0.5L0,-3.0L2.5,-0.5"/>
                </g>
               <g id="resetDef">
                       <use xlink:href="#rim2" fill="#404040">
                               <set attributeName="fill" to="#808080" begin="reset.mouseover" end="reset.mouseout"/>
                       </use>
               </g>
        </defs>

<script type="text/javascript">
var viewWidth = 562;
var viewHeight = 173;
var sectionId = 'dynsection-4';
</script>
<script xlink:href="svgpan.js"/>
<svg id="graph" class="graph">
<g id="viewport">
<title>CCAD_OT::OtNodePrimitive::getType</title>
<!-- Node1 -->
<g id="node1" class="node">
<title>Node1</title>
<g id="a_node1"><a xlink:title=" ">
<polygon fill="#bfbfbf" stroke="black" points="415,-49.5 415,-79.5 554,-79.5 554,-49.5 415,-49.5"/>
<text text-anchor="start" x="423" y="-67.5" font-family="Helvetica,sans-Serif" font-size="10.00">CCAD_OT::OtNodePrimitive</text>
<text text-anchor="middle" x="484.5" y="-56.5" font-family="Helvetica,sans-Serif" font-size="10.00">::getType</text>
</a>
</g>
</g>
<!-- Node2 -->
<g id="node2" class="node">
<title>Node2</title>
<g id="a_node2"><a xlink:href="class_c_c_a_d___o_t_1_1_ot_octree.html#af03ecfa8e04704c4f890668d8398ad9b" target="_top" xlink:title=" ">
<polygon fill="none" stroke="black" points="242.5,-116.5 242.5,-146.5 357.5,-146.5 357.5,-116.5 242.5,-116.5"/>
<text text-anchor="start" x="250.5" y="-134.5" font-family="Helvetica,sans-Serif" font-size="10.00">CCAD_OT::OtOctree::</text>
<text text-anchor="middle" x="300" y="-123.5" font-family="Helvetica,sans-Serif" font-size="10.00">recursive_create_leaf_</text>
</a>
</g>
</g>
<!-- Node1&#45;&gt;Node2 -->
<g id="edge1" class="edge">
<title>Node1&#45;&gt;Node2</title>
<path fill="none" stroke="midnightblue" d="M438.66,-83.35C420.28,-90.85 398.74,-99.38 379,-106.5 369.64,-109.88 359.56,-113.28 349.86,-116.43"/>
<polygon fill="midnightblue" stroke="midnightblue" points="440.04,-86.56 447.95,-79.53 437.37,-80.09 440.04,-86.56"/>
</g>
<!-- Node5 -->
<g id="node5" class="node">
<title>Node5</title>
<g id="a_node5"><a xlink:href="class_c_c_a_d___o_t_1_1_ot_octree.html#ab7fbd28a7734f9595369d91cd6be7165" target="_top" xlink:title=" ">
<polygon fill="none" stroke="black" points="240.5,-49.5 240.5,-79.5 359.5,-79.5 359.5,-49.5 240.5,-49.5"/>
<text text-anchor="start" x="248.5" y="-67.5" font-family="Helvetica,sans-Serif" font-size="10.00">CCAD_OT::OtOctree::</text>
<text text-anchor="middle" x="300" y="-56.5" font-family="Helvetica,sans-Serif" font-size="10.00">recursive_find_closest_</text>
</a>
</g>
</g>
<!-- Node1&#45;&gt;Node5 -->
<g id="edge5" class="edge">
<title>Node1&#45;&gt;Node5</title>
<path fill="none" stroke="midnightblue" d="M404.42,-64.5C389.35,-64.5 373.82,-64.5 359.53,-64.5"/>
<polygon fill="midnightblue" stroke="midnightblue" points="404.76,-68 414.76,-64.5 404.76,-61 404.76,-68"/>
</g>
<!-- Node7 -->
<g id="node7" class="node">
<title>Node7</title>
<g id="a_node7"><a xlink:href="class_c_c_a_d___o_t_1_1_ot_geometry_compiler.html#a1b41486a5bbb8509281bd7bca5088ed9" target="_top" xlink:title=" ">
<polygon fill="none" stroke="black" points="221,-0.5 221,-30.5 379,-30.5 379,-0.5 221,-0.5"/>
<text text-anchor="start" x="229" y="-18.5" font-family="Helvetica,sans-Serif" font-size="10.00">CCAD_OT::OtGeometryCompiler</text>
<text text-anchor="middle" x="300" y="-7.5" font-family="Helvetica,sans-Serif" font-size="10.00">::recursive_iterate_nodes_</text>
</a>
</g>
</g>
<!-- Node1&#45;&gt;Node7 -->
<g id="edge8" class="edge">
<title>Node1&#45;&gt;Node7</title>
<path fill="none" stroke="midnightblue" d="M417.4,-46.75C397.62,-41.44 376.13,-35.67 357.06,-30.55"/>
<polygon fill="midnightblue" stroke="midnightblue" points="416.69,-50.19 427.25,-49.4 418.5,-43.43 416.69,-50.19"/>
</g>
<!-- Node2&#45;&gt;Node2 -->
<g id="edge4" class="edge">
<title>Node2&#45;&gt;Node2</title>
<path fill="none" stroke="midnightblue" d="M330.21,-156.96C326.46,-161.68 316.39,-165 300,-165 273.11,-165 263.23,-156.06 270.37,-146.66"/>
<polygon fill="midnightblue" stroke="midnightblue" points="333.68,-156.45 329.63,-146.66 326.69,-156.84 333.68,-156.45"/>
</g>
<!-- Node3 -->
<g id="node3" class="node">
<title>Node3</title>
<g id="a_node3"><a xlink:href="class_c_c_a_d___o_t_1_1_ot_octree.html#affdeb3fd886f3158e29744f2a2608338" target="_top" xlink:title=" ">
<polygon fill="none" stroke="black" points="74,-116.5 74,-146.5 185,-146.5 185,-116.5 74,-116.5"/>
<text text-anchor="start" x="82" y="-134.5" font-family="Helvetica,sans-Serif" font-size="10.00">CCAD_OT::OtOctree::</text>
<text text-anchor="middle" x="129.5" y="-123.5" font-family="Helvetica,sans-Serif" font-size="10.00">ot_create_leaf</text>
</a>
</g>
</g>
<!-- Node2&#45;&gt;Node3 -->
<g id="edge2" class="edge">
<title>Node2&#45;&gt;Node3</title>
<path fill="none" stroke="midnightblue" d="M232.31,-131.5C216.69,-131.5 200.24,-131.5 185.21,-131.5"/>
<polygon fill="midnightblue" stroke="midnightblue" points="232.42,-135 242.42,-131.5 232.42,-128 232.42,-135"/>
</g>
<!-- Node4 -->
<g id="node4" class="node">
<title>Node4</title>
<g id="a_node4"><a xlink:href="octrees_8cpp.html#ae66f6b31b5ad750f1fe042a706a4e3d4" target="_top" xlink:title=" ">
<polygon fill="none" stroke="black" points="0,-122 0,-141 38,-141 38,-122 0,-122"/>
<text text-anchor="middle" x="19" y="-129" font-family="Helvetica,sans-Serif" font-size="10.00">main</text>
</a>
</g>
</g>
<!-- Node3&#45;&gt;Node4 -->
<g id="edge3" class="edge">
<title>Node3&#45;&gt;Node4</title>
<path fill="none" stroke="midnightblue" d="M63.73,-131.5C54.43,-131.5 45.57,-131.5 38.28,-131.5"/>
<polygon fill="midnightblue" stroke="midnightblue" points="63.93,-135 73.93,-131.5 63.93,-128 63.93,-135"/>
</g>
<!-- Node5&#45;&gt;Node5 -->
<g id="edge7" class="edge">
<title>Node5&#45;&gt;Node5</title>
<path fill="none" stroke="midnightblue" d="M330.21,-89.96C326.46,-94.68 316.39,-98 300,-98 273.11,-98 263.23,-89.06 270.37,-79.66"/>
<polygon fill="midnightblue" stroke="midnightblue" points="333.68,-89.45 329.63,-79.66 326.69,-89.84 333.68,-89.45"/>
</g>
<!-- Node6 -->
<g id="node6" class="node">
<title>Node6</title>
<g id="a_node6"><a xlink:href="class_c_c_a_d___o_t_1_1_ot_octree.html#acf4a1d1c22a312e2a46a8d947b09844e" target="_top" xlink:title=" ">
<polygon fill="none" stroke="black" points="74,-49.5 74,-79.5 185,-79.5 185,-49.5 74,-49.5"/>
<text text-anchor="start" x="82" y="-67.5" font-family="Helvetica,sans-Serif" font-size="10.00">CCAD_OT::OtOctree::</text>
<text text-anchor="middle" x="129.5" y="-56.5" font-family="Helvetica,sans-Serif" font-size="10.00">ot_find_closest</text>
</a>
</g>
</g>
<!-- Node5&#45;&gt;Node6 -->
<g id="edge6" class="edge">
<title>Node5&#45;&gt;Node6</title>
<path fill="none" stroke="midnightblue" d="M229.88,-64.5C214.98,-64.5 199.42,-64.5 185.16,-64.5"/>
<polygon fill="midnightblue" stroke="midnightblue" points="230.07,-68 240.07,-64.5 230.07,-61 230.07,-68"/>
</g>
</g>
</svg>
        <g id="navigator" transform="translate(0 0)" fill="#404254">
                <rect fill="#f2f5e9" fill-opacity="0.5" stroke="#606060" stroke-width=".5" x="0" y="0" width="60" height="60"/>
                <use id="zoomplus" xlink:href="#zoomPlus" x="17" y="9" onmousedown="handleZoom(evt,'in')"/>
                <use id="zoomminus" xlink:href="#zoomMin" x="42" y="9" onmousedown="handleZoom(evt,'out')"/>
                <use id="reset" xlink:href="#resetDef" x="30" y="36" onmousedown="handleReset()"/>
                <g id="arrowUp" xlink:href="#dirArrow" transform="translate(30 24)" onmousedown="handlePan(0,-1)">
                  <use xlink:href="#rim" fill="#404040">
                        <set attributeName="fill" to="#808080" begin="arrowUp.mouseover" end="arrowUp.mouseout"/>
                  </use>
                  <path fill="none" stroke="white" stroke-width="1.5" d="M0,-3.0v7 M-2.5,-0.5L0,-3.0L2.5,-0.5"/>
                </g>
                <g id="arrowRight" xlink:href="#dirArrow" transform="rotate(90) translate(36 -43)" onmousedown="handlePan(1,0)">
                  <use xlink:href="#rim" fill="#404040">
                        <set attributeName="fill" to="#808080" begin="arrowRight.mouseover" end="arrowRight.mouseout"/>
                  </use>
                  <path fill="none" stroke="white" stroke-width="1.5" d="M0,-3.0v7 M-2.5,-0.5L0,-3.0L2.5,-0.5"/>
                </g>
                <g id="arrowDown" xlink:href="#dirArrow" transform="rotate(180) translate(-30 -48)" onmousedown="handlePan(0,1)">
                  <use xlink:href="#rim" fill="#404040">
                        <set attributeName="fill" to="#808080" begin="arrowDown.mouseover" end="arrowDown.mouseout"/>
                  </use>
                  <path fill="none" stroke="white" stroke-width="1.5" d="M0,-3.0v7 M-2.5,-0.5L0,-3.0L2.5,-0.5"/>
                </g>
                <g id="arrowLeft" xlink:href="#dirArrow" transform="rotate(270) translate(-36 17)" onmousedown="handlePan(-1,0)">
                  <use xlink:href="#rim" fill="#404040">
                        <set attributeName="fill" to="#808080" begin="arrowLeft.mouseover" end="arrowLeft.mouseout"/>
                  </use>
                  <path fill="none" stroke="white" stroke-width="1.5" d="M0,-3.0v7 M-2.5,-0.5L0,-3.0L2.5,-0.5"/>
                </g>
        </g>
        <svg viewBox="0 0 15 15" width="100%" height="30px" preserveAspectRatio="xMaxYMin meet">
         <g id="arrow_out" transform="scale(0.3 0.3)">
          <a xlink:href="struct_c_c_a_d___o_t_1_1_ot_node_primitive_a2aed10523396f083cee3d3bbc70e5b5e_icgraph_org.svg" target="_base">
           <rect id="button" ry="5" rx="5" y="6" x="6" height="38" width="38"
                fill="#f2f5e9" fill-opacity="0.5" stroke="#606060" stroke-width="1.0"/>
           <path id="arrow"
             d="M 11.500037,31.436501 C 11.940474,20.09759 22.043105,11.32322 32.158766,21.979434 L 37.068811,17.246167 C 37.068811,17.246167 37.088388,32 37.088388,32 L 22.160133,31.978069 C 22.160133,31.978069 26.997745,27.140456 26.997745,27.140456 C 18.528582,18.264221 13.291696,25.230495 11.500037,31.436501 z"
             style="fill:#404040;"/>
          </a>
         </g>
        </svg>
</svg>
