<?xml version="1.0" encoding="UTF-8" standalone="no"?>
<!DOCTYPE svg PUBLIC "-//W3C//DTD SVG 1.1//EN"
 "http://www.w3.org/Graphics/SVG/1.1/DTD/svg11.dtd">
<!-- Generated by graphviz version 2.49.3 (20211215.1918)
 -->
<!-- Title: CCAD_OT::OtNodeInfoRendered Pages: 1 -->
<svg width="484pt" height="661pt"
 viewBox="0.00 0.00 484.00 661.00" xmlns="http://www.w3.org/2000/svg" xmlns:xlink="http://www.w3.org/1999/xlink">
<g id="graph0" class="graph" transform="scale(1 1) rotate(0) translate(4 657)">
<title>CCAD_OT::OtNodeInfoRendered</title>
<!-- Node1 -->
<g id="node1" class="node">
<title>Node1</title>
<g id="a_node1"><a xlink:title=" ">
<polygon fill="#bfbfbf" stroke="black" points="0,-0.5 0,-79.5 158,-79.5 158,-0.5 0,-0.5"/>
<text text-anchor="middle" x="79" y="-67.5" font-family="Helvetica,sans-Serif" font-size="10.00">CCAD_OT::OtNodeInfoRendered</text>
<polyline fill="none" stroke="black" points="0,-60.5 158,-60.5 "/>
<text text-anchor="start" x="8" y="-48.5" font-family="Helvetica,sans-Serif" font-size="10.00">+ type</text>
<polyline fill="none" stroke="black" points="0,-41.5 158,-41.5 "/>
<text text-anchor="start" x="8" y="-29.5" font-family="Helvetica,sans-Serif" font-size="10.00">+ OtNodeInfoRendered()</text>
<text text-anchor="start" x="8" y="-18.5" font-family="Helvetica,sans-Serif" font-size="10.00">+ OtNodeInfoRendered()</text>
<text text-anchor="start" x="8" y="-7.5" font-family="Helvetica,sans-Serif" font-size="10.00">+ getType()</text>
</a>
</g>
</g>
<!-- Node2 -->
<g id="node2" class="node">
<title>Node2</title>
<g id="a_node2"><a xlink:href="struct_c_c_a_d___o_t_1_1_ot_node_info.html" target="_top" xlink:title=" ">
<polygon fill="none" stroke="black" points="4.5,-127.5 4.5,-184.5 121.5,-184.5 121.5,-127.5 4.5,-127.5"/>
<text text-anchor="middle" x="63" y="-172.5" font-family="Helvetica,sans-Serif" font-size="10.00">CCAD_OT::OtNodeInfo</text>
<polyline fill="none" stroke="black" points="4.5,-165.5 121.5,-165.5 "/>
<text text-anchor="start" x="12.5" y="-153.5" font-family="Helvetica,sans-Serif" font-size="10.00">+ type</text>
<polyline fill="none" stroke="black" points="4.5,-146.5 121.5,-146.5 "/>
<text text-anchor="start" x="12.5" y="-134.5" font-family="Helvetica,sans-Serif" font-size="10.00">+ getType()</text>
</a>
</g>
</g>
<!-- Node2&#45;&gt;Node1 -->
<g id="edge1" class="edge">
<title>Node2&#45;&gt;Node1</title>
<path fill="none" stroke="midnightblue" d="M68.31,-117.18C70.01,-105.08 71.89,-91.68 73.59,-79.54"/>
<polygon fill="none" stroke="midnightblue" points="64.8,-117.01 66.87,-127.4 71.73,-117.99 64.8,-117.01"/>
</g>
<!-- Node3 -->
<g id="node3" class="node">
<title>Node3</title>
<g id="a_node3"><a xlink:href="struct_c_c_a_d___o_t_1_1_ot_surface_info.html" target="_top" xlink:title=" ">
<polygon fill="none" stroke="black" points="140,-127.5 140,-184.5 268,-184.5 268,-127.5 140,-127.5"/>
<text text-anchor="middle" x="204" y="-172.5" font-family="Helvetica,sans-Serif" font-size="10.00">CCAD_OT::OtSurfaceInfo</text>
<polyline fill="none" stroke="black" points="140,-165.5 268,-165.5 "/>
<text text-anchor="start" x="148" y="-153.5" font-family="Helvetica,sans-Serif" font-size="10.00">+ drawMode</text>
<polyline fill="none" stroke="black" points="140,-146.5 268,-146.5 "/>
<text text-anchor="middle" x="204" y="-134.5" font-family="Helvetica,sans-Serif" font-size="10.00"> </text>
</a>
</g>
</g>
<!-- Node3&#45;&gt;Node1 -->
<g id="edge2" class="edge">
<title>Node3&#45;&gt;Node1</title>
<path fill="none" stroke="#404040" d="M173.74,-127.4C160.7,-115.51 145.07,-101.26 130.31,-87.79"/>
<polygon fill="none" stroke="#404040" points="130.13,-87.63 123,-86.54 121.26,-79.54 128.39,-80.63 130.13,-87.63"/>
<text text-anchor="middle" x="182" y="-101" font-family="Helvetica,sans-Serif" font-size="10.00"> +surfaceInfo</text>
</g>
<!-- Node4 -->
<g id="node4" class="node">
<title>Node4</title>
<g id="a_node4"><a xlink:href="union_c_c_a_d___o_t_1_1_ot_mat_info_union.html" target="_top" xlink:title=" ">
<polygon fill="none" stroke="black" points="136,-232.5 136,-289.5 272,-289.5 272,-232.5 136,-232.5"/>
<text text-anchor="middle" x="204" y="-277.5" font-family="Helvetica,sans-Serif" font-size="10.00">CCAD_OT::OtMatInfoUnion</text>
<polyline fill="none" stroke="black" points="136,-270.5 272,-270.5 "/>
<text text-anchor="middle" x="204" y="-258.5" font-family="Helvetica,sans-Serif" font-size="10.00"> </text>
<polyline fill="none" stroke="black" points="136,-251.5 272,-251.5 "/>
<text text-anchor="middle" x="204" y="-239.5" font-family="Helvetica,sans-Serif" font-size="10.00"> </text>
</a>
</g>
</g>
<!-- Node4&#45;&gt;Node3 -->
<g id="edge3" class="edge">
<title>Node4&#45;&gt;Node3</title>
<path fill="none" stroke="#404040" d="M204,-232.4C204,-221.55 204,-208.87 204,-197.05"/>
<polygon fill="none" stroke="#404040" points="204,-196.68 200,-190.68 204,-184.68 208,-190.68 204,-196.68"/>
<text text-anchor="middle" x="234" y="-206" font-family="Helvetica,sans-Serif" font-size="10.00"> +materialInfo</text>
</g>
<!-- Node5 -->
<g id="node5" class="node">
<title>Node5</title>
<g id="a_node5"><a xlink:href="struct_c_c_a_d___o_t_1_1_ot_mat_info.html" target="_top" xlink:title=" ">
<polygon fill="none" stroke="black" points="123,-595.5 123,-652.5 233,-652.5 233,-595.5 123,-595.5"/>
<text text-anchor="middle" x="178" y="-640.5" font-family="Helvetica,sans-Serif" font-size="10.00">CCAD_OT::OtMatInfo</text>
<polyline fill="none" stroke="black" points="123,-633.5 233,-633.5 "/>
<text text-anchor="middle" x="178" y="-621.5" font-family="Helvetica,sans-Serif" font-size="10.00"> </text>
<polyline fill="none" stroke="black" points="123,-614.5 233,-614.5 "/>
<text text-anchor="middle" x="178" y="-602.5" font-family="Helvetica,sans-Serif" font-size="10.00"> </text>
</a>
</g>
</g>
<!-- Node5&#45;&gt;Node4 -->
<g id="edge4" class="edge">
<title>Node5&#45;&gt;Node4</title>
<path fill="none" stroke="#404040" d="M129.94,-595.34C70.8,-557.45 -17.76,-485.75 17,-413 41.76,-361.17 93.96,-321.42 136.93,-295.75"/>
<polygon fill="none" stroke="#404040" points="136.98,-295.72 140.15,-289.25 147.35,-289.69 144.18,-296.16 136.98,-295.72"/>
<text text-anchor="middle" x="34.5" y="-439.5" font-family="Helvetica,sans-Serif" font-size="10.00"> +empty</text>
</g>
<!-- Node6 -->
<g id="node6" class="node">
<title>Node6</title>
<g id="a_node6"><a xlink:href="struct_c_c_a_d___o_t_1_1_ot_mat_info_solid.html" target="_top" xlink:title=" ">
<polygon fill="none" stroke="black" points="61,-413.5 61,-470.5 193,-470.5 193,-413.5 61,-413.5"/>
<text text-anchor="middle" x="127" y="-458.5" font-family="Helvetica,sans-Serif" font-size="10.00">CCAD_OT::OtMatInfoSolid</text>
<polyline fill="none" stroke="black" points="61,-451.5 193,-451.5 "/>
<text text-anchor="start" x="69" y="-439.5" font-family="Helvetica,sans-Serif" font-size="10.00">+ color</text>
<polyline fill="none" stroke="black" points="61,-432.5 193,-432.5 "/>
<text text-anchor="middle" x="127" y="-420.5" font-family="Helvetica,sans-Serif" font-size="10.00"> </text>
</a>
</g>
</g>
<!-- Node5&#45;&gt;Node6 -->
<g id="edge6" class="edge">
<title>Node5&#45;&gt;Node6</title>
<path fill="none" stroke="midnightblue" d="M157.56,-586.21C153.21,-577.19 149.02,-567.42 146,-558 136.72,-529.1 131.79,-494.58 129.3,-470.96"/>
<polygon fill="none" stroke="midnightblue" points="154.5,-587.91 162.11,-595.28 160.76,-584.77 154.5,-587.91"/>
</g>
<!-- Node7 -->
<g id="node7" class="node">
<title>Node7</title>
<g id="a_node7"><a xlink:href="struct_c_c_a_d___o_t_1_1_ot_mat_info_textured.html" target="_top" xlink:title=" ">
<polygon fill="none" stroke="black" points="155,-489.5 155,-557.5 303,-557.5 303,-489.5 155,-489.5"/>
<text text-anchor="middle" x="229" y="-545.5" font-family="Helvetica,sans-Serif" font-size="10.00">CCAD_OT::OtMatInfoTextured</text>
<polyline fill="none" stroke="black" points="155,-538.5 303,-538.5 "/>
<text text-anchor="start" x="163" y="-526.5" font-family="Helvetica,sans-Serif" font-size="10.00">+ tex_index</text>
<text text-anchor="start" x="163" y="-515.5" font-family="Helvetica,sans-Serif" font-size="10.00">+ uv</text>
<polyline fill="none" stroke="black" points="155,-508.5 303,-508.5 "/>
<text text-anchor="middle" x="229" y="-496.5" font-family="Helvetica,sans-Serif" font-size="10.00"> </text>
</a>
</g>
</g>
<!-- Node5&#45;&gt;Node7 -->
<g id="edge8" class="edge">
<title>Node5&#45;&gt;Node7</title>
<path fill="none" stroke="midnightblue" d="M197.06,-586.18C201.92,-576.8 207.12,-566.77 211.87,-557.58"/>
<polygon fill="none" stroke="midnightblue" points="193.83,-584.81 192.34,-595.3 200.05,-588.03 193.83,-584.81"/>
</g>
<!-- Node9 -->
<g id="node9" class="node">
<title>Node9</title>
<g id="a_node9"><a xlink:href="struct_c_c_a_d___o_t_1_1_ot_mat_info_debug.html" target="_top" xlink:title=" ">
<polygon fill="none" stroke="black" points="338,-413.5 338,-470.5 476,-470.5 476,-413.5 338,-413.5"/>
<text text-anchor="middle" x="407" y="-458.5" font-family="Helvetica,sans-Serif" font-size="10.00">CCAD_OT::OtMatInfoDebug</text>
<polyline fill="none" stroke="black" points="338,-451.5 476,-451.5 "/>
<text text-anchor="start" x="346" y="-439.5" font-family="Helvetica,sans-Serif" font-size="10.00">+ channel</text>
<polyline fill="none" stroke="black" points="338,-432.5 476,-432.5 "/>
<text text-anchor="middle" x="407" y="-420.5" font-family="Helvetica,sans-Serif" font-size="10.00"> </text>
</a>
</g>
</g>
<!-- Node5&#45;&gt;Node9 -->
<g id="edge12" class="edge">
<title>Node5&#45;&gt;Node9</title>
<path fill="none" stroke="midnightblue" d="M242.65,-598.41C265.8,-587.91 291.27,-574.29 312,-558 343.77,-533.04 372.09,-495.8 389.38,-470.51"/>
<polygon fill="none" stroke="midnightblue" points="240.97,-595.33 233.23,-602.57 243.8,-601.73 240.97,-595.33"/>
</g>
<!-- Node6&#45;&gt;Node4 -->
<g id="edge5" class="edge">
<title>Node6&#45;&gt;Node4</title>
<path fill="none" stroke="#404040" d="M131.2,-413.19C135.09,-391.72 141.97,-361.63 153,-337 158.72,-324.24 166.6,-311.3 174.47,-299.85"/>
<polygon fill="none" stroke="#404040" points="174.66,-299.58 174.89,-292.37 181.62,-289.8 181.4,-297.01 174.66,-299.58"/>
<text text-anchor="middle" x="167.5" y="-363.5" font-family="Helvetica,sans-Serif" font-size="10.00"> +solid</text>
</g>
<!-- Node7&#45;&gt;Node4 -->
<g id="edge7" class="edge">
<title>Node7&#45;&gt;Node4</title>
<path fill="none" stroke="#404040" d="M224.3,-489.27C220.8,-463.57 216.1,-427.09 213,-395 209.98,-363.72 207.63,-328.21 206.09,-301.75"/>
<polygon fill="none" stroke="#404040" points="206.08,-301.53 201.75,-295.76 205.4,-289.55 209.74,-295.31 206.08,-301.53"/>
<text text-anchor="middle" x="234.5" y="-363.5" font-family="Helvetica,sans-Serif" font-size="10.00"> +textured</text>
</g>
<!-- Node8 -->
<g id="node8" class="node">
<title>Node8</title>
<g id="a_node8"><a xlink:href="struct_c_c_a_d___o_t_1_1_ot_mat_info_shaded.html" target="_top" xlink:title=" ">
<polygon fill="none" stroke="black" points="265.5,-337.5 265.5,-394.5 408.5,-394.5 408.5,-337.5 265.5,-337.5"/>
<text text-anchor="middle" x="337" y="-382.5" font-family="Helvetica,sans-Serif" font-size="10.00">CCAD_OT::OtMatInfoShaded</text>
<polyline fill="none" stroke="black" points="265.5,-375.5 408.5,-375.5 "/>
<text text-anchor="start" x="273.5" y="-363.5" font-family="Helvetica,sans-Serif" font-size="10.00">+ mat_type</text>
<polyline fill="none" stroke="black" points="265.5,-356.5 408.5,-356.5 "/>
<text text-anchor="middle" x="337" y="-344.5" font-family="Helvetica,sans-Serif" font-size="10.00"> </text>
</a>
</g>
</g>
<!-- Node7&#45;&gt;Node8 -->
<g id="edge10" class="edge">
<title>Node7&#45;&gt;Node8</title>
<path fill="none" stroke="midnightblue" d="M257.88,-480.92C276.87,-453.58 301.2,-418.55 317.83,-394.6"/>
<polygon fill="none" stroke="midnightblue" points="255,-478.93 252.17,-489.14 260.75,-482.92 255,-478.93"/>
</g>
<!-- Node8&#45;&gt;Node4 -->
<g id="edge9" class="edge">
<title>Node8&#45;&gt;Node4</title>
<path fill="none" stroke="#404040" d="M301.36,-337.4C285.41,-325.04 266.41,-310.33 249.45,-297.2"/>
<polygon fill="none" stroke="#404040" points="249.23,-297.03 242.03,-296.51 239.74,-289.68 246.93,-290.19 249.23,-297.03"/>
<text text-anchor="middle" x="295" y="-311" font-family="Helvetica,sans-Serif" font-size="10.00"> +shaded</text>
</g>
<!-- Node9&#45;&gt;Node4 -->
<g id="edge11" class="edge">
<title>Node9&#45;&gt;Node4</title>
<path fill="none" stroke="#404040" d="M419.36,-413.25C427.36,-390.68 433.65,-359.07 418,-337 387.83,-294.46 331.58,-275.86 284.33,-267.82"/>
<polygon fill="none" stroke="#404040" points="284.07,-267.78 277.53,-270.82 272.21,-265.95 278.75,-262.91 284.07,-267.78"/>
<text text-anchor="middle" x="444.5" y="-363.5" font-family="Helvetica,sans-Serif" font-size="10.00"> +debug</text>
</g>
</g>
</svg>
