<?xml version="1.0" encoding="UTF-8" standalone="no"?>
<!DOCTYPE svg PUBLIC "-//W3C//DTD SVG 1.1//EN"
 "http://www.w3.org/Graphics/SVG/1.1/DTD/svg11.dtd">
<!-- Generated by graphviz version 2.49.3 (20211027.1501)
 -->
<!-- Title: CCAD_OT::OtConstructOctreeInfo Pages: 1 -->
<svg width="201pt" height="353pt"
 viewBox="0.00 0.00 200.50 353.00" xmlns="http://www.w3.org/2000/svg" xmlns:xlink="http://www.w3.org/1999/xlink">
<g id="graph0" class="graph" transform="scale(1 1) rotate(0) translate(4 349)">
<title>CCAD_OT::OtConstructOctreeInfo</title>
<!-- Node1 -->
<g id="node1" class="node">
<title>Node1</title>
<g id="a_node1"><a xlink:title=" ">
<polygon fill="#bfbfbf" stroke="black" points="0,-0.5 0,-68.5 165,-68.5 165,-0.5 0,-0.5"/>
<text text-anchor="middle" x="82.5" y="-56.5" font-family="Helvetica,sans-Serif" font-size="10.00">CCAD_OT::OtConstructOctreeInfo</text>
<polyline fill="none" stroke="black" points="0,-49.5 165,-49.5 "/>
<text text-anchor="start" x="8" y="-37.5" font-family="Helvetica,sans-Serif" font-size="10.00">+ construction_depth</text>
<text text-anchor="start" x="8" y="-26.5" font-family="Helvetica,sans-Serif" font-size="10.00">+ use_custom_node_template</text>
<polyline fill="none" stroke="black" points="0,-19.5 165,-19.5 "/>
<text text-anchor="middle" x="82.5" y="-7.5" font-family="Helvetica,sans-Serif" font-size="10.00"> </text>
</a>
</g>
</g>
<!-- Node2 -->
<g id="node2" class="node">
<title>Node2</title>
<g id="a_node2"><a xlink:href="struct_c_c_a_d___o_t_1_1_ot_node_primitive.html" target="_top" xlink:title=" ">
<polygon fill="none" stroke="black" points="13,-116.5 13,-239.5 152,-239.5 152,-116.5 13,-116.5"/>
<text text-anchor="middle" x="82.5" y="-227.5" font-family="Helvetica,sans-Serif" font-size="10.00">CCAD_OT::OtNodePrimitive</text>
<polyline fill="none" stroke="black" points="13,-220.5 152,-220.5 "/>
<text text-anchor="start" x="21" y="-208.5" font-family="Helvetica,sans-Serif" font-size="10.00">+ type</text>
<polyline fill="none" stroke="black" points="13,-201.5 152,-201.5 "/>
<text text-anchor="start" x="21" y="-189.5" font-family="Helvetica,sans-Serif" font-size="10.00">+ getChild()</text>
<text text-anchor="start" x="21" y="-178.5" font-family="Helvetica,sans-Serif" font-size="10.00">+ getChild()</text>
<text text-anchor="start" x="21" y="-167.5" font-family="Helvetica,sans-Serif" font-size="10.00">+ setChild()</text>
<text text-anchor="start" x="21" y="-156.5" font-family="Helvetica,sans-Serif" font-size="10.00">+ setChild()</text>
<text text-anchor="start" x="21" y="-145.5" font-family="Helvetica,sans-Serif" font-size="10.00">+ getInfo()</text>
<text text-anchor="start" x="21" y="-134.5" font-family="Helvetica,sans-Serif" font-size="10.00">+ setInfo()</text>
<text text-anchor="start" x="21" y="-123.5" font-family="Helvetica,sans-Serif" font-size="10.00">+ getType()</text>
</a>
</g>
</g>
<!-- Node2&#45;&gt;Node1 -->
<g id="edge1" class="edge">
<title>Node2&#45;&gt;Node1</title>
<path fill="none" stroke="#404040" d="M82.5,-116.17C82.5,-104.31 82.5,-92.06 82.5,-80.81"/>
<polygon fill="none" stroke="#404040" points="82.5,-80.6 78.5,-74.6 82.5,-68.6 86.5,-74.6 82.5,-80.6"/>
<text text-anchor="middle" x="137.5" y="-90" font-family="Helvetica,sans-Serif" font-size="10.00"> +custom_node_template</text>
</g>
<!-- Node3 -->
<g id="node3" class="node">
<title>Node3</title>
<g id="a_node3"><a xlink:href="struct_c_c_a_d___o_t_1_1_ot_node_info.html" target="_top" xlink:title=" ">
<polygon fill="none" stroke="black" points="24,-287.5 24,-344.5 141,-344.5 141,-287.5 24,-287.5"/>
<text text-anchor="middle" x="82.5" y="-332.5" font-family="Helvetica,sans-Serif" font-size="10.00">CCAD_OT::OtNodeInfo</text>
<polyline fill="none" stroke="black" points="24,-325.5 141,-325.5 "/>
<text text-anchor="start" x="32" y="-313.5" font-family="Helvetica,sans-Serif" font-size="10.00">+ type</text>
<polyline fill="none" stroke="black" points="24,-306.5 141,-306.5 "/>
<text text-anchor="start" x="32" y="-294.5" font-family="Helvetica,sans-Serif" font-size="10.00">+ getType()</text>
</a>
</g>
</g>
<!-- Node3&#45;&gt;Node2 -->
<g id="edge2" class="edge">
<title>Node3&#45;&gt;Node2</title>
<path fill="none" stroke="#404040" d="M82.5,-287.48C82.5,-277.01 82.5,-264.53 82.5,-251.82"/>
<polygon fill="none" stroke="#404040" points="82.5,-251.62 78.5,-245.62 82.5,-239.62 86.5,-245.62 82.5,-251.62"/>
<text text-anchor="middle" x="105.5" y="-261" font-family="Helvetica,sans-Serif" font-size="10.00"> +nodeInfo</text>
</g>
</g>
</svg>
