<?xml version="1.0" encoding="UTF-8" standalone="no"?>
<!DOCTYPE svg PUBLIC "-//W3C//DTD SVG 1.1//EN"
 "http://www.w3.org/Graphics/SVG/1.1/DTD/svg11.dtd">
<!-- Generated by graphviz version 2.49.3 (20211215.1918)
 -->
<!-- Title: /github/workspace/src/renderer/vulkan/swapchain.h Pages: 1 -->
<svg width="1509pt" height="776pt"
 viewBox="0.00 0.00 1509.00 776.00" xmlns="http://www.w3.org/2000/svg" xmlns:xlink="http://www.w3.org/1999/xlink">
<g id="graph0" class="graph" transform="scale(1 1) rotate(0) translate(4 772)">
<title>/github/workspace/src/renderer/vulkan/swapchain.h</title>
<!-- Node1 -->
<g id="node1" class="node">
<title>Node1</title>
<g id="a_node1"><a xlink:title=" ">
<polygon fill="#bfbfbf" stroke="black" points="813.5,-737.5 813.5,-767.5 956.5,-767.5 956.5,-737.5 813.5,-737.5"/>
<text text-anchor="start" x="821.5" y="-755.5" font-family="Helvetica,sans-Serif" font-size="10.00">/github/workspace/src</text>
<text text-anchor="middle" x="885" y="-744.5" font-family="Helvetica,sans-Serif" font-size="10.00">/renderer/vulkan/swapchain.h</text>
</a>
</g>
</g>
<!-- Node2 -->
<g id="node2" class="node">
<title>Node2</title>
<g id="a_node2"><a xlink:href="framebuffer_8h.html" target="_top" xlink:title=" ">
<polygon fill="none" stroke="black" points="673,-603.5 673,-633.5 819,-633.5 819,-603.5 673,-603.5"/>
<text text-anchor="start" x="681" y="-621.5" font-family="Helvetica,sans-Serif" font-size="10.00">/github/workspace/src</text>
<text text-anchor="middle" x="746" y="-610.5" font-family="Helvetica,sans-Serif" font-size="10.00">/renderer/vulkan/framebuffer.h</text>
</a>
</g>
</g>
<!-- Node1&#45;&gt;Node2 -->
<g id="edge1" class="edge">
<title>Node1&#45;&gt;Node2</title>
<path fill="none" stroke="midnightblue" d="M839.76,-732.64C824.44,-724.13 808.02,-713.24 795,-701 773.37,-680.65 754.76,-651.12 747.47,-633.76"/>
<polygon fill="midnightblue" stroke="midnightblue" points="838.15,-735.75 848.62,-737.36 841.44,-729.57 838.15,-735.75"/>
</g>
<!-- Node9 -->
<g id="node9" class="node">
<title>Node9</title>
<g id="a_node9"><a xlink:href="vulkan__voxel__rasterizer__2_8cpp.html" target="_top" xlink:title=" ">
<polygon fill="none" stroke="black" points="37,-0.5 37,-30.5 211,-30.5 211,-0.5 37,-0.5"/>
<text text-anchor="start" x="45" y="-18.5" font-family="Helvetica,sans-Serif" font-size="10.00">/github/workspace/src</text>
<text text-anchor="middle" x="124" y="-7.5" font-family="Helvetica,sans-Serif" font-size="10.00">/tests/vulkan_voxel_rasterizer_2.cpp</text>
</a>
</g>
</g>
<!-- Node1&#45;&gt;Node9 -->
<g id="edge62" class="edge">
<title>Node1&#45;&gt;Node9</title>
<path fill="none" stroke="midnightblue" d="M803.17,-747.83C583.95,-736.92 0,-700.26 0,-619.5 0,-619.5 0,-619.5 0,-148.5 0,-92.85 59.28,-51.05 95.86,-30.55"/>
<polygon fill="midnightblue" stroke="midnightblue" points="803.17,-751.33 813.33,-748.33 803.51,-744.34 803.17,-751.33"/>
</g>
<!-- Node10 -->
<g id="node10" class="node">
<title>Node10</title>
<g id="a_node10"><a xlink:href="vulkan__voxel__rasterizer__3_8cpp.html" target="_top" xlink:title=" ">
<polygon fill="none" stroke="black" points="507,-0.5 507,-30.5 681,-30.5 681,-0.5 507,-0.5"/>
<text text-anchor="start" x="515" y="-18.5" font-family="Helvetica,sans-Serif" font-size="10.00">/github/workspace/src</text>
<text text-anchor="middle" x="594" y="-7.5" font-family="Helvetica,sans-Serif" font-size="10.00">/tests/vulkan_voxel_rasterizer_3.cpp</text>
</a>
</g>
</g>
<!-- Node1&#45;&gt;Node10 -->
<g id="edge63" class="edge">
<title>Node1&#45;&gt;Node10</title>
<path fill="none" stroke="midnightblue" d="M966.65,-743.48C1092.38,-728.84 1319,-692.34 1319,-619.5 1319,-619.5 1319,-619.5 1319,-148.5 1319,-84.33 873.73,-39.67 681.09,-23.35"/>
<polygon fill="midnightblue" stroke="midnightblue" points="966.2,-740.01 956.67,-744.62 967,-746.96 966.2,-740.01"/>
</g>
<!-- Node32 -->
<g id="node32" class="node">
<title>Node32</title>
<g id="a_node32"><a xlink:href="vulkan__voxel__rasterizer_8cpp.html" target="_top" xlink:title=" ">
<polygon fill="none" stroke="black" points="888,-335.5 888,-365.5 1052,-365.5 1052,-335.5 888,-335.5"/>
<text text-anchor="start" x="896" y="-353.5" font-family="Helvetica,sans-Serif" font-size="10.00">/github/workspace/src</text>
<text text-anchor="middle" x="970" y="-342.5" font-family="Helvetica,sans-Serif" font-size="10.00">/tests/vulkan_voxel_rasterizer.cpp</text>
</a>
</g>
</g>
<!-- Node1&#45;&gt;Node32 -->
<g id="edge61" class="edge">
<title>Node1&#45;&gt;Node32</title>
<path fill="none" stroke="midnightblue" d="M966.8,-737.65C1066.97,-718.83 1227.69,-681.95 1263,-634 1349.83,-516.08 1104.04,-403.94 1007.28,-365.5"/>
<polygon fill="midnightblue" stroke="midnightblue" points="965.9,-734.26 956.71,-739.52 967.18,-741.14 965.9,-734.26"/>
</g>
<!-- Node35 -->
<g id="node35" class="node">
<title>Node35</title>
<g id="a_node35"><a xlink:href="graphicspipeline_8h.html" target="_top" xlink:title=" ">
<polygon fill="none" stroke="black" points="1086.5,-603.5 1086.5,-633.5 1253.5,-633.5 1253.5,-603.5 1086.5,-603.5"/>
<text text-anchor="start" x="1094.5" y="-621.5" font-family="Helvetica,sans-Serif" font-size="10.00">/github/workspace/src</text>
<text text-anchor="middle" x="1170" y="-610.5" font-family="Helvetica,sans-Serif" font-size="10.00">/renderer/vulkan/graphicspipeline.h</text>
</a>
</g>
</g>
<!-- Node1&#45;&gt;Node35 -->
<g id="edge48" class="edge">
<title>Node1&#45;&gt;Node35</title>
<path fill="none" stroke="midnightblue" d="M924.37,-733.26C981.9,-706.62 1087.73,-657.6 1139.65,-633.56"/>
<polygon fill="midnightblue" stroke="midnightblue" points="922.83,-730.12 915.23,-737.5 925.78,-736.47 922.83,-730.12"/>
</g>
<!-- Node37 -->
<g id="node37" class="node">
<title>Node37</title>
<g id="a_node37"><a xlink:href="renderpass_8h.html" target="_top" xlink:title=" ">
<polygon fill="none" stroke="black" points="812.5,-670.5 812.5,-700.5 957.5,-700.5 957.5,-670.5 812.5,-670.5"/>
<text text-anchor="start" x="820.5" y="-688.5" font-family="Helvetica,sans-Serif" font-size="10.00">/github/workspace/src</text>
<text text-anchor="middle" x="885" y="-677.5" font-family="Helvetica,sans-Serif" font-size="10.00">/renderer/vulkan/renderpass.h</text>
</a>
</g>
</g>
<!-- Node1&#45;&gt;Node37 -->
<g id="edge54" class="edge">
<title>Node1&#45;&gt;Node37</title>
<path fill="none" stroke="midnightblue" d="M885,-727.11C885,-718.15 885,-708.32 885,-700.58"/>
<polygon fill="midnightblue" stroke="midnightblue" points="881.5,-727.4 885,-737.4 888.5,-727.4 881.5,-727.4"/>
</g>
<!-- Node39 -->
<g id="node39" class="node">
<title>Node39</title>
<g id="a_node39"><a xlink:href="swapchain_8cpp.html" target="_top" xlink:title=" ">
<polygon fill="none" stroke="black" points="1347,-670.5 1347,-700.5 1501,-700.5 1501,-670.5 1347,-670.5"/>
<text text-anchor="start" x="1355" y="-688.5" font-family="Helvetica,sans-Serif" font-size="10.00">/github/workspace/src</text>
<text text-anchor="middle" x="1424" y="-677.5" font-family="Helvetica,sans-Serif" font-size="10.00">/renderer/vulkan/swapchain.cpp</text>
</a>
</g>
</g>
<!-- Node1&#45;&gt;Node39 -->
<g id="edge60" class="edge">
<title>Node1&#45;&gt;Node39</title>
<path fill="none" stroke="midnightblue" d="M966.64,-743.43C1056.54,-734.28 1205.3,-718.36 1333,-701 1337.44,-700.4 1341.99,-699.75 1346.59,-699.08"/>
<polygon fill="midnightblue" stroke="midnightblue" points="966.1,-739.97 956.51,-744.46 966.81,-746.93 966.1,-739.97"/>
</g>
<!-- Node2&#45;&gt;Node1 -->
<g id="edge46" class="edge">
<title>Node2&#45;&gt;Node1</title>
<path fill="none" stroke="midnightblue" d="M766.12,-642.23C778.35,-659.69 794.58,-683.67 813,-701 828.57,-715.65 849.02,-728.36 864.32,-737.36"/>
<polygon fill="midnightblue" stroke="midnightblue" points="768.75,-639.88 760.1,-633.76 763.04,-643.94 768.75,-639.88"/>
</g>
<!-- Node3 -->
<g id="node3" class="node">
<title>Node3</title>
<g id="a_node3"><a xlink:href="commandbuffer_8h.html" target="_top" xlink:title=" ">
<polygon fill="none" stroke="black" points="664,-536.5 664,-566.5 828,-566.5 828,-536.5 664,-536.5"/>
<text text-anchor="start" x="672" y="-554.5" font-family="Helvetica,sans-Serif" font-size="10.00">/github/workspace/src</text>
<text text-anchor="middle" x="746" y="-543.5" font-family="Helvetica,sans-Serif" font-size="10.00">/renderer/vulkan/commandbuffer.h</text>
</a>
</g>
</g>
<!-- Node2&#45;&gt;Node3 -->
<g id="edge2" class="edge">
<title>Node2&#45;&gt;Node3</title>
<path fill="none" stroke="midnightblue" d="M746,-593.11C746,-584.15 746,-574.32 746,-566.58"/>
<polygon fill="midnightblue" stroke="midnightblue" points="742.5,-593.4 746,-603.4 749.5,-593.4 742.5,-593.4"/>
</g>
<!-- Node2&#45;&gt;Node32 -->
<g id="edge47" class="edge">
<title>Node2&#45;&gt;Node32</title>
<path fill="none" stroke="midnightblue" d="M794.72,-598.76C809.97,-590.9 825.74,-580.41 837,-567 886.89,-507.58 846.52,-463.37 894,-402 906.02,-386.46 924.23,-374.13 939.81,-365.54"/>
<polygon fill="midnightblue" stroke="midnightblue" points="792.8,-595.81 785.33,-603.32 795.85,-602.1 792.8,-595.81"/>
</g>
<!-- Node34 -->
<g id="node34" class="node">
<title>Node34</title>
<g id="a_node34"><a xlink:href="framebuffer_8cpp.html" target="_top" xlink:title=" ">
<polygon fill="none" stroke="black" points="490,-536.5 490,-566.5 646,-566.5 646,-536.5 490,-536.5"/>
<text text-anchor="start" x="498" y="-554.5" font-family="Helvetica,sans-Serif" font-size="10.00">/github/workspace/src</text>
<text text-anchor="middle" x="568" y="-543.5" font-family="Helvetica,sans-Serif" font-size="10.00">/renderer/vulkan/framebuffer.cpp</text>
</a>
</g>
</g>
<!-- Node2&#45;&gt;Node34 -->
<g id="edge45" class="edge">
<title>Node2&#45;&gt;Node34</title>
<path fill="none" stroke="midnightblue" d="M697.95,-599.96C669.28,-589.48 633.36,-576.37 606.55,-566.58"/>
<polygon fill="midnightblue" stroke="midnightblue" points="696.78,-603.25 707.38,-603.4 699.18,-596.68 696.78,-603.25"/>
</g>
<!-- Node3&#45;&gt;Node1 -->
<g id="edge43" class="edge">
<title>Node3&#45;&gt;Node1</title>
<path fill="none" stroke="midnightblue" d="M698.05,-571.21C684.62,-578.93 671.62,-589.35 664,-603 657.28,-615.03 657.25,-621.99 664,-634 696.24,-691.4 767.72,-722.01 820.71,-737.44"/>
<polygon fill="midnightblue" stroke="midnightblue" points="699.69,-574.3 706.88,-566.52 696.41,-568.12 699.69,-574.3"/>
</g>
<!-- Node4 -->
<g id="node4" class="node">
<title>Node4</title>
<g id="a_node4"><a xlink:href="buffer_8h.html" target="_top" xlink:title=" ">
<polygon fill="none" stroke="black" points="680.5,-469.5 680.5,-499.5 801.5,-499.5 801.5,-469.5 680.5,-469.5"/>
<text text-anchor="start" x="688.5" y="-487.5" font-family="Helvetica,sans-Serif" font-size="10.00">/github/workspace/src</text>
<text text-anchor="middle" x="741" y="-476.5" font-family="Helvetica,sans-Serif" font-size="10.00">/renderer/vulkan/buffer.h</text>
</a>
</g>
</g>
<!-- Node3&#45;&gt;Node4 -->
<g id="edge3" class="edge">
<title>Node3&#45;&gt;Node4</title>
<path fill="none" stroke="midnightblue" d="M744.15,-526.4C743.45,-517.37 742.69,-507.41 742.08,-499.58"/>
<polygon fill="midnightblue" stroke="midnightblue" points="740.66,-526.69 744.92,-536.4 747.64,-526.16 740.66,-526.69"/>
</g>
<!-- Node3&#45;&gt;Node32 -->
<g id="edge44" class="edge">
<title>Node3&#45;&gt;Node32</title>
<path fill="none" stroke="midnightblue" d="M777.57,-530.7C789.16,-522.29 801.71,-511.71 811,-500 840.78,-462.44 821.88,-435.66 856,-402 873.1,-385.12 896.81,-373.39 918.17,-365.51"/>
<polygon fill="midnightblue" stroke="midnightblue" points="775.55,-527.83 769.35,-536.42 779.56,-533.57 775.55,-527.83"/>
</g>
<!-- Node33 -->
<g id="node33" class="node">
<title>Node33</title>
<g id="a_node33"><a xlink:href="commandbuffer_8cpp.html" target="_top" xlink:title=" ">
<polygon fill="none" stroke="black" points="488,-469.5 488,-499.5 662,-499.5 662,-469.5 488,-469.5"/>
<text text-anchor="start" x="496" y="-487.5" font-family="Helvetica,sans-Serif" font-size="10.00">/github/workspace/src</text>
<text text-anchor="middle" x="575" y="-476.5" font-family="Helvetica,sans-Serif" font-size="10.00">/renderer/vulkan/commandbuffer.cpp</text>
</a>
</g>
</g>
<!-- Node3&#45;&gt;Node33 -->
<g id="edge42" class="edge">
<title>Node3&#45;&gt;Node33</title>
<path fill="none" stroke="midnightblue" d="M699.48,-532.82C672,-522.37 637.67,-509.32 612.03,-499.58"/>
<polygon fill="midnightblue" stroke="midnightblue" points="698.3,-536.11 708.9,-536.4 700.79,-529.57 698.3,-536.11"/>
</g>
<!-- Node5 -->
<g id="node5" class="node">
<title>Node5</title>
<g id="a_node5"><a xlink:href="dynamicbuffer_8h.html" target="_top" xlink:title=" ">
<polygon fill="none" stroke="black" points="129.5,-402.5 129.5,-432.5 254.5,-432.5 254.5,-402.5 129.5,-402.5"/>
<text text-anchor="start" x="137.5" y="-420.5" font-family="Helvetica,sans-Serif" font-size="10.00">/github/workspace/src</text>
<text text-anchor="middle" x="192" y="-409.5" font-family="Helvetica,sans-Serif" font-size="10.00">/renderer/dynamicbuffer.h</text>
</a>
</g>
</g>
<!-- Node4&#45;&gt;Node5 -->
<g id="edge4" class="edge">
<title>Node4&#45;&gt;Node5</title>
<path fill="none" stroke="midnightblue" d="M670.26,-469.01C494.44,-443.51 446.94,-455.8 275,-433 268.47,-432.13 261.68,-431.13 254.91,-430.05"/>
<polygon fill="midnightblue" stroke="midnightblue" points="669.97,-472.51 680.37,-470.5 670.98,-465.58 669.97,-472.51"/>
</g>
<!-- Node11 -->
<g id="node11" class="node">
<title>Node11</title>
<g id="a_node11"><a xlink:href="buffer_8cpp.html" target="_top" xlink:title=" ">
<polygon fill="none" stroke="black" points="672.5,-402.5 672.5,-432.5 803.5,-432.5 803.5,-402.5 672.5,-402.5"/>
<text text-anchor="start" x="680.5" y="-420.5" font-family="Helvetica,sans-Serif" font-size="10.00">/github/workspace/src</text>
<text text-anchor="middle" x="738" y="-409.5" font-family="Helvetica,sans-Serif" font-size="10.00">/renderer/vulkan/buffer.cpp</text>
</a>
</g>
</g>
<!-- Node4&#45;&gt;Node11 -->
<g id="edge10" class="edge">
<title>Node4&#45;&gt;Node11</title>
<path fill="none" stroke="midnightblue" d="M739.89,-459.4C739.47,-450.37 739.01,-440.41 738.65,-432.58"/>
<polygon fill="midnightblue" stroke="midnightblue" points="736.39,-459.57 740.35,-469.4 743.38,-459.25 736.39,-459.57"/>
</g>
<!-- Node12 -->
<g id="node12" class="node">
<title>Node12</title>
<g id="a_node12"><a xlink:href="bufferview_8h.html" target="_top" xlink:title=" ">
<polygon fill="none" stroke="black" points="284.5,-402.5 284.5,-432.5 425.5,-432.5 425.5,-402.5 284.5,-402.5"/>
<text text-anchor="start" x="292.5" y="-420.5" font-family="Helvetica,sans-Serif" font-size="10.00">/github/workspace/src</text>
<text text-anchor="middle" x="355" y="-409.5" font-family="Helvetica,sans-Serif" font-size="10.00">/renderer/vulkan/bufferview.h</text>
</a>
</g>
</g>
<!-- Node4&#45;&gt;Node12 -->
<g id="edge11" class="edge">
<title>Node4&#45;&gt;Node12</title>
<path fill="none" stroke="midnightblue" d="M670.47,-468.95C580.2,-452.54 487.65,-438.14 425.75,-428.86"/>
<polygon fill="midnightblue" stroke="midnightblue" points="669.86,-472.4 680.33,-470.75 671.12,-465.51 669.86,-472.4"/>
</g>
<!-- Node14 -->
<g id="node14" class="node">
<title>Node14</title>
<g id="a_node14"><a xlink:href="uniformbuffer_8h.html" target="_top" xlink:title=" ">
<polygon fill="none" stroke="black" points="501.5,-402.5 501.5,-432.5 654.5,-432.5 654.5,-402.5 501.5,-402.5"/>
<text text-anchor="start" x="509.5" y="-420.5" font-family="Helvetica,sans-Serif" font-size="10.00">/github/workspace/src</text>
<text text-anchor="middle" x="578" y="-409.5" font-family="Helvetica,sans-Serif" font-size="10.00">/renderer/vulkan/uniformbuffer.h</text>
</a>
</g>
</g>
<!-- Node4&#45;&gt;Node14 -->
<g id="edge13" class="edge">
<title>Node4&#45;&gt;Node14</title>
<path fill="none" stroke="midnightblue" d="M696.32,-465.68C670.17,-455.26 637.63,-442.28 613.3,-432.58"/>
<polygon fill="midnightblue" stroke="midnightblue" points="695.05,-468.94 705.63,-469.4 697.64,-462.44 695.05,-468.94"/>
</g>
<!-- Node6 -->
<g id="node6" class="node">
<title>Node6</title>
<g id="a_node6"><a xlink:href="dynamicbuffer_8cpp.html" target="_top" xlink:title=" ">
<polygon fill="none" stroke="black" points="28,-335.5 28,-365.5 164,-365.5 164,-335.5 28,-335.5"/>
<text text-anchor="start" x="36" y="-353.5" font-family="Helvetica,sans-Serif" font-size="10.00">/github/workspace/src</text>
<text text-anchor="middle" x="96" y="-342.5" font-family="Helvetica,sans-Serif" font-size="10.00">/renderer/dynamicbuffer.cpp</text>
</a>
</g>
</g>
<!-- Node5&#45;&gt;Node6 -->
<g id="edge5" class="edge">
<title>Node5&#45;&gt;Node6</title>
<path fill="none" stroke="midnightblue" d="M162.81,-396.73C147.95,-386.68 130.24,-374.68 116.79,-365.58"/>
<polygon fill="midnightblue" stroke="midnightblue" points="160.93,-399.69 171.17,-402.4 164.85,-393.89 160.93,-399.69"/>
</g>
<!-- Node7 -->
<g id="node7" class="node">
<title>Node7</title>
<g id="a_node7"><a xlink:href="scene_8h.html" target="_top" xlink:title=" ">
<polygon fill="none" stroke="black" points="229.5,-67.5 229.5,-97.5 342.5,-97.5 342.5,-67.5 229.5,-67.5"/>
<text text-anchor="start" x="237.5" y="-85.5" font-family="Helvetica,sans-Serif" font-size="10.00">/github/workspace/src</text>
<text text-anchor="middle" x="286" y="-74.5" font-family="Helvetica,sans-Serif" font-size="10.00">/renderer/scene.h</text>
</a>
</g>
</g>
<!-- Node5&#45;&gt;Node7 -->
<g id="edge6" class="edge">
<title>Node5&#45;&gt;Node7</title>
<path fill="none" stroke="midnightblue" d="M192,-391.99C192,-365.49 192,-322 192,-284.5 192,-284.5 192,-284.5 192,-215.5 192,-164.58 238.99,-119.68 266.52,-97.74"/>
<polygon fill="midnightblue" stroke="midnightblue" points="188.5,-392.24 192,-402.24 195.5,-392.24 188.5,-392.24"/>
</g>
<!-- Node8 -->
<g id="node8" class="node">
<title>Node8</title>
<g id="a_node8"><a xlink:href="scene_8cpp.html" target="_top" xlink:title=" ">
<polygon fill="none" stroke="black" points="229.5,-0.5 229.5,-30.5 342.5,-30.5 342.5,-0.5 229.5,-0.5"/>
<text text-anchor="start" x="237.5" y="-18.5" font-family="Helvetica,sans-Serif" font-size="10.00">/github/workspace/src</text>
<text text-anchor="middle" x="286" y="-7.5" font-family="Helvetica,sans-Serif" font-size="10.00">/renderer/scene.cpp</text>
</a>
</g>
</g>
<!-- Node7&#45;&gt;Node8 -->
<g id="edge7" class="edge">
<title>Node7&#45;&gt;Node8</title>
<path fill="none" stroke="midnightblue" d="M286,-57.11C286,-48.15 286,-38.32 286,-30.58"/>
<polygon fill="midnightblue" stroke="midnightblue" points="282.5,-57.4 286,-67.4 289.5,-57.4 282.5,-57.4"/>
</g>
<!-- Node7&#45;&gt;Node9 -->
<g id="edge8" class="edge">
<title>Node7&#45;&gt;Node9</title>
<path fill="none" stroke="midnightblue" d="M241.25,-63.54C215.33,-53.14 183.16,-40.24 159.08,-30.58"/>
<polygon fill="midnightblue" stroke="midnightblue" points="240.26,-66.92 250.85,-67.4 242.87,-60.42 240.26,-66.92"/>
</g>
<!-- Node7&#45;&gt;Node10 -->
<g id="edge9" class="edge">
<title>Node7&#45;&gt;Node10</title>
<path fill="none" stroke="midnightblue" d="M352.93,-67.38C404.67,-56.45 475.96,-41.41 527.58,-30.52"/>
<polygon fill="midnightblue" stroke="midnightblue" points="351.91,-64.01 342.85,-69.5 353.36,-70.86 351.91,-64.01"/>
</g>
<!-- Node13 -->
<g id="node13" class="node">
<title>Node13</title>
<g id="a_node13"><a xlink:href="bufferview_8cpp.html" target="_top" xlink:title=" ">
<polygon fill="none" stroke="black" points="220,-335.5 220,-365.5 372,-365.5 372,-335.5 220,-335.5"/>
<text text-anchor="start" x="228" y="-353.5" font-family="Helvetica,sans-Serif" font-size="10.00">/github/workspace/src</text>
<text text-anchor="middle" x="296" y="-342.5" font-family="Helvetica,sans-Serif" font-size="10.00">/renderer/vulkan/bufferview.cpp</text>
</a>
</g>
</g>
<!-- Node12&#45;&gt;Node13 -->
<g id="edge12" class="edge">
<title>Node12&#45;&gt;Node13</title>
<path fill="none" stroke="midnightblue" d="M335.25,-394.74C326.52,-385.12 316.5,-374.09 308.78,-365.58"/>
<polygon fill="midnightblue" stroke="midnightblue" points="332.89,-397.34 342.2,-402.4 338.07,-392.64 332.89,-397.34"/>
</g>
<!-- Node15 -->
<g id="node15" class="node">
<title>Node15</title>
<g id="a_node15"><a xlink:href="materiallibrary_8h.html" target="_top" xlink:title=" ">
<polygon fill="none" stroke="black" points="744.5,-335.5 744.5,-365.5 869.5,-365.5 869.5,-335.5 744.5,-335.5"/>
<text text-anchor="start" x="752.5" y="-353.5" font-family="Helvetica,sans-Serif" font-size="10.00">/github/workspace/src</text>
<text text-anchor="middle" x="807" y="-342.5" font-family="Helvetica,sans-Serif" font-size="10.00">/renderer/materiallibrary.h</text>
</a>
</g>
</g>
<!-- Node14&#45;&gt;Node15 -->
<g id="edge14" class="edge">
<title>Node14&#45;&gt;Node15</title>
<path fill="none" stroke="midnightblue" d="M637.14,-399.71C674.4,-389.14 721.97,-375.63 757.29,-365.61"/>
<polygon fill="midnightblue" stroke="midnightblue" points="636.07,-396.38 627.41,-402.48 637.98,-403.11 636.07,-396.38"/>
</g>
<!-- Node27 -->
<g id="node27" class="node">
<title>Node27</title>
<g id="a_node27"><a xlink:href="descriptorset_8h.html" target="_top" xlink:title=" ">
<polygon fill="none" stroke="black" points="390.5,-335.5 390.5,-365.5 543.5,-365.5 543.5,-335.5 390.5,-335.5"/>
<text text-anchor="start" x="398.5" y="-353.5" font-family="Helvetica,sans-Serif" font-size="10.00">/github/workspace/src</text>
<text text-anchor="middle" x="467" y="-342.5" font-family="Helvetica,sans-Serif" font-size="10.00">/renderer/vulkan/descriptorset.h</text>
</a>
</g>
</g>
<!-- Node14&#45;&gt;Node27 -->
<g id="edge34" class="edge">
<title>Node14&#45;&gt;Node27</title>
<path fill="none" stroke="midnightblue" d="M545.2,-397.3C527.84,-387.12 506.88,-374.85 491.04,-365.58"/>
<polygon fill="midnightblue" stroke="midnightblue" points="543.52,-400.36 553.91,-402.4 547.05,-394.32 543.52,-400.36"/>
</g>
<!-- Node31 -->
<g id="node31" class="node">
<title>Node31</title>
<g id="a_node31"><a xlink:href="uniformbuffer_8cpp.html" target="_top" xlink:title=" ">
<polygon fill="none" stroke="black" points="562,-335.5 562,-365.5 726,-365.5 726,-335.5 562,-335.5"/>
<text text-anchor="start" x="570" y="-353.5" font-family="Helvetica,sans-Serif" font-size="10.00">/github/workspace/src</text>
<text text-anchor="middle" x="644" y="-342.5" font-family="Helvetica,sans-Serif" font-size="10.00">/renderer/vulkan/uniformbuffer.cpp</text>
</a>
</g>
</g>
<!-- Node14&#45;&gt;Node31 -->
<g id="edge40" class="edge">
<title>Node14&#45;&gt;Node31</title>
<path fill="none" stroke="midnightblue" d="M599.51,-395.31C609.41,-385.56 620.89,-374.26 629.71,-365.58"/>
<polygon fill="midnightblue" stroke="midnightblue" points="596.99,-392.89 592.32,-402.4 601.9,-397.87 596.99,-392.89"/>
</g>
<!-- Node14&#45;&gt;Node32 -->
<g id="edge41" class="edge">
<title>Node14&#45;&gt;Node32</title>
<path fill="none" stroke="midnightblue" d="M664.85,-401.86C746.53,-388.25 828.63,-374.71 887.84,-364.98"/>
<polygon fill="midnightblue" stroke="midnightblue" points="664.18,-398.42 654.89,-403.52 665.33,-405.33 664.18,-398.42"/>
</g>
<!-- Node16 -->
<g id="node16" class="node">
<title>Node16</title>
<g id="a_node16"><a xlink:href="material_8h.html" target="_top" xlink:title=" ">
<polygon fill="none" stroke="black" points="835.5,-268.5 835.5,-298.5 948.5,-298.5 948.5,-268.5 835.5,-268.5"/>
<text text-anchor="start" x="843.5" y="-286.5" font-family="Helvetica,sans-Serif" font-size="10.00">/github/workspace/src</text>
<text text-anchor="middle" x="892" y="-275.5" font-family="Helvetica,sans-Serif" font-size="10.00">/renderer/material.h</text>
</a>
</g>
</g>
<!-- Node15&#45;&gt;Node16 -->
<g id="edge15" class="edge">
<title>Node15&#45;&gt;Node16</title>
<path fill="none" stroke="midnightblue" d="M827.63,-328.88C839.82,-319.01 855.18,-307.43 867.92,-298.58"/>
<polygon fill="midnightblue" stroke="midnightblue" points="825.23,-326.32 819.77,-335.4 829.7,-331.71 825.23,-326.32"/>
</g>
<!-- Node26 -->
<g id="node26" class="node">
<title>Node26</title>
<g id="a_node26"><a xlink:href="materiallibrary_8cpp.html" target="_top" xlink:title=" ">
<polygon fill="none" stroke="black" points="643,-268.5 643,-298.5 779,-298.5 779,-268.5 643,-268.5"/>
<text text-anchor="start" x="651" y="-286.5" font-family="Helvetica,sans-Serif" font-size="10.00">/github/workspace/src</text>
<text text-anchor="middle" x="711" y="-275.5" font-family="Helvetica,sans-Serif" font-size="10.00">/renderer/materiallibrary.cpp</text>
</a>
</g>
</g>
<!-- Node15&#45;&gt;Node26 -->
<g id="edge33" class="edge">
<title>Node15&#45;&gt;Node26</title>
<path fill="none" stroke="midnightblue" d="M777.81,-329.73C762.95,-319.68 745.24,-307.68 731.79,-298.58"/>
<polygon fill="midnightblue" stroke="midnightblue" points="775.93,-332.69 786.17,-335.4 779.85,-326.89 775.93,-332.69"/>
</g>
<!-- Node16&#45;&gt;Node15 -->
<g id="edge21" class="edge">
<title>Node16&#45;&gt;Node15</title>
<path fill="none" stroke="midnightblue" d="M871.41,-305.09C859.22,-314.96 843.87,-326.54 831.12,-335.4"/>
<polygon fill="midnightblue" stroke="midnightblue" points="873.8,-307.65 879.27,-298.58 869.33,-302.26 873.8,-307.65"/>
</g>
<!-- Node17 -->
<g id="node17" class="node">
<title>Node17</title>
<g id="a_node17"><a xlink:href="mastermaterial_8h.html" target="_top" xlink:title=" ">
<polygon fill="none" stroke="black" points="832,-67.5 832,-97.5 962,-97.5 962,-67.5 832,-67.5"/>
<text text-anchor="start" x="840" y="-85.5" font-family="Helvetica,sans-Serif" font-size="10.00">/github/workspace/src</text>
<text text-anchor="middle" x="897" y="-74.5" font-family="Helvetica,sans-Serif" font-size="10.00">/renderer/mastermaterial.h</text>
</a>
</g>
</g>
<!-- Node16&#45;&gt;Node17 -->
<g id="edge16" class="edge">
<title>Node16&#45;&gt;Node17</title>
<path fill="none" stroke="midnightblue" d="M921.31,-262.6C931.99,-254.68 942.85,-244.45 949,-232 972.7,-184.02 926.54,-124.48 905.77,-97.71"/>
<polygon fill="midnightblue" stroke="midnightblue" points="919.1,-259.87 912.88,-268.45 923.1,-265.62 919.1,-259.87"/>
</g>
<!-- Node19 -->
<g id="node19" class="node">
<title>Node19</title>
<g id="a_node19"><a xlink:href="material_8cpp.html" target="_top" xlink:title=" ">
<polygon fill="none" stroke="black" points="835.5,-201.5 835.5,-231.5 948.5,-231.5 948.5,-201.5 835.5,-201.5"/>
<text text-anchor="start" x="843.5" y="-219.5" font-family="Helvetica,sans-Serif" font-size="10.00">/github/workspace/src</text>
<text text-anchor="middle" x="892" y="-208.5" font-family="Helvetica,sans-Serif" font-size="10.00">/renderer/material.cpp</text>
</a>
</g>
</g>
<!-- Node16&#45;&gt;Node19 -->
<g id="edge20" class="edge">
<title>Node16&#45;&gt;Node19</title>
<path fill="none" stroke="midnightblue" d="M892,-258.11C892,-249.15 892,-239.32 892,-231.58"/>
<polygon fill="midnightblue" stroke="midnightblue" points="888.5,-258.4 892,-268.4 895.5,-258.4 888.5,-258.4"/>
</g>
<!-- Node20 -->
<g id="node20" class="node">
<title>Node20</title>
<g id="a_node20"><a xlink:href="mesh_8h.html" target="_top" xlink:title=" ">
<polygon fill="none" stroke="black" points="627.5,-201.5 627.5,-231.5 740.5,-231.5 740.5,-201.5 627.5,-201.5"/>
<text text-anchor="start" x="635.5" y="-219.5" font-family="Helvetica,sans-Serif" font-size="10.00">/github/workspace/src</text>
<text text-anchor="middle" x="684" y="-208.5" font-family="Helvetica,sans-Serif" font-size="10.00">/renderer/mesh.h</text>
</a>
</g>
</g>
<!-- Node16&#45;&gt;Node20 -->
<g id="edge22" class="edge">
<title>Node16&#45;&gt;Node20</title>
<path fill="none" stroke="midnightblue" d="M837.42,-265.44C803.7,-254.91 760.96,-241.55 729.15,-231.61"/>
<polygon fill="midnightblue" stroke="midnightblue" points="836.53,-268.83 847.12,-268.48 838.62,-262.15 836.53,-268.83"/>
</g>
<!-- Node17&#45;&gt;Node15 -->
<g id="edge19" class="edge">
<title>Node17&#45;&gt;Node15</title>
<path fill="none" stroke="midnightblue" d="M879.79,-106.01C863.4,-128.7 839.43,-165.37 827,-201 810.55,-248.16 807.53,-308.11 807.04,-335.14"/>
<polygon fill="midnightblue" stroke="midnightblue" points="882.77,-107.88 885.88,-97.75 877.13,-103.73 882.77,-107.88"/>
</g>
<!-- Node17&#45;&gt;Node16 -->
<g id="edge18" class="edge">
<title>Node17&#45;&gt;Node16</title>
<path fill="none" stroke="midnightblue" d="M923.47,-104.93C951.64,-134.17 988.76,-187.96 967,-232 959.2,-247.78 943.85,-259.99 928.94,-268.45"/>
<polygon fill="midnightblue" stroke="midnightblue" points="925.74,-102.26 916.18,-97.71 920.82,-107.23 925.74,-102.26"/>
</g>
<!-- Node18 -->
<g id="node18" class="node">
<title>Node18</title>
<g id="a_node18"><a xlink:href="mastermaterial_8cpp.html" target="_top" xlink:title=" ">
<polygon fill="none" stroke="black" points="827,-0.5 827,-30.5 967,-30.5 967,-0.5 827,-0.5"/>
<text text-anchor="start" x="835" y="-18.5" font-family="Helvetica,sans-Serif" font-size="10.00">/github/workspace/src</text>
<text text-anchor="middle" x="897" y="-7.5" font-family="Helvetica,sans-Serif" font-size="10.00">/renderer/mastermaterial.cpp</text>
</a>
</g>
</g>
<!-- Node17&#45;&gt;Node18 -->
<g id="edge17" class="edge">
<title>Node17&#45;&gt;Node18</title>
<path fill="none" stroke="midnightblue" d="M897,-57.11C897,-48.15 897,-38.32 897,-30.58"/>
<polygon fill="midnightblue" stroke="midnightblue" points="893.5,-57.4 897,-67.4 900.5,-57.4 893.5,-57.4"/>
</g>
<!-- Node20&#45;&gt;Node17 -->
<g id="edge23" class="edge">
<title>Node20&#45;&gt;Node17</title>
<path fill="none" stroke="midnightblue" d="M710.58,-195.21C740.03,-172.8 784.51,-139.17 793,-134 815.8,-120.11 842.98,-107.03 863.84,-97.65"/>
<polygon fill="midnightblue" stroke="midnightblue" points="708.18,-192.64 702.35,-201.48 712.42,-198.21 708.18,-192.64"/>
</g>
<!-- Node21 -->
<g id="node21" class="node">
<title>Node21</title>
<g id="a_node21"><a xlink:href="mesh_8cpp.html" target="_top" xlink:title=" ">
<polygon fill="none" stroke="black" points="627.5,-134.5 627.5,-164.5 740.5,-164.5 740.5,-134.5 627.5,-134.5"/>
<text text-anchor="start" x="635.5" y="-152.5" font-family="Helvetica,sans-Serif" font-size="10.00">/github/workspace/src</text>
<text text-anchor="middle" x="684" y="-141.5" font-family="Helvetica,sans-Serif" font-size="10.00">/renderer/mesh.cpp</text>
</a>
</g>
</g>
<!-- Node20&#45;&gt;Node21 -->
<g id="edge24" class="edge">
<title>Node20&#45;&gt;Node21</title>
<path fill="none" stroke="midnightblue" d="M684,-191.11C684,-182.15 684,-172.32 684,-164.58"/>
<polygon fill="midnightblue" stroke="midnightblue" points="680.5,-191.4 684,-201.4 687.5,-191.4 680.5,-191.4"/>
</g>
<!-- Node22 -->
<g id="node22" class="node">
<title>Node22</title>
<g id="a_node22"><a xlink:href="modelloader_8h.html" target="_top" xlink:title=" ">
<polygon fill="none" stroke="black" points="366,-67.5 366,-97.5 484,-97.5 484,-67.5 366,-67.5"/>
<text text-anchor="start" x="374" y="-85.5" font-family="Helvetica,sans-Serif" font-size="10.00">/github/workspace/src</text>
<text text-anchor="middle" x="425" y="-74.5" font-family="Helvetica,sans-Serif" font-size="10.00">/renderer/modelloader.h</text>
</a>
</g>
</g>
<!-- Node20&#45;&gt;Node22 -->
<g id="edge25" class="edge">
<title>Node20&#45;&gt;Node22</title>
<path fill="none" stroke="midnightblue" d="M616.85,-213.07C571.99,-208.41 513.79,-196.16 472,-165 449.09,-147.91 435.54,-116.1 429.26,-97.68"/>
<polygon fill="midnightblue" stroke="midnightblue" points="616.79,-216.58 627.07,-214.03 617.44,-209.62 616.79,-216.58"/>
</g>
<!-- Node24 -->
<g id="node24" class="node">
<title>Node24</title>
<g id="a_node24"><a xlink:href="objectinstance_8h.html" target="_top" xlink:title=" ">
<polygon fill="none" stroke="black" points="481,-134.5 481,-164.5 609,-164.5 609,-134.5 481,-134.5"/>
<text text-anchor="start" x="489" y="-152.5" font-family="Helvetica,sans-Serif" font-size="10.00">/github/workspace/src</text>
<text text-anchor="middle" x="545" y="-141.5" font-family="Helvetica,sans-Serif" font-size="10.00">/renderer/objectinstance.h</text>
</a>
</g>
</g>
<!-- Node20&#45;&gt;Node24 -->
<g id="edge29" class="edge">
<title>Node20&#45;&gt;Node24</title>
<path fill="none" stroke="midnightblue" d="M644.72,-197.13C622.63,-186.8 595.49,-174.11 575.1,-164.58"/>
<polygon fill="midnightblue" stroke="midnightblue" points="643.3,-200.33 653.84,-201.4 646.26,-193.99 643.3,-200.33"/>
</g>
<!-- Node22&#45;&gt;Node9 -->
<g id="edge27" class="edge">
<title>Node22&#45;&gt;Node9</title>
<path fill="none" stroke="midnightblue" d="M356.09,-66.62C305.86,-55.77 238.26,-41.17 188.97,-30.53"/>
<polygon fill="midnightblue" stroke="midnightblue" points="355.38,-70.05 365.89,-68.74 356.86,-63.2 355.38,-70.05"/>
</g>
<!-- Node22&#45;&gt;Node10 -->
<g id="edge28" class="edge">
<title>Node22&#45;&gt;Node10</title>
<path fill="none" stroke="midnightblue" d="M471.33,-63.68C498.43,-53.26 532.17,-40.28 557.4,-30.58"/>
<polygon fill="midnightblue" stroke="midnightblue" points="469.75,-60.54 461.67,-67.4 472.26,-67.07 469.75,-60.54"/>
</g>
<!-- Node23 -->
<g id="node23" class="node">
<title>Node23</title>
<g id="a_node23"><a xlink:href="modelloader_8cpp.html" target="_top" xlink:title=" ">
<polygon fill="none" stroke="black" points="361,-0.5 361,-30.5 489,-30.5 489,-0.5 361,-0.5"/>
<text text-anchor="start" x="369" y="-18.5" font-family="Helvetica,sans-Serif" font-size="10.00">/github/workspace/src</text>
<text text-anchor="middle" x="425" y="-7.5" font-family="Helvetica,sans-Serif" font-size="10.00">/renderer/modelloader.cpp</text>
</a>
</g>
</g>
<!-- Node22&#45;&gt;Node23 -->
<g id="edge26" class="edge">
<title>Node22&#45;&gt;Node23</title>
<path fill="none" stroke="midnightblue" d="M425,-57.11C425,-48.15 425,-38.32 425,-30.58"/>
<polygon fill="midnightblue" stroke="midnightblue" points="421.5,-57.4 425,-67.4 428.5,-57.4 421.5,-57.4"/>
</g>
<!-- Node24&#45;&gt;Node7 -->
<g id="edge32" class="edge">
<title>Node24&#45;&gt;Node7</title>
<path fill="none" stroke="midnightblue" d="M479.19,-131.98C436.89,-121.37 382.51,-107.72 342.23,-97.61"/>
<polygon fill="midnightblue" stroke="midnightblue" points="478.57,-135.44 489.12,-134.48 480.27,-128.65 478.57,-135.44"/>
</g>
<!-- Node24&#45;&gt;Node17 -->
<g id="edge30" class="edge">
<title>Node24&#45;&gt;Node17</title>
<path fill="none" stroke="midnightblue" d="M619.19,-133.79C698,-118.89 777.57,-104.6 831.83,-94.97"/>
<polygon fill="midnightblue" stroke="midnightblue" points="618.26,-130.41 609.08,-135.71 619.56,-137.28 618.26,-130.41"/>
</g>
<!-- Node25 -->
<g id="node25" class="node">
<title>Node25</title>
<g id="a_node25"><a xlink:href="objectinstance_8cpp.html" target="_top" xlink:title=" ">
<polygon fill="none" stroke="black" points="502.5,-67.5 502.5,-97.5 641.5,-97.5 641.5,-67.5 502.5,-67.5"/>
<text text-anchor="start" x="510.5" y="-85.5" font-family="Helvetica,sans-Serif" font-size="10.00">/github/workspace/src</text>
<text text-anchor="middle" x="572" y="-74.5" font-family="Helvetica,sans-Serif" font-size="10.00">/renderer/objectinstance.cpp</text>
</a>
</g>
</g>
<!-- Node24&#45;&gt;Node25 -->
<g id="edge31" class="edge">
<title>Node24&#45;&gt;Node25</title>
<path fill="none" stroke="midnightblue" d="M554.77,-124.99C558.58,-115.8 562.83,-105.58 566.15,-97.58"/>
<polygon fill="midnightblue" stroke="midnightblue" points="551.46,-123.82 550.86,-134.4 557.93,-126.5 551.46,-123.82"/>
</g>
<!-- Node27&#45;&gt;Node3 -->
<g id="edge38" class="edge">
<title>Node27&#45;&gt;Node3</title>
<path fill="none" stroke="midnightblue" d="M460.88,-375.97C454.31,-408.59 448.55,-466.13 479,-500 485.3,-507.01 587.71,-524.93 663.82,-537.42"/>
<polygon fill="midnightblue" stroke="midnightblue" points="464.36,-376.45 463.08,-365.94 457.52,-374.95 464.36,-376.45"/>
</g>
<!-- Node28 -->
<g id="node28" class="node">
<title>Node28</title>
<g id="a_node28"><a xlink:href="descriptorpoolmanager_8h.html" target="_top" xlink:title=" ">
<polygon fill="none" stroke="black" points="250,-268.5 250,-298.5 414,-298.5 414,-268.5 250,-268.5"/>
<text text-anchor="start" x="258" y="-286.5" font-family="Helvetica,sans-Serif" font-size="10.00">/github/workspace/src</text>
<text text-anchor="middle" x="332" y="-275.5" font-family="Helvetica,sans-Serif" font-size="10.00">/renderer/descriptorpoolmanager.h</text>
</a>
</g>
</g>
<!-- Node27&#45;&gt;Node28 -->
<g id="edge35" class="edge">
<title>Node27&#45;&gt;Node28</title>
<path fill="none" stroke="midnightblue" d="M428.56,-330.99C407.16,-320.69 380.95,-308.07 361.24,-298.58"/>
<polygon fill="midnightblue" stroke="midnightblue" points="427.18,-334.21 437.71,-335.4 430.22,-327.9 427.18,-334.21"/>
</g>
<!-- Node30 -->
<g id="node30" class="node">
<title>Node30</title>
<g id="a_node30"><a xlink:href="descriptorset_8cpp.html" target="_top" xlink:title=" ">
<polygon fill="none" stroke="black" points="432,-268.5 432,-298.5 596,-298.5 596,-268.5 432,-268.5"/>
<text text-anchor="start" x="440" y="-286.5" font-family="Helvetica,sans-Serif" font-size="10.00">/github/workspace/src</text>
<text text-anchor="middle" x="514" y="-275.5" font-family="Helvetica,sans-Serif" font-size="10.00">/renderer/vulkan/descriptorset.cpp</text>
</a>
</g>
</g>
<!-- Node27&#45;&gt;Node30 -->
<g id="edge39" class="edge">
<title>Node27&#45;&gt;Node30</title>
<path fill="none" stroke="midnightblue" d="M483.16,-327.16C490.01,-317.68 497.79,-306.92 503.82,-298.58"/>
<polygon fill="midnightblue" stroke="midnightblue" points="480.22,-325.24 477.2,-335.4 485.89,-329.34 480.22,-325.24"/>
</g>
<!-- Node28&#45;&gt;Node7 -->
<g id="edge37" class="edge">
<title>Node28&#45;&gt;Node7</title>
<path fill="none" stroke="midnightblue" d="M317.34,-259.35C312.69,-251.02 307.99,-241.36 305,-232 289.82,-184.46 286.72,-124.7 286.12,-97.79"/>
<polygon fill="midnightblue" stroke="midnightblue" points="314.4,-261.25 322.48,-268.1 320.44,-257.71 314.4,-261.25"/>
</g>
<!-- Node29 -->
<g id="node29" class="node">
<title>Node29</title>
<g id="a_node29"><a xlink:href="descriptorpoolmanager_8cpp.html" target="_top" xlink:title=" ">
<polygon fill="none" stroke="black" points="314,-201.5 314,-231.5 488,-231.5 488,-201.5 314,-201.5"/>
<text text-anchor="start" x="322" y="-219.5" font-family="Helvetica,sans-Serif" font-size="10.00">/github/workspace/src</text>
<text text-anchor="middle" x="401" y="-208.5" font-family="Helvetica,sans-Serif" font-size="10.00">/renderer/descriptorpoolmanager.cpp</text>
</a>
</g>
</g>
<!-- Node28&#45;&gt;Node29 -->
<g id="edge36" class="edge">
<title>Node28&#45;&gt;Node29</title>
<path fill="none" stroke="midnightblue" d="M354.49,-261.31C364.84,-251.56 376.84,-240.26 386.06,-231.58"/>
<polygon fill="midnightblue" stroke="midnightblue" points="351.85,-258.99 346.97,-268.4 356.65,-264.09 351.85,-258.99"/>
</g>
<!-- Node35&#45;&gt;Node3 -->
<g id="edge51" class="edge">
<title>Node35&#45;&gt;Node3</title>
<path fill="none" stroke="midnightblue" d="M1076.13,-602.71C985.87,-588.75 892.99,-574.66 828.22,-564.88"/>
<polygon fill="midnightblue" stroke="midnightblue" points="1075.85,-606.21 1086.27,-604.28 1076.92,-599.29 1075.85,-606.21"/>
</g>
<!-- Node35&#45;&gt;Node16 -->
<g id="edge50" class="edge">
<title>Node35&#45;&gt;Node16</title>
<path fill="none" stroke="midnightblue" d="M1172.37,-593.02C1174.73,-566.54 1178,-523.07 1178,-485.5 1178,-485.5 1178,-485.5 1178,-416.5 1178,-316.42 1031.85,-291.97 948.5,-286.17"/>
<polygon fill="midnightblue" stroke="midnightblue" points="1168.86,-592.98 1171.43,-603.26 1175.83,-593.62 1168.86,-592.98"/>
</g>
<!-- Node35&#45;&gt;Node17 -->
<g id="edge49" class="edge">
<title>Node35&#45;&gt;Node17</title>
<path fill="none" stroke="midnightblue" d="M1186.41,-595.19C1210.86,-559.69 1254,-487.3 1254,-418.5 1254,-418.5 1254,-418.5 1254,-215.5 1254,-153.96 1065.04,-112.1 962.06,-93.85"/>
<polygon fill="midnightblue" stroke="midnightblue" points="1183.53,-593.2 1180.64,-603.4 1189.26,-597.23 1183.53,-593.2"/>
</g>
<!-- Node35&#45;&gt;Node32 -->
<g id="edge53" class="edge">
<title>Node35&#45;&gt;Node32</title>
<path fill="none" stroke="midnightblue" d="M1084.03,-601.46C1031.44,-590.78 972.78,-576.93 965,-567 917.34,-506.17 949.82,-403.26 964.17,-365.73"/>
<polygon fill="midnightblue" stroke="midnightblue" points="1083.62,-604.95 1094.11,-603.49 1085,-598.08 1083.62,-604.95"/>
</g>
<!-- Node36 -->
<g id="node36" class="node">
<title>Node36</title>
<g id="a_node36"><a xlink:href="graphicspipeline_8cpp.html" target="_top" xlink:title=" ">
<polygon fill="none" stroke="black" points="973.5,-536.5 973.5,-566.5 1150.5,-566.5 1150.5,-536.5 973.5,-536.5"/>
<text text-anchor="start" x="981.5" y="-554.5" font-family="Helvetica,sans-Serif" font-size="10.00">/github/workspace/src</text>
<text text-anchor="middle" x="1062" y="-543.5" font-family="Helvetica,sans-Serif" font-size="10.00">/renderer/vulkan/graphicspipeline.cpp</text>
</a>
</g>
</g>
<!-- Node35&#45;&gt;Node36 -->
<g id="edge52" class="edge">
<title>Node35&#45;&gt;Node36</title>
<path fill="none" stroke="midnightblue" d="M1137.63,-598.02C1120.82,-587.9 1100.66,-575.77 1085.39,-566.58"/>
<polygon fill="midnightblue" stroke="midnightblue" points="1136.19,-601.24 1146.57,-603.4 1139.8,-595.24 1136.19,-601.24"/>
</g>
<!-- Node37&#45;&gt;Node2 -->
<g id="edge56" class="edge">
<title>Node37&#45;&gt;Node2</title>
<path fill="none" stroke="midnightblue" d="M845.72,-666.13C823.63,-655.8 796.49,-643.11 776.1,-633.58"/>
<polygon fill="midnightblue" stroke="midnightblue" points="844.3,-669.33 854.84,-670.4 847.26,-662.99 844.3,-669.33"/>
</g>
<!-- Node37&#45;&gt;Node3 -->
<g id="edge55" class="edge">
<title>Node37&#45;&gt;Node3</title>
<path fill="none" stroke="midnightblue" d="M872.26,-661.25C861.92,-643.81 846.12,-620.09 828,-603 812.31,-588.2 791.61,-575.49 774.94,-566.53"/>
<polygon fill="midnightblue" stroke="midnightblue" points="869.4,-663.29 877.42,-670.21 875.47,-659.8 869.4,-663.29"/>
</g>
<!-- Node37&#45;&gt;Node32 -->
<g id="edge59" class="edge">
<title>Node37&#45;&gt;Node32</title>
<path fill="none" stroke="midnightblue" d="M887.14,-660.11C892.1,-610.25 906.67,-493.63 941,-402 945.82,-389.12 953.71,-375.68 960.04,-365.9"/>
<polygon fill="midnightblue" stroke="midnightblue" points="883.64,-659.95 886.18,-670.24 890.61,-660.62 883.64,-659.95"/>
</g>
<!-- Node37&#45;&gt;Node35 -->
<g id="edge57" class="edge">
<title>Node37&#45;&gt;Node35</title>
<path fill="none" stroke="midnightblue" d="M956.53,-668.19C1003.21,-657.54 1063.52,-643.78 1108.13,-633.61"/>
<polygon fill="midnightblue" stroke="midnightblue" points="955.46,-664.84 946.49,-670.48 957.02,-671.66 955.46,-664.84"/>
</g>
<!-- Node38 -->
<g id="node38" class="node">
<title>Node38</title>
<g id="a_node38"><a xlink:href="renderpass_8cpp.html" target="_top" xlink:title=" ">
<polygon fill="none" stroke="black" points="913.5,-603.5 913.5,-633.5 1068.5,-633.5 1068.5,-603.5 913.5,-603.5"/>
<text text-anchor="start" x="921.5" y="-621.5" font-family="Helvetica,sans-Serif" font-size="10.00">/github/workspace/src</text>
<text text-anchor="middle" x="991" y="-610.5" font-family="Helvetica,sans-Serif" font-size="10.00">/renderer/vulkan/renderpass.cpp</text>
</a>
</g>
</g>
<!-- Node37&#45;&gt;Node38 -->
<g id="edge58" class="edge">
<title>Node37&#45;&gt;Node38</title>
<path fill="none" stroke="midnightblue" d="M916.78,-665.02C933.27,-654.9 953.05,-642.77 968.04,-633.58"/>
<polygon fill="midnightblue" stroke="midnightblue" points="914.7,-662.18 908,-670.4 918.35,-668.15 914.7,-662.18"/>
</g>
</g>
</svg>
