<?xml version="1.0" encoding="UTF-8" standalone="no"?>
<!DOCTYPE svg PUBLIC "-//W3C//DTD SVG 1.1//EN"
 "http://www.w3.org/Graphics/SVG/1.1/DTD/svg11.dtd">
<!-- Generated by graphviz version 2.49.3 (20211215.1918)
 -->
<!-- Title: /github/workspace/src/renderer/vulkan/swapchain.h Pages: 1 -->
<!--zoomable 776 -->
<svg id="main" version="1.1" xmlns="http://www.w3.org/2000/svg" xmlns:xlink="http://www.w3.org/1999/xlink" xml:space="preserve" onload="init(evt)">
<style type="text/css"><![CDATA[
.edge:hover path { stroke: red; }
.edge:hover polygon { stroke: red; fill: red; }
]]></style>
<script type="text/javascript"><![CDATA[
var edges = document.getElementsByTagName('g');
if (edges && edges.length) {
  for (var i=0;i<edges.length;i++) {
    if (edges[i].id.substr(0,4)=='edge') {
      edges[i].setAttribute('class','edge');
    }
  }
}
]]></script>
        <defs>
                <circle id="rim" cx="0" cy="0" r="7"/>
                <circle id="rim2" cx="0" cy="0" r="3.5"/>
                <g id="zoomPlus">
                        <use xlink:href="#rim" fill="#404040">
                                <set attributeName="fill" to="#808080" begin="zoomplus.mouseover" end="zoomplus.mouseout"/>
                        </use>
                        <path d="M-4,0h8M0,-4v8" fill="none" stroke="white" stroke-width="1.5" pointer-events="none"/>
                </g>
                <g id="zoomMin">
                        <use xlink:href="#rim" fill="#404040">
                                <set attributeName="fill" to="#808080" begin="zoomminus.mouseover" end="zoomminus.mouseout"/>
                        </use>
                        <path d="M-4,0h8" fill="none" stroke="white" stroke-width="1.5" pointer-events="none"/>
                </g>
                <g id="dirArrow">
                        <path fill="none" stroke="white" stroke-width="1.5" d="M0,-3.0v7 M-2.5,-0.5L0,-3.0L2.5,-0.5"/>
                </g>
               <g id="resetDef">
                       <use xlink:href="#rim2" fill="#404040">
                               <set attributeName="fill" to="#808080" begin="reset.mouseover" end="reset.mouseout"/>
                       </use>
               </g>
        </defs>

<script type="text/javascript">
var viewWidth = 1235;
var viewHeight = 776;
var sectionId = 'dynsection-1';
</script>
<script xlink:href="svgpan.js"/>
<svg id="graph" class="graph">
<g id="viewport">
<title>/github/workspace/src/renderer/vulkan/swapchain.h</title>
<!-- Node1 -->
<g id="node1" class="node">
<title>Node1</title>
<g id="a_node1"><a xlink:title=" ">
<polygon fill="#bfbfbf" stroke="black" points="377.5,-737.5 377.5,-767.5 520.5,-767.5 520.5,-737.5 377.5,-737.5"/>
<text text-anchor="start" x="385.5" y="-755.5" font-family="Helvetica,sans-Serif" font-size="10.00">/github/workspace/src</text>
<text text-anchor="middle" x="449" y="-744.5" font-family="Helvetica,sans-Serif" font-size="10.00">/renderer/vulkan/swapchain.h</text>
</a>
</g>
</g>
<!-- Node2 -->
<g id="node2" class="node">
<title>Node2</title>
<g id="a_node2"><a xlink:href="framebuffer_8h.html" target="_top" xlink:title=" ">
<polygon fill="none" stroke="black" points="76,-603.5 76,-633.5 222,-633.5 222,-603.5 76,-603.5"/>
<text text-anchor="start" x="84" y="-621.5" font-family="Helvetica,sans-Serif" font-size="10.00">/github/workspace/src</text>
<text text-anchor="middle" x="149" y="-610.5" font-family="Helvetica,sans-Serif" font-size="10.00">/renderer/vulkan/framebuffer.h</text>
</a>
</g>
</g>
<!-- Node1&#45;&gt;Node2 -->
<g id="edge1" class="edge">
<title>Node1&#45;&gt;Node2</title>
<path fill="none" stroke="midnightblue" d="M380.13,-734.54C350.52,-725.77 315.98,-714.14 286,-701 240.27,-680.96 190.08,-651.06 164.8,-633.59"/>
<polygon fill="midnightblue" stroke="midnightblue" points="379.39,-737.97 389.97,-737.41 381.34,-731.25 379.39,-737.97"/>
</g>
<!-- Node18 -->
<g id="node18" class="node">
<title>Node18</title>
<g id="a_node18"><a xlink:href="vulkan__voxel__rasterizer__2_8cpp.html" target="_top" xlink:title=" ">
<polygon fill="none" stroke="black" points="810,-0.5 810,-30.5 984,-30.5 984,-0.5 810,-0.5"/>
<text text-anchor="start" x="818" y="-18.5" font-family="Helvetica,sans-Serif" font-size="10.00">/github/workspace/src</text>
<text text-anchor="middle" x="897" y="-7.5" font-family="Helvetica,sans-Serif" font-size="10.00">/tests/vulkan_voxel_rasterizer_2.cpp</text>
</a>
</g>
</g>
<!-- Node1&#45;&gt;Node18 -->
<g id="edge54" class="edge">
<title>Node1&#45;&gt;Node18</title>
<path fill="none" stroke="midnightblue" d="M530.6,-750.3C693.81,-745.68 1045,-723.63 1045,-619.5 1045,-619.5 1045,-619.5 1045,-148.5 1045,-89.11 977.8,-49.82 933.96,-30.51"/>
<polygon fill="midnightblue" stroke="midnightblue" points="530.5,-746.8 520.6,-750.57 530.69,-753.8 530.5,-746.8"/>
</g>
<!-- Node29 -->
<g id="node29" class="node">
<title>Node29</title>
<g id="a_node29"><a xlink:href="vulkan__voxel__rasterizer_8cpp.html" target="_top" xlink:title=" ">
<polygon fill="none" stroke="black" points="110,-335.5 110,-365.5 274,-365.5 274,-335.5 110,-335.5"/>
<text text-anchor="start" x="118" y="-353.5" font-family="Helvetica,sans-Serif" font-size="10.00">/github/workspace/src</text>
<text text-anchor="middle" x="192" y="-342.5" font-family="Helvetica,sans-Serif" font-size="10.00">/tests/vulkan_voxel_rasterizer.cpp</text>
</a>
</g>
</g>
<!-- Node1&#45;&gt;Node29 -->
<g id="edge53" class="edge">
<title>Node1&#45;&gt;Node29</title>
<path fill="none" stroke="midnightblue" d="M367.08,-744.28C237.55,-730.58 0,-695.15 0,-619.5 0,-619.5 0,-619.5 0,-483.5 0,-418.27 76.18,-382.85 132.56,-365.56"/>
<polygon fill="midnightblue" stroke="midnightblue" points="367.05,-747.8 377.36,-745.35 367.77,-740.84 367.05,-747.8"/>
</g>
<!-- Node32 -->
<g id="node32" class="node">
<title>Node32</title>
<g id="a_node32"><a xlink:href="graphicspipeline_8h.html" target="_top" xlink:title=" ">
<polygon fill="none" stroke="black" points="527.5,-603.5 527.5,-633.5 694.5,-633.5 694.5,-603.5 527.5,-603.5"/>
<text text-anchor="start" x="535.5" y="-621.5" font-family="Helvetica,sans-Serif" font-size="10.00">/github/workspace/src</text>
<text text-anchor="middle" x="611" y="-610.5" font-family="Helvetica,sans-Serif" font-size="10.00">/renderer/vulkan/graphicspipeline.h</text>
</a>
</g>
</g>
<!-- Node1&#45;&gt;Node32 -->
<g id="edge40" class="edge">
<title>Node1&#45;&gt;Node32</title>
<path fill="none" stroke="midnightblue" d="M475.79,-731.05C487.59,-721.95 501.57,-711.05 514,-701 542.74,-677.77 575.53,-649.93 594.68,-633.54"/>
<polygon fill="midnightblue" stroke="midnightblue" points="473.43,-728.45 467.64,-737.32 477.7,-734 473.43,-728.45"/>
</g>
<!-- Node34 -->
<g id="node34" class="node">
<title>Node34</title>
<g id="a_node34"><a xlink:href="renderpass_8h.html" target="_top" xlink:title=" ">
<polygon fill="none" stroke="black" points="304.5,-670.5 304.5,-700.5 449.5,-700.5 449.5,-670.5 304.5,-670.5"/>
<text text-anchor="start" x="312.5" y="-688.5" font-family="Helvetica,sans-Serif" font-size="10.00">/github/workspace/src</text>
<text text-anchor="middle" x="377" y="-677.5" font-family="Helvetica,sans-Serif" font-size="10.00">/renderer/vulkan/renderpass.h</text>
</a>
</g>
</g>
<!-- Node1&#45;&gt;Node34 -->
<g id="edge46" class="edge">
<title>Node1&#45;&gt;Node34</title>
<path fill="none" stroke="midnightblue" d="M425.85,-730.6C414.98,-720.78 402.3,-709.34 392.59,-700.58"/>
<polygon fill="midnightblue" stroke="midnightblue" points="423.61,-733.29 433.38,-737.4 428.3,-728.1 423.61,-733.29"/>
</g>
<!-- Node36 -->
<g id="node36" class="node">
<title>Node36</title>
<g id="a_node36"><a xlink:href="swapchain_8cpp.html" target="_top" xlink:title=" ">
<polygon fill="none" stroke="black" points="1073,-670.5 1073,-700.5 1227,-700.5 1227,-670.5 1073,-670.5"/>
<text text-anchor="start" x="1081" y="-688.5" font-family="Helvetica,sans-Serif" font-size="10.00">/github/workspace/src</text>
<text text-anchor="middle" x="1150" y="-677.5" font-family="Helvetica,sans-Serif" font-size="10.00">/renderer/vulkan/swapchain.cpp</text>
</a>
</g>
</g>
<!-- Node1&#45;&gt;Node36 -->
<g id="edge52" class="edge">
<title>Node1&#45;&gt;Node36</title>
<path fill="none" stroke="midnightblue" d="M530.88,-746.69C648.14,-739.35 870.57,-723.78 1059,-701 1063.45,-700.46 1068.01,-699.87 1072.61,-699.24"/>
<polygon fill="midnightblue" stroke="midnightblue" points="530.31,-743.22 520.55,-747.33 530.75,-750.2 530.31,-743.22"/>
</g>
<!-- Node2&#45;&gt;Node1 -->
<g id="edge38" class="edge">
<title>Node2&#45;&gt;Node1</title>
<path fill="none" stroke="midnightblue" d="M186.08,-638.59C217.06,-656.35 262.38,-682.76 304,-701 337.37,-715.62 376.39,-728.38 405.64,-737.41"/>
<polygon fill="midnightblue" stroke="midnightblue" points="187.76,-635.51 177.34,-633.59 184.29,-641.59 187.76,-635.51"/>
</g>
<!-- Node3 -->
<g id="node3" class="node">
<title>Node3</title>
<g id="a_node3"><a xlink:href="commandbuffer_8h.html" target="_top" xlink:title=" ">
<polygon fill="none" stroke="black" points="326,-536.5 326,-566.5 490,-566.5 490,-536.5 326,-536.5"/>
<text text-anchor="start" x="334" y="-554.5" font-family="Helvetica,sans-Serif" font-size="10.00">/github/workspace/src</text>
<text text-anchor="middle" x="408" y="-543.5" font-family="Helvetica,sans-Serif" font-size="10.00">/renderer/vulkan/commandbuffer.h</text>
</a>
</g>
</g>
<!-- Node2&#45;&gt;Node3 -->
<g id="edge2" class="edge">
<title>Node2&#45;&gt;Node3</title>
<path fill="none" stroke="midnightblue" d="M214.81,-600.98C257.11,-590.37 311.49,-576.72 351.77,-566.61"/>
<polygon fill="midnightblue" stroke="midnightblue" points="213.73,-597.65 204.88,-603.48 215.43,-604.44 213.73,-597.65"/>
</g>
<!-- Node2&#45;&gt;Node29 -->
<g id="edge39" class="edge">
<title>Node2&#45;&gt;Node29</title>
<path fill="none" stroke="midnightblue" d="M173.91,-595.86C181.54,-587.68 188.98,-577.73 193,-567 219.77,-495.52 203.24,-401.12 195.42,-365.72"/>
<polygon fill="midnightblue" stroke="midnightblue" points="171.23,-593.59 166.63,-603.13 176.18,-598.54 171.23,-593.59"/>
</g>
<!-- Node31 -->
<g id="node31" class="node">
<title>Node31</title>
<g id="a_node31"><a xlink:href="framebuffer_8cpp.html" target="_top" xlink:title=" ">
<polygon fill="none" stroke="black" points="28,-536.5 28,-566.5 184,-566.5 184,-536.5 28,-536.5"/>
<text text-anchor="start" x="36" y="-554.5" font-family="Helvetica,sans-Serif" font-size="10.00">/github/workspace/src</text>
<text text-anchor="middle" x="106" y="-543.5" font-family="Helvetica,sans-Serif" font-size="10.00">/renderer/vulkan/framebuffer.cpp</text>
</a>
</g>
</g>
<!-- Node2&#45;&gt;Node31 -->
<g id="edge37" class="edge">
<title>Node2&#45;&gt;Node31</title>
<path fill="none" stroke="midnightblue" d="M134.03,-594.87C127.8,-585.46 120.77,-574.83 115.31,-566.58"/>
<polygon fill="midnightblue" stroke="midnightblue" points="131.23,-596.99 139.67,-603.4 137.07,-593.12 131.23,-596.99"/>
</g>
<!-- Node3&#45;&gt;Node1 -->
<g id="edge35" class="edge">
<title>Node3&#45;&gt;Node1</title>
<path fill="none" stroke="midnightblue" d="M435.9,-573.25C444.69,-581.43 453.32,-591.62 458,-603 476.96,-649.1 462.22,-710.09 453.81,-737.32"/>
<polygon fill="midnightblue" stroke="midnightblue" points="438.08,-570.5 428.24,-566.59 433.49,-575.79 438.08,-570.5"/>
</g>
<!-- Node4 -->
<g id="node4" class="node">
<title>Node4</title>
<g id="a_node4"><a xlink:href="buffer_8h.html" target="_top" xlink:title=" ">
<polygon fill="none" stroke="black" points="546.5,-469.5 546.5,-499.5 667.5,-499.5 667.5,-469.5 546.5,-469.5"/>
<text text-anchor="start" x="554.5" y="-487.5" font-family="Helvetica,sans-Serif" font-size="10.00">/github/workspace/src</text>
<text text-anchor="middle" x="607" y="-476.5" font-family="Helvetica,sans-Serif" font-size="10.00">/renderer/vulkan/buffer.h</text>
</a>
</g>
</g>
<!-- Node3&#45;&gt;Node4 -->
<g id="edge3" class="edge">
<title>Node3&#45;&gt;Node4</title>
<path fill="none" stroke="midnightblue" d="M460.88,-533.23C493.07,-522.71 533.67,-509.45 563.9,-499.58"/>
<polygon fill="midnightblue" stroke="midnightblue" points="459.6,-529.96 451.18,-536.4 461.77,-536.62 459.6,-529.96"/>
</g>
<!-- Node3&#45;&gt;Node29 -->
<g id="edge36" class="edge">
<title>Node3&#45;&gt;Node29</title>
<path fill="none" stroke="midnightblue" d="M355.14,-532.41C338.1,-524.56 320.22,-513.9 307,-500 274.22,-465.53 294.14,-438.79 264,-402 251.71,-387 233.9,-374.45 219.06,-365.62"/>
<polygon fill="midnightblue" stroke="midnightblue" points="353.92,-535.7 364.48,-536.49 356.72,-529.29 353.92,-535.7"/>
</g>
<!-- Node30 -->
<g id="node30" class="node">
<title>Node30</title>
<g id="a_node30"><a xlink:href="commandbuffer_8cpp.html" target="_top" xlink:title=" ">
<polygon fill="none" stroke="black" points="316,-469.5 316,-499.5 490,-499.5 490,-469.5 316,-469.5"/>
<text text-anchor="start" x="324" y="-487.5" font-family="Helvetica,sans-Serif" font-size="10.00">/github/workspace/src</text>
<text text-anchor="middle" x="403" y="-476.5" font-family="Helvetica,sans-Serif" font-size="10.00">/renderer/vulkan/commandbuffer.cpp</text>
</a>
</g>
</g>
<!-- Node3&#45;&gt;Node30 -->
<g id="edge34" class="edge">
<title>Node3&#45;&gt;Node30</title>
<path fill="none" stroke="midnightblue" d="M406.15,-526.4C405.45,-517.37 404.69,-507.41 404.08,-499.58"/>
<polygon fill="midnightblue" stroke="midnightblue" points="402.66,-526.69 406.92,-536.4 409.64,-526.16 402.66,-526.69"/>
</g>
<!-- Node5 -->
<g id="node5" class="node">
<title>Node5</title>
<g id="a_node5"><a xlink:href="buffer_8cpp.html" target="_top" xlink:title=" ">
<polygon fill="none" stroke="black" points="381.5,-402.5 381.5,-432.5 512.5,-432.5 512.5,-402.5 381.5,-402.5"/>
<text text-anchor="start" x="389.5" y="-420.5" font-family="Helvetica,sans-Serif" font-size="10.00">/github/workspace/src</text>
<text text-anchor="middle" x="447" y="-409.5" font-family="Helvetica,sans-Serif" font-size="10.00">/renderer/vulkan/buffer.cpp</text>
</a>
</g>
</g>
<!-- Node4&#45;&gt;Node5 -->
<g id="edge4" class="edge">
<title>Node4&#45;&gt;Node5</title>
<path fill="none" stroke="midnightblue" d="M562.8,-465.54C537.2,-455.14 505.43,-442.24 481.65,-432.58"/>
<polygon fill="midnightblue" stroke="midnightblue" points="561.7,-468.87 572.28,-469.4 564.34,-462.39 561.7,-468.87"/>
</g>
<!-- Node6 -->
<g id="node6" class="node">
<title>Node6</title>
<g id="a_node6"><a xlink:href="bufferview_8h.html" target="_top" xlink:title=" ">
<polygon fill="none" stroke="black" points="701.5,-402.5 701.5,-432.5 842.5,-432.5 842.5,-402.5 701.5,-402.5"/>
<text text-anchor="start" x="709.5" y="-420.5" font-family="Helvetica,sans-Serif" font-size="10.00">/github/workspace/src</text>
<text text-anchor="middle" x="772" y="-409.5" font-family="Helvetica,sans-Serif" font-size="10.00">/renderer/vulkan/bufferview.h</text>
</a>
</g>
</g>
<!-- Node4&#45;&gt;Node6 -->
<g id="edge5" class="edge">
<title>Node4&#45;&gt;Node6</title>
<path fill="none" stroke="midnightblue" d="M652.23,-465.68C678.69,-455.26 711.63,-442.28 736.27,-432.58"/>
<polygon fill="midnightblue" stroke="midnightblue" points="650.82,-462.47 642.8,-469.4 653.39,-468.99 650.82,-462.47"/>
</g>
<!-- Node8 -->
<g id="node8" class="node">
<title>Node8</title>
<g id="a_node8"><a xlink:href="uniformbuffer_8h.html" target="_top" xlink:title=" ">
<polygon fill="none" stroke="black" points="530.5,-402.5 530.5,-432.5 683.5,-432.5 683.5,-402.5 530.5,-402.5"/>
<text text-anchor="start" x="538.5" y="-420.5" font-family="Helvetica,sans-Serif" font-size="10.00">/github/workspace/src</text>
<text text-anchor="middle" x="607" y="-409.5" font-family="Helvetica,sans-Serif" font-size="10.00">/renderer/vulkan/uniformbuffer.h</text>
</a>
</g>
</g>
<!-- Node4&#45;&gt;Node8 -->
<g id="edge7" class="edge">
<title>Node4&#45;&gt;Node8</title>
<path fill="none" stroke="midnightblue" d="M607,-459.11C607,-450.15 607,-440.32 607,-432.58"/>
<polygon fill="midnightblue" stroke="midnightblue" points="603.5,-459.4 607,-469.4 610.5,-459.4 603.5,-459.4"/>
</g>
<!-- Node7 -->
<g id="node7" class="node">
<title>Node7</title>
<g id="a_node7"><a xlink:href="bufferview_8cpp.html" target="_top" xlink:title=" ">
<polygon fill="none" stroke="black" points="789,-335.5 789,-365.5 941,-365.5 941,-335.5 789,-335.5"/>
<text text-anchor="start" x="797" y="-353.5" font-family="Helvetica,sans-Serif" font-size="10.00">/github/workspace/src</text>
<text text-anchor="middle" x="865" y="-342.5" font-family="Helvetica,sans-Serif" font-size="10.00">/renderer/vulkan/bufferview.cpp</text>
</a>
</g>
</g>
<!-- Node6&#45;&gt;Node7 -->
<g id="edge6" class="edge">
<title>Node6&#45;&gt;Node7</title>
<path fill="none" stroke="midnightblue" d="M800.69,-396.45C814.99,-386.45 831.95,-374.6 844.86,-365.58"/>
<polygon fill="midnightblue" stroke="midnightblue" points="798.37,-393.8 792.18,-402.4 802.38,-399.54 798.37,-393.8"/>
</g>
<!-- Node9 -->
<g id="node9" class="node">
<title>Node9</title>
<g id="a_node9"><a xlink:href="materiallibrary_8h.html" target="_top" xlink:title=" ">
<polygon fill="none" stroke="black" points="474.5,-335.5 474.5,-365.5 599.5,-365.5 599.5,-335.5 474.5,-335.5"/>
<text text-anchor="start" x="482.5" y="-353.5" font-family="Helvetica,sans-Serif" font-size="10.00">/github/workspace/src</text>
<text text-anchor="middle" x="537" y="-342.5" font-family="Helvetica,sans-Serif" font-size="10.00">/renderer/materiallibrary.h</text>
</a>
</g>
</g>
<!-- Node8&#45;&gt;Node9 -->
<g id="edge8" class="edge">
<title>Node8&#45;&gt;Node9</title>
<path fill="none" stroke="midnightblue" d="M584.18,-395.31C573.68,-385.56 561.51,-374.26 552.16,-365.58"/>
<polygon fill="midnightblue" stroke="midnightblue" points="582.1,-398.16 591.81,-402.4 586.86,-393.03 582.1,-398.16"/>
</g>
<!-- Node24 -->
<g id="node24" class="node">
<title>Node24</title>
<g id="a_node24"><a xlink:href="descriptorset_8h.html" target="_top" xlink:title=" ">
<polygon fill="none" stroke="black" points="617.5,-335.5 617.5,-365.5 770.5,-365.5 770.5,-335.5 617.5,-335.5"/>
<text text-anchor="start" x="625.5" y="-353.5" font-family="Helvetica,sans-Serif" font-size="10.00">/github/workspace/src</text>
<text text-anchor="middle" x="694" y="-342.5" font-family="Helvetica,sans-Serif" font-size="10.00">/renderer/vulkan/descriptorset.h</text>
</a>
</g>
</g>
<!-- Node8&#45;&gt;Node24 -->
<g id="edge26" class="edge">
<title>Node8&#45;&gt;Node24</title>
<path fill="none" stroke="midnightblue" d="M634.21,-396.17C647.52,-386.23 663.2,-374.51 675.16,-365.58"/>
<polygon fill="midnightblue" stroke="midnightblue" points="631.79,-393.61 625.88,-402.4 635.98,-399.21 631.79,-393.61"/>
</g>
<!-- Node28 -->
<g id="node28" class="node">
<title>Node28</title>
<g id="a_node28"><a xlink:href="uniformbuffer_8cpp.html" target="_top" xlink:title=" ">
<polygon fill="none" stroke="black" points="292,-335.5 292,-365.5 456,-365.5 456,-335.5 292,-335.5"/>
<text text-anchor="start" x="300" y="-353.5" font-family="Helvetica,sans-Serif" font-size="10.00">/github/workspace/src</text>
<text text-anchor="middle" x="374" y="-342.5" font-family="Helvetica,sans-Serif" font-size="10.00">/renderer/vulkan/uniformbuffer.cpp</text>
</a>
</g>
</g>
<!-- Node8&#45;&gt;Node28 -->
<g id="edge32" class="edge">
<title>Node8&#45;&gt;Node28</title>
<path fill="none" stroke="midnightblue" d="M546.83,-399.71C508.92,-389.14 460.51,-375.63 424.58,-365.61"/>
<polygon fill="midnightblue" stroke="midnightblue" points="546.16,-403.16 556.73,-402.48 548.04,-396.42 546.16,-403.16"/>
</g>
<!-- Node8&#45;&gt;Node29 -->
<g id="edge33" class="edge">
<title>Node8&#45;&gt;Node29</title>
<path fill="none" stroke="midnightblue" d="M519.93,-401.85C413.68,-384.93 385.51,-381.92 283,-366 280.15,-365.56 277.26,-365.11 274.34,-364.65"/>
<polygon fill="midnightblue" stroke="midnightblue" points="519.69,-405.35 530.12,-403.47 520.79,-398.44 519.69,-405.35"/>
</g>
<!-- Node10 -->
<g id="node10" class="node">
<title>Node10</title>
<g id="a_node10"><a xlink:href="material_8h.html" target="_top" xlink:title=" ">
<polygon fill="none" stroke="black" points="535.5,-268.5 535.5,-298.5 648.5,-298.5 648.5,-268.5 535.5,-268.5"/>
<text text-anchor="start" x="543.5" y="-286.5" font-family="Helvetica,sans-Serif" font-size="10.00">/github/workspace/src</text>
<text text-anchor="middle" x="592" y="-275.5" font-family="Helvetica,sans-Serif" font-size="10.00">/renderer/material.h</text>
</a>
</g>
</g>
<!-- Node9&#45;&gt;Node10 -->
<g id="edge9" class="edge">
<title>Node9&#45;&gt;Node10</title>
<path fill="none" stroke="midnightblue" d="M549.46,-327.16C556.9,-317.68 566.26,-306.92 574.41,-298.58"/>
<polygon fill="midnightblue" stroke="midnightblue" points="546.47,-325.3 543.26,-335.4 552.07,-329.51 546.47,-325.3"/>
</g>
<!-- Node23 -->
<g id="node23" class="node">
<title>Node23</title>
<g id="a_node23"><a xlink:href="materiallibrary_8cpp.html" target="_top" xlink:title=" ">
<polygon fill="none" stroke="black" points="199,-268.5 199,-298.5 335,-298.5 335,-268.5 199,-268.5"/>
<text text-anchor="start" x="207" y="-286.5" font-family="Helvetica,sans-Serif" font-size="10.00">/github/workspace/src</text>
<text text-anchor="middle" x="267" y="-275.5" font-family="Helvetica,sans-Serif" font-size="10.00">/renderer/materiallibrary.cpp</text>
</a>
</g>
</g>
<!-- Node9&#45;&gt;Node23 -->
<g id="edge25" class="edge">
<title>Node9&#45;&gt;Node23</title>
<path fill="none" stroke="midnightblue" d="M468.95,-333.12C424.77,-322.48 367.78,-308.76 325.61,-298.61"/>
<polygon fill="midnightblue" stroke="midnightblue" points="468.2,-336.54 478.75,-335.48 469.84,-329.73 468.2,-336.54"/>
</g>
<!-- Node10&#45;&gt;Node9 -->
<g id="edge14" class="edge">
<title>Node10&#45;&gt;Node9</title>
<path fill="none" stroke="midnightblue" d="M579.57,-306.81C572.13,-316.29 562.77,-327.05 554.61,-335.4"/>
<polygon fill="midnightblue" stroke="midnightblue" points="582.55,-308.67 585.76,-298.58 576.95,-304.46 582.55,-308.67"/>
</g>
<!-- Node11 -->
<g id="node11" class="node">
<title>Node11</title>
<g id="a_node11"><a xlink:href="mastermaterial_8h.html" target="_top" xlink:title=" ">
<polygon fill="none" stroke="black" points="808,-201.5 808,-231.5 938,-231.5 938,-201.5 808,-201.5"/>
<text text-anchor="start" x="816" y="-219.5" font-family="Helvetica,sans-Serif" font-size="10.00">/github/workspace/src</text>
<text text-anchor="middle" x="873" y="-208.5" font-family="Helvetica,sans-Serif" font-size="10.00">/renderer/mastermaterial.h</text>
</a>
</g>
</g>
<!-- Node10&#45;&gt;Node11 -->
<g id="edge10" class="edge">
<title>Node10&#45;&gt;Node11</title>
<path fill="none" stroke="midnightblue" d="M658.53,-267.11C705.12,-256.33 766.9,-242.04 812.18,-231.57"/>
<polygon fill="midnightblue" stroke="midnightblue" points="657.48,-263.76 648.53,-269.42 659.06,-270.58 657.48,-263.76"/>
</g>
<!-- Node13 -->
<g id="node13" class="node">
<title>Node13</title>
<g id="a_node13"><a xlink:href="material_8cpp.html" target="_top" xlink:title=" ">
<polygon fill="none" stroke="black" points="471.5,-201.5 471.5,-231.5 584.5,-231.5 584.5,-201.5 471.5,-201.5"/>
<text text-anchor="start" x="479.5" y="-219.5" font-family="Helvetica,sans-Serif" font-size="10.00">/github/workspace/src</text>
<text text-anchor="middle" x="528" y="-208.5" font-family="Helvetica,sans-Serif" font-size="10.00">/renderer/material.cpp</text>
</a>
</g>
</g>
<!-- Node10&#45;&gt;Node13 -->
<g id="edge13" class="edge">
<title>Node10&#45;&gt;Node13</title>
<path fill="none" stroke="midnightblue" d="M570.85,-261.02C561.32,-251.34 550.33,-240.17 541.86,-231.58"/>
<polygon fill="midnightblue" stroke="midnightblue" points="568.6,-263.73 578.11,-268.4 573.59,-258.81 568.6,-263.73"/>
</g>
<!-- Node14 -->
<g id="node14" class="node">
<title>Node14</title>
<g id="a_node14"><a xlink:href="mesh_8h.html" target="_top" xlink:title=" ">
<polygon fill="none" stroke="black" points="602.5,-201.5 602.5,-231.5 715.5,-231.5 715.5,-201.5 602.5,-201.5"/>
<text text-anchor="start" x="610.5" y="-219.5" font-family="Helvetica,sans-Serif" font-size="10.00">/github/workspace/src</text>
<text text-anchor="middle" x="659" y="-208.5" font-family="Helvetica,sans-Serif" font-size="10.00">/renderer/mesh.h</text>
</a>
</g>
</g>
<!-- Node10&#45;&gt;Node14 -->
<g id="edge15" class="edge">
<title>Node10&#45;&gt;Node14</title>
<path fill="none" stroke="midnightblue" d="M613.84,-261.31C623.89,-251.56 635.54,-240.26 644.49,-231.58"/>
<polygon fill="midnightblue" stroke="midnightblue" points="611.28,-258.92 606.54,-268.4 616.15,-263.94 611.28,-258.92"/>
</g>
<!-- Node11&#45;&gt;Node9 -->
<g id="edge12" class="edge">
<title>Node11&#45;&gt;Node9</title>
<path fill="none" stroke="midnightblue" d="M798.04,-231.76C765.52,-239.72 727.71,-251.45 696,-268 676.68,-278.09 676.7,-287.8 658,-299 633.01,-313.98 602.76,-326.6 578.76,-335.48"/>
<polygon fill="midnightblue" stroke="midnightblue" points="799.03,-235.12 807.95,-229.4 797.41,-228.31 799.03,-235.12"/>
</g>
<!-- Node12 -->
<g id="node12" class="node">
<title>Node12</title>
<g id="a_node12"><a xlink:href="mastermaterial_8cpp.html" target="_top" xlink:title=" ">
<polygon fill="none" stroke="black" points="877,-134.5 877,-164.5 1017,-164.5 1017,-134.5 877,-134.5"/>
<text text-anchor="start" x="885" y="-152.5" font-family="Helvetica,sans-Serif" font-size="10.00">/github/workspace/src</text>
<text text-anchor="middle" x="947" y="-141.5" font-family="Helvetica,sans-Serif" font-size="10.00">/renderer/mastermaterial.cpp</text>
</a>
</g>
</g>
<!-- Node11&#45;&gt;Node12 -->
<g id="edge11" class="edge">
<title>Node11&#45;&gt;Node12</title>
<path fill="none" stroke="midnightblue" d="M896.8,-194.6C907.97,-184.78 920.99,-173.34 930.97,-164.58"/>
<polygon fill="midnightblue" stroke="midnightblue" points="894.26,-192.17 889.06,-201.4 898.88,-197.43 894.26,-192.17"/>
</g>
<!-- Node15 -->
<g id="node15" class="node">
<title>Node15</title>
<g id="a_node15"><a xlink:href="mesh_8cpp.html" target="_top" xlink:title=" ">
<polygon fill="none" stroke="black" points="463.5,-134.5 463.5,-164.5 576.5,-164.5 576.5,-134.5 463.5,-134.5"/>
<text text-anchor="start" x="471.5" y="-152.5" font-family="Helvetica,sans-Serif" font-size="10.00">/github/workspace/src</text>
<text text-anchor="middle" x="520" y="-141.5" font-family="Helvetica,sans-Serif" font-size="10.00">/renderer/mesh.cpp</text>
</a>
</g>
</g>
<!-- Node14&#45;&gt;Node15 -->
<g id="edge16" class="edge">
<title>Node14&#45;&gt;Node15</title>
<path fill="none" stroke="midnightblue" d="M619.72,-197.13C597.63,-186.8 570.49,-174.11 550.1,-164.58"/>
<polygon fill="midnightblue" stroke="midnightblue" points="618.3,-200.33 628.84,-201.4 621.26,-193.99 618.3,-200.33"/>
</g>
<!-- Node16 -->
<g id="node16" class="node">
<title>Node16</title>
<g id="a_node16"><a xlink:href="modelloader_8h.html" target="_top" xlink:title=" ">
<polygon fill="none" stroke="black" points="741,-134.5 741,-164.5 859,-164.5 859,-134.5 741,-134.5"/>
<text text-anchor="start" x="749" y="-152.5" font-family="Helvetica,sans-Serif" font-size="10.00">/github/workspace/src</text>
<text text-anchor="middle" x="800" y="-141.5" font-family="Helvetica,sans-Serif" font-size="10.00">/renderer/modelloader.h</text>
</a>
</g>
</g>
<!-- Node14&#45;&gt;Node16 -->
<g id="edge17" class="edge">
<title>Node14&#45;&gt;Node16</title>
<path fill="none" stroke="midnightblue" d="M698.85,-197.13C721.25,-186.8 748.78,-174.11 769.46,-164.58"/>
<polygon fill="midnightblue" stroke="midnightblue" points="697.21,-194.03 689.59,-201.4 700.14,-200.39 697.21,-194.03"/>
</g>
<!-- Node19 -->
<g id="node19" class="node">
<title>Node19</title>
<g id="a_node19"><a xlink:href="objectinstance_8h.html" target="_top" xlink:title=" ">
<polygon fill="none" stroke="black" points="595,-134.5 595,-164.5 723,-164.5 723,-134.5 595,-134.5"/>
<text text-anchor="start" x="603" y="-152.5" font-family="Helvetica,sans-Serif" font-size="10.00">/github/workspace/src</text>
<text text-anchor="middle" x="659" y="-141.5" font-family="Helvetica,sans-Serif" font-size="10.00">/renderer/objectinstance.h</text>
</a>
</g>
</g>
<!-- Node14&#45;&gt;Node19 -->
<g id="edge20" class="edge">
<title>Node14&#45;&gt;Node19</title>
<path fill="none" stroke="midnightblue" d="M659,-191.11C659,-182.15 659,-172.32 659,-164.58"/>
<polygon fill="midnightblue" stroke="midnightblue" points="655.5,-191.4 659,-201.4 662.5,-191.4 655.5,-191.4"/>
</g>
<!-- Node17 -->
<g id="node17" class="node">
<title>Node17</title>
<g id="a_node17"><a xlink:href="modelloader_8cpp.html" target="_top" xlink:title=" ">
<polygon fill="none" stroke="black" points="741,-67.5 741,-97.5 869,-97.5 869,-67.5 741,-67.5"/>
<text text-anchor="start" x="749" y="-85.5" font-family="Helvetica,sans-Serif" font-size="10.00">/github/workspace/src</text>
<text text-anchor="middle" x="805" y="-74.5" font-family="Helvetica,sans-Serif" font-size="10.00">/renderer/modelloader.cpp</text>
</a>
</g>
</g>
<!-- Node16&#45;&gt;Node17 -->
<g id="edge18" class="edge">
<title>Node16&#45;&gt;Node17</title>
<path fill="none" stroke="midnightblue" d="M801.85,-124.4C802.55,-115.37 803.31,-105.41 803.92,-97.58"/>
<polygon fill="midnightblue" stroke="midnightblue" points="798.36,-124.16 801.08,-134.4 805.34,-124.69 798.36,-124.16"/>
</g>
<!-- Node16&#45;&gt;Node18 -->
<g id="edge19" class="edge">
<title>Node16&#45;&gt;Node18</title>
<path fill="none" stroke="midnightblue" d="M842.27,-129.19C855.49,-121.26 868.96,-110.87 878,-98 892.29,-77.67 895.96,-48.14 896.83,-30.77"/>
<polygon fill="midnightblue" stroke="midnightblue" points="840.22,-126.34 833.23,-134.3 843.66,-132.43 840.22,-126.34"/>
</g>
<!-- Node20 -->
<g id="node20" class="node">
<title>Node20</title>
<g id="a_node20"><a xlink:href="objectinstance_8cpp.html" target="_top" xlink:title=" ">
<polygon fill="none" stroke="black" points="583.5,-67.5 583.5,-97.5 722.5,-97.5 722.5,-67.5 583.5,-67.5"/>
<text text-anchor="start" x="591.5" y="-85.5" font-family="Helvetica,sans-Serif" font-size="10.00">/github/workspace/src</text>
<text text-anchor="middle" x="653" y="-74.5" font-family="Helvetica,sans-Serif" font-size="10.00">/renderer/objectinstance.cpp</text>
</a>
</g>
</g>
<!-- Node19&#45;&gt;Node20 -->
<g id="edge21" class="edge">
<title>Node19&#45;&gt;Node20</title>
<path fill="none" stroke="midnightblue" d="M656.78,-124.4C655.94,-115.37 655.02,-105.41 654.3,-97.58"/>
<polygon fill="midnightblue" stroke="midnightblue" points="653.29,-124.76 657.7,-134.4 660.26,-124.12 653.29,-124.76"/>
</g>
<!-- Node21 -->
<g id="node21" class="node">
<title>Node21</title>
<g id="a_node21"><a xlink:href="scene_8h.html" target="_top" xlink:title=" ">
<polygon fill="none" stroke="black" points="452.5,-67.5 452.5,-97.5 565.5,-97.5 565.5,-67.5 452.5,-67.5"/>
<text text-anchor="start" x="460.5" y="-85.5" font-family="Helvetica,sans-Serif" font-size="10.00">/github/workspace/src</text>
<text text-anchor="middle" x="509" y="-74.5" font-family="Helvetica,sans-Serif" font-size="10.00">/renderer/scene.h</text>
</a>
</g>
</g>
<!-- Node19&#45;&gt;Node21 -->
<g id="edge22" class="edge">
<title>Node19&#45;&gt;Node21</title>
<path fill="none" stroke="midnightblue" d="M617.25,-130.41C593.3,-120.03 563.68,-107.2 541.48,-97.58"/>
<polygon fill="midnightblue" stroke="midnightblue" points="615.89,-133.63 626.45,-134.4 618.67,-127.21 615.89,-133.63"/>
</g>
<!-- Node21&#45;&gt;Node18 -->
<g id="edge24" class="edge">
<title>Node21&#45;&gt;Node18</title>
<path fill="none" stroke="midnightblue" d="M575.72,-66.74C660.37,-50.89 747.03,-37.64 809.69,-28.6"/>
<polygon fill="midnightblue" stroke="midnightblue" points="574.85,-63.34 565.68,-68.63 576.15,-70.22 574.85,-63.34"/>
</g>
<!-- Node22 -->
<g id="node22" class="node">
<title>Node22</title>
<g id="a_node22"><a xlink:href="scene_8cpp.html" target="_top" xlink:title=" ">
<polygon fill="none" stroke="black" points="452.5,-0.5 452.5,-30.5 565.5,-30.5 565.5,-0.5 452.5,-0.5"/>
<text text-anchor="start" x="460.5" y="-18.5" font-family="Helvetica,sans-Serif" font-size="10.00">/github/workspace/src</text>
<text text-anchor="middle" x="509" y="-7.5" font-family="Helvetica,sans-Serif" font-size="10.00">/renderer/scene.cpp</text>
</a>
</g>
</g>
<!-- Node21&#45;&gt;Node22 -->
<g id="edge23" class="edge">
<title>Node21&#45;&gt;Node22</title>
<path fill="none" stroke="midnightblue" d="M509,-57.11C509,-48.15 509,-38.32 509,-30.58"/>
<polygon fill="midnightblue" stroke="midnightblue" points="505.5,-57.4 509,-67.4 512.5,-57.4 505.5,-57.4"/>
</g>
<!-- Node24&#45;&gt;Node3 -->
<g id="edge30" class="edge">
<title>Node24&#45;&gt;Node3</title>
<path fill="none" stroke="midnightblue" d="M774.81,-368.08C808.5,-376.78 842.11,-388.45 852,-402 860.13,-413.13 859.81,-421.65 852,-433 811.21,-492.29 607.21,-526.38 490.43,-541.34"/>
<polygon fill="midnightblue" stroke="midnightblue" points="775.4,-364.62 764.85,-365.59 773.7,-371.41 775.4,-364.62"/>
</g>
<!-- Node25 -->
<g id="node25" class="node">
<title>Node25</title>
<g id="a_node25"><a xlink:href="descriptorpoolmanager_8h.html" target="_top" xlink:title=" ">
<polygon fill="none" stroke="black" points="353,-268.5 353,-298.5 517,-298.5 517,-268.5 353,-268.5"/>
<text text-anchor="start" x="361" y="-286.5" font-family="Helvetica,sans-Serif" font-size="10.00">/github/workspace/src</text>
<text text-anchor="middle" x="435" y="-275.5" font-family="Helvetica,sans-Serif" font-size="10.00">/renderer/descriptorpoolmanager.h</text>
</a>
</g>
</g>
<!-- Node24&#45;&gt;Node25 -->
<g id="edge27" class="edge">
<title>Node24&#45;&gt;Node25</title>
<path fill="none" stroke="midnightblue" d="M628.19,-332.98C585.89,-322.37 531.51,-308.72 491.23,-298.61"/>
<polygon fill="midnightblue" stroke="midnightblue" points="627.57,-336.44 638.12,-335.48 629.27,-329.65 627.57,-336.44"/>
</g>
<!-- Node27 -->
<g id="node27" class="node">
<title>Node27</title>
<g id="a_node27"><a xlink:href="descriptorset_8cpp.html" target="_top" xlink:title=" ">
<polygon fill="none" stroke="black" points="705,-268.5 705,-298.5 869,-298.5 869,-268.5 705,-268.5"/>
<text text-anchor="start" x="713" y="-286.5" font-family="Helvetica,sans-Serif" font-size="10.00">/github/workspace/src</text>
<text text-anchor="middle" x="787" y="-275.5" font-family="Helvetica,sans-Serif" font-size="10.00">/renderer/vulkan/descriptorset.cpp</text>
</a>
</g>
</g>
<!-- Node24&#45;&gt;Node27 -->
<g id="edge31" class="edge">
<title>Node24&#45;&gt;Node27</title>
<path fill="none" stroke="midnightblue" d="M722.69,-329.45C736.99,-319.45 753.95,-307.6 766.86,-298.58"/>
<polygon fill="midnightblue" stroke="midnightblue" points="720.37,-326.8 714.18,-335.4 724.38,-332.54 720.37,-326.8"/>
</g>
<!-- Node25&#45;&gt;Node21 -->
<g id="edge29" class="edge">
<title>Node25&#45;&gt;Node21</title>
<path fill="none" stroke="midnightblue" d="M433.17,-258.27C431.92,-227.57 433.36,-173.88 454,-134 461.63,-119.26 475.38,-106.64 487.22,-97.7"/>
<polygon fill="midnightblue" stroke="midnightblue" points="429.69,-258.67 433.72,-268.47 436.68,-258.29 429.69,-258.67"/>
</g>
<!-- Node26 -->
<g id="node26" class="node">
<title>Node26</title>
<g id="a_node26"><a xlink:href="descriptorpoolmanager_8cpp.html" target="_top" xlink:title=" ">
<polygon fill="none" stroke="black" points="233,-201.5 233,-231.5 407,-231.5 407,-201.5 233,-201.5"/>
<text text-anchor="start" x="241" y="-219.5" font-family="Helvetica,sans-Serif" font-size="10.00">/github/workspace/src</text>
<text text-anchor="middle" x="320" y="-208.5" font-family="Helvetica,sans-Serif" font-size="10.00">/renderer/descriptorpoolmanager.cpp</text>
</a>
</g>
</g>
<!-- Node25&#45;&gt;Node26 -->
<g id="edge28" class="edge">
<title>Node25&#45;&gt;Node26</title>
<path fill="none" stroke="midnightblue" d="M401.02,-263.3C383.03,-253.12 361.32,-240.85 344.9,-231.58"/>
<polygon fill="midnightblue" stroke="midnightblue" points="399.62,-266.52 410.05,-268.4 403.06,-260.43 399.62,-266.52"/>
</g>
<!-- Node32&#45;&gt;Node3 -->
<g id="edge43" class="edge">
<title>Node32&#45;&gt;Node3</title>
<path fill="none" stroke="midnightblue" d="M557.06,-600.23C524.22,-589.71 482.8,-576.45 451.96,-566.58"/>
<polygon fill="midnightblue" stroke="midnightblue" points="556.36,-603.68 566.95,-603.4 558.5,-597.01 556.36,-603.68"/>
</g>
<!-- Node32&#45;&gt;Node10 -->
<g id="edge42" class="edge">
<title>Node32&#45;&gt;Node10</title>
<path fill="none" stroke="midnightblue" d="M646.38,-598.55C743.31,-545.49 1002.51,-395.44 950,-335 949.69,-334.65 749.52,-306.56 648.67,-292.43"/>
<polygon fill="midnightblue" stroke="midnightblue" points="644.63,-595.51 637.53,-603.37 647.98,-601.66 644.63,-595.51"/>
</g>
<!-- Node32&#45;&gt;Node11 -->
<g id="edge41" class="edge">
<title>Node32&#45;&gt;Node11</title>
<path fill="none" stroke="midnightblue" d="M704.81,-616.91C803.1,-614.27 948.74,-603.99 989,-567 1016.32,-541.9 1007,-522.6 1007,-485.5 1007,-485.5 1007,-485.5 1007,-349.5 1007,-292.35 944.38,-251.65 904.76,-231.62"/>
<polygon fill="midnightblue" stroke="midnightblue" points="704.47,-613.42 694.56,-617.16 704.64,-620.42 704.47,-613.42"/>
</g>
<!-- Node32&#45;&gt;Node29 -->
<g id="edge45" class="edge">
<title>Node32&#45;&gt;Node29</title>
<path fill="none" stroke="midnightblue" d="M599.51,-593.88C582.26,-560.94 546.57,-501.57 499,-469 450.59,-435.85 427.1,-453.16 372,-433 316.59,-412.73 254.38,-382.91 219.52,-365.52"/>
<polygon fill="midnightblue" stroke="midnightblue" points="596.6,-595.88 604.26,-603.2 602.83,-592.7 596.6,-595.88"/>
</g>
<!-- Node33 -->
<g id="node33" class="node">
<title>Node33</title>
<g id="a_node33"><a xlink:href="graphicspipeline_8cpp.html" target="_top" xlink:title=" ">
<polygon fill="none" stroke="black" points="802.5,-536.5 802.5,-566.5 979.5,-566.5 979.5,-536.5 802.5,-536.5"/>
<text text-anchor="start" x="810.5" y="-554.5" font-family="Helvetica,sans-Serif" font-size="10.00">/github/workspace/src</text>
<text text-anchor="middle" x="891" y="-543.5" font-family="Helvetica,sans-Serif" font-size="10.00">/renderer/vulkan/graphicspipeline.cpp</text>
</a>
</g>
</g>
<!-- Node32&#45;&gt;Node33 -->
<g id="edge44" class="edge">
<title>Node32&#45;&gt;Node33</title>
<path fill="none" stroke="midnightblue" d="M681.28,-601.19C727.13,-590.54 786.39,-576.78 830.21,-566.61"/>
<polygon fill="midnightblue" stroke="midnightblue" points="680.36,-597.81 671.41,-603.48 681.94,-604.62 680.36,-597.81"/>
</g>
<!-- Node34&#45;&gt;Node2 -->
<g id="edge48" class="edge">
<title>Node34&#45;&gt;Node2</title>
<path fill="none" stroke="midnightblue" d="M318.12,-667.71C281.02,-657.14 233.66,-643.63 198.5,-633.61"/>
<polygon fill="midnightblue" stroke="midnightblue" points="317.23,-671.1 327.81,-670.48 319.15,-664.37 317.23,-671.1"/>
</g>
<!-- Node34&#45;&gt;Node3 -->
<g id="edge47" class="edge">
<title>Node34&#45;&gt;Node3</title>
<path fill="none" stroke="midnightblue" d="M413.95,-664.72C425.05,-656.76 435.89,-646.48 442,-634 453.32,-610.87 435.14,-583 421.3,-566.57"/>
<polygon fill="midnightblue" stroke="midnightblue" points="411.87,-661.9 405.48,-670.35 415.75,-667.72 411.87,-661.9"/>
</g>
<!-- Node34&#45;&gt;Node29 -->
<g id="edge51" class="edge">
<title>Node34&#45;&gt;Node29</title>
<path fill="none" stroke="midnightblue" d="M314.38,-666.55C297.51,-658.98 280.71,-648.45 269,-634 245.58,-605.11 250,-589.69 250,-552.5 250,-552.5 250,-552.5 250,-483.5 250,-437.19 219.71,-388.88 202.91,-365.64"/>
<polygon fill="midnightblue" stroke="midnightblue" points="313.15,-669.83 323.73,-670.47 315.85,-663.38 313.15,-669.83"/>
</g>
<!-- Node34&#45;&gt;Node32 -->
<g id="edge49" class="edge">
<title>Node34&#45;&gt;Node32</title>
<path fill="none" stroke="midnightblue" d="M437.43,-667.71C475.51,-657.14 524.11,-643.63 560.2,-633.61"/>
<polygon fill="midnightblue" stroke="midnightblue" points="436.18,-664.43 427.49,-670.48 438.06,-671.17 436.18,-664.43"/>
</g>
<!-- Node35 -->
<g id="node35" class="node">
<title>Node35</title>
<g id="a_node35"><a xlink:href="renderpass_8cpp.html" target="_top" xlink:title=" ">
<polygon fill="none" stroke="black" points="278.5,-603.5 278.5,-633.5 433.5,-633.5 433.5,-603.5 278.5,-603.5"/>
<text text-anchor="start" x="286.5" y="-621.5" font-family="Helvetica,sans-Serif" font-size="10.00">/github/workspace/src</text>
<text text-anchor="middle" x="356" y="-610.5" font-family="Helvetica,sans-Serif" font-size="10.00">/renderer/vulkan/renderpass.cpp</text>
</a>
</g>
</g>
<!-- Node34&#45;&gt;Node35 -->
<g id="edge50" class="edge">
<title>Node34&#45;&gt;Node35</title>
<path fill="none" stroke="midnightblue" d="M369.31,-660.7C366.37,-651.59 363.11,-641.49 360.55,-633.58"/>
<polygon fill="midnightblue" stroke="midnightblue" points="366.04,-661.96 372.44,-670.4 372.7,-659.8 366.04,-661.96"/>
</g>
</g>
</svg>
        <g id="navigator" transform="translate(0 0)" fill="#404254">
                <rect fill="#f2f5e9" fill-opacity="0.5" stroke="#606060" stroke-width=".5" x="0" y="0" width="60" height="60"/>
                <use id="zoomplus" xlink:href="#zoomPlus" x="17" y="9" onmousedown="handleZoom(evt,'in')"/>
                <use id="zoomminus" xlink:href="#zoomMin" x="42" y="9" onmousedown="handleZoom(evt,'out')"/>
                <use id="reset" xlink:href="#resetDef" x="30" y="36" onmousedown="handleReset()"/>
                <g id="arrowUp" xlink:href="#dirArrow" transform="translate(30 24)" onmousedown="handlePan(0,-1)">
                  <use xlink:href="#rim" fill="#404040">
                        <set attributeName="fill" to="#808080" begin="arrowUp.mouseover" end="arrowUp.mouseout"/>
                  </use>
                  <path fill="none" stroke="white" stroke-width="1.5" d="M0,-3.0v7 M-2.5,-0.5L0,-3.0L2.5,-0.5"/>
                </g>
                <g id="arrowRight" xlink:href="#dirArrow" transform="rotate(90) translate(36 -43)" onmousedown="handlePan(1,0)">
                  <use xlink:href="#rim" fill="#404040">
                        <set attributeName="fill" to="#808080" begin="arrowRight.mouseover" end="arrowRight.mouseout"/>
                  </use>
                  <path fill="none" stroke="white" stroke-width="1.5" d="M0,-3.0v7 M-2.5,-0.5L0,-3.0L2.5,-0.5"/>
                </g>
                <g id="arrowDown" xlink:href="#dirArrow" transform="rotate(180) translate(-30 -48)" onmousedown="handlePan(0,1)">
                  <use xlink:href="#rim" fill="#404040">
                        <set attributeName="fill" to="#808080" begin="arrowDown.mouseover" end="arrowDown.mouseout"/>
                  </use>
                  <path fill="none" stroke="white" stroke-width="1.5" d="M0,-3.0v7 M-2.5,-0.5L0,-3.0L2.5,-0.5"/>
                </g>
                <g id="arrowLeft" xlink:href="#dirArrow" transform="rotate(270) translate(-36 17)" onmousedown="handlePan(-1,0)">
                  <use xlink:href="#rim" fill="#404040">
                        <set attributeName="fill" to="#808080" begin="arrowLeft.mouseover" end="arrowLeft.mouseout"/>
                  </use>
                  <path fill="none" stroke="white" stroke-width="1.5" d="M0,-3.0v7 M-2.5,-0.5L0,-3.0L2.5,-0.5"/>
                </g>
        </g>
        <svg viewBox="0 0 15 15" width="100%" height="30px" preserveAspectRatio="xMaxYMin meet">
         <g id="arrow_out" transform="scale(0.3 0.3)">
          <a xlink:href="swapchain_8h__dep__incl_org.svg" target="_base">
           <rect id="button" ry="5" rx="5" y="6" x="6" height="38" width="38"
                fill="#f2f5e9" fill-opacity="0.5" stroke="#606060" stroke-width="1.0"/>
           <path id="arrow"
             d="M 11.500037,31.436501 C 11.940474,20.09759 22.043105,11.32322 32.158766,21.979434 L 37.068811,17.246167 C 37.068811,17.246167 37.088388,32 37.088388,32 L 22.160133,31.978069 C 22.160133,31.978069 26.997745,27.140456 26.997745,27.140456 C 18.528582,18.264221 13.291696,25.230495 11.500037,31.436501 z"
             style="fill:#404040;"/>
          </a>
         </g>
        </svg>
</svg>
