<?xml version="1.0" encoding="UTF-8" standalone="no"?>
<!DOCTYPE svg PUBLIC "-//W3C//DTD SVG 1.1//EN"
 "http://www.w3.org/Graphics/SVG/1.1/DTD/svg11.dtd">
<!-- Generated by graphviz version 2.49.3 (20211027.1501)
 -->
<!-- Title: /github/workspace/src/renderer/vulkan/swapchain.h Pages: 1 -->
<svg width="1992pt" height="431pt"
 viewBox="0.00 0.00 1992.00 431.00" xmlns="http://www.w3.org/2000/svg" xmlns:xlink="http://www.w3.org/1999/xlink">
<g id="graph0" class="graph" transform="scale(1 1) rotate(0) translate(4 427)">
<title>/github/workspace/src/renderer/vulkan/swapchain.h</title>
<!-- Node1 -->
<g id="node1" class="node">
<title>Node1</title>
<g id="a_node1"><a xlink:title=" ">
<polygon fill="#bfbfbf" stroke="black" points="1248.5,-392.5 1248.5,-422.5 1391.5,-422.5 1391.5,-392.5 1248.5,-392.5"/>
<text text-anchor="start" x="1256.5" y="-410.5" font-family="Helvetica,sans-Serif" font-size="10.00">/github/workspace/src</text>
<text text-anchor="middle" x="1320" y="-399.5" font-family="Helvetica,sans-Serif" font-size="10.00">/renderer/vulkan/swapchain.h</text>
</a>
</g>
</g>
<!-- Node2 -->
<g id="node2" class="node">
<title>Node2</title>
<g id="a_node2"><a xlink:title=" ">
<polygon fill="none" stroke="#bfbfbf" points="1677,-0.5 1677,-19.5 1761,-19.5 1761,-0.5 1677,-0.5"/>
<text text-anchor="middle" x="1719" y="-7.5" font-family="Helvetica,sans-Serif" font-size="10.00">vulkan/vulkan.h</text>
</a>
</g>
</g>
<!-- Node1&#45;&gt;Node2 -->
<g id="edge1" class="edge">
<title>Node1&#45;&gt;Node2</title>
<path fill="none" stroke="midnightblue" d="M1391.69,-401.48C1563.39,-388.49 1984,-350.6 1984,-291 1984,-291 1984,-291 1984,-121 1984,-29.83 1848.54,-12.8 1771.31,-10.49"/>
<polygon fill="midnightblue" stroke="midnightblue" points="1771.36,-6.99 1761.28,-10.27 1771.2,-13.99 1771.36,-6.99"/>
</g>
<!-- Node3 -->
<g id="node3" class="node">
<title>Node3</title>
<g id="a_node3"><a xlink:title=" ">
<polygon fill="none" stroke="#bfbfbf" points="104.5,-224.5 104.5,-243.5 183.5,-243.5 183.5,-224.5 104.5,-224.5"/>
<text text-anchor="middle" x="144" y="-231.5" font-family="Helvetica,sans-Serif" font-size="10.00">GLFW/glfw3.h</text>
</a>
</g>
</g>
<!-- Node1&#45;&gt;Node3 -->
<g id="edge2" class="edge">
<title>Node1&#45;&gt;Node3</title>
<path fill="none" stroke="midnightblue" d="M1248.25,-404.23C1037.4,-396.8 422.85,-369.59 236,-300 206.39,-288.97 177.51,-265.98 160.23,-250.51"/>
<polygon fill="midnightblue" stroke="midnightblue" points="162.46,-247.8 152.73,-243.61 157.72,-252.95 162.46,-247.8"/>
</g>
<!-- Node4 -->
<g id="node4" class="node">
<title>Node4</title>
<g id="a_node4"><a xlink:title=" ">
<polygon fill="none" stroke="#bfbfbf" points="1173,-280.5 1173,-299.5 1283,-299.5 1283,-280.5 1173,-280.5"/>
<text text-anchor="middle" x="1228" y="-287.5" font-family="Helvetica,sans-Serif" font-size="10.00">dexode/EventBus.hpp</text>
</a>
</g>
</g>
<!-- Node1&#45;&gt;Node4 -->
<g id="edge3" class="edge">
<title>Node1&#45;&gt;Node4</title>
<path fill="none" stroke="midnightblue" d="M1308.72,-392.34C1291.69,-370.96 1259.49,-330.53 1241.33,-307.73"/>
<polygon fill="midnightblue" stroke="midnightblue" points="1243.87,-305.31 1234.91,-299.67 1238.4,-309.67 1243.87,-305.31"/>
</g>
<!-- Node5 -->
<g id="node5" class="node">
<title>Node5</title>
<g id="a_node5"><a xlink:title=" ">
<polygon fill="none" stroke="#bfbfbf" points="1134,-0.5 1134,-19.5 1178,-19.5 1178,-0.5 1134,-0.5"/>
<text text-anchor="middle" x="1156" y="-7.5" font-family="Helvetica,sans-Serif" font-size="10.00">vector</text>
</a>
</g>
</g>
<!-- Node1&#45;&gt;Node5 -->
<g id="edge4" class="edge">
<title>Node1&#45;&gt;Node5</title>
<path fill="none" stroke="midnightblue" d="M1320,-392.28C1320,-370.48 1320,-327.49 1320,-291 1320,-291 1320,-291 1320,-177 1320,-146.9 1318.57,-136.44 1301,-112 1271.01,-70.29 1218.2,-39.93 1185.27,-23.92"/>
<polygon fill="midnightblue" stroke="midnightblue" points="1186.67,-20.71 1176.14,-19.6 1183.68,-27.04 1186.67,-20.71"/>
</g>
<!-- Node6 -->
<g id="node6" class="node">
<title>Node6</title>
<g id="a_node6"><a xlink:title=" ">
<polygon fill="none" stroke="#bfbfbf" points="8.5,-0.5 8.5,-19.5 67.5,-19.5 67.5,-0.5 8.5,-0.5"/>
<text text-anchor="middle" x="38" y="-7.5" font-family="Helvetica,sans-Serif" font-size="10.00">stdexcept</text>
</a>
</g>
</g>
<!-- Node1&#45;&gt;Node6 -->
<g id="edge5" class="edge">
<title>Node1&#45;&gt;Node6</title>
<path fill="none" stroke="midnightblue" d="M1248.29,-405.5C1005.09,-401.85 220.75,-387.72 112,-356 56.75,-339.88 0,-348.55 0,-291 0,-291 0,-291 0,-121 0,-86.81 16.6,-49.76 27.86,-28.57"/>
<polygon fill="midnightblue" stroke="midnightblue" points="30.95,-30.22 32.72,-19.77 24.82,-26.83 30.95,-30.22"/>
</g>
<!-- Node7 -->
<g id="node7" class="node">
<title>Node7</title>
<g id="a_node7"><a xlink:href="window_8h.html" target="_top" xlink:title=" ">
<polygon fill="none" stroke="black" points="121.5,-336.5 121.5,-355.5 178.5,-355.5 178.5,-336.5 121.5,-336.5"/>
<text text-anchor="middle" x="150" y="-343.5" font-family="Helvetica,sans-Serif" font-size="10.00">window.h</text>
</a>
</g>
</g>
<!-- Node1&#45;&gt;Node7 -->
<g id="edge6" class="edge">
<title>Node1&#45;&gt;Node7</title>
<path fill="none" stroke="midnightblue" d="M1248.28,-407.06C1069.64,-407.64 590.67,-404.16 195,-356 193.04,-355.76 191.04,-355.49 189.03,-355.18"/>
<polygon fill="midnightblue" stroke="midnightblue" points="189.39,-351.69 178.94,-353.46 188.21,-358.59 189.39,-351.69"/>
</g>
<!-- Node28 -->
<g id="node28" class="node">
<title>Node28</title>
<g id="a_node28"><a xlink:href="framebuffer_8h.html" target="_top" xlink:title=" ">
<polygon fill="none" stroke="black" points="1410.5,-336.5 1410.5,-355.5 1483.5,-355.5 1483.5,-336.5 1410.5,-336.5"/>
<text text-anchor="middle" x="1447" y="-343.5" font-family="Helvetica,sans-Serif" font-size="10.00">framebuffer.h</text>
</a>
</g>
</g>
<!-- Node1&#45;&gt;Node28 -->
<g id="edge61" class="edge">
<title>Node1&#45;&gt;Node28</title>
<path fill="none" stroke="midnightblue" d="M1344.26,-392.4C1364.19,-382.46 1392.43,-369.26 1414.33,-359.66"/>
<polygon fill="midnightblue" stroke="midnightblue" points="1415.8,-362.84 1423.59,-355.66 1413.02,-356.41 1415.8,-362.84"/>
</g>
<!-- Node33 -->
<g id="node33" class="node">
<title>Node33</title>
<g id="a_node33"><a xlink:href="semaphore_8h.html" target="_top" xlink:title=" ">
<polygon fill="none" stroke="black" points="1680,-112.5 1680,-131.5 1752,-131.5 1752,-112.5 1680,-112.5"/>
<text text-anchor="middle" x="1716" y="-119.5" font-family="Helvetica,sans-Serif" font-size="10.00">semaphore.h</text>
</a>
</g>
</g>
<!-- Node1&#45;&gt;Node33 -->
<g id="edge93" class="edge">
<title>Node1&#45;&gt;Node33</title>
<path fill="none" stroke="midnightblue" d="M1391.78,-395.9C1494.42,-379.38 1676.07,-344.72 1724,-300 1767.29,-259.61 1757.84,-225.05 1742,-168 1739.26,-158.13 1733.83,-148.16 1728.64,-140.12"/>
<polygon fill="midnightblue" stroke="midnightblue" points="1731.39,-137.94 1722.84,-131.7 1725.63,-141.92 1731.39,-137.94"/>
</g>
<!-- Node34 -->
<g id="node34" class="node">
<title>Node34</title>
<g id="a_node34"><a xlink:href="eventbus_8h.html" target="_top" xlink:title=" ">
<polygon fill="none" stroke="black" points="1182.5,-336.5 1182.5,-355.5 1253.5,-355.5 1253.5,-336.5 1182.5,-336.5"/>
<text text-anchor="middle" x="1218" y="-343.5" font-family="Helvetica,sans-Serif" font-size="10.00">../eventbus.h</text>
</a>
</g>
</g>
<!-- Node1&#45;&gt;Node34 -->
<g id="edge90" class="edge">
<title>Node1&#45;&gt;Node34</title>
<path fill="none" stroke="midnightblue" d="M1295.83,-392.4C1279.48,-382.86 1257.99,-370.32 1241.73,-360.84"/>
<polygon fill="midnightblue" stroke="midnightblue" points="1243.24,-357.67 1232.84,-355.66 1239.72,-363.72 1243.24,-357.67"/>
</g>
<!-- Node7&#45;&gt;Node3 -->
<g id="edge7" class="edge">
<title>Node7&#45;&gt;Node3</title>
<path fill="none" stroke="midnightblue" d="M149.53,-336.37C148.56,-318.62 146.33,-277.67 145.01,-253.6"/>
<polygon fill="midnightblue" stroke="midnightblue" points="148.51,-253.39 144.47,-243.59 141.52,-253.77 148.51,-253.39"/>
</g>
<!-- Node7&#45;&gt;Node6 -->
<g id="edge9" class="edge">
<title>Node7&#45;&gt;Node6</title>
<path fill="none" stroke="midnightblue" d="M129.98,-336.44C97.76,-321.17 38,-285.97 38,-235 38,-235 38,-235 38,-121 38,-88.95 38,-51.64 38,-29.75"/>
<polygon fill="midnightblue" stroke="midnightblue" points="41.5,-29.56 38,-19.56 34.5,-29.56 41.5,-29.56"/>
</g>
<!-- Node8 -->
<g id="node8" class="node">
<title>Node8</title>
<g id="a_node8"><a xlink:title=" ">
<polygon fill="none" stroke="#bfbfbf" points="93.5,-0.5 93.5,-19.5 134.5,-19.5 134.5,-0.5 93.5,-0.5"/>
<text text-anchor="middle" x="114" y="-7.5" font-family="Helvetica,sans-Serif" font-size="10.00">string</text>
</a>
</g>
</g>
<!-- Node7&#45;&gt;Node8 -->
<g id="edge8" class="edge">
<title>Node7&#45;&gt;Node8</title>
<path fill="none" stroke="midnightblue" d="M138.76,-336.36C118.06,-319.38 76,-279.42 76,-235 76,-235 76,-235 76,-121 76,-86.81 92.6,-49.76 103.86,-28.57"/>
<polygon fill="midnightblue" stroke="midnightblue" points="106.95,-30.22 108.72,-19.77 100.82,-26.83 106.95,-30.22"/>
</g>
<!-- Node9 -->
<g id="node9" class="node">
<title>Node9</title>
<g id="a_node9"><a xlink:href="instance_8h.html" target="_top" xlink:title=" ">
<polygon fill="none" stroke="black" points="425.5,-280.5 425.5,-299.5 486.5,-299.5 486.5,-280.5 425.5,-280.5"/>
<text text-anchor="middle" x="456" y="-287.5" font-family="Helvetica,sans-Serif" font-size="10.00">instance.h</text>
</a>
</g>
</g>
<!-- Node7&#45;&gt;Node9 -->
<g id="edge10" class="edge">
<title>Node7&#45;&gt;Node9</title>
<path fill="none" stroke="midnightblue" d="M178.51,-339.97C233.04,-330.35 352.28,-309.3 415.22,-298.2"/>
<polygon fill="midnightblue" stroke="midnightblue" points="415.95,-301.62 425.19,-296.44 414.73,-294.73 415.95,-301.62"/>
</g>
<!-- Node9&#45;&gt;Node2 -->
<g id="edge11" class="edge">
<title>Node9&#45;&gt;Node2</title>
<path fill="none" stroke="midnightblue" d="M486.82,-289.04C636.04,-289.01 1284.24,-286.39 1481,-244 1612.02,-215.77 1685.86,-242.99 1761,-132 1783.54,-98.71 1753.29,-52.09 1733.58,-27.57"/>
<polygon fill="midnightblue" stroke="midnightblue" points="1736.01,-25.03 1726.91,-19.61 1730.64,-29.52 1736.01,-25.03"/>
</g>
<!-- Node9&#45;&gt;Node3 -->
<g id="edge12" class="edge">
<title>Node9&#45;&gt;Node3</title>
<path fill="none" stroke="midnightblue" d="M425.23,-283.67C371.16,-274.32 258.68,-254.85 193.55,-243.58"/>
<polygon fill="midnightblue" stroke="midnightblue" points="193.97,-240.1 183.52,-241.84 192.77,-246.99 193.97,-240.1"/>
</g>
<!-- Node9&#45;&gt;Node5 -->
<g id="edge13" class="edge">
<title>Node9&#45;&gt;Node5</title>
<path fill="none" stroke="midnightblue" d="M486.83,-280.85C533.37,-268.5 616.47,-246.23 619,-244 642.45,-223.3 646,-210.28 646,-179 646,-179 646,-179 646,-121 646,-22.83 1011.63,-12.04 1123.72,-11.04"/>
<polygon fill="midnightblue" stroke="midnightblue" points="1123.78,-14.54 1133.76,-10.97 1123.73,-7.54 1123.78,-14.54"/>
</g>
<!-- Node10 -->
<g id="node10" class="node">
<title>Node10</title>
<g id="a_node10"><a xlink:title=" ">
<polygon fill="none" stroke="#bfbfbf" points="363,-0.5 363,-19.5 409,-19.5 409,-0.5 363,-0.5"/>
<text text-anchor="middle" x="386" y="-7.5" font-family="Helvetica,sans-Serif" font-size="10.00">cstring</text>
</a>
</g>
</g>
<!-- Node9&#45;&gt;Node10 -->
<g id="edge14" class="edge">
<title>Node9&#45;&gt;Node10</title>
<path fill="none" stroke="midnightblue" d="M453.83,-280.38C444.09,-241.7 404.33,-83.79 390.65,-29.47"/>
<polygon fill="midnightblue" stroke="midnightblue" points="393.98,-28.37 388.15,-19.52 387.19,-30.08 393.98,-28.37"/>
</g>
<!-- Node11 -->
<g id="node11" class="node">
<title>Node11</title>
<g id="a_node11"><a xlink:title=" ">
<polygon fill="none" stroke="#bfbfbf" points="182,-0.5 182,-19.5 236,-19.5 236,-0.5 182,-0.5"/>
<text text-anchor="middle" x="209" y="-7.5" font-family="Helvetica,sans-Serif" font-size="10.00">iostream</text>
</a>
</g>
</g>
<!-- Node9&#45;&gt;Node11 -->
<g id="edge15" class="edge">
<title>Node9&#45;&gt;Node11</title>
<path fill="none" stroke="midnightblue" d="M425.13,-282.2C376.03,-270.14 279.05,-241.14 214,-188 166.72,-149.38 157.01,-114.02 176,-56 179.49,-45.34 186.57,-35.12 193.29,-27.12"/>
<polygon fill="midnightblue" stroke="midnightblue" points="195.9,-29.44 199.98,-19.66 190.7,-24.76 195.9,-29.44"/>
</g>
<!-- Node12 -->
<g id="node12" class="node">
<title>Node12</title>
<g id="a_node12"><a xlink:href="physicaldevice_8h.html" target="_top" xlink:title=" ">
<polygon fill="none" stroke="black" points="522,-224.5 522,-243.5 610,-243.5 610,-224.5 522,-224.5"/>
<text text-anchor="middle" x="566" y="-231.5" font-family="Helvetica,sans-Serif" font-size="10.00">physicaldevice.h</text>
</a>
</g>
</g>
<!-- Node9&#45;&gt;Node12 -->
<g id="edge16" class="edge">
<title>Node9&#45;&gt;Node12</title>
<path fill="none" stroke="midnightblue" d="M468.56,-280.32C484.54,-271.55 512.14,-257.88 533.99,-247.84"/>
<polygon fill="midnightblue" stroke="midnightblue" points="535.59,-250.96 543.26,-243.65 532.71,-244.58 535.59,-250.96"/>
</g>
<!-- Node12&#45;&gt;Node5 -->
<g id="edge22" class="edge">
<title>Node12&#45;&gt;Node5</title>
<path fill="none" stroke="midnightblue" d="M566.22,-224.12C567.46,-194.51 575.86,-98.66 632,-56 671.14,-26.26 1015.24,-14.71 1123.53,-11.79"/>
<polygon fill="midnightblue" stroke="midnightblue" points="1123.92,-15.28 1133.83,-11.52 1123.74,-8.29 1123.92,-15.28"/>
</g>
<!-- Node12&#45;&gt;Node8 -->
<g id="edge18" class="edge">
<title>Node12&#45;&gt;Node8</title>
<path fill="none" stroke="midnightblue" d="M530.58,-224.49C458.81,-206.08 293.13,-157.5 176,-76 156.49,-62.43 138.24,-41.98 126.66,-27.66"/>
<polygon fill="midnightblue" stroke="midnightblue" points="129.3,-25.34 120.36,-19.64 123.79,-29.67 129.3,-25.34"/>
</g>
<!-- Node12&#45;&gt;Node9 -->
<g id="edge30" class="edge">
<title>Node12&#45;&gt;Node9</title>
<path fill="none" stroke="midnightblue" d="M553.73,-243.52C537.76,-252.31 509.85,-266.13 487.84,-276.23"/>
<polygon fill="midnightblue" stroke="midnightblue" points="486.19,-273.14 478.52,-280.44 489.07,-279.52 486.19,-273.14"/>
</g>
<!-- Node12&#45;&gt;Node11 -->
<g id="edge20" class="edge">
<title>Node12&#45;&gt;Node11</title>
<path fill="none" stroke="midnightblue" d="M546.36,-224.46C527.25,-215.93 497.58,-202.1 473,-188 378.26,-133.67 272.21,-57.55 228.97,-25.81"/>
<polygon fill="midnightblue" stroke="midnightblue" points="230.85,-22.85 220.72,-19.73 226.7,-28.48 230.85,-22.85"/>
</g>
<!-- Node13 -->
<g id="node13" class="node">
<title>Node13</title>
<g id="a_node13"><a xlink:title=" ">
<polygon fill="none" stroke="#bfbfbf" points="1184,-112.5 1184,-131.5 1292,-131.5 1292,-112.5 1184,-112.5"/>
<text text-anchor="middle" x="1238" y="-119.5" font-family="Helvetica,sans-Serif" font-size="10.00">vulkan/vulkan_core.h</text>
</a>
</g>
</g>
<!-- Node12&#45;&gt;Node13 -->
<g id="edge17" class="edge">
<title>Node12&#45;&gt;Node13</title>
<path fill="none" stroke="midnightblue" d="M610.16,-231.2C690.82,-227.34 867.11,-216.18 1013,-188 1082.07,-174.66 1160.56,-149.66 1204.18,-134.86"/>
<polygon fill="midnightblue" stroke="midnightblue" points="1205.39,-138.14 1213.72,-131.59 1203.12,-131.52 1205.39,-138.14"/>
</g>
<!-- Node14 -->
<g id="node14" class="node">
<title>Node14</title>
<g id="a_node14"><a xlink:title=" ">
<polygon fill="none" stroke="#bfbfbf" points="496,-0.5 496,-19.5 526,-19.5 526,-0.5 496,-0.5"/>
<text text-anchor="middle" x="511" y="-7.5" font-family="Helvetica,sans-Serif" font-size="10.00">set</text>
</a>
</g>
</g>
<!-- Node12&#45;&gt;Node14 -->
<g id="edge19" class="edge">
<title>Node12&#45;&gt;Node14</title>
<path fill="none" stroke="midnightblue" d="M558.6,-224.22C540.04,-201.53 491.77,-138.37 475,-76 472.69,-67.42 472.06,-64.39 475,-56 478.79,-45.21 486.37,-35.08 493.6,-27.18"/>
<polygon fill="midnightblue" stroke="midnightblue" points="496.33,-29.4 500.84,-19.81 491.33,-24.49 496.33,-29.4"/>
</g>
<!-- Node15 -->
<g id="node15" class="node">
<title>Node15</title>
<g id="a_node15"><a xlink:title=" ">
<polygon fill="none" stroke="#bfbfbf" points="303.5,-0.5 303.5,-19.5 344.5,-19.5 344.5,-0.5 303.5,-0.5"/>
<text text-anchor="middle" x="324" y="-7.5" font-family="Helvetica,sans-Serif" font-size="10.00">bitset</text>
</a>
</g>
</g>
<!-- Node12&#45;&gt;Node15 -->
<g id="edge21" class="edge">
<title>Node12&#45;&gt;Node15</title>
<path fill="none" stroke="midnightblue" d="M551.56,-224.47C537.58,-215.95 516.06,-202.11 499,-188 434.21,-134.39 366.79,-60 338.19,-27.41"/>
<polygon fill="midnightblue" stroke="midnightblue" points="340.69,-24.95 331.48,-19.71 335.41,-29.55 340.69,-24.95"/>
</g>
<!-- Node16 -->
<g id="node16" class="node">
<title>Node16</title>
<g id="a_node16"><a xlink:title=" ">
<polygon fill="none" stroke="#bfbfbf" points="427.5,-0.5 427.5,-19.5 478.5,-19.5 478.5,-0.5 427.5,-0.5"/>
<text text-anchor="middle" x="453" y="-7.5" font-family="Helvetica,sans-Serif" font-size="10.00">memory</text>
</a>
</g>
</g>
<!-- Node12&#45;&gt;Node16 -->
<g id="edge23" class="edge">
<title>Node12&#45;&gt;Node16</title>
<path fill="none" stroke="midnightblue" d="M554.01,-224.34C542.95,-215.93 526.54,-202.36 515,-188 475.98,-139.42 460.65,-64.56 455.4,-29.86"/>
<polygon fill="midnightblue" stroke="midnightblue" points="458.83,-29.15 453.98,-19.73 451.9,-30.12 458.83,-29.15"/>
</g>
<!-- Node17 -->
<g id="node17" class="node">
<title>Node17</title>
<g id="a_node17"><a xlink:href="types_8h.html" target="_top" xlink:title=" ">
<polygon fill="none" stroke="black" points="694.5,-168.5 694.5,-187.5 741.5,-187.5 741.5,-168.5 694.5,-168.5"/>
<text text-anchor="middle" x="718" y="-175.5" font-family="Helvetica,sans-Serif" font-size="10.00">types.h</text>
</a>
</g>
</g>
<!-- Node12&#45;&gt;Node17 -->
<g id="edge24" class="edge">
<title>Node12&#45;&gt;Node17</title>
<path fill="none" stroke="midnightblue" d="M590.08,-224.44C615.54,-215.4 655.89,-201.06 684.46,-190.92"/>
<polygon fill="midnightblue" stroke="midnightblue" points="685.78,-194.16 694.03,-187.52 683.43,-187.57 685.78,-194.16"/>
</g>
<!-- Node19 -->
<g id="node19" class="node">
<title>Node19</title>
<g id="a_node19"><a xlink:href="vulkanclass_8h.html" target="_top" xlink:title=" ">
<polygon fill="none" stroke="black" points="1558,-56.5 1558,-75.5 1634,-75.5 1634,-56.5 1558,-56.5"/>
<text text-anchor="middle" x="1596" y="-63.5" font-family="Helvetica,sans-Serif" font-size="10.00">vulkanclass.h</text>
</a>
</g>
</g>
<!-- Node12&#45;&gt;Node19 -->
<g id="edge28" class="edge">
<title>Node12&#45;&gt;Node19</title>
<path fill="none" stroke="midnightblue" d="M610.17,-231.72C774.45,-226.44 1349.24,-203.16 1516,-132 1542.11,-120.86 1566.58,-98.57 1581.41,-83.22"/>
<polygon fill="midnightblue" stroke="midnightblue" points="1584.34,-85.22 1588.61,-75.53 1579.23,-80.44 1584.34,-85.22"/>
</g>
<!-- Node20 -->
<g id="node20" class="node">
<title>Node20</title>
<g id="a_node20"><a xlink:href="queues_8h.html" target="_top" xlink:title=" ">
<polygon fill="none" stroke="black" points="948,-168.5 948,-187.5 1004,-187.5 1004,-168.5 948,-168.5"/>
<text text-anchor="middle" x="976" y="-175.5" font-family="Helvetica,sans-Serif" font-size="10.00">queues.h</text>
</a>
</g>
</g>
<!-- Node12&#45;&gt;Node20 -->
<g id="edge31" class="edge">
<title>Node12&#45;&gt;Node20</title>
<path fill="none" stroke="midnightblue" d="M610.09,-226.59C690.95,-215.53 861.3,-193.12 937.68,-183.53"/>
<polygon fill="midnightblue" stroke="midnightblue" points="938.32,-186.97 947.81,-182.26 937.45,-180.03 938.32,-186.97"/>
</g>
<!-- Node17&#45;&gt;Node2 -->
<g id="edge25" class="edge">
<title>Node17&#45;&gt;Node2</title>
<path fill="none" stroke="midnightblue" d="M735.56,-168.47C765.47,-154.32 828.57,-126.16 885,-112 1174.24,-39.42 1533.46,-18.35 1666.37,-12.81"/>
<polygon fill="midnightblue" stroke="midnightblue" points="1666.82,-16.29 1676.67,-12.39 1666.54,-9.3 1666.82,-16.29"/>
</g>
<!-- Node17&#45;&gt;Node5 -->
<g id="edge26" class="edge">
<title>Node17&#45;&gt;Node5</title>
<path fill="none" stroke="midnightblue" d="M711.95,-168.41C703.25,-154.93 689.67,-128.63 703,-112 756.14,-45.71 1029.1,-20.1 1123.69,-13.13"/>
<polygon fill="midnightblue" stroke="midnightblue" points="1124.08,-16.61 1133.81,-12.41 1123.58,-9.63 1124.08,-16.61"/>
</g>
<!-- Node18 -->
<g id="node18" class="node">
<title>Node18</title>
<g id="a_node18"><a xlink:title=" ">
<polygon fill="none" stroke="#bfbfbf" points="712,-112.5 712,-131.5 762,-131.5 762,-112.5 712,-112.5"/>
<text text-anchor="middle" x="737" y="-119.5" font-family="Helvetica,sans-Serif" font-size="10.00">optional</text>
</a>
</g>
</g>
<!-- Node17&#45;&gt;Node18 -->
<g id="edge27" class="edge">
<title>Node17&#45;&gt;Node18</title>
<path fill="none" stroke="midnightblue" d="M721.14,-168.08C723.68,-160.85 727.36,-150.41 730.53,-141.4"/>
<polygon fill="midnightblue" stroke="midnightblue" points="733.9,-142.35 733.92,-131.75 727.3,-140.02 733.9,-142.35"/>
</g>
<!-- Node19&#45;&gt;Node2 -->
<g id="edge29" class="edge">
<title>Node19&#45;&gt;Node2</title>
<path fill="none" stroke="midnightblue" d="M1615.49,-56.44C1635.64,-47.6 1667.32,-33.69 1690.33,-23.59"/>
<polygon fill="midnightblue" stroke="midnightblue" points="1691.85,-26.74 1699.6,-19.52 1689.04,-20.33 1691.85,-26.74"/>
</g>
<!-- Node20&#45;&gt;Node5 -->
<g id="edge33" class="edge">
<title>Node20&#45;&gt;Node5</title>
<path fill="none" stroke="midnightblue" d="M1004.36,-169.23C1050.02,-156.69 1134.88,-133.26 1136,-132 1161.36,-103.67 1161.07,-55.99 1158.58,-29.74"/>
<polygon fill="midnightblue" stroke="midnightblue" points="1162.03,-29.15 1157.4,-19.62 1155.08,-29.96 1162.03,-29.15"/>
</g>
<!-- Node20&#45;&gt;Node7 -->
<g id="edge55" class="edge">
<title>Node20&#45;&gt;Node7</title>
<path fill="none" stroke="midnightblue" d="M947.8,-187.33C874.03,-208.84 669.04,-266.88 495,-300 384.83,-320.97 253,-335.19 188.87,-341.42"/>
<polygon fill="midnightblue" stroke="midnightblue" points="188.42,-337.95 178.8,-342.39 189.09,-344.92 188.42,-337.95"/>
</g>
<!-- Node20&#45;&gt;Node12 -->
<g id="edge54" class="edge">
<title>Node20&#45;&gt;Node12</title>
<path fill="none" stroke="midnightblue" d="M947.98,-183.19C880.54,-192.55 708.84,-215.2 620.38,-226.44"/>
<polygon fill="midnightblue" stroke="midnightblue" points="619.75,-222.99 610.27,-227.72 620.63,-229.94 619.75,-222.99"/>
</g>
<!-- Node20&#45;&gt;Node13 -->
<g id="edge32" class="edge">
<title>Node20&#45;&gt;Node13</title>
<path fill="none" stroke="midnightblue" d="M1004.04,-171.22C1047.53,-162.26 1131.94,-144.86 1186.59,-133.6"/>
<polygon fill="midnightblue" stroke="midnightblue" points="1187.34,-137.01 1196.43,-131.57 1185.93,-130.16 1187.34,-137.01"/>
</g>
<!-- Node20&#45;&gt;Node15 -->
<g id="edge37" class="edge">
<title>Node20&#45;&gt;Node15</title>
<path fill="none" stroke="midnightblue" d="M947.78,-172.22C913.02,-165.74 852.61,-152.57 804,-132 788.21,-125.32 787.21,-117.61 771,-112 645.75,-68.69 602.94,-110.55 475,-76 428.71,-63.5 378.14,-39.41 348.85,-24.33"/>
<polygon fill="midnightblue" stroke="midnightblue" points="350.25,-21.11 339.77,-19.59 347.01,-27.32 350.25,-21.11"/>
</g>
<!-- Node20&#45;&gt;Node18 -->
<g id="edge36" class="edge">
<title>Node20&#45;&gt;Node18</title>
<path fill="none" stroke="midnightblue" d="M947.84,-170.71C909.11,-162.06 837.25,-145.96 776,-132 774.74,-131.71 773.46,-131.42 772.17,-131.13"/>
<polygon fill="midnightblue" stroke="midnightblue" points="772.7,-127.66 762.17,-128.83 771.13,-134.48 772.7,-127.66"/>
</g>
<!-- Node20&#45;&gt;Node19 -->
<g id="edge40" class="edge">
<title>Node20&#45;&gt;Node19</title>
<path fill="none" stroke="midnightblue" d="M1004.08,-176.06C1096.55,-172.72 1390.76,-160.08 1481,-132 1517.18,-120.74 1554.57,-96.94 1576.53,-81.47"/>
<polygon fill="midnightblue" stroke="midnightblue" points="1578.61,-84.29 1584.68,-75.61 1574.52,-78.61 1578.61,-84.29"/>
</g>
<!-- Node21 -->
<g id="node21" class="node">
<title>Node21</title>
<g id="a_node21"><a xlink:title=" ">
<polygon fill="none" stroke="#bfbfbf" points="894.5,-112.5 894.5,-131.5 929.5,-131.5 929.5,-112.5 894.5,-112.5"/>
<text text-anchor="middle" x="912" y="-119.5" font-family="Helvetica,sans-Serif" font-size="10.00">map</text>
</a>
</g>
</g>
<!-- Node20&#45;&gt;Node21 -->
<g id="edge34" class="edge">
<title>Node20&#45;&gt;Node21</title>
<path fill="none" stroke="midnightblue" d="M965.72,-168.32C956.16,-160.26 941.72,-148.08 930.22,-138.37"/>
<polygon fill="midnightblue" stroke="midnightblue" points="932.37,-135.61 922.47,-131.83 927.86,-140.96 932.37,-135.61"/>
</g>
<!-- Node22 -->
<g id="node22" class="node">
<title>Node22</title>
<g id="a_node22"><a xlink:title=" ">
<polygon fill="none" stroke="#bfbfbf" points="948,-112.5 948,-131.5 1004,-131.5 1004,-112.5 948,-112.5"/>
<text text-anchor="middle" x="976" y="-119.5" font-family="Helvetica,sans-Serif" font-size="10.00">algorithm</text>
</a>
</g>
</g>
<!-- Node20&#45;&gt;Node22 -->
<g id="edge35" class="edge">
<title>Node20&#45;&gt;Node22</title>
<path fill="none" stroke="midnightblue" d="M976,-168.08C976,-161.01 976,-150.86 976,-141.99"/>
<polygon fill="midnightblue" stroke="midnightblue" points="979.5,-141.75 976,-131.75 972.5,-141.75 979.5,-141.75"/>
</g>
<!-- Node23 -->
<g id="node23" class="node">
<title>Node23</title>
<g id="a_node23"><a xlink:title=" ">
<polygon fill="none" stroke="#bfbfbf" points="1022,-112.5 1022,-131.5 1066,-131.5 1066,-112.5 1022,-112.5"/>
<text text-anchor="middle" x="1044" y="-119.5" font-family="Helvetica,sans-Serif" font-size="10.00">thread</text>
</a>
</g>
</g>
<!-- Node20&#45;&gt;Node23 -->
<g id="edge38" class="edge">
<title>Node20&#45;&gt;Node23</title>
<path fill="none" stroke="midnightblue" d="M986.93,-168.32C997.17,-160.18 1012.72,-147.84 1025,-138.09"/>
<polygon fill="midnightblue" stroke="midnightblue" points="1027.22,-140.79 1032.88,-131.83 1022.87,-135.31 1027.22,-140.79"/>
</g>
<!-- Node24 -->
<g id="node24" class="node">
<title>Node24</title>
<g id="a_node24"><a xlink:title=" ">
<polygon fill="none" stroke="#bfbfbf" points="1084.5,-112.5 1084.5,-131.5 1127.5,-131.5 1127.5,-112.5 1084.5,-112.5"/>
<text text-anchor="middle" x="1106" y="-119.5" font-family="Helvetica,sans-Serif" font-size="10.00">mutex</text>
</a>
</g>
</g>
<!-- Node20&#45;&gt;Node24 -->
<g id="edge39" class="edge">
<title>Node20&#45;&gt;Node24</title>
<path fill="none" stroke="midnightblue" d="M996.6,-168.44C1017.99,-159.56 1051.68,-145.56 1076.02,-135.45"/>
<polygon fill="midnightblue" stroke="midnightblue" points="1077.61,-138.58 1085.5,-131.52 1074.92,-132.12 1077.61,-138.58"/>
</g>
<!-- Node25 -->
<g id="node25" class="node">
<title>Node25</title>
<g id="a_node25"><a xlink:href="device_8h.html" target="_top" xlink:title=" ">
<polygon fill="none" stroke="black" points="484.5,-56.5 484.5,-75.5 537.5,-75.5 537.5,-56.5 484.5,-56.5"/>
<text text-anchor="middle" x="511" y="-63.5" font-family="Helvetica,sans-Serif" font-size="10.00">device.h</text>
</a>
</g>
</g>
<!-- Node20&#45;&gt;Node25 -->
<g id="edge41" class="edge">
<title>Node20&#45;&gt;Node25</title>
<path fill="none" stroke="midnightblue" d="M957.33,-168.46C926.2,-154.56 861.43,-127.08 804,-112 713.51,-88.23 603.8,-75.53 547.78,-70.16"/>
<polygon fill="midnightblue" stroke="midnightblue" points="547.92,-66.66 537.64,-69.21 547.27,-73.63 547.92,-66.66"/>
</g>
<!-- Node27 -->
<g id="node27" class="node">
<title>Node27</title>
<g id="a_node27"><a xlink:href="fence_8h.html" target="_top" xlink:title=" ">
<polygon fill="none" stroke="black" points="1424,-112.5 1424,-131.5 1472,-131.5 1472,-112.5 1424,-112.5"/>
<text text-anchor="middle" x="1448" y="-119.5" font-family="Helvetica,sans-Serif" font-size="10.00">fence.h</text>
</a>
</g>
</g>
<!-- Node20&#45;&gt;Node27 -->
<g id="edge56" class="edge">
<title>Node20&#45;&gt;Node27</title>
<path fill="none" stroke="midnightblue" d="M1004.11,-173.78C1086.02,-164.41 1324.31,-137.15 1413.64,-126.93"/>
<polygon fill="midnightblue" stroke="midnightblue" points="1414.24,-130.39 1423.78,-125.77 1413.45,-123.43 1414.24,-130.39"/>
</g>
<!-- Node25&#45;&gt;Node2 -->
<g id="edge42" class="edge">
<title>Node25&#45;&gt;Node2</title>
<path fill="none" stroke="midnightblue" d="M537.61,-63.83C654.22,-58.73 1131.83,-37.76 1524,-20 1572.33,-17.81 1627.39,-15.27 1666.65,-13.44"/>
<polygon fill="midnightblue" stroke="midnightblue" points="1666.95,-16.93 1676.78,-12.97 1666.63,-9.94 1666.95,-16.93"/>
</g>
<!-- Node25&#45;&gt;Node5 -->
<g id="edge44" class="edge">
<title>Node25&#45;&gt;Node5</title>
<path fill="none" stroke="midnightblue" d="M537.52,-61.93C553.81,-60.1 575.1,-57.78 594,-56 795.16,-37.04 1037.31,-19.4 1123.56,-13.28"/>
<polygon fill="midnightblue" stroke="midnightblue" points="1124.03,-16.75 1133.76,-12.56 1123.54,-9.77 1124.03,-16.75"/>
</g>
<!-- Node25&#45;&gt;Node6 -->
<g id="edge45" class="edge">
<title>Node25&#45;&gt;Node6</title>
<path fill="none" stroke="midnightblue" d="M484.41,-63.02C417.13,-57.83 234.75,-42.65 84,-20 81.93,-19.69 79.8,-19.35 77.66,-18.99"/>
<polygon fill="midnightblue" stroke="midnightblue" points="78.09,-15.51 67.63,-17.2 76.86,-22.4 78.09,-15.51"/>
</g>
<!-- Node25&#45;&gt;Node8 -->
<g id="edge46" class="edge">
<title>Node25&#45;&gt;Node8</title>
<path fill="none" stroke="midnightblue" d="M484.25,-61.61C427.07,-54.34 288.74,-36.53 173,-20 163.86,-18.69 153.93,-17.21 144.87,-15.82"/>
<polygon fill="midnightblue" stroke="midnightblue" points="145.15,-12.32 134.74,-14.26 144.09,-19.24 145.15,-12.32"/>
</g>
<!-- Node25&#45;&gt;Node9 -->
<g id="edge53" class="edge">
<title>Node25&#45;&gt;Node9</title>
<path fill="none" stroke="midnightblue" d="M508.8,-75.88C500.61,-108.92 471.82,-225.14 460.56,-270.58"/>
<polygon fill="midnightblue" stroke="midnightblue" points="457.16,-269.75 458.16,-280.3 463.96,-271.43 457.16,-269.75"/>
</g>
<!-- Node25&#45;&gt;Node10 -->
<g id="edge48" class="edge">
<title>Node25&#45;&gt;Node10</title>
<path fill="none" stroke="midnightblue" d="M491.19,-56.44C470.71,-47.6 438.52,-33.69 415.14,-23.59"/>
<polygon fill="midnightblue" stroke="midnightblue" points="416.28,-20.27 405.71,-19.52 413.51,-26.7 416.28,-20.27"/>
</g>
<!-- Node25&#45;&gt;Node11 -->
<g id="edge49" class="edge">
<title>Node25&#45;&gt;Node11</title>
<path fill="none" stroke="midnightblue" d="M484.46,-60.26C430.58,-50.62 308.24,-28.74 246.34,-17.68"/>
<polygon fill="midnightblue" stroke="midnightblue" points="246.69,-14.18 236.24,-15.87 245.46,-21.08 246.69,-14.18"/>
</g>
<!-- Node25&#45;&gt;Node12 -->
<g id="edge52" class="edge">
<title>Node25&#45;&gt;Node12</title>
<path fill="none" stroke="midnightblue" d="M513.84,-75.57C522.38,-101.34 547.97,-178.59 559.84,-214.39"/>
<polygon fill="midnightblue" stroke="midnightblue" points="556.58,-215.68 563.04,-224.08 563.22,-213.48 556.58,-215.68"/>
</g>
<!-- Node25&#45;&gt;Node14 -->
<g id="edge47" class="edge">
<title>Node25&#45;&gt;Node14</title>
<path fill="none" stroke="midnightblue" d="M511,-56.08C511,-49.01 511,-38.86 511,-29.99"/>
<polygon fill="midnightblue" stroke="midnightblue" points="514.5,-29.75 511,-19.75 507.5,-29.75 514.5,-29.75"/>
</g>
<!-- Node25&#45;&gt;Node15 -->
<g id="edge50" class="edge">
<title>Node25&#45;&gt;Node15</title>
<path fill="none" stroke="midnightblue" d="M484.3,-57.46C454.87,-49.12 405.88,-35.17 354.3,-20.06"/>
<polygon fill="midnightblue" stroke="midnightblue" points="355.23,-16.69 344.65,-17.23 353.26,-23.4 355.23,-16.69"/>
</g>
<!-- Node25&#45;&gt;Node16 -->
<g id="edge51" class="edge">
<title>Node25&#45;&gt;Node16</title>
<path fill="none" stroke="midnightblue" d="M501.68,-56.32C493.11,-48.34 480.19,-36.31 469.81,-26.65"/>
<polygon fill="midnightblue" stroke="midnightblue" points="472.19,-24.09 462.49,-19.83 467.42,-29.21 472.19,-24.09"/>
</g>
<!-- Node26 -->
<g id="node26" class="node">
<title>Node26</title>
<g id="a_node26"><a xlink:title=" ">
<polygon fill="none" stroke="#bfbfbf" points="1427.5,-0.5 1427.5,-19.5 1514.5,-19.5 1514.5,-0.5 1427.5,-0.5"/>
<text text-anchor="middle" x="1471" y="-7.5" font-family="Helvetica,sans-Serif" font-size="10.00">vk_mem_alloc.h</text>
</a>
</g>
</g>
<!-- Node25&#45;&gt;Node26 -->
<g id="edge43" class="edge">
<title>Node25&#45;&gt;Node26</title>
<path fill="none" stroke="midnightblue" d="M537.68,-63.5C667.95,-56.17 1238.17,-24.1 1417.09,-14.03"/>
<polygon fill="midnightblue" stroke="midnightblue" points="1417.53,-17.51 1427.31,-13.46 1417.13,-10.52 1417.53,-17.51"/>
</g>
<!-- Node27&#45;&gt;Node2 -->
<g id="edge57" class="edge">
<title>Node27&#45;&gt;Node2</title>
<path fill="none" stroke="midnightblue" d="M1458.85,-112.37C1476.68,-98.58 1513.7,-71.56 1549,-56 1587.01,-39.24 1632.64,-27.58 1667.05,-20.34"/>
<polygon fill="midnightblue" stroke="midnightblue" points="1667.8,-23.76 1676.9,-18.32 1666.4,-16.9 1667.8,-23.76"/>
</g>
<!-- Node27&#45;&gt;Node19 -->
<g id="edge59" class="edge">
<title>Node27&#45;&gt;Node19</title>
<path fill="none" stroke="midnightblue" d="M1471.45,-112.44C1496.13,-103.44 1535.19,-89.19 1562.98,-79.05"/>
<polygon fill="midnightblue" stroke="midnightblue" points="1564.46,-82.23 1572.66,-75.52 1562.06,-75.66 1564.46,-82.23"/>
</g>
<!-- Node27&#45;&gt;Node25 -->
<g id="edge60" class="edge">
<title>Node27&#45;&gt;Node25</title>
<path fill="none" stroke="midnightblue" d="M1423.81,-119.49C1394.68,-117.67 1344.26,-114.56 1301,-112 1010.72,-94.85 660.37,-75.29 547.75,-69.04"/>
<polygon fill="midnightblue" stroke="midnightblue" points="547.78,-65.53 537.6,-68.47 547.39,-72.52 547.78,-65.53"/>
</g>
<!-- Node27&#45;&gt;Node26 -->
<g id="edge58" class="edge">
<title>Node27&#45;&gt;Node26</title>
<path fill="none" stroke="midnightblue" d="M1449.8,-112.37C1453.52,-94.62 1462.08,-53.67 1467.11,-29.6"/>
<polygon fill="midnightblue" stroke="midnightblue" points="1470.58,-30.1 1469.2,-19.59 1463.73,-28.66 1470.58,-30.1"/>
</g>
<!-- Node28&#45;&gt;Node1 -->
<g id="edge84" class="edge">
<title>Node28&#45;&gt;Node1</title>
<path fill="none" stroke="midnightblue" d="M1433.45,-355.66C1417.13,-364.16 1389.34,-377.39 1365.28,-388.23"/>
<polygon fill="midnightblue" stroke="midnightblue" points="1363.64,-385.13 1355.94,-392.4 1366.5,-391.52 1363.64,-385.13"/>
</g>
<!-- Node28&#45;&gt;Node2 -->
<g id="edge62" class="edge">
<title>Node28&#45;&gt;Node2</title>
<path fill="none" stroke="midnightblue" d="M1483.68,-342.59C1553.89,-337.49 1704.36,-324.05 1750,-300 1775.84,-286.38 1887.1,-177.9 1905,-132 1914.23,-108.33 1889.76,-57.7 1888,-56 1857.06,-26.11 1808.6,-15.52 1771.5,-12.03"/>
<polygon fill="midnightblue" stroke="midnightblue" points="1771.6,-8.52 1761.35,-11.22 1771.05,-15.5 1771.6,-8.52"/>
</g>
<!-- Node28&#45;&gt;Node5 -->
<g id="edge63" class="edge">
<title>Node28&#45;&gt;Node5</title>
<path fill="none" stroke="midnightblue" d="M1432.7,-336.4C1407.54,-320.06 1358,-281.92 1358,-235 1358,-235 1358,-235 1358,-177 1358,-116.57 1344.37,-92.22 1296,-56 1263.92,-31.97 1218.54,-20.49 1188.23,-15.21"/>
<polygon fill="midnightblue" stroke="midnightblue" points="1188.62,-11.72 1178.19,-13.58 1187.5,-18.63 1188.62,-11.72"/>
</g>
<!-- Node28&#45;&gt;Node19 -->
<g id="edge64" class="edge">
<title>Node28&#45;&gt;Node19</title>
<path fill="none" stroke="midnightblue" d="M1457.81,-336.32C1489.65,-309.9 1582.3,-226.44 1606,-132 1609.91,-116.43 1606.51,-98.35 1602.64,-85.22"/>
<polygon fill="midnightblue" stroke="midnightblue" points="1605.9,-83.91 1599.44,-75.51 1599.25,-86.11 1605.9,-83.91"/>
</g>
<!-- Node28&#45;&gt;Node25 -->
<g id="edge65" class="edge">
<title>Node28&#45;&gt;Node25</title>
<path fill="none" stroke="midnightblue" d="M1410.35,-343.14C1373.21,-341.27 1314.12,-338.34 1263,-336 1215.95,-333.85 448.59,-334 416,-300 353.81,-235.11 452.94,-124.03 494.26,-82.91"/>
<polygon fill="midnightblue" stroke="midnightblue" points="496.77,-85.36 501.47,-75.87 491.87,-80.35 496.77,-85.36"/>
</g>
<!-- Node29 -->
<g id="node29" class="node">
<title>Node29</title>
<g id="a_node29"><a xlink:href="renderpass_8h.html" target="_top" xlink:title=" ">
<polygon fill="none" stroke="black" points="1808,-112.5 1808,-131.5 1880,-131.5 1880,-112.5 1808,-112.5"/>
<text text-anchor="middle" x="1844" y="-119.5" font-family="Helvetica,sans-Serif" font-size="10.00">renderpass.h</text>
</a>
</g>
</g>
<!-- Node28&#45;&gt;Node29 -->
<g id="edge66" class="edge">
<title>Node28&#45;&gt;Node29</title>
<path fill="none" stroke="midnightblue" d="M1483.66,-342.63C1549.54,-337.79 1684.73,-325.06 1724,-300 1785.24,-260.92 1822.97,-178.16 1837.35,-141.34"/>
<polygon fill="midnightblue" stroke="midnightblue" points="1840.67,-142.45 1840.93,-131.86 1834.12,-139.98 1840.67,-142.45"/>
</g>
<!-- Node31 -->
<g id="node31" class="node">
<title>Node31</title>
<g id="a_node31"><a xlink:href="imageview_8h.html" target="_top" xlink:title=" ">
<polygon fill="none" stroke="black" points="1411.5,-280.5 1411.5,-299.5 1482.5,-299.5 1482.5,-280.5 1411.5,-280.5"/>
<text text-anchor="middle" x="1447" y="-287.5" font-family="Helvetica,sans-Serif" font-size="10.00">imageview.h</text>
</a>
</g>
</g>
<!-- Node28&#45;&gt;Node31 -->
<g id="edge73" class="edge">
<title>Node28&#45;&gt;Node31</title>
<path fill="none" stroke="midnightblue" d="M1447,-336.08C1447,-329.01 1447,-318.86 1447,-309.99"/>
<polygon fill="midnightblue" stroke="midnightblue" points="1450.5,-309.75 1447,-299.75 1443.5,-309.75 1450.5,-309.75"/>
</g>
<!-- Node28&#45;&gt;Node33 -->
<g id="edge85" class="edge">
<title>Node28&#45;&gt;Node33</title>
<path fill="none" stroke="midnightblue" d="M1483.7,-343.95C1547.59,-341.28 1675.22,-331.99 1704,-300 1743.78,-255.78 1730.37,-177.56 1721.39,-141.8"/>
<polygon fill="midnightblue" stroke="midnightblue" points="1724.67,-140.52 1718.7,-131.77 1717.91,-142.34 1724.67,-140.52"/>
</g>
<!-- Node29&#45;&gt;Node1 -->
<g id="edge72" class="edge">
<title>Node29&#45;&gt;Node1</title>
<path fill="none" stroke="midnightblue" d="M1855.24,-131.64C1875.94,-148.62 1918,-188.58 1918,-233 1918,-291 1918,-291 1918,-291 1918,-342.98 1565.2,-383.25 1401.56,-399.13"/>
<polygon fill="midnightblue" stroke="midnightblue" points="1401.16,-395.66 1391.54,-400.1 1401.83,-402.62 1401.16,-395.66"/>
</g>
<!-- Node29&#45;&gt;Node2 -->
<g id="edge67" class="edge">
<title>Node29&#45;&gt;Node2</title>
<path fill="none" stroke="midnightblue" d="M1848.23,-112.5C1854.22,-99.13 1863.15,-72.98 1851,-56 1832.85,-30.64 1799.55,-19.41 1770.93,-14.5"/>
<polygon fill="midnightblue" stroke="midnightblue" points="1771.45,-11.04 1761.04,-13.02 1770.41,-17.97 1771.45,-11.04"/>
</g>
<!-- Node29&#45;&gt;Node5 -->
<g id="edge68" class="edge">
<title>Node29&#45;&gt;Node5</title>
<path fill="none" stroke="midnightblue" d="M1823,-112.5C1786.87,-98.27 1710.36,-69.83 1643,-56 1474.19,-21.35 1266.96,-13.36 1188.32,-11.53"/>
<polygon fill="midnightblue" stroke="midnightblue" points="1188.17,-8.03 1178.1,-11.31 1188.02,-15.03 1188.17,-8.03"/>
</g>
<!-- Node29&#45;&gt;Node19 -->
<g id="edge71" class="edge">
<title>Node29&#45;&gt;Node19</title>
<path fill="none" stroke="midnightblue" d="M1807.94,-113.15C1764.67,-103.73 1691.97,-87.9 1643.99,-77.45"/>
<polygon fill="midnightblue" stroke="midnightblue" points="1644.66,-74.01 1634.14,-75.31 1643.17,-80.85 1644.66,-74.01"/>
</g>
<!-- Node29&#45;&gt;Node25 -->
<g id="edge70" class="edge">
<title>Node29&#45;&gt;Node25</title>
<path fill="none" stroke="midnightblue" d="M1807.69,-116.49C1793.19,-114.84 1776.32,-113.11 1761,-112 1282.45,-77.49 698.82,-69.03 547.97,-67.36"/>
<polygon fill="midnightblue" stroke="midnightblue" points="547.9,-63.86 537.87,-67.25 547.83,-70.86 547.9,-63.86"/>
</g>
<!-- Node30 -->
<g id="node30" class="node">
<title>Node30</title>
<g id="a_node30"><a xlink:title=" ">
<polygon fill="none" stroke="#bfbfbf" points="1804,-56.5 1804,-75.5 1842,-75.5 1842,-56.5 1804,-56.5"/>
<text text-anchor="middle" x="1823" y="-63.5" font-family="Helvetica,sans-Serif" font-size="10.00">array</text>
</a>
</g>
</g>
<!-- Node29&#45;&gt;Node30 -->
<g id="edge69" class="edge">
<title>Node29&#45;&gt;Node30</title>
<path fill="none" stroke="midnightblue" d="M1840.53,-112.08C1837.69,-104.77 1833.57,-94.18 1830.04,-85.1"/>
<polygon fill="midnightblue" stroke="midnightblue" points="1833.29,-83.8 1826.4,-75.75 1826.77,-86.34 1833.29,-83.8"/>
</g>
<!-- Node31&#45;&gt;Node2 -->
<g id="edge74" class="edge">
<title>Node31&#45;&gt;Node2</title>
<path fill="none" stroke="midnightblue" d="M1482.66,-289.37C1570.63,-288.09 1797.47,-270.88 1889,-132 1903.36,-110.21 1879.83,-67.08 1868,-56 1841.84,-31.5 1802.79,-20.31 1771.22,-15.21"/>
<polygon fill="midnightblue" stroke="midnightblue" points="1771.67,-11.74 1761.27,-13.76 1770.66,-18.66 1771.67,-11.74"/>
</g>
<!-- Node31&#45;&gt;Node11 -->
<g id="edge83" class="edge">
<title>Node31&#45;&gt;Node11</title>
<path fill="none" stroke="midnightblue" d="M1411.3,-286.81C1379.89,-284.91 1332.92,-282.13 1292,-280 1118.94,-270.98 677.25,-299.27 513,-244 381.56,-199.77 262.52,-72.96 222.91,-27.48"/>
<polygon fill="midnightblue" stroke="midnightblue" points="225.43,-25.05 216.26,-19.75 220.12,-29.61 225.43,-25.05"/>
</g>
<!-- Node32 -->
<g id="node32" class="node">
<title>Node32</title>
<g id="a_node32"><a xlink:href="image_8h.html" target="_top" xlink:title=" ">
<polygon fill="none" stroke="black" points="1422,-224.5 1422,-243.5 1472,-243.5 1472,-224.5 1422,-224.5"/>
<text text-anchor="middle" x="1447" y="-231.5" font-family="Helvetica,sans-Serif" font-size="10.00">image.h</text>
</a>
</g>
</g>
<!-- Node31&#45;&gt;Node32 -->
<g id="edge75" class="edge">
<title>Node31&#45;&gt;Node32</title>
<path fill="none" stroke="midnightblue" d="M1441.83,-280.08C1440.32,-272.93 1439.89,-262.64 1440.54,-253.69"/>
<polygon fill="midnightblue" stroke="midnightblue" points="1444.02,-254.13 1441.87,-243.75 1437.08,-253.2 1444.02,-254.13"/>
</g>
<!-- Node32&#45;&gt;Node5 -->
<g id="edge82" class="edge">
<title>Node32&#45;&gt;Node5</title>
<path fill="none" stroke="midnightblue" d="M1444.17,-224.29C1434.27,-195.25 1398.2,-100.97 1334,-56 1289.73,-24.99 1226.02,-15.32 1188.04,-12.32"/>
<polygon fill="midnightblue" stroke="midnightblue" points="1188.26,-8.83 1178.05,-11.64 1187.78,-15.81 1188.26,-8.83"/>
</g>
<!-- Node32&#45;&gt;Node13 -->
<g id="edge76" class="edge">
<title>Node32&#45;&gt;Node13</title>
<path fill="none" stroke="midnightblue" d="M1430.6,-224.37C1394.28,-205.25 1306.84,-159.23 1263.39,-136.36"/>
<polygon fill="midnightblue" stroke="midnightblue" points="1264.8,-133.15 1254.32,-131.59 1261.54,-139.35 1264.8,-133.15"/>
</g>
<!-- Node32&#45;&gt;Node19 -->
<g id="edge79" class="edge">
<title>Node32&#45;&gt;Node19</title>
<path fill="none" stroke="midnightblue" d="M1472.06,-226.65C1494.8,-219.93 1528.29,-207.56 1552,-188 1575.2,-168.86 1579.85,-160.31 1590,-132 1595.32,-117.15 1596.63,-99.23 1596.72,-85.97"/>
<polygon fill="midnightblue" stroke="midnightblue" points="1600.21,-85.65 1596.55,-75.71 1593.21,-85.76 1600.21,-85.65"/>
</g>
<!-- Node32&#45;&gt;Node20 -->
<g id="edge80" class="edge">
<title>Node32&#45;&gt;Node20</title>
<path fill="none" stroke="midnightblue" d="M1421.68,-230.1C1343.76,-221.16 1107.25,-194.05 1014.19,-183.38"/>
<polygon fill="midnightblue" stroke="midnightblue" points="1014.42,-179.88 1004.09,-182.22 1013.63,-186.84 1014.42,-179.88"/>
</g>
<!-- Node32&#45;&gt;Node25 -->
<g id="edge78" class="edge">
<title>Node32&#45;&gt;Node25</title>
<path fill="none" stroke="midnightblue" d="M1422,-233.33C1306.68,-234.58 825.73,-236.72 685,-188 619.18,-165.21 555.55,-109.96 526.87,-82.72"/>
<polygon fill="midnightblue" stroke="midnightblue" points="529.05,-79.96 519.43,-75.53 524.19,-84.99 529.05,-79.96"/>
</g>
<!-- Node32&#45;&gt;Node26 -->
<g id="edge77" class="edge">
<title>Node32&#45;&gt;Node26</title>
<path fill="none" stroke="midnightblue" d="M1457.99,-224.37C1467.45,-216.17 1480.44,-202.92 1486,-188 1506.43,-133.22 1488.38,-62.51 1477.63,-29.5"/>
<polygon fill="midnightblue" stroke="midnightblue" points="1480.88,-28.17 1474.34,-19.83 1474.25,-30.43 1480.88,-28.17"/>
</g>
<!-- Node32&#45;&gt;Node31 -->
<g id="edge81" class="edge">
<title>Node32&#45;&gt;Node31</title>
<path fill="none" stroke="midnightblue" d="M1452.13,-243.75C1453.66,-250.86 1454.1,-261.14 1453.47,-270.1"/>
<polygon fill="midnightblue" stroke="midnightblue" points="1449.99,-269.71 1452.17,-280.08 1456.93,-270.62 1449.99,-269.71"/>
</g>
<!-- Node33&#45;&gt;Node2 -->
<g id="edge86" class="edge">
<title>Node33&#45;&gt;Node2</title>
<path fill="none" stroke="midnightblue" d="M1716.24,-112.37C1716.72,-94.62 1717.84,-53.67 1718.49,-29.6"/>
<polygon fill="midnightblue" stroke="midnightblue" points="1721.99,-29.68 1718.77,-19.59 1714.99,-29.49 1721.99,-29.68"/>
</g>
<!-- Node33&#45;&gt;Node19 -->
<g id="edge88" class="edge">
<title>Node33&#45;&gt;Node19</title>
<path fill="none" stroke="midnightblue" d="M1696.99,-112.44C1677.41,-103.64 1646.69,-89.81 1624.27,-79.72"/>
<polygon fill="midnightblue" stroke="midnightblue" points="1625.48,-76.43 1614.93,-75.52 1622.61,-82.81 1625.48,-76.43"/>
</g>
<!-- Node33&#45;&gt;Node25 -->
<g id="edge89" class="edge">
<title>Node33&#45;&gt;Node25</title>
<path fill="none" stroke="midnightblue" d="M1679.94,-119.38C1502.83,-111.45 726.54,-76.66 547.79,-68.65"/>
<polygon fill="midnightblue" stroke="midnightblue" points="547.74,-65.14 537.6,-68.19 547.43,-72.14 547.74,-65.14"/>
</g>
<!-- Node33&#45;&gt;Node26 -->
<g id="edge87" class="edge">
<title>Node33&#45;&gt;Node26</title>
<path fill="none" stroke="midnightblue" d="M1708.85,-112.42C1696.75,-98.46 1670.82,-70.9 1643,-56 1606.1,-36.24 1560.03,-24.79 1524.86,-18.38"/>
<polygon fill="midnightblue" stroke="midnightblue" points="1525.23,-14.9 1514.78,-16.63 1524.03,-21.79 1525.23,-14.9"/>
</g>
<!-- Node34&#45;&gt;Node4 -->
<g id="edge91" class="edge">
<title>Node34&#45;&gt;Node4</title>
<path fill="none" stroke="midnightblue" d="M1219.65,-336.08C1220.98,-328.93 1222.88,-318.64 1224.54,-309.69"/>
<polygon fill="midnightblue" stroke="midnightblue" points="1228,-310.22 1226.38,-299.75 1221.12,-308.95 1228,-310.22"/>
</g>
<!-- Node34&#45;&gt;Node25 -->
<g id="edge92" class="edge">
<title>Node34&#45;&gt;Node25</title>
<path fill="none" stroke="midnightblue" d="M1182.46,-344.47C1024.74,-341.96 394.53,-330.07 366,-300 325.63,-257.44 339.54,-220.36 366,-168 388.7,-123.07 441.87,-94.25 477.12,-79.34"/>
<polygon fill="midnightblue" stroke="midnightblue" points="478.6,-82.51 486.55,-75.5 475.97,-76.03 478.6,-82.51"/>
</g>
</g>
</svg>
