<?xml version="1.0" encoding="UTF-8" standalone="no"?>
<!DOCTYPE svg PUBLIC "-//W3C//DTD SVG 1.1//EN"
 "http://www.w3.org/Graphics/SVG/1.1/DTD/svg11.dtd">
<!-- Generated by graphviz version 3.0.0 (20220413.0106)
 -->
<!-- Title: /github/workspace/src/renderer/ui/uirenderer.h Pages: 1 -->
<!--zoomable 307 -->
<svg id="main" version="1.1" xmlns="http://www.w3.org/2000/svg" xmlns:xlink="http://www.w3.org/1999/xlink" xml:space="preserve" onload="init(evt)">
<style type="text/css"><![CDATA[
.edge:hover path { stroke: red; }
.edge:hover polygon { stroke: red; fill: red; }
]]></style>
<script type="text/javascript"><![CDATA[
var edges = document.getElementsByTagName('g');
if (edges && edges.length) {
  for (var i=0;i<edges.length;i++) {
    if (edges[i].id.substr(0,4)=='edge') {
      edges[i].setAttribute('class','edge');
    }
  }
}
]]></script>
        <defs>
                <circle id="rim" cx="0" cy="0" r="7"/>
                <circle id="rim2" cx="0" cy="0" r="3.5"/>
                <g id="zoomPlus">
                        <use xlink:href="#rim" fill="#404040">
                                <set attributeName="fill" to="#808080" begin="zoomplus.mouseover" end="zoomplus.mouseout"/>
                        </use>
                        <path d="M-4,0h8M0,-4v8" fill="none" stroke="white" stroke-width="1.5" pointer-events="none"/>
                </g>
                <g id="zoomMin">
                        <use xlink:href="#rim" fill="#404040">
                                <set attributeName="fill" to="#808080" begin="zoomminus.mouseover" end="zoomminus.mouseout"/>
                        </use>
                        <path d="M-4,0h8" fill="none" stroke="white" stroke-width="1.5" pointer-events="none"/>
                </g>
                <g id="dirArrow">
                        <path fill="none" stroke="white" stroke-width="1.5" d="M0,-3.0v7 M-2.5,-0.5L0,-3.0L2.5,-0.5"/>
                </g>
               <g id="resetDef">
                       <use xlink:href="#rim2" fill="#404040">
                               <set attributeName="fill" to="#808080" begin="reset.mouseover" end="reset.mouseout"/>
                       </use>
               </g>
        </defs>

<script type="text/javascript">
var viewWidth = 1494;
var viewHeight = 307;
var sectionId = 'dynsection-1';
</script>
<script xlink:href="svgpan.js"/>
<svg id="graph" class="graph">
<g id="viewport">
<title>/github/workspace/src/renderer/ui/uirenderer.h</title>
<!-- Node1 -->
<g id="node1" class="node">
<title>Node1</title>
<g id="a_node1"><a xlink:title=" ">
<polygon fill="#bfbfbf" stroke="black" points="1006.81,-268.5 1006.81,-298.5 1125.81,-298.5 1125.81,-268.5 1006.81,-268.5"/>
<text text-anchor="start" x="1014.81" y="-286.5" font-family="Helvetica,sans-Serif" font-size="10.00">/github/workspace/src</text>
<text text-anchor="middle" x="1066.31" y="-275.5" font-family="Helvetica,sans-Serif" font-size="10.00">/renderer/ui/uirenderer.h</text>
</a>
</g>
</g>
<!-- Node2 -->
<g id="node2" class="node">
<title>Node2</title>
<g id="a_node2"><a xlink:href="rendermanager_8h.html" target="_top" xlink:title=" ">
<polygon fill="none" stroke="black" points="301.31,-201.5 301.31,-231.5 431.31,-231.5 431.31,-201.5 301.31,-201.5"/>
<text text-anchor="start" x="309.31" y="-219.5" font-family="Helvetica,sans-Serif" font-size="10.00">/github/workspace/src</text>
<text text-anchor="middle" x="366.31" y="-208.5" font-family="Helvetica,sans-Serif" font-size="10.00">/renderer/rendermanager.h</text>
</a>
</g>
</g>
<!-- Node1&#45;&gt;Node2 -->
<g id="edge1" class="edge">
<title>Node1&#45;&gt;Node2</title>
<path fill="none" stroke="midnightblue" d="M996.35,-276C860.58,-263.4 563.18,-235.78 431.39,-223.54"/>
<polygon fill="midnightblue" stroke="midnightblue" points="996.34,-279.52 1006.62,-276.96 996.99,-272.55 996.34,-279.52"/>
</g>
<!-- Node6 -->
<g id="node6" class="node">
<title>Node6</title>
<g id="a_node6"><a xlink:href="mainmenu_8h.html" target="_top" xlink:title=" ">
<polygon fill="none" stroke="black" points="442.81,-67.5 442.81,-97.5 563.81,-97.5 563.81,-67.5 442.81,-67.5"/>
<text text-anchor="start" x="450.81" y="-85.5" font-family="Helvetica,sans-Serif" font-size="10.00">/github/workspace/src</text>
<text text-anchor="middle" x="503.31" y="-74.5" font-family="Helvetica,sans-Serif" font-size="10.00">/renderer/ui/mainmenu.h</text>
</a>
</g>
</g>
<!-- Node1&#45;&gt;Node6 -->
<g id="edge31" class="edge">
<title>Node1&#45;&gt;Node6</title>
<path fill="none" stroke="midnightblue" d="M1003.64,-265.71C927.48,-244.72 795.5,-206.49 685.31,-165 629.9,-144.14 567.31,-114.78 531.85,-97.59"/>
<polygon fill="midnightblue" stroke="midnightblue" points="1002.98,-269.16 1013.55,-268.43 1004.83,-262.41 1002.98,-269.16"/>
</g>
<!-- Node8 -->
<g id="node8" class="node">
<title>Node8</title>
<g id="a_node8"><a xlink:href="main_8cpp.html" target="_top" xlink:title=" ">
<polygon fill="none" stroke="black" points="357.81,-0.5 357.81,-30.5 470.81,-30.5 470.81,-0.5 357.81,-0.5"/>
<text text-anchor="start" x="365.81" y="-18.5" font-family="Helvetica,sans-Serif" font-size="10.00">/github/workspace/src</text>
<text text-anchor="middle" x="414.31" y="-7.5" font-family="Helvetica,sans-Serif" font-size="10.00">/tests/main.cpp</text>
</a>
</g>
</g>
<!-- Node1&#45;&gt;Node8 -->
<g id="edge35" class="edge">
<title>Node1&#45;&gt;Node8</title>
<path fill="none" stroke="midnightblue" d="M996.41,-280.3C771.56,-272.46 77.93,-242.17 17.31,-165 -74.75,-47.82 227.23,-23.11 357.47,-17.89"/>
<polygon fill="midnightblue" stroke="midnightblue" points="996.33,-283.8 1006.44,-280.64 996.57,-276.8 996.33,-283.8"/>
</g>
<!-- Node9 -->
<g id="node9" class="node">
<title>Node9</title>
<g id="a_node9"><a xlink:href="vulkan__voxel__rasterizer__3_8cpp.html" target="_top" xlink:title=" ">
<polygon fill="none" stroke="black" points="1083.31,-0.5 1083.31,-30.5 1257.31,-30.5 1257.31,-0.5 1083.31,-0.5"/>
<text text-anchor="start" x="1091.31" y="-18.5" font-family="Helvetica,sans-Serif" font-size="10.00">/github/workspace/src</text>
<text text-anchor="middle" x="1170.31" y="-7.5" font-family="Helvetica,sans-Serif" font-size="10.00">/tests/vulkan_voxel_rasterizer_3.cpp</text>
</a>
</g>
</g>
<!-- Node1&#45;&gt;Node9 -->
<g id="edge36" class="edge">
<title>Node1&#45;&gt;Node9</title>
<path fill="none" stroke="midnightblue" d="M1110.35,-264.27C1168.36,-237.54 1267.87,-181.63 1309.31,-98 1315.42,-85.65 1317.21,-78.28 1309.31,-67 1296.93,-49.34 1277.71,-37.83 1257.47,-30.34"/>
<polygon fill="midnightblue" stroke="midnightblue" points="1108.74,-261.16 1101.06,-268.46 1111.62,-267.54 1108.74,-261.16"/>
</g>
<!-- Node10 -->
<g id="node10" class="node">
<title>Node10</title>
<g id="a_node10"><a xlink:href="vulkan__voxel__rasterizer__4_8cpp.html" target="_top" xlink:title=" ">
<polygon fill="none" stroke="black" points="747.31,-0.5 747.31,-30.5 921.31,-30.5 921.31,-0.5 747.31,-0.5"/>
<text text-anchor="start" x="755.31" y="-18.5" font-family="Helvetica,sans-Serif" font-size="10.00">/github/workspace/src</text>
<text text-anchor="middle" x="834.31" y="-7.5" font-family="Helvetica,sans-Serif" font-size="10.00">/tests/vulkan_voxel_rasterizer_4.cpp</text>
</a>
</g>
</g>
<!-- Node1&#45;&gt;Node10 -->
<g id="edge37" class="edge">
<title>Node1&#45;&gt;Node10</title>
<path fill="none" stroke="midnightblue" d="M1075.42,-258.79C1090.38,-215.41 1114.27,-122.66 1069.31,-67 1059.72,-55.13 984.39,-40.34 921.56,-29.84"/>
<polygon fill="midnightblue" stroke="midnightblue" points="1072.03,-257.86 1071.94,-268.46 1078.62,-260.23 1072.03,-257.86"/>
</g>
<!-- Node11 -->
<g id="node11" class="node">
<title>Node11</title>
<g id="a_node11"><a xlink:href="objectlist_8h.html" target="_top" xlink:title=" ">
<polygon fill="none" stroke="black" points="944.81,-67.5 944.81,-97.5 1059.81,-97.5 1059.81,-67.5 944.81,-67.5"/>
<text text-anchor="start" x="952.81" y="-85.5" font-family="Helvetica,sans-Serif" font-size="10.00">/github/workspace/src</text>
<text text-anchor="middle" x="1002.31" y="-74.5" font-family="Helvetica,sans-Serif" font-size="10.00">/renderer/ui/objectlist.h</text>
</a>
</g>
</g>
<!-- Node1&#45;&gt;Node11 -->
<g id="edge32" class="edge">
<title>Node1&#45;&gt;Node11</title>
<path fill="none" stroke="midnightblue" d="M1058.6,-258.53C1045.13,-216.65 1017.71,-131.4 1006.87,-97.68"/>
<polygon fill="midnightblue" stroke="midnightblue" points="1055.31,-259.74 1061.7,-268.19 1061.97,-257.6 1055.31,-259.74"/>
</g>
<!-- Node13 -->
<g id="node13" class="node">
<title>Node13</title>
<g id="a_node13"><a xlink:href="objectproperties_8h.html" target="_top" xlink:title=" ">
<polygon fill="none" stroke="black" points="1154.81,-67.5 1154.81,-97.5 1299.81,-97.5 1299.81,-67.5 1154.81,-67.5"/>
<text text-anchor="start" x="1162.81" y="-85.5" font-family="Helvetica,sans-Serif" font-size="10.00">/github/workspace/src</text>
<text text-anchor="middle" x="1227.31" y="-74.5" font-family="Helvetica,sans-Serif" font-size="10.00">/renderer/ui/objectproperties.h</text>
</a>
</g>
</g>
<!-- Node1&#45;&gt;Node13 -->
<g id="edge33" class="edge">
<title>Node1&#45;&gt;Node13</title>
<path fill="none" stroke="midnightblue" d="M1084.21,-260.37C1117.52,-219.19 1188.15,-131.9 1215.83,-97.68"/>
<polygon fill="midnightblue" stroke="midnightblue" points="1081.45,-258.21 1077.88,-268.19 1086.89,-262.62 1081.45,-258.21"/>
</g>
<!-- Node18 -->
<g id="node18" class="node">
<title>Node18</title>
<g id="a_node18"><a xlink:href="uirenderer_8cpp.html" target="_top" xlink:title=" ">
<polygon fill="none" stroke="black" points="1356.81,-201.5 1356.81,-231.5 1485.81,-231.5 1485.81,-201.5 1356.81,-201.5"/>
<text text-anchor="start" x="1364.81" y="-219.5" font-family="Helvetica,sans-Serif" font-size="10.00">/github/workspace/src</text>
<text text-anchor="middle" x="1421.31" y="-208.5" font-family="Helvetica,sans-Serif" font-size="10.00">/renderer/ui/uirenderer.cpp</text>
</a>
</g>
</g>
<!-- Node1&#45;&gt;Node18 -->
<g id="edge34" class="edge">
<title>Node1&#45;&gt;Node18</title>
<path fill="none" stroke="midnightblue" d="M1136.2,-269.72C1191.99,-259.52 1272.16,-244.85 1342.31,-232 1346.97,-231.15 1351.79,-230.26 1356.64,-229.37"/>
<polygon fill="midnightblue" stroke="midnightblue" points="1135.28,-266.33 1126.07,-271.57 1136.53,-273.22 1135.28,-266.33"/>
</g>
<!-- Node3 -->
<g id="node3" class="node">
<title>Node3</title>
<g id="a_node3"><a xlink:href="rendermanager_8cpp.html" target="_top" xlink:title=" ">
<polygon fill="none" stroke="black" points="26.31,-134.5 26.31,-164.5 166.31,-164.5 166.31,-134.5 26.31,-134.5"/>
<text text-anchor="start" x="34.31" y="-152.5" font-family="Helvetica,sans-Serif" font-size="10.00">/github/workspace/src</text>
<text text-anchor="middle" x="96.31" y="-141.5" font-family="Helvetica,sans-Serif" font-size="10.00">/renderer/rendermanager.cpp</text>
</a>
</g>
</g>
<!-- Node2&#45;&gt;Node3 -->
<g id="edge2" class="edge">
<title>Node2&#45;&gt;Node3</title>
<path fill="none" stroke="midnightblue" d="M298.26,-199.12C254.08,-188.48 197.09,-174.76 154.92,-164.61"/>
<polygon fill="midnightblue" stroke="midnightblue" points="297.51,-202.54 308.05,-201.48 299.15,-195.73 297.51,-202.54"/>
</g>
<!-- Node4 -->
<g id="node4" class="node">
<title>Node4</title>
<g id="a_node4"><a xlink:href="scene_8h.html" target="_top" xlink:title=" ">
<polygon fill="none" stroke="black" points="693.81,-134.5 693.81,-164.5 806.81,-164.5 806.81,-134.5 693.81,-134.5"/>
<text text-anchor="start" x="701.81" y="-152.5" font-family="Helvetica,sans-Serif" font-size="10.00">/github/workspace/src</text>
<text text-anchor="middle" x="750.31" y="-141.5" font-family="Helvetica,sans-Serif" font-size="10.00">/renderer/scene.h</text>
</a>
</g>
</g>
<!-- Node2&#45;&gt;Node4 -->
<g id="edge3" class="edge">
<title>Node2&#45;&gt;Node4</title>
<path fill="none" stroke="midnightblue" d="M441.56,-201.81C515.59,-188.98 626.83,-170.2 693.67,-159.28"/>
<polygon fill="midnightblue" stroke="midnightblue" points="440.63,-198.42 431.37,-203.58 441.82,-205.32 440.63,-198.42"/>
</g>
<!-- Node2&#45;&gt;Node8 -->
<g id="edge29" class="edge">
<title>Node2&#45;&gt;Node8</title>
<path fill="none" stroke="midnightblue" d="M290.99,-207.99C263.53,-201.19 235.12,-188.5 218.31,-165 192.96,-129.58 191.62,-101.43 218.31,-67 235.31,-45.06 305.98,-30.96 357.6,-23.39"/>
<polygon fill="midnightblue" stroke="midnightblue" points="290.52,-211.47 301.04,-210.24 292.05,-204.64 290.52,-211.47"/>
</g>
<!-- Node2&#45;&gt;Node10 -->
<g id="edge30" class="edge">
<title>Node2&#45;&gt;Node10</title>
<path fill="none" stroke="midnightblue" d="M332.45,-196.08C285.68,-166.92 211.34,-110.57 251.31,-67 259.59,-57.97 586.74,-33.85 747.26,-22.53"/>
<polygon fill="midnightblue" stroke="midnightblue" points="330.75,-199.15 341.11,-201.37 334.4,-193.17 330.75,-199.15"/>
</g>
<!-- Node16 -->
<g id="node16" class="node">
<title>Node16</title>
<g id="a_node16"><a xlink:href="scenewriter_8h.html" target="_top" xlink:title=" ">
<polygon fill="none" stroke="black" points="308.31,-134.5 308.31,-164.5 424.31,-164.5 424.31,-134.5 308.31,-134.5"/>
<text text-anchor="start" x="316.31" y="-152.5" font-family="Helvetica,sans-Serif" font-size="10.00">/github/workspace/src</text>
<text text-anchor="middle" x="366.31" y="-141.5" font-family="Helvetica,sans-Serif" font-size="10.00">/renderer/scenewriter.h</text>
</a>
</g>
</g>
<!-- Node2&#45;&gt;Node16 -->
<g id="edge25" class="edge">
<title>Node2&#45;&gt;Node16</title>
<path fill="none" stroke="midnightblue" d="M359.76,-191.4C359.31,-182.37 359.6,-172.41 360.63,-164.58"/>
<polygon fill="midnightblue" stroke="midnightblue" points="356.28,-191.74 360.63,-201.4 363.25,-191.13 356.28,-191.74"/>
</g>
<!-- Node4&#45;&gt;Node2 -->
<g id="edge4" class="edge">
<title>Node4&#45;&gt;Node2</title>
<path fill="none" stroke="midnightblue" d="M683.47,-162.73C612.61,-175.05 501.55,-193.82 431.37,-205.34"/>
<polygon fill="midnightblue" stroke="midnightblue" points="684.37,-166.13 693.62,-160.96 683.17,-159.23 684.37,-166.13"/>
</g>
<!-- Node5 -->
<g id="node5" class="node">
<title>Node5</title>
<g id="a_node5"><a xlink:href="scene_8cpp.html" target="_top" xlink:title=" ">
<polygon fill="none" stroke="black" points="774.81,-67.5 774.81,-97.5 887.81,-97.5 887.81,-67.5 774.81,-67.5"/>
<text text-anchor="start" x="782.81" y="-85.5" font-family="Helvetica,sans-Serif" font-size="10.00">/github/workspace/src</text>
<text text-anchor="middle" x="831.31" y="-74.5" font-family="Helvetica,sans-Serif" font-size="10.00">/renderer/scene.cpp</text>
</a>
</g>
</g>
<!-- Node4&#45;&gt;Node5 -->
<g id="edge5" class="edge">
<title>Node4&#45;&gt;Node5</title>
<path fill="none" stroke="midnightblue" d="M776,-127.88C788.31,-118.01 802.73,-106.43 813.76,-97.58"/>
<polygon fill="midnightblue" stroke="midnightblue" points="773.49,-125.41 767.88,-134.4 777.87,-130.87 773.49,-125.41"/>
</g>
<!-- Node4&#45;&gt;Node6 -->
<g id="edge6" class="edge">
<title>Node4&#45;&gt;Node6</title>
<path fill="none" stroke="midnightblue" d="M687.29,-131.92C646.98,-121.31 595.26,-107.7 556.93,-97.61"/>
<polygon fill="midnightblue" stroke="midnightblue" points="686.45,-135.32 697.01,-134.48 688.23,-128.55 686.45,-135.32"/>
</g>
<!-- Node4&#45;&gt;Node8 -->
<g id="edge21" class="edge">
<title>Node4&#45;&gt;Node8</title>
<path fill="none" stroke="midnightblue" d="M683.48,-146.29C601.68,-142.19 469.67,-130.58 434.31,-98 415.55,-80.73 413.09,-48.98 413.41,-30.63"/>
<polygon fill="midnightblue" stroke="midnightblue" points="683.53,-149.8 693.68,-146.78 683.86,-142.8 683.53,-149.8"/>
</g>
<!-- Node4&#45;&gt;Node9 -->
<g id="edge23" class="edge">
<title>Node4&#45;&gt;Node9</title>
<path fill="none" stroke="midnightblue" d="M817.31,-147.86C883.89,-144.97 987.59,-134.3 1069.31,-98 1105.55,-81.9 1139.69,-49.42 1157.5,-30.69"/>
<polygon fill="midnightblue" stroke="midnightblue" points="816.81,-144.37 806.95,-148.26 817.08,-151.37 816.81,-144.37"/>
</g>
<!-- Node4&#45;&gt;Node10 -->
<g id="edge24" class="edge">
<title>Node4&#45;&gt;Node10</title>
<path fill="none" stroke="midnightblue" d="M816.85,-142.77C846.54,-136.51 878.92,-123.75 897.31,-98 914.55,-73.84 882.94,-46.74 858.59,-30.68"/>
<polygon fill="midnightblue" stroke="midnightblue" points="816.07,-139.35 806.9,-144.65 817.38,-146.23 816.07,-139.35"/>
</g>
<!-- Node4&#45;&gt;Node11 -->
<g id="edge11" class="edge">
<title>Node4&#45;&gt;Node11</title>
<path fill="none" stroke="midnightblue" d="M814.6,-131.92C855.72,-121.31 908.49,-107.7 947.6,-97.61"/>
<polygon fill="midnightblue" stroke="midnightblue" points="813.48,-128.59 804.68,-134.48 815.23,-135.37 813.48,-128.59"/>
</g>
<!-- Node4&#45;&gt;Node13 -->
<g id="edge16" class="edge">
<title>Node4&#45;&gt;Node13</title>
<path fill="none" stroke="midnightblue" d="M817.04,-140.61C894.78,-131.24 1027.03,-114.77 1140.31,-98 1145,-97.3 1149.83,-96.57 1154.71,-95.8"/>
<polygon fill="midnightblue" stroke="midnightblue" points="816.42,-137.16 806.91,-141.83 817.25,-144.11 816.42,-137.16"/>
</g>
<!-- Node15 -->
<g id="node15" class="node">
<title>Node15</title>
<g id="a_node15"><a xlink:href="vulkan__voxel__rasterizer__2_8cpp.html" target="_top" xlink:title=" ">
<polygon fill="none" stroke="black" points="582.31,-67.5 582.31,-97.5 756.31,-97.5 756.31,-67.5 582.31,-67.5"/>
<text text-anchor="start" x="590.31" y="-85.5" font-family="Helvetica,sans-Serif" font-size="10.00">/github/workspace/src</text>
<text text-anchor="middle" x="669.31" y="-74.5" font-family="Helvetica,sans-Serif" font-size="10.00">/tests/vulkan_voxel_rasterizer_2.cpp</text>
</a>
</g>
</g>
<!-- Node4&#45;&gt;Node15 -->
<g id="edge22" class="edge">
<title>Node4&#45;&gt;Node15</title>
<path fill="none" stroke="midnightblue" d="M724.61,-127.88C712.3,-118.01 697.88,-106.43 686.85,-97.58"/>
<polygon fill="midnightblue" stroke="midnightblue" points="722.74,-130.87 732.73,-134.4 727.12,-125.41 722.74,-130.87"/>
</g>
<!-- Node7 -->
<g id="node7" class="node">
<title>Node7</title>
<g id="a_node7"><a xlink:href="mainmenu_8cpp.html" target="_top" xlink:title=" ">
<polygon fill="none" stroke="black" points="488.81,-0.5 488.81,-30.5 619.81,-30.5 619.81,-0.5 488.81,-0.5"/>
<text text-anchor="start" x="496.81" y="-18.5" font-family="Helvetica,sans-Serif" font-size="10.00">/github/workspace/src</text>
<text text-anchor="middle" x="554.31" y="-7.5" font-family="Helvetica,sans-Serif" font-size="10.00">/renderer/ui/mainmenu.cpp</text>
</a>
</g>
</g>
<!-- Node6&#45;&gt;Node7 -->
<g id="edge7" class="edge">
<title>Node6&#45;&gt;Node7</title>
<path fill="none" stroke="midnightblue" d="M520.61,-59.45C528.1,-49.9 536.65,-39 543.26,-30.58"/>
<polygon fill="midnightblue" stroke="midnightblue" points="517.79,-57.37 514.37,-67.4 523.3,-61.69 517.79,-57.37"/>
</g>
<!-- Node6&#45;&gt;Node8 -->
<g id="edge8" class="edge">
<title>Node6&#45;&gt;Node8</title>
<path fill="none" stroke="midnightblue" d="M475.85,-61.45C462.16,-51.45 445.93,-39.6 433.58,-30.58"/>
<polygon fill="midnightblue" stroke="midnightblue" points="473.85,-64.32 483.99,-67.4 477.98,-58.67 473.85,-64.32"/>
</g>
<!-- Node6&#45;&gt;Node9 -->
<g id="edge9" class="edge">
<title>Node6&#45;&gt;Node9</title>
<path fill="none" stroke="midnightblue" d="M573.95,-67.05C796.16,-36.85 855.68,-55.33 1074.31,-31 1077.24,-30.67 1080.22,-30.32 1083.22,-29.96"/>
<polygon fill="midnightblue" stroke="midnightblue" points="573.36,-63.6 563.93,-68.43 574.31,-70.53 573.36,-63.6"/>
</g>
<!-- Node6&#45;&gt;Node10 -->
<g id="edge10" class="edge">
<title>Node6&#45;&gt;Node10</title>
<path fill="none" stroke="midnightblue" d="M574.18,-66.84C643.13,-53.06 710.72,-40.03 760.57,-30.5"/>
<polygon fill="midnightblue" stroke="midnightblue" points="573.12,-63.48 564,-68.88 574.49,-70.35 573.12,-63.48"/>
</g>
<!-- Node11&#45;&gt;Node8 -->
<g id="edge13" class="edge">
<title>Node11&#45;&gt;Node8</title>
<path fill="none" stroke="midnightblue" d="M934.38,-71.6C922.05,-69.95 909.31,-68.35 897.31,-67 712.44,-46.27 664.21,-59.02 480.31,-31 477.29,-30.54 474.21,-30.02 471.1,-29.47"/>
<polygon fill="midnightblue" stroke="midnightblue" points="934.22,-75.11 944.6,-72.99 935.17,-68.18 934.22,-75.11"/>
</g>
<!-- Node11&#45;&gt;Node9 -->
<g id="edge14" class="edge">
<title>Node11&#45;&gt;Node9</title>
<path fill="none" stroke="midnightblue" d="M1048.36,-63.68C1075.3,-53.26 1108.84,-40.28 1133.92,-30.58"/>
<polygon fill="midnightblue" stroke="midnightblue" points="1046.82,-60.52 1038.76,-67.4 1049.35,-67.05 1046.82,-60.52"/>
</g>
<!-- Node11&#45;&gt;Node10 -->
<g id="edge15" class="edge">
<title>Node11&#45;&gt;Node10</title>
<path fill="none" stroke="midnightblue" d="M956.25,-63.68C929.31,-53.26 895.77,-40.28 870.69,-30.58"/>
<polygon fill="midnightblue" stroke="midnightblue" points="955.26,-67.05 965.85,-67.4 957.79,-60.52 955.26,-67.05"/>
</g>
<!-- Node12 -->
<g id="node12" class="node">
<title>Node12</title>
<g id="a_node12"><a xlink:href="objectlist_8cpp.html" target="_top" xlink:title=" ">
<polygon fill="none" stroke="black" points="939.81,-0.5 939.81,-30.5 1064.81,-30.5 1064.81,-0.5 939.81,-0.5"/>
<text text-anchor="start" x="947.81" y="-18.5" font-family="Helvetica,sans-Serif" font-size="10.00">/github/workspace/src</text>
<text text-anchor="middle" x="1002.31" y="-7.5" font-family="Helvetica,sans-Serif" font-size="10.00">/renderer/ui/objectlist.cpp</text>
</a>
</g>
</g>
<!-- Node11&#45;&gt;Node12 -->
<g id="edge12" class="edge">
<title>Node11&#45;&gt;Node12</title>
<path fill="none" stroke="midnightblue" d="M1002.31,-57.11C1002.31,-48.15 1002.31,-38.32 1002.31,-30.58"/>
<polygon fill="midnightblue" stroke="midnightblue" points="998.81,-57.4 1002.31,-67.4 1005.81,-57.4 998.81,-57.4"/>
</g>
<!-- Node13&#45;&gt;Node8 -->
<g id="edge18" class="edge">
<title>Node13&#45;&gt;Node8</title>
<path fill="none" stroke="midnightblue" d="M1144.37,-73.41C1120.18,-71.18 1093.7,-68.86 1069.31,-67 807.8,-47.01 740.05,-67.25 480.31,-31 477.28,-30.58 474.2,-30.09 471.09,-29.56"/>
<polygon fill="midnightblue" stroke="midnightblue" points="1144.3,-76.92 1154.58,-74.36 1144.95,-69.95 1144.3,-76.92"/>
</g>
<!-- Node13&#45;&gt;Node9 -->
<g id="edge19" class="edge">
<title>Node13&#45;&gt;Node9</title>
<path fill="none" stroke="midnightblue" d="M1208.22,-59.74C1199.79,-50.12 1190.11,-39.09 1182.65,-30.58"/>
<polygon fill="midnightblue" stroke="midnightblue" points="1205.71,-62.18 1214.94,-67.4 1210.98,-57.57 1205.71,-62.18"/>
</g>
<!-- Node13&#45;&gt;Node10 -->
<g id="edge20" class="edge">
<title>Node13&#45;&gt;Node10</title>
<path fill="none" stroke="midnightblue" d="M1144.78,-67.85C1078.54,-56.89 985.88,-41.57 919.06,-30.52"/>
<polygon fill="midnightblue" stroke="midnightblue" points="1144.33,-71.32 1154.76,-69.5 1145.47,-64.42 1144.33,-71.32"/>
</g>
<!-- Node14 -->
<g id="node14" class="node">
<title>Node14</title>
<g id="a_node14"><a xlink:href="objectproperties_8cpp.html" target="_top" xlink:title=" ">
<polygon fill="none" stroke="black" points="1275.81,-0.5 1275.81,-30.5 1430.81,-30.5 1430.81,-0.5 1275.81,-0.5"/>
<text text-anchor="start" x="1283.81" y="-18.5" font-family="Helvetica,sans-Serif" font-size="10.00">/github/workspace/src</text>
<text text-anchor="middle" x="1353.31" y="-7.5" font-family="Helvetica,sans-Serif" font-size="10.00">/renderer/ui/objectproperties.cpp</text>
</a>
</g>
</g>
<!-- Node13&#45;&gt;Node14 -->
<g id="edge17" class="edge">
<title>Node13&#45;&gt;Node14</title>
<path fill="none" stroke="midnightblue" d="M1263.72,-62.71C1283.59,-52.46 1307.78,-39.98 1326.02,-30.58"/>
<polygon fill="midnightblue" stroke="midnightblue" points="1261.93,-59.7 1254.65,-67.4 1265.14,-65.92 1261.93,-59.7"/>
</g>
<!-- Node16&#45;&gt;Node2 -->
<g id="edge26" class="edge">
<title>Node16&#45;&gt;Node2</title>
<path fill="none" stroke="midnightblue" d="M372.85,-174.57C373.3,-183.6 373.01,-193.56 371.98,-201.4"/>
<polygon fill="midnightblue" stroke="midnightblue" points="376.33,-174.24 371.98,-164.58 369.36,-174.84 376.33,-174.24"/>
</g>
<!-- Node16&#45;&gt;Node6 -->
<g id="edge28" class="edge">
<title>Node16&#45;&gt;Node6</title>
<path fill="none" stroke="midnightblue" d="M405.31,-129.99C427.03,-119.69 453.63,-107.07 473.64,-97.58"/>
<polygon fill="midnightblue" stroke="midnightblue" points="403.57,-126.95 396.03,-134.4 406.57,-133.27 403.57,-126.95"/>
</g>
<!-- Node17 -->
<g id="node17" class="node">
<title>Node17</title>
<g id="a_node17"><a xlink:href="scenewriter_8cpp.html" target="_top" xlink:title=" ">
<polygon fill="none" stroke="black" points="260.31,-67.5 260.31,-97.5 386.31,-97.5 386.31,-67.5 260.31,-67.5"/>
<text text-anchor="start" x="268.31" y="-85.5" font-family="Helvetica,sans-Serif" font-size="10.00">/github/workspace/src</text>
<text text-anchor="middle" x="323.31" y="-74.5" font-family="Helvetica,sans-Serif" font-size="10.00">/renderer/scenewriter.cpp</text>
</a>
</g>
</g>
<!-- Node16&#45;&gt;Node17 -->
<g id="edge27" class="edge">
<title>Node16&#45;&gt;Node17</title>
<path fill="none" stroke="midnightblue" d="M351.33,-125.87C345.11,-116.46 338.08,-105.83 332.62,-97.58"/>
<polygon fill="midnightblue" stroke="midnightblue" points="348.54,-127.99 356.97,-134.4 354.38,-124.12 348.54,-127.99"/>
</g>
</g>
</svg>
        <g id="navigator" transform="translate(0 0)" fill="#404254">
                <rect fill="#f2f5e9" fill-opacity="0.5" stroke="#606060" stroke-width=".5" x="0" y="0" width="60" height="60"/>
                <use id="zoomplus" xlink:href="#zoomPlus" x="17" y="9" onmousedown="handleZoom(evt,'in')"/>
                <use id="zoomminus" xlink:href="#zoomMin" x="42" y="9" onmousedown="handleZoom(evt,'out')"/>
                <use id="reset" xlink:href="#resetDef" x="30" y="36" onmousedown="handleReset()"/>
                <g id="arrowUp" xlink:href="#dirArrow" transform="translate(30 24)" onmousedown="handlePan(0,-1)">
                  <use xlink:href="#rim" fill="#404040">
                        <set attributeName="fill" to="#808080" begin="arrowUp.mouseover" end="arrowUp.mouseout"/>
                  </use>
                  <path fill="none" stroke="white" stroke-width="1.5" d="M0,-3.0v7 M-2.5,-0.5L0,-3.0L2.5,-0.5"/>
                </g>
                <g id="arrowRight" xlink:href="#dirArrow" transform="rotate(90) translate(36 -43)" onmousedown="handlePan(1,0)">
                  <use xlink:href="#rim" fill="#404040">
                        <set attributeName="fill" to="#808080" begin="arrowRight.mouseover" end="arrowRight.mouseout"/>
                  </use>
                  <path fill="none" stroke="white" stroke-width="1.5" d="M0,-3.0v7 M-2.5,-0.5L0,-3.0L2.5,-0.5"/>
                </g>
                <g id="arrowDown" xlink:href="#dirArrow" transform="rotate(180) translate(-30 -48)" onmousedown="handlePan(0,1)">
                  <use xlink:href="#rim" fill="#404040">
                        <set attributeName="fill" to="#808080" begin="arrowDown.mouseover" end="arrowDown.mouseout"/>
                  </use>
                  <path fill="none" stroke="white" stroke-width="1.5" d="M0,-3.0v7 M-2.5,-0.5L0,-3.0L2.5,-0.5"/>
                </g>
                <g id="arrowLeft" xlink:href="#dirArrow" transform="rotate(270) translate(-36 17)" onmousedown="handlePan(-1,0)">
                  <use xlink:href="#rim" fill="#404040">
                        <set attributeName="fill" to="#808080" begin="arrowLeft.mouseover" end="arrowLeft.mouseout"/>
                  </use>
                  <path fill="none" stroke="white" stroke-width="1.5" d="M0,-3.0v7 M-2.5,-0.5L0,-3.0L2.5,-0.5"/>
                </g>
        </g>
        <svg viewBox="0 0 15 15" width="100%" height="30px" preserveAspectRatio="xMaxYMin meet">
         <g id="arrow_out" transform="scale(0.3 0.3)">
          <a xlink:href="uirenderer_8h__dep__incl_org.svg" target="_base">
           <rect id="button" ry="5" rx="5" y="6" x="6" height="38" width="38"
                fill="#f2f5e9" fill-opacity="0.5" stroke="#606060" stroke-width="1.0"/>
           <path id="arrow"
             d="M 11.500037,31.436501 C 11.940474,20.09759 22.043105,11.32322 32.158766,21.979434 L 37.068811,17.246167 C 37.068811,17.246167 37.088388,32 37.088388,32 L 22.160133,31.978069 C 22.160133,31.978069 26.997745,27.140456 26.997745,27.140456 C 18.528582,18.264221 13.291696,25.230495 11.500037,31.436501 z"
             style="fill:#404040;"/>
          </a>
         </g>
        </svg>
</svg>
