<?xml version="1.0" encoding="UTF-8" standalone="no"?>
<!DOCTYPE svg PUBLIC "-//W3C//DTD SVG 1.1//EN"
 "http://www.w3.org/Graphics/SVG/1.1/DTD/svg11.dtd">
<!-- Generated by graphviz version 2.50.0 (20220203.2022)
 -->
<!-- Title: hash Pages: 1 -->
<svg width="355pt" height="127pt"
 viewBox="0.00 0.00 355.32 126.50" xmlns="http://www.w3.org/2000/svg" xmlns:xlink="http://www.w3.org/1999/xlink">
<g id="graph0" class="graph" transform="scale(1 1) rotate(0) translate(4 122.5)">
<title>hash</title>
<!-- Node1 -->
<g id="node1" class="node">
<title>Node1</title>
<g id="a_node1"><a xlink:title=" ">
<polygon fill="#bfbfbf" stroke="black" points="306,-44.5 306,-63.5 344,-63.5 344,-44.5 306,-44.5"/>
<text text-anchor="middle" x="325" y="-51.5" font-family="Helvetica,sans-Serif" font-size="10.00">hash</text>
</a>
</g>
</g>
<!-- Node1&#45;&gt;Node1 -->
<g id="edge1" class="edge">
<title>Node1&#45;&gt;Node1</title>
<path fill="none" stroke="midnightblue" d="M347.32,-73.03C346.1,-78.13 338.66,-82 325,-82 303.67,-82 297.51,-72.57 306.5,-63.76"/>
<polygon fill="midnightblue" stroke="midnightblue" points="350.55,-71.67 343.5,-63.76 344.07,-74.34 350.55,-71.67"/>
</g>
<!-- Node2 -->
<g id="node2" class="node">
<title>Node2</title>
<g id="a_node2"><a xlink:href="class_model_loader.html#a71b4c0acf91378a4453ec415da93352d" target="_top" xlink:title=" ">
<polygon fill="none" stroke="black" points="140,-88 140,-118 270,-118 270,-88 140,-88"/>
<text text-anchor="start" x="148" y="-106" font-family="Helvetica,sans-Serif" font-size="10.00">ModelLoader::loadMaterial</text>
<text text-anchor="middle" x="205" y="-95" font-family="Helvetica,sans-Serif" font-size="10.00">Properties</text>
</a>
</g>
</g>
<!-- Node1&#45;&gt;Node2 -->
<g id="edge2" class="edge">
<title>Node1&#45;&gt;Node2</title>
<path fill="none" stroke="midnightblue" d="M296.58,-67.18C288.12,-71.11 278.73,-75.35 270,-79 262.77,-82.02 255.02,-85.08 247.49,-87.96"/>
<polygon fill="midnightblue" stroke="midnightblue" points="298.1,-70.33 305.66,-62.91 295.12,-64 298.1,-70.33"/>
</g>
<!-- Node4 -->
<g id="node4" class="node">
<title>Node4</title>
<g id="a_node4"><a xlink:href="class_model_loader.html#a7c18ec69b997e240695c93da74306e1d" target="_top" xlink:title=" ">
<polygon fill="none" stroke="black" points="140,-39 140,-69 270,-69 270,-39 140,-39"/>
<text text-anchor="start" x="148" y="-57" font-family="Helvetica,sans-Serif" font-size="10.00">ModelLoader::loadMaterial</text>
<text text-anchor="middle" x="205" y="-46" font-family="Helvetica,sans-Serif" font-size="10.00">Textures</text>
</a>
</g>
</g>
<!-- Node1&#45;&gt;Node4 -->
<g id="edge4" class="edge">
<title>Node1&#45;&gt;Node4</title>
<path fill="none" stroke="midnightblue" d="M295.82,-54C287.97,-54 279.1,-54 270.08,-54"/>
<polygon fill="midnightblue" stroke="midnightblue" points="295.82,-57.5 305.82,-54 295.82,-50.5 295.82,-57.5"/>
</g>
<!-- Node5 -->
<g id="node5" class="node">
<title>Node5</title>
<g id="a_node5"><a xlink:href="utils_8h.html#a969d7f15d59893f12aa22cac515358bf" target="_top" xlink:title=" ">
<polygon fill="none" stroke="black" points="163,-0.5 163,-19.5 247,-19.5 247,-0.5 163,-0.5"/>
<text text-anchor="middle" x="205" y="-7.5" font-family="Helvetica,sans-Serif" font-size="10.00">operator&quot;&quot;_hash</text>
</a>
</g>
</g>
<!-- Node1&#45;&gt;Node5 -->
<g id="edge6" class="edge">
<title>Node1&#45;&gt;Node5</title>
<path fill="none" stroke="midnightblue" d="M296.38,-40.99C287.99,-37.24 278.69,-33.28 270,-30 260.09,-26.26 249.14,-22.66 239.14,-19.56"/>
<polygon fill="midnightblue" stroke="midnightblue" points="295.17,-44.29 305.72,-45.25 298.08,-37.92 295.17,-44.29"/>
</g>
<!-- Node3 -->
<g id="node3" class="node">
<title>Node3</title>
<g id="a_node3"><a xlink:href="class_model_loader.html#a6a09b742ed2dfde508f46de34f44cc9e" target="_top" xlink:title=" ">
<polygon fill="none" stroke="black" points="0,-68.5 0,-87.5 104,-87.5 104,-68.5 0,-68.5"/>
<text text-anchor="middle" x="52" y="-75.5" font-family="Helvetica,sans-Serif" font-size="10.00">ModelLoader::import</text>
</a>
</g>
</g>
<!-- Node2&#45;&gt;Node3 -->
<g id="edge3" class="edge">
<title>Node2&#45;&gt;Node3</title>
<path fill="none" stroke="midnightblue" d="M129.86,-90.73C121.22,-89.29 112.56,-87.86 104.33,-86.5"/>
<polygon fill="midnightblue" stroke="midnightblue" points="129.52,-94.22 139.96,-92.4 130.67,-87.31 129.52,-94.22"/>
</g>
<!-- Node4&#45;&gt;Node3 -->
<g id="edge5" class="edge">
<title>Node4&#45;&gt;Node3</title>
<path fill="none" stroke="midnightblue" d="M129.86,-65.78C121.22,-67.16 112.56,-68.53 104.33,-69.84"/>
<polygon fill="midnightblue" stroke="midnightblue" points="130.64,-69.2 139.96,-64.18 129.54,-62.29 130.64,-69.2"/>
</g>
</g>
</svg>
