<?xml version="1.0" encoding="UTF-8" standalone="no"?>
<!DOCTYPE svg PUBLIC "-//W3C//DTD SVG 1.1//EN"
 "http://www.w3.org/Graphics/SVG/1.1/DTD/svg11.dtd">
<!-- Generated by graphviz version 2.50.0 (20220203.2022)
 -->
<!-- Title: /github/workspace/src/math/vec_abs.cpp Pages: 1 -->
<svg width="194pt" height="151pt"
 viewBox="0.00 0.00 194.00 151.00" xmlns="http://www.w3.org/2000/svg" xmlns:xlink="http://www.w3.org/1999/xlink">
<g id="graph0" class="graph" transform="scale(1 1) rotate(0) translate(4 147)">
<title>/github/workspace/src/math/vec_abs.cpp</title>
<!-- Node1 -->
<g id="node1" class="node">
<title>Node1</title>
<g id="a_node1"><a xlink:title=" ">
<polygon fill="#bfbfbf" stroke="black" points="24.5,-112.5 24.5,-142.5 137.5,-142.5 137.5,-112.5 24.5,-112.5"/>
<text text-anchor="start" x="32.5" y="-130.5" font-family="Helvetica,sans-Serif" font-size="10.00">/github/workspace/src</text>
<text text-anchor="middle" x="81" y="-119.5" font-family="Helvetica,sans-Serif" font-size="10.00">/math/vec_abs.cpp</text>
</a>
</g>
</g>
<!-- Node2 -->
<g id="node2" class="node">
<title>Node2</title>
<g id="a_node2"><a xlink:href="vec__abs_8h.html" target="_top" xlink:title=" ">
<polygon fill="none" stroke="black" points="50.5,-56.5 50.5,-75.5 111.5,-75.5 111.5,-56.5 50.5,-56.5"/>
<text text-anchor="middle" x="81" y="-63.5" font-family="Helvetica,sans-Serif" font-size="10.00">vec_abs.h</text>
</a>
</g>
</g>
<!-- Node1&#45;&gt;Node2 -->
<g id="edge1" class="edge">
<title>Node1&#45;&gt;Node2</title>
<path fill="none" stroke="midnightblue" d="M81,-112.4C81,-104.47 81,-94.46 81,-85.86"/>
<polygon fill="midnightblue" stroke="midnightblue" points="84.5,-85.66 81,-75.66 77.5,-85.66 84.5,-85.66"/>
</g>
<!-- Node3 -->
<g id="node3" class="node">
<title>Node3</title>
<g id="a_node3"><a xlink:title=" ">
<polygon fill="none" stroke="#bfbfbf" points="0,-0.5 0,-19.5 38,-19.5 38,-0.5 0,-0.5"/>
<text text-anchor="middle" x="19" y="-7.5" font-family="Helvetica,sans-Serif" font-size="10.00">array</text>
</a>
</g>
</g>
<!-- Node2&#45;&gt;Node3 -->
<g id="edge2" class="edge">
<title>Node2&#45;&gt;Node3</title>
<path fill="none" stroke="midnightblue" d="M71.04,-56.32C61.87,-48.34 48.06,-36.31 36.97,-26.65"/>
<polygon fill="midnightblue" stroke="midnightblue" points="38.98,-23.76 29.14,-19.83 34.38,-29.04 38.98,-23.76"/>
</g>
<!-- Node4 -->
<g id="node4" class="node">
<title>Node4</title>
<g id="a_node4"><a xlink:title=" ">
<polygon fill="none" stroke="#bfbfbf" points="56.5,-0.5 56.5,-19.5 105.5,-19.5 105.5,-0.5 56.5,-0.5"/>
<text text-anchor="middle" x="81" y="-7.5" font-family="Helvetica,sans-Serif" font-size="10.00">cstddef</text>
</a>
</g>
</g>
<!-- Node2&#45;&gt;Node4 -->
<g id="edge3" class="edge">
<title>Node2&#45;&gt;Node4</title>
<path fill="none" stroke="midnightblue" d="M81,-56.08C81,-49.01 81,-38.86 81,-29.99"/>
<polygon fill="midnightblue" stroke="midnightblue" points="84.5,-29.75 81,-19.75 77.5,-29.75 84.5,-29.75"/>
</g>
<!-- Node5 -->
<g id="node5" class="node">
<title>Node5</title>
<g id="a_node5"><a xlink:title=" ">
<polygon fill="none" stroke="#bfbfbf" points="124,-0.5 124,-19.5 186,-19.5 186,-0.5 124,-0.5"/>
<text text-anchor="middle" x="155" y="-7.5" font-family="Helvetica,sans-Serif" font-size="10.00">type_traits</text>
</a>
</g>
</g>
<!-- Node2&#45;&gt;Node5 -->
<g id="edge4" class="edge">
<title>Node2&#45;&gt;Node5</title>
<path fill="none" stroke="midnightblue" d="M92.89,-56.32C104.15,-48.11 121.29,-35.6 134.71,-25.81"/>
<polygon fill="midnightblue" stroke="midnightblue" points="136.88,-28.56 142.89,-19.83 132.75,-22.9 136.88,-28.56"/>
</g>
</g>
</svg>
