<?xml version="1.0" encoding="UTF-8" standalone="no"?>
<!DOCTYPE svg PUBLIC "-//W3C//DTD SVG 1.1//EN"
 "http://www.w3.org/Graphics/SVG/1.1/DTD/svg11.dtd">
<!-- Generated by graphviz version 2.50.0 (20220203.2022)
 -->
<!-- Title: main Pages: 1 -->
<svg width="1101pt" height="355pt"
 viewBox="0.00 0.00 1101.00 354.50" xmlns="http://www.w3.org/2000/svg" xmlns:xlink="http://www.w3.org/1999/xlink">
<g id="graph0" class="graph" transform="scale(1 1) rotate(0) translate(4 350.5)">
<title>main</title>
<!-- Node1 -->
<g id="node1" class="node">
<title>Node1</title>
<g id="a_node1"><a xlink:title=" ">
<polygon fill="#bfbfbf" stroke="black" points="0,-113.5 0,-132.5 38,-132.5 38,-113.5 0,-113.5"/>
<text text-anchor="middle" x="19" y="-120.5" font-family="Helvetica,sans-Serif" font-size="10.00">main</text>
</a>
</g>
</g>
<!-- Node2 -->
<g id="node2" class="node">
<title>Node2</title>
<g id="a_node2"><a xlink:href="class_vulkan_rasterizer.html#add1cfb13a3ae242ca9eef6c1e9e42751" target="_top" xlink:title=" ">
<polygon fill="none" stroke="black" points="74,-113.5 74,-132.5 182,-132.5 182,-113.5 74,-113.5"/>
<text text-anchor="middle" x="128" y="-120.5" font-family="Helvetica,sans-Serif" font-size="10.00">VulkanRasterizer::run</text>
</a>
</g>
</g>
<!-- Node1&#45;&gt;Node2 -->
<g id="edge1" class="edge">
<title>Node1&#45;&gt;Node2</title>
<path fill="none" stroke="midnightblue" d="M38.15,-123C45.42,-123 54.26,-123 63.52,-123"/>
<polygon fill="midnightblue" stroke="midnightblue" points="63.67,-126.5 73.67,-123 63.67,-119.5 63.67,-126.5"/>
</g>
<!-- Node3 -->
<g id="node3" class="node">
<title>Node3</title>
<g id="a_node3"><a xlink:href="class_vulkan_rasterizer.html#ad563a3216fcd02e6bf4473382c8a3125" target="_top" xlink:title=" ">
<polygon fill="none" stroke="black" points="222.5,-151.5 222.5,-170.5 350.5,-170.5 350.5,-151.5 222.5,-151.5"/>
<text text-anchor="middle" x="286.5" y="-158.5" font-family="Helvetica,sans-Serif" font-size="10.00">VulkanRasterizer::cleanup</text>
</a>
</g>
</g>
<!-- Node2&#45;&gt;Node3 -->
<g id="edge2" class="edge">
<title>Node2&#45;&gt;Node3</title>
<path fill="none" stroke="midnightblue" d="M168.49,-132.59C189.14,-137.6 214.61,-143.79 236.51,-149.11"/>
<polygon fill="midnightblue" stroke="midnightblue" points="235.75,-152.52 246.29,-151.48 237.4,-145.72 235.75,-152.52"/>
</g>
<!-- Node4 -->
<g id="node4" class="node">
<title>Node4</title>
<g id="a_node4"><a xlink:href="class_vulkan_rasterizer.html#a91d83d21a2d62b9042827d03a8b4d7a0" target="_top" xlink:title=" ">
<polygon fill="none" stroke="black" points="233,-113.5 233,-132.5 340,-132.5 340,-113.5 233,-113.5"/>
<text text-anchor="middle" x="286.5" y="-120.5" font-family="Helvetica,sans-Serif" font-size="10.00">VulkanRasterizer::init</text>
</a>
</g>
</g>
<!-- Node2&#45;&gt;Node4 -->
<g id="edge3" class="edge">
<title>Node2&#45;&gt;Node4</title>
<path fill="none" stroke="midnightblue" d="M182.42,-123C195.4,-123 209.4,-123 222.78,-123"/>
<polygon fill="midnightblue" stroke="midnightblue" points="222.85,-126.5 232.85,-123 222.85,-119.5 222.85,-126.5"/>
</g>
<!-- Node26 -->
<g id="node26" class="node">
<title>Node26</title>
<g id="a_node26"><a xlink:href="class_vulkan_rasterizer.html#a3d77e38b2da09aa7f56e5bf247932bc8" target="_top" xlink:title=" ">
<polygon fill="none" stroke="black" points="218,-75.5 218,-94.5 355,-94.5 355,-75.5 218,-75.5"/>
<text text-anchor="middle" x="286.5" y="-82.5" font-family="Helvetica,sans-Serif" font-size="10.00">VulkanRasterizer::mainLoop</text>
</a>
</g>
</g>
<!-- Node2&#45;&gt;Node26 -->
<g id="edge26" class="edge">
<title>Node2&#45;&gt;Node26</title>
<path fill="none" stroke="midnightblue" d="M168.49,-113.41C189.14,-108.4 214.61,-102.21 236.51,-96.89"/>
<polygon fill="midnightblue" stroke="midnightblue" points="237.4,-100.28 246.29,-94.52 235.75,-93.48 237.4,-100.28"/>
</g>
<!-- Node5 -->
<g id="node5" class="node">
<title>Node5</title>
<g id="a_node5"><a xlink:href="class_vulkan_rasterizer.html#a29b1525f64ee3cc77220ec6ac8413a5c" target="_top" xlink:title=" ">
<polygon fill="none" stroke="black" points="402,-228 402,-258 524,-258 524,-228 402,-228"/>
<text text-anchor="start" x="410" y="-246" font-family="Helvetica,sans-Serif" font-size="10.00">VulkanRasterizer::create</text>
<text text-anchor="middle" x="463" y="-235" font-family="Helvetica,sans-Serif" font-size="10.00">Instance</text>
</a>
</g>
</g>
<!-- Node4&#45;&gt;Node5 -->
<g id="edge4" class="edge">
<title>Node4&#45;&gt;Node5</title>
<path fill="none" stroke="midnightblue" d="M339.61,-132.61C345.17,-135.06 350.45,-138.14 355,-142 383.8,-166.45 362.84,-193.82 391,-219 392.33,-220.19 393.73,-221.33 395.17,-222.4"/>
<polygon fill="midnightblue" stroke="midnightblue" points="393.63,-225.57 403.94,-227.99 397.39,-219.66 393.63,-225.57"/>
</g>
<!-- Node13 -->
<g id="node13" class="node">
<title>Node13</title>
<g id="a_node13"><a xlink:href="class_vulkan_rasterizer.html#a498dd6be7070d25039d287f492fa9ec4" target="_top" xlink:title=" ">
<polygon fill="none" stroke="black" points="402,-179 402,-209 524,-209 524,-179 402,-179"/>
<text text-anchor="start" x="410" y="-197" font-family="Helvetica,sans-Serif" font-size="10.00">VulkanRasterizer::create</text>
<text text-anchor="middle" x="463" y="-186" font-family="Helvetica,sans-Serif" font-size="10.00">RenderManager</text>
</a>
</g>
</g>
<!-- Node4&#45;&gt;Node13 -->
<g id="edge13" class="edge">
<title>Node4&#45;&gt;Node13</title>
<path fill="none" stroke="midnightblue" d="M330.93,-132.54C339.14,-135.09 347.5,-138.21 355,-142 373.09,-151.14 373.15,-160.4 391,-170 394.29,-171.77 397.73,-173.44 401.25,-175.02"/>
<polygon fill="midnightblue" stroke="midnightblue" points="400.13,-178.34 410.7,-178.97 402.83,-171.88 400.13,-178.34"/>
</g>
<!-- Node15 -->
<g id="node15" class="node">
<title>Node15</title>
<g id="a_node15"><a xlink:href="class_vulkan_rasterizer.html#a05cc5233ba0a972187309807adced9f1" target="_top" xlink:title=" ">
<polygon fill="none" stroke="black" points="402,-130 402,-160 524,-160 524,-130 402,-130"/>
<text text-anchor="start" x="410" y="-148" font-family="Helvetica,sans-Serif" font-size="10.00">VulkanRasterizer::create</text>
<text text-anchor="middle" x="463" y="-137" font-family="Helvetica,sans-Serif" font-size="10.00">Scene</text>
</a>
</g>
</g>
<!-- Node4&#45;&gt;Node15 -->
<g id="edge15" class="edge">
<title>Node4&#45;&gt;Node15</title>
<path fill="none" stroke="midnightblue" d="M340.33,-129.66C356.51,-131.7 374.58,-133.98 391.73,-136.14"/>
<polygon fill="midnightblue" stroke="midnightblue" points="391.35,-139.62 401.71,-137.4 392.22,-132.68 391.35,-139.62"/>
</g>
<!-- Node16 -->
<g id="node16" class="node">
<title>Node16</title>
<g id="a_node16"><a xlink:href="class_vulkan_rasterizer.html#afdbc57016d139bcab3ee3b983ca77227" target="_top" xlink:title=" ">
<polygon fill="none" stroke="black" points="397,-91.5 397,-110.5 529,-110.5 529,-91.5 397,-91.5"/>
<text text-anchor="middle" x="463" y="-98.5" font-family="Helvetica,sans-Serif" font-size="10.00">VulkanRasterizer::createUI</text>
</a>
</g>
</g>
<!-- Node4&#45;&gt;Node16 -->
<g id="edge16" class="edge">
<title>Node4&#45;&gt;Node16</title>
<path fill="none" stroke="midnightblue" d="M340.33,-116.34C354.89,-114.5 370.98,-112.47 386.56,-110.51"/>
<polygon fill="midnightblue" stroke="midnightblue" points="387.22,-113.96 396.7,-109.23 386.34,-107.01 387.22,-113.96"/>
</g>
<!-- Node20 -->
<g id="node20" class="node">
<title>Node20</title>
<g id="a_node20"><a xlink:href="class_vulkan_rasterizer.html#ad74237aa45e8869add80eac8f5eed13f" target="_top" xlink:title=" ">
<polygon fill="none" stroke="black" points="392,-46.5 392,-65.5 534,-65.5 534,-46.5 392,-46.5"/>
<text text-anchor="middle" x="463" y="-53.5" font-family="Helvetica,sans-Serif" font-size="10.00">VulkanRasterizer::initWindow</text>
</a>
</g>
</g>
<!-- Node4&#45;&gt;Node20 -->
<g id="edge20" class="edge">
<title>Node4&#45;&gt;Node20</title>
<path fill="none" stroke="midnightblue" d="M328.46,-113.41C337.37,-110.79 346.63,-107.65 355,-104 372.19,-96.5 374.11,-90.15 391,-82 400.85,-77.24 411.82,-72.83 422.13,-69.03"/>
<polygon fill="midnightblue" stroke="midnightblue" points="423.51,-72.26 431.75,-65.6 421.15,-65.66 423.51,-72.26"/>
</g>
<!-- Node25 -->
<g id="node25" class="node">
<title>Node25</title>
<g id="a_node25"><a xlink:href="class_vulkan_rasterizer.html#a0649950f85953da05358416d7616fc09" target="_top" xlink:title=" ">
<polygon fill="none" stroke="black" points="391,-8.5 391,-27.5 535,-27.5 535,-8.5 391,-8.5"/>
<text text-anchor="middle" x="463" y="-15.5" font-family="Helvetica,sans-Serif" font-size="10.00">VulkanRasterizer::loadModels</text>
</a>
</g>
</g>
<!-- Node4&#45;&gt;Node25 -->
<g id="edge25" class="edge">
<title>Node4&#45;&gt;Node25</title>
<path fill="none" stroke="midnightblue" d="M338.71,-113.44C344.56,-110.98 350.16,-107.89 355,-104 381.37,-82.85 364.5,-57.98 391,-37 393.3,-35.18 395.76,-33.54 398.32,-32.05"/>
<polygon fill="midnightblue" stroke="midnightblue" points="400,-35.12 407.42,-27.57 396.91,-28.84 400,-35.12"/>
</g>
<!-- Node6 -->
<g id="node6" class="node">
<title>Node6</title>
<g id="a_node6"><a xlink:href="class_instance.html#a5157cfdc2e0f384b6fc4d2f901f50e51" target="_top" xlink:title=" ">
<polygon fill="none" stroke="black" points="588.5,-233.5 588.5,-252.5 674.5,-252.5 674.5,-233.5 588.5,-233.5"/>
<text text-anchor="middle" x="631.5" y="-240.5" font-family="Helvetica,sans-Serif" font-size="10.00">Instance::create</text>
</a>
</g>
</g>
<!-- Node5&#45;&gt;Node6 -->
<g id="edge5" class="edge">
<title>Node5&#45;&gt;Node6</title>
<path fill="none" stroke="midnightblue" d="M524.11,-243C541.78,-243 560.95,-243 578.09,-243"/>
<polygon fill="midnightblue" stroke="midnightblue" points="578.47,-246.5 588.47,-243 578.47,-239.5 578.47,-246.5"/>
</g>
<!-- Node7 -->
<g id="node7" class="node">
<title>Node7</title>
<g id="a_node7"><a xlink:href="class_instance.html#a2596ee041184991f5bde771922d7a830" target="_top" xlink:title=" ">
<polygon fill="none" stroke="black" points="750,-316 750,-346 877,-346 877,-316 750,-316"/>
<text text-anchor="start" x="758" y="-334" font-family="Helvetica,sans-Serif" font-size="10.00">Instance::checkExtension</text>
<text text-anchor="middle" x="813.5" y="-323" font-family="Helvetica,sans-Serif" font-size="10.00">Support</text>
</a>
</g>
</g>
<!-- Node6&#45;&gt;Node7 -->
<g id="edge6" class="edge">
<title>Node6&#45;&gt;Node7</title>
<path fill="none" stroke="midnightblue" d="M646.23,-252.58C664.35,-264.93 697.51,-286.52 728,-301 736.56,-305.07 745.82,-308.89 754.97,-312.37"/>
<polygon fill="midnightblue" stroke="midnightblue" points="753.84,-315.68 764.44,-315.85 756.26,-309.11 753.84,-315.68"/>
</g>
<!-- Node8 -->
<g id="node8" class="node">
<title>Node8</title>
<g id="a_node8"><a xlink:href="class_instance.html#a3ce4bb24b3870839a2cde17344de7bae" target="_top" xlink:title=" ">
<polygon fill="none" stroke="black" points="935,-299.5 935,-318.5 1093,-318.5 1093,-299.5 935,-299.5"/>
<text text-anchor="middle" x="1014" y="-306.5" font-family="Helvetica,sans-Serif" font-size="10.00">Instance::getRequiredExtensions</text>
</a>
</g>
</g>
<!-- Node6&#45;&gt;Node8 -->
<g id="edge11" class="edge">
<title>Node6&#45;&gt;Node8</title>
<path fill="none" stroke="midnightblue" d="M665.43,-252.6C683.74,-257.7 707,-263.76 728,-268 793.52,-281.24 868.35,-291.84 924.89,-298.94"/>
<polygon fill="midnightblue" stroke="midnightblue" points="924.52,-302.42 934.87,-300.18 925.38,-295.47 924.52,-302.42"/>
</g>
<!-- Node9 -->
<g id="node9" class="node">
<title>Node9</title>
<g id="a_node9"><a xlink:href="class_instance.html#a7dfd2e7ef11a8ea5389ff3b38e2bfe68" target="_top" xlink:title=" ">
<polygon fill="none" stroke="black" points="749.5,-228 749.5,-258 877.5,-258 877.5,-228 749.5,-228"/>
<text text-anchor="start" x="757.5" y="-246" font-family="Helvetica,sans-Serif" font-size="10.00">Instance::checkValidation</text>
<text text-anchor="middle" x="813.5" y="-235" font-family="Helvetica,sans-Serif" font-size="10.00">LayerSupport</text>
</a>
</g>
</g>
<!-- Node6&#45;&gt;Node9 -->
<g id="edge8" class="edge">
<title>Node6&#45;&gt;Node9</title>
<path fill="none" stroke="midnightblue" d="M674.7,-243C693.9,-243 717.18,-243 739.11,-243"/>
<polygon fill="midnightblue" stroke="midnightblue" points="739.4,-246.5 749.4,-243 739.4,-239.5 739.4,-246.5"/>
</g>
<!-- Node11 -->
<g id="node11" class="node">
<title>Node11</title>
<g id="a_node11"><a xlink:href="class_instance.html#a5831a759dd26a783a5004b521137e3ae" target="_top" xlink:title=" ">
<polygon fill="none" stroke="black" points="746,-179 746,-209 881,-209 881,-179 746,-179"/>
<text text-anchor="start" x="754" y="-197" font-family="Helvetica,sans-Serif" font-size="10.00">Instance::CreateDebugUtils</text>
<text text-anchor="middle" x="813.5" y="-186" font-family="Helvetica,sans-Serif" font-size="10.00">MessengerEXT</text>
</a>
</g>
</g>
<!-- Node6&#45;&gt;Node11 -->
<g id="edge10" class="edge">
<title>Node6&#45;&gt;Node11</title>
<path fill="none" stroke="midnightblue" d="M667.63,-233.44C690.32,-227.26 720.53,-219.04 747.5,-211.7"/>
<polygon fill="midnightblue" stroke="midnightblue" points="748.53,-215.04 757.26,-209.04 746.69,-208.29 748.53,-215.04"/>
</g>
<!-- Node12 -->
<g id="node12" class="node">
<title>Node12</title>
<g id="a_node12"><a xlink:href="class_instance.html#afc03642c387a726d74cc7b766e5af16b" target="_top" xlink:title=" ">
<polygon fill="none" stroke="black" points="728,-130 728,-160 899,-160 899,-130 728,-130"/>
<text text-anchor="start" x="736" y="-148" font-family="Helvetica,sans-Serif" font-size="10.00">Instance::populateDebugMessenger</text>
<text text-anchor="middle" x="813.5" y="-137" font-family="Helvetica,sans-Serif" font-size="10.00">CreateInfo</text>
</a>
</g>
</g>
<!-- Node6&#45;&gt;Node12 -->
<g id="edge12" class="edge">
<title>Node6&#45;&gt;Node12</title>
<path fill="none" stroke="midnightblue" d="M665.43,-233.45C674.59,-229.83 684.17,-225.08 692,-219 713.34,-202.43 705.89,-185.53 728,-170 730.84,-168 733.84,-166.17 736.95,-164.47"/>
<polygon fill="midnightblue" stroke="midnightblue" points="738.51,-167.61 745.96,-160.08 735.44,-161.32 738.51,-167.61"/>
</g>
<!-- Node7&#45;&gt;Node8 -->
<g id="edge7" class="edge">
<title>Node7&#45;&gt;Node8</title>
<path fill="none" stroke="midnightblue" d="M877.03,-324.07C892.19,-322.39 908.67,-320.56 924.76,-318.78"/>
<polygon fill="midnightblue" stroke="midnightblue" points="925.15,-322.26 934.71,-317.68 924.38,-315.3 925.15,-322.26"/>
</g>
<!-- Node10 -->
<g id="node10" class="node">
<title>Node10</title>
<g id="a_node10"><a xlink:href="class_instance.html#a8d8b9c56aab51b5a7e0d001081642a2d" target="_top" xlink:title=" ">
<polygon fill="none" stroke="black" points="941,-233.5 941,-252.5 1087,-252.5 1087,-233.5 941,-233.5"/>
<text text-anchor="middle" x="1014" y="-240.5" font-family="Helvetica,sans-Serif" font-size="10.00">Instance::getSupportedLayers</text>
</a>
</g>
</g>
<!-- Node9&#45;&gt;Node10 -->
<g id="edge9" class="edge">
<title>Node9&#45;&gt;Node10</title>
<path fill="none" stroke="midnightblue" d="M877.58,-243C894.38,-243 912.77,-243 930.45,-243"/>
<polygon fill="midnightblue" stroke="midnightblue" points="930.75,-246.5 940.75,-243 930.75,-239.5 930.75,-246.5"/>
</g>
<!-- Node14 -->
<g id="node14" class="node">
<title>Node14</title>
<g id="a_node14"><a xlink:href="class_render_manager.html#ac9713a810304479b4a7374df0799367e" target="_top" xlink:title=" ">
<polygon fill="none" stroke="black" points="573.5,-190.5 573.5,-209.5 689.5,-209.5 689.5,-190.5 573.5,-190.5"/>
<text text-anchor="middle" x="631.5" y="-197.5" font-family="Helvetica,sans-Serif" font-size="10.00">RenderManager::create</text>
</a>
</g>
</g>
<!-- Node13&#45;&gt;Node14 -->
<g id="edge14" class="edge">
<title>Node13&#45;&gt;Node14</title>
<path fill="none" stroke="midnightblue" d="M524.11,-196.17C536.75,-196.62 550.17,-197.11 563.06,-197.57"/>
<polygon fill="midnightblue" stroke="midnightblue" points="563.14,-201.07 573.26,-197.94 563.39,-194.08 563.14,-201.07"/>
</g>
<!-- Node17 -->
<g id="node17" class="node">
<title>Node17</title>
<g id="a_node17"><a xlink:href="class_main_menu.html#a7749fe19e2312a734e23b2979df9cf29" target="_top" xlink:title=" ">
<polygon fill="none" stroke="black" points="585,-152.5 585,-171.5 678,-171.5 678,-152.5 585,-152.5"/>
<text text-anchor="middle" x="631.5" y="-159.5" font-family="Helvetica,sans-Serif" font-size="10.00">MainMenu::create</text>
</a>
</g>
</g>
<!-- Node16&#45;&gt;Node17 -->
<g id="edge17" class="edge">
<title>Node16&#45;&gt;Node17</title>
<path fill="none" stroke="midnightblue" d="M505.22,-110.55C515.16,-113.41 525.61,-116.9 535,-121 552.19,-128.5 553.95,-135.2 571,-143 575.75,-145.17 580.81,-147.2 585.91,-149.06"/>
<polygon fill="midnightblue" stroke="midnightblue" points="585.08,-152.47 595.67,-152.42 587.36,-145.85 585.08,-152.47"/>
</g>
<!-- Node18 -->
<g id="node18" class="node">
<title>Node18</title>
<g id="a_node18"><a xlink:href="class_object_list.html#a5cac24a16df4546044c057d760b1f38d" target="_top" xlink:title=" ">
<polygon fill="none" stroke="black" points="585,-114.5 585,-133.5 678,-133.5 678,-114.5 585,-114.5"/>
<text text-anchor="middle" x="631.5" y="-121.5" font-family="Helvetica,sans-Serif" font-size="10.00">ObjectList::create</text>
</a>
</g>
</g>
<!-- Node16&#45;&gt;Node18 -->
<g id="edge18" class="edge">
<title>Node16&#45;&gt;Node18</title>
<path fill="none" stroke="midnightblue" d="M529.33,-110.02C544.28,-112.09 560.05,-114.27 574.57,-116.27"/>
<polygon fill="midnightblue" stroke="midnightblue" points="574.5,-119.8 584.89,-117.7 575.46,-112.86 574.5,-119.8"/>
</g>
<!-- Node19 -->
<g id="node19" class="node">
<title>Node19</title>
<g id="a_node19"><a xlink:href="class_object_properties.html#aefb35bac46fc7fe3d5cdf25fb48ed0d7" target="_top" xlink:title=" ">
<polygon fill="none" stroke="black" points="571,-76.5 571,-95.5 692,-95.5 692,-76.5 571,-76.5"/>
<text text-anchor="middle" x="631.5" y="-83.5" font-family="Helvetica,sans-Serif" font-size="10.00">ObjectProperties::create</text>
</a>
</g>
</g>
<!-- Node16&#45;&gt;Node19 -->
<g id="edge19" class="edge">
<title>Node16&#45;&gt;Node19</title>
<path fill="none" stroke="midnightblue" d="M529.33,-95.11C539.58,-94.19 550.21,-93.23 560.55,-92.3"/>
<polygon fill="midnightblue" stroke="midnightblue" points="561.14,-95.76 570.78,-91.38 560.51,-88.79 561.14,-95.76"/>
</g>
<!-- Node21 -->
<g id="node21" class="node">
<title>Node21</title>
<g id="a_node21"><a xlink:href="class_window.html#aca04f60c37e2fc5663dd24c80cf70b1b" target="_top" xlink:title=" ">
<polygon fill="none" stroke="black" points="590,-38.5 590,-57.5 673,-57.5 673,-38.5 590,-38.5"/>
<text text-anchor="middle" x="631.5" y="-45.5" font-family="Helvetica,sans-Serif" font-size="10.00">Window::create</text>
</a>
</g>
</g>
<!-- Node20&#45;&gt;Node21 -->
<g id="edge21" class="edge">
<title>Node20&#45;&gt;Node21</title>
<path fill="none" stroke="midnightblue" d="M534.13,-52.63C549.43,-51.9 565.34,-51.13 579.72,-50.44"/>
<polygon fill="midnightblue" stroke="midnightblue" points="580.07,-53.93 589.89,-49.95 579.73,-46.94 580.07,-53.93"/>
</g>
<!-- Node24 -->
<g id="node24" class="node">
<title>Node24</title>
<g id="a_node24"><a xlink:href="class_window.html#ab50d41994a7da97e3829c1e3134fc281" target="_top" xlink:title=" ">
<polygon fill="none" stroke="black" points="577.5,-0.5 577.5,-19.5 685.5,-19.5 685.5,-0.5 577.5,-0.5"/>
<text text-anchor="middle" x="631.5" y="-7.5" font-family="Helvetica,sans-Serif" font-size="10.00">Window::initWindows</text>
</a>
</g>
</g>
<!-- Node20&#45;&gt;Node24 -->
<g id="edge24" class="edge">
<title>Node20&#45;&gt;Node24</title>
<path fill="none" stroke="midnightblue" d="M500.15,-46.43C511.33,-43.44 523.68,-40.11 535,-37 552.06,-32.31 570.8,-27.03 587.13,-22.4"/>
<polygon fill="midnightblue" stroke="midnightblue" points="588.28,-25.71 596.94,-19.61 586.37,-18.98 588.28,-25.71"/>
</g>
<!-- Node22 -->
<g id="node22" class="node">
<title>Node22</title>
<g id="a_node22"><a xlink:href="class_window.html#afbdfb8ba03018225dfc29866afd26d2a" target="_top" xlink:title=" ">
<polygon fill="none" stroke="black" points="740.5,-38.5 740.5,-57.5 886.5,-57.5 886.5,-38.5 740.5,-38.5"/>
<text text-anchor="middle" x="813.5" y="-45.5" font-family="Helvetica,sans-Serif" font-size="10.00">Window::staticResizeCallback</text>
</a>
</g>
</g>
<!-- Node21&#45;&gt;Node22 -->
<g id="edge22" class="edge">
<title>Node21&#45;&gt;Node22</title>
<path fill="none" stroke="midnightblue" d="M673.34,-48C690.22,-48 710.41,-48 730.12,-48"/>
<polygon fill="midnightblue" stroke="midnightblue" points="730.35,-51.5 740.35,-48 730.35,-44.5 730.35,-51.5"/>
</g>
<!-- Node23 -->
<g id="node23" class="node">
<title>Node23</title>
<g id="a_node23"><a xlink:href="class_window.html#ae53e48ceff3fe92ae028cc92257a1f56" target="_top" xlink:title=" ">
<polygon fill="none" stroke="black" points="935,-38.5 935,-57.5 1093,-57.5 1093,-38.5 935,-38.5"/>
<text text-anchor="middle" x="1014" y="-45.5" font-family="Helvetica,sans-Serif" font-size="10.00">Window::dynamicResizeCallback</text>
</a>
</g>
</g>
<!-- Node22&#45;&gt;Node23 -->
<g id="edge23" class="edge">
<title>Node22&#45;&gt;Node23</title>
<path fill="none" stroke="midnightblue" d="M886.72,-48C899.06,-48 911.99,-48 924.69,-48"/>
<polygon fill="midnightblue" stroke="midnightblue" points="924.8,-51.5 934.8,-48 924.8,-44.5 924.8,-51.5"/>
</g>
</g>
</svg>
